G04 This is an RS-274x file exported by *
G04 gerbv version 2.6.0 *
G04 More information is available about gerbv at *
G04 http://gerbv.gpleda.org/ *
G04 --End of header info--*
%MOIN*%
%FSLAX34Y34*%
%IPPOS*%
G04 --Define apertures--*
%ADD10C,0.0138*%
%ADD11C,0.0020*%
%ADD12C,0.0039*%
%ADD13C,0.0020*%
%ADD14C,0.0019*%
%ADD15C,0.0079*%
%ADD16C,0.0059*%
%ADD17C,0.0020*%
%ADD18C,0.0100*%
%ADD19C,0.0060*%
G04 --Start main section--*
G54D11*
G01X0042951Y-029516D02*
G01X0040884Y-029516D01*
G01X0042951Y-025579D02*
G01X0042951Y-029516D01*
G01X0040884Y-025579D02*
G01X0042951Y-025579D01*
G01X0040884Y-029516D02*
G01X0040884Y-025579D01*
G01X0040944Y-031495D02*
G01X0042086Y-031495D01*
G01X0040944Y-031495D02*
G01X0040944Y-032085D01*
G01X0042086Y-031495D02*
G01X0042086Y-032085D01*
G01X0040944Y-032085D02*
G01X0042086Y-032085D01*
G01X0038955Y-033616D02*
G01X0038955Y-032474D01*
G01X0038955Y-033616D02*
G01X0039545Y-033616D01*
G01X0038955Y-032474D02*
G01X0039545Y-032474D01*
G01X0039545Y-033616D02*
G01X0039545Y-032474D01*
G01X0033200Y-027344D02*
G01X0032400Y-027344D01*
G01X0033200Y-028744D02*
G01X0033200Y-027344D01*
G01X0032400Y-028744D02*
G01X0033200Y-028744D01*
G01X0032400Y-027344D02*
G01X0032400Y-028744D01*
G01X0028895Y-032029D02*
G01X0028895Y-033171D01*
G01X0028895Y-032029D02*
G01X0028305Y-032029D01*
G01X0028895Y-033171D02*
G01X0028305Y-033171D01*
G01X0028305Y-032029D02*
G01X0028305Y-033171D01*
G01X0036513Y-030450D02*
G01X0037655Y-030450D01*
G01X0036513Y-030450D02*
G01X0036513Y-031040D01*
G01X0037655Y-030450D02*
G01X0037655Y-031040D01*
G01X0036513Y-031040D02*
G01X0037655Y-031040D01*
G01X0031655Y-028621D02*
G01X0031655Y-027479D01*
G01X0031655Y-028621D02*
G01X0032245Y-028621D01*
G01X0031655Y-027479D02*
G01X0032245Y-027479D01*
G01X0032245Y-028621D02*
G01X0032245Y-027479D01*
G01X0036809Y-031158D02*
G01X0037950Y-031158D01*
G01X0036809Y-031158D02*
G01X0036809Y-031749D01*
G01X0037950Y-031158D02*
G01X0037950Y-031749D01*
G01X0036809Y-031749D02*
G01X0037950Y-031749D01*
G01X0035274Y-025455D02*
G01X0036416Y-025455D01*
G01X0035274Y-025455D02*
G01X0035274Y-026045D01*
G01X0036416Y-025455D02*
G01X0036416Y-026045D01*
G01X0035274Y-026045D02*
G01X0036416Y-026045D01*
G01X0034874Y-030905D02*
G01X0036016Y-030905D01*
G01X0034874Y-030905D02*
G01X0034874Y-031495D01*
G01X0036016Y-030905D02*
G01X0036016Y-031495D01*
G01X0034874Y-031495D02*
G01X0036016Y-031495D01*
G01X0037424Y-026355D02*
G01X0038566Y-026355D01*
G01X0037424Y-026355D02*
G01X0037424Y-026945D01*
G01X0038566Y-026355D02*
G01X0038566Y-026945D01*
G01X0037424Y-026945D02*
G01X0038566Y-026945D01*
G01X0040515Y-027834D02*
G01X0040515Y-028976D01*
G01X0040515Y-027834D02*
G01X0039925Y-027834D01*
G01X0040515Y-028976D02*
G01X0039925Y-028976D01*
G01X0039925Y-027834D02*
G01X0039925Y-028976D01*
G54D12*
G01X0042027Y-031110D02*
G01X0042027Y-029910D01*
G54D11*
G01X0042205Y-029723D02*
G01X0042205Y-031297D01*
G01X0039449Y-029723D02*
G01X0042205Y-029723D01*
G01X0039449Y-031297D02*
G01X0039449Y-029723D01*
G01X0042205Y-031297D02*
G01X0039449Y-031297D01*
G01X0039925Y-027666D02*
G01X0039925Y-026524D01*
G01X0039925Y-027666D02*
G01X0040515Y-027666D01*
G01X0039925Y-026524D02*
G01X0040515Y-026524D01*
G01X0040515Y-027666D02*
G01X0040515Y-026524D01*
G01X0039000Y-027334D02*
G01X0039800Y-027334D01*
G01X0039000Y-025934D02*
G01X0039000Y-027334D01*
G01X0039800Y-025934D02*
G01X0039000Y-025934D01*
G01X0039800Y-027334D02*
G01X0039800Y-025934D01*
G01X0029694Y-028900D02*
G01X0029694Y-028100D01*
G01X0028294Y-028900D02*
G01X0029694Y-028900D01*
G01X0028294Y-028100D02*
G01X0028294Y-028900D01*
G01X0029694Y-028100D02*
G01X0028294Y-028100D01*
G01X0032400Y-030344D02*
G01X0033200Y-030344D01*
G01X0032400Y-028944D02*
G01X0032400Y-030344D01*
G01X0033200Y-028944D02*
G01X0032400Y-028944D01*
G01X0033200Y-030344D02*
G01X0033200Y-028944D01*
G01X0028095Y-029429D02*
G01X0028095Y-030571D01*
G01X0028095Y-029429D02*
G01X0027505Y-029429D01*
G01X0028095Y-030571D02*
G01X0027505Y-030571D01*
G01X0027505Y-029429D02*
G01X0027505Y-030571D01*
G01X0028895Y-029424D02*
G01X0028895Y-030566D01*
G01X0028895Y-029424D02*
G01X0028305Y-029424D01*
G01X0028895Y-030566D02*
G01X0028305Y-030566D01*
G01X0028305Y-029424D02*
G01X0028305Y-030566D01*
G01X0028334Y-030905D02*
G01X0029476Y-030905D01*
G01X0028334Y-030905D02*
G01X0028334Y-031495D01*
G01X0029476Y-030905D02*
G01X0029476Y-031495D01*
G01X0028334Y-031495D02*
G01X0029476Y-031495D01*
G01X0031200Y-030800D02*
G01X0031200Y-032800D01*
G01X0030000Y-030800D02*
G01X0031200Y-030800D01*
G01X0030000Y-032800D02*
G01X0030000Y-030800D01*
G01X0031200Y-032800D02*
G01X0030000Y-032800D01*
G54D13*
G01X0033817Y-027067D02*
G01X0033817Y-030317D01*
G01X0034667Y-026217D02*
G01X0033817Y-027067D01*
G01X0037917Y-026217D02*
G01X0034667Y-026217D01*
G01X0037917Y-030317D02*
G01X0037917Y-026217D01*
G54D14*
G01X0037917Y-030317D02*
G01X0033817Y-030317D01*
G54D11*
G01X0035462Y-031821D02*
G01X0038262Y-031821D01*
G01X0035462Y-033621D02*
G01X0035462Y-031821D01*
G01X0038262Y-033621D02*
G01X0035462Y-033621D01*
G01X0038262Y-031821D02*
G01X0038262Y-033621D01*
G54D15*
G01X0036062Y-033221D02*
G75*
G03X0036062Y-033221I-000100J0000000D01*
G54D13*
G01X0041300Y-032348D02*
G01X0039700Y-032348D01*
G01X0041300Y-033748D02*
G01X0041300Y-032348D01*
G01X0039700Y-033748D02*
G01X0041300Y-033748D01*
G01X0039700Y-032348D02*
G01X0039700Y-033748D01*
G54D16*
G01X0041150Y-033559D02*
G75*
G03X0041150Y-033559I-000039J0000000D01*
G54D17*
G01X0043217Y-023689D02*
G01X0024811Y-023689D01*
G01X0043217Y-022311D02*
G01X0043217Y-023689D01*
G01X0024811Y-022311D02*
G01X0043217Y-022311D01*
G01X0024811Y-023689D02*
G01X0024811Y-022311D01*
G01X0043217Y-036689D02*
G01X0024811Y-036689D01*
G01X0043217Y-035311D02*
G01X0043217Y-036689D01*
G01X0024811Y-035311D02*
G01X0043217Y-035311D01*
G01X0024811Y-036689D02*
G01X0024811Y-035311D01*
G01X0026289Y-034024D02*
G01X0026289Y-028611D01*
G01X0024911Y-034024D02*
G01X0026289Y-034024D01*
G01X0024911Y-028611D02*
G01X0024911Y-034024D01*
G01X0026289Y-028611D02*
G01X0024911Y-028611D01*
G54D11*
G01X0035374Y-024505D02*
G01X0036516Y-024505D01*
G01X0035374Y-024505D02*
G01X0035374Y-025095D01*
G01X0036516Y-024505D02*
G01X0036516Y-025095D01*
G01X0035374Y-025095D02*
G01X0036516Y-025095D01*
G54D18*
G01X0041430Y-027814D02*
G01X0042001Y-027814D01*
G01X0042001Y-027814D02*
G01X0042115Y-027852D01*
G01X0042115Y-027852D02*
G01X0042192Y-027929D01*
G01X0042192Y-027929D02*
G01X0042230Y-028043D01*
G01X0042230Y-028043D02*
G01X0042230Y-028119D01*
G01X0041506Y-027471D02*
G01X0041468Y-027433D01*
G01X0041468Y-027433D02*
G01X0041430Y-027357D01*
G01X0041430Y-027357D02*
G01X0041430Y-027167D01*
G01X0041430Y-027167D02*
G01X0041468Y-027090D01*
G01X0041468Y-027090D02*
G01X0041506Y-027052D01*
G01X0041506Y-027052D02*
G01X0041582Y-027014D01*
G01X0041582Y-027014D02*
G01X0041658Y-027014D01*
G01X0041658Y-027014D02*
G01X0041773Y-027052D01*
G01X0041773Y-027052D02*
G01X0042230Y-027509D01*
G01X0042230Y-027509D02*
G01X0042230Y-027014D01*
G54D16*
G01X0041498Y-031918D02*
G01X0041483Y-031933D01*
G01X0041483Y-031933D02*
G01X0041438Y-031948D01*
G01X0041438Y-031948D02*
G01X0041408Y-031948D01*
G01X0041408Y-031948D02*
G01X0041363Y-031933D01*
G01X0041363Y-031933D02*
G01X0041333Y-031903D01*
G01X0041333Y-031903D02*
G01X0041318Y-031873D01*
G01X0041318Y-031873D02*
G01X0041303Y-031813D01*
G01X0041303Y-031813D02*
G01X0041303Y-031768D01*
G01X0041303Y-031768D02*
G01X0041318Y-031708D01*
G01X0041318Y-031708D02*
G01X0041333Y-031678D01*
G01X0041333Y-031678D02*
G01X0041363Y-031648D01*
G01X0041363Y-031648D02*
G01X0041408Y-031633D01*
G01X0041408Y-031633D02*
G01X0041438Y-031633D01*
G01X0041438Y-031633D02*
G01X0041483Y-031648D01*
G01X0041483Y-031648D02*
G01X0041498Y-031663D01*
G01X0041798Y-031948D02*
G01X0041618Y-031948D01*
G01X0041708Y-031948D02*
G01X0041708Y-031633D01*
G01X0041708Y-031633D02*
G01X0041678Y-031678D01*
G01X0041678Y-031678D02*
G01X0041648Y-031708D01*
G01X0041648Y-031708D02*
G01X0041618Y-031723D01*
G01X0039378Y-033062D02*
G01X0039393Y-033077D01*
G01X0039393Y-033077D02*
G01X0039408Y-033122D01*
G01X0039408Y-033122D02*
G01X0039408Y-033152D01*
G01X0039408Y-033152D02*
G01X0039393Y-033197D01*
G01X0039393Y-033197D02*
G01X0039363Y-033227D01*
G01X0039363Y-033227D02*
G01X0039333Y-033242D01*
G01X0039333Y-033242D02*
G01X0039273Y-033257D01*
G01X0039273Y-033257D02*
G01X0039228Y-033257D01*
G01X0039228Y-033257D02*
G01X0039168Y-033242D01*
G01X0039168Y-033242D02*
G01X0039138Y-033227D01*
G01X0039138Y-033227D02*
G01X0039108Y-033197D01*
G01X0039108Y-033197D02*
G01X0039093Y-033152D01*
G01X0039093Y-033152D02*
G01X0039093Y-033122D01*
G01X0039093Y-033122D02*
G01X0039108Y-033077D01*
G01X0039108Y-033077D02*
G01X0039123Y-033062D01*
G01X0039123Y-032942D02*
G01X0039108Y-032927D01*
G01X0039108Y-032927D02*
G01X0039093Y-032897D01*
G01X0039093Y-032897D02*
G01X0039093Y-032822D01*
G01X0039093Y-032822D02*
G01X0039108Y-032792D01*
G01X0039108Y-032792D02*
G01X0039123Y-032777D01*
G01X0039123Y-032777D02*
G01X0039153Y-032762D01*
G01X0039153Y-032762D02*
G01X0039183Y-032762D01*
G01X0039183Y-032762D02*
G01X0039228Y-032777D01*
G01X0039228Y-032777D02*
G01X0039408Y-032957D01*
G01X0039408Y-032957D02*
G01X0039408Y-032762D01*
G01X0032941Y-028109D02*
G01X0032959Y-028128D01*
G01X0032959Y-028128D02*
G01X0032978Y-028184D01*
G01X0032978Y-028184D02*
G01X0032978Y-028222D01*
G01X0032978Y-028222D02*
G01X0032959Y-028278D01*
G01X0032959Y-028278D02*
G01X0032922Y-028316D01*
G01X0032922Y-028316D02*
G01X0032884Y-028334D01*
G01X0032884Y-028334D02*
G01X0032809Y-028353D01*
G01X0032809Y-028353D02*
G01X0032753Y-028353D01*
G01X0032753Y-028353D02*
G01X0032678Y-028334D01*
G01X0032678Y-028334D02*
G01X0032641Y-028316D01*
G01X0032641Y-028316D02*
G01X0032603Y-028278D01*
G01X0032603Y-028278D02*
G01X0032584Y-028222D01*
G01X0032584Y-028222D02*
G01X0032584Y-028184D01*
G01X0032584Y-028184D02*
G01X0032603Y-028128D01*
G01X0032603Y-028128D02*
G01X0032622Y-028109D01*
G01X0032584Y-027978D02*
G01X0032584Y-027734D01*
G01X0032584Y-027734D02*
G01X0032734Y-027866D01*
G01X0032734Y-027866D02*
G01X0032734Y-027809D01*
G01X0032734Y-027809D02*
G01X0032753Y-027772D01*
G01X0032753Y-027772D02*
G01X0032772Y-027753D01*
G01X0032772Y-027753D02*
G01X0032809Y-027734D01*
G01X0032809Y-027734D02*
G01X0032903Y-027734D01*
G01X0032903Y-027734D02*
G01X0032941Y-027753D01*
G01X0032941Y-027753D02*
G01X0032959Y-027772D01*
G01X0032959Y-027772D02*
G01X0032978Y-027809D01*
G01X0032978Y-027809D02*
G01X0032978Y-027922D01*
G01X0032978Y-027922D02*
G01X0032959Y-027959D01*
G01X0032959Y-027959D02*
G01X0032941Y-027978D01*
G01X0028697Y-032688D02*
G01X0028712Y-032703D01*
G01X0028712Y-032703D02*
G01X0028727Y-032748D01*
G01X0028727Y-032748D02*
G01X0028727Y-032778D01*
G01X0028727Y-032778D02*
G01X0028712Y-032823D01*
G01X0028712Y-032823D02*
G01X0028682Y-032853D01*
G01X0028682Y-032853D02*
G01X0028652Y-032868D01*
G01X0028652Y-032868D02*
G01X0028592Y-032883D01*
G01X0028592Y-032883D02*
G01X0028547Y-032883D01*
G01X0028547Y-032883D02*
G01X0028487Y-032868D01*
G01X0028487Y-032868D02*
G01X0028457Y-032853D01*
G01X0028457Y-032853D02*
G01X0028427Y-032823D01*
G01X0028427Y-032823D02*
G01X0028412Y-032778D01*
G01X0028412Y-032778D02*
G01X0028412Y-032748D01*
G01X0028412Y-032748D02*
G01X0028427Y-032703D01*
G01X0028427Y-032703D02*
G01X0028442Y-032688D01*
G01X0028517Y-032418D02*
G01X0028727Y-032418D01*
G01X0028397Y-032493D02*
G01X0028622Y-032568D01*
G01X0028622Y-032568D02*
G01X0028622Y-032373D01*
G01X0037067Y-030873D02*
G01X0037052Y-030888D01*
G01X0037052Y-030888D02*
G01X0037007Y-030903D01*
G01X0037007Y-030903D02*
G01X0036977Y-030903D01*
G01X0036977Y-030903D02*
G01X0036932Y-030888D01*
G01X0036932Y-030888D02*
G01X0036902Y-030858D01*
G01X0036902Y-030858D02*
G01X0036887Y-030828D01*
G01X0036887Y-030828D02*
G01X0036872Y-030768D01*
G01X0036872Y-030768D02*
G01X0036872Y-030723D01*
G01X0036872Y-030723D02*
G01X0036887Y-030663D01*
G01X0036887Y-030663D02*
G01X0036902Y-030633D01*
G01X0036902Y-030633D02*
G01X0036932Y-030603D01*
G01X0036932Y-030603D02*
G01X0036977Y-030588D01*
G01X0036977Y-030588D02*
G01X0037007Y-030588D01*
G01X0037007Y-030588D02*
G01X0037052Y-030603D01*
G01X0037052Y-030603D02*
G01X0037067Y-030618D01*
G01X0037337Y-030588D02*
G01X0037277Y-030588D01*
G01X0037277Y-030588D02*
G01X0037247Y-030603D01*
G01X0037247Y-030603D02*
G01X0037232Y-030618D01*
G01X0037232Y-030618D02*
G01X0037202Y-030663D01*
G01X0037202Y-030663D02*
G01X0037187Y-030723D01*
G01X0037187Y-030723D02*
G01X0037187Y-030843D01*
G01X0037187Y-030843D02*
G01X0037202Y-030873D01*
G01X0037202Y-030873D02*
G01X0037217Y-030888D01*
G01X0037217Y-030888D02*
G01X0037247Y-030903D01*
G01X0037247Y-030903D02*
G01X0037307Y-030903D01*
G01X0037307Y-030903D02*
G01X0037337Y-030888D01*
G01X0037337Y-030888D02*
G01X0037352Y-030873D01*
G01X0037352Y-030873D02*
G01X0037367Y-030843D01*
G01X0037367Y-030843D02*
G01X0037367Y-030768D01*
G01X0037367Y-030768D02*
G01X0037352Y-030738D01*
G01X0037352Y-030738D02*
G01X0037337Y-030723D01*
G01X0037337Y-030723D02*
G01X0037307Y-030708D01*
G01X0037307Y-030708D02*
G01X0037247Y-030708D01*
G01X0037247Y-030708D02*
G01X0037217Y-030723D01*
G01X0037217Y-030723D02*
G01X0037202Y-030738D01*
G01X0037202Y-030738D02*
G01X0037187Y-030768D01*
G01X0032078Y-028067D02*
G01X0032093Y-028082D01*
G01X0032093Y-028082D02*
G01X0032108Y-028127D01*
G01X0032108Y-028127D02*
G01X0032108Y-028157D01*
G01X0032108Y-028157D02*
G01X0032093Y-028202D01*
G01X0032093Y-028202D02*
G01X0032063Y-028232D01*
G01X0032063Y-028232D02*
G01X0032033Y-028247D01*
G01X0032033Y-028247D02*
G01X0031973Y-028262D01*
G01X0031973Y-028262D02*
G01X0031928Y-028262D01*
G01X0031928Y-028262D02*
G01X0031868Y-028247D01*
G01X0031868Y-028247D02*
G01X0031838Y-028232D01*
G01X0031838Y-028232D02*
G01X0031808Y-028202D01*
G01X0031808Y-028202D02*
G01X0031793Y-028157D01*
G01X0031793Y-028157D02*
G01X0031793Y-028127D01*
G01X0031793Y-028127D02*
G01X0031808Y-028082D01*
G01X0031808Y-028082D02*
G01X0031823Y-028067D01*
G01X0031793Y-027962D02*
G01X0031793Y-027752D01*
G01X0031793Y-027752D02*
G01X0032108Y-027887D01*
G01X0037362Y-031582D02*
G01X0037347Y-031597D01*
G01X0037347Y-031597D02*
G01X0037302Y-031612D01*
G01X0037302Y-031612D02*
G01X0037272Y-031612D01*
G01X0037272Y-031612D02*
G01X0037227Y-031597D01*
G01X0037227Y-031597D02*
G01X0037197Y-031567D01*
G01X0037197Y-031567D02*
G01X0037182Y-031537D01*
G01X0037182Y-031537D02*
G01X0037167Y-031477D01*
G01X0037167Y-031477D02*
G01X0037167Y-031432D01*
G01X0037167Y-031432D02*
G01X0037182Y-031372D01*
G01X0037182Y-031372D02*
G01X0037197Y-031342D01*
G01X0037197Y-031342D02*
G01X0037227Y-031312D01*
G01X0037227Y-031312D02*
G01X0037272Y-031297D01*
G01X0037272Y-031297D02*
G01X0037302Y-031297D01*
G01X0037302Y-031297D02*
G01X0037347Y-031312D01*
G01X0037347Y-031312D02*
G01X0037362Y-031327D01*
G01X0037542Y-031432D02*
G01X0037512Y-031417D01*
G01X0037512Y-031417D02*
G01X0037497Y-031402D01*
G01X0037497Y-031402D02*
G01X0037482Y-031372D01*
G01X0037482Y-031372D02*
G01X0037482Y-031357D01*
G01X0037482Y-031357D02*
G01X0037497Y-031327D01*
G01X0037497Y-031327D02*
G01X0037512Y-031312D01*
G01X0037512Y-031312D02*
G01X0037542Y-031297D01*
G01X0037542Y-031297D02*
G01X0037602Y-031297D01*
G01X0037602Y-031297D02*
G01X0037632Y-031312D01*
G01X0037632Y-031312D02*
G01X0037647Y-031327D01*
G01X0037647Y-031327D02*
G01X0037662Y-031357D01*
G01X0037662Y-031357D02*
G01X0037662Y-031372D01*
G01X0037662Y-031372D02*
G01X0037647Y-031402D01*
G01X0037647Y-031402D02*
G01X0037632Y-031417D01*
G01X0037632Y-031417D02*
G01X0037602Y-031432D01*
G01X0037602Y-031432D02*
G01X0037542Y-031432D01*
G01X0037542Y-031432D02*
G01X0037512Y-031447D01*
G01X0037512Y-031447D02*
G01X0037497Y-031462D01*
G01X0037497Y-031462D02*
G01X0037482Y-031492D01*
G01X0037482Y-031492D02*
G01X0037482Y-031552D01*
G01X0037482Y-031552D02*
G01X0037497Y-031582D01*
G01X0037497Y-031582D02*
G01X0037512Y-031597D01*
G01X0037512Y-031597D02*
G01X0037542Y-031612D01*
G01X0037542Y-031612D02*
G01X0037602Y-031612D01*
G01X0037602Y-031612D02*
G01X0037632Y-031597D01*
G01X0037632Y-031597D02*
G01X0037647Y-031582D01*
G01X0037647Y-031582D02*
G01X0037662Y-031552D01*
G01X0037662Y-031552D02*
G01X0037662Y-031492D01*
G01X0037662Y-031492D02*
G01X0037647Y-031462D01*
G01X0037647Y-031462D02*
G01X0037632Y-031447D01*
G01X0037632Y-031447D02*
G01X0037602Y-031432D01*
G01X0035828Y-025878D02*
G01X0035813Y-025893D01*
G01X0035813Y-025893D02*
G01X0035768Y-025908D01*
G01X0035768Y-025908D02*
G01X0035738Y-025908D01*
G01X0035738Y-025908D02*
G01X0035693Y-025893D01*
G01X0035693Y-025893D02*
G01X0035663Y-025863D01*
G01X0035663Y-025863D02*
G01X0035648Y-025833D01*
G01X0035648Y-025833D02*
G01X0035633Y-025773D01*
G01X0035633Y-025773D02*
G01X0035633Y-025728D01*
G01X0035633Y-025728D02*
G01X0035648Y-025668D01*
G01X0035648Y-025668D02*
G01X0035663Y-025638D01*
G01X0035663Y-025638D02*
G01X0035693Y-025608D01*
G01X0035693Y-025608D02*
G01X0035738Y-025593D01*
G01X0035738Y-025593D02*
G01X0035768Y-025593D01*
G01X0035768Y-025593D02*
G01X0035813Y-025608D01*
G01X0035813Y-025608D02*
G01X0035828Y-025623D01*
G01X0035978Y-025908D02*
G01X0036038Y-025908D01*
G01X0036038Y-025908D02*
G01X0036068Y-025893D01*
G01X0036068Y-025893D02*
G01X0036083Y-025878D01*
G01X0036083Y-025878D02*
G01X0036113Y-025833D01*
G01X0036113Y-025833D02*
G01X0036128Y-025773D01*
G01X0036128Y-025773D02*
G01X0036128Y-025653D01*
G01X0036128Y-025653D02*
G01X0036113Y-025623D01*
G01X0036113Y-025623D02*
G01X0036098Y-025608D01*
G01X0036098Y-025608D02*
G01X0036068Y-025593D01*
G01X0036068Y-025593D02*
G01X0036008Y-025593D01*
G01X0036008Y-025593D02*
G01X0035978Y-025608D01*
G01X0035978Y-025608D02*
G01X0035963Y-025623D01*
G01X0035963Y-025623D02*
G01X0035948Y-025653D01*
G01X0035948Y-025653D02*
G01X0035948Y-025728D01*
G01X0035948Y-025728D02*
G01X0035963Y-025758D01*
G01X0035963Y-025758D02*
G01X0035978Y-025773D01*
G01X0035978Y-025773D02*
G01X0036008Y-025788D01*
G01X0036008Y-025788D02*
G01X0036068Y-025788D01*
G01X0036068Y-025788D02*
G01X0036098Y-025773D01*
G01X0036098Y-025773D02*
G01X0036113Y-025758D01*
G01X0036113Y-025758D02*
G01X0036128Y-025728D01*
G01X0035278Y-031328D02*
G01X0035263Y-031343D01*
G01X0035263Y-031343D02*
G01X0035218Y-031358D01*
G01X0035218Y-031358D02*
G01X0035188Y-031358D01*
G01X0035188Y-031358D02*
G01X0035143Y-031343D01*
G01X0035143Y-031343D02*
G01X0035113Y-031313D01*
G01X0035113Y-031313D02*
G01X0035098Y-031283D01*
G01X0035098Y-031283D02*
G01X0035083Y-031223D01*
G01X0035083Y-031223D02*
G01X0035083Y-031178D01*
G01X0035083Y-031178D02*
G01X0035098Y-031118D01*
G01X0035098Y-031118D02*
G01X0035113Y-031088D01*
G01X0035113Y-031088D02*
G01X0035143Y-031058D01*
G01X0035143Y-031058D02*
G01X0035188Y-031043D01*
G01X0035188Y-031043D02*
G01X0035218Y-031043D01*
G01X0035218Y-031043D02*
G01X0035263Y-031058D01*
G01X0035263Y-031058D02*
G01X0035278Y-031073D01*
G01X0035578Y-031358D02*
G01X0035398Y-031358D01*
G01X0035488Y-031358D02*
G01X0035488Y-031043D01*
G01X0035488Y-031043D02*
G01X0035458Y-031088D01*
G01X0035458Y-031088D02*
G01X0035428Y-031118D01*
G01X0035428Y-031118D02*
G01X0035398Y-031133D01*
G01X0035773Y-031043D02*
G01X0035803Y-031043D01*
G01X0035803Y-031043D02*
G01X0035833Y-031058D01*
G01X0035833Y-031058D02*
G01X0035848Y-031073D01*
G01X0035848Y-031073D02*
G01X0035863Y-031103D01*
G01X0035863Y-031103D02*
G01X0035878Y-031163D01*
G01X0035878Y-031163D02*
G01X0035878Y-031238D01*
G01X0035878Y-031238D02*
G01X0035863Y-031298D01*
G01X0035863Y-031298D02*
G01X0035848Y-031328D01*
G01X0035848Y-031328D02*
G01X0035833Y-031343D01*
G01X0035833Y-031343D02*
G01X0035803Y-031358D01*
G01X0035803Y-031358D02*
G01X0035773Y-031358D01*
G01X0035773Y-031358D02*
G01X0035743Y-031343D01*
G01X0035743Y-031343D02*
G01X0035728Y-031328D01*
G01X0035728Y-031328D02*
G01X0035713Y-031298D01*
G01X0035713Y-031298D02*
G01X0035698Y-031238D01*
G01X0035698Y-031238D02*
G01X0035698Y-031163D01*
G01X0035698Y-031163D02*
G01X0035713Y-031103D01*
G01X0035713Y-031103D02*
G01X0035728Y-031073D01*
G01X0035728Y-031073D02*
G01X0035743Y-031058D01*
G01X0035743Y-031058D02*
G01X0035773Y-031043D01*
G01X0037828Y-026778D02*
G01X0037813Y-026793D01*
G01X0037813Y-026793D02*
G01X0037768Y-026808D01*
G01X0037768Y-026808D02*
G01X0037738Y-026808D01*
G01X0037738Y-026808D02*
G01X0037693Y-026793D01*
G01X0037693Y-026793D02*
G01X0037663Y-026763D01*
G01X0037663Y-026763D02*
G01X0037648Y-026733D01*
G01X0037648Y-026733D02*
G01X0037633Y-026673D01*
G01X0037633Y-026673D02*
G01X0037633Y-026628D01*
G01X0037633Y-026628D02*
G01X0037648Y-026568D01*
G01X0037648Y-026568D02*
G01X0037663Y-026538D01*
G01X0037663Y-026538D02*
G01X0037693Y-026508D01*
G01X0037693Y-026508D02*
G01X0037738Y-026493D01*
G01X0037738Y-026493D02*
G01X0037768Y-026493D01*
G01X0037768Y-026493D02*
G01X0037813Y-026508D01*
G01X0037813Y-026508D02*
G01X0037828Y-026523D01*
G01X0038128Y-026808D02*
G01X0037948Y-026808D01*
G01X0038038Y-026808D02*
G01X0038038Y-026493D01*
G01X0038038Y-026493D02*
G01X0038008Y-026538D01*
G01X0038008Y-026538D02*
G01X0037978Y-026568D01*
G01X0037978Y-026568D02*
G01X0037948Y-026583D01*
G01X0038428Y-026808D02*
G01X0038248Y-026808D01*
G01X0038338Y-026808D02*
G01X0038338Y-026493D01*
G01X0038338Y-026493D02*
G01X0038308Y-026538D01*
G01X0038308Y-026538D02*
G01X0038278Y-026568D01*
G01X0038278Y-026568D02*
G01X0038248Y-026583D01*
G01X0040347Y-028673D02*
G01X0040032Y-028673D01*
G01X0040032Y-028673D02*
G01X0040032Y-028598D01*
G01X0040032Y-028598D02*
G01X0040047Y-028553D01*
G01X0040047Y-028553D02*
G01X0040077Y-028523D01*
G01X0040077Y-028523D02*
G01X0040107Y-028508D01*
G01X0040107Y-028508D02*
G01X0040167Y-028493D01*
G01X0040167Y-028493D02*
G01X0040212Y-028493D01*
G01X0040212Y-028493D02*
G01X0040272Y-028508D01*
G01X0040272Y-028508D02*
G01X0040302Y-028523D01*
G01X0040302Y-028523D02*
G01X0040332Y-028553D01*
G01X0040332Y-028553D02*
G01X0040347Y-028598D01*
G01X0040347Y-028598D02*
G01X0040347Y-028673D01*
G01X0040347Y-028193D02*
G01X0040347Y-028373D01*
G01X0040347Y-028283D02*
G01X0040032Y-028283D01*
G01X0040032Y-028283D02*
G01X0040077Y-028313D01*
G01X0040077Y-028313D02*
G01X0040107Y-028343D01*
G01X0040107Y-028343D02*
G01X0040122Y-028373D01*
G54D18*
G01X0040237Y-030872D02*
G01X0040237Y-030072D01*
G01X0040237Y-030072D02*
G01X0040427Y-030072D01*
G01X0040427Y-030072D02*
G01X0040541Y-030110D01*
G01X0040541Y-030110D02*
G01X0040617Y-030186D01*
G01X0040617Y-030186D02*
G01X0040656Y-030262D01*
G01X0040656Y-030262D02*
G01X0040694Y-030415D01*
G01X0040694Y-030415D02*
G01X0040694Y-030529D01*
G01X0040694Y-030529D02*
G01X0040656Y-030681D01*
G01X0040656Y-030681D02*
G01X0040617Y-030758D01*
G01X0040617Y-030758D02*
G01X0040541Y-030834D01*
G01X0040541Y-030834D02*
G01X0040427Y-030872D01*
G01X0040427Y-030872D02*
G01X0040237Y-030872D01*
G01X0040998Y-030148D02*
G01X0041037Y-030110D01*
G01X0041037Y-030110D02*
G01X0041113Y-030072D01*
G01X0041113Y-030072D02*
G01X0041303Y-030072D01*
G01X0041303Y-030072D02*
G01X0041379Y-030110D01*
G01X0041379Y-030110D02*
G01X0041417Y-030148D01*
G01X0041417Y-030148D02*
G01X0041456Y-030224D01*
G01X0041456Y-030224D02*
G01X0041456Y-030300D01*
G01X0041456Y-030300D02*
G01X0041417Y-030415D01*
G01X0041417Y-030415D02*
G01X0040960Y-030872D01*
G01X0040960Y-030872D02*
G01X0041456Y-030872D01*
G54D16*
G01X0040378Y-027292D02*
G01X0040063Y-027292D01*
G01X0040063Y-027292D02*
G01X0040063Y-027217D01*
G01X0040063Y-027217D02*
G01X0040078Y-027172D01*
G01X0040078Y-027172D02*
G01X0040108Y-027142D01*
G01X0040108Y-027142D02*
G01X0040138Y-027127D01*
G01X0040138Y-027127D02*
G01X0040198Y-027112D01*
G01X0040198Y-027112D02*
G01X0040243Y-027112D01*
G01X0040243Y-027112D02*
G01X0040303Y-027127D01*
G01X0040303Y-027127D02*
G01X0040333Y-027142D01*
G01X0040333Y-027142D02*
G01X0040363Y-027172D01*
G01X0040363Y-027172D02*
G01X0040378Y-027217D01*
G01X0040378Y-027217D02*
G01X0040378Y-027292D01*
G01X0040063Y-027007D02*
G01X0040063Y-026812D01*
G01X0040063Y-026812D02*
G01X0040183Y-026917D01*
G01X0040183Y-026917D02*
G01X0040183Y-026872D01*
G01X0040183Y-026872D02*
G01X0040198Y-026842D01*
G01X0040198Y-026842D02*
G01X0040213Y-026827D01*
G01X0040213Y-026827D02*
G01X0040243Y-026812D01*
G01X0040243Y-026812D02*
G01X0040318Y-026812D01*
G01X0040318Y-026812D02*
G01X0040348Y-026827D01*
G01X0040348Y-026827D02*
G01X0040363Y-026842D01*
G01X0040363Y-026842D02*
G01X0040378Y-026872D01*
G01X0040378Y-026872D02*
G01X0040378Y-026962D01*
G01X0040378Y-026962D02*
G01X0040363Y-026992D01*
G01X0040363Y-026992D02*
G01X0040348Y-027007D01*
G01X0039578Y-026699D02*
G01X0039578Y-026887D01*
G01X0039578Y-026887D02*
G01X0039184Y-026887D01*
G01X0039578Y-026362D02*
G01X0039578Y-026587D01*
G01X0039578Y-026474D02*
G01X0039184Y-026474D01*
G01X0039184Y-026474D02*
G01X0039241Y-026512D01*
G01X0039241Y-026512D02*
G01X0039278Y-026549D01*
G01X0039278Y-026549D02*
G01X0039297Y-026587D01*
G01X0028928Y-028678D02*
G01X0028741Y-028678D01*
G01X0028741Y-028678D02*
G01X0028741Y-028284D01*
G01X0029041Y-028322D02*
G01X0029059Y-028303D01*
G01X0029059Y-028303D02*
G01X0029097Y-028284D01*
G01X0029097Y-028284D02*
G01X0029191Y-028284D01*
G01X0029191Y-028284D02*
G01X0029228Y-028303D01*
G01X0029228Y-028303D02*
G01X0029247Y-028322D01*
G01X0029247Y-028322D02*
G01X0029266Y-028359D01*
G01X0029266Y-028359D02*
G01X0029266Y-028397D01*
G01X0029266Y-028397D02*
G01X0029247Y-028453D01*
G01X0029247Y-028453D02*
G01X0029022Y-028678D01*
G01X0029022Y-028678D02*
G01X0029266Y-028678D01*
G01X0032978Y-029709D02*
G01X0032978Y-029897D01*
G01X0032978Y-029897D02*
G01X0032584Y-029897D01*
G01X0032584Y-029616D02*
G01X0032584Y-029372D01*
G01X0032584Y-029372D02*
G01X0032734Y-029503D01*
G01X0032734Y-029503D02*
G01X0032734Y-029447D01*
G01X0032734Y-029447D02*
G01X0032753Y-029409D01*
G01X0032753Y-029409D02*
G01X0032772Y-029391D01*
G01X0032772Y-029391D02*
G01X0032809Y-029372D01*
G01X0032809Y-029372D02*
G01X0032903Y-029372D01*
G01X0032903Y-029372D02*
G01X0032941Y-029391D01*
G01X0032941Y-029391D02*
G01X0032959Y-029409D01*
G01X0032959Y-029409D02*
G01X0032978Y-029447D01*
G01X0032978Y-029447D02*
G01X0032978Y-029559D01*
G01X0032978Y-029559D02*
G01X0032959Y-029597D01*
G01X0032959Y-029597D02*
G01X0032941Y-029616D01*
G01X0027927Y-030088D02*
G01X0027777Y-030193D01*
G01X0027927Y-030268D02*
G01X0027612Y-030268D01*
G01X0027612Y-030268D02*
G01X0027612Y-030148D01*
G01X0027612Y-030148D02*
G01X0027627Y-030118D01*
G01X0027627Y-030118D02*
G01X0027642Y-030103D01*
G01X0027642Y-030103D02*
G01X0027672Y-030088D01*
G01X0027672Y-030088D02*
G01X0027717Y-030088D01*
G01X0027717Y-030088D02*
G01X0027747Y-030103D01*
G01X0027747Y-030103D02*
G01X0027762Y-030118D01*
G01X0027762Y-030118D02*
G01X0027777Y-030148D01*
G01X0027777Y-030148D02*
G01X0027777Y-030268D01*
G01X0027927Y-029788D02*
G01X0027927Y-029968D01*
G01X0027927Y-029878D02*
G01X0027612Y-029878D01*
G01X0027612Y-029878D02*
G01X0027657Y-029908D01*
G01X0027657Y-029908D02*
G01X0027687Y-029938D01*
G01X0027687Y-029938D02*
G01X0027702Y-029968D01*
G01X0028727Y-030083D02*
G01X0028577Y-030188D01*
G01X0028727Y-030263D02*
G01X0028412Y-030263D01*
G01X0028412Y-030263D02*
G01X0028412Y-030143D01*
G01X0028412Y-030143D02*
G01X0028427Y-030113D01*
G01X0028427Y-030113D02*
G01X0028442Y-030098D01*
G01X0028442Y-030098D02*
G01X0028472Y-030083D01*
G01X0028472Y-030083D02*
G01X0028517Y-030083D01*
G01X0028517Y-030083D02*
G01X0028547Y-030098D01*
G01X0028547Y-030098D02*
G01X0028562Y-030113D01*
G01X0028562Y-030113D02*
G01X0028577Y-030143D01*
G01X0028577Y-030143D02*
G01X0028577Y-030263D01*
G01X0028442Y-029963D02*
G01X0028427Y-029948D01*
G01X0028427Y-029948D02*
G01X0028412Y-029918D01*
G01X0028412Y-029918D02*
G01X0028412Y-029843D01*
G01X0028412Y-029843D02*
G01X0028427Y-029813D01*
G01X0028427Y-029813D02*
G01X0028442Y-029798D01*
G01X0028442Y-029798D02*
G01X0028472Y-029783D01*
G01X0028472Y-029783D02*
G01X0028502Y-029783D01*
G01X0028502Y-029783D02*
G01X0028547Y-029798D01*
G01X0028547Y-029798D02*
G01X0028727Y-029978D01*
G01X0028727Y-029978D02*
G01X0028727Y-029783D01*
G01X0028888Y-031358D02*
G01X0028783Y-031208D01*
G01X0028708Y-031358D02*
G01X0028708Y-031043D01*
G01X0028708Y-031043D02*
G01X0028828Y-031043D01*
G01X0028828Y-031043D02*
G01X0028858Y-031058D01*
G01X0028858Y-031058D02*
G01X0028873Y-031073D01*
G01X0028873Y-031073D02*
G01X0028888Y-031103D01*
G01X0028888Y-031103D02*
G01X0028888Y-031148D01*
G01X0028888Y-031148D02*
G01X0028873Y-031178D01*
G01X0028873Y-031178D02*
G01X0028858Y-031193D01*
G01X0028858Y-031193D02*
G01X0028828Y-031208D01*
G01X0028828Y-031208D02*
G01X0028708Y-031208D01*
G01X0028993Y-031043D02*
G01X0029188Y-031043D01*
G01X0029188Y-031043D02*
G01X0029083Y-031163D01*
G01X0029083Y-031163D02*
G01X0029128Y-031163D01*
G01X0029128Y-031163D02*
G01X0029158Y-031178D01*
G01X0029158Y-031178D02*
G01X0029173Y-031193D01*
G01X0029173Y-031193D02*
G01X0029188Y-031223D01*
G01X0029188Y-031223D02*
G01X0029188Y-031298D01*
G01X0029188Y-031298D02*
G01X0029173Y-031328D01*
G01X0029173Y-031328D02*
G01X0029158Y-031343D01*
G01X0029158Y-031343D02*
G01X0029128Y-031358D01*
G01X0029128Y-031358D02*
G01X0029038Y-031358D01*
G01X0029038Y-031358D02*
G01X0029008Y-031343D01*
G01X0029008Y-031343D02*
G01X0028993Y-031328D01*
G01X0030759Y-032100D02*
G01X0030778Y-032044D01*
G01X0030778Y-032044D02*
G01X0030778Y-031950D01*
G01X0030778Y-031950D02*
G01X0030759Y-031912D01*
G01X0030759Y-031912D02*
G01X0030741Y-031894D01*
G01X0030741Y-031894D02*
G01X0030703Y-031875D01*
G01X0030703Y-031875D02*
G01X0030666Y-031875D01*
G01X0030666Y-031875D02*
G01X0030628Y-031894D01*
G01X0030628Y-031894D02*
G01X0030609Y-031912D01*
G01X0030609Y-031912D02*
G01X0030591Y-031950D01*
G01X0030591Y-031950D02*
G01X0030572Y-032025D01*
G01X0030572Y-032025D02*
G01X0030553Y-032062D01*
G01X0030553Y-032062D02*
G01X0030534Y-032081D01*
G01X0030534Y-032081D02*
G01X0030497Y-032100D01*
G01X0030497Y-032100D02*
G01X0030459Y-032100D01*
G01X0030459Y-032100D02*
G01X0030422Y-032081D01*
G01X0030422Y-032081D02*
G01X0030403Y-032062D01*
G01X0030403Y-032062D02*
G01X0030384Y-032025D01*
G01X0030384Y-032025D02*
G01X0030384Y-031931D01*
G01X0030384Y-031931D02*
G01X0030403Y-031875D01*
G01X0030778Y-031500D02*
G01X0030778Y-031725D01*
G01X0030778Y-031613D02*
G01X0030384Y-031613D01*
G01X0030384Y-031613D02*
G01X0030441Y-031650D01*
G01X0030441Y-031650D02*
G01X0030478Y-031688D01*
G01X0030478Y-031688D02*
G01X0030497Y-031725D01*
G01X0035567Y-028052D02*
G01X0035567Y-028371D01*
G01X0035567Y-028371D02*
G01X0035586Y-028408D01*
G01X0035586Y-028408D02*
G01X0035605Y-028427D01*
G01X0035605Y-028427D02*
G01X0035642Y-028446D01*
G01X0035642Y-028446D02*
G01X0035717Y-028446D01*
G01X0035717Y-028446D02*
G01X0035755Y-028427D01*
G01X0035755Y-028427D02*
G01X0035774Y-028408D01*
G01X0035774Y-028408D02*
G01X0035792Y-028371D01*
G01X0035792Y-028371D02*
G01X0035792Y-028052D01*
G01X0035961Y-028089D02*
G01X0035980Y-028071D01*
G01X0035980Y-028071D02*
G01X0036017Y-028052D01*
G01X0036017Y-028052D02*
G01X0036111Y-028052D01*
G01X0036111Y-028052D02*
G01X0036149Y-028071D01*
G01X0036149Y-028071D02*
G01X0036167Y-028089D01*
G01X0036167Y-028089D02*
G01X0036186Y-028127D01*
G01X0036186Y-028127D02*
G01X0036186Y-028164D01*
G01X0036186Y-028164D02*
G01X0036167Y-028221D01*
G01X0036167Y-028221D02*
G01X0035942Y-028446D01*
G01X0035942Y-028446D02*
G01X0036186Y-028446D01*
G54D18*
G01X0036215Y-032383D02*
G01X0036748Y-033183D01*
G01X0036748Y-032383D02*
G01X0036215Y-033183D01*
G01X0037472Y-033183D02*
G01X0037015Y-033183D01*
G01X0037243Y-033183D02*
G01X0037243Y-032383D01*
G01X0037243Y-032383D02*
G01X0037167Y-032497D01*
G01X0037167Y-032497D02*
G01X0037091Y-032573D01*
G01X0037091Y-032573D02*
G01X0037015Y-032611D01*
G54D16*
G01X0040306Y-033318D02*
G01X0040593Y-033318D01*
G01X0040593Y-033318D02*
G01X0040627Y-033301D01*
G01X0040627Y-033301D02*
G01X0040643Y-033284D01*
G01X0040643Y-033284D02*
G01X0040660Y-033250D01*
G01X0040660Y-033250D02*
G01X0040660Y-033183D01*
G01X0040660Y-033183D02*
G01X0040643Y-033149D01*
G01X0040643Y-033149D02*
G01X0040627Y-033132D01*
G01X0040627Y-033132D02*
G01X0040593Y-033115D01*
G01X0040593Y-033115D02*
G01X0040306Y-033115D01*
G01X0040660Y-032761D02*
G01X0040660Y-032963D01*
G01X0040660Y-032862D02*
G01X0040306Y-032862D01*
G01X0040306Y-032862D02*
G01X0040357Y-032896D01*
G01X0040357Y-032896D02*
G01X0040390Y-032929D01*
G01X0040390Y-032929D02*
G01X0040407Y-032963D01*
G54D18*
G01X0033599Y-022562D02*
G01X0033599Y-023133D01*
G01X0033599Y-023133D02*
G01X0033561Y-023248D01*
G01X0033561Y-023248D02*
G01X0033485Y-023324D01*
G01X0033485Y-023324D02*
G01X0033371Y-023362D01*
G01X0033371Y-023362D02*
G01X0033295Y-023362D01*
G01X0033904Y-022562D02*
G01X0034399Y-022562D01*
G01X0034399Y-022562D02*
G01X0034133Y-022867D01*
G01X0034133Y-022867D02*
G01X0034247Y-022867D01*
G01X0034247Y-022867D02*
G01X0034323Y-022905D01*
G01X0034323Y-022905D02*
G01X0034361Y-022943D01*
G01X0034361Y-022943D02*
G01X0034399Y-023019D01*
G01X0034399Y-023019D02*
G01X0034399Y-023210D01*
G01X0034399Y-023210D02*
G01X0034361Y-023286D01*
G01X0034361Y-023286D02*
G01X0034323Y-023324D01*
G01X0034323Y-023324D02*
G01X0034247Y-023362D01*
G01X0034247Y-023362D02*
G01X0034019Y-023362D01*
G01X0034019Y-023362D02*
G01X0033942Y-023324D01*
G01X0033942Y-023324D02*
G01X0033904Y-023286D01*
G01X0033599Y-035562D02*
G01X0033599Y-036133D01*
G01X0033599Y-036133D02*
G01X0033561Y-036248D01*
G01X0033561Y-036248D02*
G01X0033485Y-036324D01*
G01X0033485Y-036324D02*
G01X0033371Y-036362D01*
G01X0033371Y-036362D02*
G01X0033295Y-036362D01*
G01X0034323Y-035829D02*
G01X0034323Y-036362D01*
G01X0034133Y-035524D02*
G01X0033942Y-036095D01*
G01X0033942Y-036095D02*
G01X0034438Y-036095D01*
G01X0025162Y-031634D02*
G01X0025733Y-031634D01*
G01X0025733Y-031634D02*
G01X0025848Y-031672D01*
G01X0025848Y-031672D02*
G01X0025924Y-031748D01*
G01X0025924Y-031748D02*
G01X0025962Y-031862D01*
G01X0025962Y-031862D02*
G01X0025962Y-031938D01*
G01X0025962Y-030834D02*
G01X0025962Y-031291D01*
G01X0025962Y-031062D02*
G01X0025162Y-031062D01*
G01X0025162Y-031062D02*
G01X0025276Y-031138D01*
G01X0025276Y-031138D02*
G01X0025352Y-031215D01*
G01X0025352Y-031215D02*
G01X0025390Y-031291D01*
G54D16*
G01X0035928Y-024928D02*
G01X0035913Y-024943D01*
G01X0035913Y-024943D02*
G01X0035868Y-024958D01*
G01X0035868Y-024958D02*
G01X0035838Y-024958D01*
G01X0035838Y-024958D02*
G01X0035793Y-024943D01*
G01X0035793Y-024943D02*
G01X0035763Y-024913D01*
G01X0035763Y-024913D02*
G01X0035748Y-024883D01*
G01X0035748Y-024883D02*
G01X0035733Y-024823D01*
G01X0035733Y-024823D02*
G01X0035733Y-024778D01*
G01X0035733Y-024778D02*
G01X0035748Y-024718D01*
G01X0035748Y-024718D02*
G01X0035763Y-024688D01*
G01X0035763Y-024688D02*
G01X0035793Y-024658D01*
G01X0035793Y-024658D02*
G01X0035838Y-024643D01*
G01X0035838Y-024643D02*
G01X0035868Y-024643D01*
G01X0035868Y-024643D02*
G01X0035913Y-024658D01*
G01X0035913Y-024658D02*
G01X0035928Y-024673D01*
G01X0036213Y-024643D02*
G01X0036063Y-024643D01*
G01X0036063Y-024643D02*
G01X0036048Y-024793D01*
G01X0036048Y-024793D02*
G01X0036063Y-024778D01*
G01X0036063Y-024778D02*
G01X0036093Y-024763D01*
G01X0036093Y-024763D02*
G01X0036168Y-024763D01*
G01X0036168Y-024763D02*
G01X0036198Y-024778D01*
G01X0036198Y-024778D02*
G01X0036213Y-024793D01*
G01X0036213Y-024793D02*
G01X0036228Y-024823D01*
G01X0036228Y-024823D02*
G01X0036228Y-024898D01*
G01X0036228Y-024898D02*
G01X0036213Y-024928D01*
G01X0036213Y-024928D02*
G01X0036198Y-024943D01*
G01X0036198Y-024943D02*
G01X0036168Y-024958D01*
G01X0036168Y-024958D02*
G01X0036093Y-024958D01*
G01X0036093Y-024958D02*
G01X0036063Y-024943D01*
G01X0036063Y-024943D02*
G01X0036048Y-024928D01*
G01X0000000Y0000000D02*
G54D19*
G01X0025300Y-022250D02*
G75*
G03X0024550Y-023000I0000000J-000750D01*
G01X0024550Y-036000D02*
G75*
G03X0025300Y-036750I0000750J0000000D01*
G01X0042500Y-036750D02*
G75*
G03X0043500Y-035750I0000000J0001000D01*
G01X0043500Y-023250D02*
G75*
G03X0042500Y-022250I-001000J0000000D01*
G01X0042500Y-022250D02*
G01X0025300Y-022250D01*
G01X0043500Y-035750D02*
G01X0043500Y-023250D01*
G01X0025300Y-036750D02*
G01X0042500Y-036750D01*
G01X0024550Y-023000D02*
G01X0024550Y-036000D01*
M02*
