%TF.GenerationSoftware,KiCad,Pcbnew,4.0.5-e0-6337~49~ubuntu16.04.1*%
%TF.CreationDate,2017-08-05T13:29:44-07:00*%
%TF.ProjectId,atsamd21g18-breakout,617473616D6432316731382D62726561,1.0*%
%TF.FileFunction,Soldermask,Bot*%
%FSLAX46Y46*%
G04 Gerber Fmt 4.6, Leading zero omitted, Abs format (unit mm)*
G04 Created by KiCad (PCBNEW 4.0.5-e0-6337~49~ubuntu16.04.1) date Sat Aug  5 13:29:44 2017*
%MOMM*%
%LPD*%
G01*
G04 APERTURE LIST*
%ADD10C,0.350000*%
G04 APERTURE END LIST*
D10*
G36*
X95438926Y-90361705D02*
X95438973Y-90361710D01*
X95614187Y-90415948D01*
X95775529Y-90503185D01*
X95916855Y-90620100D01*
X96032779Y-90762238D01*
X96118888Y-90924185D01*
X96171902Y-91099774D01*
X96189800Y-91282315D01*
X96189800Y-91597717D01*
X96189723Y-91608749D01*
X96189722Y-91608754D01*
X96189708Y-91610807D01*
X96169263Y-91793080D01*
X96113803Y-91967912D01*
X96025442Y-92128641D01*
X95907544Y-92269146D01*
X95764600Y-92384076D01*
X95602055Y-92469052D01*
X95426101Y-92520839D01*
X95426060Y-92520843D01*
X95426056Y-92520844D01*
X95243442Y-92537463D01*
X95061074Y-92518295D01*
X95061027Y-92518290D01*
X94885813Y-92464052D01*
X94724471Y-92376815D01*
X94583145Y-92259900D01*
X94467221Y-92117762D01*
X94381112Y-91955815D01*
X94328098Y-91780226D01*
X94310200Y-91597685D01*
X94310200Y-91282283D01*
X94310277Y-91271251D01*
X94310278Y-91271246D01*
X94310292Y-91269193D01*
X94330737Y-91086920D01*
X94386197Y-90912088D01*
X94474558Y-90751359D01*
X94592456Y-90610854D01*
X94735400Y-90495924D01*
X94897945Y-90410948D01*
X95073899Y-90359161D01*
X95073940Y-90359157D01*
X95073944Y-90359156D01*
X95256558Y-90342537D01*
X95438926Y-90361705D01*
X95438926Y-90361705D01*
G37*
G36*
X108138926Y-90361705D02*
X108138973Y-90361710D01*
X108314187Y-90415948D01*
X108475529Y-90503185D01*
X108616855Y-90620100D01*
X108732779Y-90762238D01*
X108818888Y-90924185D01*
X108871902Y-91099774D01*
X108889800Y-91282315D01*
X108889800Y-91597717D01*
X108889723Y-91608749D01*
X108889722Y-91608754D01*
X108889708Y-91610807D01*
X108869263Y-91793080D01*
X108813803Y-91967912D01*
X108725442Y-92128641D01*
X108607544Y-92269146D01*
X108464600Y-92384076D01*
X108302055Y-92469052D01*
X108126101Y-92520839D01*
X108126060Y-92520843D01*
X108126056Y-92520844D01*
X107943442Y-92537463D01*
X107761074Y-92518295D01*
X107761027Y-92518290D01*
X107585813Y-92464052D01*
X107424471Y-92376815D01*
X107283145Y-92259900D01*
X107167221Y-92117762D01*
X107081112Y-91955815D01*
X107028098Y-91780226D01*
X107010200Y-91597685D01*
X107010200Y-91282283D01*
X107010277Y-91271251D01*
X107010278Y-91271246D01*
X107010292Y-91269193D01*
X107030737Y-91086920D01*
X107086197Y-90912088D01*
X107174558Y-90751359D01*
X107292456Y-90610854D01*
X107435400Y-90495924D01*
X107597945Y-90410948D01*
X107773899Y-90359161D01*
X107773940Y-90359157D01*
X107773944Y-90359156D01*
X107956558Y-90342537D01*
X108138926Y-90361705D01*
X108138926Y-90361705D01*
G37*
G36*
X67498926Y-90361705D02*
X67498973Y-90361710D01*
X67674187Y-90415948D01*
X67835529Y-90503185D01*
X67976855Y-90620100D01*
X68092779Y-90762238D01*
X68178888Y-90924185D01*
X68231902Y-91099774D01*
X68249800Y-91282315D01*
X68249800Y-91597717D01*
X68249723Y-91608749D01*
X68249722Y-91608754D01*
X68249708Y-91610807D01*
X68229263Y-91793080D01*
X68173803Y-91967912D01*
X68085442Y-92128641D01*
X67967544Y-92269146D01*
X67824600Y-92384076D01*
X67662055Y-92469052D01*
X67486101Y-92520839D01*
X67486060Y-92520843D01*
X67486056Y-92520844D01*
X67303442Y-92537463D01*
X67121074Y-92518295D01*
X67121027Y-92518290D01*
X66945813Y-92464052D01*
X66784471Y-92376815D01*
X66643145Y-92259900D01*
X66527221Y-92117762D01*
X66441112Y-91955815D01*
X66388098Y-91780226D01*
X66370200Y-91597685D01*
X66370200Y-91282283D01*
X66370277Y-91271251D01*
X66370278Y-91271246D01*
X66370292Y-91269193D01*
X66390737Y-91086920D01*
X66446197Y-90912088D01*
X66534558Y-90751359D01*
X66652456Y-90610854D01*
X66795400Y-90495924D01*
X66957945Y-90410948D01*
X67133899Y-90359161D01*
X67133940Y-90359157D01*
X67133944Y-90359156D01*
X67316558Y-90342537D01*
X67498926Y-90361705D01*
X67498926Y-90361705D01*
G37*
G36*
X105598926Y-90361705D02*
X105598973Y-90361710D01*
X105774187Y-90415948D01*
X105935529Y-90503185D01*
X106076855Y-90620100D01*
X106192779Y-90762238D01*
X106278888Y-90924185D01*
X106331902Y-91099774D01*
X106349800Y-91282315D01*
X106349800Y-91597717D01*
X106349723Y-91608749D01*
X106349722Y-91608754D01*
X106349708Y-91610807D01*
X106329263Y-91793080D01*
X106273803Y-91967912D01*
X106185442Y-92128641D01*
X106067544Y-92269146D01*
X105924600Y-92384076D01*
X105762055Y-92469052D01*
X105586101Y-92520839D01*
X105586060Y-92520843D01*
X105586056Y-92520844D01*
X105403442Y-92537463D01*
X105221074Y-92518295D01*
X105221027Y-92518290D01*
X105045813Y-92464052D01*
X104884471Y-92376815D01*
X104743145Y-92259900D01*
X104627221Y-92117762D01*
X104541112Y-91955815D01*
X104488098Y-91780226D01*
X104470200Y-91597685D01*
X104470200Y-91282283D01*
X104470277Y-91271251D01*
X104470278Y-91271246D01*
X104470292Y-91269193D01*
X104490737Y-91086920D01*
X104546197Y-90912088D01*
X104634558Y-90751359D01*
X104752456Y-90610854D01*
X104895400Y-90495924D01*
X105057945Y-90410948D01*
X105233899Y-90359161D01*
X105233940Y-90359157D01*
X105233944Y-90359156D01*
X105416558Y-90342537D01*
X105598926Y-90361705D01*
X105598926Y-90361705D01*
G37*
G36*
X103058926Y-90361705D02*
X103058973Y-90361710D01*
X103234187Y-90415948D01*
X103395529Y-90503185D01*
X103536855Y-90620100D01*
X103652779Y-90762238D01*
X103738888Y-90924185D01*
X103791902Y-91099774D01*
X103809800Y-91282315D01*
X103809800Y-91597717D01*
X103809723Y-91608749D01*
X103809722Y-91608754D01*
X103809708Y-91610807D01*
X103789263Y-91793080D01*
X103733803Y-91967912D01*
X103645442Y-92128641D01*
X103527544Y-92269146D01*
X103384600Y-92384076D01*
X103222055Y-92469052D01*
X103046101Y-92520839D01*
X103046060Y-92520843D01*
X103046056Y-92520844D01*
X102863442Y-92537463D01*
X102681074Y-92518295D01*
X102681027Y-92518290D01*
X102505813Y-92464052D01*
X102344471Y-92376815D01*
X102203145Y-92259900D01*
X102087221Y-92117762D01*
X102001112Y-91955815D01*
X101948098Y-91780226D01*
X101930200Y-91597685D01*
X101930200Y-91282283D01*
X101930277Y-91271251D01*
X101930278Y-91271246D01*
X101930292Y-91269193D01*
X101950737Y-91086920D01*
X102006197Y-90912088D01*
X102094558Y-90751359D01*
X102212456Y-90610854D01*
X102355400Y-90495924D01*
X102517945Y-90410948D01*
X102693899Y-90359161D01*
X102693940Y-90359157D01*
X102693944Y-90359156D01*
X102876558Y-90342537D01*
X103058926Y-90361705D01*
X103058926Y-90361705D01*
G37*
G36*
X100518926Y-90361705D02*
X100518973Y-90361710D01*
X100694187Y-90415948D01*
X100855529Y-90503185D01*
X100996855Y-90620100D01*
X101112779Y-90762238D01*
X101198888Y-90924185D01*
X101251902Y-91099774D01*
X101269800Y-91282315D01*
X101269800Y-91597717D01*
X101269723Y-91608749D01*
X101269722Y-91608754D01*
X101269708Y-91610807D01*
X101249263Y-91793080D01*
X101193803Y-91967912D01*
X101105442Y-92128641D01*
X100987544Y-92269146D01*
X100844600Y-92384076D01*
X100682055Y-92469052D01*
X100506101Y-92520839D01*
X100506060Y-92520843D01*
X100506056Y-92520844D01*
X100323442Y-92537463D01*
X100141074Y-92518295D01*
X100141027Y-92518290D01*
X99965813Y-92464052D01*
X99804471Y-92376815D01*
X99663145Y-92259900D01*
X99547221Y-92117762D01*
X99461112Y-91955815D01*
X99408098Y-91780226D01*
X99390200Y-91597685D01*
X99390200Y-91282283D01*
X99390277Y-91271251D01*
X99390278Y-91271246D01*
X99390292Y-91269193D01*
X99410737Y-91086920D01*
X99466197Y-90912088D01*
X99554558Y-90751359D01*
X99672456Y-90610854D01*
X99815400Y-90495924D01*
X99977945Y-90410948D01*
X100153899Y-90359161D01*
X100153940Y-90359157D01*
X100153944Y-90359156D01*
X100336558Y-90342537D01*
X100518926Y-90361705D01*
X100518926Y-90361705D01*
G37*
G36*
X97978926Y-90361705D02*
X97978973Y-90361710D01*
X98154187Y-90415948D01*
X98315529Y-90503185D01*
X98456855Y-90620100D01*
X98572779Y-90762238D01*
X98658888Y-90924185D01*
X98711902Y-91099774D01*
X98729800Y-91282315D01*
X98729800Y-91597717D01*
X98729723Y-91608749D01*
X98729722Y-91608754D01*
X98729708Y-91610807D01*
X98709263Y-91793080D01*
X98653803Y-91967912D01*
X98565442Y-92128641D01*
X98447544Y-92269146D01*
X98304600Y-92384076D01*
X98142055Y-92469052D01*
X97966101Y-92520839D01*
X97966060Y-92520843D01*
X97966056Y-92520844D01*
X97783442Y-92537463D01*
X97601074Y-92518295D01*
X97601027Y-92518290D01*
X97425813Y-92464052D01*
X97264471Y-92376815D01*
X97123145Y-92259900D01*
X97007221Y-92117762D01*
X96921112Y-91955815D01*
X96868098Y-91780226D01*
X96850200Y-91597685D01*
X96850200Y-91282283D01*
X96850277Y-91271251D01*
X96850278Y-91271246D01*
X96850292Y-91269193D01*
X96870737Y-91086920D01*
X96926197Y-90912088D01*
X97014558Y-90751359D01*
X97132456Y-90610854D01*
X97275400Y-90495924D01*
X97437945Y-90410948D01*
X97613899Y-90359161D01*
X97613940Y-90359157D01*
X97613944Y-90359156D01*
X97796558Y-90342537D01*
X97978926Y-90361705D01*
X97978926Y-90361705D01*
G37*
G36*
X92898926Y-90361705D02*
X92898973Y-90361710D01*
X93074187Y-90415948D01*
X93235529Y-90503185D01*
X93376855Y-90620100D01*
X93492779Y-90762238D01*
X93578888Y-90924185D01*
X93631902Y-91099774D01*
X93649800Y-91282315D01*
X93649800Y-91597717D01*
X93649723Y-91608749D01*
X93649722Y-91608754D01*
X93649708Y-91610807D01*
X93629263Y-91793080D01*
X93573803Y-91967912D01*
X93485442Y-92128641D01*
X93367544Y-92269146D01*
X93224600Y-92384076D01*
X93062055Y-92469052D01*
X92886101Y-92520839D01*
X92886060Y-92520843D01*
X92886056Y-92520844D01*
X92703442Y-92537463D01*
X92521074Y-92518295D01*
X92521027Y-92518290D01*
X92345813Y-92464052D01*
X92184471Y-92376815D01*
X92043145Y-92259900D01*
X91927221Y-92117762D01*
X91841112Y-91955815D01*
X91788098Y-91780226D01*
X91770200Y-91597685D01*
X91770200Y-91282283D01*
X91770277Y-91271251D01*
X91770278Y-91271246D01*
X91770292Y-91269193D01*
X91790737Y-91086920D01*
X91846197Y-90912088D01*
X91934558Y-90751359D01*
X92052456Y-90610854D01*
X92195400Y-90495924D01*
X92357945Y-90410948D01*
X92533899Y-90359161D01*
X92533940Y-90359157D01*
X92533944Y-90359156D01*
X92716558Y-90342537D01*
X92898926Y-90361705D01*
X92898926Y-90361705D01*
G37*
G36*
X90358926Y-90361705D02*
X90358973Y-90361710D01*
X90534187Y-90415948D01*
X90695529Y-90503185D01*
X90836855Y-90620100D01*
X90952779Y-90762238D01*
X91038888Y-90924185D01*
X91091902Y-91099774D01*
X91109800Y-91282315D01*
X91109800Y-91597717D01*
X91109723Y-91608749D01*
X91109722Y-91608754D01*
X91109708Y-91610807D01*
X91089263Y-91793080D01*
X91033803Y-91967912D01*
X90945442Y-92128641D01*
X90827544Y-92269146D01*
X90684600Y-92384076D01*
X90522055Y-92469052D01*
X90346101Y-92520839D01*
X90346060Y-92520843D01*
X90346056Y-92520844D01*
X90163442Y-92537463D01*
X89981074Y-92518295D01*
X89981027Y-92518290D01*
X89805813Y-92464052D01*
X89644471Y-92376815D01*
X89503145Y-92259900D01*
X89387221Y-92117762D01*
X89301112Y-91955815D01*
X89248098Y-91780226D01*
X89230200Y-91597685D01*
X89230200Y-91282283D01*
X89230277Y-91271251D01*
X89230278Y-91271246D01*
X89230292Y-91269193D01*
X89250737Y-91086920D01*
X89306197Y-90912088D01*
X89394558Y-90751359D01*
X89512456Y-90610854D01*
X89655400Y-90495924D01*
X89817945Y-90410948D01*
X89993899Y-90359161D01*
X89993940Y-90359157D01*
X89993944Y-90359156D01*
X90176558Y-90342537D01*
X90358926Y-90361705D01*
X90358926Y-90361705D01*
G37*
G36*
X85278926Y-90361705D02*
X85278973Y-90361710D01*
X85454187Y-90415948D01*
X85615529Y-90503185D01*
X85756855Y-90620100D01*
X85872779Y-90762238D01*
X85958888Y-90924185D01*
X86011902Y-91099774D01*
X86029800Y-91282315D01*
X86029800Y-91597717D01*
X86029723Y-91608749D01*
X86029722Y-91608754D01*
X86029708Y-91610807D01*
X86009263Y-91793080D01*
X85953803Y-91967912D01*
X85865442Y-92128641D01*
X85747544Y-92269146D01*
X85604600Y-92384076D01*
X85442055Y-92469052D01*
X85266101Y-92520839D01*
X85266060Y-92520843D01*
X85266056Y-92520844D01*
X85083442Y-92537463D01*
X84901074Y-92518295D01*
X84901027Y-92518290D01*
X84725813Y-92464052D01*
X84564471Y-92376815D01*
X84423145Y-92259900D01*
X84307221Y-92117762D01*
X84221112Y-91955815D01*
X84168098Y-91780226D01*
X84150200Y-91597685D01*
X84150200Y-91282283D01*
X84150277Y-91271251D01*
X84150278Y-91271246D01*
X84150292Y-91269193D01*
X84170737Y-91086920D01*
X84226197Y-90912088D01*
X84314558Y-90751359D01*
X84432456Y-90610854D01*
X84575400Y-90495924D01*
X84737945Y-90410948D01*
X84913899Y-90359161D01*
X84913940Y-90359157D01*
X84913944Y-90359156D01*
X85096558Y-90342537D01*
X85278926Y-90361705D01*
X85278926Y-90361705D01*
G37*
G36*
X82738926Y-90361705D02*
X82738973Y-90361710D01*
X82914187Y-90415948D01*
X83075529Y-90503185D01*
X83216855Y-90620100D01*
X83332779Y-90762238D01*
X83418888Y-90924185D01*
X83471902Y-91099774D01*
X83489800Y-91282315D01*
X83489800Y-91597717D01*
X83489723Y-91608749D01*
X83489722Y-91608754D01*
X83489708Y-91610807D01*
X83469263Y-91793080D01*
X83413803Y-91967912D01*
X83325442Y-92128641D01*
X83207544Y-92269146D01*
X83064600Y-92384076D01*
X82902055Y-92469052D01*
X82726101Y-92520839D01*
X82726060Y-92520843D01*
X82726056Y-92520844D01*
X82543442Y-92537463D01*
X82361074Y-92518295D01*
X82361027Y-92518290D01*
X82185813Y-92464052D01*
X82024471Y-92376815D01*
X81883145Y-92259900D01*
X81767221Y-92117762D01*
X81681112Y-91955815D01*
X81628098Y-91780226D01*
X81610200Y-91597685D01*
X81610200Y-91282283D01*
X81610277Y-91271251D01*
X81610278Y-91271246D01*
X81610292Y-91269193D01*
X81630737Y-91086920D01*
X81686197Y-90912088D01*
X81774558Y-90751359D01*
X81892456Y-90610854D01*
X82035400Y-90495924D01*
X82197945Y-90410948D01*
X82373899Y-90359161D01*
X82373940Y-90359157D01*
X82373944Y-90359156D01*
X82556558Y-90342537D01*
X82738926Y-90361705D01*
X82738926Y-90361705D01*
G37*
G36*
X80198926Y-90361705D02*
X80198973Y-90361710D01*
X80374187Y-90415948D01*
X80535529Y-90503185D01*
X80676855Y-90620100D01*
X80792779Y-90762238D01*
X80878888Y-90924185D01*
X80931902Y-91099774D01*
X80949800Y-91282315D01*
X80949800Y-91597717D01*
X80949723Y-91608749D01*
X80949722Y-91608754D01*
X80949708Y-91610807D01*
X80929263Y-91793080D01*
X80873803Y-91967912D01*
X80785442Y-92128641D01*
X80667544Y-92269146D01*
X80524600Y-92384076D01*
X80362055Y-92469052D01*
X80186101Y-92520839D01*
X80186060Y-92520843D01*
X80186056Y-92520844D01*
X80003442Y-92537463D01*
X79821074Y-92518295D01*
X79821027Y-92518290D01*
X79645813Y-92464052D01*
X79484471Y-92376815D01*
X79343145Y-92259900D01*
X79227221Y-92117762D01*
X79141112Y-91955815D01*
X79088098Y-91780226D01*
X79070200Y-91597685D01*
X79070200Y-91282283D01*
X79070277Y-91271251D01*
X79070278Y-91271246D01*
X79070292Y-91269193D01*
X79090737Y-91086920D01*
X79146197Y-90912088D01*
X79234558Y-90751359D01*
X79352456Y-90610854D01*
X79495400Y-90495924D01*
X79657945Y-90410948D01*
X79833899Y-90359161D01*
X79833940Y-90359157D01*
X79833944Y-90359156D01*
X80016558Y-90342537D01*
X80198926Y-90361705D01*
X80198926Y-90361705D01*
G37*
G36*
X77658926Y-90361705D02*
X77658973Y-90361710D01*
X77834187Y-90415948D01*
X77995529Y-90503185D01*
X78136855Y-90620100D01*
X78252779Y-90762238D01*
X78338888Y-90924185D01*
X78391902Y-91099774D01*
X78409800Y-91282315D01*
X78409800Y-91597717D01*
X78409723Y-91608749D01*
X78409722Y-91608754D01*
X78409708Y-91610807D01*
X78389263Y-91793080D01*
X78333803Y-91967912D01*
X78245442Y-92128641D01*
X78127544Y-92269146D01*
X77984600Y-92384076D01*
X77822055Y-92469052D01*
X77646101Y-92520839D01*
X77646060Y-92520843D01*
X77646056Y-92520844D01*
X77463442Y-92537463D01*
X77281074Y-92518295D01*
X77281027Y-92518290D01*
X77105813Y-92464052D01*
X76944471Y-92376815D01*
X76803145Y-92259900D01*
X76687221Y-92117762D01*
X76601112Y-91955815D01*
X76548098Y-91780226D01*
X76530200Y-91597685D01*
X76530200Y-91282283D01*
X76530277Y-91271251D01*
X76530278Y-91271246D01*
X76530292Y-91269193D01*
X76550737Y-91086920D01*
X76606197Y-90912088D01*
X76694558Y-90751359D01*
X76812456Y-90610854D01*
X76955400Y-90495924D01*
X77117945Y-90410948D01*
X77293899Y-90359161D01*
X77293940Y-90359157D01*
X77293944Y-90359156D01*
X77476558Y-90342537D01*
X77658926Y-90361705D01*
X77658926Y-90361705D01*
G37*
G36*
X75118926Y-90361705D02*
X75118973Y-90361710D01*
X75294187Y-90415948D01*
X75455529Y-90503185D01*
X75596855Y-90620100D01*
X75712779Y-90762238D01*
X75798888Y-90924185D01*
X75851902Y-91099774D01*
X75869800Y-91282315D01*
X75869800Y-91597717D01*
X75869723Y-91608749D01*
X75869722Y-91608754D01*
X75869708Y-91610807D01*
X75849263Y-91793080D01*
X75793803Y-91967912D01*
X75705442Y-92128641D01*
X75587544Y-92269146D01*
X75444600Y-92384076D01*
X75282055Y-92469052D01*
X75106101Y-92520839D01*
X75106060Y-92520843D01*
X75106056Y-92520844D01*
X74923442Y-92537463D01*
X74741074Y-92518295D01*
X74741027Y-92518290D01*
X74565813Y-92464052D01*
X74404471Y-92376815D01*
X74263145Y-92259900D01*
X74147221Y-92117762D01*
X74061112Y-91955815D01*
X74008098Y-91780226D01*
X73990200Y-91597685D01*
X73990200Y-91282283D01*
X73990277Y-91271251D01*
X73990278Y-91271246D01*
X73990292Y-91269193D01*
X74010737Y-91086920D01*
X74066197Y-90912088D01*
X74154558Y-90751359D01*
X74272456Y-90610854D01*
X74415400Y-90495924D01*
X74577945Y-90410948D01*
X74753899Y-90359161D01*
X74753940Y-90359157D01*
X74753944Y-90359156D01*
X74936558Y-90342537D01*
X75118926Y-90361705D01*
X75118926Y-90361705D01*
G37*
G36*
X72578926Y-90361705D02*
X72578973Y-90361710D01*
X72754187Y-90415948D01*
X72915529Y-90503185D01*
X73056855Y-90620100D01*
X73172779Y-90762238D01*
X73258888Y-90924185D01*
X73311902Y-91099774D01*
X73329800Y-91282315D01*
X73329800Y-91597717D01*
X73329723Y-91608749D01*
X73329722Y-91608754D01*
X73329708Y-91610807D01*
X73309263Y-91793080D01*
X73253803Y-91967912D01*
X73165442Y-92128641D01*
X73047544Y-92269146D01*
X72904600Y-92384076D01*
X72742055Y-92469052D01*
X72566101Y-92520839D01*
X72566060Y-92520843D01*
X72566056Y-92520844D01*
X72383442Y-92537463D01*
X72201074Y-92518295D01*
X72201027Y-92518290D01*
X72025813Y-92464052D01*
X71864471Y-92376815D01*
X71723145Y-92259900D01*
X71607221Y-92117762D01*
X71521112Y-91955815D01*
X71468098Y-91780226D01*
X71450200Y-91597685D01*
X71450200Y-91282283D01*
X71450277Y-91271251D01*
X71450278Y-91271246D01*
X71450292Y-91269193D01*
X71470737Y-91086920D01*
X71526197Y-90912088D01*
X71614558Y-90751359D01*
X71732456Y-90610854D01*
X71875400Y-90495924D01*
X72037945Y-90410948D01*
X72213899Y-90359161D01*
X72213940Y-90359157D01*
X72213944Y-90359156D01*
X72396558Y-90342537D01*
X72578926Y-90361705D01*
X72578926Y-90361705D01*
G37*
G36*
X70038926Y-90361705D02*
X70038973Y-90361710D01*
X70214187Y-90415948D01*
X70375529Y-90503185D01*
X70516855Y-90620100D01*
X70632779Y-90762238D01*
X70718888Y-90924185D01*
X70771902Y-91099774D01*
X70789800Y-91282315D01*
X70789800Y-91597717D01*
X70789723Y-91608749D01*
X70789722Y-91608754D01*
X70789708Y-91610807D01*
X70769263Y-91793080D01*
X70713803Y-91967912D01*
X70625442Y-92128641D01*
X70507544Y-92269146D01*
X70364600Y-92384076D01*
X70202055Y-92469052D01*
X70026101Y-92520839D01*
X70026060Y-92520843D01*
X70026056Y-92520844D01*
X69843442Y-92537463D01*
X69661074Y-92518295D01*
X69661027Y-92518290D01*
X69485813Y-92464052D01*
X69324471Y-92376815D01*
X69183145Y-92259900D01*
X69067221Y-92117762D01*
X68981112Y-91955815D01*
X68928098Y-91780226D01*
X68910200Y-91597685D01*
X68910200Y-91282283D01*
X68910277Y-91271251D01*
X68910278Y-91271246D01*
X68910292Y-91269193D01*
X68930737Y-91086920D01*
X68986197Y-90912088D01*
X69074558Y-90751359D01*
X69192456Y-90610854D01*
X69335400Y-90495924D01*
X69497945Y-90410948D01*
X69673899Y-90359161D01*
X69673940Y-90359157D01*
X69673944Y-90359156D01*
X69856558Y-90342537D01*
X70038926Y-90361705D01*
X70038926Y-90361705D01*
G37*
G36*
X87818926Y-90361705D02*
X87818973Y-90361710D01*
X87994187Y-90415948D01*
X88155529Y-90503185D01*
X88296855Y-90620100D01*
X88412779Y-90762238D01*
X88498888Y-90924185D01*
X88551902Y-91099774D01*
X88569800Y-91282315D01*
X88569800Y-91597717D01*
X88569723Y-91608749D01*
X88569722Y-91608754D01*
X88569708Y-91610807D01*
X88549263Y-91793080D01*
X88493803Y-91967912D01*
X88405442Y-92128641D01*
X88287544Y-92269146D01*
X88144600Y-92384076D01*
X87982055Y-92469052D01*
X87806101Y-92520839D01*
X87806060Y-92520843D01*
X87806056Y-92520844D01*
X87623442Y-92537463D01*
X87441074Y-92518295D01*
X87441027Y-92518290D01*
X87265813Y-92464052D01*
X87104471Y-92376815D01*
X86963145Y-92259900D01*
X86847221Y-92117762D01*
X86761112Y-91955815D01*
X86708098Y-91780226D01*
X86690200Y-91597685D01*
X86690200Y-91282283D01*
X86690277Y-91271251D01*
X86690278Y-91271246D01*
X86690292Y-91269193D01*
X86710737Y-91086920D01*
X86766197Y-90912088D01*
X86854558Y-90751359D01*
X86972456Y-90610854D01*
X87115400Y-90495924D01*
X87277945Y-90410948D01*
X87453899Y-90359161D01*
X87453940Y-90359157D01*
X87453944Y-90359156D01*
X87636558Y-90342537D01*
X87818926Y-90361705D01*
X87818926Y-90361705D01*
G37*
G36*
X65709800Y-92532200D02*
X63830200Y-92532200D01*
X63830200Y-90347800D01*
X65709800Y-90347800D01*
X65709800Y-92532200D01*
X65709800Y-92532200D01*
G37*
G36*
X65192749Y-83642277D02*
X65192754Y-83642278D01*
X65194807Y-83642292D01*
X65377080Y-83662737D01*
X65551912Y-83718197D01*
X65712641Y-83806558D01*
X65853146Y-83924456D01*
X65968076Y-84067400D01*
X66053052Y-84229945D01*
X66104839Y-84405899D01*
X66104843Y-84405940D01*
X66104844Y-84405944D01*
X66121463Y-84588558D01*
X66103648Y-84758056D01*
X66102290Y-84770973D01*
X66048052Y-84946187D01*
X65960815Y-85107529D01*
X65843900Y-85248855D01*
X65701762Y-85364779D01*
X65539815Y-85450888D01*
X65364226Y-85503902D01*
X65181685Y-85521800D01*
X64866283Y-85521800D01*
X64855251Y-85521723D01*
X64855246Y-85521722D01*
X64853193Y-85521708D01*
X64670920Y-85501263D01*
X64496088Y-85445803D01*
X64335359Y-85357442D01*
X64194854Y-85239544D01*
X64079924Y-85096600D01*
X63994948Y-84934055D01*
X63943161Y-84758101D01*
X63943157Y-84758060D01*
X63943156Y-84758056D01*
X63926537Y-84575442D01*
X63945705Y-84393074D01*
X63945710Y-84393027D01*
X63999948Y-84217813D01*
X64087185Y-84056471D01*
X64204100Y-83915145D01*
X64346238Y-83799221D01*
X64508185Y-83713112D01*
X64683774Y-83660098D01*
X64866315Y-83642200D01*
X65181717Y-83642200D01*
X65192749Y-83642277D01*
X65192749Y-83642277D01*
G37*
G36*
X65192749Y-81102277D02*
X65192754Y-81102278D01*
X65194807Y-81102292D01*
X65377080Y-81122737D01*
X65551912Y-81178197D01*
X65712641Y-81266558D01*
X65853146Y-81384456D01*
X65968076Y-81527400D01*
X66053052Y-81689945D01*
X66104839Y-81865899D01*
X66104843Y-81865940D01*
X66104844Y-81865944D01*
X66121463Y-82048558D01*
X66103648Y-82218056D01*
X66102290Y-82230973D01*
X66048052Y-82406187D01*
X65960815Y-82567529D01*
X65843900Y-82708855D01*
X65701762Y-82824779D01*
X65539815Y-82910888D01*
X65364226Y-82963902D01*
X65181685Y-82981800D01*
X64866283Y-82981800D01*
X64855251Y-82981723D01*
X64855246Y-82981722D01*
X64853193Y-82981708D01*
X64670920Y-82961263D01*
X64496088Y-82905803D01*
X64335359Y-82817442D01*
X64194854Y-82699544D01*
X64079924Y-82556600D01*
X63994948Y-82394055D01*
X63943161Y-82218101D01*
X63943157Y-82218060D01*
X63943156Y-82218056D01*
X63926537Y-82035442D01*
X63945705Y-81853074D01*
X63945710Y-81853027D01*
X63999948Y-81677813D01*
X64087185Y-81516471D01*
X64204100Y-81375145D01*
X64346238Y-81259221D01*
X64508185Y-81173112D01*
X64683774Y-81120098D01*
X64866315Y-81102200D01*
X65181717Y-81102200D01*
X65192749Y-81102277D01*
X65192749Y-81102277D01*
G37*
G36*
X65192749Y-78562277D02*
X65192754Y-78562278D01*
X65194807Y-78562292D01*
X65377080Y-78582737D01*
X65551912Y-78638197D01*
X65712641Y-78726558D01*
X65853146Y-78844456D01*
X65968076Y-78987400D01*
X66053052Y-79149945D01*
X66104839Y-79325899D01*
X66104843Y-79325940D01*
X66104844Y-79325944D01*
X66121463Y-79508558D01*
X66103648Y-79678056D01*
X66102290Y-79690973D01*
X66048052Y-79866187D01*
X65960815Y-80027529D01*
X65843900Y-80168855D01*
X65701762Y-80284779D01*
X65539815Y-80370888D01*
X65364226Y-80423902D01*
X65181685Y-80441800D01*
X64866283Y-80441800D01*
X64855251Y-80441723D01*
X64855246Y-80441722D01*
X64853193Y-80441708D01*
X64670920Y-80421263D01*
X64496088Y-80365803D01*
X64335359Y-80277442D01*
X64194854Y-80159544D01*
X64079924Y-80016600D01*
X63994948Y-79854055D01*
X63943161Y-79678101D01*
X63943157Y-79678060D01*
X63943156Y-79678056D01*
X63926537Y-79495442D01*
X63945705Y-79313074D01*
X63945710Y-79313027D01*
X63999948Y-79137813D01*
X64087185Y-78976471D01*
X64204100Y-78835145D01*
X64346238Y-78719221D01*
X64508185Y-78633112D01*
X64683774Y-78580098D01*
X64866315Y-78562200D01*
X65181717Y-78562200D01*
X65192749Y-78562277D01*
X65192749Y-78562277D01*
G37*
G36*
X65192749Y-76022277D02*
X65192754Y-76022278D01*
X65194807Y-76022292D01*
X65377080Y-76042737D01*
X65551912Y-76098197D01*
X65712641Y-76186558D01*
X65853146Y-76304456D01*
X65968076Y-76447400D01*
X66053052Y-76609945D01*
X66104839Y-76785899D01*
X66104843Y-76785940D01*
X66104844Y-76785944D01*
X66121463Y-76968558D01*
X66103648Y-77138056D01*
X66102290Y-77150973D01*
X66048052Y-77326187D01*
X65960815Y-77487529D01*
X65843900Y-77628855D01*
X65701762Y-77744779D01*
X65539815Y-77830888D01*
X65364226Y-77883902D01*
X65181685Y-77901800D01*
X64866283Y-77901800D01*
X64855251Y-77901723D01*
X64855246Y-77901722D01*
X64853193Y-77901708D01*
X64670920Y-77881263D01*
X64496088Y-77825803D01*
X64335359Y-77737442D01*
X64194854Y-77619544D01*
X64079924Y-77476600D01*
X63994948Y-77314055D01*
X63943161Y-77138101D01*
X63943157Y-77138060D01*
X63943156Y-77138056D01*
X63926537Y-76955442D01*
X63945705Y-76773074D01*
X63945710Y-76773027D01*
X63999948Y-76597813D01*
X64087185Y-76436471D01*
X64204100Y-76295145D01*
X64346238Y-76179221D01*
X64508185Y-76093112D01*
X64683774Y-76040098D01*
X64866315Y-76022200D01*
X65181717Y-76022200D01*
X65192749Y-76022277D01*
X65192749Y-76022277D01*
G37*
G36*
X66116200Y-75361800D02*
X63931800Y-75361800D01*
X63931800Y-73482200D01*
X66116200Y-73482200D01*
X66116200Y-75361800D01*
X66116200Y-75361800D01*
G37*
G36*
X107665428Y-72845048D02*
X107795322Y-72871712D01*
X107917577Y-72923103D01*
X108027515Y-72997257D01*
X108120952Y-73091349D01*
X108194341Y-73201808D01*
X108244875Y-73324412D01*
X108270562Y-73454141D01*
X108270562Y-73454156D01*
X108270629Y-73454495D01*
X108268514Y-73605960D01*
X108268438Y-73606294D01*
X108268438Y-73606307D01*
X108239136Y-73735278D01*
X108185201Y-73856419D01*
X108108759Y-73964782D01*
X108012726Y-74056233D01*
X107900760Y-74127289D01*
X107777122Y-74175245D01*
X107646531Y-74198272D01*
X107513947Y-74195494D01*
X107384431Y-74167019D01*
X107262910Y-74113927D01*
X107154021Y-74038247D01*
X107061902Y-73942856D01*
X106990065Y-73831386D01*
X106941246Y-73708084D01*
X106917309Y-73577659D01*
X106919160Y-73445061D01*
X106946732Y-73315346D01*
X106998971Y-73193461D01*
X107073893Y-73084042D01*
X107168641Y-72991258D01*
X107279599Y-72918648D01*
X107402557Y-72868970D01*
X107532815Y-72844123D01*
X107665428Y-72845048D01*
X107665428Y-72845048D01*
G37*
G36*
X107665428Y-65745048D02*
X107795322Y-65771712D01*
X107917577Y-65823103D01*
X108027515Y-65897257D01*
X108120952Y-65991349D01*
X108194341Y-66101808D01*
X108244875Y-66224412D01*
X108270562Y-66354141D01*
X108270562Y-66354156D01*
X108270629Y-66354495D01*
X108268514Y-66505960D01*
X108268438Y-66506294D01*
X108268438Y-66506307D01*
X108239136Y-66635278D01*
X108185201Y-66756419D01*
X108108759Y-66864782D01*
X108012726Y-66956233D01*
X107900760Y-67027289D01*
X107777122Y-67075245D01*
X107646531Y-67098272D01*
X107513947Y-67095494D01*
X107384431Y-67067019D01*
X107262910Y-67013927D01*
X107154021Y-66938247D01*
X107061902Y-66842856D01*
X106990065Y-66731386D01*
X106941246Y-66608084D01*
X106917309Y-66477659D01*
X106919160Y-66345061D01*
X106946732Y-66215346D01*
X106998971Y-66093461D01*
X107073893Y-65984042D01*
X107168641Y-65891258D01*
X107279599Y-65818648D01*
X107402557Y-65768970D01*
X107532815Y-65744123D01*
X107665428Y-65745048D01*
X107665428Y-65745048D01*
G37*
G36*
X95438926Y-57341705D02*
X95438973Y-57341710D01*
X95614187Y-57395948D01*
X95775529Y-57483185D01*
X95916855Y-57600100D01*
X96032779Y-57742238D01*
X96118888Y-57904185D01*
X96171902Y-58079774D01*
X96189800Y-58262315D01*
X96189800Y-58577717D01*
X96189723Y-58588749D01*
X96189722Y-58588754D01*
X96189708Y-58590807D01*
X96169263Y-58773080D01*
X96113803Y-58947912D01*
X96025442Y-59108641D01*
X95907544Y-59249146D01*
X95764600Y-59364076D01*
X95602055Y-59449052D01*
X95426101Y-59500839D01*
X95426060Y-59500843D01*
X95426056Y-59500844D01*
X95243442Y-59517463D01*
X95061074Y-59498295D01*
X95061027Y-59498290D01*
X94885813Y-59444052D01*
X94724471Y-59356815D01*
X94583145Y-59239900D01*
X94467221Y-59097762D01*
X94381112Y-58935815D01*
X94328098Y-58760226D01*
X94310200Y-58577685D01*
X94310200Y-58262283D01*
X94310277Y-58251251D01*
X94310278Y-58251246D01*
X94310292Y-58249193D01*
X94330737Y-58066920D01*
X94386197Y-57892088D01*
X94474558Y-57731359D01*
X94592456Y-57590854D01*
X94735400Y-57475924D01*
X94897945Y-57390948D01*
X95073899Y-57339161D01*
X95073940Y-57339157D01*
X95073944Y-57339156D01*
X95256558Y-57322537D01*
X95438926Y-57341705D01*
X95438926Y-57341705D01*
G37*
G36*
X70038926Y-57341705D02*
X70038973Y-57341710D01*
X70214187Y-57395948D01*
X70375529Y-57483185D01*
X70516855Y-57600100D01*
X70632779Y-57742238D01*
X70718888Y-57904185D01*
X70771902Y-58079774D01*
X70789800Y-58262315D01*
X70789800Y-58577717D01*
X70789723Y-58588749D01*
X70789722Y-58588754D01*
X70789708Y-58590807D01*
X70769263Y-58773080D01*
X70713803Y-58947912D01*
X70625442Y-59108641D01*
X70507544Y-59249146D01*
X70364600Y-59364076D01*
X70202055Y-59449052D01*
X70026101Y-59500839D01*
X70026060Y-59500843D01*
X70026056Y-59500844D01*
X69843442Y-59517463D01*
X69661074Y-59498295D01*
X69661027Y-59498290D01*
X69485813Y-59444052D01*
X69324471Y-59356815D01*
X69183145Y-59239900D01*
X69067221Y-59097762D01*
X68981112Y-58935815D01*
X68928098Y-58760226D01*
X68910200Y-58577685D01*
X68910200Y-58262283D01*
X68910277Y-58251251D01*
X68910278Y-58251246D01*
X68910292Y-58249193D01*
X68930737Y-58066920D01*
X68986197Y-57892088D01*
X69074558Y-57731359D01*
X69192456Y-57590854D01*
X69335400Y-57475924D01*
X69497945Y-57390948D01*
X69673899Y-57339161D01*
X69673940Y-57339157D01*
X69673944Y-57339156D01*
X69856558Y-57322537D01*
X70038926Y-57341705D01*
X70038926Y-57341705D01*
G37*
G36*
X72578926Y-57341705D02*
X72578973Y-57341710D01*
X72754187Y-57395948D01*
X72915529Y-57483185D01*
X73056855Y-57600100D01*
X73172779Y-57742238D01*
X73258888Y-57904185D01*
X73311902Y-58079774D01*
X73329800Y-58262315D01*
X73329800Y-58577717D01*
X73329723Y-58588749D01*
X73329722Y-58588754D01*
X73329708Y-58590807D01*
X73309263Y-58773080D01*
X73253803Y-58947912D01*
X73165442Y-59108641D01*
X73047544Y-59249146D01*
X72904600Y-59364076D01*
X72742055Y-59449052D01*
X72566101Y-59500839D01*
X72566060Y-59500843D01*
X72566056Y-59500844D01*
X72383442Y-59517463D01*
X72201074Y-59498295D01*
X72201027Y-59498290D01*
X72025813Y-59444052D01*
X71864471Y-59356815D01*
X71723145Y-59239900D01*
X71607221Y-59097762D01*
X71521112Y-58935815D01*
X71468098Y-58760226D01*
X71450200Y-58577685D01*
X71450200Y-58262283D01*
X71450277Y-58251251D01*
X71450278Y-58251246D01*
X71450292Y-58249193D01*
X71470737Y-58066920D01*
X71526197Y-57892088D01*
X71614558Y-57731359D01*
X71732456Y-57590854D01*
X71875400Y-57475924D01*
X72037945Y-57390948D01*
X72213899Y-57339161D01*
X72213940Y-57339157D01*
X72213944Y-57339156D01*
X72396558Y-57322537D01*
X72578926Y-57341705D01*
X72578926Y-57341705D01*
G37*
G36*
X75118926Y-57341705D02*
X75118973Y-57341710D01*
X75294187Y-57395948D01*
X75455529Y-57483185D01*
X75596855Y-57600100D01*
X75712779Y-57742238D01*
X75798888Y-57904185D01*
X75851902Y-58079774D01*
X75869800Y-58262315D01*
X75869800Y-58577717D01*
X75869723Y-58588749D01*
X75869722Y-58588754D01*
X75869708Y-58590807D01*
X75849263Y-58773080D01*
X75793803Y-58947912D01*
X75705442Y-59108641D01*
X75587544Y-59249146D01*
X75444600Y-59364076D01*
X75282055Y-59449052D01*
X75106101Y-59500839D01*
X75106060Y-59500843D01*
X75106056Y-59500844D01*
X74923442Y-59517463D01*
X74741074Y-59498295D01*
X74741027Y-59498290D01*
X74565813Y-59444052D01*
X74404471Y-59356815D01*
X74263145Y-59239900D01*
X74147221Y-59097762D01*
X74061112Y-58935815D01*
X74008098Y-58760226D01*
X73990200Y-58577685D01*
X73990200Y-58262283D01*
X73990277Y-58251251D01*
X73990278Y-58251246D01*
X73990292Y-58249193D01*
X74010737Y-58066920D01*
X74066197Y-57892088D01*
X74154558Y-57731359D01*
X74272456Y-57590854D01*
X74415400Y-57475924D01*
X74577945Y-57390948D01*
X74753899Y-57339161D01*
X74753940Y-57339157D01*
X74753944Y-57339156D01*
X74936558Y-57322537D01*
X75118926Y-57341705D01*
X75118926Y-57341705D01*
G37*
G36*
X80198926Y-57341705D02*
X80198973Y-57341710D01*
X80374187Y-57395948D01*
X80535529Y-57483185D01*
X80676855Y-57600100D01*
X80792779Y-57742238D01*
X80878888Y-57904185D01*
X80931902Y-58079774D01*
X80949800Y-58262315D01*
X80949800Y-58577717D01*
X80949723Y-58588749D01*
X80949722Y-58588754D01*
X80949708Y-58590807D01*
X80929263Y-58773080D01*
X80873803Y-58947912D01*
X80785442Y-59108641D01*
X80667544Y-59249146D01*
X80524600Y-59364076D01*
X80362055Y-59449052D01*
X80186101Y-59500839D01*
X80186060Y-59500843D01*
X80186056Y-59500844D01*
X80003442Y-59517463D01*
X79821074Y-59498295D01*
X79821027Y-59498290D01*
X79645813Y-59444052D01*
X79484471Y-59356815D01*
X79343145Y-59239900D01*
X79227221Y-59097762D01*
X79141112Y-58935815D01*
X79088098Y-58760226D01*
X79070200Y-58577685D01*
X79070200Y-58262283D01*
X79070277Y-58251251D01*
X79070278Y-58251246D01*
X79070292Y-58249193D01*
X79090737Y-58066920D01*
X79146197Y-57892088D01*
X79234558Y-57731359D01*
X79352456Y-57590854D01*
X79495400Y-57475924D01*
X79657945Y-57390948D01*
X79833899Y-57339161D01*
X79833940Y-57339157D01*
X79833944Y-57339156D01*
X80016558Y-57322537D01*
X80198926Y-57341705D01*
X80198926Y-57341705D01*
G37*
G36*
X82738926Y-57341705D02*
X82738973Y-57341710D01*
X82914187Y-57395948D01*
X83075529Y-57483185D01*
X83216855Y-57600100D01*
X83332779Y-57742238D01*
X83418888Y-57904185D01*
X83471902Y-58079774D01*
X83489800Y-58262315D01*
X83489800Y-58577717D01*
X83489723Y-58588749D01*
X83489722Y-58588754D01*
X83489708Y-58590807D01*
X83469263Y-58773080D01*
X83413803Y-58947912D01*
X83325442Y-59108641D01*
X83207544Y-59249146D01*
X83064600Y-59364076D01*
X82902055Y-59449052D01*
X82726101Y-59500839D01*
X82726060Y-59500843D01*
X82726056Y-59500844D01*
X82543442Y-59517463D01*
X82361074Y-59498295D01*
X82361027Y-59498290D01*
X82185813Y-59444052D01*
X82024471Y-59356815D01*
X81883145Y-59239900D01*
X81767221Y-59097762D01*
X81681112Y-58935815D01*
X81628098Y-58760226D01*
X81610200Y-58577685D01*
X81610200Y-58262283D01*
X81610277Y-58251251D01*
X81610278Y-58251246D01*
X81610292Y-58249193D01*
X81630737Y-58066920D01*
X81686197Y-57892088D01*
X81774558Y-57731359D01*
X81892456Y-57590854D01*
X82035400Y-57475924D01*
X82197945Y-57390948D01*
X82373899Y-57339161D01*
X82373940Y-57339157D01*
X82373944Y-57339156D01*
X82556558Y-57322537D01*
X82738926Y-57341705D01*
X82738926Y-57341705D01*
G37*
G36*
X85278926Y-57341705D02*
X85278973Y-57341710D01*
X85454187Y-57395948D01*
X85615529Y-57483185D01*
X85756855Y-57600100D01*
X85872779Y-57742238D01*
X85958888Y-57904185D01*
X86011902Y-58079774D01*
X86029800Y-58262315D01*
X86029800Y-58577717D01*
X86029723Y-58588749D01*
X86029722Y-58588754D01*
X86029708Y-58590807D01*
X86009263Y-58773080D01*
X85953803Y-58947912D01*
X85865442Y-59108641D01*
X85747544Y-59249146D01*
X85604600Y-59364076D01*
X85442055Y-59449052D01*
X85266101Y-59500839D01*
X85266060Y-59500843D01*
X85266056Y-59500844D01*
X85083442Y-59517463D01*
X84901074Y-59498295D01*
X84901027Y-59498290D01*
X84725813Y-59444052D01*
X84564471Y-59356815D01*
X84423145Y-59239900D01*
X84307221Y-59097762D01*
X84221112Y-58935815D01*
X84168098Y-58760226D01*
X84150200Y-58577685D01*
X84150200Y-58262283D01*
X84150277Y-58251251D01*
X84150278Y-58251246D01*
X84150292Y-58249193D01*
X84170737Y-58066920D01*
X84226197Y-57892088D01*
X84314558Y-57731359D01*
X84432456Y-57590854D01*
X84575400Y-57475924D01*
X84737945Y-57390948D01*
X84913899Y-57339161D01*
X84913940Y-57339157D01*
X84913944Y-57339156D01*
X85096558Y-57322537D01*
X85278926Y-57341705D01*
X85278926Y-57341705D01*
G37*
G36*
X67498926Y-57341705D02*
X67498973Y-57341710D01*
X67674187Y-57395948D01*
X67835529Y-57483185D01*
X67976855Y-57600100D01*
X68092779Y-57742238D01*
X68178888Y-57904185D01*
X68231902Y-58079774D01*
X68249800Y-58262315D01*
X68249800Y-58577717D01*
X68249723Y-58588749D01*
X68249722Y-58588754D01*
X68249708Y-58590807D01*
X68229263Y-58773080D01*
X68173803Y-58947912D01*
X68085442Y-59108641D01*
X67967544Y-59249146D01*
X67824600Y-59364076D01*
X67662055Y-59449052D01*
X67486101Y-59500839D01*
X67486060Y-59500843D01*
X67486056Y-59500844D01*
X67303442Y-59517463D01*
X67121074Y-59498295D01*
X67121027Y-59498290D01*
X66945813Y-59444052D01*
X66784471Y-59356815D01*
X66643145Y-59239900D01*
X66527221Y-59097762D01*
X66441112Y-58935815D01*
X66388098Y-58760226D01*
X66370200Y-58577685D01*
X66370200Y-58262283D01*
X66370277Y-58251251D01*
X66370278Y-58251246D01*
X66370292Y-58249193D01*
X66390737Y-58066920D01*
X66446197Y-57892088D01*
X66534558Y-57731359D01*
X66652456Y-57590854D01*
X66795400Y-57475924D01*
X66957945Y-57390948D01*
X67133899Y-57339161D01*
X67133940Y-57339157D01*
X67133944Y-57339156D01*
X67316558Y-57322537D01*
X67498926Y-57341705D01*
X67498926Y-57341705D01*
G37*
G36*
X90358926Y-57341705D02*
X90358973Y-57341710D01*
X90534187Y-57395948D01*
X90695529Y-57483185D01*
X90836855Y-57600100D01*
X90952779Y-57742238D01*
X91038888Y-57904185D01*
X91091902Y-58079774D01*
X91109800Y-58262315D01*
X91109800Y-58577717D01*
X91109723Y-58588749D01*
X91109722Y-58588754D01*
X91109708Y-58590807D01*
X91089263Y-58773080D01*
X91033803Y-58947912D01*
X90945442Y-59108641D01*
X90827544Y-59249146D01*
X90684600Y-59364076D01*
X90522055Y-59449052D01*
X90346101Y-59500839D01*
X90346060Y-59500843D01*
X90346056Y-59500844D01*
X90163442Y-59517463D01*
X89981074Y-59498295D01*
X89981027Y-59498290D01*
X89805813Y-59444052D01*
X89644471Y-59356815D01*
X89503145Y-59239900D01*
X89387221Y-59097762D01*
X89301112Y-58935815D01*
X89248098Y-58760226D01*
X89230200Y-58577685D01*
X89230200Y-58262283D01*
X89230277Y-58251251D01*
X89230278Y-58251246D01*
X89230292Y-58249193D01*
X89250737Y-58066920D01*
X89306197Y-57892088D01*
X89394558Y-57731359D01*
X89512456Y-57590854D01*
X89655400Y-57475924D01*
X89817945Y-57390948D01*
X89993899Y-57339161D01*
X89993940Y-57339157D01*
X89993944Y-57339156D01*
X90176558Y-57322537D01*
X90358926Y-57341705D01*
X90358926Y-57341705D01*
G37*
G36*
X92898926Y-57341705D02*
X92898973Y-57341710D01*
X93074187Y-57395948D01*
X93235529Y-57483185D01*
X93376855Y-57600100D01*
X93492779Y-57742238D01*
X93578888Y-57904185D01*
X93631902Y-58079774D01*
X93649800Y-58262315D01*
X93649800Y-58577717D01*
X93649723Y-58588749D01*
X93649722Y-58588754D01*
X93649708Y-58590807D01*
X93629263Y-58773080D01*
X93573803Y-58947912D01*
X93485442Y-59108641D01*
X93367544Y-59249146D01*
X93224600Y-59364076D01*
X93062055Y-59449052D01*
X92886101Y-59500839D01*
X92886060Y-59500843D01*
X92886056Y-59500844D01*
X92703442Y-59517463D01*
X92521074Y-59498295D01*
X92521027Y-59498290D01*
X92345813Y-59444052D01*
X92184471Y-59356815D01*
X92043145Y-59239900D01*
X91927221Y-59097762D01*
X91841112Y-58935815D01*
X91788098Y-58760226D01*
X91770200Y-58577685D01*
X91770200Y-58262283D01*
X91770277Y-58251251D01*
X91770278Y-58251246D01*
X91770292Y-58249193D01*
X91790737Y-58066920D01*
X91846197Y-57892088D01*
X91934558Y-57731359D01*
X92052456Y-57590854D01*
X92195400Y-57475924D01*
X92357945Y-57390948D01*
X92533899Y-57339161D01*
X92533940Y-57339157D01*
X92533944Y-57339156D01*
X92716558Y-57322537D01*
X92898926Y-57341705D01*
X92898926Y-57341705D01*
G37*
G36*
X97978926Y-57341705D02*
X97978973Y-57341710D01*
X98154187Y-57395948D01*
X98315529Y-57483185D01*
X98456855Y-57600100D01*
X98572779Y-57742238D01*
X98658888Y-57904185D01*
X98711902Y-58079774D01*
X98729800Y-58262315D01*
X98729800Y-58577717D01*
X98729723Y-58588749D01*
X98729722Y-58588754D01*
X98729708Y-58590807D01*
X98709263Y-58773080D01*
X98653803Y-58947912D01*
X98565442Y-59108641D01*
X98447544Y-59249146D01*
X98304600Y-59364076D01*
X98142055Y-59449052D01*
X97966101Y-59500839D01*
X97966060Y-59500843D01*
X97966056Y-59500844D01*
X97783442Y-59517463D01*
X97601074Y-59498295D01*
X97601027Y-59498290D01*
X97425813Y-59444052D01*
X97264471Y-59356815D01*
X97123145Y-59239900D01*
X97007221Y-59097762D01*
X96921112Y-58935815D01*
X96868098Y-58760226D01*
X96850200Y-58577685D01*
X96850200Y-58262283D01*
X96850277Y-58251251D01*
X96850278Y-58251246D01*
X96850292Y-58249193D01*
X96870737Y-58066920D01*
X96926197Y-57892088D01*
X97014558Y-57731359D01*
X97132456Y-57590854D01*
X97275400Y-57475924D01*
X97437945Y-57390948D01*
X97613899Y-57339161D01*
X97613940Y-57339157D01*
X97613944Y-57339156D01*
X97796558Y-57322537D01*
X97978926Y-57341705D01*
X97978926Y-57341705D01*
G37*
G36*
X100518926Y-57341705D02*
X100518973Y-57341710D01*
X100694187Y-57395948D01*
X100855529Y-57483185D01*
X100996855Y-57600100D01*
X101112779Y-57742238D01*
X101198888Y-57904185D01*
X101251902Y-58079774D01*
X101269800Y-58262315D01*
X101269800Y-58577717D01*
X101269723Y-58588749D01*
X101269722Y-58588754D01*
X101269708Y-58590807D01*
X101249263Y-58773080D01*
X101193803Y-58947912D01*
X101105442Y-59108641D01*
X100987544Y-59249146D01*
X100844600Y-59364076D01*
X100682055Y-59449052D01*
X100506101Y-59500839D01*
X100506060Y-59500843D01*
X100506056Y-59500844D01*
X100323442Y-59517463D01*
X100141074Y-59498295D01*
X100141027Y-59498290D01*
X99965813Y-59444052D01*
X99804471Y-59356815D01*
X99663145Y-59239900D01*
X99547221Y-59097762D01*
X99461112Y-58935815D01*
X99408098Y-58760226D01*
X99390200Y-58577685D01*
X99390200Y-58262283D01*
X99390277Y-58251251D01*
X99390278Y-58251246D01*
X99390292Y-58249193D01*
X99410737Y-58066920D01*
X99466197Y-57892088D01*
X99554558Y-57731359D01*
X99672456Y-57590854D01*
X99815400Y-57475924D01*
X99977945Y-57390948D01*
X100153899Y-57339161D01*
X100153940Y-57339157D01*
X100153944Y-57339156D01*
X100336558Y-57322537D01*
X100518926Y-57341705D01*
X100518926Y-57341705D01*
G37*
G36*
X103058926Y-57341705D02*
X103058973Y-57341710D01*
X103234187Y-57395948D01*
X103395529Y-57483185D01*
X103536855Y-57600100D01*
X103652779Y-57742238D01*
X103738888Y-57904185D01*
X103791902Y-58079774D01*
X103809800Y-58262315D01*
X103809800Y-58577717D01*
X103809723Y-58588749D01*
X103809722Y-58588754D01*
X103809708Y-58590807D01*
X103789263Y-58773080D01*
X103733803Y-58947912D01*
X103645442Y-59108641D01*
X103527544Y-59249146D01*
X103384600Y-59364076D01*
X103222055Y-59449052D01*
X103046101Y-59500839D01*
X103046060Y-59500843D01*
X103046056Y-59500844D01*
X102863442Y-59517463D01*
X102681074Y-59498295D01*
X102681027Y-59498290D01*
X102505813Y-59444052D01*
X102344471Y-59356815D01*
X102203145Y-59239900D01*
X102087221Y-59097762D01*
X102001112Y-58935815D01*
X101948098Y-58760226D01*
X101930200Y-58577685D01*
X101930200Y-58262283D01*
X101930277Y-58251251D01*
X101930278Y-58251246D01*
X101930292Y-58249193D01*
X101950737Y-58066920D01*
X102006197Y-57892088D01*
X102094558Y-57731359D01*
X102212456Y-57590854D01*
X102355400Y-57475924D01*
X102517945Y-57390948D01*
X102693899Y-57339161D01*
X102693940Y-57339157D01*
X102693944Y-57339156D01*
X102876558Y-57322537D01*
X103058926Y-57341705D01*
X103058926Y-57341705D01*
G37*
G36*
X105598926Y-57341705D02*
X105598973Y-57341710D01*
X105774187Y-57395948D01*
X105935529Y-57483185D01*
X106076855Y-57600100D01*
X106192779Y-57742238D01*
X106278888Y-57904185D01*
X106331902Y-58079774D01*
X106349800Y-58262315D01*
X106349800Y-58577717D01*
X106349723Y-58588749D01*
X106349722Y-58588754D01*
X106349708Y-58590807D01*
X106329263Y-58773080D01*
X106273803Y-58947912D01*
X106185442Y-59108641D01*
X106067544Y-59249146D01*
X105924600Y-59364076D01*
X105762055Y-59449052D01*
X105586101Y-59500839D01*
X105586060Y-59500843D01*
X105586056Y-59500844D01*
X105403442Y-59517463D01*
X105221074Y-59498295D01*
X105221027Y-59498290D01*
X105045813Y-59444052D01*
X104884471Y-59356815D01*
X104743145Y-59239900D01*
X104627221Y-59097762D01*
X104541112Y-58935815D01*
X104488098Y-58760226D01*
X104470200Y-58577685D01*
X104470200Y-58262283D01*
X104470277Y-58251251D01*
X104470278Y-58251246D01*
X104470292Y-58249193D01*
X104490737Y-58066920D01*
X104546197Y-57892088D01*
X104634558Y-57731359D01*
X104752456Y-57590854D01*
X104895400Y-57475924D01*
X105057945Y-57390948D01*
X105233899Y-57339161D01*
X105233940Y-57339157D01*
X105233944Y-57339156D01*
X105416558Y-57322537D01*
X105598926Y-57341705D01*
X105598926Y-57341705D01*
G37*
G36*
X108138926Y-57341705D02*
X108138973Y-57341710D01*
X108314187Y-57395948D01*
X108475529Y-57483185D01*
X108616855Y-57600100D01*
X108732779Y-57742238D01*
X108818888Y-57904185D01*
X108871902Y-58079774D01*
X108889800Y-58262315D01*
X108889800Y-58577717D01*
X108889723Y-58588749D01*
X108889722Y-58588754D01*
X108889708Y-58590807D01*
X108869263Y-58773080D01*
X108813803Y-58947912D01*
X108725442Y-59108641D01*
X108607544Y-59249146D01*
X108464600Y-59364076D01*
X108302055Y-59449052D01*
X108126101Y-59500839D01*
X108126060Y-59500843D01*
X108126056Y-59500844D01*
X107943442Y-59517463D01*
X107761074Y-59498295D01*
X107761027Y-59498290D01*
X107585813Y-59444052D01*
X107424471Y-59356815D01*
X107283145Y-59239900D01*
X107167221Y-59097762D01*
X107081112Y-58935815D01*
X107028098Y-58760226D01*
X107010200Y-58577685D01*
X107010200Y-58262283D01*
X107010277Y-58251251D01*
X107010278Y-58251246D01*
X107010292Y-58249193D01*
X107030737Y-58066920D01*
X107086197Y-57892088D01*
X107174558Y-57731359D01*
X107292456Y-57590854D01*
X107435400Y-57475924D01*
X107597945Y-57390948D01*
X107773899Y-57339161D01*
X107773940Y-57339157D01*
X107773944Y-57339156D01*
X107956558Y-57322537D01*
X108138926Y-57341705D01*
X108138926Y-57341705D01*
G37*
G36*
X87818926Y-57341705D02*
X87818973Y-57341710D01*
X87994187Y-57395948D01*
X88155529Y-57483185D01*
X88296855Y-57600100D01*
X88412779Y-57742238D01*
X88498888Y-57904185D01*
X88551902Y-58079774D01*
X88569800Y-58262315D01*
X88569800Y-58577717D01*
X88569723Y-58588749D01*
X88569722Y-58588754D01*
X88569708Y-58590807D01*
X88549263Y-58773080D01*
X88493803Y-58947912D01*
X88405442Y-59108641D01*
X88287544Y-59249146D01*
X88144600Y-59364076D01*
X87982055Y-59449052D01*
X87806101Y-59500839D01*
X87806060Y-59500843D01*
X87806056Y-59500844D01*
X87623442Y-59517463D01*
X87441074Y-59498295D01*
X87441027Y-59498290D01*
X87265813Y-59444052D01*
X87104471Y-59356815D01*
X86963145Y-59239900D01*
X86847221Y-59097762D01*
X86761112Y-58935815D01*
X86708098Y-58760226D01*
X86690200Y-58577685D01*
X86690200Y-58262283D01*
X86690277Y-58251251D01*
X86690278Y-58251246D01*
X86690292Y-58249193D01*
X86710737Y-58066920D01*
X86766197Y-57892088D01*
X86854558Y-57731359D01*
X86972456Y-57590854D01*
X87115400Y-57475924D01*
X87277945Y-57390948D01*
X87453899Y-57339161D01*
X87453940Y-57339157D01*
X87453944Y-57339156D01*
X87636558Y-57322537D01*
X87818926Y-57341705D01*
X87818926Y-57341705D01*
G37*
G36*
X77658926Y-57341705D02*
X77658973Y-57341710D01*
X77834187Y-57395948D01*
X77995529Y-57483185D01*
X78136855Y-57600100D01*
X78252779Y-57742238D01*
X78338888Y-57904185D01*
X78391902Y-58079774D01*
X78409800Y-58262315D01*
X78409800Y-58577717D01*
X78409723Y-58588749D01*
X78409722Y-58588754D01*
X78409708Y-58590807D01*
X78389263Y-58773080D01*
X78333803Y-58947912D01*
X78245442Y-59108641D01*
X78127544Y-59249146D01*
X77984600Y-59364076D01*
X77822055Y-59449052D01*
X77646101Y-59500839D01*
X77646060Y-59500843D01*
X77646056Y-59500844D01*
X77463442Y-59517463D01*
X77281074Y-59498295D01*
X77281027Y-59498290D01*
X77105813Y-59444052D01*
X76944471Y-59356815D01*
X76803145Y-59239900D01*
X76687221Y-59097762D01*
X76601112Y-58935815D01*
X76548098Y-58760226D01*
X76530200Y-58577685D01*
X76530200Y-58262283D01*
X76530277Y-58251251D01*
X76530278Y-58251246D01*
X76530292Y-58249193D01*
X76550737Y-58066920D01*
X76606197Y-57892088D01*
X76694558Y-57731359D01*
X76812456Y-57590854D01*
X76955400Y-57475924D01*
X77117945Y-57390948D01*
X77293899Y-57339161D01*
X77293940Y-57339157D01*
X77293944Y-57339156D01*
X77476558Y-57322537D01*
X77658926Y-57341705D01*
X77658926Y-57341705D01*
G37*
G36*
X65709800Y-59512200D02*
X63830200Y-59512200D01*
X63830200Y-57327800D01*
X65709800Y-57327800D01*
X65709800Y-59512200D01*
X65709800Y-59512200D01*
G37*
M02*
