G04 This is an RS-274x file exported by *
G04 gerbv version 2.6.0 *
G04 More information is available about gerbv at *
G04 http://gerbv.gpleda.org/ *
G04 --End of header info--*
%MOIN*%
%FSLAX34Y34*%
%IPPOS*%
G04 --Define apertures--*
%ADD10C,0.0138*%
%ADD11C,0.0020*%
%ADD12C,0.0039*%
%ADD13C,0.0020*%
%ADD14C,0.0019*%
%ADD15C,0.0079*%
%ADD16C,0.0059*%
%ADD17C,0.0020*%
%ADD18C,0.0100*%
%ADD19C,0.0060*%
G04 --Start main section--*
G54D11*
G01X0026141Y-018176D02*
G01X0024074Y-018176D01*
G01X0026141Y-014239D02*
G01X0026141Y-018176D01*
G01X0024074Y-014239D02*
G01X0026141Y-014239D01*
G01X0024074Y-018176D02*
G01X0024074Y-014239D01*
G01X0024134Y-020155D02*
G01X0025276Y-020155D01*
G01X0024134Y-020155D02*
G01X0024134Y-020745D01*
G01X0025276Y-020155D02*
G01X0025276Y-020745D01*
G01X0024134Y-020745D02*
G01X0025276Y-020745D01*
G01X0022145Y-022276D02*
G01X0022145Y-021134D01*
G01X0022145Y-022276D02*
G01X0022735Y-022276D01*
G01X0022145Y-021134D02*
G01X0022735Y-021134D01*
G01X0022735Y-022276D02*
G01X0022735Y-021134D01*
G01X0016390Y-016004D02*
G01X0015590Y-016004D01*
G01X0016390Y-017404D02*
G01X0016390Y-016004D01*
G01X0015590Y-017404D02*
G01X0016390Y-017404D01*
G01X0015590Y-016004D02*
G01X0015590Y-017404D01*
G01X0012085Y-020689D02*
G01X0012085Y-021831D01*
G01X0012085Y-020689D02*
G01X0011495Y-020689D01*
G01X0012085Y-021831D02*
G01X0011495Y-021831D01*
G01X0011495Y-020689D02*
G01X0011495Y-021831D01*
G01X0019703Y-019110D02*
G01X0020845Y-019110D01*
G01X0019703Y-019110D02*
G01X0019703Y-019700D01*
G01X0020845Y-019110D02*
G01X0020845Y-019700D01*
G01X0019703Y-019700D02*
G01X0020845Y-019700D01*
G01X0014845Y-017281D02*
G01X0014845Y-016139D01*
G01X0014845Y-017281D02*
G01X0015435Y-017281D01*
G01X0014845Y-016139D02*
G01X0015435Y-016139D01*
G01X0015435Y-017281D02*
G01X0015435Y-016139D01*
G01X0019999Y-019818D02*
G01X0021140Y-019818D01*
G01X0019999Y-019818D02*
G01X0019999Y-020409D01*
G01X0021140Y-019818D02*
G01X0021140Y-020409D01*
G01X0019999Y-020409D02*
G01X0021140Y-020409D01*
G01X0018464Y-014115D02*
G01X0019606Y-014115D01*
G01X0018464Y-014115D02*
G01X0018464Y-014705D01*
G01X0019606Y-014115D02*
G01X0019606Y-014705D01*
G01X0018464Y-014705D02*
G01X0019606Y-014705D01*
G01X0018064Y-019565D02*
G01X0019206Y-019565D01*
G01X0018064Y-019565D02*
G01X0018064Y-020155D01*
G01X0019206Y-019565D02*
G01X0019206Y-020155D01*
G01X0018064Y-020155D02*
G01X0019206Y-020155D01*
G01X0020614Y-015015D02*
G01X0021756Y-015015D01*
G01X0020614Y-015015D02*
G01X0020614Y-015605D01*
G01X0021756Y-015015D02*
G01X0021756Y-015605D01*
G01X0020614Y-015605D02*
G01X0021756Y-015605D01*
G01X0023705Y-016494D02*
G01X0023705Y-017636D01*
G01X0023705Y-016494D02*
G01X0023115Y-016494D01*
G01X0023705Y-017636D02*
G01X0023115Y-017636D01*
G01X0023115Y-016494D02*
G01X0023115Y-017636D01*
G54D12*
G01X0025217Y-019770D02*
G01X0025217Y-018570D01*
G54D11*
G01X0025395Y-018383D02*
G01X0025395Y-019957D01*
G01X0022639Y-018383D02*
G01X0025395Y-018383D01*
G01X0022639Y-019957D02*
G01X0022639Y-018383D01*
G01X0025395Y-019957D02*
G01X0022639Y-019957D01*
G01X0023115Y-016326D02*
G01X0023115Y-015184D01*
G01X0023115Y-016326D02*
G01X0023705Y-016326D01*
G01X0023115Y-015184D02*
G01X0023705Y-015184D01*
G01X0023705Y-016326D02*
G01X0023705Y-015184D01*
G01X0022190Y-015994D02*
G01X0022990Y-015994D01*
G01X0022190Y-014594D02*
G01X0022190Y-015994D01*
G01X0022990Y-014594D02*
G01X0022190Y-014594D01*
G01X0022990Y-015994D02*
G01X0022990Y-014594D01*
G01X0012884Y-017560D02*
G01X0012884Y-016760D01*
G01X0011484Y-017560D02*
G01X0012884Y-017560D01*
G01X0011484Y-016760D02*
G01X0011484Y-017560D01*
G01X0012884Y-016760D02*
G01X0011484Y-016760D01*
G01X0015590Y-019004D02*
G01X0016390Y-019004D01*
G01X0015590Y-017604D02*
G01X0015590Y-019004D01*
G01X0016390Y-017604D02*
G01X0015590Y-017604D01*
G01X0016390Y-019004D02*
G01X0016390Y-017604D01*
G01X0011285Y-018089D02*
G01X0011285Y-019231D01*
G01X0011285Y-018089D02*
G01X0010695Y-018089D01*
G01X0011285Y-019231D02*
G01X0010695Y-019231D01*
G01X0010695Y-018089D02*
G01X0010695Y-019231D01*
G01X0012085Y-018084D02*
G01X0012085Y-019226D01*
G01X0012085Y-018084D02*
G01X0011495Y-018084D01*
G01X0012085Y-019226D02*
G01X0011495Y-019226D01*
G01X0011495Y-018084D02*
G01X0011495Y-019226D01*
G01X0011524Y-019565D02*
G01X0012666Y-019565D01*
G01X0011524Y-019565D02*
G01X0011524Y-020155D01*
G01X0012666Y-019565D02*
G01X0012666Y-020155D01*
G01X0011524Y-020155D02*
G01X0012666Y-020155D01*
G01X0014390Y-019460D02*
G01X0014390Y-021460D01*
G01X0013190Y-019460D02*
G01X0014390Y-019460D01*
G01X0013190Y-021460D02*
G01X0013190Y-019460D01*
G01X0014390Y-021460D02*
G01X0013190Y-021460D01*
G54D13*
G01X0017007Y-015727D02*
G01X0017007Y-018977D01*
G01X0017857Y-014877D02*
G01X0017007Y-015727D01*
G01X0021107Y-014877D02*
G01X0017857Y-014877D01*
G01X0021107Y-018977D02*
G01X0021107Y-014877D01*
G54D14*
G01X0021107Y-018977D02*
G01X0017007Y-018977D01*
G54D11*
G01X0018652Y-020481D02*
G01X0021452Y-020481D01*
G01X0018652Y-022281D02*
G01X0018652Y-020481D01*
G01X0021452Y-022281D02*
G01X0018652Y-022281D01*
G01X0021452Y-020481D02*
G01X0021452Y-022281D01*
G54D15*
G01X0019252Y-021881D02*
G75*
G03X0019252Y-021881I-000100J0000000D01*
G54D13*
G01X0024490Y-021008D02*
G01X0022890Y-021008D01*
G01X0024490Y-022408D02*
G01X0024490Y-021008D01*
G01X0022890Y-022408D02*
G01X0024490Y-022408D01*
G01X0022890Y-021008D02*
G01X0022890Y-022408D01*
G54D16*
G01X0024340Y-022219D02*
G75*
G03X0024340Y-022219I-000039J0000000D01*
G54D17*
G01X0026407Y-012349D02*
G01X0008001Y-012349D01*
G01X0026407Y-010971D02*
G01X0026407Y-012349D01*
G01X0008001Y-010971D02*
G01X0026407Y-010971D01*
G01X0008001Y-012349D02*
G01X0008001Y-010971D01*
G01X0026407Y-025349D02*
G01X0008001Y-025349D01*
G01X0026407Y-023971D02*
G01X0026407Y-025349D01*
G01X0008001Y-023971D02*
G01X0026407Y-023971D01*
G01X0008001Y-025349D02*
G01X0008001Y-023971D01*
G01X0009479Y-022684D02*
G01X0009479Y-017271D01*
G01X0008101Y-022684D02*
G01X0009479Y-022684D01*
G01X0008101Y-017271D02*
G01X0008101Y-022684D01*
G01X0009479Y-017271D02*
G01X0008101Y-017271D01*
G54D11*
G01X0018564Y-013165D02*
G01X0019706Y-013165D01*
G01X0018564Y-013165D02*
G01X0018564Y-013755D01*
G01X0019706Y-013165D02*
G01X0019706Y-013755D01*
G01X0018564Y-013755D02*
G01X0019706Y-013755D01*
G54D18*
G01X0024620Y-016474D02*
G01X0025191Y-016474D01*
G01X0025191Y-016474D02*
G01X0025305Y-016512D01*
G01X0025305Y-016512D02*
G01X0025382Y-016589D01*
G01X0025382Y-016589D02*
G01X0025420Y-016703D01*
G01X0025420Y-016703D02*
G01X0025420Y-016779D01*
G01X0024696Y-016131D02*
G01X0024658Y-016093D01*
G01X0024658Y-016093D02*
G01X0024620Y-016017D01*
G01X0024620Y-016017D02*
G01X0024620Y-015827D01*
G01X0024620Y-015827D02*
G01X0024658Y-015750D01*
G01X0024658Y-015750D02*
G01X0024696Y-015712D01*
G01X0024696Y-015712D02*
G01X0024772Y-015674D01*
G01X0024772Y-015674D02*
G01X0024848Y-015674D01*
G01X0024848Y-015674D02*
G01X0024963Y-015712D01*
G01X0024963Y-015712D02*
G01X0025420Y-016169D01*
G01X0025420Y-016169D02*
G01X0025420Y-015674D01*
G54D16*
G01X0024688Y-020578D02*
G01X0024673Y-020593D01*
G01X0024673Y-020593D02*
G01X0024628Y-020608D01*
G01X0024628Y-020608D02*
G01X0024598Y-020608D01*
G01X0024598Y-020608D02*
G01X0024553Y-020593D01*
G01X0024553Y-020593D02*
G01X0024523Y-020563D01*
G01X0024523Y-020563D02*
G01X0024508Y-020533D01*
G01X0024508Y-020533D02*
G01X0024493Y-020473D01*
G01X0024493Y-020473D02*
G01X0024493Y-020428D01*
G01X0024493Y-020428D02*
G01X0024508Y-020368D01*
G01X0024508Y-020368D02*
G01X0024523Y-020338D01*
G01X0024523Y-020338D02*
G01X0024553Y-020308D01*
G01X0024553Y-020308D02*
G01X0024598Y-020293D01*
G01X0024598Y-020293D02*
G01X0024628Y-020293D01*
G01X0024628Y-020293D02*
G01X0024673Y-020308D01*
G01X0024673Y-020308D02*
G01X0024688Y-020323D01*
G01X0024988Y-020608D02*
G01X0024808Y-020608D01*
G01X0024898Y-020608D02*
G01X0024898Y-020293D01*
G01X0024898Y-020293D02*
G01X0024868Y-020338D01*
G01X0024868Y-020338D02*
G01X0024838Y-020368D01*
G01X0024838Y-020368D02*
G01X0024808Y-020383D01*
G01X0022568Y-021722D02*
G01X0022583Y-021737D01*
G01X0022583Y-021737D02*
G01X0022598Y-021782D01*
G01X0022598Y-021782D02*
G01X0022598Y-021812D01*
G01X0022598Y-021812D02*
G01X0022583Y-021857D01*
G01X0022583Y-021857D02*
G01X0022553Y-021887D01*
G01X0022553Y-021887D02*
G01X0022523Y-021902D01*
G01X0022523Y-021902D02*
G01X0022463Y-021917D01*
G01X0022463Y-021917D02*
G01X0022418Y-021917D01*
G01X0022418Y-021917D02*
G01X0022358Y-021902D01*
G01X0022358Y-021902D02*
G01X0022328Y-021887D01*
G01X0022328Y-021887D02*
G01X0022298Y-021857D01*
G01X0022298Y-021857D02*
G01X0022283Y-021812D01*
G01X0022283Y-021812D02*
G01X0022283Y-021782D01*
G01X0022283Y-021782D02*
G01X0022298Y-021737D01*
G01X0022298Y-021737D02*
G01X0022313Y-021722D01*
G01X0022313Y-021602D02*
G01X0022298Y-021587D01*
G01X0022298Y-021587D02*
G01X0022283Y-021557D01*
G01X0022283Y-021557D02*
G01X0022283Y-021482D01*
G01X0022283Y-021482D02*
G01X0022298Y-021452D01*
G01X0022298Y-021452D02*
G01X0022313Y-021437D01*
G01X0022313Y-021437D02*
G01X0022343Y-021422D01*
G01X0022343Y-021422D02*
G01X0022373Y-021422D01*
G01X0022373Y-021422D02*
G01X0022418Y-021437D01*
G01X0022418Y-021437D02*
G01X0022598Y-021617D01*
G01X0022598Y-021617D02*
G01X0022598Y-021422D01*
G01X0016131Y-016769D02*
G01X0016149Y-016788D01*
G01X0016149Y-016788D02*
G01X0016168Y-016844D01*
G01X0016168Y-016844D02*
G01X0016168Y-016882D01*
G01X0016168Y-016882D02*
G01X0016149Y-016938D01*
G01X0016149Y-016938D02*
G01X0016112Y-016976D01*
G01X0016112Y-016976D02*
G01X0016074Y-016994D01*
G01X0016074Y-016994D02*
G01X0015999Y-017013D01*
G01X0015999Y-017013D02*
G01X0015943Y-017013D01*
G01X0015943Y-017013D02*
G01X0015868Y-016994D01*
G01X0015868Y-016994D02*
G01X0015831Y-016976D01*
G01X0015831Y-016976D02*
G01X0015793Y-016938D01*
G01X0015793Y-016938D02*
G01X0015774Y-016882D01*
G01X0015774Y-016882D02*
G01X0015774Y-016844D01*
G01X0015774Y-016844D02*
G01X0015793Y-016788D01*
G01X0015793Y-016788D02*
G01X0015812Y-016769D01*
G01X0015774Y-016638D02*
G01X0015774Y-016394D01*
G01X0015774Y-016394D02*
G01X0015924Y-016526D01*
G01X0015924Y-016526D02*
G01X0015924Y-016469D01*
G01X0015924Y-016469D02*
G01X0015943Y-016432D01*
G01X0015943Y-016432D02*
G01X0015962Y-016413D01*
G01X0015962Y-016413D02*
G01X0015999Y-016394D01*
G01X0015999Y-016394D02*
G01X0016093Y-016394D01*
G01X0016093Y-016394D02*
G01X0016131Y-016413D01*
G01X0016131Y-016413D02*
G01X0016149Y-016432D01*
G01X0016149Y-016432D02*
G01X0016168Y-016469D01*
G01X0016168Y-016469D02*
G01X0016168Y-016582D01*
G01X0016168Y-016582D02*
G01X0016149Y-016619D01*
G01X0016149Y-016619D02*
G01X0016131Y-016638D01*
G01X0011887Y-021348D02*
G01X0011902Y-021363D01*
G01X0011902Y-021363D02*
G01X0011917Y-021408D01*
G01X0011917Y-021408D02*
G01X0011917Y-021438D01*
G01X0011917Y-021438D02*
G01X0011902Y-021483D01*
G01X0011902Y-021483D02*
G01X0011872Y-021513D01*
G01X0011872Y-021513D02*
G01X0011842Y-021528D01*
G01X0011842Y-021528D02*
G01X0011782Y-021543D01*
G01X0011782Y-021543D02*
G01X0011737Y-021543D01*
G01X0011737Y-021543D02*
G01X0011677Y-021528D01*
G01X0011677Y-021528D02*
G01X0011647Y-021513D01*
G01X0011647Y-021513D02*
G01X0011617Y-021483D01*
G01X0011617Y-021483D02*
G01X0011602Y-021438D01*
G01X0011602Y-021438D02*
G01X0011602Y-021408D01*
G01X0011602Y-021408D02*
G01X0011617Y-021363D01*
G01X0011617Y-021363D02*
G01X0011632Y-021348D01*
G01X0011707Y-021078D02*
G01X0011917Y-021078D01*
G01X0011587Y-021153D02*
G01X0011812Y-021228D01*
G01X0011812Y-021228D02*
G01X0011812Y-021033D01*
G01X0020257Y-019533D02*
G01X0020242Y-019548D01*
G01X0020242Y-019548D02*
G01X0020197Y-019563D01*
G01X0020197Y-019563D02*
G01X0020167Y-019563D01*
G01X0020167Y-019563D02*
G01X0020122Y-019548D01*
G01X0020122Y-019548D02*
G01X0020092Y-019518D01*
G01X0020092Y-019518D02*
G01X0020077Y-019488D01*
G01X0020077Y-019488D02*
G01X0020062Y-019428D01*
G01X0020062Y-019428D02*
G01X0020062Y-019383D01*
G01X0020062Y-019383D02*
G01X0020077Y-019323D01*
G01X0020077Y-019323D02*
G01X0020092Y-019293D01*
G01X0020092Y-019293D02*
G01X0020122Y-019263D01*
G01X0020122Y-019263D02*
G01X0020167Y-019248D01*
G01X0020167Y-019248D02*
G01X0020197Y-019248D01*
G01X0020197Y-019248D02*
G01X0020242Y-019263D01*
G01X0020242Y-019263D02*
G01X0020257Y-019278D01*
G01X0020527Y-019248D02*
G01X0020467Y-019248D01*
G01X0020467Y-019248D02*
G01X0020437Y-019263D01*
G01X0020437Y-019263D02*
G01X0020422Y-019278D01*
G01X0020422Y-019278D02*
G01X0020392Y-019323D01*
G01X0020392Y-019323D02*
G01X0020377Y-019383D01*
G01X0020377Y-019383D02*
G01X0020377Y-019503D01*
G01X0020377Y-019503D02*
G01X0020392Y-019533D01*
G01X0020392Y-019533D02*
G01X0020407Y-019548D01*
G01X0020407Y-019548D02*
G01X0020437Y-019563D01*
G01X0020437Y-019563D02*
G01X0020497Y-019563D01*
G01X0020497Y-019563D02*
G01X0020527Y-019548D01*
G01X0020527Y-019548D02*
G01X0020542Y-019533D01*
G01X0020542Y-019533D02*
G01X0020557Y-019503D01*
G01X0020557Y-019503D02*
G01X0020557Y-019428D01*
G01X0020557Y-019428D02*
G01X0020542Y-019398D01*
G01X0020542Y-019398D02*
G01X0020527Y-019383D01*
G01X0020527Y-019383D02*
G01X0020497Y-019368D01*
G01X0020497Y-019368D02*
G01X0020437Y-019368D01*
G01X0020437Y-019368D02*
G01X0020407Y-019383D01*
G01X0020407Y-019383D02*
G01X0020392Y-019398D01*
G01X0020392Y-019398D02*
G01X0020377Y-019428D01*
G01X0015268Y-016727D02*
G01X0015283Y-016742D01*
G01X0015283Y-016742D02*
G01X0015298Y-016787D01*
G01X0015298Y-016787D02*
G01X0015298Y-016817D01*
G01X0015298Y-016817D02*
G01X0015283Y-016862D01*
G01X0015283Y-016862D02*
G01X0015253Y-016892D01*
G01X0015253Y-016892D02*
G01X0015223Y-016907D01*
G01X0015223Y-016907D02*
G01X0015163Y-016922D01*
G01X0015163Y-016922D02*
G01X0015118Y-016922D01*
G01X0015118Y-016922D02*
G01X0015058Y-016907D01*
G01X0015058Y-016907D02*
G01X0015028Y-016892D01*
G01X0015028Y-016892D02*
G01X0014998Y-016862D01*
G01X0014998Y-016862D02*
G01X0014983Y-016817D01*
G01X0014983Y-016817D02*
G01X0014983Y-016787D01*
G01X0014983Y-016787D02*
G01X0014998Y-016742D01*
G01X0014998Y-016742D02*
G01X0015013Y-016727D01*
G01X0014983Y-016622D02*
G01X0014983Y-016412D01*
G01X0014983Y-016412D02*
G01X0015298Y-016547D01*
G01X0020552Y-020242D02*
G01X0020537Y-020257D01*
G01X0020537Y-020257D02*
G01X0020492Y-020272D01*
G01X0020492Y-020272D02*
G01X0020462Y-020272D01*
G01X0020462Y-020272D02*
G01X0020417Y-020257D01*
G01X0020417Y-020257D02*
G01X0020387Y-020227D01*
G01X0020387Y-020227D02*
G01X0020372Y-020197D01*
G01X0020372Y-020197D02*
G01X0020357Y-020137D01*
G01X0020357Y-020137D02*
G01X0020357Y-020092D01*
G01X0020357Y-020092D02*
G01X0020372Y-020032D01*
G01X0020372Y-020032D02*
G01X0020387Y-020002D01*
G01X0020387Y-020002D02*
G01X0020417Y-019972D01*
G01X0020417Y-019972D02*
G01X0020462Y-019957D01*
G01X0020462Y-019957D02*
G01X0020492Y-019957D01*
G01X0020492Y-019957D02*
G01X0020537Y-019972D01*
G01X0020537Y-019972D02*
G01X0020552Y-019987D01*
G01X0020732Y-020092D02*
G01X0020702Y-020077D01*
G01X0020702Y-020077D02*
G01X0020687Y-020062D01*
G01X0020687Y-020062D02*
G01X0020672Y-020032D01*
G01X0020672Y-020032D02*
G01X0020672Y-020017D01*
G01X0020672Y-020017D02*
G01X0020687Y-019987D01*
G01X0020687Y-019987D02*
G01X0020702Y-019972D01*
G01X0020702Y-019972D02*
G01X0020732Y-019957D01*
G01X0020732Y-019957D02*
G01X0020792Y-019957D01*
G01X0020792Y-019957D02*
G01X0020822Y-019972D01*
G01X0020822Y-019972D02*
G01X0020837Y-019987D01*
G01X0020837Y-019987D02*
G01X0020852Y-020017D01*
G01X0020852Y-020017D02*
G01X0020852Y-020032D01*
G01X0020852Y-020032D02*
G01X0020837Y-020062D01*
G01X0020837Y-020062D02*
G01X0020822Y-020077D01*
G01X0020822Y-020077D02*
G01X0020792Y-020092D01*
G01X0020792Y-020092D02*
G01X0020732Y-020092D01*
G01X0020732Y-020092D02*
G01X0020702Y-020107D01*
G01X0020702Y-020107D02*
G01X0020687Y-020122D01*
G01X0020687Y-020122D02*
G01X0020672Y-020152D01*
G01X0020672Y-020152D02*
G01X0020672Y-020212D01*
G01X0020672Y-020212D02*
G01X0020687Y-020242D01*
G01X0020687Y-020242D02*
G01X0020702Y-020257D01*
G01X0020702Y-020257D02*
G01X0020732Y-020272D01*
G01X0020732Y-020272D02*
G01X0020792Y-020272D01*
G01X0020792Y-020272D02*
G01X0020822Y-020257D01*
G01X0020822Y-020257D02*
G01X0020837Y-020242D01*
G01X0020837Y-020242D02*
G01X0020852Y-020212D01*
G01X0020852Y-020212D02*
G01X0020852Y-020152D01*
G01X0020852Y-020152D02*
G01X0020837Y-020122D01*
G01X0020837Y-020122D02*
G01X0020822Y-020107D01*
G01X0020822Y-020107D02*
G01X0020792Y-020092D01*
G01X0019018Y-014538D02*
G01X0019003Y-014553D01*
G01X0019003Y-014553D02*
G01X0018958Y-014568D01*
G01X0018958Y-014568D02*
G01X0018928Y-014568D01*
G01X0018928Y-014568D02*
G01X0018883Y-014553D01*
G01X0018883Y-014553D02*
G01X0018853Y-014523D01*
G01X0018853Y-014523D02*
G01X0018838Y-014493D01*
G01X0018838Y-014493D02*
G01X0018823Y-014433D01*
G01X0018823Y-014433D02*
G01X0018823Y-014388D01*
G01X0018823Y-014388D02*
G01X0018838Y-014328D01*
G01X0018838Y-014328D02*
G01X0018853Y-014298D01*
G01X0018853Y-014298D02*
G01X0018883Y-014268D01*
G01X0018883Y-014268D02*
G01X0018928Y-014253D01*
G01X0018928Y-014253D02*
G01X0018958Y-014253D01*
G01X0018958Y-014253D02*
G01X0019003Y-014268D01*
G01X0019003Y-014268D02*
G01X0019018Y-014283D01*
G01X0019168Y-014568D02*
G01X0019228Y-014568D01*
G01X0019228Y-014568D02*
G01X0019258Y-014553D01*
G01X0019258Y-014553D02*
G01X0019273Y-014538D01*
G01X0019273Y-014538D02*
G01X0019303Y-014493D01*
G01X0019303Y-014493D02*
G01X0019318Y-014433D01*
G01X0019318Y-014433D02*
G01X0019318Y-014313D01*
G01X0019318Y-014313D02*
G01X0019303Y-014283D01*
G01X0019303Y-014283D02*
G01X0019288Y-014268D01*
G01X0019288Y-014268D02*
G01X0019258Y-014253D01*
G01X0019258Y-014253D02*
G01X0019198Y-014253D01*
G01X0019198Y-014253D02*
G01X0019168Y-014268D01*
G01X0019168Y-014268D02*
G01X0019153Y-014283D01*
G01X0019153Y-014283D02*
G01X0019138Y-014313D01*
G01X0019138Y-014313D02*
G01X0019138Y-014388D01*
G01X0019138Y-014388D02*
G01X0019153Y-014418D01*
G01X0019153Y-014418D02*
G01X0019168Y-014433D01*
G01X0019168Y-014433D02*
G01X0019198Y-014448D01*
G01X0019198Y-014448D02*
G01X0019258Y-014448D01*
G01X0019258Y-014448D02*
G01X0019288Y-014433D01*
G01X0019288Y-014433D02*
G01X0019303Y-014418D01*
G01X0019303Y-014418D02*
G01X0019318Y-014388D01*
G01X0018468Y-019988D02*
G01X0018453Y-020003D01*
G01X0018453Y-020003D02*
G01X0018408Y-020018D01*
G01X0018408Y-020018D02*
G01X0018378Y-020018D01*
G01X0018378Y-020018D02*
G01X0018333Y-020003D01*
G01X0018333Y-020003D02*
G01X0018303Y-019973D01*
G01X0018303Y-019973D02*
G01X0018288Y-019943D01*
G01X0018288Y-019943D02*
G01X0018273Y-019883D01*
G01X0018273Y-019883D02*
G01X0018273Y-019838D01*
G01X0018273Y-019838D02*
G01X0018288Y-019778D01*
G01X0018288Y-019778D02*
G01X0018303Y-019748D01*
G01X0018303Y-019748D02*
G01X0018333Y-019718D01*
G01X0018333Y-019718D02*
G01X0018378Y-019703D01*
G01X0018378Y-019703D02*
G01X0018408Y-019703D01*
G01X0018408Y-019703D02*
G01X0018453Y-019718D01*
G01X0018453Y-019718D02*
G01X0018468Y-019733D01*
G01X0018768Y-020018D02*
G01X0018588Y-020018D01*
G01X0018678Y-020018D02*
G01X0018678Y-019703D01*
G01X0018678Y-019703D02*
G01X0018648Y-019748D01*
G01X0018648Y-019748D02*
G01X0018618Y-019778D01*
G01X0018618Y-019778D02*
G01X0018588Y-019793D01*
G01X0018963Y-019703D02*
G01X0018993Y-019703D01*
G01X0018993Y-019703D02*
G01X0019023Y-019718D01*
G01X0019023Y-019718D02*
G01X0019038Y-019733D01*
G01X0019038Y-019733D02*
G01X0019053Y-019763D01*
G01X0019053Y-019763D02*
G01X0019068Y-019823D01*
G01X0019068Y-019823D02*
G01X0019068Y-019898D01*
G01X0019068Y-019898D02*
G01X0019053Y-019958D01*
G01X0019053Y-019958D02*
G01X0019038Y-019988D01*
G01X0019038Y-019988D02*
G01X0019023Y-020003D01*
G01X0019023Y-020003D02*
G01X0018993Y-020018D01*
G01X0018993Y-020018D02*
G01X0018963Y-020018D01*
G01X0018963Y-020018D02*
G01X0018933Y-020003D01*
G01X0018933Y-020003D02*
G01X0018918Y-019988D01*
G01X0018918Y-019988D02*
G01X0018903Y-019958D01*
G01X0018903Y-019958D02*
G01X0018888Y-019898D01*
G01X0018888Y-019898D02*
G01X0018888Y-019823D01*
G01X0018888Y-019823D02*
G01X0018903Y-019763D01*
G01X0018903Y-019763D02*
G01X0018918Y-019733D01*
G01X0018918Y-019733D02*
G01X0018933Y-019718D01*
G01X0018933Y-019718D02*
G01X0018963Y-019703D01*
G01X0021018Y-015438D02*
G01X0021003Y-015453D01*
G01X0021003Y-015453D02*
G01X0020958Y-015468D01*
G01X0020958Y-015468D02*
G01X0020928Y-015468D01*
G01X0020928Y-015468D02*
G01X0020883Y-015453D01*
G01X0020883Y-015453D02*
G01X0020853Y-015423D01*
G01X0020853Y-015423D02*
G01X0020838Y-015393D01*
G01X0020838Y-015393D02*
G01X0020823Y-015333D01*
G01X0020823Y-015333D02*
G01X0020823Y-015288D01*
G01X0020823Y-015288D02*
G01X0020838Y-015228D01*
G01X0020838Y-015228D02*
G01X0020853Y-015198D01*
G01X0020853Y-015198D02*
G01X0020883Y-015168D01*
G01X0020883Y-015168D02*
G01X0020928Y-015153D01*
G01X0020928Y-015153D02*
G01X0020958Y-015153D01*
G01X0020958Y-015153D02*
G01X0021003Y-015168D01*
G01X0021003Y-015168D02*
G01X0021018Y-015183D01*
G01X0021318Y-015468D02*
G01X0021138Y-015468D01*
G01X0021228Y-015468D02*
G01X0021228Y-015153D01*
G01X0021228Y-015153D02*
G01X0021198Y-015198D01*
G01X0021198Y-015198D02*
G01X0021168Y-015228D01*
G01X0021168Y-015228D02*
G01X0021138Y-015243D01*
G01X0021618Y-015468D02*
G01X0021438Y-015468D01*
G01X0021528Y-015468D02*
G01X0021528Y-015153D01*
G01X0021528Y-015153D02*
G01X0021498Y-015198D01*
G01X0021498Y-015198D02*
G01X0021468Y-015228D01*
G01X0021468Y-015228D02*
G01X0021438Y-015243D01*
G01X0023537Y-017333D02*
G01X0023222Y-017333D01*
G01X0023222Y-017333D02*
G01X0023222Y-017258D01*
G01X0023222Y-017258D02*
G01X0023237Y-017213D01*
G01X0023237Y-017213D02*
G01X0023267Y-017183D01*
G01X0023267Y-017183D02*
G01X0023297Y-017168D01*
G01X0023297Y-017168D02*
G01X0023357Y-017153D01*
G01X0023357Y-017153D02*
G01X0023402Y-017153D01*
G01X0023402Y-017153D02*
G01X0023462Y-017168D01*
G01X0023462Y-017168D02*
G01X0023492Y-017183D01*
G01X0023492Y-017183D02*
G01X0023522Y-017213D01*
G01X0023522Y-017213D02*
G01X0023537Y-017258D01*
G01X0023537Y-017258D02*
G01X0023537Y-017333D01*
G01X0023537Y-016853D02*
G01X0023537Y-017033D01*
G01X0023537Y-016943D02*
G01X0023222Y-016943D01*
G01X0023222Y-016943D02*
G01X0023267Y-016973D01*
G01X0023267Y-016973D02*
G01X0023297Y-017003D01*
G01X0023297Y-017003D02*
G01X0023312Y-017033D01*
G54D18*
G01X0023427Y-019532D02*
G01X0023427Y-018732D01*
G01X0023427Y-018732D02*
G01X0023617Y-018732D01*
G01X0023617Y-018732D02*
G01X0023731Y-018770D01*
G01X0023731Y-018770D02*
G01X0023807Y-018846D01*
G01X0023807Y-018846D02*
G01X0023846Y-018922D01*
G01X0023846Y-018922D02*
G01X0023884Y-019075D01*
G01X0023884Y-019075D02*
G01X0023884Y-019189D01*
G01X0023884Y-019189D02*
G01X0023846Y-019341D01*
G01X0023846Y-019341D02*
G01X0023807Y-019418D01*
G01X0023807Y-019418D02*
G01X0023731Y-019494D01*
G01X0023731Y-019494D02*
G01X0023617Y-019532D01*
G01X0023617Y-019532D02*
G01X0023427Y-019532D01*
G01X0024188Y-018808D02*
G01X0024227Y-018770D01*
G01X0024227Y-018770D02*
G01X0024303Y-018732D01*
G01X0024303Y-018732D02*
G01X0024493Y-018732D01*
G01X0024493Y-018732D02*
G01X0024569Y-018770D01*
G01X0024569Y-018770D02*
G01X0024607Y-018808D01*
G01X0024607Y-018808D02*
G01X0024646Y-018884D01*
G01X0024646Y-018884D02*
G01X0024646Y-018960D01*
G01X0024646Y-018960D02*
G01X0024607Y-019075D01*
G01X0024607Y-019075D02*
G01X0024150Y-019532D01*
G01X0024150Y-019532D02*
G01X0024646Y-019532D01*
G54D16*
G01X0023568Y-015952D02*
G01X0023253Y-015952D01*
G01X0023253Y-015952D02*
G01X0023253Y-015877D01*
G01X0023253Y-015877D02*
G01X0023268Y-015832D01*
G01X0023268Y-015832D02*
G01X0023298Y-015802D01*
G01X0023298Y-015802D02*
G01X0023328Y-015787D01*
G01X0023328Y-015787D02*
G01X0023388Y-015772D01*
G01X0023388Y-015772D02*
G01X0023433Y-015772D01*
G01X0023433Y-015772D02*
G01X0023493Y-015787D01*
G01X0023493Y-015787D02*
G01X0023523Y-015802D01*
G01X0023523Y-015802D02*
G01X0023553Y-015832D01*
G01X0023553Y-015832D02*
G01X0023568Y-015877D01*
G01X0023568Y-015877D02*
G01X0023568Y-015952D01*
G01X0023253Y-015667D02*
G01X0023253Y-015472D01*
G01X0023253Y-015472D02*
G01X0023373Y-015577D01*
G01X0023373Y-015577D02*
G01X0023373Y-015532D01*
G01X0023373Y-015532D02*
G01X0023388Y-015502D01*
G01X0023388Y-015502D02*
G01X0023403Y-015487D01*
G01X0023403Y-015487D02*
G01X0023433Y-015472D01*
G01X0023433Y-015472D02*
G01X0023508Y-015472D01*
G01X0023508Y-015472D02*
G01X0023538Y-015487D01*
G01X0023538Y-015487D02*
G01X0023553Y-015502D01*
G01X0023553Y-015502D02*
G01X0023568Y-015532D01*
G01X0023568Y-015532D02*
G01X0023568Y-015622D01*
G01X0023568Y-015622D02*
G01X0023553Y-015652D01*
G01X0023553Y-015652D02*
G01X0023538Y-015667D01*
G01X0022768Y-015359D02*
G01X0022768Y-015547D01*
G01X0022768Y-015547D02*
G01X0022374Y-015547D01*
G01X0022768Y-015022D02*
G01X0022768Y-015247D01*
G01X0022768Y-015134D02*
G01X0022374Y-015134D01*
G01X0022374Y-015134D02*
G01X0022431Y-015172D01*
G01X0022431Y-015172D02*
G01X0022468Y-015209D01*
G01X0022468Y-015209D02*
G01X0022487Y-015247D01*
G01X0012118Y-017338D02*
G01X0011931Y-017338D01*
G01X0011931Y-017338D02*
G01X0011931Y-016944D01*
G01X0012231Y-016982D02*
G01X0012249Y-016963D01*
G01X0012249Y-016963D02*
G01X0012287Y-016944D01*
G01X0012287Y-016944D02*
G01X0012381Y-016944D01*
G01X0012381Y-016944D02*
G01X0012418Y-016963D01*
G01X0012418Y-016963D02*
G01X0012437Y-016982D01*
G01X0012437Y-016982D02*
G01X0012456Y-017019D01*
G01X0012456Y-017019D02*
G01X0012456Y-017057D01*
G01X0012456Y-017057D02*
G01X0012437Y-017113D01*
G01X0012437Y-017113D02*
G01X0012212Y-017338D01*
G01X0012212Y-017338D02*
G01X0012456Y-017338D01*
G01X0016168Y-018369D02*
G01X0016168Y-018557D01*
G01X0016168Y-018557D02*
G01X0015774Y-018557D01*
G01X0015774Y-018276D02*
G01X0015774Y-018032D01*
G01X0015774Y-018032D02*
G01X0015924Y-018163D01*
G01X0015924Y-018163D02*
G01X0015924Y-018107D01*
G01X0015924Y-018107D02*
G01X0015943Y-018069D01*
G01X0015943Y-018069D02*
G01X0015962Y-018051D01*
G01X0015962Y-018051D02*
G01X0015999Y-018032D01*
G01X0015999Y-018032D02*
G01X0016093Y-018032D01*
G01X0016093Y-018032D02*
G01X0016131Y-018051D01*
G01X0016131Y-018051D02*
G01X0016149Y-018069D01*
G01X0016149Y-018069D02*
G01X0016168Y-018107D01*
G01X0016168Y-018107D02*
G01X0016168Y-018219D01*
G01X0016168Y-018219D02*
G01X0016149Y-018257D01*
G01X0016149Y-018257D02*
G01X0016131Y-018276D01*
G01X0011117Y-018748D02*
G01X0010967Y-018853D01*
G01X0011117Y-018928D02*
G01X0010802Y-018928D01*
G01X0010802Y-018928D02*
G01X0010802Y-018808D01*
G01X0010802Y-018808D02*
G01X0010817Y-018778D01*
G01X0010817Y-018778D02*
G01X0010832Y-018763D01*
G01X0010832Y-018763D02*
G01X0010862Y-018748D01*
G01X0010862Y-018748D02*
G01X0010907Y-018748D01*
G01X0010907Y-018748D02*
G01X0010937Y-018763D01*
G01X0010937Y-018763D02*
G01X0010952Y-018778D01*
G01X0010952Y-018778D02*
G01X0010967Y-018808D01*
G01X0010967Y-018808D02*
G01X0010967Y-018928D01*
G01X0011117Y-018448D02*
G01X0011117Y-018628D01*
G01X0011117Y-018538D02*
G01X0010802Y-018538D01*
G01X0010802Y-018538D02*
G01X0010847Y-018568D01*
G01X0010847Y-018568D02*
G01X0010877Y-018598D01*
G01X0010877Y-018598D02*
G01X0010892Y-018628D01*
G01X0011917Y-018743D02*
G01X0011767Y-018848D01*
G01X0011917Y-018923D02*
G01X0011602Y-018923D01*
G01X0011602Y-018923D02*
G01X0011602Y-018803D01*
G01X0011602Y-018803D02*
G01X0011617Y-018773D01*
G01X0011617Y-018773D02*
G01X0011632Y-018758D01*
G01X0011632Y-018758D02*
G01X0011662Y-018743D01*
G01X0011662Y-018743D02*
G01X0011707Y-018743D01*
G01X0011707Y-018743D02*
G01X0011737Y-018758D01*
G01X0011737Y-018758D02*
G01X0011752Y-018773D01*
G01X0011752Y-018773D02*
G01X0011767Y-018803D01*
G01X0011767Y-018803D02*
G01X0011767Y-018923D01*
G01X0011632Y-018623D02*
G01X0011617Y-018608D01*
G01X0011617Y-018608D02*
G01X0011602Y-018578D01*
G01X0011602Y-018578D02*
G01X0011602Y-018503D01*
G01X0011602Y-018503D02*
G01X0011617Y-018473D01*
G01X0011617Y-018473D02*
G01X0011632Y-018458D01*
G01X0011632Y-018458D02*
G01X0011662Y-018443D01*
G01X0011662Y-018443D02*
G01X0011692Y-018443D01*
G01X0011692Y-018443D02*
G01X0011737Y-018458D01*
G01X0011737Y-018458D02*
G01X0011917Y-018638D01*
G01X0011917Y-018638D02*
G01X0011917Y-018443D01*
G01X0012078Y-020018D02*
G01X0011973Y-019868D01*
G01X0011898Y-020018D02*
G01X0011898Y-019703D01*
G01X0011898Y-019703D02*
G01X0012018Y-019703D01*
G01X0012018Y-019703D02*
G01X0012048Y-019718D01*
G01X0012048Y-019718D02*
G01X0012063Y-019733D01*
G01X0012063Y-019733D02*
G01X0012078Y-019763D01*
G01X0012078Y-019763D02*
G01X0012078Y-019808D01*
G01X0012078Y-019808D02*
G01X0012063Y-019838D01*
G01X0012063Y-019838D02*
G01X0012048Y-019853D01*
G01X0012048Y-019853D02*
G01X0012018Y-019868D01*
G01X0012018Y-019868D02*
G01X0011898Y-019868D01*
G01X0012183Y-019703D02*
G01X0012378Y-019703D01*
G01X0012378Y-019703D02*
G01X0012273Y-019823D01*
G01X0012273Y-019823D02*
G01X0012318Y-019823D01*
G01X0012318Y-019823D02*
G01X0012348Y-019838D01*
G01X0012348Y-019838D02*
G01X0012363Y-019853D01*
G01X0012363Y-019853D02*
G01X0012378Y-019883D01*
G01X0012378Y-019883D02*
G01X0012378Y-019958D01*
G01X0012378Y-019958D02*
G01X0012363Y-019988D01*
G01X0012363Y-019988D02*
G01X0012348Y-020003D01*
G01X0012348Y-020003D02*
G01X0012318Y-020018D01*
G01X0012318Y-020018D02*
G01X0012228Y-020018D01*
G01X0012228Y-020018D02*
G01X0012198Y-020003D01*
G01X0012198Y-020003D02*
G01X0012183Y-019988D01*
G01X0013949Y-020760D02*
G01X0013968Y-020704D01*
G01X0013968Y-020704D02*
G01X0013968Y-020610D01*
G01X0013968Y-020610D02*
G01X0013949Y-020572D01*
G01X0013949Y-020572D02*
G01X0013931Y-020554D01*
G01X0013931Y-020554D02*
G01X0013893Y-020535D01*
G01X0013893Y-020535D02*
G01X0013856Y-020535D01*
G01X0013856Y-020535D02*
G01X0013818Y-020554D01*
G01X0013818Y-020554D02*
G01X0013799Y-020572D01*
G01X0013799Y-020572D02*
G01X0013781Y-020610D01*
G01X0013781Y-020610D02*
G01X0013762Y-020685D01*
G01X0013762Y-020685D02*
G01X0013743Y-020722D01*
G01X0013743Y-020722D02*
G01X0013724Y-020741D01*
G01X0013724Y-020741D02*
G01X0013687Y-020760D01*
G01X0013687Y-020760D02*
G01X0013649Y-020760D01*
G01X0013649Y-020760D02*
G01X0013612Y-020741D01*
G01X0013612Y-020741D02*
G01X0013593Y-020722D01*
G01X0013593Y-020722D02*
G01X0013574Y-020685D01*
G01X0013574Y-020685D02*
G01X0013574Y-020591D01*
G01X0013574Y-020591D02*
G01X0013593Y-020535D01*
G01X0013968Y-020160D02*
G01X0013968Y-020385D01*
G01X0013968Y-020273D02*
G01X0013574Y-020273D01*
G01X0013574Y-020273D02*
G01X0013631Y-020310D01*
G01X0013631Y-020310D02*
G01X0013668Y-020348D01*
G01X0013668Y-020348D02*
G01X0013687Y-020385D01*
G01X0018757Y-016712D02*
G01X0018757Y-017031D01*
G01X0018757Y-017031D02*
G01X0018776Y-017068D01*
G01X0018776Y-017068D02*
G01X0018795Y-017087D01*
G01X0018795Y-017087D02*
G01X0018832Y-017106D01*
G01X0018832Y-017106D02*
G01X0018907Y-017106D01*
G01X0018907Y-017106D02*
G01X0018945Y-017087D01*
G01X0018945Y-017087D02*
G01X0018964Y-017068D01*
G01X0018964Y-017068D02*
G01X0018982Y-017031D01*
G01X0018982Y-017031D02*
G01X0018982Y-016712D01*
G01X0019151Y-016749D02*
G01X0019170Y-016731D01*
G01X0019170Y-016731D02*
G01X0019207Y-016712D01*
G01X0019207Y-016712D02*
G01X0019301Y-016712D01*
G01X0019301Y-016712D02*
G01X0019339Y-016731D01*
G01X0019339Y-016731D02*
G01X0019357Y-016749D01*
G01X0019357Y-016749D02*
G01X0019376Y-016787D01*
G01X0019376Y-016787D02*
G01X0019376Y-016824D01*
G01X0019376Y-016824D02*
G01X0019357Y-016881D01*
G01X0019357Y-016881D02*
G01X0019132Y-017106D01*
G01X0019132Y-017106D02*
G01X0019376Y-017106D01*
G54D18*
G01X0019405Y-021043D02*
G01X0019938Y-021843D01*
G01X0019938Y-021043D02*
G01X0019405Y-021843D01*
G01X0020662Y-021843D02*
G01X0020205Y-021843D01*
G01X0020433Y-021843D02*
G01X0020433Y-021043D01*
G01X0020433Y-021043D02*
G01X0020357Y-021157D01*
G01X0020357Y-021157D02*
G01X0020281Y-021233D01*
G01X0020281Y-021233D02*
G01X0020205Y-021271D01*
G54D16*
G01X0023496Y-021978D02*
G01X0023783Y-021978D01*
G01X0023783Y-021978D02*
G01X0023817Y-021961D01*
G01X0023817Y-021961D02*
G01X0023833Y-021944D01*
G01X0023833Y-021944D02*
G01X0023850Y-021910D01*
G01X0023850Y-021910D02*
G01X0023850Y-021843D01*
G01X0023850Y-021843D02*
G01X0023833Y-021809D01*
G01X0023833Y-021809D02*
G01X0023817Y-021792D01*
G01X0023817Y-021792D02*
G01X0023783Y-021775D01*
G01X0023783Y-021775D02*
G01X0023496Y-021775D01*
G01X0023850Y-021421D02*
G01X0023850Y-021623D01*
G01X0023850Y-021522D02*
G01X0023496Y-021522D01*
G01X0023496Y-021522D02*
G01X0023547Y-021556D01*
G01X0023547Y-021556D02*
G01X0023580Y-021589D01*
G01X0023580Y-021589D02*
G01X0023597Y-021623D01*
G54D18*
G01X0016789Y-011222D02*
G01X0016789Y-011793D01*
G01X0016789Y-011793D02*
G01X0016751Y-011908D01*
G01X0016751Y-011908D02*
G01X0016675Y-011984D01*
G01X0016675Y-011984D02*
G01X0016561Y-012022D01*
G01X0016561Y-012022D02*
G01X0016485Y-012022D01*
G01X0017094Y-011222D02*
G01X0017589Y-011222D01*
G01X0017589Y-011222D02*
G01X0017323Y-011527D01*
G01X0017323Y-011527D02*
G01X0017437Y-011527D01*
G01X0017437Y-011527D02*
G01X0017513Y-011565D01*
G01X0017513Y-011565D02*
G01X0017551Y-011603D01*
G01X0017551Y-011603D02*
G01X0017589Y-011679D01*
G01X0017589Y-011679D02*
G01X0017589Y-011870D01*
G01X0017589Y-011870D02*
G01X0017551Y-011946D01*
G01X0017551Y-011946D02*
G01X0017513Y-011984D01*
G01X0017513Y-011984D02*
G01X0017437Y-012022D01*
G01X0017437Y-012022D02*
G01X0017209Y-012022D01*
G01X0017209Y-012022D02*
G01X0017132Y-011984D01*
G01X0017132Y-011984D02*
G01X0017094Y-011946D01*
G01X0016789Y-024222D02*
G01X0016789Y-024793D01*
G01X0016789Y-024793D02*
G01X0016751Y-024908D01*
G01X0016751Y-024908D02*
G01X0016675Y-024984D01*
G01X0016675Y-024984D02*
G01X0016561Y-025022D01*
G01X0016561Y-025022D02*
G01X0016485Y-025022D01*
G01X0017513Y-024489D02*
G01X0017513Y-025022D01*
G01X0017323Y-024184D02*
G01X0017132Y-024755D01*
G01X0017132Y-024755D02*
G01X0017628Y-024755D01*
G01X0008352Y-020294D02*
G01X0008923Y-020294D01*
G01X0008923Y-020294D02*
G01X0009038Y-020332D01*
G01X0009038Y-020332D02*
G01X0009114Y-020408D01*
G01X0009114Y-020408D02*
G01X0009152Y-020522D01*
G01X0009152Y-020522D02*
G01X0009152Y-020598D01*
G01X0009152Y-019494D02*
G01X0009152Y-019951D01*
G01X0009152Y-019722D02*
G01X0008352Y-019722D01*
G01X0008352Y-019722D02*
G01X0008466Y-019798D01*
G01X0008466Y-019798D02*
G01X0008542Y-019875D01*
G01X0008542Y-019875D02*
G01X0008580Y-019951D01*
G54D16*
G01X0019118Y-013588D02*
G01X0019103Y-013603D01*
G01X0019103Y-013603D02*
G01X0019058Y-013618D01*
G01X0019058Y-013618D02*
G01X0019028Y-013618D01*
G01X0019028Y-013618D02*
G01X0018983Y-013603D01*
G01X0018983Y-013603D02*
G01X0018953Y-013573D01*
G01X0018953Y-013573D02*
G01X0018938Y-013543D01*
G01X0018938Y-013543D02*
G01X0018923Y-013483D01*
G01X0018923Y-013483D02*
G01X0018923Y-013438D01*
G01X0018923Y-013438D02*
G01X0018938Y-013378D01*
G01X0018938Y-013378D02*
G01X0018953Y-013348D01*
G01X0018953Y-013348D02*
G01X0018983Y-013318D01*
G01X0018983Y-013318D02*
G01X0019028Y-013303D01*
G01X0019028Y-013303D02*
G01X0019058Y-013303D01*
G01X0019058Y-013303D02*
G01X0019103Y-013318D01*
G01X0019103Y-013318D02*
G01X0019118Y-013333D01*
G01X0019403Y-013303D02*
G01X0019253Y-013303D01*
G01X0019253Y-013303D02*
G01X0019238Y-013453D01*
G01X0019238Y-013453D02*
G01X0019253Y-013438D01*
G01X0019253Y-013438D02*
G01X0019283Y-013423D01*
G01X0019283Y-013423D02*
G01X0019358Y-013423D01*
G01X0019358Y-013423D02*
G01X0019388Y-013438D01*
G01X0019388Y-013438D02*
G01X0019403Y-013453D01*
G01X0019403Y-013453D02*
G01X0019418Y-013483D01*
G01X0019418Y-013483D02*
G01X0019418Y-013558D01*
G01X0019418Y-013558D02*
G01X0019403Y-013588D01*
G01X0019403Y-013588D02*
G01X0019388Y-013603D01*
G01X0019388Y-013603D02*
G01X0019358Y-013618D01*
G01X0019358Y-013618D02*
G01X0019283Y-013618D01*
G01X0019283Y-013618D02*
G01X0019253Y-013603D01*
G01X0019253Y-013603D02*
G01X0019238Y-013588D01*
G01X0000000Y0000000D02*
G54D19*
G01X0008490Y-010910D02*
G75*
G03X0007740Y-011660I0000000J-000750D01*
G01X0007740Y-024660D02*
G75*
G03X0008490Y-025410I0000750J0000000D01*
G01X0025690Y-025410D02*
G75*
G03X0026690Y-024410I0000000J0001000D01*
G01X0026690Y-011910D02*
G75*
G03X0025690Y-010910I-001000J0000000D01*
G01X0025690Y-010910D02*
G01X0008490Y-010910D01*
G01X0026690Y-024410D02*
G01X0026690Y-011910D01*
G01X0008490Y-025410D02*
G01X0025690Y-025410D01*
G01X0007740Y-011660D02*
G01X0007740Y-024660D01*
M02*
