%TF.GenerationSoftware,KiCad,Pcbnew,4.0.5-e0-6337~49~ubuntu16.04.1*%
%TF.CreationDate,2017-08-14T13:51:41-07:00*%
%TF.ProjectId,atsamd21g18-breakout,617473616D6432316731382D62726561,1.0*%
%TF.FileFunction,Copper,L1,Top,Signal*%
%FSLAX46Y46*%
G04 Gerber Fmt 4.6, Leading zero omitted, Abs format (unit mm)*
G04 Created by KiCad (PCBNEW 4.0.5-e0-6337~49~ubuntu16.04.1) date Mon Aug 14 13:51:41 2017*
%MOMM*%
%LPD*%
G01*
G04 APERTURE LIST*
%ADD10C,0.350000*%
%ADD11R,1.350000X0.400000*%
%ADD12R,1.400000X1.600000*%
%ADD13C,1.200000*%
%ADD14R,1.900000X1.900000*%
%ADD15R,0.800000X0.750000*%
%ADD16R,0.750000X0.800000*%
%ADD17R,1.250000X1.000000*%
%ADD18R,2.499360X1.800860*%
%ADD19R,1.000000X1.250000*%
%ADD20R,1.700000X0.800000*%
%ADD21R,1.300000X0.250000*%
%ADD22R,0.250000X1.300000*%
%ADD23R,1.905000X1.397000*%
%ADD24R,1.000000X0.600000*%
%ADD25R,1.727200X2.032000*%
%ADD26O,1.727200X2.032000*%
%ADD27R,2.032000X1.727200*%
%ADD28O,2.032000X1.727200*%
%ADD29C,0.685800*%
%ADD30C,0.508000*%
%ADD31C,0.254000*%
%ADD32C,0.762000*%
%ADD33C,0.330200*%
%ADD34C,0.330200*%
%ADD35C,0.350000*%
G04 APERTURE END LIST*
D10*
D11*
X62222000Y-42467200D03*
X62222000Y-41817200D03*
X62222000Y-41168100D03*
X62222000Y-40517200D03*
X62222000Y-39867200D03*
D12*
X62447000Y-44367200D03*
D13*
X64897000Y-44717200D03*
D14*
X64897000Y-42367200D03*
X64897000Y-39967200D03*
D12*
X62447000Y-37967200D03*
D13*
X64897000Y-37617200D03*
D15*
X62000000Y-51943000D03*
X63500000Y-51943000D03*
D16*
X56997600Y-55881400D03*
X56997600Y-54381400D03*
D17*
X40614600Y-43427400D03*
X40614600Y-41427400D03*
D16*
X29946600Y-53250400D03*
X29946600Y-54750400D03*
D15*
X50746600Y-49288200D03*
X52246600Y-49288200D03*
D16*
X38455600Y-43193400D03*
X38455600Y-41693400D03*
D15*
X51496600Y-51088200D03*
X52996600Y-51088200D03*
X47599600Y-36601400D03*
X49099600Y-36601400D03*
X46583600Y-50444400D03*
X48083600Y-50444400D03*
X53060600Y-38887400D03*
X54560600Y-38887400D03*
D16*
X59461400Y-42595800D03*
X59461400Y-44095800D03*
D18*
X63002160Y-48691800D03*
X59004200Y-48691800D03*
D16*
X59461400Y-40767000D03*
X59461400Y-39267000D03*
D17*
X57378600Y-37846000D03*
X57378600Y-39846000D03*
D19*
X29946600Y-43586400D03*
X31946600Y-43586400D03*
D17*
X40614600Y-45491400D03*
X40614600Y-47491400D03*
D16*
X27914600Y-46646400D03*
X27914600Y-48146400D03*
X29946600Y-46634400D03*
X29946600Y-48134400D03*
D15*
X29970600Y-50444400D03*
X31470600Y-50444400D03*
D20*
X35026600Y-53590400D03*
X35026600Y-50190400D03*
D21*
X44055600Y-40245600D03*
X44055600Y-40745600D03*
X44055600Y-41245600D03*
X44055600Y-41745600D03*
X44055600Y-42245600D03*
X44055600Y-42745600D03*
X44055600Y-43245600D03*
X44055600Y-43745600D03*
X44055600Y-44245600D03*
X44055600Y-44745600D03*
X44055600Y-45245600D03*
X44055600Y-45745600D03*
D22*
X45655600Y-47345600D03*
X46155600Y-47345600D03*
X46655600Y-47345600D03*
X47155600Y-47345600D03*
X47655600Y-47345600D03*
X48155600Y-47345600D03*
X48655600Y-47345600D03*
X49155600Y-47345600D03*
X49655600Y-47345600D03*
X50155600Y-47345600D03*
X50655600Y-47345600D03*
X51155600Y-47345600D03*
D21*
X52755600Y-45745600D03*
X52755600Y-45245600D03*
X52755600Y-44745600D03*
X52755600Y-44245600D03*
X52755600Y-43745600D03*
X52755600Y-43245600D03*
X52755600Y-42745600D03*
X52755600Y-42245600D03*
X52755600Y-41745600D03*
X52755600Y-41245600D03*
X52755600Y-40745600D03*
X52755600Y-40245600D03*
D22*
X51155600Y-38645600D03*
X50655600Y-38645600D03*
X50155600Y-38645600D03*
X49655600Y-38645600D03*
X49155600Y-38645600D03*
X48655600Y-38645600D03*
X48155600Y-38645600D03*
X47655600Y-38645600D03*
X47155600Y-38645600D03*
X46655600Y-38645600D03*
X46155600Y-38645600D03*
X45655600Y-38645600D03*
D23*
X53117000Y-53088200D03*
X48646600Y-53088200D03*
X53117000Y-55577400D03*
X48646600Y-55577400D03*
D24*
X61372600Y-56127200D03*
X61372600Y-55137200D03*
X61372600Y-54147200D03*
X58972600Y-54147200D03*
X58972600Y-56127200D03*
D25*
X22072600Y-29616400D03*
D26*
X24612600Y-29616400D03*
X27152600Y-29616400D03*
X29692600Y-29616400D03*
X32232600Y-29616400D03*
X34772600Y-29616400D03*
X37312600Y-29616400D03*
X39852600Y-29616400D03*
X42392600Y-29616400D03*
X44932600Y-29616400D03*
X47472600Y-29616400D03*
X50012600Y-29616400D03*
X52552600Y-29616400D03*
X55092600Y-29616400D03*
X57632600Y-29616400D03*
X60172600Y-29616400D03*
X62712600Y-29616400D03*
X65252600Y-29616400D03*
D25*
X22072600Y-62636400D03*
D26*
X24612600Y-62636400D03*
X27152600Y-62636400D03*
X29692600Y-62636400D03*
X32232600Y-62636400D03*
X34772600Y-62636400D03*
X37312600Y-62636400D03*
X39852600Y-62636400D03*
X42392600Y-62636400D03*
X44932600Y-62636400D03*
X47472600Y-62636400D03*
X50012600Y-62636400D03*
X52552600Y-62636400D03*
X55092600Y-62636400D03*
X57632600Y-62636400D03*
X60172600Y-62636400D03*
X62712600Y-62636400D03*
X65252600Y-62636400D03*
D27*
X22326600Y-45618400D03*
D28*
X22326600Y-48158400D03*
X22326600Y-50698400D03*
X22326600Y-53238400D03*
X22326600Y-55778400D03*
D15*
X47853600Y-34188400D03*
X49353600Y-34188400D03*
D29*
X31978600Y-41554400D03*
X21056600Y-41554400D03*
X48996600Y-42824400D03*
X50647600Y-44221400D03*
X51155600Y-34315400D03*
X28422600Y-43586400D03*
X49250600Y-59080400D03*
X46202600Y-60604400D03*
X30962600Y-54762400D03*
X33248600Y-53746400D03*
X63637194Y-54670994D03*
X52806600Y-47396400D03*
X58625566Y-43815023D03*
X50647600Y-41371983D03*
X54584600Y-37490400D03*
X49504600Y-35458400D03*
X54584600Y-40157400D03*
X48711724Y-40029268D03*
X63474600Y-50698400D03*
X58581200Y-39522400D03*
X45275490Y-46147042D03*
X42619601Y-46365399D03*
X41614968Y-41419439D03*
X31978600Y-45364400D03*
X39090600Y-41427400D03*
X31978600Y-47142400D03*
X49600139Y-40061861D03*
X46629209Y-44375530D03*
X47472600Y-44094400D03*
X35026600Y-45364400D03*
X42138600Y-45364400D03*
X45110398Y-44737175D03*
X35026600Y-44348400D03*
X35026600Y-43332400D03*
X42392600Y-43840400D03*
X45948600Y-35712400D03*
X45694600Y-40030400D03*
X42628345Y-54240047D03*
X48339922Y-45831155D03*
X43327209Y-54789530D03*
X49504600Y-44856400D03*
X44170600Y-54508400D03*
X50266600Y-45364400D03*
X45013991Y-54789530D03*
X50774600Y-46126400D03*
X53849185Y-46892309D03*
X54737839Y-46867078D03*
X55619729Y-46979386D03*
X56447555Y-46655277D03*
X56713941Y-45788399D03*
X57651011Y-45826733D03*
X57574781Y-44712353D03*
X59133282Y-45318932D03*
X45509570Y-43547054D03*
X36042600Y-43078400D03*
X37058600Y-40792400D03*
X45440600Y-42570400D03*
D30*
X62044949Y-53474851D02*
X62000000Y-53519800D01*
X63879203Y-53474851D02*
X62044949Y-53474851D01*
X64528702Y-55146450D02*
X64528702Y-54124350D01*
X64528702Y-54124350D02*
X63879203Y-53474851D01*
X63547952Y-56127200D02*
X64528702Y-55146450D01*
X61372600Y-56127200D02*
X63547952Y-56127200D01*
X66776600Y-36474400D02*
X65252600Y-34950400D01*
X65252600Y-34950400D02*
X65252600Y-29616400D01*
X66776600Y-46675040D02*
X66776600Y-36474400D01*
X63002160Y-48691800D02*
X64759840Y-48691800D01*
X64759840Y-48691800D02*
X66776600Y-46675040D01*
X62000000Y-51943000D02*
X62000000Y-53519800D01*
X62000000Y-53519800D02*
X61372600Y-54147200D01*
X62000000Y-51943000D02*
X62000000Y-49693960D01*
X62000000Y-49693960D02*
X63002160Y-48691800D01*
D31*
X51155600Y-34315400D02*
X49480600Y-34315400D01*
X49480600Y-34315400D02*
X49353600Y-34188400D01*
D30*
X50647600Y-34442400D02*
X51028600Y-34442400D01*
D31*
X50647600Y-44221400D02*
X50393600Y-44221400D01*
X50393600Y-44221400D02*
X48996600Y-42824400D01*
X50647600Y-44221400D02*
X50647600Y-44602400D01*
X50647600Y-41371983D02*
X50647600Y-44221400D01*
X57886600Y-60604400D02*
X47980600Y-60604400D01*
X47980600Y-60604400D02*
X47726600Y-60604400D01*
X46202600Y-60604400D02*
X47980600Y-60604400D01*
X51282600Y-45364400D02*
X51536600Y-45618400D01*
X51028600Y-45364400D02*
X51282600Y-45364400D01*
X51028600Y-44856400D02*
X51028600Y-45364400D01*
X50774600Y-44602400D02*
X51028600Y-44856400D01*
X50647600Y-44602400D02*
X50647600Y-44749208D01*
X50647600Y-44602400D02*
X50774600Y-44602400D01*
X50647600Y-44749208D02*
X50939702Y-45041310D01*
X50939702Y-45041310D02*
X50939702Y-45295310D01*
X50939702Y-45295310D02*
X57289710Y-51645318D01*
X57289710Y-51645318D02*
X57289710Y-53378717D01*
X57289710Y-53378717D02*
X56997600Y-53670827D01*
X56997600Y-53670827D02*
X56997600Y-54381400D01*
D30*
X29946600Y-43586400D02*
X28422600Y-43586400D01*
D31*
X47726600Y-60604400D02*
X49250600Y-59080400D01*
X60172600Y-58318400D02*
X57886600Y-60604400D01*
X60172600Y-55583200D02*
X60172600Y-58318400D01*
X61372600Y-55137200D02*
X60618600Y-55137200D01*
X60618600Y-55137200D02*
X60172600Y-55583200D01*
X29946600Y-54750400D02*
X30950600Y-54750400D01*
X30950600Y-54750400D02*
X30962600Y-54762400D01*
X35026600Y-53590400D02*
X33404600Y-53590400D01*
X33404600Y-53590400D02*
X33248600Y-53746400D01*
X52246600Y-49288200D02*
X52246600Y-47956400D01*
X52246600Y-47956400D02*
X52806600Y-47396400D01*
X48155600Y-47345600D02*
X48155600Y-51254400D01*
X48155600Y-51254400D02*
X48083600Y-51182400D01*
X48083600Y-51182400D02*
X48083600Y-50444400D01*
X48155600Y-51254400D02*
X48646600Y-51745400D01*
D30*
X61372600Y-55137200D02*
X63170988Y-55137200D01*
X63170988Y-55137200D02*
X63637194Y-54670994D01*
X62458600Y-54254400D02*
X62458600Y-55016400D01*
X62526939Y-54186061D02*
X62458600Y-54254400D01*
X63006886Y-54186061D02*
X62526939Y-54186061D01*
X63006886Y-54186061D02*
X63152261Y-54186061D01*
X63152261Y-54186061D02*
X63637194Y-54670994D01*
X63637194Y-54670994D02*
X63728600Y-54762400D01*
D31*
X62540680Y-55137200D02*
X62663987Y-55013893D01*
X61372600Y-55137200D02*
X62540680Y-55137200D01*
X62663987Y-55013893D02*
X63006886Y-54670994D01*
D30*
X63006886Y-54186061D02*
X63006886Y-54670994D01*
X56997600Y-54381400D02*
X57753400Y-55137200D01*
X57753400Y-55137200D02*
X61372600Y-55137200D01*
D31*
X56997600Y-54381400D02*
X56997600Y-51587400D01*
X56997600Y-51587400D02*
X52806600Y-47396400D01*
X58832400Y-44095800D02*
X58625566Y-43888966D01*
X59461400Y-44095800D02*
X58832400Y-44095800D01*
X58625566Y-43888966D02*
X58625566Y-43815023D01*
X52755600Y-40745600D02*
X51273983Y-40745600D01*
X51273983Y-40745600D02*
X50647600Y-41371983D01*
X54560600Y-38887400D02*
X54560600Y-37514400D01*
X54560600Y-37514400D02*
X54584600Y-37490400D01*
X49504600Y-35458400D02*
X49504600Y-35299400D01*
X49504600Y-35712400D02*
X49504600Y-35458400D01*
X49099600Y-36601400D02*
X49124600Y-36601400D01*
X49099600Y-37185645D02*
X49099600Y-36601400D01*
X48655600Y-38645600D02*
X48655600Y-37629645D01*
X48655600Y-37629645D02*
X49099600Y-37185645D01*
X48655600Y-38645600D02*
X48655600Y-39973144D01*
X48655600Y-39973144D02*
X48711724Y-40029268D01*
X52755600Y-40745600D02*
X53996400Y-40745600D01*
X53996400Y-40745600D02*
X54584600Y-40157400D01*
D32*
X54991000Y-51920600D02*
X54991000Y-54762400D01*
X54991000Y-54762400D02*
X54991000Y-55524400D01*
D31*
X53117000Y-55577400D02*
X54323500Y-55577400D01*
X54323500Y-55577400D02*
X54991000Y-54909900D01*
X54991000Y-54909900D02*
X54991000Y-54762400D01*
D33*
X52755600Y-40745600D02*
X51489873Y-40745600D01*
X51489873Y-40745600D02*
X51206389Y-41029084D01*
X51206389Y-41029084D02*
X50863490Y-41371983D01*
D31*
X49099600Y-36601400D02*
X49099600Y-36117400D01*
X49099600Y-36117400D02*
X49504600Y-35712400D01*
X54402200Y-40538400D02*
X55094600Y-39846000D01*
D33*
X52755600Y-40745600D02*
X54195000Y-40745600D01*
X54195000Y-40745600D02*
X54402200Y-40538400D01*
D32*
X54991000Y-55524400D02*
X54991000Y-56769000D01*
D33*
X54938000Y-55577400D02*
X53117000Y-55577400D01*
X54991000Y-55524400D02*
X54938000Y-55577400D01*
D32*
X54737000Y-57023000D02*
X53060600Y-57023000D01*
X53060600Y-57023000D02*
X49956900Y-57023000D01*
D33*
X53117000Y-55577400D02*
X53117000Y-56966600D01*
X53117000Y-56966600D02*
X53060600Y-57023000D01*
D31*
X63500000Y-51943000D02*
X63500000Y-50723800D01*
X63500000Y-50723800D02*
X63474600Y-50698400D01*
X58581200Y-39522400D02*
X58257600Y-39846000D01*
X58831000Y-39272600D02*
X58581200Y-39522400D01*
X58831000Y-39268400D02*
X58831000Y-39272600D01*
X58257600Y-39846000D02*
X57378600Y-39846000D01*
X59461400Y-39267000D02*
X58832400Y-39267000D01*
X58832400Y-39267000D02*
X58831000Y-39268400D01*
D32*
X48646600Y-53088200D02*
X48646600Y-52247800D01*
X48646600Y-52247800D02*
X48646600Y-51745400D01*
X52996600Y-51088200D02*
X54158600Y-51088200D01*
X54158600Y-51088200D02*
X54991000Y-51920600D01*
X46913800Y-54229000D02*
X47523400Y-53619400D01*
X54991000Y-56769000D02*
X54737000Y-57023000D01*
X49956900Y-57023000D02*
X49906100Y-57073800D01*
X47440438Y-57073800D02*
X46913800Y-56547162D01*
X49906100Y-57073800D02*
X47440438Y-57073800D01*
X46913800Y-56547162D02*
X46913800Y-54229000D01*
X47523400Y-53619400D02*
X48115400Y-53619400D01*
X48115400Y-53619400D02*
X48646600Y-53088200D01*
X52246600Y-49288200D02*
X52996600Y-50038200D01*
X52996600Y-50038200D02*
X52996600Y-51088200D01*
X48646600Y-53088200D02*
X48359400Y-53088200D01*
D31*
X47655600Y-38645600D02*
X47655600Y-40340400D01*
X47655600Y-40340400D02*
X48145702Y-40830502D01*
X49865792Y-40792400D02*
X48107600Y-40792400D01*
X47655600Y-45110400D02*
X48145702Y-44620298D01*
X48145702Y-44620298D02*
X48145702Y-40830502D01*
X48145702Y-40830502D02*
X48107600Y-40792400D01*
D30*
X20294600Y-58826400D02*
X20294600Y-47498000D01*
X20294600Y-47498000D02*
X22174200Y-45618400D01*
X22174200Y-45618400D02*
X22326600Y-45618400D01*
X22072600Y-60604400D02*
X20294600Y-58826400D01*
X22072600Y-62636400D02*
X22072600Y-60604400D01*
D31*
X55981600Y-56922400D02*
X56997600Y-55906400D01*
X56997600Y-55906400D02*
X56997600Y-55881400D01*
X55981600Y-57048400D02*
X55981600Y-56922400D01*
X55092600Y-57937400D02*
X55981600Y-57048400D01*
X46075600Y-53111400D02*
X46075600Y-57175400D01*
X46583600Y-50551592D02*
X46583600Y-52603400D01*
X46583600Y-52603400D02*
X46075600Y-53111400D01*
X47655600Y-49479592D02*
X46583600Y-50551592D01*
X47655600Y-47345600D02*
X47655600Y-49479592D01*
X46075600Y-57175400D02*
X46837600Y-57937400D01*
X46837600Y-57937400D02*
X55092600Y-57937400D01*
X45709601Y-46365399D02*
X45493847Y-46365399D01*
X45493847Y-46365399D02*
X45275490Y-46147042D01*
X46964600Y-45110400D02*
X45709601Y-46365399D01*
X45709601Y-46365399D02*
X45694600Y-46365399D01*
X41493600Y-47491400D02*
X42619601Y-46365399D01*
X47655600Y-45110400D02*
X46964600Y-45110400D01*
X40614600Y-47491400D02*
X41493600Y-47491400D01*
X47655600Y-45110400D02*
X47655600Y-46928393D01*
D33*
X30651800Y-46634400D02*
X29946600Y-46634400D01*
X30855002Y-46431198D02*
X30651800Y-46634400D01*
X32319978Y-46431198D02*
X30855002Y-46431198D01*
X33380180Y-47491400D02*
X32319978Y-46431198D01*
X40614600Y-47491400D02*
X33380180Y-47491400D01*
X22326600Y-45618400D02*
X26911600Y-45618400D01*
X26911600Y-45618400D02*
X27914600Y-46621400D01*
X27914600Y-46621400D02*
X27914600Y-46646400D01*
X29946600Y-46634400D02*
X27926600Y-46634400D01*
X27926600Y-46634400D02*
X27914600Y-46646400D01*
D31*
X40201600Y-47904400D02*
X40614600Y-47491400D01*
X52755600Y-40245600D02*
X52755600Y-39192400D01*
X52755600Y-39192400D02*
X53060600Y-38887400D01*
X47599600Y-36601400D02*
X47655600Y-36657400D01*
X47655600Y-36657400D02*
X47655600Y-38645600D01*
X50791592Y-39866600D02*
X49865792Y-40792400D01*
X51851600Y-39866600D02*
X50791592Y-39866600D01*
X52230600Y-40245600D02*
X51851600Y-39866600D01*
X52755600Y-40245600D02*
X52230600Y-40245600D01*
X40614600Y-47491400D02*
X40739600Y-47491400D01*
D33*
X58972600Y-56127200D02*
X57243400Y-56127200D01*
X57243400Y-56127200D02*
X56997600Y-55881400D01*
D31*
X40614600Y-45491400D02*
X40614600Y-43427400D01*
X40614600Y-43427400D02*
X38689600Y-43427400D01*
X38689600Y-43427400D02*
X38455600Y-43193400D01*
X44055600Y-42745600D02*
X41455400Y-42745600D01*
X41455400Y-42745600D02*
X40773600Y-43427400D01*
X40773600Y-43427400D02*
X40614600Y-43427400D01*
X41154600Y-43554400D02*
X40614600Y-43554400D01*
X41607007Y-41427400D02*
X41614968Y-41419439D01*
X40614600Y-41427400D02*
X41607007Y-41427400D01*
X31946600Y-43586400D02*
X31946600Y-43461400D01*
X31946600Y-43461400D02*
X30039600Y-41554400D01*
X31946600Y-43586400D02*
X31946600Y-45332400D01*
X31946600Y-45332400D02*
X31978600Y-45364400D01*
X38455600Y-41693400D02*
X37173600Y-41693400D01*
X39090600Y-41427400D02*
X38721600Y-41427400D01*
X40614600Y-41427400D02*
X39090600Y-41427400D01*
X38721600Y-41427400D02*
X38455600Y-41693400D01*
X44055600Y-42245600D02*
X41557800Y-42245600D01*
X41557800Y-42245600D02*
X40739600Y-41427400D01*
D33*
X29946600Y-48134400D02*
X30986600Y-48134400D01*
X30986600Y-48134400D02*
X31978600Y-47142400D01*
X29946600Y-50444400D02*
X29946600Y-48134400D01*
X29946600Y-53250400D02*
X29946600Y-50444400D01*
X22326600Y-53238400D02*
X29934600Y-53238400D01*
X29934600Y-53238400D02*
X29946600Y-53250400D01*
D31*
X49655600Y-38645600D02*
X49655600Y-40006400D01*
X49655600Y-40006400D02*
X49600139Y-40061861D01*
X47853600Y-34188400D02*
X48107600Y-34188400D01*
X48107600Y-34188400D02*
X48361600Y-34442400D01*
X48361600Y-34442400D02*
X48361600Y-37208762D01*
X48361600Y-37208762D02*
X48155600Y-37414762D01*
X48155600Y-37414762D02*
X48155600Y-38645600D01*
X50746600Y-49288200D02*
X50746600Y-53731400D01*
X50746600Y-53731400D02*
X48900600Y-55577400D01*
X48900600Y-55577400D02*
X48646600Y-55577400D01*
X50617266Y-47167201D02*
X50617266Y-49158866D01*
X50617266Y-49158866D02*
X50746600Y-49288200D01*
X51496600Y-51088200D02*
X51496600Y-51721800D01*
X51496600Y-51721800D02*
X52863000Y-53088200D01*
X52863000Y-53088200D02*
X53117000Y-53088200D01*
X51117266Y-47167201D02*
X51117266Y-47692201D01*
X51476801Y-48051736D02*
X51476801Y-50157999D01*
X51117266Y-47692201D02*
X51476801Y-48051736D01*
X51476801Y-50157999D02*
X51496600Y-50177798D01*
X51496600Y-50177798D02*
X51496600Y-51088200D01*
X57378600Y-41770401D02*
X57531000Y-41770401D01*
X55118000Y-41770401D02*
X57378600Y-41770401D01*
X59436000Y-41770401D02*
X60172600Y-41770401D01*
X60172600Y-41770401D02*
X62175201Y-41770401D01*
X57378600Y-41770401D02*
X60172600Y-41770401D01*
X55003266Y-41770401D02*
X55118000Y-41770401D01*
X52781000Y-41775000D02*
X53685000Y-41775000D01*
X53685000Y-41775000D02*
X53689599Y-41770401D01*
X53689599Y-41770401D02*
X55118000Y-41770401D01*
X59454400Y-41935400D02*
X59454400Y-41788801D01*
D30*
X59454400Y-42722800D02*
X59454400Y-41935400D01*
D31*
X59454400Y-41788801D02*
X59436000Y-41770401D01*
X62175201Y-41770401D02*
X62222000Y-41817200D01*
D30*
X59004200Y-48691800D02*
X59004200Y-47283370D01*
X59004200Y-47283370D02*
X60909200Y-45378370D01*
X60909200Y-45378370D02*
X60909200Y-42774800D01*
D33*
X60909200Y-42774800D02*
X61216800Y-42467200D01*
X61216800Y-42467200D02*
X62222000Y-42467200D01*
D31*
X57378600Y-41270401D02*
X57556400Y-41270401D01*
X55003266Y-41270401D02*
X57378600Y-41270401D01*
X59461400Y-41270401D02*
X59918600Y-41270401D01*
X59918600Y-41270401D02*
X62235299Y-41270401D01*
X57378600Y-41270401D02*
X59918600Y-41270401D01*
X52781000Y-41275000D02*
X54998667Y-41275000D01*
X54998667Y-41275000D02*
X55003266Y-41270401D01*
X59454400Y-40741600D02*
X59454400Y-41263401D01*
X59454400Y-41263401D02*
X59461400Y-41270401D01*
X62235299Y-41270401D02*
X62279400Y-41226300D01*
X46655600Y-38645600D02*
X46655600Y-44349139D01*
X46655600Y-44349139D02*
X46629209Y-44375530D01*
X47155600Y-43777400D02*
X47472600Y-44094400D01*
X47155600Y-38645600D02*
X47155600Y-43777400D01*
D33*
X27914600Y-48146400D02*
X27914600Y-48171400D01*
X27914600Y-48171400D02*
X25387600Y-50698400D01*
X25387600Y-50698400D02*
X23672800Y-50698400D01*
X23672800Y-50698400D02*
X22326600Y-50698400D01*
D31*
X60375800Y-37846000D02*
X57378600Y-37846000D01*
D33*
X60858400Y-38328600D02*
X60375800Y-37846000D01*
X60858400Y-39508800D02*
X60858400Y-38328600D01*
X62222000Y-39867200D02*
X61216800Y-39867200D01*
X61216800Y-39867200D02*
X60858400Y-39508800D01*
X31470600Y-50444400D02*
X34772600Y-50444400D01*
X34772600Y-50444400D02*
X35026600Y-50190400D01*
D31*
X33502600Y-42062400D02*
X24612600Y-33172400D01*
X24612600Y-33172400D02*
X24612600Y-29616400D01*
X33502600Y-44094400D02*
X33502600Y-42062400D01*
X34429701Y-45021501D02*
X33502600Y-44094400D01*
X35026600Y-45364400D02*
X34683701Y-45021501D01*
X34683701Y-45021501D02*
X34429701Y-45021501D01*
X44055600Y-45245600D02*
X42257400Y-45245600D01*
X42257400Y-45245600D02*
X42138600Y-45364400D01*
X44055600Y-44745600D02*
X45101973Y-44745600D01*
X45101973Y-44745600D02*
X45110398Y-44737175D01*
X34264600Y-41554400D02*
X34264600Y-43586400D01*
X34264600Y-43586400D02*
X35026600Y-44348400D01*
X27152600Y-34442400D02*
X34264600Y-41554400D01*
X27152600Y-29768800D02*
X27152600Y-34442400D01*
X27152600Y-29616400D02*
X27152600Y-29768800D01*
X35026600Y-43332400D02*
X35026600Y-40030400D01*
X35026600Y-40030400D02*
X29692600Y-34696400D01*
X29692600Y-34696400D02*
X29692600Y-29616400D01*
X44055600Y-44245600D02*
X42797800Y-44245600D01*
X42797800Y-44245600D02*
X42392600Y-43840400D01*
X29692600Y-62484000D02*
X29692600Y-62636400D01*
X35257414Y-59080400D02*
X33096200Y-59080400D01*
X46155600Y-47345600D02*
X46155600Y-48182214D01*
X33096200Y-59080400D02*
X29692600Y-62484000D01*
X46155600Y-48182214D02*
X35257414Y-59080400D01*
X32080200Y-57556400D02*
X35065800Y-57556400D01*
X35065800Y-57556400D02*
X45276600Y-47345600D01*
X45276600Y-47345600D02*
X45655600Y-47345600D01*
X27152600Y-62636400D02*
X27152600Y-62484000D01*
X27152600Y-62484000D02*
X32080200Y-57556400D01*
X37312600Y-30886400D02*
X37312600Y-29616400D01*
X38074600Y-36728400D02*
X37312600Y-35966400D01*
X42893053Y-41745600D02*
X41431853Y-40284400D01*
X41431853Y-40284400D02*
X38836600Y-40284400D01*
X38074600Y-39522400D02*
X38074600Y-36728400D01*
X44055600Y-41745600D02*
X42893053Y-41745600D01*
X38836600Y-40284400D02*
X38074600Y-39522400D01*
X37312600Y-35966400D02*
X37312600Y-30886400D01*
X39852600Y-30886400D02*
X39852600Y-29616400D01*
X39852600Y-38058554D02*
X39852600Y-30886400D01*
X44055600Y-41245600D02*
X43039646Y-41245600D01*
X43039646Y-41245600D02*
X39852600Y-38058554D01*
X44055600Y-40745600D02*
X44010801Y-40700801D01*
X44010801Y-40700801D02*
X43141439Y-40700801D01*
X43141439Y-40700801D02*
X42392600Y-39951962D01*
X42392600Y-39951962D02*
X42392600Y-30886400D01*
X42392600Y-30886400D02*
X42392600Y-29616400D01*
X44055600Y-40245600D02*
X44055600Y-30493400D01*
X44055600Y-30493400D02*
X44932600Y-29616400D01*
X45655600Y-37741600D02*
X45655600Y-38645600D01*
X45275499Y-37361499D02*
X45655600Y-37741600D01*
X47472600Y-29616400D02*
X47472600Y-30886400D01*
X47472600Y-30886400D02*
X45275499Y-33083501D01*
X45275499Y-33083501D02*
X45275499Y-37361499D01*
X50012600Y-29616400D02*
X50012600Y-29870400D01*
X50012600Y-29870400D02*
X45948600Y-33934400D01*
X45948600Y-33934400D02*
X45948600Y-35712400D01*
X50012600Y-29768800D02*
X50012600Y-29616400D01*
X46155600Y-38645600D02*
X46155600Y-39569400D01*
X46155600Y-39569400D02*
X45694600Y-40030400D01*
X52552600Y-30886400D02*
X52552600Y-29616400D01*
X52552600Y-34468573D02*
X52552600Y-30886400D01*
X49155600Y-38645600D02*
X49155600Y-37865573D01*
X49155600Y-37865573D02*
X52552600Y-34468573D01*
X55092600Y-29616400D02*
X55092600Y-32575165D01*
X50155600Y-37741600D02*
X50155600Y-38645600D01*
X50155600Y-37512165D02*
X50155600Y-37741600D01*
X55092600Y-32575165D02*
X50155600Y-37512165D01*
X57510800Y-30886400D02*
X57510800Y-29738200D01*
X57510800Y-29738200D02*
X57632600Y-29616400D01*
X50655600Y-38645600D02*
X50655600Y-37741600D01*
X50655600Y-37741600D02*
X57510800Y-30886400D01*
X60172600Y-29616400D02*
X60172600Y-29768800D01*
X51295800Y-38645600D02*
X51155600Y-38645600D01*
X60172600Y-29768800D02*
X51295800Y-38645600D01*
X28168600Y-56794400D02*
X24612600Y-60350400D01*
X24612600Y-60350400D02*
X24612600Y-62636400D01*
X33666962Y-56794400D02*
X28168600Y-56794400D01*
X44055600Y-45745600D02*
X44055600Y-46405762D01*
X44055600Y-46405762D02*
X33666962Y-56794400D01*
X35396008Y-59588400D02*
X35128200Y-59588400D01*
X46655600Y-48328808D02*
X35396008Y-59588400D01*
X32232600Y-62484000D02*
X32232600Y-62636400D01*
X35128200Y-59588400D02*
X32232600Y-62484000D01*
X46655600Y-47345600D02*
X46655600Y-48328808D01*
X34772600Y-60858400D02*
X34772600Y-62636400D01*
X45158962Y-50472038D02*
X34772600Y-60858400D01*
X46484238Y-49174400D02*
X45186600Y-50472038D01*
X45186600Y-50472038D02*
X45158962Y-50472038D01*
X47155600Y-48983400D02*
X46964600Y-49174400D01*
X46964600Y-49174400D02*
X46484238Y-49174400D01*
X47155600Y-47345600D02*
X47155600Y-48983400D01*
X47155600Y-47345600D02*
X47155600Y-48221400D01*
X37312600Y-59555792D02*
X42628345Y-54240047D01*
X37312600Y-62636400D02*
X37312600Y-59555792D01*
X48655600Y-46146833D02*
X48339922Y-45831155D01*
X48655600Y-47345600D02*
X48655600Y-46146833D01*
X39852600Y-62636400D02*
X39852600Y-58264139D01*
X39852600Y-58264139D02*
X43327209Y-54789530D01*
X49155600Y-47345600D02*
X49155600Y-45205400D01*
X49155600Y-45205400D02*
X49504600Y-44856400D01*
X44170600Y-58064400D02*
X42392600Y-59842400D01*
X42392600Y-59842400D02*
X42392600Y-62636400D01*
X44170600Y-54508400D02*
X44170600Y-58064400D01*
X49655600Y-47345600D02*
X49655600Y-45975400D01*
X49655600Y-45975400D02*
X50266600Y-45364400D01*
X45013991Y-54789530D02*
X45013991Y-62555009D01*
X45013991Y-62555009D02*
X44932600Y-62636400D01*
X50155600Y-46441600D02*
X50470800Y-46126400D01*
X50155600Y-47345600D02*
X50155600Y-46441600D01*
X50470800Y-46126400D02*
X50774600Y-46126400D01*
X52755600Y-45745600D02*
X52755600Y-46124600D01*
X52755600Y-46124600D02*
X53523309Y-46892309D01*
X53523309Y-46892309D02*
X53849185Y-46892309D01*
X53659600Y-45245600D02*
X54737839Y-46323839D01*
X54737839Y-46382145D02*
X54737839Y-46867078D01*
X52755600Y-45245600D02*
X53659600Y-45245600D01*
X54737839Y-46323839D02*
X54737839Y-46382145D01*
X52755600Y-44745600D02*
X53870876Y-44745600D01*
X53870876Y-44745600D02*
X55619729Y-46494453D01*
X55619729Y-46494453D02*
X55619729Y-46979386D01*
X54037878Y-44245600D02*
X56104656Y-46312378D01*
X56104656Y-46312378D02*
X56447555Y-46655277D01*
X52755600Y-44245600D02*
X54037878Y-44245600D01*
X56371042Y-45445500D02*
X56713941Y-45788399D01*
X52755600Y-43745600D02*
X54671142Y-43745600D01*
X54671142Y-43745600D02*
X56371042Y-45445500D01*
X55123065Y-43245600D02*
X57651011Y-45773546D01*
X57651011Y-45773546D02*
X57651011Y-45826733D01*
X52755600Y-43245600D02*
X55123065Y-43245600D01*
X57231882Y-44369454D02*
X57574781Y-44712353D01*
X55608028Y-42745600D02*
X57231882Y-44369454D01*
X52755600Y-42745600D02*
X55608028Y-42745600D01*
X58790383Y-44976033D02*
X59133282Y-45318932D01*
X52755600Y-42245600D02*
X56059950Y-42245600D01*
X56059950Y-42245600D02*
X58790383Y-44976033D01*
X44055600Y-43745600D02*
X45311024Y-43745600D01*
X45311024Y-43745600D02*
X45509570Y-43547054D01*
X36042600Y-39522400D02*
X36042600Y-43078400D01*
X32232600Y-35712400D02*
X36042600Y-39522400D01*
X32232600Y-29616400D02*
X32232600Y-35712400D01*
X45097701Y-42913299D02*
X45440600Y-42570400D01*
X45097701Y-42984367D02*
X45097701Y-42913299D01*
X44055600Y-43245600D02*
X44836468Y-43245600D01*
X44836468Y-43245600D02*
X45097701Y-42984367D01*
X37058600Y-36982400D02*
X34772600Y-34696400D01*
X34772600Y-34696400D02*
X34772600Y-29616400D01*
X37058600Y-40792400D02*
X37058600Y-36982400D01*
G36*
X63849408Y-45415857D02*
X64196515Y-45763571D01*
X64650266Y-45951985D01*
X65141579Y-45952414D01*
X65595657Y-45764792D01*
X65887600Y-45473359D01*
X65887600Y-46306804D01*
X64770175Y-47424229D01*
X64715930Y-47339929D01*
X64503730Y-47194939D01*
X64251840Y-47143930D01*
X61752480Y-47143930D01*
X61517163Y-47188208D01*
X61301039Y-47327280D01*
X61156049Y-47539480D01*
X61105040Y-47791370D01*
X61105040Y-49592230D01*
X61117774Y-49659905D01*
X61111000Y-49693960D01*
X61111000Y-51158879D01*
X61003569Y-51316110D01*
X60952560Y-51568000D01*
X60952560Y-52318000D01*
X60996838Y-52553317D01*
X61111000Y-52730730D01*
X61111000Y-53151564D01*
X61062804Y-53199760D01*
X60872600Y-53199760D01*
X60637283Y-53244038D01*
X60421159Y-53383110D01*
X60276169Y-53595310D01*
X60225160Y-53847200D01*
X60225160Y-54447200D01*
X60263164Y-54649174D01*
X60237600Y-54710891D01*
X60237600Y-54851450D01*
X60396350Y-55010200D01*
X60571782Y-55010200D01*
X60620710Y-55043631D01*
X60872600Y-55094640D01*
X61872600Y-55094640D01*
X62107917Y-55050362D01*
X62170331Y-55010200D01*
X62348850Y-55010200D01*
X62507600Y-54851450D01*
X62507600Y-54710891D01*
X62480090Y-54644477D01*
X62520040Y-54447200D01*
X62520040Y-54363851D01*
X63510967Y-54363851D01*
X63639702Y-54492586D01*
X63639702Y-54778214D01*
X63179716Y-55238200D01*
X62135366Y-55238200D01*
X62124490Y-55230769D01*
X61872600Y-55179760D01*
X60872600Y-55179760D01*
X60637283Y-55224038D01*
X60574869Y-55264200D01*
X60396350Y-55264200D01*
X60237600Y-55422950D01*
X60237600Y-55563509D01*
X60265110Y-55629923D01*
X60225160Y-55827200D01*
X60225160Y-56427200D01*
X60269438Y-56662517D01*
X60408510Y-56878641D01*
X60620710Y-57023631D01*
X60872600Y-57074640D01*
X61872600Y-57074640D01*
X62107917Y-57030362D01*
X62129925Y-57016200D01*
X63547952Y-57016200D01*
X63888158Y-56948529D01*
X64176570Y-56755818D01*
X65157320Y-55775068D01*
X65256490Y-55626650D01*
X65350031Y-55486656D01*
X65417702Y-55146450D01*
X65417702Y-54124350D01*
X65350031Y-53784144D01*
X65157320Y-53495732D01*
X64507821Y-52846233D01*
X64442295Y-52802450D01*
X64365133Y-52750892D01*
X64438327Y-52677699D01*
X64535000Y-52444310D01*
X64535000Y-52228750D01*
X64376250Y-52070000D01*
X63627000Y-52070000D01*
X63627000Y-52090000D01*
X63373000Y-52090000D01*
X63373000Y-52070000D01*
X63353000Y-52070000D01*
X63353000Y-51816000D01*
X63373000Y-51816000D01*
X63373000Y-51091750D01*
X63627000Y-51091750D01*
X63627000Y-51816000D01*
X64376250Y-51816000D01*
X64535000Y-51657250D01*
X64535000Y-51441690D01*
X64438327Y-51208301D01*
X64259698Y-51029673D01*
X64026309Y-50933000D01*
X63785750Y-50933000D01*
X63627000Y-51091750D01*
X63373000Y-51091750D01*
X63214250Y-50933000D01*
X62973691Y-50933000D01*
X62889000Y-50968080D01*
X62889000Y-50239670D01*
X64251840Y-50239670D01*
X64487157Y-50195392D01*
X64703281Y-50056320D01*
X64848271Y-49844120D01*
X64899280Y-49592230D01*
X64899280Y-49553064D01*
X65100046Y-49513129D01*
X65388458Y-49320418D01*
X67081400Y-47627476D01*
X67081400Y-61931356D01*
X66929319Y-62695918D01*
X66711167Y-63022406D01*
X66751200Y-62821145D01*
X66751200Y-62451655D01*
X66637126Y-61878166D01*
X66312270Y-61391985D01*
X65826089Y-61067129D01*
X65252600Y-60953055D01*
X64679111Y-61067129D01*
X64192930Y-61391985D01*
X63982600Y-61706766D01*
X63772270Y-61391985D01*
X63286089Y-61067129D01*
X62712600Y-60953055D01*
X62139111Y-61067129D01*
X61652930Y-61391985D01*
X61442600Y-61706766D01*
X61232270Y-61391985D01*
X60746089Y-61067129D01*
X60172600Y-60953055D01*
X59599111Y-61067129D01*
X59112930Y-61391985D01*
X58902600Y-61706766D01*
X58692270Y-61391985D01*
X58206089Y-61067129D01*
X57632600Y-60953055D01*
X57059111Y-61067129D01*
X56572930Y-61391985D01*
X56362600Y-61706766D01*
X56152270Y-61391985D01*
X55666089Y-61067129D01*
X55092600Y-60953055D01*
X54519111Y-61067129D01*
X54032930Y-61391985D01*
X53822600Y-61706766D01*
X53612270Y-61391985D01*
X53126089Y-61067129D01*
X52552600Y-60953055D01*
X51979111Y-61067129D01*
X51492930Y-61391985D01*
X51282600Y-61706766D01*
X51072270Y-61391985D01*
X50586089Y-61067129D01*
X50012600Y-60953055D01*
X49439111Y-61067129D01*
X48952930Y-61391985D01*
X48742600Y-61706766D01*
X48532270Y-61391985D01*
X48046089Y-61067129D01*
X47472600Y-60953055D01*
X46899111Y-61067129D01*
X46412930Y-61391985D01*
X46202600Y-61706766D01*
X45992270Y-61391985D01*
X45775991Y-61247472D01*
X45775991Y-57953421D01*
X46298785Y-58476216D01*
X46446977Y-58575234D01*
X46545995Y-58641396D01*
X46837600Y-58699400D01*
X55092600Y-58699400D01*
X55384205Y-58641396D01*
X55631415Y-58476215D01*
X56520415Y-57587215D01*
X56541006Y-57556399D01*
X56685596Y-57340005D01*
X56696514Y-57285116D01*
X57052790Y-56928840D01*
X57372600Y-56928840D01*
X57380784Y-56927300D01*
X58079725Y-56927300D01*
X58220710Y-57023631D01*
X58472600Y-57074640D01*
X59472600Y-57074640D01*
X59707917Y-57030362D01*
X59924041Y-56891290D01*
X60069031Y-56679090D01*
X60120040Y-56427200D01*
X60120040Y-55827200D01*
X60075762Y-55591883D01*
X59936690Y-55375759D01*
X59724490Y-55230769D01*
X59472600Y-55179760D01*
X58472600Y-55179760D01*
X58237283Y-55224038D01*
X58077120Y-55327100D01*
X57991006Y-55327100D01*
X57975762Y-55246083D01*
X57909271Y-55142754D01*
X57910927Y-55141098D01*
X58007600Y-54907709D01*
X58007600Y-54897227D01*
X58008510Y-54898641D01*
X58220710Y-55043631D01*
X58472600Y-55094640D01*
X59472600Y-55094640D01*
X59707917Y-55050362D01*
X59924041Y-54911290D01*
X60069031Y-54699090D01*
X60120040Y-54447200D01*
X60120040Y-53847200D01*
X60075762Y-53611883D01*
X59936690Y-53395759D01*
X59724490Y-53250769D01*
X59472600Y-53199760D01*
X58472600Y-53199760D01*
X58237283Y-53244038D01*
X58021159Y-53383110D01*
X57879565Y-53590340D01*
X57732299Y-53443073D01*
X57498910Y-53346400D01*
X57283350Y-53346400D01*
X57124600Y-53505150D01*
X57124600Y-54254400D01*
X57144600Y-54254400D01*
X57144600Y-54508400D01*
X57124600Y-54508400D01*
X57124600Y-54528400D01*
X56870600Y-54528400D01*
X56870600Y-54508400D01*
X56146350Y-54508400D01*
X55987600Y-54667150D01*
X55987600Y-54907709D01*
X56084273Y-55141098D01*
X56085643Y-55142468D01*
X56026169Y-55229510D01*
X55981600Y-55449598D01*
X55981600Y-53855091D01*
X55987600Y-53855091D01*
X55987600Y-54095650D01*
X56146350Y-54254400D01*
X56870600Y-54254400D01*
X56870600Y-53505150D01*
X56711850Y-53346400D01*
X56496290Y-53346400D01*
X56262901Y-53443073D01*
X56084273Y-53621702D01*
X55987600Y-53855091D01*
X55981600Y-53855091D01*
X55981600Y-50698400D01*
X55966926Y-50639140D01*
X55935021Y-50600107D01*
X53141021Y-48314107D01*
X53110010Y-48295406D01*
X53060600Y-48285400D01*
X52790291Y-48285400D01*
X52772909Y-48278200D01*
X52532350Y-48278200D01*
X52525150Y-48285400D01*
X52238801Y-48285400D01*
X52238801Y-48051736D01*
X52180797Y-47760131D01*
X52146068Y-47708156D01*
X52015616Y-47512920D01*
X51928040Y-47425344D01*
X51928040Y-46695600D01*
X51886272Y-46473625D01*
X52105600Y-46518040D01*
X52119648Y-46518040D01*
X52216785Y-46663415D01*
X52984493Y-47431124D01*
X53046997Y-47472888D01*
X53294526Y-47720849D01*
X53653815Y-47870039D01*
X54042848Y-47870378D01*
X54324141Y-47754150D01*
X54542469Y-47844808D01*
X54931502Y-47845147D01*
X55052371Y-47795205D01*
X55065070Y-47807926D01*
X55424359Y-47957116D01*
X55813392Y-47957455D01*
X56172941Y-47808893D01*
X56349050Y-47633091D01*
X56641218Y-47633346D01*
X57000767Y-47484784D01*
X57276095Y-47209936D01*
X57425285Y-46850647D01*
X57425336Y-46791879D01*
X57455641Y-46804463D01*
X57844674Y-46804802D01*
X58204223Y-46656240D01*
X58479551Y-46381392D01*
X58577253Y-46146100D01*
X58578623Y-46147472D01*
X58793597Y-46236737D01*
X58375582Y-46654752D01*
X58182871Y-46943164D01*
X58142936Y-47143930D01*
X57754520Y-47143930D01*
X57519203Y-47188208D01*
X57303079Y-47327280D01*
X57158089Y-47539480D01*
X57107080Y-47791370D01*
X57107080Y-49592230D01*
X57151358Y-49827547D01*
X57290430Y-50043671D01*
X57502630Y-50188661D01*
X57754520Y-50239670D01*
X60253880Y-50239670D01*
X60489197Y-50195392D01*
X60705321Y-50056320D01*
X60850311Y-49844120D01*
X60901320Y-49592230D01*
X60901320Y-47791370D01*
X60857042Y-47556053D01*
X60717970Y-47339929D01*
X60505770Y-47194939D01*
X60376121Y-47168685D01*
X61537818Y-46006988D01*
X61560019Y-45973762D01*
X61675954Y-45800253D01*
X61747000Y-45814640D01*
X63147000Y-45814640D01*
X63382317Y-45770362D01*
X63598441Y-45631290D01*
X63743431Y-45419090D01*
X63778727Y-45244795D01*
X63849408Y-45415857D01*
X63849408Y-45415857D01*
G37*
X63849408Y-45415857D02*
X64196515Y-45763571D01*
X64650266Y-45951985D01*
X65141579Y-45952414D01*
X65595657Y-45764792D01*
X65887600Y-45473359D01*
X65887600Y-46306804D01*
X64770175Y-47424229D01*
X64715930Y-47339929D01*
X64503730Y-47194939D01*
X64251840Y-47143930D01*
X61752480Y-47143930D01*
X61517163Y-47188208D01*
X61301039Y-47327280D01*
X61156049Y-47539480D01*
X61105040Y-47791370D01*
X61105040Y-49592230D01*
X61117774Y-49659905D01*
X61111000Y-49693960D01*
X61111000Y-51158879D01*
X61003569Y-51316110D01*
X60952560Y-51568000D01*
X60952560Y-52318000D01*
X60996838Y-52553317D01*
X61111000Y-52730730D01*
X61111000Y-53151564D01*
X61062804Y-53199760D01*
X60872600Y-53199760D01*
X60637283Y-53244038D01*
X60421159Y-53383110D01*
X60276169Y-53595310D01*
X60225160Y-53847200D01*
X60225160Y-54447200D01*
X60263164Y-54649174D01*
X60237600Y-54710891D01*
X60237600Y-54851450D01*
X60396350Y-55010200D01*
X60571782Y-55010200D01*
X60620710Y-55043631D01*
X60872600Y-55094640D01*
X61872600Y-55094640D01*
X62107917Y-55050362D01*
X62170331Y-55010200D01*
X62348850Y-55010200D01*
X62507600Y-54851450D01*
X62507600Y-54710891D01*
X62480090Y-54644477D01*
X62520040Y-54447200D01*
X62520040Y-54363851D01*
X63510967Y-54363851D01*
X63639702Y-54492586D01*
X63639702Y-54778214D01*
X63179716Y-55238200D01*
X62135366Y-55238200D01*
X62124490Y-55230769D01*
X61872600Y-55179760D01*
X60872600Y-55179760D01*
X60637283Y-55224038D01*
X60574869Y-55264200D01*
X60396350Y-55264200D01*
X60237600Y-55422950D01*
X60237600Y-55563509D01*
X60265110Y-55629923D01*
X60225160Y-55827200D01*
X60225160Y-56427200D01*
X60269438Y-56662517D01*
X60408510Y-56878641D01*
X60620710Y-57023631D01*
X60872600Y-57074640D01*
X61872600Y-57074640D01*
X62107917Y-57030362D01*
X62129925Y-57016200D01*
X63547952Y-57016200D01*
X63888158Y-56948529D01*
X64176570Y-56755818D01*
X65157320Y-55775068D01*
X65256490Y-55626650D01*
X65350031Y-55486656D01*
X65417702Y-55146450D01*
X65417702Y-54124350D01*
X65350031Y-53784144D01*
X65157320Y-53495732D01*
X64507821Y-52846233D01*
X64442295Y-52802450D01*
X64365133Y-52750892D01*
X64438327Y-52677699D01*
X64535000Y-52444310D01*
X64535000Y-52228750D01*
X64376250Y-52070000D01*
X63627000Y-52070000D01*
X63627000Y-52090000D01*
X63373000Y-52090000D01*
X63373000Y-52070000D01*
X63353000Y-52070000D01*
X63353000Y-51816000D01*
X63373000Y-51816000D01*
X63373000Y-51091750D01*
X63627000Y-51091750D01*
X63627000Y-51816000D01*
X64376250Y-51816000D01*
X64535000Y-51657250D01*
X64535000Y-51441690D01*
X64438327Y-51208301D01*
X64259698Y-51029673D01*
X64026309Y-50933000D01*
X63785750Y-50933000D01*
X63627000Y-51091750D01*
X63373000Y-51091750D01*
X63214250Y-50933000D01*
X62973691Y-50933000D01*
X62889000Y-50968080D01*
X62889000Y-50239670D01*
X64251840Y-50239670D01*
X64487157Y-50195392D01*
X64703281Y-50056320D01*
X64848271Y-49844120D01*
X64899280Y-49592230D01*
X64899280Y-49553064D01*
X65100046Y-49513129D01*
X65388458Y-49320418D01*
X67081400Y-47627476D01*
X67081400Y-61931356D01*
X66929319Y-62695918D01*
X66711167Y-63022406D01*
X66751200Y-62821145D01*
X66751200Y-62451655D01*
X66637126Y-61878166D01*
X66312270Y-61391985D01*
X65826089Y-61067129D01*
X65252600Y-60953055D01*
X64679111Y-61067129D01*
X64192930Y-61391985D01*
X63982600Y-61706766D01*
X63772270Y-61391985D01*
X63286089Y-61067129D01*
X62712600Y-60953055D01*
X62139111Y-61067129D01*
X61652930Y-61391985D01*
X61442600Y-61706766D01*
X61232270Y-61391985D01*
X60746089Y-61067129D01*
X60172600Y-60953055D01*
X59599111Y-61067129D01*
X59112930Y-61391985D01*
X58902600Y-61706766D01*
X58692270Y-61391985D01*
X58206089Y-61067129D01*
X57632600Y-60953055D01*
X57059111Y-61067129D01*
X56572930Y-61391985D01*
X56362600Y-61706766D01*
X56152270Y-61391985D01*
X55666089Y-61067129D01*
X55092600Y-60953055D01*
X54519111Y-61067129D01*
X54032930Y-61391985D01*
X53822600Y-61706766D01*
X53612270Y-61391985D01*
X53126089Y-61067129D01*
X52552600Y-60953055D01*
X51979111Y-61067129D01*
X51492930Y-61391985D01*
X51282600Y-61706766D01*
X51072270Y-61391985D01*
X50586089Y-61067129D01*
X50012600Y-60953055D01*
X49439111Y-61067129D01*
X48952930Y-61391985D01*
X48742600Y-61706766D01*
X48532270Y-61391985D01*
X48046089Y-61067129D01*
X47472600Y-60953055D01*
X46899111Y-61067129D01*
X46412930Y-61391985D01*
X46202600Y-61706766D01*
X45992270Y-61391985D01*
X45775991Y-61247472D01*
X45775991Y-57953421D01*
X46298785Y-58476216D01*
X46446977Y-58575234D01*
X46545995Y-58641396D01*
X46837600Y-58699400D01*
X55092600Y-58699400D01*
X55384205Y-58641396D01*
X55631415Y-58476215D01*
X56520415Y-57587215D01*
X56541006Y-57556399D01*
X56685596Y-57340005D01*
X56696514Y-57285116D01*
X57052790Y-56928840D01*
X57372600Y-56928840D01*
X57380784Y-56927300D01*
X58079725Y-56927300D01*
X58220710Y-57023631D01*
X58472600Y-57074640D01*
X59472600Y-57074640D01*
X59707917Y-57030362D01*
X59924041Y-56891290D01*
X60069031Y-56679090D01*
X60120040Y-56427200D01*
X60120040Y-55827200D01*
X60075762Y-55591883D01*
X59936690Y-55375759D01*
X59724490Y-55230769D01*
X59472600Y-55179760D01*
X58472600Y-55179760D01*
X58237283Y-55224038D01*
X58077120Y-55327100D01*
X57991006Y-55327100D01*
X57975762Y-55246083D01*
X57909271Y-55142754D01*
X57910927Y-55141098D01*
X58007600Y-54907709D01*
X58007600Y-54897227D01*
X58008510Y-54898641D01*
X58220710Y-55043631D01*
X58472600Y-55094640D01*
X59472600Y-55094640D01*
X59707917Y-55050362D01*
X59924041Y-54911290D01*
X60069031Y-54699090D01*
X60120040Y-54447200D01*
X60120040Y-53847200D01*
X60075762Y-53611883D01*
X59936690Y-53395759D01*
X59724490Y-53250769D01*
X59472600Y-53199760D01*
X58472600Y-53199760D01*
X58237283Y-53244038D01*
X58021159Y-53383110D01*
X57879565Y-53590340D01*
X57732299Y-53443073D01*
X57498910Y-53346400D01*
X57283350Y-53346400D01*
X57124600Y-53505150D01*
X57124600Y-54254400D01*
X57144600Y-54254400D01*
X57144600Y-54508400D01*
X57124600Y-54508400D01*
X57124600Y-54528400D01*
X56870600Y-54528400D01*
X56870600Y-54508400D01*
X56146350Y-54508400D01*
X55987600Y-54667150D01*
X55987600Y-54907709D01*
X56084273Y-55141098D01*
X56085643Y-55142468D01*
X56026169Y-55229510D01*
X55981600Y-55449598D01*
X55981600Y-53855091D01*
X55987600Y-53855091D01*
X55987600Y-54095650D01*
X56146350Y-54254400D01*
X56870600Y-54254400D01*
X56870600Y-53505150D01*
X56711850Y-53346400D01*
X56496290Y-53346400D01*
X56262901Y-53443073D01*
X56084273Y-53621702D01*
X55987600Y-53855091D01*
X55981600Y-53855091D01*
X55981600Y-50698400D01*
X55966926Y-50639140D01*
X55935021Y-50600107D01*
X53141021Y-48314107D01*
X53110010Y-48295406D01*
X53060600Y-48285400D01*
X52790291Y-48285400D01*
X52772909Y-48278200D01*
X52532350Y-48278200D01*
X52525150Y-48285400D01*
X52238801Y-48285400D01*
X52238801Y-48051736D01*
X52180797Y-47760131D01*
X52146068Y-47708156D01*
X52015616Y-47512920D01*
X51928040Y-47425344D01*
X51928040Y-46695600D01*
X51886272Y-46473625D01*
X52105600Y-46518040D01*
X52119648Y-46518040D01*
X52216785Y-46663415D01*
X52984493Y-47431124D01*
X53046997Y-47472888D01*
X53294526Y-47720849D01*
X53653815Y-47870039D01*
X54042848Y-47870378D01*
X54324141Y-47754150D01*
X54542469Y-47844808D01*
X54931502Y-47845147D01*
X55052371Y-47795205D01*
X55065070Y-47807926D01*
X55424359Y-47957116D01*
X55813392Y-47957455D01*
X56172941Y-47808893D01*
X56349050Y-47633091D01*
X56641218Y-47633346D01*
X57000767Y-47484784D01*
X57276095Y-47209936D01*
X57425285Y-46850647D01*
X57425336Y-46791879D01*
X57455641Y-46804463D01*
X57844674Y-46804802D01*
X58204223Y-46656240D01*
X58479551Y-46381392D01*
X58577253Y-46146100D01*
X58578623Y-46147472D01*
X58793597Y-46236737D01*
X58375582Y-46654752D01*
X58182871Y-46943164D01*
X58142936Y-47143930D01*
X57754520Y-47143930D01*
X57519203Y-47188208D01*
X57303079Y-47327280D01*
X57158089Y-47539480D01*
X57107080Y-47791370D01*
X57107080Y-49592230D01*
X57151358Y-49827547D01*
X57290430Y-50043671D01*
X57502630Y-50188661D01*
X57754520Y-50239670D01*
X60253880Y-50239670D01*
X60489197Y-50195392D01*
X60705321Y-50056320D01*
X60850311Y-49844120D01*
X60901320Y-49592230D01*
X60901320Y-47791370D01*
X60857042Y-47556053D01*
X60717970Y-47339929D01*
X60505770Y-47194939D01*
X60376121Y-47168685D01*
X61537818Y-46006988D01*
X61560019Y-45973762D01*
X61675954Y-45800253D01*
X61747000Y-45814640D01*
X63147000Y-45814640D01*
X63382317Y-45770362D01*
X63598441Y-45631290D01*
X63743431Y-45419090D01*
X63778727Y-45244795D01*
X63849408Y-45415857D01*
G36*
X32814424Y-48057156D02*
X33073995Y-48230596D01*
X33380180Y-48291500D01*
X39428125Y-48291500D01*
X39525510Y-48442841D01*
X39737710Y-48587831D01*
X39989600Y-48638840D01*
X40063050Y-48638840D01*
X40201600Y-48666399D01*
X40340150Y-48638840D01*
X40744891Y-48638840D01*
X36455376Y-52928355D01*
X36414927Y-52830702D01*
X36236299Y-52652073D01*
X36002910Y-52555400D01*
X35312350Y-52555400D01*
X35153600Y-52714150D01*
X35153600Y-53463400D01*
X35173600Y-53463400D01*
X35173600Y-53717400D01*
X35153600Y-53717400D01*
X35153600Y-53737400D01*
X34899600Y-53737400D01*
X34899600Y-53717400D01*
X33700350Y-53717400D01*
X33541600Y-53876150D01*
X33541600Y-54116709D01*
X33638273Y-54350098D01*
X33816901Y-54528727D01*
X34050290Y-54625400D01*
X34740850Y-54625400D01*
X34899598Y-54466652D01*
X34899598Y-54484134D01*
X33351332Y-56032400D01*
X28168600Y-56032400D01*
X27876995Y-56090404D01*
X27629784Y-56255585D01*
X24073785Y-59811585D01*
X23908604Y-60058795D01*
X23850600Y-60350400D01*
X23850600Y-61193088D01*
X23552930Y-61391985D01*
X23543357Y-61406313D01*
X23539362Y-61385083D01*
X23400290Y-61168959D01*
X23188090Y-61023969D01*
X22961600Y-60978104D01*
X22961600Y-60604400D01*
X22893929Y-60264194D01*
X22701218Y-59975782D01*
X21183600Y-58458164D01*
X21183600Y-56866037D01*
X21412280Y-57070354D01*
X21964687Y-57263584D01*
X22199600Y-57119324D01*
X22199600Y-55905400D01*
X22453600Y-55905400D01*
X22453600Y-57119324D01*
X22688513Y-57263584D01*
X23240920Y-57070354D01*
X23677332Y-56680436D01*
X23931309Y-56153191D01*
X23933958Y-56137426D01*
X23812817Y-55905400D01*
X22453600Y-55905400D01*
X22199600Y-55905400D01*
X22179600Y-55905400D01*
X22179600Y-55651400D01*
X22199600Y-55651400D01*
X22199600Y-55631400D01*
X22453600Y-55631400D01*
X22453600Y-55651400D01*
X23812817Y-55651400D01*
X23933958Y-55419374D01*
X23931309Y-55403609D01*
X23754302Y-55036150D01*
X28936600Y-55036150D01*
X28936600Y-55276709D01*
X29033273Y-55510098D01*
X29211901Y-55688727D01*
X29445290Y-55785400D01*
X29660850Y-55785400D01*
X29819600Y-55626650D01*
X29819600Y-54877400D01*
X30073600Y-54877400D01*
X30073600Y-55626650D01*
X30232350Y-55785400D01*
X30447910Y-55785400D01*
X30681299Y-55688727D01*
X30859927Y-55510098D01*
X30956600Y-55276709D01*
X30956600Y-55036150D01*
X30797850Y-54877400D01*
X30073600Y-54877400D01*
X29819600Y-54877400D01*
X29095350Y-54877400D01*
X28936600Y-55036150D01*
X23754302Y-55036150D01*
X23677332Y-54876364D01*
X23261531Y-54504861D01*
X23571015Y-54298070D01*
X23744454Y-54038500D01*
X29013474Y-54038500D01*
X28936600Y-54224091D01*
X28936600Y-54464650D01*
X29095350Y-54623400D01*
X29819600Y-54623400D01*
X29819600Y-54603400D01*
X30073600Y-54603400D01*
X30073600Y-54623400D01*
X30797850Y-54623400D01*
X30956600Y-54464650D01*
X30956600Y-54224091D01*
X30859927Y-53990702D01*
X30858557Y-53989332D01*
X30918031Y-53902290D01*
X30969040Y-53650400D01*
X30969040Y-53064091D01*
X33541600Y-53064091D01*
X33541600Y-53304650D01*
X33700350Y-53463400D01*
X34899600Y-53463400D01*
X34899600Y-52714150D01*
X34740850Y-52555400D01*
X34050290Y-52555400D01*
X33816901Y-52652073D01*
X33638273Y-52830702D01*
X33541600Y-53064091D01*
X30969040Y-53064091D01*
X30969040Y-52850400D01*
X30924762Y-52615083D01*
X30785690Y-52398959D01*
X30746700Y-52372318D01*
X30746700Y-51366629D01*
X30818710Y-51415831D01*
X31070600Y-51466840D01*
X31870600Y-51466840D01*
X32105917Y-51422562D01*
X32322041Y-51283490D01*
X32348682Y-51244500D01*
X34772600Y-51244500D01*
X34806082Y-51237840D01*
X35876600Y-51237840D01*
X36111917Y-51193562D01*
X36328041Y-51054490D01*
X36473031Y-50842290D01*
X36524040Y-50590400D01*
X36524040Y-49790400D01*
X36479762Y-49555083D01*
X36340690Y-49338959D01*
X36128490Y-49193969D01*
X35876600Y-49142960D01*
X34176600Y-49142960D01*
X33941283Y-49187238D01*
X33725159Y-49326310D01*
X33580169Y-49538510D01*
X33558746Y-49644300D01*
X32351640Y-49644300D01*
X32334690Y-49617959D01*
X32122490Y-49472969D01*
X31870600Y-49421960D01*
X31070600Y-49421960D01*
X30835283Y-49466238D01*
X30746700Y-49523240D01*
X30746700Y-49015440D01*
X30773041Y-48998490D01*
X30816763Y-48934500D01*
X30986600Y-48934500D01*
X31292785Y-48873596D01*
X31552356Y-48700156D01*
X32132078Y-48120434D01*
X32172263Y-48120469D01*
X32531812Y-47971907D01*
X32630580Y-47873312D01*
X32814424Y-48057156D01*
X32814424Y-48057156D01*
G37*
X32814424Y-48057156D02*
X33073995Y-48230596D01*
X33380180Y-48291500D01*
X39428125Y-48291500D01*
X39525510Y-48442841D01*
X39737710Y-48587831D01*
X39989600Y-48638840D01*
X40063050Y-48638840D01*
X40201600Y-48666399D01*
X40340150Y-48638840D01*
X40744891Y-48638840D01*
X36455376Y-52928355D01*
X36414927Y-52830702D01*
X36236299Y-52652073D01*
X36002910Y-52555400D01*
X35312350Y-52555400D01*
X35153600Y-52714150D01*
X35153600Y-53463400D01*
X35173600Y-53463400D01*
X35173600Y-53717400D01*
X35153600Y-53717400D01*
X35153600Y-53737400D01*
X34899600Y-53737400D01*
X34899600Y-53717400D01*
X33700350Y-53717400D01*
X33541600Y-53876150D01*
X33541600Y-54116709D01*
X33638273Y-54350098D01*
X33816901Y-54528727D01*
X34050290Y-54625400D01*
X34740850Y-54625400D01*
X34899598Y-54466652D01*
X34899598Y-54484134D01*
X33351332Y-56032400D01*
X28168600Y-56032400D01*
X27876995Y-56090404D01*
X27629784Y-56255585D01*
X24073785Y-59811585D01*
X23908604Y-60058795D01*
X23850600Y-60350400D01*
X23850600Y-61193088D01*
X23552930Y-61391985D01*
X23543357Y-61406313D01*
X23539362Y-61385083D01*
X23400290Y-61168959D01*
X23188090Y-61023969D01*
X22961600Y-60978104D01*
X22961600Y-60604400D01*
X22893929Y-60264194D01*
X22701218Y-59975782D01*
X21183600Y-58458164D01*
X21183600Y-56866037D01*
X21412280Y-57070354D01*
X21964687Y-57263584D01*
X22199600Y-57119324D01*
X22199600Y-55905400D01*
X22453600Y-55905400D01*
X22453600Y-57119324D01*
X22688513Y-57263584D01*
X23240920Y-57070354D01*
X23677332Y-56680436D01*
X23931309Y-56153191D01*
X23933958Y-56137426D01*
X23812817Y-55905400D01*
X22453600Y-55905400D01*
X22199600Y-55905400D01*
X22179600Y-55905400D01*
X22179600Y-55651400D01*
X22199600Y-55651400D01*
X22199600Y-55631400D01*
X22453600Y-55631400D01*
X22453600Y-55651400D01*
X23812817Y-55651400D01*
X23933958Y-55419374D01*
X23931309Y-55403609D01*
X23754302Y-55036150D01*
X28936600Y-55036150D01*
X28936600Y-55276709D01*
X29033273Y-55510098D01*
X29211901Y-55688727D01*
X29445290Y-55785400D01*
X29660850Y-55785400D01*
X29819600Y-55626650D01*
X29819600Y-54877400D01*
X30073600Y-54877400D01*
X30073600Y-55626650D01*
X30232350Y-55785400D01*
X30447910Y-55785400D01*
X30681299Y-55688727D01*
X30859927Y-55510098D01*
X30956600Y-55276709D01*
X30956600Y-55036150D01*
X30797850Y-54877400D01*
X30073600Y-54877400D01*
X29819600Y-54877400D01*
X29095350Y-54877400D01*
X28936600Y-55036150D01*
X23754302Y-55036150D01*
X23677332Y-54876364D01*
X23261531Y-54504861D01*
X23571015Y-54298070D01*
X23744454Y-54038500D01*
X29013474Y-54038500D01*
X28936600Y-54224091D01*
X28936600Y-54464650D01*
X29095350Y-54623400D01*
X29819600Y-54623400D01*
X29819600Y-54603400D01*
X30073600Y-54603400D01*
X30073600Y-54623400D01*
X30797850Y-54623400D01*
X30956600Y-54464650D01*
X30956600Y-54224091D01*
X30859927Y-53990702D01*
X30858557Y-53989332D01*
X30918031Y-53902290D01*
X30969040Y-53650400D01*
X30969040Y-53064091D01*
X33541600Y-53064091D01*
X33541600Y-53304650D01*
X33700350Y-53463400D01*
X34899600Y-53463400D01*
X34899600Y-52714150D01*
X34740850Y-52555400D01*
X34050290Y-52555400D01*
X33816901Y-52652073D01*
X33638273Y-52830702D01*
X33541600Y-53064091D01*
X30969040Y-53064091D01*
X30969040Y-52850400D01*
X30924762Y-52615083D01*
X30785690Y-52398959D01*
X30746700Y-52372318D01*
X30746700Y-51366629D01*
X30818710Y-51415831D01*
X31070600Y-51466840D01*
X31870600Y-51466840D01*
X32105917Y-51422562D01*
X32322041Y-51283490D01*
X32348682Y-51244500D01*
X34772600Y-51244500D01*
X34806082Y-51237840D01*
X35876600Y-51237840D01*
X36111917Y-51193562D01*
X36328041Y-51054490D01*
X36473031Y-50842290D01*
X36524040Y-50590400D01*
X36524040Y-49790400D01*
X36479762Y-49555083D01*
X36340690Y-49338959D01*
X36128490Y-49193969D01*
X35876600Y-49142960D01*
X34176600Y-49142960D01*
X33941283Y-49187238D01*
X33725159Y-49326310D01*
X33580169Y-49538510D01*
X33558746Y-49644300D01*
X32351640Y-49644300D01*
X32334690Y-49617959D01*
X32122490Y-49472969D01*
X31870600Y-49421960D01*
X31070600Y-49421960D01*
X30835283Y-49466238D01*
X30746700Y-49523240D01*
X30746700Y-49015440D01*
X30773041Y-48998490D01*
X30816763Y-48934500D01*
X30986600Y-48934500D01*
X31292785Y-48873596D01*
X31552356Y-48700156D01*
X32132078Y-48120434D01*
X32172263Y-48120469D01*
X32531812Y-47971907D01*
X32630580Y-47873312D01*
X32814424Y-48057156D01*
G36*
X28811600Y-42926718D02*
X28811600Y-43300650D01*
X28970350Y-43459400D01*
X29819600Y-43459400D01*
X29819600Y-43439400D01*
X30073600Y-43439400D01*
X30073600Y-43459400D01*
X30093600Y-43459400D01*
X30093600Y-43713400D01*
X30073600Y-43713400D01*
X30073600Y-44687650D01*
X30232350Y-44846400D01*
X30327600Y-44846400D01*
X30327600Y-45588175D01*
X30321600Y-45586960D01*
X29571600Y-45586960D01*
X29336283Y-45631238D01*
X29120159Y-45770310D01*
X29076437Y-45834300D01*
X28779005Y-45834300D01*
X28753690Y-45794959D01*
X28541490Y-45649969D01*
X28289600Y-45598960D01*
X28023672Y-45598960D01*
X27477356Y-45052644D01*
X27217785Y-44879204D01*
X26911600Y-44818300D01*
X23990040Y-44818300D01*
X23990040Y-44754800D01*
X23945762Y-44519483D01*
X23806690Y-44303359D01*
X23594490Y-44158369D01*
X23342600Y-44107360D01*
X21310600Y-44107360D01*
X21075283Y-44151638D01*
X20859159Y-44290710D01*
X20714169Y-44502910D01*
X20663160Y-44754800D01*
X20663160Y-45872204D01*
X20370800Y-46164564D01*
X20370800Y-43872150D01*
X28811600Y-43872150D01*
X28811600Y-44337710D01*
X28908273Y-44571099D01*
X29086902Y-44749727D01*
X29320291Y-44846400D01*
X29660850Y-44846400D01*
X29819600Y-44687650D01*
X29819600Y-43713400D01*
X28970350Y-43713400D01*
X28811600Y-43872150D01*
X20370800Y-43872150D01*
X20370800Y-42829697D01*
X28811600Y-42926718D01*
X28811600Y-42926718D01*
G37*
X28811600Y-42926718D02*
X28811600Y-43300650D01*
X28970350Y-43459400D01*
X29819600Y-43459400D01*
X29819600Y-43439400D01*
X30073600Y-43439400D01*
X30073600Y-43459400D01*
X30093600Y-43459400D01*
X30093600Y-43713400D01*
X30073600Y-43713400D01*
X30073600Y-44687650D01*
X30232350Y-44846400D01*
X30327600Y-44846400D01*
X30327600Y-45588175D01*
X30321600Y-45586960D01*
X29571600Y-45586960D01*
X29336283Y-45631238D01*
X29120159Y-45770310D01*
X29076437Y-45834300D01*
X28779005Y-45834300D01*
X28753690Y-45794959D01*
X28541490Y-45649969D01*
X28289600Y-45598960D01*
X28023672Y-45598960D01*
X27477356Y-45052644D01*
X27217785Y-44879204D01*
X26911600Y-44818300D01*
X23990040Y-44818300D01*
X23990040Y-44754800D01*
X23945762Y-44519483D01*
X23806690Y-44303359D01*
X23594490Y-44158369D01*
X23342600Y-44107360D01*
X21310600Y-44107360D01*
X21075283Y-44151638D01*
X20859159Y-44290710D01*
X20714169Y-44502910D01*
X20663160Y-44754800D01*
X20663160Y-45872204D01*
X20370800Y-46164564D01*
X20370800Y-43872150D01*
X28811600Y-43872150D01*
X28811600Y-44337710D01*
X28908273Y-44571099D01*
X29086902Y-44749727D01*
X29320291Y-44846400D01*
X29660850Y-44846400D01*
X29819600Y-44687650D01*
X29819600Y-43713400D01*
X28970350Y-43713400D01*
X28811600Y-43872150D01*
X20370800Y-43872150D01*
X20370800Y-42829697D01*
X28811600Y-42926718D01*
G36*
X51592790Y-40746327D02*
X51509169Y-40868710D01*
X51494042Y-40943408D01*
X51470600Y-40966850D01*
X51470600Y-40996910D01*
X51479068Y-41017353D01*
X51458160Y-41120600D01*
X51458160Y-41370600D01*
X51482544Y-41500189D01*
X51458160Y-41620600D01*
X51458160Y-41870600D01*
X51482544Y-42000189D01*
X51458160Y-42120600D01*
X51458160Y-42370600D01*
X51482544Y-42500189D01*
X51458160Y-42620600D01*
X51458160Y-42870600D01*
X51482544Y-43000189D01*
X51458160Y-43120600D01*
X51458160Y-43370600D01*
X51482544Y-43500189D01*
X51458160Y-43620600D01*
X51458160Y-43870600D01*
X51482544Y-44000189D01*
X51458160Y-44120600D01*
X51458160Y-44370600D01*
X51482544Y-44500189D01*
X51458160Y-44620600D01*
X51458160Y-44870600D01*
X51482544Y-45000189D01*
X51458160Y-45120600D01*
X51458160Y-45370600D01*
X51471234Y-45440083D01*
X51329259Y-45297860D01*
X51244589Y-45262702D01*
X51244669Y-45170737D01*
X51096107Y-44811188D01*
X50821259Y-44535860D01*
X50461970Y-44386670D01*
X50368567Y-44386589D01*
X50334107Y-44303188D01*
X50059259Y-44027860D01*
X49699970Y-43878670D01*
X49310937Y-43878331D01*
X48951388Y-44026893D01*
X48907702Y-44070503D01*
X48907702Y-41554400D01*
X49865792Y-41554400D01*
X50157397Y-41496396D01*
X50404607Y-41331215D01*
X51107222Y-40628600D01*
X51517034Y-40628600D01*
X51592790Y-40746327D01*
X51592790Y-40746327D01*
G37*
X51592790Y-40746327D02*
X51509169Y-40868710D01*
X51494042Y-40943408D01*
X51470600Y-40966850D01*
X51470600Y-40996910D01*
X51479068Y-41017353D01*
X51458160Y-41120600D01*
X51458160Y-41370600D01*
X51482544Y-41500189D01*
X51458160Y-41620600D01*
X51458160Y-41870600D01*
X51482544Y-42000189D01*
X51458160Y-42120600D01*
X51458160Y-42370600D01*
X51482544Y-42500189D01*
X51458160Y-42620600D01*
X51458160Y-42870600D01*
X51482544Y-43000189D01*
X51458160Y-43120600D01*
X51458160Y-43370600D01*
X51482544Y-43500189D01*
X51458160Y-43620600D01*
X51458160Y-43870600D01*
X51482544Y-44000189D01*
X51458160Y-44120600D01*
X51458160Y-44370600D01*
X51482544Y-44500189D01*
X51458160Y-44620600D01*
X51458160Y-44870600D01*
X51482544Y-45000189D01*
X51458160Y-45120600D01*
X51458160Y-45370600D01*
X51471234Y-45440083D01*
X51329259Y-45297860D01*
X51244589Y-45262702D01*
X51244669Y-45170737D01*
X51096107Y-44811188D01*
X50821259Y-44535860D01*
X50461970Y-44386670D01*
X50368567Y-44386589D01*
X50334107Y-44303188D01*
X50059259Y-44027860D01*
X49699970Y-43878670D01*
X49310937Y-43878331D01*
X48951388Y-44026893D01*
X48907702Y-44070503D01*
X48907702Y-41554400D01*
X49865792Y-41554400D01*
X50157397Y-41496396D01*
X50404607Y-41331215D01*
X51107222Y-40628600D01*
X51517034Y-40628600D01*
X51592790Y-40746327D01*
G36*
X59588400Y-43968800D02*
X59608400Y-43968800D01*
X59608400Y-44222800D01*
X59588400Y-44222800D01*
X59588400Y-44242800D01*
X59334400Y-44242800D01*
X59334400Y-44222800D01*
X59314400Y-44222800D01*
X59314400Y-43968800D01*
X59334400Y-43968800D01*
X59334400Y-43948800D01*
X59588400Y-43948800D01*
X59588400Y-43968800D01*
X59588400Y-43968800D01*
G37*
X59588400Y-43968800D02*
X59608400Y-43968800D01*
X59608400Y-44222800D01*
X59588400Y-44222800D01*
X59588400Y-44242800D01*
X59334400Y-44242800D01*
X59334400Y-44222800D01*
X59314400Y-44222800D01*
X59314400Y-43968800D01*
X59334400Y-43968800D01*
X59334400Y-43948800D01*
X59588400Y-43948800D01*
X59588400Y-43968800D01*
G36*
X62839600Y-29489400D02*
X62859600Y-29489400D01*
X62859600Y-29743400D01*
X62839600Y-29743400D01*
X62839600Y-31102617D01*
X63071626Y-31223758D01*
X63087391Y-31221109D01*
X63614636Y-30967132D01*
X63986139Y-30551331D01*
X64192930Y-30860815D01*
X64363600Y-30974853D01*
X64363600Y-34950400D01*
X64431271Y-35290606D01*
X64623943Y-35578960D01*
X64623982Y-35579018D01*
X65887600Y-36842636D01*
X65887600Y-36861451D01*
X65597485Y-36570829D01*
X65143734Y-36382415D01*
X64652421Y-36381986D01*
X64198343Y-36569608D01*
X63850629Y-36916715D01*
X63779527Y-37087947D01*
X63750162Y-36931883D01*
X63611090Y-36715759D01*
X63398890Y-36570769D01*
X63147000Y-36519760D01*
X61747000Y-36519760D01*
X61511683Y-36564038D01*
X61295559Y-36703110D01*
X61150569Y-36915310D01*
X61099560Y-37167200D01*
X61099560Y-37438248D01*
X60941556Y-37280244D01*
X60681985Y-37106804D01*
X60375800Y-37045900D01*
X60184258Y-37084000D01*
X58589592Y-37084000D01*
X58467690Y-36894559D01*
X58255490Y-36749569D01*
X58003600Y-36698560D01*
X56753600Y-36698560D01*
X56518283Y-36742838D01*
X56302159Y-36881910D01*
X56157169Y-37094110D01*
X56106160Y-37346000D01*
X56106160Y-38346000D01*
X56150438Y-38581317D01*
X56289510Y-38797441D01*
X56357606Y-38843969D01*
X56215273Y-38986302D01*
X56118600Y-39219691D01*
X56118600Y-39560250D01*
X56277350Y-39719000D01*
X57251600Y-39719000D01*
X57251600Y-39699000D01*
X57505600Y-39699000D01*
X57505600Y-39719000D01*
X57525600Y-39719000D01*
X57525600Y-39973000D01*
X57505600Y-39973000D01*
X57505600Y-39993000D01*
X57251600Y-39993000D01*
X57251600Y-39973000D01*
X56277350Y-39973000D01*
X56118600Y-40131750D01*
X56118600Y-40472309D01*
X56133550Y-40508401D01*
X55003266Y-40508401D01*
X54980145Y-40513000D01*
X54040600Y-40513000D01*
X54040600Y-40494290D01*
X54032132Y-40473847D01*
X54053040Y-40370600D01*
X54053040Y-40120600D01*
X54009077Y-39886956D01*
X54034291Y-39897400D01*
X54274850Y-39897400D01*
X54433600Y-39738650D01*
X54433600Y-39014400D01*
X54687600Y-39014400D01*
X54687600Y-39738650D01*
X54846350Y-39897400D01*
X55086909Y-39897400D01*
X55320298Y-39800727D01*
X55498927Y-39622099D01*
X55595600Y-39388710D01*
X55595600Y-39173150D01*
X55436850Y-39014400D01*
X54687600Y-39014400D01*
X54433600Y-39014400D01*
X54413600Y-39014400D01*
X54413600Y-38760400D01*
X54433600Y-38760400D01*
X54433600Y-38036150D01*
X54687600Y-38036150D01*
X54687600Y-38760400D01*
X55436850Y-38760400D01*
X55595600Y-38601650D01*
X55595600Y-38386090D01*
X55498927Y-38152701D01*
X55320298Y-37974073D01*
X55086909Y-37877400D01*
X54846350Y-37877400D01*
X54687600Y-38036150D01*
X54433600Y-38036150D01*
X54274850Y-37877400D01*
X54034291Y-37877400D01*
X53800902Y-37974073D01*
X53799532Y-37975443D01*
X53712490Y-37915969D01*
X53460600Y-37864960D01*
X53154070Y-37864960D01*
X59794495Y-31224535D01*
X60172600Y-31299745D01*
X60746089Y-31185671D01*
X61232270Y-30860815D01*
X61439061Y-30551331D01*
X61810564Y-30967132D01*
X62337809Y-31221109D01*
X62353574Y-31223758D01*
X62585600Y-31102617D01*
X62585600Y-29743400D01*
X62565600Y-29743400D01*
X62565600Y-29489400D01*
X62585600Y-29489400D01*
X62585600Y-29469400D01*
X62839600Y-29469400D01*
X62839600Y-29489400D01*
X62839600Y-29489400D01*
G37*
X62839600Y-29489400D02*
X62859600Y-29489400D01*
X62859600Y-29743400D01*
X62839600Y-29743400D01*
X62839600Y-31102617D01*
X63071626Y-31223758D01*
X63087391Y-31221109D01*
X63614636Y-30967132D01*
X63986139Y-30551331D01*
X64192930Y-30860815D01*
X64363600Y-30974853D01*
X64363600Y-34950400D01*
X64431271Y-35290606D01*
X64623943Y-35578960D01*
X64623982Y-35579018D01*
X65887600Y-36842636D01*
X65887600Y-36861451D01*
X65597485Y-36570829D01*
X65143734Y-36382415D01*
X64652421Y-36381986D01*
X64198343Y-36569608D01*
X63850629Y-36916715D01*
X63779527Y-37087947D01*
X63750162Y-36931883D01*
X63611090Y-36715759D01*
X63398890Y-36570769D01*
X63147000Y-36519760D01*
X61747000Y-36519760D01*
X61511683Y-36564038D01*
X61295559Y-36703110D01*
X61150569Y-36915310D01*
X61099560Y-37167200D01*
X61099560Y-37438248D01*
X60941556Y-37280244D01*
X60681985Y-37106804D01*
X60375800Y-37045900D01*
X60184258Y-37084000D01*
X58589592Y-37084000D01*
X58467690Y-36894559D01*
X58255490Y-36749569D01*
X58003600Y-36698560D01*
X56753600Y-36698560D01*
X56518283Y-36742838D01*
X56302159Y-36881910D01*
X56157169Y-37094110D01*
X56106160Y-37346000D01*
X56106160Y-38346000D01*
X56150438Y-38581317D01*
X56289510Y-38797441D01*
X56357606Y-38843969D01*
X56215273Y-38986302D01*
X56118600Y-39219691D01*
X56118600Y-39560250D01*
X56277350Y-39719000D01*
X57251600Y-39719000D01*
X57251600Y-39699000D01*
X57505600Y-39699000D01*
X57505600Y-39719000D01*
X57525600Y-39719000D01*
X57525600Y-39973000D01*
X57505600Y-39973000D01*
X57505600Y-39993000D01*
X57251600Y-39993000D01*
X57251600Y-39973000D01*
X56277350Y-39973000D01*
X56118600Y-40131750D01*
X56118600Y-40472309D01*
X56133550Y-40508401D01*
X55003266Y-40508401D01*
X54980145Y-40513000D01*
X54040600Y-40513000D01*
X54040600Y-40494290D01*
X54032132Y-40473847D01*
X54053040Y-40370600D01*
X54053040Y-40120600D01*
X54009077Y-39886956D01*
X54034291Y-39897400D01*
X54274850Y-39897400D01*
X54433600Y-39738650D01*
X54433600Y-39014400D01*
X54687600Y-39014400D01*
X54687600Y-39738650D01*
X54846350Y-39897400D01*
X55086909Y-39897400D01*
X55320298Y-39800727D01*
X55498927Y-39622099D01*
X55595600Y-39388710D01*
X55595600Y-39173150D01*
X55436850Y-39014400D01*
X54687600Y-39014400D01*
X54433600Y-39014400D01*
X54413600Y-39014400D01*
X54413600Y-38760400D01*
X54433600Y-38760400D01*
X54433600Y-38036150D01*
X54687600Y-38036150D01*
X54687600Y-38760400D01*
X55436850Y-38760400D01*
X55595600Y-38601650D01*
X55595600Y-38386090D01*
X55498927Y-38152701D01*
X55320298Y-37974073D01*
X55086909Y-37877400D01*
X54846350Y-37877400D01*
X54687600Y-38036150D01*
X54433600Y-38036150D01*
X54274850Y-37877400D01*
X54034291Y-37877400D01*
X53800902Y-37974073D01*
X53799532Y-37975443D01*
X53712490Y-37915969D01*
X53460600Y-37864960D01*
X53154070Y-37864960D01*
X59794495Y-31224535D01*
X60172600Y-31299745D01*
X60746089Y-31185671D01*
X61232270Y-30860815D01*
X61439061Y-30551331D01*
X61810564Y-30967132D01*
X62337809Y-31221109D01*
X62353574Y-31223758D01*
X62585600Y-31102617D01*
X62585600Y-29743400D01*
X62565600Y-29743400D01*
X62565600Y-29489400D01*
X62585600Y-29489400D01*
X62585600Y-29469400D01*
X62839600Y-29469400D01*
X62839600Y-29489400D01*
G36*
X59588400Y-39140000D02*
X59608400Y-39140000D01*
X59608400Y-39394000D01*
X59588400Y-39394000D01*
X59588400Y-39414000D01*
X59334400Y-39414000D01*
X59334400Y-39394000D01*
X59314400Y-39394000D01*
X59314400Y-39140000D01*
X59334400Y-39140000D01*
X59334400Y-39120000D01*
X59588400Y-39120000D01*
X59588400Y-39140000D01*
X59588400Y-39140000D01*
G37*
X59588400Y-39140000D02*
X59608400Y-39140000D01*
X59608400Y-39394000D01*
X59588400Y-39394000D01*
X59588400Y-39414000D01*
X59334400Y-39414000D01*
X59334400Y-39394000D01*
X59314400Y-39394000D01*
X59314400Y-39140000D01*
X59334400Y-39140000D01*
X59334400Y-39120000D01*
X59588400Y-39120000D01*
X59588400Y-39140000D01*
G36*
X49226600Y-36474400D02*
X49246600Y-36474400D01*
X49246600Y-36696943D01*
X49195143Y-36748400D01*
X49123600Y-36748400D01*
X49123600Y-36454400D01*
X49226600Y-36454400D01*
X49226600Y-36474400D01*
X49226600Y-36474400D01*
G37*
X49226600Y-36474400D02*
X49246600Y-36474400D01*
X49246600Y-36696943D01*
X49195143Y-36748400D01*
X49123600Y-36748400D01*
X49123600Y-36454400D01*
X49226600Y-36454400D01*
X49226600Y-36474400D01*
G36*
X51492930Y-30860815D02*
X51790600Y-31059712D01*
X51790600Y-34152942D01*
X50049325Y-35894218D01*
X50037927Y-35866701D01*
X49859298Y-35688073D01*
X49625909Y-35591400D01*
X49385350Y-35591400D01*
X49226602Y-35750148D01*
X49226602Y-35591400D01*
X49123600Y-35591400D01*
X49123600Y-35142650D01*
X49226600Y-35039650D01*
X49226600Y-34315400D01*
X49480600Y-34315400D01*
X49480600Y-35039650D01*
X49639350Y-35198400D01*
X49879909Y-35198400D01*
X50113298Y-35101727D01*
X50291927Y-34923099D01*
X50388600Y-34689710D01*
X50388600Y-34474150D01*
X50229850Y-34315400D01*
X49480600Y-34315400D01*
X49226600Y-34315400D01*
X49206600Y-34315400D01*
X49206600Y-34061400D01*
X49226600Y-34061400D01*
X49226600Y-33337150D01*
X49480600Y-33337150D01*
X49480600Y-34061400D01*
X50229850Y-34061400D01*
X50388600Y-33902650D01*
X50388600Y-33687090D01*
X50291927Y-33453701D01*
X50113298Y-33275073D01*
X49879909Y-33178400D01*
X49639350Y-33178400D01*
X49480600Y-33337150D01*
X49226600Y-33337150D01*
X49067850Y-33178400D01*
X48937600Y-33178400D01*
X48937600Y-32023030D01*
X49719238Y-31241392D01*
X50012600Y-31299745D01*
X50586089Y-31185671D01*
X51072270Y-30860815D01*
X51282600Y-30546034D01*
X51492930Y-30860815D01*
X51492930Y-30860815D01*
G37*
X51492930Y-30860815D02*
X51790600Y-31059712D01*
X51790600Y-34152942D01*
X50049325Y-35894218D01*
X50037927Y-35866701D01*
X49859298Y-35688073D01*
X49625909Y-35591400D01*
X49385350Y-35591400D01*
X49226602Y-35750148D01*
X49226602Y-35591400D01*
X49123600Y-35591400D01*
X49123600Y-35142650D01*
X49226600Y-35039650D01*
X49226600Y-34315400D01*
X49480600Y-34315400D01*
X49480600Y-35039650D01*
X49639350Y-35198400D01*
X49879909Y-35198400D01*
X50113298Y-35101727D01*
X50291927Y-34923099D01*
X50388600Y-34689710D01*
X50388600Y-34474150D01*
X50229850Y-34315400D01*
X49480600Y-34315400D01*
X49226600Y-34315400D01*
X49206600Y-34315400D01*
X49206600Y-34061400D01*
X49226600Y-34061400D01*
X49226600Y-33337150D01*
X49480600Y-33337150D01*
X49480600Y-34061400D01*
X50229850Y-34061400D01*
X50388600Y-33902650D01*
X50388600Y-33687090D01*
X50291927Y-33453701D01*
X50113298Y-33275073D01*
X49879909Y-33178400D01*
X49639350Y-33178400D01*
X49480600Y-33337150D01*
X49226600Y-33337150D01*
X49067850Y-33178400D01*
X48937600Y-33178400D01*
X48937600Y-32023030D01*
X49719238Y-31241392D01*
X50012600Y-31299745D01*
X50586089Y-31185671D01*
X51072270Y-30860815D01*
X51282600Y-30546034D01*
X51492930Y-30860815D01*
G36*
X32073600Y-43459400D02*
X32093600Y-43459400D01*
X32093600Y-43713400D01*
X32073600Y-43713400D01*
X32073600Y-44687650D01*
X32232350Y-44846400D01*
X32572909Y-44846400D01*
X32806298Y-44749727D01*
X32947373Y-44608653D01*
X32963785Y-44633215D01*
X33890886Y-45560317D01*
X34014987Y-45643238D01*
X34109939Y-45706683D01*
X34197093Y-45917612D01*
X34471941Y-46192940D01*
X34617545Y-46253400D01*
X33273692Y-46253400D01*
X32885734Y-45865442D01*
X32626163Y-45692002D01*
X32319978Y-45631098D01*
X31089600Y-45631098D01*
X31089600Y-44750845D01*
X31320291Y-44846400D01*
X31660850Y-44846400D01*
X31819600Y-44687650D01*
X31819600Y-43713400D01*
X31799600Y-43713400D01*
X31799600Y-43459400D01*
X31819600Y-43459400D01*
X31819600Y-43439400D01*
X32073600Y-43439400D01*
X32073600Y-43459400D01*
X32073600Y-43459400D01*
G37*
X32073600Y-43459400D02*
X32093600Y-43459400D01*
X32093600Y-43713400D01*
X32073600Y-43713400D01*
X32073600Y-44687650D01*
X32232350Y-44846400D01*
X32572909Y-44846400D01*
X32806298Y-44749727D01*
X32947373Y-44608653D01*
X32963785Y-44633215D01*
X33890886Y-45560317D01*
X34014987Y-45643238D01*
X34109939Y-45706683D01*
X34197093Y-45917612D01*
X34471941Y-46192940D01*
X34617545Y-46253400D01*
X33273692Y-46253400D01*
X32885734Y-45865442D01*
X32626163Y-45692002D01*
X32319978Y-45631098D01*
X31089600Y-45631098D01*
X31089600Y-44750845D01*
X31320291Y-44846400D01*
X31660850Y-44846400D01*
X31819600Y-44687650D01*
X31819600Y-43713400D01*
X31799600Y-43713400D01*
X31799600Y-43459400D01*
X31819600Y-43459400D01*
X31819600Y-43439400D01*
X32073600Y-43439400D01*
X32073600Y-43459400D01*
G36*
X38582600Y-41566400D02*
X38602600Y-41566400D01*
X38602600Y-41820400D01*
X38582600Y-41820400D01*
X38582600Y-41840400D01*
X38328600Y-41840400D01*
X38328600Y-41820400D01*
X37604350Y-41820400D01*
X37445600Y-41979150D01*
X37445600Y-42219709D01*
X37542273Y-42453098D01*
X37543643Y-42454468D01*
X37484169Y-42541510D01*
X37433160Y-42793400D01*
X37433160Y-43593400D01*
X37477438Y-43828717D01*
X37616510Y-44044841D01*
X37828710Y-44189831D01*
X38080600Y-44240840D01*
X38830600Y-44240840D01*
X39065917Y-44196562D01*
X39077047Y-44189400D01*
X39403608Y-44189400D01*
X39525510Y-44378841D01*
X39643549Y-44459493D01*
X39538159Y-44527310D01*
X39393169Y-44739510D01*
X39342160Y-44991400D01*
X39342160Y-45991400D01*
X39386438Y-46226717D01*
X39403608Y-46253400D01*
X35435827Y-46253400D01*
X35579812Y-46193907D01*
X35855140Y-45919059D01*
X36004330Y-45559770D01*
X36004669Y-45170737D01*
X35874652Y-44856070D01*
X36004330Y-44543770D01*
X36004669Y-44154737D01*
X35963968Y-44056232D01*
X36236263Y-44056469D01*
X36595812Y-43907907D01*
X36871140Y-43633059D01*
X37020330Y-43273770D01*
X37020669Y-42884737D01*
X36872107Y-42525188D01*
X36804600Y-42457563D01*
X36804600Y-41745785D01*
X36863230Y-41770130D01*
X37252263Y-41770469D01*
X37611812Y-41621907D01*
X37667416Y-41566400D01*
X38328600Y-41566400D01*
X38328600Y-41546400D01*
X38582600Y-41546400D01*
X38582600Y-41566400D01*
X38582600Y-41566400D01*
G37*
X38582600Y-41566400D02*
X38602600Y-41566400D01*
X38602600Y-41820400D01*
X38582600Y-41820400D01*
X38582600Y-41840400D01*
X38328600Y-41840400D01*
X38328600Y-41820400D01*
X37604350Y-41820400D01*
X37445600Y-41979150D01*
X37445600Y-42219709D01*
X37542273Y-42453098D01*
X37543643Y-42454468D01*
X37484169Y-42541510D01*
X37433160Y-42793400D01*
X37433160Y-43593400D01*
X37477438Y-43828717D01*
X37616510Y-44044841D01*
X37828710Y-44189831D01*
X38080600Y-44240840D01*
X38830600Y-44240840D01*
X39065917Y-44196562D01*
X39077047Y-44189400D01*
X39403608Y-44189400D01*
X39525510Y-44378841D01*
X39643549Y-44459493D01*
X39538159Y-44527310D01*
X39393169Y-44739510D01*
X39342160Y-44991400D01*
X39342160Y-45991400D01*
X39386438Y-46226717D01*
X39403608Y-46253400D01*
X35435827Y-46253400D01*
X35579812Y-46193907D01*
X35855140Y-45919059D01*
X36004330Y-45559770D01*
X36004669Y-45170737D01*
X35874652Y-44856070D01*
X36004330Y-44543770D01*
X36004669Y-44154737D01*
X35963968Y-44056232D01*
X36236263Y-44056469D01*
X36595812Y-43907907D01*
X36871140Y-43633059D01*
X37020330Y-43273770D01*
X37020669Y-42884737D01*
X36872107Y-42525188D01*
X36804600Y-42457563D01*
X36804600Y-41745785D01*
X36863230Y-41770130D01*
X37252263Y-41770469D01*
X37611812Y-41621907D01*
X37667416Y-41566400D01*
X38328600Y-41566400D01*
X38328600Y-41546400D01*
X38582600Y-41546400D01*
X38582600Y-41566400D01*
G36*
X20574000Y-29330650D02*
X20732750Y-29489400D01*
X21945600Y-29489400D01*
X21945600Y-29469400D01*
X22199600Y-29469400D01*
X22199600Y-29489400D01*
X22219600Y-29489400D01*
X22219600Y-29743400D01*
X22199600Y-29743400D01*
X22199600Y-31108650D01*
X22358350Y-31267400D01*
X23062510Y-31267400D01*
X23295899Y-31170727D01*
X23474527Y-30992098D01*
X23538100Y-30838620D01*
X23552930Y-30860815D01*
X23850600Y-31059712D01*
X23850600Y-33172400D01*
X23908604Y-33464005D01*
X24028068Y-33642795D01*
X24073785Y-33711215D01*
X31256278Y-40893708D01*
X31150060Y-40999741D01*
X31000870Y-41359030D01*
X31000531Y-41748063D01*
X31149093Y-42107612D01*
X31367500Y-42326400D01*
X31320291Y-42326400D01*
X31089600Y-42421955D01*
X31089600Y-42316400D01*
X31079594Y-42266990D01*
X31051153Y-42225365D01*
X31008759Y-42198085D01*
X30964060Y-42189408D01*
X21895061Y-42085166D01*
X22034330Y-41749770D01*
X22034669Y-41360737D01*
X21886107Y-41001188D01*
X21611259Y-40725860D01*
X21251970Y-40576670D01*
X20862937Y-40576331D01*
X20503388Y-40724893D01*
X20370800Y-40857250D01*
X20370800Y-29902150D01*
X20574000Y-29902150D01*
X20574000Y-30758709D01*
X20670673Y-30992098D01*
X20849301Y-31170727D01*
X21082690Y-31267400D01*
X21786850Y-31267400D01*
X21945600Y-31108650D01*
X21945600Y-29743400D01*
X20732750Y-29743400D01*
X20574000Y-29902150D01*
X20370800Y-29902150D01*
X20370800Y-29686449D01*
X20474545Y-29164884D01*
X20574000Y-29016041D01*
X20574000Y-29330650D01*
X20574000Y-29330650D01*
G37*
X20574000Y-29330650D02*
X20732750Y-29489400D01*
X21945600Y-29489400D01*
X21945600Y-29469400D01*
X22199600Y-29469400D01*
X22199600Y-29489400D01*
X22219600Y-29489400D01*
X22219600Y-29743400D01*
X22199600Y-29743400D01*
X22199600Y-31108650D01*
X22358350Y-31267400D01*
X23062510Y-31267400D01*
X23295899Y-31170727D01*
X23474527Y-30992098D01*
X23538100Y-30838620D01*
X23552930Y-30860815D01*
X23850600Y-31059712D01*
X23850600Y-33172400D01*
X23908604Y-33464005D01*
X24028068Y-33642795D01*
X24073785Y-33711215D01*
X31256278Y-40893708D01*
X31150060Y-40999741D01*
X31000870Y-41359030D01*
X31000531Y-41748063D01*
X31149093Y-42107612D01*
X31367500Y-42326400D01*
X31320291Y-42326400D01*
X31089600Y-42421955D01*
X31089600Y-42316400D01*
X31079594Y-42266990D01*
X31051153Y-42225365D01*
X31008759Y-42198085D01*
X30964060Y-42189408D01*
X21895061Y-42085166D01*
X22034330Y-41749770D01*
X22034669Y-41360737D01*
X21886107Y-41001188D01*
X21611259Y-40725860D01*
X21251970Y-40576670D01*
X20862937Y-40576331D01*
X20503388Y-40724893D01*
X20370800Y-40857250D01*
X20370800Y-29902150D01*
X20574000Y-29902150D01*
X20574000Y-30758709D01*
X20670673Y-30992098D01*
X20849301Y-31170727D01*
X21082690Y-31267400D01*
X21786850Y-31267400D01*
X21945600Y-31108650D01*
X21945600Y-29743400D01*
X20732750Y-29743400D01*
X20574000Y-29902150D01*
X20370800Y-29902150D01*
X20370800Y-29686449D01*
X20474545Y-29164884D01*
X20574000Y-29016041D01*
X20574000Y-29330650D01*
G36*
X40741600Y-41300400D02*
X40761600Y-41300400D01*
X40761600Y-41554400D01*
X40741600Y-41554400D01*
X40741600Y-41574400D01*
X40487600Y-41574400D01*
X40487600Y-41554400D01*
X40467600Y-41554400D01*
X40467600Y-41300400D01*
X40487600Y-41300400D01*
X40487600Y-41280400D01*
X40741600Y-41280400D01*
X40741600Y-41300400D01*
X40741600Y-41300400D01*
G37*
X40741600Y-41300400D02*
X40761600Y-41300400D01*
X40761600Y-41554400D01*
X40741600Y-41554400D01*
X40741600Y-41574400D01*
X40487600Y-41574400D01*
X40487600Y-41554400D01*
X40467600Y-41554400D01*
X40467600Y-41300400D01*
X40487600Y-41300400D01*
X40487600Y-41280400D01*
X40741600Y-41280400D01*
X40741600Y-41300400D01*
D34*
X31978600Y-41554400D03*
X21056600Y-41554400D03*
X48996600Y-42824400D03*
X50647600Y-44221400D03*
X51155600Y-34315400D03*
X28422600Y-43586400D03*
X49250600Y-59080400D03*
X46202600Y-60604400D03*
X30962600Y-54762400D03*
X33248600Y-53746400D03*
X63637194Y-54670994D03*
X52806600Y-47396400D03*
X58625566Y-43815023D03*
X50647600Y-41371983D03*
X54584600Y-37490400D03*
X49504600Y-35458400D03*
X54584600Y-40157400D03*
X48711724Y-40029268D03*
X63474600Y-50698400D03*
X58581200Y-39522400D03*
X45275490Y-46147042D03*
X42619601Y-46365399D03*
X41614968Y-41419439D03*
X31978600Y-45364400D03*
X39090600Y-41427400D03*
X31978600Y-47142400D03*
X49600139Y-40061861D03*
X46629209Y-44375530D03*
X47472600Y-44094400D03*
X35026600Y-45364400D03*
X42138600Y-45364400D03*
X45110398Y-44737175D03*
X35026600Y-44348400D03*
X35026600Y-43332400D03*
X42392600Y-43840400D03*
X45948600Y-35712400D03*
X45694600Y-40030400D03*
X42628345Y-54240047D03*
X48339922Y-45831155D03*
X43327209Y-54789530D03*
X49504600Y-44856400D03*
X44170600Y-54508400D03*
X50266600Y-45364400D03*
X45013991Y-54789530D03*
X50774600Y-46126400D03*
X53849185Y-46892309D03*
X54737839Y-46867078D03*
X55619729Y-46979386D03*
X56447555Y-46655277D03*
X56713941Y-45788399D03*
X57651011Y-45826733D03*
X57574781Y-44712353D03*
X59133282Y-45318932D03*
X45509570Y-43547054D03*
X36042600Y-43078400D03*
X37058600Y-40792400D03*
X45440600Y-42570400D03*
D35*
X64897000Y-44717200D03*
X64897000Y-37617200D03*
X22072600Y-29616400D03*
X24612600Y-29616400D03*
X27152600Y-29616400D03*
X29692600Y-29616400D03*
X32232600Y-29616400D03*
X34772600Y-29616400D03*
X37312600Y-29616400D03*
X39852600Y-29616400D03*
X42392600Y-29616400D03*
X44932600Y-29616400D03*
X47472600Y-29616400D03*
X50012600Y-29616400D03*
X52552600Y-29616400D03*
X55092600Y-29616400D03*
X57632600Y-29616400D03*
X60172600Y-29616400D03*
X62712600Y-29616400D03*
X65252600Y-29616400D03*
X22072600Y-62636400D03*
X24612600Y-62636400D03*
X27152600Y-62636400D03*
X29692600Y-62636400D03*
X32232600Y-62636400D03*
X34772600Y-62636400D03*
X37312600Y-62636400D03*
X39852600Y-62636400D03*
X42392600Y-62636400D03*
X44932600Y-62636400D03*
X47472600Y-62636400D03*
X50012600Y-62636400D03*
X52552600Y-62636400D03*
X55092600Y-62636400D03*
X57632600Y-62636400D03*
X60172600Y-62636400D03*
X62712600Y-62636400D03*
X65252600Y-62636400D03*
X22326600Y-45618400D03*
X22326600Y-48158400D03*
X22326600Y-50698400D03*
X22326600Y-53238400D03*
X22326600Y-55778400D03*
M02*
