M48
;DRILL file {KiCad 4.0.5-e0-6337~49~ubuntu16.04.1} date Sat Aug  5 13:29:44 2017
;FORMAT={-:-/ absolute / metric / decimal}
FMAT,2
METRIC,TZ
T1C0.330
T2C1.016
T3C1.200
%
G90
G05
M71
T1
X63.754Y-70.358
X71.12Y-72.39
X73.66Y-83.566
X74.676Y-70.358
X74.676Y-74.168
X74.676Y-75.946
X75.946Y-82.55
X77.724Y-72.136
X77.724Y-73.152
X77.724Y-74.168
X78.74Y-71.882
X79.756Y-69.596
X81.788Y-70.231
X84.312Y-70.223
X84.836Y-74.168
X85.09Y-72.644
X85.317Y-75.169
X85.326Y-83.044
X86.025Y-83.593
X86.868Y-83.312
X87.711Y-83.593
X87.808Y-73.541
X87.973Y-74.951
X88.138Y-71.374
X88.207Y-72.351
X88.392Y-68.834
X88.646Y-64.516
X88.9Y-89.408
X89.327Y-73.179
X90.17Y-72.898
X91.037Y-74.635
X91.409Y-68.833
X91.694Y-71.628
X91.948Y-87.884
X92.202Y-64.262
X92.202Y-73.66
X92.298Y-68.865
X92.964Y-74.168
X93.345Y-70.176
X93.345Y-73.025
X93.472Y-74.93
X93.853Y-63.119
X95.504Y-76.2
X96.547Y-75.696
X97.282Y-66.294
X97.282Y-68.961
X97.435Y-75.671
X98.317Y-75.783
X99.145Y-75.459
X99.411Y-74.592
X100.272Y-73.516
X100.348Y-74.63
X101.279Y-68.326
X101.323Y-72.619
X101.831Y-74.123
X106.172Y-79.502
X106.335Y-83.475
T2
X64.77Y-58.42
X64.77Y-91.44
X65.024Y-74.422
X65.024Y-76.962
X65.024Y-79.502
X65.024Y-82.042
X65.024Y-84.582
X67.31Y-58.42
X67.31Y-91.44
X69.85Y-58.42
X69.85Y-91.44
X72.39Y-58.42
X72.39Y-91.44
X74.93Y-58.42
X74.93Y-91.44
X77.47Y-58.42
X77.47Y-91.44
X80.01Y-58.42
X80.01Y-91.44
X82.55Y-58.42
X82.55Y-91.44
X85.09Y-58.42
X85.09Y-91.44
X87.63Y-58.42
X87.63Y-91.44
X90.17Y-58.42
X90.17Y-91.44
X92.71Y-58.42
X92.71Y-91.44
X95.25Y-58.42
X95.25Y-91.44
X97.79Y-58.42
X97.79Y-91.44
X100.33Y-58.42
X100.33Y-91.44
X102.87Y-58.42
X102.87Y-91.44
X105.41Y-58.42
X105.41Y-91.44
X107.95Y-58.42
X107.95Y-91.44
T3
X107.594Y-66.421
X107.594Y-73.521
T0
M30
