%TF.GenerationSoftware,KiCad,Pcbnew,4.0.5-e0-6337~49~ubuntu16.04.1*%
%TF.CreationDate,2017-08-14T14:58:42-07:00*%
%TF.ProjectId,atsamd21g18-breakout,617473616D6432316731382D62726561,1.0*%
%TF.FileFunction,Soldermask,Top*%
%FSLAX46Y46*%
G04 Gerber Fmt 4.6, Leading zero omitted, Abs format (unit mm)*
G04 Created by KiCad (PCBNEW 4.0.5-e0-6337~49~ubuntu16.04.1) date Mon Aug 14 14:58:42 2017*
%MOMM*%
%LPD*%
G01*
G04 APERTURE LIST*
%ADD10C,0.350000*%
G04 APERTURE END LIST*
D10*
G36*
X45121526Y-61558105D02*
X45121573Y-61558110D01*
X45296787Y-61612348D01*
X45458129Y-61699585D01*
X45599455Y-61816500D01*
X45715379Y-61958638D01*
X45801488Y-62120585D01*
X45854502Y-62296174D01*
X45872400Y-62478715D01*
X45872400Y-62794117D01*
X45872323Y-62805149D01*
X45872322Y-62805154D01*
X45872308Y-62807207D01*
X45851863Y-62989480D01*
X45796403Y-63164312D01*
X45708042Y-63325041D01*
X45590144Y-63465546D01*
X45447200Y-63580476D01*
X45284655Y-63665452D01*
X45108701Y-63717239D01*
X45108660Y-63717243D01*
X45108656Y-63717244D01*
X44926042Y-63733863D01*
X44743674Y-63714695D01*
X44743627Y-63714690D01*
X44568413Y-63660452D01*
X44407071Y-63573215D01*
X44265745Y-63456300D01*
X44149821Y-63314162D01*
X44063712Y-63152215D01*
X44010698Y-62976626D01*
X43992800Y-62794085D01*
X43992800Y-62478683D01*
X43992877Y-62467651D01*
X43992878Y-62467646D01*
X43992892Y-62465593D01*
X44013337Y-62283320D01*
X44068797Y-62108488D01*
X44157158Y-61947759D01*
X44275056Y-61807254D01*
X44418000Y-61692324D01*
X44580545Y-61607348D01*
X44756499Y-61555561D01*
X44756540Y-61555557D01*
X44756544Y-61555556D01*
X44939158Y-61538937D01*
X45121526Y-61558105D01*
X45121526Y-61558105D01*
G37*
G36*
X65441526Y-61558105D02*
X65441573Y-61558110D01*
X65616787Y-61612348D01*
X65778129Y-61699585D01*
X65919455Y-61816500D01*
X66035379Y-61958638D01*
X66121488Y-62120585D01*
X66174502Y-62296174D01*
X66192400Y-62478715D01*
X66192400Y-62794117D01*
X66192323Y-62805149D01*
X66192322Y-62805154D01*
X66192308Y-62807207D01*
X66171863Y-62989480D01*
X66116403Y-63164312D01*
X66028042Y-63325041D01*
X65910144Y-63465546D01*
X65767200Y-63580476D01*
X65604655Y-63665452D01*
X65428701Y-63717239D01*
X65428660Y-63717243D01*
X65428656Y-63717244D01*
X65246042Y-63733863D01*
X65063674Y-63714695D01*
X65063627Y-63714690D01*
X64888413Y-63660452D01*
X64727071Y-63573215D01*
X64585745Y-63456300D01*
X64469821Y-63314162D01*
X64383712Y-63152215D01*
X64330698Y-62976626D01*
X64312800Y-62794085D01*
X64312800Y-62478683D01*
X64312877Y-62467651D01*
X64312878Y-62467646D01*
X64312892Y-62465593D01*
X64333337Y-62283320D01*
X64388797Y-62108488D01*
X64477158Y-61947759D01*
X64595056Y-61807254D01*
X64738000Y-61692324D01*
X64900545Y-61607348D01*
X65076499Y-61555561D01*
X65076540Y-61555557D01*
X65076544Y-61555556D01*
X65259158Y-61538937D01*
X65441526Y-61558105D01*
X65441526Y-61558105D01*
G37*
G36*
X24801526Y-61558105D02*
X24801573Y-61558110D01*
X24976787Y-61612348D01*
X25138129Y-61699585D01*
X25279455Y-61816500D01*
X25395379Y-61958638D01*
X25481488Y-62120585D01*
X25534502Y-62296174D01*
X25552400Y-62478715D01*
X25552400Y-62794117D01*
X25552323Y-62805149D01*
X25552322Y-62805154D01*
X25552308Y-62807207D01*
X25531863Y-62989480D01*
X25476403Y-63164312D01*
X25388042Y-63325041D01*
X25270144Y-63465546D01*
X25127200Y-63580476D01*
X24964655Y-63665452D01*
X24788701Y-63717239D01*
X24788660Y-63717243D01*
X24788656Y-63717244D01*
X24606042Y-63733863D01*
X24423674Y-63714695D01*
X24423627Y-63714690D01*
X24248413Y-63660452D01*
X24087071Y-63573215D01*
X23945745Y-63456300D01*
X23829821Y-63314162D01*
X23743712Y-63152215D01*
X23690698Y-62976626D01*
X23672800Y-62794085D01*
X23672800Y-62478683D01*
X23672877Y-62467651D01*
X23672878Y-62467646D01*
X23672892Y-62465593D01*
X23693337Y-62283320D01*
X23748797Y-62108488D01*
X23837158Y-61947759D01*
X23955056Y-61807254D01*
X24098000Y-61692324D01*
X24260545Y-61607348D01*
X24436499Y-61555561D01*
X24436540Y-61555557D01*
X24436544Y-61555556D01*
X24619158Y-61538937D01*
X24801526Y-61558105D01*
X24801526Y-61558105D01*
G37*
G36*
X62901526Y-61558105D02*
X62901573Y-61558110D01*
X63076787Y-61612348D01*
X63238129Y-61699585D01*
X63379455Y-61816500D01*
X63495379Y-61958638D01*
X63581488Y-62120585D01*
X63634502Y-62296174D01*
X63652400Y-62478715D01*
X63652400Y-62794117D01*
X63652323Y-62805149D01*
X63652322Y-62805154D01*
X63652308Y-62807207D01*
X63631863Y-62989480D01*
X63576403Y-63164312D01*
X63488042Y-63325041D01*
X63370144Y-63465546D01*
X63227200Y-63580476D01*
X63064655Y-63665452D01*
X62888701Y-63717239D01*
X62888660Y-63717243D01*
X62888656Y-63717244D01*
X62706042Y-63733863D01*
X62523674Y-63714695D01*
X62523627Y-63714690D01*
X62348413Y-63660452D01*
X62187071Y-63573215D01*
X62045745Y-63456300D01*
X61929821Y-63314162D01*
X61843712Y-63152215D01*
X61790698Y-62976626D01*
X61772800Y-62794085D01*
X61772800Y-62478683D01*
X61772877Y-62467651D01*
X61772878Y-62467646D01*
X61772892Y-62465593D01*
X61793337Y-62283320D01*
X61848797Y-62108488D01*
X61937158Y-61947759D01*
X62055056Y-61807254D01*
X62198000Y-61692324D01*
X62360545Y-61607348D01*
X62536499Y-61555561D01*
X62536540Y-61555557D01*
X62536544Y-61555556D01*
X62719158Y-61538937D01*
X62901526Y-61558105D01*
X62901526Y-61558105D01*
G37*
G36*
X60361526Y-61558105D02*
X60361573Y-61558110D01*
X60536787Y-61612348D01*
X60698129Y-61699585D01*
X60839455Y-61816500D01*
X60955379Y-61958638D01*
X61041488Y-62120585D01*
X61094502Y-62296174D01*
X61112400Y-62478715D01*
X61112400Y-62794117D01*
X61112323Y-62805149D01*
X61112322Y-62805154D01*
X61112308Y-62807207D01*
X61091863Y-62989480D01*
X61036403Y-63164312D01*
X60948042Y-63325041D01*
X60830144Y-63465546D01*
X60687200Y-63580476D01*
X60524655Y-63665452D01*
X60348701Y-63717239D01*
X60348660Y-63717243D01*
X60348656Y-63717244D01*
X60166042Y-63733863D01*
X59983674Y-63714695D01*
X59983627Y-63714690D01*
X59808413Y-63660452D01*
X59647071Y-63573215D01*
X59505745Y-63456300D01*
X59389821Y-63314162D01*
X59303712Y-63152215D01*
X59250698Y-62976626D01*
X59232800Y-62794085D01*
X59232800Y-62478683D01*
X59232877Y-62467651D01*
X59232878Y-62467646D01*
X59232892Y-62465593D01*
X59253337Y-62283320D01*
X59308797Y-62108488D01*
X59397158Y-61947759D01*
X59515056Y-61807254D01*
X59658000Y-61692324D01*
X59820545Y-61607348D01*
X59996499Y-61555561D01*
X59996540Y-61555557D01*
X59996544Y-61555556D01*
X60179158Y-61538937D01*
X60361526Y-61558105D01*
X60361526Y-61558105D01*
G37*
G36*
X57821526Y-61558105D02*
X57821573Y-61558110D01*
X57996787Y-61612348D01*
X58158129Y-61699585D01*
X58299455Y-61816500D01*
X58415379Y-61958638D01*
X58501488Y-62120585D01*
X58554502Y-62296174D01*
X58572400Y-62478715D01*
X58572400Y-62794117D01*
X58572323Y-62805149D01*
X58572322Y-62805154D01*
X58572308Y-62807207D01*
X58551863Y-62989480D01*
X58496403Y-63164312D01*
X58408042Y-63325041D01*
X58290144Y-63465546D01*
X58147200Y-63580476D01*
X57984655Y-63665452D01*
X57808701Y-63717239D01*
X57808660Y-63717243D01*
X57808656Y-63717244D01*
X57626042Y-63733863D01*
X57443674Y-63714695D01*
X57443627Y-63714690D01*
X57268413Y-63660452D01*
X57107071Y-63573215D01*
X56965745Y-63456300D01*
X56849821Y-63314162D01*
X56763712Y-63152215D01*
X56710698Y-62976626D01*
X56692800Y-62794085D01*
X56692800Y-62478683D01*
X56692877Y-62467651D01*
X56692878Y-62467646D01*
X56692892Y-62465593D01*
X56713337Y-62283320D01*
X56768797Y-62108488D01*
X56857158Y-61947759D01*
X56975056Y-61807254D01*
X57118000Y-61692324D01*
X57280545Y-61607348D01*
X57456499Y-61555561D01*
X57456540Y-61555557D01*
X57456544Y-61555556D01*
X57639158Y-61538937D01*
X57821526Y-61558105D01*
X57821526Y-61558105D01*
G37*
G36*
X55281526Y-61558105D02*
X55281573Y-61558110D01*
X55456787Y-61612348D01*
X55618129Y-61699585D01*
X55759455Y-61816500D01*
X55875379Y-61958638D01*
X55961488Y-62120585D01*
X56014502Y-62296174D01*
X56032400Y-62478715D01*
X56032400Y-62794117D01*
X56032323Y-62805149D01*
X56032322Y-62805154D01*
X56032308Y-62807207D01*
X56011863Y-62989480D01*
X55956403Y-63164312D01*
X55868042Y-63325041D01*
X55750144Y-63465546D01*
X55607200Y-63580476D01*
X55444655Y-63665452D01*
X55268701Y-63717239D01*
X55268660Y-63717243D01*
X55268656Y-63717244D01*
X55086042Y-63733863D01*
X54903674Y-63714695D01*
X54903627Y-63714690D01*
X54728413Y-63660452D01*
X54567071Y-63573215D01*
X54425745Y-63456300D01*
X54309821Y-63314162D01*
X54223712Y-63152215D01*
X54170698Y-62976626D01*
X54152800Y-62794085D01*
X54152800Y-62478683D01*
X54152877Y-62467651D01*
X54152878Y-62467646D01*
X54152892Y-62465593D01*
X54173337Y-62283320D01*
X54228797Y-62108488D01*
X54317158Y-61947759D01*
X54435056Y-61807254D01*
X54578000Y-61692324D01*
X54740545Y-61607348D01*
X54916499Y-61555561D01*
X54916540Y-61555557D01*
X54916544Y-61555556D01*
X55099158Y-61538937D01*
X55281526Y-61558105D01*
X55281526Y-61558105D01*
G37*
G36*
X52741526Y-61558105D02*
X52741573Y-61558110D01*
X52916787Y-61612348D01*
X53078129Y-61699585D01*
X53219455Y-61816500D01*
X53335379Y-61958638D01*
X53421488Y-62120585D01*
X53474502Y-62296174D01*
X53492400Y-62478715D01*
X53492400Y-62794117D01*
X53492323Y-62805149D01*
X53492322Y-62805154D01*
X53492308Y-62807207D01*
X53471863Y-62989480D01*
X53416403Y-63164312D01*
X53328042Y-63325041D01*
X53210144Y-63465546D01*
X53067200Y-63580476D01*
X52904655Y-63665452D01*
X52728701Y-63717239D01*
X52728660Y-63717243D01*
X52728656Y-63717244D01*
X52546042Y-63733863D01*
X52363674Y-63714695D01*
X52363627Y-63714690D01*
X52188413Y-63660452D01*
X52027071Y-63573215D01*
X51885745Y-63456300D01*
X51769821Y-63314162D01*
X51683712Y-63152215D01*
X51630698Y-62976626D01*
X51612800Y-62794085D01*
X51612800Y-62478683D01*
X51612877Y-62467651D01*
X51612878Y-62467646D01*
X51612892Y-62465593D01*
X51633337Y-62283320D01*
X51688797Y-62108488D01*
X51777158Y-61947759D01*
X51895056Y-61807254D01*
X52038000Y-61692324D01*
X52200545Y-61607348D01*
X52376499Y-61555561D01*
X52376540Y-61555557D01*
X52376544Y-61555556D01*
X52559158Y-61538937D01*
X52741526Y-61558105D01*
X52741526Y-61558105D01*
G37*
G36*
X50201526Y-61558105D02*
X50201573Y-61558110D01*
X50376787Y-61612348D01*
X50538129Y-61699585D01*
X50679455Y-61816500D01*
X50795379Y-61958638D01*
X50881488Y-62120585D01*
X50934502Y-62296174D01*
X50952400Y-62478715D01*
X50952400Y-62794117D01*
X50952323Y-62805149D01*
X50952322Y-62805154D01*
X50952308Y-62807207D01*
X50931863Y-62989480D01*
X50876403Y-63164312D01*
X50788042Y-63325041D01*
X50670144Y-63465546D01*
X50527200Y-63580476D01*
X50364655Y-63665452D01*
X50188701Y-63717239D01*
X50188660Y-63717243D01*
X50188656Y-63717244D01*
X50006042Y-63733863D01*
X49823674Y-63714695D01*
X49823627Y-63714690D01*
X49648413Y-63660452D01*
X49487071Y-63573215D01*
X49345745Y-63456300D01*
X49229821Y-63314162D01*
X49143712Y-63152215D01*
X49090698Y-62976626D01*
X49072800Y-62794085D01*
X49072800Y-62478683D01*
X49072877Y-62467651D01*
X49072878Y-62467646D01*
X49072892Y-62465593D01*
X49093337Y-62283320D01*
X49148797Y-62108488D01*
X49237158Y-61947759D01*
X49355056Y-61807254D01*
X49498000Y-61692324D01*
X49660545Y-61607348D01*
X49836499Y-61555561D01*
X49836540Y-61555557D01*
X49836544Y-61555556D01*
X50019158Y-61538937D01*
X50201526Y-61558105D01*
X50201526Y-61558105D01*
G37*
G36*
X42581526Y-61558105D02*
X42581573Y-61558110D01*
X42756787Y-61612348D01*
X42918129Y-61699585D01*
X43059455Y-61816500D01*
X43175379Y-61958638D01*
X43261488Y-62120585D01*
X43314502Y-62296174D01*
X43332400Y-62478715D01*
X43332400Y-62794117D01*
X43332323Y-62805149D01*
X43332322Y-62805154D01*
X43332308Y-62807207D01*
X43311863Y-62989480D01*
X43256403Y-63164312D01*
X43168042Y-63325041D01*
X43050144Y-63465546D01*
X42907200Y-63580476D01*
X42744655Y-63665452D01*
X42568701Y-63717239D01*
X42568660Y-63717243D01*
X42568656Y-63717244D01*
X42386042Y-63733863D01*
X42203674Y-63714695D01*
X42203627Y-63714690D01*
X42028413Y-63660452D01*
X41867071Y-63573215D01*
X41725745Y-63456300D01*
X41609821Y-63314162D01*
X41523712Y-63152215D01*
X41470698Y-62976626D01*
X41452800Y-62794085D01*
X41452800Y-62478683D01*
X41452877Y-62467651D01*
X41452878Y-62467646D01*
X41452892Y-62465593D01*
X41473337Y-62283320D01*
X41528797Y-62108488D01*
X41617158Y-61947759D01*
X41735056Y-61807254D01*
X41878000Y-61692324D01*
X42040545Y-61607348D01*
X42216499Y-61555561D01*
X42216540Y-61555557D01*
X42216544Y-61555556D01*
X42399158Y-61538937D01*
X42581526Y-61558105D01*
X42581526Y-61558105D01*
G37*
G36*
X47661526Y-61558105D02*
X47661573Y-61558110D01*
X47836787Y-61612348D01*
X47998129Y-61699585D01*
X48139455Y-61816500D01*
X48255379Y-61958638D01*
X48341488Y-62120585D01*
X48394502Y-62296174D01*
X48412400Y-62478715D01*
X48412400Y-62794117D01*
X48412323Y-62805149D01*
X48412322Y-62805154D01*
X48412308Y-62807207D01*
X48391863Y-62989480D01*
X48336403Y-63164312D01*
X48248042Y-63325041D01*
X48130144Y-63465546D01*
X47987200Y-63580476D01*
X47824655Y-63665452D01*
X47648701Y-63717239D01*
X47648660Y-63717243D01*
X47648656Y-63717244D01*
X47466042Y-63733863D01*
X47283674Y-63714695D01*
X47283627Y-63714690D01*
X47108413Y-63660452D01*
X46947071Y-63573215D01*
X46805745Y-63456300D01*
X46689821Y-63314162D01*
X46603712Y-63152215D01*
X46550698Y-62976626D01*
X46532800Y-62794085D01*
X46532800Y-62478683D01*
X46532877Y-62467651D01*
X46532878Y-62467646D01*
X46532892Y-62465593D01*
X46553337Y-62283320D01*
X46608797Y-62108488D01*
X46697158Y-61947759D01*
X46815056Y-61807254D01*
X46958000Y-61692324D01*
X47120545Y-61607348D01*
X47296499Y-61555561D01*
X47296540Y-61555557D01*
X47296544Y-61555556D01*
X47479158Y-61538937D01*
X47661526Y-61558105D01*
X47661526Y-61558105D01*
G37*
G36*
X27341526Y-61558105D02*
X27341573Y-61558110D01*
X27516787Y-61612348D01*
X27678129Y-61699585D01*
X27819455Y-61816500D01*
X27935379Y-61958638D01*
X28021488Y-62120585D01*
X28074502Y-62296174D01*
X28092400Y-62478715D01*
X28092400Y-62794117D01*
X28092323Y-62805149D01*
X28092322Y-62805154D01*
X28092308Y-62807207D01*
X28071863Y-62989480D01*
X28016403Y-63164312D01*
X27928042Y-63325041D01*
X27810144Y-63465546D01*
X27667200Y-63580476D01*
X27504655Y-63665452D01*
X27328701Y-63717239D01*
X27328660Y-63717243D01*
X27328656Y-63717244D01*
X27146042Y-63733863D01*
X26963674Y-63714695D01*
X26963627Y-63714690D01*
X26788413Y-63660452D01*
X26627071Y-63573215D01*
X26485745Y-63456300D01*
X26369821Y-63314162D01*
X26283712Y-63152215D01*
X26230698Y-62976626D01*
X26212800Y-62794085D01*
X26212800Y-62478683D01*
X26212877Y-62467651D01*
X26212878Y-62467646D01*
X26212892Y-62465593D01*
X26233337Y-62283320D01*
X26288797Y-62108488D01*
X26377158Y-61947759D01*
X26495056Y-61807254D01*
X26638000Y-61692324D01*
X26800545Y-61607348D01*
X26976499Y-61555561D01*
X26976540Y-61555557D01*
X26976544Y-61555556D01*
X27159158Y-61538937D01*
X27341526Y-61558105D01*
X27341526Y-61558105D01*
G37*
G36*
X29881526Y-61558105D02*
X29881573Y-61558110D01*
X30056787Y-61612348D01*
X30218129Y-61699585D01*
X30359455Y-61816500D01*
X30475379Y-61958638D01*
X30561488Y-62120585D01*
X30614502Y-62296174D01*
X30632400Y-62478715D01*
X30632400Y-62794117D01*
X30632323Y-62805149D01*
X30632322Y-62805154D01*
X30632308Y-62807207D01*
X30611863Y-62989480D01*
X30556403Y-63164312D01*
X30468042Y-63325041D01*
X30350144Y-63465546D01*
X30207200Y-63580476D01*
X30044655Y-63665452D01*
X29868701Y-63717239D01*
X29868660Y-63717243D01*
X29868656Y-63717244D01*
X29686042Y-63733863D01*
X29503674Y-63714695D01*
X29503627Y-63714690D01*
X29328413Y-63660452D01*
X29167071Y-63573215D01*
X29025745Y-63456300D01*
X28909821Y-63314162D01*
X28823712Y-63152215D01*
X28770698Y-62976626D01*
X28752800Y-62794085D01*
X28752800Y-62478683D01*
X28752877Y-62467651D01*
X28752878Y-62467646D01*
X28752892Y-62465593D01*
X28773337Y-62283320D01*
X28828797Y-62108488D01*
X28917158Y-61947759D01*
X29035056Y-61807254D01*
X29178000Y-61692324D01*
X29340545Y-61607348D01*
X29516499Y-61555561D01*
X29516540Y-61555557D01*
X29516544Y-61555556D01*
X29699158Y-61538937D01*
X29881526Y-61558105D01*
X29881526Y-61558105D01*
G37*
G36*
X32421526Y-61558105D02*
X32421573Y-61558110D01*
X32596787Y-61612348D01*
X32758129Y-61699585D01*
X32899455Y-61816500D01*
X33015379Y-61958638D01*
X33101488Y-62120585D01*
X33154502Y-62296174D01*
X33172400Y-62478715D01*
X33172400Y-62794117D01*
X33172323Y-62805149D01*
X33172322Y-62805154D01*
X33172308Y-62807207D01*
X33151863Y-62989480D01*
X33096403Y-63164312D01*
X33008042Y-63325041D01*
X32890144Y-63465546D01*
X32747200Y-63580476D01*
X32584655Y-63665452D01*
X32408701Y-63717239D01*
X32408660Y-63717243D01*
X32408656Y-63717244D01*
X32226042Y-63733863D01*
X32043674Y-63714695D01*
X32043627Y-63714690D01*
X31868413Y-63660452D01*
X31707071Y-63573215D01*
X31565745Y-63456300D01*
X31449821Y-63314162D01*
X31363712Y-63152215D01*
X31310698Y-62976626D01*
X31292800Y-62794085D01*
X31292800Y-62478683D01*
X31292877Y-62467651D01*
X31292878Y-62467646D01*
X31292892Y-62465593D01*
X31313337Y-62283320D01*
X31368797Y-62108488D01*
X31457158Y-61947759D01*
X31575056Y-61807254D01*
X31718000Y-61692324D01*
X31880545Y-61607348D01*
X32056499Y-61555561D01*
X32056540Y-61555557D01*
X32056544Y-61555556D01*
X32239158Y-61538937D01*
X32421526Y-61558105D01*
X32421526Y-61558105D01*
G37*
G36*
X37501526Y-61558105D02*
X37501573Y-61558110D01*
X37676787Y-61612348D01*
X37838129Y-61699585D01*
X37979455Y-61816500D01*
X38095379Y-61958638D01*
X38181488Y-62120585D01*
X38234502Y-62296174D01*
X38252400Y-62478715D01*
X38252400Y-62794117D01*
X38252323Y-62805149D01*
X38252322Y-62805154D01*
X38252308Y-62807207D01*
X38231863Y-62989480D01*
X38176403Y-63164312D01*
X38088042Y-63325041D01*
X37970144Y-63465546D01*
X37827200Y-63580476D01*
X37664655Y-63665452D01*
X37488701Y-63717239D01*
X37488660Y-63717243D01*
X37488656Y-63717244D01*
X37306042Y-63733863D01*
X37123674Y-63714695D01*
X37123627Y-63714690D01*
X36948413Y-63660452D01*
X36787071Y-63573215D01*
X36645745Y-63456300D01*
X36529821Y-63314162D01*
X36443712Y-63152215D01*
X36390698Y-62976626D01*
X36372800Y-62794085D01*
X36372800Y-62478683D01*
X36372877Y-62467651D01*
X36372878Y-62467646D01*
X36372892Y-62465593D01*
X36393337Y-62283320D01*
X36448797Y-62108488D01*
X36537158Y-61947759D01*
X36655056Y-61807254D01*
X36798000Y-61692324D01*
X36960545Y-61607348D01*
X37136499Y-61555561D01*
X37136540Y-61555557D01*
X37136544Y-61555556D01*
X37319158Y-61538937D01*
X37501526Y-61558105D01*
X37501526Y-61558105D01*
G37*
G36*
X40041526Y-61558105D02*
X40041573Y-61558110D01*
X40216787Y-61612348D01*
X40378129Y-61699585D01*
X40519455Y-61816500D01*
X40635379Y-61958638D01*
X40721488Y-62120585D01*
X40774502Y-62296174D01*
X40792400Y-62478715D01*
X40792400Y-62794117D01*
X40792323Y-62805149D01*
X40792322Y-62805154D01*
X40792308Y-62807207D01*
X40771863Y-62989480D01*
X40716403Y-63164312D01*
X40628042Y-63325041D01*
X40510144Y-63465546D01*
X40367200Y-63580476D01*
X40204655Y-63665452D01*
X40028701Y-63717239D01*
X40028660Y-63717243D01*
X40028656Y-63717244D01*
X39846042Y-63733863D01*
X39663674Y-63714695D01*
X39663627Y-63714690D01*
X39488413Y-63660452D01*
X39327071Y-63573215D01*
X39185745Y-63456300D01*
X39069821Y-63314162D01*
X38983712Y-63152215D01*
X38930698Y-62976626D01*
X38912800Y-62794085D01*
X38912800Y-62478683D01*
X38912877Y-62467651D01*
X38912878Y-62467646D01*
X38912892Y-62465593D01*
X38933337Y-62283320D01*
X38988797Y-62108488D01*
X39077158Y-61947759D01*
X39195056Y-61807254D01*
X39338000Y-61692324D01*
X39500545Y-61607348D01*
X39676499Y-61555561D01*
X39676540Y-61555557D01*
X39676544Y-61555556D01*
X39859158Y-61538937D01*
X40041526Y-61558105D01*
X40041526Y-61558105D01*
G37*
G36*
X34961526Y-61558105D02*
X34961573Y-61558110D01*
X35136787Y-61612348D01*
X35298129Y-61699585D01*
X35439455Y-61816500D01*
X35555379Y-61958638D01*
X35641488Y-62120585D01*
X35694502Y-62296174D01*
X35712400Y-62478715D01*
X35712400Y-62794117D01*
X35712323Y-62805149D01*
X35712322Y-62805154D01*
X35712308Y-62807207D01*
X35691863Y-62989480D01*
X35636403Y-63164312D01*
X35548042Y-63325041D01*
X35430144Y-63465546D01*
X35287200Y-63580476D01*
X35124655Y-63665452D01*
X34948701Y-63717239D01*
X34948660Y-63717243D01*
X34948656Y-63717244D01*
X34766042Y-63733863D01*
X34583674Y-63714695D01*
X34583627Y-63714690D01*
X34408413Y-63660452D01*
X34247071Y-63573215D01*
X34105745Y-63456300D01*
X33989821Y-63314162D01*
X33903712Y-63152215D01*
X33850698Y-62976626D01*
X33832800Y-62794085D01*
X33832800Y-62478683D01*
X33832877Y-62467651D01*
X33832878Y-62467646D01*
X33832892Y-62465593D01*
X33853337Y-62283320D01*
X33908797Y-62108488D01*
X33997158Y-61947759D01*
X34115056Y-61807254D01*
X34258000Y-61692324D01*
X34420545Y-61607348D01*
X34596499Y-61555561D01*
X34596540Y-61555557D01*
X34596544Y-61555556D01*
X34779158Y-61538937D01*
X34961526Y-61558105D01*
X34961526Y-61558105D01*
G37*
G36*
X23012400Y-63728600D02*
X21132800Y-63728600D01*
X21132800Y-61544200D01*
X23012400Y-61544200D01*
X23012400Y-63728600D01*
X23012400Y-63728600D01*
G37*
G36*
X22495349Y-54838677D02*
X22495354Y-54838678D01*
X22497407Y-54838692D01*
X22679680Y-54859137D01*
X22854512Y-54914597D01*
X23015241Y-55002958D01*
X23155746Y-55120856D01*
X23270676Y-55263800D01*
X23355652Y-55426345D01*
X23407439Y-55602299D01*
X23407443Y-55602340D01*
X23407444Y-55602344D01*
X23424063Y-55784958D01*
X23406248Y-55954456D01*
X23404890Y-55967373D01*
X23350652Y-56142587D01*
X23263415Y-56303929D01*
X23146500Y-56445255D01*
X23004362Y-56561179D01*
X22842415Y-56647288D01*
X22666826Y-56700302D01*
X22484285Y-56718200D01*
X22168883Y-56718200D01*
X22157851Y-56718123D01*
X22157846Y-56718122D01*
X22155793Y-56718108D01*
X21973520Y-56697663D01*
X21798688Y-56642203D01*
X21637959Y-56553842D01*
X21497454Y-56435944D01*
X21382524Y-56293000D01*
X21297548Y-56130455D01*
X21245761Y-55954501D01*
X21245757Y-55954460D01*
X21245756Y-55954456D01*
X21229137Y-55771842D01*
X21248305Y-55589474D01*
X21248310Y-55589427D01*
X21302548Y-55414213D01*
X21389785Y-55252871D01*
X21506700Y-55111545D01*
X21648838Y-54995621D01*
X21810785Y-54909512D01*
X21986374Y-54856498D01*
X22168915Y-54838600D01*
X22484317Y-54838600D01*
X22495349Y-54838677D01*
X22495349Y-54838677D01*
G37*
G36*
X59548800Y-56503400D02*
X58396400Y-56503400D01*
X58396400Y-55751000D01*
X59548800Y-55751000D01*
X59548800Y-56503400D01*
X59548800Y-56503400D01*
G37*
G36*
X61948800Y-56503400D02*
X60796400Y-56503400D01*
X60796400Y-55751000D01*
X61948800Y-55751000D01*
X61948800Y-56503400D01*
X61948800Y-56503400D01*
G37*
G36*
X57448800Y-56357600D02*
X56546400Y-56357600D01*
X56546400Y-55405200D01*
X57448800Y-55405200D01*
X57448800Y-56357600D01*
X57448800Y-56357600D01*
G37*
G36*
X49675300Y-56352100D02*
X47617900Y-56352100D01*
X47617900Y-54802700D01*
X49675300Y-54802700D01*
X49675300Y-56352100D01*
X49675300Y-56352100D01*
G37*
G36*
X54145700Y-56352100D02*
X52088300Y-56352100D01*
X52088300Y-54802700D01*
X54145700Y-54802700D01*
X54145700Y-56352100D01*
X54145700Y-56352100D01*
G37*
G36*
X61948800Y-55513400D02*
X60796400Y-55513400D01*
X60796400Y-54761000D01*
X61948800Y-54761000D01*
X61948800Y-55513400D01*
X61948800Y-55513400D01*
G37*
G36*
X30397800Y-55226600D02*
X29495400Y-55226600D01*
X29495400Y-54274200D01*
X30397800Y-54274200D01*
X30397800Y-55226600D01*
X30397800Y-55226600D01*
G37*
G36*
X57448800Y-54857600D02*
X56546400Y-54857600D01*
X56546400Y-53905200D01*
X57448800Y-53905200D01*
X57448800Y-54857600D01*
X57448800Y-54857600D01*
G37*
G36*
X61948800Y-54523400D02*
X60796400Y-54523400D01*
X60796400Y-53771000D01*
X61948800Y-53771000D01*
X61948800Y-54523400D01*
X61948800Y-54523400D01*
G37*
G36*
X59548800Y-54523400D02*
X58396400Y-54523400D01*
X58396400Y-53771000D01*
X59548800Y-53771000D01*
X59548800Y-54523400D01*
X59548800Y-54523400D01*
G37*
G36*
X22495349Y-52298677D02*
X22495354Y-52298678D01*
X22497407Y-52298692D01*
X22679680Y-52319137D01*
X22854512Y-52374597D01*
X23015241Y-52462958D01*
X23155746Y-52580856D01*
X23270676Y-52723800D01*
X23355652Y-52886345D01*
X23407439Y-53062299D01*
X23407443Y-53062340D01*
X23407444Y-53062344D01*
X23424063Y-53244958D01*
X23406248Y-53414456D01*
X23404890Y-53427373D01*
X23350652Y-53602587D01*
X23263415Y-53763929D01*
X23146500Y-53905255D01*
X23004362Y-54021179D01*
X22842415Y-54107288D01*
X22666826Y-54160302D01*
X22484285Y-54178200D01*
X22168883Y-54178200D01*
X22157851Y-54178123D01*
X22157846Y-54178122D01*
X22155793Y-54178108D01*
X21973520Y-54157663D01*
X21798688Y-54102203D01*
X21637959Y-54013842D01*
X21497454Y-53895944D01*
X21382524Y-53753000D01*
X21297548Y-53590455D01*
X21245761Y-53414501D01*
X21245757Y-53414460D01*
X21245756Y-53414456D01*
X21229137Y-53231842D01*
X21248305Y-53049474D01*
X21248310Y-53049427D01*
X21302548Y-52874213D01*
X21389785Y-52712871D01*
X21506700Y-52571545D01*
X21648838Y-52455621D01*
X21810785Y-52369512D01*
X21986374Y-52316498D01*
X22168915Y-52298600D01*
X22484317Y-52298600D01*
X22495349Y-52298677D01*
X22495349Y-52298677D01*
G37*
G36*
X35952800Y-54066600D02*
X34100400Y-54066600D01*
X34100400Y-53114200D01*
X35952800Y-53114200D01*
X35952800Y-54066600D01*
X35952800Y-54066600D01*
G37*
G36*
X54145700Y-53862900D02*
X52088300Y-53862900D01*
X52088300Y-52313500D01*
X54145700Y-52313500D01*
X54145700Y-53862900D01*
X54145700Y-53862900D01*
G37*
G36*
X49675300Y-53862900D02*
X47617900Y-53862900D01*
X47617900Y-52313500D01*
X49675300Y-52313500D01*
X49675300Y-53862900D01*
X49675300Y-53862900D01*
G37*
G36*
X30397800Y-53726600D02*
X29495400Y-53726600D01*
X29495400Y-52774200D01*
X30397800Y-52774200D01*
X30397800Y-53726600D01*
X30397800Y-53726600D01*
G37*
G36*
X62476200Y-52394200D02*
X61523800Y-52394200D01*
X61523800Y-51491800D01*
X62476200Y-51491800D01*
X62476200Y-52394200D01*
X62476200Y-52394200D01*
G37*
G36*
X63976200Y-52394200D02*
X63023800Y-52394200D01*
X63023800Y-51491800D01*
X63976200Y-51491800D01*
X63976200Y-52394200D01*
X63976200Y-52394200D01*
G37*
G36*
X22495349Y-49758677D02*
X22495354Y-49758678D01*
X22497407Y-49758692D01*
X22679680Y-49779137D01*
X22854512Y-49834597D01*
X23015241Y-49922958D01*
X23155746Y-50040856D01*
X23270676Y-50183800D01*
X23355652Y-50346345D01*
X23407439Y-50522299D01*
X23407443Y-50522340D01*
X23407444Y-50522344D01*
X23424063Y-50704958D01*
X23406248Y-50874456D01*
X23404890Y-50887373D01*
X23350652Y-51062587D01*
X23263415Y-51223929D01*
X23146500Y-51365255D01*
X23004362Y-51481179D01*
X22842415Y-51567288D01*
X22666826Y-51620302D01*
X22484285Y-51638200D01*
X22168883Y-51638200D01*
X22157851Y-51638123D01*
X22157846Y-51638122D01*
X22155793Y-51638108D01*
X21973520Y-51617663D01*
X21798688Y-51562203D01*
X21637959Y-51473842D01*
X21497454Y-51355944D01*
X21382524Y-51213000D01*
X21297548Y-51050455D01*
X21245761Y-50874501D01*
X21245757Y-50874460D01*
X21245756Y-50874456D01*
X21229137Y-50691842D01*
X21248305Y-50509474D01*
X21248310Y-50509427D01*
X21302548Y-50334213D01*
X21389785Y-50172871D01*
X21506700Y-50031545D01*
X21648838Y-49915621D01*
X21810785Y-49829512D01*
X21986374Y-49776498D01*
X22168915Y-49758600D01*
X22484317Y-49758600D01*
X22495349Y-49758677D01*
X22495349Y-49758677D01*
G37*
G36*
X51972800Y-51539400D02*
X51020400Y-51539400D01*
X51020400Y-50637000D01*
X51972800Y-50637000D01*
X51972800Y-51539400D01*
X51972800Y-51539400D01*
G37*
G36*
X53472800Y-51539400D02*
X52520400Y-51539400D01*
X52520400Y-50637000D01*
X53472800Y-50637000D01*
X53472800Y-51539400D01*
X53472800Y-51539400D01*
G37*
G36*
X31946800Y-50895600D02*
X30994400Y-50895600D01*
X30994400Y-49993200D01*
X31946800Y-49993200D01*
X31946800Y-50895600D01*
X31946800Y-50895600D01*
G37*
G36*
X30446800Y-50895600D02*
X29494400Y-50895600D01*
X29494400Y-49993200D01*
X30446800Y-49993200D01*
X30446800Y-50895600D01*
X30446800Y-50895600D01*
G37*
G36*
X47059800Y-50895600D02*
X46107400Y-50895600D01*
X46107400Y-49993200D01*
X47059800Y-49993200D01*
X47059800Y-50895600D01*
X47059800Y-50895600D01*
G37*
G36*
X48559800Y-50895600D02*
X47607400Y-50895600D01*
X47607400Y-49993200D01*
X48559800Y-49993200D01*
X48559800Y-50895600D01*
X48559800Y-50895600D01*
G37*
G36*
X35952800Y-50666600D02*
X34100400Y-50666600D01*
X34100400Y-49714200D01*
X35952800Y-49714200D01*
X35952800Y-50666600D01*
X35952800Y-50666600D01*
G37*
G36*
X51222800Y-49739400D02*
X50270400Y-49739400D01*
X50270400Y-48837000D01*
X51222800Y-48837000D01*
X51222800Y-49739400D01*
X51222800Y-49739400D01*
G37*
G36*
X52722800Y-49739400D02*
X51770400Y-49739400D01*
X51770400Y-48837000D01*
X52722800Y-48837000D01*
X52722800Y-49739400D01*
X52722800Y-49739400D01*
G37*
G36*
X64328040Y-49668430D02*
X61676280Y-49668430D01*
X61676280Y-47715170D01*
X64328040Y-47715170D01*
X64328040Y-49668430D01*
X64328040Y-49668430D01*
G37*
G36*
X60330080Y-49668430D02*
X57678320Y-49668430D01*
X57678320Y-47715170D01*
X60330080Y-47715170D01*
X60330080Y-49668430D01*
X60330080Y-49668430D01*
G37*
G36*
X22495349Y-47218677D02*
X22495354Y-47218678D01*
X22497407Y-47218692D01*
X22679680Y-47239137D01*
X22854512Y-47294597D01*
X23015241Y-47382958D01*
X23155746Y-47500856D01*
X23270676Y-47643800D01*
X23355652Y-47806345D01*
X23407439Y-47982299D01*
X23407443Y-47982340D01*
X23407444Y-47982344D01*
X23424063Y-48164958D01*
X23406248Y-48334456D01*
X23404890Y-48347373D01*
X23350652Y-48522587D01*
X23263415Y-48683929D01*
X23146500Y-48825255D01*
X23004362Y-48941179D01*
X22842415Y-49027288D01*
X22666826Y-49080302D01*
X22484285Y-49098200D01*
X22168883Y-49098200D01*
X22157851Y-49098123D01*
X22157846Y-49098122D01*
X22155793Y-49098108D01*
X21973520Y-49077663D01*
X21798688Y-49022203D01*
X21637959Y-48933842D01*
X21497454Y-48815944D01*
X21382524Y-48673000D01*
X21297548Y-48510455D01*
X21245761Y-48334501D01*
X21245757Y-48334460D01*
X21245756Y-48334456D01*
X21229137Y-48151842D01*
X21248305Y-47969474D01*
X21248310Y-47969427D01*
X21302548Y-47794213D01*
X21389785Y-47632871D01*
X21506700Y-47491545D01*
X21648838Y-47375621D01*
X21810785Y-47289512D01*
X21986374Y-47236498D01*
X22168915Y-47218600D01*
X22484317Y-47218600D01*
X22495349Y-47218677D01*
X22495349Y-47218677D01*
G37*
G36*
X28365800Y-48622600D02*
X27463400Y-48622600D01*
X27463400Y-47670200D01*
X28365800Y-47670200D01*
X28365800Y-48622600D01*
X28365800Y-48622600D01*
G37*
G36*
X30397800Y-48610600D02*
X29495400Y-48610600D01*
X29495400Y-47658200D01*
X30397800Y-47658200D01*
X30397800Y-48610600D01*
X30397800Y-48610600D01*
G37*
G36*
X51356800Y-48071800D02*
X45454400Y-48071800D01*
X45454400Y-46619400D01*
X51356800Y-46619400D01*
X51356800Y-48071800D01*
X51356800Y-48071800D01*
G37*
G36*
X41315800Y-48067600D02*
X39913400Y-48067600D01*
X39913400Y-46915200D01*
X41315800Y-46915200D01*
X41315800Y-48067600D01*
X41315800Y-48067600D01*
G37*
G36*
X28365800Y-47122600D02*
X27463400Y-47122600D01*
X27463400Y-46170200D01*
X28365800Y-46170200D01*
X28365800Y-47122600D01*
X28365800Y-47122600D01*
G37*
G36*
X30397800Y-47110600D02*
X29495400Y-47110600D01*
X29495400Y-46158200D01*
X30397800Y-46158200D01*
X30397800Y-47110600D01*
X30397800Y-47110600D01*
G37*
G36*
X23418800Y-46558200D02*
X21234400Y-46558200D01*
X21234400Y-44678600D01*
X23418800Y-44678600D01*
X23418800Y-46558200D01*
X23418800Y-46558200D01*
G37*
G36*
X41315800Y-46067600D02*
X39913400Y-46067600D01*
X39913400Y-44915200D01*
X41315800Y-44915200D01*
X41315800Y-46067600D01*
X41315800Y-46067600D01*
G37*
G36*
X53481800Y-45946800D02*
X52029400Y-45946800D01*
X52029400Y-40044400D01*
X53481800Y-40044400D01*
X53481800Y-45946800D01*
X53481800Y-45946800D01*
G37*
G36*
X44781800Y-45946800D02*
X43329400Y-45946800D01*
X43329400Y-40044400D01*
X44781800Y-40044400D01*
X44781800Y-45946800D01*
X44781800Y-45946800D01*
G37*
G36*
X64968028Y-44041448D02*
X65097922Y-44068112D01*
X65220177Y-44119503D01*
X65330115Y-44193657D01*
X65423552Y-44287749D01*
X65496941Y-44398208D01*
X65547475Y-44520812D01*
X65573162Y-44650541D01*
X65573162Y-44650556D01*
X65573229Y-44650895D01*
X65571114Y-44802360D01*
X65571038Y-44802694D01*
X65571038Y-44802707D01*
X65541736Y-44931678D01*
X65487801Y-45052819D01*
X65411359Y-45161182D01*
X65315326Y-45252633D01*
X65203360Y-45323689D01*
X65079722Y-45371645D01*
X64949131Y-45394672D01*
X64816547Y-45391894D01*
X64687031Y-45363419D01*
X64565510Y-45310327D01*
X64456621Y-45234647D01*
X64364502Y-45139256D01*
X64292665Y-45027786D01*
X64243846Y-44904484D01*
X64219909Y-44774059D01*
X64221760Y-44641461D01*
X64249332Y-44511746D01*
X64301571Y-44389861D01*
X64376493Y-44280442D01*
X64471241Y-44187658D01*
X64582199Y-44115048D01*
X64705157Y-44065370D01*
X64835415Y-44040523D01*
X64968028Y-44041448D01*
X64968028Y-44041448D01*
G37*
G36*
X63223200Y-45243400D02*
X61670800Y-45243400D01*
X61670800Y-43491000D01*
X63223200Y-43491000D01*
X63223200Y-45243400D01*
X63223200Y-45243400D01*
G37*
G36*
X59912600Y-44572000D02*
X59010200Y-44572000D01*
X59010200Y-43619600D01*
X59912600Y-43619600D01*
X59912600Y-44572000D01*
X59912600Y-44572000D01*
G37*
G36*
X30522800Y-44287600D02*
X29370400Y-44287600D01*
X29370400Y-42885200D01*
X30522800Y-42885200D01*
X30522800Y-44287600D01*
X30522800Y-44287600D01*
G37*
G36*
X32522800Y-44287600D02*
X31370400Y-44287600D01*
X31370400Y-42885200D01*
X32522800Y-42885200D01*
X32522800Y-44287600D01*
X32522800Y-44287600D01*
G37*
G36*
X41315800Y-44003600D02*
X39913400Y-44003600D01*
X39913400Y-42851200D01*
X41315800Y-42851200D01*
X41315800Y-44003600D01*
X41315800Y-44003600D01*
G37*
G36*
X38906800Y-43669600D02*
X38004400Y-43669600D01*
X38004400Y-42717200D01*
X38906800Y-42717200D01*
X38906800Y-43669600D01*
X38906800Y-43669600D01*
G37*
G36*
X65923200Y-43393400D02*
X63870800Y-43393400D01*
X63870800Y-41341000D01*
X65923200Y-41341000D01*
X65923200Y-43393400D01*
X65923200Y-43393400D01*
G37*
G36*
X59912600Y-43072000D02*
X59010200Y-43072000D01*
X59010200Y-42119600D01*
X59912600Y-42119600D01*
X59912600Y-43072000D01*
X59912600Y-43072000D01*
G37*
G36*
X62973200Y-42743400D02*
X61470800Y-42743400D01*
X61470800Y-39591000D01*
X62973200Y-39591000D01*
X62973200Y-42743400D01*
X62973200Y-42743400D01*
G37*
G36*
X38906800Y-42169600D02*
X38004400Y-42169600D01*
X38004400Y-41217200D01*
X38906800Y-41217200D01*
X38906800Y-42169600D01*
X38906800Y-42169600D01*
G37*
G36*
X41315800Y-42003600D02*
X39913400Y-42003600D01*
X39913400Y-40851200D01*
X41315800Y-40851200D01*
X41315800Y-42003600D01*
X41315800Y-42003600D01*
G37*
G36*
X59912600Y-41243200D02*
X59010200Y-41243200D01*
X59010200Y-40290800D01*
X59912600Y-40290800D01*
X59912600Y-41243200D01*
X59912600Y-41243200D01*
G37*
G36*
X65923200Y-40993400D02*
X63870800Y-40993400D01*
X63870800Y-38941000D01*
X65923200Y-38941000D01*
X65923200Y-40993400D01*
X65923200Y-40993400D01*
G37*
G36*
X58079800Y-40422200D02*
X56677400Y-40422200D01*
X56677400Y-39269800D01*
X58079800Y-39269800D01*
X58079800Y-40422200D01*
X58079800Y-40422200D01*
G37*
G36*
X59912600Y-39743200D02*
X59010200Y-39743200D01*
X59010200Y-38790800D01*
X59912600Y-38790800D01*
X59912600Y-39743200D01*
X59912600Y-39743200D01*
G37*
G36*
X51356800Y-39371800D02*
X45454400Y-39371800D01*
X45454400Y-37919400D01*
X51356800Y-37919400D01*
X51356800Y-39371800D01*
X51356800Y-39371800D01*
G37*
G36*
X55036800Y-39338600D02*
X54084400Y-39338600D01*
X54084400Y-38436200D01*
X55036800Y-38436200D01*
X55036800Y-39338600D01*
X55036800Y-39338600D01*
G37*
G36*
X53536800Y-39338600D02*
X52584400Y-39338600D01*
X52584400Y-38436200D01*
X53536800Y-38436200D01*
X53536800Y-39338600D01*
X53536800Y-39338600D01*
G37*
G36*
X63223200Y-38843400D02*
X61670800Y-38843400D01*
X61670800Y-37091000D01*
X63223200Y-37091000D01*
X63223200Y-38843400D01*
X63223200Y-38843400D01*
G37*
G36*
X58079800Y-38422200D02*
X56677400Y-38422200D01*
X56677400Y-37269800D01*
X58079800Y-37269800D01*
X58079800Y-38422200D01*
X58079800Y-38422200D01*
G37*
G36*
X64968028Y-36941448D02*
X65097922Y-36968112D01*
X65220177Y-37019503D01*
X65330115Y-37093657D01*
X65423552Y-37187749D01*
X65496941Y-37298208D01*
X65547475Y-37420812D01*
X65573162Y-37550541D01*
X65573162Y-37550556D01*
X65573229Y-37550895D01*
X65571114Y-37702360D01*
X65571038Y-37702694D01*
X65571038Y-37702707D01*
X65541736Y-37831678D01*
X65487801Y-37952819D01*
X65411359Y-38061182D01*
X65315326Y-38152633D01*
X65203360Y-38223689D01*
X65079722Y-38271645D01*
X64949131Y-38294672D01*
X64816547Y-38291894D01*
X64687031Y-38263419D01*
X64565510Y-38210327D01*
X64456621Y-38134647D01*
X64364502Y-38039256D01*
X64292665Y-37927786D01*
X64243846Y-37804484D01*
X64219909Y-37674059D01*
X64221760Y-37541461D01*
X64249332Y-37411746D01*
X64301571Y-37289861D01*
X64376493Y-37180442D01*
X64471241Y-37087658D01*
X64582199Y-37015048D01*
X64705157Y-36965370D01*
X64835415Y-36940523D01*
X64968028Y-36941448D01*
X64968028Y-36941448D01*
G37*
G36*
X49575800Y-37052600D02*
X48623400Y-37052600D01*
X48623400Y-36150200D01*
X49575800Y-36150200D01*
X49575800Y-37052600D01*
X49575800Y-37052600D01*
G37*
G36*
X48075800Y-37052600D02*
X47123400Y-37052600D01*
X47123400Y-36150200D01*
X48075800Y-36150200D01*
X48075800Y-37052600D01*
X48075800Y-37052600D01*
G37*
G36*
X48329800Y-34639600D02*
X47377400Y-34639600D01*
X47377400Y-33737200D01*
X48329800Y-33737200D01*
X48329800Y-34639600D01*
X48329800Y-34639600D01*
G37*
G36*
X49829800Y-34639600D02*
X48877400Y-34639600D01*
X48877400Y-33737200D01*
X49829800Y-33737200D01*
X49829800Y-34639600D01*
X49829800Y-34639600D01*
G37*
G36*
X42581526Y-28538105D02*
X42581573Y-28538110D01*
X42756787Y-28592348D01*
X42918129Y-28679585D01*
X43059455Y-28796500D01*
X43175379Y-28938638D01*
X43261488Y-29100585D01*
X43314502Y-29276174D01*
X43332400Y-29458715D01*
X43332400Y-29774117D01*
X43332323Y-29785149D01*
X43332322Y-29785154D01*
X43332308Y-29787207D01*
X43311863Y-29969480D01*
X43256403Y-30144312D01*
X43168042Y-30305041D01*
X43050144Y-30445546D01*
X42907200Y-30560476D01*
X42744655Y-30645452D01*
X42568701Y-30697239D01*
X42568660Y-30697243D01*
X42568656Y-30697244D01*
X42386042Y-30713863D01*
X42203674Y-30694695D01*
X42203627Y-30694690D01*
X42028413Y-30640452D01*
X41867071Y-30553215D01*
X41725745Y-30436300D01*
X41609821Y-30294162D01*
X41523712Y-30132215D01*
X41470698Y-29956626D01*
X41452800Y-29774085D01*
X41452800Y-29458683D01*
X41452877Y-29447651D01*
X41452878Y-29447646D01*
X41452892Y-29445593D01*
X41473337Y-29263320D01*
X41528797Y-29088488D01*
X41617158Y-28927759D01*
X41735056Y-28787254D01*
X41878000Y-28672324D01*
X42040545Y-28587348D01*
X42216499Y-28535561D01*
X42216540Y-28535557D01*
X42216544Y-28535556D01*
X42399158Y-28518937D01*
X42581526Y-28538105D01*
X42581526Y-28538105D01*
G37*
G36*
X52741526Y-28538105D02*
X52741573Y-28538110D01*
X52916787Y-28592348D01*
X53078129Y-28679585D01*
X53219455Y-28796500D01*
X53335379Y-28938638D01*
X53421488Y-29100585D01*
X53474502Y-29276174D01*
X53492400Y-29458715D01*
X53492400Y-29774117D01*
X53492323Y-29785149D01*
X53492322Y-29785154D01*
X53492308Y-29787207D01*
X53471863Y-29969480D01*
X53416403Y-30144312D01*
X53328042Y-30305041D01*
X53210144Y-30445546D01*
X53067200Y-30560476D01*
X52904655Y-30645452D01*
X52728701Y-30697239D01*
X52728660Y-30697243D01*
X52728656Y-30697244D01*
X52546042Y-30713863D01*
X52363674Y-30694695D01*
X52363627Y-30694690D01*
X52188413Y-30640452D01*
X52027071Y-30553215D01*
X51885745Y-30436300D01*
X51769821Y-30294162D01*
X51683712Y-30132215D01*
X51630698Y-29956626D01*
X51612800Y-29774085D01*
X51612800Y-29458683D01*
X51612877Y-29447651D01*
X51612878Y-29447646D01*
X51612892Y-29445593D01*
X51633337Y-29263320D01*
X51688797Y-29088488D01*
X51777158Y-28927759D01*
X51895056Y-28787254D01*
X52038000Y-28672324D01*
X52200545Y-28587348D01*
X52376499Y-28535561D01*
X52376540Y-28535557D01*
X52376544Y-28535556D01*
X52559158Y-28518937D01*
X52741526Y-28538105D01*
X52741526Y-28538105D01*
G37*
G36*
X40041526Y-28538105D02*
X40041573Y-28538110D01*
X40216787Y-28592348D01*
X40378129Y-28679585D01*
X40519455Y-28796500D01*
X40635379Y-28938638D01*
X40721488Y-29100585D01*
X40774502Y-29276174D01*
X40792400Y-29458715D01*
X40792400Y-29774117D01*
X40792323Y-29785149D01*
X40792322Y-29785154D01*
X40792308Y-29787207D01*
X40771863Y-29969480D01*
X40716403Y-30144312D01*
X40628042Y-30305041D01*
X40510144Y-30445546D01*
X40367200Y-30560476D01*
X40204655Y-30645452D01*
X40028701Y-30697239D01*
X40028660Y-30697243D01*
X40028656Y-30697244D01*
X39846042Y-30713863D01*
X39663674Y-30694695D01*
X39663627Y-30694690D01*
X39488413Y-30640452D01*
X39327071Y-30553215D01*
X39185745Y-30436300D01*
X39069821Y-30294162D01*
X38983712Y-30132215D01*
X38930698Y-29956626D01*
X38912800Y-29774085D01*
X38912800Y-29458683D01*
X38912877Y-29447651D01*
X38912878Y-29447646D01*
X38912892Y-29445593D01*
X38933337Y-29263320D01*
X38988797Y-29088488D01*
X39077158Y-28927759D01*
X39195056Y-28787254D01*
X39338000Y-28672324D01*
X39500545Y-28587348D01*
X39676499Y-28535561D01*
X39676540Y-28535557D01*
X39676544Y-28535556D01*
X39859158Y-28518937D01*
X40041526Y-28538105D01*
X40041526Y-28538105D01*
G37*
G36*
X37501526Y-28538105D02*
X37501573Y-28538110D01*
X37676787Y-28592348D01*
X37838129Y-28679585D01*
X37979455Y-28796500D01*
X38095379Y-28938638D01*
X38181488Y-29100585D01*
X38234502Y-29276174D01*
X38252400Y-29458715D01*
X38252400Y-29774117D01*
X38252323Y-29785149D01*
X38252322Y-29785154D01*
X38252308Y-29787207D01*
X38231863Y-29969480D01*
X38176403Y-30144312D01*
X38088042Y-30305041D01*
X37970144Y-30445546D01*
X37827200Y-30560476D01*
X37664655Y-30645452D01*
X37488701Y-30697239D01*
X37488660Y-30697243D01*
X37488656Y-30697244D01*
X37306042Y-30713863D01*
X37123674Y-30694695D01*
X37123627Y-30694690D01*
X36948413Y-30640452D01*
X36787071Y-30553215D01*
X36645745Y-30436300D01*
X36529821Y-30294162D01*
X36443712Y-30132215D01*
X36390698Y-29956626D01*
X36372800Y-29774085D01*
X36372800Y-29458683D01*
X36372877Y-29447651D01*
X36372878Y-29447646D01*
X36372892Y-29445593D01*
X36393337Y-29263320D01*
X36448797Y-29088488D01*
X36537158Y-28927759D01*
X36655056Y-28787254D01*
X36798000Y-28672324D01*
X36960545Y-28587348D01*
X37136499Y-28535561D01*
X37136540Y-28535557D01*
X37136544Y-28535556D01*
X37319158Y-28518937D01*
X37501526Y-28538105D01*
X37501526Y-28538105D01*
G37*
G36*
X32421526Y-28538105D02*
X32421573Y-28538110D01*
X32596787Y-28592348D01*
X32758129Y-28679585D01*
X32899455Y-28796500D01*
X33015379Y-28938638D01*
X33101488Y-29100585D01*
X33154502Y-29276174D01*
X33172400Y-29458715D01*
X33172400Y-29774117D01*
X33172323Y-29785149D01*
X33172322Y-29785154D01*
X33172308Y-29787207D01*
X33151863Y-29969480D01*
X33096403Y-30144312D01*
X33008042Y-30305041D01*
X32890144Y-30445546D01*
X32747200Y-30560476D01*
X32584655Y-30645452D01*
X32408701Y-30697239D01*
X32408660Y-30697243D01*
X32408656Y-30697244D01*
X32226042Y-30713863D01*
X32043674Y-30694695D01*
X32043627Y-30694690D01*
X31868413Y-30640452D01*
X31707071Y-30553215D01*
X31565745Y-30436300D01*
X31449821Y-30294162D01*
X31363712Y-30132215D01*
X31310698Y-29956626D01*
X31292800Y-29774085D01*
X31292800Y-29458683D01*
X31292877Y-29447651D01*
X31292878Y-29447646D01*
X31292892Y-29445593D01*
X31313337Y-29263320D01*
X31368797Y-29088488D01*
X31457158Y-28927759D01*
X31575056Y-28787254D01*
X31718000Y-28672324D01*
X31880545Y-28587348D01*
X32056499Y-28535561D01*
X32056540Y-28535557D01*
X32056544Y-28535556D01*
X32239158Y-28518937D01*
X32421526Y-28538105D01*
X32421526Y-28538105D01*
G37*
G36*
X65441526Y-28538105D02*
X65441573Y-28538110D01*
X65616787Y-28592348D01*
X65778129Y-28679585D01*
X65919455Y-28796500D01*
X66035379Y-28938638D01*
X66121488Y-29100585D01*
X66174502Y-29276174D01*
X66192400Y-29458715D01*
X66192400Y-29774117D01*
X66192323Y-29785149D01*
X66192322Y-29785154D01*
X66192308Y-29787207D01*
X66171863Y-29969480D01*
X66116403Y-30144312D01*
X66028042Y-30305041D01*
X65910144Y-30445546D01*
X65767200Y-30560476D01*
X65604655Y-30645452D01*
X65428701Y-30697239D01*
X65428660Y-30697243D01*
X65428656Y-30697244D01*
X65246042Y-30713863D01*
X65063674Y-30694695D01*
X65063627Y-30694690D01*
X64888413Y-30640452D01*
X64727071Y-30553215D01*
X64585745Y-30436300D01*
X64469821Y-30294162D01*
X64383712Y-30132215D01*
X64330698Y-29956626D01*
X64312800Y-29774085D01*
X64312800Y-29458683D01*
X64312877Y-29447651D01*
X64312878Y-29447646D01*
X64312892Y-29445593D01*
X64333337Y-29263320D01*
X64388797Y-29088488D01*
X64477158Y-28927759D01*
X64595056Y-28787254D01*
X64738000Y-28672324D01*
X64900545Y-28587348D01*
X65076499Y-28535561D01*
X65076540Y-28535557D01*
X65076544Y-28535556D01*
X65259158Y-28518937D01*
X65441526Y-28538105D01*
X65441526Y-28538105D01*
G37*
G36*
X45121526Y-28538105D02*
X45121573Y-28538110D01*
X45296787Y-28592348D01*
X45458129Y-28679585D01*
X45599455Y-28796500D01*
X45715379Y-28938638D01*
X45801488Y-29100585D01*
X45854502Y-29276174D01*
X45872400Y-29458715D01*
X45872400Y-29774117D01*
X45872323Y-29785149D01*
X45872322Y-29785154D01*
X45872308Y-29787207D01*
X45851863Y-29969480D01*
X45796403Y-30144312D01*
X45708042Y-30305041D01*
X45590144Y-30445546D01*
X45447200Y-30560476D01*
X45284655Y-30645452D01*
X45108701Y-30697239D01*
X45108660Y-30697243D01*
X45108656Y-30697244D01*
X44926042Y-30713863D01*
X44743674Y-30694695D01*
X44743627Y-30694690D01*
X44568413Y-30640452D01*
X44407071Y-30553215D01*
X44265745Y-30436300D01*
X44149821Y-30294162D01*
X44063712Y-30132215D01*
X44010698Y-29956626D01*
X43992800Y-29774085D01*
X43992800Y-29458683D01*
X43992877Y-29447651D01*
X43992878Y-29447646D01*
X43992892Y-29445593D01*
X44013337Y-29263320D01*
X44068797Y-29088488D01*
X44157158Y-28927759D01*
X44275056Y-28787254D01*
X44418000Y-28672324D01*
X44580545Y-28587348D01*
X44756499Y-28535561D01*
X44756540Y-28535557D01*
X44756544Y-28535556D01*
X44939158Y-28518937D01*
X45121526Y-28538105D01*
X45121526Y-28538105D01*
G37*
G36*
X29881526Y-28538105D02*
X29881573Y-28538110D01*
X30056787Y-28592348D01*
X30218129Y-28679585D01*
X30359455Y-28796500D01*
X30475379Y-28938638D01*
X30561488Y-29100585D01*
X30614502Y-29276174D01*
X30632400Y-29458715D01*
X30632400Y-29774117D01*
X30632323Y-29785149D01*
X30632322Y-29785154D01*
X30632308Y-29787207D01*
X30611863Y-29969480D01*
X30556403Y-30144312D01*
X30468042Y-30305041D01*
X30350144Y-30445546D01*
X30207200Y-30560476D01*
X30044655Y-30645452D01*
X29868701Y-30697239D01*
X29868660Y-30697243D01*
X29868656Y-30697244D01*
X29686042Y-30713863D01*
X29503674Y-30694695D01*
X29503627Y-30694690D01*
X29328413Y-30640452D01*
X29167071Y-30553215D01*
X29025745Y-30436300D01*
X28909821Y-30294162D01*
X28823712Y-30132215D01*
X28770698Y-29956626D01*
X28752800Y-29774085D01*
X28752800Y-29458683D01*
X28752877Y-29447651D01*
X28752878Y-29447646D01*
X28752892Y-29445593D01*
X28773337Y-29263320D01*
X28828797Y-29088488D01*
X28917158Y-28927759D01*
X29035056Y-28787254D01*
X29178000Y-28672324D01*
X29340545Y-28587348D01*
X29516499Y-28535561D01*
X29516540Y-28535557D01*
X29516544Y-28535556D01*
X29699158Y-28518937D01*
X29881526Y-28538105D01*
X29881526Y-28538105D01*
G37*
G36*
X27341526Y-28538105D02*
X27341573Y-28538110D01*
X27516787Y-28592348D01*
X27678129Y-28679585D01*
X27819455Y-28796500D01*
X27935379Y-28938638D01*
X28021488Y-29100585D01*
X28074502Y-29276174D01*
X28092400Y-29458715D01*
X28092400Y-29774117D01*
X28092323Y-29785149D01*
X28092322Y-29785154D01*
X28092308Y-29787207D01*
X28071863Y-29969480D01*
X28016403Y-30144312D01*
X27928042Y-30305041D01*
X27810144Y-30445546D01*
X27667200Y-30560476D01*
X27504655Y-30645452D01*
X27328701Y-30697239D01*
X27328660Y-30697243D01*
X27328656Y-30697244D01*
X27146042Y-30713863D01*
X26963674Y-30694695D01*
X26963627Y-30694690D01*
X26788413Y-30640452D01*
X26627071Y-30553215D01*
X26485745Y-30436300D01*
X26369821Y-30294162D01*
X26283712Y-30132215D01*
X26230698Y-29956626D01*
X26212800Y-29774085D01*
X26212800Y-29458683D01*
X26212877Y-29447651D01*
X26212878Y-29447646D01*
X26212892Y-29445593D01*
X26233337Y-29263320D01*
X26288797Y-29088488D01*
X26377158Y-28927759D01*
X26495056Y-28787254D01*
X26638000Y-28672324D01*
X26800545Y-28587348D01*
X26976499Y-28535561D01*
X26976540Y-28535557D01*
X26976544Y-28535556D01*
X27159158Y-28518937D01*
X27341526Y-28538105D01*
X27341526Y-28538105D01*
G37*
G36*
X24801526Y-28538105D02*
X24801573Y-28538110D01*
X24976787Y-28592348D01*
X25138129Y-28679585D01*
X25279455Y-28796500D01*
X25395379Y-28938638D01*
X25481488Y-29100585D01*
X25534502Y-29276174D01*
X25552400Y-29458715D01*
X25552400Y-29774117D01*
X25552323Y-29785149D01*
X25552322Y-29785154D01*
X25552308Y-29787207D01*
X25531863Y-29969480D01*
X25476403Y-30144312D01*
X25388042Y-30305041D01*
X25270144Y-30445546D01*
X25127200Y-30560476D01*
X24964655Y-30645452D01*
X24788701Y-30697239D01*
X24788660Y-30697243D01*
X24788656Y-30697244D01*
X24606042Y-30713863D01*
X24423674Y-30694695D01*
X24423627Y-30694690D01*
X24248413Y-30640452D01*
X24087071Y-30553215D01*
X23945745Y-30436300D01*
X23829821Y-30294162D01*
X23743712Y-30132215D01*
X23690698Y-29956626D01*
X23672800Y-29774085D01*
X23672800Y-29458683D01*
X23672877Y-29447651D01*
X23672878Y-29447646D01*
X23672892Y-29445593D01*
X23693337Y-29263320D01*
X23748797Y-29088488D01*
X23837158Y-28927759D01*
X23955056Y-28787254D01*
X24098000Y-28672324D01*
X24260545Y-28587348D01*
X24436499Y-28535561D01*
X24436540Y-28535557D01*
X24436544Y-28535556D01*
X24619158Y-28518937D01*
X24801526Y-28538105D01*
X24801526Y-28538105D01*
G37*
G36*
X47661526Y-28538105D02*
X47661573Y-28538110D01*
X47836787Y-28592348D01*
X47998129Y-28679585D01*
X48139455Y-28796500D01*
X48255379Y-28938638D01*
X48341488Y-29100585D01*
X48394502Y-29276174D01*
X48412400Y-29458715D01*
X48412400Y-29774117D01*
X48412323Y-29785149D01*
X48412322Y-29785154D01*
X48412308Y-29787207D01*
X48391863Y-29969480D01*
X48336403Y-30144312D01*
X48248042Y-30305041D01*
X48130144Y-30445546D01*
X47987200Y-30560476D01*
X47824655Y-30645452D01*
X47648701Y-30697239D01*
X47648660Y-30697243D01*
X47648656Y-30697244D01*
X47466042Y-30713863D01*
X47283674Y-30694695D01*
X47283627Y-30694690D01*
X47108413Y-30640452D01*
X46947071Y-30553215D01*
X46805745Y-30436300D01*
X46689821Y-30294162D01*
X46603712Y-30132215D01*
X46550698Y-29956626D01*
X46532800Y-29774085D01*
X46532800Y-29458683D01*
X46532877Y-29447651D01*
X46532878Y-29447646D01*
X46532892Y-29445593D01*
X46553337Y-29263320D01*
X46608797Y-29088488D01*
X46697158Y-28927759D01*
X46815056Y-28787254D01*
X46958000Y-28672324D01*
X47120545Y-28587348D01*
X47296499Y-28535561D01*
X47296540Y-28535557D01*
X47296544Y-28535556D01*
X47479158Y-28518937D01*
X47661526Y-28538105D01*
X47661526Y-28538105D01*
G37*
G36*
X50201526Y-28538105D02*
X50201573Y-28538110D01*
X50376787Y-28592348D01*
X50538129Y-28679585D01*
X50679455Y-28796500D01*
X50795379Y-28938638D01*
X50881488Y-29100585D01*
X50934502Y-29276174D01*
X50952400Y-29458715D01*
X50952400Y-29774117D01*
X50952323Y-29785149D01*
X50952322Y-29785154D01*
X50952308Y-29787207D01*
X50931863Y-29969480D01*
X50876403Y-30144312D01*
X50788042Y-30305041D01*
X50670144Y-30445546D01*
X50527200Y-30560476D01*
X50364655Y-30645452D01*
X50188701Y-30697239D01*
X50188660Y-30697243D01*
X50188656Y-30697244D01*
X50006042Y-30713863D01*
X49823674Y-30694695D01*
X49823627Y-30694690D01*
X49648413Y-30640452D01*
X49487071Y-30553215D01*
X49345745Y-30436300D01*
X49229821Y-30294162D01*
X49143712Y-30132215D01*
X49090698Y-29956626D01*
X49072800Y-29774085D01*
X49072800Y-29458683D01*
X49072877Y-29447651D01*
X49072878Y-29447646D01*
X49072892Y-29445593D01*
X49093337Y-29263320D01*
X49148797Y-29088488D01*
X49237158Y-28927759D01*
X49355056Y-28787254D01*
X49498000Y-28672324D01*
X49660545Y-28587348D01*
X49836499Y-28535561D01*
X49836540Y-28535557D01*
X49836544Y-28535556D01*
X50019158Y-28518937D01*
X50201526Y-28538105D01*
X50201526Y-28538105D01*
G37*
G36*
X55281526Y-28538105D02*
X55281573Y-28538110D01*
X55456787Y-28592348D01*
X55618129Y-28679585D01*
X55759455Y-28796500D01*
X55875379Y-28938638D01*
X55961488Y-29100585D01*
X56014502Y-29276174D01*
X56032400Y-29458715D01*
X56032400Y-29774117D01*
X56032323Y-29785149D01*
X56032322Y-29785154D01*
X56032308Y-29787207D01*
X56011863Y-29969480D01*
X55956403Y-30144312D01*
X55868042Y-30305041D01*
X55750144Y-30445546D01*
X55607200Y-30560476D01*
X55444655Y-30645452D01*
X55268701Y-30697239D01*
X55268660Y-30697243D01*
X55268656Y-30697244D01*
X55086042Y-30713863D01*
X54903674Y-30694695D01*
X54903627Y-30694690D01*
X54728413Y-30640452D01*
X54567071Y-30553215D01*
X54425745Y-30436300D01*
X54309821Y-30294162D01*
X54223712Y-30132215D01*
X54170698Y-29956626D01*
X54152800Y-29774085D01*
X54152800Y-29458683D01*
X54152877Y-29447651D01*
X54152878Y-29447646D01*
X54152892Y-29445593D01*
X54173337Y-29263320D01*
X54228797Y-29088488D01*
X54317158Y-28927759D01*
X54435056Y-28787254D01*
X54578000Y-28672324D01*
X54740545Y-28587348D01*
X54916499Y-28535561D01*
X54916540Y-28535557D01*
X54916544Y-28535556D01*
X55099158Y-28518937D01*
X55281526Y-28538105D01*
X55281526Y-28538105D01*
G37*
G36*
X57821526Y-28538105D02*
X57821573Y-28538110D01*
X57996787Y-28592348D01*
X58158129Y-28679585D01*
X58299455Y-28796500D01*
X58415379Y-28938638D01*
X58501488Y-29100585D01*
X58554502Y-29276174D01*
X58572400Y-29458715D01*
X58572400Y-29774117D01*
X58572323Y-29785149D01*
X58572322Y-29785154D01*
X58572308Y-29787207D01*
X58551863Y-29969480D01*
X58496403Y-30144312D01*
X58408042Y-30305041D01*
X58290144Y-30445546D01*
X58147200Y-30560476D01*
X57984655Y-30645452D01*
X57808701Y-30697239D01*
X57808660Y-30697243D01*
X57808656Y-30697244D01*
X57626042Y-30713863D01*
X57443674Y-30694695D01*
X57443627Y-30694690D01*
X57268413Y-30640452D01*
X57107071Y-30553215D01*
X56965745Y-30436300D01*
X56849821Y-30294162D01*
X56763712Y-30132215D01*
X56710698Y-29956626D01*
X56692800Y-29774085D01*
X56692800Y-29458683D01*
X56692877Y-29447651D01*
X56692878Y-29447646D01*
X56692892Y-29445593D01*
X56713337Y-29263320D01*
X56768797Y-29088488D01*
X56857158Y-28927759D01*
X56975056Y-28787254D01*
X57118000Y-28672324D01*
X57280545Y-28587348D01*
X57456499Y-28535561D01*
X57456540Y-28535557D01*
X57456544Y-28535556D01*
X57639158Y-28518937D01*
X57821526Y-28538105D01*
X57821526Y-28538105D01*
G37*
G36*
X60361526Y-28538105D02*
X60361573Y-28538110D01*
X60536787Y-28592348D01*
X60698129Y-28679585D01*
X60839455Y-28796500D01*
X60955379Y-28938638D01*
X61041488Y-29100585D01*
X61094502Y-29276174D01*
X61112400Y-29458715D01*
X61112400Y-29774117D01*
X61112323Y-29785149D01*
X61112322Y-29785154D01*
X61112308Y-29787207D01*
X61091863Y-29969480D01*
X61036403Y-30144312D01*
X60948042Y-30305041D01*
X60830144Y-30445546D01*
X60687200Y-30560476D01*
X60524655Y-30645452D01*
X60348701Y-30697239D01*
X60348660Y-30697243D01*
X60348656Y-30697244D01*
X60166042Y-30713863D01*
X59983674Y-30694695D01*
X59983627Y-30694690D01*
X59808413Y-30640452D01*
X59647071Y-30553215D01*
X59505745Y-30436300D01*
X59389821Y-30294162D01*
X59303712Y-30132215D01*
X59250698Y-29956626D01*
X59232800Y-29774085D01*
X59232800Y-29458683D01*
X59232877Y-29447651D01*
X59232878Y-29447646D01*
X59232892Y-29445593D01*
X59253337Y-29263320D01*
X59308797Y-29088488D01*
X59397158Y-28927759D01*
X59515056Y-28787254D01*
X59658000Y-28672324D01*
X59820545Y-28587348D01*
X59996499Y-28535561D01*
X59996540Y-28535557D01*
X59996544Y-28535556D01*
X60179158Y-28518937D01*
X60361526Y-28538105D01*
X60361526Y-28538105D01*
G37*
G36*
X62901526Y-28538105D02*
X62901573Y-28538110D01*
X63076787Y-28592348D01*
X63238129Y-28679585D01*
X63379455Y-28796500D01*
X63495379Y-28938638D01*
X63581488Y-29100585D01*
X63634502Y-29276174D01*
X63652400Y-29458715D01*
X63652400Y-29774117D01*
X63652323Y-29785149D01*
X63652322Y-29785154D01*
X63652308Y-29787207D01*
X63631863Y-29969480D01*
X63576403Y-30144312D01*
X63488042Y-30305041D01*
X63370144Y-30445546D01*
X63227200Y-30560476D01*
X63064655Y-30645452D01*
X62888701Y-30697239D01*
X62888660Y-30697243D01*
X62888656Y-30697244D01*
X62706042Y-30713863D01*
X62523674Y-30694695D01*
X62523627Y-30694690D01*
X62348413Y-30640452D01*
X62187071Y-30553215D01*
X62045745Y-30436300D01*
X61929821Y-30294162D01*
X61843712Y-30132215D01*
X61790698Y-29956626D01*
X61772800Y-29774085D01*
X61772800Y-29458683D01*
X61772877Y-29447651D01*
X61772878Y-29447646D01*
X61772892Y-29445593D01*
X61793337Y-29263320D01*
X61848797Y-29088488D01*
X61937158Y-28927759D01*
X62055056Y-28787254D01*
X62198000Y-28672324D01*
X62360545Y-28587348D01*
X62536499Y-28535561D01*
X62536540Y-28535557D01*
X62536544Y-28535556D01*
X62719158Y-28518937D01*
X62901526Y-28538105D01*
X62901526Y-28538105D01*
G37*
G36*
X34961526Y-28538105D02*
X34961573Y-28538110D01*
X35136787Y-28592348D01*
X35298129Y-28679585D01*
X35439455Y-28796500D01*
X35555379Y-28938638D01*
X35641488Y-29100585D01*
X35694502Y-29276174D01*
X35712400Y-29458715D01*
X35712400Y-29774117D01*
X35712323Y-29785149D01*
X35712322Y-29785154D01*
X35712308Y-29787207D01*
X35691863Y-29969480D01*
X35636403Y-30144312D01*
X35548042Y-30305041D01*
X35430144Y-30445546D01*
X35287200Y-30560476D01*
X35124655Y-30645452D01*
X34948701Y-30697239D01*
X34948660Y-30697243D01*
X34948656Y-30697244D01*
X34766042Y-30713863D01*
X34583674Y-30694695D01*
X34583627Y-30694690D01*
X34408413Y-30640452D01*
X34247071Y-30553215D01*
X34105745Y-30436300D01*
X33989821Y-30294162D01*
X33903712Y-30132215D01*
X33850698Y-29956626D01*
X33832800Y-29774085D01*
X33832800Y-29458683D01*
X33832877Y-29447651D01*
X33832878Y-29447646D01*
X33832892Y-29445593D01*
X33853337Y-29263320D01*
X33908797Y-29088488D01*
X33997158Y-28927759D01*
X34115056Y-28787254D01*
X34258000Y-28672324D01*
X34420545Y-28587348D01*
X34596499Y-28535561D01*
X34596540Y-28535557D01*
X34596544Y-28535556D01*
X34779158Y-28518937D01*
X34961526Y-28538105D01*
X34961526Y-28538105D01*
G37*
G36*
X23012400Y-30708600D02*
X21132800Y-30708600D01*
X21132800Y-28524200D01*
X23012400Y-28524200D01*
X23012400Y-30708600D01*
X23012400Y-30708600D01*
G37*
M02*
