%TF.GenerationSoftware,KiCad,Pcbnew,4.0.5-e0-6337~49~ubuntu16.04.1*%
%TF.CreationDate,2017-08-14T13:51:41-07:00*%
%TF.ProjectId,atsamd21g18-breakout,617473616D6432316731382D62726561,1.0*%
%TF.FileFunction,Legend,Top*%
%FSLAX46Y46*%
G04 Gerber Fmt 4.6, Leading zero omitted, Abs format (unit mm)*
G04 Created by KiCad (PCBNEW 4.0.5-e0-6337~49~ubuntu16.04.1) date Mon Aug 14 13:51:41 2017*
%MOMM*%
%LPD*%
G01*
G04 APERTURE LIST*
%ADD10C,0.350000*%
%ADD11C,0.152400*%
%ADD12C,0.150000*%
%ADD13C,0.200000*%
%ADD14R,1.502400X0.552400*%
%ADD15R,1.552400X1.752400*%
%ADD16C,1.352400*%
%ADD17R,2.052400X2.052400*%
%ADD18R,0.952400X0.902400*%
%ADD19R,0.902400X0.952400*%
%ADD20R,1.402400X1.152400*%
%ADD21R,2.651760X1.953260*%
%ADD22R,1.152400X1.402400*%
%ADD23R,1.852400X0.952400*%
%ADD24R,1.452400X0.402400*%
%ADD25R,0.402400X1.452400*%
%ADD26R,2.057400X1.549400*%
%ADD27R,1.152400X0.752400*%
%ADD28R,1.879600X2.184400*%
%ADD29O,1.879600X2.184400*%
%ADD30R,2.184400X1.879600*%
%ADD31O,2.184400X1.879600*%
G04 APERTURE END LIST*
D10*
D11*
X24576314Y-55524400D02*
X24479552Y-55476019D01*
X24334409Y-55476019D01*
X24189267Y-55524400D01*
X24092505Y-55621162D01*
X24044124Y-55717924D01*
X23995743Y-55911448D01*
X23995743Y-56056590D01*
X24044124Y-56250114D01*
X24092505Y-56346876D01*
X24189267Y-56443638D01*
X24334409Y-56492019D01*
X24431171Y-56492019D01*
X24576314Y-56443638D01*
X24624695Y-56395257D01*
X24624695Y-56056590D01*
X24431171Y-56056590D01*
X25060124Y-56492019D02*
X25060124Y-55476019D01*
X25640695Y-56492019D01*
X25640695Y-55476019D01*
X26124505Y-56492019D02*
X26124505Y-55476019D01*
X26366410Y-55476019D01*
X26511552Y-55524400D01*
X26608314Y-55621162D01*
X26656695Y-55717924D01*
X26705076Y-55911448D01*
X26705076Y-56056590D01*
X26656695Y-56250114D01*
X26608314Y-56346876D01*
X26511552Y-56443638D01*
X26366410Y-56492019D01*
X26124505Y-56492019D01*
X24624695Y-53698019D02*
X24286029Y-53214210D01*
X24044124Y-53698019D02*
X24044124Y-52682019D01*
X24431171Y-52682019D01*
X24527933Y-52730400D01*
X24576314Y-52778781D01*
X24624695Y-52875543D01*
X24624695Y-53020686D01*
X24576314Y-53117448D01*
X24527933Y-53165829D01*
X24431171Y-53214210D01*
X24044124Y-53214210D01*
X25011743Y-53649638D02*
X25156886Y-53698019D01*
X25398790Y-53698019D01*
X25495552Y-53649638D01*
X25543933Y-53601257D01*
X25592314Y-53504495D01*
X25592314Y-53407733D01*
X25543933Y-53310971D01*
X25495552Y-53262590D01*
X25398790Y-53214210D01*
X25205267Y-53165829D01*
X25108505Y-53117448D01*
X25060124Y-53069067D01*
X25011743Y-52972305D01*
X25011743Y-52875543D01*
X25060124Y-52778781D01*
X25108505Y-52730400D01*
X25205267Y-52682019D01*
X25447171Y-52682019D01*
X25592314Y-52730400D01*
X25882600Y-52682019D02*
X26463171Y-52682019D01*
X26172886Y-53698019D02*
X26172886Y-52682019D01*
X23802219Y-52506880D02*
X26559933Y-52506880D01*
X23995743Y-51109638D02*
X24140886Y-51158019D01*
X24382790Y-51158019D01*
X24479552Y-51109638D01*
X24527933Y-51061257D01*
X24576314Y-50964495D01*
X24576314Y-50867733D01*
X24527933Y-50770971D01*
X24479552Y-50722590D01*
X24382790Y-50674210D01*
X24189267Y-50625829D01*
X24092505Y-50577448D01*
X24044124Y-50529067D01*
X23995743Y-50432305D01*
X23995743Y-50335543D01*
X24044124Y-50238781D01*
X24092505Y-50190400D01*
X24189267Y-50142019D01*
X24431171Y-50142019D01*
X24576314Y-50190400D01*
X24914981Y-50142019D02*
X25156886Y-51158019D01*
X25350409Y-50432305D01*
X25543933Y-51158019D01*
X25785838Y-50142019D01*
X26753457Y-51061257D02*
X26705076Y-51109638D01*
X26559933Y-51158019D01*
X26463171Y-51158019D01*
X26318029Y-51109638D01*
X26221267Y-51012876D01*
X26172886Y-50916114D01*
X26124505Y-50722590D01*
X26124505Y-50577448D01*
X26172886Y-50383924D01*
X26221267Y-50287162D01*
X26318029Y-50190400D01*
X26463171Y-50142019D01*
X26559933Y-50142019D01*
X26705076Y-50190400D01*
X26753457Y-50238781D01*
X23995743Y-48569638D02*
X24140886Y-48618019D01*
X24382790Y-48618019D01*
X24479552Y-48569638D01*
X24527933Y-48521257D01*
X24576314Y-48424495D01*
X24576314Y-48327733D01*
X24527933Y-48230971D01*
X24479552Y-48182590D01*
X24382790Y-48134210D01*
X24189267Y-48085829D01*
X24092505Y-48037448D01*
X24044124Y-47989067D01*
X23995743Y-47892305D01*
X23995743Y-47795543D01*
X24044124Y-47698781D01*
X24092505Y-47650400D01*
X24189267Y-47602019D01*
X24431171Y-47602019D01*
X24576314Y-47650400D01*
X24914981Y-47602019D02*
X25156886Y-48618019D01*
X25350409Y-47892305D01*
X25543933Y-48618019D01*
X25785838Y-47602019D01*
X26172886Y-48618019D02*
X26172886Y-47602019D01*
X26414791Y-47602019D01*
X26559933Y-47650400D01*
X26656695Y-47747162D01*
X26705076Y-47843924D01*
X26753457Y-48037448D01*
X26753457Y-48182590D01*
X26705076Y-48376114D01*
X26656695Y-48472876D01*
X26559933Y-48569638D01*
X26414791Y-48618019D01*
X26172886Y-48618019D01*
X24116696Y-45062019D02*
X24745648Y-45062019D01*
X24406982Y-45449067D01*
X24552124Y-45449067D01*
X24648886Y-45497448D01*
X24697267Y-45545829D01*
X24745648Y-45642590D01*
X24745648Y-45884495D01*
X24697267Y-45981257D01*
X24648886Y-46029638D01*
X24552124Y-46078019D01*
X24261839Y-46078019D01*
X24165077Y-46029638D01*
X24116696Y-45981257D01*
X25035934Y-45062019D02*
X25374601Y-46078019D01*
X25713267Y-45062019D01*
X25955172Y-45062019D02*
X26584124Y-45062019D01*
X26245458Y-45449067D01*
X26390600Y-45449067D01*
X26487362Y-45497448D01*
X26535743Y-45545829D01*
X26584124Y-45642590D01*
X26584124Y-45884495D01*
X26535743Y-45981257D01*
X26487362Y-46029638D01*
X26390600Y-46078019D01*
X26100315Y-46078019D01*
X26003553Y-46029638D01*
X25955172Y-45981257D01*
X65421933Y-60670923D02*
X65421933Y-60187114D01*
X65712219Y-60767685D02*
X64696219Y-60429018D01*
X65712219Y-60090352D01*
X64792981Y-59800066D02*
X64744600Y-59751685D01*
X64696219Y-59654923D01*
X64696219Y-59413019D01*
X64744600Y-59316257D01*
X64792981Y-59267876D01*
X64889743Y-59219495D01*
X64986505Y-59219495D01*
X65131648Y-59267876D01*
X65712219Y-59848447D01*
X65712219Y-59219495D01*
X64696219Y-58880828D02*
X64696219Y-58251876D01*
X65083267Y-58590542D01*
X65083267Y-58445400D01*
X65131648Y-58348638D01*
X65180029Y-58300257D01*
X65276790Y-58251876D01*
X65518695Y-58251876D01*
X65615457Y-58300257D01*
X65663838Y-58348638D01*
X65712219Y-58445400D01*
X65712219Y-58735685D01*
X65663838Y-58832447D01*
X65615457Y-58880828D01*
X62881933Y-60670923D02*
X62881933Y-60187114D01*
X63172219Y-60767685D02*
X62156219Y-60429018D01*
X63172219Y-60090352D01*
X62252981Y-59800066D02*
X62204600Y-59751685D01*
X62156219Y-59654923D01*
X62156219Y-59413019D01*
X62204600Y-59316257D01*
X62252981Y-59267876D01*
X62349743Y-59219495D01*
X62446505Y-59219495D01*
X62591648Y-59267876D01*
X63172219Y-59848447D01*
X63172219Y-59219495D01*
X62252981Y-58832447D02*
X62204600Y-58784066D01*
X62156219Y-58687304D01*
X62156219Y-58445400D01*
X62204600Y-58348638D01*
X62252981Y-58300257D01*
X62349743Y-58251876D01*
X62446505Y-58251876D01*
X62591648Y-58300257D01*
X63172219Y-58880828D01*
X63172219Y-58251876D01*
X60341933Y-60670923D02*
X60341933Y-60187114D01*
X60632219Y-60767685D02*
X59616219Y-60429018D01*
X60632219Y-60090352D01*
X59712981Y-59800066D02*
X59664600Y-59751685D01*
X59616219Y-59654923D01*
X59616219Y-59413019D01*
X59664600Y-59316257D01*
X59712981Y-59267876D01*
X59809743Y-59219495D01*
X59906505Y-59219495D01*
X60051648Y-59267876D01*
X60632219Y-59848447D01*
X60632219Y-59219495D01*
X60632219Y-58251876D02*
X60632219Y-58832447D01*
X60632219Y-58542161D02*
X59616219Y-58542161D01*
X59761362Y-58638923D01*
X59858124Y-58735685D01*
X59906505Y-58832447D01*
X57801933Y-60670923D02*
X57801933Y-60187114D01*
X58092219Y-60767685D02*
X57076219Y-60429018D01*
X58092219Y-60090352D01*
X57172981Y-59800066D02*
X57124600Y-59751685D01*
X57076219Y-59654923D01*
X57076219Y-59413019D01*
X57124600Y-59316257D01*
X57172981Y-59267876D01*
X57269743Y-59219495D01*
X57366505Y-59219495D01*
X57511648Y-59267876D01*
X58092219Y-59848447D01*
X58092219Y-59219495D01*
X57076219Y-58590542D02*
X57076219Y-58493781D01*
X57124600Y-58397019D01*
X57172981Y-58348638D01*
X57269743Y-58300257D01*
X57463267Y-58251876D01*
X57705171Y-58251876D01*
X57898695Y-58300257D01*
X57995457Y-58348638D01*
X58043838Y-58397019D01*
X58092219Y-58493781D01*
X58092219Y-58590542D01*
X58043838Y-58687304D01*
X57995457Y-58735685D01*
X57898695Y-58784066D01*
X57705171Y-58832447D01*
X57463267Y-58832447D01*
X57269743Y-58784066D01*
X57172981Y-58735685D01*
X57124600Y-58687304D01*
X57076219Y-58590542D01*
X55261933Y-60670923D02*
X55261933Y-60187114D01*
X55552219Y-60767685D02*
X54536219Y-60429018D01*
X55552219Y-60090352D01*
X55552219Y-59219495D02*
X55552219Y-59800066D01*
X55552219Y-59509780D02*
X54536219Y-59509780D01*
X54681362Y-59606542D01*
X54778124Y-59703304D01*
X54826505Y-59800066D01*
X55552219Y-58735685D02*
X55552219Y-58542161D01*
X55503838Y-58445400D01*
X55455457Y-58397019D01*
X55310314Y-58300257D01*
X55116790Y-58251876D01*
X54729743Y-58251876D01*
X54632981Y-58300257D01*
X54584600Y-58348638D01*
X54536219Y-58445400D01*
X54536219Y-58638923D01*
X54584600Y-58735685D01*
X54632981Y-58784066D01*
X54729743Y-58832447D01*
X54971648Y-58832447D01*
X55068410Y-58784066D01*
X55116790Y-58735685D01*
X55165171Y-58638923D01*
X55165171Y-58445400D01*
X55116790Y-58348638D01*
X55068410Y-58300257D01*
X54971648Y-58251876D01*
X52721933Y-60670923D02*
X52721933Y-60187114D01*
X53012219Y-60767685D02*
X51996219Y-60429018D01*
X53012219Y-60090352D01*
X53012219Y-59219495D02*
X53012219Y-59800066D01*
X53012219Y-59509780D02*
X51996219Y-59509780D01*
X52141362Y-59606542D01*
X52238124Y-59703304D01*
X52286505Y-59800066D01*
X52431648Y-58638923D02*
X52383267Y-58735685D01*
X52334886Y-58784066D01*
X52238124Y-58832447D01*
X52189743Y-58832447D01*
X52092981Y-58784066D01*
X52044600Y-58735685D01*
X51996219Y-58638923D01*
X51996219Y-58445400D01*
X52044600Y-58348638D01*
X52092981Y-58300257D01*
X52189743Y-58251876D01*
X52238124Y-58251876D01*
X52334886Y-58300257D01*
X52383267Y-58348638D01*
X52431648Y-58445400D01*
X52431648Y-58638923D01*
X52480029Y-58735685D01*
X52528410Y-58784066D01*
X52625171Y-58832447D01*
X52818695Y-58832447D01*
X52915457Y-58784066D01*
X52963838Y-58735685D01*
X53012219Y-58638923D01*
X53012219Y-58445400D01*
X52963838Y-58348638D01*
X52915457Y-58300257D01*
X52818695Y-58251876D01*
X52625171Y-58251876D01*
X52528410Y-58300257D01*
X52480029Y-58348638D01*
X52431648Y-58445400D01*
X50181933Y-60670923D02*
X50181933Y-60187114D01*
X50472219Y-60767685D02*
X49456219Y-60429018D01*
X50472219Y-60090352D01*
X50472219Y-59219495D02*
X50472219Y-59800066D01*
X50472219Y-59509780D02*
X49456219Y-59509780D01*
X49601362Y-59606542D01*
X49698124Y-59703304D01*
X49746505Y-59800066D01*
X49456219Y-58880828D02*
X49456219Y-58203495D01*
X50472219Y-58638923D01*
X47641933Y-60670923D02*
X47641933Y-60187114D01*
X47932219Y-60767685D02*
X46916219Y-60429018D01*
X47932219Y-60090352D01*
X47932219Y-59219495D02*
X47932219Y-59800066D01*
X47932219Y-59509780D02*
X46916219Y-59509780D01*
X47061362Y-59606542D01*
X47158124Y-59703304D01*
X47206505Y-59800066D01*
X46916219Y-58348638D02*
X46916219Y-58542161D01*
X46964600Y-58638923D01*
X47012981Y-58687304D01*
X47158124Y-58784066D01*
X47351648Y-58832447D01*
X47738695Y-58832447D01*
X47835457Y-58784066D01*
X47883838Y-58735685D01*
X47932219Y-58638923D01*
X47932219Y-58445400D01*
X47883838Y-58348638D01*
X47835457Y-58300257D01*
X47738695Y-58251876D01*
X47496790Y-58251876D01*
X47400029Y-58300257D01*
X47351648Y-58348638D01*
X47303267Y-58445400D01*
X47303267Y-58638923D01*
X47351648Y-58735685D01*
X47400029Y-58784066D01*
X47496790Y-58832447D01*
X45101933Y-60670923D02*
X45101933Y-60187114D01*
X45392219Y-60767685D02*
X44376219Y-60429018D01*
X45392219Y-60090352D01*
X45392219Y-59219495D02*
X45392219Y-59800066D01*
X45392219Y-59509780D02*
X44376219Y-59509780D01*
X44521362Y-59606542D01*
X44618124Y-59703304D01*
X44666505Y-59800066D01*
X44376219Y-58880828D02*
X44376219Y-58251876D01*
X44763267Y-58590542D01*
X44763267Y-58445400D01*
X44811648Y-58348638D01*
X44860029Y-58300257D01*
X44956790Y-58251876D01*
X45198695Y-58251876D01*
X45295457Y-58300257D01*
X45343838Y-58348638D01*
X45392219Y-58445400D01*
X45392219Y-58735685D01*
X45343838Y-58832447D01*
X45295457Y-58880828D01*
X42561933Y-60670923D02*
X42561933Y-60187114D01*
X42852219Y-60767685D02*
X41836219Y-60429018D01*
X42852219Y-60090352D01*
X42852219Y-59219495D02*
X42852219Y-59800066D01*
X42852219Y-59509780D02*
X41836219Y-59509780D01*
X41981362Y-59606542D01*
X42078124Y-59703304D01*
X42126505Y-59800066D01*
X41932981Y-58832447D02*
X41884600Y-58784066D01*
X41836219Y-58687304D01*
X41836219Y-58445400D01*
X41884600Y-58348638D01*
X41932981Y-58300257D01*
X42029743Y-58251876D01*
X42126505Y-58251876D01*
X42271648Y-58300257D01*
X42852219Y-58880828D01*
X42852219Y-58251876D01*
X39780029Y-60356448D02*
X39828410Y-60211305D01*
X39876790Y-60162924D01*
X39973552Y-60114543D01*
X40118695Y-60114543D01*
X40215457Y-60162924D01*
X40263838Y-60211305D01*
X40312219Y-60308067D01*
X40312219Y-60695114D01*
X39296219Y-60695114D01*
X39296219Y-60356448D01*
X39344600Y-60259686D01*
X39392981Y-60211305D01*
X39489743Y-60162924D01*
X39586505Y-60162924D01*
X39683267Y-60211305D01*
X39731648Y-60259686D01*
X39780029Y-60356448D01*
X39780029Y-60695114D01*
X40312219Y-59146924D02*
X40312219Y-59727495D01*
X40312219Y-59437209D02*
X39296219Y-59437209D01*
X39441362Y-59533971D01*
X39538124Y-59630733D01*
X39586505Y-59727495D01*
X40312219Y-58179305D02*
X40312219Y-58759876D01*
X40312219Y-58469590D02*
X39296219Y-58469590D01*
X39441362Y-58566352D01*
X39538124Y-58663114D01*
X39586505Y-58759876D01*
X37240029Y-60356448D02*
X37288410Y-60211305D01*
X37336790Y-60162924D01*
X37433552Y-60114543D01*
X37578695Y-60114543D01*
X37675457Y-60162924D01*
X37723838Y-60211305D01*
X37772219Y-60308067D01*
X37772219Y-60695114D01*
X36756219Y-60695114D01*
X36756219Y-60356448D01*
X36804600Y-60259686D01*
X36852981Y-60211305D01*
X36949743Y-60162924D01*
X37046505Y-60162924D01*
X37143267Y-60211305D01*
X37191648Y-60259686D01*
X37240029Y-60356448D01*
X37240029Y-60695114D01*
X37772219Y-59146924D02*
X37772219Y-59727495D01*
X37772219Y-59437209D02*
X36756219Y-59437209D01*
X36901362Y-59533971D01*
X36998124Y-59630733D01*
X37046505Y-59727495D01*
X36756219Y-58517971D02*
X36756219Y-58421210D01*
X36804600Y-58324448D01*
X36852981Y-58276067D01*
X36949743Y-58227686D01*
X37143267Y-58179305D01*
X37385171Y-58179305D01*
X37578695Y-58227686D01*
X37675457Y-58276067D01*
X37723838Y-58324448D01*
X37772219Y-58421210D01*
X37772219Y-58517971D01*
X37723838Y-58614733D01*
X37675457Y-58663114D01*
X37578695Y-58711495D01*
X37385171Y-58759876D01*
X37143267Y-58759876D01*
X36949743Y-58711495D01*
X36852981Y-58663114D01*
X36804600Y-58614733D01*
X36756219Y-58517971D01*
X34941933Y-60670923D02*
X34941933Y-60187114D01*
X35232219Y-60767685D02*
X34216219Y-60429018D01*
X35232219Y-60090352D01*
X35232219Y-59219495D02*
X35232219Y-59800066D01*
X35232219Y-59509780D02*
X34216219Y-59509780D01*
X34361362Y-59606542D01*
X34458124Y-59703304D01*
X34506505Y-59800066D01*
X35232219Y-58251876D02*
X35232219Y-58832447D01*
X35232219Y-58542161D02*
X34216219Y-58542161D01*
X34361362Y-58638923D01*
X34458124Y-58735685D01*
X34506505Y-58832447D01*
X32401933Y-60670923D02*
X32401933Y-60187114D01*
X32692219Y-60767685D02*
X31676219Y-60429018D01*
X32692219Y-60090352D01*
X32692219Y-59219495D02*
X32692219Y-59800066D01*
X32692219Y-59509780D02*
X31676219Y-59509780D01*
X31821362Y-59606542D01*
X31918124Y-59703304D01*
X31966505Y-59800066D01*
X31676219Y-58590542D02*
X31676219Y-58493781D01*
X31724600Y-58397019D01*
X31772981Y-58348638D01*
X31869743Y-58300257D01*
X32063267Y-58251876D01*
X32305171Y-58251876D01*
X32498695Y-58300257D01*
X32595457Y-58348638D01*
X32643838Y-58397019D01*
X32692219Y-58493781D01*
X32692219Y-58590542D01*
X32643838Y-58687304D01*
X32595457Y-58735685D01*
X32498695Y-58784066D01*
X32305171Y-58832447D01*
X32063267Y-58832447D01*
X31869743Y-58784066D01*
X31772981Y-58735685D01*
X31724600Y-58687304D01*
X31676219Y-58590542D01*
X29861933Y-60670923D02*
X29861933Y-60187114D01*
X30152219Y-60767685D02*
X29136219Y-60429018D01*
X30152219Y-60090352D01*
X29136219Y-59558161D02*
X29136219Y-59461400D01*
X29184600Y-59364638D01*
X29232981Y-59316257D01*
X29329743Y-59267876D01*
X29523267Y-59219495D01*
X29765171Y-59219495D01*
X29958695Y-59267876D01*
X30055457Y-59316257D01*
X30103838Y-59364638D01*
X30152219Y-59461400D01*
X30152219Y-59558161D01*
X30103838Y-59654923D01*
X30055457Y-59703304D01*
X29958695Y-59751685D01*
X29765171Y-59800066D01*
X29523267Y-59800066D01*
X29329743Y-59751685D01*
X29232981Y-59703304D01*
X29184600Y-59654923D01*
X29136219Y-59558161D01*
X30152219Y-58735685D02*
X30152219Y-58542161D01*
X30103838Y-58445400D01*
X30055457Y-58397019D01*
X29910314Y-58300257D01*
X29716790Y-58251876D01*
X29329743Y-58251876D01*
X29232981Y-58300257D01*
X29184600Y-58348638D01*
X29136219Y-58445400D01*
X29136219Y-58638923D01*
X29184600Y-58735685D01*
X29232981Y-58784066D01*
X29329743Y-58832447D01*
X29571648Y-58832447D01*
X29668410Y-58784066D01*
X29716790Y-58735685D01*
X29765171Y-58638923D01*
X29765171Y-58445400D01*
X29716790Y-58348638D01*
X29668410Y-58300257D01*
X29571648Y-58251876D01*
X27321933Y-60670923D02*
X27321933Y-60187114D01*
X27612219Y-60767685D02*
X26596219Y-60429018D01*
X27612219Y-60090352D01*
X26596219Y-59558161D02*
X26596219Y-59461400D01*
X26644600Y-59364638D01*
X26692981Y-59316257D01*
X26789743Y-59267876D01*
X26983267Y-59219495D01*
X27225171Y-59219495D01*
X27418695Y-59267876D01*
X27515457Y-59316257D01*
X27563838Y-59364638D01*
X27612219Y-59461400D01*
X27612219Y-59558161D01*
X27563838Y-59654923D01*
X27515457Y-59703304D01*
X27418695Y-59751685D01*
X27225171Y-59800066D01*
X26983267Y-59800066D01*
X26789743Y-59751685D01*
X26692981Y-59703304D01*
X26644600Y-59654923D01*
X26596219Y-59558161D01*
X27031648Y-58638923D02*
X26983267Y-58735685D01*
X26934886Y-58784066D01*
X26838124Y-58832447D01*
X26789743Y-58832447D01*
X26692981Y-58784066D01*
X26644600Y-58735685D01*
X26596219Y-58638923D01*
X26596219Y-58445400D01*
X26644600Y-58348638D01*
X26692981Y-58300257D01*
X26789743Y-58251876D01*
X26838124Y-58251876D01*
X26934886Y-58300257D01*
X26983267Y-58348638D01*
X27031648Y-58445400D01*
X27031648Y-58638923D01*
X27080029Y-58735685D01*
X27128410Y-58784066D01*
X27225171Y-58832447D01*
X27418695Y-58832447D01*
X27515457Y-58784066D01*
X27563838Y-58735685D01*
X27612219Y-58638923D01*
X27612219Y-58445400D01*
X27563838Y-58348638D01*
X27515457Y-58300257D01*
X27418695Y-58251876D01*
X27225171Y-58251876D01*
X27128410Y-58300257D01*
X27080029Y-58348638D01*
X27031648Y-58445400D01*
X24781933Y-60670923D02*
X24781933Y-60187114D01*
X25072219Y-60767685D02*
X24056219Y-60429018D01*
X25072219Y-60090352D01*
X24056219Y-59558161D02*
X24056219Y-59461400D01*
X24104600Y-59364638D01*
X24152981Y-59316257D01*
X24249743Y-59267876D01*
X24443267Y-59219495D01*
X24685171Y-59219495D01*
X24878695Y-59267876D01*
X24975457Y-59316257D01*
X25023838Y-59364638D01*
X25072219Y-59461400D01*
X25072219Y-59558161D01*
X25023838Y-59654923D01*
X24975457Y-59703304D01*
X24878695Y-59751685D01*
X24685171Y-59800066D01*
X24443267Y-59800066D01*
X24249743Y-59751685D01*
X24152981Y-59703304D01*
X24104600Y-59654923D01*
X24056219Y-59558161D01*
X24056219Y-58880828D02*
X24056219Y-58203495D01*
X25072219Y-58638923D01*
X21516219Y-60719304D02*
X21516219Y-60090352D01*
X21903267Y-60429018D01*
X21903267Y-60283876D01*
X21951648Y-60187114D01*
X22000029Y-60138733D01*
X22096790Y-60090352D01*
X22338695Y-60090352D01*
X22435457Y-60138733D01*
X22483838Y-60187114D01*
X22532219Y-60283876D01*
X22532219Y-60574161D01*
X22483838Y-60670923D01*
X22435457Y-60719304D01*
X21516219Y-59800066D02*
X22532219Y-59461399D01*
X21516219Y-59122733D01*
X21516219Y-58880828D02*
X21516219Y-58251876D01*
X21903267Y-58590542D01*
X21903267Y-58445400D01*
X21951648Y-58348638D01*
X22000029Y-58300257D01*
X22096790Y-58251876D01*
X22338695Y-58251876D01*
X22435457Y-58300257D01*
X22483838Y-58348638D01*
X22532219Y-58445400D01*
X22532219Y-58735685D01*
X22483838Y-58832447D01*
X22435457Y-58880828D01*
X22241933Y-35216495D02*
X22241933Y-34732686D01*
X22532219Y-35313257D02*
X21516219Y-34974590D01*
X22532219Y-34635924D01*
X21564600Y-33765067D02*
X21516219Y-33861829D01*
X21516219Y-34006972D01*
X21564600Y-34152114D01*
X21661362Y-34248876D01*
X21758124Y-34297257D01*
X21951648Y-34345638D01*
X22096790Y-34345638D01*
X22290314Y-34297257D01*
X22387076Y-34248876D01*
X22483838Y-34152114D01*
X22532219Y-34006972D01*
X22532219Y-33910210D01*
X22483838Y-33765067D01*
X22435457Y-33716686D01*
X22096790Y-33716686D01*
X22096790Y-33910210D01*
X22532219Y-33281257D02*
X21516219Y-33281257D01*
X22532219Y-32700686D01*
X21516219Y-32700686D01*
X22532219Y-32216876D02*
X21516219Y-32216876D01*
X21516219Y-31974971D01*
X21564600Y-31829829D01*
X21661362Y-31733067D01*
X21758124Y-31684686D01*
X21951648Y-31636305D01*
X22096790Y-31636305D01*
X22290314Y-31684686D01*
X22387076Y-31733067D01*
X22483838Y-31829829D01*
X22532219Y-31974971D01*
X22532219Y-32216876D01*
X64696219Y-35192304D02*
X65712219Y-34853637D01*
X64696219Y-34514971D01*
X64696219Y-34176304D02*
X65518695Y-34176304D01*
X65615457Y-34127923D01*
X65663838Y-34079542D01*
X65712219Y-33982780D01*
X65712219Y-33789257D01*
X65663838Y-33692495D01*
X65615457Y-33644114D01*
X65518695Y-33595733D01*
X64696219Y-33595733D01*
X65663838Y-33160304D02*
X65712219Y-33015161D01*
X65712219Y-32773257D01*
X65663838Y-32676495D01*
X65615457Y-32628114D01*
X65518695Y-32579733D01*
X65421933Y-32579733D01*
X65325171Y-32628114D01*
X65276790Y-32676495D01*
X65228410Y-32773257D01*
X65180029Y-32966780D01*
X65131648Y-33063542D01*
X65083267Y-33111923D01*
X64986505Y-33160304D01*
X64889743Y-33160304D01*
X64792981Y-33111923D01*
X64744600Y-33063542D01*
X64696219Y-32966780D01*
X64696219Y-32724876D01*
X64744600Y-32579733D01*
X65180029Y-31805638D02*
X65228410Y-31660495D01*
X65276790Y-31612114D01*
X65373552Y-31563733D01*
X65518695Y-31563733D01*
X65615457Y-31612114D01*
X65663838Y-31660495D01*
X65712219Y-31757257D01*
X65712219Y-32144304D01*
X64696219Y-32144304D01*
X64696219Y-31805638D01*
X64744600Y-31708876D01*
X64792981Y-31660495D01*
X64889743Y-31612114D01*
X64986505Y-31612114D01*
X65083267Y-31660495D01*
X65131648Y-31708876D01*
X65180029Y-31805638D01*
X65180029Y-32144304D01*
X62204600Y-33692495D02*
X62156219Y-33789257D01*
X62156219Y-33934400D01*
X62204600Y-34079542D01*
X62301362Y-34176304D01*
X62398124Y-34224685D01*
X62591648Y-34273066D01*
X62736790Y-34273066D01*
X62930314Y-34224685D01*
X63027076Y-34176304D01*
X63123838Y-34079542D01*
X63172219Y-33934400D01*
X63172219Y-33837638D01*
X63123838Y-33692495D01*
X63075457Y-33644114D01*
X62736790Y-33644114D01*
X62736790Y-33837638D01*
X63172219Y-33208685D02*
X62156219Y-33208685D01*
X63172219Y-32628114D01*
X62156219Y-32628114D01*
X63172219Y-32144304D02*
X62156219Y-32144304D01*
X62156219Y-31902399D01*
X62204600Y-31757257D01*
X62301362Y-31660495D01*
X62398124Y-31612114D01*
X62591648Y-31563733D01*
X62736790Y-31563733D01*
X62930314Y-31612114D01*
X63027076Y-31660495D01*
X63123838Y-31757257D01*
X63172219Y-31902399D01*
X63172219Y-32144304D01*
X60100029Y-33813448D02*
X60148410Y-33668305D01*
X60196790Y-33619924D01*
X60293552Y-33571543D01*
X60438695Y-33571543D01*
X60535457Y-33619924D01*
X60583838Y-33668305D01*
X60632219Y-33765067D01*
X60632219Y-34152114D01*
X59616219Y-34152114D01*
X59616219Y-33813448D01*
X59664600Y-33716686D01*
X59712981Y-33668305D01*
X59809743Y-33619924D01*
X59906505Y-33619924D01*
X60003267Y-33668305D01*
X60051648Y-33716686D01*
X60100029Y-33813448D01*
X60100029Y-34152114D01*
X59712981Y-33184495D02*
X59664600Y-33136114D01*
X59616219Y-33039352D01*
X59616219Y-32797448D01*
X59664600Y-32700686D01*
X59712981Y-32652305D01*
X59809743Y-32603924D01*
X59906505Y-32603924D01*
X60051648Y-32652305D01*
X60632219Y-33232876D01*
X60632219Y-32603924D01*
X59712981Y-32216876D02*
X59664600Y-32168495D01*
X59616219Y-32071733D01*
X59616219Y-31829829D01*
X59664600Y-31733067D01*
X59712981Y-31684686D01*
X59809743Y-31636305D01*
X59906505Y-31636305D01*
X60051648Y-31684686D01*
X60632219Y-32265257D01*
X60632219Y-31636305D01*
X57560029Y-33813448D02*
X57608410Y-33668305D01*
X57656790Y-33619924D01*
X57753552Y-33571543D01*
X57898695Y-33571543D01*
X57995457Y-33619924D01*
X58043838Y-33668305D01*
X58092219Y-33765067D01*
X58092219Y-34152114D01*
X57076219Y-34152114D01*
X57076219Y-33813448D01*
X57124600Y-33716686D01*
X57172981Y-33668305D01*
X57269743Y-33619924D01*
X57366505Y-33619924D01*
X57463267Y-33668305D01*
X57511648Y-33716686D01*
X57560029Y-33813448D01*
X57560029Y-34152114D01*
X57172981Y-33184495D02*
X57124600Y-33136114D01*
X57076219Y-33039352D01*
X57076219Y-32797448D01*
X57124600Y-32700686D01*
X57172981Y-32652305D01*
X57269743Y-32603924D01*
X57366505Y-32603924D01*
X57511648Y-32652305D01*
X58092219Y-33232876D01*
X58092219Y-32603924D01*
X57076219Y-32265257D02*
X57076219Y-31636305D01*
X57463267Y-31974971D01*
X57463267Y-31829829D01*
X57511648Y-31733067D01*
X57560029Y-31684686D01*
X57656790Y-31636305D01*
X57898695Y-31636305D01*
X57995457Y-31684686D01*
X58043838Y-31733067D01*
X58092219Y-31829829D01*
X58092219Y-32120114D01*
X58043838Y-32216876D01*
X57995457Y-32265257D01*
X55261933Y-34127923D02*
X55261933Y-33644114D01*
X55552219Y-34224685D02*
X54536219Y-33886018D01*
X55552219Y-33547352D01*
X54632981Y-33257066D02*
X54584600Y-33208685D01*
X54536219Y-33111923D01*
X54536219Y-32870019D01*
X54584600Y-32773257D01*
X54632981Y-32724876D01*
X54729743Y-32676495D01*
X54826505Y-32676495D01*
X54971648Y-32724876D01*
X55552219Y-33305447D01*
X55552219Y-32676495D01*
X54536219Y-32337828D02*
X54536219Y-31660495D01*
X55552219Y-32095923D01*
X52721933Y-34127923D02*
X52721933Y-33644114D01*
X53012219Y-34224685D02*
X51996219Y-33886018D01*
X53012219Y-33547352D01*
X52092981Y-33257066D02*
X52044600Y-33208685D01*
X51996219Y-33111923D01*
X51996219Y-32870019D01*
X52044600Y-32773257D01*
X52092981Y-32724876D01*
X52189743Y-32676495D01*
X52286505Y-32676495D01*
X52431648Y-32724876D01*
X53012219Y-33305447D01*
X53012219Y-32676495D01*
X52431648Y-32095923D02*
X52383267Y-32192685D01*
X52334886Y-32241066D01*
X52238124Y-32289447D01*
X52189743Y-32289447D01*
X52092981Y-32241066D01*
X52044600Y-32192685D01*
X51996219Y-32095923D01*
X51996219Y-31902400D01*
X52044600Y-31805638D01*
X52092981Y-31757257D01*
X52189743Y-31708876D01*
X52238124Y-31708876D01*
X52334886Y-31757257D01*
X52383267Y-31805638D01*
X52431648Y-31902400D01*
X52431648Y-32095923D01*
X52480029Y-32192685D01*
X52528410Y-32241066D01*
X52625171Y-32289447D01*
X52818695Y-32289447D01*
X52915457Y-32241066D01*
X52963838Y-32192685D01*
X53012219Y-32095923D01*
X53012219Y-31902400D01*
X52963838Y-31805638D01*
X52915457Y-31757257D01*
X52818695Y-31708876D01*
X52625171Y-31708876D01*
X52528410Y-31757257D01*
X52480029Y-31805638D01*
X52431648Y-31902400D01*
X49601362Y-32083829D02*
X49746505Y-32132210D01*
X49794886Y-32180590D01*
X49843267Y-32277352D01*
X49843267Y-32422495D01*
X49794886Y-32519257D01*
X49746505Y-32567638D01*
X49649743Y-32616019D01*
X49262696Y-32616019D01*
X49262696Y-31600019D01*
X49601362Y-31600019D01*
X49698124Y-31648400D01*
X49746505Y-31696781D01*
X49794886Y-31793543D01*
X49794886Y-31890305D01*
X49746505Y-31987067D01*
X49698124Y-32035448D01*
X49601362Y-32083829D01*
X49262696Y-32083829D01*
X50230315Y-31696781D02*
X50278696Y-31648400D01*
X50375458Y-31600019D01*
X50617362Y-31600019D01*
X50714124Y-31648400D01*
X50762505Y-31696781D01*
X50810886Y-31793543D01*
X50810886Y-31890305D01*
X50762505Y-32035448D01*
X50181934Y-32616019D01*
X50810886Y-32616019D01*
X47061362Y-32083829D02*
X47206505Y-32132210D01*
X47254886Y-32180590D01*
X47303267Y-32277352D01*
X47303267Y-32422495D01*
X47254886Y-32519257D01*
X47206505Y-32567638D01*
X47109743Y-32616019D01*
X46722696Y-32616019D01*
X46722696Y-31600019D01*
X47061362Y-31600019D01*
X47158124Y-31648400D01*
X47206505Y-31696781D01*
X47254886Y-31793543D01*
X47254886Y-31890305D01*
X47206505Y-31987067D01*
X47158124Y-32035448D01*
X47061362Y-32083829D01*
X46722696Y-32083829D01*
X47641934Y-31600019D02*
X48270886Y-31600019D01*
X47932220Y-31987067D01*
X48077362Y-31987067D01*
X48174124Y-32035448D01*
X48222505Y-32083829D01*
X48270886Y-32180590D01*
X48270886Y-32422495D01*
X48222505Y-32519257D01*
X48174124Y-32567638D01*
X48077362Y-32616019D01*
X47787077Y-32616019D01*
X47690315Y-32567638D01*
X47641934Y-32519257D01*
X45101933Y-34127923D02*
X45101933Y-33644114D01*
X45392219Y-34224685D02*
X44376219Y-33886018D01*
X45392219Y-33547352D01*
X44376219Y-33015161D02*
X44376219Y-32918400D01*
X44424600Y-32821638D01*
X44472981Y-32773257D01*
X44569743Y-32724876D01*
X44763267Y-32676495D01*
X45005171Y-32676495D01*
X45198695Y-32724876D01*
X45295457Y-32773257D01*
X45343838Y-32821638D01*
X45392219Y-32918400D01*
X45392219Y-33015161D01*
X45343838Y-33111923D01*
X45295457Y-33160304D01*
X45198695Y-33208685D01*
X45005171Y-33257066D01*
X44763267Y-33257066D01*
X44569743Y-33208685D01*
X44472981Y-33160304D01*
X44424600Y-33111923D01*
X44376219Y-33015161D01*
X44376219Y-32047542D02*
X44376219Y-31950781D01*
X44424600Y-31854019D01*
X44472981Y-31805638D01*
X44569743Y-31757257D01*
X44763267Y-31708876D01*
X45005171Y-31708876D01*
X45198695Y-31757257D01*
X45295457Y-31805638D01*
X45343838Y-31854019D01*
X45392219Y-31950781D01*
X45392219Y-32047542D01*
X45343838Y-32144304D01*
X45295457Y-32192685D01*
X45198695Y-32241066D01*
X45005171Y-32289447D01*
X44763267Y-32289447D01*
X44569743Y-32241066D01*
X44472981Y-32192685D01*
X44424600Y-32144304D01*
X44376219Y-32047542D01*
X42561933Y-34127923D02*
X42561933Y-33644114D01*
X42852219Y-34224685D02*
X41836219Y-33886018D01*
X42852219Y-33547352D01*
X41836219Y-33015161D02*
X41836219Y-32918400D01*
X41884600Y-32821638D01*
X41932981Y-32773257D01*
X42029743Y-32724876D01*
X42223267Y-32676495D01*
X42465171Y-32676495D01*
X42658695Y-32724876D01*
X42755457Y-32773257D01*
X42803838Y-32821638D01*
X42852219Y-32918400D01*
X42852219Y-33015161D01*
X42803838Y-33111923D01*
X42755457Y-33160304D01*
X42658695Y-33208685D01*
X42465171Y-33257066D01*
X42223267Y-33257066D01*
X42029743Y-33208685D01*
X41932981Y-33160304D01*
X41884600Y-33111923D01*
X41836219Y-33015161D01*
X42852219Y-31708876D02*
X42852219Y-32289447D01*
X42852219Y-31999161D02*
X41836219Y-31999161D01*
X41981362Y-32095923D01*
X42078124Y-32192685D01*
X42126505Y-32289447D01*
X40021933Y-34127923D02*
X40021933Y-33644114D01*
X40312219Y-34224685D02*
X39296219Y-33886018D01*
X40312219Y-33547352D01*
X39296219Y-33015161D02*
X39296219Y-32918400D01*
X39344600Y-32821638D01*
X39392981Y-32773257D01*
X39489743Y-32724876D01*
X39683267Y-32676495D01*
X39925171Y-32676495D01*
X40118695Y-32724876D01*
X40215457Y-32773257D01*
X40263838Y-32821638D01*
X40312219Y-32918400D01*
X40312219Y-33015161D01*
X40263838Y-33111923D01*
X40215457Y-33160304D01*
X40118695Y-33208685D01*
X39925171Y-33257066D01*
X39683267Y-33257066D01*
X39489743Y-33208685D01*
X39392981Y-33160304D01*
X39344600Y-33111923D01*
X39296219Y-33015161D01*
X39392981Y-32289447D02*
X39344600Y-32241066D01*
X39296219Y-32144304D01*
X39296219Y-31902400D01*
X39344600Y-31805638D01*
X39392981Y-31757257D01*
X39489743Y-31708876D01*
X39586505Y-31708876D01*
X39731648Y-31757257D01*
X40312219Y-32337828D01*
X40312219Y-31708876D01*
X37481933Y-34127923D02*
X37481933Y-33644114D01*
X37772219Y-34224685D02*
X36756219Y-33886018D01*
X37772219Y-33547352D01*
X36756219Y-33015161D02*
X36756219Y-32918400D01*
X36804600Y-32821638D01*
X36852981Y-32773257D01*
X36949743Y-32724876D01*
X37143267Y-32676495D01*
X37385171Y-32676495D01*
X37578695Y-32724876D01*
X37675457Y-32773257D01*
X37723838Y-32821638D01*
X37772219Y-32918400D01*
X37772219Y-33015161D01*
X37723838Y-33111923D01*
X37675457Y-33160304D01*
X37578695Y-33208685D01*
X37385171Y-33257066D01*
X37143267Y-33257066D01*
X36949743Y-33208685D01*
X36852981Y-33160304D01*
X36804600Y-33111923D01*
X36756219Y-33015161D01*
X36756219Y-32337828D02*
X36756219Y-31708876D01*
X37143267Y-32047542D01*
X37143267Y-31902400D01*
X37191648Y-31805638D01*
X37240029Y-31757257D01*
X37336790Y-31708876D01*
X37578695Y-31708876D01*
X37675457Y-31757257D01*
X37723838Y-31805638D01*
X37772219Y-31902400D01*
X37772219Y-32192685D01*
X37723838Y-32289447D01*
X37675457Y-32337828D01*
X34700029Y-33813448D02*
X34748410Y-33668305D01*
X34796790Y-33619924D01*
X34893552Y-33571543D01*
X35038695Y-33571543D01*
X35135457Y-33619924D01*
X35183838Y-33668305D01*
X35232219Y-33765067D01*
X35232219Y-34152114D01*
X34216219Y-34152114D01*
X34216219Y-33813448D01*
X34264600Y-33716686D01*
X34312981Y-33668305D01*
X34409743Y-33619924D01*
X34506505Y-33619924D01*
X34603267Y-33668305D01*
X34651648Y-33716686D01*
X34700029Y-33813448D01*
X34700029Y-34152114D01*
X34216219Y-32942590D02*
X34216219Y-32845829D01*
X34264600Y-32749067D01*
X34312981Y-32700686D01*
X34409743Y-32652305D01*
X34603267Y-32603924D01*
X34845171Y-32603924D01*
X35038695Y-32652305D01*
X35135457Y-32700686D01*
X35183838Y-32749067D01*
X35232219Y-32845829D01*
X35232219Y-32942590D01*
X35183838Y-33039352D01*
X35135457Y-33087733D01*
X35038695Y-33136114D01*
X34845171Y-33184495D01*
X34603267Y-33184495D01*
X34409743Y-33136114D01*
X34312981Y-33087733D01*
X34264600Y-33039352D01*
X34216219Y-32942590D01*
X34651648Y-32023352D02*
X34603267Y-32120114D01*
X34554886Y-32168495D01*
X34458124Y-32216876D01*
X34409743Y-32216876D01*
X34312981Y-32168495D01*
X34264600Y-32120114D01*
X34216219Y-32023352D01*
X34216219Y-31829829D01*
X34264600Y-31733067D01*
X34312981Y-31684686D01*
X34409743Y-31636305D01*
X34458124Y-31636305D01*
X34554886Y-31684686D01*
X34603267Y-31733067D01*
X34651648Y-31829829D01*
X34651648Y-32023352D01*
X34700029Y-32120114D01*
X34748410Y-32168495D01*
X34845171Y-32216876D01*
X35038695Y-32216876D01*
X35135457Y-32168495D01*
X35183838Y-32120114D01*
X35232219Y-32023352D01*
X35232219Y-31829829D01*
X35183838Y-31733067D01*
X35135457Y-31684686D01*
X35038695Y-31636305D01*
X34845171Y-31636305D01*
X34748410Y-31684686D01*
X34700029Y-31733067D01*
X34651648Y-31829829D01*
X32160029Y-33813448D02*
X32208410Y-33668305D01*
X32256790Y-33619924D01*
X32353552Y-33571543D01*
X32498695Y-33571543D01*
X32595457Y-33619924D01*
X32643838Y-33668305D01*
X32692219Y-33765067D01*
X32692219Y-34152114D01*
X31676219Y-34152114D01*
X31676219Y-33813448D01*
X31724600Y-33716686D01*
X31772981Y-33668305D01*
X31869743Y-33619924D01*
X31966505Y-33619924D01*
X32063267Y-33668305D01*
X32111648Y-33716686D01*
X32160029Y-33813448D01*
X32160029Y-34152114D01*
X31676219Y-32942590D02*
X31676219Y-32845829D01*
X31724600Y-32749067D01*
X31772981Y-32700686D01*
X31869743Y-32652305D01*
X32063267Y-32603924D01*
X32305171Y-32603924D01*
X32498695Y-32652305D01*
X32595457Y-32700686D01*
X32643838Y-32749067D01*
X32692219Y-32845829D01*
X32692219Y-32942590D01*
X32643838Y-33039352D01*
X32595457Y-33087733D01*
X32498695Y-33136114D01*
X32305171Y-33184495D01*
X32063267Y-33184495D01*
X31869743Y-33136114D01*
X31772981Y-33087733D01*
X31724600Y-33039352D01*
X31676219Y-32942590D01*
X32692219Y-32120114D02*
X32692219Y-31926590D01*
X32643838Y-31829829D01*
X32595457Y-31781448D01*
X32450314Y-31684686D01*
X32256790Y-31636305D01*
X31869743Y-31636305D01*
X31772981Y-31684686D01*
X31724600Y-31733067D01*
X31676219Y-31829829D01*
X31676219Y-32023352D01*
X31724600Y-32120114D01*
X31772981Y-32168495D01*
X31869743Y-32216876D01*
X32111648Y-32216876D01*
X32208410Y-32168495D01*
X32256790Y-32120114D01*
X32305171Y-32023352D01*
X32305171Y-31829829D01*
X32256790Y-31733067D01*
X32208410Y-31684686D01*
X32111648Y-31636305D01*
X29861933Y-34127923D02*
X29861933Y-33644114D01*
X30152219Y-34224685D02*
X29136219Y-33886018D01*
X30152219Y-33547352D01*
X29136219Y-33015161D02*
X29136219Y-32918400D01*
X29184600Y-32821638D01*
X29232981Y-32773257D01*
X29329743Y-32724876D01*
X29523267Y-32676495D01*
X29765171Y-32676495D01*
X29958695Y-32724876D01*
X30055457Y-32773257D01*
X30103838Y-32821638D01*
X30152219Y-32918400D01*
X30152219Y-33015161D01*
X30103838Y-33111923D01*
X30055457Y-33160304D01*
X29958695Y-33208685D01*
X29765171Y-33257066D01*
X29523267Y-33257066D01*
X29329743Y-33208685D01*
X29232981Y-33160304D01*
X29184600Y-33111923D01*
X29136219Y-33015161D01*
X29474886Y-31805638D02*
X30152219Y-31805638D01*
X29087838Y-32047542D02*
X29813552Y-32289447D01*
X29813552Y-31660495D01*
X27321933Y-34127923D02*
X27321933Y-33644114D01*
X27612219Y-34224685D02*
X26596219Y-33886018D01*
X27612219Y-33547352D01*
X26596219Y-33015161D02*
X26596219Y-32918400D01*
X26644600Y-32821638D01*
X26692981Y-32773257D01*
X26789743Y-32724876D01*
X26983267Y-32676495D01*
X27225171Y-32676495D01*
X27418695Y-32724876D01*
X27515457Y-32773257D01*
X27563838Y-32821638D01*
X27612219Y-32918400D01*
X27612219Y-33015161D01*
X27563838Y-33111923D01*
X27515457Y-33160304D01*
X27418695Y-33208685D01*
X27225171Y-33257066D01*
X26983267Y-33257066D01*
X26789743Y-33208685D01*
X26692981Y-33160304D01*
X26644600Y-33111923D01*
X26596219Y-33015161D01*
X26596219Y-31757257D02*
X26596219Y-32241066D01*
X27080029Y-32289447D01*
X27031648Y-32241066D01*
X26983267Y-32144304D01*
X26983267Y-31902400D01*
X27031648Y-31805638D01*
X27080029Y-31757257D01*
X27176790Y-31708876D01*
X27418695Y-31708876D01*
X27515457Y-31757257D01*
X27563838Y-31805638D01*
X27612219Y-31902400D01*
X27612219Y-32144304D01*
X27563838Y-32241066D01*
X27515457Y-32289447D01*
X24781933Y-34127923D02*
X24781933Y-33644114D01*
X25072219Y-34224685D02*
X24056219Y-33886018D01*
X25072219Y-33547352D01*
X24056219Y-33015161D02*
X24056219Y-32918400D01*
X24104600Y-32821638D01*
X24152981Y-32773257D01*
X24249743Y-32724876D01*
X24443267Y-32676495D01*
X24685171Y-32676495D01*
X24878695Y-32724876D01*
X24975457Y-32773257D01*
X25023838Y-32821638D01*
X25072219Y-32918400D01*
X25072219Y-33015161D01*
X25023838Y-33111923D01*
X24975457Y-33160304D01*
X24878695Y-33208685D01*
X24685171Y-33257066D01*
X24443267Y-33257066D01*
X24249743Y-33208685D01*
X24152981Y-33160304D01*
X24104600Y-33111923D01*
X24056219Y-33015161D01*
X24056219Y-31805638D02*
X24056219Y-31999161D01*
X24104600Y-32095923D01*
X24152981Y-32144304D01*
X24298124Y-32241066D01*
X24491648Y-32289447D01*
X24878695Y-32289447D01*
X24975457Y-32241066D01*
X25023838Y-32192685D01*
X25072219Y-32095923D01*
X25072219Y-31902400D01*
X25023838Y-31805638D01*
X24975457Y-31757257D01*
X24878695Y-31708876D01*
X24636790Y-31708876D01*
X24540029Y-31757257D01*
X24491648Y-31805638D01*
X24443267Y-31902400D01*
X24443267Y-32095923D01*
X24491648Y-32192685D01*
X24540029Y-32241066D01*
X24636790Y-32289447D01*
X21504124Y-37583533D02*
X21987933Y-37583533D01*
X21407362Y-37873819D02*
X21746029Y-36857819D01*
X22084695Y-37873819D01*
X22278219Y-36857819D02*
X22858790Y-36857819D01*
X22568505Y-37873819D02*
X22568505Y-36857819D01*
X23149076Y-37825438D02*
X23294219Y-37873819D01*
X23536123Y-37873819D01*
X23632885Y-37825438D01*
X23681266Y-37777057D01*
X23729647Y-37680295D01*
X23729647Y-37583533D01*
X23681266Y-37486771D01*
X23632885Y-37438390D01*
X23536123Y-37390010D01*
X23342600Y-37341629D01*
X23245838Y-37293248D01*
X23197457Y-37244867D01*
X23149076Y-37148105D01*
X23149076Y-37051343D01*
X23197457Y-36954581D01*
X23245838Y-36906200D01*
X23342600Y-36857819D01*
X23584504Y-36857819D01*
X23729647Y-36906200D01*
X24116695Y-37583533D02*
X24600504Y-37583533D01*
X24019933Y-37873819D02*
X24358600Y-36857819D01*
X24697266Y-37873819D01*
X25035933Y-37873819D02*
X25035933Y-36857819D01*
X25374599Y-37583533D01*
X25713266Y-36857819D01*
X25713266Y-37873819D01*
X26197076Y-37873819D02*
X26197076Y-36857819D01*
X26438981Y-36857819D01*
X26584123Y-36906200D01*
X26680885Y-37002962D01*
X26729266Y-37099724D01*
X26777647Y-37293248D01*
X26777647Y-37438390D01*
X26729266Y-37631914D01*
X26680885Y-37728676D01*
X26584123Y-37825438D01*
X26438981Y-37873819D01*
X26197076Y-37873819D01*
X27164695Y-36954581D02*
X27213076Y-36906200D01*
X27309838Y-36857819D01*
X27551742Y-36857819D01*
X27648504Y-36906200D01*
X27696885Y-36954581D01*
X27745266Y-37051343D01*
X27745266Y-37148105D01*
X27696885Y-37293248D01*
X27116314Y-37873819D01*
X27745266Y-37873819D01*
X28712885Y-37873819D02*
X28132314Y-37873819D01*
X28422600Y-37873819D02*
X28422600Y-36857819D01*
X28325838Y-37002962D01*
X28229076Y-37099724D01*
X28132314Y-37148105D01*
X29680504Y-36906200D02*
X29583742Y-36857819D01*
X29438599Y-36857819D01*
X29293457Y-36906200D01*
X29196695Y-37002962D01*
X29148314Y-37099724D01*
X29099933Y-37293248D01*
X29099933Y-37438390D01*
X29148314Y-37631914D01*
X29196695Y-37728676D01*
X29293457Y-37825438D01*
X29438599Y-37873819D01*
X29535361Y-37873819D01*
X29680504Y-37825438D01*
X29728885Y-37777057D01*
X29728885Y-37438390D01*
X29535361Y-37438390D01*
X31277075Y-37341629D02*
X31422218Y-37390010D01*
X31470599Y-37438390D01*
X31518980Y-37535152D01*
X31518980Y-37680295D01*
X31470599Y-37777057D01*
X31422218Y-37825438D01*
X31325456Y-37873819D01*
X30938409Y-37873819D01*
X30938409Y-36857819D01*
X31277075Y-36857819D01*
X31373837Y-36906200D01*
X31422218Y-36954581D01*
X31470599Y-37051343D01*
X31470599Y-37148105D01*
X31422218Y-37244867D01*
X31373837Y-37293248D01*
X31277075Y-37341629D01*
X30938409Y-37341629D01*
X31954409Y-37873819D02*
X31954409Y-37196486D01*
X31954409Y-37390010D02*
X32002790Y-37293248D01*
X32051171Y-37244867D01*
X32147933Y-37196486D01*
X32244694Y-37196486D01*
X32970408Y-37825438D02*
X32873646Y-37873819D01*
X32680123Y-37873819D01*
X32583361Y-37825438D01*
X32534980Y-37728676D01*
X32534980Y-37341629D01*
X32583361Y-37244867D01*
X32680123Y-37196486D01*
X32873646Y-37196486D01*
X32970408Y-37244867D01*
X33018789Y-37341629D01*
X33018789Y-37438390D01*
X32534980Y-37535152D01*
X33889646Y-37873819D02*
X33889646Y-37341629D01*
X33841265Y-37244867D01*
X33744503Y-37196486D01*
X33550980Y-37196486D01*
X33454218Y-37244867D01*
X33889646Y-37825438D02*
X33792884Y-37873819D01*
X33550980Y-37873819D01*
X33454218Y-37825438D01*
X33405837Y-37728676D01*
X33405837Y-37631914D01*
X33454218Y-37535152D01*
X33550980Y-37486771D01*
X33792884Y-37486771D01*
X33889646Y-37438390D01*
X34373456Y-37873819D02*
X34373456Y-36857819D01*
X34470218Y-37486771D02*
X34760503Y-37873819D01*
X34760503Y-37196486D02*
X34373456Y-37583533D01*
X35341075Y-37873819D02*
X35244313Y-37825438D01*
X35195932Y-37777057D01*
X35147551Y-37680295D01*
X35147551Y-37390010D01*
X35195932Y-37293248D01*
X35244313Y-37244867D01*
X35341075Y-37196486D01*
X35486217Y-37196486D01*
X35582979Y-37244867D01*
X35631360Y-37293248D01*
X35679741Y-37390010D01*
X35679741Y-37680295D01*
X35631360Y-37777057D01*
X35582979Y-37825438D01*
X35486217Y-37873819D01*
X35341075Y-37873819D01*
X36550598Y-37196486D02*
X36550598Y-37873819D01*
X36115170Y-37196486D02*
X36115170Y-37728676D01*
X36163551Y-37825438D01*
X36260313Y-37873819D01*
X36405455Y-37873819D01*
X36502217Y-37825438D01*
X36550598Y-37777057D01*
X36889265Y-37196486D02*
X37276313Y-37196486D01*
X37034408Y-36857819D02*
X37034408Y-37728676D01*
X37082789Y-37825438D01*
X37179551Y-37873819D01*
X37276313Y-37873819D01*
X38292312Y-37196486D02*
X38534217Y-37873819D01*
X38776121Y-37196486D01*
X39695359Y-37873819D02*
X39114788Y-37873819D01*
X39405074Y-37873819D02*
X39405074Y-36857819D01*
X39308312Y-37002962D01*
X39211550Y-37099724D01*
X39114788Y-37148105D01*
X40130788Y-37777057D02*
X40179169Y-37825438D01*
X40130788Y-37873819D01*
X40082407Y-37825438D01*
X40130788Y-37777057D01*
X40130788Y-37873819D01*
X40808122Y-36857819D02*
X40904883Y-36857819D01*
X41001645Y-36906200D01*
X41050026Y-36954581D01*
X41098407Y-37051343D01*
X41146788Y-37244867D01*
X41146788Y-37486771D01*
X41098407Y-37680295D01*
X41050026Y-37777057D01*
X41001645Y-37825438D01*
X40904883Y-37873819D01*
X40808122Y-37873819D01*
X40711360Y-37825438D01*
X40662979Y-37777057D01*
X40614598Y-37680295D01*
X40566217Y-37486771D01*
X40566217Y-37244867D01*
X40614598Y-37051343D01*
X40662979Y-36954581D01*
X40711360Y-36906200D01*
X40808122Y-36857819D01*
X21455743Y-38872886D02*
X21649267Y-39550219D01*
X21842790Y-39066410D01*
X22036314Y-39550219D01*
X22229838Y-38872886D01*
X22616886Y-39550219D02*
X22616886Y-38872886D01*
X22616886Y-38534219D02*
X22568505Y-38582600D01*
X22616886Y-38630981D01*
X22665267Y-38582600D01*
X22616886Y-38534219D01*
X22616886Y-38630981D01*
X23536124Y-39501838D02*
X23439362Y-39550219D01*
X23245839Y-39550219D01*
X23149077Y-39501838D01*
X23100696Y-39453457D01*
X23052315Y-39356695D01*
X23052315Y-39066410D01*
X23100696Y-38969648D01*
X23149077Y-38921267D01*
X23245839Y-38872886D01*
X23439362Y-38872886D01*
X23536124Y-38921267D01*
X23971553Y-39550219D02*
X23971553Y-38534219D01*
X24068315Y-39163171D02*
X24358600Y-39550219D01*
X24358600Y-38872886D02*
X23971553Y-39259933D01*
X25181076Y-39501838D02*
X25084314Y-39550219D01*
X24890791Y-39550219D01*
X24794029Y-39501838D01*
X24745648Y-39405076D01*
X24745648Y-39018029D01*
X24794029Y-38921267D01*
X24890791Y-38872886D01*
X25084314Y-38872886D01*
X25181076Y-38921267D01*
X25229457Y-39018029D01*
X25229457Y-39114790D01*
X24745648Y-39211552D01*
X25664886Y-39550219D02*
X25664886Y-38872886D01*
X25664886Y-39066410D02*
X25713267Y-38969648D01*
X25761648Y-38921267D01*
X25858410Y-38872886D01*
X25955171Y-38872886D01*
X26293838Y-39550219D02*
X26293838Y-38534219D01*
X26293838Y-38921267D02*
X26390600Y-38872886D01*
X26584123Y-38872886D01*
X26680885Y-38921267D01*
X26729266Y-38969648D01*
X26777647Y-39066410D01*
X26777647Y-39356695D01*
X26729266Y-39453457D01*
X26680885Y-39501838D01*
X26584123Y-39550219D01*
X26390600Y-39550219D01*
X26293838Y-39501838D01*
X27358219Y-39550219D02*
X27261457Y-39501838D01*
X27213076Y-39453457D01*
X27164695Y-39356695D01*
X27164695Y-39066410D01*
X27213076Y-38969648D01*
X27261457Y-38921267D01*
X27358219Y-38872886D01*
X27503361Y-38872886D01*
X27600123Y-38921267D01*
X27648504Y-38969648D01*
X27696885Y-39066410D01*
X27696885Y-39356695D01*
X27648504Y-39453457D01*
X27600123Y-39501838D01*
X27503361Y-39550219D01*
X27358219Y-39550219D01*
X28035552Y-39550219D02*
X28567742Y-38872886D01*
X28035552Y-38872886D02*
X28567742Y-39550219D01*
X28954790Y-39453457D02*
X29003171Y-39501838D01*
X28954790Y-39550219D01*
X28906409Y-39501838D01*
X28954790Y-39453457D01*
X28954790Y-39550219D01*
X29438600Y-38872886D02*
X29438600Y-39550219D01*
X29438600Y-38969648D02*
X29486981Y-38921267D01*
X29583743Y-38872886D01*
X29728885Y-38872886D01*
X29825647Y-38921267D01*
X29874028Y-39018029D01*
X29874028Y-39550219D01*
X30744885Y-39501838D02*
X30648123Y-39550219D01*
X30454600Y-39550219D01*
X30357838Y-39501838D01*
X30309457Y-39405076D01*
X30309457Y-39018029D01*
X30357838Y-38921267D01*
X30454600Y-38872886D01*
X30648123Y-38872886D01*
X30744885Y-38921267D01*
X30793266Y-39018029D01*
X30793266Y-39114790D01*
X30309457Y-39211552D01*
X31083552Y-38872886D02*
X31470600Y-38872886D01*
X31228695Y-38534219D02*
X31228695Y-39405076D01*
X31277076Y-39501838D01*
X31373838Y-39550219D01*
X31470600Y-39550219D01*
X61353000Y-51308000D02*
X61353000Y-52578000D01*
X64083500Y-51308000D02*
X64083500Y-52578000D01*
D12*
X61353000Y-51308000D02*
X64083500Y-51308000D01*
X64083500Y-52578000D02*
X61353000Y-52578000D01*
D11*
X56362600Y-56528400D02*
X57632600Y-56528400D01*
X56362600Y-53797900D02*
X57632600Y-53797900D01*
D12*
X56362600Y-56528400D02*
X56362600Y-53797900D01*
X57632600Y-53797900D02*
X57632600Y-56528400D01*
X39764600Y-41927400D02*
X39764600Y-42927400D01*
X41464600Y-42927400D02*
X41464600Y-41927400D01*
D11*
X30581600Y-52603400D02*
X29311600Y-52603400D01*
X30581600Y-55333900D02*
X29311600Y-55333900D01*
D12*
X30581600Y-52603400D02*
X30581600Y-55333900D01*
X29311600Y-55333900D02*
X29311600Y-52603400D01*
D11*
X50099600Y-48653200D02*
X50099600Y-49923200D01*
X52830100Y-48653200D02*
X52830100Y-49923200D01*
D12*
X50099600Y-48653200D02*
X52830100Y-48653200D01*
X52830100Y-49923200D02*
X50099600Y-49923200D01*
D11*
X37820600Y-43840400D02*
X39090600Y-43840400D01*
X37820600Y-41109900D02*
X39090600Y-41109900D01*
D12*
X37820600Y-43840400D02*
X37820600Y-41109900D01*
X39090600Y-41109900D02*
X39090600Y-43840400D01*
D11*
X50849600Y-50453200D02*
X50849600Y-51723200D01*
X53580100Y-50453200D02*
X53580100Y-51723200D01*
D12*
X50849600Y-50453200D02*
X53580100Y-50453200D01*
X53580100Y-51723200D02*
X50849600Y-51723200D01*
D11*
X46952600Y-35966400D02*
X46952600Y-37236400D01*
X49683100Y-35966400D02*
X49683100Y-37236400D01*
D12*
X46952600Y-35966400D02*
X49683100Y-35966400D01*
X49683100Y-37236400D02*
X46952600Y-37236400D01*
D11*
X45936600Y-49809400D02*
X45936600Y-51079400D01*
X48667100Y-49809400D02*
X48667100Y-51079400D01*
D12*
X45936600Y-49809400D02*
X48667100Y-49809400D01*
X48667100Y-51079400D02*
X45936600Y-51079400D01*
D11*
X52413600Y-38252400D02*
X52413600Y-39522400D01*
X55144100Y-38252400D02*
X55144100Y-39522400D01*
D12*
X52413600Y-38252400D02*
X55144100Y-38252400D01*
X55144100Y-39522400D02*
X52413600Y-39522400D01*
D11*
X60096400Y-41948800D02*
X58826400Y-41948800D01*
X60096400Y-44679300D02*
X58826400Y-44679300D01*
D12*
X60096400Y-41948800D02*
X60096400Y-44679300D01*
X58826400Y-44679300D02*
X58826400Y-41948800D01*
X62802320Y-46941740D02*
X62802320Y-47292260D01*
X62802320Y-50441860D02*
X62802320Y-50091340D01*
X58752740Y-46941740D02*
X58752740Y-47292260D01*
X63253620Y-46941740D02*
X63253620Y-47292260D01*
X63253620Y-50441860D02*
X63253620Y-50091340D01*
X58752740Y-50441860D02*
X58752740Y-50091340D01*
X63253620Y-46941740D02*
X58752740Y-46941740D01*
X63253620Y-50441860D02*
X58752740Y-50441860D01*
D11*
X58826400Y-41414000D02*
X60096400Y-41414000D01*
X58826400Y-38683500D02*
X60096400Y-38683500D01*
D12*
X58826400Y-41414000D02*
X58826400Y-38683500D01*
X60096400Y-38683500D02*
X60096400Y-41414000D01*
X58228600Y-39346000D02*
X58228600Y-38346000D01*
X56528600Y-38346000D02*
X56528600Y-39346000D01*
X31446600Y-42736400D02*
X30446600Y-42736400D01*
X30446600Y-44436400D02*
X31446600Y-44436400D01*
X41464600Y-46991400D02*
X41464600Y-45991400D01*
X39764600Y-45991400D02*
X39764600Y-46991400D01*
D11*
X28549600Y-45999400D02*
X27279600Y-45999400D01*
X28549600Y-48729900D02*
X27279600Y-48729900D01*
D12*
X28549600Y-45999400D02*
X28549600Y-48729900D01*
X27279600Y-48729900D02*
X27279600Y-45999400D01*
D11*
X30581600Y-45987400D02*
X29311600Y-45987400D01*
X30581600Y-48717900D02*
X29311600Y-48717900D01*
D12*
X30581600Y-45987400D02*
X30581600Y-48717900D01*
X29311600Y-48717900D02*
X29311600Y-45987400D01*
D11*
X29323600Y-49809400D02*
X29323600Y-51079400D01*
X32054100Y-49809400D02*
X32054100Y-51079400D01*
D12*
X29323600Y-49809400D02*
X32054100Y-49809400D01*
X32054100Y-51079400D02*
X29323600Y-51079400D01*
X33776600Y-50297080D02*
X33776600Y-53297080D01*
X36276600Y-50297080D02*
X36276600Y-53297080D01*
D10*
X33026600Y-50190400D02*
X33026600Y-50190400D01*
X31713420Y-57112420D02*
X31713420Y-57112420D01*
D13*
X44140205Y-39185600D02*
G75*
G03X44140205Y-39185600I-179605J0D01*
G01*
D12*
X52030600Y-39370600D02*
X52030600Y-39895600D01*
X52030600Y-46620600D02*
X52030600Y-46095600D01*
X44780600Y-46620600D02*
X44780600Y-46095600D01*
X44468600Y-39947600D02*
X45357600Y-38931600D01*
X44780600Y-46620600D02*
X45305600Y-46620600D01*
X52030600Y-46620600D02*
X51505600Y-46620600D01*
X52030600Y-39370600D02*
X51505600Y-39370600D01*
D11*
X47884600Y-56085400D02*
X47884600Y-52580200D01*
X47884600Y-56085400D02*
X53879000Y-56085400D01*
X47884600Y-52580200D02*
X53879000Y-52580200D01*
X53879000Y-56085400D02*
X53879000Y-52580200D01*
D12*
X60572600Y-56437200D02*
G75*
G03X60572600Y-56437200I-100000J0D01*
G01*
X59572600Y-56737200D02*
X60772600Y-56737200D01*
X60772600Y-56737200D02*
X60772600Y-53537200D01*
X60772600Y-53537200D02*
X59572600Y-53537200D01*
X59572600Y-53537200D02*
X59572600Y-56737200D01*
X23342600Y-28346400D02*
X66522600Y-28346400D01*
X66522600Y-28346400D02*
X66522600Y-30886400D01*
X66522600Y-30886400D02*
X23342600Y-30886400D01*
X20522600Y-28066400D02*
X22072600Y-28066400D01*
X23342600Y-28346400D02*
X23342600Y-30886400D01*
X22072600Y-31166400D02*
X20522600Y-31166400D01*
X20522600Y-31166400D02*
X20522600Y-28066400D01*
X23342600Y-61366400D02*
X66522600Y-61366400D01*
X66522600Y-61366400D02*
X66522600Y-63906400D01*
X66522600Y-63906400D02*
X23342600Y-63906400D01*
X20522600Y-61086400D02*
X22072600Y-61086400D01*
X23342600Y-61366400D02*
X23342600Y-63906400D01*
X22072600Y-64186400D02*
X20522600Y-64186400D01*
X20522600Y-64186400D02*
X20522600Y-61086400D01*
X20776600Y-45618400D02*
X20776600Y-44068400D01*
X20776600Y-44068400D02*
X23876600Y-44068400D01*
X23596600Y-46888400D02*
X23596600Y-57048400D01*
X23596600Y-57048400D02*
X21056600Y-57048400D01*
X21056600Y-57048400D02*
X21056600Y-46888400D01*
X23596600Y-46888400D02*
X21056600Y-46888400D01*
D11*
X47206600Y-33553400D02*
X47206600Y-34823400D01*
X49937100Y-33553400D02*
X49937100Y-34823400D01*
D12*
X47206600Y-33553400D02*
X49937100Y-33553400D01*
X49937100Y-34823400D02*
X47206600Y-34823400D01*
X65047834Y-51982643D02*
X65000215Y-52030262D01*
X64857358Y-52077881D01*
X64762120Y-52077881D01*
X64619262Y-52030262D01*
X64524024Y-51935024D01*
X64476405Y-51839786D01*
X64428786Y-51649310D01*
X64428786Y-51506452D01*
X64476405Y-51315976D01*
X64524024Y-51220738D01*
X64619262Y-51125500D01*
X64762120Y-51077881D01*
X64857358Y-51077881D01*
X65000215Y-51125500D01*
X65047834Y-51173119D01*
X66000215Y-52077881D02*
X65428786Y-52077881D01*
X65714500Y-52077881D02*
X65714500Y-51077881D01*
X65619262Y-51220738D01*
X65524024Y-51315976D01*
X65428786Y-51363595D01*
X56830934Y-53087543D02*
X56783315Y-53135162D01*
X56640458Y-53182781D01*
X56545220Y-53182781D01*
X56402362Y-53135162D01*
X56307124Y-53039924D01*
X56259505Y-52944686D01*
X56211886Y-52754210D01*
X56211886Y-52611352D01*
X56259505Y-52420876D01*
X56307124Y-52325638D01*
X56402362Y-52230400D01*
X56545220Y-52182781D01*
X56640458Y-52182781D01*
X56783315Y-52230400D01*
X56830934Y-52278019D01*
X57211886Y-52278019D02*
X57259505Y-52230400D01*
X57354743Y-52182781D01*
X57592839Y-52182781D01*
X57688077Y-52230400D01*
X57735696Y-52278019D01*
X57783315Y-52373257D01*
X57783315Y-52468495D01*
X57735696Y-52611352D01*
X57164267Y-53182781D01*
X57783315Y-53182781D01*
X40447934Y-40387543D02*
X40400315Y-40435162D01*
X40257458Y-40482781D01*
X40162220Y-40482781D01*
X40019362Y-40435162D01*
X39924124Y-40339924D01*
X39876505Y-40244686D01*
X39828886Y-40054210D01*
X39828886Y-39911352D01*
X39876505Y-39720876D01*
X39924124Y-39625638D01*
X40019362Y-39530400D01*
X40162220Y-39482781D01*
X40257458Y-39482781D01*
X40400315Y-39530400D01*
X40447934Y-39578019D01*
X40781267Y-39482781D02*
X41400315Y-39482781D01*
X41066981Y-39863733D01*
X41209839Y-39863733D01*
X41305077Y-39911352D01*
X41352696Y-39958971D01*
X41400315Y-40054210D01*
X41400315Y-40292305D01*
X41352696Y-40387543D01*
X41305077Y-40435162D01*
X41209839Y-40482781D01*
X40924124Y-40482781D01*
X40828886Y-40435162D01*
X40781267Y-40387543D01*
X29779934Y-56822043D02*
X29732315Y-56869662D01*
X29589458Y-56917281D01*
X29494220Y-56917281D01*
X29351362Y-56869662D01*
X29256124Y-56774424D01*
X29208505Y-56679186D01*
X29160886Y-56488710D01*
X29160886Y-56345852D01*
X29208505Y-56155376D01*
X29256124Y-56060138D01*
X29351362Y-55964900D01*
X29494220Y-55917281D01*
X29589458Y-55917281D01*
X29732315Y-55964900D01*
X29779934Y-56012519D01*
X30637077Y-56250614D02*
X30637077Y-56917281D01*
X30398981Y-55869662D02*
X30160886Y-56583948D01*
X30779934Y-56583948D01*
X53655934Y-49658543D02*
X53608315Y-49706162D01*
X53465458Y-49753781D01*
X53370220Y-49753781D01*
X53227362Y-49706162D01*
X53132124Y-49610924D01*
X53084505Y-49515686D01*
X53036886Y-49325210D01*
X53036886Y-49182352D01*
X53084505Y-48991876D01*
X53132124Y-48896638D01*
X53227362Y-48801400D01*
X53370220Y-48753781D01*
X53465458Y-48753781D01*
X53608315Y-48801400D01*
X53655934Y-48849019D01*
X54513077Y-48753781D02*
X54322600Y-48753781D01*
X54227362Y-48801400D01*
X54179743Y-48849019D01*
X54084505Y-48991876D01*
X54036886Y-49182352D01*
X54036886Y-49563305D01*
X54084505Y-49658543D01*
X54132124Y-49706162D01*
X54227362Y-49753781D01*
X54417839Y-49753781D01*
X54513077Y-49706162D01*
X54560696Y-49658543D01*
X54608315Y-49563305D01*
X54608315Y-49325210D01*
X54560696Y-49229971D01*
X54513077Y-49182352D01*
X54417839Y-49134733D01*
X54227362Y-49134733D01*
X54132124Y-49182352D01*
X54084505Y-49229971D01*
X54036886Y-49325210D01*
X38288934Y-45213543D02*
X38241315Y-45261162D01*
X38098458Y-45308781D01*
X38003220Y-45308781D01*
X37860362Y-45261162D01*
X37765124Y-45165924D01*
X37717505Y-45070686D01*
X37669886Y-44880210D01*
X37669886Y-44737352D01*
X37717505Y-44546876D01*
X37765124Y-44451638D01*
X37860362Y-44356400D01*
X38003220Y-44308781D01*
X38098458Y-44308781D01*
X38241315Y-44356400D01*
X38288934Y-44404019D01*
X38622267Y-44308781D02*
X39288934Y-44308781D01*
X38860362Y-45308781D01*
X54417934Y-51545343D02*
X54370315Y-51592962D01*
X54227458Y-51640581D01*
X54132220Y-51640581D01*
X53989362Y-51592962D01*
X53894124Y-51497724D01*
X53846505Y-51402486D01*
X53798886Y-51212010D01*
X53798886Y-51069152D01*
X53846505Y-50878676D01*
X53894124Y-50783438D01*
X53989362Y-50688200D01*
X54132220Y-50640581D01*
X54227458Y-50640581D01*
X54370315Y-50688200D01*
X54417934Y-50735819D01*
X54989362Y-51069152D02*
X54894124Y-51021533D01*
X54846505Y-50973914D01*
X54798886Y-50878676D01*
X54798886Y-50831057D01*
X54846505Y-50735819D01*
X54894124Y-50688200D01*
X54989362Y-50640581D01*
X55179839Y-50640581D01*
X55275077Y-50688200D01*
X55322696Y-50735819D01*
X55370315Y-50831057D01*
X55370315Y-50878676D01*
X55322696Y-50973914D01*
X55275077Y-51021533D01*
X55179839Y-51069152D01*
X54989362Y-51069152D01*
X54894124Y-51116771D01*
X54846505Y-51164390D01*
X54798886Y-51259629D01*
X54798886Y-51450105D01*
X54846505Y-51545343D01*
X54894124Y-51592962D01*
X54989362Y-51640581D01*
X55179839Y-51640581D01*
X55275077Y-51592962D01*
X55322696Y-51545343D01*
X55370315Y-51450105D01*
X55370315Y-51259629D01*
X55322696Y-51164390D01*
X55275077Y-51116771D01*
X55179839Y-51069152D01*
X45654934Y-36958543D02*
X45607315Y-37006162D01*
X45464458Y-37053781D01*
X45369220Y-37053781D01*
X45226362Y-37006162D01*
X45131124Y-36910924D01*
X45083505Y-36815686D01*
X45035886Y-36625210D01*
X45035886Y-36482352D01*
X45083505Y-36291876D01*
X45131124Y-36196638D01*
X45226362Y-36101400D01*
X45369220Y-36053781D01*
X45464458Y-36053781D01*
X45607315Y-36101400D01*
X45654934Y-36149019D01*
X46131124Y-37053781D02*
X46321600Y-37053781D01*
X46416839Y-37006162D01*
X46464458Y-36958543D01*
X46559696Y-36815686D01*
X46607315Y-36625210D01*
X46607315Y-36244257D01*
X46559696Y-36149019D01*
X46512077Y-36101400D01*
X46416839Y-36053781D01*
X46226362Y-36053781D01*
X46131124Y-36101400D01*
X46083505Y-36149019D01*
X46035886Y-36244257D01*
X46035886Y-36482352D01*
X46083505Y-36577590D01*
X46131124Y-36625210D01*
X46226362Y-36672829D01*
X46416839Y-36672829D01*
X46512077Y-36625210D01*
X46559696Y-36577590D01*
X46607315Y-36482352D01*
X46829743Y-49531543D02*
X46782124Y-49579162D01*
X46639267Y-49626781D01*
X46544029Y-49626781D01*
X46401171Y-49579162D01*
X46305933Y-49483924D01*
X46258314Y-49388686D01*
X46210695Y-49198210D01*
X46210695Y-49055352D01*
X46258314Y-48864876D01*
X46305933Y-48769638D01*
X46401171Y-48674400D01*
X46544029Y-48626781D01*
X46639267Y-48626781D01*
X46782124Y-48674400D01*
X46829743Y-48722019D01*
X47782124Y-49626781D02*
X47210695Y-49626781D01*
X47496409Y-49626781D02*
X47496409Y-48626781D01*
X47401171Y-48769638D01*
X47305933Y-48864876D01*
X47210695Y-48912495D01*
X48401171Y-48626781D02*
X48496410Y-48626781D01*
X48591648Y-48674400D01*
X48639267Y-48722019D01*
X48686886Y-48817257D01*
X48734505Y-49007733D01*
X48734505Y-49245829D01*
X48686886Y-49436305D01*
X48639267Y-49531543D01*
X48591648Y-49579162D01*
X48496410Y-49626781D01*
X48401171Y-49626781D01*
X48305933Y-49579162D01*
X48258314Y-49531543D01*
X48210695Y-49436305D01*
X48163076Y-49245829D01*
X48163076Y-49007733D01*
X48210695Y-48817257D01*
X48258314Y-48722019D01*
X48305933Y-48674400D01*
X48401171Y-48626781D01*
X53433743Y-37847543D02*
X53386124Y-37895162D01*
X53243267Y-37942781D01*
X53148029Y-37942781D01*
X53005171Y-37895162D01*
X52909933Y-37799924D01*
X52862314Y-37704686D01*
X52814695Y-37514210D01*
X52814695Y-37371352D01*
X52862314Y-37180876D01*
X52909933Y-37085638D01*
X53005171Y-36990400D01*
X53148029Y-36942781D01*
X53243267Y-36942781D01*
X53386124Y-36990400D01*
X53433743Y-37038019D01*
X54386124Y-37942781D02*
X53814695Y-37942781D01*
X54100409Y-37942781D02*
X54100409Y-36942781D01*
X54005171Y-37085638D01*
X53909933Y-37180876D01*
X53814695Y-37228495D01*
X55338505Y-37942781D02*
X54767076Y-37942781D01*
X55052790Y-37942781D02*
X55052790Y-36942781D01*
X54957552Y-37085638D01*
X54862314Y-37180876D01*
X54767076Y-37228495D01*
X58592981Y-43562495D02*
X57592981Y-43562495D01*
X57592981Y-43324400D01*
X57640600Y-43181542D01*
X57735838Y-43086304D01*
X57831076Y-43038685D01*
X58021552Y-42991066D01*
X58164410Y-42991066D01*
X58354886Y-43038685D01*
X58450124Y-43086304D01*
X58545362Y-43181542D01*
X58592981Y-43324400D01*
X58592981Y-43562495D01*
X58592981Y-42038685D02*
X58592981Y-42610114D01*
X58592981Y-42324400D02*
X57592981Y-42324400D01*
X57735838Y-42419638D01*
X57831076Y-42514876D01*
X57878695Y-42610114D01*
X64583085Y-49144181D02*
X64583085Y-48144181D01*
X64821180Y-48144181D01*
X64964038Y-48191800D01*
X65059276Y-48287038D01*
X65106895Y-48382276D01*
X65154514Y-48572752D01*
X65154514Y-48715610D01*
X65106895Y-48906086D01*
X65059276Y-49001324D01*
X64964038Y-49096562D01*
X64821180Y-49144181D01*
X64583085Y-49144181D01*
X65535466Y-48239419D02*
X65583085Y-48191800D01*
X65678323Y-48144181D01*
X65916419Y-48144181D01*
X66011657Y-48191800D01*
X66059276Y-48239419D01*
X66106895Y-48334657D01*
X66106895Y-48429895D01*
X66059276Y-48572752D01*
X65487847Y-49144181D01*
X66106895Y-49144181D01*
X58806505Y-38069781D02*
X58806505Y-37069781D01*
X59044600Y-37069781D01*
X59187458Y-37117400D01*
X59282696Y-37212638D01*
X59330315Y-37307876D01*
X59377934Y-37498352D01*
X59377934Y-37641210D01*
X59330315Y-37831686D01*
X59282696Y-37926924D01*
X59187458Y-38022162D01*
X59044600Y-38069781D01*
X58806505Y-38069781D01*
X59711267Y-37069781D02*
X60330315Y-37069781D01*
X59996981Y-37450733D01*
X60139839Y-37450733D01*
X60235077Y-37498352D01*
X60282696Y-37545971D01*
X60330315Y-37641210D01*
X60330315Y-37879305D01*
X60282696Y-37974543D01*
X60235077Y-38022162D01*
X60139839Y-38069781D01*
X59854124Y-38069781D01*
X59758886Y-38022162D01*
X59711267Y-37974543D01*
X57211934Y-41752781D02*
X56735743Y-41752781D01*
X56735743Y-40752781D01*
X58069077Y-41752781D02*
X57497648Y-41752781D01*
X57783362Y-41752781D02*
X57783362Y-40752781D01*
X57688124Y-40895638D01*
X57592886Y-40990876D01*
X57497648Y-41038495D01*
X30795934Y-42514781D02*
X30319743Y-42514781D01*
X30319743Y-41514781D01*
X31081648Y-41610019D02*
X31129267Y-41562400D01*
X31224505Y-41514781D01*
X31462601Y-41514781D01*
X31557839Y-41562400D01*
X31605458Y-41610019D01*
X31653077Y-41705257D01*
X31653077Y-41800495D01*
X31605458Y-41943352D01*
X31034029Y-42514781D01*
X31653077Y-42514781D01*
X40447934Y-49626781D02*
X39971743Y-49626781D01*
X39971743Y-48626781D01*
X40686029Y-48626781D02*
X41305077Y-48626781D01*
X40971743Y-49007733D01*
X41114601Y-49007733D01*
X41209839Y-49055352D01*
X41257458Y-49102971D01*
X41305077Y-49198210D01*
X41305077Y-49436305D01*
X41257458Y-49531543D01*
X41209839Y-49579162D01*
X41114601Y-49626781D01*
X40828886Y-49626781D01*
X40733648Y-49579162D01*
X40686029Y-49531543D01*
X27747934Y-45689781D02*
X27414600Y-45213590D01*
X27176505Y-45689781D02*
X27176505Y-44689781D01*
X27557458Y-44689781D01*
X27652696Y-44737400D01*
X27700315Y-44785019D01*
X27747934Y-44880257D01*
X27747934Y-45023114D01*
X27700315Y-45118352D01*
X27652696Y-45165971D01*
X27557458Y-45213590D01*
X27176505Y-45213590D01*
X28700315Y-45689781D02*
X28128886Y-45689781D01*
X28414600Y-45689781D02*
X28414600Y-44689781D01*
X28319362Y-44832638D01*
X28224124Y-44927876D01*
X28128886Y-44975495D01*
X29779934Y-45689781D02*
X29446600Y-45213590D01*
X29208505Y-45689781D02*
X29208505Y-44689781D01*
X29589458Y-44689781D01*
X29684696Y-44737400D01*
X29732315Y-44785019D01*
X29779934Y-44880257D01*
X29779934Y-45023114D01*
X29732315Y-45118352D01*
X29684696Y-45165971D01*
X29589458Y-45213590D01*
X29208505Y-45213590D01*
X30160886Y-44785019D02*
X30208505Y-44737400D01*
X30303743Y-44689781D01*
X30541839Y-44689781D01*
X30637077Y-44737400D01*
X30684696Y-44785019D01*
X30732315Y-44880257D01*
X30732315Y-44975495D01*
X30684696Y-45118352D01*
X30113267Y-45689781D01*
X30732315Y-45689781D01*
X31049934Y-52420781D02*
X30716600Y-51944590D01*
X30478505Y-52420781D02*
X30478505Y-51420781D01*
X30859458Y-51420781D01*
X30954696Y-51468400D01*
X31002315Y-51516019D01*
X31049934Y-51611257D01*
X31049934Y-51754114D01*
X31002315Y-51849352D01*
X30954696Y-51896971D01*
X30859458Y-51944590D01*
X30478505Y-51944590D01*
X31383267Y-51420781D02*
X32002315Y-51420781D01*
X31668981Y-51801733D01*
X31811839Y-51801733D01*
X31907077Y-51849352D01*
X31954696Y-51896971D01*
X32002315Y-51992210D01*
X32002315Y-52230305D01*
X31954696Y-52325543D01*
X31907077Y-52373162D01*
X31811839Y-52420781D01*
X31526124Y-52420781D01*
X31430886Y-52373162D01*
X31383267Y-52325543D01*
X34337295Y-55773162D02*
X34480152Y-55820781D01*
X34718248Y-55820781D01*
X34813486Y-55773162D01*
X34861105Y-55725543D01*
X34908724Y-55630305D01*
X34908724Y-55535067D01*
X34861105Y-55439829D01*
X34813486Y-55392210D01*
X34718248Y-55344590D01*
X34527771Y-55296971D01*
X34432533Y-55249352D01*
X34384914Y-55201733D01*
X34337295Y-55106495D01*
X34337295Y-55011257D01*
X34384914Y-54916019D01*
X34432533Y-54868400D01*
X34527771Y-54820781D01*
X34765867Y-54820781D01*
X34908724Y-54868400D01*
X35861105Y-55820781D02*
X35289676Y-55820781D01*
X35575390Y-55820781D02*
X35575390Y-54820781D01*
X35480152Y-54963638D01*
X35384914Y-55058876D01*
X35289676Y-55106495D01*
X43281695Y-37603181D02*
X43281695Y-38412705D01*
X43329314Y-38507943D01*
X43376933Y-38555562D01*
X43472171Y-38603181D01*
X43662648Y-38603181D01*
X43757886Y-38555562D01*
X43805505Y-38507943D01*
X43853124Y-38412705D01*
X43853124Y-37603181D01*
X44281695Y-37698419D02*
X44329314Y-37650800D01*
X44424552Y-37603181D01*
X44662648Y-37603181D01*
X44757886Y-37650800D01*
X44805505Y-37698419D01*
X44853124Y-37793657D01*
X44853124Y-37888895D01*
X44805505Y-38031752D01*
X44234076Y-38603181D01*
X44853124Y-38603181D01*
X50219076Y-56500781D02*
X50885743Y-57500781D01*
X50885743Y-56500781D02*
X50219076Y-57500781D01*
X51790505Y-57500781D02*
X51219076Y-57500781D01*
X51504790Y-57500781D02*
X51504790Y-56500781D01*
X51409552Y-56643638D01*
X51314314Y-56738876D01*
X51219076Y-56786495D01*
X59410695Y-52182781D02*
X59410695Y-52992305D01*
X59458314Y-53087543D01*
X59505933Y-53135162D01*
X59601171Y-53182781D01*
X59791648Y-53182781D01*
X59886886Y-53135162D01*
X59934505Y-53087543D01*
X59982124Y-52992305D01*
X59982124Y-52182781D01*
X60982124Y-53182781D02*
X60410695Y-53182781D01*
X60696409Y-53182781D02*
X60696409Y-52182781D01*
X60601171Y-52325638D01*
X60505933Y-52420876D01*
X60410695Y-52468495D01*
X46813743Y-34355066D02*
X46861362Y-34402685D01*
X46908981Y-34545542D01*
X46908981Y-34640780D01*
X46861362Y-34783638D01*
X46766124Y-34878876D01*
X46670886Y-34926495D01*
X46480410Y-34974114D01*
X46337552Y-34974114D01*
X46147076Y-34926495D01*
X46051838Y-34878876D01*
X45956600Y-34783638D01*
X45908981Y-34640780D01*
X45908981Y-34545542D01*
X45956600Y-34402685D01*
X46004219Y-34355066D01*
X45908981Y-33450304D02*
X45908981Y-33926495D01*
X46385171Y-33974114D01*
X46337552Y-33926495D01*
X46289933Y-33831257D01*
X46289933Y-33593161D01*
X46337552Y-33497923D01*
X46385171Y-33450304D01*
X46480410Y-33402685D01*
X46718505Y-33402685D01*
X46813743Y-33450304D01*
X46861362Y-33497923D01*
X46908981Y-33593161D01*
X46908981Y-33831257D01*
X46861362Y-33926495D01*
X46813743Y-33974114D01*
%LPC*%
D14*
X62222000Y-42467200D03*
X62222000Y-41817200D03*
X62222000Y-41168100D03*
X62222000Y-40517200D03*
X62222000Y-39867200D03*
D15*
X62447000Y-44367200D03*
D16*
X64897000Y-44717200D03*
D17*
X64897000Y-42367200D03*
X64897000Y-39967200D03*
D15*
X62447000Y-37967200D03*
D16*
X64897000Y-37617200D03*
D18*
X62000000Y-51943000D03*
X63500000Y-51943000D03*
D19*
X56997600Y-55881400D03*
X56997600Y-54381400D03*
D20*
X40614600Y-43427400D03*
X40614600Y-41427400D03*
D19*
X29946600Y-53250400D03*
X29946600Y-54750400D03*
D18*
X50746600Y-49288200D03*
X52246600Y-49288200D03*
D19*
X38455600Y-43193400D03*
X38455600Y-41693400D03*
D18*
X51496600Y-51088200D03*
X52996600Y-51088200D03*
X47599600Y-36601400D03*
X49099600Y-36601400D03*
X46583600Y-50444400D03*
X48083600Y-50444400D03*
X53060600Y-38887400D03*
X54560600Y-38887400D03*
D19*
X59461400Y-42595800D03*
X59461400Y-44095800D03*
D21*
X63002160Y-48691800D03*
X59004200Y-48691800D03*
D19*
X59461400Y-40767000D03*
X59461400Y-39267000D03*
D20*
X57378600Y-37846000D03*
X57378600Y-39846000D03*
D22*
X29946600Y-43586400D03*
X31946600Y-43586400D03*
D20*
X40614600Y-45491400D03*
X40614600Y-47491400D03*
D19*
X27914600Y-46646400D03*
X27914600Y-48146400D03*
X29946600Y-46634400D03*
X29946600Y-48134400D03*
D18*
X29970600Y-50444400D03*
X31470600Y-50444400D03*
D23*
X35026600Y-53590400D03*
X35026600Y-50190400D03*
D24*
X44055600Y-40245600D03*
X44055600Y-40745600D03*
X44055600Y-41245600D03*
X44055600Y-41745600D03*
X44055600Y-42245600D03*
X44055600Y-42745600D03*
X44055600Y-43245600D03*
X44055600Y-43745600D03*
X44055600Y-44245600D03*
X44055600Y-44745600D03*
X44055600Y-45245600D03*
X44055600Y-45745600D03*
D25*
X45655600Y-47345600D03*
X46155600Y-47345600D03*
X46655600Y-47345600D03*
X47155600Y-47345600D03*
X47655600Y-47345600D03*
X48155600Y-47345600D03*
X48655600Y-47345600D03*
X49155600Y-47345600D03*
X49655600Y-47345600D03*
X50155600Y-47345600D03*
X50655600Y-47345600D03*
X51155600Y-47345600D03*
D24*
X52755600Y-45745600D03*
X52755600Y-45245600D03*
X52755600Y-44745600D03*
X52755600Y-44245600D03*
X52755600Y-43745600D03*
X52755600Y-43245600D03*
X52755600Y-42745600D03*
X52755600Y-42245600D03*
X52755600Y-41745600D03*
X52755600Y-41245600D03*
X52755600Y-40745600D03*
X52755600Y-40245600D03*
D25*
X51155600Y-38645600D03*
X50655600Y-38645600D03*
X50155600Y-38645600D03*
X49655600Y-38645600D03*
X49155600Y-38645600D03*
X48655600Y-38645600D03*
X48155600Y-38645600D03*
X47655600Y-38645600D03*
X47155600Y-38645600D03*
X46655600Y-38645600D03*
X46155600Y-38645600D03*
X45655600Y-38645600D03*
D26*
X53117000Y-53088200D03*
X48646600Y-53088200D03*
X53117000Y-55577400D03*
X48646600Y-55577400D03*
D27*
X61372600Y-56127200D03*
X61372600Y-55137200D03*
X61372600Y-54147200D03*
X58972600Y-54147200D03*
X58972600Y-56127200D03*
D28*
X22072600Y-29616400D03*
D29*
X24612600Y-29616400D03*
X27152600Y-29616400D03*
X29692600Y-29616400D03*
X32232600Y-29616400D03*
X34772600Y-29616400D03*
X37312600Y-29616400D03*
X39852600Y-29616400D03*
X42392600Y-29616400D03*
X44932600Y-29616400D03*
X47472600Y-29616400D03*
X50012600Y-29616400D03*
X52552600Y-29616400D03*
X55092600Y-29616400D03*
X57632600Y-29616400D03*
X60172600Y-29616400D03*
X62712600Y-29616400D03*
X65252600Y-29616400D03*
D28*
X22072600Y-62636400D03*
D29*
X24612600Y-62636400D03*
X27152600Y-62636400D03*
X29692600Y-62636400D03*
X32232600Y-62636400D03*
X34772600Y-62636400D03*
X37312600Y-62636400D03*
X39852600Y-62636400D03*
X42392600Y-62636400D03*
X44932600Y-62636400D03*
X47472600Y-62636400D03*
X50012600Y-62636400D03*
X52552600Y-62636400D03*
X55092600Y-62636400D03*
X57632600Y-62636400D03*
X60172600Y-62636400D03*
X62712600Y-62636400D03*
X65252600Y-62636400D03*
D30*
X22326600Y-45618400D03*
D31*
X22326600Y-48158400D03*
X22326600Y-50698400D03*
X22326600Y-53238400D03*
X22326600Y-55778400D03*
D18*
X47853600Y-34188400D03*
X49353600Y-34188400D03*
M02*
