%TF.GenerationSoftware,KiCad,Pcbnew,4.0.5-e0-6337~49~ubuntu16.04.1*%
%TF.CreationDate,2017-08-05T13:29:44-07:00*%
%TF.ProjectId,atsamd21g18-breakout,617473616D6432316731382D62726561,1.0*%
%TF.FileFunction,Copper,L1,Top,Signal*%
%FSLAX46Y46*%
G04 Gerber Fmt 4.6, Leading zero omitted, Abs format (unit mm)*
G04 Created by KiCad (PCBNEW 4.0.5-e0-6337~49~ubuntu16.04.1) date Sat Aug  5 13:29:44 2017*
%MOMM*%
%LPD*%
G01*
G04 APERTURE LIST*
%ADD10C,0.350000*%
%ADD11R,1.350000X0.400000*%
%ADD12R,1.400000X1.600000*%
%ADD13C,1.200000*%
%ADD14R,1.900000X1.900000*%
%ADD15R,0.800000X0.750000*%
%ADD16R,0.750000X0.800000*%
%ADD17R,1.250000X1.000000*%
%ADD18R,2.499360X1.800860*%
%ADD19R,1.000000X1.250000*%
%ADD20R,1.700000X0.800000*%
%ADD21R,1.300000X0.250000*%
%ADD22R,0.250000X1.300000*%
%ADD23R,1.905000X1.397000*%
%ADD24R,1.000000X0.600000*%
%ADD25R,1.727200X2.032000*%
%ADD26O,1.727200X2.032000*%
%ADD27R,2.032000X1.727200*%
%ADD28O,2.032000X1.727200*%
%ADD29C,0.685800*%
%ADD30C,0.508000*%
%ADD31C,0.254000*%
%ADD32C,0.762000*%
%ADD33C,0.330200*%
%ADD34C,0.330200*%
%ADD35C,0.350000*%
G04 APERTURE END LIST*
D10*
D11*
X104919400Y-71270800D03*
X104919400Y-70620800D03*
X104919400Y-69971700D03*
X104919400Y-69320800D03*
X104919400Y-68670800D03*
D12*
X105144400Y-73170800D03*
D13*
X107594400Y-73520800D03*
D14*
X107594400Y-71170800D03*
X107594400Y-68770800D03*
D12*
X105144400Y-66770800D03*
D13*
X107594400Y-66420800D03*
D15*
X104697400Y-80746600D03*
X106197400Y-80746600D03*
D16*
X99695000Y-84685000D03*
X99695000Y-83185000D03*
D17*
X83312000Y-72231000D03*
X83312000Y-70231000D03*
D16*
X72644000Y-82054000D03*
X72644000Y-83554000D03*
D15*
X93444000Y-78091800D03*
X94944000Y-78091800D03*
D16*
X81153000Y-71997000D03*
X81153000Y-70497000D03*
D15*
X94194000Y-79891800D03*
X95694000Y-79891800D03*
X90297000Y-65405000D03*
X91797000Y-65405000D03*
X89281000Y-79248000D03*
X90781000Y-79248000D03*
X95758000Y-67691000D03*
X97258000Y-67691000D03*
D16*
X102158800Y-71399400D03*
X102158800Y-72899400D03*
D18*
X105699560Y-77495400D03*
X101701600Y-77495400D03*
D16*
X102158800Y-69570600D03*
X102158800Y-68070600D03*
D17*
X100076000Y-66649600D03*
X100076000Y-68649600D03*
D19*
X72644000Y-72390000D03*
X74644000Y-72390000D03*
D17*
X83312000Y-74295000D03*
X83312000Y-76295000D03*
D16*
X70612000Y-75450000D03*
X70612000Y-76950000D03*
X72644000Y-75438000D03*
X72644000Y-76938000D03*
D15*
X72668000Y-79248000D03*
X74168000Y-79248000D03*
D20*
X77724000Y-82394000D03*
X77724000Y-78994000D03*
D21*
X86753000Y-69049200D03*
X86753000Y-69549200D03*
X86753000Y-70049200D03*
X86753000Y-70549200D03*
X86753000Y-71049200D03*
X86753000Y-71549200D03*
X86753000Y-72049200D03*
X86753000Y-72549200D03*
X86753000Y-73049200D03*
X86753000Y-73549200D03*
X86753000Y-74049200D03*
X86753000Y-74549200D03*
D22*
X88353000Y-76149200D03*
X88853000Y-76149200D03*
X89353000Y-76149200D03*
X89853000Y-76149200D03*
X90353000Y-76149200D03*
X90853000Y-76149200D03*
X91353000Y-76149200D03*
X91853000Y-76149200D03*
X92353000Y-76149200D03*
X92853000Y-76149200D03*
X93353000Y-76149200D03*
X93853000Y-76149200D03*
D21*
X95453000Y-74549200D03*
X95453000Y-74049200D03*
X95453000Y-73549200D03*
X95453000Y-73049200D03*
X95453000Y-72549200D03*
X95453000Y-72049200D03*
X95453000Y-71549200D03*
X95453000Y-71049200D03*
X95453000Y-70549200D03*
X95453000Y-70049200D03*
X95453000Y-69549200D03*
X95453000Y-69049200D03*
D22*
X93853000Y-67449200D03*
X93353000Y-67449200D03*
X92853000Y-67449200D03*
X92353000Y-67449200D03*
X91853000Y-67449200D03*
X91353000Y-67449200D03*
X90853000Y-67449200D03*
X90353000Y-67449200D03*
X89853000Y-67449200D03*
X89353000Y-67449200D03*
X88853000Y-67449200D03*
X88353000Y-67449200D03*
D23*
X95814400Y-81891800D03*
X91344000Y-81891800D03*
X95814400Y-84381000D03*
X91344000Y-84381000D03*
D24*
X104070000Y-84930800D03*
X104070000Y-83940800D03*
X104070000Y-82950800D03*
X101670000Y-82950800D03*
X101670000Y-84930800D03*
D25*
X64770000Y-58420000D03*
D26*
X67310000Y-58420000D03*
X69850000Y-58420000D03*
X72390000Y-58420000D03*
X74930000Y-58420000D03*
X77470000Y-58420000D03*
X80010000Y-58420000D03*
X82550000Y-58420000D03*
X85090000Y-58420000D03*
X87630000Y-58420000D03*
X90170000Y-58420000D03*
X92710000Y-58420000D03*
X95250000Y-58420000D03*
X97790000Y-58420000D03*
X100330000Y-58420000D03*
X102870000Y-58420000D03*
X105410000Y-58420000D03*
X107950000Y-58420000D03*
D25*
X64770000Y-91440000D03*
D26*
X67310000Y-91440000D03*
X69850000Y-91440000D03*
X72390000Y-91440000D03*
X74930000Y-91440000D03*
X77470000Y-91440000D03*
X80010000Y-91440000D03*
X82550000Y-91440000D03*
X85090000Y-91440000D03*
X87630000Y-91440000D03*
X90170000Y-91440000D03*
X92710000Y-91440000D03*
X95250000Y-91440000D03*
X97790000Y-91440000D03*
X100330000Y-91440000D03*
X102870000Y-91440000D03*
X105410000Y-91440000D03*
X107950000Y-91440000D03*
D27*
X65024000Y-74422000D03*
D28*
X65024000Y-76962000D03*
X65024000Y-79502000D03*
X65024000Y-82042000D03*
X65024000Y-84582000D03*
D15*
X90551000Y-62992000D03*
X92051000Y-62992000D03*
D29*
X74676000Y-70358000D03*
X63754000Y-70358000D03*
X91694000Y-71628000D03*
X93345000Y-73025000D03*
X93853000Y-63119000D03*
X71120000Y-72390000D03*
X91948000Y-87884000D03*
X88900000Y-89408000D03*
X73660000Y-83566000D03*
X75946000Y-82550000D03*
X106334594Y-83474594D03*
X95504000Y-76200000D03*
X101322966Y-72618623D03*
X93345000Y-70175583D03*
X97282000Y-66294000D03*
X92202000Y-64262000D03*
X97282000Y-68961000D03*
X91409124Y-68832868D03*
X106172000Y-79502000D03*
X101278600Y-68326000D03*
X87972890Y-74950642D03*
X85317001Y-75168999D03*
X84312368Y-70223039D03*
X74676000Y-74168000D03*
X81788000Y-70231000D03*
X74676000Y-75946000D03*
X92297539Y-68865461D03*
X89326609Y-73179130D03*
X90170000Y-72898000D03*
X77724000Y-74168000D03*
X84836000Y-74168000D03*
X87807798Y-73540775D03*
X77724000Y-73152000D03*
X77724000Y-72136000D03*
X85090000Y-72644000D03*
X88646000Y-64516000D03*
X88392000Y-68834000D03*
X85325745Y-83043647D03*
X91037322Y-74634755D03*
X86024609Y-83593130D03*
X92202000Y-73660000D03*
X86868000Y-83312000D03*
X92964000Y-74168000D03*
X87711391Y-83593130D03*
X93472000Y-74930000D03*
X96546585Y-75695909D03*
X97435239Y-75670678D03*
X98317129Y-75782986D03*
X99144955Y-75458877D03*
X99411341Y-74591999D03*
X100348411Y-74630333D03*
X100272181Y-73515953D03*
X101830682Y-74122532D03*
X88206970Y-72350654D03*
X78740000Y-71882000D03*
X79756000Y-69596000D03*
X88138000Y-71374000D03*
D30*
X104742349Y-82278451D02*
X104697400Y-82323400D01*
X106576603Y-82278451D02*
X104742349Y-82278451D01*
X107226102Y-83950050D02*
X107226102Y-82927950D01*
X107226102Y-82927950D02*
X106576603Y-82278451D01*
X106245352Y-84930800D02*
X107226102Y-83950050D01*
X104070000Y-84930800D02*
X106245352Y-84930800D01*
X109474000Y-65278000D02*
X107950000Y-63754000D01*
X107950000Y-63754000D02*
X107950000Y-58420000D01*
X109474000Y-75478640D02*
X109474000Y-65278000D01*
X105699560Y-77495400D02*
X107457240Y-77495400D01*
X107457240Y-77495400D02*
X109474000Y-75478640D01*
X104697400Y-80746600D02*
X104697400Y-82323400D01*
X104697400Y-82323400D02*
X104070000Y-82950800D01*
X104697400Y-80746600D02*
X104697400Y-78497560D01*
X104697400Y-78497560D02*
X105699560Y-77495400D01*
D31*
X93853000Y-63119000D02*
X92178000Y-63119000D01*
X92178000Y-63119000D02*
X92051000Y-62992000D01*
D30*
X93345000Y-63246000D02*
X93726000Y-63246000D01*
D31*
X93345000Y-73025000D02*
X93091000Y-73025000D01*
X93091000Y-73025000D02*
X91694000Y-71628000D01*
X93345000Y-73025000D02*
X93345000Y-73406000D01*
X93345000Y-70175583D02*
X93345000Y-73025000D01*
X100584000Y-89408000D02*
X90678000Y-89408000D01*
X90678000Y-89408000D02*
X90424000Y-89408000D01*
X88900000Y-89408000D02*
X90678000Y-89408000D01*
X93980000Y-74168000D02*
X94234000Y-74422000D01*
X93726000Y-74168000D02*
X93980000Y-74168000D01*
X93726000Y-73660000D02*
X93726000Y-74168000D01*
X93472000Y-73406000D02*
X93726000Y-73660000D01*
X93345000Y-73406000D02*
X93345000Y-73552808D01*
X93345000Y-73406000D02*
X93472000Y-73406000D01*
X93345000Y-73552808D02*
X93637102Y-73844910D01*
X93637102Y-73844910D02*
X93637102Y-74098910D01*
X93637102Y-74098910D02*
X99987110Y-80448918D01*
X99987110Y-80448918D02*
X99987110Y-82182317D01*
X99987110Y-82182317D02*
X99695000Y-82474427D01*
X99695000Y-82474427D02*
X99695000Y-83185000D01*
D30*
X72644000Y-72390000D02*
X71120000Y-72390000D01*
D31*
X90424000Y-89408000D02*
X91948000Y-87884000D01*
X102870000Y-87122000D02*
X100584000Y-89408000D01*
X102870000Y-84386800D02*
X102870000Y-87122000D01*
X104070000Y-83940800D02*
X103316000Y-83940800D01*
X103316000Y-83940800D02*
X102870000Y-84386800D01*
X72644000Y-83554000D02*
X73648000Y-83554000D01*
X73648000Y-83554000D02*
X73660000Y-83566000D01*
X77724000Y-82394000D02*
X76102000Y-82394000D01*
X76102000Y-82394000D02*
X75946000Y-82550000D01*
X94944000Y-78091800D02*
X94944000Y-76760000D01*
X94944000Y-76760000D02*
X95504000Y-76200000D01*
X90853000Y-76149200D02*
X90853000Y-80058000D01*
X90853000Y-80058000D02*
X90781000Y-79986000D01*
X90781000Y-79986000D02*
X90781000Y-79248000D01*
X90853000Y-80058000D02*
X91344000Y-80549000D01*
D30*
X104070000Y-83940800D02*
X105868388Y-83940800D01*
X105868388Y-83940800D02*
X106334594Y-83474594D01*
X105156000Y-83058000D02*
X105156000Y-83820000D01*
X105224339Y-82989661D02*
X105156000Y-83058000D01*
X105704286Y-82989661D02*
X105224339Y-82989661D01*
X105704286Y-82989661D02*
X105849661Y-82989661D01*
X105849661Y-82989661D02*
X106334594Y-83474594D01*
X106334594Y-83474594D02*
X106426000Y-83566000D01*
D31*
X105238080Y-83940800D02*
X105361387Y-83817493D01*
X104070000Y-83940800D02*
X105238080Y-83940800D01*
X105361387Y-83817493D02*
X105704286Y-83474594D01*
D30*
X105704286Y-82989661D02*
X105704286Y-83474594D01*
X99695000Y-83185000D02*
X100450800Y-83940800D01*
X100450800Y-83940800D02*
X104070000Y-83940800D01*
D31*
X99695000Y-83185000D02*
X99695000Y-80391000D01*
X99695000Y-80391000D02*
X95504000Y-76200000D01*
X101529800Y-72899400D02*
X101322966Y-72692566D01*
X102158800Y-72899400D02*
X101529800Y-72899400D01*
X101322966Y-72692566D02*
X101322966Y-72618623D01*
X95453000Y-69549200D02*
X93971383Y-69549200D01*
X93971383Y-69549200D02*
X93345000Y-70175583D01*
X97258000Y-67691000D02*
X97258000Y-66318000D01*
X97258000Y-66318000D02*
X97282000Y-66294000D01*
X92202000Y-64262000D02*
X92202000Y-64103000D01*
X92202000Y-64516000D02*
X92202000Y-64262000D01*
X91797000Y-65405000D02*
X91822000Y-65405000D01*
X91797000Y-65989245D02*
X91797000Y-65405000D01*
X91353000Y-67449200D02*
X91353000Y-66433245D01*
X91353000Y-66433245D02*
X91797000Y-65989245D01*
X91353000Y-67449200D02*
X91353000Y-68776744D01*
X91353000Y-68776744D02*
X91409124Y-68832868D01*
X95453000Y-69549200D02*
X96693800Y-69549200D01*
X96693800Y-69549200D02*
X97282000Y-68961000D01*
D32*
X97688400Y-80724200D02*
X97688400Y-83566000D01*
X97688400Y-83566000D02*
X97688400Y-84328000D01*
D31*
X95814400Y-84381000D02*
X97020900Y-84381000D01*
X97020900Y-84381000D02*
X97688400Y-83713500D01*
X97688400Y-83713500D02*
X97688400Y-83566000D01*
D33*
X95453000Y-69549200D02*
X94187273Y-69549200D01*
X94187273Y-69549200D02*
X93903789Y-69832684D01*
X93903789Y-69832684D02*
X93560890Y-70175583D01*
D31*
X91797000Y-65405000D02*
X91797000Y-64921000D01*
X91797000Y-64921000D02*
X92202000Y-64516000D01*
X97099600Y-69342000D02*
X97792000Y-68649600D01*
D33*
X95453000Y-69549200D02*
X96892400Y-69549200D01*
X96892400Y-69549200D02*
X97099600Y-69342000D01*
D32*
X97688400Y-84328000D02*
X97688400Y-85572600D01*
D33*
X97635400Y-84381000D02*
X95814400Y-84381000D01*
X97688400Y-84328000D02*
X97635400Y-84381000D01*
D32*
X97434400Y-85826600D02*
X95758000Y-85826600D01*
X95758000Y-85826600D02*
X92654300Y-85826600D01*
D33*
X95814400Y-84381000D02*
X95814400Y-85770200D01*
X95814400Y-85770200D02*
X95758000Y-85826600D01*
D31*
X106197400Y-80746600D02*
X106197400Y-79527400D01*
X106197400Y-79527400D02*
X106172000Y-79502000D01*
X101278600Y-68326000D02*
X100955000Y-68649600D01*
X101528400Y-68076200D02*
X101278600Y-68326000D01*
X101528400Y-68072000D02*
X101528400Y-68076200D01*
X100955000Y-68649600D02*
X100076000Y-68649600D01*
X102158800Y-68070600D02*
X101529800Y-68070600D01*
X101529800Y-68070600D02*
X101528400Y-68072000D01*
D32*
X91344000Y-81891800D02*
X91344000Y-81051400D01*
X91344000Y-81051400D02*
X91344000Y-80549000D01*
X95694000Y-79891800D02*
X96856000Y-79891800D01*
X96856000Y-79891800D02*
X97688400Y-80724200D01*
X89611200Y-83032600D02*
X90220800Y-82423000D01*
X97688400Y-85572600D02*
X97434400Y-85826600D01*
X92654300Y-85826600D02*
X92603500Y-85877400D01*
X90137838Y-85877400D02*
X89611200Y-85350762D01*
X92603500Y-85877400D02*
X90137838Y-85877400D01*
X89611200Y-85350762D02*
X89611200Y-83032600D01*
X90220800Y-82423000D02*
X90812800Y-82423000D01*
X90812800Y-82423000D02*
X91344000Y-81891800D01*
X94944000Y-78091800D02*
X95694000Y-78841800D01*
X95694000Y-78841800D02*
X95694000Y-79891800D01*
X91344000Y-81891800D02*
X91056800Y-81891800D01*
D31*
X90353000Y-67449200D02*
X90353000Y-69144000D01*
X90353000Y-69144000D02*
X90843102Y-69634102D01*
X92563192Y-69596000D02*
X90805000Y-69596000D01*
X90353000Y-73914000D02*
X90843102Y-73423898D01*
X90843102Y-73423898D02*
X90843102Y-69634102D01*
X90843102Y-69634102D02*
X90805000Y-69596000D01*
D30*
X62992000Y-87630000D02*
X62992000Y-76301600D01*
X62992000Y-76301600D02*
X64871600Y-74422000D01*
X64871600Y-74422000D02*
X65024000Y-74422000D01*
X64770000Y-89408000D02*
X62992000Y-87630000D01*
X64770000Y-91440000D02*
X64770000Y-89408000D01*
D31*
X98679000Y-85726000D02*
X99695000Y-84710000D01*
X99695000Y-84710000D02*
X99695000Y-84685000D01*
X98679000Y-85852000D02*
X98679000Y-85726000D01*
X97790000Y-86741000D02*
X98679000Y-85852000D01*
X88773000Y-81915000D02*
X88773000Y-85979000D01*
X89281000Y-79355192D02*
X89281000Y-81407000D01*
X89281000Y-81407000D02*
X88773000Y-81915000D01*
X90353000Y-78283192D02*
X89281000Y-79355192D01*
X90353000Y-76149200D02*
X90353000Y-78283192D01*
X88773000Y-85979000D02*
X89535000Y-86741000D01*
X89535000Y-86741000D02*
X97790000Y-86741000D01*
X88407001Y-75168999D02*
X88191247Y-75168999D01*
X88191247Y-75168999D02*
X87972890Y-74950642D01*
X89662000Y-73914000D02*
X88407001Y-75168999D01*
X88407001Y-75168999D02*
X88392000Y-75168999D01*
X84191000Y-76295000D02*
X85317001Y-75168999D01*
X90353000Y-73914000D02*
X89662000Y-73914000D01*
X83312000Y-76295000D02*
X84191000Y-76295000D01*
X90353000Y-73914000D02*
X90353000Y-75731993D01*
D33*
X73349200Y-75438000D02*
X72644000Y-75438000D01*
X73552402Y-75234798D02*
X73349200Y-75438000D01*
X75017378Y-75234798D02*
X73552402Y-75234798D01*
X76077580Y-76295000D02*
X75017378Y-75234798D01*
X83312000Y-76295000D02*
X76077580Y-76295000D01*
X65024000Y-74422000D02*
X69609000Y-74422000D01*
X69609000Y-74422000D02*
X70612000Y-75425000D01*
X70612000Y-75425000D02*
X70612000Y-75450000D01*
X72644000Y-75438000D02*
X70624000Y-75438000D01*
X70624000Y-75438000D02*
X70612000Y-75450000D01*
D31*
X82899000Y-76708000D02*
X83312000Y-76295000D01*
X95453000Y-69049200D02*
X95453000Y-67996000D01*
X95453000Y-67996000D02*
X95758000Y-67691000D01*
X90297000Y-65405000D02*
X90353000Y-65461000D01*
X90353000Y-65461000D02*
X90353000Y-67449200D01*
X93488992Y-68670200D02*
X92563192Y-69596000D01*
X94549000Y-68670200D02*
X93488992Y-68670200D01*
X94928000Y-69049200D02*
X94549000Y-68670200D01*
X95453000Y-69049200D02*
X94928000Y-69049200D01*
X83312000Y-76295000D02*
X83437000Y-76295000D01*
D33*
X101670000Y-84930800D02*
X99940800Y-84930800D01*
X99940800Y-84930800D02*
X99695000Y-84685000D01*
D31*
X83312000Y-74295000D02*
X83312000Y-72231000D01*
X83312000Y-72231000D02*
X81387000Y-72231000D01*
X81387000Y-72231000D02*
X81153000Y-71997000D01*
X86753000Y-71549200D02*
X84152800Y-71549200D01*
X84152800Y-71549200D02*
X83471000Y-72231000D01*
X83471000Y-72231000D02*
X83312000Y-72231000D01*
X83852000Y-72358000D02*
X83312000Y-72358000D01*
X84304407Y-70231000D02*
X84312368Y-70223039D01*
X83312000Y-70231000D02*
X84304407Y-70231000D01*
X74644000Y-72390000D02*
X74644000Y-72265000D01*
X74644000Y-72265000D02*
X72737000Y-70358000D01*
X74644000Y-72390000D02*
X74644000Y-74136000D01*
X74644000Y-74136000D02*
X74676000Y-74168000D01*
X81153000Y-70497000D02*
X79871000Y-70497000D01*
X81788000Y-70231000D02*
X81419000Y-70231000D01*
X83312000Y-70231000D02*
X81788000Y-70231000D01*
X81419000Y-70231000D02*
X81153000Y-70497000D01*
X86753000Y-71049200D02*
X84255200Y-71049200D01*
X84255200Y-71049200D02*
X83437000Y-70231000D01*
D33*
X72644000Y-76938000D02*
X73684000Y-76938000D01*
X73684000Y-76938000D02*
X74676000Y-75946000D01*
X72644000Y-79248000D02*
X72644000Y-76938000D01*
X72644000Y-82054000D02*
X72644000Y-79248000D01*
X65024000Y-82042000D02*
X72632000Y-82042000D01*
X72632000Y-82042000D02*
X72644000Y-82054000D01*
D31*
X92353000Y-67449200D02*
X92353000Y-68810000D01*
X92353000Y-68810000D02*
X92297539Y-68865461D01*
X90551000Y-62992000D02*
X90805000Y-62992000D01*
X90805000Y-62992000D02*
X91059000Y-63246000D01*
X91059000Y-63246000D02*
X91059000Y-66012362D01*
X91059000Y-66012362D02*
X90853000Y-66218362D01*
X90853000Y-66218362D02*
X90853000Y-67449200D01*
X93444000Y-78091800D02*
X93444000Y-82535000D01*
X93444000Y-82535000D02*
X91598000Y-84381000D01*
X91598000Y-84381000D02*
X91344000Y-84381000D01*
X93314666Y-75970801D02*
X93314666Y-77962466D01*
X93314666Y-77962466D02*
X93444000Y-78091800D01*
X94194000Y-79891800D02*
X94194000Y-80525400D01*
X94194000Y-80525400D02*
X95560400Y-81891800D01*
X95560400Y-81891800D02*
X95814400Y-81891800D01*
X93814666Y-75970801D02*
X93814666Y-76495801D01*
X94174201Y-76855336D02*
X94174201Y-78961599D01*
X93814666Y-76495801D02*
X94174201Y-76855336D01*
X94174201Y-78961599D02*
X94194000Y-78981398D01*
X94194000Y-78981398D02*
X94194000Y-79891800D01*
X100076000Y-70574001D02*
X100228400Y-70574001D01*
X97815400Y-70574001D02*
X100076000Y-70574001D01*
X102133400Y-70574001D02*
X102870000Y-70574001D01*
X102870000Y-70574001D02*
X104872601Y-70574001D01*
X100076000Y-70574001D02*
X102870000Y-70574001D01*
X97700666Y-70574001D02*
X97815400Y-70574001D01*
X95478400Y-70578600D02*
X96382400Y-70578600D01*
X96382400Y-70578600D02*
X96386999Y-70574001D01*
X96386999Y-70574001D02*
X97815400Y-70574001D01*
X102151800Y-70739000D02*
X102151800Y-70592401D01*
D30*
X102151800Y-71526400D02*
X102151800Y-70739000D01*
D31*
X102151800Y-70592401D02*
X102133400Y-70574001D01*
X104872601Y-70574001D02*
X104919400Y-70620800D01*
D30*
X101701600Y-77495400D02*
X101701600Y-76086970D01*
X101701600Y-76086970D02*
X103606600Y-74181970D01*
X103606600Y-74181970D02*
X103606600Y-71578400D01*
D33*
X103606600Y-71578400D02*
X103914200Y-71270800D01*
X103914200Y-71270800D02*
X104919400Y-71270800D01*
D31*
X100076000Y-70074001D02*
X100253800Y-70074001D01*
X97700666Y-70074001D02*
X100076000Y-70074001D01*
X102158800Y-70074001D02*
X102616000Y-70074001D01*
X102616000Y-70074001D02*
X104932699Y-70074001D01*
X100076000Y-70074001D02*
X102616000Y-70074001D01*
X95478400Y-70078600D02*
X97696067Y-70078600D01*
X97696067Y-70078600D02*
X97700666Y-70074001D01*
X102151800Y-69545200D02*
X102151800Y-70067001D01*
X102151800Y-70067001D02*
X102158800Y-70074001D01*
X104932699Y-70074001D02*
X104976800Y-70029900D01*
X89353000Y-67449200D02*
X89353000Y-73152739D01*
X89353000Y-73152739D02*
X89326609Y-73179130D01*
X89853000Y-72581000D02*
X90170000Y-72898000D01*
X89853000Y-67449200D02*
X89853000Y-72581000D01*
D33*
X70612000Y-76950000D02*
X70612000Y-76975000D01*
X70612000Y-76975000D02*
X68085000Y-79502000D01*
X68085000Y-79502000D02*
X66370200Y-79502000D01*
X66370200Y-79502000D02*
X65024000Y-79502000D01*
D31*
X103073200Y-66649600D02*
X100076000Y-66649600D01*
D33*
X103555800Y-67132200D02*
X103073200Y-66649600D01*
X103555800Y-68312400D02*
X103555800Y-67132200D01*
X104919400Y-68670800D02*
X103914200Y-68670800D01*
X103914200Y-68670800D02*
X103555800Y-68312400D01*
X74168000Y-79248000D02*
X77470000Y-79248000D01*
X77470000Y-79248000D02*
X77724000Y-78994000D01*
D31*
X76200000Y-70866000D02*
X67310000Y-61976000D01*
X67310000Y-61976000D02*
X67310000Y-58420000D01*
X76200000Y-72898000D02*
X76200000Y-70866000D01*
X77127101Y-73825101D02*
X76200000Y-72898000D01*
X77724000Y-74168000D02*
X77381101Y-73825101D01*
X77381101Y-73825101D02*
X77127101Y-73825101D01*
X86753000Y-74049200D02*
X84954800Y-74049200D01*
X84954800Y-74049200D02*
X84836000Y-74168000D01*
X86753000Y-73549200D02*
X87799373Y-73549200D01*
X87799373Y-73549200D02*
X87807798Y-73540775D01*
X76962000Y-70358000D02*
X76962000Y-72390000D01*
X76962000Y-72390000D02*
X77724000Y-73152000D01*
X69850000Y-63246000D02*
X76962000Y-70358000D01*
X69850000Y-58572400D02*
X69850000Y-63246000D01*
X69850000Y-58420000D02*
X69850000Y-58572400D01*
X77724000Y-72136000D02*
X77724000Y-68834000D01*
X77724000Y-68834000D02*
X72390000Y-63500000D01*
X72390000Y-63500000D02*
X72390000Y-58420000D01*
X86753000Y-73049200D02*
X85495200Y-73049200D01*
X85495200Y-73049200D02*
X85090000Y-72644000D01*
X72390000Y-91287600D02*
X72390000Y-91440000D01*
X77954814Y-87884000D02*
X75793600Y-87884000D01*
X88853000Y-76149200D02*
X88853000Y-76985814D01*
X75793600Y-87884000D02*
X72390000Y-91287600D01*
X88853000Y-76985814D02*
X77954814Y-87884000D01*
X74777600Y-86360000D02*
X77763200Y-86360000D01*
X77763200Y-86360000D02*
X87974000Y-76149200D01*
X87974000Y-76149200D02*
X88353000Y-76149200D01*
X69850000Y-91440000D02*
X69850000Y-91287600D01*
X69850000Y-91287600D02*
X74777600Y-86360000D01*
X80010000Y-59690000D02*
X80010000Y-58420000D01*
X80772000Y-65532000D02*
X80010000Y-64770000D01*
X85590453Y-70549200D02*
X84129253Y-69088000D01*
X84129253Y-69088000D02*
X81534000Y-69088000D01*
X80772000Y-68326000D02*
X80772000Y-65532000D01*
X86753000Y-70549200D02*
X85590453Y-70549200D01*
X81534000Y-69088000D02*
X80772000Y-68326000D01*
X80010000Y-64770000D02*
X80010000Y-59690000D01*
X82550000Y-59690000D02*
X82550000Y-58420000D01*
X82550000Y-66862154D02*
X82550000Y-59690000D01*
X86753000Y-70049200D02*
X85737046Y-70049200D01*
X85737046Y-70049200D02*
X82550000Y-66862154D01*
X86753000Y-69549200D02*
X86708201Y-69504401D01*
X86708201Y-69504401D02*
X85838839Y-69504401D01*
X85838839Y-69504401D02*
X85090000Y-68755562D01*
X85090000Y-68755562D02*
X85090000Y-59690000D01*
X85090000Y-59690000D02*
X85090000Y-58420000D01*
X86753000Y-69049200D02*
X86753000Y-59297000D01*
X86753000Y-59297000D02*
X87630000Y-58420000D01*
X88353000Y-66545200D02*
X88353000Y-67449200D01*
X87972899Y-66165099D02*
X88353000Y-66545200D01*
X90170000Y-58420000D02*
X90170000Y-59690000D01*
X90170000Y-59690000D02*
X87972899Y-61887101D01*
X87972899Y-61887101D02*
X87972899Y-66165099D01*
X92710000Y-58420000D02*
X92710000Y-58674000D01*
X92710000Y-58674000D02*
X88646000Y-62738000D01*
X88646000Y-62738000D02*
X88646000Y-64516000D01*
X92710000Y-58572400D02*
X92710000Y-58420000D01*
X88853000Y-67449200D02*
X88853000Y-68373000D01*
X88853000Y-68373000D02*
X88392000Y-68834000D01*
X95250000Y-59690000D02*
X95250000Y-58420000D01*
X95250000Y-63272173D02*
X95250000Y-59690000D01*
X91853000Y-67449200D02*
X91853000Y-66669173D01*
X91853000Y-66669173D02*
X95250000Y-63272173D01*
X97790000Y-58420000D02*
X97790000Y-61378765D01*
X92853000Y-66545200D02*
X92853000Y-67449200D01*
X92853000Y-66315765D02*
X92853000Y-66545200D01*
X97790000Y-61378765D02*
X92853000Y-66315765D01*
X100208200Y-59690000D02*
X100208200Y-58541800D01*
X100208200Y-58541800D02*
X100330000Y-58420000D01*
X93353000Y-67449200D02*
X93353000Y-66545200D01*
X93353000Y-66545200D02*
X100208200Y-59690000D01*
X102870000Y-58420000D02*
X102870000Y-58572400D01*
X93993200Y-67449200D02*
X93853000Y-67449200D01*
X102870000Y-58572400D02*
X93993200Y-67449200D01*
X70866000Y-85598000D02*
X67310000Y-89154000D01*
X67310000Y-89154000D02*
X67310000Y-91440000D01*
X76364362Y-85598000D02*
X70866000Y-85598000D01*
X86753000Y-74549200D02*
X86753000Y-75209362D01*
X86753000Y-75209362D02*
X76364362Y-85598000D01*
X78093408Y-88392000D02*
X77825600Y-88392000D01*
X89353000Y-77132408D02*
X78093408Y-88392000D01*
X74930000Y-91287600D02*
X74930000Y-91440000D01*
X77825600Y-88392000D02*
X74930000Y-91287600D01*
X89353000Y-76149200D02*
X89353000Y-77132408D01*
X77470000Y-89662000D02*
X77470000Y-91440000D01*
X87856362Y-79275638D02*
X77470000Y-89662000D01*
X89181638Y-77978000D02*
X87884000Y-79275638D01*
X87884000Y-79275638D02*
X87856362Y-79275638D01*
X89853000Y-77787000D02*
X89662000Y-77978000D01*
X89662000Y-77978000D02*
X89181638Y-77978000D01*
X89853000Y-76149200D02*
X89853000Y-77787000D01*
X89853000Y-76149200D02*
X89853000Y-77025000D01*
X80010000Y-88359392D02*
X85325745Y-83043647D01*
X80010000Y-91440000D02*
X80010000Y-88359392D01*
X91353000Y-74950433D02*
X91037322Y-74634755D01*
X91353000Y-76149200D02*
X91353000Y-74950433D01*
X82550000Y-91440000D02*
X82550000Y-87067739D01*
X82550000Y-87067739D02*
X86024609Y-83593130D01*
X91853000Y-76149200D02*
X91853000Y-74009000D01*
X91853000Y-74009000D02*
X92202000Y-73660000D01*
X86868000Y-86868000D02*
X85090000Y-88646000D01*
X85090000Y-88646000D02*
X85090000Y-91440000D01*
X86868000Y-83312000D02*
X86868000Y-86868000D01*
X92353000Y-76149200D02*
X92353000Y-74779000D01*
X92353000Y-74779000D02*
X92964000Y-74168000D01*
X87711391Y-83593130D02*
X87711391Y-91358609D01*
X87711391Y-91358609D02*
X87630000Y-91440000D01*
X92853000Y-75245200D02*
X93168200Y-74930000D01*
X92853000Y-76149200D02*
X92853000Y-75245200D01*
X93168200Y-74930000D02*
X93472000Y-74930000D01*
X95453000Y-74549200D02*
X95453000Y-74928200D01*
X95453000Y-74928200D02*
X96220709Y-75695909D01*
X96220709Y-75695909D02*
X96546585Y-75695909D01*
X96357000Y-74049200D02*
X97435239Y-75127439D01*
X97435239Y-75185745D02*
X97435239Y-75670678D01*
X95453000Y-74049200D02*
X96357000Y-74049200D01*
X97435239Y-75127439D02*
X97435239Y-75185745D01*
X95453000Y-73549200D02*
X96568276Y-73549200D01*
X96568276Y-73549200D02*
X98317129Y-75298053D01*
X98317129Y-75298053D02*
X98317129Y-75782986D01*
X96735278Y-73049200D02*
X98802056Y-75115978D01*
X98802056Y-75115978D02*
X99144955Y-75458877D01*
X95453000Y-73049200D02*
X96735278Y-73049200D01*
X99068442Y-74249100D02*
X99411341Y-74591999D01*
X95453000Y-72549200D02*
X97368542Y-72549200D01*
X97368542Y-72549200D02*
X99068442Y-74249100D01*
X97820465Y-72049200D02*
X100348411Y-74577146D01*
X100348411Y-74577146D02*
X100348411Y-74630333D01*
X95453000Y-72049200D02*
X97820465Y-72049200D01*
X99929282Y-73173054D02*
X100272181Y-73515953D01*
X98305428Y-71549200D02*
X99929282Y-73173054D01*
X95453000Y-71549200D02*
X98305428Y-71549200D01*
X101487783Y-73779633D02*
X101830682Y-74122532D01*
X95453000Y-71049200D02*
X98757350Y-71049200D01*
X98757350Y-71049200D02*
X101487783Y-73779633D01*
X86753000Y-72549200D02*
X88008424Y-72549200D01*
X88008424Y-72549200D02*
X88206970Y-72350654D01*
X78740000Y-68326000D02*
X78740000Y-71882000D01*
X74930000Y-64516000D02*
X78740000Y-68326000D01*
X74930000Y-58420000D02*
X74930000Y-64516000D01*
X87795101Y-71716899D02*
X88138000Y-71374000D01*
X87795101Y-71787967D02*
X87795101Y-71716899D01*
X86753000Y-72049200D02*
X87533868Y-72049200D01*
X87533868Y-72049200D02*
X87795101Y-71787967D01*
X79756000Y-65786000D02*
X77470000Y-63500000D01*
X77470000Y-63500000D02*
X77470000Y-58420000D01*
X79756000Y-69596000D02*
X79756000Y-65786000D01*
G36*
X106546808Y-74219457D02*
X106893915Y-74567171D01*
X107347666Y-74755585D01*
X107838979Y-74756014D01*
X108293057Y-74568392D01*
X108585000Y-74276959D01*
X108585000Y-75110404D01*
X107467575Y-76227829D01*
X107413330Y-76143529D01*
X107201130Y-75998539D01*
X106949240Y-75947530D01*
X104449880Y-75947530D01*
X104214563Y-75991808D01*
X103998439Y-76130880D01*
X103853449Y-76343080D01*
X103802440Y-76594970D01*
X103802440Y-78395830D01*
X103815174Y-78463505D01*
X103808400Y-78497560D01*
X103808400Y-79962479D01*
X103700969Y-80119710D01*
X103649960Y-80371600D01*
X103649960Y-81121600D01*
X103694238Y-81356917D01*
X103808400Y-81534330D01*
X103808400Y-81955164D01*
X103760204Y-82003360D01*
X103570000Y-82003360D01*
X103334683Y-82047638D01*
X103118559Y-82186710D01*
X102973569Y-82398910D01*
X102922560Y-82650800D01*
X102922560Y-83250800D01*
X102960564Y-83452774D01*
X102935000Y-83514491D01*
X102935000Y-83655050D01*
X103093750Y-83813800D01*
X103269182Y-83813800D01*
X103318110Y-83847231D01*
X103570000Y-83898240D01*
X104570000Y-83898240D01*
X104805317Y-83853962D01*
X104867731Y-83813800D01*
X105046250Y-83813800D01*
X105205000Y-83655050D01*
X105205000Y-83514491D01*
X105177490Y-83448077D01*
X105217440Y-83250800D01*
X105217440Y-83167451D01*
X106208367Y-83167451D01*
X106337102Y-83296186D01*
X106337102Y-83581814D01*
X105877116Y-84041800D01*
X104832766Y-84041800D01*
X104821890Y-84034369D01*
X104570000Y-83983360D01*
X103570000Y-83983360D01*
X103334683Y-84027638D01*
X103272269Y-84067800D01*
X103093750Y-84067800D01*
X102935000Y-84226550D01*
X102935000Y-84367109D01*
X102962510Y-84433523D01*
X102922560Y-84630800D01*
X102922560Y-85230800D01*
X102966838Y-85466117D01*
X103105910Y-85682241D01*
X103318110Y-85827231D01*
X103570000Y-85878240D01*
X104570000Y-85878240D01*
X104805317Y-85833962D01*
X104827325Y-85819800D01*
X106245352Y-85819800D01*
X106585558Y-85752129D01*
X106873970Y-85559418D01*
X107854720Y-84578668D01*
X107953890Y-84430250D01*
X108047431Y-84290256D01*
X108115102Y-83950050D01*
X108115102Y-82927950D01*
X108047431Y-82587744D01*
X107854720Y-82299332D01*
X107205221Y-81649833D01*
X107139695Y-81606050D01*
X107062533Y-81554492D01*
X107135727Y-81481299D01*
X107232400Y-81247910D01*
X107232400Y-81032350D01*
X107073650Y-80873600D01*
X106324400Y-80873600D01*
X106324400Y-80893600D01*
X106070400Y-80893600D01*
X106070400Y-80873600D01*
X106050400Y-80873600D01*
X106050400Y-80619600D01*
X106070400Y-80619600D01*
X106070400Y-79895350D01*
X106324400Y-79895350D01*
X106324400Y-80619600D01*
X107073650Y-80619600D01*
X107232400Y-80460850D01*
X107232400Y-80245290D01*
X107135727Y-80011901D01*
X106957098Y-79833273D01*
X106723709Y-79736600D01*
X106483150Y-79736600D01*
X106324400Y-79895350D01*
X106070400Y-79895350D01*
X105911650Y-79736600D01*
X105671091Y-79736600D01*
X105586400Y-79771680D01*
X105586400Y-79043270D01*
X106949240Y-79043270D01*
X107184557Y-78998992D01*
X107400681Y-78859920D01*
X107545671Y-78647720D01*
X107596680Y-78395830D01*
X107596680Y-78356664D01*
X107797446Y-78316729D01*
X108085858Y-78124018D01*
X109778800Y-76431076D01*
X109778800Y-90734956D01*
X109626719Y-91499518D01*
X109408567Y-91826006D01*
X109448600Y-91624745D01*
X109448600Y-91255255D01*
X109334526Y-90681766D01*
X109009670Y-90195585D01*
X108523489Y-89870729D01*
X107950000Y-89756655D01*
X107376511Y-89870729D01*
X106890330Y-90195585D01*
X106680000Y-90510366D01*
X106469670Y-90195585D01*
X105983489Y-89870729D01*
X105410000Y-89756655D01*
X104836511Y-89870729D01*
X104350330Y-90195585D01*
X104140000Y-90510366D01*
X103929670Y-90195585D01*
X103443489Y-89870729D01*
X102870000Y-89756655D01*
X102296511Y-89870729D01*
X101810330Y-90195585D01*
X101600000Y-90510366D01*
X101389670Y-90195585D01*
X100903489Y-89870729D01*
X100330000Y-89756655D01*
X99756511Y-89870729D01*
X99270330Y-90195585D01*
X99060000Y-90510366D01*
X98849670Y-90195585D01*
X98363489Y-89870729D01*
X97790000Y-89756655D01*
X97216511Y-89870729D01*
X96730330Y-90195585D01*
X96520000Y-90510366D01*
X96309670Y-90195585D01*
X95823489Y-89870729D01*
X95250000Y-89756655D01*
X94676511Y-89870729D01*
X94190330Y-90195585D01*
X93980000Y-90510366D01*
X93769670Y-90195585D01*
X93283489Y-89870729D01*
X92710000Y-89756655D01*
X92136511Y-89870729D01*
X91650330Y-90195585D01*
X91440000Y-90510366D01*
X91229670Y-90195585D01*
X90743489Y-89870729D01*
X90170000Y-89756655D01*
X89596511Y-89870729D01*
X89110330Y-90195585D01*
X88900000Y-90510366D01*
X88689670Y-90195585D01*
X88473391Y-90051072D01*
X88473391Y-86757021D01*
X88996185Y-87279816D01*
X89144377Y-87378834D01*
X89243395Y-87444996D01*
X89535000Y-87503000D01*
X97790000Y-87503000D01*
X98081605Y-87444996D01*
X98328815Y-87279815D01*
X99217815Y-86390815D01*
X99238406Y-86359999D01*
X99382996Y-86143605D01*
X99393914Y-86088716D01*
X99750190Y-85732440D01*
X100070000Y-85732440D01*
X100078184Y-85730900D01*
X100777125Y-85730900D01*
X100918110Y-85827231D01*
X101170000Y-85878240D01*
X102170000Y-85878240D01*
X102405317Y-85833962D01*
X102621441Y-85694890D01*
X102766431Y-85482690D01*
X102817440Y-85230800D01*
X102817440Y-84630800D01*
X102773162Y-84395483D01*
X102634090Y-84179359D01*
X102421890Y-84034369D01*
X102170000Y-83983360D01*
X101170000Y-83983360D01*
X100934683Y-84027638D01*
X100774520Y-84130700D01*
X100688406Y-84130700D01*
X100673162Y-84049683D01*
X100606671Y-83946354D01*
X100608327Y-83944698D01*
X100705000Y-83711309D01*
X100705000Y-83700827D01*
X100705910Y-83702241D01*
X100918110Y-83847231D01*
X101170000Y-83898240D01*
X102170000Y-83898240D01*
X102405317Y-83853962D01*
X102621441Y-83714890D01*
X102766431Y-83502690D01*
X102817440Y-83250800D01*
X102817440Y-82650800D01*
X102773162Y-82415483D01*
X102634090Y-82199359D01*
X102421890Y-82054369D01*
X102170000Y-82003360D01*
X101170000Y-82003360D01*
X100934683Y-82047638D01*
X100718559Y-82186710D01*
X100576965Y-82393940D01*
X100429699Y-82246673D01*
X100196310Y-82150000D01*
X99980750Y-82150000D01*
X99822000Y-82308750D01*
X99822000Y-83058000D01*
X99842000Y-83058000D01*
X99842000Y-83312000D01*
X99822000Y-83312000D01*
X99822000Y-83332000D01*
X99568000Y-83332000D01*
X99568000Y-83312000D01*
X98843750Y-83312000D01*
X98685000Y-83470750D01*
X98685000Y-83711309D01*
X98781673Y-83944698D01*
X98783043Y-83946068D01*
X98723569Y-84033110D01*
X98679000Y-84253198D01*
X98679000Y-82658691D01*
X98685000Y-82658691D01*
X98685000Y-82899250D01*
X98843750Y-83058000D01*
X99568000Y-83058000D01*
X99568000Y-82308750D01*
X99409250Y-82150000D01*
X99193690Y-82150000D01*
X98960301Y-82246673D01*
X98781673Y-82425302D01*
X98685000Y-82658691D01*
X98679000Y-82658691D01*
X98679000Y-79502000D01*
X98664326Y-79442740D01*
X98632421Y-79403707D01*
X95838421Y-77117707D01*
X95807410Y-77099006D01*
X95758000Y-77089000D01*
X95487691Y-77089000D01*
X95470309Y-77081800D01*
X95229750Y-77081800D01*
X95222550Y-77089000D01*
X94936201Y-77089000D01*
X94936201Y-76855336D01*
X94878197Y-76563731D01*
X94843468Y-76511756D01*
X94713016Y-76316520D01*
X94625440Y-76228944D01*
X94625440Y-75499200D01*
X94583672Y-75277225D01*
X94803000Y-75321640D01*
X94817048Y-75321640D01*
X94914185Y-75467015D01*
X95681893Y-76234724D01*
X95744397Y-76276488D01*
X95991926Y-76524449D01*
X96351215Y-76673639D01*
X96740248Y-76673978D01*
X97021541Y-76557750D01*
X97239869Y-76648408D01*
X97628902Y-76648747D01*
X97749771Y-76598805D01*
X97762470Y-76611526D01*
X98121759Y-76760716D01*
X98510792Y-76761055D01*
X98870341Y-76612493D01*
X99046450Y-76436691D01*
X99338618Y-76436946D01*
X99698167Y-76288384D01*
X99973495Y-76013536D01*
X100122685Y-75654247D01*
X100122736Y-75595479D01*
X100153041Y-75608063D01*
X100542074Y-75608402D01*
X100901623Y-75459840D01*
X101176951Y-75184992D01*
X101274653Y-74949700D01*
X101276023Y-74951072D01*
X101490997Y-75040337D01*
X101072982Y-75458352D01*
X100880271Y-75746764D01*
X100840336Y-75947530D01*
X100451920Y-75947530D01*
X100216603Y-75991808D01*
X100000479Y-76130880D01*
X99855489Y-76343080D01*
X99804480Y-76594970D01*
X99804480Y-78395830D01*
X99848758Y-78631147D01*
X99987830Y-78847271D01*
X100200030Y-78992261D01*
X100451920Y-79043270D01*
X102951280Y-79043270D01*
X103186597Y-78998992D01*
X103402721Y-78859920D01*
X103547711Y-78647720D01*
X103598720Y-78395830D01*
X103598720Y-76594970D01*
X103554442Y-76359653D01*
X103415370Y-76143529D01*
X103203170Y-75998539D01*
X103073521Y-75972285D01*
X104235218Y-74810588D01*
X104257419Y-74777362D01*
X104373354Y-74603853D01*
X104444400Y-74618240D01*
X105844400Y-74618240D01*
X106079717Y-74573962D01*
X106295841Y-74434890D01*
X106440831Y-74222690D01*
X106476127Y-74048395D01*
X106546808Y-74219457D01*
X106546808Y-74219457D01*
G37*
X106546808Y-74219457D02*
X106893915Y-74567171D01*
X107347666Y-74755585D01*
X107838979Y-74756014D01*
X108293057Y-74568392D01*
X108585000Y-74276959D01*
X108585000Y-75110404D01*
X107467575Y-76227829D01*
X107413330Y-76143529D01*
X107201130Y-75998539D01*
X106949240Y-75947530D01*
X104449880Y-75947530D01*
X104214563Y-75991808D01*
X103998439Y-76130880D01*
X103853449Y-76343080D01*
X103802440Y-76594970D01*
X103802440Y-78395830D01*
X103815174Y-78463505D01*
X103808400Y-78497560D01*
X103808400Y-79962479D01*
X103700969Y-80119710D01*
X103649960Y-80371600D01*
X103649960Y-81121600D01*
X103694238Y-81356917D01*
X103808400Y-81534330D01*
X103808400Y-81955164D01*
X103760204Y-82003360D01*
X103570000Y-82003360D01*
X103334683Y-82047638D01*
X103118559Y-82186710D01*
X102973569Y-82398910D01*
X102922560Y-82650800D01*
X102922560Y-83250800D01*
X102960564Y-83452774D01*
X102935000Y-83514491D01*
X102935000Y-83655050D01*
X103093750Y-83813800D01*
X103269182Y-83813800D01*
X103318110Y-83847231D01*
X103570000Y-83898240D01*
X104570000Y-83898240D01*
X104805317Y-83853962D01*
X104867731Y-83813800D01*
X105046250Y-83813800D01*
X105205000Y-83655050D01*
X105205000Y-83514491D01*
X105177490Y-83448077D01*
X105217440Y-83250800D01*
X105217440Y-83167451D01*
X106208367Y-83167451D01*
X106337102Y-83296186D01*
X106337102Y-83581814D01*
X105877116Y-84041800D01*
X104832766Y-84041800D01*
X104821890Y-84034369D01*
X104570000Y-83983360D01*
X103570000Y-83983360D01*
X103334683Y-84027638D01*
X103272269Y-84067800D01*
X103093750Y-84067800D01*
X102935000Y-84226550D01*
X102935000Y-84367109D01*
X102962510Y-84433523D01*
X102922560Y-84630800D01*
X102922560Y-85230800D01*
X102966838Y-85466117D01*
X103105910Y-85682241D01*
X103318110Y-85827231D01*
X103570000Y-85878240D01*
X104570000Y-85878240D01*
X104805317Y-85833962D01*
X104827325Y-85819800D01*
X106245352Y-85819800D01*
X106585558Y-85752129D01*
X106873970Y-85559418D01*
X107854720Y-84578668D01*
X107953890Y-84430250D01*
X108047431Y-84290256D01*
X108115102Y-83950050D01*
X108115102Y-82927950D01*
X108047431Y-82587744D01*
X107854720Y-82299332D01*
X107205221Y-81649833D01*
X107139695Y-81606050D01*
X107062533Y-81554492D01*
X107135727Y-81481299D01*
X107232400Y-81247910D01*
X107232400Y-81032350D01*
X107073650Y-80873600D01*
X106324400Y-80873600D01*
X106324400Y-80893600D01*
X106070400Y-80893600D01*
X106070400Y-80873600D01*
X106050400Y-80873600D01*
X106050400Y-80619600D01*
X106070400Y-80619600D01*
X106070400Y-79895350D01*
X106324400Y-79895350D01*
X106324400Y-80619600D01*
X107073650Y-80619600D01*
X107232400Y-80460850D01*
X107232400Y-80245290D01*
X107135727Y-80011901D01*
X106957098Y-79833273D01*
X106723709Y-79736600D01*
X106483150Y-79736600D01*
X106324400Y-79895350D01*
X106070400Y-79895350D01*
X105911650Y-79736600D01*
X105671091Y-79736600D01*
X105586400Y-79771680D01*
X105586400Y-79043270D01*
X106949240Y-79043270D01*
X107184557Y-78998992D01*
X107400681Y-78859920D01*
X107545671Y-78647720D01*
X107596680Y-78395830D01*
X107596680Y-78356664D01*
X107797446Y-78316729D01*
X108085858Y-78124018D01*
X109778800Y-76431076D01*
X109778800Y-90734956D01*
X109626719Y-91499518D01*
X109408567Y-91826006D01*
X109448600Y-91624745D01*
X109448600Y-91255255D01*
X109334526Y-90681766D01*
X109009670Y-90195585D01*
X108523489Y-89870729D01*
X107950000Y-89756655D01*
X107376511Y-89870729D01*
X106890330Y-90195585D01*
X106680000Y-90510366D01*
X106469670Y-90195585D01*
X105983489Y-89870729D01*
X105410000Y-89756655D01*
X104836511Y-89870729D01*
X104350330Y-90195585D01*
X104140000Y-90510366D01*
X103929670Y-90195585D01*
X103443489Y-89870729D01*
X102870000Y-89756655D01*
X102296511Y-89870729D01*
X101810330Y-90195585D01*
X101600000Y-90510366D01*
X101389670Y-90195585D01*
X100903489Y-89870729D01*
X100330000Y-89756655D01*
X99756511Y-89870729D01*
X99270330Y-90195585D01*
X99060000Y-90510366D01*
X98849670Y-90195585D01*
X98363489Y-89870729D01*
X97790000Y-89756655D01*
X97216511Y-89870729D01*
X96730330Y-90195585D01*
X96520000Y-90510366D01*
X96309670Y-90195585D01*
X95823489Y-89870729D01*
X95250000Y-89756655D01*
X94676511Y-89870729D01*
X94190330Y-90195585D01*
X93980000Y-90510366D01*
X93769670Y-90195585D01*
X93283489Y-89870729D01*
X92710000Y-89756655D01*
X92136511Y-89870729D01*
X91650330Y-90195585D01*
X91440000Y-90510366D01*
X91229670Y-90195585D01*
X90743489Y-89870729D01*
X90170000Y-89756655D01*
X89596511Y-89870729D01*
X89110330Y-90195585D01*
X88900000Y-90510366D01*
X88689670Y-90195585D01*
X88473391Y-90051072D01*
X88473391Y-86757021D01*
X88996185Y-87279816D01*
X89144377Y-87378834D01*
X89243395Y-87444996D01*
X89535000Y-87503000D01*
X97790000Y-87503000D01*
X98081605Y-87444996D01*
X98328815Y-87279815D01*
X99217815Y-86390815D01*
X99238406Y-86359999D01*
X99382996Y-86143605D01*
X99393914Y-86088716D01*
X99750190Y-85732440D01*
X100070000Y-85732440D01*
X100078184Y-85730900D01*
X100777125Y-85730900D01*
X100918110Y-85827231D01*
X101170000Y-85878240D01*
X102170000Y-85878240D01*
X102405317Y-85833962D01*
X102621441Y-85694890D01*
X102766431Y-85482690D01*
X102817440Y-85230800D01*
X102817440Y-84630800D01*
X102773162Y-84395483D01*
X102634090Y-84179359D01*
X102421890Y-84034369D01*
X102170000Y-83983360D01*
X101170000Y-83983360D01*
X100934683Y-84027638D01*
X100774520Y-84130700D01*
X100688406Y-84130700D01*
X100673162Y-84049683D01*
X100606671Y-83946354D01*
X100608327Y-83944698D01*
X100705000Y-83711309D01*
X100705000Y-83700827D01*
X100705910Y-83702241D01*
X100918110Y-83847231D01*
X101170000Y-83898240D01*
X102170000Y-83898240D01*
X102405317Y-83853962D01*
X102621441Y-83714890D01*
X102766431Y-83502690D01*
X102817440Y-83250800D01*
X102817440Y-82650800D01*
X102773162Y-82415483D01*
X102634090Y-82199359D01*
X102421890Y-82054369D01*
X102170000Y-82003360D01*
X101170000Y-82003360D01*
X100934683Y-82047638D01*
X100718559Y-82186710D01*
X100576965Y-82393940D01*
X100429699Y-82246673D01*
X100196310Y-82150000D01*
X99980750Y-82150000D01*
X99822000Y-82308750D01*
X99822000Y-83058000D01*
X99842000Y-83058000D01*
X99842000Y-83312000D01*
X99822000Y-83312000D01*
X99822000Y-83332000D01*
X99568000Y-83332000D01*
X99568000Y-83312000D01*
X98843750Y-83312000D01*
X98685000Y-83470750D01*
X98685000Y-83711309D01*
X98781673Y-83944698D01*
X98783043Y-83946068D01*
X98723569Y-84033110D01*
X98679000Y-84253198D01*
X98679000Y-82658691D01*
X98685000Y-82658691D01*
X98685000Y-82899250D01*
X98843750Y-83058000D01*
X99568000Y-83058000D01*
X99568000Y-82308750D01*
X99409250Y-82150000D01*
X99193690Y-82150000D01*
X98960301Y-82246673D01*
X98781673Y-82425302D01*
X98685000Y-82658691D01*
X98679000Y-82658691D01*
X98679000Y-79502000D01*
X98664326Y-79442740D01*
X98632421Y-79403707D01*
X95838421Y-77117707D01*
X95807410Y-77099006D01*
X95758000Y-77089000D01*
X95487691Y-77089000D01*
X95470309Y-77081800D01*
X95229750Y-77081800D01*
X95222550Y-77089000D01*
X94936201Y-77089000D01*
X94936201Y-76855336D01*
X94878197Y-76563731D01*
X94843468Y-76511756D01*
X94713016Y-76316520D01*
X94625440Y-76228944D01*
X94625440Y-75499200D01*
X94583672Y-75277225D01*
X94803000Y-75321640D01*
X94817048Y-75321640D01*
X94914185Y-75467015D01*
X95681893Y-76234724D01*
X95744397Y-76276488D01*
X95991926Y-76524449D01*
X96351215Y-76673639D01*
X96740248Y-76673978D01*
X97021541Y-76557750D01*
X97239869Y-76648408D01*
X97628902Y-76648747D01*
X97749771Y-76598805D01*
X97762470Y-76611526D01*
X98121759Y-76760716D01*
X98510792Y-76761055D01*
X98870341Y-76612493D01*
X99046450Y-76436691D01*
X99338618Y-76436946D01*
X99698167Y-76288384D01*
X99973495Y-76013536D01*
X100122685Y-75654247D01*
X100122736Y-75595479D01*
X100153041Y-75608063D01*
X100542074Y-75608402D01*
X100901623Y-75459840D01*
X101176951Y-75184992D01*
X101274653Y-74949700D01*
X101276023Y-74951072D01*
X101490997Y-75040337D01*
X101072982Y-75458352D01*
X100880271Y-75746764D01*
X100840336Y-75947530D01*
X100451920Y-75947530D01*
X100216603Y-75991808D01*
X100000479Y-76130880D01*
X99855489Y-76343080D01*
X99804480Y-76594970D01*
X99804480Y-78395830D01*
X99848758Y-78631147D01*
X99987830Y-78847271D01*
X100200030Y-78992261D01*
X100451920Y-79043270D01*
X102951280Y-79043270D01*
X103186597Y-78998992D01*
X103402721Y-78859920D01*
X103547711Y-78647720D01*
X103598720Y-78395830D01*
X103598720Y-76594970D01*
X103554442Y-76359653D01*
X103415370Y-76143529D01*
X103203170Y-75998539D01*
X103073521Y-75972285D01*
X104235218Y-74810588D01*
X104257419Y-74777362D01*
X104373354Y-74603853D01*
X104444400Y-74618240D01*
X105844400Y-74618240D01*
X106079717Y-74573962D01*
X106295841Y-74434890D01*
X106440831Y-74222690D01*
X106476127Y-74048395D01*
X106546808Y-74219457D01*
G36*
X75511824Y-76860756D02*
X75771395Y-77034196D01*
X76077580Y-77095100D01*
X82125525Y-77095100D01*
X82222910Y-77246441D01*
X82435110Y-77391431D01*
X82687000Y-77442440D01*
X82760450Y-77442440D01*
X82899000Y-77469999D01*
X83037550Y-77442440D01*
X83442291Y-77442440D01*
X79152776Y-81731955D01*
X79112327Y-81634302D01*
X78933699Y-81455673D01*
X78700310Y-81359000D01*
X78009750Y-81359000D01*
X77851000Y-81517750D01*
X77851000Y-82267000D01*
X77871000Y-82267000D01*
X77871000Y-82521000D01*
X77851000Y-82521000D01*
X77851000Y-82541000D01*
X77597000Y-82541000D01*
X77597000Y-82521000D01*
X76397750Y-82521000D01*
X76239000Y-82679750D01*
X76239000Y-82920309D01*
X76335673Y-83153698D01*
X76514301Y-83332327D01*
X76747690Y-83429000D01*
X77438250Y-83429000D01*
X77596998Y-83270252D01*
X77596998Y-83287734D01*
X76048732Y-84836000D01*
X70866000Y-84836000D01*
X70574395Y-84894004D01*
X70327184Y-85059185D01*
X66771185Y-88615185D01*
X66606004Y-88862395D01*
X66548000Y-89154000D01*
X66548000Y-89996688D01*
X66250330Y-90195585D01*
X66240757Y-90209913D01*
X66236762Y-90188683D01*
X66097690Y-89972559D01*
X65885490Y-89827569D01*
X65659000Y-89781704D01*
X65659000Y-89408000D01*
X65591329Y-89067794D01*
X65398618Y-88779382D01*
X63881000Y-87261764D01*
X63881000Y-85669637D01*
X64109680Y-85873954D01*
X64662087Y-86067184D01*
X64897000Y-85922924D01*
X64897000Y-84709000D01*
X65151000Y-84709000D01*
X65151000Y-85922924D01*
X65385913Y-86067184D01*
X65938320Y-85873954D01*
X66374732Y-85484036D01*
X66628709Y-84956791D01*
X66631358Y-84941026D01*
X66510217Y-84709000D01*
X65151000Y-84709000D01*
X64897000Y-84709000D01*
X64877000Y-84709000D01*
X64877000Y-84455000D01*
X64897000Y-84455000D01*
X64897000Y-84435000D01*
X65151000Y-84435000D01*
X65151000Y-84455000D01*
X66510217Y-84455000D01*
X66631358Y-84222974D01*
X66628709Y-84207209D01*
X66451702Y-83839750D01*
X71634000Y-83839750D01*
X71634000Y-84080309D01*
X71730673Y-84313698D01*
X71909301Y-84492327D01*
X72142690Y-84589000D01*
X72358250Y-84589000D01*
X72517000Y-84430250D01*
X72517000Y-83681000D01*
X72771000Y-83681000D01*
X72771000Y-84430250D01*
X72929750Y-84589000D01*
X73145310Y-84589000D01*
X73378699Y-84492327D01*
X73557327Y-84313698D01*
X73654000Y-84080309D01*
X73654000Y-83839750D01*
X73495250Y-83681000D01*
X72771000Y-83681000D01*
X72517000Y-83681000D01*
X71792750Y-83681000D01*
X71634000Y-83839750D01*
X66451702Y-83839750D01*
X66374732Y-83679964D01*
X65958931Y-83308461D01*
X66268415Y-83101670D01*
X66441854Y-82842100D01*
X71710874Y-82842100D01*
X71634000Y-83027691D01*
X71634000Y-83268250D01*
X71792750Y-83427000D01*
X72517000Y-83427000D01*
X72517000Y-83407000D01*
X72771000Y-83407000D01*
X72771000Y-83427000D01*
X73495250Y-83427000D01*
X73654000Y-83268250D01*
X73654000Y-83027691D01*
X73557327Y-82794302D01*
X73555957Y-82792932D01*
X73615431Y-82705890D01*
X73666440Y-82454000D01*
X73666440Y-81867691D01*
X76239000Y-81867691D01*
X76239000Y-82108250D01*
X76397750Y-82267000D01*
X77597000Y-82267000D01*
X77597000Y-81517750D01*
X77438250Y-81359000D01*
X76747690Y-81359000D01*
X76514301Y-81455673D01*
X76335673Y-81634302D01*
X76239000Y-81867691D01*
X73666440Y-81867691D01*
X73666440Y-81654000D01*
X73622162Y-81418683D01*
X73483090Y-81202559D01*
X73444100Y-81175918D01*
X73444100Y-80170229D01*
X73516110Y-80219431D01*
X73768000Y-80270440D01*
X74568000Y-80270440D01*
X74803317Y-80226162D01*
X75019441Y-80087090D01*
X75046082Y-80048100D01*
X77470000Y-80048100D01*
X77503482Y-80041440D01*
X78574000Y-80041440D01*
X78809317Y-79997162D01*
X79025441Y-79858090D01*
X79170431Y-79645890D01*
X79221440Y-79394000D01*
X79221440Y-78594000D01*
X79177162Y-78358683D01*
X79038090Y-78142559D01*
X78825890Y-77997569D01*
X78574000Y-77946560D01*
X76874000Y-77946560D01*
X76638683Y-77990838D01*
X76422559Y-78129910D01*
X76277569Y-78342110D01*
X76256146Y-78447900D01*
X75049040Y-78447900D01*
X75032090Y-78421559D01*
X74819890Y-78276569D01*
X74568000Y-78225560D01*
X73768000Y-78225560D01*
X73532683Y-78269838D01*
X73444100Y-78326840D01*
X73444100Y-77819040D01*
X73470441Y-77802090D01*
X73514163Y-77738100D01*
X73684000Y-77738100D01*
X73990185Y-77677196D01*
X74249756Y-77503756D01*
X74829478Y-76924034D01*
X74869663Y-76924069D01*
X75229212Y-76775507D01*
X75327980Y-76676912D01*
X75511824Y-76860756D01*
X75511824Y-76860756D01*
G37*
X75511824Y-76860756D02*
X75771395Y-77034196D01*
X76077580Y-77095100D01*
X82125525Y-77095100D01*
X82222910Y-77246441D01*
X82435110Y-77391431D01*
X82687000Y-77442440D01*
X82760450Y-77442440D01*
X82899000Y-77469999D01*
X83037550Y-77442440D01*
X83442291Y-77442440D01*
X79152776Y-81731955D01*
X79112327Y-81634302D01*
X78933699Y-81455673D01*
X78700310Y-81359000D01*
X78009750Y-81359000D01*
X77851000Y-81517750D01*
X77851000Y-82267000D01*
X77871000Y-82267000D01*
X77871000Y-82521000D01*
X77851000Y-82521000D01*
X77851000Y-82541000D01*
X77597000Y-82541000D01*
X77597000Y-82521000D01*
X76397750Y-82521000D01*
X76239000Y-82679750D01*
X76239000Y-82920309D01*
X76335673Y-83153698D01*
X76514301Y-83332327D01*
X76747690Y-83429000D01*
X77438250Y-83429000D01*
X77596998Y-83270252D01*
X77596998Y-83287734D01*
X76048732Y-84836000D01*
X70866000Y-84836000D01*
X70574395Y-84894004D01*
X70327184Y-85059185D01*
X66771185Y-88615185D01*
X66606004Y-88862395D01*
X66548000Y-89154000D01*
X66548000Y-89996688D01*
X66250330Y-90195585D01*
X66240757Y-90209913D01*
X66236762Y-90188683D01*
X66097690Y-89972559D01*
X65885490Y-89827569D01*
X65659000Y-89781704D01*
X65659000Y-89408000D01*
X65591329Y-89067794D01*
X65398618Y-88779382D01*
X63881000Y-87261764D01*
X63881000Y-85669637D01*
X64109680Y-85873954D01*
X64662087Y-86067184D01*
X64897000Y-85922924D01*
X64897000Y-84709000D01*
X65151000Y-84709000D01*
X65151000Y-85922924D01*
X65385913Y-86067184D01*
X65938320Y-85873954D01*
X66374732Y-85484036D01*
X66628709Y-84956791D01*
X66631358Y-84941026D01*
X66510217Y-84709000D01*
X65151000Y-84709000D01*
X64897000Y-84709000D01*
X64877000Y-84709000D01*
X64877000Y-84455000D01*
X64897000Y-84455000D01*
X64897000Y-84435000D01*
X65151000Y-84435000D01*
X65151000Y-84455000D01*
X66510217Y-84455000D01*
X66631358Y-84222974D01*
X66628709Y-84207209D01*
X66451702Y-83839750D01*
X71634000Y-83839750D01*
X71634000Y-84080309D01*
X71730673Y-84313698D01*
X71909301Y-84492327D01*
X72142690Y-84589000D01*
X72358250Y-84589000D01*
X72517000Y-84430250D01*
X72517000Y-83681000D01*
X72771000Y-83681000D01*
X72771000Y-84430250D01*
X72929750Y-84589000D01*
X73145310Y-84589000D01*
X73378699Y-84492327D01*
X73557327Y-84313698D01*
X73654000Y-84080309D01*
X73654000Y-83839750D01*
X73495250Y-83681000D01*
X72771000Y-83681000D01*
X72517000Y-83681000D01*
X71792750Y-83681000D01*
X71634000Y-83839750D01*
X66451702Y-83839750D01*
X66374732Y-83679964D01*
X65958931Y-83308461D01*
X66268415Y-83101670D01*
X66441854Y-82842100D01*
X71710874Y-82842100D01*
X71634000Y-83027691D01*
X71634000Y-83268250D01*
X71792750Y-83427000D01*
X72517000Y-83427000D01*
X72517000Y-83407000D01*
X72771000Y-83407000D01*
X72771000Y-83427000D01*
X73495250Y-83427000D01*
X73654000Y-83268250D01*
X73654000Y-83027691D01*
X73557327Y-82794302D01*
X73555957Y-82792932D01*
X73615431Y-82705890D01*
X73666440Y-82454000D01*
X73666440Y-81867691D01*
X76239000Y-81867691D01*
X76239000Y-82108250D01*
X76397750Y-82267000D01*
X77597000Y-82267000D01*
X77597000Y-81517750D01*
X77438250Y-81359000D01*
X76747690Y-81359000D01*
X76514301Y-81455673D01*
X76335673Y-81634302D01*
X76239000Y-81867691D01*
X73666440Y-81867691D01*
X73666440Y-81654000D01*
X73622162Y-81418683D01*
X73483090Y-81202559D01*
X73444100Y-81175918D01*
X73444100Y-80170229D01*
X73516110Y-80219431D01*
X73768000Y-80270440D01*
X74568000Y-80270440D01*
X74803317Y-80226162D01*
X75019441Y-80087090D01*
X75046082Y-80048100D01*
X77470000Y-80048100D01*
X77503482Y-80041440D01*
X78574000Y-80041440D01*
X78809317Y-79997162D01*
X79025441Y-79858090D01*
X79170431Y-79645890D01*
X79221440Y-79394000D01*
X79221440Y-78594000D01*
X79177162Y-78358683D01*
X79038090Y-78142559D01*
X78825890Y-77997569D01*
X78574000Y-77946560D01*
X76874000Y-77946560D01*
X76638683Y-77990838D01*
X76422559Y-78129910D01*
X76277569Y-78342110D01*
X76256146Y-78447900D01*
X75049040Y-78447900D01*
X75032090Y-78421559D01*
X74819890Y-78276569D01*
X74568000Y-78225560D01*
X73768000Y-78225560D01*
X73532683Y-78269838D01*
X73444100Y-78326840D01*
X73444100Y-77819040D01*
X73470441Y-77802090D01*
X73514163Y-77738100D01*
X73684000Y-77738100D01*
X73990185Y-77677196D01*
X74249756Y-77503756D01*
X74829478Y-76924034D01*
X74869663Y-76924069D01*
X75229212Y-76775507D01*
X75327980Y-76676912D01*
X75511824Y-76860756D01*
G36*
X71509000Y-71730318D02*
X71509000Y-72104250D01*
X71667750Y-72263000D01*
X72517000Y-72263000D01*
X72517000Y-72243000D01*
X72771000Y-72243000D01*
X72771000Y-72263000D01*
X72791000Y-72263000D01*
X72791000Y-72517000D01*
X72771000Y-72517000D01*
X72771000Y-73491250D01*
X72929750Y-73650000D01*
X73025000Y-73650000D01*
X73025000Y-74391775D01*
X73019000Y-74390560D01*
X72269000Y-74390560D01*
X72033683Y-74434838D01*
X71817559Y-74573910D01*
X71773837Y-74637900D01*
X71476405Y-74637900D01*
X71451090Y-74598559D01*
X71238890Y-74453569D01*
X70987000Y-74402560D01*
X70721072Y-74402560D01*
X70174756Y-73856244D01*
X69915185Y-73682804D01*
X69609000Y-73621900D01*
X66687440Y-73621900D01*
X66687440Y-73558400D01*
X66643162Y-73323083D01*
X66504090Y-73106959D01*
X66291890Y-72961969D01*
X66040000Y-72910960D01*
X64008000Y-72910960D01*
X63772683Y-72955238D01*
X63556559Y-73094310D01*
X63411569Y-73306510D01*
X63360560Y-73558400D01*
X63360560Y-74675804D01*
X63068200Y-74968164D01*
X63068200Y-72675750D01*
X71509000Y-72675750D01*
X71509000Y-73141310D01*
X71605673Y-73374699D01*
X71784302Y-73553327D01*
X72017691Y-73650000D01*
X72358250Y-73650000D01*
X72517000Y-73491250D01*
X72517000Y-72517000D01*
X71667750Y-72517000D01*
X71509000Y-72675750D01*
X63068200Y-72675750D01*
X63068200Y-71633297D01*
X71509000Y-71730318D01*
X71509000Y-71730318D01*
G37*
X71509000Y-71730318D02*
X71509000Y-72104250D01*
X71667750Y-72263000D01*
X72517000Y-72263000D01*
X72517000Y-72243000D01*
X72771000Y-72243000D01*
X72771000Y-72263000D01*
X72791000Y-72263000D01*
X72791000Y-72517000D01*
X72771000Y-72517000D01*
X72771000Y-73491250D01*
X72929750Y-73650000D01*
X73025000Y-73650000D01*
X73025000Y-74391775D01*
X73019000Y-74390560D01*
X72269000Y-74390560D01*
X72033683Y-74434838D01*
X71817559Y-74573910D01*
X71773837Y-74637900D01*
X71476405Y-74637900D01*
X71451090Y-74598559D01*
X71238890Y-74453569D01*
X70987000Y-74402560D01*
X70721072Y-74402560D01*
X70174756Y-73856244D01*
X69915185Y-73682804D01*
X69609000Y-73621900D01*
X66687440Y-73621900D01*
X66687440Y-73558400D01*
X66643162Y-73323083D01*
X66504090Y-73106959D01*
X66291890Y-72961969D01*
X66040000Y-72910960D01*
X64008000Y-72910960D01*
X63772683Y-72955238D01*
X63556559Y-73094310D01*
X63411569Y-73306510D01*
X63360560Y-73558400D01*
X63360560Y-74675804D01*
X63068200Y-74968164D01*
X63068200Y-72675750D01*
X71509000Y-72675750D01*
X71509000Y-73141310D01*
X71605673Y-73374699D01*
X71784302Y-73553327D01*
X72017691Y-73650000D01*
X72358250Y-73650000D01*
X72517000Y-73491250D01*
X72517000Y-72517000D01*
X71667750Y-72517000D01*
X71509000Y-72675750D01*
X63068200Y-72675750D01*
X63068200Y-71633297D01*
X71509000Y-71730318D01*
G36*
X94290190Y-69549927D02*
X94206569Y-69672310D01*
X94191442Y-69747008D01*
X94168000Y-69770450D01*
X94168000Y-69800510D01*
X94176468Y-69820953D01*
X94155560Y-69924200D01*
X94155560Y-70174200D01*
X94179944Y-70303789D01*
X94155560Y-70424200D01*
X94155560Y-70674200D01*
X94179944Y-70803789D01*
X94155560Y-70924200D01*
X94155560Y-71174200D01*
X94179944Y-71303789D01*
X94155560Y-71424200D01*
X94155560Y-71674200D01*
X94179944Y-71803789D01*
X94155560Y-71924200D01*
X94155560Y-72174200D01*
X94179944Y-72303789D01*
X94155560Y-72424200D01*
X94155560Y-72674200D01*
X94179944Y-72803789D01*
X94155560Y-72924200D01*
X94155560Y-73174200D01*
X94179944Y-73303789D01*
X94155560Y-73424200D01*
X94155560Y-73674200D01*
X94179944Y-73803789D01*
X94155560Y-73924200D01*
X94155560Y-74174200D01*
X94168634Y-74243683D01*
X94026659Y-74101460D01*
X93941989Y-74066302D01*
X93942069Y-73974337D01*
X93793507Y-73614788D01*
X93518659Y-73339460D01*
X93159370Y-73190270D01*
X93065967Y-73190189D01*
X93031507Y-73106788D01*
X92756659Y-72831460D01*
X92397370Y-72682270D01*
X92008337Y-72681931D01*
X91648788Y-72830493D01*
X91605102Y-72874103D01*
X91605102Y-70358000D01*
X92563192Y-70358000D01*
X92854797Y-70299996D01*
X93102007Y-70134815D01*
X93804622Y-69432200D01*
X94214434Y-69432200D01*
X94290190Y-69549927D01*
X94290190Y-69549927D01*
G37*
X94290190Y-69549927D02*
X94206569Y-69672310D01*
X94191442Y-69747008D01*
X94168000Y-69770450D01*
X94168000Y-69800510D01*
X94176468Y-69820953D01*
X94155560Y-69924200D01*
X94155560Y-70174200D01*
X94179944Y-70303789D01*
X94155560Y-70424200D01*
X94155560Y-70674200D01*
X94179944Y-70803789D01*
X94155560Y-70924200D01*
X94155560Y-71174200D01*
X94179944Y-71303789D01*
X94155560Y-71424200D01*
X94155560Y-71674200D01*
X94179944Y-71803789D01*
X94155560Y-71924200D01*
X94155560Y-72174200D01*
X94179944Y-72303789D01*
X94155560Y-72424200D01*
X94155560Y-72674200D01*
X94179944Y-72803789D01*
X94155560Y-72924200D01*
X94155560Y-73174200D01*
X94179944Y-73303789D01*
X94155560Y-73424200D01*
X94155560Y-73674200D01*
X94179944Y-73803789D01*
X94155560Y-73924200D01*
X94155560Y-74174200D01*
X94168634Y-74243683D01*
X94026659Y-74101460D01*
X93941989Y-74066302D01*
X93942069Y-73974337D01*
X93793507Y-73614788D01*
X93518659Y-73339460D01*
X93159370Y-73190270D01*
X93065967Y-73190189D01*
X93031507Y-73106788D01*
X92756659Y-72831460D01*
X92397370Y-72682270D01*
X92008337Y-72681931D01*
X91648788Y-72830493D01*
X91605102Y-72874103D01*
X91605102Y-70358000D01*
X92563192Y-70358000D01*
X92854797Y-70299996D01*
X93102007Y-70134815D01*
X93804622Y-69432200D01*
X94214434Y-69432200D01*
X94290190Y-69549927D01*
G36*
X102285800Y-72772400D02*
X102305800Y-72772400D01*
X102305800Y-73026400D01*
X102285800Y-73026400D01*
X102285800Y-73046400D01*
X102031800Y-73046400D01*
X102031800Y-73026400D01*
X102011800Y-73026400D01*
X102011800Y-72772400D01*
X102031800Y-72772400D01*
X102031800Y-72752400D01*
X102285800Y-72752400D01*
X102285800Y-72772400D01*
X102285800Y-72772400D01*
G37*
X102285800Y-72772400D02*
X102305800Y-72772400D01*
X102305800Y-73026400D01*
X102285800Y-73026400D01*
X102285800Y-73046400D01*
X102031800Y-73046400D01*
X102031800Y-73026400D01*
X102011800Y-73026400D01*
X102011800Y-72772400D01*
X102031800Y-72772400D01*
X102031800Y-72752400D01*
X102285800Y-72752400D01*
X102285800Y-72772400D01*
G36*
X105537000Y-58293000D02*
X105557000Y-58293000D01*
X105557000Y-58547000D01*
X105537000Y-58547000D01*
X105537000Y-59906217D01*
X105769026Y-60027358D01*
X105784791Y-60024709D01*
X106312036Y-59770732D01*
X106683539Y-59354931D01*
X106890330Y-59664415D01*
X107061000Y-59778453D01*
X107061000Y-63754000D01*
X107128671Y-64094206D01*
X107321343Y-64382560D01*
X107321382Y-64382618D01*
X108585000Y-65646236D01*
X108585000Y-65665051D01*
X108294885Y-65374429D01*
X107841134Y-65186015D01*
X107349821Y-65185586D01*
X106895743Y-65373208D01*
X106548029Y-65720315D01*
X106476927Y-65891547D01*
X106447562Y-65735483D01*
X106308490Y-65519359D01*
X106096290Y-65374369D01*
X105844400Y-65323360D01*
X104444400Y-65323360D01*
X104209083Y-65367638D01*
X103992959Y-65506710D01*
X103847969Y-65718910D01*
X103796960Y-65970800D01*
X103796960Y-66241848D01*
X103638956Y-66083844D01*
X103379385Y-65910404D01*
X103073200Y-65849500D01*
X102881658Y-65887600D01*
X101286992Y-65887600D01*
X101165090Y-65698159D01*
X100952890Y-65553169D01*
X100701000Y-65502160D01*
X99451000Y-65502160D01*
X99215683Y-65546438D01*
X98999559Y-65685510D01*
X98854569Y-65897710D01*
X98803560Y-66149600D01*
X98803560Y-67149600D01*
X98847838Y-67384917D01*
X98986910Y-67601041D01*
X99055006Y-67647569D01*
X98912673Y-67789902D01*
X98816000Y-68023291D01*
X98816000Y-68363850D01*
X98974750Y-68522600D01*
X99949000Y-68522600D01*
X99949000Y-68502600D01*
X100203000Y-68502600D01*
X100203000Y-68522600D01*
X100223000Y-68522600D01*
X100223000Y-68776600D01*
X100203000Y-68776600D01*
X100203000Y-68796600D01*
X99949000Y-68796600D01*
X99949000Y-68776600D01*
X98974750Y-68776600D01*
X98816000Y-68935350D01*
X98816000Y-69275909D01*
X98830950Y-69312001D01*
X97700666Y-69312001D01*
X97677545Y-69316600D01*
X96738000Y-69316600D01*
X96738000Y-69297890D01*
X96729532Y-69277447D01*
X96750440Y-69174200D01*
X96750440Y-68924200D01*
X96706477Y-68690556D01*
X96731691Y-68701000D01*
X96972250Y-68701000D01*
X97131000Y-68542250D01*
X97131000Y-67818000D01*
X97385000Y-67818000D01*
X97385000Y-68542250D01*
X97543750Y-68701000D01*
X97784309Y-68701000D01*
X98017698Y-68604327D01*
X98196327Y-68425699D01*
X98293000Y-68192310D01*
X98293000Y-67976750D01*
X98134250Y-67818000D01*
X97385000Y-67818000D01*
X97131000Y-67818000D01*
X97111000Y-67818000D01*
X97111000Y-67564000D01*
X97131000Y-67564000D01*
X97131000Y-66839750D01*
X97385000Y-66839750D01*
X97385000Y-67564000D01*
X98134250Y-67564000D01*
X98293000Y-67405250D01*
X98293000Y-67189690D01*
X98196327Y-66956301D01*
X98017698Y-66777673D01*
X97784309Y-66681000D01*
X97543750Y-66681000D01*
X97385000Y-66839750D01*
X97131000Y-66839750D01*
X96972250Y-66681000D01*
X96731691Y-66681000D01*
X96498302Y-66777673D01*
X96496932Y-66779043D01*
X96409890Y-66719569D01*
X96158000Y-66668560D01*
X95851470Y-66668560D01*
X102491895Y-60028135D01*
X102870000Y-60103345D01*
X103443489Y-59989271D01*
X103929670Y-59664415D01*
X104136461Y-59354931D01*
X104507964Y-59770732D01*
X105035209Y-60024709D01*
X105050974Y-60027358D01*
X105283000Y-59906217D01*
X105283000Y-58547000D01*
X105263000Y-58547000D01*
X105263000Y-58293000D01*
X105283000Y-58293000D01*
X105283000Y-58273000D01*
X105537000Y-58273000D01*
X105537000Y-58293000D01*
X105537000Y-58293000D01*
G37*
X105537000Y-58293000D02*
X105557000Y-58293000D01*
X105557000Y-58547000D01*
X105537000Y-58547000D01*
X105537000Y-59906217D01*
X105769026Y-60027358D01*
X105784791Y-60024709D01*
X106312036Y-59770732D01*
X106683539Y-59354931D01*
X106890330Y-59664415D01*
X107061000Y-59778453D01*
X107061000Y-63754000D01*
X107128671Y-64094206D01*
X107321343Y-64382560D01*
X107321382Y-64382618D01*
X108585000Y-65646236D01*
X108585000Y-65665051D01*
X108294885Y-65374429D01*
X107841134Y-65186015D01*
X107349821Y-65185586D01*
X106895743Y-65373208D01*
X106548029Y-65720315D01*
X106476927Y-65891547D01*
X106447562Y-65735483D01*
X106308490Y-65519359D01*
X106096290Y-65374369D01*
X105844400Y-65323360D01*
X104444400Y-65323360D01*
X104209083Y-65367638D01*
X103992959Y-65506710D01*
X103847969Y-65718910D01*
X103796960Y-65970800D01*
X103796960Y-66241848D01*
X103638956Y-66083844D01*
X103379385Y-65910404D01*
X103073200Y-65849500D01*
X102881658Y-65887600D01*
X101286992Y-65887600D01*
X101165090Y-65698159D01*
X100952890Y-65553169D01*
X100701000Y-65502160D01*
X99451000Y-65502160D01*
X99215683Y-65546438D01*
X98999559Y-65685510D01*
X98854569Y-65897710D01*
X98803560Y-66149600D01*
X98803560Y-67149600D01*
X98847838Y-67384917D01*
X98986910Y-67601041D01*
X99055006Y-67647569D01*
X98912673Y-67789902D01*
X98816000Y-68023291D01*
X98816000Y-68363850D01*
X98974750Y-68522600D01*
X99949000Y-68522600D01*
X99949000Y-68502600D01*
X100203000Y-68502600D01*
X100203000Y-68522600D01*
X100223000Y-68522600D01*
X100223000Y-68776600D01*
X100203000Y-68776600D01*
X100203000Y-68796600D01*
X99949000Y-68796600D01*
X99949000Y-68776600D01*
X98974750Y-68776600D01*
X98816000Y-68935350D01*
X98816000Y-69275909D01*
X98830950Y-69312001D01*
X97700666Y-69312001D01*
X97677545Y-69316600D01*
X96738000Y-69316600D01*
X96738000Y-69297890D01*
X96729532Y-69277447D01*
X96750440Y-69174200D01*
X96750440Y-68924200D01*
X96706477Y-68690556D01*
X96731691Y-68701000D01*
X96972250Y-68701000D01*
X97131000Y-68542250D01*
X97131000Y-67818000D01*
X97385000Y-67818000D01*
X97385000Y-68542250D01*
X97543750Y-68701000D01*
X97784309Y-68701000D01*
X98017698Y-68604327D01*
X98196327Y-68425699D01*
X98293000Y-68192310D01*
X98293000Y-67976750D01*
X98134250Y-67818000D01*
X97385000Y-67818000D01*
X97131000Y-67818000D01*
X97111000Y-67818000D01*
X97111000Y-67564000D01*
X97131000Y-67564000D01*
X97131000Y-66839750D01*
X97385000Y-66839750D01*
X97385000Y-67564000D01*
X98134250Y-67564000D01*
X98293000Y-67405250D01*
X98293000Y-67189690D01*
X98196327Y-66956301D01*
X98017698Y-66777673D01*
X97784309Y-66681000D01*
X97543750Y-66681000D01*
X97385000Y-66839750D01*
X97131000Y-66839750D01*
X96972250Y-66681000D01*
X96731691Y-66681000D01*
X96498302Y-66777673D01*
X96496932Y-66779043D01*
X96409890Y-66719569D01*
X96158000Y-66668560D01*
X95851470Y-66668560D01*
X102491895Y-60028135D01*
X102870000Y-60103345D01*
X103443489Y-59989271D01*
X103929670Y-59664415D01*
X104136461Y-59354931D01*
X104507964Y-59770732D01*
X105035209Y-60024709D01*
X105050974Y-60027358D01*
X105283000Y-59906217D01*
X105283000Y-58547000D01*
X105263000Y-58547000D01*
X105263000Y-58293000D01*
X105283000Y-58293000D01*
X105283000Y-58273000D01*
X105537000Y-58273000D01*
X105537000Y-58293000D01*
G36*
X102285800Y-67943600D02*
X102305800Y-67943600D01*
X102305800Y-68197600D01*
X102285800Y-68197600D01*
X102285800Y-68217600D01*
X102031800Y-68217600D01*
X102031800Y-68197600D01*
X102011800Y-68197600D01*
X102011800Y-67943600D01*
X102031800Y-67943600D01*
X102031800Y-67923600D01*
X102285800Y-67923600D01*
X102285800Y-67943600D01*
X102285800Y-67943600D01*
G37*
X102285800Y-67943600D02*
X102305800Y-67943600D01*
X102305800Y-68197600D01*
X102285800Y-68197600D01*
X102285800Y-68217600D01*
X102031800Y-68217600D01*
X102031800Y-68197600D01*
X102011800Y-68197600D01*
X102011800Y-67943600D01*
X102031800Y-67943600D01*
X102031800Y-67923600D01*
X102285800Y-67923600D01*
X102285800Y-67943600D01*
G36*
X91924000Y-65278000D02*
X91944000Y-65278000D01*
X91944000Y-65500543D01*
X91892543Y-65552000D01*
X91821000Y-65552000D01*
X91821000Y-65258000D01*
X91924000Y-65258000D01*
X91924000Y-65278000D01*
X91924000Y-65278000D01*
G37*
X91924000Y-65278000D02*
X91944000Y-65278000D01*
X91944000Y-65500543D01*
X91892543Y-65552000D01*
X91821000Y-65552000D01*
X91821000Y-65258000D01*
X91924000Y-65258000D01*
X91924000Y-65278000D01*
G36*
X94190330Y-59664415D02*
X94488000Y-59863312D01*
X94488000Y-62956542D01*
X92746725Y-64697818D01*
X92735327Y-64670301D01*
X92556698Y-64491673D01*
X92323309Y-64395000D01*
X92082750Y-64395000D01*
X91924002Y-64553748D01*
X91924002Y-64395000D01*
X91821000Y-64395000D01*
X91821000Y-63946250D01*
X91924000Y-63843250D01*
X91924000Y-63119000D01*
X92178000Y-63119000D01*
X92178000Y-63843250D01*
X92336750Y-64002000D01*
X92577309Y-64002000D01*
X92810698Y-63905327D01*
X92989327Y-63726699D01*
X93086000Y-63493310D01*
X93086000Y-63277750D01*
X92927250Y-63119000D01*
X92178000Y-63119000D01*
X91924000Y-63119000D01*
X91904000Y-63119000D01*
X91904000Y-62865000D01*
X91924000Y-62865000D01*
X91924000Y-62140750D01*
X92178000Y-62140750D01*
X92178000Y-62865000D01*
X92927250Y-62865000D01*
X93086000Y-62706250D01*
X93086000Y-62490690D01*
X92989327Y-62257301D01*
X92810698Y-62078673D01*
X92577309Y-61982000D01*
X92336750Y-61982000D01*
X92178000Y-62140750D01*
X91924000Y-62140750D01*
X91765250Y-61982000D01*
X91635000Y-61982000D01*
X91635000Y-60826630D01*
X92416638Y-60044992D01*
X92710000Y-60103345D01*
X93283489Y-59989271D01*
X93769670Y-59664415D01*
X93980000Y-59349634D01*
X94190330Y-59664415D01*
X94190330Y-59664415D01*
G37*
X94190330Y-59664415D02*
X94488000Y-59863312D01*
X94488000Y-62956542D01*
X92746725Y-64697818D01*
X92735327Y-64670301D01*
X92556698Y-64491673D01*
X92323309Y-64395000D01*
X92082750Y-64395000D01*
X91924002Y-64553748D01*
X91924002Y-64395000D01*
X91821000Y-64395000D01*
X91821000Y-63946250D01*
X91924000Y-63843250D01*
X91924000Y-63119000D01*
X92178000Y-63119000D01*
X92178000Y-63843250D01*
X92336750Y-64002000D01*
X92577309Y-64002000D01*
X92810698Y-63905327D01*
X92989327Y-63726699D01*
X93086000Y-63493310D01*
X93086000Y-63277750D01*
X92927250Y-63119000D01*
X92178000Y-63119000D01*
X91924000Y-63119000D01*
X91904000Y-63119000D01*
X91904000Y-62865000D01*
X91924000Y-62865000D01*
X91924000Y-62140750D01*
X92178000Y-62140750D01*
X92178000Y-62865000D01*
X92927250Y-62865000D01*
X93086000Y-62706250D01*
X93086000Y-62490690D01*
X92989327Y-62257301D01*
X92810698Y-62078673D01*
X92577309Y-61982000D01*
X92336750Y-61982000D01*
X92178000Y-62140750D01*
X91924000Y-62140750D01*
X91765250Y-61982000D01*
X91635000Y-61982000D01*
X91635000Y-60826630D01*
X92416638Y-60044992D01*
X92710000Y-60103345D01*
X93283489Y-59989271D01*
X93769670Y-59664415D01*
X93980000Y-59349634D01*
X94190330Y-59664415D01*
G36*
X74771000Y-72263000D02*
X74791000Y-72263000D01*
X74791000Y-72517000D01*
X74771000Y-72517000D01*
X74771000Y-73491250D01*
X74929750Y-73650000D01*
X75270309Y-73650000D01*
X75503698Y-73553327D01*
X75644773Y-73412253D01*
X75661185Y-73436815D01*
X76588286Y-74363917D01*
X76712387Y-74446838D01*
X76807339Y-74510283D01*
X76894493Y-74721212D01*
X77169341Y-74996540D01*
X77314945Y-75057000D01*
X75971092Y-75057000D01*
X75583134Y-74669042D01*
X75323563Y-74495602D01*
X75017378Y-74434698D01*
X73787000Y-74434698D01*
X73787000Y-73554445D01*
X74017691Y-73650000D01*
X74358250Y-73650000D01*
X74517000Y-73491250D01*
X74517000Y-72517000D01*
X74497000Y-72517000D01*
X74497000Y-72263000D01*
X74517000Y-72263000D01*
X74517000Y-72243000D01*
X74771000Y-72243000D01*
X74771000Y-72263000D01*
X74771000Y-72263000D01*
G37*
X74771000Y-72263000D02*
X74791000Y-72263000D01*
X74791000Y-72517000D01*
X74771000Y-72517000D01*
X74771000Y-73491250D01*
X74929750Y-73650000D01*
X75270309Y-73650000D01*
X75503698Y-73553327D01*
X75644773Y-73412253D01*
X75661185Y-73436815D01*
X76588286Y-74363917D01*
X76712387Y-74446838D01*
X76807339Y-74510283D01*
X76894493Y-74721212D01*
X77169341Y-74996540D01*
X77314945Y-75057000D01*
X75971092Y-75057000D01*
X75583134Y-74669042D01*
X75323563Y-74495602D01*
X75017378Y-74434698D01*
X73787000Y-74434698D01*
X73787000Y-73554445D01*
X74017691Y-73650000D01*
X74358250Y-73650000D01*
X74517000Y-73491250D01*
X74517000Y-72517000D01*
X74497000Y-72517000D01*
X74497000Y-72263000D01*
X74517000Y-72263000D01*
X74517000Y-72243000D01*
X74771000Y-72243000D01*
X74771000Y-72263000D01*
G36*
X81280000Y-70370000D02*
X81300000Y-70370000D01*
X81300000Y-70624000D01*
X81280000Y-70624000D01*
X81280000Y-70644000D01*
X81026000Y-70644000D01*
X81026000Y-70624000D01*
X80301750Y-70624000D01*
X80143000Y-70782750D01*
X80143000Y-71023309D01*
X80239673Y-71256698D01*
X80241043Y-71258068D01*
X80181569Y-71345110D01*
X80130560Y-71597000D01*
X80130560Y-72397000D01*
X80174838Y-72632317D01*
X80313910Y-72848441D01*
X80526110Y-72993431D01*
X80778000Y-73044440D01*
X81528000Y-73044440D01*
X81763317Y-73000162D01*
X81774447Y-72993000D01*
X82101008Y-72993000D01*
X82222910Y-73182441D01*
X82340949Y-73263093D01*
X82235559Y-73330910D01*
X82090569Y-73543110D01*
X82039560Y-73795000D01*
X82039560Y-74795000D01*
X82083838Y-75030317D01*
X82101008Y-75057000D01*
X78133227Y-75057000D01*
X78277212Y-74997507D01*
X78552540Y-74722659D01*
X78701730Y-74363370D01*
X78702069Y-73974337D01*
X78572052Y-73659670D01*
X78701730Y-73347370D01*
X78702069Y-72958337D01*
X78661368Y-72859832D01*
X78933663Y-72860069D01*
X79293212Y-72711507D01*
X79568540Y-72436659D01*
X79717730Y-72077370D01*
X79718069Y-71688337D01*
X79569507Y-71328788D01*
X79502000Y-71261163D01*
X79502000Y-70549385D01*
X79560630Y-70573730D01*
X79949663Y-70574069D01*
X80309212Y-70425507D01*
X80364816Y-70370000D01*
X81026000Y-70370000D01*
X81026000Y-70350000D01*
X81280000Y-70350000D01*
X81280000Y-70370000D01*
X81280000Y-70370000D01*
G37*
X81280000Y-70370000D02*
X81300000Y-70370000D01*
X81300000Y-70624000D01*
X81280000Y-70624000D01*
X81280000Y-70644000D01*
X81026000Y-70644000D01*
X81026000Y-70624000D01*
X80301750Y-70624000D01*
X80143000Y-70782750D01*
X80143000Y-71023309D01*
X80239673Y-71256698D01*
X80241043Y-71258068D01*
X80181569Y-71345110D01*
X80130560Y-71597000D01*
X80130560Y-72397000D01*
X80174838Y-72632317D01*
X80313910Y-72848441D01*
X80526110Y-72993431D01*
X80778000Y-73044440D01*
X81528000Y-73044440D01*
X81763317Y-73000162D01*
X81774447Y-72993000D01*
X82101008Y-72993000D01*
X82222910Y-73182441D01*
X82340949Y-73263093D01*
X82235559Y-73330910D01*
X82090569Y-73543110D01*
X82039560Y-73795000D01*
X82039560Y-74795000D01*
X82083838Y-75030317D01*
X82101008Y-75057000D01*
X78133227Y-75057000D01*
X78277212Y-74997507D01*
X78552540Y-74722659D01*
X78701730Y-74363370D01*
X78702069Y-73974337D01*
X78572052Y-73659670D01*
X78701730Y-73347370D01*
X78702069Y-72958337D01*
X78661368Y-72859832D01*
X78933663Y-72860069D01*
X79293212Y-72711507D01*
X79568540Y-72436659D01*
X79717730Y-72077370D01*
X79718069Y-71688337D01*
X79569507Y-71328788D01*
X79502000Y-71261163D01*
X79502000Y-70549385D01*
X79560630Y-70573730D01*
X79949663Y-70574069D01*
X80309212Y-70425507D01*
X80364816Y-70370000D01*
X81026000Y-70370000D01*
X81026000Y-70350000D01*
X81280000Y-70350000D01*
X81280000Y-70370000D01*
G36*
X63271400Y-58134250D02*
X63430150Y-58293000D01*
X64643000Y-58293000D01*
X64643000Y-58273000D01*
X64897000Y-58273000D01*
X64897000Y-58293000D01*
X64917000Y-58293000D01*
X64917000Y-58547000D01*
X64897000Y-58547000D01*
X64897000Y-59912250D01*
X65055750Y-60071000D01*
X65759910Y-60071000D01*
X65993299Y-59974327D01*
X66171927Y-59795698D01*
X66235500Y-59642220D01*
X66250330Y-59664415D01*
X66548000Y-59863312D01*
X66548000Y-61976000D01*
X66606004Y-62267605D01*
X66725468Y-62446395D01*
X66771185Y-62514815D01*
X73953678Y-69697308D01*
X73847460Y-69803341D01*
X73698270Y-70162630D01*
X73697931Y-70551663D01*
X73846493Y-70911212D01*
X74064900Y-71130000D01*
X74017691Y-71130000D01*
X73787000Y-71225555D01*
X73787000Y-71120000D01*
X73776994Y-71070590D01*
X73748553Y-71028965D01*
X73706159Y-71001685D01*
X73661460Y-70993008D01*
X64592461Y-70888766D01*
X64731730Y-70553370D01*
X64732069Y-70164337D01*
X64583507Y-69804788D01*
X64308659Y-69529460D01*
X63949370Y-69380270D01*
X63560337Y-69379931D01*
X63200788Y-69528493D01*
X63068200Y-69660850D01*
X63068200Y-58705750D01*
X63271400Y-58705750D01*
X63271400Y-59562309D01*
X63368073Y-59795698D01*
X63546701Y-59974327D01*
X63780090Y-60071000D01*
X64484250Y-60071000D01*
X64643000Y-59912250D01*
X64643000Y-58547000D01*
X63430150Y-58547000D01*
X63271400Y-58705750D01*
X63068200Y-58705750D01*
X63068200Y-58490049D01*
X63171945Y-57968484D01*
X63271400Y-57819641D01*
X63271400Y-58134250D01*
X63271400Y-58134250D01*
G37*
X63271400Y-58134250D02*
X63430150Y-58293000D01*
X64643000Y-58293000D01*
X64643000Y-58273000D01*
X64897000Y-58273000D01*
X64897000Y-58293000D01*
X64917000Y-58293000D01*
X64917000Y-58547000D01*
X64897000Y-58547000D01*
X64897000Y-59912250D01*
X65055750Y-60071000D01*
X65759910Y-60071000D01*
X65993299Y-59974327D01*
X66171927Y-59795698D01*
X66235500Y-59642220D01*
X66250330Y-59664415D01*
X66548000Y-59863312D01*
X66548000Y-61976000D01*
X66606004Y-62267605D01*
X66725468Y-62446395D01*
X66771185Y-62514815D01*
X73953678Y-69697308D01*
X73847460Y-69803341D01*
X73698270Y-70162630D01*
X73697931Y-70551663D01*
X73846493Y-70911212D01*
X74064900Y-71130000D01*
X74017691Y-71130000D01*
X73787000Y-71225555D01*
X73787000Y-71120000D01*
X73776994Y-71070590D01*
X73748553Y-71028965D01*
X73706159Y-71001685D01*
X73661460Y-70993008D01*
X64592461Y-70888766D01*
X64731730Y-70553370D01*
X64732069Y-70164337D01*
X64583507Y-69804788D01*
X64308659Y-69529460D01*
X63949370Y-69380270D01*
X63560337Y-69379931D01*
X63200788Y-69528493D01*
X63068200Y-69660850D01*
X63068200Y-58705750D01*
X63271400Y-58705750D01*
X63271400Y-59562309D01*
X63368073Y-59795698D01*
X63546701Y-59974327D01*
X63780090Y-60071000D01*
X64484250Y-60071000D01*
X64643000Y-59912250D01*
X64643000Y-58547000D01*
X63430150Y-58547000D01*
X63271400Y-58705750D01*
X63068200Y-58705750D01*
X63068200Y-58490049D01*
X63171945Y-57968484D01*
X63271400Y-57819641D01*
X63271400Y-58134250D01*
G36*
X83439000Y-70104000D02*
X83459000Y-70104000D01*
X83459000Y-70358000D01*
X83439000Y-70358000D01*
X83439000Y-70378000D01*
X83185000Y-70378000D01*
X83185000Y-70358000D01*
X83165000Y-70358000D01*
X83165000Y-70104000D01*
X83185000Y-70104000D01*
X83185000Y-70084000D01*
X83439000Y-70084000D01*
X83439000Y-70104000D01*
X83439000Y-70104000D01*
G37*
X83439000Y-70104000D02*
X83459000Y-70104000D01*
X83459000Y-70358000D01*
X83439000Y-70358000D01*
X83439000Y-70378000D01*
X83185000Y-70378000D01*
X83185000Y-70358000D01*
X83165000Y-70358000D01*
X83165000Y-70104000D01*
X83185000Y-70104000D01*
X83185000Y-70084000D01*
X83439000Y-70084000D01*
X83439000Y-70104000D01*
D34*
X74676000Y-70358000D03*
X63754000Y-70358000D03*
X91694000Y-71628000D03*
X93345000Y-73025000D03*
X93853000Y-63119000D03*
X71120000Y-72390000D03*
X91948000Y-87884000D03*
X88900000Y-89408000D03*
X73660000Y-83566000D03*
X75946000Y-82550000D03*
X106334594Y-83474594D03*
X95504000Y-76200000D03*
X101322966Y-72618623D03*
X93345000Y-70175583D03*
X97282000Y-66294000D03*
X92202000Y-64262000D03*
X97282000Y-68961000D03*
X91409124Y-68832868D03*
X106172000Y-79502000D03*
X101278600Y-68326000D03*
X87972890Y-74950642D03*
X85317001Y-75168999D03*
X84312368Y-70223039D03*
X74676000Y-74168000D03*
X81788000Y-70231000D03*
X74676000Y-75946000D03*
X92297539Y-68865461D03*
X89326609Y-73179130D03*
X90170000Y-72898000D03*
X77724000Y-74168000D03*
X84836000Y-74168000D03*
X87807798Y-73540775D03*
X77724000Y-73152000D03*
X77724000Y-72136000D03*
X85090000Y-72644000D03*
X88646000Y-64516000D03*
X88392000Y-68834000D03*
X85325745Y-83043647D03*
X91037322Y-74634755D03*
X86024609Y-83593130D03*
X92202000Y-73660000D03*
X86868000Y-83312000D03*
X92964000Y-74168000D03*
X87711391Y-83593130D03*
X93472000Y-74930000D03*
X96546585Y-75695909D03*
X97435239Y-75670678D03*
X98317129Y-75782986D03*
X99144955Y-75458877D03*
X99411341Y-74591999D03*
X100348411Y-74630333D03*
X100272181Y-73515953D03*
X101830682Y-74122532D03*
X88206970Y-72350654D03*
X78740000Y-71882000D03*
X79756000Y-69596000D03*
X88138000Y-71374000D03*
D35*
X107594400Y-73520800D03*
X107594400Y-66420800D03*
X64770000Y-58420000D03*
X67310000Y-58420000D03*
X69850000Y-58420000D03*
X72390000Y-58420000D03*
X74930000Y-58420000D03*
X77470000Y-58420000D03*
X80010000Y-58420000D03*
X82550000Y-58420000D03*
X85090000Y-58420000D03*
X87630000Y-58420000D03*
X90170000Y-58420000D03*
X92710000Y-58420000D03*
X95250000Y-58420000D03*
X97790000Y-58420000D03*
X100330000Y-58420000D03*
X102870000Y-58420000D03*
X105410000Y-58420000D03*
X107950000Y-58420000D03*
X64770000Y-91440000D03*
X67310000Y-91440000D03*
X69850000Y-91440000D03*
X72390000Y-91440000D03*
X74930000Y-91440000D03*
X77470000Y-91440000D03*
X80010000Y-91440000D03*
X82550000Y-91440000D03*
X85090000Y-91440000D03*
X87630000Y-91440000D03*
X90170000Y-91440000D03*
X92710000Y-91440000D03*
X95250000Y-91440000D03*
X97790000Y-91440000D03*
X100330000Y-91440000D03*
X102870000Y-91440000D03*
X105410000Y-91440000D03*
X107950000Y-91440000D03*
X65024000Y-74422000D03*
X65024000Y-76962000D03*
X65024000Y-79502000D03*
X65024000Y-82042000D03*
X65024000Y-84582000D03*
M02*
