%TF.GenerationSoftware,KiCad,Pcbnew,4.0.5-e0-6337~49~ubuntu16.04.1*%
%TF.CreationDate,2017-08-14T14:58:42-07:00*%
%TF.ProjectId,atsamd21g18-breakout,617473616D6432316731382D62726561,1.0*%
%TF.FileFunction,Legend,Bot*%
%FSLAX46Y46*%
G04 Gerber Fmt 4.6, Leading zero omitted, Abs format (unit mm)*
G04 Created by KiCad (PCBNEW 4.0.5-e0-6337~49~ubuntu16.04.1) date Mon Aug 14 14:58:42 2017*
%MOMM*%
%LPD*%
G01*
G04 APERTURE LIST*
%ADD10C,0.350000*%
%ADD11C,1.352400*%
%ADD12R,1.879600X2.184400*%
%ADD13O,1.879600X2.184400*%
%ADD14R,2.184400X1.879600*%
%ADD15O,2.184400X1.879600*%
G04 APERTURE END LIST*
D10*
%LPC*%
D11*
X64897000Y-44717200D03*
X64897000Y-37617200D03*
D12*
X22072600Y-29616400D03*
D13*
X24612600Y-29616400D03*
X27152600Y-29616400D03*
X29692600Y-29616400D03*
X32232600Y-29616400D03*
X34772600Y-29616400D03*
X37312600Y-29616400D03*
X39852600Y-29616400D03*
X42392600Y-29616400D03*
X44932600Y-29616400D03*
X47472600Y-29616400D03*
X50012600Y-29616400D03*
X52552600Y-29616400D03*
X55092600Y-29616400D03*
X57632600Y-29616400D03*
X60172600Y-29616400D03*
X62712600Y-29616400D03*
X65252600Y-29616400D03*
D12*
X22072600Y-62636400D03*
D13*
X24612600Y-62636400D03*
X27152600Y-62636400D03*
X29692600Y-62636400D03*
X32232600Y-62636400D03*
X34772600Y-62636400D03*
X37312600Y-62636400D03*
X39852600Y-62636400D03*
X42392600Y-62636400D03*
X44932600Y-62636400D03*
X47472600Y-62636400D03*
X50012600Y-62636400D03*
X52552600Y-62636400D03*
X55092600Y-62636400D03*
X57632600Y-62636400D03*
X60172600Y-62636400D03*
X62712600Y-62636400D03*
X65252600Y-62636400D03*
D14*
X22326600Y-45618400D03*
D15*
X22326600Y-48158400D03*
X22326600Y-50698400D03*
X22326600Y-53238400D03*
X22326600Y-55778400D03*
M02*
