%TF.GenerationSoftware,KiCad,Pcbnew,4.0.5-e0-6337~49~ubuntu16.04.1*%
%TF.CreationDate,2017-08-05T13:29:44-07:00*%
%TF.ProjectId,atsamd21g18-breakout,617473616D6432316731382D62726561,1.0*%
%TF.FileFunction,Legend,Top*%
%FSLAX46Y46*%
G04 Gerber Fmt 4.6, Leading zero omitted, Abs format (unit mm)*
G04 Created by KiCad (PCBNEW 4.0.5-e0-6337~49~ubuntu16.04.1) date Sat Aug  5 13:29:44 2017*
%MOMM*%
%LPD*%
G01*
G04 APERTURE LIST*
%ADD10C,0.350000*%
%ADD11C,0.152400*%
%ADD12C,0.150000*%
%ADD13C,0.200000*%
%ADD14R,1.502400X0.552400*%
%ADD15R,1.552400X1.752400*%
%ADD16C,1.352400*%
%ADD17R,2.052400X2.052400*%
%ADD18R,0.952400X0.902400*%
%ADD19R,0.902400X0.952400*%
%ADD20R,1.402400X1.152400*%
%ADD21R,2.651760X1.953260*%
%ADD22R,1.152400X1.402400*%
%ADD23R,1.852400X0.952400*%
%ADD24R,1.452400X0.402400*%
%ADD25R,0.402400X1.452400*%
%ADD26R,2.057400X1.549400*%
%ADD27R,1.152400X0.752400*%
%ADD28R,1.879600X2.184400*%
%ADD29O,1.879600X2.184400*%
%ADD30R,2.184400X1.879600*%
%ADD31O,2.184400X1.879600*%
G04 APERTURE END LIST*
D10*
D11*
X67273714Y-84328000D02*
X67176952Y-84279619D01*
X67031809Y-84279619D01*
X66886667Y-84328000D01*
X66789905Y-84424762D01*
X66741524Y-84521524D01*
X66693143Y-84715048D01*
X66693143Y-84860190D01*
X66741524Y-85053714D01*
X66789905Y-85150476D01*
X66886667Y-85247238D01*
X67031809Y-85295619D01*
X67128571Y-85295619D01*
X67273714Y-85247238D01*
X67322095Y-85198857D01*
X67322095Y-84860190D01*
X67128571Y-84860190D01*
X67757524Y-85295619D02*
X67757524Y-84279619D01*
X68338095Y-85295619D01*
X68338095Y-84279619D01*
X68821905Y-85295619D02*
X68821905Y-84279619D01*
X69063810Y-84279619D01*
X69208952Y-84328000D01*
X69305714Y-84424762D01*
X69354095Y-84521524D01*
X69402476Y-84715048D01*
X69402476Y-84860190D01*
X69354095Y-85053714D01*
X69305714Y-85150476D01*
X69208952Y-85247238D01*
X69063810Y-85295619D01*
X68821905Y-85295619D01*
X67322095Y-82501619D02*
X66983429Y-82017810D01*
X66741524Y-82501619D02*
X66741524Y-81485619D01*
X67128571Y-81485619D01*
X67225333Y-81534000D01*
X67273714Y-81582381D01*
X67322095Y-81679143D01*
X67322095Y-81824286D01*
X67273714Y-81921048D01*
X67225333Y-81969429D01*
X67128571Y-82017810D01*
X66741524Y-82017810D01*
X67709143Y-82453238D02*
X67854286Y-82501619D01*
X68096190Y-82501619D01*
X68192952Y-82453238D01*
X68241333Y-82404857D01*
X68289714Y-82308095D01*
X68289714Y-82211333D01*
X68241333Y-82114571D01*
X68192952Y-82066190D01*
X68096190Y-82017810D01*
X67902667Y-81969429D01*
X67805905Y-81921048D01*
X67757524Y-81872667D01*
X67709143Y-81775905D01*
X67709143Y-81679143D01*
X67757524Y-81582381D01*
X67805905Y-81534000D01*
X67902667Y-81485619D01*
X68144571Y-81485619D01*
X68289714Y-81534000D01*
X68580000Y-81485619D02*
X69160571Y-81485619D01*
X68870286Y-82501619D02*
X68870286Y-81485619D01*
X66499619Y-81310480D02*
X69257333Y-81310480D01*
X66693143Y-79913238D02*
X66838286Y-79961619D01*
X67080190Y-79961619D01*
X67176952Y-79913238D01*
X67225333Y-79864857D01*
X67273714Y-79768095D01*
X67273714Y-79671333D01*
X67225333Y-79574571D01*
X67176952Y-79526190D01*
X67080190Y-79477810D01*
X66886667Y-79429429D01*
X66789905Y-79381048D01*
X66741524Y-79332667D01*
X66693143Y-79235905D01*
X66693143Y-79139143D01*
X66741524Y-79042381D01*
X66789905Y-78994000D01*
X66886667Y-78945619D01*
X67128571Y-78945619D01*
X67273714Y-78994000D01*
X67612381Y-78945619D02*
X67854286Y-79961619D01*
X68047809Y-79235905D01*
X68241333Y-79961619D01*
X68483238Y-78945619D01*
X69450857Y-79864857D02*
X69402476Y-79913238D01*
X69257333Y-79961619D01*
X69160571Y-79961619D01*
X69015429Y-79913238D01*
X68918667Y-79816476D01*
X68870286Y-79719714D01*
X68821905Y-79526190D01*
X68821905Y-79381048D01*
X68870286Y-79187524D01*
X68918667Y-79090762D01*
X69015429Y-78994000D01*
X69160571Y-78945619D01*
X69257333Y-78945619D01*
X69402476Y-78994000D01*
X69450857Y-79042381D01*
X66693143Y-77373238D02*
X66838286Y-77421619D01*
X67080190Y-77421619D01*
X67176952Y-77373238D01*
X67225333Y-77324857D01*
X67273714Y-77228095D01*
X67273714Y-77131333D01*
X67225333Y-77034571D01*
X67176952Y-76986190D01*
X67080190Y-76937810D01*
X66886667Y-76889429D01*
X66789905Y-76841048D01*
X66741524Y-76792667D01*
X66693143Y-76695905D01*
X66693143Y-76599143D01*
X66741524Y-76502381D01*
X66789905Y-76454000D01*
X66886667Y-76405619D01*
X67128571Y-76405619D01*
X67273714Y-76454000D01*
X67612381Y-76405619D02*
X67854286Y-77421619D01*
X68047809Y-76695905D01*
X68241333Y-77421619D01*
X68483238Y-76405619D01*
X68870286Y-77421619D02*
X68870286Y-76405619D01*
X69112191Y-76405619D01*
X69257333Y-76454000D01*
X69354095Y-76550762D01*
X69402476Y-76647524D01*
X69450857Y-76841048D01*
X69450857Y-76986190D01*
X69402476Y-77179714D01*
X69354095Y-77276476D01*
X69257333Y-77373238D01*
X69112191Y-77421619D01*
X68870286Y-77421619D01*
X66814096Y-73865619D02*
X67443048Y-73865619D01*
X67104382Y-74252667D01*
X67249524Y-74252667D01*
X67346286Y-74301048D01*
X67394667Y-74349429D01*
X67443048Y-74446190D01*
X67443048Y-74688095D01*
X67394667Y-74784857D01*
X67346286Y-74833238D01*
X67249524Y-74881619D01*
X66959239Y-74881619D01*
X66862477Y-74833238D01*
X66814096Y-74784857D01*
X67733334Y-73865619D02*
X68072001Y-74881619D01*
X68410667Y-73865619D01*
X68652572Y-73865619D02*
X69281524Y-73865619D01*
X68942858Y-74252667D01*
X69088000Y-74252667D01*
X69184762Y-74301048D01*
X69233143Y-74349429D01*
X69281524Y-74446190D01*
X69281524Y-74688095D01*
X69233143Y-74784857D01*
X69184762Y-74833238D01*
X69088000Y-74881619D01*
X68797715Y-74881619D01*
X68700953Y-74833238D01*
X68652572Y-74784857D01*
X108119333Y-89474523D02*
X108119333Y-88990714D01*
X108409619Y-89571285D02*
X107393619Y-89232618D01*
X108409619Y-88893952D01*
X107490381Y-88603666D02*
X107442000Y-88555285D01*
X107393619Y-88458523D01*
X107393619Y-88216619D01*
X107442000Y-88119857D01*
X107490381Y-88071476D01*
X107587143Y-88023095D01*
X107683905Y-88023095D01*
X107829048Y-88071476D01*
X108409619Y-88652047D01*
X108409619Y-88023095D01*
X107393619Y-87684428D02*
X107393619Y-87055476D01*
X107780667Y-87394142D01*
X107780667Y-87249000D01*
X107829048Y-87152238D01*
X107877429Y-87103857D01*
X107974190Y-87055476D01*
X108216095Y-87055476D01*
X108312857Y-87103857D01*
X108361238Y-87152238D01*
X108409619Y-87249000D01*
X108409619Y-87539285D01*
X108361238Y-87636047D01*
X108312857Y-87684428D01*
X105579333Y-89474523D02*
X105579333Y-88990714D01*
X105869619Y-89571285D02*
X104853619Y-89232618D01*
X105869619Y-88893952D01*
X104950381Y-88603666D02*
X104902000Y-88555285D01*
X104853619Y-88458523D01*
X104853619Y-88216619D01*
X104902000Y-88119857D01*
X104950381Y-88071476D01*
X105047143Y-88023095D01*
X105143905Y-88023095D01*
X105289048Y-88071476D01*
X105869619Y-88652047D01*
X105869619Y-88023095D01*
X104950381Y-87636047D02*
X104902000Y-87587666D01*
X104853619Y-87490904D01*
X104853619Y-87249000D01*
X104902000Y-87152238D01*
X104950381Y-87103857D01*
X105047143Y-87055476D01*
X105143905Y-87055476D01*
X105289048Y-87103857D01*
X105869619Y-87684428D01*
X105869619Y-87055476D01*
X103039333Y-89474523D02*
X103039333Y-88990714D01*
X103329619Y-89571285D02*
X102313619Y-89232618D01*
X103329619Y-88893952D01*
X102410381Y-88603666D02*
X102362000Y-88555285D01*
X102313619Y-88458523D01*
X102313619Y-88216619D01*
X102362000Y-88119857D01*
X102410381Y-88071476D01*
X102507143Y-88023095D01*
X102603905Y-88023095D01*
X102749048Y-88071476D01*
X103329619Y-88652047D01*
X103329619Y-88023095D01*
X103329619Y-87055476D02*
X103329619Y-87636047D01*
X103329619Y-87345761D02*
X102313619Y-87345761D01*
X102458762Y-87442523D01*
X102555524Y-87539285D01*
X102603905Y-87636047D01*
X100499333Y-89474523D02*
X100499333Y-88990714D01*
X100789619Y-89571285D02*
X99773619Y-89232618D01*
X100789619Y-88893952D01*
X99870381Y-88603666D02*
X99822000Y-88555285D01*
X99773619Y-88458523D01*
X99773619Y-88216619D01*
X99822000Y-88119857D01*
X99870381Y-88071476D01*
X99967143Y-88023095D01*
X100063905Y-88023095D01*
X100209048Y-88071476D01*
X100789619Y-88652047D01*
X100789619Y-88023095D01*
X99773619Y-87394142D02*
X99773619Y-87297381D01*
X99822000Y-87200619D01*
X99870381Y-87152238D01*
X99967143Y-87103857D01*
X100160667Y-87055476D01*
X100402571Y-87055476D01*
X100596095Y-87103857D01*
X100692857Y-87152238D01*
X100741238Y-87200619D01*
X100789619Y-87297381D01*
X100789619Y-87394142D01*
X100741238Y-87490904D01*
X100692857Y-87539285D01*
X100596095Y-87587666D01*
X100402571Y-87636047D01*
X100160667Y-87636047D01*
X99967143Y-87587666D01*
X99870381Y-87539285D01*
X99822000Y-87490904D01*
X99773619Y-87394142D01*
X97959333Y-89474523D02*
X97959333Y-88990714D01*
X98249619Y-89571285D02*
X97233619Y-89232618D01*
X98249619Y-88893952D01*
X98249619Y-88023095D02*
X98249619Y-88603666D01*
X98249619Y-88313380D02*
X97233619Y-88313380D01*
X97378762Y-88410142D01*
X97475524Y-88506904D01*
X97523905Y-88603666D01*
X98249619Y-87539285D02*
X98249619Y-87345761D01*
X98201238Y-87249000D01*
X98152857Y-87200619D01*
X98007714Y-87103857D01*
X97814190Y-87055476D01*
X97427143Y-87055476D01*
X97330381Y-87103857D01*
X97282000Y-87152238D01*
X97233619Y-87249000D01*
X97233619Y-87442523D01*
X97282000Y-87539285D01*
X97330381Y-87587666D01*
X97427143Y-87636047D01*
X97669048Y-87636047D01*
X97765810Y-87587666D01*
X97814190Y-87539285D01*
X97862571Y-87442523D01*
X97862571Y-87249000D01*
X97814190Y-87152238D01*
X97765810Y-87103857D01*
X97669048Y-87055476D01*
X95419333Y-89474523D02*
X95419333Y-88990714D01*
X95709619Y-89571285D02*
X94693619Y-89232618D01*
X95709619Y-88893952D01*
X95709619Y-88023095D02*
X95709619Y-88603666D01*
X95709619Y-88313380D02*
X94693619Y-88313380D01*
X94838762Y-88410142D01*
X94935524Y-88506904D01*
X94983905Y-88603666D01*
X95129048Y-87442523D02*
X95080667Y-87539285D01*
X95032286Y-87587666D01*
X94935524Y-87636047D01*
X94887143Y-87636047D01*
X94790381Y-87587666D01*
X94742000Y-87539285D01*
X94693619Y-87442523D01*
X94693619Y-87249000D01*
X94742000Y-87152238D01*
X94790381Y-87103857D01*
X94887143Y-87055476D01*
X94935524Y-87055476D01*
X95032286Y-87103857D01*
X95080667Y-87152238D01*
X95129048Y-87249000D01*
X95129048Y-87442523D01*
X95177429Y-87539285D01*
X95225810Y-87587666D01*
X95322571Y-87636047D01*
X95516095Y-87636047D01*
X95612857Y-87587666D01*
X95661238Y-87539285D01*
X95709619Y-87442523D01*
X95709619Y-87249000D01*
X95661238Y-87152238D01*
X95612857Y-87103857D01*
X95516095Y-87055476D01*
X95322571Y-87055476D01*
X95225810Y-87103857D01*
X95177429Y-87152238D01*
X95129048Y-87249000D01*
X92879333Y-89474523D02*
X92879333Y-88990714D01*
X93169619Y-89571285D02*
X92153619Y-89232618D01*
X93169619Y-88893952D01*
X93169619Y-88023095D02*
X93169619Y-88603666D01*
X93169619Y-88313380D02*
X92153619Y-88313380D01*
X92298762Y-88410142D01*
X92395524Y-88506904D01*
X92443905Y-88603666D01*
X92153619Y-87684428D02*
X92153619Y-87007095D01*
X93169619Y-87442523D01*
X90339333Y-89474523D02*
X90339333Y-88990714D01*
X90629619Y-89571285D02*
X89613619Y-89232618D01*
X90629619Y-88893952D01*
X90629619Y-88023095D02*
X90629619Y-88603666D01*
X90629619Y-88313380D02*
X89613619Y-88313380D01*
X89758762Y-88410142D01*
X89855524Y-88506904D01*
X89903905Y-88603666D01*
X89613619Y-87152238D02*
X89613619Y-87345761D01*
X89662000Y-87442523D01*
X89710381Y-87490904D01*
X89855524Y-87587666D01*
X90049048Y-87636047D01*
X90436095Y-87636047D01*
X90532857Y-87587666D01*
X90581238Y-87539285D01*
X90629619Y-87442523D01*
X90629619Y-87249000D01*
X90581238Y-87152238D01*
X90532857Y-87103857D01*
X90436095Y-87055476D01*
X90194190Y-87055476D01*
X90097429Y-87103857D01*
X90049048Y-87152238D01*
X90000667Y-87249000D01*
X90000667Y-87442523D01*
X90049048Y-87539285D01*
X90097429Y-87587666D01*
X90194190Y-87636047D01*
X87799333Y-89474523D02*
X87799333Y-88990714D01*
X88089619Y-89571285D02*
X87073619Y-89232618D01*
X88089619Y-88893952D01*
X88089619Y-88023095D02*
X88089619Y-88603666D01*
X88089619Y-88313380D02*
X87073619Y-88313380D01*
X87218762Y-88410142D01*
X87315524Y-88506904D01*
X87363905Y-88603666D01*
X87073619Y-87684428D02*
X87073619Y-87055476D01*
X87460667Y-87394142D01*
X87460667Y-87249000D01*
X87509048Y-87152238D01*
X87557429Y-87103857D01*
X87654190Y-87055476D01*
X87896095Y-87055476D01*
X87992857Y-87103857D01*
X88041238Y-87152238D01*
X88089619Y-87249000D01*
X88089619Y-87539285D01*
X88041238Y-87636047D01*
X87992857Y-87684428D01*
X85259333Y-89474523D02*
X85259333Y-88990714D01*
X85549619Y-89571285D02*
X84533619Y-89232618D01*
X85549619Y-88893952D01*
X85549619Y-88023095D02*
X85549619Y-88603666D01*
X85549619Y-88313380D02*
X84533619Y-88313380D01*
X84678762Y-88410142D01*
X84775524Y-88506904D01*
X84823905Y-88603666D01*
X84630381Y-87636047D02*
X84582000Y-87587666D01*
X84533619Y-87490904D01*
X84533619Y-87249000D01*
X84582000Y-87152238D01*
X84630381Y-87103857D01*
X84727143Y-87055476D01*
X84823905Y-87055476D01*
X84969048Y-87103857D01*
X85549619Y-87684428D01*
X85549619Y-87055476D01*
X82477429Y-89160048D02*
X82525810Y-89014905D01*
X82574190Y-88966524D01*
X82670952Y-88918143D01*
X82816095Y-88918143D01*
X82912857Y-88966524D01*
X82961238Y-89014905D01*
X83009619Y-89111667D01*
X83009619Y-89498714D01*
X81993619Y-89498714D01*
X81993619Y-89160048D01*
X82042000Y-89063286D01*
X82090381Y-89014905D01*
X82187143Y-88966524D01*
X82283905Y-88966524D01*
X82380667Y-89014905D01*
X82429048Y-89063286D01*
X82477429Y-89160048D01*
X82477429Y-89498714D01*
X83009619Y-87950524D02*
X83009619Y-88531095D01*
X83009619Y-88240809D02*
X81993619Y-88240809D01*
X82138762Y-88337571D01*
X82235524Y-88434333D01*
X82283905Y-88531095D01*
X83009619Y-86982905D02*
X83009619Y-87563476D01*
X83009619Y-87273190D02*
X81993619Y-87273190D01*
X82138762Y-87369952D01*
X82235524Y-87466714D01*
X82283905Y-87563476D01*
X79937429Y-89160048D02*
X79985810Y-89014905D01*
X80034190Y-88966524D01*
X80130952Y-88918143D01*
X80276095Y-88918143D01*
X80372857Y-88966524D01*
X80421238Y-89014905D01*
X80469619Y-89111667D01*
X80469619Y-89498714D01*
X79453619Y-89498714D01*
X79453619Y-89160048D01*
X79502000Y-89063286D01*
X79550381Y-89014905D01*
X79647143Y-88966524D01*
X79743905Y-88966524D01*
X79840667Y-89014905D01*
X79889048Y-89063286D01*
X79937429Y-89160048D01*
X79937429Y-89498714D01*
X80469619Y-87950524D02*
X80469619Y-88531095D01*
X80469619Y-88240809D02*
X79453619Y-88240809D01*
X79598762Y-88337571D01*
X79695524Y-88434333D01*
X79743905Y-88531095D01*
X79453619Y-87321571D02*
X79453619Y-87224810D01*
X79502000Y-87128048D01*
X79550381Y-87079667D01*
X79647143Y-87031286D01*
X79840667Y-86982905D01*
X80082571Y-86982905D01*
X80276095Y-87031286D01*
X80372857Y-87079667D01*
X80421238Y-87128048D01*
X80469619Y-87224810D01*
X80469619Y-87321571D01*
X80421238Y-87418333D01*
X80372857Y-87466714D01*
X80276095Y-87515095D01*
X80082571Y-87563476D01*
X79840667Y-87563476D01*
X79647143Y-87515095D01*
X79550381Y-87466714D01*
X79502000Y-87418333D01*
X79453619Y-87321571D01*
X77639333Y-89474523D02*
X77639333Y-88990714D01*
X77929619Y-89571285D02*
X76913619Y-89232618D01*
X77929619Y-88893952D01*
X77929619Y-88023095D02*
X77929619Y-88603666D01*
X77929619Y-88313380D02*
X76913619Y-88313380D01*
X77058762Y-88410142D01*
X77155524Y-88506904D01*
X77203905Y-88603666D01*
X77929619Y-87055476D02*
X77929619Y-87636047D01*
X77929619Y-87345761D02*
X76913619Y-87345761D01*
X77058762Y-87442523D01*
X77155524Y-87539285D01*
X77203905Y-87636047D01*
X75099333Y-89474523D02*
X75099333Y-88990714D01*
X75389619Y-89571285D02*
X74373619Y-89232618D01*
X75389619Y-88893952D01*
X75389619Y-88023095D02*
X75389619Y-88603666D01*
X75389619Y-88313380D02*
X74373619Y-88313380D01*
X74518762Y-88410142D01*
X74615524Y-88506904D01*
X74663905Y-88603666D01*
X74373619Y-87394142D02*
X74373619Y-87297381D01*
X74422000Y-87200619D01*
X74470381Y-87152238D01*
X74567143Y-87103857D01*
X74760667Y-87055476D01*
X75002571Y-87055476D01*
X75196095Y-87103857D01*
X75292857Y-87152238D01*
X75341238Y-87200619D01*
X75389619Y-87297381D01*
X75389619Y-87394142D01*
X75341238Y-87490904D01*
X75292857Y-87539285D01*
X75196095Y-87587666D01*
X75002571Y-87636047D01*
X74760667Y-87636047D01*
X74567143Y-87587666D01*
X74470381Y-87539285D01*
X74422000Y-87490904D01*
X74373619Y-87394142D01*
X72559333Y-89474523D02*
X72559333Y-88990714D01*
X72849619Y-89571285D02*
X71833619Y-89232618D01*
X72849619Y-88893952D01*
X71833619Y-88361761D02*
X71833619Y-88265000D01*
X71882000Y-88168238D01*
X71930381Y-88119857D01*
X72027143Y-88071476D01*
X72220667Y-88023095D01*
X72462571Y-88023095D01*
X72656095Y-88071476D01*
X72752857Y-88119857D01*
X72801238Y-88168238D01*
X72849619Y-88265000D01*
X72849619Y-88361761D01*
X72801238Y-88458523D01*
X72752857Y-88506904D01*
X72656095Y-88555285D01*
X72462571Y-88603666D01*
X72220667Y-88603666D01*
X72027143Y-88555285D01*
X71930381Y-88506904D01*
X71882000Y-88458523D01*
X71833619Y-88361761D01*
X72849619Y-87539285D02*
X72849619Y-87345761D01*
X72801238Y-87249000D01*
X72752857Y-87200619D01*
X72607714Y-87103857D01*
X72414190Y-87055476D01*
X72027143Y-87055476D01*
X71930381Y-87103857D01*
X71882000Y-87152238D01*
X71833619Y-87249000D01*
X71833619Y-87442523D01*
X71882000Y-87539285D01*
X71930381Y-87587666D01*
X72027143Y-87636047D01*
X72269048Y-87636047D01*
X72365810Y-87587666D01*
X72414190Y-87539285D01*
X72462571Y-87442523D01*
X72462571Y-87249000D01*
X72414190Y-87152238D01*
X72365810Y-87103857D01*
X72269048Y-87055476D01*
X70019333Y-89474523D02*
X70019333Y-88990714D01*
X70309619Y-89571285D02*
X69293619Y-89232618D01*
X70309619Y-88893952D01*
X69293619Y-88361761D02*
X69293619Y-88265000D01*
X69342000Y-88168238D01*
X69390381Y-88119857D01*
X69487143Y-88071476D01*
X69680667Y-88023095D01*
X69922571Y-88023095D01*
X70116095Y-88071476D01*
X70212857Y-88119857D01*
X70261238Y-88168238D01*
X70309619Y-88265000D01*
X70309619Y-88361761D01*
X70261238Y-88458523D01*
X70212857Y-88506904D01*
X70116095Y-88555285D01*
X69922571Y-88603666D01*
X69680667Y-88603666D01*
X69487143Y-88555285D01*
X69390381Y-88506904D01*
X69342000Y-88458523D01*
X69293619Y-88361761D01*
X69729048Y-87442523D02*
X69680667Y-87539285D01*
X69632286Y-87587666D01*
X69535524Y-87636047D01*
X69487143Y-87636047D01*
X69390381Y-87587666D01*
X69342000Y-87539285D01*
X69293619Y-87442523D01*
X69293619Y-87249000D01*
X69342000Y-87152238D01*
X69390381Y-87103857D01*
X69487143Y-87055476D01*
X69535524Y-87055476D01*
X69632286Y-87103857D01*
X69680667Y-87152238D01*
X69729048Y-87249000D01*
X69729048Y-87442523D01*
X69777429Y-87539285D01*
X69825810Y-87587666D01*
X69922571Y-87636047D01*
X70116095Y-87636047D01*
X70212857Y-87587666D01*
X70261238Y-87539285D01*
X70309619Y-87442523D01*
X70309619Y-87249000D01*
X70261238Y-87152238D01*
X70212857Y-87103857D01*
X70116095Y-87055476D01*
X69922571Y-87055476D01*
X69825810Y-87103857D01*
X69777429Y-87152238D01*
X69729048Y-87249000D01*
X67479333Y-89474523D02*
X67479333Y-88990714D01*
X67769619Y-89571285D02*
X66753619Y-89232618D01*
X67769619Y-88893952D01*
X66753619Y-88361761D02*
X66753619Y-88265000D01*
X66802000Y-88168238D01*
X66850381Y-88119857D01*
X66947143Y-88071476D01*
X67140667Y-88023095D01*
X67382571Y-88023095D01*
X67576095Y-88071476D01*
X67672857Y-88119857D01*
X67721238Y-88168238D01*
X67769619Y-88265000D01*
X67769619Y-88361761D01*
X67721238Y-88458523D01*
X67672857Y-88506904D01*
X67576095Y-88555285D01*
X67382571Y-88603666D01*
X67140667Y-88603666D01*
X66947143Y-88555285D01*
X66850381Y-88506904D01*
X66802000Y-88458523D01*
X66753619Y-88361761D01*
X66753619Y-87684428D02*
X66753619Y-87007095D01*
X67769619Y-87442523D01*
X64213619Y-89522904D02*
X64213619Y-88893952D01*
X64600667Y-89232618D01*
X64600667Y-89087476D01*
X64649048Y-88990714D01*
X64697429Y-88942333D01*
X64794190Y-88893952D01*
X65036095Y-88893952D01*
X65132857Y-88942333D01*
X65181238Y-88990714D01*
X65229619Y-89087476D01*
X65229619Y-89377761D01*
X65181238Y-89474523D01*
X65132857Y-89522904D01*
X64213619Y-88603666D02*
X65229619Y-88264999D01*
X64213619Y-87926333D01*
X64213619Y-87684428D02*
X64213619Y-87055476D01*
X64600667Y-87394142D01*
X64600667Y-87249000D01*
X64649048Y-87152238D01*
X64697429Y-87103857D01*
X64794190Y-87055476D01*
X65036095Y-87055476D01*
X65132857Y-87103857D01*
X65181238Y-87152238D01*
X65229619Y-87249000D01*
X65229619Y-87539285D01*
X65181238Y-87636047D01*
X65132857Y-87684428D01*
X64939333Y-64020095D02*
X64939333Y-63536286D01*
X65229619Y-64116857D02*
X64213619Y-63778190D01*
X65229619Y-63439524D01*
X64262000Y-62568667D02*
X64213619Y-62665429D01*
X64213619Y-62810572D01*
X64262000Y-62955714D01*
X64358762Y-63052476D01*
X64455524Y-63100857D01*
X64649048Y-63149238D01*
X64794190Y-63149238D01*
X64987714Y-63100857D01*
X65084476Y-63052476D01*
X65181238Y-62955714D01*
X65229619Y-62810572D01*
X65229619Y-62713810D01*
X65181238Y-62568667D01*
X65132857Y-62520286D01*
X64794190Y-62520286D01*
X64794190Y-62713810D01*
X65229619Y-62084857D02*
X64213619Y-62084857D01*
X65229619Y-61504286D01*
X64213619Y-61504286D01*
X65229619Y-61020476D02*
X64213619Y-61020476D01*
X64213619Y-60778571D01*
X64262000Y-60633429D01*
X64358762Y-60536667D01*
X64455524Y-60488286D01*
X64649048Y-60439905D01*
X64794190Y-60439905D01*
X64987714Y-60488286D01*
X65084476Y-60536667D01*
X65181238Y-60633429D01*
X65229619Y-60778571D01*
X65229619Y-61020476D01*
X107393619Y-63995904D02*
X108409619Y-63657237D01*
X107393619Y-63318571D01*
X107393619Y-62979904D02*
X108216095Y-62979904D01*
X108312857Y-62931523D01*
X108361238Y-62883142D01*
X108409619Y-62786380D01*
X108409619Y-62592857D01*
X108361238Y-62496095D01*
X108312857Y-62447714D01*
X108216095Y-62399333D01*
X107393619Y-62399333D01*
X108361238Y-61963904D02*
X108409619Y-61818761D01*
X108409619Y-61576857D01*
X108361238Y-61480095D01*
X108312857Y-61431714D01*
X108216095Y-61383333D01*
X108119333Y-61383333D01*
X108022571Y-61431714D01*
X107974190Y-61480095D01*
X107925810Y-61576857D01*
X107877429Y-61770380D01*
X107829048Y-61867142D01*
X107780667Y-61915523D01*
X107683905Y-61963904D01*
X107587143Y-61963904D01*
X107490381Y-61915523D01*
X107442000Y-61867142D01*
X107393619Y-61770380D01*
X107393619Y-61528476D01*
X107442000Y-61383333D01*
X107877429Y-60609238D02*
X107925810Y-60464095D01*
X107974190Y-60415714D01*
X108070952Y-60367333D01*
X108216095Y-60367333D01*
X108312857Y-60415714D01*
X108361238Y-60464095D01*
X108409619Y-60560857D01*
X108409619Y-60947904D01*
X107393619Y-60947904D01*
X107393619Y-60609238D01*
X107442000Y-60512476D01*
X107490381Y-60464095D01*
X107587143Y-60415714D01*
X107683905Y-60415714D01*
X107780667Y-60464095D01*
X107829048Y-60512476D01*
X107877429Y-60609238D01*
X107877429Y-60947904D01*
X104902000Y-62496095D02*
X104853619Y-62592857D01*
X104853619Y-62738000D01*
X104902000Y-62883142D01*
X104998762Y-62979904D01*
X105095524Y-63028285D01*
X105289048Y-63076666D01*
X105434190Y-63076666D01*
X105627714Y-63028285D01*
X105724476Y-62979904D01*
X105821238Y-62883142D01*
X105869619Y-62738000D01*
X105869619Y-62641238D01*
X105821238Y-62496095D01*
X105772857Y-62447714D01*
X105434190Y-62447714D01*
X105434190Y-62641238D01*
X105869619Y-62012285D02*
X104853619Y-62012285D01*
X105869619Y-61431714D01*
X104853619Y-61431714D01*
X105869619Y-60947904D02*
X104853619Y-60947904D01*
X104853619Y-60705999D01*
X104902000Y-60560857D01*
X104998762Y-60464095D01*
X105095524Y-60415714D01*
X105289048Y-60367333D01*
X105434190Y-60367333D01*
X105627714Y-60415714D01*
X105724476Y-60464095D01*
X105821238Y-60560857D01*
X105869619Y-60705999D01*
X105869619Y-60947904D01*
X102797429Y-62617048D02*
X102845810Y-62471905D01*
X102894190Y-62423524D01*
X102990952Y-62375143D01*
X103136095Y-62375143D01*
X103232857Y-62423524D01*
X103281238Y-62471905D01*
X103329619Y-62568667D01*
X103329619Y-62955714D01*
X102313619Y-62955714D01*
X102313619Y-62617048D01*
X102362000Y-62520286D01*
X102410381Y-62471905D01*
X102507143Y-62423524D01*
X102603905Y-62423524D01*
X102700667Y-62471905D01*
X102749048Y-62520286D01*
X102797429Y-62617048D01*
X102797429Y-62955714D01*
X102410381Y-61988095D02*
X102362000Y-61939714D01*
X102313619Y-61842952D01*
X102313619Y-61601048D01*
X102362000Y-61504286D01*
X102410381Y-61455905D01*
X102507143Y-61407524D01*
X102603905Y-61407524D01*
X102749048Y-61455905D01*
X103329619Y-62036476D01*
X103329619Y-61407524D01*
X102410381Y-61020476D02*
X102362000Y-60972095D01*
X102313619Y-60875333D01*
X102313619Y-60633429D01*
X102362000Y-60536667D01*
X102410381Y-60488286D01*
X102507143Y-60439905D01*
X102603905Y-60439905D01*
X102749048Y-60488286D01*
X103329619Y-61068857D01*
X103329619Y-60439905D01*
X100257429Y-62617048D02*
X100305810Y-62471905D01*
X100354190Y-62423524D01*
X100450952Y-62375143D01*
X100596095Y-62375143D01*
X100692857Y-62423524D01*
X100741238Y-62471905D01*
X100789619Y-62568667D01*
X100789619Y-62955714D01*
X99773619Y-62955714D01*
X99773619Y-62617048D01*
X99822000Y-62520286D01*
X99870381Y-62471905D01*
X99967143Y-62423524D01*
X100063905Y-62423524D01*
X100160667Y-62471905D01*
X100209048Y-62520286D01*
X100257429Y-62617048D01*
X100257429Y-62955714D01*
X99870381Y-61988095D02*
X99822000Y-61939714D01*
X99773619Y-61842952D01*
X99773619Y-61601048D01*
X99822000Y-61504286D01*
X99870381Y-61455905D01*
X99967143Y-61407524D01*
X100063905Y-61407524D01*
X100209048Y-61455905D01*
X100789619Y-62036476D01*
X100789619Y-61407524D01*
X99773619Y-61068857D02*
X99773619Y-60439905D01*
X100160667Y-60778571D01*
X100160667Y-60633429D01*
X100209048Y-60536667D01*
X100257429Y-60488286D01*
X100354190Y-60439905D01*
X100596095Y-60439905D01*
X100692857Y-60488286D01*
X100741238Y-60536667D01*
X100789619Y-60633429D01*
X100789619Y-60923714D01*
X100741238Y-61020476D01*
X100692857Y-61068857D01*
X97959333Y-62931523D02*
X97959333Y-62447714D01*
X98249619Y-63028285D02*
X97233619Y-62689618D01*
X98249619Y-62350952D01*
X97330381Y-62060666D02*
X97282000Y-62012285D01*
X97233619Y-61915523D01*
X97233619Y-61673619D01*
X97282000Y-61576857D01*
X97330381Y-61528476D01*
X97427143Y-61480095D01*
X97523905Y-61480095D01*
X97669048Y-61528476D01*
X98249619Y-62109047D01*
X98249619Y-61480095D01*
X97233619Y-61141428D02*
X97233619Y-60464095D01*
X98249619Y-60899523D01*
X95419333Y-62931523D02*
X95419333Y-62447714D01*
X95709619Y-63028285D02*
X94693619Y-62689618D01*
X95709619Y-62350952D01*
X94790381Y-62060666D02*
X94742000Y-62012285D01*
X94693619Y-61915523D01*
X94693619Y-61673619D01*
X94742000Y-61576857D01*
X94790381Y-61528476D01*
X94887143Y-61480095D01*
X94983905Y-61480095D01*
X95129048Y-61528476D01*
X95709619Y-62109047D01*
X95709619Y-61480095D01*
X95129048Y-60899523D02*
X95080667Y-60996285D01*
X95032286Y-61044666D01*
X94935524Y-61093047D01*
X94887143Y-61093047D01*
X94790381Y-61044666D01*
X94742000Y-60996285D01*
X94693619Y-60899523D01*
X94693619Y-60706000D01*
X94742000Y-60609238D01*
X94790381Y-60560857D01*
X94887143Y-60512476D01*
X94935524Y-60512476D01*
X95032286Y-60560857D01*
X95080667Y-60609238D01*
X95129048Y-60706000D01*
X95129048Y-60899523D01*
X95177429Y-60996285D01*
X95225810Y-61044666D01*
X95322571Y-61093047D01*
X95516095Y-61093047D01*
X95612857Y-61044666D01*
X95661238Y-60996285D01*
X95709619Y-60899523D01*
X95709619Y-60706000D01*
X95661238Y-60609238D01*
X95612857Y-60560857D01*
X95516095Y-60512476D01*
X95322571Y-60512476D01*
X95225810Y-60560857D01*
X95177429Y-60609238D01*
X95129048Y-60706000D01*
X92298762Y-60887429D02*
X92443905Y-60935810D01*
X92492286Y-60984190D01*
X92540667Y-61080952D01*
X92540667Y-61226095D01*
X92492286Y-61322857D01*
X92443905Y-61371238D01*
X92347143Y-61419619D01*
X91960096Y-61419619D01*
X91960096Y-60403619D01*
X92298762Y-60403619D01*
X92395524Y-60452000D01*
X92443905Y-60500381D01*
X92492286Y-60597143D01*
X92492286Y-60693905D01*
X92443905Y-60790667D01*
X92395524Y-60839048D01*
X92298762Y-60887429D01*
X91960096Y-60887429D01*
X92927715Y-60500381D02*
X92976096Y-60452000D01*
X93072858Y-60403619D01*
X93314762Y-60403619D01*
X93411524Y-60452000D01*
X93459905Y-60500381D01*
X93508286Y-60597143D01*
X93508286Y-60693905D01*
X93459905Y-60839048D01*
X92879334Y-61419619D01*
X93508286Y-61419619D01*
X89758762Y-60887429D02*
X89903905Y-60935810D01*
X89952286Y-60984190D01*
X90000667Y-61080952D01*
X90000667Y-61226095D01*
X89952286Y-61322857D01*
X89903905Y-61371238D01*
X89807143Y-61419619D01*
X89420096Y-61419619D01*
X89420096Y-60403619D01*
X89758762Y-60403619D01*
X89855524Y-60452000D01*
X89903905Y-60500381D01*
X89952286Y-60597143D01*
X89952286Y-60693905D01*
X89903905Y-60790667D01*
X89855524Y-60839048D01*
X89758762Y-60887429D01*
X89420096Y-60887429D01*
X90339334Y-60403619D02*
X90968286Y-60403619D01*
X90629620Y-60790667D01*
X90774762Y-60790667D01*
X90871524Y-60839048D01*
X90919905Y-60887429D01*
X90968286Y-60984190D01*
X90968286Y-61226095D01*
X90919905Y-61322857D01*
X90871524Y-61371238D01*
X90774762Y-61419619D01*
X90484477Y-61419619D01*
X90387715Y-61371238D01*
X90339334Y-61322857D01*
X87799333Y-62931523D02*
X87799333Y-62447714D01*
X88089619Y-63028285D02*
X87073619Y-62689618D01*
X88089619Y-62350952D01*
X87073619Y-61818761D02*
X87073619Y-61722000D01*
X87122000Y-61625238D01*
X87170381Y-61576857D01*
X87267143Y-61528476D01*
X87460667Y-61480095D01*
X87702571Y-61480095D01*
X87896095Y-61528476D01*
X87992857Y-61576857D01*
X88041238Y-61625238D01*
X88089619Y-61722000D01*
X88089619Y-61818761D01*
X88041238Y-61915523D01*
X87992857Y-61963904D01*
X87896095Y-62012285D01*
X87702571Y-62060666D01*
X87460667Y-62060666D01*
X87267143Y-62012285D01*
X87170381Y-61963904D01*
X87122000Y-61915523D01*
X87073619Y-61818761D01*
X87073619Y-60851142D02*
X87073619Y-60754381D01*
X87122000Y-60657619D01*
X87170381Y-60609238D01*
X87267143Y-60560857D01*
X87460667Y-60512476D01*
X87702571Y-60512476D01*
X87896095Y-60560857D01*
X87992857Y-60609238D01*
X88041238Y-60657619D01*
X88089619Y-60754381D01*
X88089619Y-60851142D01*
X88041238Y-60947904D01*
X87992857Y-60996285D01*
X87896095Y-61044666D01*
X87702571Y-61093047D01*
X87460667Y-61093047D01*
X87267143Y-61044666D01*
X87170381Y-60996285D01*
X87122000Y-60947904D01*
X87073619Y-60851142D01*
X85259333Y-62931523D02*
X85259333Y-62447714D01*
X85549619Y-63028285D02*
X84533619Y-62689618D01*
X85549619Y-62350952D01*
X84533619Y-61818761D02*
X84533619Y-61722000D01*
X84582000Y-61625238D01*
X84630381Y-61576857D01*
X84727143Y-61528476D01*
X84920667Y-61480095D01*
X85162571Y-61480095D01*
X85356095Y-61528476D01*
X85452857Y-61576857D01*
X85501238Y-61625238D01*
X85549619Y-61722000D01*
X85549619Y-61818761D01*
X85501238Y-61915523D01*
X85452857Y-61963904D01*
X85356095Y-62012285D01*
X85162571Y-62060666D01*
X84920667Y-62060666D01*
X84727143Y-62012285D01*
X84630381Y-61963904D01*
X84582000Y-61915523D01*
X84533619Y-61818761D01*
X85549619Y-60512476D02*
X85549619Y-61093047D01*
X85549619Y-60802761D02*
X84533619Y-60802761D01*
X84678762Y-60899523D01*
X84775524Y-60996285D01*
X84823905Y-61093047D01*
X82719333Y-62931523D02*
X82719333Y-62447714D01*
X83009619Y-63028285D02*
X81993619Y-62689618D01*
X83009619Y-62350952D01*
X81993619Y-61818761D02*
X81993619Y-61722000D01*
X82042000Y-61625238D01*
X82090381Y-61576857D01*
X82187143Y-61528476D01*
X82380667Y-61480095D01*
X82622571Y-61480095D01*
X82816095Y-61528476D01*
X82912857Y-61576857D01*
X82961238Y-61625238D01*
X83009619Y-61722000D01*
X83009619Y-61818761D01*
X82961238Y-61915523D01*
X82912857Y-61963904D01*
X82816095Y-62012285D01*
X82622571Y-62060666D01*
X82380667Y-62060666D01*
X82187143Y-62012285D01*
X82090381Y-61963904D01*
X82042000Y-61915523D01*
X81993619Y-61818761D01*
X82090381Y-61093047D02*
X82042000Y-61044666D01*
X81993619Y-60947904D01*
X81993619Y-60706000D01*
X82042000Y-60609238D01*
X82090381Y-60560857D01*
X82187143Y-60512476D01*
X82283905Y-60512476D01*
X82429048Y-60560857D01*
X83009619Y-61141428D01*
X83009619Y-60512476D01*
X80179333Y-62931523D02*
X80179333Y-62447714D01*
X80469619Y-63028285D02*
X79453619Y-62689618D01*
X80469619Y-62350952D01*
X79453619Y-61818761D02*
X79453619Y-61722000D01*
X79502000Y-61625238D01*
X79550381Y-61576857D01*
X79647143Y-61528476D01*
X79840667Y-61480095D01*
X80082571Y-61480095D01*
X80276095Y-61528476D01*
X80372857Y-61576857D01*
X80421238Y-61625238D01*
X80469619Y-61722000D01*
X80469619Y-61818761D01*
X80421238Y-61915523D01*
X80372857Y-61963904D01*
X80276095Y-62012285D01*
X80082571Y-62060666D01*
X79840667Y-62060666D01*
X79647143Y-62012285D01*
X79550381Y-61963904D01*
X79502000Y-61915523D01*
X79453619Y-61818761D01*
X79453619Y-61141428D02*
X79453619Y-60512476D01*
X79840667Y-60851142D01*
X79840667Y-60706000D01*
X79889048Y-60609238D01*
X79937429Y-60560857D01*
X80034190Y-60512476D01*
X80276095Y-60512476D01*
X80372857Y-60560857D01*
X80421238Y-60609238D01*
X80469619Y-60706000D01*
X80469619Y-60996285D01*
X80421238Y-61093047D01*
X80372857Y-61141428D01*
X77397429Y-62617048D02*
X77445810Y-62471905D01*
X77494190Y-62423524D01*
X77590952Y-62375143D01*
X77736095Y-62375143D01*
X77832857Y-62423524D01*
X77881238Y-62471905D01*
X77929619Y-62568667D01*
X77929619Y-62955714D01*
X76913619Y-62955714D01*
X76913619Y-62617048D01*
X76962000Y-62520286D01*
X77010381Y-62471905D01*
X77107143Y-62423524D01*
X77203905Y-62423524D01*
X77300667Y-62471905D01*
X77349048Y-62520286D01*
X77397429Y-62617048D01*
X77397429Y-62955714D01*
X76913619Y-61746190D02*
X76913619Y-61649429D01*
X76962000Y-61552667D01*
X77010381Y-61504286D01*
X77107143Y-61455905D01*
X77300667Y-61407524D01*
X77542571Y-61407524D01*
X77736095Y-61455905D01*
X77832857Y-61504286D01*
X77881238Y-61552667D01*
X77929619Y-61649429D01*
X77929619Y-61746190D01*
X77881238Y-61842952D01*
X77832857Y-61891333D01*
X77736095Y-61939714D01*
X77542571Y-61988095D01*
X77300667Y-61988095D01*
X77107143Y-61939714D01*
X77010381Y-61891333D01*
X76962000Y-61842952D01*
X76913619Y-61746190D01*
X77349048Y-60826952D02*
X77300667Y-60923714D01*
X77252286Y-60972095D01*
X77155524Y-61020476D01*
X77107143Y-61020476D01*
X77010381Y-60972095D01*
X76962000Y-60923714D01*
X76913619Y-60826952D01*
X76913619Y-60633429D01*
X76962000Y-60536667D01*
X77010381Y-60488286D01*
X77107143Y-60439905D01*
X77155524Y-60439905D01*
X77252286Y-60488286D01*
X77300667Y-60536667D01*
X77349048Y-60633429D01*
X77349048Y-60826952D01*
X77397429Y-60923714D01*
X77445810Y-60972095D01*
X77542571Y-61020476D01*
X77736095Y-61020476D01*
X77832857Y-60972095D01*
X77881238Y-60923714D01*
X77929619Y-60826952D01*
X77929619Y-60633429D01*
X77881238Y-60536667D01*
X77832857Y-60488286D01*
X77736095Y-60439905D01*
X77542571Y-60439905D01*
X77445810Y-60488286D01*
X77397429Y-60536667D01*
X77349048Y-60633429D01*
X74857429Y-62617048D02*
X74905810Y-62471905D01*
X74954190Y-62423524D01*
X75050952Y-62375143D01*
X75196095Y-62375143D01*
X75292857Y-62423524D01*
X75341238Y-62471905D01*
X75389619Y-62568667D01*
X75389619Y-62955714D01*
X74373619Y-62955714D01*
X74373619Y-62617048D01*
X74422000Y-62520286D01*
X74470381Y-62471905D01*
X74567143Y-62423524D01*
X74663905Y-62423524D01*
X74760667Y-62471905D01*
X74809048Y-62520286D01*
X74857429Y-62617048D01*
X74857429Y-62955714D01*
X74373619Y-61746190D02*
X74373619Y-61649429D01*
X74422000Y-61552667D01*
X74470381Y-61504286D01*
X74567143Y-61455905D01*
X74760667Y-61407524D01*
X75002571Y-61407524D01*
X75196095Y-61455905D01*
X75292857Y-61504286D01*
X75341238Y-61552667D01*
X75389619Y-61649429D01*
X75389619Y-61746190D01*
X75341238Y-61842952D01*
X75292857Y-61891333D01*
X75196095Y-61939714D01*
X75002571Y-61988095D01*
X74760667Y-61988095D01*
X74567143Y-61939714D01*
X74470381Y-61891333D01*
X74422000Y-61842952D01*
X74373619Y-61746190D01*
X75389619Y-60923714D02*
X75389619Y-60730190D01*
X75341238Y-60633429D01*
X75292857Y-60585048D01*
X75147714Y-60488286D01*
X74954190Y-60439905D01*
X74567143Y-60439905D01*
X74470381Y-60488286D01*
X74422000Y-60536667D01*
X74373619Y-60633429D01*
X74373619Y-60826952D01*
X74422000Y-60923714D01*
X74470381Y-60972095D01*
X74567143Y-61020476D01*
X74809048Y-61020476D01*
X74905810Y-60972095D01*
X74954190Y-60923714D01*
X75002571Y-60826952D01*
X75002571Y-60633429D01*
X74954190Y-60536667D01*
X74905810Y-60488286D01*
X74809048Y-60439905D01*
X72559333Y-62931523D02*
X72559333Y-62447714D01*
X72849619Y-63028285D02*
X71833619Y-62689618D01*
X72849619Y-62350952D01*
X71833619Y-61818761D02*
X71833619Y-61722000D01*
X71882000Y-61625238D01*
X71930381Y-61576857D01*
X72027143Y-61528476D01*
X72220667Y-61480095D01*
X72462571Y-61480095D01*
X72656095Y-61528476D01*
X72752857Y-61576857D01*
X72801238Y-61625238D01*
X72849619Y-61722000D01*
X72849619Y-61818761D01*
X72801238Y-61915523D01*
X72752857Y-61963904D01*
X72656095Y-62012285D01*
X72462571Y-62060666D01*
X72220667Y-62060666D01*
X72027143Y-62012285D01*
X71930381Y-61963904D01*
X71882000Y-61915523D01*
X71833619Y-61818761D01*
X72172286Y-60609238D02*
X72849619Y-60609238D01*
X71785238Y-60851142D02*
X72510952Y-61093047D01*
X72510952Y-60464095D01*
X70019333Y-62931523D02*
X70019333Y-62447714D01*
X70309619Y-63028285D02*
X69293619Y-62689618D01*
X70309619Y-62350952D01*
X69293619Y-61818761D02*
X69293619Y-61722000D01*
X69342000Y-61625238D01*
X69390381Y-61576857D01*
X69487143Y-61528476D01*
X69680667Y-61480095D01*
X69922571Y-61480095D01*
X70116095Y-61528476D01*
X70212857Y-61576857D01*
X70261238Y-61625238D01*
X70309619Y-61722000D01*
X70309619Y-61818761D01*
X70261238Y-61915523D01*
X70212857Y-61963904D01*
X70116095Y-62012285D01*
X69922571Y-62060666D01*
X69680667Y-62060666D01*
X69487143Y-62012285D01*
X69390381Y-61963904D01*
X69342000Y-61915523D01*
X69293619Y-61818761D01*
X69293619Y-60560857D02*
X69293619Y-61044666D01*
X69777429Y-61093047D01*
X69729048Y-61044666D01*
X69680667Y-60947904D01*
X69680667Y-60706000D01*
X69729048Y-60609238D01*
X69777429Y-60560857D01*
X69874190Y-60512476D01*
X70116095Y-60512476D01*
X70212857Y-60560857D01*
X70261238Y-60609238D01*
X70309619Y-60706000D01*
X70309619Y-60947904D01*
X70261238Y-61044666D01*
X70212857Y-61093047D01*
X67479333Y-62931523D02*
X67479333Y-62447714D01*
X67769619Y-63028285D02*
X66753619Y-62689618D01*
X67769619Y-62350952D01*
X66753619Y-61818761D02*
X66753619Y-61722000D01*
X66802000Y-61625238D01*
X66850381Y-61576857D01*
X66947143Y-61528476D01*
X67140667Y-61480095D01*
X67382571Y-61480095D01*
X67576095Y-61528476D01*
X67672857Y-61576857D01*
X67721238Y-61625238D01*
X67769619Y-61722000D01*
X67769619Y-61818761D01*
X67721238Y-61915523D01*
X67672857Y-61963904D01*
X67576095Y-62012285D01*
X67382571Y-62060666D01*
X67140667Y-62060666D01*
X66947143Y-62012285D01*
X66850381Y-61963904D01*
X66802000Y-61915523D01*
X66753619Y-61818761D01*
X66753619Y-60609238D02*
X66753619Y-60802761D01*
X66802000Y-60899523D01*
X66850381Y-60947904D01*
X66995524Y-61044666D01*
X67189048Y-61093047D01*
X67576095Y-61093047D01*
X67672857Y-61044666D01*
X67721238Y-60996285D01*
X67769619Y-60899523D01*
X67769619Y-60706000D01*
X67721238Y-60609238D01*
X67672857Y-60560857D01*
X67576095Y-60512476D01*
X67334190Y-60512476D01*
X67237429Y-60560857D01*
X67189048Y-60609238D01*
X67140667Y-60706000D01*
X67140667Y-60899523D01*
X67189048Y-60996285D01*
X67237429Y-61044666D01*
X67334190Y-61093047D01*
X64201524Y-66387133D02*
X64685333Y-66387133D01*
X64104762Y-66677419D02*
X64443429Y-65661419D01*
X64782095Y-66677419D01*
X64975619Y-65661419D02*
X65556190Y-65661419D01*
X65265905Y-66677419D02*
X65265905Y-65661419D01*
X65846476Y-66629038D02*
X65991619Y-66677419D01*
X66233523Y-66677419D01*
X66330285Y-66629038D01*
X66378666Y-66580657D01*
X66427047Y-66483895D01*
X66427047Y-66387133D01*
X66378666Y-66290371D01*
X66330285Y-66241990D01*
X66233523Y-66193610D01*
X66040000Y-66145229D01*
X65943238Y-66096848D01*
X65894857Y-66048467D01*
X65846476Y-65951705D01*
X65846476Y-65854943D01*
X65894857Y-65758181D01*
X65943238Y-65709800D01*
X66040000Y-65661419D01*
X66281904Y-65661419D01*
X66427047Y-65709800D01*
X66814095Y-66387133D02*
X67297904Y-66387133D01*
X66717333Y-66677419D02*
X67056000Y-65661419D01*
X67394666Y-66677419D01*
X67733333Y-66677419D02*
X67733333Y-65661419D01*
X68071999Y-66387133D01*
X68410666Y-65661419D01*
X68410666Y-66677419D01*
X68894476Y-66677419D02*
X68894476Y-65661419D01*
X69136381Y-65661419D01*
X69281523Y-65709800D01*
X69378285Y-65806562D01*
X69426666Y-65903324D01*
X69475047Y-66096848D01*
X69475047Y-66241990D01*
X69426666Y-66435514D01*
X69378285Y-66532276D01*
X69281523Y-66629038D01*
X69136381Y-66677419D01*
X68894476Y-66677419D01*
X69862095Y-65758181D02*
X69910476Y-65709800D01*
X70007238Y-65661419D01*
X70249142Y-65661419D01*
X70345904Y-65709800D01*
X70394285Y-65758181D01*
X70442666Y-65854943D01*
X70442666Y-65951705D01*
X70394285Y-66096848D01*
X69813714Y-66677419D01*
X70442666Y-66677419D01*
X71410285Y-66677419D02*
X70829714Y-66677419D01*
X71120000Y-66677419D02*
X71120000Y-65661419D01*
X71023238Y-65806562D01*
X70926476Y-65903324D01*
X70829714Y-65951705D01*
X72377904Y-65709800D02*
X72281142Y-65661419D01*
X72135999Y-65661419D01*
X71990857Y-65709800D01*
X71894095Y-65806562D01*
X71845714Y-65903324D01*
X71797333Y-66096848D01*
X71797333Y-66241990D01*
X71845714Y-66435514D01*
X71894095Y-66532276D01*
X71990857Y-66629038D01*
X72135999Y-66677419D01*
X72232761Y-66677419D01*
X72377904Y-66629038D01*
X72426285Y-66580657D01*
X72426285Y-66241990D01*
X72232761Y-66241990D01*
X73974475Y-66145229D02*
X74119618Y-66193610D01*
X74167999Y-66241990D01*
X74216380Y-66338752D01*
X74216380Y-66483895D01*
X74167999Y-66580657D01*
X74119618Y-66629038D01*
X74022856Y-66677419D01*
X73635809Y-66677419D01*
X73635809Y-65661419D01*
X73974475Y-65661419D01*
X74071237Y-65709800D01*
X74119618Y-65758181D01*
X74167999Y-65854943D01*
X74167999Y-65951705D01*
X74119618Y-66048467D01*
X74071237Y-66096848D01*
X73974475Y-66145229D01*
X73635809Y-66145229D01*
X74651809Y-66677419D02*
X74651809Y-66000086D01*
X74651809Y-66193610D02*
X74700190Y-66096848D01*
X74748571Y-66048467D01*
X74845333Y-66000086D01*
X74942094Y-66000086D01*
X75667808Y-66629038D02*
X75571046Y-66677419D01*
X75377523Y-66677419D01*
X75280761Y-66629038D01*
X75232380Y-66532276D01*
X75232380Y-66145229D01*
X75280761Y-66048467D01*
X75377523Y-66000086D01*
X75571046Y-66000086D01*
X75667808Y-66048467D01*
X75716189Y-66145229D01*
X75716189Y-66241990D01*
X75232380Y-66338752D01*
X76587046Y-66677419D02*
X76587046Y-66145229D01*
X76538665Y-66048467D01*
X76441903Y-66000086D01*
X76248380Y-66000086D01*
X76151618Y-66048467D01*
X76587046Y-66629038D02*
X76490284Y-66677419D01*
X76248380Y-66677419D01*
X76151618Y-66629038D01*
X76103237Y-66532276D01*
X76103237Y-66435514D01*
X76151618Y-66338752D01*
X76248380Y-66290371D01*
X76490284Y-66290371D01*
X76587046Y-66241990D01*
X77070856Y-66677419D02*
X77070856Y-65661419D01*
X77167618Y-66290371D02*
X77457903Y-66677419D01*
X77457903Y-66000086D02*
X77070856Y-66387133D01*
X78038475Y-66677419D02*
X77941713Y-66629038D01*
X77893332Y-66580657D01*
X77844951Y-66483895D01*
X77844951Y-66193610D01*
X77893332Y-66096848D01*
X77941713Y-66048467D01*
X78038475Y-66000086D01*
X78183617Y-66000086D01*
X78280379Y-66048467D01*
X78328760Y-66096848D01*
X78377141Y-66193610D01*
X78377141Y-66483895D01*
X78328760Y-66580657D01*
X78280379Y-66629038D01*
X78183617Y-66677419D01*
X78038475Y-66677419D01*
X79247998Y-66000086D02*
X79247998Y-66677419D01*
X78812570Y-66000086D02*
X78812570Y-66532276D01*
X78860951Y-66629038D01*
X78957713Y-66677419D01*
X79102855Y-66677419D01*
X79199617Y-66629038D01*
X79247998Y-66580657D01*
X79586665Y-66000086D02*
X79973713Y-66000086D01*
X79731808Y-65661419D02*
X79731808Y-66532276D01*
X79780189Y-66629038D01*
X79876951Y-66677419D01*
X79973713Y-66677419D01*
X80989712Y-66000086D02*
X81231617Y-66677419D01*
X81473521Y-66000086D01*
X82392759Y-66677419D02*
X81812188Y-66677419D01*
X82102474Y-66677419D02*
X82102474Y-65661419D01*
X82005712Y-65806562D01*
X81908950Y-65903324D01*
X81812188Y-65951705D01*
X82828188Y-66580657D02*
X82876569Y-66629038D01*
X82828188Y-66677419D01*
X82779807Y-66629038D01*
X82828188Y-66580657D01*
X82828188Y-66677419D01*
X83505522Y-65661419D02*
X83602283Y-65661419D01*
X83699045Y-65709800D01*
X83747426Y-65758181D01*
X83795807Y-65854943D01*
X83844188Y-66048467D01*
X83844188Y-66290371D01*
X83795807Y-66483895D01*
X83747426Y-66580657D01*
X83699045Y-66629038D01*
X83602283Y-66677419D01*
X83505522Y-66677419D01*
X83408760Y-66629038D01*
X83360379Y-66580657D01*
X83311998Y-66483895D01*
X83263617Y-66290371D01*
X83263617Y-66048467D01*
X83311998Y-65854943D01*
X83360379Y-65758181D01*
X83408760Y-65709800D01*
X83505522Y-65661419D01*
X64153143Y-67676486D02*
X64346667Y-68353819D01*
X64540190Y-67870010D01*
X64733714Y-68353819D01*
X64927238Y-67676486D01*
X65314286Y-68353819D02*
X65314286Y-67676486D01*
X65314286Y-67337819D02*
X65265905Y-67386200D01*
X65314286Y-67434581D01*
X65362667Y-67386200D01*
X65314286Y-67337819D01*
X65314286Y-67434581D01*
X66233524Y-68305438D02*
X66136762Y-68353819D01*
X65943239Y-68353819D01*
X65846477Y-68305438D01*
X65798096Y-68257057D01*
X65749715Y-68160295D01*
X65749715Y-67870010D01*
X65798096Y-67773248D01*
X65846477Y-67724867D01*
X65943239Y-67676486D01*
X66136762Y-67676486D01*
X66233524Y-67724867D01*
X66668953Y-68353819D02*
X66668953Y-67337819D01*
X66765715Y-67966771D02*
X67056000Y-68353819D01*
X67056000Y-67676486D02*
X66668953Y-68063533D01*
X67878476Y-68305438D02*
X67781714Y-68353819D01*
X67588191Y-68353819D01*
X67491429Y-68305438D01*
X67443048Y-68208676D01*
X67443048Y-67821629D01*
X67491429Y-67724867D01*
X67588191Y-67676486D01*
X67781714Y-67676486D01*
X67878476Y-67724867D01*
X67926857Y-67821629D01*
X67926857Y-67918390D01*
X67443048Y-68015152D01*
X68362286Y-68353819D02*
X68362286Y-67676486D01*
X68362286Y-67870010D02*
X68410667Y-67773248D01*
X68459048Y-67724867D01*
X68555810Y-67676486D01*
X68652571Y-67676486D01*
X68991238Y-68353819D02*
X68991238Y-67337819D01*
X68991238Y-67724867D02*
X69088000Y-67676486D01*
X69281523Y-67676486D01*
X69378285Y-67724867D01*
X69426666Y-67773248D01*
X69475047Y-67870010D01*
X69475047Y-68160295D01*
X69426666Y-68257057D01*
X69378285Y-68305438D01*
X69281523Y-68353819D01*
X69088000Y-68353819D01*
X68991238Y-68305438D01*
X70055619Y-68353819D02*
X69958857Y-68305438D01*
X69910476Y-68257057D01*
X69862095Y-68160295D01*
X69862095Y-67870010D01*
X69910476Y-67773248D01*
X69958857Y-67724867D01*
X70055619Y-67676486D01*
X70200761Y-67676486D01*
X70297523Y-67724867D01*
X70345904Y-67773248D01*
X70394285Y-67870010D01*
X70394285Y-68160295D01*
X70345904Y-68257057D01*
X70297523Y-68305438D01*
X70200761Y-68353819D01*
X70055619Y-68353819D01*
X70732952Y-68353819D02*
X71265142Y-67676486D01*
X70732952Y-67676486D02*
X71265142Y-68353819D01*
X71652190Y-68257057D02*
X71700571Y-68305438D01*
X71652190Y-68353819D01*
X71603809Y-68305438D01*
X71652190Y-68257057D01*
X71652190Y-68353819D01*
X72136000Y-67676486D02*
X72136000Y-68353819D01*
X72136000Y-67773248D02*
X72184381Y-67724867D01*
X72281143Y-67676486D01*
X72426285Y-67676486D01*
X72523047Y-67724867D01*
X72571428Y-67821629D01*
X72571428Y-68353819D01*
X73442285Y-68305438D02*
X73345523Y-68353819D01*
X73152000Y-68353819D01*
X73055238Y-68305438D01*
X73006857Y-68208676D01*
X73006857Y-67821629D01*
X73055238Y-67724867D01*
X73152000Y-67676486D01*
X73345523Y-67676486D01*
X73442285Y-67724867D01*
X73490666Y-67821629D01*
X73490666Y-67918390D01*
X73006857Y-68015152D01*
X73780952Y-67676486D02*
X74168000Y-67676486D01*
X73926095Y-67337819D02*
X73926095Y-68208676D01*
X73974476Y-68305438D01*
X74071238Y-68353819D01*
X74168000Y-68353819D01*
X104050400Y-80111600D02*
X104050400Y-81381600D01*
X106780900Y-80111600D02*
X106780900Y-81381600D01*
D12*
X104050400Y-80111600D02*
X106780900Y-80111600D01*
X106780900Y-81381600D02*
X104050400Y-81381600D01*
D11*
X99060000Y-85332000D02*
X100330000Y-85332000D01*
X99060000Y-82601500D02*
X100330000Y-82601500D01*
D12*
X99060000Y-85332000D02*
X99060000Y-82601500D01*
X100330000Y-82601500D02*
X100330000Y-85332000D01*
X82462000Y-70731000D02*
X82462000Y-71731000D01*
X84162000Y-71731000D02*
X84162000Y-70731000D01*
D11*
X73279000Y-81407000D02*
X72009000Y-81407000D01*
X73279000Y-84137500D02*
X72009000Y-84137500D01*
D12*
X73279000Y-81407000D02*
X73279000Y-84137500D01*
X72009000Y-84137500D02*
X72009000Y-81407000D01*
D11*
X92797000Y-77456800D02*
X92797000Y-78726800D01*
X95527500Y-77456800D02*
X95527500Y-78726800D01*
D12*
X92797000Y-77456800D02*
X95527500Y-77456800D01*
X95527500Y-78726800D02*
X92797000Y-78726800D01*
D11*
X80518000Y-72644000D02*
X81788000Y-72644000D01*
X80518000Y-69913500D02*
X81788000Y-69913500D01*
D12*
X80518000Y-72644000D02*
X80518000Y-69913500D01*
X81788000Y-69913500D02*
X81788000Y-72644000D01*
D11*
X93547000Y-79256800D02*
X93547000Y-80526800D01*
X96277500Y-79256800D02*
X96277500Y-80526800D01*
D12*
X93547000Y-79256800D02*
X96277500Y-79256800D01*
X96277500Y-80526800D02*
X93547000Y-80526800D01*
D11*
X89650000Y-64770000D02*
X89650000Y-66040000D01*
X92380500Y-64770000D02*
X92380500Y-66040000D01*
D12*
X89650000Y-64770000D02*
X92380500Y-64770000D01*
X92380500Y-66040000D02*
X89650000Y-66040000D01*
D11*
X88634000Y-78613000D02*
X88634000Y-79883000D01*
X91364500Y-78613000D02*
X91364500Y-79883000D01*
D12*
X88634000Y-78613000D02*
X91364500Y-78613000D01*
X91364500Y-79883000D02*
X88634000Y-79883000D01*
D11*
X95111000Y-67056000D02*
X95111000Y-68326000D01*
X97841500Y-67056000D02*
X97841500Y-68326000D01*
D12*
X95111000Y-67056000D02*
X97841500Y-67056000D01*
X97841500Y-68326000D02*
X95111000Y-68326000D01*
D11*
X102793800Y-70752400D02*
X101523800Y-70752400D01*
X102793800Y-73482900D02*
X101523800Y-73482900D01*
D12*
X102793800Y-70752400D02*
X102793800Y-73482900D01*
X101523800Y-73482900D02*
X101523800Y-70752400D01*
X105499720Y-75745340D02*
X105499720Y-76095860D01*
X105499720Y-79245460D02*
X105499720Y-78894940D01*
X101450140Y-75745340D02*
X101450140Y-76095860D01*
X105951020Y-75745340D02*
X105951020Y-76095860D01*
X105951020Y-79245460D02*
X105951020Y-78894940D01*
X101450140Y-79245460D02*
X101450140Y-78894940D01*
X105951020Y-75745340D02*
X101450140Y-75745340D01*
X105951020Y-79245460D02*
X101450140Y-79245460D01*
D11*
X101523800Y-70217600D02*
X102793800Y-70217600D01*
X101523800Y-67487100D02*
X102793800Y-67487100D01*
D12*
X101523800Y-70217600D02*
X101523800Y-67487100D01*
X102793800Y-67487100D02*
X102793800Y-70217600D01*
X100926000Y-68149600D02*
X100926000Y-67149600D01*
X99226000Y-67149600D02*
X99226000Y-68149600D01*
X74144000Y-71540000D02*
X73144000Y-71540000D01*
X73144000Y-73240000D02*
X74144000Y-73240000D01*
X84162000Y-75795000D02*
X84162000Y-74795000D01*
X82462000Y-74795000D02*
X82462000Y-75795000D01*
D11*
X71247000Y-74803000D02*
X69977000Y-74803000D01*
X71247000Y-77533500D02*
X69977000Y-77533500D01*
D12*
X71247000Y-74803000D02*
X71247000Y-77533500D01*
X69977000Y-77533500D02*
X69977000Y-74803000D01*
D11*
X73279000Y-74791000D02*
X72009000Y-74791000D01*
X73279000Y-77521500D02*
X72009000Y-77521500D01*
D12*
X73279000Y-74791000D02*
X73279000Y-77521500D01*
X72009000Y-77521500D02*
X72009000Y-74791000D01*
D11*
X72021000Y-78613000D02*
X72021000Y-79883000D01*
X74751500Y-78613000D02*
X74751500Y-79883000D01*
D12*
X72021000Y-78613000D02*
X74751500Y-78613000D01*
X74751500Y-79883000D02*
X72021000Y-79883000D01*
X76474000Y-79100680D02*
X76474000Y-82100680D01*
X78974000Y-79100680D02*
X78974000Y-82100680D01*
D10*
X75724000Y-78994000D02*
X75724000Y-78994000D01*
X74410820Y-85916020D02*
X74410820Y-85916020D01*
D13*
X86837605Y-67989200D02*
G75*
G03X86837605Y-67989200I-179605J0D01*
G01*
D12*
X94728000Y-68174200D02*
X94728000Y-68699200D01*
X94728000Y-75424200D02*
X94728000Y-74899200D01*
X87478000Y-75424200D02*
X87478000Y-74899200D01*
X87166000Y-68751200D02*
X88055000Y-67735200D01*
X87478000Y-75424200D02*
X88003000Y-75424200D01*
X94728000Y-75424200D02*
X94203000Y-75424200D01*
X94728000Y-68174200D02*
X94203000Y-68174200D01*
D11*
X90582000Y-84889000D02*
X90582000Y-81383800D01*
X90582000Y-84889000D02*
X96576400Y-84889000D01*
X90582000Y-81383800D02*
X96576400Y-81383800D01*
X96576400Y-84889000D02*
X96576400Y-81383800D01*
D12*
X103270000Y-85240800D02*
G75*
G03X103270000Y-85240800I-100000J0D01*
G01*
X102270000Y-85540800D02*
X103470000Y-85540800D01*
X103470000Y-85540800D02*
X103470000Y-82340800D01*
X103470000Y-82340800D02*
X102270000Y-82340800D01*
X102270000Y-82340800D02*
X102270000Y-85540800D01*
X66040000Y-57150000D02*
X109220000Y-57150000D01*
X109220000Y-57150000D02*
X109220000Y-59690000D01*
X109220000Y-59690000D02*
X66040000Y-59690000D01*
X63220000Y-56870000D02*
X64770000Y-56870000D01*
X66040000Y-57150000D02*
X66040000Y-59690000D01*
X64770000Y-59970000D02*
X63220000Y-59970000D01*
X63220000Y-59970000D02*
X63220000Y-56870000D01*
X66040000Y-90170000D02*
X109220000Y-90170000D01*
X109220000Y-90170000D02*
X109220000Y-92710000D01*
X109220000Y-92710000D02*
X66040000Y-92710000D01*
X63220000Y-89890000D02*
X64770000Y-89890000D01*
X66040000Y-90170000D02*
X66040000Y-92710000D01*
X64770000Y-92990000D02*
X63220000Y-92990000D01*
X63220000Y-92990000D02*
X63220000Y-89890000D01*
X63474000Y-74422000D02*
X63474000Y-72872000D01*
X63474000Y-72872000D02*
X66574000Y-72872000D01*
X66294000Y-75692000D02*
X66294000Y-85852000D01*
X66294000Y-85852000D02*
X63754000Y-85852000D01*
X63754000Y-85852000D02*
X63754000Y-75692000D01*
X66294000Y-75692000D02*
X63754000Y-75692000D01*
D11*
X89904000Y-62357000D02*
X89904000Y-63627000D01*
X92634500Y-62357000D02*
X92634500Y-63627000D01*
D12*
X89904000Y-62357000D02*
X92634500Y-62357000D01*
X92634500Y-63627000D02*
X89904000Y-63627000D01*
X107745234Y-80786243D02*
X107697615Y-80833862D01*
X107554758Y-80881481D01*
X107459520Y-80881481D01*
X107316662Y-80833862D01*
X107221424Y-80738624D01*
X107173805Y-80643386D01*
X107126186Y-80452910D01*
X107126186Y-80310052D01*
X107173805Y-80119576D01*
X107221424Y-80024338D01*
X107316662Y-79929100D01*
X107459520Y-79881481D01*
X107554758Y-79881481D01*
X107697615Y-79929100D01*
X107745234Y-79976719D01*
X108697615Y-80881481D02*
X108126186Y-80881481D01*
X108411900Y-80881481D02*
X108411900Y-79881481D01*
X108316662Y-80024338D01*
X108221424Y-80119576D01*
X108126186Y-80167195D01*
X99528334Y-81891143D02*
X99480715Y-81938762D01*
X99337858Y-81986381D01*
X99242620Y-81986381D01*
X99099762Y-81938762D01*
X99004524Y-81843524D01*
X98956905Y-81748286D01*
X98909286Y-81557810D01*
X98909286Y-81414952D01*
X98956905Y-81224476D01*
X99004524Y-81129238D01*
X99099762Y-81034000D01*
X99242620Y-80986381D01*
X99337858Y-80986381D01*
X99480715Y-81034000D01*
X99528334Y-81081619D01*
X99909286Y-81081619D02*
X99956905Y-81034000D01*
X100052143Y-80986381D01*
X100290239Y-80986381D01*
X100385477Y-81034000D01*
X100433096Y-81081619D01*
X100480715Y-81176857D01*
X100480715Y-81272095D01*
X100433096Y-81414952D01*
X99861667Y-81986381D01*
X100480715Y-81986381D01*
X83145334Y-69191143D02*
X83097715Y-69238762D01*
X82954858Y-69286381D01*
X82859620Y-69286381D01*
X82716762Y-69238762D01*
X82621524Y-69143524D01*
X82573905Y-69048286D01*
X82526286Y-68857810D01*
X82526286Y-68714952D01*
X82573905Y-68524476D01*
X82621524Y-68429238D01*
X82716762Y-68334000D01*
X82859620Y-68286381D01*
X82954858Y-68286381D01*
X83097715Y-68334000D01*
X83145334Y-68381619D01*
X83478667Y-68286381D02*
X84097715Y-68286381D01*
X83764381Y-68667333D01*
X83907239Y-68667333D01*
X84002477Y-68714952D01*
X84050096Y-68762571D01*
X84097715Y-68857810D01*
X84097715Y-69095905D01*
X84050096Y-69191143D01*
X84002477Y-69238762D01*
X83907239Y-69286381D01*
X83621524Y-69286381D01*
X83526286Y-69238762D01*
X83478667Y-69191143D01*
X72477334Y-85625643D02*
X72429715Y-85673262D01*
X72286858Y-85720881D01*
X72191620Y-85720881D01*
X72048762Y-85673262D01*
X71953524Y-85578024D01*
X71905905Y-85482786D01*
X71858286Y-85292310D01*
X71858286Y-85149452D01*
X71905905Y-84958976D01*
X71953524Y-84863738D01*
X72048762Y-84768500D01*
X72191620Y-84720881D01*
X72286858Y-84720881D01*
X72429715Y-84768500D01*
X72477334Y-84816119D01*
X73334477Y-85054214D02*
X73334477Y-85720881D01*
X73096381Y-84673262D02*
X72858286Y-85387548D01*
X73477334Y-85387548D01*
X96353334Y-78462143D02*
X96305715Y-78509762D01*
X96162858Y-78557381D01*
X96067620Y-78557381D01*
X95924762Y-78509762D01*
X95829524Y-78414524D01*
X95781905Y-78319286D01*
X95734286Y-78128810D01*
X95734286Y-77985952D01*
X95781905Y-77795476D01*
X95829524Y-77700238D01*
X95924762Y-77605000D01*
X96067620Y-77557381D01*
X96162858Y-77557381D01*
X96305715Y-77605000D01*
X96353334Y-77652619D01*
X97210477Y-77557381D02*
X97020000Y-77557381D01*
X96924762Y-77605000D01*
X96877143Y-77652619D01*
X96781905Y-77795476D01*
X96734286Y-77985952D01*
X96734286Y-78366905D01*
X96781905Y-78462143D01*
X96829524Y-78509762D01*
X96924762Y-78557381D01*
X97115239Y-78557381D01*
X97210477Y-78509762D01*
X97258096Y-78462143D01*
X97305715Y-78366905D01*
X97305715Y-78128810D01*
X97258096Y-78033571D01*
X97210477Y-77985952D01*
X97115239Y-77938333D01*
X96924762Y-77938333D01*
X96829524Y-77985952D01*
X96781905Y-78033571D01*
X96734286Y-78128810D01*
X80986334Y-74017143D02*
X80938715Y-74064762D01*
X80795858Y-74112381D01*
X80700620Y-74112381D01*
X80557762Y-74064762D01*
X80462524Y-73969524D01*
X80414905Y-73874286D01*
X80367286Y-73683810D01*
X80367286Y-73540952D01*
X80414905Y-73350476D01*
X80462524Y-73255238D01*
X80557762Y-73160000D01*
X80700620Y-73112381D01*
X80795858Y-73112381D01*
X80938715Y-73160000D01*
X80986334Y-73207619D01*
X81319667Y-73112381D02*
X81986334Y-73112381D01*
X81557762Y-74112381D01*
X97115334Y-80348943D02*
X97067715Y-80396562D01*
X96924858Y-80444181D01*
X96829620Y-80444181D01*
X96686762Y-80396562D01*
X96591524Y-80301324D01*
X96543905Y-80206086D01*
X96496286Y-80015610D01*
X96496286Y-79872752D01*
X96543905Y-79682276D01*
X96591524Y-79587038D01*
X96686762Y-79491800D01*
X96829620Y-79444181D01*
X96924858Y-79444181D01*
X97067715Y-79491800D01*
X97115334Y-79539419D01*
X97686762Y-79872752D02*
X97591524Y-79825133D01*
X97543905Y-79777514D01*
X97496286Y-79682276D01*
X97496286Y-79634657D01*
X97543905Y-79539419D01*
X97591524Y-79491800D01*
X97686762Y-79444181D01*
X97877239Y-79444181D01*
X97972477Y-79491800D01*
X98020096Y-79539419D01*
X98067715Y-79634657D01*
X98067715Y-79682276D01*
X98020096Y-79777514D01*
X97972477Y-79825133D01*
X97877239Y-79872752D01*
X97686762Y-79872752D01*
X97591524Y-79920371D01*
X97543905Y-79967990D01*
X97496286Y-80063229D01*
X97496286Y-80253705D01*
X97543905Y-80348943D01*
X97591524Y-80396562D01*
X97686762Y-80444181D01*
X97877239Y-80444181D01*
X97972477Y-80396562D01*
X98020096Y-80348943D01*
X98067715Y-80253705D01*
X98067715Y-80063229D01*
X98020096Y-79967990D01*
X97972477Y-79920371D01*
X97877239Y-79872752D01*
X88352334Y-65762143D02*
X88304715Y-65809762D01*
X88161858Y-65857381D01*
X88066620Y-65857381D01*
X87923762Y-65809762D01*
X87828524Y-65714524D01*
X87780905Y-65619286D01*
X87733286Y-65428810D01*
X87733286Y-65285952D01*
X87780905Y-65095476D01*
X87828524Y-65000238D01*
X87923762Y-64905000D01*
X88066620Y-64857381D01*
X88161858Y-64857381D01*
X88304715Y-64905000D01*
X88352334Y-64952619D01*
X88828524Y-65857381D02*
X89019000Y-65857381D01*
X89114239Y-65809762D01*
X89161858Y-65762143D01*
X89257096Y-65619286D01*
X89304715Y-65428810D01*
X89304715Y-65047857D01*
X89257096Y-64952619D01*
X89209477Y-64905000D01*
X89114239Y-64857381D01*
X88923762Y-64857381D01*
X88828524Y-64905000D01*
X88780905Y-64952619D01*
X88733286Y-65047857D01*
X88733286Y-65285952D01*
X88780905Y-65381190D01*
X88828524Y-65428810D01*
X88923762Y-65476429D01*
X89114239Y-65476429D01*
X89209477Y-65428810D01*
X89257096Y-65381190D01*
X89304715Y-65285952D01*
X89527143Y-78335143D02*
X89479524Y-78382762D01*
X89336667Y-78430381D01*
X89241429Y-78430381D01*
X89098571Y-78382762D01*
X89003333Y-78287524D01*
X88955714Y-78192286D01*
X88908095Y-78001810D01*
X88908095Y-77858952D01*
X88955714Y-77668476D01*
X89003333Y-77573238D01*
X89098571Y-77478000D01*
X89241429Y-77430381D01*
X89336667Y-77430381D01*
X89479524Y-77478000D01*
X89527143Y-77525619D01*
X90479524Y-78430381D02*
X89908095Y-78430381D01*
X90193809Y-78430381D02*
X90193809Y-77430381D01*
X90098571Y-77573238D01*
X90003333Y-77668476D01*
X89908095Y-77716095D01*
X91098571Y-77430381D02*
X91193810Y-77430381D01*
X91289048Y-77478000D01*
X91336667Y-77525619D01*
X91384286Y-77620857D01*
X91431905Y-77811333D01*
X91431905Y-78049429D01*
X91384286Y-78239905D01*
X91336667Y-78335143D01*
X91289048Y-78382762D01*
X91193810Y-78430381D01*
X91098571Y-78430381D01*
X91003333Y-78382762D01*
X90955714Y-78335143D01*
X90908095Y-78239905D01*
X90860476Y-78049429D01*
X90860476Y-77811333D01*
X90908095Y-77620857D01*
X90955714Y-77525619D01*
X91003333Y-77478000D01*
X91098571Y-77430381D01*
X96131143Y-66651143D02*
X96083524Y-66698762D01*
X95940667Y-66746381D01*
X95845429Y-66746381D01*
X95702571Y-66698762D01*
X95607333Y-66603524D01*
X95559714Y-66508286D01*
X95512095Y-66317810D01*
X95512095Y-66174952D01*
X95559714Y-65984476D01*
X95607333Y-65889238D01*
X95702571Y-65794000D01*
X95845429Y-65746381D01*
X95940667Y-65746381D01*
X96083524Y-65794000D01*
X96131143Y-65841619D01*
X97083524Y-66746381D02*
X96512095Y-66746381D01*
X96797809Y-66746381D02*
X96797809Y-65746381D01*
X96702571Y-65889238D01*
X96607333Y-65984476D01*
X96512095Y-66032095D01*
X98035905Y-66746381D02*
X97464476Y-66746381D01*
X97750190Y-66746381D02*
X97750190Y-65746381D01*
X97654952Y-65889238D01*
X97559714Y-65984476D01*
X97464476Y-66032095D01*
X101290381Y-72366095D02*
X100290381Y-72366095D01*
X100290381Y-72128000D01*
X100338000Y-71985142D01*
X100433238Y-71889904D01*
X100528476Y-71842285D01*
X100718952Y-71794666D01*
X100861810Y-71794666D01*
X101052286Y-71842285D01*
X101147524Y-71889904D01*
X101242762Y-71985142D01*
X101290381Y-72128000D01*
X101290381Y-72366095D01*
X101290381Y-70842285D02*
X101290381Y-71413714D01*
X101290381Y-71128000D02*
X100290381Y-71128000D01*
X100433238Y-71223238D01*
X100528476Y-71318476D01*
X100576095Y-71413714D01*
X107280485Y-77947781D02*
X107280485Y-76947781D01*
X107518580Y-76947781D01*
X107661438Y-76995400D01*
X107756676Y-77090638D01*
X107804295Y-77185876D01*
X107851914Y-77376352D01*
X107851914Y-77519210D01*
X107804295Y-77709686D01*
X107756676Y-77804924D01*
X107661438Y-77900162D01*
X107518580Y-77947781D01*
X107280485Y-77947781D01*
X108232866Y-77043019D02*
X108280485Y-76995400D01*
X108375723Y-76947781D01*
X108613819Y-76947781D01*
X108709057Y-76995400D01*
X108756676Y-77043019D01*
X108804295Y-77138257D01*
X108804295Y-77233495D01*
X108756676Y-77376352D01*
X108185247Y-77947781D01*
X108804295Y-77947781D01*
X101503905Y-66873381D02*
X101503905Y-65873381D01*
X101742000Y-65873381D01*
X101884858Y-65921000D01*
X101980096Y-66016238D01*
X102027715Y-66111476D01*
X102075334Y-66301952D01*
X102075334Y-66444810D01*
X102027715Y-66635286D01*
X101980096Y-66730524D01*
X101884858Y-66825762D01*
X101742000Y-66873381D01*
X101503905Y-66873381D01*
X102408667Y-65873381D02*
X103027715Y-65873381D01*
X102694381Y-66254333D01*
X102837239Y-66254333D01*
X102932477Y-66301952D01*
X102980096Y-66349571D01*
X103027715Y-66444810D01*
X103027715Y-66682905D01*
X102980096Y-66778143D01*
X102932477Y-66825762D01*
X102837239Y-66873381D01*
X102551524Y-66873381D01*
X102456286Y-66825762D01*
X102408667Y-66778143D01*
X99909334Y-70556381D02*
X99433143Y-70556381D01*
X99433143Y-69556381D01*
X100766477Y-70556381D02*
X100195048Y-70556381D01*
X100480762Y-70556381D02*
X100480762Y-69556381D01*
X100385524Y-69699238D01*
X100290286Y-69794476D01*
X100195048Y-69842095D01*
X73493334Y-71318381D02*
X73017143Y-71318381D01*
X73017143Y-70318381D01*
X73779048Y-70413619D02*
X73826667Y-70366000D01*
X73921905Y-70318381D01*
X74160001Y-70318381D01*
X74255239Y-70366000D01*
X74302858Y-70413619D01*
X74350477Y-70508857D01*
X74350477Y-70604095D01*
X74302858Y-70746952D01*
X73731429Y-71318381D01*
X74350477Y-71318381D01*
X83145334Y-78430381D02*
X82669143Y-78430381D01*
X82669143Y-77430381D01*
X83383429Y-77430381D02*
X84002477Y-77430381D01*
X83669143Y-77811333D01*
X83812001Y-77811333D01*
X83907239Y-77858952D01*
X83954858Y-77906571D01*
X84002477Y-78001810D01*
X84002477Y-78239905D01*
X83954858Y-78335143D01*
X83907239Y-78382762D01*
X83812001Y-78430381D01*
X83526286Y-78430381D01*
X83431048Y-78382762D01*
X83383429Y-78335143D01*
X70445334Y-74493381D02*
X70112000Y-74017190D01*
X69873905Y-74493381D02*
X69873905Y-73493381D01*
X70254858Y-73493381D01*
X70350096Y-73541000D01*
X70397715Y-73588619D01*
X70445334Y-73683857D01*
X70445334Y-73826714D01*
X70397715Y-73921952D01*
X70350096Y-73969571D01*
X70254858Y-74017190D01*
X69873905Y-74017190D01*
X71397715Y-74493381D02*
X70826286Y-74493381D01*
X71112000Y-74493381D02*
X71112000Y-73493381D01*
X71016762Y-73636238D01*
X70921524Y-73731476D01*
X70826286Y-73779095D01*
X72477334Y-74493381D02*
X72144000Y-74017190D01*
X71905905Y-74493381D02*
X71905905Y-73493381D01*
X72286858Y-73493381D01*
X72382096Y-73541000D01*
X72429715Y-73588619D01*
X72477334Y-73683857D01*
X72477334Y-73826714D01*
X72429715Y-73921952D01*
X72382096Y-73969571D01*
X72286858Y-74017190D01*
X71905905Y-74017190D01*
X72858286Y-73588619D02*
X72905905Y-73541000D01*
X73001143Y-73493381D01*
X73239239Y-73493381D01*
X73334477Y-73541000D01*
X73382096Y-73588619D01*
X73429715Y-73683857D01*
X73429715Y-73779095D01*
X73382096Y-73921952D01*
X72810667Y-74493381D01*
X73429715Y-74493381D01*
X73747334Y-81224381D02*
X73414000Y-80748190D01*
X73175905Y-81224381D02*
X73175905Y-80224381D01*
X73556858Y-80224381D01*
X73652096Y-80272000D01*
X73699715Y-80319619D01*
X73747334Y-80414857D01*
X73747334Y-80557714D01*
X73699715Y-80652952D01*
X73652096Y-80700571D01*
X73556858Y-80748190D01*
X73175905Y-80748190D01*
X74080667Y-80224381D02*
X74699715Y-80224381D01*
X74366381Y-80605333D01*
X74509239Y-80605333D01*
X74604477Y-80652952D01*
X74652096Y-80700571D01*
X74699715Y-80795810D01*
X74699715Y-81033905D01*
X74652096Y-81129143D01*
X74604477Y-81176762D01*
X74509239Y-81224381D01*
X74223524Y-81224381D01*
X74128286Y-81176762D01*
X74080667Y-81129143D01*
X77034695Y-84576762D02*
X77177552Y-84624381D01*
X77415648Y-84624381D01*
X77510886Y-84576762D01*
X77558505Y-84529143D01*
X77606124Y-84433905D01*
X77606124Y-84338667D01*
X77558505Y-84243429D01*
X77510886Y-84195810D01*
X77415648Y-84148190D01*
X77225171Y-84100571D01*
X77129933Y-84052952D01*
X77082314Y-84005333D01*
X77034695Y-83910095D01*
X77034695Y-83814857D01*
X77082314Y-83719619D01*
X77129933Y-83672000D01*
X77225171Y-83624381D01*
X77463267Y-83624381D01*
X77606124Y-83672000D01*
X78558505Y-84624381D02*
X77987076Y-84624381D01*
X78272790Y-84624381D02*
X78272790Y-83624381D01*
X78177552Y-83767238D01*
X78082314Y-83862476D01*
X77987076Y-83910095D01*
X85979095Y-66406781D02*
X85979095Y-67216305D01*
X86026714Y-67311543D01*
X86074333Y-67359162D01*
X86169571Y-67406781D01*
X86360048Y-67406781D01*
X86455286Y-67359162D01*
X86502905Y-67311543D01*
X86550524Y-67216305D01*
X86550524Y-66406781D01*
X86979095Y-66502019D02*
X87026714Y-66454400D01*
X87121952Y-66406781D01*
X87360048Y-66406781D01*
X87455286Y-66454400D01*
X87502905Y-66502019D01*
X87550524Y-66597257D01*
X87550524Y-66692495D01*
X87502905Y-66835352D01*
X86931476Y-67406781D01*
X87550524Y-67406781D01*
X92916476Y-85304381D02*
X93583143Y-86304381D01*
X93583143Y-85304381D02*
X92916476Y-86304381D01*
X94487905Y-86304381D02*
X93916476Y-86304381D01*
X94202190Y-86304381D02*
X94202190Y-85304381D01*
X94106952Y-85447238D01*
X94011714Y-85542476D01*
X93916476Y-85590095D01*
X102108095Y-80986381D02*
X102108095Y-81795905D01*
X102155714Y-81891143D01*
X102203333Y-81938762D01*
X102298571Y-81986381D01*
X102489048Y-81986381D01*
X102584286Y-81938762D01*
X102631905Y-81891143D01*
X102679524Y-81795905D01*
X102679524Y-80986381D01*
X103679524Y-81986381D02*
X103108095Y-81986381D01*
X103393809Y-81986381D02*
X103393809Y-80986381D01*
X103298571Y-81129238D01*
X103203333Y-81224476D01*
X103108095Y-81272095D01*
X89511143Y-63158666D02*
X89558762Y-63206285D01*
X89606381Y-63349142D01*
X89606381Y-63444380D01*
X89558762Y-63587238D01*
X89463524Y-63682476D01*
X89368286Y-63730095D01*
X89177810Y-63777714D01*
X89034952Y-63777714D01*
X88844476Y-63730095D01*
X88749238Y-63682476D01*
X88654000Y-63587238D01*
X88606381Y-63444380D01*
X88606381Y-63349142D01*
X88654000Y-63206285D01*
X88701619Y-63158666D01*
X88606381Y-62253904D02*
X88606381Y-62730095D01*
X89082571Y-62777714D01*
X89034952Y-62730095D01*
X88987333Y-62634857D01*
X88987333Y-62396761D01*
X89034952Y-62301523D01*
X89082571Y-62253904D01*
X89177810Y-62206285D01*
X89415905Y-62206285D01*
X89511143Y-62253904D01*
X89558762Y-62301523D01*
X89606381Y-62396761D01*
X89606381Y-62634857D01*
X89558762Y-62730095D01*
X89511143Y-62777714D01*
%LPC*%
D14*
X104919400Y-71270800D03*
X104919400Y-70620800D03*
X104919400Y-69971700D03*
X104919400Y-69320800D03*
X104919400Y-68670800D03*
D15*
X105144400Y-73170800D03*
D16*
X107594400Y-73520800D03*
D17*
X107594400Y-71170800D03*
X107594400Y-68770800D03*
D15*
X105144400Y-66770800D03*
D16*
X107594400Y-66420800D03*
D18*
X104697400Y-80746600D03*
X106197400Y-80746600D03*
D19*
X99695000Y-84685000D03*
X99695000Y-83185000D03*
D20*
X83312000Y-72231000D03*
X83312000Y-70231000D03*
D19*
X72644000Y-82054000D03*
X72644000Y-83554000D03*
D18*
X93444000Y-78091800D03*
X94944000Y-78091800D03*
D19*
X81153000Y-71997000D03*
X81153000Y-70497000D03*
D18*
X94194000Y-79891800D03*
X95694000Y-79891800D03*
X90297000Y-65405000D03*
X91797000Y-65405000D03*
X89281000Y-79248000D03*
X90781000Y-79248000D03*
X95758000Y-67691000D03*
X97258000Y-67691000D03*
D19*
X102158800Y-71399400D03*
X102158800Y-72899400D03*
D21*
X105699560Y-77495400D03*
X101701600Y-77495400D03*
D19*
X102158800Y-69570600D03*
X102158800Y-68070600D03*
D20*
X100076000Y-66649600D03*
X100076000Y-68649600D03*
D22*
X72644000Y-72390000D03*
X74644000Y-72390000D03*
D20*
X83312000Y-74295000D03*
X83312000Y-76295000D03*
D19*
X70612000Y-75450000D03*
X70612000Y-76950000D03*
X72644000Y-75438000D03*
X72644000Y-76938000D03*
D18*
X72668000Y-79248000D03*
X74168000Y-79248000D03*
D23*
X77724000Y-82394000D03*
X77724000Y-78994000D03*
D24*
X86753000Y-69049200D03*
X86753000Y-69549200D03*
X86753000Y-70049200D03*
X86753000Y-70549200D03*
X86753000Y-71049200D03*
X86753000Y-71549200D03*
X86753000Y-72049200D03*
X86753000Y-72549200D03*
X86753000Y-73049200D03*
X86753000Y-73549200D03*
X86753000Y-74049200D03*
X86753000Y-74549200D03*
D25*
X88353000Y-76149200D03*
X88853000Y-76149200D03*
X89353000Y-76149200D03*
X89853000Y-76149200D03*
X90353000Y-76149200D03*
X90853000Y-76149200D03*
X91353000Y-76149200D03*
X91853000Y-76149200D03*
X92353000Y-76149200D03*
X92853000Y-76149200D03*
X93353000Y-76149200D03*
X93853000Y-76149200D03*
D24*
X95453000Y-74549200D03*
X95453000Y-74049200D03*
X95453000Y-73549200D03*
X95453000Y-73049200D03*
X95453000Y-72549200D03*
X95453000Y-72049200D03*
X95453000Y-71549200D03*
X95453000Y-71049200D03*
X95453000Y-70549200D03*
X95453000Y-70049200D03*
X95453000Y-69549200D03*
X95453000Y-69049200D03*
D25*
X93853000Y-67449200D03*
X93353000Y-67449200D03*
X92853000Y-67449200D03*
X92353000Y-67449200D03*
X91853000Y-67449200D03*
X91353000Y-67449200D03*
X90853000Y-67449200D03*
X90353000Y-67449200D03*
X89853000Y-67449200D03*
X89353000Y-67449200D03*
X88853000Y-67449200D03*
X88353000Y-67449200D03*
D26*
X95814400Y-81891800D03*
X91344000Y-81891800D03*
X95814400Y-84381000D03*
X91344000Y-84381000D03*
D27*
X104070000Y-84930800D03*
X104070000Y-83940800D03*
X104070000Y-82950800D03*
X101670000Y-82950800D03*
X101670000Y-84930800D03*
D28*
X64770000Y-58420000D03*
D29*
X67310000Y-58420000D03*
X69850000Y-58420000D03*
X72390000Y-58420000D03*
X74930000Y-58420000D03*
X77470000Y-58420000D03*
X80010000Y-58420000D03*
X82550000Y-58420000D03*
X85090000Y-58420000D03*
X87630000Y-58420000D03*
X90170000Y-58420000D03*
X92710000Y-58420000D03*
X95250000Y-58420000D03*
X97790000Y-58420000D03*
X100330000Y-58420000D03*
X102870000Y-58420000D03*
X105410000Y-58420000D03*
X107950000Y-58420000D03*
D28*
X64770000Y-91440000D03*
D29*
X67310000Y-91440000D03*
X69850000Y-91440000D03*
X72390000Y-91440000D03*
X74930000Y-91440000D03*
X77470000Y-91440000D03*
X80010000Y-91440000D03*
X82550000Y-91440000D03*
X85090000Y-91440000D03*
X87630000Y-91440000D03*
X90170000Y-91440000D03*
X92710000Y-91440000D03*
X95250000Y-91440000D03*
X97790000Y-91440000D03*
X100330000Y-91440000D03*
X102870000Y-91440000D03*
X105410000Y-91440000D03*
X107950000Y-91440000D03*
D30*
X65024000Y-74422000D03*
D31*
X65024000Y-76962000D03*
X65024000Y-79502000D03*
X65024000Y-82042000D03*
X65024000Y-84582000D03*
D18*
X90551000Y-62992000D03*
X92051000Y-62992000D03*
M02*
