G04 This is an RS-274x file exported by *
G04 gerbv version 2.6.0 *
G04 More information is available about gerbv at *
G04 http://gerbv.gpleda.org/ *
G04 --End of header info--*
%MOIN*%
%FSLAX34Y34*%
%IPPOS*%
G04 --Define apertures--*
%ADD10C,0.0050*%
%ADD11C,0.0060*%
%ADD12C,0.0079*%
%ADD13C,0.0118*%
%ADD14C,0.0138*%
%ADD15C,0.0059*%
G04 --Start main section--*
G54D11*
G01X0025300Y-022250D02*
G75*
G03X0024550Y-023000I0000000J-000750D01*
G01X0024550Y-036000D02*
G75*
G03X0025300Y-036750I0000750J0000000D01*
G01X0042500Y-036750D02*
G75*
G03X0043500Y-035750I0000000J0001000D01*
G01X0043500Y-023250D02*
G75*
G03X0042500Y-022250I-001000J0000000D01*
G01X0042500Y-022250D02*
G01X0025300Y-022250D01*
G01X0043500Y-035750D02*
G01X0043500Y-023250D01*
G01X0025300Y-036750D02*
G01X0042500Y-036750D01*
G01X0024550Y-023000D02*
G01X0024550Y-036000D01*
G54D12*
G01X0025035Y-027635D02*
G01X0025165Y-027765D01*
G01X0025165Y-027635D02*
G01X0025035Y-027765D01*
G01X0027935Y-028435D02*
G01X0028065Y-028565D01*
G01X0028065Y-028435D02*
G01X0027935Y-028565D01*
G01X0028935Y-032835D02*
G01X0029065Y-032965D01*
G01X0029065Y-032835D02*
G01X0028935Y-032965D01*
G01X0029335Y-027635D02*
G01X0029465Y-027765D01*
G01X0029465Y-027635D02*
G01X0029335Y-027765D01*
G01X0029335Y-029135D02*
G01X0029465Y-029265D01*
G01X0029465Y-029135D02*
G01X0029335Y-029265D01*
G01X0029335Y-029835D02*
G01X0029465Y-029965D01*
G01X0029465Y-029835D02*
G01X0029335Y-029965D01*
G01X0029835Y-032435D02*
G01X0029965Y-032565D01*
G01X0029965Y-032435D02*
G01X0029835Y-032565D01*
G01X0030535Y-028335D02*
G01X0030665Y-028465D01*
G01X0030665Y-028335D02*
G01X0030535Y-028465D01*
G01X0030535Y-028735D02*
G01X0030665Y-028865D01*
G01X0030665Y-028735D02*
G01X0030535Y-028865D01*
G01X0030535Y-029135D02*
G01X0030665Y-029265D01*
G01X0030665Y-029135D02*
G01X0030535Y-029265D01*
G01X0030935Y-028235D02*
G01X0031065Y-028365D01*
G01X0031065Y-028235D02*
G01X0030935Y-028365D01*
G01X0031335Y-027335D02*
G01X0031465Y-027465D01*
G01X0031465Y-027335D02*
G01X0031335Y-027465D01*
G01X0032135Y-027585D02*
G01X0032265Y-027715D01*
G01X0032265Y-027585D02*
G01X0032135Y-027715D01*
G01X0033129Y-027582D02*
G01X0033259Y-027712D01*
G01X0033259Y-027582D02*
G01X0033129Y-027712D01*
G01X0033335Y-029135D02*
G01X0033465Y-029265D01*
G01X0033465Y-029135D02*
G01X0033335Y-029265D01*
G01X0033435Y-028535D02*
G01X0033565Y-028665D01*
G01X0033565Y-028535D02*
G01X0033435Y-028665D01*
G01X0033524Y-029529D02*
G01X0033654Y-029659D01*
G01X0033654Y-029529D02*
G01X0033524Y-029659D01*
G01X0033528Y-032629D02*
G01X0033658Y-032759D01*
G01X0033658Y-032629D02*
G01X0033528Y-032759D01*
G01X0033803Y-032846D02*
G01X0033933Y-032976D01*
G01X0033933Y-032846D02*
G01X0033803Y-032976D01*
G01X0034135Y-032735D02*
G01X0034265Y-032865D01*
G01X0034265Y-032735D02*
G01X0034135Y-032865D01*
G01X0034467Y-032846D02*
G01X0034597Y-032976D01*
G01X0034597Y-032846D02*
G01X0034467Y-032976D01*
G01X0034505Y-028888D02*
G01X0034635Y-029018D01*
G01X0034635Y-028888D02*
G01X0034505Y-029018D01*
G01X0034570Y-029443D02*
G01X0034700Y-029573D01*
G01X0034700Y-029443D02*
G01X0034570Y-029573D01*
G01X0034635Y-028035D02*
G01X0034765Y-028165D01*
G01X0034765Y-028035D02*
G01X0034635Y-028165D01*
G01X0034662Y-028420D02*
G01X0034792Y-028550D01*
G01X0034792Y-028420D02*
G01X0034662Y-028550D01*
G01X0034735Y-027035D02*
G01X0034865Y-027165D01*
G01X0034865Y-027035D02*
G01X0034735Y-027165D01*
G01X0034835Y-025335D02*
G01X0034965Y-025465D01*
G01X0034965Y-025335D02*
G01X0034835Y-025465D01*
G01X0034935Y-035135D02*
G01X0035065Y-035265D01*
G01X0035065Y-035135D02*
G01X0034935Y-035265D01*
G01X0035103Y-028746D02*
G01X0035233Y-028876D01*
G01X0035233Y-028746D02*
G01X0035103Y-028876D01*
G01X0035435Y-028635D02*
G01X0035565Y-028765D01*
G01X0035565Y-028635D02*
G01X0035435Y-028765D01*
G01X0035776Y-029319D02*
G01X0035906Y-029449D01*
G01X0035906Y-029319D02*
G01X0035776Y-029449D01*
G01X0035923Y-027035D02*
G01X0036053Y-027165D01*
G01X0036053Y-027035D02*
G01X0035923Y-027165D01*
G01X0036035Y-028135D02*
G01X0036165Y-028265D01*
G01X0036165Y-028135D02*
G01X0036035Y-028265D01*
G01X0036135Y-034535D02*
G01X0036265Y-034665D01*
G01X0036265Y-034535D02*
G01X0036135Y-034665D01*
G01X0036235Y-025235D02*
G01X0036365Y-025365D01*
G01X0036365Y-025235D02*
G01X0036235Y-025365D01*
G01X0036235Y-028935D02*
G01X0036365Y-029065D01*
G01X0036365Y-028935D02*
G01X0036235Y-029065D01*
G01X0036273Y-027047D02*
G01X0036403Y-027177D01*
G01X0036403Y-027047D02*
G01X0036273Y-027177D01*
G01X0036535Y-029135D02*
G01X0036665Y-029265D01*
G01X0036665Y-029135D02*
G01X0036535Y-029265D01*
G01X0036685Y-027563D02*
G01X0036815Y-027693D01*
G01X0036815Y-027563D02*
G01X0036685Y-027693D01*
G01X0036685Y-028685D02*
G01X0036815Y-028815D01*
G01X0036815Y-028685D02*
G01X0036685Y-028815D01*
G01X0036735Y-029435D02*
G01X0036865Y-029565D01*
G01X0036865Y-029435D02*
G01X0036735Y-029565D01*
G01X0036885Y-024785D02*
G01X0037015Y-024915D01*
G01X0037015Y-024785D02*
G01X0036885Y-024915D01*
G01X0037535Y-029935D02*
G01X0037665Y-030065D01*
G01X0037665Y-029935D02*
G01X0037535Y-030065D01*
G01X0037945Y-029737D02*
G01X0038075Y-029867D01*
G01X0038075Y-029737D02*
G01X0037945Y-029867D01*
G01X0038235Y-026035D02*
G01X0038365Y-026165D01*
G01X0038365Y-026035D02*
G01X0038235Y-026165D01*
G01X0038235Y-027085D02*
G01X0038365Y-027215D01*
G01X0038365Y-027085D02*
G01X0038235Y-027215D01*
G01X0038295Y-029727D02*
G01X0038425Y-029857D01*
G01X0038425Y-029727D02*
G01X0038295Y-029857D01*
G01X0038643Y-029771D02*
G01X0038773Y-029901D01*
G01X0038773Y-029771D02*
G01X0038643Y-029901D01*
G01X0038968Y-029643D02*
G01X0039098Y-029773D01*
G01X0039098Y-029643D02*
G01X0038968Y-029773D01*
G01X0039073Y-029302D02*
G01X0039203Y-029432D01*
G01X0039203Y-029302D02*
G01X0039073Y-029432D01*
G01X0039412Y-028878D02*
G01X0039542Y-029008D01*
G01X0039542Y-028878D02*
G01X0039412Y-029008D01*
G01X0039442Y-029317D02*
G01X0039572Y-029447D01*
G01X0039572Y-029317D02*
G01X0039442Y-029447D01*
G01X0039808Y-026835D02*
G01X0039938Y-026965D01*
G01X0039938Y-026835D02*
G01X0039808Y-026965D01*
G01X0039826Y-028525D02*
G01X0039956Y-028655D01*
G01X0039956Y-028525D02*
G01X0039826Y-028655D01*
G01X0040026Y-029117D02*
G01X0040156Y-029247D01*
G01X0040156Y-029117D02*
G01X0040026Y-029247D01*
G01X0041735Y-031235D02*
G01X0041865Y-031365D01*
G01X0041865Y-031235D02*
G01X0041735Y-031365D01*
G01X0041799Y-032799D02*
G01X0041929Y-032929D01*
G01X0041929Y-032799D02*
G01X0041799Y-032929D01*
G01X0025700Y-023000D02*
G75*
G03X0025700Y-023000I-000200J0000000D01*
G01X0025700Y-036000D02*
G75*
G03X0025700Y-036000I-000200J0000000D01*
G01X0025800Y-029300D02*
G75*
G03X0025800Y-029300I-000200J0000000D01*
G01X0025800Y-030300D02*
G75*
G03X0025800Y-030300I-000200J0000000D01*
G01X0025800Y-031300D02*
G75*
G03X0025800Y-031300I-000200J0000000D01*
G01X0025800Y-032300D02*
G75*
G03X0025800Y-032300I-000200J0000000D01*
G01X0025800Y-033300D02*
G75*
G03X0025800Y-033300I-000200J0000000D01*
G01X0026700Y-023000D02*
G75*
G03X0026700Y-023000I-000200J0000000D01*
G01X0026700Y-036000D02*
G75*
G03X0026700Y-036000I-000200J0000000D01*
G01X0027700Y-023000D02*
G75*
G03X0027700Y-023000I-000200J0000000D01*
G01X0027700Y-036000D02*
G75*
G03X0027700Y-036000I-000200J0000000D01*
G01X0028700Y-023000D02*
G75*
G03X0028700Y-023000I-000200J0000000D01*
G01X0028700Y-036000D02*
G75*
G03X0028700Y-036000I-000200J0000000D01*
G01X0029700Y-023000D02*
G75*
G03X0029700Y-023000I-000200J0000000D01*
G01X0029700Y-036000D02*
G75*
G03X0029700Y-036000I-000200J0000000D01*
G01X0030700Y-023000D02*
G75*
G03X0030700Y-023000I-000200J0000000D01*
G01X0030700Y-036000D02*
G75*
G03X0030700Y-036000I-000200J0000000D01*
G01X0031700Y-023000D02*
G75*
G03X0031700Y-023000I-000200J0000000D01*
G01X0031700Y-036000D02*
G75*
G03X0031700Y-036000I-000200J0000000D01*
G01X0032700Y-023000D02*
G75*
G03X0032700Y-023000I-000200J0000000D01*
G01X0032700Y-036000D02*
G75*
G03X0032700Y-036000I-000200J0000000D01*
G01X0033700Y-023000D02*
G75*
G03X0033700Y-023000I-000200J0000000D01*
G01X0033700Y-036000D02*
G75*
G03X0033700Y-036000I-000200J0000000D01*
G01X0034700Y-023000D02*
G75*
G03X0034700Y-023000I-000200J0000000D01*
G01X0034700Y-036000D02*
G75*
G03X0034700Y-036000I-000200J0000000D01*
G01X0035700Y-023000D02*
G75*
G03X0035700Y-023000I-000200J0000000D01*
G01X0035700Y-036000D02*
G75*
G03X0035700Y-036000I-000200J0000000D01*
G01X0036700Y-023000D02*
G75*
G03X0036700Y-023000I-000200J0000000D01*
G01X0036700Y-036000D02*
G75*
G03X0036700Y-036000I-000200J0000000D01*
G01X0037700Y-023000D02*
G75*
G03X0037700Y-023000I-000200J0000000D01*
G01X0037700Y-036000D02*
G75*
G03X0037700Y-036000I-000200J0000000D01*
G01X0038700Y-023000D02*
G75*
G03X0038700Y-023000I-000200J0000000D01*
G01X0038700Y-036000D02*
G75*
G03X0038700Y-036000I-000200J0000000D01*
G01X0039700Y-023000D02*
G75*
G03X0039700Y-023000I-000200J0000000D01*
G01X0039700Y-036000D02*
G75*
G03X0039700Y-036000I-000200J0000000D01*
G01X0040700Y-023000D02*
G75*
G03X0040700Y-023000I-000200J0000000D01*
G01X0040700Y-036000D02*
G75*
G03X0040700Y-036000I-000200J0000000D01*
G01X0041700Y-023000D02*
G75*
G03X0041700Y-023000I-000200J0000000D01*
G01X0041700Y-036000D02*
G75*
G03X0041700Y-036000I-000200J0000000D01*
G01X0042700Y-023000D02*
G75*
G03X0042700Y-023000I-000200J0000000D01*
G01X0042700Y-036000D02*
G75*
G03X0042700Y-036000I-000200J0000000D01*
G01X0042360Y-025914D02*
G01X0042360Y-026386D01*
G01X0042124Y-026150D02*
G01X0042596Y-026150D01*
G01X0042360Y-028709D02*
G01X0042360Y-029181D01*
G01X0042124Y-028945D02*
G01X0042596Y-028945D01*
G54D13*
G01X0025589Y-038614D02*
G01X0025589Y-037432D01*
G01X0025589Y-037432D02*
G01X0025870Y-037432D01*
G01X0025870Y-037432D02*
G01X0026039Y-037489D01*
G01X0026039Y-037489D02*
G01X0026151Y-037601D01*
G01X0026151Y-037601D02*
G01X0026207Y-037714D01*
G01X0026207Y-037714D02*
G01X0026264Y-037939D01*
G01X0026264Y-037939D02*
G01X0026264Y-038107D01*
G01X0026264Y-038107D02*
G01X0026207Y-038332D01*
G01X0026207Y-038332D02*
G01X0026151Y-038445D01*
G01X0026151Y-038445D02*
G01X0026039Y-038557D01*
G01X0026039Y-038557D02*
G01X0025870Y-038614D01*
G01X0025870Y-038614D02*
G01X0025589Y-038614D01*
G01X0026770Y-038614D02*
G01X0026770Y-037826D01*
G01X0026770Y-038051D02*
G01X0026826Y-037939D01*
G01X0026826Y-037939D02*
G01X0026882Y-037882D01*
G01X0026882Y-037882D02*
G01X0026995Y-037826D01*
G01X0026995Y-037826D02*
G01X0027107Y-037826D01*
G01X0027501Y-038614D02*
G01X0027501Y-037826D01*
G01X0027501Y-037432D02*
G01X0027445Y-037489D01*
G01X0027445Y-037489D02*
G01X0027501Y-037545D01*
G01X0027501Y-037545D02*
G01X0027557Y-037489D01*
G01X0027557Y-037489D02*
G01X0027501Y-037432D01*
G01X0027501Y-037432D02*
G01X0027501Y-037545D01*
G01X0028232Y-038614D02*
G01X0028120Y-038557D01*
G01X0028120Y-038557D02*
G01X0028063Y-038445D01*
G01X0028063Y-038445D02*
G01X0028063Y-037432D01*
G01X0028851Y-038614D02*
G01X0028738Y-038557D01*
G01X0028738Y-038557D02*
G01X0028682Y-038445D01*
G01X0028682Y-038445D02*
G01X0028682Y-037432D01*
G01X0030201Y-038614D02*
G01X0030201Y-037432D01*
G01X0030201Y-037432D02*
G01X0030594Y-038276D01*
G01X0030594Y-038276D02*
G01X0030988Y-037432D01*
G01X0030988Y-037432D02*
G01X0030988Y-038614D01*
G01X0032057Y-038614D02*
G01X0032057Y-037995D01*
G01X0032057Y-037995D02*
G01X0032000Y-037882D01*
G01X0032000Y-037882D02*
G01X0031888Y-037826D01*
G01X0031888Y-037826D02*
G01X0031663Y-037826D01*
G01X0031663Y-037826D02*
G01X0031550Y-037882D01*
G01X0032057Y-038557D02*
G01X0031944Y-038614D01*
G01X0031944Y-038614D02*
G01X0031663Y-038614D01*
G01X0031663Y-038614D02*
G01X0031550Y-038557D01*
G01X0031550Y-038557D02*
G01X0031494Y-038445D01*
G01X0031494Y-038445D02*
G01X0031494Y-038332D01*
G01X0031494Y-038332D02*
G01X0031550Y-038220D01*
G01X0031550Y-038220D02*
G01X0031663Y-038164D01*
G01X0031663Y-038164D02*
G01X0031944Y-038164D01*
G01X0031944Y-038164D02*
G01X0032057Y-038107D01*
G01X0032619Y-037826D02*
G01X0032619Y-039007D01*
G01X0032619Y-037882D02*
G01X0032731Y-037826D01*
G01X0032731Y-037826D02*
G01X0032956Y-037826D01*
G01X0032956Y-037826D02*
G01X0033069Y-037882D01*
G01X0033069Y-037882D02*
G01X0033125Y-037939D01*
G01X0033125Y-037939D02*
G01X0033181Y-038051D01*
G01X0033181Y-038051D02*
G01X0033181Y-038389D01*
G01X0033181Y-038389D02*
G01X0033125Y-038501D01*
G01X0033125Y-038501D02*
G01X0033069Y-038557D01*
G01X0033069Y-038557D02*
G01X0032956Y-038614D01*
G01X0032956Y-038614D02*
G01X0032731Y-038614D01*
G01X0032731Y-038614D02*
G01X0032619Y-038557D01*
G01X0033688Y-038501D02*
G01X0033744Y-038557D01*
G01X0033744Y-038557D02*
G01X0033688Y-038614D01*
G01X0033688Y-038614D02*
G01X0033631Y-038557D01*
G01X0033631Y-038557D02*
G01X0033688Y-038501D01*
G01X0033688Y-038501D02*
G01X0033688Y-038614D01*
G01X0033688Y-037882D02*
G01X0033744Y-037939D01*
G01X0033744Y-037939D02*
G01X0033688Y-037995D01*
G01X0033688Y-037995D02*
G01X0033631Y-037939D01*
G01X0033631Y-037939D02*
G01X0033688Y-037882D01*
G01X0033688Y-037882D02*
G01X0033688Y-037995D01*
G01X0024390Y-040495D02*
G01X0024520Y-040625D01*
G01X0024520Y-040495D02*
G01X0024390Y-040625D01*
G01X0025814Y-039913D02*
G01X0025926Y-039913D01*
G01X0025926Y-039913D02*
G01X0026039Y-039969D01*
G01X0026039Y-039969D02*
G01X0026095Y-040025D01*
G01X0026095Y-040025D02*
G01X0026151Y-040138D01*
G01X0026151Y-040138D02*
G01X0026207Y-040363D01*
G01X0026207Y-040363D02*
G01X0026207Y-040644D01*
G01X0026207Y-040644D02*
G01X0026151Y-040869D01*
G01X0026151Y-040869D02*
G01X0026095Y-040981D01*
G01X0026095Y-040981D02*
G01X0026039Y-041038D01*
G01X0026039Y-041038D02*
G01X0025926Y-041094D01*
G01X0025926Y-041094D02*
G01X0025814Y-041094D01*
G01X0025814Y-041094D02*
G01X0025701Y-041038D01*
G01X0025701Y-041038D02*
G01X0025645Y-040981D01*
G01X0025645Y-040981D02*
G01X0025589Y-040869D01*
G01X0025589Y-040869D02*
G01X0025532Y-040644D01*
G01X0025532Y-040644D02*
G01X0025532Y-040363D01*
G01X0025532Y-040363D02*
G01X0025589Y-040138D01*
G01X0025589Y-040138D02*
G01X0025645Y-040025D01*
G01X0025645Y-040025D02*
G01X0025701Y-039969D01*
G01X0025701Y-039969D02*
G01X0025814Y-039913D01*
G01X0026713Y-040981D02*
G01X0026770Y-041038D01*
G01X0026770Y-041038D02*
G01X0026713Y-041094D01*
G01X0026713Y-041094D02*
G01X0026657Y-041038D01*
G01X0026657Y-041038D02*
G01X0026713Y-040981D01*
G01X0026713Y-040981D02*
G01X0026713Y-041094D01*
G01X0027163Y-039913D02*
G01X0027895Y-039913D01*
G01X0027895Y-039913D02*
G01X0027501Y-040363D01*
G01X0027501Y-040363D02*
G01X0027670Y-040363D01*
G01X0027670Y-040363D02*
G01X0027782Y-040419D01*
G01X0027782Y-040419D02*
G01X0027838Y-040475D01*
G01X0027838Y-040475D02*
G01X0027895Y-040588D01*
G01X0027895Y-040588D02*
G01X0027895Y-040869D01*
G01X0027895Y-040869D02*
G01X0027838Y-040981D01*
G01X0027838Y-040981D02*
G01X0027782Y-041038D01*
G01X0027782Y-041038D02*
G01X0027670Y-041094D01*
G01X0027670Y-041094D02*
G01X0027332Y-041094D01*
G01X0027332Y-041094D02*
G01X0027220Y-041038D01*
G01X0027220Y-041038D02*
G01X0027163Y-040981D01*
G01X0028288Y-039913D02*
G01X0029019Y-039913D01*
G01X0029019Y-039913D02*
G01X0028626Y-040363D01*
G01X0028626Y-040363D02*
G01X0028794Y-040363D01*
G01X0028794Y-040363D02*
G01X0028907Y-040419D01*
G01X0028907Y-040419D02*
G01X0028963Y-040475D01*
G01X0028963Y-040475D02*
G01X0029019Y-040588D01*
G01X0029019Y-040588D02*
G01X0029019Y-040869D01*
G01X0029019Y-040869D02*
G01X0028963Y-040981D01*
G01X0028963Y-040981D02*
G01X0028907Y-041038D01*
G01X0028907Y-041038D02*
G01X0028794Y-041094D01*
G01X0028794Y-041094D02*
G01X0028457Y-041094D01*
G01X0028457Y-041094D02*
G01X0028345Y-041038D01*
G01X0028345Y-041038D02*
G01X0028288Y-040981D01*
G01X0029526Y-041094D02*
G01X0029526Y-040306D01*
G01X0029526Y-040419D02*
G01X0029582Y-040363D01*
G01X0029582Y-040363D02*
G01X0029694Y-040306D01*
G01X0029694Y-040306D02*
G01X0029863Y-040306D01*
G01X0029863Y-040306D02*
G01X0029976Y-040363D01*
G01X0029976Y-040363D02*
G01X0030032Y-040475D01*
G01X0030032Y-040475D02*
G01X0030032Y-041094D01*
G01X0030032Y-040475D02*
G01X0030088Y-040363D01*
G01X0030088Y-040363D02*
G01X0030201Y-040306D01*
G01X0030201Y-040306D02*
G01X0030369Y-040306D01*
G01X0030369Y-040306D02*
G01X0030482Y-040363D01*
G01X0030482Y-040363D02*
G01X0030538Y-040475D01*
G01X0030538Y-040475D02*
G01X0030538Y-041094D01*
G01X0031100Y-041094D02*
G01X0031100Y-040306D01*
G01X0031100Y-040419D02*
G01X0031157Y-040363D01*
G01X0031157Y-040363D02*
G01X0031269Y-040306D01*
G01X0031269Y-040306D02*
G01X0031438Y-040306D01*
G01X0031438Y-040306D02*
G01X0031550Y-040363D01*
G01X0031550Y-040363D02*
G01X0031607Y-040475D01*
G01X0031607Y-040475D02*
G01X0031607Y-041094D01*
G01X0031607Y-040475D02*
G01X0031663Y-040363D01*
G01X0031663Y-040363D02*
G01X0031775Y-040306D01*
G01X0031775Y-040306D02*
G01X0031944Y-040306D01*
G01X0031944Y-040306D02*
G01X0032057Y-040363D01*
G01X0032057Y-040363D02*
G01X0032113Y-040475D01*
G01X0032113Y-040475D02*
G01X0032113Y-041094D01*
G01X0034419Y-039856D02*
G01X0033406Y-041375D01*
G01X0035937Y-039913D02*
G01X0036050Y-039913D01*
G01X0036050Y-039913D02*
G01X0036162Y-039969D01*
G01X0036162Y-039969D02*
G01X0036219Y-040025D01*
G01X0036219Y-040025D02*
G01X0036275Y-040138D01*
G01X0036275Y-040138D02*
G01X0036331Y-040363D01*
G01X0036331Y-040363D02*
G01X0036331Y-040644D01*
G01X0036331Y-040644D02*
G01X0036275Y-040869D01*
G01X0036275Y-040869D02*
G01X0036219Y-040981D01*
G01X0036219Y-040981D02*
G01X0036162Y-041038D01*
G01X0036162Y-041038D02*
G01X0036050Y-041094D01*
G01X0036050Y-041094D02*
G01X0035937Y-041094D01*
G01X0035937Y-041094D02*
G01X0035825Y-041038D01*
G01X0035825Y-041038D02*
G01X0035769Y-040981D01*
G01X0035769Y-040981D02*
G01X0035712Y-040869D01*
G01X0035712Y-040869D02*
G01X0035656Y-040644D01*
G01X0035656Y-040644D02*
G01X0035656Y-040363D01*
G01X0035656Y-040363D02*
G01X0035712Y-040138D01*
G01X0035712Y-040138D02*
G01X0035769Y-040025D01*
G01X0035769Y-040025D02*
G01X0035825Y-039969D01*
G01X0035825Y-039969D02*
G01X0035937Y-039913D01*
G01X0036837Y-040981D02*
G01X0036893Y-041038D01*
G01X0036893Y-041038D02*
G01X0036837Y-041094D01*
G01X0036837Y-041094D02*
G01X0036781Y-041038D01*
G01X0036781Y-041038D02*
G01X0036837Y-040981D01*
G01X0036837Y-040981D02*
G01X0036837Y-041094D01*
G01X0037625Y-039913D02*
G01X0037737Y-039913D01*
G01X0037737Y-039913D02*
G01X0037850Y-039969D01*
G01X0037850Y-039969D02*
G01X0037906Y-040025D01*
G01X0037906Y-040025D02*
G01X0037962Y-040138D01*
G01X0037962Y-040138D02*
G01X0038018Y-040363D01*
G01X0038018Y-040363D02*
G01X0038018Y-040644D01*
G01X0038018Y-040644D02*
G01X0037962Y-040869D01*
G01X0037962Y-040869D02*
G01X0037906Y-040981D01*
G01X0037906Y-040981D02*
G01X0037850Y-041038D01*
G01X0037850Y-041038D02*
G01X0037737Y-041094D01*
G01X0037737Y-041094D02*
G01X0037625Y-041094D01*
G01X0037625Y-041094D02*
G01X0037512Y-041038D01*
G01X0037512Y-041038D02*
G01X0037456Y-040981D01*
G01X0037456Y-040981D02*
G01X0037400Y-040869D01*
G01X0037400Y-040869D02*
G01X0037343Y-040644D01*
G01X0037343Y-040644D02*
G01X0037343Y-040363D01*
G01X0037343Y-040363D02*
G01X0037400Y-040138D01*
G01X0037400Y-040138D02*
G01X0037456Y-040025D01*
G01X0037456Y-040025D02*
G01X0037512Y-039969D01*
G01X0037512Y-039969D02*
G01X0037625Y-039913D01*
G01X0039143Y-041094D02*
G01X0038468Y-041094D01*
G01X0038806Y-041094D02*
G01X0038806Y-039913D01*
G01X0038806Y-039913D02*
G01X0038693Y-040081D01*
G01X0038693Y-040081D02*
G01X0038581Y-040194D01*
G01X0038581Y-040194D02*
G01X0038468Y-040250D01*
G01X0039537Y-039913D02*
G01X0040268Y-039913D01*
G01X0040268Y-039913D02*
G01X0039874Y-040363D01*
G01X0039874Y-040363D02*
G01X0040043Y-040363D01*
G01X0040043Y-040363D02*
G01X0040156Y-040419D01*
G01X0040156Y-040419D02*
G01X0040212Y-040475D01*
G01X0040212Y-040475D02*
G01X0040268Y-040588D01*
G01X0040268Y-040588D02*
G01X0040268Y-040869D01*
G01X0040268Y-040869D02*
G01X0040212Y-040981D01*
G01X0040212Y-040981D02*
G01X0040156Y-041038D01*
G01X0040156Y-041038D02*
G01X0040043Y-041094D01*
G01X0040043Y-041094D02*
G01X0039706Y-041094D01*
G01X0039706Y-041094D02*
G01X0039593Y-041038D01*
G01X0039593Y-041038D02*
G01X0039537Y-040981D01*
G01X0040718Y-039913D02*
G01X0040718Y-040138D01*
G01X0041168Y-039913D02*
G01X0041168Y-040138D01*
G01X0042911Y-041544D02*
G01X0042855Y-041488D01*
G01X0042855Y-041488D02*
G01X0042743Y-041319D01*
G01X0042743Y-041319D02*
G01X0042686Y-041206D01*
G01X0042686Y-041206D02*
G01X0042630Y-041038D01*
G01X0042630Y-041038D02*
G01X0042574Y-040756D01*
G01X0042574Y-040756D02*
G01X0042574Y-040531D01*
G01X0042574Y-040531D02*
G01X0042630Y-040250D01*
G01X0042630Y-040250D02*
G01X0042686Y-040081D01*
G01X0042686Y-040081D02*
G01X0042743Y-039969D01*
G01X0042743Y-039969D02*
G01X0042855Y-039800D01*
G01X0042855Y-039800D02*
G01X0042911Y-039744D01*
G01X0043924Y-039913D02*
G01X0043361Y-039913D01*
G01X0043361Y-039913D02*
G01X0043305Y-040475D01*
G01X0043305Y-040475D02*
G01X0043361Y-040419D01*
G01X0043361Y-040419D02*
G01X0043474Y-040363D01*
G01X0043474Y-040363D02*
G01X0043755Y-040363D01*
G01X0043755Y-040363D02*
G01X0043868Y-040419D01*
G01X0043868Y-040419D02*
G01X0043924Y-040475D01*
G01X0043924Y-040475D02*
G01X0043980Y-040588D01*
G01X0043980Y-040588D02*
G01X0043980Y-040869D01*
G01X0043980Y-040869D02*
G01X0043924Y-040981D01*
G01X0043924Y-040981D02*
G01X0043868Y-041038D01*
G01X0043868Y-041038D02*
G01X0043755Y-041094D01*
G01X0043755Y-041094D02*
G01X0043474Y-041094D01*
G01X0043474Y-041094D02*
G01X0043361Y-041038D01*
G01X0043361Y-041038D02*
G01X0043305Y-040981D01*
G01X0044374Y-039913D02*
G01X0045161Y-039913D01*
G01X0045161Y-039913D02*
G01X0044655Y-041094D01*
G01X0046511Y-041094D02*
G01X0046511Y-039913D01*
G01X0047017Y-041094D02*
G01X0047017Y-040475D01*
G01X0047017Y-040475D02*
G01X0046961Y-040363D01*
G01X0046961Y-040363D02*
G01X0046848Y-040306D01*
G01X0046848Y-040306D02*
G01X0046680Y-040306D01*
G01X0046680Y-040306D02*
G01X0046567Y-040363D01*
G01X0046567Y-040363D02*
G01X0046511Y-040419D01*
G01X0047748Y-041094D02*
G01X0047636Y-041038D01*
G01X0047636Y-041038D02*
G01X0047580Y-040981D01*
G01X0047580Y-040981D02*
G01X0047523Y-040869D01*
G01X0047523Y-040869D02*
G01X0047523Y-040531D01*
G01X0047523Y-040531D02*
G01X0047580Y-040419D01*
G01X0047580Y-040419D02*
G01X0047636Y-040363D01*
G01X0047636Y-040363D02*
G01X0047748Y-040306D01*
G01X0047748Y-040306D02*
G01X0047917Y-040306D01*
G01X0047917Y-040306D02*
G01X0048030Y-040363D01*
G01X0048030Y-040363D02*
G01X0048086Y-040419D01*
G01X0048086Y-040419D02*
G01X0048142Y-040531D01*
G01X0048142Y-040531D02*
G01X0048142Y-040869D01*
G01X0048142Y-040869D02*
G01X0048086Y-040981D01*
G01X0048086Y-040981D02*
G01X0048030Y-041038D01*
G01X0048030Y-041038D02*
G01X0047917Y-041094D01*
G01X0047917Y-041094D02*
G01X0047748Y-041094D01*
G01X0048817Y-041094D02*
G01X0048704Y-041038D01*
G01X0048704Y-041038D02*
G01X0048648Y-040925D01*
G01X0048648Y-040925D02*
G01X0048648Y-039913D01*
G01X0049717Y-041038D02*
G01X0049604Y-041094D01*
G01X0049604Y-041094D02*
G01X0049379Y-041094D01*
G01X0049379Y-041094D02*
G01X0049267Y-041038D01*
G01X0049267Y-041038D02*
G01X0049211Y-040925D01*
G01X0049211Y-040925D02*
G01X0049211Y-040475D01*
G01X0049211Y-040475D02*
G01X0049267Y-040363D01*
G01X0049267Y-040363D02*
G01X0049379Y-040306D01*
G01X0049379Y-040306D02*
G01X0049604Y-040306D01*
G01X0049604Y-040306D02*
G01X0049717Y-040363D01*
G01X0049717Y-040363D02*
G01X0049773Y-040475D01*
G01X0049773Y-040475D02*
G01X0049773Y-040588D01*
G01X0049773Y-040588D02*
G01X0049211Y-040700D01*
G01X0050223Y-041038D02*
G01X0050336Y-041094D01*
G01X0050336Y-041094D02*
G01X0050560Y-041094D01*
G01X0050560Y-041094D02*
G01X0050673Y-041038D01*
G01X0050673Y-041038D02*
G01X0050729Y-040925D01*
G01X0050729Y-040925D02*
G01X0050729Y-040869D01*
G01X0050729Y-040869D02*
G01X0050673Y-040756D01*
G01X0050673Y-040756D02*
G01X0050560Y-040700D01*
G01X0050560Y-040700D02*
G01X0050392Y-040700D01*
G01X0050392Y-040700D02*
G01X0050279Y-040644D01*
G01X0050279Y-040644D02*
G01X0050223Y-040531D01*
G01X0050223Y-040531D02*
G01X0050223Y-040475D01*
G01X0050223Y-040475D02*
G01X0050279Y-040363D01*
G01X0050279Y-040363D02*
G01X0050392Y-040306D01*
G01X0050392Y-040306D02*
G01X0050560Y-040306D01*
G01X0050560Y-040306D02*
G01X0050673Y-040363D01*
G01X0051123Y-041544D02*
G01X0051179Y-041488D01*
G01X0051179Y-041488D02*
G01X0051292Y-041319D01*
G01X0051292Y-041319D02*
G01X0051348Y-041206D01*
G01X0051348Y-041206D02*
G01X0051404Y-041038D01*
G01X0051404Y-041038D02*
G01X0051460Y-040756D01*
G01X0051460Y-040756D02*
G01X0051460Y-040531D01*
G01X0051460Y-040531D02*
G01X0051404Y-040250D01*
G01X0051404Y-040250D02*
G01X0051348Y-040081D01*
G01X0051348Y-040081D02*
G01X0051292Y-039969D01*
G01X0051292Y-039969D02*
G01X0051179Y-039800D01*
G01X0051179Y-039800D02*
G01X0051123Y-039744D01*
G01X0024520Y-042119D02*
G75*
G03X0024520Y-042119I-000200J0000000D01*
G01X0026207Y-042653D02*
G01X0025532Y-042653D01*
G01X0025870Y-042653D02*
G01X0025870Y-041472D01*
G01X0025870Y-041472D02*
G01X0025757Y-041641D01*
G01X0025757Y-041641D02*
G01X0025645Y-041753D01*
G01X0025645Y-041753D02*
G01X0025532Y-041809D01*
G01X0026713Y-042540D02*
G01X0026770Y-042597D01*
G01X0026770Y-042597D02*
G01X0026713Y-042653D01*
G01X0026713Y-042653D02*
G01X0026657Y-042597D01*
G01X0026657Y-042597D02*
G01X0026713Y-042540D01*
G01X0026713Y-042540D02*
G01X0026713Y-042653D01*
G01X0027501Y-041472D02*
G01X0027613Y-041472D01*
G01X0027613Y-041472D02*
G01X0027726Y-041528D01*
G01X0027726Y-041528D02*
G01X0027782Y-041584D01*
G01X0027782Y-041584D02*
G01X0027838Y-041697D01*
G01X0027838Y-041697D02*
G01X0027895Y-041922D01*
G01X0027895Y-041922D02*
G01X0027895Y-042203D01*
G01X0027895Y-042203D02*
G01X0027838Y-042428D01*
G01X0027838Y-042428D02*
G01X0027782Y-042540D01*
G01X0027782Y-042540D02*
G01X0027726Y-042597D01*
G01X0027726Y-042597D02*
G01X0027613Y-042653D01*
G01X0027613Y-042653D02*
G01X0027501Y-042653D01*
G01X0027501Y-042653D02*
G01X0027388Y-042597D01*
G01X0027388Y-042597D02*
G01X0027332Y-042540D01*
G01X0027332Y-042540D02*
G01X0027276Y-042428D01*
G01X0027276Y-042428D02*
G01X0027220Y-042203D01*
G01X0027220Y-042203D02*
G01X0027220Y-041922D01*
G01X0027220Y-041922D02*
G01X0027276Y-041697D01*
G01X0027276Y-041697D02*
G01X0027332Y-041584D01*
G01X0027332Y-041584D02*
G01X0027388Y-041528D01*
G01X0027388Y-041528D02*
G01X0027501Y-041472D01*
G01X0028345Y-041584D02*
G01X0028401Y-041528D01*
G01X0028401Y-041528D02*
G01X0028513Y-041472D01*
G01X0028513Y-041472D02*
G01X0028794Y-041472D01*
G01X0028794Y-041472D02*
G01X0028907Y-041528D01*
G01X0028907Y-041528D02*
G01X0028963Y-041584D01*
G01X0028963Y-041584D02*
G01X0029019Y-041697D01*
G01X0029019Y-041697D02*
G01X0029019Y-041809D01*
G01X0029019Y-041809D02*
G01X0028963Y-041978D01*
G01X0028963Y-041978D02*
G01X0028288Y-042653D01*
G01X0028288Y-042653D02*
G01X0029019Y-042653D01*
G01X0029526Y-042653D02*
G01X0029526Y-041865D01*
G01X0029526Y-041978D02*
G01X0029582Y-041922D01*
G01X0029582Y-041922D02*
G01X0029694Y-041865D01*
G01X0029694Y-041865D02*
G01X0029863Y-041865D01*
G01X0029863Y-041865D02*
G01X0029976Y-041922D01*
G01X0029976Y-041922D02*
G01X0030032Y-042034D01*
G01X0030032Y-042034D02*
G01X0030032Y-042653D01*
G01X0030032Y-042034D02*
G01X0030088Y-041922D01*
G01X0030088Y-041922D02*
G01X0030201Y-041865D01*
G01X0030201Y-041865D02*
G01X0030369Y-041865D01*
G01X0030369Y-041865D02*
G01X0030482Y-041922D01*
G01X0030482Y-041922D02*
G01X0030538Y-042034D01*
G01X0030538Y-042034D02*
G01X0030538Y-042653D01*
G01X0031100Y-042653D02*
G01X0031100Y-041865D01*
G01X0031100Y-041978D02*
G01X0031157Y-041922D01*
G01X0031157Y-041922D02*
G01X0031269Y-041865D01*
G01X0031269Y-041865D02*
G01X0031438Y-041865D01*
G01X0031438Y-041865D02*
G01X0031550Y-041922D01*
G01X0031550Y-041922D02*
G01X0031607Y-042034D01*
G01X0031607Y-042034D02*
G01X0031607Y-042653D01*
G01X0031607Y-042034D02*
G01X0031663Y-041922D01*
G01X0031663Y-041922D02*
G01X0031775Y-041865D01*
G01X0031775Y-041865D02*
G01X0031944Y-041865D01*
G01X0031944Y-041865D02*
G01X0032057Y-041922D01*
G01X0032057Y-041922D02*
G01X0032113Y-042034D01*
G01X0032113Y-042034D02*
G01X0032113Y-042653D01*
G01X0034419Y-041416D02*
G01X0033406Y-042934D01*
G01X0035937Y-041472D02*
G01X0036050Y-041472D01*
G01X0036050Y-041472D02*
G01X0036162Y-041528D01*
G01X0036162Y-041528D02*
G01X0036219Y-041584D01*
G01X0036219Y-041584D02*
G01X0036275Y-041697D01*
G01X0036275Y-041697D02*
G01X0036331Y-041922D01*
G01X0036331Y-041922D02*
G01X0036331Y-042203D01*
G01X0036331Y-042203D02*
G01X0036275Y-042428D01*
G01X0036275Y-042428D02*
G01X0036219Y-042540D01*
G01X0036219Y-042540D02*
G01X0036162Y-042597D01*
G01X0036162Y-042597D02*
G01X0036050Y-042653D01*
G01X0036050Y-042653D02*
G01X0035937Y-042653D01*
G01X0035937Y-042653D02*
G01X0035825Y-042597D01*
G01X0035825Y-042597D02*
G01X0035769Y-042540D01*
G01X0035769Y-042540D02*
G01X0035712Y-042428D01*
G01X0035712Y-042428D02*
G01X0035656Y-042203D01*
G01X0035656Y-042203D02*
G01X0035656Y-041922D01*
G01X0035656Y-041922D02*
G01X0035712Y-041697D01*
G01X0035712Y-041697D02*
G01X0035769Y-041584D01*
G01X0035769Y-041584D02*
G01X0035825Y-041528D01*
G01X0035825Y-041528D02*
G01X0035937Y-041472D01*
G01X0036837Y-042540D02*
G01X0036893Y-042597D01*
G01X0036893Y-042597D02*
G01X0036837Y-042653D01*
G01X0036837Y-042653D02*
G01X0036781Y-042597D01*
G01X0036781Y-042597D02*
G01X0036837Y-042540D01*
G01X0036837Y-042540D02*
G01X0036837Y-042653D01*
G01X0037625Y-041472D02*
G01X0037737Y-041472D01*
G01X0037737Y-041472D02*
G01X0037850Y-041528D01*
G01X0037850Y-041528D02*
G01X0037906Y-041584D01*
G01X0037906Y-041584D02*
G01X0037962Y-041697D01*
G01X0037962Y-041697D02*
G01X0038018Y-041922D01*
G01X0038018Y-041922D02*
G01X0038018Y-042203D01*
G01X0038018Y-042203D02*
G01X0037962Y-042428D01*
G01X0037962Y-042428D02*
G01X0037906Y-042540D01*
G01X0037906Y-042540D02*
G01X0037850Y-042597D01*
G01X0037850Y-042597D02*
G01X0037737Y-042653D01*
G01X0037737Y-042653D02*
G01X0037625Y-042653D01*
G01X0037625Y-042653D02*
G01X0037512Y-042597D01*
G01X0037512Y-042597D02*
G01X0037456Y-042540D01*
G01X0037456Y-042540D02*
G01X0037400Y-042428D01*
G01X0037400Y-042428D02*
G01X0037343Y-042203D01*
G01X0037343Y-042203D02*
G01X0037343Y-041922D01*
G01X0037343Y-041922D02*
G01X0037400Y-041697D01*
G01X0037400Y-041697D02*
G01X0037456Y-041584D01*
G01X0037456Y-041584D02*
G01X0037512Y-041528D01*
G01X0037512Y-041528D02*
G01X0037625Y-041472D01*
G01X0039031Y-041865D02*
G01X0039031Y-042653D01*
G01X0038749Y-041416D02*
G01X0038468Y-042259D01*
G01X0038468Y-042259D02*
G01X0039199Y-042259D01*
G01X0039874Y-041472D02*
G01X0039987Y-041472D01*
G01X0039987Y-041472D02*
G01X0040099Y-041528D01*
G01X0040099Y-041528D02*
G01X0040156Y-041584D01*
G01X0040156Y-041584D02*
G01X0040212Y-041697D01*
G01X0040212Y-041697D02*
G01X0040268Y-041922D01*
G01X0040268Y-041922D02*
G01X0040268Y-042203D01*
G01X0040268Y-042203D02*
G01X0040212Y-042428D01*
G01X0040212Y-042428D02*
G01X0040156Y-042540D01*
G01X0040156Y-042540D02*
G01X0040099Y-042597D01*
G01X0040099Y-042597D02*
G01X0039987Y-042653D01*
G01X0039987Y-042653D02*
G01X0039874Y-042653D01*
G01X0039874Y-042653D02*
G01X0039762Y-042597D01*
G01X0039762Y-042597D02*
G01X0039706Y-042540D01*
G01X0039706Y-042540D02*
G01X0039649Y-042428D01*
G01X0039649Y-042428D02*
G01X0039593Y-042203D01*
G01X0039593Y-042203D02*
G01X0039593Y-041922D01*
G01X0039593Y-041922D02*
G01X0039649Y-041697D01*
G01X0039649Y-041697D02*
G01X0039706Y-041584D01*
G01X0039706Y-041584D02*
G01X0039762Y-041528D01*
G01X0039762Y-041528D02*
G01X0039874Y-041472D01*
G01X0040718Y-041472D02*
G01X0040718Y-041697D01*
G01X0041168Y-041472D02*
G01X0041168Y-041697D01*
G01X0042911Y-043103D02*
G01X0042855Y-043047D01*
G01X0042855Y-043047D02*
G01X0042743Y-042878D01*
G01X0042743Y-042878D02*
G01X0042686Y-042765D01*
G01X0042686Y-042765D02*
G01X0042630Y-042597D01*
G01X0042630Y-042597D02*
G01X0042574Y-042315D01*
G01X0042574Y-042315D02*
G01X0042574Y-042090D01*
G01X0042574Y-042090D02*
G01X0042630Y-041809D01*
G01X0042630Y-041809D02*
G01X0042686Y-041641D01*
G01X0042686Y-041641D02*
G01X0042743Y-041528D01*
G01X0042743Y-041528D02*
G01X0042855Y-041359D01*
G01X0042855Y-041359D02*
G01X0042911Y-041303D01*
G01X0043868Y-041865D02*
G01X0043868Y-042653D01*
G01X0043586Y-041416D02*
G01X0043305Y-042259D01*
G01X0043305Y-042259D02*
G01X0044036Y-042259D01*
G01X0045105Y-042653D02*
G01X0044430Y-042653D01*
G01X0044767Y-042653D02*
G01X0044767Y-041472D01*
G01X0044767Y-041472D02*
G01X0044655Y-041641D01*
G01X0044655Y-041641D02*
G01X0044542Y-041753D01*
G01X0044542Y-041753D02*
G01X0044430Y-041809D01*
G01X0046511Y-042653D02*
G01X0046511Y-041472D01*
G01X0047017Y-042653D02*
G01X0047017Y-042034D01*
G01X0047017Y-042034D02*
G01X0046961Y-041922D01*
G01X0046961Y-041922D02*
G01X0046848Y-041865D01*
G01X0046848Y-041865D02*
G01X0046680Y-041865D01*
G01X0046680Y-041865D02*
G01X0046567Y-041922D01*
G01X0046567Y-041922D02*
G01X0046511Y-041978D01*
G01X0047748Y-042653D02*
G01X0047636Y-042597D01*
G01X0047636Y-042597D02*
G01X0047580Y-042540D01*
G01X0047580Y-042540D02*
G01X0047523Y-042428D01*
G01X0047523Y-042428D02*
G01X0047523Y-042090D01*
G01X0047523Y-042090D02*
G01X0047580Y-041978D01*
G01X0047580Y-041978D02*
G01X0047636Y-041922D01*
G01X0047636Y-041922D02*
G01X0047748Y-041865D01*
G01X0047748Y-041865D02*
G01X0047917Y-041865D01*
G01X0047917Y-041865D02*
G01X0048030Y-041922D01*
G01X0048030Y-041922D02*
G01X0048086Y-041978D01*
G01X0048086Y-041978D02*
G01X0048142Y-042090D01*
G01X0048142Y-042090D02*
G01X0048142Y-042428D01*
G01X0048142Y-042428D02*
G01X0048086Y-042540D01*
G01X0048086Y-042540D02*
G01X0048030Y-042597D01*
G01X0048030Y-042597D02*
G01X0047917Y-042653D01*
G01X0047917Y-042653D02*
G01X0047748Y-042653D01*
G01X0048817Y-042653D02*
G01X0048704Y-042597D01*
G01X0048704Y-042597D02*
G01X0048648Y-042484D01*
G01X0048648Y-042484D02*
G01X0048648Y-041472D01*
G01X0049717Y-042597D02*
G01X0049604Y-042653D01*
G01X0049604Y-042653D02*
G01X0049379Y-042653D01*
G01X0049379Y-042653D02*
G01X0049267Y-042597D01*
G01X0049267Y-042597D02*
G01X0049211Y-042484D01*
G01X0049211Y-042484D02*
G01X0049211Y-042034D01*
G01X0049211Y-042034D02*
G01X0049267Y-041922D01*
G01X0049267Y-041922D02*
G01X0049379Y-041865D01*
G01X0049379Y-041865D02*
G01X0049604Y-041865D01*
G01X0049604Y-041865D02*
G01X0049717Y-041922D01*
G01X0049717Y-041922D02*
G01X0049773Y-042034D01*
G01X0049773Y-042034D02*
G01X0049773Y-042147D01*
G01X0049773Y-042147D02*
G01X0049211Y-042259D01*
G01X0050223Y-042597D02*
G01X0050336Y-042653D01*
G01X0050336Y-042653D02*
G01X0050560Y-042653D01*
G01X0050560Y-042653D02*
G01X0050673Y-042597D01*
G01X0050673Y-042597D02*
G01X0050729Y-042484D01*
G01X0050729Y-042484D02*
G01X0050729Y-042428D01*
G01X0050729Y-042428D02*
G01X0050673Y-042315D01*
G01X0050673Y-042315D02*
G01X0050560Y-042259D01*
G01X0050560Y-042259D02*
G01X0050392Y-042259D01*
G01X0050392Y-042259D02*
G01X0050279Y-042203D01*
G01X0050279Y-042203D02*
G01X0050223Y-042090D01*
G01X0050223Y-042090D02*
G01X0050223Y-042034D01*
G01X0050223Y-042034D02*
G01X0050279Y-041922D01*
G01X0050279Y-041922D02*
G01X0050392Y-041865D01*
G01X0050392Y-041865D02*
G01X0050560Y-041865D01*
G01X0050560Y-041865D02*
G01X0050673Y-041922D01*
G01X0051123Y-043103D02*
G01X0051179Y-043047D01*
G01X0051179Y-043047D02*
G01X0051292Y-042878D01*
G01X0051292Y-042878D02*
G01X0051348Y-042765D01*
G01X0051348Y-042765D02*
G01X0051404Y-042597D01*
G01X0051404Y-042597D02*
G01X0051460Y-042315D01*
G01X0051460Y-042315D02*
G01X0051460Y-042090D01*
G01X0051460Y-042090D02*
G01X0051404Y-041809D01*
G01X0051404Y-041809D02*
G01X0051348Y-041641D01*
G01X0051348Y-041641D02*
G01X0051292Y-041528D01*
G01X0051292Y-041528D02*
G01X0051179Y-041359D01*
G01X0051179Y-041359D02*
G01X0051123Y-041303D01*
G01X0024284Y-043441D02*
G01X0024284Y-043914D01*
G01X0024048Y-043678D02*
G01X0024520Y-043678D01*
G01X0026207Y-044212D02*
G01X0025532Y-044212D01*
G01X0025870Y-044212D02*
G01X0025870Y-043031D01*
G01X0025870Y-043031D02*
G01X0025757Y-043200D01*
G01X0025757Y-043200D02*
G01X0025645Y-043312D01*
G01X0025645Y-043312D02*
G01X0025532Y-043368D01*
G01X0026713Y-044099D02*
G01X0026770Y-044156D01*
G01X0026770Y-044156D02*
G01X0026713Y-044212D01*
G01X0026713Y-044212D02*
G01X0026657Y-044156D01*
G01X0026657Y-044156D02*
G01X0026713Y-044099D01*
G01X0026713Y-044099D02*
G01X0026713Y-044212D01*
G01X0027220Y-043143D02*
G01X0027276Y-043087D01*
G01X0027276Y-043087D02*
G01X0027388Y-043031D01*
G01X0027388Y-043031D02*
G01X0027670Y-043031D01*
G01X0027670Y-043031D02*
G01X0027782Y-043087D01*
G01X0027782Y-043087D02*
G01X0027838Y-043143D01*
G01X0027838Y-043143D02*
G01X0027895Y-043256D01*
G01X0027895Y-043256D02*
G01X0027895Y-043368D01*
G01X0027895Y-043368D02*
G01X0027838Y-043537D01*
G01X0027838Y-043537D02*
G01X0027163Y-044212D01*
G01X0027163Y-044212D02*
G01X0027895Y-044212D01*
G01X0028626Y-043031D02*
G01X0028738Y-043031D01*
G01X0028738Y-043031D02*
G01X0028851Y-043087D01*
G01X0028851Y-043087D02*
G01X0028907Y-043143D01*
G01X0028907Y-043143D02*
G01X0028963Y-043256D01*
G01X0028963Y-043256D02*
G01X0029019Y-043481D01*
G01X0029019Y-043481D02*
G01X0029019Y-043762D01*
G01X0029019Y-043762D02*
G01X0028963Y-043987D01*
G01X0028963Y-043987D02*
G01X0028907Y-044099D01*
G01X0028907Y-044099D02*
G01X0028851Y-044156D01*
G01X0028851Y-044156D02*
G01X0028738Y-044212D01*
G01X0028738Y-044212D02*
G01X0028626Y-044212D01*
G01X0028626Y-044212D02*
G01X0028513Y-044156D01*
G01X0028513Y-044156D02*
G01X0028457Y-044099D01*
G01X0028457Y-044099D02*
G01X0028401Y-043987D01*
G01X0028401Y-043987D02*
G01X0028345Y-043762D01*
G01X0028345Y-043762D02*
G01X0028345Y-043481D01*
G01X0028345Y-043481D02*
G01X0028401Y-043256D01*
G01X0028401Y-043256D02*
G01X0028457Y-043143D01*
G01X0028457Y-043143D02*
G01X0028513Y-043087D01*
G01X0028513Y-043087D02*
G01X0028626Y-043031D01*
G01X0029526Y-044212D02*
G01X0029526Y-043425D01*
G01X0029526Y-043537D02*
G01X0029582Y-043481D01*
G01X0029582Y-043481D02*
G01X0029694Y-043425D01*
G01X0029694Y-043425D02*
G01X0029863Y-043425D01*
G01X0029863Y-043425D02*
G01X0029976Y-043481D01*
G01X0029976Y-043481D02*
G01X0030032Y-043593D01*
G01X0030032Y-043593D02*
G01X0030032Y-044212D01*
G01X0030032Y-043593D02*
G01X0030088Y-043481D01*
G01X0030088Y-043481D02*
G01X0030201Y-043425D01*
G01X0030201Y-043425D02*
G01X0030369Y-043425D01*
G01X0030369Y-043425D02*
G01X0030482Y-043481D01*
G01X0030482Y-043481D02*
G01X0030538Y-043593D01*
G01X0030538Y-043593D02*
G01X0030538Y-044212D01*
G01X0031100Y-044212D02*
G01X0031100Y-043425D01*
G01X0031100Y-043537D02*
G01X0031157Y-043481D01*
G01X0031157Y-043481D02*
G01X0031269Y-043425D01*
G01X0031269Y-043425D02*
G01X0031438Y-043425D01*
G01X0031438Y-043425D02*
G01X0031550Y-043481D01*
G01X0031550Y-043481D02*
G01X0031607Y-043593D01*
G01X0031607Y-043593D02*
G01X0031607Y-044212D01*
G01X0031607Y-043593D02*
G01X0031663Y-043481D01*
G01X0031663Y-043481D02*
G01X0031775Y-043425D01*
G01X0031775Y-043425D02*
G01X0031944Y-043425D01*
G01X0031944Y-043425D02*
G01X0032057Y-043481D01*
G01X0032057Y-043481D02*
G01X0032113Y-043593D01*
G01X0032113Y-043593D02*
G01X0032113Y-044212D01*
G01X0034419Y-042975D02*
G01X0033406Y-044493D01*
G01X0035937Y-043031D02*
G01X0036050Y-043031D01*
G01X0036050Y-043031D02*
G01X0036162Y-043087D01*
G01X0036162Y-043087D02*
G01X0036219Y-043143D01*
G01X0036219Y-043143D02*
G01X0036275Y-043256D01*
G01X0036275Y-043256D02*
G01X0036331Y-043481D01*
G01X0036331Y-043481D02*
G01X0036331Y-043762D01*
G01X0036331Y-043762D02*
G01X0036275Y-043987D01*
G01X0036275Y-043987D02*
G01X0036219Y-044099D01*
G01X0036219Y-044099D02*
G01X0036162Y-044156D01*
G01X0036162Y-044156D02*
G01X0036050Y-044212D01*
G01X0036050Y-044212D02*
G01X0035937Y-044212D01*
G01X0035937Y-044212D02*
G01X0035825Y-044156D01*
G01X0035825Y-044156D02*
G01X0035769Y-044099D01*
G01X0035769Y-044099D02*
G01X0035712Y-043987D01*
G01X0035712Y-043987D02*
G01X0035656Y-043762D01*
G01X0035656Y-043762D02*
G01X0035656Y-043481D01*
G01X0035656Y-043481D02*
G01X0035712Y-043256D01*
G01X0035712Y-043256D02*
G01X0035769Y-043143D01*
G01X0035769Y-043143D02*
G01X0035825Y-043087D01*
G01X0035825Y-043087D02*
G01X0035937Y-043031D01*
G01X0036837Y-044099D02*
G01X0036893Y-044156D01*
G01X0036893Y-044156D02*
G01X0036837Y-044212D01*
G01X0036837Y-044212D02*
G01X0036781Y-044156D01*
G01X0036781Y-044156D02*
G01X0036837Y-044099D01*
G01X0036837Y-044099D02*
G01X0036837Y-044212D01*
G01X0037625Y-043031D02*
G01X0037737Y-043031D01*
G01X0037737Y-043031D02*
G01X0037850Y-043087D01*
G01X0037850Y-043087D02*
G01X0037906Y-043143D01*
G01X0037906Y-043143D02*
G01X0037962Y-043256D01*
G01X0037962Y-043256D02*
G01X0038018Y-043481D01*
G01X0038018Y-043481D02*
G01X0038018Y-043762D01*
G01X0038018Y-043762D02*
G01X0037962Y-043987D01*
G01X0037962Y-043987D02*
G01X0037906Y-044099D01*
G01X0037906Y-044099D02*
G01X0037850Y-044156D01*
G01X0037850Y-044156D02*
G01X0037737Y-044212D01*
G01X0037737Y-044212D02*
G01X0037625Y-044212D01*
G01X0037625Y-044212D02*
G01X0037512Y-044156D01*
G01X0037512Y-044156D02*
G01X0037456Y-044099D01*
G01X0037456Y-044099D02*
G01X0037400Y-043987D01*
G01X0037400Y-043987D02*
G01X0037343Y-043762D01*
G01X0037343Y-043762D02*
G01X0037343Y-043481D01*
G01X0037343Y-043481D02*
G01X0037400Y-043256D01*
G01X0037400Y-043256D02*
G01X0037456Y-043143D01*
G01X0037456Y-043143D02*
G01X0037512Y-043087D01*
G01X0037512Y-043087D02*
G01X0037625Y-043031D01*
G01X0039031Y-043425D02*
G01X0039031Y-044212D01*
G01X0038749Y-042975D02*
G01X0038468Y-043818D01*
G01X0038468Y-043818D02*
G01X0039199Y-043818D01*
G01X0039537Y-043031D02*
G01X0040324Y-043031D01*
G01X0040324Y-043031D02*
G01X0039818Y-044212D01*
G01X0040718Y-043031D02*
G01X0040718Y-043256D01*
G01X0041168Y-043031D02*
G01X0041168Y-043256D01*
G01X0042911Y-044662D02*
G01X0042855Y-044606D01*
G01X0042855Y-044606D02*
G01X0042743Y-044437D01*
G01X0042743Y-044437D02*
G01X0042686Y-044324D01*
G01X0042686Y-044324D02*
G01X0042630Y-044156D01*
G01X0042630Y-044156D02*
G01X0042574Y-043874D01*
G01X0042574Y-043874D02*
G01X0042574Y-043650D01*
G01X0042574Y-043650D02*
G01X0042630Y-043368D01*
G01X0042630Y-043368D02*
G01X0042686Y-043200D01*
G01X0042686Y-043200D02*
G01X0042743Y-043087D01*
G01X0042743Y-043087D02*
G01X0042855Y-042918D01*
G01X0042855Y-042918D02*
G01X0042911Y-042862D01*
G01X0043305Y-043143D02*
G01X0043361Y-043087D01*
G01X0043361Y-043087D02*
G01X0043474Y-043031D01*
G01X0043474Y-043031D02*
G01X0043755Y-043031D01*
G01X0043755Y-043031D02*
G01X0043868Y-043087D01*
G01X0043868Y-043087D02*
G01X0043924Y-043143D01*
G01X0043924Y-043143D02*
G01X0043980Y-043256D01*
G01X0043980Y-043256D02*
G01X0043980Y-043368D01*
G01X0043980Y-043368D02*
G01X0043924Y-043537D01*
G01X0043924Y-043537D02*
G01X0043249Y-044212D01*
G01X0043249Y-044212D02*
G01X0043980Y-044212D01*
G01X0045386Y-044212D02*
G01X0045386Y-043031D01*
G01X0045892Y-044212D02*
G01X0045892Y-043593D01*
G01X0045892Y-043593D02*
G01X0045836Y-043481D01*
G01X0045836Y-043481D02*
G01X0045724Y-043425D01*
G01X0045724Y-043425D02*
G01X0045555Y-043425D01*
G01X0045555Y-043425D02*
G01X0045442Y-043481D01*
G01X0045442Y-043481D02*
G01X0045386Y-043537D01*
G01X0046623Y-044212D02*
G01X0046511Y-044156D01*
G01X0046511Y-044156D02*
G01X0046455Y-044099D01*
G01X0046455Y-044099D02*
G01X0046399Y-043987D01*
G01X0046399Y-043987D02*
G01X0046399Y-043650D01*
G01X0046399Y-043650D02*
G01X0046455Y-043537D01*
G01X0046455Y-043537D02*
G01X0046511Y-043481D01*
G01X0046511Y-043481D02*
G01X0046623Y-043425D01*
G01X0046623Y-043425D02*
G01X0046792Y-043425D01*
G01X0046792Y-043425D02*
G01X0046905Y-043481D01*
G01X0046905Y-043481D02*
G01X0046961Y-043537D01*
G01X0046961Y-043537D02*
G01X0047017Y-043650D01*
G01X0047017Y-043650D02*
G01X0047017Y-043987D01*
G01X0047017Y-043987D02*
G01X0046961Y-044099D01*
G01X0046961Y-044099D02*
G01X0046905Y-044156D01*
G01X0046905Y-044156D02*
G01X0046792Y-044212D01*
G01X0046792Y-044212D02*
G01X0046623Y-044212D01*
G01X0047692Y-044212D02*
G01X0047580Y-044156D01*
G01X0047580Y-044156D02*
G01X0047523Y-044043D01*
G01X0047523Y-044043D02*
G01X0047523Y-043031D01*
G01X0048592Y-044156D02*
G01X0048480Y-044212D01*
G01X0048480Y-044212D02*
G01X0048255Y-044212D01*
G01X0048255Y-044212D02*
G01X0048142Y-044156D01*
G01X0048142Y-044156D02*
G01X0048086Y-044043D01*
G01X0048086Y-044043D02*
G01X0048086Y-043593D01*
G01X0048086Y-043593D02*
G01X0048142Y-043481D01*
G01X0048142Y-043481D02*
G01X0048255Y-043425D01*
G01X0048255Y-043425D02*
G01X0048480Y-043425D01*
G01X0048480Y-043425D02*
G01X0048592Y-043481D01*
G01X0048592Y-043481D02*
G01X0048648Y-043593D01*
G01X0048648Y-043593D02*
G01X0048648Y-043706D01*
G01X0048648Y-043706D02*
G01X0048086Y-043818D01*
G01X0049098Y-044156D02*
G01X0049211Y-044212D01*
G01X0049211Y-044212D02*
G01X0049436Y-044212D01*
G01X0049436Y-044212D02*
G01X0049548Y-044156D01*
G01X0049548Y-044156D02*
G01X0049604Y-044043D01*
G01X0049604Y-044043D02*
G01X0049604Y-043987D01*
G01X0049604Y-043987D02*
G01X0049548Y-043874D01*
G01X0049548Y-043874D02*
G01X0049436Y-043818D01*
G01X0049436Y-043818D02*
G01X0049267Y-043818D01*
G01X0049267Y-043818D02*
G01X0049154Y-043762D01*
G01X0049154Y-043762D02*
G01X0049098Y-043650D01*
G01X0049098Y-043650D02*
G01X0049098Y-043593D01*
G01X0049098Y-043593D02*
G01X0049154Y-043481D01*
G01X0049154Y-043481D02*
G01X0049267Y-043425D01*
G01X0049267Y-043425D02*
G01X0049436Y-043425D01*
G01X0049436Y-043425D02*
G01X0049548Y-043481D01*
G01X0049998Y-044662D02*
G01X0050054Y-044606D01*
G01X0050054Y-044606D02*
G01X0050167Y-044437D01*
G01X0050167Y-044437D02*
G01X0050223Y-044324D01*
G01X0050223Y-044324D02*
G01X0050279Y-044156D01*
G01X0050279Y-044156D02*
G01X0050336Y-043874D01*
G01X0050336Y-043874D02*
G01X0050336Y-043650D01*
G01X0050336Y-043650D02*
G01X0050279Y-043368D01*
G01X0050279Y-043368D02*
G01X0050223Y-043200D01*
G01X0050223Y-043200D02*
G01X0050167Y-043087D01*
G01X0050167Y-043087D02*
G01X0050054Y-042918D01*
G01X0050054Y-042918D02*
G01X0049998Y-042862D01*
G01X0000000Y0000000D02*
G54D11*
G01X0025300Y-022250D02*
G75*
G03X0024550Y-023000I0000000J-000750D01*
G01X0024550Y-036000D02*
G75*
G03X0025300Y-036750I0000750J0000000D01*
G01X0042500Y-036750D02*
G75*
G03X0043500Y-035750I0000000J0001000D01*
G01X0043500Y-023250D02*
G75*
G03X0042500Y-022250I-001000J0000000D01*
G01X0042500Y-022250D02*
G01X0025300Y-022250D01*
G01X0043500Y-035750D02*
G01X0043500Y-023250D01*
G01X0025300Y-036750D02*
G01X0042500Y-036750D01*
G01X0024550Y-023000D02*
G01X0024550Y-036000D01*
G01X0000000Y0000000D02*
G54D15*
G01X0046700Y-030300D02*
G75*
G03X0046700Y-030300I-000500J0000000D01*
G01X0045050Y-031100D02*
G01X0045050Y-029500D01*
G01X0047350Y-031100D02*
G01X0045050Y-031100D01*
G01X0047350Y-029500D02*
G01X0047350Y-031100D01*
G01X0045050Y-029500D02*
G01X0047350Y-029500D01*
G01X0047450Y-037000D02*
G01X0041200Y-037000D01*
G01X0068250Y-040250D02*
G01X0068250Y-037250D01*
G01X0070250Y-040250D02*
G01X0068250Y-040250D01*
G01X0070250Y-037250D02*
G01X0070250Y-040250D01*
G01X0068250Y-037250D02*
G01X0070250Y-037250D01*
G01X0042950Y-048500D02*
G01X0042950Y-045000D01*
G01X0048200Y-048500D02*
G01X0042950Y-048500D01*
G01X0048200Y-045000D02*
G01X0048200Y-048500D01*
G01X0042950Y-045000D02*
G01X0048200Y-045000D01*
G01X0041200Y-037000D02*
G01X0041200Y-032500D01*
G01X0047450Y-032500D02*
G01X0047450Y-037000D01*
G01X0041200Y-032500D02*
G01X0047450Y-032500D01*
M02*
