M48
;DRILL file {KiCad 4.0.5-e0-6337~49~ubuntu16.04.1} date Mon Aug 14 14:58:42 2017
;FORMAT={-:-/ absolute / metric / decimal}
FMAT,2
METRIC,TZ
T1C0.330
T2C1.016
T3C1.200
%
G90
G05
M71
T1
X21.057Y-41.554
X28.423Y-43.586
X30.963Y-54.762
X31.979Y-41.554
X31.979Y-45.364
X31.979Y-47.142
X33.249Y-53.746
X35.027Y-43.332
X35.027Y-44.348
X35.027Y-45.364
X36.043Y-43.078
X37.059Y-40.792
X39.091Y-41.427
X41.615Y-41.419
X42.139Y-45.364
X42.393Y-43.84
X42.62Y-46.365
X42.628Y-54.24
X43.327Y-54.79
X44.171Y-54.508
X45.014Y-54.79
X45.11Y-44.737
X45.275Y-46.147
X45.441Y-42.57
X45.51Y-43.547
X45.695Y-40.03
X45.949Y-35.712
X46.203Y-60.604
X46.629Y-44.376
X47.473Y-44.094
X48.34Y-45.831
X48.712Y-40.029
X48.997Y-42.824
X49.251Y-59.08
X49.505Y-35.458
X49.505Y-44.856
X49.6Y-40.062
X50.267Y-45.364
X50.648Y-41.372
X50.648Y-44.221
X50.775Y-46.126
X51.156Y-34.315
X52.807Y-47.396
X53.849Y-46.892
X54.585Y-37.49
X54.585Y-40.157
X54.738Y-46.867
X55.62Y-46.979
X56.448Y-46.655
X56.714Y-45.788
X57.575Y-44.712
X57.651Y-45.827
X58.581Y-39.522
X58.626Y-43.815
X59.133Y-45.319
X63.475Y-50.698
X63.637Y-54.671
T2
X22.073Y-29.616
X22.073Y-62.636
X22.327Y-45.618
X22.327Y-48.158
X22.327Y-50.698
X22.327Y-53.238
X22.327Y-55.778
X24.613Y-29.616
X24.613Y-62.636
X27.153Y-29.616
X27.153Y-62.636
X29.693Y-29.616
X29.693Y-62.636
X32.233Y-29.616
X32.233Y-62.636
X34.773Y-29.616
X34.773Y-62.636
X37.313Y-29.616
X37.313Y-62.636
X39.853Y-29.616
X39.853Y-62.636
X42.393Y-29.616
X42.393Y-62.636
X44.933Y-29.616
X44.933Y-62.636
X47.473Y-29.616
X47.473Y-62.636
X50.013Y-29.616
X50.013Y-62.636
X52.553Y-29.616
X52.553Y-62.636
X55.093Y-29.616
X55.093Y-62.636
X57.633Y-29.616
X57.633Y-62.636
X60.173Y-29.616
X60.173Y-62.636
X62.713Y-29.616
X62.713Y-62.636
X65.253Y-29.616
X65.253Y-62.636
T3
X64.897Y-37.617
X64.897Y-44.717
T0
M30
