%TF.GenerationSoftware,KiCad,Pcbnew,4.0.5-e0-6337~49~ubuntu16.04.1*%
%TF.CreationDate,2017-08-14T18:45:29-07:00*%
%TF.ProjectId,fgpmmopa6h-gps-breakout,6667706D6D6F706136682D6770732D62,v1.0*%
%TF.FileFunction,Copper,L2,Bot,Signal*%
%FSLAX46Y46*%
G04 Gerber Fmt 4.6, Leading zero omitted, Abs format (unit mm)*
G04 Created by KiCad (PCBNEW 4.0.5-e0-6337~49~ubuntu16.04.1) date Mon Aug 14 18:45:29 2017*
%MOMM*%
%LPD*%
G01*
G04 APERTURE LIST*
%ADD10C,0.350000*%
%ADD11R,5.100000X2.500000*%
%ADD12C,10.200000*%
%ADD13R,2.032000X1.727200*%
%ADD14O,2.032000X1.727200*%
%ADD15C,0.685800*%
%ADD16C,0.254000*%
%ADD17C,0.330200*%
%ADD18C,0.350000*%
G04 APERTURE END LIST*
D10*
D11*
X28163520Y-41051480D03*
X28163520Y-56351480D03*
D12*
X28163520Y-48701480D03*
D13*
X2865120Y-37254180D03*
D14*
X2865120Y-39794180D03*
X2865120Y-42334180D03*
X2865120Y-44874180D03*
X2865120Y-47414180D03*
X2865120Y-49954180D03*
X2865120Y-52494180D03*
X2865120Y-55034180D03*
X2865120Y-57574180D03*
X2865120Y-60114180D03*
D15*
X14244320Y-51490880D03*
X21915120Y-46842680D03*
X11564620Y-44556680D03*
X42552620Y-58272680D03*
X42679620Y-55224680D03*
X38107620Y-58399680D03*
X38171120Y-55288180D03*
X15311120Y-40238680D03*
X15311120Y-46525180D03*
X18232120Y-46715680D03*
X15311120Y-42588180D03*
X19248120Y-39222680D03*
X37726620Y-45255180D03*
X34170620Y-45255180D03*
X21915120Y-46842680D03*
X21851620Y-53192680D03*
X9771620Y-45509180D03*
X28163520Y-58183780D03*
X27782520Y-39197280D03*
X11882120Y-55859680D03*
X11882120Y-48366680D03*
X38298120Y-53510180D03*
X13850620Y-54780180D03*
X18041620Y-57828180D03*
X33853120Y-55415180D03*
X10675620Y-40378380D03*
X18295620Y-55719980D03*
X13558520Y-53535580D03*
X13025120Y-42397680D03*
X18435320Y-58831480D03*
X11856720Y-58831480D03*
D16*
X23959820Y-44569380D02*
X23959820Y-44797980D01*
X23959820Y-44797980D02*
X21915120Y-46842680D01*
X28091920Y-48701480D02*
X23959820Y-44569380D01*
X28163520Y-48701480D02*
X28091920Y-48701480D01*
X28163520Y-56351480D02*
X28163520Y-58183780D01*
X27782520Y-39197280D02*
X27782520Y-40670480D01*
X27782520Y-40670480D02*
X28163520Y-41051480D01*
X11882120Y-54780180D02*
X11882120Y-48366680D01*
X11882120Y-55859680D02*
X11882120Y-54780180D01*
X25890220Y-54399180D02*
X26029920Y-54399180D01*
X26029920Y-54399180D02*
X37409120Y-54399180D01*
X23058120Y-54780180D02*
X23439120Y-54399180D01*
X23439120Y-54399180D02*
X26029920Y-54399180D01*
X13850620Y-54780180D02*
X23058120Y-54780180D01*
X37409120Y-54399180D02*
X37599620Y-54208680D01*
X37599620Y-54208680D02*
X38298120Y-53510180D01*
X32938720Y-59314080D02*
X33853120Y-58399680D01*
X33853120Y-58399680D02*
X33853120Y-55415180D01*
X24315420Y-59314080D02*
X32938720Y-59314080D01*
X22829520Y-57828180D02*
X24315420Y-59314080D01*
X18041620Y-57828180D02*
X22829520Y-57828180D01*
X10675620Y-40378380D02*
X10675620Y-55999380D01*
X11488420Y-56812180D02*
X15946120Y-56812180D01*
X10675620Y-55999380D02*
X11488420Y-56812180D01*
X15946120Y-56812180D02*
X17038320Y-55719980D01*
X17038320Y-55719980D02*
X18295620Y-55719980D01*
X3017520Y-39794180D02*
X2865120Y-39794180D01*
X13228320Y-53535580D02*
X13025120Y-53332380D01*
X13025120Y-53332380D02*
X13025120Y-42397680D01*
X13558520Y-53535580D02*
X13228320Y-53535580D01*
X13558520Y-53535580D02*
X13444220Y-53421280D01*
X15196820Y-58831480D02*
X18435320Y-58831480D01*
X15196820Y-58831480D02*
X11856720Y-58831480D01*
X11869420Y-58818780D02*
X11856720Y-58831480D01*
G36*
X41685040Y-35590162D02*
X42273824Y-35983576D01*
X42667239Y-36572362D01*
X42819320Y-37336924D01*
X42819320Y-60056836D01*
X42667239Y-60821398D01*
X42273824Y-61410184D01*
X41685040Y-61803598D01*
X40984322Y-61942980D01*
X2935164Y-61942980D01*
X2170602Y-61790899D01*
X1581816Y-61397484D01*
X1188402Y-60808700D01*
X1036320Y-60044135D01*
X1036320Y-52494180D01*
X1181775Y-52494180D01*
X1295849Y-53067669D01*
X1620705Y-53553850D01*
X1935486Y-53764180D01*
X1620705Y-53974510D01*
X1295849Y-54460691D01*
X1181775Y-55034180D01*
X1295849Y-55607669D01*
X1620705Y-56093850D01*
X1935486Y-56304180D01*
X1620705Y-56514510D01*
X1295849Y-57000691D01*
X1181775Y-57574180D01*
X1295849Y-58147669D01*
X1620705Y-58633850D01*
X1935486Y-58844180D01*
X1620705Y-59054510D01*
X1295849Y-59540691D01*
X1181775Y-60114180D01*
X1295849Y-60687669D01*
X1620705Y-61173850D01*
X2106886Y-61498706D01*
X2680375Y-61612780D01*
X3049865Y-61612780D01*
X3623354Y-61498706D01*
X4109535Y-61173850D01*
X4434391Y-60687669D01*
X4548465Y-60114180D01*
X4434391Y-59540691D01*
X4109535Y-59054510D01*
X3794754Y-58844180D01*
X4109535Y-58633850D01*
X4434391Y-58147669D01*
X4548465Y-57574180D01*
X4434391Y-57000691D01*
X4109535Y-56514510D01*
X3794754Y-56304180D01*
X4109535Y-56093850D01*
X4434391Y-55607669D01*
X4548465Y-55034180D01*
X4434391Y-54460691D01*
X4109535Y-53974510D01*
X3794754Y-53764180D01*
X4109535Y-53553850D01*
X4434391Y-53067669D01*
X4548465Y-52494180D01*
X4434391Y-51920691D01*
X4109535Y-51434510D01*
X3800051Y-51227719D01*
X4215852Y-50856216D01*
X4469829Y-50328971D01*
X4472478Y-50313206D01*
X4351337Y-50081180D01*
X2992120Y-50081180D01*
X2992120Y-50101180D01*
X2738120Y-50101180D01*
X2738120Y-50081180D01*
X1378903Y-50081180D01*
X1257762Y-50313206D01*
X1260411Y-50328971D01*
X1514388Y-50856216D01*
X1930189Y-51227719D01*
X1620705Y-51434510D01*
X1295849Y-51920691D01*
X1181775Y-52494180D01*
X1036320Y-52494180D01*
X1036320Y-37324225D01*
X1188402Y-36559660D01*
X1201680Y-36539788D01*
X1201680Y-38117780D01*
X1245958Y-38353097D01*
X1385030Y-38569221D01*
X1597230Y-38714211D01*
X1638559Y-38722580D01*
X1620705Y-38734510D01*
X1295849Y-39220691D01*
X1181775Y-39794180D01*
X1295849Y-40367669D01*
X1620705Y-40853850D01*
X1935486Y-41064180D01*
X1620705Y-41274510D01*
X1295849Y-41760691D01*
X1181775Y-42334180D01*
X1295849Y-42907669D01*
X1620705Y-43393850D01*
X1935486Y-43604180D01*
X1620705Y-43814510D01*
X1295849Y-44300691D01*
X1181775Y-44874180D01*
X1295849Y-45447669D01*
X1620705Y-45933850D01*
X1935486Y-46144180D01*
X1620705Y-46354510D01*
X1295849Y-46840691D01*
X1181775Y-47414180D01*
X1295849Y-47987669D01*
X1620705Y-48473850D01*
X1930189Y-48680641D01*
X1514388Y-49052144D01*
X1260411Y-49579389D01*
X1257762Y-49595154D01*
X1378903Y-49827180D01*
X2738120Y-49827180D01*
X2738120Y-49807180D01*
X2992120Y-49807180D01*
X2992120Y-49827180D01*
X4351337Y-49827180D01*
X4472478Y-49595154D01*
X4469829Y-49579389D01*
X4215852Y-49052144D01*
X3800051Y-48680641D01*
X4109535Y-48473850D01*
X4434391Y-47987669D01*
X4548465Y-47414180D01*
X4434391Y-46840691D01*
X4109535Y-46354510D01*
X3794754Y-46144180D01*
X4109535Y-45933850D01*
X4434391Y-45447669D01*
X4548465Y-44874180D01*
X4434391Y-44300691D01*
X4109535Y-43814510D01*
X3794754Y-43604180D01*
X4109535Y-43393850D01*
X4434391Y-42907669D01*
X4548465Y-42334180D01*
X4434391Y-41760691D01*
X4109535Y-41274510D01*
X3794754Y-41064180D01*
X4109535Y-40853850D01*
X4297832Y-40572043D01*
X9697551Y-40572043D01*
X9846113Y-40931592D01*
X9913620Y-40999217D01*
X9913620Y-55999380D01*
X9971624Y-56290985D01*
X10053080Y-56412892D01*
X10136805Y-56538195D01*
X10949605Y-57350996D01*
X11097797Y-57450014D01*
X11196815Y-57516176D01*
X11488420Y-57574180D01*
X15946120Y-57574180D01*
X16237725Y-57516176D01*
X16484935Y-57350995D01*
X17353950Y-56481980D01*
X17674537Y-56481980D01*
X17740961Y-56548520D01*
X18100250Y-56697710D01*
X18489283Y-56698049D01*
X18848832Y-56549487D01*
X19124160Y-56274639D01*
X19273350Y-55915350D01*
X19273675Y-55542180D01*
X23058120Y-55542180D01*
X23349725Y-55484176D01*
X23596935Y-55318995D01*
X23754750Y-55161180D01*
X24966080Y-55161180D01*
X24966080Y-57601480D01*
X25010358Y-57836797D01*
X25149430Y-58052921D01*
X25361630Y-58197911D01*
X25613520Y-58248920D01*
X27185563Y-58248920D01*
X27185451Y-58377443D01*
X27257609Y-58552080D01*
X24631050Y-58552080D01*
X23368335Y-57289365D01*
X23344623Y-57273521D01*
X23121125Y-57124184D01*
X22829520Y-57066180D01*
X18662703Y-57066180D01*
X18596279Y-56999640D01*
X18236990Y-56850450D01*
X17847957Y-56850111D01*
X17488408Y-56998673D01*
X17213080Y-57273521D01*
X17063890Y-57632810D01*
X17063551Y-58021843D01*
X17083234Y-58069480D01*
X12477803Y-58069480D01*
X12411379Y-58002940D01*
X12052090Y-57853750D01*
X11663057Y-57853411D01*
X11303508Y-58001973D01*
X11028180Y-58276821D01*
X10878990Y-58636110D01*
X10878651Y-59025143D01*
X11027213Y-59384692D01*
X11302061Y-59660020D01*
X11661350Y-59809210D01*
X12050383Y-59809549D01*
X12409932Y-59660987D01*
X12477557Y-59593480D01*
X17814237Y-59593480D01*
X17880661Y-59660020D01*
X18239950Y-59809210D01*
X18628983Y-59809549D01*
X18988532Y-59660987D01*
X19263860Y-59386139D01*
X19413050Y-59026850D01*
X19413389Y-58637817D01*
X19393706Y-58590180D01*
X22513890Y-58590180D01*
X23776605Y-59852895D01*
X24023815Y-60018076D01*
X24315420Y-60076080D01*
X32938720Y-60076080D01*
X33230325Y-60018076D01*
X33477535Y-59852895D01*
X34391935Y-58938495D01*
X34480299Y-58806249D01*
X34557116Y-58691285D01*
X34615120Y-58399680D01*
X34615120Y-56036263D01*
X34681660Y-55969839D01*
X34830850Y-55610550D01*
X34831189Y-55221517D01*
X34806258Y-55161180D01*
X37409120Y-55161180D01*
X37700725Y-55103176D01*
X37947935Y-54937995D01*
X38138436Y-54747495D01*
X38138438Y-54747492D01*
X38397763Y-54488167D01*
X38491783Y-54488249D01*
X38851332Y-54339687D01*
X39126660Y-54064839D01*
X39275850Y-53705550D01*
X39276189Y-53316517D01*
X39127627Y-52956968D01*
X38852779Y-52681640D01*
X38493490Y-52532450D01*
X38104457Y-52532111D01*
X37744908Y-52680673D01*
X37469580Y-52955521D01*
X37320390Y-53314810D01*
X37320307Y-53410363D01*
X37093490Y-53637180D01*
X31281772Y-53637180D01*
X31326320Y-53619637D01*
X31496953Y-53505623D01*
X32095166Y-52812731D01*
X28163520Y-48881085D01*
X24231874Y-52812731D01*
X24830087Y-53505623D01*
X25132568Y-53637180D01*
X23439120Y-53637180D01*
X23147515Y-53695184D01*
X22900304Y-53860365D01*
X22742489Y-54018180D01*
X14471703Y-54018180D01*
X14433057Y-53979466D01*
X14536250Y-53730950D01*
X14536589Y-53341917D01*
X14388027Y-52982368D01*
X14113179Y-52707040D01*
X13787120Y-52571648D01*
X13787120Y-49741429D01*
X22409385Y-49741429D01*
X23245363Y-51864280D01*
X23359377Y-52034913D01*
X24052269Y-52633126D01*
X27983915Y-48701480D01*
X28343125Y-48701480D01*
X32274771Y-52633126D01*
X32967663Y-52034913D01*
X33877619Y-49942704D01*
X33917655Y-47661531D01*
X33081677Y-45538680D01*
X32967663Y-45368047D01*
X32274771Y-44769834D01*
X28343125Y-48701480D01*
X27983915Y-48701480D01*
X24052269Y-44769834D01*
X23359377Y-45368047D01*
X22449421Y-47460256D01*
X22409385Y-49741429D01*
X13787120Y-49741429D01*
X13787120Y-44590229D01*
X24231874Y-44590229D01*
X28163520Y-48521875D01*
X32095166Y-44590229D01*
X31496953Y-43897337D01*
X29404744Y-42987381D01*
X27213311Y-42948920D01*
X30713520Y-42948920D01*
X30948837Y-42904642D01*
X31164961Y-42765570D01*
X31309951Y-42553370D01*
X31360960Y-42301480D01*
X31360960Y-39801480D01*
X31316682Y-39566163D01*
X31177610Y-39350039D01*
X30965410Y-39205049D01*
X30713520Y-39154040D01*
X28760458Y-39154040D01*
X28760589Y-39003617D01*
X28612027Y-38644068D01*
X28337179Y-38368740D01*
X27977890Y-38219550D01*
X27588857Y-38219211D01*
X27229308Y-38367773D01*
X26953980Y-38642621D01*
X26804790Y-39001910D01*
X26804657Y-39154040D01*
X25613520Y-39154040D01*
X25378203Y-39198318D01*
X25162079Y-39337390D01*
X25017089Y-39549590D01*
X24966080Y-39801480D01*
X24966080Y-42301480D01*
X25010358Y-42536797D01*
X25149430Y-42752921D01*
X25361630Y-42897911D01*
X25613520Y-42948920D01*
X27119572Y-42948920D01*
X25000720Y-43783323D01*
X24830087Y-43897337D01*
X24231874Y-44590229D01*
X13787120Y-44590229D01*
X13787120Y-43018763D01*
X13853660Y-42952339D01*
X14002850Y-42593050D01*
X14003189Y-42204017D01*
X13854627Y-41844468D01*
X13579779Y-41569140D01*
X13220490Y-41419950D01*
X12831457Y-41419611D01*
X12471908Y-41568173D01*
X12196580Y-41843021D01*
X12047390Y-42202310D01*
X12047051Y-42591343D01*
X12195613Y-42950892D01*
X12263120Y-43018517D01*
X12263120Y-47466030D01*
X12077490Y-47388950D01*
X11688457Y-47388611D01*
X11437620Y-47492254D01*
X11437620Y-40999463D01*
X11504160Y-40933039D01*
X11653350Y-40573750D01*
X11653689Y-40184717D01*
X11505127Y-39825168D01*
X11230279Y-39549840D01*
X10870990Y-39400650D01*
X10481957Y-39400311D01*
X10122408Y-39548873D01*
X9847080Y-39823721D01*
X9697890Y-40183010D01*
X9697551Y-40572043D01*
X4297832Y-40572043D01*
X4434391Y-40367669D01*
X4548465Y-39794180D01*
X4434391Y-39220691D01*
X4109535Y-38734510D01*
X4095207Y-38724937D01*
X4116437Y-38720942D01*
X4332561Y-38581870D01*
X4477551Y-38369670D01*
X4528560Y-38117780D01*
X4528560Y-36390580D01*
X4484282Y-36155263D01*
X4345210Y-35939139D01*
X4133010Y-35794149D01*
X3881120Y-35743140D01*
X1922646Y-35743140D01*
X2170602Y-35577461D01*
X2935164Y-35425380D01*
X40856628Y-35425380D01*
X41685040Y-35590162D01*
X41685040Y-35590162D01*
G37*
X41685040Y-35590162D02*
X42273824Y-35983576D01*
X42667239Y-36572362D01*
X42819320Y-37336924D01*
X42819320Y-60056836D01*
X42667239Y-60821398D01*
X42273824Y-61410184D01*
X41685040Y-61803598D01*
X40984322Y-61942980D01*
X2935164Y-61942980D01*
X2170602Y-61790899D01*
X1581816Y-61397484D01*
X1188402Y-60808700D01*
X1036320Y-60044135D01*
X1036320Y-52494180D01*
X1181775Y-52494180D01*
X1295849Y-53067669D01*
X1620705Y-53553850D01*
X1935486Y-53764180D01*
X1620705Y-53974510D01*
X1295849Y-54460691D01*
X1181775Y-55034180D01*
X1295849Y-55607669D01*
X1620705Y-56093850D01*
X1935486Y-56304180D01*
X1620705Y-56514510D01*
X1295849Y-57000691D01*
X1181775Y-57574180D01*
X1295849Y-58147669D01*
X1620705Y-58633850D01*
X1935486Y-58844180D01*
X1620705Y-59054510D01*
X1295849Y-59540691D01*
X1181775Y-60114180D01*
X1295849Y-60687669D01*
X1620705Y-61173850D01*
X2106886Y-61498706D01*
X2680375Y-61612780D01*
X3049865Y-61612780D01*
X3623354Y-61498706D01*
X4109535Y-61173850D01*
X4434391Y-60687669D01*
X4548465Y-60114180D01*
X4434391Y-59540691D01*
X4109535Y-59054510D01*
X3794754Y-58844180D01*
X4109535Y-58633850D01*
X4434391Y-58147669D01*
X4548465Y-57574180D01*
X4434391Y-57000691D01*
X4109535Y-56514510D01*
X3794754Y-56304180D01*
X4109535Y-56093850D01*
X4434391Y-55607669D01*
X4548465Y-55034180D01*
X4434391Y-54460691D01*
X4109535Y-53974510D01*
X3794754Y-53764180D01*
X4109535Y-53553850D01*
X4434391Y-53067669D01*
X4548465Y-52494180D01*
X4434391Y-51920691D01*
X4109535Y-51434510D01*
X3800051Y-51227719D01*
X4215852Y-50856216D01*
X4469829Y-50328971D01*
X4472478Y-50313206D01*
X4351337Y-50081180D01*
X2992120Y-50081180D01*
X2992120Y-50101180D01*
X2738120Y-50101180D01*
X2738120Y-50081180D01*
X1378903Y-50081180D01*
X1257762Y-50313206D01*
X1260411Y-50328971D01*
X1514388Y-50856216D01*
X1930189Y-51227719D01*
X1620705Y-51434510D01*
X1295849Y-51920691D01*
X1181775Y-52494180D01*
X1036320Y-52494180D01*
X1036320Y-37324225D01*
X1188402Y-36559660D01*
X1201680Y-36539788D01*
X1201680Y-38117780D01*
X1245958Y-38353097D01*
X1385030Y-38569221D01*
X1597230Y-38714211D01*
X1638559Y-38722580D01*
X1620705Y-38734510D01*
X1295849Y-39220691D01*
X1181775Y-39794180D01*
X1295849Y-40367669D01*
X1620705Y-40853850D01*
X1935486Y-41064180D01*
X1620705Y-41274510D01*
X1295849Y-41760691D01*
X1181775Y-42334180D01*
X1295849Y-42907669D01*
X1620705Y-43393850D01*
X1935486Y-43604180D01*
X1620705Y-43814510D01*
X1295849Y-44300691D01*
X1181775Y-44874180D01*
X1295849Y-45447669D01*
X1620705Y-45933850D01*
X1935486Y-46144180D01*
X1620705Y-46354510D01*
X1295849Y-46840691D01*
X1181775Y-47414180D01*
X1295849Y-47987669D01*
X1620705Y-48473850D01*
X1930189Y-48680641D01*
X1514388Y-49052144D01*
X1260411Y-49579389D01*
X1257762Y-49595154D01*
X1378903Y-49827180D01*
X2738120Y-49827180D01*
X2738120Y-49807180D01*
X2992120Y-49807180D01*
X2992120Y-49827180D01*
X4351337Y-49827180D01*
X4472478Y-49595154D01*
X4469829Y-49579389D01*
X4215852Y-49052144D01*
X3800051Y-48680641D01*
X4109535Y-48473850D01*
X4434391Y-47987669D01*
X4548465Y-47414180D01*
X4434391Y-46840691D01*
X4109535Y-46354510D01*
X3794754Y-46144180D01*
X4109535Y-45933850D01*
X4434391Y-45447669D01*
X4548465Y-44874180D01*
X4434391Y-44300691D01*
X4109535Y-43814510D01*
X3794754Y-43604180D01*
X4109535Y-43393850D01*
X4434391Y-42907669D01*
X4548465Y-42334180D01*
X4434391Y-41760691D01*
X4109535Y-41274510D01*
X3794754Y-41064180D01*
X4109535Y-40853850D01*
X4297832Y-40572043D01*
X9697551Y-40572043D01*
X9846113Y-40931592D01*
X9913620Y-40999217D01*
X9913620Y-55999380D01*
X9971624Y-56290985D01*
X10053080Y-56412892D01*
X10136805Y-56538195D01*
X10949605Y-57350996D01*
X11097797Y-57450014D01*
X11196815Y-57516176D01*
X11488420Y-57574180D01*
X15946120Y-57574180D01*
X16237725Y-57516176D01*
X16484935Y-57350995D01*
X17353950Y-56481980D01*
X17674537Y-56481980D01*
X17740961Y-56548520D01*
X18100250Y-56697710D01*
X18489283Y-56698049D01*
X18848832Y-56549487D01*
X19124160Y-56274639D01*
X19273350Y-55915350D01*
X19273675Y-55542180D01*
X23058120Y-55542180D01*
X23349725Y-55484176D01*
X23596935Y-55318995D01*
X23754750Y-55161180D01*
X24966080Y-55161180D01*
X24966080Y-57601480D01*
X25010358Y-57836797D01*
X25149430Y-58052921D01*
X25361630Y-58197911D01*
X25613520Y-58248920D01*
X27185563Y-58248920D01*
X27185451Y-58377443D01*
X27257609Y-58552080D01*
X24631050Y-58552080D01*
X23368335Y-57289365D01*
X23344623Y-57273521D01*
X23121125Y-57124184D01*
X22829520Y-57066180D01*
X18662703Y-57066180D01*
X18596279Y-56999640D01*
X18236990Y-56850450D01*
X17847957Y-56850111D01*
X17488408Y-56998673D01*
X17213080Y-57273521D01*
X17063890Y-57632810D01*
X17063551Y-58021843D01*
X17083234Y-58069480D01*
X12477803Y-58069480D01*
X12411379Y-58002940D01*
X12052090Y-57853750D01*
X11663057Y-57853411D01*
X11303508Y-58001973D01*
X11028180Y-58276821D01*
X10878990Y-58636110D01*
X10878651Y-59025143D01*
X11027213Y-59384692D01*
X11302061Y-59660020D01*
X11661350Y-59809210D01*
X12050383Y-59809549D01*
X12409932Y-59660987D01*
X12477557Y-59593480D01*
X17814237Y-59593480D01*
X17880661Y-59660020D01*
X18239950Y-59809210D01*
X18628983Y-59809549D01*
X18988532Y-59660987D01*
X19263860Y-59386139D01*
X19413050Y-59026850D01*
X19413389Y-58637817D01*
X19393706Y-58590180D01*
X22513890Y-58590180D01*
X23776605Y-59852895D01*
X24023815Y-60018076D01*
X24315420Y-60076080D01*
X32938720Y-60076080D01*
X33230325Y-60018076D01*
X33477535Y-59852895D01*
X34391935Y-58938495D01*
X34480299Y-58806249D01*
X34557116Y-58691285D01*
X34615120Y-58399680D01*
X34615120Y-56036263D01*
X34681660Y-55969839D01*
X34830850Y-55610550D01*
X34831189Y-55221517D01*
X34806258Y-55161180D01*
X37409120Y-55161180D01*
X37700725Y-55103176D01*
X37947935Y-54937995D01*
X38138436Y-54747495D01*
X38138438Y-54747492D01*
X38397763Y-54488167D01*
X38491783Y-54488249D01*
X38851332Y-54339687D01*
X39126660Y-54064839D01*
X39275850Y-53705550D01*
X39276189Y-53316517D01*
X39127627Y-52956968D01*
X38852779Y-52681640D01*
X38493490Y-52532450D01*
X38104457Y-52532111D01*
X37744908Y-52680673D01*
X37469580Y-52955521D01*
X37320390Y-53314810D01*
X37320307Y-53410363D01*
X37093490Y-53637180D01*
X31281772Y-53637180D01*
X31326320Y-53619637D01*
X31496953Y-53505623D01*
X32095166Y-52812731D01*
X28163520Y-48881085D01*
X24231874Y-52812731D01*
X24830087Y-53505623D01*
X25132568Y-53637180D01*
X23439120Y-53637180D01*
X23147515Y-53695184D01*
X22900304Y-53860365D01*
X22742489Y-54018180D01*
X14471703Y-54018180D01*
X14433057Y-53979466D01*
X14536250Y-53730950D01*
X14536589Y-53341917D01*
X14388027Y-52982368D01*
X14113179Y-52707040D01*
X13787120Y-52571648D01*
X13787120Y-49741429D01*
X22409385Y-49741429D01*
X23245363Y-51864280D01*
X23359377Y-52034913D01*
X24052269Y-52633126D01*
X27983915Y-48701480D01*
X28343125Y-48701480D01*
X32274771Y-52633126D01*
X32967663Y-52034913D01*
X33877619Y-49942704D01*
X33917655Y-47661531D01*
X33081677Y-45538680D01*
X32967663Y-45368047D01*
X32274771Y-44769834D01*
X28343125Y-48701480D01*
X27983915Y-48701480D01*
X24052269Y-44769834D01*
X23359377Y-45368047D01*
X22449421Y-47460256D01*
X22409385Y-49741429D01*
X13787120Y-49741429D01*
X13787120Y-44590229D01*
X24231874Y-44590229D01*
X28163520Y-48521875D01*
X32095166Y-44590229D01*
X31496953Y-43897337D01*
X29404744Y-42987381D01*
X27213311Y-42948920D01*
X30713520Y-42948920D01*
X30948837Y-42904642D01*
X31164961Y-42765570D01*
X31309951Y-42553370D01*
X31360960Y-42301480D01*
X31360960Y-39801480D01*
X31316682Y-39566163D01*
X31177610Y-39350039D01*
X30965410Y-39205049D01*
X30713520Y-39154040D01*
X28760458Y-39154040D01*
X28760589Y-39003617D01*
X28612027Y-38644068D01*
X28337179Y-38368740D01*
X27977890Y-38219550D01*
X27588857Y-38219211D01*
X27229308Y-38367773D01*
X26953980Y-38642621D01*
X26804790Y-39001910D01*
X26804657Y-39154040D01*
X25613520Y-39154040D01*
X25378203Y-39198318D01*
X25162079Y-39337390D01*
X25017089Y-39549590D01*
X24966080Y-39801480D01*
X24966080Y-42301480D01*
X25010358Y-42536797D01*
X25149430Y-42752921D01*
X25361630Y-42897911D01*
X25613520Y-42948920D01*
X27119572Y-42948920D01*
X25000720Y-43783323D01*
X24830087Y-43897337D01*
X24231874Y-44590229D01*
X13787120Y-44590229D01*
X13787120Y-43018763D01*
X13853660Y-42952339D01*
X14002850Y-42593050D01*
X14003189Y-42204017D01*
X13854627Y-41844468D01*
X13579779Y-41569140D01*
X13220490Y-41419950D01*
X12831457Y-41419611D01*
X12471908Y-41568173D01*
X12196580Y-41843021D01*
X12047390Y-42202310D01*
X12047051Y-42591343D01*
X12195613Y-42950892D01*
X12263120Y-43018517D01*
X12263120Y-47466030D01*
X12077490Y-47388950D01*
X11688457Y-47388611D01*
X11437620Y-47492254D01*
X11437620Y-40999463D01*
X11504160Y-40933039D01*
X11653350Y-40573750D01*
X11653689Y-40184717D01*
X11505127Y-39825168D01*
X11230279Y-39549840D01*
X10870990Y-39400650D01*
X10481957Y-39400311D01*
X10122408Y-39548873D01*
X9847080Y-39823721D01*
X9697890Y-40183010D01*
X9697551Y-40572043D01*
X4297832Y-40572043D01*
X4434391Y-40367669D01*
X4548465Y-39794180D01*
X4434391Y-39220691D01*
X4109535Y-38734510D01*
X4095207Y-38724937D01*
X4116437Y-38720942D01*
X4332561Y-38581870D01*
X4477551Y-38369670D01*
X4528560Y-38117780D01*
X4528560Y-36390580D01*
X4484282Y-36155263D01*
X4345210Y-35939139D01*
X4133010Y-35794149D01*
X3881120Y-35743140D01*
X1922646Y-35743140D01*
X2170602Y-35577461D01*
X2935164Y-35425380D01*
X40856628Y-35425380D01*
X41685040Y-35590162D01*
D17*
X14244320Y-51490880D03*
X21915120Y-46842680D03*
X11564620Y-44556680D03*
X42552620Y-58272680D03*
X42679620Y-55224680D03*
X38107620Y-58399680D03*
X38171120Y-55288180D03*
X15311120Y-40238680D03*
X15311120Y-46525180D03*
X18232120Y-46715680D03*
X15311120Y-42588180D03*
X19248120Y-39222680D03*
X37726620Y-45255180D03*
X34170620Y-45255180D03*
X21915120Y-46842680D03*
X21851620Y-53192680D03*
X9771620Y-45509180D03*
X28163520Y-58183780D03*
X27782520Y-39197280D03*
X11882120Y-55859680D03*
X11882120Y-48366680D03*
X38298120Y-53510180D03*
X13850620Y-54780180D03*
X18041620Y-57828180D03*
X33853120Y-55415180D03*
X10675620Y-40378380D03*
X18295620Y-55719980D03*
X13558520Y-53535580D03*
X13025120Y-42397680D03*
X18435320Y-58831480D03*
X11856720Y-58831480D03*
D18*
X2865120Y-37254180D03*
X2865120Y-39794180D03*
X2865120Y-42334180D03*
X2865120Y-44874180D03*
X2865120Y-47414180D03*
X2865120Y-49954180D03*
X2865120Y-52494180D03*
X2865120Y-55034180D03*
X2865120Y-57574180D03*
X2865120Y-60114180D03*
M02*
