G04 This is an RS-274x file exported by *
G04 gerbv version 2.6.0 *
G04 More information is available about gerbv at *
G04 http://gerbv.gpleda.org/ *
G04 --End of header info--*
%MOIN*%
%FSLAX34Y34*%
%IPPOS*%
G04 --Define apertures--*
%ADD10C,0.0138*%
%ADD11C,0.0060*%
%ADD12C,0.0016*%
%ADD13C,0.0020*%
%ADD14C,0.0020*%
%ADD15C,0.0200*%
%ADD16C,0.0059*%
%ADD17C,0.0100*%
%ADD18C,0.0080*%
G04 --Start main section--*
G54D11*
G01X0067510Y-041005D02*
G01X0067510Y-032005D01*
G01X0051500Y-042000D02*
G01X0066530Y-042000D01*
G01X0050500Y-032000D02*
G01X0050500Y-041000D01*
G01X0066530Y-031000D02*
G01X0051500Y-031000D01*
G01X0067510Y-032005D02*
G75*
G03X0066510Y-031005I-001000J0000000D01*
G01X0066510Y-042005D02*
G75*
G03X0067510Y-041005I0000000J0001000D01*
G01X0050500Y-041000D02*
G75*
G03X0051500Y-042000I0001000J0000000D01*
G01X0051500Y-031000D02*
G75*
G03X0050500Y-032000I0000000J-001000D01*
G54D12*
G01X0065627Y-040266D02*
G01X0065627Y-040659D01*
G01X0065430Y-040266D02*
G01X0065627Y-040266D01*
G01X0065627Y-038986D02*
G01X0065430Y-038986D01*
G01X0065627Y-038789D02*
G01X0065627Y-038986D01*
G01X0066906Y-040659D02*
G01X0066906Y-038789D01*
G01X0065627Y-040659D02*
G01X0066906Y-040659D01*
G01X0065430Y-038986D02*
G01X0065430Y-040266D01*
G01X0065627Y-038789D02*
G01X0065725Y-038789D01*
G01X0066906Y-038789D02*
G01X0065725Y-038789D01*
G54D13*
G01X0053609Y-034580D02*
G01X0054751Y-034580D01*
G01X0053609Y-034580D02*
G01X0053609Y-035170D01*
G01X0054751Y-034580D02*
G01X0054751Y-035170D01*
G01X0053609Y-035170D02*
G01X0054751Y-035170D01*
G01X0057266Y-036470D02*
G01X0056124Y-036470D01*
G01X0057266Y-036470D02*
G01X0057266Y-035880D01*
G01X0056124Y-036470D02*
G01X0056124Y-035880D01*
G01X0057266Y-035880D02*
G01X0056124Y-035880D01*
G01X0057266Y-033995D02*
G01X0056124Y-033995D01*
G01X0057266Y-033995D02*
G01X0057266Y-033405D01*
G01X0056124Y-033995D02*
G01X0056124Y-033405D01*
G01X0057266Y-033405D02*
G01X0056124Y-033405D01*
G01X0057276Y-034795D02*
G01X0056134Y-034795D01*
G01X0057276Y-034795D02*
G01X0057276Y-034205D01*
G01X0056134Y-034795D02*
G01X0056134Y-034205D01*
G01X0057276Y-034205D02*
G01X0056134Y-034205D01*
G01X0055805Y-037300D02*
G01X0055805Y-037900D01*
G01X0055905Y-037300D02*
G01X0057405Y-037300D01*
G01X0055905Y-037305D02*
G01X0055905Y-037895D01*
G01X0057405Y-037305D02*
G01X0057405Y-037895D01*
G01X0055905Y-037900D02*
G01X0057405Y-037900D01*
G01X0056134Y-039005D02*
G01X0057276Y-039005D01*
G01X0056134Y-039005D02*
G01X0056134Y-039595D01*
G01X0057276Y-039005D02*
G01X0057276Y-039595D01*
G01X0056134Y-039595D02*
G01X0057276Y-039595D01*
G01X0056124Y-036605D02*
G01X0057266Y-036605D01*
G01X0056124Y-036605D02*
G01X0056124Y-037195D01*
G01X0057266Y-036605D02*
G01X0057266Y-037195D01*
G01X0056124Y-037195D02*
G01X0057266Y-037195D01*
G01X0057266Y-040395D02*
G01X0056124Y-040395D01*
G01X0057266Y-040395D02*
G01X0057266Y-039805D01*
G01X0056124Y-040395D02*
G01X0056124Y-039805D01*
G01X0057266Y-039805D02*
G01X0056124Y-039805D01*
G01X0060139Y-033400D02*
G01X0058139Y-033400D01*
G01X0060139Y-032200D02*
G01X0060139Y-033400D01*
G01X0058139Y-032200D02*
G01X0060139Y-032200D01*
G01X0058139Y-033400D02*
G01X0058139Y-032200D01*
G54D12*
G01X0053694Y-036601D02*
G01X0054744Y-036601D01*
G01X0053694Y-035401D02*
G01X0053694Y-036601D01*
G01X0054744Y-035401D02*
G01X0053694Y-035401D01*
G01X0054744Y-036601D02*
G01X0054744Y-035401D01*
G54D14*
G01X0050791Y-041724D02*
G01X0050791Y-031291D01*
G01X0052209Y-041724D02*
G01X0050791Y-041724D01*
G01X0052209Y-031291D02*
G01X0052209Y-041724D01*
G01X0050791Y-031291D02*
G01X0052209Y-031291D01*
G54D11*
G01X0055652Y-038046D02*
G01X0055652Y-038715D01*
G54D14*
G01X0057621Y-038833D02*
G01X0057621Y-037967D01*
G01X0055810Y-038833D02*
G01X0057621Y-038833D01*
G01X0055810Y-037967D02*
G01X0055810Y-038833D01*
G01X0057621Y-037967D02*
G01X0055810Y-037967D01*
G54D12*
G01X0057660Y-034855D02*
G01X0058644Y-033969D01*
G01X0065140Y-033969D02*
G01X0058644Y-033969D01*
G01X0065140Y-040563D02*
G01X0065140Y-033969D01*
G01X0057660Y-040563D02*
G01X0065140Y-040563D01*
G01X0057660Y-034855D02*
G01X0057660Y-040563D01*
G54D15*
G01X0058537Y-034756D02*
G75*
G03X0058537Y-034756I-000090J0000000D01*
G54D11*
G01X0065944Y-039725D02*
G01X0066087Y-039725D01*
G01X0065916Y-039811D02*
G01X0066016Y-039511D01*
G01X0066016Y-039511D02*
G01X0066116Y-039811D01*
G01X0066216Y-039811D02*
G01X0066216Y-039511D01*
G01X0066216Y-039511D02*
G01X0066387Y-039811D01*
G01X0066387Y-039811D02*
G01X0066387Y-039511D01*
G01X0066687Y-039811D02*
G01X0066516Y-039811D01*
G01X0066601Y-039811D02*
G01X0066601Y-039511D01*
G01X0066601Y-039511D02*
G01X0066573Y-039554D01*
G01X0066573Y-039554D02*
G01X0066544Y-039582D01*
G01X0066544Y-039582D02*
G01X0066516Y-039596D01*
G54D16*
G01X0054163Y-035003D02*
G01X0054148Y-035018D01*
G01X0054148Y-035018D02*
G01X0054103Y-035033D01*
G01X0054103Y-035033D02*
G01X0054073Y-035033D01*
G01X0054073Y-035033D02*
G01X0054028Y-035018D01*
G01X0054028Y-035018D02*
G01X0053998Y-034988D01*
G01X0053998Y-034988D02*
G01X0053983Y-034958D01*
G01X0053983Y-034958D02*
G01X0053968Y-034898D01*
G01X0053968Y-034898D02*
G01X0053968Y-034853D01*
G01X0053968Y-034853D02*
G01X0053983Y-034793D01*
G01X0053983Y-034793D02*
G01X0053998Y-034763D01*
G01X0053998Y-034763D02*
G01X0054028Y-034733D01*
G01X0054028Y-034733D02*
G01X0054073Y-034718D01*
G01X0054073Y-034718D02*
G01X0054103Y-034718D01*
G01X0054103Y-034718D02*
G01X0054148Y-034733D01*
G01X0054148Y-034733D02*
G01X0054163Y-034748D01*
G01X0054463Y-035033D02*
G01X0054283Y-035033D01*
G01X0054373Y-035033D02*
G01X0054373Y-034718D01*
G01X0054373Y-034718D02*
G01X0054343Y-034763D01*
G01X0054343Y-034763D02*
G01X0054313Y-034793D01*
G01X0054313Y-034793D02*
G01X0054283Y-034808D01*
G01X0056607Y-036272D02*
G01X0056592Y-036287D01*
G01X0056592Y-036287D02*
G01X0056547Y-036302D01*
G01X0056547Y-036302D02*
G01X0056517Y-036302D01*
G01X0056517Y-036302D02*
G01X0056472Y-036287D01*
G01X0056472Y-036287D02*
G01X0056442Y-036257D01*
G01X0056442Y-036257D02*
G01X0056427Y-036227D01*
G01X0056427Y-036227D02*
G01X0056412Y-036167D01*
G01X0056412Y-036167D02*
G01X0056412Y-036122D01*
G01X0056412Y-036122D02*
G01X0056427Y-036062D01*
G01X0056427Y-036062D02*
G01X0056442Y-036032D01*
G01X0056442Y-036032D02*
G01X0056472Y-036002D01*
G01X0056472Y-036002D02*
G01X0056517Y-035987D01*
G01X0056517Y-035987D02*
G01X0056547Y-035987D01*
G01X0056547Y-035987D02*
G01X0056592Y-036002D01*
G01X0056592Y-036002D02*
G01X0056607Y-036017D01*
G01X0056727Y-036017D02*
G01X0056742Y-036002D01*
G01X0056742Y-036002D02*
G01X0056772Y-035987D01*
G01X0056772Y-035987D02*
G01X0056847Y-035987D01*
G01X0056847Y-035987D02*
G01X0056877Y-036002D01*
G01X0056877Y-036002D02*
G01X0056892Y-036017D01*
G01X0056892Y-036017D02*
G01X0056907Y-036047D01*
G01X0056907Y-036047D02*
G01X0056907Y-036077D01*
G01X0056907Y-036077D02*
G01X0056892Y-036122D01*
G01X0056892Y-036122D02*
G01X0056712Y-036302D01*
G01X0056712Y-036302D02*
G01X0056907Y-036302D01*
G01X0056607Y-033797D02*
G01X0056592Y-033812D01*
G01X0056592Y-033812D02*
G01X0056547Y-033827D01*
G01X0056547Y-033827D02*
G01X0056517Y-033827D01*
G01X0056517Y-033827D02*
G01X0056472Y-033812D01*
G01X0056472Y-033812D02*
G01X0056442Y-033782D01*
G01X0056442Y-033782D02*
G01X0056427Y-033752D01*
G01X0056427Y-033752D02*
G01X0056412Y-033692D01*
G01X0056412Y-033692D02*
G01X0056412Y-033647D01*
G01X0056412Y-033647D02*
G01X0056427Y-033587D01*
G01X0056427Y-033587D02*
G01X0056442Y-033557D01*
G01X0056442Y-033557D02*
G01X0056472Y-033527D01*
G01X0056472Y-033527D02*
G01X0056517Y-033512D01*
G01X0056517Y-033512D02*
G01X0056547Y-033512D01*
G01X0056547Y-033512D02*
G01X0056592Y-033527D01*
G01X0056592Y-033527D02*
G01X0056607Y-033542D01*
G01X0056712Y-033512D02*
G01X0056907Y-033512D01*
G01X0056907Y-033512D02*
G01X0056802Y-033632D01*
G01X0056802Y-033632D02*
G01X0056847Y-033632D01*
G01X0056847Y-033632D02*
G01X0056877Y-033647D01*
G01X0056877Y-033647D02*
G01X0056892Y-033662D01*
G01X0056892Y-033662D02*
G01X0056907Y-033692D01*
G01X0056907Y-033692D02*
G01X0056907Y-033767D01*
G01X0056907Y-033767D02*
G01X0056892Y-033797D01*
G01X0056892Y-033797D02*
G01X0056877Y-033812D01*
G01X0056877Y-033812D02*
G01X0056847Y-033827D01*
G01X0056847Y-033827D02*
G01X0056757Y-033827D01*
G01X0056757Y-033827D02*
G01X0056727Y-033812D01*
G01X0056727Y-033812D02*
G01X0056712Y-033797D01*
G01X0056617Y-034597D02*
G01X0056602Y-034612D01*
G01X0056602Y-034612D02*
G01X0056557Y-034627D01*
G01X0056557Y-034627D02*
G01X0056527Y-034627D01*
G01X0056527Y-034627D02*
G01X0056482Y-034612D01*
G01X0056482Y-034612D02*
G01X0056452Y-034582D01*
G01X0056452Y-034582D02*
G01X0056437Y-034552D01*
G01X0056437Y-034552D02*
G01X0056422Y-034492D01*
G01X0056422Y-034492D02*
G01X0056422Y-034447D01*
G01X0056422Y-034447D02*
G01X0056437Y-034387D01*
G01X0056437Y-034387D02*
G01X0056452Y-034357D01*
G01X0056452Y-034357D02*
G01X0056482Y-034327D01*
G01X0056482Y-034327D02*
G01X0056527Y-034312D01*
G01X0056527Y-034312D02*
G01X0056557Y-034312D01*
G01X0056557Y-034312D02*
G01X0056602Y-034327D01*
G01X0056602Y-034327D02*
G01X0056617Y-034342D01*
G01X0056887Y-034417D02*
G01X0056887Y-034627D01*
G01X0056812Y-034297D02*
G01X0056737Y-034522D01*
G01X0056737Y-034522D02*
G01X0056932Y-034522D01*
G01X0056288Y-037758D02*
G01X0056138Y-037758D01*
G01X0056138Y-037758D02*
G01X0056138Y-037443D01*
G01X0056393Y-037593D02*
G01X0056498Y-037593D01*
G01X0056543Y-037758D02*
G01X0056393Y-037758D01*
G01X0056393Y-037758D02*
G01X0056393Y-037443D01*
G01X0056393Y-037443D02*
G01X0056543Y-037443D01*
G01X0056678Y-037758D02*
G01X0056678Y-037443D01*
G01X0056678Y-037443D02*
G01X0056753Y-037443D01*
G01X0056753Y-037443D02*
G01X0056798Y-037458D01*
G01X0056798Y-037458D02*
G01X0056828Y-037488D01*
G01X0056828Y-037488D02*
G01X0056843Y-037518D01*
G01X0056843Y-037518D02*
G01X0056858Y-037578D01*
G01X0056858Y-037578D02*
G01X0056858Y-037623D01*
G01X0056858Y-037623D02*
G01X0056843Y-037683D01*
G01X0056843Y-037683D02*
G01X0056828Y-037713D01*
G01X0056828Y-037713D02*
G01X0056798Y-037743D01*
G01X0056798Y-037743D02*
G01X0056753Y-037758D01*
G01X0056753Y-037758D02*
G01X0056678Y-037758D01*
G01X0057158Y-037758D02*
G01X0056978Y-037758D01*
G01X0057068Y-037758D02*
G01X0057068Y-037443D01*
G01X0057068Y-037443D02*
G01X0057038Y-037488D01*
G01X0057038Y-037488D02*
G01X0057008Y-037518D01*
G01X0057008Y-037518D02*
G01X0056978Y-037533D01*
G01X0056688Y-039458D02*
G01X0056583Y-039308D01*
G01X0056508Y-039458D02*
G01X0056508Y-039143D01*
G01X0056508Y-039143D02*
G01X0056628Y-039143D01*
G01X0056628Y-039143D02*
G01X0056658Y-039158D01*
G01X0056658Y-039158D02*
G01X0056673Y-039173D01*
G01X0056673Y-039173D02*
G01X0056688Y-039203D01*
G01X0056688Y-039203D02*
G01X0056688Y-039248D01*
G01X0056688Y-039248D02*
G01X0056673Y-039278D01*
G01X0056673Y-039278D02*
G01X0056658Y-039293D01*
G01X0056658Y-039293D02*
G01X0056628Y-039308D01*
G01X0056628Y-039308D02*
G01X0056508Y-039308D01*
G01X0056988Y-039458D02*
G01X0056808Y-039458D01*
G01X0056898Y-039458D02*
G01X0056898Y-039143D01*
G01X0056898Y-039143D02*
G01X0056868Y-039188D01*
G01X0056868Y-039188D02*
G01X0056838Y-039218D01*
G01X0056838Y-039218D02*
G01X0056808Y-039233D01*
G01X0056678Y-037058D02*
G01X0056573Y-036908D01*
G01X0056498Y-037058D02*
G01X0056498Y-036743D01*
G01X0056498Y-036743D02*
G01X0056618Y-036743D01*
G01X0056618Y-036743D02*
G01X0056648Y-036758D01*
G01X0056648Y-036758D02*
G01X0056663Y-036773D01*
G01X0056663Y-036773D02*
G01X0056678Y-036803D01*
G01X0056678Y-036803D02*
G01X0056678Y-036848D01*
G01X0056678Y-036848D02*
G01X0056663Y-036878D01*
G01X0056663Y-036878D02*
G01X0056648Y-036893D01*
G01X0056648Y-036893D02*
G01X0056618Y-036908D01*
G01X0056618Y-036908D02*
G01X0056498Y-036908D01*
G01X0056798Y-036773D02*
G01X0056813Y-036758D01*
G01X0056813Y-036758D02*
G01X0056843Y-036743D01*
G01X0056843Y-036743D02*
G01X0056918Y-036743D01*
G01X0056918Y-036743D02*
G01X0056948Y-036758D01*
G01X0056948Y-036758D02*
G01X0056963Y-036773D01*
G01X0056963Y-036773D02*
G01X0056978Y-036803D01*
G01X0056978Y-036803D02*
G01X0056978Y-036833D01*
G01X0056978Y-036833D02*
G01X0056963Y-036878D01*
G01X0056963Y-036878D02*
G01X0056783Y-037058D01*
G01X0056783Y-037058D02*
G01X0056978Y-037058D01*
G01X0056607Y-040227D02*
G01X0056502Y-040077D01*
G01X0056427Y-040227D02*
G01X0056427Y-039912D01*
G01X0056427Y-039912D02*
G01X0056547Y-039912D01*
G01X0056547Y-039912D02*
G01X0056577Y-039927D01*
G01X0056577Y-039927D02*
G01X0056592Y-039942D01*
G01X0056592Y-039942D02*
G01X0056607Y-039972D01*
G01X0056607Y-039972D02*
G01X0056607Y-040017D01*
G01X0056607Y-040017D02*
G01X0056592Y-040047D01*
G01X0056592Y-040047D02*
G01X0056577Y-040062D01*
G01X0056577Y-040062D02*
G01X0056547Y-040077D01*
G01X0056547Y-040077D02*
G01X0056427Y-040077D01*
G01X0056712Y-039912D02*
G01X0056907Y-039912D01*
G01X0056907Y-039912D02*
G01X0056802Y-040032D01*
G01X0056802Y-040032D02*
G01X0056847Y-040032D01*
G01X0056847Y-040032D02*
G01X0056877Y-040047D01*
G01X0056877Y-040047D02*
G01X0056892Y-040062D01*
G01X0056892Y-040062D02*
G01X0056907Y-040092D01*
G01X0056907Y-040092D02*
G01X0056907Y-040167D01*
G01X0056907Y-040167D02*
G01X0056892Y-040197D01*
G01X0056892Y-040197D02*
G01X0056877Y-040212D01*
G01X0056877Y-040212D02*
G01X0056847Y-040227D01*
G01X0056847Y-040227D02*
G01X0056757Y-040227D01*
G01X0056757Y-040227D02*
G01X0056727Y-040212D01*
G01X0056727Y-040212D02*
G01X0056712Y-040197D01*
G01X0058839Y-032959D02*
G01X0058895Y-032978D01*
G01X0058895Y-032978D02*
G01X0058989Y-032978D01*
G01X0058989Y-032978D02*
G01X0059026Y-032959D01*
G01X0059026Y-032959D02*
G01X0059045Y-032941D01*
G01X0059045Y-032941D02*
G01X0059064Y-032903D01*
G01X0059064Y-032903D02*
G01X0059064Y-032866D01*
G01X0059064Y-032866D02*
G01X0059045Y-032828D01*
G01X0059045Y-032828D02*
G01X0059026Y-032809D01*
G01X0059026Y-032809D02*
G01X0058989Y-032791D01*
G01X0058989Y-032791D02*
G01X0058914Y-032772D01*
G01X0058914Y-032772D02*
G01X0058876Y-032753D01*
G01X0058876Y-032753D02*
G01X0058857Y-032734D01*
G01X0058857Y-032734D02*
G01X0058839Y-032697D01*
G01X0058839Y-032697D02*
G01X0058839Y-032659D01*
G01X0058839Y-032659D02*
G01X0058857Y-032622D01*
G01X0058857Y-032622D02*
G01X0058876Y-032603D01*
G01X0058876Y-032603D02*
G01X0058914Y-032584D01*
G01X0058914Y-032584D02*
G01X0059007Y-032584D01*
G01X0059007Y-032584D02*
G01X0059064Y-032603D01*
G01X0059439Y-032978D02*
G01X0059214Y-032978D01*
G01X0059326Y-032978D02*
G01X0059326Y-032584D01*
G01X0059326Y-032584D02*
G01X0059289Y-032641D01*
G01X0059289Y-032641D02*
G01X0059251Y-032678D01*
G01X0059251Y-032678D02*
G01X0059214Y-032697D01*
G01X0053919Y-035785D02*
G01X0053919Y-036104D01*
G01X0053919Y-036104D02*
G01X0053938Y-036142D01*
G01X0053938Y-036142D02*
G01X0053957Y-036160D01*
G01X0053957Y-036160D02*
G01X0053994Y-036179D01*
G01X0053994Y-036179D02*
G01X0054069Y-036179D01*
G01X0054069Y-036179D02*
G01X0054107Y-036160D01*
G01X0054107Y-036160D02*
G01X0054125Y-036142D01*
G01X0054125Y-036142D02*
G01X0054144Y-036104D01*
G01X0054144Y-036104D02*
G01X0054144Y-035785D01*
G01X0054538Y-036179D02*
G01X0054313Y-036179D01*
G01X0054425Y-036179D02*
G01X0054425Y-035785D01*
G01X0054425Y-035785D02*
G01X0054388Y-035842D01*
G01X0054388Y-035842D02*
G01X0054350Y-035879D01*
G01X0054350Y-035879D02*
G01X0054313Y-035898D01*
G54D17*
G01X0051273Y-036089D02*
G01X0051273Y-036661D01*
G01X0051273Y-036661D02*
G01X0051235Y-036775D01*
G01X0051235Y-036775D02*
G01X0051158Y-036851D01*
G01X0051158Y-036851D02*
G01X0051044Y-036889D01*
G01X0051044Y-036889D02*
G01X0050968Y-036889D01*
G01X0052073Y-036889D02*
G01X0051616Y-036889D01*
G01X0051844Y-036889D02*
G01X0051844Y-036089D01*
G01X0051844Y-036089D02*
G01X0051768Y-036204D01*
G01X0051768Y-036204D02*
G01X0051692Y-036280D01*
G01X0051692Y-036280D02*
G01X0051616Y-036318D01*
G54D16*
G01X0056425Y-038578D02*
G01X0056425Y-038184D01*
G01X0056425Y-038184D02*
G01X0056519Y-038184D01*
G01X0056519Y-038184D02*
G01X0056575Y-038203D01*
G01X0056575Y-038203D02*
G01X0056612Y-038241D01*
G01X0056612Y-038241D02*
G01X0056631Y-038278D01*
G01X0056631Y-038278D02*
G01X0056650Y-038353D01*
G01X0056650Y-038353D02*
G01X0056650Y-038409D01*
G01X0056650Y-038409D02*
G01X0056631Y-038484D01*
G01X0056631Y-038484D02*
G01X0056612Y-038522D01*
G01X0056612Y-038522D02*
G01X0056575Y-038559D01*
G01X0056575Y-038559D02*
G01X0056519Y-038578D01*
G01X0056519Y-038578D02*
G01X0056425Y-038578D01*
G01X0057025Y-038578D02*
G01X0056800Y-038578D01*
G01X0056912Y-038578D02*
G01X0056912Y-038184D01*
G01X0056912Y-038184D02*
G01X0056875Y-038241D01*
G01X0056875Y-038241D02*
G01X0056837Y-038278D01*
G01X0056837Y-038278D02*
G01X0056800Y-038297D01*
G54D18*
G01X0061145Y-037023D02*
G01X0061145Y-037347D01*
G01X0061145Y-037347D02*
G01X0061164Y-037385D01*
G01X0061164Y-037385D02*
G01X0061183Y-037404D01*
G01X0061183Y-037404D02*
G01X0061221Y-037423D01*
G01X0061221Y-037423D02*
G01X0061298Y-037423D01*
G01X0061298Y-037423D02*
G01X0061336Y-037404D01*
G01X0061336Y-037404D02*
G01X0061355Y-037385D01*
G01X0061355Y-037385D02*
G01X0061374Y-037347D01*
G01X0061374Y-037347D02*
G01X0061374Y-037023D01*
G01X0061545Y-037061D02*
G01X0061564Y-037042D01*
G01X0061564Y-037042D02*
G01X0061602Y-037023D01*
G01X0061602Y-037023D02*
G01X0061698Y-037023D01*
G01X0061698Y-037023D02*
G01X0061736Y-037042D01*
G01X0061736Y-037042D02*
G01X0061755Y-037061D01*
G01X0061755Y-037061D02*
G01X0061774Y-037099D01*
G01X0061774Y-037099D02*
G01X0061774Y-037137D01*
G01X0061774Y-037137D02*
G01X0061755Y-037194D01*
G01X0061755Y-037194D02*
G01X0061526Y-037423D01*
G01X0061526Y-037423D02*
G01X0061774Y-037423D01*
G01X0000000Y0000000D02*
G54D11*
G01X0067510Y-041005D02*
G01X0067510Y-032005D01*
G01X0051500Y-042000D02*
G01X0066530Y-042000D01*
G01X0050500Y-032000D02*
G01X0050500Y-041000D01*
G01X0066530Y-031000D02*
G01X0051500Y-031000D01*
G01X0067510Y-032005D02*
G75*
G03X0066510Y-031005I-001000J0000000D01*
G01X0066510Y-042005D02*
G75*
G03X0067510Y-041005I0000000J0001000D01*
G01X0050500Y-041000D02*
G75*
G03X0051500Y-042000I0001000J0000000D01*
G01X0051500Y-031000D02*
G75*
G03X0050500Y-032000I0000000J-001000D01*
M02*
