G04 This is an RS-274x file exported by *
G04 gerbv version 2.6.0 *
G04 More information is available about gerbv at *
G04 http://gerbv.gpleda.org/ *
G04 --End of header info--*
%MOIN*%
%FSLAX34Y34*%
%IPPOS*%
G04 --Define apertures--*
%ADD10C,0.0138*%
%ADD11C,0.0016*%
%ADD12C,0.0100*%
%ADD13C,0.0060*%
G04 --Start main section--*
G54D11*
G01X0009119Y-021142D02*
G75*
G02X0009119Y-017205I0001969J0001969D01*
G01X0009119Y-015335D02*
G01X0009119Y-017205D01*
G01X0013057Y-015335D02*
G01X0009119Y-015335D01*
G01X0013057Y-015335D02*
G01X0013057Y-017205D01*
G01X0009119Y-023012D02*
G01X0009119Y-021142D01*
G01X0009119Y-023012D02*
G01X0013057Y-023012D01*
G01X0013057Y-023012D02*
G01X0013057Y-021142D01*
G01X0013057Y-017205D02*
G75*
G02X0013057Y-021142I-001969J-001969D01*
G54D12*
G01X0012044Y-019118D02*
G01X0011932Y-019155D01*
G01X0011932Y-019155D02*
G01X0011894Y-019193D01*
G01X0011894Y-019193D02*
G01X0011857Y-019268D01*
G01X0011857Y-019268D02*
G01X0011857Y-019380D01*
G01X0011857Y-019380D02*
G01X0011894Y-019455D01*
G01X0011894Y-019455D02*
G01X0011932Y-019493D01*
G01X0011932Y-019493D02*
G01X0012007Y-019530D01*
G01X0012007Y-019530D02*
G01X0012307Y-019530D01*
G01X0012307Y-019530D02*
G01X0012307Y-018743D01*
G01X0012307Y-018743D02*
G01X0012044Y-018743D01*
G01X0012044Y-018743D02*
G01X0011969Y-018780D01*
G01X0011969Y-018780D02*
G01X0011932Y-018818D01*
G01X0011932Y-018818D02*
G01X0011894Y-018893D01*
G01X0011894Y-018893D02*
G01X0011894Y-018968D01*
G01X0011894Y-018968D02*
G01X0011932Y-019043D01*
G01X0011932Y-019043D02*
G01X0011969Y-019080D01*
G01X0011969Y-019080D02*
G01X0012044Y-019118D01*
G01X0012044Y-019118D02*
G01X0012307Y-019118D01*
G01X0011557Y-019305D02*
G01X0011182Y-019305D01*
G01X0011632Y-019530D02*
G01X0011369Y-018743D01*
G01X0011369Y-018743D02*
G01X0011107Y-019530D01*
G01X0010957Y-018743D02*
G01X0010507Y-018743D01*
G01X0010732Y-019530D02*
G01X0010732Y-018743D01*
G01X0009832Y-019530D02*
G01X0010282Y-019530D01*
G01X0010057Y-019530D02*
G01X0010057Y-018743D01*
G01X0010057Y-018743D02*
G01X0010132Y-018855D01*
G01X0010132Y-018855D02*
G01X0010207Y-018930D01*
G01X0010207Y-018930D02*
G01X0010282Y-018968D01*
G01X0000000Y0000000D02*
G54D13*
G01X0017138Y-023672D02*
G01X0017138Y-014672D01*
G01X0001128Y-024667D02*
G01X0016158Y-024667D01*
G01X0000128Y-014667D02*
G01X0000128Y-023667D01*
G01X0016158Y-013667D02*
G01X0001128Y-013667D01*
G01X0017138Y-014672D02*
G75*
G03X0016138Y-013672I-001000J0000000D01*
G01X0016138Y-024672D02*
G75*
G03X0017138Y-023672I0000000J0001000D01*
G01X0000128Y-023667D02*
G75*
G03X0001128Y-024667I0001000J0000000D01*
G01X0001128Y-013667D02*
G75*
G03X0000128Y-014667I0000000J-001000D01*
M02*
