%TF.GenerationSoftware,KiCad,Pcbnew,4.0.5-e0-6337~49~ubuntu16.04.1*%
%TF.CreationDate,2017-03-30T12:13:01-07:00*%
%TF.ProjectId,fgpmmopa6h-gps-breakout,6667706D6D6F706136682D6770732D62,v1.0*%
%TF.FileFunction,Soldermask,Bot*%
%FSLAX46Y46*%
G04 Gerber Fmt 4.6, Leading zero omitted, Abs format (unit mm)*
G04 Created by KiCad (PCBNEW 4.0.5-e0-6337~49~ubuntu16.04.1) date Thu Mar 30 12:13:01 2017*
%MOMM*%
%LPD*%
G01*
G04 APERTURE LIST*
%ADD10C,0.350000*%
G04 APERTURE END LIST*
D10*
G36*
X3033869Y-59174457D02*
X3033874Y-59174458D01*
X3035927Y-59174472D01*
X3218200Y-59194917D01*
X3393032Y-59250377D01*
X3553761Y-59338738D01*
X3694266Y-59456636D01*
X3809196Y-59599580D01*
X3894172Y-59762125D01*
X3945959Y-59938079D01*
X3945963Y-59938120D01*
X3945964Y-59938124D01*
X3962583Y-60120738D01*
X3944768Y-60290236D01*
X3943410Y-60303153D01*
X3889172Y-60478367D01*
X3801935Y-60639709D01*
X3685020Y-60781035D01*
X3542882Y-60896959D01*
X3380935Y-60983068D01*
X3205346Y-61036082D01*
X3022805Y-61053980D01*
X2707403Y-61053980D01*
X2696371Y-61053903D01*
X2696366Y-61053902D01*
X2694313Y-61053888D01*
X2512040Y-61033443D01*
X2337208Y-60977983D01*
X2176479Y-60889622D01*
X2035974Y-60771724D01*
X1921044Y-60628780D01*
X1836068Y-60466235D01*
X1784281Y-60290281D01*
X1784277Y-60290240D01*
X1784276Y-60290236D01*
X1767657Y-60107622D01*
X1786825Y-59925254D01*
X1786830Y-59925207D01*
X1841068Y-59749993D01*
X1928305Y-59588651D01*
X2045220Y-59447325D01*
X2187358Y-59331401D01*
X2349305Y-59245292D01*
X2524894Y-59192278D01*
X2707435Y-59174380D01*
X3022837Y-59174380D01*
X3033869Y-59174457D01*
X3033869Y-59174457D01*
G37*
G36*
X3033869Y-56634457D02*
X3033874Y-56634458D01*
X3035927Y-56634472D01*
X3218200Y-56654917D01*
X3393032Y-56710377D01*
X3553761Y-56798738D01*
X3694266Y-56916636D01*
X3809196Y-57059580D01*
X3894172Y-57222125D01*
X3945959Y-57398079D01*
X3945963Y-57398120D01*
X3945964Y-57398124D01*
X3962583Y-57580738D01*
X3944768Y-57750236D01*
X3943410Y-57763153D01*
X3889172Y-57938367D01*
X3801935Y-58099709D01*
X3685020Y-58241035D01*
X3542882Y-58356959D01*
X3380935Y-58443068D01*
X3205346Y-58496082D01*
X3022805Y-58513980D01*
X2707403Y-58513980D01*
X2696371Y-58513903D01*
X2696366Y-58513902D01*
X2694313Y-58513888D01*
X2512040Y-58493443D01*
X2337208Y-58437983D01*
X2176479Y-58349622D01*
X2035974Y-58231724D01*
X1921044Y-58088780D01*
X1836068Y-57926235D01*
X1784281Y-57750281D01*
X1784277Y-57750240D01*
X1784276Y-57750236D01*
X1767657Y-57567622D01*
X1786825Y-57385254D01*
X1786830Y-57385207D01*
X1841068Y-57209993D01*
X1928305Y-57048651D01*
X2045220Y-56907325D01*
X2187358Y-56791401D01*
X2349305Y-56705292D01*
X2524894Y-56652278D01*
X2707435Y-56634380D01*
X3022837Y-56634380D01*
X3033869Y-56634457D01*
X3033869Y-56634457D01*
G37*
G36*
X30789720Y-57677680D02*
X25537320Y-57677680D01*
X25537320Y-55025280D01*
X30789720Y-55025280D01*
X30789720Y-57677680D01*
X30789720Y-57677680D01*
G37*
G36*
X3033869Y-54094457D02*
X3033874Y-54094458D01*
X3035927Y-54094472D01*
X3218200Y-54114917D01*
X3393032Y-54170377D01*
X3553761Y-54258738D01*
X3694266Y-54376636D01*
X3809196Y-54519580D01*
X3894172Y-54682125D01*
X3945959Y-54858079D01*
X3945963Y-54858120D01*
X3945964Y-54858124D01*
X3962583Y-55040738D01*
X3944768Y-55210236D01*
X3943410Y-55223153D01*
X3889172Y-55398367D01*
X3801935Y-55559709D01*
X3685020Y-55701035D01*
X3542882Y-55816959D01*
X3380935Y-55903068D01*
X3205346Y-55956082D01*
X3022805Y-55973980D01*
X2707403Y-55973980D01*
X2696371Y-55973903D01*
X2696366Y-55973902D01*
X2694313Y-55973888D01*
X2512040Y-55953443D01*
X2337208Y-55897983D01*
X2176479Y-55809622D01*
X2035974Y-55691724D01*
X1921044Y-55548780D01*
X1836068Y-55386235D01*
X1784281Y-55210281D01*
X1784277Y-55210240D01*
X1784276Y-55210236D01*
X1767657Y-55027622D01*
X1786825Y-54845254D01*
X1786830Y-54845207D01*
X1841068Y-54669993D01*
X1928305Y-54508651D01*
X2045220Y-54367325D01*
X2187358Y-54251401D01*
X2349305Y-54165292D01*
X2524894Y-54112278D01*
X2707435Y-54094380D01*
X3022837Y-54094380D01*
X3033869Y-54094457D01*
X3033869Y-54094457D01*
G37*
G36*
X28707202Y-43528726D02*
X29701567Y-43732840D01*
X30637362Y-44126212D01*
X31478921Y-44693851D01*
X32194199Y-45414139D01*
X32755948Y-46259641D01*
X33142775Y-47198152D01*
X33339874Y-48193578D01*
X33339874Y-48193583D01*
X33339942Y-48193927D01*
X33323752Y-49353369D01*
X33323675Y-49353707D01*
X33323675Y-49353716D01*
X33098858Y-50343252D01*
X32685979Y-51270592D01*
X32100838Y-52100082D01*
X31365727Y-52800119D01*
X30508646Y-53344039D01*
X29562236Y-53711127D01*
X28562557Y-53887398D01*
X27547672Y-53866139D01*
X26556245Y-53648160D01*
X25626039Y-53241763D01*
X24792490Y-52662431D01*
X24087338Y-51932225D01*
X23537446Y-51078959D01*
X23163759Y-50135134D01*
X22980515Y-49136711D01*
X22994687Y-48121704D01*
X23205740Y-47128778D01*
X23605631Y-46195761D01*
X24179134Y-45358182D01*
X24904397Y-44647951D01*
X25753803Y-44092116D01*
X26694994Y-43711850D01*
X27692115Y-43521639D01*
X28707202Y-43528726D01*
X28707202Y-43528726D01*
G37*
G36*
X3033869Y-51554457D02*
X3033874Y-51554458D01*
X3035927Y-51554472D01*
X3218200Y-51574917D01*
X3393032Y-51630377D01*
X3553761Y-51718738D01*
X3694266Y-51836636D01*
X3809196Y-51979580D01*
X3894172Y-52142125D01*
X3945959Y-52318079D01*
X3945963Y-52318120D01*
X3945964Y-52318124D01*
X3962583Y-52500738D01*
X3945588Y-52662427D01*
X3943410Y-52683153D01*
X3889172Y-52858367D01*
X3801935Y-53019709D01*
X3685020Y-53161035D01*
X3542882Y-53276959D01*
X3380935Y-53363068D01*
X3205346Y-53416082D01*
X3022805Y-53433980D01*
X2707403Y-53433980D01*
X2696371Y-53433903D01*
X2696366Y-53433902D01*
X2694313Y-53433888D01*
X2512040Y-53413443D01*
X2337208Y-53357983D01*
X2176479Y-53269622D01*
X2035974Y-53151724D01*
X1921044Y-53008780D01*
X1836068Y-52846235D01*
X1784281Y-52670281D01*
X1784277Y-52670240D01*
X1784276Y-52670236D01*
X1767657Y-52487622D01*
X1786825Y-52305254D01*
X1786830Y-52305207D01*
X1841068Y-52129993D01*
X1928305Y-51968651D01*
X2045220Y-51827325D01*
X2187358Y-51711401D01*
X2349305Y-51625292D01*
X2524894Y-51572278D01*
X2707435Y-51554380D01*
X3022837Y-51554380D01*
X3033869Y-51554457D01*
X3033869Y-51554457D01*
G37*
G36*
X3033869Y-49014457D02*
X3033874Y-49014458D01*
X3035927Y-49014472D01*
X3218200Y-49034917D01*
X3393032Y-49090377D01*
X3553761Y-49178738D01*
X3694266Y-49296636D01*
X3809196Y-49439580D01*
X3894172Y-49602125D01*
X3945959Y-49778079D01*
X3945963Y-49778120D01*
X3945964Y-49778124D01*
X3962583Y-49960738D01*
X3944768Y-50130236D01*
X3943410Y-50143153D01*
X3889172Y-50318367D01*
X3801935Y-50479709D01*
X3685020Y-50621035D01*
X3542882Y-50736959D01*
X3380935Y-50823068D01*
X3205346Y-50876082D01*
X3022805Y-50893980D01*
X2707403Y-50893980D01*
X2696371Y-50893903D01*
X2696366Y-50893902D01*
X2694313Y-50893888D01*
X2512040Y-50873443D01*
X2337208Y-50817983D01*
X2176479Y-50729622D01*
X2035974Y-50611724D01*
X1921044Y-50468780D01*
X1836068Y-50306235D01*
X1784281Y-50130281D01*
X1784277Y-50130240D01*
X1784276Y-50130236D01*
X1767657Y-49947622D01*
X1786825Y-49765254D01*
X1786830Y-49765207D01*
X1841068Y-49589993D01*
X1928305Y-49428651D01*
X2045220Y-49287325D01*
X2187358Y-49171401D01*
X2349305Y-49085292D01*
X2524894Y-49032278D01*
X2707435Y-49014380D01*
X3022837Y-49014380D01*
X3033869Y-49014457D01*
X3033869Y-49014457D01*
G37*
G36*
X3033869Y-46474457D02*
X3033874Y-46474458D01*
X3035927Y-46474472D01*
X3218200Y-46494917D01*
X3393032Y-46550377D01*
X3553761Y-46638738D01*
X3694266Y-46756636D01*
X3809196Y-46899580D01*
X3894172Y-47062125D01*
X3945959Y-47238079D01*
X3945963Y-47238120D01*
X3945964Y-47238124D01*
X3962583Y-47420738D01*
X3944768Y-47590236D01*
X3943410Y-47603153D01*
X3889172Y-47778367D01*
X3801935Y-47939709D01*
X3685020Y-48081035D01*
X3542882Y-48196959D01*
X3380935Y-48283068D01*
X3205346Y-48336082D01*
X3022805Y-48353980D01*
X2707403Y-48353980D01*
X2696371Y-48353903D01*
X2696366Y-48353902D01*
X2694313Y-48353888D01*
X2512040Y-48333443D01*
X2337208Y-48277983D01*
X2176479Y-48189622D01*
X2035974Y-48071724D01*
X1921044Y-47928780D01*
X1836068Y-47766235D01*
X1784281Y-47590281D01*
X1784277Y-47590240D01*
X1784276Y-47590236D01*
X1767657Y-47407622D01*
X1786825Y-47225254D01*
X1786830Y-47225207D01*
X1841068Y-47049993D01*
X1928305Y-46888651D01*
X2045220Y-46747325D01*
X2187358Y-46631401D01*
X2349305Y-46545292D01*
X2524894Y-46492278D01*
X2707435Y-46474380D01*
X3022837Y-46474380D01*
X3033869Y-46474457D01*
X3033869Y-46474457D01*
G37*
G36*
X3033869Y-43934457D02*
X3033874Y-43934458D01*
X3035927Y-43934472D01*
X3218200Y-43954917D01*
X3393032Y-44010377D01*
X3553761Y-44098738D01*
X3694266Y-44216636D01*
X3809196Y-44359580D01*
X3894172Y-44522125D01*
X3945959Y-44698079D01*
X3945963Y-44698120D01*
X3945964Y-44698124D01*
X3962583Y-44880738D01*
X3944768Y-45050236D01*
X3943410Y-45063153D01*
X3889172Y-45238367D01*
X3801935Y-45399709D01*
X3685020Y-45541035D01*
X3542882Y-45656959D01*
X3380935Y-45743068D01*
X3205346Y-45796082D01*
X3022805Y-45813980D01*
X2707403Y-45813980D01*
X2696371Y-45813903D01*
X2696366Y-45813902D01*
X2694313Y-45813888D01*
X2512040Y-45793443D01*
X2337208Y-45737983D01*
X2176479Y-45649622D01*
X2035974Y-45531724D01*
X1921044Y-45388780D01*
X1836068Y-45226235D01*
X1784281Y-45050281D01*
X1784277Y-45050240D01*
X1784276Y-45050236D01*
X1767657Y-44867622D01*
X1786825Y-44685254D01*
X1786830Y-44685207D01*
X1841068Y-44509993D01*
X1928305Y-44348651D01*
X2045220Y-44207325D01*
X2187358Y-44091401D01*
X2349305Y-44005292D01*
X2524894Y-43952278D01*
X2707435Y-43934380D01*
X3022837Y-43934380D01*
X3033869Y-43934457D01*
X3033869Y-43934457D01*
G37*
G36*
X3033869Y-41394457D02*
X3033874Y-41394458D01*
X3035927Y-41394472D01*
X3218200Y-41414917D01*
X3393032Y-41470377D01*
X3553761Y-41558738D01*
X3694266Y-41676636D01*
X3809196Y-41819580D01*
X3894172Y-41982125D01*
X3945959Y-42158079D01*
X3945963Y-42158120D01*
X3945964Y-42158124D01*
X3962583Y-42340738D01*
X3958700Y-42377680D01*
X3943410Y-42523153D01*
X3889172Y-42698367D01*
X3801935Y-42859709D01*
X3685020Y-43001035D01*
X3542882Y-43116959D01*
X3380935Y-43203068D01*
X3205346Y-43256082D01*
X3022805Y-43273980D01*
X2707403Y-43273980D01*
X2696371Y-43273903D01*
X2696366Y-43273902D01*
X2694313Y-43273888D01*
X2512040Y-43253443D01*
X2337208Y-43197983D01*
X2176479Y-43109622D01*
X2035974Y-42991724D01*
X1921044Y-42848780D01*
X1836068Y-42686235D01*
X1784281Y-42510281D01*
X1784277Y-42510240D01*
X1784276Y-42510236D01*
X1767657Y-42327622D01*
X1786825Y-42145254D01*
X1786830Y-42145207D01*
X1841068Y-41969993D01*
X1928305Y-41808651D01*
X2045220Y-41667325D01*
X2187358Y-41551401D01*
X2349305Y-41465292D01*
X2524894Y-41412278D01*
X2707435Y-41394380D01*
X3022837Y-41394380D01*
X3033869Y-41394457D01*
X3033869Y-41394457D01*
G37*
G36*
X30789720Y-42377680D02*
X25537320Y-42377680D01*
X25537320Y-39725280D01*
X30789720Y-39725280D01*
X30789720Y-42377680D01*
X30789720Y-42377680D01*
G37*
G36*
X3033869Y-38854457D02*
X3033874Y-38854458D01*
X3035927Y-38854472D01*
X3218200Y-38874917D01*
X3393032Y-38930377D01*
X3553761Y-39018738D01*
X3694266Y-39136636D01*
X3809196Y-39279580D01*
X3894172Y-39442125D01*
X3945959Y-39618079D01*
X3945963Y-39618120D01*
X3945964Y-39618124D01*
X3962583Y-39800738D01*
X3944768Y-39970236D01*
X3943410Y-39983153D01*
X3889172Y-40158367D01*
X3801935Y-40319709D01*
X3685020Y-40461035D01*
X3542882Y-40576959D01*
X3380935Y-40663068D01*
X3205346Y-40716082D01*
X3022805Y-40733980D01*
X2707403Y-40733980D01*
X2696371Y-40733903D01*
X2696366Y-40733902D01*
X2694313Y-40733888D01*
X2512040Y-40713443D01*
X2337208Y-40657983D01*
X2176479Y-40569622D01*
X2035974Y-40451724D01*
X1921044Y-40308780D01*
X1836068Y-40146235D01*
X1784281Y-39970281D01*
X1784277Y-39970240D01*
X1784276Y-39970236D01*
X1767657Y-39787622D01*
X1786825Y-39605254D01*
X1786830Y-39605207D01*
X1841068Y-39429993D01*
X1928305Y-39268651D01*
X2045220Y-39127325D01*
X2187358Y-39011401D01*
X2349305Y-38925292D01*
X2524894Y-38872278D01*
X2707435Y-38854380D01*
X3022837Y-38854380D01*
X3033869Y-38854457D01*
X3033869Y-38854457D01*
G37*
G36*
X3957320Y-38193980D02*
X1772920Y-38193980D01*
X1772920Y-36314380D01*
X3957320Y-36314380D01*
X3957320Y-38193980D01*
X3957320Y-38193980D01*
G37*
M02*
