%TF.GenerationSoftware,KiCad,Pcbnew,4.0.5-e0-6337~49~ubuntu16.04.1*%
%TF.CreationDate,2017-01-10T12:19:59-08:00*%
%TF.ProjectId,fgpmmopa6h-gps-breakout,6667706D6D6F706136682D6770732D62,v1.0*%
%TF.FileFunction,Copper,L2,Bot,Signal*%
%FSLAX46Y46*%
G04 Gerber Fmt 4.6, Leading zero omitted, Abs format (unit mm)*
G04 Created by KiCad (PCBNEW 4.0.5-e0-6337~49~ubuntu16.04.1) date Tue Jan 10 12:19:59 2017*
%MOMM*%
%LPD*%
G01*
G04 APERTURE LIST*
%ADD10C,0.350000*%
%ADD11C,1.371600*%
%ADD12R,2.032000X1.727200*%
%ADD13O,2.032000X1.727200*%
%ADD14C,0.685800*%
%ADD15C,0.254000*%
%ADD16C,0.330200*%
%ADD17C,0.350000*%
G04 APERTURE END LIST*
D10*
D11*
X156156000Y-93731180D03*
D12*
X130810000Y-81280000D03*
D13*
X130810000Y-83820000D03*
X130810000Y-86360000D03*
X130810000Y-88900000D03*
X130810000Y-91440000D03*
X130810000Y-93980000D03*
X130810000Y-96520000D03*
X130810000Y-99060000D03*
X130810000Y-101600000D03*
X130810000Y-104140000D03*
D14*
X139509500Y-88582500D03*
X170497500Y-102298500D03*
X170624500Y-99250500D03*
X166052500Y-102425500D03*
X166116000Y-99314000D03*
X171259500Y-96139000D03*
X171196000Y-87185500D03*
X143256000Y-84264500D03*
X143256000Y-90551000D03*
X146177000Y-90741500D03*
X143256000Y-86614000D03*
X147193000Y-83248500D03*
X165671500Y-89281000D03*
X162115500Y-89281000D03*
X149860000Y-90868500D03*
X146050000Y-97345500D03*
X149796500Y-97218500D03*
X137716500Y-89535000D03*
X139827000Y-99885500D03*
X139827000Y-92392500D03*
X137287000Y-100711000D03*
X166243000Y-97536000D03*
X141795500Y-98806000D03*
X145986500Y-101854000D03*
X161798000Y-99441000D03*
X141922500Y-97536000D03*
X140970000Y-86423500D03*
D15*
X139827000Y-99885500D02*
X139827000Y-98806000D01*
X139827000Y-92392500D02*
X139827000Y-98806000D01*
X134810500Y-96456500D02*
X134810500Y-87668100D01*
X134810500Y-87668100D02*
X130962400Y-83820000D01*
X130962400Y-83820000D02*
X130810000Y-83820000D01*
X137287000Y-98933000D02*
X134810500Y-96456500D01*
X137287000Y-100711000D02*
X137287000Y-98933000D01*
X141795500Y-98806000D02*
X142367000Y-98234500D01*
X142367000Y-98234500D02*
X165544500Y-98234500D01*
X165544500Y-98234500D02*
X166243000Y-97536000D01*
X161798000Y-99441000D02*
X148399500Y-99441000D01*
X148399500Y-99441000D02*
X145986500Y-101854000D01*
X140970000Y-86423500D02*
X141922500Y-87376000D01*
X141922500Y-87376000D02*
X141922500Y-97536000D01*
G36*
X181034520Y-79603282D02*
X181623304Y-79996696D01*
X182016719Y-80585482D01*
X182168800Y-81350044D01*
X182168800Y-104069956D01*
X182016719Y-104834518D01*
X181623304Y-105423304D01*
X181034520Y-105816718D01*
X180269955Y-105968800D01*
X130880044Y-105968800D01*
X130115482Y-105816719D01*
X129526696Y-105423304D01*
X129133282Y-104834520D01*
X128981200Y-104069955D01*
X128981200Y-96520000D01*
X129126655Y-96520000D01*
X129240729Y-97093489D01*
X129565585Y-97579670D01*
X129880366Y-97790000D01*
X129565585Y-98000330D01*
X129240729Y-98486511D01*
X129126655Y-99060000D01*
X129240729Y-99633489D01*
X129565585Y-100119670D01*
X129880366Y-100330000D01*
X129565585Y-100540330D01*
X129240729Y-101026511D01*
X129126655Y-101600000D01*
X129240729Y-102173489D01*
X129565585Y-102659670D01*
X129880366Y-102870000D01*
X129565585Y-103080330D01*
X129240729Y-103566511D01*
X129126655Y-104140000D01*
X129240729Y-104713489D01*
X129565585Y-105199670D01*
X130051766Y-105524526D01*
X130625255Y-105638600D01*
X130994745Y-105638600D01*
X131568234Y-105524526D01*
X132054415Y-105199670D01*
X132379271Y-104713489D01*
X132493345Y-104140000D01*
X132379271Y-103566511D01*
X132054415Y-103080330D01*
X131739634Y-102870000D01*
X132054415Y-102659670D01*
X132379271Y-102173489D01*
X132493345Y-101600000D01*
X132379271Y-101026511D01*
X132054415Y-100540330D01*
X131739634Y-100330000D01*
X132054415Y-100119670D01*
X132379271Y-99633489D01*
X132493345Y-99060000D01*
X132379271Y-98486511D01*
X132054415Y-98000330D01*
X131739634Y-97790000D01*
X132054415Y-97579670D01*
X132379271Y-97093489D01*
X132493345Y-96520000D01*
X132379271Y-95946511D01*
X132054415Y-95460330D01*
X131744931Y-95253539D01*
X132160732Y-94882036D01*
X132414709Y-94354791D01*
X132417358Y-94339026D01*
X132296217Y-94107000D01*
X130937000Y-94107000D01*
X130937000Y-94127000D01*
X130683000Y-94127000D01*
X130683000Y-94107000D01*
X129323783Y-94107000D01*
X129202642Y-94339026D01*
X129205291Y-94354791D01*
X129459268Y-94882036D01*
X129875069Y-95253539D01*
X129565585Y-95460330D01*
X129240729Y-95946511D01*
X129126655Y-96520000D01*
X128981200Y-96520000D01*
X128981200Y-81350045D01*
X129133282Y-80585480D01*
X129146560Y-80565608D01*
X129146560Y-82143600D01*
X129190838Y-82378917D01*
X129329910Y-82595041D01*
X129542110Y-82740031D01*
X129583439Y-82748400D01*
X129565585Y-82760330D01*
X129240729Y-83246511D01*
X129126655Y-83820000D01*
X129240729Y-84393489D01*
X129565585Y-84879670D01*
X129880366Y-85090000D01*
X129565585Y-85300330D01*
X129240729Y-85786511D01*
X129126655Y-86360000D01*
X129240729Y-86933489D01*
X129565585Y-87419670D01*
X129880366Y-87630000D01*
X129565585Y-87840330D01*
X129240729Y-88326511D01*
X129126655Y-88900000D01*
X129240729Y-89473489D01*
X129565585Y-89959670D01*
X129880366Y-90170000D01*
X129565585Y-90380330D01*
X129240729Y-90866511D01*
X129126655Y-91440000D01*
X129240729Y-92013489D01*
X129565585Y-92499670D01*
X129875069Y-92706461D01*
X129459268Y-93077964D01*
X129205291Y-93605209D01*
X129202642Y-93620974D01*
X129323783Y-93853000D01*
X130683000Y-93853000D01*
X130683000Y-93833000D01*
X130937000Y-93833000D01*
X130937000Y-93853000D01*
X132296217Y-93853000D01*
X132417358Y-93620974D01*
X132414709Y-93605209D01*
X132160732Y-93077964D01*
X131744931Y-92706461D01*
X132054415Y-92499670D01*
X132379271Y-92013489D01*
X132493345Y-91440000D01*
X132379271Y-90866511D01*
X132054415Y-90380330D01*
X131739634Y-90170000D01*
X132054415Y-89959670D01*
X132379271Y-89473489D01*
X132493345Y-88900000D01*
X132379271Y-88326511D01*
X132054415Y-87840330D01*
X131739634Y-87630000D01*
X132054415Y-87419670D01*
X132379271Y-86933489D01*
X132481968Y-86417198D01*
X134048500Y-87983731D01*
X134048500Y-96456500D01*
X134106504Y-96748105D01*
X134162564Y-96832004D01*
X134271685Y-96995315D01*
X136525000Y-99248630D01*
X136525000Y-100089917D01*
X136458460Y-100156341D01*
X136309270Y-100515630D01*
X136308931Y-100904663D01*
X136457493Y-101264212D01*
X136732341Y-101539540D01*
X137091630Y-101688730D01*
X137480663Y-101689069D01*
X137840212Y-101540507D01*
X138115540Y-101265659D01*
X138264730Y-100906370D01*
X138265069Y-100517337D01*
X138116507Y-100157788D01*
X138049000Y-100090163D01*
X138049000Y-98933000D01*
X137990996Y-98641395D01*
X137825815Y-98394185D01*
X135572500Y-96140870D01*
X135572500Y-92586163D01*
X138848931Y-92586163D01*
X138997493Y-92945712D01*
X139065000Y-93013337D01*
X139065000Y-99264417D01*
X138998460Y-99330841D01*
X138849270Y-99690130D01*
X138848931Y-100079163D01*
X138997493Y-100438712D01*
X139272341Y-100714040D01*
X139631630Y-100863230D01*
X140020663Y-100863569D01*
X140380212Y-100715007D01*
X140655540Y-100440159D01*
X140804730Y-100080870D01*
X140805069Y-99691837D01*
X140656507Y-99332288D01*
X140589000Y-99264663D01*
X140589000Y-93013583D01*
X140655540Y-92947159D01*
X140804730Y-92587870D01*
X140805069Y-92198837D01*
X140656507Y-91839288D01*
X140381659Y-91563960D01*
X140022370Y-91414770D01*
X139633337Y-91414431D01*
X139273788Y-91562993D01*
X138998460Y-91837841D01*
X138849270Y-92197130D01*
X138848931Y-92586163D01*
X135572500Y-92586163D01*
X135572500Y-87668100D01*
X135514496Y-87376495D01*
X135431338Y-87252040D01*
X135349315Y-87129284D01*
X134837194Y-86617163D01*
X139991931Y-86617163D01*
X140140493Y-86976712D01*
X140415341Y-87252040D01*
X140774630Y-87401230D01*
X140870183Y-87401313D01*
X141160500Y-87691631D01*
X141160500Y-96914917D01*
X141093960Y-96981341D01*
X140944770Y-97340630D01*
X140944431Y-97729663D01*
X141092993Y-98089212D01*
X141111151Y-98107402D01*
X140966960Y-98251341D01*
X140817770Y-98610630D01*
X140817431Y-98999663D01*
X140965993Y-99359212D01*
X141240841Y-99634540D01*
X141600130Y-99783730D01*
X141989163Y-99784069D01*
X142348712Y-99635507D01*
X142624040Y-99360659D01*
X142773230Y-99001370D01*
X142773234Y-98996500D01*
X147766369Y-98996500D01*
X145886857Y-100876013D01*
X145792837Y-100875931D01*
X145433288Y-101024493D01*
X145157960Y-101299341D01*
X145008770Y-101658630D01*
X145008431Y-102047663D01*
X145156993Y-102407212D01*
X145431841Y-102682540D01*
X145791130Y-102831730D01*
X146180163Y-102832069D01*
X146539712Y-102683507D01*
X146815040Y-102408659D01*
X146964230Y-102049370D01*
X146964313Y-101953817D01*
X148715131Y-100203000D01*
X161176917Y-100203000D01*
X161243341Y-100269540D01*
X161602630Y-100418730D01*
X161991663Y-100419069D01*
X162351212Y-100270507D01*
X162626540Y-99995659D01*
X162775730Y-99636370D01*
X162776069Y-99247337D01*
X162672426Y-98996500D01*
X165544500Y-98996500D01*
X165836105Y-98938496D01*
X166083315Y-98773315D01*
X166342643Y-98513987D01*
X166436663Y-98514069D01*
X166796212Y-98365507D01*
X167071540Y-98090659D01*
X167220730Y-97731370D01*
X167221069Y-97342337D01*
X167072507Y-96982788D01*
X166797659Y-96707460D01*
X166438370Y-96558270D01*
X166049337Y-96557931D01*
X165689788Y-96706493D01*
X165414460Y-96981341D01*
X165265270Y-97340630D01*
X165265187Y-97436183D01*
X165228870Y-97472500D01*
X142900456Y-97472500D01*
X142900569Y-97342337D01*
X142752007Y-96982788D01*
X142684500Y-96915163D01*
X142684500Y-93992751D01*
X154834971Y-93992751D01*
X155035627Y-94478376D01*
X155406850Y-94850247D01*
X155892124Y-95051750D01*
X156417571Y-95052209D01*
X156903196Y-94851553D01*
X157275067Y-94480330D01*
X157476570Y-93995056D01*
X157477029Y-93469609D01*
X157276373Y-92983984D01*
X156905150Y-92612113D01*
X156419876Y-92410610D01*
X155894429Y-92410151D01*
X155408804Y-92610807D01*
X155036933Y-92982030D01*
X154835430Y-93467304D01*
X154834971Y-93992751D01*
X142684500Y-93992751D01*
X142684500Y-87376000D01*
X142626496Y-87084395D01*
X142555511Y-86978159D01*
X142461315Y-86837184D01*
X141947987Y-86323857D01*
X141948069Y-86229837D01*
X141799507Y-85870288D01*
X141524659Y-85594960D01*
X141165370Y-85445770D01*
X140776337Y-85445431D01*
X140416788Y-85593993D01*
X140141460Y-85868841D01*
X139992270Y-86228130D01*
X139991931Y-86617163D01*
X134837194Y-86617163D01*
X132418135Y-84198105D01*
X132493345Y-83820000D01*
X132379271Y-83246511D01*
X132054415Y-82760330D01*
X132040087Y-82750757D01*
X132061317Y-82746762D01*
X132277441Y-82607690D01*
X132422431Y-82395490D01*
X132473440Y-82143600D01*
X132473440Y-80416400D01*
X132429162Y-80181083D01*
X132290090Y-79964959D01*
X132077890Y-79819969D01*
X131826000Y-79768960D01*
X129867526Y-79768960D01*
X130115482Y-79603281D01*
X130880044Y-79451200D01*
X180269955Y-79451200D01*
X181034520Y-79603282D01*
X181034520Y-79603282D01*
G37*
X181034520Y-79603282D02*
X181623304Y-79996696D01*
X182016719Y-80585482D01*
X182168800Y-81350044D01*
X182168800Y-104069956D01*
X182016719Y-104834518D01*
X181623304Y-105423304D01*
X181034520Y-105816718D01*
X180269955Y-105968800D01*
X130880044Y-105968800D01*
X130115482Y-105816719D01*
X129526696Y-105423304D01*
X129133282Y-104834520D01*
X128981200Y-104069955D01*
X128981200Y-96520000D01*
X129126655Y-96520000D01*
X129240729Y-97093489D01*
X129565585Y-97579670D01*
X129880366Y-97790000D01*
X129565585Y-98000330D01*
X129240729Y-98486511D01*
X129126655Y-99060000D01*
X129240729Y-99633489D01*
X129565585Y-100119670D01*
X129880366Y-100330000D01*
X129565585Y-100540330D01*
X129240729Y-101026511D01*
X129126655Y-101600000D01*
X129240729Y-102173489D01*
X129565585Y-102659670D01*
X129880366Y-102870000D01*
X129565585Y-103080330D01*
X129240729Y-103566511D01*
X129126655Y-104140000D01*
X129240729Y-104713489D01*
X129565585Y-105199670D01*
X130051766Y-105524526D01*
X130625255Y-105638600D01*
X130994745Y-105638600D01*
X131568234Y-105524526D01*
X132054415Y-105199670D01*
X132379271Y-104713489D01*
X132493345Y-104140000D01*
X132379271Y-103566511D01*
X132054415Y-103080330D01*
X131739634Y-102870000D01*
X132054415Y-102659670D01*
X132379271Y-102173489D01*
X132493345Y-101600000D01*
X132379271Y-101026511D01*
X132054415Y-100540330D01*
X131739634Y-100330000D01*
X132054415Y-100119670D01*
X132379271Y-99633489D01*
X132493345Y-99060000D01*
X132379271Y-98486511D01*
X132054415Y-98000330D01*
X131739634Y-97790000D01*
X132054415Y-97579670D01*
X132379271Y-97093489D01*
X132493345Y-96520000D01*
X132379271Y-95946511D01*
X132054415Y-95460330D01*
X131744931Y-95253539D01*
X132160732Y-94882036D01*
X132414709Y-94354791D01*
X132417358Y-94339026D01*
X132296217Y-94107000D01*
X130937000Y-94107000D01*
X130937000Y-94127000D01*
X130683000Y-94127000D01*
X130683000Y-94107000D01*
X129323783Y-94107000D01*
X129202642Y-94339026D01*
X129205291Y-94354791D01*
X129459268Y-94882036D01*
X129875069Y-95253539D01*
X129565585Y-95460330D01*
X129240729Y-95946511D01*
X129126655Y-96520000D01*
X128981200Y-96520000D01*
X128981200Y-81350045D01*
X129133282Y-80585480D01*
X129146560Y-80565608D01*
X129146560Y-82143600D01*
X129190838Y-82378917D01*
X129329910Y-82595041D01*
X129542110Y-82740031D01*
X129583439Y-82748400D01*
X129565585Y-82760330D01*
X129240729Y-83246511D01*
X129126655Y-83820000D01*
X129240729Y-84393489D01*
X129565585Y-84879670D01*
X129880366Y-85090000D01*
X129565585Y-85300330D01*
X129240729Y-85786511D01*
X129126655Y-86360000D01*
X129240729Y-86933489D01*
X129565585Y-87419670D01*
X129880366Y-87630000D01*
X129565585Y-87840330D01*
X129240729Y-88326511D01*
X129126655Y-88900000D01*
X129240729Y-89473489D01*
X129565585Y-89959670D01*
X129880366Y-90170000D01*
X129565585Y-90380330D01*
X129240729Y-90866511D01*
X129126655Y-91440000D01*
X129240729Y-92013489D01*
X129565585Y-92499670D01*
X129875069Y-92706461D01*
X129459268Y-93077964D01*
X129205291Y-93605209D01*
X129202642Y-93620974D01*
X129323783Y-93853000D01*
X130683000Y-93853000D01*
X130683000Y-93833000D01*
X130937000Y-93833000D01*
X130937000Y-93853000D01*
X132296217Y-93853000D01*
X132417358Y-93620974D01*
X132414709Y-93605209D01*
X132160732Y-93077964D01*
X131744931Y-92706461D01*
X132054415Y-92499670D01*
X132379271Y-92013489D01*
X132493345Y-91440000D01*
X132379271Y-90866511D01*
X132054415Y-90380330D01*
X131739634Y-90170000D01*
X132054415Y-89959670D01*
X132379271Y-89473489D01*
X132493345Y-88900000D01*
X132379271Y-88326511D01*
X132054415Y-87840330D01*
X131739634Y-87630000D01*
X132054415Y-87419670D01*
X132379271Y-86933489D01*
X132481968Y-86417198D01*
X134048500Y-87983731D01*
X134048500Y-96456500D01*
X134106504Y-96748105D01*
X134162564Y-96832004D01*
X134271685Y-96995315D01*
X136525000Y-99248630D01*
X136525000Y-100089917D01*
X136458460Y-100156341D01*
X136309270Y-100515630D01*
X136308931Y-100904663D01*
X136457493Y-101264212D01*
X136732341Y-101539540D01*
X137091630Y-101688730D01*
X137480663Y-101689069D01*
X137840212Y-101540507D01*
X138115540Y-101265659D01*
X138264730Y-100906370D01*
X138265069Y-100517337D01*
X138116507Y-100157788D01*
X138049000Y-100090163D01*
X138049000Y-98933000D01*
X137990996Y-98641395D01*
X137825815Y-98394185D01*
X135572500Y-96140870D01*
X135572500Y-92586163D01*
X138848931Y-92586163D01*
X138997493Y-92945712D01*
X139065000Y-93013337D01*
X139065000Y-99264417D01*
X138998460Y-99330841D01*
X138849270Y-99690130D01*
X138848931Y-100079163D01*
X138997493Y-100438712D01*
X139272341Y-100714040D01*
X139631630Y-100863230D01*
X140020663Y-100863569D01*
X140380212Y-100715007D01*
X140655540Y-100440159D01*
X140804730Y-100080870D01*
X140805069Y-99691837D01*
X140656507Y-99332288D01*
X140589000Y-99264663D01*
X140589000Y-93013583D01*
X140655540Y-92947159D01*
X140804730Y-92587870D01*
X140805069Y-92198837D01*
X140656507Y-91839288D01*
X140381659Y-91563960D01*
X140022370Y-91414770D01*
X139633337Y-91414431D01*
X139273788Y-91562993D01*
X138998460Y-91837841D01*
X138849270Y-92197130D01*
X138848931Y-92586163D01*
X135572500Y-92586163D01*
X135572500Y-87668100D01*
X135514496Y-87376495D01*
X135431338Y-87252040D01*
X135349315Y-87129284D01*
X134837194Y-86617163D01*
X139991931Y-86617163D01*
X140140493Y-86976712D01*
X140415341Y-87252040D01*
X140774630Y-87401230D01*
X140870183Y-87401313D01*
X141160500Y-87691631D01*
X141160500Y-96914917D01*
X141093960Y-96981341D01*
X140944770Y-97340630D01*
X140944431Y-97729663D01*
X141092993Y-98089212D01*
X141111151Y-98107402D01*
X140966960Y-98251341D01*
X140817770Y-98610630D01*
X140817431Y-98999663D01*
X140965993Y-99359212D01*
X141240841Y-99634540D01*
X141600130Y-99783730D01*
X141989163Y-99784069D01*
X142348712Y-99635507D01*
X142624040Y-99360659D01*
X142773230Y-99001370D01*
X142773234Y-98996500D01*
X147766369Y-98996500D01*
X145886857Y-100876013D01*
X145792837Y-100875931D01*
X145433288Y-101024493D01*
X145157960Y-101299341D01*
X145008770Y-101658630D01*
X145008431Y-102047663D01*
X145156993Y-102407212D01*
X145431841Y-102682540D01*
X145791130Y-102831730D01*
X146180163Y-102832069D01*
X146539712Y-102683507D01*
X146815040Y-102408659D01*
X146964230Y-102049370D01*
X146964313Y-101953817D01*
X148715131Y-100203000D01*
X161176917Y-100203000D01*
X161243341Y-100269540D01*
X161602630Y-100418730D01*
X161991663Y-100419069D01*
X162351212Y-100270507D01*
X162626540Y-99995659D01*
X162775730Y-99636370D01*
X162776069Y-99247337D01*
X162672426Y-98996500D01*
X165544500Y-98996500D01*
X165836105Y-98938496D01*
X166083315Y-98773315D01*
X166342643Y-98513987D01*
X166436663Y-98514069D01*
X166796212Y-98365507D01*
X167071540Y-98090659D01*
X167220730Y-97731370D01*
X167221069Y-97342337D01*
X167072507Y-96982788D01*
X166797659Y-96707460D01*
X166438370Y-96558270D01*
X166049337Y-96557931D01*
X165689788Y-96706493D01*
X165414460Y-96981341D01*
X165265270Y-97340630D01*
X165265187Y-97436183D01*
X165228870Y-97472500D01*
X142900456Y-97472500D01*
X142900569Y-97342337D01*
X142752007Y-96982788D01*
X142684500Y-96915163D01*
X142684500Y-93992751D01*
X154834971Y-93992751D01*
X155035627Y-94478376D01*
X155406850Y-94850247D01*
X155892124Y-95051750D01*
X156417571Y-95052209D01*
X156903196Y-94851553D01*
X157275067Y-94480330D01*
X157476570Y-93995056D01*
X157477029Y-93469609D01*
X157276373Y-92983984D01*
X156905150Y-92612113D01*
X156419876Y-92410610D01*
X155894429Y-92410151D01*
X155408804Y-92610807D01*
X155036933Y-92982030D01*
X154835430Y-93467304D01*
X154834971Y-93992751D01*
X142684500Y-93992751D01*
X142684500Y-87376000D01*
X142626496Y-87084395D01*
X142555511Y-86978159D01*
X142461315Y-86837184D01*
X141947987Y-86323857D01*
X141948069Y-86229837D01*
X141799507Y-85870288D01*
X141524659Y-85594960D01*
X141165370Y-85445770D01*
X140776337Y-85445431D01*
X140416788Y-85593993D01*
X140141460Y-85868841D01*
X139992270Y-86228130D01*
X139991931Y-86617163D01*
X134837194Y-86617163D01*
X132418135Y-84198105D01*
X132493345Y-83820000D01*
X132379271Y-83246511D01*
X132054415Y-82760330D01*
X132040087Y-82750757D01*
X132061317Y-82746762D01*
X132277441Y-82607690D01*
X132422431Y-82395490D01*
X132473440Y-82143600D01*
X132473440Y-80416400D01*
X132429162Y-80181083D01*
X132290090Y-79964959D01*
X132077890Y-79819969D01*
X131826000Y-79768960D01*
X129867526Y-79768960D01*
X130115482Y-79603281D01*
X130880044Y-79451200D01*
X180269955Y-79451200D01*
X181034520Y-79603282D01*
D16*
X139509500Y-88582500D03*
X170497500Y-102298500D03*
X170624500Y-99250500D03*
X166052500Y-102425500D03*
X166116000Y-99314000D03*
X171259500Y-96139000D03*
X171196000Y-87185500D03*
X143256000Y-84264500D03*
X143256000Y-90551000D03*
X146177000Y-90741500D03*
X143256000Y-86614000D03*
X147193000Y-83248500D03*
X165671500Y-89281000D03*
X162115500Y-89281000D03*
X149860000Y-90868500D03*
X146050000Y-97345500D03*
X149796500Y-97218500D03*
X137716500Y-89535000D03*
X139827000Y-99885500D03*
X139827000Y-92392500D03*
X137287000Y-100711000D03*
X166243000Y-97536000D03*
X141795500Y-98806000D03*
X145986500Y-101854000D03*
X161798000Y-99441000D03*
X141922500Y-97536000D03*
X140970000Y-86423500D03*
D17*
X156156000Y-93731180D03*
X130810000Y-81280000D03*
X130810000Y-83820000D03*
X130810000Y-86360000D03*
X130810000Y-88900000D03*
X130810000Y-91440000D03*
X130810000Y-93980000D03*
X130810000Y-96520000D03*
X130810000Y-99060000D03*
X130810000Y-101600000D03*
X130810000Y-104140000D03*
M02*
