%TF.GenerationSoftware,KiCad,Pcbnew,4.0.5-e0-6337~49~ubuntu16.04.1*%
%TF.CreationDate,2017-03-11T12:02:39-08:00*%
%TF.ProjectId,fgpmmopa6h-gps-breakout,6667706D6D6F706136682D6770732D62,v1.0*%
%TF.FileFunction,Copper,L1,Top,Signal*%
%FSLAX46Y46*%
G04 Gerber Fmt 4.6, Leading zero omitted, Abs format (unit mm)*
G04 Created by KiCad (PCBNEW 4.0.5-e0-6337~49~ubuntu16.04.1) date Sat Mar 11 12:02:39 2017*
%MOMM*%
%LPD*%
G01*
G04 APERTURE LIST*
%ADD10C,0.350000*%
%ADD11R,1.000000X1.000000*%
%ADD12R,2.200000X1.000000*%
%ADD13R,0.800000X0.750000*%
%ADD14R,0.800000X1.700000*%
%ADD15R,0.420000X0.600000*%
%ADD16R,2.032000X1.727200*%
%ADD17O,2.032000X1.727200*%
%ADD18R,0.910000X1.220000*%
%ADD19R,1.998980X1.000760*%
%ADD20C,0.685800*%
%ADD21C,0.254000*%
%ADD22C,0.508000*%
%ADD23C,0.330200*%
%ADD24C,0.350000*%
G04 APERTURE END LIST*
D10*
D11*
X166941500Y-100774500D03*
D12*
X168441500Y-99274500D03*
X168441500Y-102274500D03*
D13*
X136866500Y-88582500D03*
X138366500Y-88582500D03*
X144756000Y-91884500D03*
X143256000Y-91884500D03*
X144756000Y-85598000D03*
X143256000Y-85598000D03*
X144780000Y-87630000D03*
X143280000Y-87630000D03*
X143026000Y-95504000D03*
X144526000Y-95504000D03*
X143280000Y-99822000D03*
X144780000Y-99822000D03*
X143256000Y-93726000D03*
X144756000Y-93726000D03*
X144756000Y-101854000D03*
X143256000Y-101854000D03*
D14*
X148590000Y-83312000D03*
X151990000Y-83312000D03*
D15*
X138366500Y-90492500D03*
X137066500Y-90492500D03*
X138366500Y-92392500D03*
X137716500Y-90492500D03*
X137066500Y-92392500D03*
D16*
X130810000Y-81280000D03*
D17*
X130810000Y-83820000D03*
X130810000Y-86360000D03*
X130810000Y-88900000D03*
X130810000Y-91440000D03*
X130810000Y-93980000D03*
X130810000Y-96520000D03*
X130810000Y-99060000D03*
X130810000Y-101600000D03*
X130810000Y-104140000D03*
D18*
X142422000Y-97536000D03*
X145692000Y-97536000D03*
D19*
X147955000Y-87782400D03*
X147955000Y-89281000D03*
X147955000Y-90782140D03*
X147955000Y-92280740D03*
X147955000Y-93781880D03*
X147955000Y-95280480D03*
X147955000Y-96781620D03*
X147955000Y-98280220D03*
X147955000Y-99781360D03*
X147955000Y-101279960D03*
X163957000Y-101279960D03*
X163957000Y-99781360D03*
X163957000Y-98280220D03*
X163957000Y-96781620D03*
X163957000Y-95280480D03*
X163957000Y-93781880D03*
X163957000Y-92280740D03*
X163957000Y-90782140D03*
X163957000Y-89281000D03*
X163957000Y-87782400D03*
D20*
X142189200Y-95516700D03*
X149860000Y-90868500D03*
X139509500Y-88582500D03*
X170497500Y-102298500D03*
X170624500Y-99250500D03*
X166052500Y-102425500D03*
X166116000Y-99314000D03*
X143256000Y-84264500D03*
X143256000Y-90551000D03*
X146177000Y-90741500D03*
X143256000Y-86614000D03*
X147193000Y-83248500D03*
X165671500Y-89281000D03*
X162115500Y-89281000D03*
X149860000Y-90868500D03*
X149796500Y-97218500D03*
X137716500Y-89535000D03*
X156108400Y-102209600D03*
X155727400Y-83223100D03*
X139827000Y-99885500D03*
X139827000Y-92392500D03*
X166243000Y-97536000D03*
X141795500Y-98806000D03*
X145986500Y-101854000D03*
X161798000Y-99441000D03*
X138620500Y-84404200D03*
X146240500Y-99745800D03*
X141503400Y-97561400D03*
X140970000Y-86423500D03*
X146380200Y-102857300D03*
X139801600Y-102857300D03*
D21*
X163957000Y-101279960D02*
X166436040Y-101279960D01*
X166436040Y-101279960D02*
X166941500Y-100774500D01*
X143026000Y-95504000D02*
X142201900Y-95504000D01*
X142201900Y-95504000D02*
X142189200Y-95516700D01*
X138366500Y-88582500D02*
X139509500Y-88582500D01*
X168441500Y-102274500D02*
X170473500Y-102274500D01*
X170473500Y-102274500D02*
X170497500Y-102298500D01*
X168441500Y-99274500D02*
X170600500Y-99274500D01*
X170600500Y-99274500D02*
X170624500Y-99250500D01*
X168441500Y-102274500D02*
X166203500Y-102274500D01*
X166203500Y-102274500D02*
X166052500Y-102425500D01*
X163957000Y-99781360D02*
X165648640Y-99781360D01*
X165648640Y-99781360D02*
X166116000Y-99314000D01*
X143256000Y-85598000D02*
X143256000Y-84264500D01*
X138366500Y-88582500D02*
X138366500Y-87439500D01*
X138366500Y-87439500D02*
X138303000Y-87376000D01*
X143256000Y-91884500D02*
X143256000Y-90551000D01*
X147955000Y-90782140D02*
X146217640Y-90782140D01*
X146217640Y-90782140D02*
X146177000Y-90741500D01*
X143256000Y-85598000D02*
X143256000Y-86614000D01*
X148590000Y-83312000D02*
X147256500Y-83312000D01*
X147256500Y-83312000D02*
X147193000Y-83248500D01*
X163957000Y-89281000D02*
X165671500Y-89281000D01*
X163957000Y-89281000D02*
X162115500Y-89281000D01*
X147955000Y-90782140D02*
X149773640Y-90782140D01*
X149773640Y-90782140D02*
X149860000Y-90868500D01*
X147955000Y-98280220D02*
X149208490Y-98280220D01*
X149208490Y-98280220D02*
X149796500Y-97692210D01*
X149796500Y-97692210D02*
X149796500Y-97218500D01*
X137716500Y-89535000D02*
X137716500Y-89232500D01*
X137716500Y-90492500D02*
X137716500Y-89535000D01*
X137716500Y-89232500D02*
X138366500Y-88582500D01*
X151269700Y-92265500D02*
X151409400Y-92125800D01*
X151409400Y-92125800D02*
X155727400Y-87807800D01*
X156108400Y-96824800D02*
X151409400Y-92125800D01*
X156108400Y-102209600D02*
X156108400Y-96824800D01*
X155727400Y-87807800D02*
X155727400Y-83223100D01*
X149517100Y-92265500D02*
X150939500Y-92265500D01*
X149223730Y-92265500D02*
X149517100Y-92265500D01*
X149517100Y-92265500D02*
X151269700Y-92265500D01*
X147955000Y-92280740D02*
X149208490Y-92280740D01*
X149208490Y-92280740D02*
X149223730Y-92265500D01*
X144756000Y-91884500D02*
X147558760Y-91884500D01*
X147558760Y-91884500D02*
X147955000Y-92280740D01*
X141986000Y-99949000D02*
X139890500Y-99949000D01*
X139890500Y-99949000D02*
X139827000Y-99885500D01*
X141986000Y-99949000D02*
X143153000Y-99949000D01*
X143153000Y-99949000D02*
X143280000Y-99822000D01*
X147955000Y-87782400D02*
X144932400Y-87782400D01*
X144932400Y-87782400D02*
X144780000Y-87630000D01*
X139827000Y-92392500D02*
X140970000Y-91249500D01*
X144780000Y-87630000D02*
X144780000Y-85622000D01*
X144272000Y-89471500D02*
X144780000Y-88963500D01*
X144780000Y-88963500D02*
X144780000Y-87630000D01*
X142049500Y-89471500D02*
X144272000Y-89471500D01*
X140970000Y-90551000D02*
X142049500Y-89471500D01*
X140970000Y-91249500D02*
X140970000Y-90551000D01*
X138366500Y-92392500D02*
X139827000Y-92392500D01*
X139192000Y-96520000D02*
X141986000Y-93726000D01*
X141986000Y-93726000D02*
X143256000Y-93726000D01*
X130810000Y-96520000D02*
X139192000Y-96520000D01*
X143389000Y-92964000D02*
X145883630Y-92964000D01*
X145883630Y-92964000D02*
X146701510Y-93781880D01*
X146701510Y-93781880D02*
X147955000Y-93781880D01*
X143256000Y-93726000D02*
X143256000Y-93097000D01*
X143256000Y-93097000D02*
X143389000Y-92964000D01*
X165498780Y-98280220D02*
X166243000Y-97536000D01*
X165498780Y-98280220D02*
X163957000Y-98280220D01*
X163911280Y-98234500D02*
X163957000Y-98280220D01*
X130810000Y-99060000D02*
X141541500Y-99060000D01*
X141541500Y-99060000D02*
X141795500Y-98806000D01*
X130810000Y-101600000D02*
X143002000Y-101600000D01*
X143002000Y-101600000D02*
X143256000Y-101854000D01*
X144526000Y-95504000D02*
X144526000Y-93956000D01*
X144526000Y-93956000D02*
X144756000Y-93726000D01*
X145986500Y-101854000D02*
X144756000Y-101854000D01*
X163957000Y-96781620D02*
X162703510Y-96781620D01*
X162703510Y-96781620D02*
X161798000Y-97687130D01*
X161798000Y-97687130D02*
X161798000Y-99441000D01*
X138036300Y-83820000D02*
X138620500Y-84404200D01*
X146240500Y-99745800D02*
X147919440Y-99745800D01*
X147919440Y-99745800D02*
X147955000Y-99781360D01*
X130810000Y-83820000D02*
X138036300Y-83820000D01*
X151990000Y-83312000D02*
X151990000Y-86499490D01*
X151990000Y-86499490D02*
X149208490Y-89281000D01*
X149208490Y-89281000D02*
X147955000Y-89281000D01*
X142422000Y-97536000D02*
X141528800Y-97536000D01*
X141528800Y-97536000D02*
X141503400Y-97561400D01*
X132080000Y-86360000D02*
X140906500Y-86360000D01*
X140906500Y-86360000D02*
X140970000Y-86423500D01*
X130810000Y-86360000D02*
X132080000Y-86360000D01*
X146380200Y-102857300D02*
X146926300Y-102311200D01*
X146926300Y-102311200D02*
X147802600Y-102311200D01*
X147802600Y-102311200D02*
X147955000Y-102158800D01*
X147955000Y-102158800D02*
X147955000Y-101279960D01*
X146926300Y-101279960D02*
X147955000Y-101279960D01*
X146682460Y-101279960D02*
X146926300Y-101279960D01*
X146380200Y-102857300D02*
X146380200Y-102854760D01*
X145224500Y-99822000D02*
X146682460Y-101279960D01*
X144780000Y-99822000D02*
X145224500Y-99822000D01*
X147703540Y-101028500D02*
X147955000Y-101279960D01*
X145692000Y-97536000D02*
X145692000Y-98910000D01*
X145692000Y-98910000D02*
X144780000Y-99822000D01*
X139801600Y-102857300D02*
X138518900Y-104140000D01*
X138518900Y-104140000D02*
X130810000Y-104140000D01*
X145112000Y-99490000D02*
X144780000Y-99822000D01*
X144820640Y-99781360D02*
X144780000Y-99822000D01*
X137287000Y-91376500D02*
X137066500Y-91156000D01*
X137066500Y-91156000D02*
X137066500Y-90492500D01*
X138036500Y-91376500D02*
X137287000Y-91376500D01*
X138366500Y-90492500D02*
X138366500Y-91046500D01*
X138366500Y-91046500D02*
X138036500Y-91376500D01*
D22*
X136779000Y-89553000D02*
X136779000Y-90205000D01*
X136779000Y-90205000D02*
X136998499Y-90424499D01*
X136866500Y-88582500D02*
X136866500Y-89465500D01*
X136866500Y-89465500D02*
X136779000Y-89553000D01*
X130810000Y-88900000D02*
X136549000Y-88900000D01*
X136549000Y-88900000D02*
X136866500Y-88582500D01*
D21*
G36*
X169629920Y-79615982D02*
X170218704Y-80009396D01*
X170612119Y-80598182D01*
X170764200Y-81362744D01*
X170764200Y-104082656D01*
X170612119Y-104847218D01*
X170218704Y-105436004D01*
X169629920Y-105829418D01*
X168929202Y-105968800D01*
X130880044Y-105968800D01*
X130115482Y-105816719D01*
X129526696Y-105423304D01*
X129133282Y-104834520D01*
X128981200Y-104069955D01*
X128981200Y-96520000D01*
X129126655Y-96520000D01*
X129240729Y-97093489D01*
X129565585Y-97579670D01*
X129880366Y-97790000D01*
X129565585Y-98000330D01*
X129240729Y-98486511D01*
X129126655Y-99060000D01*
X129240729Y-99633489D01*
X129565585Y-100119670D01*
X129880366Y-100330000D01*
X129565585Y-100540330D01*
X129240729Y-101026511D01*
X129126655Y-101600000D01*
X129240729Y-102173489D01*
X129565585Y-102659670D01*
X129880366Y-102870000D01*
X129565585Y-103080330D01*
X129240729Y-103566511D01*
X129126655Y-104140000D01*
X129240729Y-104713489D01*
X129565585Y-105199670D01*
X130051766Y-105524526D01*
X130625255Y-105638600D01*
X130994745Y-105638600D01*
X131568234Y-105524526D01*
X132054415Y-105199670D01*
X132253312Y-104902000D01*
X138518900Y-104902000D01*
X138810505Y-104843996D01*
X139057715Y-104678815D01*
X139901244Y-103835287D01*
X139995263Y-103835369D01*
X140354812Y-103686807D01*
X140630140Y-103411959D01*
X140779330Y-103052670D01*
X140779669Y-102663637D01*
X140655036Y-102362000D01*
X142233586Y-102362000D01*
X142252838Y-102464317D01*
X142391910Y-102680441D01*
X142604110Y-102825431D01*
X142856000Y-102876440D01*
X143656000Y-102876440D01*
X143891317Y-102832162D01*
X144005978Y-102758380D01*
X144104110Y-102825431D01*
X144356000Y-102876440D01*
X145156000Y-102876440D01*
X145391317Y-102832162D01*
X145402328Y-102825077D01*
X145402131Y-103050963D01*
X145550693Y-103410512D01*
X145825541Y-103685840D01*
X146184830Y-103835030D01*
X146573863Y-103835369D01*
X146933412Y-103686807D01*
X147208740Y-103411959D01*
X147349405Y-103073200D01*
X147802600Y-103073200D01*
X148094205Y-103015196D01*
X148341415Y-102850015D01*
X148493815Y-102697615D01*
X148658996Y-102450405D01*
X148663496Y-102427780D01*
X148954490Y-102427780D01*
X149189807Y-102383502D01*
X149405931Y-102244430D01*
X149550921Y-102032230D01*
X149601930Y-101780340D01*
X149601930Y-100779580D01*
X149557652Y-100544263D01*
X149550864Y-100533714D01*
X149550921Y-100533630D01*
X149601930Y-100281740D01*
X149601930Y-99280980D01*
X149557652Y-99045663D01*
X149542056Y-99021426D01*
X149589490Y-98906910D01*
X149589490Y-98565970D01*
X149430740Y-98407220D01*
X148082000Y-98407220D01*
X148082000Y-98427220D01*
X147828000Y-98427220D01*
X147828000Y-98407220D01*
X147808000Y-98407220D01*
X147808000Y-98153220D01*
X147828000Y-98153220D01*
X147828000Y-98133220D01*
X148082000Y-98133220D01*
X148082000Y-98153220D01*
X149430740Y-98153220D01*
X149589490Y-97994470D01*
X149589490Y-97653530D01*
X149544080Y-97543902D01*
X149550921Y-97533890D01*
X149601930Y-97282000D01*
X149601930Y-96281240D01*
X149557652Y-96045923D01*
X149550022Y-96034066D01*
X149550921Y-96032750D01*
X149601930Y-95780860D01*
X149601930Y-94780100D01*
X149557652Y-94544783D01*
X149550864Y-94534234D01*
X149550921Y-94534150D01*
X149601930Y-94282260D01*
X149601930Y-93281500D01*
X149557652Y-93046183D01*
X149550022Y-93034326D01*
X149550921Y-93033010D01*
X149552037Y-93027500D01*
X151233470Y-93027500D01*
X155346400Y-97140431D01*
X155346400Y-101588517D01*
X155279860Y-101654941D01*
X155130670Y-102014230D01*
X155130331Y-102403263D01*
X155278893Y-102762812D01*
X155553741Y-103038140D01*
X155913030Y-103187330D01*
X156302063Y-103187669D01*
X156661612Y-103039107D01*
X156936940Y-102764259D01*
X157021652Y-102560250D01*
X166706500Y-102560250D01*
X166706500Y-102900810D01*
X166803173Y-103134199D01*
X166981802Y-103312827D01*
X167215191Y-103409500D01*
X168155750Y-103409500D01*
X168314500Y-103250750D01*
X168314500Y-102401500D01*
X168568500Y-102401500D01*
X168568500Y-103250750D01*
X168727250Y-103409500D01*
X169667809Y-103409500D01*
X169901198Y-103312827D01*
X170079827Y-103134199D01*
X170176500Y-102900810D01*
X170176500Y-102560250D01*
X170017750Y-102401500D01*
X168568500Y-102401500D01*
X168314500Y-102401500D01*
X166865250Y-102401500D01*
X166706500Y-102560250D01*
X157021652Y-102560250D01*
X157086130Y-102404970D01*
X157086469Y-102015937D01*
X156937907Y-101656388D01*
X156870400Y-101588763D01*
X156870400Y-99634663D01*
X160819931Y-99634663D01*
X160968493Y-99994212D01*
X161243341Y-100269540D01*
X161602630Y-100418730D01*
X161991663Y-100419069D01*
X162322510Y-100282366D01*
X162322510Y-100408050D01*
X162367920Y-100517678D01*
X162361079Y-100527690D01*
X162310070Y-100779580D01*
X162310070Y-101780340D01*
X162354348Y-102015657D01*
X162493420Y-102231781D01*
X162705620Y-102376771D01*
X162957510Y-102427780D01*
X164956490Y-102427780D01*
X165191807Y-102383502D01*
X165407931Y-102244430D01*
X165546273Y-102041960D01*
X166436040Y-102041960D01*
X166706500Y-101988162D01*
X166706500Y-101988750D01*
X166865250Y-102147500D01*
X168314500Y-102147500D01*
X168314500Y-101298250D01*
X168568500Y-101298250D01*
X168568500Y-102147500D01*
X170017750Y-102147500D01*
X170176500Y-101988750D01*
X170176500Y-101648190D01*
X170079827Y-101414801D01*
X169901198Y-101236173D01*
X169667809Y-101139500D01*
X168727250Y-101139500D01*
X168568500Y-101298250D01*
X168314500Y-101298250D01*
X168155750Y-101139500D01*
X168088940Y-101139500D01*
X168088940Y-100409500D01*
X168155750Y-100409500D01*
X168314500Y-100250750D01*
X168314500Y-99401500D01*
X168568500Y-99401500D01*
X168568500Y-100250750D01*
X168727250Y-100409500D01*
X169667809Y-100409500D01*
X169901198Y-100312827D01*
X170079827Y-100134199D01*
X170176500Y-99900810D01*
X170176500Y-99560250D01*
X170017750Y-99401500D01*
X168568500Y-99401500D01*
X168314500Y-99401500D01*
X166865250Y-99401500D01*
X166706500Y-99560250D01*
X166706500Y-99627060D01*
X166441500Y-99627060D01*
X166206183Y-99671338D01*
X165990059Y-99810410D01*
X165845069Y-100022610D01*
X165794060Y-100274500D01*
X165794060Y-100517960D01*
X165545964Y-100517960D01*
X165591490Y-100408050D01*
X165591490Y-100067110D01*
X165432740Y-99908360D01*
X164084000Y-99908360D01*
X164084000Y-99928360D01*
X163830000Y-99928360D01*
X163830000Y-99908360D01*
X163810000Y-99908360D01*
X163810000Y-99654360D01*
X163830000Y-99654360D01*
X163830000Y-99634360D01*
X164084000Y-99634360D01*
X164084000Y-99654360D01*
X165432740Y-99654360D01*
X165591490Y-99495610D01*
X165591490Y-99154670D01*
X165545425Y-99043460D01*
X165552921Y-99032490D01*
X165553140Y-99031407D01*
X165790385Y-98984216D01*
X166037595Y-98819035D01*
X166208440Y-98648190D01*
X166706500Y-98648190D01*
X166706500Y-98988750D01*
X166865250Y-99147500D01*
X168314500Y-99147500D01*
X168314500Y-98298250D01*
X168568500Y-98298250D01*
X168568500Y-99147500D01*
X170017750Y-99147500D01*
X170176500Y-98988750D01*
X170176500Y-98648190D01*
X170079827Y-98414801D01*
X169901198Y-98236173D01*
X169667809Y-98139500D01*
X168727250Y-98139500D01*
X168568500Y-98298250D01*
X168314500Y-98298250D01*
X168155750Y-98139500D01*
X167215191Y-98139500D01*
X166981802Y-98236173D01*
X166803173Y-98414801D01*
X166706500Y-98648190D01*
X166208440Y-98648190D01*
X166342643Y-98513987D01*
X166436663Y-98514069D01*
X166796212Y-98365507D01*
X167071540Y-98090659D01*
X167220730Y-97731370D01*
X167221069Y-97342337D01*
X167072507Y-96982788D01*
X166797659Y-96707460D01*
X166438370Y-96558270D01*
X166049337Y-96557931D01*
X165689788Y-96706493D01*
X165603930Y-96792201D01*
X165603930Y-96281240D01*
X165559652Y-96045923D01*
X165552022Y-96034066D01*
X165552921Y-96032750D01*
X165603930Y-95780860D01*
X165603930Y-94780100D01*
X165559652Y-94544783D01*
X165552864Y-94534234D01*
X165552921Y-94534150D01*
X165603930Y-94282260D01*
X165603930Y-93281500D01*
X165559652Y-93046183D01*
X165552022Y-93034326D01*
X165552921Y-93033010D01*
X165603930Y-92781120D01*
X165603930Y-91780360D01*
X165559652Y-91545043D01*
X165552864Y-91534494D01*
X165552921Y-91534410D01*
X165603930Y-91282520D01*
X165603930Y-90281760D01*
X165559652Y-90046443D01*
X165544056Y-90022206D01*
X165591490Y-89907690D01*
X165591490Y-89566750D01*
X165432740Y-89408000D01*
X164084000Y-89408000D01*
X164084000Y-89428000D01*
X163830000Y-89428000D01*
X163830000Y-89408000D01*
X162481260Y-89408000D01*
X162322510Y-89566750D01*
X162322510Y-89907690D01*
X162368575Y-90018900D01*
X162361079Y-90029870D01*
X162310070Y-90281760D01*
X162310070Y-91282520D01*
X162354348Y-91517837D01*
X162361136Y-91528386D01*
X162361079Y-91528470D01*
X162310070Y-91780360D01*
X162310070Y-92781120D01*
X162354348Y-93016437D01*
X162361978Y-93028294D01*
X162361079Y-93029610D01*
X162310070Y-93281500D01*
X162310070Y-94282260D01*
X162354348Y-94517577D01*
X162361136Y-94528126D01*
X162361079Y-94528210D01*
X162310070Y-94780100D01*
X162310070Y-95780860D01*
X162354348Y-96016177D01*
X162361978Y-96028034D01*
X162361079Y-96029350D01*
X162341820Y-96124453D01*
X162164695Y-96242804D01*
X161259185Y-97148315D01*
X161094004Y-97395525D01*
X161036000Y-97687130D01*
X161036000Y-98819917D01*
X160969460Y-98886341D01*
X160820270Y-99245630D01*
X160819931Y-99634663D01*
X156870400Y-99634663D01*
X156870400Y-96824800D01*
X156861811Y-96781620D01*
X156812397Y-96533196D01*
X156647216Y-96285985D01*
X152487030Y-92125800D01*
X156266215Y-88346615D01*
X156431396Y-88099405D01*
X156436448Y-88074005D01*
X156489400Y-87807800D01*
X156489400Y-87282020D01*
X162310070Y-87282020D01*
X162310070Y-88282780D01*
X162354348Y-88518097D01*
X162369304Y-88541339D01*
X162322510Y-88654310D01*
X162322510Y-88995250D01*
X162481260Y-89154000D01*
X163830000Y-89154000D01*
X163830000Y-89134000D01*
X164084000Y-89134000D01*
X164084000Y-89154000D01*
X165432740Y-89154000D01*
X165591490Y-88995250D01*
X165591490Y-88654310D01*
X165546080Y-88544682D01*
X165552921Y-88534670D01*
X165603930Y-88282780D01*
X165603930Y-87282020D01*
X165559652Y-87046703D01*
X165420580Y-86830579D01*
X165208380Y-86685589D01*
X164956490Y-86634580D01*
X162957510Y-86634580D01*
X162722193Y-86678858D01*
X162506069Y-86817930D01*
X162361079Y-87030130D01*
X162310070Y-87282020D01*
X156489400Y-87282020D01*
X156489400Y-83844183D01*
X156555940Y-83777759D01*
X156705130Y-83418470D01*
X156705469Y-83029437D01*
X156556907Y-82669888D01*
X156282059Y-82394560D01*
X155922770Y-82245370D01*
X155533737Y-82245031D01*
X155174188Y-82393593D01*
X154898860Y-82668441D01*
X154749670Y-83027730D01*
X154749331Y-83416763D01*
X154897893Y-83776312D01*
X154965400Y-83843937D01*
X154965400Y-87492170D01*
X150954070Y-91503500D01*
X149550276Y-91503500D01*
X149589490Y-91408830D01*
X149589490Y-91067890D01*
X149430740Y-90909140D01*
X148082000Y-90909140D01*
X148082000Y-90929140D01*
X147828000Y-90929140D01*
X147828000Y-90909140D01*
X146479260Y-90909140D01*
X146320510Y-91067890D01*
X146320510Y-91122500D01*
X145661557Y-91122500D01*
X145620090Y-91058059D01*
X145407890Y-90913069D01*
X145156000Y-90862060D01*
X144356000Y-90862060D01*
X144120683Y-90906338D01*
X144017354Y-90972829D01*
X144015698Y-90971173D01*
X143782309Y-90874500D01*
X143541750Y-90874500D01*
X143383000Y-91033250D01*
X143383000Y-91757500D01*
X143403000Y-91757500D01*
X143403000Y-92011500D01*
X143383000Y-92011500D01*
X143383000Y-92031500D01*
X143129000Y-92031500D01*
X143129000Y-92011500D01*
X142379750Y-92011500D01*
X142221000Y-92170250D01*
X142221000Y-92385810D01*
X142317673Y-92619199D01*
X142496302Y-92797827D01*
X142524711Y-92809594D01*
X142404559Y-92886910D01*
X142351886Y-92964000D01*
X141986000Y-92964000D01*
X141694395Y-93022004D01*
X141658209Y-93046183D01*
X141447185Y-93187184D01*
X138876370Y-95758000D01*
X132253312Y-95758000D01*
X132054415Y-95460330D01*
X131744931Y-95253539D01*
X132160732Y-94882036D01*
X132414709Y-94354791D01*
X132417358Y-94339026D01*
X132296217Y-94107000D01*
X130937000Y-94107000D01*
X130937000Y-94127000D01*
X130683000Y-94127000D01*
X130683000Y-94107000D01*
X129323783Y-94107000D01*
X129202642Y-94339026D01*
X129205291Y-94354791D01*
X129459268Y-94882036D01*
X129875069Y-95253539D01*
X129565585Y-95460330D01*
X129240729Y-95946511D01*
X129126655Y-96520000D01*
X128981200Y-96520000D01*
X128981200Y-81350045D01*
X129133282Y-80585480D01*
X129146560Y-80565608D01*
X129146560Y-82143600D01*
X129190838Y-82378917D01*
X129329910Y-82595041D01*
X129542110Y-82740031D01*
X129583439Y-82748400D01*
X129565585Y-82760330D01*
X129240729Y-83246511D01*
X129126655Y-83820000D01*
X129240729Y-84393489D01*
X129565585Y-84879670D01*
X129880366Y-85090000D01*
X129565585Y-85300330D01*
X129240729Y-85786511D01*
X129126655Y-86360000D01*
X129240729Y-86933489D01*
X129565585Y-87419670D01*
X129880366Y-87630000D01*
X129565585Y-87840330D01*
X129240729Y-88326511D01*
X129126655Y-88900000D01*
X129240729Y-89473489D01*
X129565585Y-89959670D01*
X129880366Y-90170000D01*
X129565585Y-90380330D01*
X129240729Y-90866511D01*
X129126655Y-91440000D01*
X129240729Y-92013489D01*
X129565585Y-92499670D01*
X129875069Y-92706461D01*
X129459268Y-93077964D01*
X129205291Y-93605209D01*
X129202642Y-93620974D01*
X129323783Y-93853000D01*
X130683000Y-93853000D01*
X130683000Y-93833000D01*
X130937000Y-93833000D01*
X130937000Y-93853000D01*
X132296217Y-93853000D01*
X132417358Y-93620974D01*
X132414709Y-93605209D01*
X132160732Y-93077964D01*
X131744931Y-92706461D01*
X132054415Y-92499670D01*
X132379271Y-92013489D01*
X132493345Y-91440000D01*
X132379271Y-90866511D01*
X132054415Y-90380330D01*
X131739634Y-90170000D01*
X132054415Y-89959670D01*
X132168453Y-89789000D01*
X135890000Y-89789000D01*
X135890000Y-90205000D01*
X135957671Y-90545206D01*
X136003972Y-90614500D01*
X136150382Y-90833618D01*
X136232190Y-90915426D01*
X136253338Y-91027817D01*
X136304500Y-91107325D01*
X136304500Y-91156000D01*
X136362504Y-91447605D01*
X136459785Y-91593195D01*
X136405059Y-91628410D01*
X136260069Y-91840610D01*
X136209060Y-92092500D01*
X136209060Y-92692500D01*
X136253338Y-92927817D01*
X136392410Y-93143941D01*
X136604610Y-93288931D01*
X136856500Y-93339940D01*
X137276500Y-93339940D01*
X137511817Y-93295662D01*
X137719177Y-93162230D01*
X137904610Y-93288931D01*
X138156500Y-93339940D01*
X138576500Y-93339940D01*
X138811817Y-93295662D01*
X139027941Y-93156590D01*
X139029369Y-93154500D01*
X139205917Y-93154500D01*
X139272341Y-93221040D01*
X139631630Y-93370230D01*
X140020663Y-93370569D01*
X140380212Y-93222007D01*
X140655540Y-92947159D01*
X140804730Y-92587870D01*
X140804813Y-92492317D01*
X141508815Y-91788315D01*
X141673996Y-91541105D01*
X141692594Y-91447605D01*
X141705407Y-91383190D01*
X142221000Y-91383190D01*
X142221000Y-91598750D01*
X142379750Y-91757500D01*
X143129000Y-91757500D01*
X143129000Y-91033250D01*
X142970250Y-90874500D01*
X142729691Y-90874500D01*
X142496302Y-90971173D01*
X142317673Y-91149801D01*
X142221000Y-91383190D01*
X141705407Y-91383190D01*
X141732000Y-91249500D01*
X141732000Y-90866630D01*
X142365131Y-90233500D01*
X144272000Y-90233500D01*
X144563605Y-90175496D01*
X144810815Y-90010315D01*
X145318815Y-89502316D01*
X145483996Y-89255105D01*
X145492412Y-89212794D01*
X145542000Y-88963500D01*
X145542000Y-88544400D01*
X146355906Y-88544400D01*
X146308070Y-88780620D01*
X146308070Y-89781380D01*
X146352348Y-90016697D01*
X146367944Y-90040934D01*
X146320510Y-90155450D01*
X146320510Y-90496390D01*
X146479260Y-90655140D01*
X147828000Y-90655140D01*
X147828000Y-90635140D01*
X148082000Y-90635140D01*
X148082000Y-90655140D01*
X149430740Y-90655140D01*
X149589490Y-90496390D01*
X149589490Y-90155450D01*
X149543425Y-90044240D01*
X149550921Y-90033270D01*
X149570180Y-89938167D01*
X149747305Y-89819815D01*
X152528815Y-87038305D01*
X152693996Y-86791095D01*
X152709111Y-86715105D01*
X152752000Y-86499490D01*
X152752000Y-84683644D01*
X152841441Y-84626090D01*
X152986431Y-84413890D01*
X153037440Y-84162000D01*
X153037440Y-82462000D01*
X152993162Y-82226683D01*
X152854090Y-82010559D01*
X152641890Y-81865569D01*
X152390000Y-81814560D01*
X151590000Y-81814560D01*
X151354683Y-81858838D01*
X151138559Y-81997910D01*
X150993569Y-82210110D01*
X150942560Y-82462000D01*
X150942560Y-84162000D01*
X150986838Y-84397317D01*
X151125910Y-84613441D01*
X151228000Y-84683196D01*
X151228000Y-86183860D01*
X149601930Y-87809930D01*
X149601930Y-87282020D01*
X149557652Y-87046703D01*
X149418580Y-86830579D01*
X149206380Y-86685589D01*
X148954490Y-86634580D01*
X146955510Y-86634580D01*
X146720193Y-86678858D01*
X146504069Y-86817930D01*
X146365727Y-87020400D01*
X145783297Y-87020400D01*
X145783162Y-87019683D01*
X145644090Y-86803559D01*
X145542000Y-86733804D01*
X145542000Y-86479200D01*
X145607441Y-86437090D01*
X145752431Y-86224890D01*
X145803440Y-85973000D01*
X145803440Y-85223000D01*
X145759162Y-84987683D01*
X145620090Y-84771559D01*
X145407890Y-84626569D01*
X145156000Y-84575560D01*
X144356000Y-84575560D01*
X144120683Y-84619838D01*
X144017354Y-84686329D01*
X144015698Y-84684673D01*
X143782309Y-84588000D01*
X143541750Y-84588000D01*
X143383000Y-84746750D01*
X143383000Y-85471000D01*
X143403000Y-85471000D01*
X143403000Y-85725000D01*
X143383000Y-85725000D01*
X143383000Y-86449250D01*
X143541750Y-86608000D01*
X143782309Y-86608000D01*
X144015698Y-86511327D01*
X144017068Y-86509957D01*
X144018000Y-86510595D01*
X144018000Y-86707685D01*
X143806309Y-86620000D01*
X143565750Y-86620000D01*
X143407000Y-86778750D01*
X143407000Y-87503000D01*
X143427000Y-87503000D01*
X143427000Y-87757000D01*
X143407000Y-87757000D01*
X143407000Y-88481250D01*
X143565750Y-88640000D01*
X143806309Y-88640000D01*
X144018000Y-88552315D01*
X144018000Y-88647869D01*
X143956370Y-88709500D01*
X142049500Y-88709500D01*
X141757896Y-88767503D01*
X141510685Y-88932684D01*
X140431185Y-90012185D01*
X140266004Y-90259395D01*
X140208000Y-90551000D01*
X140208000Y-90933870D01*
X139727357Y-91414513D01*
X139633337Y-91414431D01*
X139273788Y-91562993D01*
X139206163Y-91630500D01*
X139025136Y-91630500D01*
X138922145Y-91560129D01*
X139070496Y-91338105D01*
X139075490Y-91312999D01*
X139110845Y-91135255D01*
X139172931Y-91044390D01*
X139223940Y-90792500D01*
X139223940Y-90192500D01*
X139179662Y-89957183D01*
X139040590Y-89741059D01*
X138828390Y-89596069D01*
X138810766Y-89592500D01*
X138892809Y-89592500D01*
X139126198Y-89495827D01*
X139304827Y-89317199D01*
X139401500Y-89083810D01*
X139401500Y-88868250D01*
X139242750Y-88709500D01*
X138493500Y-88709500D01*
X138493500Y-88729500D01*
X138239500Y-88729500D01*
X138239500Y-88709500D01*
X138219500Y-88709500D01*
X138219500Y-88455500D01*
X138239500Y-88455500D01*
X138239500Y-87731250D01*
X138493500Y-87731250D01*
X138493500Y-88455500D01*
X139242750Y-88455500D01*
X139401500Y-88296750D01*
X139401500Y-88081190D01*
X139332973Y-87915750D01*
X142245000Y-87915750D01*
X142245000Y-88131310D01*
X142341673Y-88364699D01*
X142520302Y-88543327D01*
X142753691Y-88640000D01*
X142994250Y-88640000D01*
X143153000Y-88481250D01*
X143153000Y-87757000D01*
X142403750Y-87757000D01*
X142245000Y-87915750D01*
X139332973Y-87915750D01*
X139304827Y-87847801D01*
X139126198Y-87669173D01*
X138892809Y-87572500D01*
X138652250Y-87572500D01*
X138493500Y-87731250D01*
X138239500Y-87731250D01*
X138080750Y-87572500D01*
X137840191Y-87572500D01*
X137606802Y-87669173D01*
X137605432Y-87670543D01*
X137518390Y-87611069D01*
X137266500Y-87560060D01*
X136466500Y-87560060D01*
X136231183Y-87604338D01*
X136015059Y-87743410D01*
X135870069Y-87955610D01*
X135858852Y-88011000D01*
X132168453Y-88011000D01*
X132054415Y-87840330D01*
X131739634Y-87630000D01*
X132054415Y-87419670D01*
X132253312Y-87122000D01*
X140285528Y-87122000D01*
X140415341Y-87252040D01*
X140774630Y-87401230D01*
X141163663Y-87401569D01*
X141523212Y-87253007D01*
X141647746Y-87128690D01*
X142245000Y-87128690D01*
X142245000Y-87344250D01*
X142403750Y-87503000D01*
X143153000Y-87503000D01*
X143153000Y-86778750D01*
X142994250Y-86620000D01*
X142753691Y-86620000D01*
X142520302Y-86716673D01*
X142341673Y-86895301D01*
X142245000Y-87128690D01*
X141647746Y-87128690D01*
X141798540Y-86978159D01*
X141947730Y-86618870D01*
X141948069Y-86229837D01*
X141805070Y-85883750D01*
X142221000Y-85883750D01*
X142221000Y-86099310D01*
X142317673Y-86332699D01*
X142496302Y-86511327D01*
X142729691Y-86608000D01*
X142970250Y-86608000D01*
X143129000Y-86449250D01*
X143129000Y-85725000D01*
X142379750Y-85725000D01*
X142221000Y-85883750D01*
X141805070Y-85883750D01*
X141799507Y-85870288D01*
X141524659Y-85594960D01*
X141165370Y-85445770D01*
X140776337Y-85445431D01*
X140416788Y-85593993D01*
X140412774Y-85598000D01*
X132253312Y-85598000D01*
X132054415Y-85300330D01*
X131739634Y-85090000D01*
X132054415Y-84879670D01*
X132253312Y-84582000D01*
X137642445Y-84582000D01*
X137642431Y-84597863D01*
X137790993Y-84957412D01*
X138065841Y-85232740D01*
X138425130Y-85381930D01*
X138814163Y-85382269D01*
X139173712Y-85233707D01*
X139310968Y-85096690D01*
X142221000Y-85096690D01*
X142221000Y-85312250D01*
X142379750Y-85471000D01*
X143129000Y-85471000D01*
X143129000Y-84746750D01*
X142970250Y-84588000D01*
X142729691Y-84588000D01*
X142496302Y-84684673D01*
X142317673Y-84863301D01*
X142221000Y-85096690D01*
X139310968Y-85096690D01*
X139449040Y-84958859D01*
X139598230Y-84599570D01*
X139598569Y-84210537D01*
X139450007Y-83850988D01*
X139197211Y-83597750D01*
X147555000Y-83597750D01*
X147555000Y-84288310D01*
X147651673Y-84521699D01*
X147830302Y-84700327D01*
X148063691Y-84797000D01*
X148304250Y-84797000D01*
X148463000Y-84638250D01*
X148463000Y-83439000D01*
X148717000Y-83439000D01*
X148717000Y-84638250D01*
X148875750Y-84797000D01*
X149116309Y-84797000D01*
X149349698Y-84700327D01*
X149528327Y-84521699D01*
X149625000Y-84288310D01*
X149625000Y-83597750D01*
X149466250Y-83439000D01*
X148717000Y-83439000D01*
X148463000Y-83439000D01*
X147713750Y-83439000D01*
X147555000Y-83597750D01*
X139197211Y-83597750D01*
X139175159Y-83575660D01*
X138815870Y-83426470D01*
X138720317Y-83426387D01*
X138575115Y-83281185D01*
X138431164Y-83185000D01*
X138327905Y-83116004D01*
X138036300Y-83058000D01*
X132253312Y-83058000D01*
X132054415Y-82760330D01*
X132040087Y-82750757D01*
X132061317Y-82746762D01*
X132277441Y-82607690D01*
X132422431Y-82395490D01*
X132434540Y-82335690D01*
X147555000Y-82335690D01*
X147555000Y-83026250D01*
X147713750Y-83185000D01*
X148463000Y-83185000D01*
X148463000Y-81985750D01*
X148717000Y-81985750D01*
X148717000Y-83185000D01*
X149466250Y-83185000D01*
X149625000Y-83026250D01*
X149625000Y-82335690D01*
X149528327Y-82102301D01*
X149349698Y-81923673D01*
X149116309Y-81827000D01*
X148875750Y-81827000D01*
X148717000Y-81985750D01*
X148463000Y-81985750D01*
X148304250Y-81827000D01*
X148063691Y-81827000D01*
X147830302Y-81923673D01*
X147651673Y-82102301D01*
X147555000Y-82335690D01*
X132434540Y-82335690D01*
X132473440Y-82143600D01*
X132473440Y-80416400D01*
X132429162Y-80181083D01*
X132290090Y-79964959D01*
X132077890Y-79819969D01*
X131826000Y-79768960D01*
X129867526Y-79768960D01*
X130115482Y-79603281D01*
X130880044Y-79451200D01*
X168801508Y-79451200D01*
X169629920Y-79615982D01*
X169629920Y-79615982D01*
G37*
X169629920Y-79615982D02*
X170218704Y-80009396D01*
X170612119Y-80598182D01*
X170764200Y-81362744D01*
X170764200Y-104082656D01*
X170612119Y-104847218D01*
X170218704Y-105436004D01*
X169629920Y-105829418D01*
X168929202Y-105968800D01*
X130880044Y-105968800D01*
X130115482Y-105816719D01*
X129526696Y-105423304D01*
X129133282Y-104834520D01*
X128981200Y-104069955D01*
X128981200Y-96520000D01*
X129126655Y-96520000D01*
X129240729Y-97093489D01*
X129565585Y-97579670D01*
X129880366Y-97790000D01*
X129565585Y-98000330D01*
X129240729Y-98486511D01*
X129126655Y-99060000D01*
X129240729Y-99633489D01*
X129565585Y-100119670D01*
X129880366Y-100330000D01*
X129565585Y-100540330D01*
X129240729Y-101026511D01*
X129126655Y-101600000D01*
X129240729Y-102173489D01*
X129565585Y-102659670D01*
X129880366Y-102870000D01*
X129565585Y-103080330D01*
X129240729Y-103566511D01*
X129126655Y-104140000D01*
X129240729Y-104713489D01*
X129565585Y-105199670D01*
X130051766Y-105524526D01*
X130625255Y-105638600D01*
X130994745Y-105638600D01*
X131568234Y-105524526D01*
X132054415Y-105199670D01*
X132253312Y-104902000D01*
X138518900Y-104902000D01*
X138810505Y-104843996D01*
X139057715Y-104678815D01*
X139901244Y-103835287D01*
X139995263Y-103835369D01*
X140354812Y-103686807D01*
X140630140Y-103411959D01*
X140779330Y-103052670D01*
X140779669Y-102663637D01*
X140655036Y-102362000D01*
X142233586Y-102362000D01*
X142252838Y-102464317D01*
X142391910Y-102680441D01*
X142604110Y-102825431D01*
X142856000Y-102876440D01*
X143656000Y-102876440D01*
X143891317Y-102832162D01*
X144005978Y-102758380D01*
X144104110Y-102825431D01*
X144356000Y-102876440D01*
X145156000Y-102876440D01*
X145391317Y-102832162D01*
X145402328Y-102825077D01*
X145402131Y-103050963D01*
X145550693Y-103410512D01*
X145825541Y-103685840D01*
X146184830Y-103835030D01*
X146573863Y-103835369D01*
X146933412Y-103686807D01*
X147208740Y-103411959D01*
X147349405Y-103073200D01*
X147802600Y-103073200D01*
X148094205Y-103015196D01*
X148341415Y-102850015D01*
X148493815Y-102697615D01*
X148658996Y-102450405D01*
X148663496Y-102427780D01*
X148954490Y-102427780D01*
X149189807Y-102383502D01*
X149405931Y-102244430D01*
X149550921Y-102032230D01*
X149601930Y-101780340D01*
X149601930Y-100779580D01*
X149557652Y-100544263D01*
X149550864Y-100533714D01*
X149550921Y-100533630D01*
X149601930Y-100281740D01*
X149601930Y-99280980D01*
X149557652Y-99045663D01*
X149542056Y-99021426D01*
X149589490Y-98906910D01*
X149589490Y-98565970D01*
X149430740Y-98407220D01*
X148082000Y-98407220D01*
X148082000Y-98427220D01*
X147828000Y-98427220D01*
X147828000Y-98407220D01*
X147808000Y-98407220D01*
X147808000Y-98153220D01*
X147828000Y-98153220D01*
X147828000Y-98133220D01*
X148082000Y-98133220D01*
X148082000Y-98153220D01*
X149430740Y-98153220D01*
X149589490Y-97994470D01*
X149589490Y-97653530D01*
X149544080Y-97543902D01*
X149550921Y-97533890D01*
X149601930Y-97282000D01*
X149601930Y-96281240D01*
X149557652Y-96045923D01*
X149550022Y-96034066D01*
X149550921Y-96032750D01*
X149601930Y-95780860D01*
X149601930Y-94780100D01*
X149557652Y-94544783D01*
X149550864Y-94534234D01*
X149550921Y-94534150D01*
X149601930Y-94282260D01*
X149601930Y-93281500D01*
X149557652Y-93046183D01*
X149550022Y-93034326D01*
X149550921Y-93033010D01*
X149552037Y-93027500D01*
X151233470Y-93027500D01*
X155346400Y-97140431D01*
X155346400Y-101588517D01*
X155279860Y-101654941D01*
X155130670Y-102014230D01*
X155130331Y-102403263D01*
X155278893Y-102762812D01*
X155553741Y-103038140D01*
X155913030Y-103187330D01*
X156302063Y-103187669D01*
X156661612Y-103039107D01*
X156936940Y-102764259D01*
X157021652Y-102560250D01*
X166706500Y-102560250D01*
X166706500Y-102900810D01*
X166803173Y-103134199D01*
X166981802Y-103312827D01*
X167215191Y-103409500D01*
X168155750Y-103409500D01*
X168314500Y-103250750D01*
X168314500Y-102401500D01*
X168568500Y-102401500D01*
X168568500Y-103250750D01*
X168727250Y-103409500D01*
X169667809Y-103409500D01*
X169901198Y-103312827D01*
X170079827Y-103134199D01*
X170176500Y-102900810D01*
X170176500Y-102560250D01*
X170017750Y-102401500D01*
X168568500Y-102401500D01*
X168314500Y-102401500D01*
X166865250Y-102401500D01*
X166706500Y-102560250D01*
X157021652Y-102560250D01*
X157086130Y-102404970D01*
X157086469Y-102015937D01*
X156937907Y-101656388D01*
X156870400Y-101588763D01*
X156870400Y-99634663D01*
X160819931Y-99634663D01*
X160968493Y-99994212D01*
X161243341Y-100269540D01*
X161602630Y-100418730D01*
X161991663Y-100419069D01*
X162322510Y-100282366D01*
X162322510Y-100408050D01*
X162367920Y-100517678D01*
X162361079Y-100527690D01*
X162310070Y-100779580D01*
X162310070Y-101780340D01*
X162354348Y-102015657D01*
X162493420Y-102231781D01*
X162705620Y-102376771D01*
X162957510Y-102427780D01*
X164956490Y-102427780D01*
X165191807Y-102383502D01*
X165407931Y-102244430D01*
X165546273Y-102041960D01*
X166436040Y-102041960D01*
X166706500Y-101988162D01*
X166706500Y-101988750D01*
X166865250Y-102147500D01*
X168314500Y-102147500D01*
X168314500Y-101298250D01*
X168568500Y-101298250D01*
X168568500Y-102147500D01*
X170017750Y-102147500D01*
X170176500Y-101988750D01*
X170176500Y-101648190D01*
X170079827Y-101414801D01*
X169901198Y-101236173D01*
X169667809Y-101139500D01*
X168727250Y-101139500D01*
X168568500Y-101298250D01*
X168314500Y-101298250D01*
X168155750Y-101139500D01*
X168088940Y-101139500D01*
X168088940Y-100409500D01*
X168155750Y-100409500D01*
X168314500Y-100250750D01*
X168314500Y-99401500D01*
X168568500Y-99401500D01*
X168568500Y-100250750D01*
X168727250Y-100409500D01*
X169667809Y-100409500D01*
X169901198Y-100312827D01*
X170079827Y-100134199D01*
X170176500Y-99900810D01*
X170176500Y-99560250D01*
X170017750Y-99401500D01*
X168568500Y-99401500D01*
X168314500Y-99401500D01*
X166865250Y-99401500D01*
X166706500Y-99560250D01*
X166706500Y-99627060D01*
X166441500Y-99627060D01*
X166206183Y-99671338D01*
X165990059Y-99810410D01*
X165845069Y-100022610D01*
X165794060Y-100274500D01*
X165794060Y-100517960D01*
X165545964Y-100517960D01*
X165591490Y-100408050D01*
X165591490Y-100067110D01*
X165432740Y-99908360D01*
X164084000Y-99908360D01*
X164084000Y-99928360D01*
X163830000Y-99928360D01*
X163830000Y-99908360D01*
X163810000Y-99908360D01*
X163810000Y-99654360D01*
X163830000Y-99654360D01*
X163830000Y-99634360D01*
X164084000Y-99634360D01*
X164084000Y-99654360D01*
X165432740Y-99654360D01*
X165591490Y-99495610D01*
X165591490Y-99154670D01*
X165545425Y-99043460D01*
X165552921Y-99032490D01*
X165553140Y-99031407D01*
X165790385Y-98984216D01*
X166037595Y-98819035D01*
X166208440Y-98648190D01*
X166706500Y-98648190D01*
X166706500Y-98988750D01*
X166865250Y-99147500D01*
X168314500Y-99147500D01*
X168314500Y-98298250D01*
X168568500Y-98298250D01*
X168568500Y-99147500D01*
X170017750Y-99147500D01*
X170176500Y-98988750D01*
X170176500Y-98648190D01*
X170079827Y-98414801D01*
X169901198Y-98236173D01*
X169667809Y-98139500D01*
X168727250Y-98139500D01*
X168568500Y-98298250D01*
X168314500Y-98298250D01*
X168155750Y-98139500D01*
X167215191Y-98139500D01*
X166981802Y-98236173D01*
X166803173Y-98414801D01*
X166706500Y-98648190D01*
X166208440Y-98648190D01*
X166342643Y-98513987D01*
X166436663Y-98514069D01*
X166796212Y-98365507D01*
X167071540Y-98090659D01*
X167220730Y-97731370D01*
X167221069Y-97342337D01*
X167072507Y-96982788D01*
X166797659Y-96707460D01*
X166438370Y-96558270D01*
X166049337Y-96557931D01*
X165689788Y-96706493D01*
X165603930Y-96792201D01*
X165603930Y-96281240D01*
X165559652Y-96045923D01*
X165552022Y-96034066D01*
X165552921Y-96032750D01*
X165603930Y-95780860D01*
X165603930Y-94780100D01*
X165559652Y-94544783D01*
X165552864Y-94534234D01*
X165552921Y-94534150D01*
X165603930Y-94282260D01*
X165603930Y-93281500D01*
X165559652Y-93046183D01*
X165552022Y-93034326D01*
X165552921Y-93033010D01*
X165603930Y-92781120D01*
X165603930Y-91780360D01*
X165559652Y-91545043D01*
X165552864Y-91534494D01*
X165552921Y-91534410D01*
X165603930Y-91282520D01*
X165603930Y-90281760D01*
X165559652Y-90046443D01*
X165544056Y-90022206D01*
X165591490Y-89907690D01*
X165591490Y-89566750D01*
X165432740Y-89408000D01*
X164084000Y-89408000D01*
X164084000Y-89428000D01*
X163830000Y-89428000D01*
X163830000Y-89408000D01*
X162481260Y-89408000D01*
X162322510Y-89566750D01*
X162322510Y-89907690D01*
X162368575Y-90018900D01*
X162361079Y-90029870D01*
X162310070Y-90281760D01*
X162310070Y-91282520D01*
X162354348Y-91517837D01*
X162361136Y-91528386D01*
X162361079Y-91528470D01*
X162310070Y-91780360D01*
X162310070Y-92781120D01*
X162354348Y-93016437D01*
X162361978Y-93028294D01*
X162361079Y-93029610D01*
X162310070Y-93281500D01*
X162310070Y-94282260D01*
X162354348Y-94517577D01*
X162361136Y-94528126D01*
X162361079Y-94528210D01*
X162310070Y-94780100D01*
X162310070Y-95780860D01*
X162354348Y-96016177D01*
X162361978Y-96028034D01*
X162361079Y-96029350D01*
X162341820Y-96124453D01*
X162164695Y-96242804D01*
X161259185Y-97148315D01*
X161094004Y-97395525D01*
X161036000Y-97687130D01*
X161036000Y-98819917D01*
X160969460Y-98886341D01*
X160820270Y-99245630D01*
X160819931Y-99634663D01*
X156870400Y-99634663D01*
X156870400Y-96824800D01*
X156861811Y-96781620D01*
X156812397Y-96533196D01*
X156647216Y-96285985D01*
X152487030Y-92125800D01*
X156266215Y-88346615D01*
X156431396Y-88099405D01*
X156436448Y-88074005D01*
X156489400Y-87807800D01*
X156489400Y-87282020D01*
X162310070Y-87282020D01*
X162310070Y-88282780D01*
X162354348Y-88518097D01*
X162369304Y-88541339D01*
X162322510Y-88654310D01*
X162322510Y-88995250D01*
X162481260Y-89154000D01*
X163830000Y-89154000D01*
X163830000Y-89134000D01*
X164084000Y-89134000D01*
X164084000Y-89154000D01*
X165432740Y-89154000D01*
X165591490Y-88995250D01*
X165591490Y-88654310D01*
X165546080Y-88544682D01*
X165552921Y-88534670D01*
X165603930Y-88282780D01*
X165603930Y-87282020D01*
X165559652Y-87046703D01*
X165420580Y-86830579D01*
X165208380Y-86685589D01*
X164956490Y-86634580D01*
X162957510Y-86634580D01*
X162722193Y-86678858D01*
X162506069Y-86817930D01*
X162361079Y-87030130D01*
X162310070Y-87282020D01*
X156489400Y-87282020D01*
X156489400Y-83844183D01*
X156555940Y-83777759D01*
X156705130Y-83418470D01*
X156705469Y-83029437D01*
X156556907Y-82669888D01*
X156282059Y-82394560D01*
X155922770Y-82245370D01*
X155533737Y-82245031D01*
X155174188Y-82393593D01*
X154898860Y-82668441D01*
X154749670Y-83027730D01*
X154749331Y-83416763D01*
X154897893Y-83776312D01*
X154965400Y-83843937D01*
X154965400Y-87492170D01*
X150954070Y-91503500D01*
X149550276Y-91503500D01*
X149589490Y-91408830D01*
X149589490Y-91067890D01*
X149430740Y-90909140D01*
X148082000Y-90909140D01*
X148082000Y-90929140D01*
X147828000Y-90929140D01*
X147828000Y-90909140D01*
X146479260Y-90909140D01*
X146320510Y-91067890D01*
X146320510Y-91122500D01*
X145661557Y-91122500D01*
X145620090Y-91058059D01*
X145407890Y-90913069D01*
X145156000Y-90862060D01*
X144356000Y-90862060D01*
X144120683Y-90906338D01*
X144017354Y-90972829D01*
X144015698Y-90971173D01*
X143782309Y-90874500D01*
X143541750Y-90874500D01*
X143383000Y-91033250D01*
X143383000Y-91757500D01*
X143403000Y-91757500D01*
X143403000Y-92011500D01*
X143383000Y-92011500D01*
X143383000Y-92031500D01*
X143129000Y-92031500D01*
X143129000Y-92011500D01*
X142379750Y-92011500D01*
X142221000Y-92170250D01*
X142221000Y-92385810D01*
X142317673Y-92619199D01*
X142496302Y-92797827D01*
X142524711Y-92809594D01*
X142404559Y-92886910D01*
X142351886Y-92964000D01*
X141986000Y-92964000D01*
X141694395Y-93022004D01*
X141658209Y-93046183D01*
X141447185Y-93187184D01*
X138876370Y-95758000D01*
X132253312Y-95758000D01*
X132054415Y-95460330D01*
X131744931Y-95253539D01*
X132160732Y-94882036D01*
X132414709Y-94354791D01*
X132417358Y-94339026D01*
X132296217Y-94107000D01*
X130937000Y-94107000D01*
X130937000Y-94127000D01*
X130683000Y-94127000D01*
X130683000Y-94107000D01*
X129323783Y-94107000D01*
X129202642Y-94339026D01*
X129205291Y-94354791D01*
X129459268Y-94882036D01*
X129875069Y-95253539D01*
X129565585Y-95460330D01*
X129240729Y-95946511D01*
X129126655Y-96520000D01*
X128981200Y-96520000D01*
X128981200Y-81350045D01*
X129133282Y-80585480D01*
X129146560Y-80565608D01*
X129146560Y-82143600D01*
X129190838Y-82378917D01*
X129329910Y-82595041D01*
X129542110Y-82740031D01*
X129583439Y-82748400D01*
X129565585Y-82760330D01*
X129240729Y-83246511D01*
X129126655Y-83820000D01*
X129240729Y-84393489D01*
X129565585Y-84879670D01*
X129880366Y-85090000D01*
X129565585Y-85300330D01*
X129240729Y-85786511D01*
X129126655Y-86360000D01*
X129240729Y-86933489D01*
X129565585Y-87419670D01*
X129880366Y-87630000D01*
X129565585Y-87840330D01*
X129240729Y-88326511D01*
X129126655Y-88900000D01*
X129240729Y-89473489D01*
X129565585Y-89959670D01*
X129880366Y-90170000D01*
X129565585Y-90380330D01*
X129240729Y-90866511D01*
X129126655Y-91440000D01*
X129240729Y-92013489D01*
X129565585Y-92499670D01*
X129875069Y-92706461D01*
X129459268Y-93077964D01*
X129205291Y-93605209D01*
X129202642Y-93620974D01*
X129323783Y-93853000D01*
X130683000Y-93853000D01*
X130683000Y-93833000D01*
X130937000Y-93833000D01*
X130937000Y-93853000D01*
X132296217Y-93853000D01*
X132417358Y-93620974D01*
X132414709Y-93605209D01*
X132160732Y-93077964D01*
X131744931Y-92706461D01*
X132054415Y-92499670D01*
X132379271Y-92013489D01*
X132493345Y-91440000D01*
X132379271Y-90866511D01*
X132054415Y-90380330D01*
X131739634Y-90170000D01*
X132054415Y-89959670D01*
X132168453Y-89789000D01*
X135890000Y-89789000D01*
X135890000Y-90205000D01*
X135957671Y-90545206D01*
X136003972Y-90614500D01*
X136150382Y-90833618D01*
X136232190Y-90915426D01*
X136253338Y-91027817D01*
X136304500Y-91107325D01*
X136304500Y-91156000D01*
X136362504Y-91447605D01*
X136459785Y-91593195D01*
X136405059Y-91628410D01*
X136260069Y-91840610D01*
X136209060Y-92092500D01*
X136209060Y-92692500D01*
X136253338Y-92927817D01*
X136392410Y-93143941D01*
X136604610Y-93288931D01*
X136856500Y-93339940D01*
X137276500Y-93339940D01*
X137511817Y-93295662D01*
X137719177Y-93162230D01*
X137904610Y-93288931D01*
X138156500Y-93339940D01*
X138576500Y-93339940D01*
X138811817Y-93295662D01*
X139027941Y-93156590D01*
X139029369Y-93154500D01*
X139205917Y-93154500D01*
X139272341Y-93221040D01*
X139631630Y-93370230D01*
X140020663Y-93370569D01*
X140380212Y-93222007D01*
X140655540Y-92947159D01*
X140804730Y-92587870D01*
X140804813Y-92492317D01*
X141508815Y-91788315D01*
X141673996Y-91541105D01*
X141692594Y-91447605D01*
X141705407Y-91383190D01*
X142221000Y-91383190D01*
X142221000Y-91598750D01*
X142379750Y-91757500D01*
X143129000Y-91757500D01*
X143129000Y-91033250D01*
X142970250Y-90874500D01*
X142729691Y-90874500D01*
X142496302Y-90971173D01*
X142317673Y-91149801D01*
X142221000Y-91383190D01*
X141705407Y-91383190D01*
X141732000Y-91249500D01*
X141732000Y-90866630D01*
X142365131Y-90233500D01*
X144272000Y-90233500D01*
X144563605Y-90175496D01*
X144810815Y-90010315D01*
X145318815Y-89502316D01*
X145483996Y-89255105D01*
X145492412Y-89212794D01*
X145542000Y-88963500D01*
X145542000Y-88544400D01*
X146355906Y-88544400D01*
X146308070Y-88780620D01*
X146308070Y-89781380D01*
X146352348Y-90016697D01*
X146367944Y-90040934D01*
X146320510Y-90155450D01*
X146320510Y-90496390D01*
X146479260Y-90655140D01*
X147828000Y-90655140D01*
X147828000Y-90635140D01*
X148082000Y-90635140D01*
X148082000Y-90655140D01*
X149430740Y-90655140D01*
X149589490Y-90496390D01*
X149589490Y-90155450D01*
X149543425Y-90044240D01*
X149550921Y-90033270D01*
X149570180Y-89938167D01*
X149747305Y-89819815D01*
X152528815Y-87038305D01*
X152693996Y-86791095D01*
X152709111Y-86715105D01*
X152752000Y-86499490D01*
X152752000Y-84683644D01*
X152841441Y-84626090D01*
X152986431Y-84413890D01*
X153037440Y-84162000D01*
X153037440Y-82462000D01*
X152993162Y-82226683D01*
X152854090Y-82010559D01*
X152641890Y-81865569D01*
X152390000Y-81814560D01*
X151590000Y-81814560D01*
X151354683Y-81858838D01*
X151138559Y-81997910D01*
X150993569Y-82210110D01*
X150942560Y-82462000D01*
X150942560Y-84162000D01*
X150986838Y-84397317D01*
X151125910Y-84613441D01*
X151228000Y-84683196D01*
X151228000Y-86183860D01*
X149601930Y-87809930D01*
X149601930Y-87282020D01*
X149557652Y-87046703D01*
X149418580Y-86830579D01*
X149206380Y-86685589D01*
X148954490Y-86634580D01*
X146955510Y-86634580D01*
X146720193Y-86678858D01*
X146504069Y-86817930D01*
X146365727Y-87020400D01*
X145783297Y-87020400D01*
X145783162Y-87019683D01*
X145644090Y-86803559D01*
X145542000Y-86733804D01*
X145542000Y-86479200D01*
X145607441Y-86437090D01*
X145752431Y-86224890D01*
X145803440Y-85973000D01*
X145803440Y-85223000D01*
X145759162Y-84987683D01*
X145620090Y-84771559D01*
X145407890Y-84626569D01*
X145156000Y-84575560D01*
X144356000Y-84575560D01*
X144120683Y-84619838D01*
X144017354Y-84686329D01*
X144015698Y-84684673D01*
X143782309Y-84588000D01*
X143541750Y-84588000D01*
X143383000Y-84746750D01*
X143383000Y-85471000D01*
X143403000Y-85471000D01*
X143403000Y-85725000D01*
X143383000Y-85725000D01*
X143383000Y-86449250D01*
X143541750Y-86608000D01*
X143782309Y-86608000D01*
X144015698Y-86511327D01*
X144017068Y-86509957D01*
X144018000Y-86510595D01*
X144018000Y-86707685D01*
X143806309Y-86620000D01*
X143565750Y-86620000D01*
X143407000Y-86778750D01*
X143407000Y-87503000D01*
X143427000Y-87503000D01*
X143427000Y-87757000D01*
X143407000Y-87757000D01*
X143407000Y-88481250D01*
X143565750Y-88640000D01*
X143806309Y-88640000D01*
X144018000Y-88552315D01*
X144018000Y-88647869D01*
X143956370Y-88709500D01*
X142049500Y-88709500D01*
X141757896Y-88767503D01*
X141510685Y-88932684D01*
X140431185Y-90012185D01*
X140266004Y-90259395D01*
X140208000Y-90551000D01*
X140208000Y-90933870D01*
X139727357Y-91414513D01*
X139633337Y-91414431D01*
X139273788Y-91562993D01*
X139206163Y-91630500D01*
X139025136Y-91630500D01*
X138922145Y-91560129D01*
X139070496Y-91338105D01*
X139075490Y-91312999D01*
X139110845Y-91135255D01*
X139172931Y-91044390D01*
X139223940Y-90792500D01*
X139223940Y-90192500D01*
X139179662Y-89957183D01*
X139040590Y-89741059D01*
X138828390Y-89596069D01*
X138810766Y-89592500D01*
X138892809Y-89592500D01*
X139126198Y-89495827D01*
X139304827Y-89317199D01*
X139401500Y-89083810D01*
X139401500Y-88868250D01*
X139242750Y-88709500D01*
X138493500Y-88709500D01*
X138493500Y-88729500D01*
X138239500Y-88729500D01*
X138239500Y-88709500D01*
X138219500Y-88709500D01*
X138219500Y-88455500D01*
X138239500Y-88455500D01*
X138239500Y-87731250D01*
X138493500Y-87731250D01*
X138493500Y-88455500D01*
X139242750Y-88455500D01*
X139401500Y-88296750D01*
X139401500Y-88081190D01*
X139332973Y-87915750D01*
X142245000Y-87915750D01*
X142245000Y-88131310D01*
X142341673Y-88364699D01*
X142520302Y-88543327D01*
X142753691Y-88640000D01*
X142994250Y-88640000D01*
X143153000Y-88481250D01*
X143153000Y-87757000D01*
X142403750Y-87757000D01*
X142245000Y-87915750D01*
X139332973Y-87915750D01*
X139304827Y-87847801D01*
X139126198Y-87669173D01*
X138892809Y-87572500D01*
X138652250Y-87572500D01*
X138493500Y-87731250D01*
X138239500Y-87731250D01*
X138080750Y-87572500D01*
X137840191Y-87572500D01*
X137606802Y-87669173D01*
X137605432Y-87670543D01*
X137518390Y-87611069D01*
X137266500Y-87560060D01*
X136466500Y-87560060D01*
X136231183Y-87604338D01*
X136015059Y-87743410D01*
X135870069Y-87955610D01*
X135858852Y-88011000D01*
X132168453Y-88011000D01*
X132054415Y-87840330D01*
X131739634Y-87630000D01*
X132054415Y-87419670D01*
X132253312Y-87122000D01*
X140285528Y-87122000D01*
X140415341Y-87252040D01*
X140774630Y-87401230D01*
X141163663Y-87401569D01*
X141523212Y-87253007D01*
X141647746Y-87128690D01*
X142245000Y-87128690D01*
X142245000Y-87344250D01*
X142403750Y-87503000D01*
X143153000Y-87503000D01*
X143153000Y-86778750D01*
X142994250Y-86620000D01*
X142753691Y-86620000D01*
X142520302Y-86716673D01*
X142341673Y-86895301D01*
X142245000Y-87128690D01*
X141647746Y-87128690D01*
X141798540Y-86978159D01*
X141947730Y-86618870D01*
X141948069Y-86229837D01*
X141805070Y-85883750D01*
X142221000Y-85883750D01*
X142221000Y-86099310D01*
X142317673Y-86332699D01*
X142496302Y-86511327D01*
X142729691Y-86608000D01*
X142970250Y-86608000D01*
X143129000Y-86449250D01*
X143129000Y-85725000D01*
X142379750Y-85725000D01*
X142221000Y-85883750D01*
X141805070Y-85883750D01*
X141799507Y-85870288D01*
X141524659Y-85594960D01*
X141165370Y-85445770D01*
X140776337Y-85445431D01*
X140416788Y-85593993D01*
X140412774Y-85598000D01*
X132253312Y-85598000D01*
X132054415Y-85300330D01*
X131739634Y-85090000D01*
X132054415Y-84879670D01*
X132253312Y-84582000D01*
X137642445Y-84582000D01*
X137642431Y-84597863D01*
X137790993Y-84957412D01*
X138065841Y-85232740D01*
X138425130Y-85381930D01*
X138814163Y-85382269D01*
X139173712Y-85233707D01*
X139310968Y-85096690D01*
X142221000Y-85096690D01*
X142221000Y-85312250D01*
X142379750Y-85471000D01*
X143129000Y-85471000D01*
X143129000Y-84746750D01*
X142970250Y-84588000D01*
X142729691Y-84588000D01*
X142496302Y-84684673D01*
X142317673Y-84863301D01*
X142221000Y-85096690D01*
X139310968Y-85096690D01*
X139449040Y-84958859D01*
X139598230Y-84599570D01*
X139598569Y-84210537D01*
X139450007Y-83850988D01*
X139197211Y-83597750D01*
X147555000Y-83597750D01*
X147555000Y-84288310D01*
X147651673Y-84521699D01*
X147830302Y-84700327D01*
X148063691Y-84797000D01*
X148304250Y-84797000D01*
X148463000Y-84638250D01*
X148463000Y-83439000D01*
X148717000Y-83439000D01*
X148717000Y-84638250D01*
X148875750Y-84797000D01*
X149116309Y-84797000D01*
X149349698Y-84700327D01*
X149528327Y-84521699D01*
X149625000Y-84288310D01*
X149625000Y-83597750D01*
X149466250Y-83439000D01*
X148717000Y-83439000D01*
X148463000Y-83439000D01*
X147713750Y-83439000D01*
X147555000Y-83597750D01*
X139197211Y-83597750D01*
X139175159Y-83575660D01*
X138815870Y-83426470D01*
X138720317Y-83426387D01*
X138575115Y-83281185D01*
X138431164Y-83185000D01*
X138327905Y-83116004D01*
X138036300Y-83058000D01*
X132253312Y-83058000D01*
X132054415Y-82760330D01*
X132040087Y-82750757D01*
X132061317Y-82746762D01*
X132277441Y-82607690D01*
X132422431Y-82395490D01*
X132434540Y-82335690D01*
X147555000Y-82335690D01*
X147555000Y-83026250D01*
X147713750Y-83185000D01*
X148463000Y-83185000D01*
X148463000Y-81985750D01*
X148717000Y-81985750D01*
X148717000Y-83185000D01*
X149466250Y-83185000D01*
X149625000Y-83026250D01*
X149625000Y-82335690D01*
X149528327Y-82102301D01*
X149349698Y-81923673D01*
X149116309Y-81827000D01*
X148875750Y-81827000D01*
X148717000Y-81985750D01*
X148463000Y-81985750D01*
X148304250Y-81827000D01*
X148063691Y-81827000D01*
X147830302Y-81923673D01*
X147651673Y-82102301D01*
X147555000Y-82335690D01*
X132434540Y-82335690D01*
X132473440Y-82143600D01*
X132473440Y-80416400D01*
X132429162Y-80181083D01*
X132290090Y-79964959D01*
X132077890Y-79819969D01*
X131826000Y-79768960D01*
X129867526Y-79768960D01*
X130115482Y-79603281D01*
X130880044Y-79451200D01*
X168801508Y-79451200D01*
X169629920Y-79615982D01*
G36*
X142384900Y-94541548D02*
X142266302Y-94590673D01*
X142087673Y-94769301D01*
X141991000Y-95002690D01*
X141991000Y-95218250D01*
X142149750Y-95377000D01*
X142899000Y-95377000D01*
X142899000Y-95357000D01*
X143153000Y-95357000D01*
X143153000Y-95377000D01*
X143173000Y-95377000D01*
X143173000Y-95631000D01*
X143153000Y-95631000D01*
X143153000Y-95651000D01*
X142899000Y-95651000D01*
X142899000Y-95631000D01*
X142149750Y-95631000D01*
X141991000Y-95789750D01*
X141991000Y-96005310D01*
X142087673Y-96238699D01*
X142127534Y-96278560D01*
X141967000Y-96278560D01*
X141731683Y-96322838D01*
X141515559Y-96461910D01*
X141432523Y-96583438D01*
X141309737Y-96583331D01*
X140950188Y-96731893D01*
X140674860Y-97006741D01*
X140525670Y-97366030D01*
X140525331Y-97755063D01*
X140673893Y-98114612D01*
X140856961Y-98298000D01*
X132253312Y-98298000D01*
X132054415Y-98000330D01*
X131739634Y-97790000D01*
X132054415Y-97579670D01*
X132253312Y-97282000D01*
X139192000Y-97282000D01*
X139483605Y-97223996D01*
X139730815Y-97058815D01*
X142301631Y-94488000D01*
X142350443Y-94488000D01*
X142384900Y-94541548D01*
X142384900Y-94541548D01*
G37*
X142384900Y-94541548D02*
X142266302Y-94590673D01*
X142087673Y-94769301D01*
X141991000Y-95002690D01*
X141991000Y-95218250D01*
X142149750Y-95377000D01*
X142899000Y-95377000D01*
X142899000Y-95357000D01*
X143153000Y-95357000D01*
X143153000Y-95377000D01*
X143173000Y-95377000D01*
X143173000Y-95631000D01*
X143153000Y-95631000D01*
X143153000Y-95651000D01*
X142899000Y-95651000D01*
X142899000Y-95631000D01*
X142149750Y-95631000D01*
X141991000Y-95789750D01*
X141991000Y-96005310D01*
X142087673Y-96238699D01*
X142127534Y-96278560D01*
X141967000Y-96278560D01*
X141731683Y-96322838D01*
X141515559Y-96461910D01*
X141432523Y-96583438D01*
X141309737Y-96583331D01*
X140950188Y-96731893D01*
X140674860Y-97006741D01*
X140525670Y-97366030D01*
X140525331Y-97755063D01*
X140673893Y-98114612D01*
X140856961Y-98298000D01*
X132253312Y-98298000D01*
X132054415Y-98000330D01*
X131739634Y-97790000D01*
X132054415Y-97579670D01*
X132253312Y-97282000D01*
X139192000Y-97282000D01*
X139483605Y-97223996D01*
X139730815Y-97058815D01*
X142301631Y-94488000D01*
X142350443Y-94488000D01*
X142384900Y-94541548D01*
D23*
X142189200Y-95516700D03*
X149860000Y-90868500D03*
X139509500Y-88582500D03*
X170497500Y-102298500D03*
X170624500Y-99250500D03*
X166052500Y-102425500D03*
X166116000Y-99314000D03*
X143256000Y-84264500D03*
X143256000Y-90551000D03*
X146177000Y-90741500D03*
X143256000Y-86614000D03*
X147193000Y-83248500D03*
X165671500Y-89281000D03*
X162115500Y-89281000D03*
X149860000Y-90868500D03*
X149796500Y-97218500D03*
X137716500Y-89535000D03*
X156108400Y-102209600D03*
X155727400Y-83223100D03*
X139827000Y-99885500D03*
X139827000Y-92392500D03*
X166243000Y-97536000D03*
X141795500Y-98806000D03*
X145986500Y-101854000D03*
X161798000Y-99441000D03*
X138620500Y-84404200D03*
X146240500Y-99745800D03*
X141503400Y-97561400D03*
X140970000Y-86423500D03*
X146380200Y-102857300D03*
X139801600Y-102857300D03*
D24*
X130810000Y-81280000D03*
X130810000Y-83820000D03*
X130810000Y-86360000D03*
X130810000Y-88900000D03*
X130810000Y-91440000D03*
X130810000Y-93980000D03*
X130810000Y-96520000D03*
X130810000Y-99060000D03*
X130810000Y-101600000D03*
X130810000Y-104140000D03*
M02*
