%TF.GenerationSoftware,KiCad,Pcbnew,4.0.5-e0-6337~49~ubuntu16.04.1*%
%TF.CreationDate,2017-03-11T12:02:39-08:00*%
%TF.ProjectId,fgpmmopa6h-gps-breakout,6667706D6D6F706136682D6770732D62,v1.0*%
%TF.FileFunction,Paste,Top*%
%FSLAX46Y46*%
G04 Gerber Fmt 4.6, Leading zero omitted, Abs format (unit mm)*
G04 Created by KiCad (PCBNEW 4.0.5-e0-6337~49~ubuntu16.04.1) date Sat Mar 11 12:02:39 2017*
%MOMM*%
%LPD*%
G01*
G04 APERTURE LIST*
%ADD10C,0.350000*%
%ADD11R,0.847600X0.847600*%
%ADD12R,2.047600X0.847600*%
%ADD13R,0.647600X0.597600*%
%ADD14R,0.647600X1.547600*%
%ADD15R,0.267600X0.447600*%
%ADD16R,0.757600X1.067600*%
%ADD17R,1.846580X0.848360*%
G04 APERTURE END LIST*
D10*
D11*
X166941500Y-100774500D03*
D12*
X168441500Y-99274500D03*
X168441500Y-102274500D03*
D13*
X136866500Y-88582500D03*
X138366500Y-88582500D03*
X144756000Y-91884500D03*
X143256000Y-91884500D03*
X144756000Y-85598000D03*
X143256000Y-85598000D03*
X144780000Y-87630000D03*
X143280000Y-87630000D03*
X143026000Y-95504000D03*
X144526000Y-95504000D03*
X143280000Y-99822000D03*
X144780000Y-99822000D03*
X143256000Y-93726000D03*
X144756000Y-93726000D03*
X144756000Y-101854000D03*
X143256000Y-101854000D03*
D14*
X148590000Y-83312000D03*
X151990000Y-83312000D03*
D15*
X138366500Y-90492500D03*
X137066500Y-90492500D03*
X138366500Y-92392500D03*
X137716500Y-90492500D03*
X137066500Y-92392500D03*
D16*
X142422000Y-97536000D03*
X145692000Y-97536000D03*
D17*
X147955000Y-87782400D03*
X147955000Y-89281000D03*
X147955000Y-90782140D03*
X147955000Y-92280740D03*
X147955000Y-93781880D03*
X147955000Y-95280480D03*
X147955000Y-96781620D03*
X147955000Y-98280220D03*
X147955000Y-99781360D03*
X147955000Y-101279960D03*
X163957000Y-101279960D03*
X163957000Y-99781360D03*
X163957000Y-98280220D03*
X163957000Y-96781620D03*
X163957000Y-95280480D03*
X163957000Y-93781880D03*
X163957000Y-92280740D03*
X163957000Y-90782140D03*
X163957000Y-89281000D03*
X163957000Y-87782400D03*
M02*
