%TF.GenerationSoftware,KiCad,Pcbnew,4.0.5-e0-6337~49~ubuntu16.04.1*%
%TF.CreationDate,2017-01-10T12:19:59-08:00*%
%TF.ProjectId,fgpmmopa6h-gps-breakout,6667706D6D6F706136682D6770732D62,v1.0*%
%TF.FileFunction,Legend,Bot*%
%FSLAX46Y46*%
G04 Gerber Fmt 4.6, Leading zero omitted, Abs format (unit mm)*
G04 Created by KiCad (PCBNEW 4.0.5-e0-6337~49~ubuntu16.04.1) date Tue Jan 10 12:19:59 2017*
%MOMM*%
%LPD*%
G01*
G04 APERTURE LIST*
%ADD10C,0.350000*%
%ADD11C,0.152400*%
G04 APERTURE END LIST*
D10*
D11*
X180179737Y-104557286D02*
X179986213Y-105234619D01*
X179792690Y-104750810D01*
X179599166Y-105234619D01*
X179405642Y-104557286D01*
X179018594Y-105234619D02*
X179018594Y-104557286D01*
X179018594Y-104218619D02*
X179066975Y-104267000D01*
X179018594Y-104315381D01*
X178970213Y-104267000D01*
X179018594Y-104218619D01*
X179018594Y-104315381D01*
X178099356Y-105186238D02*
X178196118Y-105234619D01*
X178389641Y-105234619D01*
X178486403Y-105186238D01*
X178534784Y-105137857D01*
X178583165Y-105041095D01*
X178583165Y-104750810D01*
X178534784Y-104654048D01*
X178486403Y-104605667D01*
X178389641Y-104557286D01*
X178196118Y-104557286D01*
X178099356Y-104605667D01*
X177663927Y-105234619D02*
X177663927Y-104218619D01*
X177567165Y-104847571D02*
X177276880Y-105234619D01*
X177276880Y-104557286D02*
X177663927Y-104944333D01*
X176454404Y-105186238D02*
X176551166Y-105234619D01*
X176744689Y-105234619D01*
X176841451Y-105186238D01*
X176889832Y-105089476D01*
X176889832Y-104702429D01*
X176841451Y-104605667D01*
X176744689Y-104557286D01*
X176551166Y-104557286D01*
X176454404Y-104605667D01*
X176406023Y-104702429D01*
X176406023Y-104799190D01*
X176889832Y-104895952D01*
X175970594Y-105234619D02*
X175970594Y-104557286D01*
X175970594Y-104750810D02*
X175922213Y-104654048D01*
X175873832Y-104605667D01*
X175777070Y-104557286D01*
X175680309Y-104557286D01*
X175341642Y-105234619D02*
X175341642Y-104218619D01*
X175341642Y-104605667D02*
X175244880Y-104557286D01*
X175051357Y-104557286D01*
X174954595Y-104605667D01*
X174906214Y-104654048D01*
X174857833Y-104750810D01*
X174857833Y-105041095D01*
X174906214Y-105137857D01*
X174954595Y-105186238D01*
X175051357Y-105234619D01*
X175244880Y-105234619D01*
X175341642Y-105186238D01*
X174277261Y-105234619D02*
X174374023Y-105186238D01*
X174422404Y-105137857D01*
X174470785Y-105041095D01*
X174470785Y-104750810D01*
X174422404Y-104654048D01*
X174374023Y-104605667D01*
X174277261Y-104557286D01*
X174132119Y-104557286D01*
X174035357Y-104605667D01*
X173986976Y-104654048D01*
X173938595Y-104750810D01*
X173938595Y-105041095D01*
X173986976Y-105137857D01*
X174035357Y-105186238D01*
X174132119Y-105234619D01*
X174277261Y-105234619D01*
X173599928Y-105234619D02*
X173067738Y-104557286D01*
X173599928Y-104557286D02*
X173067738Y-105234619D01*
X172680690Y-105137857D02*
X172632309Y-105186238D01*
X172680690Y-105234619D01*
X172729071Y-105186238D01*
X172680690Y-105137857D01*
X172680690Y-105234619D01*
X172196880Y-104557286D02*
X172196880Y-105234619D01*
X172196880Y-104654048D02*
X172148499Y-104605667D01*
X172051737Y-104557286D01*
X171906595Y-104557286D01*
X171809833Y-104605667D01*
X171761452Y-104702429D01*
X171761452Y-105234619D01*
X170890595Y-105186238D02*
X170987357Y-105234619D01*
X171180880Y-105234619D01*
X171277642Y-105186238D01*
X171326023Y-105089476D01*
X171326023Y-104702429D01*
X171277642Y-104605667D01*
X171180880Y-104557286D01*
X170987357Y-104557286D01*
X170890595Y-104605667D01*
X170842214Y-104702429D01*
X170842214Y-104799190D01*
X171326023Y-104895952D01*
X170551928Y-104557286D02*
X170164880Y-104557286D01*
X170406785Y-104218619D02*
X170406785Y-105089476D01*
X170358404Y-105186238D01*
X170261642Y-105234619D01*
X170164880Y-105234619D01*
X179553808Y-81080429D02*
X179892474Y-81080429D01*
X179892474Y-81612619D02*
X179892474Y-80596619D01*
X179408665Y-80596619D01*
X178489427Y-80645000D02*
X178586189Y-80596619D01*
X178731332Y-80596619D01*
X178876474Y-80645000D01*
X178973236Y-80741762D01*
X179021617Y-80838524D01*
X179069998Y-81032048D01*
X179069998Y-81177190D01*
X179021617Y-81370714D01*
X178973236Y-81467476D01*
X178876474Y-81564238D01*
X178731332Y-81612619D01*
X178634570Y-81612619D01*
X178489427Y-81564238D01*
X178441046Y-81515857D01*
X178441046Y-81177190D01*
X178634570Y-81177190D01*
X178005617Y-81612619D02*
X178005617Y-80596619D01*
X177618570Y-80596619D01*
X177521808Y-80645000D01*
X177473427Y-80693381D01*
X177425046Y-80790143D01*
X177425046Y-80935286D01*
X177473427Y-81032048D01*
X177521808Y-81080429D01*
X177618570Y-81128810D01*
X178005617Y-81128810D01*
X176989617Y-81612619D02*
X176989617Y-80596619D01*
X176650951Y-81322333D01*
X176312284Y-80596619D01*
X176312284Y-81612619D01*
X175828474Y-81612619D02*
X175828474Y-80596619D01*
X175489808Y-81322333D01*
X175151141Y-80596619D01*
X175151141Y-81612619D01*
X174473807Y-80596619D02*
X174280284Y-80596619D01*
X174183522Y-80645000D01*
X174086760Y-80741762D01*
X174038379Y-80935286D01*
X174038379Y-81273952D01*
X174086760Y-81467476D01*
X174183522Y-81564238D01*
X174280284Y-81612619D01*
X174473807Y-81612619D01*
X174570569Y-81564238D01*
X174667331Y-81467476D01*
X174715712Y-81273952D01*
X174715712Y-80935286D01*
X174667331Y-80741762D01*
X174570569Y-80645000D01*
X174473807Y-80596619D01*
X173602950Y-81612619D02*
X173602950Y-80596619D01*
X173215903Y-80596619D01*
X173119141Y-80645000D01*
X173070760Y-80693381D01*
X173022379Y-80790143D01*
X173022379Y-80935286D01*
X173070760Y-81032048D01*
X173119141Y-81080429D01*
X173215903Y-81128810D01*
X173602950Y-81128810D01*
X172635331Y-81322333D02*
X172151522Y-81322333D01*
X172732093Y-81612619D02*
X172393426Y-80596619D01*
X172054760Y-81612619D01*
X171280665Y-80596619D02*
X171474188Y-80596619D01*
X171570950Y-80645000D01*
X171619331Y-80693381D01*
X171716093Y-80838524D01*
X171764474Y-81032048D01*
X171764474Y-81419095D01*
X171716093Y-81515857D01*
X171667712Y-81564238D01*
X171570950Y-81612619D01*
X171377427Y-81612619D01*
X171280665Y-81564238D01*
X171232284Y-81515857D01*
X171183903Y-81419095D01*
X171183903Y-81177190D01*
X171232284Y-81080429D01*
X171280665Y-81032048D01*
X171377427Y-80983667D01*
X171570950Y-80983667D01*
X171667712Y-81032048D01*
X171716093Y-81080429D01*
X171764474Y-81177190D01*
X170748474Y-81612619D02*
X170748474Y-80596619D01*
X170748474Y-81080429D02*
X170167903Y-81080429D01*
X170167903Y-81612619D02*
X170167903Y-80596619D01*
X168377808Y-80645000D02*
X168474570Y-80596619D01*
X168619713Y-80596619D01*
X168764855Y-80645000D01*
X168861617Y-80741762D01*
X168909998Y-80838524D01*
X168958379Y-81032048D01*
X168958379Y-81177190D01*
X168909998Y-81370714D01*
X168861617Y-81467476D01*
X168764855Y-81564238D01*
X168619713Y-81612619D01*
X168522951Y-81612619D01*
X168377808Y-81564238D01*
X168329427Y-81515857D01*
X168329427Y-81177190D01*
X168522951Y-81177190D01*
X167893998Y-81612619D02*
X167893998Y-80596619D01*
X167506951Y-80596619D01*
X167410189Y-80645000D01*
X167361808Y-80693381D01*
X167313427Y-80790143D01*
X167313427Y-80935286D01*
X167361808Y-81032048D01*
X167410189Y-81080429D01*
X167506951Y-81128810D01*
X167893998Y-81128810D01*
X166926379Y-81564238D02*
X166781236Y-81612619D01*
X166539332Y-81612619D01*
X166442570Y-81564238D01*
X166394189Y-81515857D01*
X166345808Y-81419095D01*
X166345808Y-81322333D01*
X166394189Y-81225571D01*
X166442570Y-81177190D01*
X166539332Y-81128810D01*
X166732855Y-81080429D01*
X166829617Y-81032048D01*
X166877998Y-80983667D01*
X166926379Y-80886905D01*
X166926379Y-80790143D01*
X166877998Y-80693381D01*
X166829617Y-80645000D01*
X166732855Y-80596619D01*
X166490951Y-80596619D01*
X166345808Y-80645000D01*
X164797618Y-81080429D02*
X164652475Y-81128810D01*
X164604094Y-81177190D01*
X164555713Y-81273952D01*
X164555713Y-81419095D01*
X164604094Y-81515857D01*
X164652475Y-81564238D01*
X164749237Y-81612619D01*
X165136284Y-81612619D01*
X165136284Y-80596619D01*
X164797618Y-80596619D01*
X164700856Y-80645000D01*
X164652475Y-80693381D01*
X164604094Y-80790143D01*
X164604094Y-80886905D01*
X164652475Y-80983667D01*
X164700856Y-81032048D01*
X164797618Y-81080429D01*
X165136284Y-81080429D01*
X164120284Y-81612619D02*
X164120284Y-80935286D01*
X164120284Y-81128810D02*
X164071903Y-81032048D01*
X164023522Y-80983667D01*
X163926760Y-80935286D01*
X163829999Y-80935286D01*
X163104285Y-81564238D02*
X163201047Y-81612619D01*
X163394570Y-81612619D01*
X163491332Y-81564238D01*
X163539713Y-81467476D01*
X163539713Y-81080429D01*
X163491332Y-80983667D01*
X163394570Y-80935286D01*
X163201047Y-80935286D01*
X163104285Y-80983667D01*
X163055904Y-81080429D01*
X163055904Y-81177190D01*
X163539713Y-81273952D01*
X162185047Y-81612619D02*
X162185047Y-81080429D01*
X162233428Y-80983667D01*
X162330190Y-80935286D01*
X162523713Y-80935286D01*
X162620475Y-80983667D01*
X162185047Y-81564238D02*
X162281809Y-81612619D01*
X162523713Y-81612619D01*
X162620475Y-81564238D01*
X162668856Y-81467476D01*
X162668856Y-81370714D01*
X162620475Y-81273952D01*
X162523713Y-81225571D01*
X162281809Y-81225571D01*
X162185047Y-81177190D01*
X161701237Y-81612619D02*
X161701237Y-80596619D01*
X161604475Y-81225571D02*
X161314190Y-81612619D01*
X161314190Y-80935286D02*
X161701237Y-81322333D01*
X160733618Y-81612619D02*
X160830380Y-81564238D01*
X160878761Y-81515857D01*
X160927142Y-81419095D01*
X160927142Y-81128810D01*
X160878761Y-81032048D01*
X160830380Y-80983667D01*
X160733618Y-80935286D01*
X160588476Y-80935286D01*
X160491714Y-80983667D01*
X160443333Y-81032048D01*
X160394952Y-81128810D01*
X160394952Y-81419095D01*
X160443333Y-81515857D01*
X160491714Y-81564238D01*
X160588476Y-81612619D01*
X160733618Y-81612619D01*
X159524095Y-80935286D02*
X159524095Y-81612619D01*
X159959523Y-80935286D02*
X159959523Y-81467476D01*
X159911142Y-81564238D01*
X159814380Y-81612619D01*
X159669238Y-81612619D01*
X159572476Y-81564238D01*
X159524095Y-81515857D01*
X159185428Y-80935286D02*
X158798380Y-80935286D01*
X159040285Y-80596619D02*
X159040285Y-81467476D01*
X158991904Y-81564238D01*
X158895142Y-81612619D01*
X158798380Y-81612619D01*
X157346953Y-81080429D02*
X157201810Y-81128810D01*
X157153429Y-81177190D01*
X157105048Y-81273952D01*
X157105048Y-81419095D01*
X157153429Y-81515857D01*
X157201810Y-81564238D01*
X157298572Y-81612619D01*
X157685619Y-81612619D01*
X157685619Y-80596619D01*
X157346953Y-80596619D01*
X157250191Y-80645000D01*
X157201810Y-80693381D01*
X157153429Y-80790143D01*
X157153429Y-80886905D01*
X157201810Y-80983667D01*
X157250191Y-81032048D01*
X157346953Y-81080429D01*
X157685619Y-81080429D01*
X156524476Y-81612619D02*
X156621238Y-81564238D01*
X156669619Y-81515857D01*
X156718000Y-81419095D01*
X156718000Y-81128810D01*
X156669619Y-81032048D01*
X156621238Y-80983667D01*
X156524476Y-80935286D01*
X156379334Y-80935286D01*
X156282572Y-80983667D01*
X156234191Y-81032048D01*
X156185810Y-81128810D01*
X156185810Y-81419095D01*
X156234191Y-81515857D01*
X156282572Y-81564238D01*
X156379334Y-81612619D01*
X156524476Y-81612619D01*
X155314953Y-81612619D02*
X155314953Y-81080429D01*
X155363334Y-80983667D01*
X155460096Y-80935286D01*
X155653619Y-80935286D01*
X155750381Y-80983667D01*
X155314953Y-81564238D02*
X155411715Y-81612619D01*
X155653619Y-81612619D01*
X155750381Y-81564238D01*
X155798762Y-81467476D01*
X155798762Y-81370714D01*
X155750381Y-81273952D01*
X155653619Y-81225571D01*
X155411715Y-81225571D01*
X155314953Y-81177190D01*
X154831143Y-81612619D02*
X154831143Y-80935286D01*
X154831143Y-81128810D02*
X154782762Y-81032048D01*
X154734381Y-80983667D01*
X154637619Y-80935286D01*
X154540858Y-80935286D01*
X153766763Y-81612619D02*
X153766763Y-80596619D01*
X153766763Y-81564238D02*
X153863525Y-81612619D01*
X154057048Y-81612619D01*
X154153810Y-81564238D01*
X154202191Y-81515857D01*
X154250572Y-81419095D01*
X154250572Y-81128810D01*
X154202191Y-81032048D01*
X154153810Y-80983667D01*
X154057048Y-80935286D01*
X153863525Y-80935286D01*
X153766763Y-80983667D01*
X152605620Y-80935286D02*
X152363715Y-81612619D01*
X152121811Y-80935286D01*
X151202573Y-81612619D02*
X151783144Y-81612619D01*
X151492858Y-81612619D02*
X151492858Y-80596619D01*
X151589620Y-80741762D01*
X151686382Y-80838524D01*
X151783144Y-80886905D01*
X150767144Y-81515857D02*
X150718763Y-81564238D01*
X150767144Y-81612619D01*
X150815525Y-81564238D01*
X150767144Y-81515857D01*
X150767144Y-81612619D01*
X150089810Y-80596619D02*
X149993049Y-80596619D01*
X149896287Y-80645000D01*
X149847906Y-80693381D01*
X149799525Y-80790143D01*
X149751144Y-80983667D01*
X149751144Y-81225571D01*
X149799525Y-81419095D01*
X149847906Y-81515857D01*
X149896287Y-81564238D01*
X149993049Y-81612619D01*
X150089810Y-81612619D01*
X150186572Y-81564238D01*
X150234953Y-81515857D01*
X150283334Y-81419095D01*
X150331715Y-81225571D01*
X150331715Y-80983667D01*
X150283334Y-80790143D01*
X150234953Y-80693381D01*
X150186572Y-80645000D01*
X150089810Y-80596619D01*
M02*
