%TF.GenerationSoftware,KiCad,Pcbnew,4.0.5-e0-6337~49~ubuntu16.04.1*%
%TF.CreationDate,2017-02-23T19:58:10-08:00*%
%TF.ProjectId,fgpmmopa6h-gps-breakout,6667706D6D6F706136682D6770732D62,v1.0*%
%TF.FileFunction,Copper,L2,Bot,Signal*%
%FSLAX46Y46*%
G04 Gerber Fmt 4.6, Leading zero omitted, Abs format (unit mm)*
G04 Created by KiCad (PCBNEW 4.0.5-e0-6337~49~ubuntu16.04.1) date Thu Feb 23 19:58:10 2017*
%MOMM*%
%LPD*%
G01*
G04 APERTURE LIST*
%ADD10C,0.350000*%
%ADD11R,5.100000X2.500000*%
%ADD12C,10.200000*%
%ADD13R,2.032000X1.727200*%
%ADD14O,2.032000X1.727200*%
%ADD15C,0.685800*%
%ADD16C,0.254000*%
%ADD17C,0.330200*%
%ADD18C,0.350000*%
G04 APERTURE END LIST*
D10*
D11*
X156108400Y-85077300D03*
X156108400Y-100377300D03*
D12*
X156108400Y-92727300D03*
D13*
X130810000Y-81280000D03*
D14*
X130810000Y-83820000D03*
X130810000Y-86360000D03*
X130810000Y-88900000D03*
X130810000Y-91440000D03*
X130810000Y-93980000D03*
X130810000Y-96520000D03*
X130810000Y-99060000D03*
X130810000Y-101600000D03*
X130810000Y-104140000D03*
D15*
X142189200Y-95516700D03*
X149860000Y-90868500D03*
X139509500Y-88582500D03*
X170497500Y-102298500D03*
X170624500Y-99250500D03*
X166052500Y-102425500D03*
X166116000Y-99314000D03*
X143256000Y-84264500D03*
X143256000Y-90551000D03*
X146177000Y-90741500D03*
X143256000Y-86614000D03*
X147193000Y-83248500D03*
X165671500Y-89281000D03*
X162115500Y-89281000D03*
X149860000Y-90868500D03*
X149796500Y-97218500D03*
X137716500Y-89535000D03*
X156108400Y-102209600D03*
X155727400Y-83223100D03*
X139827000Y-99885500D03*
X139827000Y-92392500D03*
X166243000Y-97536000D03*
X141795500Y-98806000D03*
X145986500Y-101854000D03*
X161798000Y-99441000D03*
X138620500Y-84404200D03*
X146240500Y-99745800D03*
X141503400Y-97561400D03*
X140970000Y-86423500D03*
X146380200Y-102857300D03*
X139801600Y-102857300D03*
D16*
X151904700Y-88595200D02*
X151904700Y-88823800D01*
X151904700Y-88823800D02*
X149860000Y-90868500D01*
X156036800Y-92727300D02*
X151904700Y-88595200D01*
X156108400Y-92727300D02*
X156036800Y-92727300D01*
X156108400Y-100377300D02*
X156108400Y-102209600D01*
X155727400Y-83223100D02*
X155727400Y-84696300D01*
X155727400Y-84696300D02*
X156108400Y-85077300D01*
X139827000Y-98806000D02*
X139827000Y-92392500D01*
X139827000Y-99885500D02*
X139827000Y-98806000D01*
X153835100Y-98425000D02*
X153974800Y-98425000D01*
X153974800Y-98425000D02*
X165354000Y-98425000D01*
X151003000Y-98806000D02*
X151384000Y-98425000D01*
X151384000Y-98425000D02*
X153974800Y-98425000D01*
X141795500Y-98806000D02*
X151003000Y-98806000D01*
X165354000Y-98425000D02*
X165544500Y-98234500D01*
X165544500Y-98234500D02*
X166243000Y-97536000D01*
X160883600Y-103339900D02*
X161798000Y-102425500D01*
X161798000Y-102425500D02*
X161798000Y-99441000D01*
X152260300Y-103339900D02*
X160883600Y-103339900D01*
X150774400Y-101854000D02*
X152260300Y-103339900D01*
X145986500Y-101854000D02*
X150774400Y-101854000D01*
X138620500Y-84404200D02*
X138620500Y-100025200D01*
X139433300Y-100838000D02*
X143891000Y-100838000D01*
X138620500Y-100025200D02*
X139433300Y-100838000D01*
X143891000Y-100838000D02*
X144983200Y-99745800D01*
X144983200Y-99745800D02*
X146240500Y-99745800D01*
X130962400Y-83820000D02*
X130810000Y-83820000D01*
X141173200Y-97561400D02*
X140970000Y-97358200D01*
X140970000Y-97358200D02*
X140970000Y-86423500D01*
X141503400Y-97561400D02*
X141173200Y-97561400D01*
X141503400Y-97561400D02*
X141389100Y-97447100D01*
X143141700Y-102857300D02*
X146380200Y-102857300D01*
X143141700Y-102857300D02*
X139801600Y-102857300D01*
X139814300Y-102844600D02*
X139801600Y-102857300D01*
G36*
X169629920Y-79615982D02*
X170218704Y-80009396D01*
X170612119Y-80598182D01*
X170764200Y-81362744D01*
X170764200Y-104082656D01*
X170612119Y-104847218D01*
X170218704Y-105436004D01*
X169629920Y-105829418D01*
X168929202Y-105968800D01*
X130880044Y-105968800D01*
X130115482Y-105816719D01*
X129526696Y-105423304D01*
X129133282Y-104834520D01*
X128981200Y-104069955D01*
X128981200Y-96520000D01*
X129126655Y-96520000D01*
X129240729Y-97093489D01*
X129565585Y-97579670D01*
X129880366Y-97790000D01*
X129565585Y-98000330D01*
X129240729Y-98486511D01*
X129126655Y-99060000D01*
X129240729Y-99633489D01*
X129565585Y-100119670D01*
X129880366Y-100330000D01*
X129565585Y-100540330D01*
X129240729Y-101026511D01*
X129126655Y-101600000D01*
X129240729Y-102173489D01*
X129565585Y-102659670D01*
X129880366Y-102870000D01*
X129565585Y-103080330D01*
X129240729Y-103566511D01*
X129126655Y-104140000D01*
X129240729Y-104713489D01*
X129565585Y-105199670D01*
X130051766Y-105524526D01*
X130625255Y-105638600D01*
X130994745Y-105638600D01*
X131568234Y-105524526D01*
X132054415Y-105199670D01*
X132379271Y-104713489D01*
X132493345Y-104140000D01*
X132379271Y-103566511D01*
X132054415Y-103080330D01*
X131739634Y-102870000D01*
X132054415Y-102659670D01*
X132379271Y-102173489D01*
X132493345Y-101600000D01*
X132379271Y-101026511D01*
X132054415Y-100540330D01*
X131739634Y-100330000D01*
X132054415Y-100119670D01*
X132379271Y-99633489D01*
X132493345Y-99060000D01*
X132379271Y-98486511D01*
X132054415Y-98000330D01*
X131739634Y-97790000D01*
X132054415Y-97579670D01*
X132379271Y-97093489D01*
X132493345Y-96520000D01*
X132379271Y-95946511D01*
X132054415Y-95460330D01*
X131744931Y-95253539D01*
X132160732Y-94882036D01*
X132414709Y-94354791D01*
X132417358Y-94339026D01*
X132296217Y-94107000D01*
X130937000Y-94107000D01*
X130937000Y-94127000D01*
X130683000Y-94127000D01*
X130683000Y-94107000D01*
X129323783Y-94107000D01*
X129202642Y-94339026D01*
X129205291Y-94354791D01*
X129459268Y-94882036D01*
X129875069Y-95253539D01*
X129565585Y-95460330D01*
X129240729Y-95946511D01*
X129126655Y-96520000D01*
X128981200Y-96520000D01*
X128981200Y-81350045D01*
X129133282Y-80585480D01*
X129146560Y-80565608D01*
X129146560Y-82143600D01*
X129190838Y-82378917D01*
X129329910Y-82595041D01*
X129542110Y-82740031D01*
X129583439Y-82748400D01*
X129565585Y-82760330D01*
X129240729Y-83246511D01*
X129126655Y-83820000D01*
X129240729Y-84393489D01*
X129565585Y-84879670D01*
X129880366Y-85090000D01*
X129565585Y-85300330D01*
X129240729Y-85786511D01*
X129126655Y-86360000D01*
X129240729Y-86933489D01*
X129565585Y-87419670D01*
X129880366Y-87630000D01*
X129565585Y-87840330D01*
X129240729Y-88326511D01*
X129126655Y-88900000D01*
X129240729Y-89473489D01*
X129565585Y-89959670D01*
X129880366Y-90170000D01*
X129565585Y-90380330D01*
X129240729Y-90866511D01*
X129126655Y-91440000D01*
X129240729Y-92013489D01*
X129565585Y-92499670D01*
X129875069Y-92706461D01*
X129459268Y-93077964D01*
X129205291Y-93605209D01*
X129202642Y-93620974D01*
X129323783Y-93853000D01*
X130683000Y-93853000D01*
X130683000Y-93833000D01*
X130937000Y-93833000D01*
X130937000Y-93853000D01*
X132296217Y-93853000D01*
X132417358Y-93620974D01*
X132414709Y-93605209D01*
X132160732Y-93077964D01*
X131744931Y-92706461D01*
X132054415Y-92499670D01*
X132379271Y-92013489D01*
X132493345Y-91440000D01*
X132379271Y-90866511D01*
X132054415Y-90380330D01*
X131739634Y-90170000D01*
X132054415Y-89959670D01*
X132379271Y-89473489D01*
X132493345Y-88900000D01*
X132379271Y-88326511D01*
X132054415Y-87840330D01*
X131739634Y-87630000D01*
X132054415Y-87419670D01*
X132379271Y-86933489D01*
X132493345Y-86360000D01*
X132379271Y-85786511D01*
X132054415Y-85300330D01*
X131739634Y-85090000D01*
X132054415Y-84879670D01*
X132242712Y-84597863D01*
X137642431Y-84597863D01*
X137790993Y-84957412D01*
X137858500Y-85025037D01*
X137858500Y-100025200D01*
X137916504Y-100316805D01*
X137997960Y-100438712D01*
X138081685Y-100564015D01*
X138894485Y-101376816D01*
X139042677Y-101475834D01*
X139141695Y-101541996D01*
X139433300Y-101600000D01*
X143891000Y-101600000D01*
X144182605Y-101541996D01*
X144429815Y-101376815D01*
X145298830Y-100507800D01*
X145619417Y-100507800D01*
X145685841Y-100574340D01*
X146045130Y-100723530D01*
X146434163Y-100723869D01*
X146793712Y-100575307D01*
X147069040Y-100300459D01*
X147218230Y-99941170D01*
X147218555Y-99568000D01*
X151003000Y-99568000D01*
X151294605Y-99509996D01*
X151541815Y-99344815D01*
X151699630Y-99187000D01*
X152910960Y-99187000D01*
X152910960Y-101627300D01*
X152955238Y-101862617D01*
X153094310Y-102078741D01*
X153306510Y-102223731D01*
X153558400Y-102274740D01*
X155130443Y-102274740D01*
X155130331Y-102403263D01*
X155202489Y-102577900D01*
X152575930Y-102577900D01*
X151313215Y-101315185D01*
X151289503Y-101299341D01*
X151066005Y-101150004D01*
X150774400Y-101092000D01*
X146607583Y-101092000D01*
X146541159Y-101025460D01*
X146181870Y-100876270D01*
X145792837Y-100875931D01*
X145433288Y-101024493D01*
X145157960Y-101299341D01*
X145008770Y-101658630D01*
X145008431Y-102047663D01*
X145028114Y-102095300D01*
X140422683Y-102095300D01*
X140356259Y-102028760D01*
X139996970Y-101879570D01*
X139607937Y-101879231D01*
X139248388Y-102027793D01*
X138973060Y-102302641D01*
X138823870Y-102661930D01*
X138823531Y-103050963D01*
X138972093Y-103410512D01*
X139246941Y-103685840D01*
X139606230Y-103835030D01*
X139995263Y-103835369D01*
X140354812Y-103686807D01*
X140422437Y-103619300D01*
X145759117Y-103619300D01*
X145825541Y-103685840D01*
X146184830Y-103835030D01*
X146573863Y-103835369D01*
X146933412Y-103686807D01*
X147208740Y-103411959D01*
X147357930Y-103052670D01*
X147358269Y-102663637D01*
X147338586Y-102616000D01*
X150458770Y-102616000D01*
X151721485Y-103878715D01*
X151968695Y-104043896D01*
X152260300Y-104101900D01*
X160883600Y-104101900D01*
X161175205Y-104043896D01*
X161422415Y-103878715D01*
X162336815Y-102964315D01*
X162425179Y-102832069D01*
X162501996Y-102717105D01*
X162560000Y-102425500D01*
X162560000Y-100062083D01*
X162626540Y-99995659D01*
X162775730Y-99636370D01*
X162776069Y-99247337D01*
X162751138Y-99187000D01*
X165354000Y-99187000D01*
X165645605Y-99128996D01*
X165892815Y-98963815D01*
X166083316Y-98773315D01*
X166083318Y-98773312D01*
X166342643Y-98513987D01*
X166436663Y-98514069D01*
X166796212Y-98365507D01*
X167071540Y-98090659D01*
X167220730Y-97731370D01*
X167221069Y-97342337D01*
X167072507Y-96982788D01*
X166797659Y-96707460D01*
X166438370Y-96558270D01*
X166049337Y-96557931D01*
X165689788Y-96706493D01*
X165414460Y-96981341D01*
X165265270Y-97340630D01*
X165265187Y-97436183D01*
X165038370Y-97663000D01*
X159226652Y-97663000D01*
X159271200Y-97645457D01*
X159441833Y-97531443D01*
X160040046Y-96838551D01*
X156108400Y-92906905D01*
X152176754Y-96838551D01*
X152774967Y-97531443D01*
X153077448Y-97663000D01*
X151384000Y-97663000D01*
X151092395Y-97721004D01*
X150845184Y-97886185D01*
X150687369Y-98044000D01*
X142416583Y-98044000D01*
X142377937Y-98005286D01*
X142481130Y-97756770D01*
X142481469Y-97367737D01*
X142332907Y-97008188D01*
X142058059Y-96732860D01*
X141732000Y-96597468D01*
X141732000Y-93767249D01*
X150354265Y-93767249D01*
X151190243Y-95890100D01*
X151304257Y-96060733D01*
X151997149Y-96658946D01*
X155928795Y-92727300D01*
X156288005Y-92727300D01*
X160219651Y-96658946D01*
X160912543Y-96060733D01*
X161822499Y-93968524D01*
X161862535Y-91687351D01*
X161026557Y-89564500D01*
X160912543Y-89393867D01*
X160219651Y-88795654D01*
X156288005Y-92727300D01*
X155928795Y-92727300D01*
X151997149Y-88795654D01*
X151304257Y-89393867D01*
X150394301Y-91486076D01*
X150354265Y-93767249D01*
X141732000Y-93767249D01*
X141732000Y-88616049D01*
X152176754Y-88616049D01*
X156108400Y-92547695D01*
X160040046Y-88616049D01*
X159441833Y-87923157D01*
X157349624Y-87013201D01*
X155158191Y-86974740D01*
X158658400Y-86974740D01*
X158893717Y-86930462D01*
X159109841Y-86791390D01*
X159254831Y-86579190D01*
X159305840Y-86327300D01*
X159305840Y-83827300D01*
X159261562Y-83591983D01*
X159122490Y-83375859D01*
X158910290Y-83230869D01*
X158658400Y-83179860D01*
X156705338Y-83179860D01*
X156705469Y-83029437D01*
X156556907Y-82669888D01*
X156282059Y-82394560D01*
X155922770Y-82245370D01*
X155533737Y-82245031D01*
X155174188Y-82393593D01*
X154898860Y-82668441D01*
X154749670Y-83027730D01*
X154749537Y-83179860D01*
X153558400Y-83179860D01*
X153323083Y-83224138D01*
X153106959Y-83363210D01*
X152961969Y-83575410D01*
X152910960Y-83827300D01*
X152910960Y-86327300D01*
X152955238Y-86562617D01*
X153094310Y-86778741D01*
X153306510Y-86923731D01*
X153558400Y-86974740D01*
X155064452Y-86974740D01*
X152945600Y-87809143D01*
X152774967Y-87923157D01*
X152176754Y-88616049D01*
X141732000Y-88616049D01*
X141732000Y-87044583D01*
X141798540Y-86978159D01*
X141947730Y-86618870D01*
X141948069Y-86229837D01*
X141799507Y-85870288D01*
X141524659Y-85594960D01*
X141165370Y-85445770D01*
X140776337Y-85445431D01*
X140416788Y-85593993D01*
X140141460Y-85868841D01*
X139992270Y-86228130D01*
X139991931Y-86617163D01*
X140140493Y-86976712D01*
X140208000Y-87044337D01*
X140208000Y-91491850D01*
X140022370Y-91414770D01*
X139633337Y-91414431D01*
X139382500Y-91518074D01*
X139382500Y-85025283D01*
X139449040Y-84958859D01*
X139598230Y-84599570D01*
X139598569Y-84210537D01*
X139450007Y-83850988D01*
X139175159Y-83575660D01*
X138815870Y-83426470D01*
X138426837Y-83426131D01*
X138067288Y-83574693D01*
X137791960Y-83849541D01*
X137642770Y-84208830D01*
X137642431Y-84597863D01*
X132242712Y-84597863D01*
X132379271Y-84393489D01*
X132493345Y-83820000D01*
X132379271Y-83246511D01*
X132054415Y-82760330D01*
X132040087Y-82750757D01*
X132061317Y-82746762D01*
X132277441Y-82607690D01*
X132422431Y-82395490D01*
X132473440Y-82143600D01*
X132473440Y-80416400D01*
X132429162Y-80181083D01*
X132290090Y-79964959D01*
X132077890Y-79819969D01*
X131826000Y-79768960D01*
X129867526Y-79768960D01*
X130115482Y-79603281D01*
X130880044Y-79451200D01*
X168801508Y-79451200D01*
X169629920Y-79615982D01*
X169629920Y-79615982D01*
G37*
X169629920Y-79615982D02*
X170218704Y-80009396D01*
X170612119Y-80598182D01*
X170764200Y-81362744D01*
X170764200Y-104082656D01*
X170612119Y-104847218D01*
X170218704Y-105436004D01*
X169629920Y-105829418D01*
X168929202Y-105968800D01*
X130880044Y-105968800D01*
X130115482Y-105816719D01*
X129526696Y-105423304D01*
X129133282Y-104834520D01*
X128981200Y-104069955D01*
X128981200Y-96520000D01*
X129126655Y-96520000D01*
X129240729Y-97093489D01*
X129565585Y-97579670D01*
X129880366Y-97790000D01*
X129565585Y-98000330D01*
X129240729Y-98486511D01*
X129126655Y-99060000D01*
X129240729Y-99633489D01*
X129565585Y-100119670D01*
X129880366Y-100330000D01*
X129565585Y-100540330D01*
X129240729Y-101026511D01*
X129126655Y-101600000D01*
X129240729Y-102173489D01*
X129565585Y-102659670D01*
X129880366Y-102870000D01*
X129565585Y-103080330D01*
X129240729Y-103566511D01*
X129126655Y-104140000D01*
X129240729Y-104713489D01*
X129565585Y-105199670D01*
X130051766Y-105524526D01*
X130625255Y-105638600D01*
X130994745Y-105638600D01*
X131568234Y-105524526D01*
X132054415Y-105199670D01*
X132379271Y-104713489D01*
X132493345Y-104140000D01*
X132379271Y-103566511D01*
X132054415Y-103080330D01*
X131739634Y-102870000D01*
X132054415Y-102659670D01*
X132379271Y-102173489D01*
X132493345Y-101600000D01*
X132379271Y-101026511D01*
X132054415Y-100540330D01*
X131739634Y-100330000D01*
X132054415Y-100119670D01*
X132379271Y-99633489D01*
X132493345Y-99060000D01*
X132379271Y-98486511D01*
X132054415Y-98000330D01*
X131739634Y-97790000D01*
X132054415Y-97579670D01*
X132379271Y-97093489D01*
X132493345Y-96520000D01*
X132379271Y-95946511D01*
X132054415Y-95460330D01*
X131744931Y-95253539D01*
X132160732Y-94882036D01*
X132414709Y-94354791D01*
X132417358Y-94339026D01*
X132296217Y-94107000D01*
X130937000Y-94107000D01*
X130937000Y-94127000D01*
X130683000Y-94127000D01*
X130683000Y-94107000D01*
X129323783Y-94107000D01*
X129202642Y-94339026D01*
X129205291Y-94354791D01*
X129459268Y-94882036D01*
X129875069Y-95253539D01*
X129565585Y-95460330D01*
X129240729Y-95946511D01*
X129126655Y-96520000D01*
X128981200Y-96520000D01*
X128981200Y-81350045D01*
X129133282Y-80585480D01*
X129146560Y-80565608D01*
X129146560Y-82143600D01*
X129190838Y-82378917D01*
X129329910Y-82595041D01*
X129542110Y-82740031D01*
X129583439Y-82748400D01*
X129565585Y-82760330D01*
X129240729Y-83246511D01*
X129126655Y-83820000D01*
X129240729Y-84393489D01*
X129565585Y-84879670D01*
X129880366Y-85090000D01*
X129565585Y-85300330D01*
X129240729Y-85786511D01*
X129126655Y-86360000D01*
X129240729Y-86933489D01*
X129565585Y-87419670D01*
X129880366Y-87630000D01*
X129565585Y-87840330D01*
X129240729Y-88326511D01*
X129126655Y-88900000D01*
X129240729Y-89473489D01*
X129565585Y-89959670D01*
X129880366Y-90170000D01*
X129565585Y-90380330D01*
X129240729Y-90866511D01*
X129126655Y-91440000D01*
X129240729Y-92013489D01*
X129565585Y-92499670D01*
X129875069Y-92706461D01*
X129459268Y-93077964D01*
X129205291Y-93605209D01*
X129202642Y-93620974D01*
X129323783Y-93853000D01*
X130683000Y-93853000D01*
X130683000Y-93833000D01*
X130937000Y-93833000D01*
X130937000Y-93853000D01*
X132296217Y-93853000D01*
X132417358Y-93620974D01*
X132414709Y-93605209D01*
X132160732Y-93077964D01*
X131744931Y-92706461D01*
X132054415Y-92499670D01*
X132379271Y-92013489D01*
X132493345Y-91440000D01*
X132379271Y-90866511D01*
X132054415Y-90380330D01*
X131739634Y-90170000D01*
X132054415Y-89959670D01*
X132379271Y-89473489D01*
X132493345Y-88900000D01*
X132379271Y-88326511D01*
X132054415Y-87840330D01*
X131739634Y-87630000D01*
X132054415Y-87419670D01*
X132379271Y-86933489D01*
X132493345Y-86360000D01*
X132379271Y-85786511D01*
X132054415Y-85300330D01*
X131739634Y-85090000D01*
X132054415Y-84879670D01*
X132242712Y-84597863D01*
X137642431Y-84597863D01*
X137790993Y-84957412D01*
X137858500Y-85025037D01*
X137858500Y-100025200D01*
X137916504Y-100316805D01*
X137997960Y-100438712D01*
X138081685Y-100564015D01*
X138894485Y-101376816D01*
X139042677Y-101475834D01*
X139141695Y-101541996D01*
X139433300Y-101600000D01*
X143891000Y-101600000D01*
X144182605Y-101541996D01*
X144429815Y-101376815D01*
X145298830Y-100507800D01*
X145619417Y-100507800D01*
X145685841Y-100574340D01*
X146045130Y-100723530D01*
X146434163Y-100723869D01*
X146793712Y-100575307D01*
X147069040Y-100300459D01*
X147218230Y-99941170D01*
X147218555Y-99568000D01*
X151003000Y-99568000D01*
X151294605Y-99509996D01*
X151541815Y-99344815D01*
X151699630Y-99187000D01*
X152910960Y-99187000D01*
X152910960Y-101627300D01*
X152955238Y-101862617D01*
X153094310Y-102078741D01*
X153306510Y-102223731D01*
X153558400Y-102274740D01*
X155130443Y-102274740D01*
X155130331Y-102403263D01*
X155202489Y-102577900D01*
X152575930Y-102577900D01*
X151313215Y-101315185D01*
X151289503Y-101299341D01*
X151066005Y-101150004D01*
X150774400Y-101092000D01*
X146607583Y-101092000D01*
X146541159Y-101025460D01*
X146181870Y-100876270D01*
X145792837Y-100875931D01*
X145433288Y-101024493D01*
X145157960Y-101299341D01*
X145008770Y-101658630D01*
X145008431Y-102047663D01*
X145028114Y-102095300D01*
X140422683Y-102095300D01*
X140356259Y-102028760D01*
X139996970Y-101879570D01*
X139607937Y-101879231D01*
X139248388Y-102027793D01*
X138973060Y-102302641D01*
X138823870Y-102661930D01*
X138823531Y-103050963D01*
X138972093Y-103410512D01*
X139246941Y-103685840D01*
X139606230Y-103835030D01*
X139995263Y-103835369D01*
X140354812Y-103686807D01*
X140422437Y-103619300D01*
X145759117Y-103619300D01*
X145825541Y-103685840D01*
X146184830Y-103835030D01*
X146573863Y-103835369D01*
X146933412Y-103686807D01*
X147208740Y-103411959D01*
X147357930Y-103052670D01*
X147358269Y-102663637D01*
X147338586Y-102616000D01*
X150458770Y-102616000D01*
X151721485Y-103878715D01*
X151968695Y-104043896D01*
X152260300Y-104101900D01*
X160883600Y-104101900D01*
X161175205Y-104043896D01*
X161422415Y-103878715D01*
X162336815Y-102964315D01*
X162425179Y-102832069D01*
X162501996Y-102717105D01*
X162560000Y-102425500D01*
X162560000Y-100062083D01*
X162626540Y-99995659D01*
X162775730Y-99636370D01*
X162776069Y-99247337D01*
X162751138Y-99187000D01*
X165354000Y-99187000D01*
X165645605Y-99128996D01*
X165892815Y-98963815D01*
X166083316Y-98773315D01*
X166083318Y-98773312D01*
X166342643Y-98513987D01*
X166436663Y-98514069D01*
X166796212Y-98365507D01*
X167071540Y-98090659D01*
X167220730Y-97731370D01*
X167221069Y-97342337D01*
X167072507Y-96982788D01*
X166797659Y-96707460D01*
X166438370Y-96558270D01*
X166049337Y-96557931D01*
X165689788Y-96706493D01*
X165414460Y-96981341D01*
X165265270Y-97340630D01*
X165265187Y-97436183D01*
X165038370Y-97663000D01*
X159226652Y-97663000D01*
X159271200Y-97645457D01*
X159441833Y-97531443D01*
X160040046Y-96838551D01*
X156108400Y-92906905D01*
X152176754Y-96838551D01*
X152774967Y-97531443D01*
X153077448Y-97663000D01*
X151384000Y-97663000D01*
X151092395Y-97721004D01*
X150845184Y-97886185D01*
X150687369Y-98044000D01*
X142416583Y-98044000D01*
X142377937Y-98005286D01*
X142481130Y-97756770D01*
X142481469Y-97367737D01*
X142332907Y-97008188D01*
X142058059Y-96732860D01*
X141732000Y-96597468D01*
X141732000Y-93767249D01*
X150354265Y-93767249D01*
X151190243Y-95890100D01*
X151304257Y-96060733D01*
X151997149Y-96658946D01*
X155928795Y-92727300D01*
X156288005Y-92727300D01*
X160219651Y-96658946D01*
X160912543Y-96060733D01*
X161822499Y-93968524D01*
X161862535Y-91687351D01*
X161026557Y-89564500D01*
X160912543Y-89393867D01*
X160219651Y-88795654D01*
X156288005Y-92727300D01*
X155928795Y-92727300D01*
X151997149Y-88795654D01*
X151304257Y-89393867D01*
X150394301Y-91486076D01*
X150354265Y-93767249D01*
X141732000Y-93767249D01*
X141732000Y-88616049D01*
X152176754Y-88616049D01*
X156108400Y-92547695D01*
X160040046Y-88616049D01*
X159441833Y-87923157D01*
X157349624Y-87013201D01*
X155158191Y-86974740D01*
X158658400Y-86974740D01*
X158893717Y-86930462D01*
X159109841Y-86791390D01*
X159254831Y-86579190D01*
X159305840Y-86327300D01*
X159305840Y-83827300D01*
X159261562Y-83591983D01*
X159122490Y-83375859D01*
X158910290Y-83230869D01*
X158658400Y-83179860D01*
X156705338Y-83179860D01*
X156705469Y-83029437D01*
X156556907Y-82669888D01*
X156282059Y-82394560D01*
X155922770Y-82245370D01*
X155533737Y-82245031D01*
X155174188Y-82393593D01*
X154898860Y-82668441D01*
X154749670Y-83027730D01*
X154749537Y-83179860D01*
X153558400Y-83179860D01*
X153323083Y-83224138D01*
X153106959Y-83363210D01*
X152961969Y-83575410D01*
X152910960Y-83827300D01*
X152910960Y-86327300D01*
X152955238Y-86562617D01*
X153094310Y-86778741D01*
X153306510Y-86923731D01*
X153558400Y-86974740D01*
X155064452Y-86974740D01*
X152945600Y-87809143D01*
X152774967Y-87923157D01*
X152176754Y-88616049D01*
X141732000Y-88616049D01*
X141732000Y-87044583D01*
X141798540Y-86978159D01*
X141947730Y-86618870D01*
X141948069Y-86229837D01*
X141799507Y-85870288D01*
X141524659Y-85594960D01*
X141165370Y-85445770D01*
X140776337Y-85445431D01*
X140416788Y-85593993D01*
X140141460Y-85868841D01*
X139992270Y-86228130D01*
X139991931Y-86617163D01*
X140140493Y-86976712D01*
X140208000Y-87044337D01*
X140208000Y-91491850D01*
X140022370Y-91414770D01*
X139633337Y-91414431D01*
X139382500Y-91518074D01*
X139382500Y-85025283D01*
X139449040Y-84958859D01*
X139598230Y-84599570D01*
X139598569Y-84210537D01*
X139450007Y-83850988D01*
X139175159Y-83575660D01*
X138815870Y-83426470D01*
X138426837Y-83426131D01*
X138067288Y-83574693D01*
X137791960Y-83849541D01*
X137642770Y-84208830D01*
X137642431Y-84597863D01*
X132242712Y-84597863D01*
X132379271Y-84393489D01*
X132493345Y-83820000D01*
X132379271Y-83246511D01*
X132054415Y-82760330D01*
X132040087Y-82750757D01*
X132061317Y-82746762D01*
X132277441Y-82607690D01*
X132422431Y-82395490D01*
X132473440Y-82143600D01*
X132473440Y-80416400D01*
X132429162Y-80181083D01*
X132290090Y-79964959D01*
X132077890Y-79819969D01*
X131826000Y-79768960D01*
X129867526Y-79768960D01*
X130115482Y-79603281D01*
X130880044Y-79451200D01*
X168801508Y-79451200D01*
X169629920Y-79615982D01*
D17*
X142189200Y-95516700D03*
X149860000Y-90868500D03*
X139509500Y-88582500D03*
X170497500Y-102298500D03*
X170624500Y-99250500D03*
X166052500Y-102425500D03*
X166116000Y-99314000D03*
X143256000Y-84264500D03*
X143256000Y-90551000D03*
X146177000Y-90741500D03*
X143256000Y-86614000D03*
X147193000Y-83248500D03*
X165671500Y-89281000D03*
X162115500Y-89281000D03*
X149860000Y-90868500D03*
X149796500Y-97218500D03*
X137716500Y-89535000D03*
X156108400Y-102209600D03*
X155727400Y-83223100D03*
X139827000Y-99885500D03*
X139827000Y-92392500D03*
X166243000Y-97536000D03*
X141795500Y-98806000D03*
X145986500Y-101854000D03*
X161798000Y-99441000D03*
X138620500Y-84404200D03*
X146240500Y-99745800D03*
X141503400Y-97561400D03*
X140970000Y-86423500D03*
X146380200Y-102857300D03*
X139801600Y-102857300D03*
D18*
X130810000Y-81280000D03*
X130810000Y-83820000D03*
X130810000Y-86360000D03*
X130810000Y-88900000D03*
X130810000Y-91440000D03*
X130810000Y-93980000D03*
X130810000Y-96520000D03*
X130810000Y-99060000D03*
X130810000Y-101600000D03*
X130810000Y-104140000D03*
M02*
