%TF.GenerationSoftware,KiCad,Pcbnew,4.0.5-e0-6337~49~ubuntu16.04.1*%
%TF.CreationDate,2017-01-10T12:19:59-08:00*%
%TF.ProjectId,fgpmmopa6h-gps-breakout,6667706D6D6F706136682D6770732D62,v1.0*%
%TF.FileFunction,Copper,L1,Top,Signal*%
%FSLAX46Y46*%
G04 Gerber Fmt 4.6, Leading zero omitted, Abs format (unit mm)*
G04 Created by KiCad (PCBNEW 4.0.5-e0-6337~49~ubuntu16.04.1) date Tue Jan 10 12:19:59 2017*
%MOMM*%
%LPD*%
G01*
G04 APERTURE LIST*
%ADD10C,0.350000*%
%ADD11R,1.000000X1.000000*%
%ADD12R,2.200000X1.000000*%
%ADD13R,5.100000X2.500000*%
%ADD14C,10.200000*%
%ADD15R,0.800000X0.750000*%
%ADD16R,0.590000X0.450000*%
%ADD17R,0.800000X1.700000*%
%ADD18R,0.420000X0.600000*%
%ADD19R,1.998980X1.000760*%
%ADD20C,1.371600*%
%ADD21R,2.032000X1.727200*%
%ADD22O,2.032000X1.727200*%
%ADD23C,0.685800*%
%ADD24C,0.254000*%
%ADD25C,0.508000*%
%ADD26C,0.330200*%
%ADD27C,0.350000*%
G04 APERTURE END LIST*
D10*
D11*
X166941500Y-100774500D03*
D12*
X168441500Y-99274500D03*
X168441500Y-102274500D03*
D13*
X175768000Y-99314000D03*
X175768000Y-84014000D03*
D14*
X175768000Y-91664000D03*
D15*
X136866500Y-88582500D03*
X138366500Y-88582500D03*
X144756000Y-91884500D03*
X143256000Y-91884500D03*
X144756000Y-85598000D03*
X143256000Y-85598000D03*
X144780000Y-87630000D03*
X143280000Y-87630000D03*
D16*
X143002000Y-97536000D03*
X145112000Y-97536000D03*
D15*
X143026000Y-95504000D03*
X144526000Y-95504000D03*
X143280000Y-99822000D03*
X144780000Y-99822000D03*
X143256000Y-93726000D03*
X144756000Y-93726000D03*
X144756000Y-101854000D03*
X143256000Y-101854000D03*
D17*
X148590000Y-83312000D03*
X151990000Y-83312000D03*
D18*
X138366500Y-90492500D03*
X137066500Y-90492500D03*
X138366500Y-92392500D03*
X137716500Y-90492500D03*
X137066500Y-92392500D03*
D19*
X147955000Y-87782400D03*
X147955000Y-89281000D03*
X147955000Y-90782140D03*
X147955000Y-92280740D03*
X147955000Y-93781880D03*
X147955000Y-95280480D03*
X147955000Y-96781620D03*
X147955000Y-98280220D03*
X147955000Y-99781360D03*
X147955000Y-101279960D03*
X163957000Y-101279960D03*
X163957000Y-99781360D03*
X163957000Y-98280220D03*
X163957000Y-96781620D03*
X163957000Y-95280480D03*
X163957000Y-93781880D03*
X163957000Y-92280740D03*
X163957000Y-90782140D03*
X163957000Y-89281000D03*
X163957000Y-87782400D03*
D20*
X156156000Y-93731180D03*
D21*
X130810000Y-81280000D03*
D22*
X130810000Y-83820000D03*
X130810000Y-86360000D03*
X130810000Y-88900000D03*
X130810000Y-91440000D03*
X130810000Y-93980000D03*
X130810000Y-96520000D03*
X130810000Y-99060000D03*
X130810000Y-101600000D03*
X130810000Y-104140000D03*
D23*
X139509500Y-88582500D03*
X170497500Y-102298500D03*
X170624500Y-99250500D03*
X166052500Y-102425500D03*
X166116000Y-99314000D03*
X171259500Y-96139000D03*
X171196000Y-87185500D03*
X143256000Y-84264500D03*
X143256000Y-90551000D03*
X146177000Y-90741500D03*
X143256000Y-86614000D03*
X147193000Y-83248500D03*
X165671500Y-89281000D03*
X162115500Y-89281000D03*
X149860000Y-90868500D03*
X146050000Y-97345500D03*
X149796500Y-97218500D03*
X137716500Y-89535000D03*
X139827000Y-99885500D03*
X139827000Y-92392500D03*
X137287000Y-100711000D03*
X166243000Y-97536000D03*
X141795500Y-98806000D03*
X145986500Y-101854000D03*
X161798000Y-99441000D03*
X141922500Y-97536000D03*
X140970000Y-86423500D03*
D24*
X163957000Y-101279960D02*
X166436040Y-101279960D01*
X166436040Y-101279960D02*
X166941500Y-100774500D01*
X138366500Y-88582500D02*
X139509500Y-88582500D01*
X168441500Y-102274500D02*
X170473500Y-102274500D01*
X170473500Y-102274500D02*
X170497500Y-102298500D01*
X168441500Y-99274500D02*
X170600500Y-99274500D01*
X170600500Y-99274500D02*
X170624500Y-99250500D01*
X168441500Y-102274500D02*
X166203500Y-102274500D01*
X166203500Y-102274500D02*
X166052500Y-102425500D01*
X163957000Y-99781360D02*
X165648640Y-99781360D01*
X165648640Y-99781360D02*
X166116000Y-99314000D01*
X175768000Y-91664000D02*
X175734500Y-91664000D01*
X175734500Y-91664000D02*
X171259500Y-96139000D01*
X175768000Y-91664000D02*
X175674500Y-91664000D01*
X175674500Y-91664000D02*
X171196000Y-87185500D01*
X143256000Y-85598000D02*
X143256000Y-84264500D01*
X138366500Y-88582500D02*
X138366500Y-87439500D01*
X138366500Y-87439500D02*
X138303000Y-87376000D01*
X143256000Y-91884500D02*
X143256000Y-90551000D01*
X147955000Y-90782140D02*
X146217640Y-90782140D01*
X146217640Y-90782140D02*
X146177000Y-90741500D01*
X143256000Y-85598000D02*
X143256000Y-86614000D01*
X148590000Y-83312000D02*
X147256500Y-83312000D01*
X147256500Y-83312000D02*
X147193000Y-83248500D01*
X163957000Y-89281000D02*
X165671500Y-89281000D01*
X163957000Y-89281000D02*
X162115500Y-89281000D01*
X147955000Y-90782140D02*
X149773640Y-90782140D01*
X149773640Y-90782140D02*
X149860000Y-90868500D01*
X147955000Y-98280220D02*
X146984720Y-98280220D01*
X146984720Y-98280220D02*
X146050000Y-97345500D01*
X147955000Y-98280220D02*
X149208490Y-98280220D01*
X149208490Y-98280220D02*
X149796500Y-97692210D01*
X149796500Y-97692210D02*
X149796500Y-97218500D01*
X137716500Y-89535000D02*
X137716500Y-89232500D01*
X137716500Y-90492500D02*
X137716500Y-89535000D01*
X137716500Y-89232500D02*
X138366500Y-88582500D01*
X181673500Y-96212500D02*
X181673500Y-88619500D01*
X181673500Y-88619500D02*
X177068000Y-84014000D01*
X177068000Y-84014000D02*
X175768000Y-84014000D01*
X175768000Y-99314000D02*
X178572000Y-99314000D01*
X178572000Y-99314000D02*
X181673500Y-96212500D01*
X175768000Y-99314000D02*
X177068000Y-99314000D01*
X150939500Y-92265500D02*
X159191000Y-84014000D01*
X159191000Y-84014000D02*
X175768000Y-84014000D01*
X149223730Y-92265500D02*
X150939500Y-92265500D01*
X147955000Y-92280740D02*
X149208490Y-92280740D01*
X149208490Y-92280740D02*
X149223730Y-92265500D01*
X144756000Y-91884500D02*
X147558760Y-91884500D01*
X147558760Y-91884500D02*
X147955000Y-92280740D01*
X137287000Y-91376500D02*
X137066500Y-91156000D01*
X137066500Y-91156000D02*
X137066500Y-90492500D01*
X138036500Y-91376500D02*
X137287000Y-91376500D01*
X138366500Y-90492500D02*
X138366500Y-91046500D01*
X138366500Y-91046500D02*
X138036500Y-91376500D01*
D25*
X136779000Y-89553000D02*
X136779000Y-90205000D01*
X136779000Y-90205000D02*
X136998499Y-90424499D01*
X136866500Y-88582500D02*
X136866500Y-89465500D01*
X136866500Y-89465500D02*
X136779000Y-89553000D01*
X130810000Y-88900000D02*
X136549000Y-88900000D01*
X136549000Y-88900000D02*
X136866500Y-88582500D01*
D24*
X141986000Y-99949000D02*
X139890500Y-99949000D01*
X139890500Y-99949000D02*
X139827000Y-99885500D01*
X141986000Y-99949000D02*
X143153000Y-99949000D01*
X143153000Y-99949000D02*
X143280000Y-99822000D01*
X147955000Y-87782400D02*
X144932400Y-87782400D01*
X144932400Y-87782400D02*
X144780000Y-87630000D01*
X139827000Y-92392500D02*
X140970000Y-91249500D01*
X144780000Y-87630000D02*
X144780000Y-85622000D01*
X144780000Y-85622000D02*
X144756000Y-85598000D01*
X144272000Y-89471500D02*
X144780000Y-88963500D01*
X144780000Y-88963500D02*
X144780000Y-87630000D01*
X142049500Y-89471500D02*
X144272000Y-89471500D01*
X140970000Y-90551000D02*
X142049500Y-89471500D01*
X140970000Y-91249500D02*
X140970000Y-90551000D01*
X138366500Y-92392500D02*
X139827000Y-92392500D01*
X146132550Y-100711000D02*
X137287000Y-100711000D01*
X147955000Y-101279960D02*
X146701510Y-101279960D01*
X146701510Y-101279960D02*
X146132550Y-100711000D01*
X139192000Y-96520000D02*
X141986000Y-93726000D01*
X141986000Y-93726000D02*
X143256000Y-93726000D01*
X130810000Y-96520000D02*
X139192000Y-96520000D01*
X143389000Y-92964000D02*
X145883630Y-92964000D01*
X145883630Y-92964000D02*
X146701510Y-93781880D01*
X146701510Y-93781880D02*
X147955000Y-93781880D01*
X143256000Y-93726000D02*
X143256000Y-93097000D01*
X143256000Y-93097000D02*
X143389000Y-92964000D01*
X165498780Y-98280220D02*
X166243000Y-97536000D01*
X165498780Y-98280220D02*
X163957000Y-98280220D01*
X163911280Y-98234500D02*
X163957000Y-98280220D01*
X130810000Y-99060000D02*
X141541500Y-99060000D01*
X141541500Y-99060000D02*
X141795500Y-98806000D01*
X130810000Y-101600000D02*
X143002000Y-101600000D01*
X143002000Y-101600000D02*
X143256000Y-101854000D01*
X144526000Y-95504000D02*
X144526000Y-93956000D01*
X144526000Y-93956000D02*
X144756000Y-93726000D01*
X145986500Y-101854000D02*
X144756000Y-101854000D01*
X163957000Y-96781620D02*
X162703510Y-96781620D01*
X162703510Y-96781620D02*
X161798000Y-97687130D01*
X161798000Y-97687130D02*
X161798000Y-99441000D01*
X141922500Y-97536000D02*
X143002000Y-97536000D01*
X132080000Y-86360000D02*
X140906500Y-86360000D01*
X140906500Y-86360000D02*
X140970000Y-86423500D01*
X130810000Y-86360000D02*
X132080000Y-86360000D01*
X149796500Y-102870000D02*
X149796500Y-100369370D01*
X149796500Y-100369370D02*
X149208490Y-99781360D01*
X149208490Y-99781360D02*
X147955000Y-99781360D01*
X148526500Y-104140000D02*
X149796500Y-102870000D01*
X130810000Y-104140000D02*
X148526500Y-104140000D01*
X145112000Y-97536000D02*
X145112000Y-99490000D01*
X145112000Y-99490000D02*
X144780000Y-99822000D01*
X147955000Y-99781360D02*
X144820640Y-99781360D01*
X144820640Y-99781360D02*
X144780000Y-99822000D01*
X151990000Y-83312000D02*
X151990000Y-86499490D01*
X151990000Y-86499490D02*
X149208490Y-89281000D01*
X149208490Y-89281000D02*
X147955000Y-89281000D01*
G36*
X181034520Y-79603282D02*
X181623304Y-79996696D01*
X182016719Y-80585482D01*
X182168800Y-81350044D01*
X182168800Y-88037169D01*
X178965440Y-84833810D01*
X178965440Y-82764000D01*
X178921162Y-82528683D01*
X178782090Y-82312559D01*
X178569890Y-82167569D01*
X178318000Y-82116560D01*
X173218000Y-82116560D01*
X172982683Y-82160838D01*
X172766559Y-82299910D01*
X172621569Y-82512110D01*
X172570560Y-82764000D01*
X172570560Y-83252000D01*
X159191000Y-83252000D01*
X158899395Y-83310004D01*
X158652184Y-83475185D01*
X150623870Y-91503500D01*
X149550276Y-91503500D01*
X149589490Y-91408830D01*
X149589490Y-91067890D01*
X149430740Y-90909140D01*
X148082000Y-90909140D01*
X148082000Y-90929140D01*
X147828000Y-90929140D01*
X147828000Y-90909140D01*
X146479260Y-90909140D01*
X146320510Y-91067890D01*
X146320510Y-91122500D01*
X145661557Y-91122500D01*
X145620090Y-91058059D01*
X145407890Y-90913069D01*
X145156000Y-90862060D01*
X144356000Y-90862060D01*
X144120683Y-90906338D01*
X144017354Y-90972829D01*
X144015698Y-90971173D01*
X143782309Y-90874500D01*
X143541750Y-90874500D01*
X143383000Y-91033250D01*
X143383000Y-91757500D01*
X143403000Y-91757500D01*
X143403000Y-92011500D01*
X143383000Y-92011500D01*
X143383000Y-92031500D01*
X143129000Y-92031500D01*
X143129000Y-92011500D01*
X142379750Y-92011500D01*
X142221000Y-92170250D01*
X142221000Y-92385810D01*
X142317673Y-92619199D01*
X142496302Y-92797827D01*
X142524711Y-92809594D01*
X142404559Y-92886910D01*
X142351886Y-92964000D01*
X141986000Y-92964000D01*
X141694395Y-93022004D01*
X141658209Y-93046183D01*
X141447185Y-93187184D01*
X138876370Y-95758000D01*
X132253312Y-95758000D01*
X132054415Y-95460330D01*
X131744931Y-95253539D01*
X132160732Y-94882036D01*
X132414709Y-94354791D01*
X132417358Y-94339026D01*
X132296217Y-94107000D01*
X130937000Y-94107000D01*
X130937000Y-94127000D01*
X130683000Y-94127000D01*
X130683000Y-94107000D01*
X129323783Y-94107000D01*
X129202642Y-94339026D01*
X129205291Y-94354791D01*
X129459268Y-94882036D01*
X129875069Y-95253539D01*
X129565585Y-95460330D01*
X129240729Y-95946511D01*
X129126655Y-96520000D01*
X129240729Y-97093489D01*
X129565585Y-97579670D01*
X129880366Y-97790000D01*
X129565585Y-98000330D01*
X129240729Y-98486511D01*
X129126655Y-99060000D01*
X129240729Y-99633489D01*
X129565585Y-100119670D01*
X129880366Y-100330000D01*
X129565585Y-100540330D01*
X129240729Y-101026511D01*
X129126655Y-101600000D01*
X129240729Y-102173489D01*
X129565585Y-102659670D01*
X129880366Y-102870000D01*
X129565585Y-103080330D01*
X129240729Y-103566511D01*
X129126655Y-104140000D01*
X129240729Y-104713489D01*
X129565585Y-105199670D01*
X130051766Y-105524526D01*
X130625255Y-105638600D01*
X130994745Y-105638600D01*
X131568234Y-105524526D01*
X132054415Y-105199670D01*
X132253312Y-104902000D01*
X148526500Y-104902000D01*
X148818105Y-104843996D01*
X149065315Y-104678815D01*
X150335315Y-103408816D01*
X150500496Y-103161605D01*
X150505947Y-103134199D01*
X150558500Y-102870000D01*
X150558500Y-102560250D01*
X166706500Y-102560250D01*
X166706500Y-102900810D01*
X166803173Y-103134199D01*
X166981802Y-103312827D01*
X167215191Y-103409500D01*
X168155750Y-103409500D01*
X168314500Y-103250750D01*
X168314500Y-102401500D01*
X168568500Y-102401500D01*
X168568500Y-103250750D01*
X168727250Y-103409500D01*
X169667809Y-103409500D01*
X169901198Y-103312827D01*
X170079827Y-103134199D01*
X170176500Y-102900810D01*
X170176500Y-102560250D01*
X170017750Y-102401500D01*
X168568500Y-102401500D01*
X168314500Y-102401500D01*
X166865250Y-102401500D01*
X166706500Y-102560250D01*
X150558500Y-102560250D01*
X150558500Y-100369370D01*
X150500496Y-100077765D01*
X150434334Y-99978747D01*
X150335316Y-99830555D01*
X150139424Y-99634663D01*
X160819931Y-99634663D01*
X160968493Y-99994212D01*
X161243341Y-100269540D01*
X161602630Y-100418730D01*
X161991663Y-100419069D01*
X162322510Y-100282366D01*
X162322510Y-100408050D01*
X162367920Y-100517678D01*
X162361079Y-100527690D01*
X162310070Y-100779580D01*
X162310070Y-101780340D01*
X162354348Y-102015657D01*
X162493420Y-102231781D01*
X162705620Y-102376771D01*
X162957510Y-102427780D01*
X164956490Y-102427780D01*
X165191807Y-102383502D01*
X165407931Y-102244430D01*
X165546273Y-102041960D01*
X166436040Y-102041960D01*
X166706500Y-101988162D01*
X166706500Y-101988750D01*
X166865250Y-102147500D01*
X168314500Y-102147500D01*
X168314500Y-101298250D01*
X168568500Y-101298250D01*
X168568500Y-102147500D01*
X170017750Y-102147500D01*
X170176500Y-101988750D01*
X170176500Y-101648190D01*
X170079827Y-101414801D01*
X169901198Y-101236173D01*
X169667809Y-101139500D01*
X168727250Y-101139500D01*
X168568500Y-101298250D01*
X168314500Y-101298250D01*
X168155750Y-101139500D01*
X168088940Y-101139500D01*
X168088940Y-100409500D01*
X168155750Y-100409500D01*
X168314500Y-100250750D01*
X168314500Y-99401500D01*
X168568500Y-99401500D01*
X168568500Y-100250750D01*
X168727250Y-100409500D01*
X169667809Y-100409500D01*
X169901198Y-100312827D01*
X170079827Y-100134199D01*
X170176500Y-99900810D01*
X170176500Y-99560250D01*
X170017750Y-99401500D01*
X168568500Y-99401500D01*
X168314500Y-99401500D01*
X166865250Y-99401500D01*
X166706500Y-99560250D01*
X166706500Y-99627060D01*
X166441500Y-99627060D01*
X166206183Y-99671338D01*
X165990059Y-99810410D01*
X165845069Y-100022610D01*
X165794060Y-100274500D01*
X165794060Y-100517960D01*
X165545964Y-100517960D01*
X165591490Y-100408050D01*
X165591490Y-100067110D01*
X165432740Y-99908360D01*
X164084000Y-99908360D01*
X164084000Y-99928360D01*
X163830000Y-99928360D01*
X163830000Y-99908360D01*
X163810000Y-99908360D01*
X163810000Y-99654360D01*
X163830000Y-99654360D01*
X163830000Y-99634360D01*
X164084000Y-99634360D01*
X164084000Y-99654360D01*
X165432740Y-99654360D01*
X165591490Y-99495610D01*
X165591490Y-99154670D01*
X165545425Y-99043460D01*
X165552921Y-99032490D01*
X165553140Y-99031407D01*
X165790385Y-98984216D01*
X166037595Y-98819035D01*
X166208440Y-98648190D01*
X166706500Y-98648190D01*
X166706500Y-98988750D01*
X166865250Y-99147500D01*
X168314500Y-99147500D01*
X168314500Y-98298250D01*
X168568500Y-98298250D01*
X168568500Y-99147500D01*
X170017750Y-99147500D01*
X170176500Y-98988750D01*
X170176500Y-98648190D01*
X170079827Y-98414801D01*
X169901198Y-98236173D01*
X169667809Y-98139500D01*
X168727250Y-98139500D01*
X168568500Y-98298250D01*
X168314500Y-98298250D01*
X168155750Y-98139500D01*
X167215191Y-98139500D01*
X166981802Y-98236173D01*
X166803173Y-98414801D01*
X166706500Y-98648190D01*
X166208440Y-98648190D01*
X166342643Y-98513987D01*
X166436663Y-98514069D01*
X166796212Y-98365507D01*
X167071540Y-98090659D01*
X167220730Y-97731370D01*
X167221069Y-97342337D01*
X167072507Y-96982788D01*
X166797659Y-96707460D01*
X166438370Y-96558270D01*
X166049337Y-96557931D01*
X165689788Y-96706493D01*
X165603930Y-96792201D01*
X165603930Y-96281240D01*
X165559652Y-96045923D01*
X165552022Y-96034066D01*
X165552921Y-96032750D01*
X165603930Y-95780860D01*
X165603930Y-94780100D01*
X165559652Y-94544783D01*
X165552864Y-94534234D01*
X165552921Y-94534150D01*
X165603930Y-94282260D01*
X165603930Y-93281500D01*
X165559652Y-93046183D01*
X165552022Y-93034326D01*
X165552921Y-93033010D01*
X165603930Y-92781120D01*
X165603930Y-92703949D01*
X170013865Y-92703949D01*
X170849843Y-94826800D01*
X170963857Y-94997433D01*
X171656749Y-95595646D01*
X175588395Y-91664000D01*
X171656749Y-87732354D01*
X170963857Y-88330567D01*
X170053901Y-90422776D01*
X170013865Y-92703949D01*
X165603930Y-92703949D01*
X165603930Y-91780360D01*
X165559652Y-91545043D01*
X165552864Y-91534494D01*
X165552921Y-91534410D01*
X165603930Y-91282520D01*
X165603930Y-90281760D01*
X165559652Y-90046443D01*
X165544056Y-90022206D01*
X165591490Y-89907690D01*
X165591490Y-89566750D01*
X165432740Y-89408000D01*
X164084000Y-89408000D01*
X164084000Y-89428000D01*
X163830000Y-89428000D01*
X163830000Y-89408000D01*
X162481260Y-89408000D01*
X162322510Y-89566750D01*
X162322510Y-89907690D01*
X162368575Y-90018900D01*
X162361079Y-90029870D01*
X162310070Y-90281760D01*
X162310070Y-91282520D01*
X162354348Y-91517837D01*
X162361136Y-91528386D01*
X162361079Y-91528470D01*
X162310070Y-91780360D01*
X162310070Y-92781120D01*
X162354348Y-93016437D01*
X162361978Y-93028294D01*
X162361079Y-93029610D01*
X162310070Y-93281500D01*
X162310070Y-94282260D01*
X162354348Y-94517577D01*
X162361136Y-94528126D01*
X162361079Y-94528210D01*
X162310070Y-94780100D01*
X162310070Y-95780860D01*
X162354348Y-96016177D01*
X162361978Y-96028034D01*
X162361079Y-96029350D01*
X162341820Y-96124453D01*
X162164695Y-96242804D01*
X161259185Y-97148315D01*
X161094004Y-97395525D01*
X161036000Y-97687130D01*
X161036000Y-98819917D01*
X160969460Y-98886341D01*
X160820270Y-99245630D01*
X160819931Y-99634663D01*
X150139424Y-99634663D01*
X149747305Y-99242545D01*
X149681230Y-99198395D01*
X149572752Y-99125912D01*
X149557652Y-99045663D01*
X149542056Y-99021426D01*
X149589490Y-98906910D01*
X149589490Y-98565970D01*
X149430740Y-98407220D01*
X148082000Y-98407220D01*
X148082000Y-98427220D01*
X147828000Y-98427220D01*
X147828000Y-98407220D01*
X146479260Y-98407220D01*
X146320510Y-98565970D01*
X146320510Y-98906910D01*
X146366575Y-99018120D01*
X146365727Y-99019360D01*
X145874000Y-99019360D01*
X145874000Y-98202319D01*
X146003431Y-98012890D01*
X146054440Y-97761000D01*
X146054440Y-97311000D01*
X146010162Y-97075683D01*
X145871090Y-96859559D01*
X145658890Y-96714569D01*
X145407000Y-96663560D01*
X144817000Y-96663560D01*
X144581683Y-96707838D01*
X144365559Y-96846910D01*
X144220569Y-97059110D01*
X144169560Y-97311000D01*
X144169560Y-97761000D01*
X144213838Y-97996317D01*
X144350000Y-98207919D01*
X144350000Y-98805205D01*
X144144683Y-98843838D01*
X144030022Y-98917620D01*
X143931890Y-98850569D01*
X143680000Y-98799560D01*
X142880000Y-98799560D01*
X142773388Y-98819620D01*
X142773569Y-98612337D01*
X142687706Y-98404533D01*
X142707000Y-98408440D01*
X143297000Y-98408440D01*
X143532317Y-98364162D01*
X143748441Y-98225090D01*
X143893431Y-98012890D01*
X143944440Y-97761000D01*
X143944440Y-97311000D01*
X143900162Y-97075683D01*
X143761090Y-96859559D01*
X143548890Y-96714569D01*
X143297000Y-96663560D01*
X142707000Y-96663560D01*
X142476078Y-96707011D01*
X142117870Y-96558270D01*
X141728837Y-96557931D01*
X141369288Y-96706493D01*
X141093960Y-96981341D01*
X140944770Y-97340630D01*
X140944431Y-97729663D01*
X141092993Y-98089212D01*
X141111151Y-98107402D01*
X140966960Y-98251341D01*
X140947585Y-98298000D01*
X132253312Y-98298000D01*
X132054415Y-98000330D01*
X131739634Y-97790000D01*
X132054415Y-97579670D01*
X132253312Y-97282000D01*
X139192000Y-97282000D01*
X139483605Y-97223996D01*
X139730815Y-97058815D01*
X140999880Y-95789750D01*
X141991000Y-95789750D01*
X141991000Y-96005310D01*
X142087673Y-96238699D01*
X142266302Y-96417327D01*
X142499691Y-96514000D01*
X142740250Y-96514000D01*
X142899000Y-96355250D01*
X142899000Y-95631000D01*
X142149750Y-95631000D01*
X141991000Y-95789750D01*
X140999880Y-95789750D01*
X142301631Y-94488000D01*
X142350443Y-94488000D01*
X142384900Y-94541548D01*
X142266302Y-94590673D01*
X142087673Y-94769301D01*
X141991000Y-95002690D01*
X141991000Y-95218250D01*
X142149750Y-95377000D01*
X142899000Y-95377000D01*
X142899000Y-95357000D01*
X143153000Y-95357000D01*
X143153000Y-95377000D01*
X143173000Y-95377000D01*
X143173000Y-95631000D01*
X143153000Y-95631000D01*
X143153000Y-96355250D01*
X143311750Y-96514000D01*
X143552309Y-96514000D01*
X143785698Y-96417327D01*
X143787068Y-96415957D01*
X143874110Y-96475431D01*
X144126000Y-96526440D01*
X144926000Y-96526440D01*
X145161317Y-96482162D01*
X145377441Y-96343090D01*
X145522431Y-96130890D01*
X145573440Y-95879000D01*
X145573440Y-95129000D01*
X145529162Y-94893683D01*
X145402555Y-94696930D01*
X145607441Y-94565090D01*
X145752431Y-94352890D01*
X145803440Y-94101000D01*
X145803440Y-93961440D01*
X146162695Y-94320695D01*
X146337248Y-94437328D01*
X146352348Y-94517577D01*
X146359136Y-94528126D01*
X146359079Y-94528210D01*
X146308070Y-94780100D01*
X146308070Y-95780860D01*
X146352348Y-96016177D01*
X146359978Y-96028034D01*
X146359079Y-96029350D01*
X146308070Y-96281240D01*
X146308070Y-97282000D01*
X146352348Y-97517317D01*
X146367304Y-97540559D01*
X146320510Y-97653530D01*
X146320510Y-97994470D01*
X146479260Y-98153220D01*
X147828000Y-98153220D01*
X147828000Y-98133220D01*
X148082000Y-98133220D01*
X148082000Y-98153220D01*
X149430740Y-98153220D01*
X149589490Y-97994470D01*
X149589490Y-97653530D01*
X149544080Y-97543902D01*
X149550921Y-97533890D01*
X149601930Y-97282000D01*
X149601930Y-96281240D01*
X149557652Y-96045923D01*
X149550022Y-96034066D01*
X149550921Y-96032750D01*
X149601930Y-95780860D01*
X149601930Y-94780100D01*
X149557652Y-94544783D01*
X149550864Y-94534234D01*
X149550921Y-94534150D01*
X149601930Y-94282260D01*
X149601930Y-93992751D01*
X154834971Y-93992751D01*
X155035627Y-94478376D01*
X155406850Y-94850247D01*
X155892124Y-95051750D01*
X156417571Y-95052209D01*
X156903196Y-94851553D01*
X157275067Y-94480330D01*
X157476570Y-93995056D01*
X157477029Y-93469609D01*
X157276373Y-92983984D01*
X156905150Y-92612113D01*
X156419876Y-92410610D01*
X155894429Y-92410151D01*
X155408804Y-92610807D01*
X155036933Y-92982030D01*
X154835430Y-93467304D01*
X154834971Y-93992751D01*
X149601930Y-93992751D01*
X149601930Y-93281500D01*
X149557652Y-93046183D01*
X149550022Y-93034326D01*
X149550921Y-93033010D01*
X149552037Y-93027500D01*
X150939500Y-93027500D01*
X151231105Y-92969496D01*
X151478315Y-92804315D01*
X157000610Y-87282020D01*
X162310070Y-87282020D01*
X162310070Y-88282780D01*
X162354348Y-88518097D01*
X162369304Y-88541339D01*
X162322510Y-88654310D01*
X162322510Y-88995250D01*
X162481260Y-89154000D01*
X163830000Y-89154000D01*
X163830000Y-89134000D01*
X164084000Y-89134000D01*
X164084000Y-89154000D01*
X165432740Y-89154000D01*
X165591490Y-88995250D01*
X165591490Y-88654310D01*
X165546080Y-88544682D01*
X165552921Y-88534670D01*
X165603930Y-88282780D01*
X165603930Y-87282020D01*
X165559652Y-87046703D01*
X165420580Y-86830579D01*
X165208380Y-86685589D01*
X164956490Y-86634580D01*
X162957510Y-86634580D01*
X162722193Y-86678858D01*
X162506069Y-86817930D01*
X162361079Y-87030130D01*
X162310070Y-87282020D01*
X157000610Y-87282020D01*
X159506631Y-84776000D01*
X172570560Y-84776000D01*
X172570560Y-85264000D01*
X172614838Y-85499317D01*
X172753910Y-85715441D01*
X172966110Y-85860431D01*
X173218000Y-85911440D01*
X174724052Y-85911440D01*
X172605200Y-86745843D01*
X172434567Y-86859857D01*
X171836354Y-87552749D01*
X175768000Y-91484395D01*
X175782143Y-91470253D01*
X175961748Y-91649858D01*
X175947605Y-91664000D01*
X179879251Y-95595646D01*
X180572143Y-94997433D01*
X180911500Y-94217169D01*
X180911500Y-95896869D01*
X178930430Y-97877939D01*
X178921162Y-97828683D01*
X178782090Y-97612559D01*
X178569890Y-97467569D01*
X178318000Y-97416560D01*
X176811948Y-97416560D01*
X178930800Y-96582157D01*
X179101433Y-96468143D01*
X179699646Y-95775251D01*
X175768000Y-91843605D01*
X171836354Y-95775251D01*
X172434567Y-96468143D01*
X174526776Y-97378099D01*
X176718209Y-97416560D01*
X173218000Y-97416560D01*
X172982683Y-97460838D01*
X172766559Y-97599910D01*
X172621569Y-97812110D01*
X172570560Y-98064000D01*
X172570560Y-100564000D01*
X172614838Y-100799317D01*
X172753910Y-101015441D01*
X172966110Y-101160431D01*
X173218000Y-101211440D01*
X178318000Y-101211440D01*
X178553317Y-101167162D01*
X178769441Y-101028090D01*
X178914431Y-100815890D01*
X178965440Y-100564000D01*
X178965440Y-99949952D01*
X179110815Y-99852815D01*
X182168800Y-96794831D01*
X182168800Y-104069956D01*
X182016719Y-104834518D01*
X181623304Y-105423304D01*
X181034520Y-105816718D01*
X180269955Y-105968800D01*
X130880044Y-105968800D01*
X130115482Y-105816719D01*
X129526696Y-105423304D01*
X129133282Y-104834520D01*
X128981200Y-104069955D01*
X128981200Y-81350045D01*
X129133282Y-80585480D01*
X129146560Y-80565608D01*
X129146560Y-82143600D01*
X129190838Y-82378917D01*
X129329910Y-82595041D01*
X129542110Y-82740031D01*
X129583439Y-82748400D01*
X129565585Y-82760330D01*
X129240729Y-83246511D01*
X129126655Y-83820000D01*
X129240729Y-84393489D01*
X129565585Y-84879670D01*
X129880366Y-85090000D01*
X129565585Y-85300330D01*
X129240729Y-85786511D01*
X129126655Y-86360000D01*
X129240729Y-86933489D01*
X129565585Y-87419670D01*
X129880366Y-87630000D01*
X129565585Y-87840330D01*
X129240729Y-88326511D01*
X129126655Y-88900000D01*
X129240729Y-89473489D01*
X129565585Y-89959670D01*
X129880366Y-90170000D01*
X129565585Y-90380330D01*
X129240729Y-90866511D01*
X129126655Y-91440000D01*
X129240729Y-92013489D01*
X129565585Y-92499670D01*
X129875069Y-92706461D01*
X129459268Y-93077964D01*
X129205291Y-93605209D01*
X129202642Y-93620974D01*
X129323783Y-93853000D01*
X130683000Y-93853000D01*
X130683000Y-93833000D01*
X130937000Y-93833000D01*
X130937000Y-93853000D01*
X132296217Y-93853000D01*
X132417358Y-93620974D01*
X132414709Y-93605209D01*
X132160732Y-93077964D01*
X131744931Y-92706461D01*
X132054415Y-92499670D01*
X132379271Y-92013489D01*
X132493345Y-91440000D01*
X132379271Y-90866511D01*
X132054415Y-90380330D01*
X131739634Y-90170000D01*
X132054415Y-89959670D01*
X132168453Y-89789000D01*
X135890000Y-89789000D01*
X135890000Y-90205000D01*
X135957671Y-90545206D01*
X136003972Y-90614500D01*
X136150382Y-90833618D01*
X136232190Y-90915426D01*
X136253338Y-91027817D01*
X136304500Y-91107325D01*
X136304500Y-91156000D01*
X136362504Y-91447605D01*
X136459785Y-91593195D01*
X136405059Y-91628410D01*
X136260069Y-91840610D01*
X136209060Y-92092500D01*
X136209060Y-92692500D01*
X136253338Y-92927817D01*
X136392410Y-93143941D01*
X136604610Y-93288931D01*
X136856500Y-93339940D01*
X137276500Y-93339940D01*
X137511817Y-93295662D01*
X137719177Y-93162230D01*
X137904610Y-93288931D01*
X138156500Y-93339940D01*
X138576500Y-93339940D01*
X138811817Y-93295662D01*
X139027941Y-93156590D01*
X139029369Y-93154500D01*
X139205917Y-93154500D01*
X139272341Y-93221040D01*
X139631630Y-93370230D01*
X140020663Y-93370569D01*
X140380212Y-93222007D01*
X140655540Y-92947159D01*
X140804730Y-92587870D01*
X140804813Y-92492317D01*
X141508815Y-91788315D01*
X141673996Y-91541105D01*
X141692594Y-91447605D01*
X141705407Y-91383190D01*
X142221000Y-91383190D01*
X142221000Y-91598750D01*
X142379750Y-91757500D01*
X143129000Y-91757500D01*
X143129000Y-91033250D01*
X142970250Y-90874500D01*
X142729691Y-90874500D01*
X142496302Y-90971173D01*
X142317673Y-91149801D01*
X142221000Y-91383190D01*
X141705407Y-91383190D01*
X141732000Y-91249500D01*
X141732000Y-90866630D01*
X142365131Y-90233500D01*
X144272000Y-90233500D01*
X144563605Y-90175496D01*
X144810815Y-90010315D01*
X145318815Y-89502316D01*
X145483996Y-89255105D01*
X145492412Y-89212794D01*
X145542000Y-88963500D01*
X145542000Y-88544400D01*
X146355906Y-88544400D01*
X146308070Y-88780620D01*
X146308070Y-89781380D01*
X146352348Y-90016697D01*
X146367944Y-90040934D01*
X146320510Y-90155450D01*
X146320510Y-90496390D01*
X146479260Y-90655140D01*
X147828000Y-90655140D01*
X147828000Y-90635140D01*
X148082000Y-90635140D01*
X148082000Y-90655140D01*
X149430740Y-90655140D01*
X149589490Y-90496390D01*
X149589490Y-90155450D01*
X149543425Y-90044240D01*
X149550921Y-90033270D01*
X149570180Y-89938167D01*
X149747305Y-89819815D01*
X152528815Y-87038305D01*
X152693996Y-86791095D01*
X152709111Y-86715105D01*
X152752000Y-86499490D01*
X152752000Y-84683644D01*
X152841441Y-84626090D01*
X152986431Y-84413890D01*
X153037440Y-84162000D01*
X153037440Y-82462000D01*
X152993162Y-82226683D01*
X152854090Y-82010559D01*
X152641890Y-81865569D01*
X152390000Y-81814560D01*
X151590000Y-81814560D01*
X151354683Y-81858838D01*
X151138559Y-81997910D01*
X150993569Y-82210110D01*
X150942560Y-82462000D01*
X150942560Y-84162000D01*
X150986838Y-84397317D01*
X151125910Y-84613441D01*
X151228000Y-84683196D01*
X151228000Y-86183860D01*
X149601930Y-87809930D01*
X149601930Y-87282020D01*
X149557652Y-87046703D01*
X149418580Y-86830579D01*
X149206380Y-86685589D01*
X148954490Y-86634580D01*
X146955510Y-86634580D01*
X146720193Y-86678858D01*
X146504069Y-86817930D01*
X146365727Y-87020400D01*
X145783297Y-87020400D01*
X145783162Y-87019683D01*
X145644090Y-86803559D01*
X145542000Y-86733804D01*
X145542000Y-86479200D01*
X145607441Y-86437090D01*
X145752431Y-86224890D01*
X145803440Y-85973000D01*
X145803440Y-85223000D01*
X145759162Y-84987683D01*
X145620090Y-84771559D01*
X145407890Y-84626569D01*
X145156000Y-84575560D01*
X144356000Y-84575560D01*
X144120683Y-84619838D01*
X144017354Y-84686329D01*
X144015698Y-84684673D01*
X143782309Y-84588000D01*
X143541750Y-84588000D01*
X143383000Y-84746750D01*
X143383000Y-85471000D01*
X143403000Y-85471000D01*
X143403000Y-85725000D01*
X143383000Y-85725000D01*
X143383000Y-86449250D01*
X143541750Y-86608000D01*
X143782309Y-86608000D01*
X144015698Y-86511327D01*
X144017068Y-86509957D01*
X144018000Y-86510595D01*
X144018000Y-86707685D01*
X143806309Y-86620000D01*
X143565750Y-86620000D01*
X143407000Y-86778750D01*
X143407000Y-87503000D01*
X143427000Y-87503000D01*
X143427000Y-87757000D01*
X143407000Y-87757000D01*
X143407000Y-88481250D01*
X143565750Y-88640000D01*
X143806309Y-88640000D01*
X144018000Y-88552315D01*
X144018000Y-88647869D01*
X143956370Y-88709500D01*
X142049500Y-88709500D01*
X141757896Y-88767503D01*
X141510685Y-88932684D01*
X140431185Y-90012185D01*
X140266004Y-90259395D01*
X140208000Y-90551000D01*
X140208000Y-90933870D01*
X139727357Y-91414513D01*
X139633337Y-91414431D01*
X139273788Y-91562993D01*
X139206163Y-91630500D01*
X139025136Y-91630500D01*
X138922145Y-91560129D01*
X139070496Y-91338105D01*
X139075490Y-91312999D01*
X139110845Y-91135255D01*
X139172931Y-91044390D01*
X139223940Y-90792500D01*
X139223940Y-90192500D01*
X139179662Y-89957183D01*
X139040590Y-89741059D01*
X138828390Y-89596069D01*
X138810766Y-89592500D01*
X138892809Y-89592500D01*
X139126198Y-89495827D01*
X139304827Y-89317199D01*
X139401500Y-89083810D01*
X139401500Y-88868250D01*
X139242750Y-88709500D01*
X138493500Y-88709500D01*
X138493500Y-88729500D01*
X138239500Y-88729500D01*
X138239500Y-88709500D01*
X138219500Y-88709500D01*
X138219500Y-88455500D01*
X138239500Y-88455500D01*
X138239500Y-87731250D01*
X138493500Y-87731250D01*
X138493500Y-88455500D01*
X139242750Y-88455500D01*
X139401500Y-88296750D01*
X139401500Y-88081190D01*
X139332973Y-87915750D01*
X142245000Y-87915750D01*
X142245000Y-88131310D01*
X142341673Y-88364699D01*
X142520302Y-88543327D01*
X142753691Y-88640000D01*
X142994250Y-88640000D01*
X143153000Y-88481250D01*
X143153000Y-87757000D01*
X142403750Y-87757000D01*
X142245000Y-87915750D01*
X139332973Y-87915750D01*
X139304827Y-87847801D01*
X139126198Y-87669173D01*
X138892809Y-87572500D01*
X138652250Y-87572500D01*
X138493500Y-87731250D01*
X138239500Y-87731250D01*
X138080750Y-87572500D01*
X137840191Y-87572500D01*
X137606802Y-87669173D01*
X137605432Y-87670543D01*
X137518390Y-87611069D01*
X137266500Y-87560060D01*
X136466500Y-87560060D01*
X136231183Y-87604338D01*
X136015059Y-87743410D01*
X135870069Y-87955610D01*
X135858852Y-88011000D01*
X132168453Y-88011000D01*
X132054415Y-87840330D01*
X131739634Y-87630000D01*
X132054415Y-87419670D01*
X132253312Y-87122000D01*
X140285528Y-87122000D01*
X140415341Y-87252040D01*
X140774630Y-87401230D01*
X141163663Y-87401569D01*
X141523212Y-87253007D01*
X141647746Y-87128690D01*
X142245000Y-87128690D01*
X142245000Y-87344250D01*
X142403750Y-87503000D01*
X143153000Y-87503000D01*
X143153000Y-86778750D01*
X142994250Y-86620000D01*
X142753691Y-86620000D01*
X142520302Y-86716673D01*
X142341673Y-86895301D01*
X142245000Y-87128690D01*
X141647746Y-87128690D01*
X141798540Y-86978159D01*
X141947730Y-86618870D01*
X141948069Y-86229837D01*
X141805070Y-85883750D01*
X142221000Y-85883750D01*
X142221000Y-86099310D01*
X142317673Y-86332699D01*
X142496302Y-86511327D01*
X142729691Y-86608000D01*
X142970250Y-86608000D01*
X143129000Y-86449250D01*
X143129000Y-85725000D01*
X142379750Y-85725000D01*
X142221000Y-85883750D01*
X141805070Y-85883750D01*
X141799507Y-85870288D01*
X141524659Y-85594960D01*
X141165370Y-85445770D01*
X140776337Y-85445431D01*
X140416788Y-85593993D01*
X140412774Y-85598000D01*
X132253312Y-85598000D01*
X132054415Y-85300330D01*
X131749647Y-85096690D01*
X142221000Y-85096690D01*
X142221000Y-85312250D01*
X142379750Y-85471000D01*
X143129000Y-85471000D01*
X143129000Y-84746750D01*
X142970250Y-84588000D01*
X142729691Y-84588000D01*
X142496302Y-84684673D01*
X142317673Y-84863301D01*
X142221000Y-85096690D01*
X131749647Y-85096690D01*
X131739634Y-85090000D01*
X132054415Y-84879670D01*
X132379271Y-84393489D01*
X132493345Y-83820000D01*
X132449137Y-83597750D01*
X147555000Y-83597750D01*
X147555000Y-84288310D01*
X147651673Y-84521699D01*
X147830302Y-84700327D01*
X148063691Y-84797000D01*
X148304250Y-84797000D01*
X148463000Y-84638250D01*
X148463000Y-83439000D01*
X148717000Y-83439000D01*
X148717000Y-84638250D01*
X148875750Y-84797000D01*
X149116309Y-84797000D01*
X149349698Y-84700327D01*
X149528327Y-84521699D01*
X149625000Y-84288310D01*
X149625000Y-83597750D01*
X149466250Y-83439000D01*
X148717000Y-83439000D01*
X148463000Y-83439000D01*
X147713750Y-83439000D01*
X147555000Y-83597750D01*
X132449137Y-83597750D01*
X132379271Y-83246511D01*
X132054415Y-82760330D01*
X132040087Y-82750757D01*
X132061317Y-82746762D01*
X132277441Y-82607690D01*
X132422431Y-82395490D01*
X132434540Y-82335690D01*
X147555000Y-82335690D01*
X147555000Y-83026250D01*
X147713750Y-83185000D01*
X148463000Y-83185000D01*
X148463000Y-81985750D01*
X148717000Y-81985750D01*
X148717000Y-83185000D01*
X149466250Y-83185000D01*
X149625000Y-83026250D01*
X149625000Y-82335690D01*
X149528327Y-82102301D01*
X149349698Y-81923673D01*
X149116309Y-81827000D01*
X148875750Y-81827000D01*
X148717000Y-81985750D01*
X148463000Y-81985750D01*
X148304250Y-81827000D01*
X148063691Y-81827000D01*
X147830302Y-81923673D01*
X147651673Y-82102301D01*
X147555000Y-82335690D01*
X132434540Y-82335690D01*
X132473440Y-82143600D01*
X132473440Y-80416400D01*
X132429162Y-80181083D01*
X132290090Y-79964959D01*
X132077890Y-79819969D01*
X131826000Y-79768960D01*
X129867526Y-79768960D01*
X130115482Y-79603281D01*
X130880044Y-79451200D01*
X180269955Y-79451200D01*
X181034520Y-79603282D01*
X181034520Y-79603282D01*
G37*
X181034520Y-79603282D02*
X181623304Y-79996696D01*
X182016719Y-80585482D01*
X182168800Y-81350044D01*
X182168800Y-88037169D01*
X178965440Y-84833810D01*
X178965440Y-82764000D01*
X178921162Y-82528683D01*
X178782090Y-82312559D01*
X178569890Y-82167569D01*
X178318000Y-82116560D01*
X173218000Y-82116560D01*
X172982683Y-82160838D01*
X172766559Y-82299910D01*
X172621569Y-82512110D01*
X172570560Y-82764000D01*
X172570560Y-83252000D01*
X159191000Y-83252000D01*
X158899395Y-83310004D01*
X158652184Y-83475185D01*
X150623870Y-91503500D01*
X149550276Y-91503500D01*
X149589490Y-91408830D01*
X149589490Y-91067890D01*
X149430740Y-90909140D01*
X148082000Y-90909140D01*
X148082000Y-90929140D01*
X147828000Y-90929140D01*
X147828000Y-90909140D01*
X146479260Y-90909140D01*
X146320510Y-91067890D01*
X146320510Y-91122500D01*
X145661557Y-91122500D01*
X145620090Y-91058059D01*
X145407890Y-90913069D01*
X145156000Y-90862060D01*
X144356000Y-90862060D01*
X144120683Y-90906338D01*
X144017354Y-90972829D01*
X144015698Y-90971173D01*
X143782309Y-90874500D01*
X143541750Y-90874500D01*
X143383000Y-91033250D01*
X143383000Y-91757500D01*
X143403000Y-91757500D01*
X143403000Y-92011500D01*
X143383000Y-92011500D01*
X143383000Y-92031500D01*
X143129000Y-92031500D01*
X143129000Y-92011500D01*
X142379750Y-92011500D01*
X142221000Y-92170250D01*
X142221000Y-92385810D01*
X142317673Y-92619199D01*
X142496302Y-92797827D01*
X142524711Y-92809594D01*
X142404559Y-92886910D01*
X142351886Y-92964000D01*
X141986000Y-92964000D01*
X141694395Y-93022004D01*
X141658209Y-93046183D01*
X141447185Y-93187184D01*
X138876370Y-95758000D01*
X132253312Y-95758000D01*
X132054415Y-95460330D01*
X131744931Y-95253539D01*
X132160732Y-94882036D01*
X132414709Y-94354791D01*
X132417358Y-94339026D01*
X132296217Y-94107000D01*
X130937000Y-94107000D01*
X130937000Y-94127000D01*
X130683000Y-94127000D01*
X130683000Y-94107000D01*
X129323783Y-94107000D01*
X129202642Y-94339026D01*
X129205291Y-94354791D01*
X129459268Y-94882036D01*
X129875069Y-95253539D01*
X129565585Y-95460330D01*
X129240729Y-95946511D01*
X129126655Y-96520000D01*
X129240729Y-97093489D01*
X129565585Y-97579670D01*
X129880366Y-97790000D01*
X129565585Y-98000330D01*
X129240729Y-98486511D01*
X129126655Y-99060000D01*
X129240729Y-99633489D01*
X129565585Y-100119670D01*
X129880366Y-100330000D01*
X129565585Y-100540330D01*
X129240729Y-101026511D01*
X129126655Y-101600000D01*
X129240729Y-102173489D01*
X129565585Y-102659670D01*
X129880366Y-102870000D01*
X129565585Y-103080330D01*
X129240729Y-103566511D01*
X129126655Y-104140000D01*
X129240729Y-104713489D01*
X129565585Y-105199670D01*
X130051766Y-105524526D01*
X130625255Y-105638600D01*
X130994745Y-105638600D01*
X131568234Y-105524526D01*
X132054415Y-105199670D01*
X132253312Y-104902000D01*
X148526500Y-104902000D01*
X148818105Y-104843996D01*
X149065315Y-104678815D01*
X150335315Y-103408816D01*
X150500496Y-103161605D01*
X150505947Y-103134199D01*
X150558500Y-102870000D01*
X150558500Y-102560250D01*
X166706500Y-102560250D01*
X166706500Y-102900810D01*
X166803173Y-103134199D01*
X166981802Y-103312827D01*
X167215191Y-103409500D01*
X168155750Y-103409500D01*
X168314500Y-103250750D01*
X168314500Y-102401500D01*
X168568500Y-102401500D01*
X168568500Y-103250750D01*
X168727250Y-103409500D01*
X169667809Y-103409500D01*
X169901198Y-103312827D01*
X170079827Y-103134199D01*
X170176500Y-102900810D01*
X170176500Y-102560250D01*
X170017750Y-102401500D01*
X168568500Y-102401500D01*
X168314500Y-102401500D01*
X166865250Y-102401500D01*
X166706500Y-102560250D01*
X150558500Y-102560250D01*
X150558500Y-100369370D01*
X150500496Y-100077765D01*
X150434334Y-99978747D01*
X150335316Y-99830555D01*
X150139424Y-99634663D01*
X160819931Y-99634663D01*
X160968493Y-99994212D01*
X161243341Y-100269540D01*
X161602630Y-100418730D01*
X161991663Y-100419069D01*
X162322510Y-100282366D01*
X162322510Y-100408050D01*
X162367920Y-100517678D01*
X162361079Y-100527690D01*
X162310070Y-100779580D01*
X162310070Y-101780340D01*
X162354348Y-102015657D01*
X162493420Y-102231781D01*
X162705620Y-102376771D01*
X162957510Y-102427780D01*
X164956490Y-102427780D01*
X165191807Y-102383502D01*
X165407931Y-102244430D01*
X165546273Y-102041960D01*
X166436040Y-102041960D01*
X166706500Y-101988162D01*
X166706500Y-101988750D01*
X166865250Y-102147500D01*
X168314500Y-102147500D01*
X168314500Y-101298250D01*
X168568500Y-101298250D01*
X168568500Y-102147500D01*
X170017750Y-102147500D01*
X170176500Y-101988750D01*
X170176500Y-101648190D01*
X170079827Y-101414801D01*
X169901198Y-101236173D01*
X169667809Y-101139500D01*
X168727250Y-101139500D01*
X168568500Y-101298250D01*
X168314500Y-101298250D01*
X168155750Y-101139500D01*
X168088940Y-101139500D01*
X168088940Y-100409500D01*
X168155750Y-100409500D01*
X168314500Y-100250750D01*
X168314500Y-99401500D01*
X168568500Y-99401500D01*
X168568500Y-100250750D01*
X168727250Y-100409500D01*
X169667809Y-100409500D01*
X169901198Y-100312827D01*
X170079827Y-100134199D01*
X170176500Y-99900810D01*
X170176500Y-99560250D01*
X170017750Y-99401500D01*
X168568500Y-99401500D01*
X168314500Y-99401500D01*
X166865250Y-99401500D01*
X166706500Y-99560250D01*
X166706500Y-99627060D01*
X166441500Y-99627060D01*
X166206183Y-99671338D01*
X165990059Y-99810410D01*
X165845069Y-100022610D01*
X165794060Y-100274500D01*
X165794060Y-100517960D01*
X165545964Y-100517960D01*
X165591490Y-100408050D01*
X165591490Y-100067110D01*
X165432740Y-99908360D01*
X164084000Y-99908360D01*
X164084000Y-99928360D01*
X163830000Y-99928360D01*
X163830000Y-99908360D01*
X163810000Y-99908360D01*
X163810000Y-99654360D01*
X163830000Y-99654360D01*
X163830000Y-99634360D01*
X164084000Y-99634360D01*
X164084000Y-99654360D01*
X165432740Y-99654360D01*
X165591490Y-99495610D01*
X165591490Y-99154670D01*
X165545425Y-99043460D01*
X165552921Y-99032490D01*
X165553140Y-99031407D01*
X165790385Y-98984216D01*
X166037595Y-98819035D01*
X166208440Y-98648190D01*
X166706500Y-98648190D01*
X166706500Y-98988750D01*
X166865250Y-99147500D01*
X168314500Y-99147500D01*
X168314500Y-98298250D01*
X168568500Y-98298250D01*
X168568500Y-99147500D01*
X170017750Y-99147500D01*
X170176500Y-98988750D01*
X170176500Y-98648190D01*
X170079827Y-98414801D01*
X169901198Y-98236173D01*
X169667809Y-98139500D01*
X168727250Y-98139500D01*
X168568500Y-98298250D01*
X168314500Y-98298250D01*
X168155750Y-98139500D01*
X167215191Y-98139500D01*
X166981802Y-98236173D01*
X166803173Y-98414801D01*
X166706500Y-98648190D01*
X166208440Y-98648190D01*
X166342643Y-98513987D01*
X166436663Y-98514069D01*
X166796212Y-98365507D01*
X167071540Y-98090659D01*
X167220730Y-97731370D01*
X167221069Y-97342337D01*
X167072507Y-96982788D01*
X166797659Y-96707460D01*
X166438370Y-96558270D01*
X166049337Y-96557931D01*
X165689788Y-96706493D01*
X165603930Y-96792201D01*
X165603930Y-96281240D01*
X165559652Y-96045923D01*
X165552022Y-96034066D01*
X165552921Y-96032750D01*
X165603930Y-95780860D01*
X165603930Y-94780100D01*
X165559652Y-94544783D01*
X165552864Y-94534234D01*
X165552921Y-94534150D01*
X165603930Y-94282260D01*
X165603930Y-93281500D01*
X165559652Y-93046183D01*
X165552022Y-93034326D01*
X165552921Y-93033010D01*
X165603930Y-92781120D01*
X165603930Y-92703949D01*
X170013865Y-92703949D01*
X170849843Y-94826800D01*
X170963857Y-94997433D01*
X171656749Y-95595646D01*
X175588395Y-91664000D01*
X171656749Y-87732354D01*
X170963857Y-88330567D01*
X170053901Y-90422776D01*
X170013865Y-92703949D01*
X165603930Y-92703949D01*
X165603930Y-91780360D01*
X165559652Y-91545043D01*
X165552864Y-91534494D01*
X165552921Y-91534410D01*
X165603930Y-91282520D01*
X165603930Y-90281760D01*
X165559652Y-90046443D01*
X165544056Y-90022206D01*
X165591490Y-89907690D01*
X165591490Y-89566750D01*
X165432740Y-89408000D01*
X164084000Y-89408000D01*
X164084000Y-89428000D01*
X163830000Y-89428000D01*
X163830000Y-89408000D01*
X162481260Y-89408000D01*
X162322510Y-89566750D01*
X162322510Y-89907690D01*
X162368575Y-90018900D01*
X162361079Y-90029870D01*
X162310070Y-90281760D01*
X162310070Y-91282520D01*
X162354348Y-91517837D01*
X162361136Y-91528386D01*
X162361079Y-91528470D01*
X162310070Y-91780360D01*
X162310070Y-92781120D01*
X162354348Y-93016437D01*
X162361978Y-93028294D01*
X162361079Y-93029610D01*
X162310070Y-93281500D01*
X162310070Y-94282260D01*
X162354348Y-94517577D01*
X162361136Y-94528126D01*
X162361079Y-94528210D01*
X162310070Y-94780100D01*
X162310070Y-95780860D01*
X162354348Y-96016177D01*
X162361978Y-96028034D01*
X162361079Y-96029350D01*
X162341820Y-96124453D01*
X162164695Y-96242804D01*
X161259185Y-97148315D01*
X161094004Y-97395525D01*
X161036000Y-97687130D01*
X161036000Y-98819917D01*
X160969460Y-98886341D01*
X160820270Y-99245630D01*
X160819931Y-99634663D01*
X150139424Y-99634663D01*
X149747305Y-99242545D01*
X149681230Y-99198395D01*
X149572752Y-99125912D01*
X149557652Y-99045663D01*
X149542056Y-99021426D01*
X149589490Y-98906910D01*
X149589490Y-98565970D01*
X149430740Y-98407220D01*
X148082000Y-98407220D01*
X148082000Y-98427220D01*
X147828000Y-98427220D01*
X147828000Y-98407220D01*
X146479260Y-98407220D01*
X146320510Y-98565970D01*
X146320510Y-98906910D01*
X146366575Y-99018120D01*
X146365727Y-99019360D01*
X145874000Y-99019360D01*
X145874000Y-98202319D01*
X146003431Y-98012890D01*
X146054440Y-97761000D01*
X146054440Y-97311000D01*
X146010162Y-97075683D01*
X145871090Y-96859559D01*
X145658890Y-96714569D01*
X145407000Y-96663560D01*
X144817000Y-96663560D01*
X144581683Y-96707838D01*
X144365559Y-96846910D01*
X144220569Y-97059110D01*
X144169560Y-97311000D01*
X144169560Y-97761000D01*
X144213838Y-97996317D01*
X144350000Y-98207919D01*
X144350000Y-98805205D01*
X144144683Y-98843838D01*
X144030022Y-98917620D01*
X143931890Y-98850569D01*
X143680000Y-98799560D01*
X142880000Y-98799560D01*
X142773388Y-98819620D01*
X142773569Y-98612337D01*
X142687706Y-98404533D01*
X142707000Y-98408440D01*
X143297000Y-98408440D01*
X143532317Y-98364162D01*
X143748441Y-98225090D01*
X143893431Y-98012890D01*
X143944440Y-97761000D01*
X143944440Y-97311000D01*
X143900162Y-97075683D01*
X143761090Y-96859559D01*
X143548890Y-96714569D01*
X143297000Y-96663560D01*
X142707000Y-96663560D01*
X142476078Y-96707011D01*
X142117870Y-96558270D01*
X141728837Y-96557931D01*
X141369288Y-96706493D01*
X141093960Y-96981341D01*
X140944770Y-97340630D01*
X140944431Y-97729663D01*
X141092993Y-98089212D01*
X141111151Y-98107402D01*
X140966960Y-98251341D01*
X140947585Y-98298000D01*
X132253312Y-98298000D01*
X132054415Y-98000330D01*
X131739634Y-97790000D01*
X132054415Y-97579670D01*
X132253312Y-97282000D01*
X139192000Y-97282000D01*
X139483605Y-97223996D01*
X139730815Y-97058815D01*
X140999880Y-95789750D01*
X141991000Y-95789750D01*
X141991000Y-96005310D01*
X142087673Y-96238699D01*
X142266302Y-96417327D01*
X142499691Y-96514000D01*
X142740250Y-96514000D01*
X142899000Y-96355250D01*
X142899000Y-95631000D01*
X142149750Y-95631000D01*
X141991000Y-95789750D01*
X140999880Y-95789750D01*
X142301631Y-94488000D01*
X142350443Y-94488000D01*
X142384900Y-94541548D01*
X142266302Y-94590673D01*
X142087673Y-94769301D01*
X141991000Y-95002690D01*
X141991000Y-95218250D01*
X142149750Y-95377000D01*
X142899000Y-95377000D01*
X142899000Y-95357000D01*
X143153000Y-95357000D01*
X143153000Y-95377000D01*
X143173000Y-95377000D01*
X143173000Y-95631000D01*
X143153000Y-95631000D01*
X143153000Y-96355250D01*
X143311750Y-96514000D01*
X143552309Y-96514000D01*
X143785698Y-96417327D01*
X143787068Y-96415957D01*
X143874110Y-96475431D01*
X144126000Y-96526440D01*
X144926000Y-96526440D01*
X145161317Y-96482162D01*
X145377441Y-96343090D01*
X145522431Y-96130890D01*
X145573440Y-95879000D01*
X145573440Y-95129000D01*
X145529162Y-94893683D01*
X145402555Y-94696930D01*
X145607441Y-94565090D01*
X145752431Y-94352890D01*
X145803440Y-94101000D01*
X145803440Y-93961440D01*
X146162695Y-94320695D01*
X146337248Y-94437328D01*
X146352348Y-94517577D01*
X146359136Y-94528126D01*
X146359079Y-94528210D01*
X146308070Y-94780100D01*
X146308070Y-95780860D01*
X146352348Y-96016177D01*
X146359978Y-96028034D01*
X146359079Y-96029350D01*
X146308070Y-96281240D01*
X146308070Y-97282000D01*
X146352348Y-97517317D01*
X146367304Y-97540559D01*
X146320510Y-97653530D01*
X146320510Y-97994470D01*
X146479260Y-98153220D01*
X147828000Y-98153220D01*
X147828000Y-98133220D01*
X148082000Y-98133220D01*
X148082000Y-98153220D01*
X149430740Y-98153220D01*
X149589490Y-97994470D01*
X149589490Y-97653530D01*
X149544080Y-97543902D01*
X149550921Y-97533890D01*
X149601930Y-97282000D01*
X149601930Y-96281240D01*
X149557652Y-96045923D01*
X149550022Y-96034066D01*
X149550921Y-96032750D01*
X149601930Y-95780860D01*
X149601930Y-94780100D01*
X149557652Y-94544783D01*
X149550864Y-94534234D01*
X149550921Y-94534150D01*
X149601930Y-94282260D01*
X149601930Y-93992751D01*
X154834971Y-93992751D01*
X155035627Y-94478376D01*
X155406850Y-94850247D01*
X155892124Y-95051750D01*
X156417571Y-95052209D01*
X156903196Y-94851553D01*
X157275067Y-94480330D01*
X157476570Y-93995056D01*
X157477029Y-93469609D01*
X157276373Y-92983984D01*
X156905150Y-92612113D01*
X156419876Y-92410610D01*
X155894429Y-92410151D01*
X155408804Y-92610807D01*
X155036933Y-92982030D01*
X154835430Y-93467304D01*
X154834971Y-93992751D01*
X149601930Y-93992751D01*
X149601930Y-93281500D01*
X149557652Y-93046183D01*
X149550022Y-93034326D01*
X149550921Y-93033010D01*
X149552037Y-93027500D01*
X150939500Y-93027500D01*
X151231105Y-92969496D01*
X151478315Y-92804315D01*
X157000610Y-87282020D01*
X162310070Y-87282020D01*
X162310070Y-88282780D01*
X162354348Y-88518097D01*
X162369304Y-88541339D01*
X162322510Y-88654310D01*
X162322510Y-88995250D01*
X162481260Y-89154000D01*
X163830000Y-89154000D01*
X163830000Y-89134000D01*
X164084000Y-89134000D01*
X164084000Y-89154000D01*
X165432740Y-89154000D01*
X165591490Y-88995250D01*
X165591490Y-88654310D01*
X165546080Y-88544682D01*
X165552921Y-88534670D01*
X165603930Y-88282780D01*
X165603930Y-87282020D01*
X165559652Y-87046703D01*
X165420580Y-86830579D01*
X165208380Y-86685589D01*
X164956490Y-86634580D01*
X162957510Y-86634580D01*
X162722193Y-86678858D01*
X162506069Y-86817930D01*
X162361079Y-87030130D01*
X162310070Y-87282020D01*
X157000610Y-87282020D01*
X159506631Y-84776000D01*
X172570560Y-84776000D01*
X172570560Y-85264000D01*
X172614838Y-85499317D01*
X172753910Y-85715441D01*
X172966110Y-85860431D01*
X173218000Y-85911440D01*
X174724052Y-85911440D01*
X172605200Y-86745843D01*
X172434567Y-86859857D01*
X171836354Y-87552749D01*
X175768000Y-91484395D01*
X175782143Y-91470253D01*
X175961748Y-91649858D01*
X175947605Y-91664000D01*
X179879251Y-95595646D01*
X180572143Y-94997433D01*
X180911500Y-94217169D01*
X180911500Y-95896869D01*
X178930430Y-97877939D01*
X178921162Y-97828683D01*
X178782090Y-97612559D01*
X178569890Y-97467569D01*
X178318000Y-97416560D01*
X176811948Y-97416560D01*
X178930800Y-96582157D01*
X179101433Y-96468143D01*
X179699646Y-95775251D01*
X175768000Y-91843605D01*
X171836354Y-95775251D01*
X172434567Y-96468143D01*
X174526776Y-97378099D01*
X176718209Y-97416560D01*
X173218000Y-97416560D01*
X172982683Y-97460838D01*
X172766559Y-97599910D01*
X172621569Y-97812110D01*
X172570560Y-98064000D01*
X172570560Y-100564000D01*
X172614838Y-100799317D01*
X172753910Y-101015441D01*
X172966110Y-101160431D01*
X173218000Y-101211440D01*
X178318000Y-101211440D01*
X178553317Y-101167162D01*
X178769441Y-101028090D01*
X178914431Y-100815890D01*
X178965440Y-100564000D01*
X178965440Y-99949952D01*
X179110815Y-99852815D01*
X182168800Y-96794831D01*
X182168800Y-104069956D01*
X182016719Y-104834518D01*
X181623304Y-105423304D01*
X181034520Y-105816718D01*
X180269955Y-105968800D01*
X130880044Y-105968800D01*
X130115482Y-105816719D01*
X129526696Y-105423304D01*
X129133282Y-104834520D01*
X128981200Y-104069955D01*
X128981200Y-81350045D01*
X129133282Y-80585480D01*
X129146560Y-80565608D01*
X129146560Y-82143600D01*
X129190838Y-82378917D01*
X129329910Y-82595041D01*
X129542110Y-82740031D01*
X129583439Y-82748400D01*
X129565585Y-82760330D01*
X129240729Y-83246511D01*
X129126655Y-83820000D01*
X129240729Y-84393489D01*
X129565585Y-84879670D01*
X129880366Y-85090000D01*
X129565585Y-85300330D01*
X129240729Y-85786511D01*
X129126655Y-86360000D01*
X129240729Y-86933489D01*
X129565585Y-87419670D01*
X129880366Y-87630000D01*
X129565585Y-87840330D01*
X129240729Y-88326511D01*
X129126655Y-88900000D01*
X129240729Y-89473489D01*
X129565585Y-89959670D01*
X129880366Y-90170000D01*
X129565585Y-90380330D01*
X129240729Y-90866511D01*
X129126655Y-91440000D01*
X129240729Y-92013489D01*
X129565585Y-92499670D01*
X129875069Y-92706461D01*
X129459268Y-93077964D01*
X129205291Y-93605209D01*
X129202642Y-93620974D01*
X129323783Y-93853000D01*
X130683000Y-93853000D01*
X130683000Y-93833000D01*
X130937000Y-93833000D01*
X130937000Y-93853000D01*
X132296217Y-93853000D01*
X132417358Y-93620974D01*
X132414709Y-93605209D01*
X132160732Y-93077964D01*
X131744931Y-92706461D01*
X132054415Y-92499670D01*
X132379271Y-92013489D01*
X132493345Y-91440000D01*
X132379271Y-90866511D01*
X132054415Y-90380330D01*
X131739634Y-90170000D01*
X132054415Y-89959670D01*
X132168453Y-89789000D01*
X135890000Y-89789000D01*
X135890000Y-90205000D01*
X135957671Y-90545206D01*
X136003972Y-90614500D01*
X136150382Y-90833618D01*
X136232190Y-90915426D01*
X136253338Y-91027817D01*
X136304500Y-91107325D01*
X136304500Y-91156000D01*
X136362504Y-91447605D01*
X136459785Y-91593195D01*
X136405059Y-91628410D01*
X136260069Y-91840610D01*
X136209060Y-92092500D01*
X136209060Y-92692500D01*
X136253338Y-92927817D01*
X136392410Y-93143941D01*
X136604610Y-93288931D01*
X136856500Y-93339940D01*
X137276500Y-93339940D01*
X137511817Y-93295662D01*
X137719177Y-93162230D01*
X137904610Y-93288931D01*
X138156500Y-93339940D01*
X138576500Y-93339940D01*
X138811817Y-93295662D01*
X139027941Y-93156590D01*
X139029369Y-93154500D01*
X139205917Y-93154500D01*
X139272341Y-93221040D01*
X139631630Y-93370230D01*
X140020663Y-93370569D01*
X140380212Y-93222007D01*
X140655540Y-92947159D01*
X140804730Y-92587870D01*
X140804813Y-92492317D01*
X141508815Y-91788315D01*
X141673996Y-91541105D01*
X141692594Y-91447605D01*
X141705407Y-91383190D01*
X142221000Y-91383190D01*
X142221000Y-91598750D01*
X142379750Y-91757500D01*
X143129000Y-91757500D01*
X143129000Y-91033250D01*
X142970250Y-90874500D01*
X142729691Y-90874500D01*
X142496302Y-90971173D01*
X142317673Y-91149801D01*
X142221000Y-91383190D01*
X141705407Y-91383190D01*
X141732000Y-91249500D01*
X141732000Y-90866630D01*
X142365131Y-90233500D01*
X144272000Y-90233500D01*
X144563605Y-90175496D01*
X144810815Y-90010315D01*
X145318815Y-89502316D01*
X145483996Y-89255105D01*
X145492412Y-89212794D01*
X145542000Y-88963500D01*
X145542000Y-88544400D01*
X146355906Y-88544400D01*
X146308070Y-88780620D01*
X146308070Y-89781380D01*
X146352348Y-90016697D01*
X146367944Y-90040934D01*
X146320510Y-90155450D01*
X146320510Y-90496390D01*
X146479260Y-90655140D01*
X147828000Y-90655140D01*
X147828000Y-90635140D01*
X148082000Y-90635140D01*
X148082000Y-90655140D01*
X149430740Y-90655140D01*
X149589490Y-90496390D01*
X149589490Y-90155450D01*
X149543425Y-90044240D01*
X149550921Y-90033270D01*
X149570180Y-89938167D01*
X149747305Y-89819815D01*
X152528815Y-87038305D01*
X152693996Y-86791095D01*
X152709111Y-86715105D01*
X152752000Y-86499490D01*
X152752000Y-84683644D01*
X152841441Y-84626090D01*
X152986431Y-84413890D01*
X153037440Y-84162000D01*
X153037440Y-82462000D01*
X152993162Y-82226683D01*
X152854090Y-82010559D01*
X152641890Y-81865569D01*
X152390000Y-81814560D01*
X151590000Y-81814560D01*
X151354683Y-81858838D01*
X151138559Y-81997910D01*
X150993569Y-82210110D01*
X150942560Y-82462000D01*
X150942560Y-84162000D01*
X150986838Y-84397317D01*
X151125910Y-84613441D01*
X151228000Y-84683196D01*
X151228000Y-86183860D01*
X149601930Y-87809930D01*
X149601930Y-87282020D01*
X149557652Y-87046703D01*
X149418580Y-86830579D01*
X149206380Y-86685589D01*
X148954490Y-86634580D01*
X146955510Y-86634580D01*
X146720193Y-86678858D01*
X146504069Y-86817930D01*
X146365727Y-87020400D01*
X145783297Y-87020400D01*
X145783162Y-87019683D01*
X145644090Y-86803559D01*
X145542000Y-86733804D01*
X145542000Y-86479200D01*
X145607441Y-86437090D01*
X145752431Y-86224890D01*
X145803440Y-85973000D01*
X145803440Y-85223000D01*
X145759162Y-84987683D01*
X145620090Y-84771559D01*
X145407890Y-84626569D01*
X145156000Y-84575560D01*
X144356000Y-84575560D01*
X144120683Y-84619838D01*
X144017354Y-84686329D01*
X144015698Y-84684673D01*
X143782309Y-84588000D01*
X143541750Y-84588000D01*
X143383000Y-84746750D01*
X143383000Y-85471000D01*
X143403000Y-85471000D01*
X143403000Y-85725000D01*
X143383000Y-85725000D01*
X143383000Y-86449250D01*
X143541750Y-86608000D01*
X143782309Y-86608000D01*
X144015698Y-86511327D01*
X144017068Y-86509957D01*
X144018000Y-86510595D01*
X144018000Y-86707685D01*
X143806309Y-86620000D01*
X143565750Y-86620000D01*
X143407000Y-86778750D01*
X143407000Y-87503000D01*
X143427000Y-87503000D01*
X143427000Y-87757000D01*
X143407000Y-87757000D01*
X143407000Y-88481250D01*
X143565750Y-88640000D01*
X143806309Y-88640000D01*
X144018000Y-88552315D01*
X144018000Y-88647869D01*
X143956370Y-88709500D01*
X142049500Y-88709500D01*
X141757896Y-88767503D01*
X141510685Y-88932684D01*
X140431185Y-90012185D01*
X140266004Y-90259395D01*
X140208000Y-90551000D01*
X140208000Y-90933870D01*
X139727357Y-91414513D01*
X139633337Y-91414431D01*
X139273788Y-91562993D01*
X139206163Y-91630500D01*
X139025136Y-91630500D01*
X138922145Y-91560129D01*
X139070496Y-91338105D01*
X139075490Y-91312999D01*
X139110845Y-91135255D01*
X139172931Y-91044390D01*
X139223940Y-90792500D01*
X139223940Y-90192500D01*
X139179662Y-89957183D01*
X139040590Y-89741059D01*
X138828390Y-89596069D01*
X138810766Y-89592500D01*
X138892809Y-89592500D01*
X139126198Y-89495827D01*
X139304827Y-89317199D01*
X139401500Y-89083810D01*
X139401500Y-88868250D01*
X139242750Y-88709500D01*
X138493500Y-88709500D01*
X138493500Y-88729500D01*
X138239500Y-88729500D01*
X138239500Y-88709500D01*
X138219500Y-88709500D01*
X138219500Y-88455500D01*
X138239500Y-88455500D01*
X138239500Y-87731250D01*
X138493500Y-87731250D01*
X138493500Y-88455500D01*
X139242750Y-88455500D01*
X139401500Y-88296750D01*
X139401500Y-88081190D01*
X139332973Y-87915750D01*
X142245000Y-87915750D01*
X142245000Y-88131310D01*
X142341673Y-88364699D01*
X142520302Y-88543327D01*
X142753691Y-88640000D01*
X142994250Y-88640000D01*
X143153000Y-88481250D01*
X143153000Y-87757000D01*
X142403750Y-87757000D01*
X142245000Y-87915750D01*
X139332973Y-87915750D01*
X139304827Y-87847801D01*
X139126198Y-87669173D01*
X138892809Y-87572500D01*
X138652250Y-87572500D01*
X138493500Y-87731250D01*
X138239500Y-87731250D01*
X138080750Y-87572500D01*
X137840191Y-87572500D01*
X137606802Y-87669173D01*
X137605432Y-87670543D01*
X137518390Y-87611069D01*
X137266500Y-87560060D01*
X136466500Y-87560060D01*
X136231183Y-87604338D01*
X136015059Y-87743410D01*
X135870069Y-87955610D01*
X135858852Y-88011000D01*
X132168453Y-88011000D01*
X132054415Y-87840330D01*
X131739634Y-87630000D01*
X132054415Y-87419670D01*
X132253312Y-87122000D01*
X140285528Y-87122000D01*
X140415341Y-87252040D01*
X140774630Y-87401230D01*
X141163663Y-87401569D01*
X141523212Y-87253007D01*
X141647746Y-87128690D01*
X142245000Y-87128690D01*
X142245000Y-87344250D01*
X142403750Y-87503000D01*
X143153000Y-87503000D01*
X143153000Y-86778750D01*
X142994250Y-86620000D01*
X142753691Y-86620000D01*
X142520302Y-86716673D01*
X142341673Y-86895301D01*
X142245000Y-87128690D01*
X141647746Y-87128690D01*
X141798540Y-86978159D01*
X141947730Y-86618870D01*
X141948069Y-86229837D01*
X141805070Y-85883750D01*
X142221000Y-85883750D01*
X142221000Y-86099310D01*
X142317673Y-86332699D01*
X142496302Y-86511327D01*
X142729691Y-86608000D01*
X142970250Y-86608000D01*
X143129000Y-86449250D01*
X143129000Y-85725000D01*
X142379750Y-85725000D01*
X142221000Y-85883750D01*
X141805070Y-85883750D01*
X141799507Y-85870288D01*
X141524659Y-85594960D01*
X141165370Y-85445770D01*
X140776337Y-85445431D01*
X140416788Y-85593993D01*
X140412774Y-85598000D01*
X132253312Y-85598000D01*
X132054415Y-85300330D01*
X131749647Y-85096690D01*
X142221000Y-85096690D01*
X142221000Y-85312250D01*
X142379750Y-85471000D01*
X143129000Y-85471000D01*
X143129000Y-84746750D01*
X142970250Y-84588000D01*
X142729691Y-84588000D01*
X142496302Y-84684673D01*
X142317673Y-84863301D01*
X142221000Y-85096690D01*
X131749647Y-85096690D01*
X131739634Y-85090000D01*
X132054415Y-84879670D01*
X132379271Y-84393489D01*
X132493345Y-83820000D01*
X132449137Y-83597750D01*
X147555000Y-83597750D01*
X147555000Y-84288310D01*
X147651673Y-84521699D01*
X147830302Y-84700327D01*
X148063691Y-84797000D01*
X148304250Y-84797000D01*
X148463000Y-84638250D01*
X148463000Y-83439000D01*
X148717000Y-83439000D01*
X148717000Y-84638250D01*
X148875750Y-84797000D01*
X149116309Y-84797000D01*
X149349698Y-84700327D01*
X149528327Y-84521699D01*
X149625000Y-84288310D01*
X149625000Y-83597750D01*
X149466250Y-83439000D01*
X148717000Y-83439000D01*
X148463000Y-83439000D01*
X147713750Y-83439000D01*
X147555000Y-83597750D01*
X132449137Y-83597750D01*
X132379271Y-83246511D01*
X132054415Y-82760330D01*
X132040087Y-82750757D01*
X132061317Y-82746762D01*
X132277441Y-82607690D01*
X132422431Y-82395490D01*
X132434540Y-82335690D01*
X147555000Y-82335690D01*
X147555000Y-83026250D01*
X147713750Y-83185000D01*
X148463000Y-83185000D01*
X148463000Y-81985750D01*
X148717000Y-81985750D01*
X148717000Y-83185000D01*
X149466250Y-83185000D01*
X149625000Y-83026250D01*
X149625000Y-82335690D01*
X149528327Y-82102301D01*
X149349698Y-81923673D01*
X149116309Y-81827000D01*
X148875750Y-81827000D01*
X148717000Y-81985750D01*
X148463000Y-81985750D01*
X148304250Y-81827000D01*
X148063691Y-81827000D01*
X147830302Y-81923673D01*
X147651673Y-82102301D01*
X147555000Y-82335690D01*
X132434540Y-82335690D01*
X132473440Y-82143600D01*
X132473440Y-80416400D01*
X132429162Y-80181083D01*
X132290090Y-79964959D01*
X132077890Y-79819969D01*
X131826000Y-79768960D01*
X129867526Y-79768960D01*
X130115482Y-79603281D01*
X130880044Y-79451200D01*
X180269955Y-79451200D01*
X181034520Y-79603282D01*
D26*
X139509500Y-88582500D03*
X170497500Y-102298500D03*
X170624500Y-99250500D03*
X166052500Y-102425500D03*
X166116000Y-99314000D03*
X171259500Y-96139000D03*
X171196000Y-87185500D03*
X143256000Y-84264500D03*
X143256000Y-90551000D03*
X146177000Y-90741500D03*
X143256000Y-86614000D03*
X147193000Y-83248500D03*
X165671500Y-89281000D03*
X162115500Y-89281000D03*
X149860000Y-90868500D03*
X146050000Y-97345500D03*
X149796500Y-97218500D03*
X137716500Y-89535000D03*
X139827000Y-99885500D03*
X139827000Y-92392500D03*
X137287000Y-100711000D03*
X166243000Y-97536000D03*
X141795500Y-98806000D03*
X145986500Y-101854000D03*
X161798000Y-99441000D03*
X141922500Y-97536000D03*
X140970000Y-86423500D03*
D27*
X156156000Y-93731180D03*
X130810000Y-81280000D03*
X130810000Y-83820000D03*
X130810000Y-86360000D03*
X130810000Y-88900000D03*
X130810000Y-91440000D03*
X130810000Y-93980000D03*
X130810000Y-96520000D03*
X130810000Y-99060000D03*
X130810000Y-101600000D03*
X130810000Y-104140000D03*
M02*
