M48
;DRILL file {KiCad 4.0.5-e0-6337~49~ubuntu16.04.1} date Sat Mar 11 12:02:39 2017
;FORMAT={-:-/ absolute / metric / decimal}
FMAT,2
METRIC,TZ
T1C0.330
T2C1.016
%
G90
G05
M71
T1
X137.716Y-89.535
X138.62Y-84.404
X139.51Y-88.582
X139.802Y-102.857
X139.827Y-92.392
X139.827Y-99.885
X140.97Y-86.423
X141.503Y-97.561
X141.796Y-98.806
X142.189Y-95.517
X143.256Y-84.264
X143.256Y-86.614
X143.256Y-90.551
X145.987Y-101.854
X146.177Y-90.742
X146.24Y-99.746
X146.38Y-102.857
X147.193Y-83.248
X149.796Y-97.218
X149.86Y-90.868
X149.86Y-90.868
X155.727Y-83.223
X156.108Y-102.21
X161.798Y-99.441
X162.115Y-89.281
X165.671Y-89.281
X166.052Y-102.425
X166.116Y-99.314
X166.243Y-97.536
X170.498Y-102.298
X170.624Y-99.251
T2
X130.81Y-81.28
X130.81Y-83.82
X130.81Y-86.36
X130.81Y-88.9
X130.81Y-91.44
X130.81Y-93.98
X130.81Y-96.52
X130.81Y-99.06
X130.81Y-101.6
X130.81Y-104.14
T0
M30
