%TF.GenerationSoftware,KiCad,Pcbnew,4.0.5-e0-6337~49~ubuntu16.04.1*%
%TF.CreationDate,2017-01-10T12:19:59-08:00*%
%TF.ProjectId,fgpmmopa6h-gps-breakout,6667706D6D6F706136682D6770732D62,v1.0*%
%TF.FileFunction,Other,Fab,Top*%
%FSLAX46Y46*%
G04 Gerber Fmt 4.6, Leading zero omitted, Abs format (unit mm)*
G04 Created by KiCad (PCBNEW 4.0.5-e0-6337~49~ubuntu16.04.1) date Tue Jan 10 12:19:59 2017*
%MOMM*%
%LPD*%
G01*
G04 APERTURE LIST*
%ADD10C,0.350000*%
%ADD11C,0.152400*%
%ADD12C,0.040640*%
%ADD13C,0.050000*%
%ADD14C,0.050800*%
%ADD15C,0.508000*%
%ADD16C,0.254000*%
%ADD17C,0.150000*%
%ADD18C,0.203200*%
G04 APERTURE END LIST*
D10*
D11*
X176551167Y-108600119D02*
X175970596Y-108600119D01*
X176260882Y-108600119D02*
X176260882Y-107584119D01*
X176164120Y-107729262D01*
X176067358Y-107826024D01*
X175970596Y-107874405D01*
X177712310Y-107535738D02*
X176841453Y-108842024D01*
X178583167Y-108600119D02*
X178002596Y-108600119D01*
X178292882Y-108600119D02*
X178292882Y-107584119D01*
X178196120Y-107729262D01*
X178099358Y-107826024D01*
X178002596Y-107874405D01*
X179212120Y-107584119D02*
X179308881Y-107584119D01*
X179405643Y-107632500D01*
X179454024Y-107680881D01*
X179502405Y-107777643D01*
X179550786Y-107971167D01*
X179550786Y-108213071D01*
X179502405Y-108406595D01*
X179454024Y-108503357D01*
X179405643Y-108551738D01*
X179308881Y-108600119D01*
X179212120Y-108600119D01*
X179115358Y-108551738D01*
X179066977Y-108503357D01*
X179018596Y-108406595D01*
X178970215Y-108213071D01*
X178970215Y-107971167D01*
X179018596Y-107777643D01*
X179066977Y-107680881D01*
X179115358Y-107632500D01*
X179212120Y-107584119D01*
X180711929Y-107535738D02*
X179841072Y-108842024D01*
X181582786Y-108600119D02*
X181002215Y-108600119D01*
X181292501Y-108600119D02*
X181292501Y-107584119D01*
X181195739Y-107729262D01*
X181098977Y-107826024D01*
X181002215Y-107874405D01*
X181921453Y-107584119D02*
X182598786Y-107584119D01*
X182163358Y-108600119D01*
X152375812Y-75416229D02*
X152037146Y-75416229D01*
X152037146Y-75948419D02*
X152037146Y-74932419D01*
X152520955Y-74932419D01*
X153440193Y-74980800D02*
X153343431Y-74932419D01*
X153198288Y-74932419D01*
X153053146Y-74980800D01*
X152956384Y-75077562D01*
X152908003Y-75174324D01*
X152859622Y-75367848D01*
X152859622Y-75512990D01*
X152908003Y-75706514D01*
X152956384Y-75803276D01*
X153053146Y-75900038D01*
X153198288Y-75948419D01*
X153295050Y-75948419D01*
X153440193Y-75900038D01*
X153488574Y-75851657D01*
X153488574Y-75512990D01*
X153295050Y-75512990D01*
X153924003Y-75948419D02*
X153924003Y-74932419D01*
X154311050Y-74932419D01*
X154407812Y-74980800D01*
X154456193Y-75029181D01*
X154504574Y-75125943D01*
X154504574Y-75271086D01*
X154456193Y-75367848D01*
X154407812Y-75416229D01*
X154311050Y-75464610D01*
X153924003Y-75464610D01*
X154940003Y-75948419D02*
X154940003Y-74932419D01*
X155278669Y-75658133D01*
X155617336Y-74932419D01*
X155617336Y-75948419D01*
X156101146Y-75948419D02*
X156101146Y-74932419D01*
X156439812Y-75658133D01*
X156778479Y-74932419D01*
X156778479Y-75948419D01*
X157455813Y-74932419D02*
X157649336Y-74932419D01*
X157746098Y-74980800D01*
X157842860Y-75077562D01*
X157891241Y-75271086D01*
X157891241Y-75609752D01*
X157842860Y-75803276D01*
X157746098Y-75900038D01*
X157649336Y-75948419D01*
X157455813Y-75948419D01*
X157359051Y-75900038D01*
X157262289Y-75803276D01*
X157213908Y-75609752D01*
X157213908Y-75271086D01*
X157262289Y-75077562D01*
X157359051Y-74980800D01*
X157455813Y-74932419D01*
X158326670Y-75948419D02*
X158326670Y-74932419D01*
X158713717Y-74932419D01*
X158810479Y-74980800D01*
X158858860Y-75029181D01*
X158907241Y-75125943D01*
X158907241Y-75271086D01*
X158858860Y-75367848D01*
X158810479Y-75416229D01*
X158713717Y-75464610D01*
X158326670Y-75464610D01*
X159294289Y-75658133D02*
X159778098Y-75658133D01*
X159197527Y-75948419D02*
X159536194Y-74932419D01*
X159874860Y-75948419D01*
X160648955Y-74932419D02*
X160455432Y-74932419D01*
X160358670Y-74980800D01*
X160310289Y-75029181D01*
X160213527Y-75174324D01*
X160165146Y-75367848D01*
X160165146Y-75754895D01*
X160213527Y-75851657D01*
X160261908Y-75900038D01*
X160358670Y-75948419D01*
X160552193Y-75948419D01*
X160648955Y-75900038D01*
X160697336Y-75851657D01*
X160745717Y-75754895D01*
X160745717Y-75512990D01*
X160697336Y-75416229D01*
X160648955Y-75367848D01*
X160552193Y-75319467D01*
X160358670Y-75319467D01*
X160261908Y-75367848D01*
X160213527Y-75416229D01*
X160165146Y-75512990D01*
X161181146Y-75948419D02*
X161181146Y-74932419D01*
X161181146Y-75416229D02*
X161761717Y-75416229D01*
X161761717Y-75948419D02*
X161761717Y-74932419D01*
X163551812Y-74980800D02*
X163455050Y-74932419D01*
X163309907Y-74932419D01*
X163164765Y-74980800D01*
X163068003Y-75077562D01*
X163019622Y-75174324D01*
X162971241Y-75367848D01*
X162971241Y-75512990D01*
X163019622Y-75706514D01*
X163068003Y-75803276D01*
X163164765Y-75900038D01*
X163309907Y-75948419D01*
X163406669Y-75948419D01*
X163551812Y-75900038D01*
X163600193Y-75851657D01*
X163600193Y-75512990D01*
X163406669Y-75512990D01*
X164035622Y-75948419D02*
X164035622Y-74932419D01*
X164422669Y-74932419D01*
X164519431Y-74980800D01*
X164567812Y-75029181D01*
X164616193Y-75125943D01*
X164616193Y-75271086D01*
X164567812Y-75367848D01*
X164519431Y-75416229D01*
X164422669Y-75464610D01*
X164035622Y-75464610D01*
X165003241Y-75900038D02*
X165148384Y-75948419D01*
X165390288Y-75948419D01*
X165487050Y-75900038D01*
X165535431Y-75851657D01*
X165583812Y-75754895D01*
X165583812Y-75658133D01*
X165535431Y-75561371D01*
X165487050Y-75512990D01*
X165390288Y-75464610D01*
X165196765Y-75416229D01*
X165100003Y-75367848D01*
X165051622Y-75319467D01*
X165003241Y-75222705D01*
X165003241Y-75125943D01*
X165051622Y-75029181D01*
X165100003Y-74980800D01*
X165196765Y-74932419D01*
X165438669Y-74932419D01*
X165583812Y-74980800D01*
X167132002Y-75416229D02*
X167277145Y-75464610D01*
X167325526Y-75512990D01*
X167373907Y-75609752D01*
X167373907Y-75754895D01*
X167325526Y-75851657D01*
X167277145Y-75900038D01*
X167180383Y-75948419D01*
X166793336Y-75948419D01*
X166793336Y-74932419D01*
X167132002Y-74932419D01*
X167228764Y-74980800D01*
X167277145Y-75029181D01*
X167325526Y-75125943D01*
X167325526Y-75222705D01*
X167277145Y-75319467D01*
X167228764Y-75367848D01*
X167132002Y-75416229D01*
X166793336Y-75416229D01*
X167809336Y-75948419D02*
X167809336Y-75271086D01*
X167809336Y-75464610D02*
X167857717Y-75367848D01*
X167906098Y-75319467D01*
X168002860Y-75271086D01*
X168099621Y-75271086D01*
X168825335Y-75900038D02*
X168728573Y-75948419D01*
X168535050Y-75948419D01*
X168438288Y-75900038D01*
X168389907Y-75803276D01*
X168389907Y-75416229D01*
X168438288Y-75319467D01*
X168535050Y-75271086D01*
X168728573Y-75271086D01*
X168825335Y-75319467D01*
X168873716Y-75416229D01*
X168873716Y-75512990D01*
X168389907Y-75609752D01*
X169744573Y-75948419D02*
X169744573Y-75416229D01*
X169696192Y-75319467D01*
X169599430Y-75271086D01*
X169405907Y-75271086D01*
X169309145Y-75319467D01*
X169744573Y-75900038D02*
X169647811Y-75948419D01*
X169405907Y-75948419D01*
X169309145Y-75900038D01*
X169260764Y-75803276D01*
X169260764Y-75706514D01*
X169309145Y-75609752D01*
X169405907Y-75561371D01*
X169647811Y-75561371D01*
X169744573Y-75512990D01*
X170228383Y-75948419D02*
X170228383Y-74932419D01*
X170325145Y-75561371D02*
X170615430Y-75948419D01*
X170615430Y-75271086D02*
X170228383Y-75658133D01*
X171196002Y-75948419D02*
X171099240Y-75900038D01*
X171050859Y-75851657D01*
X171002478Y-75754895D01*
X171002478Y-75464610D01*
X171050859Y-75367848D01*
X171099240Y-75319467D01*
X171196002Y-75271086D01*
X171341144Y-75271086D01*
X171437906Y-75319467D01*
X171486287Y-75367848D01*
X171534668Y-75464610D01*
X171534668Y-75754895D01*
X171486287Y-75851657D01*
X171437906Y-75900038D01*
X171341144Y-75948419D01*
X171196002Y-75948419D01*
X172405525Y-75271086D02*
X172405525Y-75948419D01*
X171970097Y-75271086D02*
X171970097Y-75803276D01*
X172018478Y-75900038D01*
X172115240Y-75948419D01*
X172260382Y-75948419D01*
X172357144Y-75900038D01*
X172405525Y-75851657D01*
X172744192Y-75271086D02*
X173131240Y-75271086D01*
X172889335Y-74932419D02*
X172889335Y-75803276D01*
X172937716Y-75900038D01*
X173034478Y-75948419D01*
X173131240Y-75948419D01*
X174582667Y-75416229D02*
X174727810Y-75464610D01*
X174776191Y-75512990D01*
X174824572Y-75609752D01*
X174824572Y-75754895D01*
X174776191Y-75851657D01*
X174727810Y-75900038D01*
X174631048Y-75948419D01*
X174244001Y-75948419D01*
X174244001Y-74932419D01*
X174582667Y-74932419D01*
X174679429Y-74980800D01*
X174727810Y-75029181D01*
X174776191Y-75125943D01*
X174776191Y-75222705D01*
X174727810Y-75319467D01*
X174679429Y-75367848D01*
X174582667Y-75416229D01*
X174244001Y-75416229D01*
X175405144Y-75948419D02*
X175308382Y-75900038D01*
X175260001Y-75851657D01*
X175211620Y-75754895D01*
X175211620Y-75464610D01*
X175260001Y-75367848D01*
X175308382Y-75319467D01*
X175405144Y-75271086D01*
X175550286Y-75271086D01*
X175647048Y-75319467D01*
X175695429Y-75367848D01*
X175743810Y-75464610D01*
X175743810Y-75754895D01*
X175695429Y-75851657D01*
X175647048Y-75900038D01*
X175550286Y-75948419D01*
X175405144Y-75948419D01*
X176614667Y-75948419D02*
X176614667Y-75416229D01*
X176566286Y-75319467D01*
X176469524Y-75271086D01*
X176276001Y-75271086D01*
X176179239Y-75319467D01*
X176614667Y-75900038D02*
X176517905Y-75948419D01*
X176276001Y-75948419D01*
X176179239Y-75900038D01*
X176130858Y-75803276D01*
X176130858Y-75706514D01*
X176179239Y-75609752D01*
X176276001Y-75561371D01*
X176517905Y-75561371D01*
X176614667Y-75512990D01*
X177098477Y-75948419D02*
X177098477Y-75271086D01*
X177098477Y-75464610D02*
X177146858Y-75367848D01*
X177195239Y-75319467D01*
X177292001Y-75271086D01*
X177388762Y-75271086D01*
X178162857Y-75948419D02*
X178162857Y-74932419D01*
X178162857Y-75900038D02*
X178066095Y-75948419D01*
X177872572Y-75948419D01*
X177775810Y-75900038D01*
X177727429Y-75851657D01*
X177679048Y-75754895D01*
X177679048Y-75464610D01*
X177727429Y-75367848D01*
X177775810Y-75319467D01*
X177872572Y-75271086D01*
X178066095Y-75271086D01*
X178162857Y-75319467D01*
X179324000Y-75271086D02*
X179565905Y-75948419D01*
X179807809Y-75271086D01*
X180727047Y-75948419D02*
X180146476Y-75948419D01*
X180436762Y-75948419D02*
X180436762Y-74932419D01*
X180340000Y-75077562D01*
X180243238Y-75174324D01*
X180146476Y-75222705D01*
X181162476Y-75851657D02*
X181210857Y-75900038D01*
X181162476Y-75948419D01*
X181114095Y-75900038D01*
X181162476Y-75851657D01*
X181162476Y-75948419D01*
X181839810Y-74932419D02*
X181936571Y-74932419D01*
X182033333Y-74980800D01*
X182081714Y-75029181D01*
X182130095Y-75125943D01*
X182178476Y-75319467D01*
X182178476Y-75561371D01*
X182130095Y-75754895D01*
X182081714Y-75851657D01*
X182033333Y-75900038D01*
X181936571Y-75948419D01*
X181839810Y-75948419D01*
X181743048Y-75900038D01*
X181694667Y-75851657D01*
X181646286Y-75754895D01*
X181597905Y-75561371D01*
X181597905Y-75319467D01*
X181646286Y-75125943D01*
X181694667Y-75029181D01*
X181743048Y-74980800D01*
X181839810Y-74932419D01*
X168583430Y-77334533D02*
X169067239Y-77334533D01*
X168486668Y-77624819D02*
X168825335Y-76608819D01*
X169164001Y-77624819D01*
X169454287Y-77576438D02*
X169551049Y-77624819D01*
X169744573Y-77624819D01*
X169841334Y-77576438D01*
X169889715Y-77479676D01*
X169889715Y-77431295D01*
X169841334Y-77334533D01*
X169744573Y-77286152D01*
X169599430Y-77286152D01*
X169502668Y-77237771D01*
X169454287Y-77141010D01*
X169454287Y-77092629D01*
X169502668Y-76995867D01*
X169599430Y-76947486D01*
X169744573Y-76947486D01*
X169841334Y-76995867D01*
X170276763Y-77576438D02*
X170373525Y-77624819D01*
X170567049Y-77624819D01*
X170663810Y-77576438D01*
X170712191Y-77479676D01*
X170712191Y-77431295D01*
X170663810Y-77334533D01*
X170567049Y-77286152D01*
X170421906Y-77286152D01*
X170325144Y-77237771D01*
X170276763Y-77141010D01*
X170276763Y-77092629D01*
X170325144Y-76995867D01*
X170421906Y-76947486D01*
X170567049Y-76947486D01*
X170663810Y-76995867D01*
X171534667Y-77576438D02*
X171437905Y-77624819D01*
X171244382Y-77624819D01*
X171147620Y-77576438D01*
X171099239Y-77479676D01*
X171099239Y-77092629D01*
X171147620Y-76995867D01*
X171244382Y-76947486D01*
X171437905Y-76947486D01*
X171534667Y-76995867D01*
X171583048Y-77092629D01*
X171583048Y-77189390D01*
X171099239Y-77286152D01*
X172018477Y-77624819D02*
X172018477Y-76947486D01*
X172018477Y-77044248D02*
X172066858Y-76995867D01*
X172163620Y-76947486D01*
X172308762Y-76947486D01*
X172405524Y-76995867D01*
X172453905Y-77092629D01*
X172453905Y-77624819D01*
X172453905Y-77092629D02*
X172502286Y-76995867D01*
X172599048Y-76947486D01*
X172744191Y-76947486D01*
X172840953Y-76995867D01*
X172889334Y-77092629D01*
X172889334Y-77624819D01*
X173373144Y-77624819D02*
X173373144Y-76608819D01*
X173373144Y-76995867D02*
X173469906Y-76947486D01*
X173663429Y-76947486D01*
X173760191Y-76995867D01*
X173808572Y-77044248D01*
X173856953Y-77141010D01*
X173856953Y-77431295D01*
X173808572Y-77528057D01*
X173760191Y-77576438D01*
X173663429Y-77624819D01*
X173469906Y-77624819D01*
X173373144Y-77576438D01*
X174437525Y-77624819D02*
X174340763Y-77576438D01*
X174292382Y-77479676D01*
X174292382Y-76608819D01*
X174727810Y-76947486D02*
X174969715Y-77624819D01*
X175211619Y-76947486D02*
X174969715Y-77624819D01*
X174872953Y-77866724D01*
X174824572Y-77915105D01*
X174727810Y-77963486D01*
X176372762Y-77624819D02*
X176372762Y-76608819D01*
X176614667Y-76608819D01*
X176759809Y-76657200D01*
X176856571Y-76753962D01*
X176904952Y-76850724D01*
X176953333Y-77044248D01*
X176953333Y-77189390D01*
X176904952Y-77382914D01*
X176856571Y-77479676D01*
X176759809Y-77576438D01*
X176614667Y-77624819D01*
X176372762Y-77624819D01*
X177388762Y-77624819D02*
X177388762Y-76947486D01*
X177388762Y-76608819D02*
X177340381Y-76657200D01*
X177388762Y-76705581D01*
X177437143Y-76657200D01*
X177388762Y-76608819D01*
X177388762Y-76705581D01*
X178308000Y-77624819D02*
X178308000Y-77092629D01*
X178259619Y-76995867D01*
X178162857Y-76947486D01*
X177969334Y-76947486D01*
X177872572Y-76995867D01*
X178308000Y-77576438D02*
X178211238Y-77624819D01*
X177969334Y-77624819D01*
X177872572Y-77576438D01*
X177824191Y-77479676D01*
X177824191Y-77382914D01*
X177872572Y-77286152D01*
X177969334Y-77237771D01*
X178211238Y-77237771D01*
X178308000Y-77189390D01*
X179227238Y-76947486D02*
X179227238Y-77769962D01*
X179178857Y-77866724D01*
X179130476Y-77915105D01*
X179033715Y-77963486D01*
X178888572Y-77963486D01*
X178791810Y-77915105D01*
X179227238Y-77576438D02*
X179130476Y-77624819D01*
X178936953Y-77624819D01*
X178840191Y-77576438D01*
X178791810Y-77528057D01*
X178743429Y-77431295D01*
X178743429Y-77141010D01*
X178791810Y-77044248D01*
X178840191Y-76995867D01*
X178936953Y-76947486D01*
X179130476Y-76947486D01*
X179227238Y-76995867D01*
X179711048Y-77624819D02*
X179711048Y-76947486D01*
X179711048Y-77141010D02*
X179759429Y-77044248D01*
X179807810Y-76995867D01*
X179904572Y-76947486D01*
X180001333Y-76947486D01*
X180775428Y-77624819D02*
X180775428Y-77092629D01*
X180727047Y-76995867D01*
X180630285Y-76947486D01*
X180436762Y-76947486D01*
X180340000Y-76995867D01*
X180775428Y-77576438D02*
X180678666Y-77624819D01*
X180436762Y-77624819D01*
X180340000Y-77576438D01*
X180291619Y-77479676D01*
X180291619Y-77382914D01*
X180340000Y-77286152D01*
X180436762Y-77237771D01*
X180678666Y-77237771D01*
X180775428Y-77189390D01*
X181259238Y-77624819D02*
X181259238Y-76947486D01*
X181259238Y-77044248D02*
X181307619Y-76995867D01*
X181404381Y-76947486D01*
X181549523Y-76947486D01*
X181646285Y-76995867D01*
X181694666Y-77092629D01*
X181694666Y-77624819D01*
X181694666Y-77092629D02*
X181743047Y-76995867D01*
X181839809Y-76947486D01*
X181984952Y-76947486D01*
X182081714Y-76995867D01*
X182130095Y-77092629D01*
X182130095Y-77624819D01*
X182880000Y-104140000D02*
X182880000Y-81280000D01*
X130810000Y-106680000D02*
X180340000Y-106680000D01*
X128270000Y-81280000D02*
X128270000Y-104140000D01*
X180340000Y-78740000D02*
X130810000Y-78740000D01*
X182880000Y-81280000D02*
G75*
G03X180340000Y-78740000I-2540000J0D01*
G01*
X180340000Y-106680000D02*
G75*
G03X182880000Y-104140000I0J2540000D01*
G01*
X128270000Y-104140000D02*
G75*
G03X130810000Y-106680000I2540000J0D01*
G01*
X130810000Y-78740000D02*
G75*
G03X128270000Y-81280000I0J-2540000D01*
G01*
D12*
X166691500Y-102274500D02*
X166691500Y-103274500D01*
X166191500Y-102274500D02*
X166691500Y-102274500D01*
X166691500Y-99024500D02*
X166191500Y-99024500D01*
X166691500Y-98524500D02*
X166691500Y-99024500D01*
X169941500Y-103274500D02*
X169941500Y-98524500D01*
X166691500Y-103274500D02*
X169941500Y-103274500D01*
X166191500Y-99024500D02*
X166191500Y-102274500D01*
X166691500Y-98524500D02*
X166941500Y-98524500D01*
X169941500Y-98524500D02*
X166941500Y-98524500D01*
X170768000Y-86664000D02*
G75*
G03X170768000Y-96664000I5000000J-5000000D01*
G01*
X170768000Y-101414000D02*
X170768000Y-96664000D01*
X180768000Y-101414000D02*
X170768000Y-101414000D01*
X180768000Y-101414000D02*
X180768000Y-96664000D01*
X170768000Y-81914000D02*
X170768000Y-86664000D01*
X170768000Y-81914000D02*
X180768000Y-81914000D01*
X180768000Y-81914000D02*
X180768000Y-86664000D01*
X180768000Y-96664000D02*
G75*
G03X180768000Y-86664000I-5000000J5000000D01*
G01*
D13*
X136166500Y-87832500D02*
X139066500Y-87832500D01*
X136166500Y-87832500D02*
X136166500Y-89332500D01*
X139066500Y-87832500D02*
X139066500Y-89332500D01*
X136166500Y-89332500D02*
X139066500Y-89332500D01*
X145456000Y-92634500D02*
X142556000Y-92634500D01*
X145456000Y-92634500D02*
X145456000Y-91134500D01*
X142556000Y-92634500D02*
X142556000Y-91134500D01*
X145456000Y-91134500D02*
X142556000Y-91134500D01*
X145456000Y-86348000D02*
X142556000Y-86348000D01*
X145456000Y-86348000D02*
X145456000Y-84848000D01*
X142556000Y-86348000D02*
X142556000Y-84848000D01*
X145456000Y-84848000D02*
X142556000Y-84848000D01*
X145480000Y-88380000D02*
X142580000Y-88380000D01*
X145480000Y-88380000D02*
X145480000Y-86880000D01*
X142580000Y-88380000D02*
X142580000Y-86880000D01*
X145480000Y-86880000D02*
X142580000Y-86880000D01*
D14*
X142457000Y-96536000D02*
X142557000Y-96536000D01*
X142457000Y-98536000D02*
X142457000Y-96536000D01*
X145657000Y-98536000D02*
X142457000Y-98536000D01*
X145657000Y-96536000D02*
X145657000Y-98536000D01*
X142557000Y-96536000D02*
X145657000Y-96536000D01*
D11*
X142157000Y-96936000D02*
X142157000Y-98136000D01*
D13*
X141744000Y-94742000D02*
X141744000Y-96266000D01*
X141998000Y-94742000D02*
X145808000Y-94742000D01*
X141998000Y-94754000D02*
X141998000Y-96254000D01*
X145808000Y-94754000D02*
X145808000Y-96254000D01*
X141998000Y-96266000D02*
X145808000Y-96266000D01*
X142580000Y-99072000D02*
X145480000Y-99072000D01*
X142580000Y-99072000D02*
X142580000Y-100572000D01*
X145480000Y-99072000D02*
X145480000Y-100572000D01*
X142580000Y-100572000D02*
X145480000Y-100572000D01*
X142556000Y-92976000D02*
X145456000Y-92976000D01*
X142556000Y-92976000D02*
X142556000Y-94476000D01*
X145456000Y-92976000D02*
X145456000Y-94476000D01*
X142556000Y-94476000D02*
X145456000Y-94476000D01*
X145456000Y-102604000D02*
X142556000Y-102604000D01*
X145456000Y-102604000D02*
X145456000Y-101104000D01*
X142556000Y-102604000D02*
X142556000Y-101104000D01*
X145456000Y-101104000D02*
X142556000Y-101104000D01*
X152752000Y-84836000D02*
X147672000Y-84836000D01*
X152752000Y-81788000D02*
X152752000Y-84836000D01*
X147672000Y-81788000D02*
X152752000Y-81788000D01*
X147672000Y-84836000D02*
X147672000Y-81788000D01*
D12*
X136383000Y-92966500D02*
X139050000Y-92966500D01*
X136383000Y-89918500D02*
X136383000Y-92966500D01*
X139050000Y-89918500D02*
X136383000Y-89918500D01*
X139050000Y-92966500D02*
X139050000Y-89918500D01*
X146456000Y-88531180D02*
X148956000Y-86281180D01*
X165456000Y-86281180D02*
X148956000Y-86281180D01*
X165456000Y-103031180D02*
X165456000Y-86281180D01*
X146456000Y-103031180D02*
X165456000Y-103031180D01*
X146456000Y-88531180D02*
X146456000Y-103031180D01*
D15*
X148684953Y-88281180D02*
G75*
G03X148684953Y-88281180I-228953J0D01*
G01*
D14*
X129010000Y-105980000D02*
X129010000Y-79480000D01*
X132610000Y-105980000D02*
X129010000Y-105980000D01*
X132610000Y-79480000D02*
X132610000Y-105980000D01*
X129010000Y-79480000D02*
X132610000Y-79480000D01*
D11*
X167498072Y-100901500D02*
X167860929Y-100901500D01*
X167425500Y-101119214D02*
X167679500Y-100357214D01*
X167933500Y-101119214D01*
X168187501Y-101119214D02*
X168187501Y-100357214D01*
X168622929Y-101119214D01*
X168622929Y-100357214D01*
X169384929Y-101119214D02*
X168949501Y-101119214D01*
X169167215Y-101119214D02*
X169167215Y-100357214D01*
X169094644Y-100466071D01*
X169022072Y-100538643D01*
X168949501Y-100574929D01*
D16*
X175625143Y-94092572D02*
X175720381Y-93806858D01*
X175815619Y-93711619D01*
X176006095Y-93616381D01*
X176291810Y-93616381D01*
X176482286Y-93711619D01*
X176577524Y-93806858D01*
X176672762Y-93997334D01*
X176672762Y-94759239D01*
X174672762Y-94759239D01*
X174672762Y-94092572D01*
X174768000Y-93902096D01*
X174863238Y-93806858D01*
X175053714Y-93711619D01*
X175244190Y-93711619D01*
X175434667Y-93806858D01*
X175529905Y-93902096D01*
X175625143Y-94092572D01*
X175625143Y-94759239D01*
X176101333Y-92854477D02*
X176101333Y-91902096D01*
X176672762Y-93044953D02*
X174672762Y-92378286D01*
X176672762Y-91711619D01*
X174672762Y-91330667D02*
X174672762Y-90187810D01*
X176672762Y-90759238D02*
X174672762Y-90759238D01*
X176672762Y-88473523D02*
X176672762Y-89616381D01*
X176672762Y-89044952D02*
X174672762Y-89044952D01*
X174958476Y-89235428D01*
X175148952Y-89425904D01*
X175244190Y-89616381D01*
D17*
X137573167Y-88908214D02*
X137535072Y-88946310D01*
X137420786Y-88984405D01*
X137344596Y-88984405D01*
X137230310Y-88946310D01*
X137154119Y-88870119D01*
X137116024Y-88793929D01*
X137077929Y-88641548D01*
X137077929Y-88527262D01*
X137116024Y-88374881D01*
X137154119Y-88298690D01*
X137230310Y-88222500D01*
X137344596Y-88184405D01*
X137420786Y-88184405D01*
X137535072Y-88222500D01*
X137573167Y-88260595D01*
X138335072Y-88984405D02*
X137877929Y-88984405D01*
X138106500Y-88984405D02*
X138106500Y-88184405D01*
X138030310Y-88298690D01*
X137954119Y-88374881D01*
X137877929Y-88412976D01*
X143782667Y-92130214D02*
X143744572Y-92168310D01*
X143630286Y-92206405D01*
X143554096Y-92206405D01*
X143439810Y-92168310D01*
X143363619Y-92092119D01*
X143325524Y-92015929D01*
X143287429Y-91863548D01*
X143287429Y-91749262D01*
X143325524Y-91596881D01*
X143363619Y-91520690D01*
X143439810Y-91444500D01*
X143554096Y-91406405D01*
X143630286Y-91406405D01*
X143744572Y-91444500D01*
X143782667Y-91482595D01*
X144087429Y-91482595D02*
X144125524Y-91444500D01*
X144201715Y-91406405D01*
X144392191Y-91406405D01*
X144468381Y-91444500D01*
X144506477Y-91482595D01*
X144544572Y-91558786D01*
X144544572Y-91634976D01*
X144506477Y-91749262D01*
X144049334Y-92206405D01*
X144544572Y-92206405D01*
X143782667Y-85843714D02*
X143744572Y-85881810D01*
X143630286Y-85919905D01*
X143554096Y-85919905D01*
X143439810Y-85881810D01*
X143363619Y-85805619D01*
X143325524Y-85729429D01*
X143287429Y-85577048D01*
X143287429Y-85462762D01*
X143325524Y-85310381D01*
X143363619Y-85234190D01*
X143439810Y-85158000D01*
X143554096Y-85119905D01*
X143630286Y-85119905D01*
X143744572Y-85158000D01*
X143782667Y-85196095D01*
X144049334Y-85119905D02*
X144544572Y-85119905D01*
X144277905Y-85424667D01*
X144392191Y-85424667D01*
X144468381Y-85462762D01*
X144506477Y-85500857D01*
X144544572Y-85577048D01*
X144544572Y-85767524D01*
X144506477Y-85843714D01*
X144468381Y-85881810D01*
X144392191Y-85919905D01*
X144163619Y-85919905D01*
X144087429Y-85881810D01*
X144049334Y-85843714D01*
X143806667Y-87875714D02*
X143768572Y-87913810D01*
X143654286Y-87951905D01*
X143578096Y-87951905D01*
X143463810Y-87913810D01*
X143387619Y-87837619D01*
X143349524Y-87761429D01*
X143311429Y-87609048D01*
X143311429Y-87494762D01*
X143349524Y-87342381D01*
X143387619Y-87266190D01*
X143463810Y-87190000D01*
X143578096Y-87151905D01*
X143654286Y-87151905D01*
X143768572Y-87190000D01*
X143806667Y-87228095D01*
X144492381Y-87418571D02*
X144492381Y-87951905D01*
X144301905Y-87113810D02*
X144111429Y-87685238D01*
X144606667Y-87685238D01*
X144509381Y-98274095D02*
X143509381Y-98274095D01*
X143509381Y-98036000D01*
X143557000Y-97893142D01*
X143652238Y-97797904D01*
X143747476Y-97750285D01*
X143937952Y-97702666D01*
X144080810Y-97702666D01*
X144271286Y-97750285D01*
X144366524Y-97797904D01*
X144461762Y-97893142D01*
X144509381Y-98036000D01*
X144509381Y-98274095D01*
X144509381Y-96750285D02*
X144509381Y-97321714D01*
X144509381Y-97036000D02*
X143509381Y-97036000D01*
X143652238Y-97131238D01*
X143747476Y-97226476D01*
X143795095Y-97321714D01*
X142970762Y-95905905D02*
X142589809Y-95905905D01*
X142589809Y-95105905D01*
X143237428Y-95486857D02*
X143504095Y-95486857D01*
X143618381Y-95905905D02*
X143237428Y-95905905D01*
X143237428Y-95105905D01*
X143618381Y-95105905D01*
X143961238Y-95905905D02*
X143961238Y-95105905D01*
X144151714Y-95105905D01*
X144266000Y-95144000D01*
X144342191Y-95220190D01*
X144380286Y-95296381D01*
X144418381Y-95448762D01*
X144418381Y-95563048D01*
X144380286Y-95715429D01*
X144342191Y-95791619D01*
X144266000Y-95867810D01*
X144151714Y-95905905D01*
X143961238Y-95905905D01*
X145180286Y-95905905D02*
X144723143Y-95905905D01*
X144951714Y-95905905D02*
X144951714Y-95105905D01*
X144875524Y-95220190D01*
X144799333Y-95296381D01*
X144723143Y-95334476D01*
X143986667Y-100223905D02*
X143720000Y-99842952D01*
X143529524Y-100223905D02*
X143529524Y-99423905D01*
X143834286Y-99423905D01*
X143910477Y-99462000D01*
X143948572Y-99500095D01*
X143986667Y-99576286D01*
X143986667Y-99690571D01*
X143948572Y-99766762D01*
X143910477Y-99804857D01*
X143834286Y-99842952D01*
X143529524Y-99842952D01*
X144748572Y-100223905D02*
X144291429Y-100223905D01*
X144520000Y-100223905D02*
X144520000Y-99423905D01*
X144443810Y-99538190D01*
X144367619Y-99614381D01*
X144291429Y-99652476D01*
X143962667Y-94127905D02*
X143696000Y-93746952D01*
X143505524Y-94127905D02*
X143505524Y-93327905D01*
X143810286Y-93327905D01*
X143886477Y-93366000D01*
X143924572Y-93404095D01*
X143962667Y-93480286D01*
X143962667Y-93594571D01*
X143924572Y-93670762D01*
X143886477Y-93708857D01*
X143810286Y-93746952D01*
X143505524Y-93746952D01*
X144267429Y-93404095D02*
X144305524Y-93366000D01*
X144381715Y-93327905D01*
X144572191Y-93327905D01*
X144648381Y-93366000D01*
X144686477Y-93404095D01*
X144724572Y-93480286D01*
X144724572Y-93556476D01*
X144686477Y-93670762D01*
X144229334Y-94127905D01*
X144724572Y-94127905D01*
X143782667Y-102175905D02*
X143516000Y-101794952D01*
X143325524Y-102175905D02*
X143325524Y-101375905D01*
X143630286Y-101375905D01*
X143706477Y-101414000D01*
X143744572Y-101452095D01*
X143782667Y-101528286D01*
X143782667Y-101642571D01*
X143744572Y-101718762D01*
X143706477Y-101756857D01*
X143630286Y-101794952D01*
X143325524Y-101794952D01*
X144049334Y-101375905D02*
X144544572Y-101375905D01*
X144277905Y-101680667D01*
X144392191Y-101680667D01*
X144468381Y-101718762D01*
X144506477Y-101756857D01*
X144544572Y-101833048D01*
X144544572Y-102023524D01*
X144506477Y-102099714D01*
X144468381Y-102137810D01*
X144392191Y-102175905D01*
X144163619Y-102175905D01*
X144087429Y-102137810D01*
X144049334Y-102099714D01*
X149450095Y-83716762D02*
X149592952Y-83764381D01*
X149831048Y-83764381D01*
X149926286Y-83716762D01*
X149973905Y-83669143D01*
X150021524Y-83573905D01*
X150021524Y-83478667D01*
X149973905Y-83383429D01*
X149926286Y-83335810D01*
X149831048Y-83288190D01*
X149640571Y-83240571D01*
X149545333Y-83192952D01*
X149497714Y-83145333D01*
X149450095Y-83050095D01*
X149450095Y-82954857D01*
X149497714Y-82859619D01*
X149545333Y-82812000D01*
X149640571Y-82764381D01*
X149878667Y-82764381D01*
X150021524Y-82812000D01*
X150973905Y-83764381D02*
X150402476Y-83764381D01*
X150688190Y-83764381D02*
X150688190Y-82764381D01*
X150592952Y-82907238D01*
X150497714Y-83002476D01*
X150402476Y-83050095D01*
X137168881Y-92204405D02*
X137978405Y-92204405D01*
X138073643Y-92156786D01*
X138121262Y-92109167D01*
X138168881Y-92013929D01*
X138168881Y-91823452D01*
X138121262Y-91728214D01*
X138073643Y-91680595D01*
X137978405Y-91632976D01*
X137168881Y-91632976D01*
X138168881Y-90632976D02*
X138168881Y-91204405D01*
X138168881Y-90918691D02*
X137168881Y-90918691D01*
X137311738Y-91013929D01*
X137406976Y-91109167D01*
X137454595Y-91204405D01*
D18*
X155308905Y-94038299D02*
X155308905Y-94860775D01*
X155357286Y-94957537D01*
X155405667Y-95005918D01*
X155502429Y-95054299D01*
X155695952Y-95054299D01*
X155792714Y-95005918D01*
X155841095Y-94957537D01*
X155889476Y-94860775D01*
X155889476Y-94038299D01*
X156324905Y-94135061D02*
X156373286Y-94086680D01*
X156470048Y-94038299D01*
X156711952Y-94038299D01*
X156808714Y-94086680D01*
X156857095Y-94135061D01*
X156905476Y-94231823D01*
X156905476Y-94328585D01*
X156857095Y-94473728D01*
X156276524Y-95054299D01*
X156905476Y-95054299D01*
D16*
X129797238Y-93457333D02*
X131248667Y-93457333D01*
X131538952Y-93554095D01*
X131732476Y-93747619D01*
X131829238Y-94037904D01*
X131829238Y-94231428D01*
X131829238Y-91425334D02*
X131829238Y-92586476D01*
X131829238Y-92005905D02*
X129797238Y-92005905D01*
X130087524Y-92199429D01*
X130281048Y-92392953D01*
X130377810Y-92586476D01*
M02*
