%TF.GenerationSoftware,KiCad,Pcbnew,4.0.5-e0-6337~49~ubuntu16.04.1*%
%TF.CreationDate,2017-03-30T12:13:01-07:00*%
%TF.ProjectId,fgpmmopa6h-gps-breakout,6667706D6D6F706136682D6770732D62,v1.0*%
%TF.FileFunction,Paste,Top*%
%FSLAX46Y46*%
G04 Gerber Fmt 4.6, Leading zero omitted, Abs format (unit mm)*
G04 Created by KiCad (PCBNEW 4.0.5-e0-6337~49~ubuntu16.04.1) date Thu Mar 30 12:13:01 2017*
%MOMM*%
%LPD*%
G01*
G04 APERTURE LIST*
%ADD10C,0.350000*%
%ADD11R,0.847600X0.847600*%
%ADD12R,2.047600X0.847600*%
%ADD13R,0.647600X0.597600*%
%ADD14R,0.647600X1.547600*%
%ADD15R,0.267600X0.447600*%
%ADD16R,0.757600X1.067600*%
%ADD17R,1.846580X0.848360*%
G04 APERTURE END LIST*
D10*
D11*
X38996620Y-56748680D03*
D12*
X40496620Y-55248680D03*
X40496620Y-58248680D03*
D13*
X8921620Y-44556680D03*
X10421620Y-44556680D03*
X16811120Y-47858680D03*
X15311120Y-47858680D03*
X16811120Y-41572180D03*
X15311120Y-41572180D03*
X16835120Y-43604180D03*
X15335120Y-43604180D03*
X15081120Y-51478180D03*
X16581120Y-51478180D03*
X15335120Y-55796180D03*
X16835120Y-55796180D03*
X15311120Y-49700180D03*
X16811120Y-49700180D03*
X16811120Y-57828180D03*
X15311120Y-57828180D03*
D14*
X20645120Y-39286180D03*
X24045120Y-39286180D03*
D15*
X10421620Y-46466680D03*
X9121620Y-46466680D03*
X10421620Y-48366680D03*
X9771620Y-46466680D03*
X9121620Y-48366680D03*
D16*
X14477120Y-53510180D03*
X17747120Y-53510180D03*
D17*
X20010120Y-43756580D03*
X20010120Y-45255180D03*
X20010120Y-46756320D03*
X20010120Y-48254920D03*
X20010120Y-49756060D03*
X20010120Y-51254660D03*
X20010120Y-52755800D03*
X20010120Y-54254400D03*
X20010120Y-55755540D03*
X20010120Y-57254140D03*
X36012120Y-57254140D03*
X36012120Y-55755540D03*
X36012120Y-54254400D03*
X36012120Y-52755800D03*
X36012120Y-51254660D03*
X36012120Y-49756060D03*
X36012120Y-48254920D03*
X36012120Y-46756320D03*
X36012120Y-45255180D03*
X36012120Y-43756580D03*
M02*
