%TF.GenerationSoftware,KiCad,Pcbnew,4.0.5-e0-6337~49~ubuntu16.04.1*%
%TF.CreationDate,2017-02-23T19:58:10-08:00*%
%TF.ProjectId,fgpmmopa6h-gps-breakout,6667706D6D6F706136682D6770732D62,v1.0*%
%TF.FileFunction,Legend,Bot*%
%FSLAX46Y46*%
G04 Gerber Fmt 4.6, Leading zero omitted, Abs format (unit mm)*
G04 Created by KiCad (PCBNEW 4.0.5-e0-6337~49~ubuntu16.04.1) date Thu Feb 23 19:58:10 2017*
%MOMM*%
%LPD*%
G01*
G04 APERTURE LIST*
%ADD10C,0.350000*%
%ADD11C,0.152400*%
%ADD12C,0.150000*%
%ADD13R,5.252400X2.652400*%
%ADD14C,10.352400*%
%ADD15R,2.184400X1.879600*%
%ADD16O,2.184400X1.879600*%
G04 APERTURE END LIST*
D10*
D11*
X169245037Y-104379486D02*
X169051513Y-105056819D01*
X168857990Y-104573010D01*
X168664466Y-105056819D01*
X168470942Y-104379486D01*
X168083894Y-105056819D02*
X168083894Y-104379486D01*
X168083894Y-104040819D02*
X168132275Y-104089200D01*
X168083894Y-104137581D01*
X168035513Y-104089200D01*
X168083894Y-104040819D01*
X168083894Y-104137581D01*
X167164656Y-105008438D02*
X167261418Y-105056819D01*
X167454941Y-105056819D01*
X167551703Y-105008438D01*
X167600084Y-104960057D01*
X167648465Y-104863295D01*
X167648465Y-104573010D01*
X167600084Y-104476248D01*
X167551703Y-104427867D01*
X167454941Y-104379486D01*
X167261418Y-104379486D01*
X167164656Y-104427867D01*
X166729227Y-105056819D02*
X166729227Y-104040819D01*
X166632465Y-104669771D02*
X166342180Y-105056819D01*
X166342180Y-104379486D02*
X166729227Y-104766533D01*
X165519704Y-105008438D02*
X165616466Y-105056819D01*
X165809989Y-105056819D01*
X165906751Y-105008438D01*
X165955132Y-104911676D01*
X165955132Y-104524629D01*
X165906751Y-104427867D01*
X165809989Y-104379486D01*
X165616466Y-104379486D01*
X165519704Y-104427867D01*
X165471323Y-104524629D01*
X165471323Y-104621390D01*
X165955132Y-104718152D01*
X165035894Y-105056819D02*
X165035894Y-104379486D01*
X165035894Y-104573010D02*
X164987513Y-104476248D01*
X164939132Y-104427867D01*
X164842370Y-104379486D01*
X164745609Y-104379486D01*
X164406942Y-105056819D02*
X164406942Y-104040819D01*
X164406942Y-104427867D02*
X164310180Y-104379486D01*
X164116657Y-104379486D01*
X164019895Y-104427867D01*
X163971514Y-104476248D01*
X163923133Y-104573010D01*
X163923133Y-104863295D01*
X163971514Y-104960057D01*
X164019895Y-105008438D01*
X164116657Y-105056819D01*
X164310180Y-105056819D01*
X164406942Y-105008438D01*
X163342561Y-105056819D02*
X163439323Y-105008438D01*
X163487704Y-104960057D01*
X163536085Y-104863295D01*
X163536085Y-104573010D01*
X163487704Y-104476248D01*
X163439323Y-104427867D01*
X163342561Y-104379486D01*
X163197419Y-104379486D01*
X163100657Y-104427867D01*
X163052276Y-104476248D01*
X163003895Y-104573010D01*
X163003895Y-104863295D01*
X163052276Y-104960057D01*
X163100657Y-105008438D01*
X163197419Y-105056819D01*
X163342561Y-105056819D01*
X162665228Y-105056819D02*
X162133038Y-104379486D01*
X162665228Y-104379486D02*
X162133038Y-105056819D01*
X161745990Y-104960057D02*
X161697609Y-105008438D01*
X161745990Y-105056819D01*
X161794371Y-105008438D01*
X161745990Y-104960057D01*
X161745990Y-105056819D01*
X161262180Y-104379486D02*
X161262180Y-105056819D01*
X161262180Y-104476248D02*
X161213799Y-104427867D01*
X161117037Y-104379486D01*
X160971895Y-104379486D01*
X160875133Y-104427867D01*
X160826752Y-104524629D01*
X160826752Y-105056819D01*
X159955895Y-105008438D02*
X160052657Y-105056819D01*
X160246180Y-105056819D01*
X160342942Y-105008438D01*
X160391323Y-104911676D01*
X160391323Y-104524629D01*
X160342942Y-104427867D01*
X160246180Y-104379486D01*
X160052657Y-104379486D01*
X159955895Y-104427867D01*
X159907514Y-104524629D01*
X159907514Y-104621390D01*
X160391323Y-104718152D01*
X159617228Y-104379486D02*
X159230180Y-104379486D01*
X159472085Y-104040819D02*
X159472085Y-104911676D01*
X159423704Y-105008438D01*
X159326942Y-105056819D01*
X159230180Y-105056819D01*
X160608400Y-100477300D02*
X159108400Y-100477300D01*
X160608400Y-97227300D02*
X160608400Y-100477300D01*
X160608400Y-84727300D02*
X159108400Y-84727300D01*
X160608400Y-84977300D02*
X160608400Y-84727300D01*
X160608400Y-88227300D02*
X160608400Y-84977300D01*
X160641787Y-88262806D02*
G75*
G02X160608400Y-97227300I-4783387J-4464494D01*
G01*
X151575013Y-96941794D02*
G75*
G02X151608400Y-87977300I4783387J4464494D01*
G01*
X151608400Y-96977300D02*
X151608400Y-100227300D01*
X151608400Y-100227300D02*
X151608400Y-100477300D01*
X151608400Y-100477300D02*
X153108400Y-100477300D01*
X151608400Y-87977300D02*
X151608400Y-84727300D01*
X151608400Y-84727300D02*
X153108400Y-84727300D01*
D12*
X157233785Y-103433571D02*
X157090928Y-103481190D01*
X157043309Y-103528810D01*
X156995690Y-103624048D01*
X156995690Y-103766905D01*
X157043309Y-103862143D01*
X157090928Y-103909762D01*
X157186166Y-103957381D01*
X157567119Y-103957381D01*
X157567119Y-102957381D01*
X157233785Y-102957381D01*
X157138547Y-103005000D01*
X157090928Y-103052619D01*
X157043309Y-103147857D01*
X157043309Y-103243095D01*
X157090928Y-103338333D01*
X157138547Y-103385952D01*
X157233785Y-103433571D01*
X157567119Y-103433571D01*
X156614738Y-103671667D02*
X156138547Y-103671667D01*
X156709976Y-103957381D02*
X156376643Y-102957381D01*
X156043309Y-103957381D01*
X155852833Y-102957381D02*
X155281404Y-102957381D01*
X155567119Y-103957381D02*
X155567119Y-102957381D01*
X154424261Y-103957381D02*
X154995690Y-103957381D01*
X154709976Y-103957381D02*
X154709976Y-102957381D01*
X154805214Y-103100238D01*
X154900452Y-103195476D01*
X154995690Y-103243095D01*
%LPC*%
D13*
X156108400Y-85077300D03*
X156108400Y-100377300D03*
D14*
X156108400Y-92727300D03*
D15*
X130810000Y-81280000D03*
D16*
X130810000Y-83820000D03*
X130810000Y-86360000D03*
X130810000Y-88900000D03*
X130810000Y-91440000D03*
X130810000Y-93980000D03*
X130810000Y-96520000D03*
X130810000Y-99060000D03*
X130810000Y-101600000D03*
X130810000Y-104140000D03*
M02*
