M48
;DRILL file {KiCad 4.0.5-e0-6337~49~ubuntu16.04.1} date Mon Aug 14 18:45:29 2017
;FORMAT={-:-/ absolute / metric / decimal}
FMAT,2
METRIC,TZ
T1C0.330
T2C1.016
%
G90
G05
M71
T1
X9.772Y-45.509
X10.676Y-40.378
X11.565Y-44.557
X11.857Y-58.831
X11.882Y-48.367
X11.882Y-55.86
X13.025Y-42.398
X13.559Y-53.536
X13.851Y-54.78
X14.244Y-51.491
X15.311Y-40.239
X15.311Y-42.588
X15.311Y-46.525
X18.042Y-57.828
X18.232Y-46.716
X18.296Y-55.72
X18.435Y-58.831
X19.248Y-39.223
X21.852Y-53.193
X21.915Y-46.843
X21.915Y-46.843
X27.783Y-39.197
X28.164Y-58.184
X33.853Y-55.415
X34.171Y-45.255
X37.727Y-45.255
X38.108Y-58.4
X38.171Y-55.288
X38.298Y-53.51
X42.553Y-58.273
X42.68Y-55.225
T2
X2.865Y-37.254
X2.865Y-39.794
X2.865Y-42.334
X2.865Y-44.874
X2.865Y-47.414
X2.865Y-49.954
X2.865Y-52.494
X2.865Y-55.034
X2.865Y-57.574
X2.865Y-60.114
T0
M30
