%TF.GenerationSoftware,KiCad,Pcbnew,4.0.5-e0-6337~49~ubuntu16.04.1*%
%TF.CreationDate,2017-03-30T12:13:01-07:00*%
%TF.ProjectId,fgpmmopa6h-gps-breakout,6667706D6D6F706136682D6770732D62,v1.0*%
%TF.FileFunction,Copper,L1,Top,Signal*%
%FSLAX46Y46*%
G04 Gerber Fmt 4.6, Leading zero omitted, Abs format (unit mm)*
G04 Created by KiCad (PCBNEW 4.0.5-e0-6337~49~ubuntu16.04.1) date Thu Mar 30 12:13:01 2017*
%MOMM*%
%LPD*%
G01*
G04 APERTURE LIST*
%ADD10C,0.350000*%
%ADD11R,1.000000X1.000000*%
%ADD12R,2.200000X1.000000*%
%ADD13R,0.800000X0.750000*%
%ADD14R,0.800000X1.700000*%
%ADD15R,0.420000X0.600000*%
%ADD16R,2.032000X1.727200*%
%ADD17O,2.032000X1.727200*%
%ADD18R,0.910000X1.220000*%
%ADD19R,1.998980X1.000760*%
%ADD20C,0.685800*%
%ADD21C,0.254000*%
%ADD22C,0.508000*%
%ADD23C,0.330200*%
%ADD24C,0.350000*%
G04 APERTURE END LIST*
D10*
D11*
X38996620Y-56748680D03*
D12*
X40496620Y-55248680D03*
X40496620Y-58248680D03*
D13*
X8921620Y-44556680D03*
X10421620Y-44556680D03*
X16811120Y-47858680D03*
X15311120Y-47858680D03*
X16811120Y-41572180D03*
X15311120Y-41572180D03*
X16835120Y-43604180D03*
X15335120Y-43604180D03*
X15081120Y-51478180D03*
X16581120Y-51478180D03*
X15335120Y-55796180D03*
X16835120Y-55796180D03*
X15311120Y-49700180D03*
X16811120Y-49700180D03*
X16811120Y-57828180D03*
X15311120Y-57828180D03*
D14*
X20645120Y-39286180D03*
X24045120Y-39286180D03*
D15*
X10421620Y-46466680D03*
X9121620Y-46466680D03*
X10421620Y-48366680D03*
X9771620Y-46466680D03*
X9121620Y-48366680D03*
D16*
X2865120Y-37254180D03*
D17*
X2865120Y-39794180D03*
X2865120Y-42334180D03*
X2865120Y-44874180D03*
X2865120Y-47414180D03*
X2865120Y-49954180D03*
X2865120Y-52494180D03*
X2865120Y-55034180D03*
X2865120Y-57574180D03*
X2865120Y-60114180D03*
D18*
X14477120Y-53510180D03*
X17747120Y-53510180D03*
D19*
X20010120Y-43756580D03*
X20010120Y-45255180D03*
X20010120Y-46756320D03*
X20010120Y-48254920D03*
X20010120Y-49756060D03*
X20010120Y-51254660D03*
X20010120Y-52755800D03*
X20010120Y-54254400D03*
X20010120Y-55755540D03*
X20010120Y-57254140D03*
X36012120Y-57254140D03*
X36012120Y-55755540D03*
X36012120Y-54254400D03*
X36012120Y-52755800D03*
X36012120Y-51254660D03*
X36012120Y-49756060D03*
X36012120Y-48254920D03*
X36012120Y-46756320D03*
X36012120Y-45255180D03*
X36012120Y-43756580D03*
D20*
X14244320Y-51490880D03*
X21915120Y-46842680D03*
X11564620Y-44556680D03*
X42552620Y-58272680D03*
X42679620Y-55224680D03*
X38107620Y-58399680D03*
X38171120Y-55288180D03*
X15311120Y-40238680D03*
X15311120Y-46525180D03*
X18232120Y-46715680D03*
X15311120Y-42588180D03*
X19248120Y-39222680D03*
X37726620Y-45255180D03*
X34170620Y-45255180D03*
X21915120Y-46842680D03*
X21851620Y-53192680D03*
X9771620Y-45509180D03*
X28163520Y-58183780D03*
X27782520Y-39197280D03*
X11882120Y-55859680D03*
X11882120Y-48366680D03*
X38298120Y-53510180D03*
X13850620Y-54780180D03*
X18041620Y-57828180D03*
X33853120Y-55415180D03*
X10675620Y-40378380D03*
X18295620Y-55719980D03*
X13558520Y-53535580D03*
X13025120Y-42397680D03*
X18435320Y-58831480D03*
X11856720Y-58831480D03*
D21*
X36012120Y-57254140D02*
X38491160Y-57254140D01*
X38491160Y-57254140D02*
X38996620Y-56748680D01*
X15081120Y-51478180D02*
X14257020Y-51478180D01*
X14257020Y-51478180D02*
X14244320Y-51490880D01*
X10421620Y-44556680D02*
X11564620Y-44556680D01*
X40496620Y-58248680D02*
X42528620Y-58248680D01*
X42528620Y-58248680D02*
X42552620Y-58272680D01*
X40496620Y-55248680D02*
X42655620Y-55248680D01*
X42655620Y-55248680D02*
X42679620Y-55224680D01*
X40496620Y-58248680D02*
X38258620Y-58248680D01*
X38258620Y-58248680D02*
X38107620Y-58399680D01*
X36012120Y-55755540D02*
X37703760Y-55755540D01*
X37703760Y-55755540D02*
X38171120Y-55288180D01*
X15311120Y-41572180D02*
X15311120Y-40238680D01*
X10421620Y-44556680D02*
X10421620Y-43413680D01*
X10421620Y-43413680D02*
X10358120Y-43350180D01*
X15311120Y-47858680D02*
X15311120Y-46525180D01*
X20010120Y-46756320D02*
X18272760Y-46756320D01*
X18272760Y-46756320D02*
X18232120Y-46715680D01*
X15311120Y-41572180D02*
X15311120Y-42588180D01*
X20645120Y-39286180D02*
X19311620Y-39286180D01*
X19311620Y-39286180D02*
X19248120Y-39222680D01*
X36012120Y-45255180D02*
X37726620Y-45255180D01*
X36012120Y-45255180D02*
X34170620Y-45255180D01*
X20010120Y-46756320D02*
X21828760Y-46756320D01*
X21828760Y-46756320D02*
X21915120Y-46842680D01*
X20010120Y-54254400D02*
X21263610Y-54254400D01*
X21263610Y-54254400D02*
X21851620Y-53666390D01*
X21851620Y-53666390D02*
X21851620Y-53192680D01*
X9771620Y-45509180D02*
X9771620Y-45206680D01*
X9771620Y-46466680D02*
X9771620Y-45509180D01*
X9771620Y-45206680D02*
X10421620Y-44556680D01*
X23324820Y-48239680D02*
X23464520Y-48099980D01*
X23464520Y-48099980D02*
X27782520Y-43781980D01*
X28163520Y-52798980D02*
X23464520Y-48099980D01*
X28163520Y-58183780D02*
X28163520Y-52798980D01*
X27782520Y-43781980D02*
X27782520Y-39197280D01*
X21572220Y-48239680D02*
X22994620Y-48239680D01*
X21278850Y-48239680D02*
X21572220Y-48239680D01*
X21572220Y-48239680D02*
X23324820Y-48239680D01*
X20010120Y-48254920D02*
X21263610Y-48254920D01*
X21263610Y-48254920D02*
X21278850Y-48239680D01*
X16811120Y-47858680D02*
X19613880Y-47858680D01*
X19613880Y-47858680D02*
X20010120Y-48254920D01*
X14041120Y-55923180D02*
X11945620Y-55923180D01*
X11945620Y-55923180D02*
X11882120Y-55859680D01*
X14041120Y-55923180D02*
X15208120Y-55923180D01*
X15208120Y-55923180D02*
X15335120Y-55796180D01*
X20010120Y-43756580D02*
X16987520Y-43756580D01*
X16987520Y-43756580D02*
X16835120Y-43604180D01*
X11882120Y-48366680D02*
X13025120Y-47223680D01*
X16835120Y-43604180D02*
X16835120Y-41596180D01*
X16327120Y-45445680D02*
X16835120Y-44937680D01*
X16835120Y-44937680D02*
X16835120Y-43604180D01*
X14104620Y-45445680D02*
X16327120Y-45445680D01*
X13025120Y-46525180D02*
X14104620Y-45445680D01*
X13025120Y-47223680D02*
X13025120Y-46525180D01*
X10421620Y-48366680D02*
X11882120Y-48366680D01*
X11247120Y-52494180D02*
X14041120Y-49700180D01*
X14041120Y-49700180D02*
X15311120Y-49700180D01*
X2865120Y-52494180D02*
X11247120Y-52494180D01*
X15444120Y-48938180D02*
X17938750Y-48938180D01*
X17938750Y-48938180D02*
X18756630Y-49756060D01*
X18756630Y-49756060D02*
X20010120Y-49756060D01*
X15311120Y-49700180D02*
X15311120Y-49071180D01*
X15311120Y-49071180D02*
X15444120Y-48938180D01*
X37553900Y-54254400D02*
X38298120Y-53510180D01*
X37553900Y-54254400D02*
X36012120Y-54254400D01*
X35966400Y-54208680D02*
X36012120Y-54254400D01*
X2865120Y-55034180D02*
X13596620Y-55034180D01*
X13596620Y-55034180D02*
X13850620Y-54780180D01*
X2865120Y-57574180D02*
X15057120Y-57574180D01*
X15057120Y-57574180D02*
X15311120Y-57828180D01*
X16581120Y-51478180D02*
X16581120Y-49930180D01*
X16581120Y-49930180D02*
X16811120Y-49700180D01*
X18041620Y-57828180D02*
X16811120Y-57828180D01*
X36012120Y-52755800D02*
X34758630Y-52755800D01*
X34758630Y-52755800D02*
X33853120Y-53661310D01*
X33853120Y-53661310D02*
X33853120Y-55415180D01*
X10091420Y-39794180D02*
X10675620Y-40378380D01*
X18295620Y-55719980D02*
X19974560Y-55719980D01*
X19974560Y-55719980D02*
X20010120Y-55755540D01*
X2865120Y-39794180D02*
X10091420Y-39794180D01*
X24045120Y-39286180D02*
X24045120Y-42473670D01*
X24045120Y-42473670D02*
X21263610Y-45255180D01*
X21263610Y-45255180D02*
X20010120Y-45255180D01*
X14477120Y-53510180D02*
X13583920Y-53510180D01*
X13583920Y-53510180D02*
X13558520Y-53535580D01*
X4135120Y-42334180D02*
X12961620Y-42334180D01*
X12961620Y-42334180D02*
X13025120Y-42397680D01*
X2865120Y-42334180D02*
X4135120Y-42334180D01*
X18435320Y-58831480D02*
X18981420Y-58285380D01*
X18981420Y-58285380D02*
X19857720Y-58285380D01*
X19857720Y-58285380D02*
X20010120Y-58132980D01*
X20010120Y-58132980D02*
X20010120Y-57254140D01*
X18981420Y-57254140D02*
X20010120Y-57254140D01*
X18737580Y-57254140D02*
X18981420Y-57254140D01*
X18435320Y-58831480D02*
X18435320Y-58828940D01*
X17279620Y-55796180D02*
X18737580Y-57254140D01*
X16835120Y-55796180D02*
X17279620Y-55796180D01*
X19758660Y-57002680D02*
X20010120Y-57254140D01*
X17747120Y-53510180D02*
X17747120Y-54884180D01*
X17747120Y-54884180D02*
X16835120Y-55796180D01*
X11856720Y-58831480D02*
X10574020Y-60114180D01*
X10574020Y-60114180D02*
X2865120Y-60114180D01*
X17167120Y-55464180D02*
X16835120Y-55796180D01*
X16875760Y-55755540D02*
X16835120Y-55796180D01*
X9342120Y-47350680D02*
X9121620Y-47130180D01*
X9121620Y-47130180D02*
X9121620Y-46466680D01*
X10091620Y-47350680D02*
X9342120Y-47350680D01*
X10421620Y-46466680D02*
X10421620Y-47020680D01*
X10421620Y-47020680D02*
X10091620Y-47350680D01*
D22*
X8834120Y-45527180D02*
X8834120Y-46179180D01*
X8834120Y-46179180D02*
X9053619Y-46398679D01*
X8921620Y-44556680D02*
X8921620Y-45439680D01*
X8921620Y-45439680D02*
X8834120Y-45527180D01*
X2865120Y-44874180D02*
X8604120Y-44874180D01*
X8604120Y-44874180D02*
X8921620Y-44556680D01*
D21*
G36*
X41685040Y-35590162D02*
X42273824Y-35983576D01*
X42667239Y-36572362D01*
X42819320Y-37336924D01*
X42819320Y-60056836D01*
X42667239Y-60821398D01*
X42273824Y-61410184D01*
X41685040Y-61803598D01*
X40984322Y-61942980D01*
X2935164Y-61942980D01*
X2170602Y-61790899D01*
X1581816Y-61397484D01*
X1188402Y-60808700D01*
X1036320Y-60044135D01*
X1036320Y-52494180D01*
X1181775Y-52494180D01*
X1295849Y-53067669D01*
X1620705Y-53553850D01*
X1935486Y-53764180D01*
X1620705Y-53974510D01*
X1295849Y-54460691D01*
X1181775Y-55034180D01*
X1295849Y-55607669D01*
X1620705Y-56093850D01*
X1935486Y-56304180D01*
X1620705Y-56514510D01*
X1295849Y-57000691D01*
X1181775Y-57574180D01*
X1295849Y-58147669D01*
X1620705Y-58633850D01*
X1935486Y-58844180D01*
X1620705Y-59054510D01*
X1295849Y-59540691D01*
X1181775Y-60114180D01*
X1295849Y-60687669D01*
X1620705Y-61173850D01*
X2106886Y-61498706D01*
X2680375Y-61612780D01*
X3049865Y-61612780D01*
X3623354Y-61498706D01*
X4109535Y-61173850D01*
X4308432Y-60876180D01*
X10574020Y-60876180D01*
X10865625Y-60818176D01*
X11112835Y-60652995D01*
X11956364Y-59809467D01*
X12050383Y-59809549D01*
X12409932Y-59660987D01*
X12685260Y-59386139D01*
X12834450Y-59026850D01*
X12834789Y-58637817D01*
X12710156Y-58336180D01*
X14288706Y-58336180D01*
X14307958Y-58438497D01*
X14447030Y-58654621D01*
X14659230Y-58799611D01*
X14911120Y-58850620D01*
X15711120Y-58850620D01*
X15946437Y-58806342D01*
X16061098Y-58732560D01*
X16159230Y-58799611D01*
X16411120Y-58850620D01*
X17211120Y-58850620D01*
X17446437Y-58806342D01*
X17457448Y-58799257D01*
X17457251Y-59025143D01*
X17605813Y-59384692D01*
X17880661Y-59660020D01*
X18239950Y-59809210D01*
X18628983Y-59809549D01*
X18988532Y-59660987D01*
X19263860Y-59386139D01*
X19404525Y-59047380D01*
X19857720Y-59047380D01*
X20149325Y-58989376D01*
X20396535Y-58824195D01*
X20548935Y-58671795D01*
X20714116Y-58424585D01*
X20718616Y-58401960D01*
X21009610Y-58401960D01*
X21244927Y-58357682D01*
X21461051Y-58218610D01*
X21606041Y-58006410D01*
X21657050Y-57754520D01*
X21657050Y-56753760D01*
X21612772Y-56518443D01*
X21605984Y-56507894D01*
X21606041Y-56507810D01*
X21657050Y-56255920D01*
X21657050Y-55255160D01*
X21612772Y-55019843D01*
X21597176Y-54995606D01*
X21644610Y-54881090D01*
X21644610Y-54540150D01*
X21485860Y-54381400D01*
X20137120Y-54381400D01*
X20137120Y-54401400D01*
X19883120Y-54401400D01*
X19883120Y-54381400D01*
X19863120Y-54381400D01*
X19863120Y-54127400D01*
X19883120Y-54127400D01*
X19883120Y-54107400D01*
X20137120Y-54107400D01*
X20137120Y-54127400D01*
X21485860Y-54127400D01*
X21644610Y-53968650D01*
X21644610Y-53627710D01*
X21599200Y-53518082D01*
X21606041Y-53508070D01*
X21657050Y-53256180D01*
X21657050Y-52255420D01*
X21612772Y-52020103D01*
X21605142Y-52008246D01*
X21606041Y-52006930D01*
X21657050Y-51755040D01*
X21657050Y-50754280D01*
X21612772Y-50518963D01*
X21605984Y-50508414D01*
X21606041Y-50508330D01*
X21657050Y-50256440D01*
X21657050Y-49255680D01*
X21612772Y-49020363D01*
X21605142Y-49008506D01*
X21606041Y-49007190D01*
X21607157Y-49001680D01*
X23288590Y-49001680D01*
X27401520Y-53114611D01*
X27401520Y-57562697D01*
X27334980Y-57629121D01*
X27185790Y-57988410D01*
X27185451Y-58377443D01*
X27334013Y-58736992D01*
X27608861Y-59012320D01*
X27968150Y-59161510D01*
X28357183Y-59161849D01*
X28716732Y-59013287D01*
X28992060Y-58738439D01*
X29076772Y-58534430D01*
X38761620Y-58534430D01*
X38761620Y-58874990D01*
X38858293Y-59108379D01*
X39036922Y-59287007D01*
X39270311Y-59383680D01*
X40210870Y-59383680D01*
X40369620Y-59224930D01*
X40369620Y-58375680D01*
X40623620Y-58375680D01*
X40623620Y-59224930D01*
X40782370Y-59383680D01*
X41722929Y-59383680D01*
X41956318Y-59287007D01*
X42134947Y-59108379D01*
X42231620Y-58874990D01*
X42231620Y-58534430D01*
X42072870Y-58375680D01*
X40623620Y-58375680D01*
X40369620Y-58375680D01*
X38920370Y-58375680D01*
X38761620Y-58534430D01*
X29076772Y-58534430D01*
X29141250Y-58379150D01*
X29141589Y-57990117D01*
X28993027Y-57630568D01*
X28925520Y-57562943D01*
X28925520Y-55608843D01*
X32875051Y-55608843D01*
X33023613Y-55968392D01*
X33298461Y-56243720D01*
X33657750Y-56392910D01*
X34046783Y-56393249D01*
X34377630Y-56256546D01*
X34377630Y-56382230D01*
X34423040Y-56491858D01*
X34416199Y-56501870D01*
X34365190Y-56753760D01*
X34365190Y-57754520D01*
X34409468Y-57989837D01*
X34548540Y-58205961D01*
X34760740Y-58350951D01*
X35012630Y-58401960D01*
X37011610Y-58401960D01*
X37246927Y-58357682D01*
X37463051Y-58218610D01*
X37601393Y-58016140D01*
X38491160Y-58016140D01*
X38761620Y-57962342D01*
X38761620Y-57962930D01*
X38920370Y-58121680D01*
X40369620Y-58121680D01*
X40369620Y-57272430D01*
X40623620Y-57272430D01*
X40623620Y-58121680D01*
X42072870Y-58121680D01*
X42231620Y-57962930D01*
X42231620Y-57622370D01*
X42134947Y-57388981D01*
X41956318Y-57210353D01*
X41722929Y-57113680D01*
X40782370Y-57113680D01*
X40623620Y-57272430D01*
X40369620Y-57272430D01*
X40210870Y-57113680D01*
X40144060Y-57113680D01*
X40144060Y-56383680D01*
X40210870Y-56383680D01*
X40369620Y-56224930D01*
X40369620Y-55375680D01*
X40623620Y-55375680D01*
X40623620Y-56224930D01*
X40782370Y-56383680D01*
X41722929Y-56383680D01*
X41956318Y-56287007D01*
X42134947Y-56108379D01*
X42231620Y-55874990D01*
X42231620Y-55534430D01*
X42072870Y-55375680D01*
X40623620Y-55375680D01*
X40369620Y-55375680D01*
X38920370Y-55375680D01*
X38761620Y-55534430D01*
X38761620Y-55601240D01*
X38496620Y-55601240D01*
X38261303Y-55645518D01*
X38045179Y-55784590D01*
X37900189Y-55996790D01*
X37849180Y-56248680D01*
X37849180Y-56492140D01*
X37601084Y-56492140D01*
X37646610Y-56382230D01*
X37646610Y-56041290D01*
X37487860Y-55882540D01*
X36139120Y-55882540D01*
X36139120Y-55902540D01*
X35885120Y-55902540D01*
X35885120Y-55882540D01*
X35865120Y-55882540D01*
X35865120Y-55628540D01*
X35885120Y-55628540D01*
X35885120Y-55608540D01*
X36139120Y-55608540D01*
X36139120Y-55628540D01*
X37487860Y-55628540D01*
X37646610Y-55469790D01*
X37646610Y-55128850D01*
X37600545Y-55017640D01*
X37608041Y-55006670D01*
X37608260Y-55005587D01*
X37845505Y-54958396D01*
X38092715Y-54793215D01*
X38263560Y-54622370D01*
X38761620Y-54622370D01*
X38761620Y-54962930D01*
X38920370Y-55121680D01*
X40369620Y-55121680D01*
X40369620Y-54272430D01*
X40623620Y-54272430D01*
X40623620Y-55121680D01*
X42072870Y-55121680D01*
X42231620Y-54962930D01*
X42231620Y-54622370D01*
X42134947Y-54388981D01*
X41956318Y-54210353D01*
X41722929Y-54113680D01*
X40782370Y-54113680D01*
X40623620Y-54272430D01*
X40369620Y-54272430D01*
X40210870Y-54113680D01*
X39270311Y-54113680D01*
X39036922Y-54210353D01*
X38858293Y-54388981D01*
X38761620Y-54622370D01*
X38263560Y-54622370D01*
X38397763Y-54488167D01*
X38491783Y-54488249D01*
X38851332Y-54339687D01*
X39126660Y-54064839D01*
X39275850Y-53705550D01*
X39276189Y-53316517D01*
X39127627Y-52956968D01*
X38852779Y-52681640D01*
X38493490Y-52532450D01*
X38104457Y-52532111D01*
X37744908Y-52680673D01*
X37659050Y-52766381D01*
X37659050Y-52255420D01*
X37614772Y-52020103D01*
X37607142Y-52008246D01*
X37608041Y-52006930D01*
X37659050Y-51755040D01*
X37659050Y-50754280D01*
X37614772Y-50518963D01*
X37607984Y-50508414D01*
X37608041Y-50508330D01*
X37659050Y-50256440D01*
X37659050Y-49255680D01*
X37614772Y-49020363D01*
X37607142Y-49008506D01*
X37608041Y-49007190D01*
X37659050Y-48755300D01*
X37659050Y-47754540D01*
X37614772Y-47519223D01*
X37607984Y-47508674D01*
X37608041Y-47508590D01*
X37659050Y-47256700D01*
X37659050Y-46255940D01*
X37614772Y-46020623D01*
X37599176Y-45996386D01*
X37646610Y-45881870D01*
X37646610Y-45540930D01*
X37487860Y-45382180D01*
X36139120Y-45382180D01*
X36139120Y-45402180D01*
X35885120Y-45402180D01*
X35885120Y-45382180D01*
X34536380Y-45382180D01*
X34377630Y-45540930D01*
X34377630Y-45881870D01*
X34423695Y-45993080D01*
X34416199Y-46004050D01*
X34365190Y-46255940D01*
X34365190Y-47256700D01*
X34409468Y-47492017D01*
X34416256Y-47502566D01*
X34416199Y-47502650D01*
X34365190Y-47754540D01*
X34365190Y-48755300D01*
X34409468Y-48990617D01*
X34417098Y-49002474D01*
X34416199Y-49003790D01*
X34365190Y-49255680D01*
X34365190Y-50256440D01*
X34409468Y-50491757D01*
X34416256Y-50502306D01*
X34416199Y-50502390D01*
X34365190Y-50754280D01*
X34365190Y-51755040D01*
X34409468Y-51990357D01*
X34417098Y-52002214D01*
X34416199Y-52003530D01*
X34396940Y-52098633D01*
X34219815Y-52216984D01*
X33314305Y-53122495D01*
X33149124Y-53369705D01*
X33091120Y-53661310D01*
X33091120Y-54794097D01*
X33024580Y-54860521D01*
X32875390Y-55219810D01*
X32875051Y-55608843D01*
X28925520Y-55608843D01*
X28925520Y-52798980D01*
X28916931Y-52755800D01*
X28867517Y-52507376D01*
X28702336Y-52260165D01*
X24542150Y-48099980D01*
X28321335Y-44320795D01*
X28486516Y-44073585D01*
X28491568Y-44048185D01*
X28544520Y-43781980D01*
X28544520Y-43256200D01*
X34365190Y-43256200D01*
X34365190Y-44256960D01*
X34409468Y-44492277D01*
X34424424Y-44515519D01*
X34377630Y-44628490D01*
X34377630Y-44969430D01*
X34536380Y-45128180D01*
X35885120Y-45128180D01*
X35885120Y-45108180D01*
X36139120Y-45108180D01*
X36139120Y-45128180D01*
X37487860Y-45128180D01*
X37646610Y-44969430D01*
X37646610Y-44628490D01*
X37601200Y-44518862D01*
X37608041Y-44508850D01*
X37659050Y-44256960D01*
X37659050Y-43256200D01*
X37614772Y-43020883D01*
X37475700Y-42804759D01*
X37263500Y-42659769D01*
X37011610Y-42608760D01*
X35012630Y-42608760D01*
X34777313Y-42653038D01*
X34561189Y-42792110D01*
X34416199Y-43004310D01*
X34365190Y-43256200D01*
X28544520Y-43256200D01*
X28544520Y-39818363D01*
X28611060Y-39751939D01*
X28760250Y-39392650D01*
X28760589Y-39003617D01*
X28612027Y-38644068D01*
X28337179Y-38368740D01*
X27977890Y-38219550D01*
X27588857Y-38219211D01*
X27229308Y-38367773D01*
X26953980Y-38642621D01*
X26804790Y-39001910D01*
X26804451Y-39390943D01*
X26953013Y-39750492D01*
X27020520Y-39818117D01*
X27020520Y-43466350D01*
X23009190Y-47477680D01*
X21605396Y-47477680D01*
X21644610Y-47383010D01*
X21644610Y-47042070D01*
X21485860Y-46883320D01*
X20137120Y-46883320D01*
X20137120Y-46903320D01*
X19883120Y-46903320D01*
X19883120Y-46883320D01*
X18534380Y-46883320D01*
X18375630Y-47042070D01*
X18375630Y-47096680D01*
X17716677Y-47096680D01*
X17675210Y-47032239D01*
X17463010Y-46887249D01*
X17211120Y-46836240D01*
X16411120Y-46836240D01*
X16175803Y-46880518D01*
X16072474Y-46947009D01*
X16070818Y-46945353D01*
X15837429Y-46848680D01*
X15596870Y-46848680D01*
X15438120Y-47007430D01*
X15438120Y-47731680D01*
X15458120Y-47731680D01*
X15458120Y-47985680D01*
X15438120Y-47985680D01*
X15438120Y-48005680D01*
X15184120Y-48005680D01*
X15184120Y-47985680D01*
X14434870Y-47985680D01*
X14276120Y-48144430D01*
X14276120Y-48359990D01*
X14372793Y-48593379D01*
X14551422Y-48772007D01*
X14579831Y-48783774D01*
X14459679Y-48861090D01*
X14407006Y-48938180D01*
X14041120Y-48938180D01*
X13749515Y-48996184D01*
X13713329Y-49020363D01*
X13502305Y-49161364D01*
X10931490Y-51732180D01*
X4308432Y-51732180D01*
X4109535Y-51434510D01*
X3800051Y-51227719D01*
X4215852Y-50856216D01*
X4469829Y-50328971D01*
X4472478Y-50313206D01*
X4351337Y-50081180D01*
X2992120Y-50081180D01*
X2992120Y-50101180D01*
X2738120Y-50101180D01*
X2738120Y-50081180D01*
X1378903Y-50081180D01*
X1257762Y-50313206D01*
X1260411Y-50328971D01*
X1514388Y-50856216D01*
X1930189Y-51227719D01*
X1620705Y-51434510D01*
X1295849Y-51920691D01*
X1181775Y-52494180D01*
X1036320Y-52494180D01*
X1036320Y-37324225D01*
X1188402Y-36559660D01*
X1201680Y-36539788D01*
X1201680Y-38117780D01*
X1245958Y-38353097D01*
X1385030Y-38569221D01*
X1597230Y-38714211D01*
X1638559Y-38722580D01*
X1620705Y-38734510D01*
X1295849Y-39220691D01*
X1181775Y-39794180D01*
X1295849Y-40367669D01*
X1620705Y-40853850D01*
X1935486Y-41064180D01*
X1620705Y-41274510D01*
X1295849Y-41760691D01*
X1181775Y-42334180D01*
X1295849Y-42907669D01*
X1620705Y-43393850D01*
X1935486Y-43604180D01*
X1620705Y-43814510D01*
X1295849Y-44300691D01*
X1181775Y-44874180D01*
X1295849Y-45447669D01*
X1620705Y-45933850D01*
X1935486Y-46144180D01*
X1620705Y-46354510D01*
X1295849Y-46840691D01*
X1181775Y-47414180D01*
X1295849Y-47987669D01*
X1620705Y-48473850D01*
X1930189Y-48680641D01*
X1514388Y-49052144D01*
X1260411Y-49579389D01*
X1257762Y-49595154D01*
X1378903Y-49827180D01*
X2738120Y-49827180D01*
X2738120Y-49807180D01*
X2992120Y-49807180D01*
X2992120Y-49827180D01*
X4351337Y-49827180D01*
X4472478Y-49595154D01*
X4469829Y-49579389D01*
X4215852Y-49052144D01*
X3800051Y-48680641D01*
X4109535Y-48473850D01*
X4434391Y-47987669D01*
X4548465Y-47414180D01*
X4434391Y-46840691D01*
X4109535Y-46354510D01*
X3794754Y-46144180D01*
X4109535Y-45933850D01*
X4223573Y-45763180D01*
X7945120Y-45763180D01*
X7945120Y-46179180D01*
X8012791Y-46519386D01*
X8059092Y-46588680D01*
X8205502Y-46807798D01*
X8287310Y-46889606D01*
X8308458Y-47001997D01*
X8359620Y-47081505D01*
X8359620Y-47130180D01*
X8417624Y-47421785D01*
X8514905Y-47567375D01*
X8460179Y-47602590D01*
X8315189Y-47814790D01*
X8264180Y-48066680D01*
X8264180Y-48666680D01*
X8308458Y-48901997D01*
X8447530Y-49118121D01*
X8659730Y-49263111D01*
X8911620Y-49314120D01*
X9331620Y-49314120D01*
X9566937Y-49269842D01*
X9774297Y-49136410D01*
X9959730Y-49263111D01*
X10211620Y-49314120D01*
X10631620Y-49314120D01*
X10866937Y-49269842D01*
X11083061Y-49130770D01*
X11084489Y-49128680D01*
X11261037Y-49128680D01*
X11327461Y-49195220D01*
X11686750Y-49344410D01*
X12075783Y-49344749D01*
X12435332Y-49196187D01*
X12710660Y-48921339D01*
X12859850Y-48562050D01*
X12859933Y-48466497D01*
X13563935Y-47762495D01*
X13729116Y-47515285D01*
X13747714Y-47421785D01*
X13760527Y-47357370D01*
X14276120Y-47357370D01*
X14276120Y-47572930D01*
X14434870Y-47731680D01*
X15184120Y-47731680D01*
X15184120Y-47007430D01*
X15025370Y-46848680D01*
X14784811Y-46848680D01*
X14551422Y-46945353D01*
X14372793Y-47123981D01*
X14276120Y-47357370D01*
X13760527Y-47357370D01*
X13787120Y-47223680D01*
X13787120Y-46840810D01*
X14420251Y-46207680D01*
X16327120Y-46207680D01*
X16618725Y-46149676D01*
X16865935Y-45984495D01*
X17373935Y-45476496D01*
X17539116Y-45229285D01*
X17547532Y-45186974D01*
X17597120Y-44937680D01*
X17597120Y-44518580D01*
X18411026Y-44518580D01*
X18363190Y-44754800D01*
X18363190Y-45755560D01*
X18407468Y-45990877D01*
X18423064Y-46015114D01*
X18375630Y-46129630D01*
X18375630Y-46470570D01*
X18534380Y-46629320D01*
X19883120Y-46629320D01*
X19883120Y-46609320D01*
X20137120Y-46609320D01*
X20137120Y-46629320D01*
X21485860Y-46629320D01*
X21644610Y-46470570D01*
X21644610Y-46129630D01*
X21598545Y-46018420D01*
X21606041Y-46007450D01*
X21625300Y-45912347D01*
X21802425Y-45793995D01*
X24583935Y-43012485D01*
X24749116Y-42765275D01*
X24764231Y-42689285D01*
X24807120Y-42473670D01*
X24807120Y-40657824D01*
X24896561Y-40600270D01*
X25041551Y-40388070D01*
X25092560Y-40136180D01*
X25092560Y-38436180D01*
X25048282Y-38200863D01*
X24909210Y-37984739D01*
X24697010Y-37839749D01*
X24445120Y-37788740D01*
X23645120Y-37788740D01*
X23409803Y-37833018D01*
X23193679Y-37972090D01*
X23048689Y-38184290D01*
X22997680Y-38436180D01*
X22997680Y-40136180D01*
X23041958Y-40371497D01*
X23181030Y-40587621D01*
X23283120Y-40657376D01*
X23283120Y-42158040D01*
X21657050Y-43784110D01*
X21657050Y-43256200D01*
X21612772Y-43020883D01*
X21473700Y-42804759D01*
X21261500Y-42659769D01*
X21009610Y-42608760D01*
X19010630Y-42608760D01*
X18775313Y-42653038D01*
X18559189Y-42792110D01*
X18420847Y-42994580D01*
X17838417Y-42994580D01*
X17838282Y-42993863D01*
X17699210Y-42777739D01*
X17597120Y-42707984D01*
X17597120Y-42453380D01*
X17662561Y-42411270D01*
X17807551Y-42199070D01*
X17858560Y-41947180D01*
X17858560Y-41197180D01*
X17814282Y-40961863D01*
X17675210Y-40745739D01*
X17463010Y-40600749D01*
X17211120Y-40549740D01*
X16411120Y-40549740D01*
X16175803Y-40594018D01*
X16072474Y-40660509D01*
X16070818Y-40658853D01*
X15837429Y-40562180D01*
X15596870Y-40562180D01*
X15438120Y-40720930D01*
X15438120Y-41445180D01*
X15458120Y-41445180D01*
X15458120Y-41699180D01*
X15438120Y-41699180D01*
X15438120Y-42423430D01*
X15596870Y-42582180D01*
X15837429Y-42582180D01*
X16070818Y-42485507D01*
X16072188Y-42484137D01*
X16073120Y-42484775D01*
X16073120Y-42681865D01*
X15861429Y-42594180D01*
X15620870Y-42594180D01*
X15462120Y-42752930D01*
X15462120Y-43477180D01*
X15482120Y-43477180D01*
X15482120Y-43731180D01*
X15462120Y-43731180D01*
X15462120Y-44455430D01*
X15620870Y-44614180D01*
X15861429Y-44614180D01*
X16073120Y-44526495D01*
X16073120Y-44622049D01*
X16011490Y-44683680D01*
X14104620Y-44683680D01*
X13813016Y-44741683D01*
X13565805Y-44906864D01*
X12486305Y-45986365D01*
X12321124Y-46233575D01*
X12263120Y-46525180D01*
X12263120Y-46908050D01*
X11782477Y-47388693D01*
X11688457Y-47388611D01*
X11328908Y-47537173D01*
X11261283Y-47604680D01*
X11080256Y-47604680D01*
X10977265Y-47534309D01*
X11125616Y-47312285D01*
X11130610Y-47287179D01*
X11165965Y-47109435D01*
X11228051Y-47018570D01*
X11279060Y-46766680D01*
X11279060Y-46166680D01*
X11234782Y-45931363D01*
X11095710Y-45715239D01*
X10883510Y-45570249D01*
X10865886Y-45566680D01*
X10947929Y-45566680D01*
X11181318Y-45470007D01*
X11359947Y-45291379D01*
X11456620Y-45057990D01*
X11456620Y-44842430D01*
X11297870Y-44683680D01*
X10548620Y-44683680D01*
X10548620Y-44703680D01*
X10294620Y-44703680D01*
X10294620Y-44683680D01*
X10274620Y-44683680D01*
X10274620Y-44429680D01*
X10294620Y-44429680D01*
X10294620Y-43705430D01*
X10548620Y-43705430D01*
X10548620Y-44429680D01*
X11297870Y-44429680D01*
X11456620Y-44270930D01*
X11456620Y-44055370D01*
X11388093Y-43889930D01*
X14300120Y-43889930D01*
X14300120Y-44105490D01*
X14396793Y-44338879D01*
X14575422Y-44517507D01*
X14808811Y-44614180D01*
X15049370Y-44614180D01*
X15208120Y-44455430D01*
X15208120Y-43731180D01*
X14458870Y-43731180D01*
X14300120Y-43889930D01*
X11388093Y-43889930D01*
X11359947Y-43821981D01*
X11181318Y-43643353D01*
X10947929Y-43546680D01*
X10707370Y-43546680D01*
X10548620Y-43705430D01*
X10294620Y-43705430D01*
X10135870Y-43546680D01*
X9895311Y-43546680D01*
X9661922Y-43643353D01*
X9660552Y-43644723D01*
X9573510Y-43585249D01*
X9321620Y-43534240D01*
X8521620Y-43534240D01*
X8286303Y-43578518D01*
X8070179Y-43717590D01*
X7925189Y-43929790D01*
X7913972Y-43985180D01*
X4223573Y-43985180D01*
X4109535Y-43814510D01*
X3794754Y-43604180D01*
X4109535Y-43393850D01*
X4308432Y-43096180D01*
X12340648Y-43096180D01*
X12470461Y-43226220D01*
X12829750Y-43375410D01*
X13218783Y-43375749D01*
X13578332Y-43227187D01*
X13702866Y-43102870D01*
X14300120Y-43102870D01*
X14300120Y-43318430D01*
X14458870Y-43477180D01*
X15208120Y-43477180D01*
X15208120Y-42752930D01*
X15049370Y-42594180D01*
X14808811Y-42594180D01*
X14575422Y-42690853D01*
X14396793Y-42869481D01*
X14300120Y-43102870D01*
X13702866Y-43102870D01*
X13853660Y-42952339D01*
X14002850Y-42593050D01*
X14003189Y-42204017D01*
X13860190Y-41857930D01*
X14276120Y-41857930D01*
X14276120Y-42073490D01*
X14372793Y-42306879D01*
X14551422Y-42485507D01*
X14784811Y-42582180D01*
X15025370Y-42582180D01*
X15184120Y-42423430D01*
X15184120Y-41699180D01*
X14434870Y-41699180D01*
X14276120Y-41857930D01*
X13860190Y-41857930D01*
X13854627Y-41844468D01*
X13579779Y-41569140D01*
X13220490Y-41419950D01*
X12831457Y-41419611D01*
X12471908Y-41568173D01*
X12467894Y-41572180D01*
X4308432Y-41572180D01*
X4109535Y-41274510D01*
X3794754Y-41064180D01*
X4109535Y-40853850D01*
X4308432Y-40556180D01*
X9697565Y-40556180D01*
X9697551Y-40572043D01*
X9846113Y-40931592D01*
X10120961Y-41206920D01*
X10480250Y-41356110D01*
X10869283Y-41356449D01*
X11228832Y-41207887D01*
X11366088Y-41070870D01*
X14276120Y-41070870D01*
X14276120Y-41286430D01*
X14434870Y-41445180D01*
X15184120Y-41445180D01*
X15184120Y-40720930D01*
X15025370Y-40562180D01*
X14784811Y-40562180D01*
X14551422Y-40658853D01*
X14372793Y-40837481D01*
X14276120Y-41070870D01*
X11366088Y-41070870D01*
X11504160Y-40933039D01*
X11653350Y-40573750D01*
X11653689Y-40184717D01*
X11505127Y-39825168D01*
X11252331Y-39571930D01*
X19610120Y-39571930D01*
X19610120Y-40262490D01*
X19706793Y-40495879D01*
X19885422Y-40674507D01*
X20118811Y-40771180D01*
X20359370Y-40771180D01*
X20518120Y-40612430D01*
X20518120Y-39413180D01*
X20772120Y-39413180D01*
X20772120Y-40612430D01*
X20930870Y-40771180D01*
X21171429Y-40771180D01*
X21404818Y-40674507D01*
X21583447Y-40495879D01*
X21680120Y-40262490D01*
X21680120Y-39571930D01*
X21521370Y-39413180D01*
X20772120Y-39413180D01*
X20518120Y-39413180D01*
X19768870Y-39413180D01*
X19610120Y-39571930D01*
X11252331Y-39571930D01*
X11230279Y-39549840D01*
X10870990Y-39400650D01*
X10775437Y-39400567D01*
X10630235Y-39255365D01*
X10486284Y-39159180D01*
X10383025Y-39090184D01*
X10091420Y-39032180D01*
X4308432Y-39032180D01*
X4109535Y-38734510D01*
X4095207Y-38724937D01*
X4116437Y-38720942D01*
X4332561Y-38581870D01*
X4477551Y-38369670D01*
X4489660Y-38309870D01*
X19610120Y-38309870D01*
X19610120Y-39000430D01*
X19768870Y-39159180D01*
X20518120Y-39159180D01*
X20518120Y-37959930D01*
X20772120Y-37959930D01*
X20772120Y-39159180D01*
X21521370Y-39159180D01*
X21680120Y-39000430D01*
X21680120Y-38309870D01*
X21583447Y-38076481D01*
X21404818Y-37897853D01*
X21171429Y-37801180D01*
X20930870Y-37801180D01*
X20772120Y-37959930D01*
X20518120Y-37959930D01*
X20359370Y-37801180D01*
X20118811Y-37801180D01*
X19885422Y-37897853D01*
X19706793Y-38076481D01*
X19610120Y-38309870D01*
X4489660Y-38309870D01*
X4528560Y-38117780D01*
X4528560Y-36390580D01*
X4484282Y-36155263D01*
X4345210Y-35939139D01*
X4133010Y-35794149D01*
X3881120Y-35743140D01*
X1922646Y-35743140D01*
X2170602Y-35577461D01*
X2935164Y-35425380D01*
X40856628Y-35425380D01*
X41685040Y-35590162D01*
X41685040Y-35590162D01*
G37*
X41685040Y-35590162D02*
X42273824Y-35983576D01*
X42667239Y-36572362D01*
X42819320Y-37336924D01*
X42819320Y-60056836D01*
X42667239Y-60821398D01*
X42273824Y-61410184D01*
X41685040Y-61803598D01*
X40984322Y-61942980D01*
X2935164Y-61942980D01*
X2170602Y-61790899D01*
X1581816Y-61397484D01*
X1188402Y-60808700D01*
X1036320Y-60044135D01*
X1036320Y-52494180D01*
X1181775Y-52494180D01*
X1295849Y-53067669D01*
X1620705Y-53553850D01*
X1935486Y-53764180D01*
X1620705Y-53974510D01*
X1295849Y-54460691D01*
X1181775Y-55034180D01*
X1295849Y-55607669D01*
X1620705Y-56093850D01*
X1935486Y-56304180D01*
X1620705Y-56514510D01*
X1295849Y-57000691D01*
X1181775Y-57574180D01*
X1295849Y-58147669D01*
X1620705Y-58633850D01*
X1935486Y-58844180D01*
X1620705Y-59054510D01*
X1295849Y-59540691D01*
X1181775Y-60114180D01*
X1295849Y-60687669D01*
X1620705Y-61173850D01*
X2106886Y-61498706D01*
X2680375Y-61612780D01*
X3049865Y-61612780D01*
X3623354Y-61498706D01*
X4109535Y-61173850D01*
X4308432Y-60876180D01*
X10574020Y-60876180D01*
X10865625Y-60818176D01*
X11112835Y-60652995D01*
X11956364Y-59809467D01*
X12050383Y-59809549D01*
X12409932Y-59660987D01*
X12685260Y-59386139D01*
X12834450Y-59026850D01*
X12834789Y-58637817D01*
X12710156Y-58336180D01*
X14288706Y-58336180D01*
X14307958Y-58438497D01*
X14447030Y-58654621D01*
X14659230Y-58799611D01*
X14911120Y-58850620D01*
X15711120Y-58850620D01*
X15946437Y-58806342D01*
X16061098Y-58732560D01*
X16159230Y-58799611D01*
X16411120Y-58850620D01*
X17211120Y-58850620D01*
X17446437Y-58806342D01*
X17457448Y-58799257D01*
X17457251Y-59025143D01*
X17605813Y-59384692D01*
X17880661Y-59660020D01*
X18239950Y-59809210D01*
X18628983Y-59809549D01*
X18988532Y-59660987D01*
X19263860Y-59386139D01*
X19404525Y-59047380D01*
X19857720Y-59047380D01*
X20149325Y-58989376D01*
X20396535Y-58824195D01*
X20548935Y-58671795D01*
X20714116Y-58424585D01*
X20718616Y-58401960D01*
X21009610Y-58401960D01*
X21244927Y-58357682D01*
X21461051Y-58218610D01*
X21606041Y-58006410D01*
X21657050Y-57754520D01*
X21657050Y-56753760D01*
X21612772Y-56518443D01*
X21605984Y-56507894D01*
X21606041Y-56507810D01*
X21657050Y-56255920D01*
X21657050Y-55255160D01*
X21612772Y-55019843D01*
X21597176Y-54995606D01*
X21644610Y-54881090D01*
X21644610Y-54540150D01*
X21485860Y-54381400D01*
X20137120Y-54381400D01*
X20137120Y-54401400D01*
X19883120Y-54401400D01*
X19883120Y-54381400D01*
X19863120Y-54381400D01*
X19863120Y-54127400D01*
X19883120Y-54127400D01*
X19883120Y-54107400D01*
X20137120Y-54107400D01*
X20137120Y-54127400D01*
X21485860Y-54127400D01*
X21644610Y-53968650D01*
X21644610Y-53627710D01*
X21599200Y-53518082D01*
X21606041Y-53508070D01*
X21657050Y-53256180D01*
X21657050Y-52255420D01*
X21612772Y-52020103D01*
X21605142Y-52008246D01*
X21606041Y-52006930D01*
X21657050Y-51755040D01*
X21657050Y-50754280D01*
X21612772Y-50518963D01*
X21605984Y-50508414D01*
X21606041Y-50508330D01*
X21657050Y-50256440D01*
X21657050Y-49255680D01*
X21612772Y-49020363D01*
X21605142Y-49008506D01*
X21606041Y-49007190D01*
X21607157Y-49001680D01*
X23288590Y-49001680D01*
X27401520Y-53114611D01*
X27401520Y-57562697D01*
X27334980Y-57629121D01*
X27185790Y-57988410D01*
X27185451Y-58377443D01*
X27334013Y-58736992D01*
X27608861Y-59012320D01*
X27968150Y-59161510D01*
X28357183Y-59161849D01*
X28716732Y-59013287D01*
X28992060Y-58738439D01*
X29076772Y-58534430D01*
X38761620Y-58534430D01*
X38761620Y-58874990D01*
X38858293Y-59108379D01*
X39036922Y-59287007D01*
X39270311Y-59383680D01*
X40210870Y-59383680D01*
X40369620Y-59224930D01*
X40369620Y-58375680D01*
X40623620Y-58375680D01*
X40623620Y-59224930D01*
X40782370Y-59383680D01*
X41722929Y-59383680D01*
X41956318Y-59287007D01*
X42134947Y-59108379D01*
X42231620Y-58874990D01*
X42231620Y-58534430D01*
X42072870Y-58375680D01*
X40623620Y-58375680D01*
X40369620Y-58375680D01*
X38920370Y-58375680D01*
X38761620Y-58534430D01*
X29076772Y-58534430D01*
X29141250Y-58379150D01*
X29141589Y-57990117D01*
X28993027Y-57630568D01*
X28925520Y-57562943D01*
X28925520Y-55608843D01*
X32875051Y-55608843D01*
X33023613Y-55968392D01*
X33298461Y-56243720D01*
X33657750Y-56392910D01*
X34046783Y-56393249D01*
X34377630Y-56256546D01*
X34377630Y-56382230D01*
X34423040Y-56491858D01*
X34416199Y-56501870D01*
X34365190Y-56753760D01*
X34365190Y-57754520D01*
X34409468Y-57989837D01*
X34548540Y-58205961D01*
X34760740Y-58350951D01*
X35012630Y-58401960D01*
X37011610Y-58401960D01*
X37246927Y-58357682D01*
X37463051Y-58218610D01*
X37601393Y-58016140D01*
X38491160Y-58016140D01*
X38761620Y-57962342D01*
X38761620Y-57962930D01*
X38920370Y-58121680D01*
X40369620Y-58121680D01*
X40369620Y-57272430D01*
X40623620Y-57272430D01*
X40623620Y-58121680D01*
X42072870Y-58121680D01*
X42231620Y-57962930D01*
X42231620Y-57622370D01*
X42134947Y-57388981D01*
X41956318Y-57210353D01*
X41722929Y-57113680D01*
X40782370Y-57113680D01*
X40623620Y-57272430D01*
X40369620Y-57272430D01*
X40210870Y-57113680D01*
X40144060Y-57113680D01*
X40144060Y-56383680D01*
X40210870Y-56383680D01*
X40369620Y-56224930D01*
X40369620Y-55375680D01*
X40623620Y-55375680D01*
X40623620Y-56224930D01*
X40782370Y-56383680D01*
X41722929Y-56383680D01*
X41956318Y-56287007D01*
X42134947Y-56108379D01*
X42231620Y-55874990D01*
X42231620Y-55534430D01*
X42072870Y-55375680D01*
X40623620Y-55375680D01*
X40369620Y-55375680D01*
X38920370Y-55375680D01*
X38761620Y-55534430D01*
X38761620Y-55601240D01*
X38496620Y-55601240D01*
X38261303Y-55645518D01*
X38045179Y-55784590D01*
X37900189Y-55996790D01*
X37849180Y-56248680D01*
X37849180Y-56492140D01*
X37601084Y-56492140D01*
X37646610Y-56382230D01*
X37646610Y-56041290D01*
X37487860Y-55882540D01*
X36139120Y-55882540D01*
X36139120Y-55902540D01*
X35885120Y-55902540D01*
X35885120Y-55882540D01*
X35865120Y-55882540D01*
X35865120Y-55628540D01*
X35885120Y-55628540D01*
X35885120Y-55608540D01*
X36139120Y-55608540D01*
X36139120Y-55628540D01*
X37487860Y-55628540D01*
X37646610Y-55469790D01*
X37646610Y-55128850D01*
X37600545Y-55017640D01*
X37608041Y-55006670D01*
X37608260Y-55005587D01*
X37845505Y-54958396D01*
X38092715Y-54793215D01*
X38263560Y-54622370D01*
X38761620Y-54622370D01*
X38761620Y-54962930D01*
X38920370Y-55121680D01*
X40369620Y-55121680D01*
X40369620Y-54272430D01*
X40623620Y-54272430D01*
X40623620Y-55121680D01*
X42072870Y-55121680D01*
X42231620Y-54962930D01*
X42231620Y-54622370D01*
X42134947Y-54388981D01*
X41956318Y-54210353D01*
X41722929Y-54113680D01*
X40782370Y-54113680D01*
X40623620Y-54272430D01*
X40369620Y-54272430D01*
X40210870Y-54113680D01*
X39270311Y-54113680D01*
X39036922Y-54210353D01*
X38858293Y-54388981D01*
X38761620Y-54622370D01*
X38263560Y-54622370D01*
X38397763Y-54488167D01*
X38491783Y-54488249D01*
X38851332Y-54339687D01*
X39126660Y-54064839D01*
X39275850Y-53705550D01*
X39276189Y-53316517D01*
X39127627Y-52956968D01*
X38852779Y-52681640D01*
X38493490Y-52532450D01*
X38104457Y-52532111D01*
X37744908Y-52680673D01*
X37659050Y-52766381D01*
X37659050Y-52255420D01*
X37614772Y-52020103D01*
X37607142Y-52008246D01*
X37608041Y-52006930D01*
X37659050Y-51755040D01*
X37659050Y-50754280D01*
X37614772Y-50518963D01*
X37607984Y-50508414D01*
X37608041Y-50508330D01*
X37659050Y-50256440D01*
X37659050Y-49255680D01*
X37614772Y-49020363D01*
X37607142Y-49008506D01*
X37608041Y-49007190D01*
X37659050Y-48755300D01*
X37659050Y-47754540D01*
X37614772Y-47519223D01*
X37607984Y-47508674D01*
X37608041Y-47508590D01*
X37659050Y-47256700D01*
X37659050Y-46255940D01*
X37614772Y-46020623D01*
X37599176Y-45996386D01*
X37646610Y-45881870D01*
X37646610Y-45540930D01*
X37487860Y-45382180D01*
X36139120Y-45382180D01*
X36139120Y-45402180D01*
X35885120Y-45402180D01*
X35885120Y-45382180D01*
X34536380Y-45382180D01*
X34377630Y-45540930D01*
X34377630Y-45881870D01*
X34423695Y-45993080D01*
X34416199Y-46004050D01*
X34365190Y-46255940D01*
X34365190Y-47256700D01*
X34409468Y-47492017D01*
X34416256Y-47502566D01*
X34416199Y-47502650D01*
X34365190Y-47754540D01*
X34365190Y-48755300D01*
X34409468Y-48990617D01*
X34417098Y-49002474D01*
X34416199Y-49003790D01*
X34365190Y-49255680D01*
X34365190Y-50256440D01*
X34409468Y-50491757D01*
X34416256Y-50502306D01*
X34416199Y-50502390D01*
X34365190Y-50754280D01*
X34365190Y-51755040D01*
X34409468Y-51990357D01*
X34417098Y-52002214D01*
X34416199Y-52003530D01*
X34396940Y-52098633D01*
X34219815Y-52216984D01*
X33314305Y-53122495D01*
X33149124Y-53369705D01*
X33091120Y-53661310D01*
X33091120Y-54794097D01*
X33024580Y-54860521D01*
X32875390Y-55219810D01*
X32875051Y-55608843D01*
X28925520Y-55608843D01*
X28925520Y-52798980D01*
X28916931Y-52755800D01*
X28867517Y-52507376D01*
X28702336Y-52260165D01*
X24542150Y-48099980D01*
X28321335Y-44320795D01*
X28486516Y-44073585D01*
X28491568Y-44048185D01*
X28544520Y-43781980D01*
X28544520Y-43256200D01*
X34365190Y-43256200D01*
X34365190Y-44256960D01*
X34409468Y-44492277D01*
X34424424Y-44515519D01*
X34377630Y-44628490D01*
X34377630Y-44969430D01*
X34536380Y-45128180D01*
X35885120Y-45128180D01*
X35885120Y-45108180D01*
X36139120Y-45108180D01*
X36139120Y-45128180D01*
X37487860Y-45128180D01*
X37646610Y-44969430D01*
X37646610Y-44628490D01*
X37601200Y-44518862D01*
X37608041Y-44508850D01*
X37659050Y-44256960D01*
X37659050Y-43256200D01*
X37614772Y-43020883D01*
X37475700Y-42804759D01*
X37263500Y-42659769D01*
X37011610Y-42608760D01*
X35012630Y-42608760D01*
X34777313Y-42653038D01*
X34561189Y-42792110D01*
X34416199Y-43004310D01*
X34365190Y-43256200D01*
X28544520Y-43256200D01*
X28544520Y-39818363D01*
X28611060Y-39751939D01*
X28760250Y-39392650D01*
X28760589Y-39003617D01*
X28612027Y-38644068D01*
X28337179Y-38368740D01*
X27977890Y-38219550D01*
X27588857Y-38219211D01*
X27229308Y-38367773D01*
X26953980Y-38642621D01*
X26804790Y-39001910D01*
X26804451Y-39390943D01*
X26953013Y-39750492D01*
X27020520Y-39818117D01*
X27020520Y-43466350D01*
X23009190Y-47477680D01*
X21605396Y-47477680D01*
X21644610Y-47383010D01*
X21644610Y-47042070D01*
X21485860Y-46883320D01*
X20137120Y-46883320D01*
X20137120Y-46903320D01*
X19883120Y-46903320D01*
X19883120Y-46883320D01*
X18534380Y-46883320D01*
X18375630Y-47042070D01*
X18375630Y-47096680D01*
X17716677Y-47096680D01*
X17675210Y-47032239D01*
X17463010Y-46887249D01*
X17211120Y-46836240D01*
X16411120Y-46836240D01*
X16175803Y-46880518D01*
X16072474Y-46947009D01*
X16070818Y-46945353D01*
X15837429Y-46848680D01*
X15596870Y-46848680D01*
X15438120Y-47007430D01*
X15438120Y-47731680D01*
X15458120Y-47731680D01*
X15458120Y-47985680D01*
X15438120Y-47985680D01*
X15438120Y-48005680D01*
X15184120Y-48005680D01*
X15184120Y-47985680D01*
X14434870Y-47985680D01*
X14276120Y-48144430D01*
X14276120Y-48359990D01*
X14372793Y-48593379D01*
X14551422Y-48772007D01*
X14579831Y-48783774D01*
X14459679Y-48861090D01*
X14407006Y-48938180D01*
X14041120Y-48938180D01*
X13749515Y-48996184D01*
X13713329Y-49020363D01*
X13502305Y-49161364D01*
X10931490Y-51732180D01*
X4308432Y-51732180D01*
X4109535Y-51434510D01*
X3800051Y-51227719D01*
X4215852Y-50856216D01*
X4469829Y-50328971D01*
X4472478Y-50313206D01*
X4351337Y-50081180D01*
X2992120Y-50081180D01*
X2992120Y-50101180D01*
X2738120Y-50101180D01*
X2738120Y-50081180D01*
X1378903Y-50081180D01*
X1257762Y-50313206D01*
X1260411Y-50328971D01*
X1514388Y-50856216D01*
X1930189Y-51227719D01*
X1620705Y-51434510D01*
X1295849Y-51920691D01*
X1181775Y-52494180D01*
X1036320Y-52494180D01*
X1036320Y-37324225D01*
X1188402Y-36559660D01*
X1201680Y-36539788D01*
X1201680Y-38117780D01*
X1245958Y-38353097D01*
X1385030Y-38569221D01*
X1597230Y-38714211D01*
X1638559Y-38722580D01*
X1620705Y-38734510D01*
X1295849Y-39220691D01*
X1181775Y-39794180D01*
X1295849Y-40367669D01*
X1620705Y-40853850D01*
X1935486Y-41064180D01*
X1620705Y-41274510D01*
X1295849Y-41760691D01*
X1181775Y-42334180D01*
X1295849Y-42907669D01*
X1620705Y-43393850D01*
X1935486Y-43604180D01*
X1620705Y-43814510D01*
X1295849Y-44300691D01*
X1181775Y-44874180D01*
X1295849Y-45447669D01*
X1620705Y-45933850D01*
X1935486Y-46144180D01*
X1620705Y-46354510D01*
X1295849Y-46840691D01*
X1181775Y-47414180D01*
X1295849Y-47987669D01*
X1620705Y-48473850D01*
X1930189Y-48680641D01*
X1514388Y-49052144D01*
X1260411Y-49579389D01*
X1257762Y-49595154D01*
X1378903Y-49827180D01*
X2738120Y-49827180D01*
X2738120Y-49807180D01*
X2992120Y-49807180D01*
X2992120Y-49827180D01*
X4351337Y-49827180D01*
X4472478Y-49595154D01*
X4469829Y-49579389D01*
X4215852Y-49052144D01*
X3800051Y-48680641D01*
X4109535Y-48473850D01*
X4434391Y-47987669D01*
X4548465Y-47414180D01*
X4434391Y-46840691D01*
X4109535Y-46354510D01*
X3794754Y-46144180D01*
X4109535Y-45933850D01*
X4223573Y-45763180D01*
X7945120Y-45763180D01*
X7945120Y-46179180D01*
X8012791Y-46519386D01*
X8059092Y-46588680D01*
X8205502Y-46807798D01*
X8287310Y-46889606D01*
X8308458Y-47001997D01*
X8359620Y-47081505D01*
X8359620Y-47130180D01*
X8417624Y-47421785D01*
X8514905Y-47567375D01*
X8460179Y-47602590D01*
X8315189Y-47814790D01*
X8264180Y-48066680D01*
X8264180Y-48666680D01*
X8308458Y-48901997D01*
X8447530Y-49118121D01*
X8659730Y-49263111D01*
X8911620Y-49314120D01*
X9331620Y-49314120D01*
X9566937Y-49269842D01*
X9774297Y-49136410D01*
X9959730Y-49263111D01*
X10211620Y-49314120D01*
X10631620Y-49314120D01*
X10866937Y-49269842D01*
X11083061Y-49130770D01*
X11084489Y-49128680D01*
X11261037Y-49128680D01*
X11327461Y-49195220D01*
X11686750Y-49344410D01*
X12075783Y-49344749D01*
X12435332Y-49196187D01*
X12710660Y-48921339D01*
X12859850Y-48562050D01*
X12859933Y-48466497D01*
X13563935Y-47762495D01*
X13729116Y-47515285D01*
X13747714Y-47421785D01*
X13760527Y-47357370D01*
X14276120Y-47357370D01*
X14276120Y-47572930D01*
X14434870Y-47731680D01*
X15184120Y-47731680D01*
X15184120Y-47007430D01*
X15025370Y-46848680D01*
X14784811Y-46848680D01*
X14551422Y-46945353D01*
X14372793Y-47123981D01*
X14276120Y-47357370D01*
X13760527Y-47357370D01*
X13787120Y-47223680D01*
X13787120Y-46840810D01*
X14420251Y-46207680D01*
X16327120Y-46207680D01*
X16618725Y-46149676D01*
X16865935Y-45984495D01*
X17373935Y-45476496D01*
X17539116Y-45229285D01*
X17547532Y-45186974D01*
X17597120Y-44937680D01*
X17597120Y-44518580D01*
X18411026Y-44518580D01*
X18363190Y-44754800D01*
X18363190Y-45755560D01*
X18407468Y-45990877D01*
X18423064Y-46015114D01*
X18375630Y-46129630D01*
X18375630Y-46470570D01*
X18534380Y-46629320D01*
X19883120Y-46629320D01*
X19883120Y-46609320D01*
X20137120Y-46609320D01*
X20137120Y-46629320D01*
X21485860Y-46629320D01*
X21644610Y-46470570D01*
X21644610Y-46129630D01*
X21598545Y-46018420D01*
X21606041Y-46007450D01*
X21625300Y-45912347D01*
X21802425Y-45793995D01*
X24583935Y-43012485D01*
X24749116Y-42765275D01*
X24764231Y-42689285D01*
X24807120Y-42473670D01*
X24807120Y-40657824D01*
X24896561Y-40600270D01*
X25041551Y-40388070D01*
X25092560Y-40136180D01*
X25092560Y-38436180D01*
X25048282Y-38200863D01*
X24909210Y-37984739D01*
X24697010Y-37839749D01*
X24445120Y-37788740D01*
X23645120Y-37788740D01*
X23409803Y-37833018D01*
X23193679Y-37972090D01*
X23048689Y-38184290D01*
X22997680Y-38436180D01*
X22997680Y-40136180D01*
X23041958Y-40371497D01*
X23181030Y-40587621D01*
X23283120Y-40657376D01*
X23283120Y-42158040D01*
X21657050Y-43784110D01*
X21657050Y-43256200D01*
X21612772Y-43020883D01*
X21473700Y-42804759D01*
X21261500Y-42659769D01*
X21009610Y-42608760D01*
X19010630Y-42608760D01*
X18775313Y-42653038D01*
X18559189Y-42792110D01*
X18420847Y-42994580D01*
X17838417Y-42994580D01*
X17838282Y-42993863D01*
X17699210Y-42777739D01*
X17597120Y-42707984D01*
X17597120Y-42453380D01*
X17662561Y-42411270D01*
X17807551Y-42199070D01*
X17858560Y-41947180D01*
X17858560Y-41197180D01*
X17814282Y-40961863D01*
X17675210Y-40745739D01*
X17463010Y-40600749D01*
X17211120Y-40549740D01*
X16411120Y-40549740D01*
X16175803Y-40594018D01*
X16072474Y-40660509D01*
X16070818Y-40658853D01*
X15837429Y-40562180D01*
X15596870Y-40562180D01*
X15438120Y-40720930D01*
X15438120Y-41445180D01*
X15458120Y-41445180D01*
X15458120Y-41699180D01*
X15438120Y-41699180D01*
X15438120Y-42423430D01*
X15596870Y-42582180D01*
X15837429Y-42582180D01*
X16070818Y-42485507D01*
X16072188Y-42484137D01*
X16073120Y-42484775D01*
X16073120Y-42681865D01*
X15861429Y-42594180D01*
X15620870Y-42594180D01*
X15462120Y-42752930D01*
X15462120Y-43477180D01*
X15482120Y-43477180D01*
X15482120Y-43731180D01*
X15462120Y-43731180D01*
X15462120Y-44455430D01*
X15620870Y-44614180D01*
X15861429Y-44614180D01*
X16073120Y-44526495D01*
X16073120Y-44622049D01*
X16011490Y-44683680D01*
X14104620Y-44683680D01*
X13813016Y-44741683D01*
X13565805Y-44906864D01*
X12486305Y-45986365D01*
X12321124Y-46233575D01*
X12263120Y-46525180D01*
X12263120Y-46908050D01*
X11782477Y-47388693D01*
X11688457Y-47388611D01*
X11328908Y-47537173D01*
X11261283Y-47604680D01*
X11080256Y-47604680D01*
X10977265Y-47534309D01*
X11125616Y-47312285D01*
X11130610Y-47287179D01*
X11165965Y-47109435D01*
X11228051Y-47018570D01*
X11279060Y-46766680D01*
X11279060Y-46166680D01*
X11234782Y-45931363D01*
X11095710Y-45715239D01*
X10883510Y-45570249D01*
X10865886Y-45566680D01*
X10947929Y-45566680D01*
X11181318Y-45470007D01*
X11359947Y-45291379D01*
X11456620Y-45057990D01*
X11456620Y-44842430D01*
X11297870Y-44683680D01*
X10548620Y-44683680D01*
X10548620Y-44703680D01*
X10294620Y-44703680D01*
X10294620Y-44683680D01*
X10274620Y-44683680D01*
X10274620Y-44429680D01*
X10294620Y-44429680D01*
X10294620Y-43705430D01*
X10548620Y-43705430D01*
X10548620Y-44429680D01*
X11297870Y-44429680D01*
X11456620Y-44270930D01*
X11456620Y-44055370D01*
X11388093Y-43889930D01*
X14300120Y-43889930D01*
X14300120Y-44105490D01*
X14396793Y-44338879D01*
X14575422Y-44517507D01*
X14808811Y-44614180D01*
X15049370Y-44614180D01*
X15208120Y-44455430D01*
X15208120Y-43731180D01*
X14458870Y-43731180D01*
X14300120Y-43889930D01*
X11388093Y-43889930D01*
X11359947Y-43821981D01*
X11181318Y-43643353D01*
X10947929Y-43546680D01*
X10707370Y-43546680D01*
X10548620Y-43705430D01*
X10294620Y-43705430D01*
X10135870Y-43546680D01*
X9895311Y-43546680D01*
X9661922Y-43643353D01*
X9660552Y-43644723D01*
X9573510Y-43585249D01*
X9321620Y-43534240D01*
X8521620Y-43534240D01*
X8286303Y-43578518D01*
X8070179Y-43717590D01*
X7925189Y-43929790D01*
X7913972Y-43985180D01*
X4223573Y-43985180D01*
X4109535Y-43814510D01*
X3794754Y-43604180D01*
X4109535Y-43393850D01*
X4308432Y-43096180D01*
X12340648Y-43096180D01*
X12470461Y-43226220D01*
X12829750Y-43375410D01*
X13218783Y-43375749D01*
X13578332Y-43227187D01*
X13702866Y-43102870D01*
X14300120Y-43102870D01*
X14300120Y-43318430D01*
X14458870Y-43477180D01*
X15208120Y-43477180D01*
X15208120Y-42752930D01*
X15049370Y-42594180D01*
X14808811Y-42594180D01*
X14575422Y-42690853D01*
X14396793Y-42869481D01*
X14300120Y-43102870D01*
X13702866Y-43102870D01*
X13853660Y-42952339D01*
X14002850Y-42593050D01*
X14003189Y-42204017D01*
X13860190Y-41857930D01*
X14276120Y-41857930D01*
X14276120Y-42073490D01*
X14372793Y-42306879D01*
X14551422Y-42485507D01*
X14784811Y-42582180D01*
X15025370Y-42582180D01*
X15184120Y-42423430D01*
X15184120Y-41699180D01*
X14434870Y-41699180D01*
X14276120Y-41857930D01*
X13860190Y-41857930D01*
X13854627Y-41844468D01*
X13579779Y-41569140D01*
X13220490Y-41419950D01*
X12831457Y-41419611D01*
X12471908Y-41568173D01*
X12467894Y-41572180D01*
X4308432Y-41572180D01*
X4109535Y-41274510D01*
X3794754Y-41064180D01*
X4109535Y-40853850D01*
X4308432Y-40556180D01*
X9697565Y-40556180D01*
X9697551Y-40572043D01*
X9846113Y-40931592D01*
X10120961Y-41206920D01*
X10480250Y-41356110D01*
X10869283Y-41356449D01*
X11228832Y-41207887D01*
X11366088Y-41070870D01*
X14276120Y-41070870D01*
X14276120Y-41286430D01*
X14434870Y-41445180D01*
X15184120Y-41445180D01*
X15184120Y-40720930D01*
X15025370Y-40562180D01*
X14784811Y-40562180D01*
X14551422Y-40658853D01*
X14372793Y-40837481D01*
X14276120Y-41070870D01*
X11366088Y-41070870D01*
X11504160Y-40933039D01*
X11653350Y-40573750D01*
X11653689Y-40184717D01*
X11505127Y-39825168D01*
X11252331Y-39571930D01*
X19610120Y-39571930D01*
X19610120Y-40262490D01*
X19706793Y-40495879D01*
X19885422Y-40674507D01*
X20118811Y-40771180D01*
X20359370Y-40771180D01*
X20518120Y-40612430D01*
X20518120Y-39413180D01*
X20772120Y-39413180D01*
X20772120Y-40612430D01*
X20930870Y-40771180D01*
X21171429Y-40771180D01*
X21404818Y-40674507D01*
X21583447Y-40495879D01*
X21680120Y-40262490D01*
X21680120Y-39571930D01*
X21521370Y-39413180D01*
X20772120Y-39413180D01*
X20518120Y-39413180D01*
X19768870Y-39413180D01*
X19610120Y-39571930D01*
X11252331Y-39571930D01*
X11230279Y-39549840D01*
X10870990Y-39400650D01*
X10775437Y-39400567D01*
X10630235Y-39255365D01*
X10486284Y-39159180D01*
X10383025Y-39090184D01*
X10091420Y-39032180D01*
X4308432Y-39032180D01*
X4109535Y-38734510D01*
X4095207Y-38724937D01*
X4116437Y-38720942D01*
X4332561Y-38581870D01*
X4477551Y-38369670D01*
X4489660Y-38309870D01*
X19610120Y-38309870D01*
X19610120Y-39000430D01*
X19768870Y-39159180D01*
X20518120Y-39159180D01*
X20518120Y-37959930D01*
X20772120Y-37959930D01*
X20772120Y-39159180D01*
X21521370Y-39159180D01*
X21680120Y-39000430D01*
X21680120Y-38309870D01*
X21583447Y-38076481D01*
X21404818Y-37897853D01*
X21171429Y-37801180D01*
X20930870Y-37801180D01*
X20772120Y-37959930D01*
X20518120Y-37959930D01*
X20359370Y-37801180D01*
X20118811Y-37801180D01*
X19885422Y-37897853D01*
X19706793Y-38076481D01*
X19610120Y-38309870D01*
X4489660Y-38309870D01*
X4528560Y-38117780D01*
X4528560Y-36390580D01*
X4484282Y-36155263D01*
X4345210Y-35939139D01*
X4133010Y-35794149D01*
X3881120Y-35743140D01*
X1922646Y-35743140D01*
X2170602Y-35577461D01*
X2935164Y-35425380D01*
X40856628Y-35425380D01*
X41685040Y-35590162D01*
G36*
X14440020Y-50515728D02*
X14321422Y-50564853D01*
X14142793Y-50743481D01*
X14046120Y-50976870D01*
X14046120Y-51192430D01*
X14204870Y-51351180D01*
X14954120Y-51351180D01*
X14954120Y-51331180D01*
X15208120Y-51331180D01*
X15208120Y-51351180D01*
X15228120Y-51351180D01*
X15228120Y-51605180D01*
X15208120Y-51605180D01*
X15208120Y-51625180D01*
X14954120Y-51625180D01*
X14954120Y-51605180D01*
X14204870Y-51605180D01*
X14046120Y-51763930D01*
X14046120Y-51979490D01*
X14142793Y-52212879D01*
X14182654Y-52252740D01*
X14022120Y-52252740D01*
X13786803Y-52297018D01*
X13570679Y-52436090D01*
X13487643Y-52557618D01*
X13364857Y-52557511D01*
X13005308Y-52706073D01*
X12729980Y-52980921D01*
X12580790Y-53340210D01*
X12580451Y-53729243D01*
X12729013Y-54088792D01*
X12912081Y-54272180D01*
X4308432Y-54272180D01*
X4109535Y-53974510D01*
X3794754Y-53764180D01*
X4109535Y-53553850D01*
X4308432Y-53256180D01*
X11247120Y-53256180D01*
X11538725Y-53198176D01*
X11785935Y-53032995D01*
X14356751Y-50462180D01*
X14405563Y-50462180D01*
X14440020Y-50515728D01*
X14440020Y-50515728D01*
G37*
X14440020Y-50515728D02*
X14321422Y-50564853D01*
X14142793Y-50743481D01*
X14046120Y-50976870D01*
X14046120Y-51192430D01*
X14204870Y-51351180D01*
X14954120Y-51351180D01*
X14954120Y-51331180D01*
X15208120Y-51331180D01*
X15208120Y-51351180D01*
X15228120Y-51351180D01*
X15228120Y-51605180D01*
X15208120Y-51605180D01*
X15208120Y-51625180D01*
X14954120Y-51625180D01*
X14954120Y-51605180D01*
X14204870Y-51605180D01*
X14046120Y-51763930D01*
X14046120Y-51979490D01*
X14142793Y-52212879D01*
X14182654Y-52252740D01*
X14022120Y-52252740D01*
X13786803Y-52297018D01*
X13570679Y-52436090D01*
X13487643Y-52557618D01*
X13364857Y-52557511D01*
X13005308Y-52706073D01*
X12729980Y-52980921D01*
X12580790Y-53340210D01*
X12580451Y-53729243D01*
X12729013Y-54088792D01*
X12912081Y-54272180D01*
X4308432Y-54272180D01*
X4109535Y-53974510D01*
X3794754Y-53764180D01*
X4109535Y-53553850D01*
X4308432Y-53256180D01*
X11247120Y-53256180D01*
X11538725Y-53198176D01*
X11785935Y-53032995D01*
X14356751Y-50462180D01*
X14405563Y-50462180D01*
X14440020Y-50515728D01*
D23*
X14244320Y-51490880D03*
X21915120Y-46842680D03*
X11564620Y-44556680D03*
X42552620Y-58272680D03*
X42679620Y-55224680D03*
X38107620Y-58399680D03*
X38171120Y-55288180D03*
X15311120Y-40238680D03*
X15311120Y-46525180D03*
X18232120Y-46715680D03*
X15311120Y-42588180D03*
X19248120Y-39222680D03*
X37726620Y-45255180D03*
X34170620Y-45255180D03*
X21915120Y-46842680D03*
X21851620Y-53192680D03*
X9771620Y-45509180D03*
X28163520Y-58183780D03*
X27782520Y-39197280D03*
X11882120Y-55859680D03*
X11882120Y-48366680D03*
X38298120Y-53510180D03*
X13850620Y-54780180D03*
X18041620Y-57828180D03*
X33853120Y-55415180D03*
X10675620Y-40378380D03*
X18295620Y-55719980D03*
X13558520Y-53535580D03*
X13025120Y-42397680D03*
X18435320Y-58831480D03*
X11856720Y-58831480D03*
D24*
X2865120Y-37254180D03*
X2865120Y-39794180D03*
X2865120Y-42334180D03*
X2865120Y-44874180D03*
X2865120Y-47414180D03*
X2865120Y-49954180D03*
X2865120Y-52494180D03*
X2865120Y-55034180D03*
X2865120Y-57574180D03*
X2865120Y-60114180D03*
M02*
