%TF.GenerationSoftware,KiCad,Pcbnew,4.0.5-e0-6337~49~ubuntu16.04.1*%
%TF.CreationDate,2017-03-30T12:13:01-07:00*%
%TF.ProjectId,fgpmmopa6h-gps-breakout,6667706D6D6F706136682D6770732D62,v1.0*%
%TF.FileFunction,Soldermask,Top*%
%FSLAX46Y46*%
G04 Gerber Fmt 4.6, Leading zero omitted, Abs format (unit mm)*
G04 Created by KiCad (PCBNEW 4.0.5-e0-6337~49~ubuntu16.04.1) date Thu Mar 30 12:13:01 2017*
%MOMM*%
%LPD*%
G01*
G04 APERTURE LIST*
%ADD10C,0.350000*%
G04 APERTURE END LIST*
D10*
G36*
X3033869Y-59174457D02*
X3033874Y-59174458D01*
X3035927Y-59174472D01*
X3218200Y-59194917D01*
X3393032Y-59250377D01*
X3553761Y-59338738D01*
X3694266Y-59456636D01*
X3809196Y-59599580D01*
X3894172Y-59762125D01*
X3945959Y-59938079D01*
X3945963Y-59938120D01*
X3945964Y-59938124D01*
X3962583Y-60120738D01*
X3944768Y-60290236D01*
X3943410Y-60303153D01*
X3889172Y-60478367D01*
X3801935Y-60639709D01*
X3685020Y-60781035D01*
X3542882Y-60896959D01*
X3380935Y-60983068D01*
X3205346Y-61036082D01*
X3022805Y-61053980D01*
X2707403Y-61053980D01*
X2696371Y-61053903D01*
X2696366Y-61053902D01*
X2694313Y-61053888D01*
X2512040Y-61033443D01*
X2337208Y-60977983D01*
X2176479Y-60889622D01*
X2035974Y-60771724D01*
X1921044Y-60628780D01*
X1836068Y-60466235D01*
X1784281Y-60290281D01*
X1784277Y-60290240D01*
X1784276Y-60290236D01*
X1767657Y-60107622D01*
X1786825Y-59925254D01*
X1786830Y-59925207D01*
X1841068Y-59749993D01*
X1928305Y-59588651D01*
X2045220Y-59447325D01*
X2187358Y-59331401D01*
X2349305Y-59245292D01*
X2524894Y-59192278D01*
X2707435Y-59174380D01*
X3022837Y-59174380D01*
X3033869Y-59174457D01*
X3033869Y-59174457D01*
G37*
G36*
X41672820Y-58824880D02*
X39320420Y-58824880D01*
X39320420Y-57672480D01*
X41672820Y-57672480D01*
X41672820Y-58824880D01*
X41672820Y-58824880D01*
G37*
G36*
X3033869Y-56634457D02*
X3033874Y-56634458D01*
X3035927Y-56634472D01*
X3218200Y-56654917D01*
X3393032Y-56710377D01*
X3553761Y-56798738D01*
X3694266Y-56916636D01*
X3809196Y-57059580D01*
X3894172Y-57222125D01*
X3945959Y-57398079D01*
X3945963Y-57398120D01*
X3945964Y-57398124D01*
X3962583Y-57580738D01*
X3952940Y-57672480D01*
X3943410Y-57763153D01*
X3889172Y-57938367D01*
X3801935Y-58099709D01*
X3685020Y-58241035D01*
X3542882Y-58356959D01*
X3380935Y-58443068D01*
X3205346Y-58496082D01*
X3022805Y-58513980D01*
X2707403Y-58513980D01*
X2696371Y-58513903D01*
X2696366Y-58513902D01*
X2694313Y-58513888D01*
X2512040Y-58493443D01*
X2337208Y-58437983D01*
X2176479Y-58349622D01*
X2035974Y-58231724D01*
X1921044Y-58088780D01*
X1836068Y-57926235D01*
X1784281Y-57750281D01*
X1784277Y-57750240D01*
X1784276Y-57750236D01*
X1767657Y-57567622D01*
X1786825Y-57385254D01*
X1786830Y-57385207D01*
X1841068Y-57209993D01*
X1928305Y-57048651D01*
X2045220Y-56907325D01*
X2187358Y-56791401D01*
X2349305Y-56705292D01*
X2524894Y-56652278D01*
X2707435Y-56634380D01*
X3022837Y-56634380D01*
X3033869Y-56634457D01*
X3033869Y-56634457D01*
G37*
G36*
X17287320Y-58279380D02*
X16334920Y-58279380D01*
X16334920Y-57376980D01*
X17287320Y-57376980D01*
X17287320Y-58279380D01*
X17287320Y-58279380D01*
G37*
G36*
X15787320Y-58279380D02*
X14834920Y-58279380D01*
X14834920Y-57376980D01*
X15787320Y-57376980D01*
X15787320Y-58279380D01*
X15787320Y-58279380D01*
G37*
G36*
X37087810Y-57830720D02*
X34936430Y-57830720D01*
X34936430Y-56677560D01*
X37087810Y-56677560D01*
X37087810Y-57830720D01*
X37087810Y-57830720D01*
G37*
G36*
X21085810Y-57830720D02*
X18934430Y-57830720D01*
X18934430Y-56677560D01*
X21085810Y-56677560D01*
X21085810Y-57830720D01*
X21085810Y-57830720D01*
G37*
G36*
X39572820Y-57324880D02*
X38420420Y-57324880D01*
X38420420Y-56172480D01*
X39572820Y-56172480D01*
X39572820Y-57324880D01*
X39572820Y-57324880D01*
G37*
G36*
X37087810Y-56332120D02*
X34936430Y-56332120D01*
X34936430Y-55178960D01*
X37087810Y-55178960D01*
X37087810Y-56332120D01*
X37087810Y-56332120D01*
G37*
G36*
X21085810Y-56332120D02*
X18934430Y-56332120D01*
X18934430Y-55178960D01*
X21085810Y-55178960D01*
X21085810Y-56332120D01*
X21085810Y-56332120D01*
G37*
G36*
X15811320Y-56247380D02*
X14858920Y-56247380D01*
X14858920Y-55344980D01*
X15811320Y-55344980D01*
X15811320Y-56247380D01*
X15811320Y-56247380D01*
G37*
G36*
X17311320Y-56247380D02*
X16358920Y-56247380D01*
X16358920Y-55344980D01*
X17311320Y-55344980D01*
X17311320Y-56247380D01*
X17311320Y-56247380D01*
G37*
G36*
X3033869Y-54094457D02*
X3033874Y-54094458D01*
X3035927Y-54094472D01*
X3218200Y-54114917D01*
X3393032Y-54170377D01*
X3553761Y-54258738D01*
X3694266Y-54376636D01*
X3809196Y-54519580D01*
X3894172Y-54682125D01*
X3945959Y-54858079D01*
X3945963Y-54858120D01*
X3945964Y-54858124D01*
X3962583Y-55040738D01*
X3948055Y-55178960D01*
X3943410Y-55223153D01*
X3889172Y-55398367D01*
X3801935Y-55559709D01*
X3685020Y-55701035D01*
X3542882Y-55816959D01*
X3380935Y-55903068D01*
X3205346Y-55956082D01*
X3022805Y-55973980D01*
X2707403Y-55973980D01*
X2696371Y-55973903D01*
X2696366Y-55973902D01*
X2694313Y-55973888D01*
X2512040Y-55953443D01*
X2337208Y-55897983D01*
X2176479Y-55809622D01*
X2035974Y-55691724D01*
X1921044Y-55548780D01*
X1836068Y-55386235D01*
X1784281Y-55210281D01*
X1784277Y-55210240D01*
X1784276Y-55210236D01*
X1767657Y-55027622D01*
X1786825Y-54845254D01*
X1786830Y-54845207D01*
X1841068Y-54669993D01*
X1928305Y-54508651D01*
X2045220Y-54367325D01*
X2187358Y-54251401D01*
X2349305Y-54165292D01*
X2524894Y-54112278D01*
X2707435Y-54094380D01*
X3022837Y-54094380D01*
X3033869Y-54094457D01*
X3033869Y-54094457D01*
G37*
G36*
X41672820Y-55824880D02*
X39320420Y-55824880D01*
X39320420Y-54672480D01*
X41672820Y-54672480D01*
X41672820Y-55824880D01*
X41672820Y-55824880D01*
G37*
G36*
X21085810Y-54830980D02*
X18934430Y-54830980D01*
X18934430Y-53677820D01*
X21085810Y-53677820D01*
X21085810Y-54830980D01*
X21085810Y-54830980D01*
G37*
G36*
X37087810Y-54830980D02*
X34936430Y-54830980D01*
X34936430Y-53677820D01*
X37087810Y-53677820D01*
X37087810Y-54830980D01*
X37087810Y-54830980D01*
G37*
G36*
X15008320Y-54196380D02*
X13945920Y-54196380D01*
X13945920Y-52823980D01*
X15008320Y-52823980D01*
X15008320Y-54196380D01*
X15008320Y-54196380D01*
G37*
G36*
X18278320Y-54196380D02*
X17215920Y-54196380D01*
X17215920Y-52823980D01*
X18278320Y-52823980D01*
X18278320Y-54196380D01*
X18278320Y-54196380D01*
G37*
G36*
X3033869Y-51554457D02*
X3033874Y-51554458D01*
X3035927Y-51554472D01*
X3218200Y-51574917D01*
X3393032Y-51630377D01*
X3553761Y-51718738D01*
X3694266Y-51836636D01*
X3809196Y-51979580D01*
X3894172Y-52142125D01*
X3945959Y-52318079D01*
X3945963Y-52318120D01*
X3945964Y-52318124D01*
X3962583Y-52500738D01*
X3944768Y-52670236D01*
X3943410Y-52683153D01*
X3889172Y-52858367D01*
X3801935Y-53019709D01*
X3685020Y-53161035D01*
X3542882Y-53276959D01*
X3380935Y-53363068D01*
X3205346Y-53416082D01*
X3022805Y-53433980D01*
X2707403Y-53433980D01*
X2696371Y-53433903D01*
X2696366Y-53433902D01*
X2694313Y-53433888D01*
X2512040Y-53413443D01*
X2337208Y-53357983D01*
X2176479Y-53269622D01*
X2035974Y-53151724D01*
X1921044Y-53008780D01*
X1836068Y-52846235D01*
X1784281Y-52670281D01*
X1784277Y-52670240D01*
X1784276Y-52670236D01*
X1767657Y-52487622D01*
X1786825Y-52305254D01*
X1786830Y-52305207D01*
X1841068Y-52129993D01*
X1928305Y-51968651D01*
X2045220Y-51827325D01*
X2187358Y-51711401D01*
X2349305Y-51625292D01*
X2524894Y-51572278D01*
X2707435Y-51554380D01*
X3022837Y-51554380D01*
X3033869Y-51554457D01*
X3033869Y-51554457D01*
G37*
G36*
X21085810Y-53332380D02*
X18934430Y-53332380D01*
X18934430Y-52179220D01*
X21085810Y-52179220D01*
X21085810Y-53332380D01*
X21085810Y-53332380D01*
G37*
G36*
X37087810Y-53332380D02*
X34936430Y-53332380D01*
X34936430Y-52179220D01*
X37087810Y-52179220D01*
X37087810Y-53332380D01*
X37087810Y-53332380D01*
G37*
G36*
X17057320Y-51929380D02*
X16104920Y-51929380D01*
X16104920Y-51026980D01*
X17057320Y-51026980D01*
X17057320Y-51929380D01*
X17057320Y-51929380D01*
G37*
G36*
X15557320Y-51929380D02*
X14604920Y-51929380D01*
X14604920Y-51026980D01*
X15557320Y-51026980D01*
X15557320Y-51929380D01*
X15557320Y-51929380D01*
G37*
G36*
X37087810Y-51831240D02*
X34936430Y-51831240D01*
X34936430Y-50678080D01*
X37087810Y-50678080D01*
X37087810Y-51831240D01*
X37087810Y-51831240D01*
G37*
G36*
X21085810Y-51831240D02*
X18934430Y-51831240D01*
X18934430Y-50678080D01*
X21085810Y-50678080D01*
X21085810Y-51831240D01*
X21085810Y-51831240D01*
G37*
G36*
X3033869Y-49014457D02*
X3033874Y-49014458D01*
X3035927Y-49014472D01*
X3218200Y-49034917D01*
X3393032Y-49090377D01*
X3553761Y-49178738D01*
X3694266Y-49296636D01*
X3809196Y-49439580D01*
X3894172Y-49602125D01*
X3945959Y-49778079D01*
X3945963Y-49778120D01*
X3945964Y-49778124D01*
X3962583Y-49960738D01*
X3944768Y-50130236D01*
X3943410Y-50143153D01*
X3889172Y-50318367D01*
X3801935Y-50479709D01*
X3685020Y-50621035D01*
X3542882Y-50736959D01*
X3380935Y-50823068D01*
X3205346Y-50876082D01*
X3022805Y-50893980D01*
X2707403Y-50893980D01*
X2696371Y-50893903D01*
X2696366Y-50893902D01*
X2694313Y-50893888D01*
X2512040Y-50873443D01*
X2337208Y-50817983D01*
X2176479Y-50729622D01*
X2035974Y-50611724D01*
X1921044Y-50468780D01*
X1836068Y-50306235D01*
X1784281Y-50130281D01*
X1784277Y-50130240D01*
X1784276Y-50130236D01*
X1767657Y-49947622D01*
X1786825Y-49765254D01*
X1786830Y-49765207D01*
X1841068Y-49589993D01*
X1928305Y-49428651D01*
X2045220Y-49287325D01*
X2187358Y-49171401D01*
X2349305Y-49085292D01*
X2524894Y-49032278D01*
X2707435Y-49014380D01*
X3022837Y-49014380D01*
X3033869Y-49014457D01*
X3033869Y-49014457D01*
G37*
G36*
X21085810Y-50332640D02*
X18934430Y-50332640D01*
X18934430Y-49179480D01*
X21085810Y-49179480D01*
X21085810Y-50332640D01*
X21085810Y-50332640D01*
G37*
G36*
X37087810Y-50332640D02*
X34936430Y-50332640D01*
X34936430Y-49179480D01*
X37087810Y-49179480D01*
X37087810Y-50332640D01*
X37087810Y-50332640D01*
G37*
G36*
X17287320Y-50151380D02*
X16334920Y-50151380D01*
X16334920Y-49248980D01*
X17287320Y-49248980D01*
X17287320Y-50151380D01*
X17287320Y-50151380D01*
G37*
G36*
X15787320Y-50151380D02*
X14834920Y-50151380D01*
X14834920Y-49248980D01*
X15787320Y-49248980D01*
X15787320Y-50151380D01*
X15787320Y-50151380D01*
G37*
G36*
X21085810Y-48831500D02*
X18934430Y-48831500D01*
X18934430Y-47678340D01*
X21085810Y-47678340D01*
X21085810Y-48831500D01*
X21085810Y-48831500D01*
G37*
G36*
X37087810Y-48831500D02*
X34936430Y-48831500D01*
X34936430Y-47678340D01*
X37087810Y-47678340D01*
X37087810Y-48831500D01*
X37087810Y-48831500D01*
G37*
G36*
X9407820Y-48742880D02*
X8835420Y-48742880D01*
X8835420Y-47990480D01*
X9407820Y-47990480D01*
X9407820Y-48742880D01*
X9407820Y-48742880D01*
G37*
G36*
X10707820Y-48742880D02*
X10135420Y-48742880D01*
X10135420Y-47990480D01*
X10707820Y-47990480D01*
X10707820Y-48742880D01*
X10707820Y-48742880D01*
G37*
G36*
X3033869Y-46474457D02*
X3033874Y-46474458D01*
X3035927Y-46474472D01*
X3218200Y-46494917D01*
X3393032Y-46550377D01*
X3553761Y-46638738D01*
X3694266Y-46756636D01*
X3809196Y-46899580D01*
X3894172Y-47062125D01*
X3945959Y-47238079D01*
X3945963Y-47238120D01*
X3945964Y-47238124D01*
X3962583Y-47420738D01*
X3944768Y-47590236D01*
X3943410Y-47603153D01*
X3889172Y-47778367D01*
X3801935Y-47939709D01*
X3685020Y-48081035D01*
X3542882Y-48196959D01*
X3380935Y-48283068D01*
X3205346Y-48336082D01*
X3022805Y-48353980D01*
X2707403Y-48353980D01*
X2696371Y-48353903D01*
X2696366Y-48353902D01*
X2694313Y-48353888D01*
X2512040Y-48333443D01*
X2337208Y-48277983D01*
X2176479Y-48189622D01*
X2035974Y-48071724D01*
X1921044Y-47928780D01*
X1836068Y-47766235D01*
X1784281Y-47590281D01*
X1784277Y-47590240D01*
X1784276Y-47590236D01*
X1767657Y-47407622D01*
X1786825Y-47225254D01*
X1786830Y-47225207D01*
X1841068Y-47049993D01*
X1928305Y-46888651D01*
X2045220Y-46747325D01*
X2187358Y-46631401D01*
X2349305Y-46545292D01*
X2524894Y-46492278D01*
X2707435Y-46474380D01*
X3022837Y-46474380D01*
X3033869Y-46474457D01*
X3033869Y-46474457D01*
G37*
G36*
X17287320Y-48309880D02*
X16334920Y-48309880D01*
X16334920Y-47407480D01*
X17287320Y-47407480D01*
X17287320Y-48309880D01*
X17287320Y-48309880D01*
G37*
G36*
X15787320Y-48309880D02*
X14834920Y-48309880D01*
X14834920Y-47407480D01*
X15787320Y-47407480D01*
X15787320Y-48309880D01*
X15787320Y-48309880D01*
G37*
G36*
X21085810Y-47332900D02*
X18934430Y-47332900D01*
X18934430Y-46179740D01*
X21085810Y-46179740D01*
X21085810Y-47332900D01*
X21085810Y-47332900D01*
G37*
G36*
X37087810Y-47332900D02*
X34936430Y-47332900D01*
X34936430Y-46179740D01*
X37087810Y-46179740D01*
X37087810Y-47332900D01*
X37087810Y-47332900D01*
G37*
G36*
X10707820Y-46842880D02*
X8835420Y-46842880D01*
X8835420Y-46090480D01*
X10707820Y-46090480D01*
X10707820Y-46842880D01*
X10707820Y-46842880D01*
G37*
G36*
X21085810Y-45831760D02*
X18934430Y-45831760D01*
X18934430Y-44678600D01*
X21085810Y-44678600D01*
X21085810Y-45831760D01*
X21085810Y-45831760D01*
G37*
G36*
X37087810Y-45831760D02*
X34936430Y-45831760D01*
X34936430Y-44678600D01*
X37087810Y-44678600D01*
X37087810Y-45831760D01*
X37087810Y-45831760D01*
G37*
G36*
X3033869Y-43934457D02*
X3033874Y-43934458D01*
X3035927Y-43934472D01*
X3218200Y-43954917D01*
X3393032Y-44010377D01*
X3553761Y-44098738D01*
X3694266Y-44216636D01*
X3809196Y-44359580D01*
X3894172Y-44522125D01*
X3945959Y-44698079D01*
X3945963Y-44698120D01*
X3945964Y-44698124D01*
X3962583Y-44880738D01*
X3944768Y-45050236D01*
X3943410Y-45063153D01*
X3889172Y-45238367D01*
X3801935Y-45399709D01*
X3685020Y-45541035D01*
X3542882Y-45656959D01*
X3380935Y-45743068D01*
X3205346Y-45796082D01*
X3022805Y-45813980D01*
X2707403Y-45813980D01*
X2696371Y-45813903D01*
X2696366Y-45813902D01*
X2694313Y-45813888D01*
X2512040Y-45793443D01*
X2337208Y-45737983D01*
X2176479Y-45649622D01*
X2035974Y-45531724D01*
X1921044Y-45388780D01*
X1836068Y-45226235D01*
X1784281Y-45050281D01*
X1784277Y-45050240D01*
X1784276Y-45050236D01*
X1767657Y-44867622D01*
X1786825Y-44685254D01*
X1786830Y-44685207D01*
X1841068Y-44509993D01*
X1928305Y-44348651D01*
X2045220Y-44207325D01*
X2187358Y-44091401D01*
X2349305Y-44005292D01*
X2524894Y-43952278D01*
X2707435Y-43934380D01*
X3022837Y-43934380D01*
X3033869Y-43934457D01*
X3033869Y-43934457D01*
G37*
G36*
X10897820Y-45007880D02*
X9945420Y-45007880D01*
X9945420Y-44105480D01*
X10897820Y-44105480D01*
X10897820Y-45007880D01*
X10897820Y-45007880D01*
G37*
G36*
X9397820Y-45007880D02*
X8445420Y-45007880D01*
X8445420Y-44105480D01*
X9397820Y-44105480D01*
X9397820Y-45007880D01*
X9397820Y-45007880D01*
G37*
G36*
X37087810Y-44333160D02*
X34936430Y-44333160D01*
X34936430Y-43180000D01*
X37087810Y-43180000D01*
X37087810Y-44333160D01*
X37087810Y-44333160D01*
G37*
G36*
X21085810Y-44333160D02*
X18934430Y-44333160D01*
X18934430Y-43180000D01*
X21085810Y-43180000D01*
X21085810Y-44333160D01*
X21085810Y-44333160D01*
G37*
G36*
X17311320Y-44055380D02*
X16358920Y-44055380D01*
X16358920Y-43152980D01*
X17311320Y-43152980D01*
X17311320Y-44055380D01*
X17311320Y-44055380D01*
G37*
G36*
X15811320Y-44055380D02*
X14858920Y-44055380D01*
X14858920Y-43152980D01*
X15811320Y-43152980D01*
X15811320Y-44055380D01*
X15811320Y-44055380D01*
G37*
G36*
X3033869Y-41394457D02*
X3033874Y-41394458D01*
X3035927Y-41394472D01*
X3218200Y-41414917D01*
X3393032Y-41470377D01*
X3553761Y-41558738D01*
X3694266Y-41676636D01*
X3809196Y-41819580D01*
X3894172Y-41982125D01*
X3945959Y-42158079D01*
X3945963Y-42158120D01*
X3945964Y-42158124D01*
X3962583Y-42340738D01*
X3944768Y-42510236D01*
X3943410Y-42523153D01*
X3889172Y-42698367D01*
X3801935Y-42859709D01*
X3685020Y-43001035D01*
X3542882Y-43116959D01*
X3380935Y-43203068D01*
X3205346Y-43256082D01*
X3022805Y-43273980D01*
X2707403Y-43273980D01*
X2696371Y-43273903D01*
X2696366Y-43273902D01*
X2694313Y-43273888D01*
X2512040Y-43253443D01*
X2337208Y-43197983D01*
X2176479Y-43109622D01*
X2035974Y-42991724D01*
X1921044Y-42848780D01*
X1836068Y-42686235D01*
X1784281Y-42510281D01*
X1784277Y-42510240D01*
X1784276Y-42510236D01*
X1767657Y-42327622D01*
X1786825Y-42145254D01*
X1786830Y-42145207D01*
X1841068Y-41969993D01*
X1928305Y-41808651D01*
X2045220Y-41667325D01*
X2187358Y-41551401D01*
X2349305Y-41465292D01*
X2524894Y-41412278D01*
X2707435Y-41394380D01*
X3022837Y-41394380D01*
X3033869Y-41394457D01*
X3033869Y-41394457D01*
G37*
G36*
X17287320Y-42023380D02*
X16334920Y-42023380D01*
X16334920Y-41120980D01*
X17287320Y-41120980D01*
X17287320Y-42023380D01*
X17287320Y-42023380D01*
G37*
G36*
X15787320Y-42023380D02*
X14834920Y-42023380D01*
X14834920Y-41120980D01*
X15787320Y-41120980D01*
X15787320Y-42023380D01*
X15787320Y-42023380D01*
G37*
G36*
X3033869Y-38854457D02*
X3033874Y-38854458D01*
X3035927Y-38854472D01*
X3218200Y-38874917D01*
X3393032Y-38930377D01*
X3553761Y-39018738D01*
X3694266Y-39136636D01*
X3809196Y-39279580D01*
X3894172Y-39442125D01*
X3945959Y-39618079D01*
X3945963Y-39618120D01*
X3945964Y-39618124D01*
X3962583Y-39800738D01*
X3944768Y-39970236D01*
X3943410Y-39983153D01*
X3889172Y-40158367D01*
X3801935Y-40319709D01*
X3685020Y-40461035D01*
X3542882Y-40576959D01*
X3380935Y-40663068D01*
X3205346Y-40716082D01*
X3022805Y-40733980D01*
X2707403Y-40733980D01*
X2696371Y-40733903D01*
X2696366Y-40733902D01*
X2694313Y-40733888D01*
X2512040Y-40713443D01*
X2337208Y-40657983D01*
X2176479Y-40569622D01*
X2035974Y-40451724D01*
X1921044Y-40308780D01*
X1836068Y-40146235D01*
X1784281Y-39970281D01*
X1784277Y-39970240D01*
X1784276Y-39970236D01*
X1767657Y-39787622D01*
X1786825Y-39605254D01*
X1786830Y-39605207D01*
X1841068Y-39429993D01*
X1928305Y-39268651D01*
X2045220Y-39127325D01*
X2187358Y-39011401D01*
X2349305Y-38925292D01*
X2524894Y-38872278D01*
X2707435Y-38854380D01*
X3022837Y-38854380D01*
X3033869Y-38854457D01*
X3033869Y-38854457D01*
G37*
G36*
X24521320Y-40212380D02*
X23568920Y-40212380D01*
X23568920Y-38359980D01*
X24521320Y-38359980D01*
X24521320Y-40212380D01*
X24521320Y-40212380D01*
G37*
G36*
X21121320Y-40212380D02*
X20168920Y-40212380D01*
X20168920Y-38359980D01*
X21121320Y-38359980D01*
X21121320Y-40212380D01*
X21121320Y-40212380D01*
G37*
G36*
X3957320Y-38193980D02*
X1772920Y-38193980D01*
X1772920Y-36314380D01*
X3957320Y-36314380D01*
X3957320Y-38193980D01*
X3957320Y-38193980D01*
G37*
M02*
