%TF.GenerationSoftware,KiCad,Pcbnew,4.0.5-e0-6337~49~ubuntu16.04.1*%
%TF.CreationDate,2017-08-14T18:45:29-07:00*%
%TF.ProjectId,fgpmmopa6h-gps-breakout,6667706D6D6F706136682D6770732D62,v1.0*%
%TF.FileFunction,Legend,Top*%
%FSLAX46Y46*%
G04 Gerber Fmt 4.6, Leading zero omitted, Abs format (unit mm)*
G04 Created by KiCad (PCBNEW 4.0.5-e0-6337~49~ubuntu16.04.1) date Mon Aug 14 18:45:29 2017*
%MOMM*%
%LPD*%
G01*
G04 APERTURE LIST*
%ADD10C,0.350000*%
%ADD11C,0.152400*%
%ADD12C,0.203200*%
%ADD13C,0.150000*%
%ADD14C,0.050000*%
%ADD15C,0.120000*%
%ADD16C,0.508000*%
%ADD17R,1.152400X1.152400*%
%ADD18R,2.352400X1.152400*%
%ADD19R,0.952400X0.902400*%
%ADD20R,0.952400X1.852400*%
%ADD21R,0.572400X0.752400*%
%ADD22R,2.184400X1.879600*%
%ADD23O,2.184400X1.879600*%
%ADD24R,1.062400X1.372400*%
%ADD25R,2.151380X1.153160*%
G04 APERTURE END LIST*
D10*
D11*
X20680801Y-37485199D02*
X20342135Y-37001390D01*
X20100230Y-37485199D02*
X20100230Y-36469199D01*
X20487277Y-36469199D01*
X20584039Y-36517580D01*
X20632420Y-36565961D01*
X20680801Y-36662723D01*
X20680801Y-36807866D01*
X20632420Y-36904628D01*
X20584039Y-36953009D01*
X20487277Y-37001390D01*
X20100230Y-37001390D01*
X21116230Y-36953009D02*
X21454896Y-36953009D01*
X21600039Y-37485199D02*
X21116230Y-37485199D01*
X21116230Y-36469199D01*
X21600039Y-36469199D01*
X21987087Y-37436818D02*
X22132230Y-37485199D01*
X22374134Y-37485199D01*
X22470896Y-37436818D01*
X22519277Y-37388437D01*
X22567658Y-37291675D01*
X22567658Y-37194913D01*
X22519277Y-37098151D01*
X22470896Y-37049770D01*
X22374134Y-37001390D01*
X22180611Y-36953009D01*
X22083849Y-36904628D01*
X22035468Y-36856247D01*
X21987087Y-36759485D01*
X21987087Y-36662723D01*
X22035468Y-36565961D01*
X22083849Y-36517580D01*
X22180611Y-36469199D01*
X22422515Y-36469199D01*
X22567658Y-36517580D01*
X23003087Y-36953009D02*
X23341753Y-36953009D01*
X23486896Y-37485199D02*
X23003087Y-37485199D01*
X23003087Y-36469199D01*
X23486896Y-36469199D01*
X23777182Y-36469199D02*
X24357753Y-36469199D01*
X24067468Y-37485199D02*
X24067468Y-36469199D01*
X21854644Y-60295609D02*
X21515978Y-60295609D01*
X21515978Y-60827799D02*
X21515978Y-59811799D01*
X21999787Y-59811799D01*
X22919025Y-59860180D02*
X22822263Y-59811799D01*
X22677120Y-59811799D01*
X22531978Y-59860180D01*
X22435216Y-59956942D01*
X22386835Y-60053704D01*
X22338454Y-60247228D01*
X22338454Y-60392370D01*
X22386835Y-60585894D01*
X22435216Y-60682656D01*
X22531978Y-60779418D01*
X22677120Y-60827799D01*
X22773882Y-60827799D01*
X22919025Y-60779418D01*
X22967406Y-60731037D01*
X22967406Y-60392370D01*
X22773882Y-60392370D01*
X23402835Y-60827799D02*
X23402835Y-59811799D01*
X23789882Y-59811799D01*
X23886644Y-59860180D01*
X23935025Y-59908561D01*
X23983406Y-60005323D01*
X23983406Y-60150466D01*
X23935025Y-60247228D01*
X23886644Y-60295609D01*
X23789882Y-60343990D01*
X23402835Y-60343990D01*
X24418835Y-60827799D02*
X24418835Y-59811799D01*
X24757501Y-60537513D01*
X25096168Y-59811799D01*
X25096168Y-60827799D01*
X25579978Y-60827799D02*
X25579978Y-59811799D01*
X25918644Y-60537513D01*
X26257311Y-59811799D01*
X26257311Y-60827799D01*
X26934645Y-59811799D02*
X27128168Y-59811799D01*
X27224930Y-59860180D01*
X27321692Y-59956942D01*
X27370073Y-60150466D01*
X27370073Y-60489132D01*
X27321692Y-60682656D01*
X27224930Y-60779418D01*
X27128168Y-60827799D01*
X26934645Y-60827799D01*
X26837883Y-60779418D01*
X26741121Y-60682656D01*
X26692740Y-60489132D01*
X26692740Y-60150466D01*
X26741121Y-59956942D01*
X26837883Y-59860180D01*
X26934645Y-59811799D01*
X27805502Y-60827799D02*
X27805502Y-59811799D01*
X28192549Y-59811799D01*
X28289311Y-59860180D01*
X28337692Y-59908561D01*
X28386073Y-60005323D01*
X28386073Y-60150466D01*
X28337692Y-60247228D01*
X28289311Y-60295609D01*
X28192549Y-60343990D01*
X27805502Y-60343990D01*
X28773121Y-60537513D02*
X29256930Y-60537513D01*
X28676359Y-60827799D02*
X29015026Y-59811799D01*
X29353692Y-60827799D01*
X30127787Y-59811799D02*
X29934264Y-59811799D01*
X29837502Y-59860180D01*
X29789121Y-59908561D01*
X29692359Y-60053704D01*
X29643978Y-60247228D01*
X29643978Y-60634275D01*
X29692359Y-60731037D01*
X29740740Y-60779418D01*
X29837502Y-60827799D01*
X30031025Y-60827799D01*
X30127787Y-60779418D01*
X30176168Y-60731037D01*
X30224549Y-60634275D01*
X30224549Y-60392370D01*
X30176168Y-60295609D01*
X30127787Y-60247228D01*
X30031025Y-60198847D01*
X29837502Y-60198847D01*
X29740740Y-60247228D01*
X29692359Y-60295609D01*
X29643978Y-60392370D01*
X30659978Y-60827799D02*
X30659978Y-59811799D01*
X30659978Y-60295609D02*
X31240549Y-60295609D01*
X31240549Y-60827799D02*
X31240549Y-59811799D01*
X33030644Y-59860180D02*
X32933882Y-59811799D01*
X32788739Y-59811799D01*
X32643597Y-59860180D01*
X32546835Y-59956942D01*
X32498454Y-60053704D01*
X32450073Y-60247228D01*
X32450073Y-60392370D01*
X32498454Y-60585894D01*
X32546835Y-60682656D01*
X32643597Y-60779418D01*
X32788739Y-60827799D01*
X32885501Y-60827799D01*
X33030644Y-60779418D01*
X33079025Y-60731037D01*
X33079025Y-60392370D01*
X32885501Y-60392370D01*
X33514454Y-60827799D02*
X33514454Y-59811799D01*
X33901501Y-59811799D01*
X33998263Y-59860180D01*
X34046644Y-59908561D01*
X34095025Y-60005323D01*
X34095025Y-60150466D01*
X34046644Y-60247228D01*
X33998263Y-60295609D01*
X33901501Y-60343990D01*
X33514454Y-60343990D01*
X34482073Y-60779418D02*
X34627216Y-60827799D01*
X34869120Y-60827799D01*
X34965882Y-60779418D01*
X35014263Y-60731037D01*
X35062644Y-60634275D01*
X35062644Y-60537513D01*
X35014263Y-60440751D01*
X34965882Y-60392370D01*
X34869120Y-60343990D01*
X34675597Y-60295609D01*
X34578835Y-60247228D01*
X34530454Y-60198847D01*
X34482073Y-60102085D01*
X34482073Y-60005323D01*
X34530454Y-59908561D01*
X34578835Y-59860180D01*
X34675597Y-59811799D01*
X34917501Y-59811799D01*
X35062644Y-59860180D01*
X4812454Y-59557799D02*
X5441406Y-59557799D01*
X5102740Y-59944847D01*
X5247882Y-59944847D01*
X5344644Y-59993228D01*
X5393025Y-60041609D01*
X5441406Y-60138370D01*
X5441406Y-60380275D01*
X5393025Y-60477037D01*
X5344644Y-60525418D01*
X5247882Y-60573799D01*
X4957597Y-60573799D01*
X4860835Y-60525418D01*
X4812454Y-60477037D01*
X5876835Y-60477037D02*
X5925216Y-60525418D01*
X5876835Y-60573799D01*
X5828454Y-60525418D01*
X5876835Y-60477037D01*
X5876835Y-60573799D01*
X6263883Y-59557799D02*
X6892835Y-59557799D01*
X6554169Y-59944847D01*
X6699311Y-59944847D01*
X6796073Y-59993228D01*
X6844454Y-60041609D01*
X6892835Y-60138370D01*
X6892835Y-60380275D01*
X6844454Y-60477037D01*
X6796073Y-60525418D01*
X6699311Y-60573799D01*
X6409026Y-60573799D01*
X6312264Y-60525418D01*
X6263883Y-60477037D01*
X7183121Y-59557799D02*
X7521788Y-60573799D01*
X7860454Y-59557799D01*
X7957216Y-60670561D02*
X8731311Y-60670561D01*
X9553787Y-60573799D02*
X9215121Y-60089990D01*
X8973216Y-60573799D02*
X8973216Y-59557799D01*
X9360263Y-59557799D01*
X9457025Y-59606180D01*
X9505406Y-59654561D01*
X9553787Y-59751323D01*
X9553787Y-59896466D01*
X9505406Y-59993228D01*
X9457025Y-60041609D01*
X9360263Y-60089990D01*
X8973216Y-60089990D01*
X9892454Y-59557799D02*
X10569787Y-60573799D01*
X10569787Y-59557799D02*
X9892454Y-60573799D01*
X5513977Y-58033799D02*
X5175311Y-57549990D01*
X4933406Y-58033799D02*
X4933406Y-57017799D01*
X5320453Y-57017799D01*
X5417215Y-57066180D01*
X5465596Y-57114561D01*
X5513977Y-57211323D01*
X5513977Y-57356466D01*
X5465596Y-57453228D01*
X5417215Y-57501609D01*
X5320453Y-57549990D01*
X4933406Y-57549990D01*
X5804263Y-57017799D02*
X6384834Y-57017799D01*
X6094549Y-58033799D02*
X6094549Y-57017799D01*
X7304072Y-57937037D02*
X7255691Y-57985418D01*
X7110548Y-58033799D01*
X7013786Y-58033799D01*
X6868644Y-57985418D01*
X6771882Y-57888656D01*
X6723501Y-57791894D01*
X6675120Y-57598370D01*
X6675120Y-57453228D01*
X6723501Y-57259704D01*
X6771882Y-57162942D01*
X6868644Y-57066180D01*
X7013786Y-57017799D01*
X7110548Y-57017799D01*
X7255691Y-57066180D01*
X7304072Y-57114561D01*
X7739501Y-58033799D02*
X7739501Y-57017799D01*
X8078167Y-57743513D01*
X8416834Y-57017799D01*
X8416834Y-58033799D01*
X5465596Y-55493799D02*
X4885025Y-55493799D01*
X5175311Y-55493799D02*
X5175311Y-54477799D01*
X5078549Y-54622942D01*
X4981787Y-54719704D01*
X4885025Y-54768085D01*
X5901025Y-55493799D02*
X5901025Y-54477799D01*
X6288072Y-54477799D01*
X6384834Y-54526180D01*
X6433215Y-54574561D01*
X6481596Y-54671323D01*
X6481596Y-54816466D01*
X6433215Y-54913228D01*
X6384834Y-54961609D01*
X6288072Y-55009990D01*
X5901025Y-55009990D01*
X6917025Y-55493799D02*
X6917025Y-54477799D01*
X7304072Y-54477799D01*
X7400834Y-54526180D01*
X7449215Y-54574561D01*
X7497596Y-54671323D01*
X7497596Y-54816466D01*
X7449215Y-54913228D01*
X7400834Y-54961609D01*
X7304072Y-55009990D01*
X6917025Y-55009990D01*
X7884644Y-55445418D02*
X8029787Y-55493799D01*
X8271691Y-55493799D01*
X8368453Y-55445418D01*
X8416834Y-55397037D01*
X8465215Y-55300275D01*
X8465215Y-55203513D01*
X8416834Y-55106751D01*
X8368453Y-55058370D01*
X8271691Y-55009990D01*
X8078168Y-54961609D01*
X7981406Y-54913228D01*
X7933025Y-54864847D01*
X7884644Y-54768085D01*
X7884644Y-54671323D01*
X7933025Y-54574561D01*
X7981406Y-54526180D01*
X8078168Y-54477799D01*
X8320072Y-54477799D01*
X8465215Y-54526180D01*
X5272072Y-52421609D02*
X4933406Y-52421609D01*
X4933406Y-52953799D02*
X4933406Y-51937799D01*
X5417215Y-51937799D01*
X5804263Y-52953799D02*
X5804263Y-51937799D01*
X6191311Y-51937799D02*
X6868644Y-52953799D01*
X6868644Y-51937799D02*
X6191311Y-52953799D01*
X5465596Y-49446180D02*
X5368834Y-49397799D01*
X5223691Y-49397799D01*
X5078549Y-49446180D01*
X4981787Y-49542942D01*
X4933406Y-49639704D01*
X4885025Y-49833228D01*
X4885025Y-49978370D01*
X4933406Y-50171894D01*
X4981787Y-50268656D01*
X5078549Y-50365418D01*
X5223691Y-50413799D01*
X5320453Y-50413799D01*
X5465596Y-50365418D01*
X5513977Y-50317037D01*
X5513977Y-49978370D01*
X5320453Y-49978370D01*
X5949406Y-50413799D02*
X5949406Y-49397799D01*
X6529977Y-50413799D01*
X6529977Y-49397799D01*
X7013787Y-50413799D02*
X7013787Y-49397799D01*
X7255692Y-49397799D01*
X7400834Y-49446180D01*
X7497596Y-49542942D01*
X7545977Y-49639704D01*
X7594358Y-49833228D01*
X7594358Y-49978370D01*
X7545977Y-50171894D01*
X7497596Y-50268656D01*
X7400834Y-50365418D01*
X7255692Y-50413799D01*
X7013787Y-50413799D01*
X4933406Y-47873799D02*
X4933406Y-46857799D01*
X5513977Y-47873799D01*
X5513977Y-46857799D01*
X6578358Y-47777037D02*
X6529977Y-47825418D01*
X6384834Y-47873799D01*
X6288072Y-47873799D01*
X6142930Y-47825418D01*
X6046168Y-47728656D01*
X5997787Y-47631894D01*
X5949406Y-47438370D01*
X5949406Y-47293228D01*
X5997787Y-47099704D01*
X6046168Y-47002942D01*
X6142930Y-46906180D01*
X6288072Y-46857799D01*
X6384834Y-46857799D01*
X6529977Y-46906180D01*
X6578358Y-46954561D01*
X4914054Y-44355899D02*
X5252721Y-45371899D01*
X5591387Y-44355899D01*
X6510625Y-45275137D02*
X6462244Y-45323518D01*
X6317101Y-45371899D01*
X6220339Y-45371899D01*
X6075197Y-45323518D01*
X5978435Y-45226756D01*
X5930054Y-45129994D01*
X5881673Y-44936470D01*
X5881673Y-44791328D01*
X5930054Y-44597804D01*
X5978435Y-44501042D01*
X6075197Y-44404280D01*
X6220339Y-44355899D01*
X6317101Y-44355899D01*
X6462244Y-44404280D01*
X6510625Y-44452661D01*
X7526625Y-45275137D02*
X7478244Y-45323518D01*
X7333101Y-45371899D01*
X7236339Y-45371899D01*
X7091197Y-45323518D01*
X6994435Y-45226756D01*
X6946054Y-45129994D01*
X6897673Y-44936470D01*
X6897673Y-44791328D01*
X6946054Y-44597804D01*
X6994435Y-44501042D01*
X7091197Y-44404280D01*
X7236339Y-44355899D01*
X7333101Y-44355899D01*
X7478244Y-44404280D01*
X7526625Y-44452661D01*
X5432939Y-41803199D02*
X4949130Y-41803199D01*
X4900749Y-42287009D01*
X4949130Y-42238628D01*
X5045892Y-42190247D01*
X5287796Y-42190247D01*
X5384558Y-42238628D01*
X5432939Y-42287009D01*
X5481320Y-42383770D01*
X5481320Y-42625675D01*
X5432939Y-42722437D01*
X5384558Y-42770818D01*
X5287796Y-42819199D01*
X5045892Y-42819199D01*
X4949130Y-42770818D01*
X4900749Y-42722437D01*
X5771606Y-41803199D02*
X6110273Y-42819199D01*
X6448939Y-41803199D01*
X6545701Y-42915961D02*
X7319796Y-42915961D01*
X8142272Y-42819199D02*
X7803606Y-42335390D01*
X7561701Y-42819199D02*
X7561701Y-41803199D01*
X7948748Y-41803199D01*
X8045510Y-41851580D01*
X8093891Y-41899961D01*
X8142272Y-41996723D01*
X8142272Y-42141866D01*
X8093891Y-42238628D01*
X8045510Y-42287009D01*
X7948748Y-42335390D01*
X7561701Y-42335390D01*
X8480939Y-41803199D02*
X9158272Y-42819199D01*
X9158272Y-41803199D02*
X8480939Y-42819199D01*
X4852368Y-39352099D02*
X5481320Y-39352099D01*
X5142654Y-39739147D01*
X5287796Y-39739147D01*
X5384558Y-39787528D01*
X5432939Y-39835909D01*
X5481320Y-39932670D01*
X5481320Y-40174575D01*
X5432939Y-40271337D01*
X5384558Y-40319718D01*
X5287796Y-40368099D01*
X4997511Y-40368099D01*
X4900749Y-40319718D01*
X4852368Y-40271337D01*
X5916749Y-40271337D02*
X5965130Y-40319718D01*
X5916749Y-40368099D01*
X5868368Y-40319718D01*
X5916749Y-40271337D01*
X5916749Y-40368099D01*
X6303797Y-39352099D02*
X6932749Y-39352099D01*
X6594083Y-39739147D01*
X6739225Y-39739147D01*
X6835987Y-39787528D01*
X6884368Y-39835909D01*
X6932749Y-39932670D01*
X6932749Y-40174575D01*
X6884368Y-40271337D01*
X6835987Y-40319718D01*
X6739225Y-40368099D01*
X6448940Y-40368099D01*
X6352178Y-40319718D01*
X6303797Y-40271337D01*
X7223035Y-39352099D02*
X7561702Y-40368099D01*
X7900368Y-39352099D01*
X7997130Y-40464861D02*
X8771225Y-40464861D01*
X8867987Y-39352099D02*
X9448558Y-39352099D01*
X9158273Y-40368099D02*
X9158273Y-39352099D01*
X9690463Y-39352099D02*
X10367796Y-40368099D01*
X10367796Y-39352099D02*
X9690463Y-40368099D01*
X4860835Y-37713799D02*
X4860835Y-36697799D01*
X5441406Y-37713799D01*
X5441406Y-36697799D01*
X6505787Y-37617037D02*
X6457406Y-37665418D01*
X6312263Y-37713799D01*
X6215501Y-37713799D01*
X6070359Y-37665418D01*
X5973597Y-37568656D01*
X5925216Y-37471894D01*
X5876835Y-37278370D01*
X5876835Y-37133228D01*
X5925216Y-36939704D01*
X5973597Y-36842942D01*
X6070359Y-36746180D01*
X6215501Y-36697799D01*
X6312263Y-36697799D01*
X6457406Y-36746180D01*
X6505787Y-36794561D01*
D12*
X41596620Y-57048680D02*
X41596620Y-56448680D01*
X41996620Y-57048680D02*
X41496620Y-57048680D01*
X41996620Y-57048680D02*
X41996620Y-56448680D01*
X41996620Y-56448680D02*
X41496620Y-56448680D01*
X40696620Y-56748680D02*
G75*
G03X40696620Y-56748680I-200000J0D01*
G01*
X41496620Y-56748680D02*
G75*
G03X41496620Y-56748680I-1000000J0D01*
G01*
X39196620Y-55448680D02*
X39196620Y-58048680D01*
X39196620Y-58048680D02*
X41796620Y-58048680D01*
X41796620Y-58048680D02*
X41796620Y-55448680D01*
X41796620Y-55448680D02*
X39196620Y-55448680D01*
X38896620Y-55748680D02*
G75*
G03X38896620Y-55748680I-200000J0D01*
G01*
D11*
X8274620Y-43921680D02*
X8274620Y-45191680D01*
X11005120Y-43921680D02*
X11005120Y-45191680D01*
D13*
X8274620Y-43921680D02*
X11005120Y-43921680D01*
X11005120Y-45191680D02*
X8274620Y-45191680D01*
D11*
X17458120Y-48493680D02*
X17458120Y-47223680D01*
X14727620Y-48493680D02*
X14727620Y-47223680D01*
D13*
X17458120Y-48493680D02*
X14727620Y-48493680D01*
X14727620Y-47223680D02*
X17458120Y-47223680D01*
D11*
X17458120Y-42207180D02*
X17458120Y-40937180D01*
X14727620Y-42207180D02*
X14727620Y-40937180D01*
D13*
X17458120Y-42207180D02*
X14727620Y-42207180D01*
X14727620Y-40937180D02*
X17458120Y-40937180D01*
D11*
X17482120Y-44239180D02*
X17482120Y-42969180D01*
X14751620Y-44239180D02*
X14751620Y-42969180D01*
D13*
X17482120Y-44239180D02*
X14751620Y-44239180D01*
X14751620Y-42969180D02*
X17482120Y-42969180D01*
D14*
X14307120Y-52240180D02*
X14307120Y-50716180D01*
D13*
X15481120Y-50878180D02*
X16181120Y-50878180D01*
X16181120Y-52078180D02*
X15481120Y-52078180D01*
D11*
X14688120Y-55161180D02*
X14688120Y-56431180D01*
X17418620Y-55161180D02*
X17418620Y-56431180D01*
D13*
X14688120Y-55161180D02*
X17418620Y-55161180D01*
X17418620Y-56431180D02*
X14688120Y-56431180D01*
D11*
X14664120Y-49065180D02*
X14664120Y-50335180D01*
X17394620Y-49065180D02*
X17394620Y-50335180D01*
D13*
X14664120Y-49065180D02*
X17394620Y-49065180D01*
X17394620Y-50335180D02*
X14664120Y-50335180D01*
D11*
X17458120Y-58463180D02*
X17458120Y-57193180D01*
X14727620Y-58463180D02*
X14727620Y-57193180D01*
D13*
X17458120Y-58463180D02*
X14727620Y-58463180D01*
X14727620Y-57193180D02*
X17458120Y-57193180D01*
X23938440Y-38036180D02*
X20938440Y-38036180D01*
X23938440Y-40536180D02*
X20938440Y-40536180D01*
D10*
X24045120Y-37286180D02*
X24045120Y-37286180D01*
X17123100Y-35973000D02*
X17123100Y-35973000D01*
D15*
X10931620Y-48116680D02*
X10931620Y-46216680D01*
X8611620Y-46716680D02*
X8611620Y-48116680D01*
D13*
X4135120Y-38524180D02*
X4135120Y-61384180D01*
X4135120Y-61384180D02*
X1595120Y-61384180D01*
X1595120Y-61384180D02*
X1595120Y-38524180D01*
X4415120Y-35704180D02*
X4415120Y-37254180D01*
X4135120Y-38524180D02*
X1595120Y-38524180D01*
X1315120Y-37254180D02*
X1315120Y-35704180D01*
X1315120Y-35704180D02*
X4415120Y-35704180D01*
X16429620Y-53510180D02*
X16810620Y-53510180D01*
X15413620Y-53510180D02*
X15794620Y-53510180D01*
X15794620Y-53510180D02*
X16429620Y-53129180D01*
X16429620Y-53129180D02*
X16429620Y-53891180D01*
X16429620Y-53891180D02*
X15794620Y-53510180D01*
X15794620Y-53002180D02*
X15794620Y-54018180D01*
X14112120Y-54410180D02*
X17652120Y-54410180D01*
X14112120Y-52610180D02*
X17652120Y-52610180D01*
D11*
X13412120Y-52610180D02*
X13412120Y-54310180D01*
D16*
X20240073Y-42123360D02*
G75*
G03X20240073Y-42123360I-228953J0D01*
G01*
D11*
X21470620Y-42504360D02*
X36012120Y-42504360D01*
X36012120Y-58506360D02*
X20010120Y-58506360D01*
D13*
X39346025Y-53740347D02*
X39822216Y-53740347D01*
X39250787Y-54026061D02*
X39584120Y-53026061D01*
X39917454Y-54026061D01*
X40250787Y-54026061D02*
X40250787Y-53026061D01*
X40822216Y-54026061D01*
X40822216Y-53026061D01*
X41822216Y-54026061D02*
X41250787Y-54026061D01*
X41536501Y-54026061D02*
X41536501Y-53026061D01*
X41441263Y-53168918D01*
X41346025Y-53264156D01*
X41250787Y-53311775D01*
X10381954Y-43516823D02*
X10334335Y-43564442D01*
X10191478Y-43612061D01*
X10096240Y-43612061D01*
X9953382Y-43564442D01*
X9858144Y-43469204D01*
X9810525Y-43373966D01*
X9762906Y-43183490D01*
X9762906Y-43040632D01*
X9810525Y-42850156D01*
X9858144Y-42754918D01*
X9953382Y-42659680D01*
X10096240Y-42612061D01*
X10191478Y-42612061D01*
X10334335Y-42659680D01*
X10381954Y-42707299D01*
X11334335Y-43612061D02*
X10762906Y-43612061D01*
X11048620Y-43612061D02*
X11048620Y-42612061D01*
X10953382Y-42754918D01*
X10858144Y-42850156D01*
X10762906Y-42897775D01*
X13302954Y-48215823D02*
X13255335Y-48263442D01*
X13112478Y-48311061D01*
X13017240Y-48311061D01*
X12874382Y-48263442D01*
X12779144Y-48168204D01*
X12731525Y-48072966D01*
X12683906Y-47882490D01*
X12683906Y-47739632D01*
X12731525Y-47549156D01*
X12779144Y-47453918D01*
X12874382Y-47358680D01*
X13017240Y-47311061D01*
X13112478Y-47311061D01*
X13255335Y-47358680D01*
X13302954Y-47406299D01*
X13683906Y-47406299D02*
X13731525Y-47358680D01*
X13826763Y-47311061D01*
X14064859Y-47311061D01*
X14160097Y-47358680D01*
X14207716Y-47406299D01*
X14255335Y-47501537D01*
X14255335Y-47596775D01*
X14207716Y-47739632D01*
X13636287Y-48311061D01*
X14255335Y-48311061D01*
X13239454Y-41865823D02*
X13191835Y-41913442D01*
X13048978Y-41961061D01*
X12953740Y-41961061D01*
X12810882Y-41913442D01*
X12715644Y-41818204D01*
X12668025Y-41722966D01*
X12620406Y-41532490D01*
X12620406Y-41389632D01*
X12668025Y-41199156D01*
X12715644Y-41103918D01*
X12810882Y-41008680D01*
X12953740Y-40961061D01*
X13048978Y-40961061D01*
X13191835Y-41008680D01*
X13239454Y-41056299D01*
X13572787Y-40961061D02*
X14191835Y-40961061D01*
X13858501Y-41342013D01*
X14001359Y-41342013D01*
X14096597Y-41389632D01*
X14144216Y-41437251D01*
X14191835Y-41532490D01*
X14191835Y-41770585D01*
X14144216Y-41865823D01*
X14096597Y-41913442D01*
X14001359Y-41961061D01*
X13715644Y-41961061D01*
X13620406Y-41913442D01*
X13572787Y-41865823D01*
X13239454Y-44088323D02*
X13191835Y-44135942D01*
X13048978Y-44183561D01*
X12953740Y-44183561D01*
X12810882Y-44135942D01*
X12715644Y-44040704D01*
X12668025Y-43945466D01*
X12620406Y-43754990D01*
X12620406Y-43612132D01*
X12668025Y-43421656D01*
X12715644Y-43326418D01*
X12810882Y-43231180D01*
X12953740Y-43183561D01*
X13048978Y-43183561D01*
X13191835Y-43231180D01*
X13239454Y-43278799D01*
X14096597Y-43516894D02*
X14096597Y-44183561D01*
X13858501Y-43135942D02*
X13620406Y-43850228D01*
X14239454Y-43850228D01*
X11326930Y-51740061D02*
X10850739Y-51740061D01*
X10850739Y-50740061D01*
X11660263Y-51216251D02*
X11993597Y-51216251D01*
X12136454Y-51740061D02*
X11660263Y-51740061D01*
X11660263Y-50740061D01*
X12136454Y-50740061D01*
X12565025Y-51740061D02*
X12565025Y-50740061D01*
X12803120Y-50740061D01*
X12945978Y-50787680D01*
X13041216Y-50882918D01*
X13088835Y-50978156D01*
X13136454Y-51168632D01*
X13136454Y-51311490D01*
X13088835Y-51501966D01*
X13041216Y-51597204D01*
X12945978Y-51692442D01*
X12803120Y-51740061D01*
X12565025Y-51740061D01*
X14088835Y-51740061D02*
X13517406Y-51740061D01*
X13803120Y-51740061D02*
X13803120Y-50740061D01*
X13707882Y-50882918D01*
X13612644Y-50978156D01*
X13517406Y-51025775D01*
X13175954Y-56312061D02*
X12842620Y-55835870D01*
X12604525Y-56312061D02*
X12604525Y-55312061D01*
X12985478Y-55312061D01*
X13080716Y-55359680D01*
X13128335Y-55407299D01*
X13175954Y-55502537D01*
X13175954Y-55645394D01*
X13128335Y-55740632D01*
X13080716Y-55788251D01*
X12985478Y-55835870D01*
X12604525Y-55835870D01*
X14128335Y-56312061D02*
X13556906Y-56312061D01*
X13842620Y-56312061D02*
X13842620Y-55312061D01*
X13747382Y-55454918D01*
X13652144Y-55550156D01*
X13556906Y-55597775D01*
X13136454Y-49962061D02*
X12803120Y-49485870D01*
X12565025Y-49962061D02*
X12565025Y-48962061D01*
X12945978Y-48962061D01*
X13041216Y-49009680D01*
X13088835Y-49057299D01*
X13136454Y-49152537D01*
X13136454Y-49295394D01*
X13088835Y-49390632D01*
X13041216Y-49438251D01*
X12945978Y-49485870D01*
X12565025Y-49485870D01*
X13517406Y-49057299D02*
X13565025Y-49009680D01*
X13660263Y-48962061D01*
X13898359Y-48962061D01*
X13993597Y-49009680D01*
X14041216Y-49057299D01*
X14088835Y-49152537D01*
X14088835Y-49247775D01*
X14041216Y-49390632D01*
X13469787Y-49962061D01*
X14088835Y-49962061D01*
X13136454Y-58407561D02*
X12803120Y-57931370D01*
X12565025Y-58407561D02*
X12565025Y-57407561D01*
X12945978Y-57407561D01*
X13041216Y-57455180D01*
X13088835Y-57502799D01*
X13136454Y-57598037D01*
X13136454Y-57740894D01*
X13088835Y-57836132D01*
X13041216Y-57883751D01*
X12945978Y-57931370D01*
X12565025Y-57931370D01*
X13469787Y-57407561D02*
X14088835Y-57407561D01*
X13755501Y-57788513D01*
X13898359Y-57788513D01*
X13993597Y-57836132D01*
X14041216Y-57883751D01*
X14088835Y-57978990D01*
X14088835Y-58217085D01*
X14041216Y-58312323D01*
X13993597Y-58359942D01*
X13898359Y-58407561D01*
X13612644Y-58407561D01*
X13517406Y-58359942D01*
X13469787Y-58312323D01*
X9762906Y-49279561D02*
X9762906Y-50089085D01*
X9810525Y-50184323D01*
X9858144Y-50231942D01*
X9953382Y-50279561D01*
X10143859Y-50279561D01*
X10239097Y-50231942D01*
X10286716Y-50184323D01*
X10334335Y-50089085D01*
X10334335Y-49279561D01*
X11334335Y-50279561D02*
X10762906Y-50279561D01*
X11048620Y-50279561D02*
X11048620Y-49279561D01*
X10953382Y-49422418D01*
X10858144Y-49517656D01*
X10762906Y-49565275D01*
X11906025Y-54038761D02*
X11906025Y-53038761D01*
X12144120Y-53038761D01*
X12286978Y-53086380D01*
X12382216Y-53181618D01*
X12429835Y-53276856D01*
X12477454Y-53467332D01*
X12477454Y-53610190D01*
X12429835Y-53800666D01*
X12382216Y-53895904D01*
X12286978Y-53991142D01*
X12144120Y-54038761D01*
X11906025Y-54038761D01*
X13429835Y-54038761D02*
X12858406Y-54038761D01*
X13144120Y-54038761D02*
X13144120Y-53038761D01*
X13048882Y-53181618D01*
X12953644Y-53276856D01*
X12858406Y-53324475D01*
X34615215Y-40770561D02*
X34615215Y-41580085D01*
X34662834Y-41675323D01*
X34710453Y-41722942D01*
X34805691Y-41770561D01*
X34996168Y-41770561D01*
X35091406Y-41722942D01*
X35139025Y-41675323D01*
X35186644Y-41580085D01*
X35186644Y-40770561D01*
X35615215Y-40865799D02*
X35662834Y-40818180D01*
X35758072Y-40770561D01*
X35996168Y-40770561D01*
X36091406Y-40818180D01*
X36139025Y-40865799D01*
X36186644Y-40961037D01*
X36186644Y-41056275D01*
X36139025Y-41199132D01*
X35567596Y-41770561D01*
X36186644Y-41770561D01*
%LPC*%
D17*
X38996620Y-56748680D03*
D18*
X40496620Y-55248680D03*
X40496620Y-58248680D03*
D19*
X8921620Y-44556680D03*
X10421620Y-44556680D03*
X16811120Y-47858680D03*
X15311120Y-47858680D03*
X16811120Y-41572180D03*
X15311120Y-41572180D03*
X16835120Y-43604180D03*
X15335120Y-43604180D03*
X15081120Y-51478180D03*
X16581120Y-51478180D03*
X15335120Y-55796180D03*
X16835120Y-55796180D03*
X15311120Y-49700180D03*
X16811120Y-49700180D03*
X16811120Y-57828180D03*
X15311120Y-57828180D03*
D20*
X20645120Y-39286180D03*
X24045120Y-39286180D03*
D21*
X10421620Y-46466680D03*
X9121620Y-46466680D03*
X10421620Y-48366680D03*
X9771620Y-46466680D03*
X9121620Y-48366680D03*
D22*
X2865120Y-37254180D03*
D23*
X2865120Y-39794180D03*
X2865120Y-42334180D03*
X2865120Y-44874180D03*
X2865120Y-47414180D03*
X2865120Y-49954180D03*
X2865120Y-52494180D03*
X2865120Y-55034180D03*
X2865120Y-57574180D03*
X2865120Y-60114180D03*
D24*
X14477120Y-53510180D03*
X17747120Y-53510180D03*
D25*
X20010120Y-43756580D03*
X20010120Y-45255180D03*
X20010120Y-46756320D03*
X20010120Y-48254920D03*
X20010120Y-49756060D03*
X20010120Y-51254660D03*
X20010120Y-52755800D03*
X20010120Y-54254400D03*
X20010120Y-55755540D03*
X20010120Y-57254140D03*
X36012120Y-57254140D03*
X36012120Y-55755540D03*
X36012120Y-54254400D03*
X36012120Y-52755800D03*
X36012120Y-51254660D03*
X36012120Y-49756060D03*
X36012120Y-48254920D03*
X36012120Y-46756320D03*
X36012120Y-45255180D03*
X36012120Y-43756580D03*
M02*
