%TF.GenerationSoftware,KiCad,Pcbnew,4.0.5-e0-6337~49~ubuntu16.04.1*%
%TF.CreationDate,2017-03-11T12:02:39-08:00*%
%TF.ProjectId,fgpmmopa6h-gps-breakout,6667706D6D6F706136682D6770732D62,v1.0*%
%TF.FileFunction,Legend,Bot*%
%FSLAX46Y46*%
G04 Gerber Fmt 4.6, Leading zero omitted, Abs format (unit mm)*
G04 Created by KiCad (PCBNEW 4.0.5-e0-6337~49~ubuntu16.04.1) date Sat Mar 11 12:02:39 2017*
%MOMM*%
%LPD*%
G01*
G04 APERTURE LIST*
%ADD10C,0.350000*%
%ADD11C,0.152400*%
%ADD12C,0.150000*%
%ADD13R,5.252400X2.652400*%
%ADD14C,10.352400*%
%ADD15R,2.184400X1.879600*%
%ADD16O,2.184400X1.879600*%
G04 APERTURE END LIST*
D10*
D11*
X168809609Y-80638469D02*
X169148275Y-80638469D01*
X169148275Y-81170659D02*
X169148275Y-80154659D01*
X168664466Y-80154659D01*
X167745228Y-80203040D02*
X167841990Y-80154659D01*
X167987133Y-80154659D01*
X168132275Y-80203040D01*
X168229037Y-80299802D01*
X168277418Y-80396564D01*
X168325799Y-80590088D01*
X168325799Y-80735230D01*
X168277418Y-80928754D01*
X168229037Y-81025516D01*
X168132275Y-81122278D01*
X167987133Y-81170659D01*
X167890371Y-81170659D01*
X167745228Y-81122278D01*
X167696847Y-81073897D01*
X167696847Y-80735230D01*
X167890371Y-80735230D01*
X167261418Y-81170659D02*
X167261418Y-80154659D01*
X166874371Y-80154659D01*
X166777609Y-80203040D01*
X166729228Y-80251421D01*
X166680847Y-80348183D01*
X166680847Y-80493326D01*
X166729228Y-80590088D01*
X166777609Y-80638469D01*
X166874371Y-80686850D01*
X167261418Y-80686850D01*
X166245418Y-81170659D02*
X166245418Y-80154659D01*
X165906752Y-80880373D01*
X165568085Y-80154659D01*
X165568085Y-81170659D01*
X165084275Y-81170659D02*
X165084275Y-80154659D01*
X164745609Y-80880373D01*
X164406942Y-80154659D01*
X164406942Y-81170659D01*
X163729608Y-80154659D02*
X163536085Y-80154659D01*
X163439323Y-80203040D01*
X163342561Y-80299802D01*
X163294180Y-80493326D01*
X163294180Y-80831992D01*
X163342561Y-81025516D01*
X163439323Y-81122278D01*
X163536085Y-81170659D01*
X163729608Y-81170659D01*
X163826370Y-81122278D01*
X163923132Y-81025516D01*
X163971513Y-80831992D01*
X163971513Y-80493326D01*
X163923132Y-80299802D01*
X163826370Y-80203040D01*
X163729608Y-80154659D01*
X162858751Y-81170659D02*
X162858751Y-80154659D01*
X162471704Y-80154659D01*
X162374942Y-80203040D01*
X162326561Y-80251421D01*
X162278180Y-80348183D01*
X162278180Y-80493326D01*
X162326561Y-80590088D01*
X162374942Y-80638469D01*
X162471704Y-80686850D01*
X162858751Y-80686850D01*
X161891132Y-80880373D02*
X161407323Y-80880373D01*
X161987894Y-81170659D02*
X161649227Y-80154659D01*
X161310561Y-81170659D01*
X160536466Y-80154659D02*
X160729989Y-80154659D01*
X160826751Y-80203040D01*
X160875132Y-80251421D01*
X160971894Y-80396564D01*
X161020275Y-80590088D01*
X161020275Y-80977135D01*
X160971894Y-81073897D01*
X160923513Y-81122278D01*
X160826751Y-81170659D01*
X160633228Y-81170659D01*
X160536466Y-81122278D01*
X160488085Y-81073897D01*
X160439704Y-80977135D01*
X160439704Y-80735230D01*
X160488085Y-80638469D01*
X160536466Y-80590088D01*
X160633228Y-80541707D01*
X160826751Y-80541707D01*
X160923513Y-80590088D01*
X160971894Y-80638469D01*
X161020275Y-80735230D01*
X160004275Y-81170659D02*
X160004275Y-80154659D01*
X160004275Y-80638469D02*
X159423704Y-80638469D01*
X159423704Y-81170659D02*
X159423704Y-80154659D01*
X157633609Y-80203040D02*
X157730371Y-80154659D01*
X157875514Y-80154659D01*
X158020656Y-80203040D01*
X158117418Y-80299802D01*
X158165799Y-80396564D01*
X158214180Y-80590088D01*
X158214180Y-80735230D01*
X158165799Y-80928754D01*
X158117418Y-81025516D01*
X158020656Y-81122278D01*
X157875514Y-81170659D01*
X157778752Y-81170659D01*
X157633609Y-81122278D01*
X157585228Y-81073897D01*
X157585228Y-80735230D01*
X157778752Y-80735230D01*
X157149799Y-81170659D02*
X157149799Y-80154659D01*
X156762752Y-80154659D01*
X156665990Y-80203040D01*
X156617609Y-80251421D01*
X156569228Y-80348183D01*
X156569228Y-80493326D01*
X156617609Y-80590088D01*
X156665990Y-80638469D01*
X156762752Y-80686850D01*
X157149799Y-80686850D01*
X156182180Y-81122278D02*
X156037037Y-81170659D01*
X155795133Y-81170659D01*
X155698371Y-81122278D01*
X155649990Y-81073897D01*
X155601609Y-80977135D01*
X155601609Y-80880373D01*
X155649990Y-80783611D01*
X155698371Y-80735230D01*
X155795133Y-80686850D01*
X155988656Y-80638469D01*
X156085418Y-80590088D01*
X156133799Y-80541707D01*
X156182180Y-80444945D01*
X156182180Y-80348183D01*
X156133799Y-80251421D01*
X156085418Y-80203040D01*
X155988656Y-80154659D01*
X155746752Y-80154659D01*
X155601609Y-80203040D01*
X154053419Y-80638469D02*
X153908276Y-80686850D01*
X153859895Y-80735230D01*
X153811514Y-80831992D01*
X153811514Y-80977135D01*
X153859895Y-81073897D01*
X153908276Y-81122278D01*
X154005038Y-81170659D01*
X154392085Y-81170659D01*
X154392085Y-80154659D01*
X154053419Y-80154659D01*
X153956657Y-80203040D01*
X153908276Y-80251421D01*
X153859895Y-80348183D01*
X153859895Y-80444945D01*
X153908276Y-80541707D01*
X153956657Y-80590088D01*
X154053419Y-80638469D01*
X154392085Y-80638469D01*
X153376085Y-81170659D02*
X153376085Y-80493326D01*
X153376085Y-80686850D02*
X153327704Y-80590088D01*
X153279323Y-80541707D01*
X153182561Y-80493326D01*
X153085800Y-80493326D01*
X152360086Y-81122278D02*
X152456848Y-81170659D01*
X152650371Y-81170659D01*
X152747133Y-81122278D01*
X152795514Y-81025516D01*
X152795514Y-80638469D01*
X152747133Y-80541707D01*
X152650371Y-80493326D01*
X152456848Y-80493326D01*
X152360086Y-80541707D01*
X152311705Y-80638469D01*
X152311705Y-80735230D01*
X152795514Y-80831992D01*
X151440848Y-81170659D02*
X151440848Y-80638469D01*
X151489229Y-80541707D01*
X151585991Y-80493326D01*
X151779514Y-80493326D01*
X151876276Y-80541707D01*
X151440848Y-81122278D02*
X151537610Y-81170659D01*
X151779514Y-81170659D01*
X151876276Y-81122278D01*
X151924657Y-81025516D01*
X151924657Y-80928754D01*
X151876276Y-80831992D01*
X151779514Y-80783611D01*
X151537610Y-80783611D01*
X151440848Y-80735230D01*
X150957038Y-81170659D02*
X150957038Y-80154659D01*
X150860276Y-80783611D02*
X150569991Y-81170659D01*
X150569991Y-80493326D02*
X150957038Y-80880373D01*
X149989419Y-81170659D02*
X150086181Y-81122278D01*
X150134562Y-81073897D01*
X150182943Y-80977135D01*
X150182943Y-80686850D01*
X150134562Y-80590088D01*
X150086181Y-80541707D01*
X149989419Y-80493326D01*
X149844277Y-80493326D01*
X149747515Y-80541707D01*
X149699134Y-80590088D01*
X149650753Y-80686850D01*
X149650753Y-80977135D01*
X149699134Y-81073897D01*
X149747515Y-81122278D01*
X149844277Y-81170659D01*
X149989419Y-81170659D01*
X148779896Y-80493326D02*
X148779896Y-81170659D01*
X149215324Y-80493326D02*
X149215324Y-81025516D01*
X149166943Y-81122278D01*
X149070181Y-81170659D01*
X148925039Y-81170659D01*
X148828277Y-81122278D01*
X148779896Y-81073897D01*
X148441229Y-80493326D02*
X148054181Y-80493326D01*
X148296086Y-80154659D02*
X148296086Y-81025516D01*
X148247705Y-81122278D01*
X148150943Y-81170659D01*
X148054181Y-81170659D01*
X146602754Y-80638469D02*
X146457611Y-80686850D01*
X146409230Y-80735230D01*
X146360849Y-80831992D01*
X146360849Y-80977135D01*
X146409230Y-81073897D01*
X146457611Y-81122278D01*
X146554373Y-81170659D01*
X146941420Y-81170659D01*
X146941420Y-80154659D01*
X146602754Y-80154659D01*
X146505992Y-80203040D01*
X146457611Y-80251421D01*
X146409230Y-80348183D01*
X146409230Y-80444945D01*
X146457611Y-80541707D01*
X146505992Y-80590088D01*
X146602754Y-80638469D01*
X146941420Y-80638469D01*
X145780277Y-81170659D02*
X145877039Y-81122278D01*
X145925420Y-81073897D01*
X145973801Y-80977135D01*
X145973801Y-80686850D01*
X145925420Y-80590088D01*
X145877039Y-80541707D01*
X145780277Y-80493326D01*
X145635135Y-80493326D01*
X145538373Y-80541707D01*
X145489992Y-80590088D01*
X145441611Y-80686850D01*
X145441611Y-80977135D01*
X145489992Y-81073897D01*
X145538373Y-81122278D01*
X145635135Y-81170659D01*
X145780277Y-81170659D01*
X144570754Y-81170659D02*
X144570754Y-80638469D01*
X144619135Y-80541707D01*
X144715897Y-80493326D01*
X144909420Y-80493326D01*
X145006182Y-80541707D01*
X144570754Y-81122278D02*
X144667516Y-81170659D01*
X144909420Y-81170659D01*
X145006182Y-81122278D01*
X145054563Y-81025516D01*
X145054563Y-80928754D01*
X145006182Y-80831992D01*
X144909420Y-80783611D01*
X144667516Y-80783611D01*
X144570754Y-80735230D01*
X144086944Y-81170659D02*
X144086944Y-80493326D01*
X144086944Y-80686850D02*
X144038563Y-80590088D01*
X143990182Y-80541707D01*
X143893420Y-80493326D01*
X143796659Y-80493326D01*
X143022564Y-81170659D02*
X143022564Y-80154659D01*
X143022564Y-81122278D02*
X143119326Y-81170659D01*
X143312849Y-81170659D01*
X143409611Y-81122278D01*
X143457992Y-81073897D01*
X143506373Y-80977135D01*
X143506373Y-80686850D01*
X143457992Y-80590088D01*
X143409611Y-80541707D01*
X143312849Y-80493326D01*
X143119326Y-80493326D01*
X143022564Y-80541707D01*
X141861421Y-80493326D02*
X141619516Y-81170659D01*
X141377612Y-80493326D01*
X140458374Y-81170659D02*
X141038945Y-81170659D01*
X140748659Y-81170659D02*
X140748659Y-80154659D01*
X140845421Y-80299802D01*
X140942183Y-80396564D01*
X141038945Y-80444945D01*
X140022945Y-81073897D02*
X139974564Y-81122278D01*
X140022945Y-81170659D01*
X140071326Y-81122278D01*
X140022945Y-81073897D01*
X140022945Y-81170659D01*
X139006945Y-81170659D02*
X139587516Y-81170659D01*
X139297230Y-81170659D02*
X139297230Y-80154659D01*
X139393992Y-80299802D01*
X139490754Y-80396564D01*
X139587516Y-80444945D01*
X169245037Y-104379486D02*
X169051513Y-105056819D01*
X168857990Y-104573010D01*
X168664466Y-105056819D01*
X168470942Y-104379486D01*
X168083894Y-105056819D02*
X168083894Y-104379486D01*
X168083894Y-104040819D02*
X168132275Y-104089200D01*
X168083894Y-104137581D01*
X168035513Y-104089200D01*
X168083894Y-104040819D01*
X168083894Y-104137581D01*
X167164656Y-105008438D02*
X167261418Y-105056819D01*
X167454941Y-105056819D01*
X167551703Y-105008438D01*
X167600084Y-104960057D01*
X167648465Y-104863295D01*
X167648465Y-104573010D01*
X167600084Y-104476248D01*
X167551703Y-104427867D01*
X167454941Y-104379486D01*
X167261418Y-104379486D01*
X167164656Y-104427867D01*
X166729227Y-105056819D02*
X166729227Y-104040819D01*
X166632465Y-104669771D02*
X166342180Y-105056819D01*
X166342180Y-104379486D02*
X166729227Y-104766533D01*
X165519704Y-105008438D02*
X165616466Y-105056819D01*
X165809989Y-105056819D01*
X165906751Y-105008438D01*
X165955132Y-104911676D01*
X165955132Y-104524629D01*
X165906751Y-104427867D01*
X165809989Y-104379486D01*
X165616466Y-104379486D01*
X165519704Y-104427867D01*
X165471323Y-104524629D01*
X165471323Y-104621390D01*
X165955132Y-104718152D01*
X165035894Y-105056819D02*
X165035894Y-104379486D01*
X165035894Y-104573010D02*
X164987513Y-104476248D01*
X164939132Y-104427867D01*
X164842370Y-104379486D01*
X164745609Y-104379486D01*
X164406942Y-105056819D02*
X164406942Y-104040819D01*
X164406942Y-104427867D02*
X164310180Y-104379486D01*
X164116657Y-104379486D01*
X164019895Y-104427867D01*
X163971514Y-104476248D01*
X163923133Y-104573010D01*
X163923133Y-104863295D01*
X163971514Y-104960057D01*
X164019895Y-105008438D01*
X164116657Y-105056819D01*
X164310180Y-105056819D01*
X164406942Y-105008438D01*
X163342561Y-105056819D02*
X163439323Y-105008438D01*
X163487704Y-104960057D01*
X163536085Y-104863295D01*
X163536085Y-104573010D01*
X163487704Y-104476248D01*
X163439323Y-104427867D01*
X163342561Y-104379486D01*
X163197419Y-104379486D01*
X163100657Y-104427867D01*
X163052276Y-104476248D01*
X163003895Y-104573010D01*
X163003895Y-104863295D01*
X163052276Y-104960057D01*
X163100657Y-105008438D01*
X163197419Y-105056819D01*
X163342561Y-105056819D01*
X162665228Y-105056819D02*
X162133038Y-104379486D01*
X162665228Y-104379486D02*
X162133038Y-105056819D01*
X161745990Y-104960057D02*
X161697609Y-105008438D01*
X161745990Y-105056819D01*
X161794371Y-105008438D01*
X161745990Y-104960057D01*
X161745990Y-105056819D01*
X161262180Y-104379486D02*
X161262180Y-105056819D01*
X161262180Y-104476248D02*
X161213799Y-104427867D01*
X161117037Y-104379486D01*
X160971895Y-104379486D01*
X160875133Y-104427867D01*
X160826752Y-104524629D01*
X160826752Y-105056819D01*
X159955895Y-105008438D02*
X160052657Y-105056819D01*
X160246180Y-105056819D01*
X160342942Y-105008438D01*
X160391323Y-104911676D01*
X160391323Y-104524629D01*
X160342942Y-104427867D01*
X160246180Y-104379486D01*
X160052657Y-104379486D01*
X159955895Y-104427867D01*
X159907514Y-104524629D01*
X159907514Y-104621390D01*
X160391323Y-104718152D01*
X159617228Y-104379486D02*
X159230180Y-104379486D01*
X159472085Y-104040819D02*
X159472085Y-104911676D01*
X159423704Y-105008438D01*
X159326942Y-105056819D01*
X159230180Y-105056819D01*
X160608400Y-100477300D02*
X159108400Y-100477300D01*
X160608400Y-97227300D02*
X160608400Y-100477300D01*
X160608400Y-84727300D02*
X159108400Y-84727300D01*
X160608400Y-84977300D02*
X160608400Y-84727300D01*
X160608400Y-88227300D02*
X160608400Y-84977300D01*
X160641787Y-88262806D02*
G75*
G02X160608400Y-97227300I-4783387J-4464494D01*
G01*
X151575013Y-96941794D02*
G75*
G02X151608400Y-87977300I4783387J4464494D01*
G01*
X151608400Y-96977300D02*
X151608400Y-100227300D01*
X151608400Y-100227300D02*
X151608400Y-100477300D01*
X151608400Y-100477300D02*
X153108400Y-100477300D01*
X151608400Y-87977300D02*
X151608400Y-84727300D01*
X151608400Y-84727300D02*
X153108400Y-84727300D01*
D12*
X157233785Y-103433571D02*
X157090928Y-103481190D01*
X157043309Y-103528810D01*
X156995690Y-103624048D01*
X156995690Y-103766905D01*
X157043309Y-103862143D01*
X157090928Y-103909762D01*
X157186166Y-103957381D01*
X157567119Y-103957381D01*
X157567119Y-102957381D01*
X157233785Y-102957381D01*
X157138547Y-103005000D01*
X157090928Y-103052619D01*
X157043309Y-103147857D01*
X157043309Y-103243095D01*
X157090928Y-103338333D01*
X157138547Y-103385952D01*
X157233785Y-103433571D01*
X157567119Y-103433571D01*
X156614738Y-103671667D02*
X156138547Y-103671667D01*
X156709976Y-103957381D02*
X156376643Y-102957381D01*
X156043309Y-103957381D01*
X155852833Y-102957381D02*
X155281404Y-102957381D01*
X155567119Y-103957381D02*
X155567119Y-102957381D01*
X154424261Y-103957381D02*
X154995690Y-103957381D01*
X154709976Y-103957381D02*
X154709976Y-102957381D01*
X154805214Y-103100238D01*
X154900452Y-103195476D01*
X154995690Y-103243095D01*
%LPC*%
D13*
X156108400Y-85077300D03*
X156108400Y-100377300D03*
D14*
X156108400Y-92727300D03*
D15*
X130810000Y-81280000D03*
D16*
X130810000Y-83820000D03*
X130810000Y-86360000D03*
X130810000Y-88900000D03*
X130810000Y-91440000D03*
X130810000Y-93980000D03*
X130810000Y-96520000D03*
X130810000Y-99060000D03*
X130810000Y-101600000D03*
X130810000Y-104140000D03*
M02*
