%TF.GenerationSoftware,KiCad,Pcbnew,4.0.5-e0-6337~49~ubuntu16.04.1*%
%TF.CreationDate,2017-03-11T12:02:39-08:00*%
%TF.ProjectId,fgpmmopa6h-gps-breakout,6667706D6D6F706136682D6770732D62,v1.0*%
%TF.FileFunction,Soldermask,Top*%
%FSLAX46Y46*%
G04 Gerber Fmt 4.6, Leading zero omitted, Abs format (unit mm)*
G04 Created by KiCad (PCBNEW 4.0.5-e0-6337~49~ubuntu16.04.1) date Sat Mar 11 12:02:39 2017*
%MOMM*%
%LPD*%
G01*
G04 APERTURE LIST*
%ADD10C,0.350000*%
G04 APERTURE END LIST*
D10*
G36*
X130978749Y-103200277D02*
X130978754Y-103200278D01*
X130980807Y-103200292D01*
X131163080Y-103220737D01*
X131337912Y-103276197D01*
X131498641Y-103364558D01*
X131639146Y-103482456D01*
X131754076Y-103625400D01*
X131839052Y-103787945D01*
X131890839Y-103963899D01*
X131890843Y-103963940D01*
X131890844Y-103963944D01*
X131907463Y-104146558D01*
X131889648Y-104316056D01*
X131888290Y-104328973D01*
X131834052Y-104504187D01*
X131746815Y-104665529D01*
X131629900Y-104806855D01*
X131487762Y-104922779D01*
X131325815Y-105008888D01*
X131150226Y-105061902D01*
X130967685Y-105079800D01*
X130652283Y-105079800D01*
X130641251Y-105079723D01*
X130641246Y-105079722D01*
X130639193Y-105079708D01*
X130456920Y-105059263D01*
X130282088Y-105003803D01*
X130121359Y-104915442D01*
X129980854Y-104797544D01*
X129865924Y-104654600D01*
X129780948Y-104492055D01*
X129729161Y-104316101D01*
X129729157Y-104316060D01*
X129729156Y-104316056D01*
X129712537Y-104133442D01*
X129731705Y-103951074D01*
X129731710Y-103951027D01*
X129785948Y-103775813D01*
X129873185Y-103614471D01*
X129990100Y-103473145D01*
X130132238Y-103357221D01*
X130294185Y-103271112D01*
X130469774Y-103218098D01*
X130652315Y-103200200D01*
X130967717Y-103200200D01*
X130978749Y-103200277D01*
X130978749Y-103200277D01*
G37*
G36*
X169617700Y-102850700D02*
X167265300Y-102850700D01*
X167265300Y-101698300D01*
X169617700Y-101698300D01*
X169617700Y-102850700D01*
X169617700Y-102850700D01*
G37*
G36*
X130978749Y-100660277D02*
X130978754Y-100660278D01*
X130980807Y-100660292D01*
X131163080Y-100680737D01*
X131337912Y-100736197D01*
X131498641Y-100824558D01*
X131639146Y-100942456D01*
X131754076Y-101085400D01*
X131839052Y-101247945D01*
X131890839Y-101423899D01*
X131890843Y-101423940D01*
X131890844Y-101423944D01*
X131907463Y-101606558D01*
X131897820Y-101698300D01*
X131888290Y-101788973D01*
X131834052Y-101964187D01*
X131746815Y-102125529D01*
X131629900Y-102266855D01*
X131487762Y-102382779D01*
X131325815Y-102468888D01*
X131150226Y-102521902D01*
X130967685Y-102539800D01*
X130652283Y-102539800D01*
X130641251Y-102539723D01*
X130641246Y-102539722D01*
X130639193Y-102539708D01*
X130456920Y-102519263D01*
X130282088Y-102463803D01*
X130121359Y-102375442D01*
X129980854Y-102257544D01*
X129865924Y-102114600D01*
X129780948Y-101952055D01*
X129729161Y-101776101D01*
X129729157Y-101776060D01*
X129729156Y-101776056D01*
X129712537Y-101593442D01*
X129731705Y-101411074D01*
X129731710Y-101411027D01*
X129785948Y-101235813D01*
X129873185Y-101074471D01*
X129990100Y-100933145D01*
X130132238Y-100817221D01*
X130294185Y-100731112D01*
X130469774Y-100678098D01*
X130652315Y-100660200D01*
X130967717Y-100660200D01*
X130978749Y-100660277D01*
X130978749Y-100660277D01*
G37*
G36*
X145232200Y-102305200D02*
X144279800Y-102305200D01*
X144279800Y-101402800D01*
X145232200Y-101402800D01*
X145232200Y-102305200D01*
X145232200Y-102305200D01*
G37*
G36*
X143732200Y-102305200D02*
X142779800Y-102305200D01*
X142779800Y-101402800D01*
X143732200Y-101402800D01*
X143732200Y-102305200D01*
X143732200Y-102305200D01*
G37*
G36*
X165032690Y-101856540D02*
X162881310Y-101856540D01*
X162881310Y-100703380D01*
X165032690Y-100703380D01*
X165032690Y-101856540D01*
X165032690Y-101856540D01*
G37*
G36*
X149030690Y-101856540D02*
X146879310Y-101856540D01*
X146879310Y-100703380D01*
X149030690Y-100703380D01*
X149030690Y-101856540D01*
X149030690Y-101856540D01*
G37*
G36*
X167517700Y-101350700D02*
X166365300Y-101350700D01*
X166365300Y-100198300D01*
X167517700Y-100198300D01*
X167517700Y-101350700D01*
X167517700Y-101350700D01*
G37*
G36*
X165032690Y-100357940D02*
X162881310Y-100357940D01*
X162881310Y-99204780D01*
X165032690Y-99204780D01*
X165032690Y-100357940D01*
X165032690Y-100357940D01*
G37*
G36*
X149030690Y-100357940D02*
X146879310Y-100357940D01*
X146879310Y-99204780D01*
X149030690Y-99204780D01*
X149030690Y-100357940D01*
X149030690Y-100357940D01*
G37*
G36*
X143756200Y-100273200D02*
X142803800Y-100273200D01*
X142803800Y-99370800D01*
X143756200Y-99370800D01*
X143756200Y-100273200D01*
X143756200Y-100273200D01*
G37*
G36*
X145256200Y-100273200D02*
X144303800Y-100273200D01*
X144303800Y-99370800D01*
X145256200Y-99370800D01*
X145256200Y-100273200D01*
X145256200Y-100273200D01*
G37*
G36*
X130978749Y-98120277D02*
X130978754Y-98120278D01*
X130980807Y-98120292D01*
X131163080Y-98140737D01*
X131337912Y-98196197D01*
X131498641Y-98284558D01*
X131639146Y-98402456D01*
X131754076Y-98545400D01*
X131839052Y-98707945D01*
X131890839Y-98883899D01*
X131890843Y-98883940D01*
X131890844Y-98883944D01*
X131907463Y-99066558D01*
X131892935Y-99204780D01*
X131888290Y-99248973D01*
X131834052Y-99424187D01*
X131746815Y-99585529D01*
X131629900Y-99726855D01*
X131487762Y-99842779D01*
X131325815Y-99928888D01*
X131150226Y-99981902D01*
X130967685Y-99999800D01*
X130652283Y-99999800D01*
X130641251Y-99999723D01*
X130641246Y-99999722D01*
X130639193Y-99999708D01*
X130456920Y-99979263D01*
X130282088Y-99923803D01*
X130121359Y-99835442D01*
X129980854Y-99717544D01*
X129865924Y-99574600D01*
X129780948Y-99412055D01*
X129729161Y-99236101D01*
X129729157Y-99236060D01*
X129729156Y-99236056D01*
X129712537Y-99053442D01*
X129731705Y-98871074D01*
X129731710Y-98871027D01*
X129785948Y-98695813D01*
X129873185Y-98534471D01*
X129990100Y-98393145D01*
X130132238Y-98277221D01*
X130294185Y-98191112D01*
X130469774Y-98138098D01*
X130652315Y-98120200D01*
X130967717Y-98120200D01*
X130978749Y-98120277D01*
X130978749Y-98120277D01*
G37*
G36*
X169617700Y-99850700D02*
X167265300Y-99850700D01*
X167265300Y-98698300D01*
X169617700Y-98698300D01*
X169617700Y-99850700D01*
X169617700Y-99850700D01*
G37*
G36*
X149030690Y-98856800D02*
X146879310Y-98856800D01*
X146879310Y-97703640D01*
X149030690Y-97703640D01*
X149030690Y-98856800D01*
X149030690Y-98856800D01*
G37*
G36*
X165032690Y-98856800D02*
X162881310Y-98856800D01*
X162881310Y-97703640D01*
X165032690Y-97703640D01*
X165032690Y-98856800D01*
X165032690Y-98856800D01*
G37*
G36*
X142953200Y-98222200D02*
X141890800Y-98222200D01*
X141890800Y-96849800D01*
X142953200Y-96849800D01*
X142953200Y-98222200D01*
X142953200Y-98222200D01*
G37*
G36*
X146223200Y-98222200D02*
X145160800Y-98222200D01*
X145160800Y-96849800D01*
X146223200Y-96849800D01*
X146223200Y-98222200D01*
X146223200Y-98222200D01*
G37*
G36*
X130978749Y-95580277D02*
X130978754Y-95580278D01*
X130980807Y-95580292D01*
X131163080Y-95600737D01*
X131337912Y-95656197D01*
X131498641Y-95744558D01*
X131639146Y-95862456D01*
X131754076Y-96005400D01*
X131839052Y-96167945D01*
X131890839Y-96343899D01*
X131890843Y-96343940D01*
X131890844Y-96343944D01*
X131907463Y-96526558D01*
X131889648Y-96696056D01*
X131888290Y-96708973D01*
X131834052Y-96884187D01*
X131746815Y-97045529D01*
X131629900Y-97186855D01*
X131487762Y-97302779D01*
X131325815Y-97388888D01*
X131150226Y-97441902D01*
X130967685Y-97459800D01*
X130652283Y-97459800D01*
X130641251Y-97459723D01*
X130641246Y-97459722D01*
X130639193Y-97459708D01*
X130456920Y-97439263D01*
X130282088Y-97383803D01*
X130121359Y-97295442D01*
X129980854Y-97177544D01*
X129865924Y-97034600D01*
X129780948Y-96872055D01*
X129729161Y-96696101D01*
X129729157Y-96696060D01*
X129729156Y-96696056D01*
X129712537Y-96513442D01*
X129731705Y-96331074D01*
X129731710Y-96331027D01*
X129785948Y-96155813D01*
X129873185Y-95994471D01*
X129990100Y-95853145D01*
X130132238Y-95737221D01*
X130294185Y-95651112D01*
X130469774Y-95598098D01*
X130652315Y-95580200D01*
X130967717Y-95580200D01*
X130978749Y-95580277D01*
X130978749Y-95580277D01*
G37*
G36*
X149030690Y-97358200D02*
X146879310Y-97358200D01*
X146879310Y-96205040D01*
X149030690Y-96205040D01*
X149030690Y-97358200D01*
X149030690Y-97358200D01*
G37*
G36*
X165032690Y-97358200D02*
X162881310Y-97358200D01*
X162881310Y-96205040D01*
X165032690Y-96205040D01*
X165032690Y-97358200D01*
X165032690Y-97358200D01*
G37*
G36*
X145002200Y-95955200D02*
X144049800Y-95955200D01*
X144049800Y-95052800D01*
X145002200Y-95052800D01*
X145002200Y-95955200D01*
X145002200Y-95955200D01*
G37*
G36*
X143502200Y-95955200D02*
X142549800Y-95955200D01*
X142549800Y-95052800D01*
X143502200Y-95052800D01*
X143502200Y-95955200D01*
X143502200Y-95955200D01*
G37*
G36*
X165032690Y-95857060D02*
X162881310Y-95857060D01*
X162881310Y-94703900D01*
X165032690Y-94703900D01*
X165032690Y-95857060D01*
X165032690Y-95857060D01*
G37*
G36*
X149030690Y-95857060D02*
X146879310Y-95857060D01*
X146879310Y-94703900D01*
X149030690Y-94703900D01*
X149030690Y-95857060D01*
X149030690Y-95857060D01*
G37*
G36*
X130978749Y-93040277D02*
X130978754Y-93040278D01*
X130980807Y-93040292D01*
X131163080Y-93060737D01*
X131337912Y-93116197D01*
X131498641Y-93204558D01*
X131639146Y-93322456D01*
X131754076Y-93465400D01*
X131839052Y-93627945D01*
X131890839Y-93803899D01*
X131890843Y-93803940D01*
X131890844Y-93803944D01*
X131907463Y-93986558D01*
X131889648Y-94156056D01*
X131888290Y-94168973D01*
X131834052Y-94344187D01*
X131746815Y-94505529D01*
X131629900Y-94646855D01*
X131487762Y-94762779D01*
X131325815Y-94848888D01*
X131150226Y-94901902D01*
X130967685Y-94919800D01*
X130652283Y-94919800D01*
X130641251Y-94919723D01*
X130641246Y-94919722D01*
X130639193Y-94919708D01*
X130456920Y-94899263D01*
X130282088Y-94843803D01*
X130121359Y-94755442D01*
X129980854Y-94637544D01*
X129865924Y-94494600D01*
X129780948Y-94332055D01*
X129729161Y-94156101D01*
X129729157Y-94156060D01*
X129729156Y-94156056D01*
X129712537Y-93973442D01*
X129731705Y-93791074D01*
X129731710Y-93791027D01*
X129785948Y-93615813D01*
X129873185Y-93454471D01*
X129990100Y-93313145D01*
X130132238Y-93197221D01*
X130294185Y-93111112D01*
X130469774Y-93058098D01*
X130652315Y-93040200D01*
X130967717Y-93040200D01*
X130978749Y-93040277D01*
X130978749Y-93040277D01*
G37*
G36*
X149030690Y-94358460D02*
X146879310Y-94358460D01*
X146879310Y-93205300D01*
X149030690Y-93205300D01*
X149030690Y-94358460D01*
X149030690Y-94358460D01*
G37*
G36*
X165032690Y-94358460D02*
X162881310Y-94358460D01*
X162881310Y-93205300D01*
X165032690Y-93205300D01*
X165032690Y-94358460D01*
X165032690Y-94358460D01*
G37*
G36*
X145232200Y-94177200D02*
X144279800Y-94177200D01*
X144279800Y-93274800D01*
X145232200Y-93274800D01*
X145232200Y-94177200D01*
X145232200Y-94177200D01*
G37*
G36*
X143732200Y-94177200D02*
X142779800Y-94177200D01*
X142779800Y-93274800D01*
X143732200Y-93274800D01*
X143732200Y-94177200D01*
X143732200Y-94177200D01*
G37*
G36*
X149030690Y-92857320D02*
X146879310Y-92857320D01*
X146879310Y-91704160D01*
X149030690Y-91704160D01*
X149030690Y-92857320D01*
X149030690Y-92857320D01*
G37*
G36*
X165032690Y-92857320D02*
X162881310Y-92857320D01*
X162881310Y-91704160D01*
X165032690Y-91704160D01*
X165032690Y-92857320D01*
X165032690Y-92857320D01*
G37*
G36*
X137352700Y-92768700D02*
X136780300Y-92768700D01*
X136780300Y-92016300D01*
X137352700Y-92016300D01*
X137352700Y-92768700D01*
X137352700Y-92768700D01*
G37*
G36*
X138652700Y-92768700D02*
X138080300Y-92768700D01*
X138080300Y-92016300D01*
X138652700Y-92016300D01*
X138652700Y-92768700D01*
X138652700Y-92768700D01*
G37*
G36*
X130978749Y-90500277D02*
X130978754Y-90500278D01*
X130980807Y-90500292D01*
X131163080Y-90520737D01*
X131337912Y-90576197D01*
X131498641Y-90664558D01*
X131639146Y-90782456D01*
X131754076Y-90925400D01*
X131839052Y-91087945D01*
X131890839Y-91263899D01*
X131890843Y-91263940D01*
X131890844Y-91263944D01*
X131907463Y-91446558D01*
X131889648Y-91616056D01*
X131888290Y-91628973D01*
X131834052Y-91804187D01*
X131746815Y-91965529D01*
X131629900Y-92106855D01*
X131487762Y-92222779D01*
X131325815Y-92308888D01*
X131150226Y-92361902D01*
X130967685Y-92379800D01*
X130652283Y-92379800D01*
X130641251Y-92379723D01*
X130641246Y-92379722D01*
X130639193Y-92379708D01*
X130456920Y-92359263D01*
X130282088Y-92303803D01*
X130121359Y-92215442D01*
X129980854Y-92097544D01*
X129865924Y-91954600D01*
X129780948Y-91792055D01*
X129729161Y-91616101D01*
X129729157Y-91616060D01*
X129729156Y-91616056D01*
X129712537Y-91433442D01*
X129731705Y-91251074D01*
X129731710Y-91251027D01*
X129785948Y-91075813D01*
X129873185Y-90914471D01*
X129990100Y-90773145D01*
X130132238Y-90657221D01*
X130294185Y-90571112D01*
X130469774Y-90518098D01*
X130652315Y-90500200D01*
X130967717Y-90500200D01*
X130978749Y-90500277D01*
X130978749Y-90500277D01*
G37*
G36*
X145232200Y-92335700D02*
X144279800Y-92335700D01*
X144279800Y-91433300D01*
X145232200Y-91433300D01*
X145232200Y-92335700D01*
X145232200Y-92335700D01*
G37*
G36*
X143732200Y-92335700D02*
X142779800Y-92335700D01*
X142779800Y-91433300D01*
X143732200Y-91433300D01*
X143732200Y-92335700D01*
X143732200Y-92335700D01*
G37*
G36*
X149030690Y-91358720D02*
X146879310Y-91358720D01*
X146879310Y-90205560D01*
X149030690Y-90205560D01*
X149030690Y-91358720D01*
X149030690Y-91358720D01*
G37*
G36*
X165032690Y-91358720D02*
X162881310Y-91358720D01*
X162881310Y-90205560D01*
X165032690Y-90205560D01*
X165032690Y-91358720D01*
X165032690Y-91358720D01*
G37*
G36*
X138652700Y-90868700D02*
X136780300Y-90868700D01*
X136780300Y-90116300D01*
X138652700Y-90116300D01*
X138652700Y-90868700D01*
X138652700Y-90868700D01*
G37*
G36*
X149030690Y-89857580D02*
X146879310Y-89857580D01*
X146879310Y-88704420D01*
X149030690Y-88704420D01*
X149030690Y-89857580D01*
X149030690Y-89857580D01*
G37*
G36*
X165032690Y-89857580D02*
X162881310Y-89857580D01*
X162881310Y-88704420D01*
X165032690Y-88704420D01*
X165032690Y-89857580D01*
X165032690Y-89857580D01*
G37*
G36*
X130978749Y-87960277D02*
X130978754Y-87960278D01*
X130980807Y-87960292D01*
X131163080Y-87980737D01*
X131337912Y-88036197D01*
X131498641Y-88124558D01*
X131639146Y-88242456D01*
X131754076Y-88385400D01*
X131839052Y-88547945D01*
X131890839Y-88723899D01*
X131890843Y-88723940D01*
X131890844Y-88723944D01*
X131907463Y-88906558D01*
X131889648Y-89076056D01*
X131888290Y-89088973D01*
X131834052Y-89264187D01*
X131746815Y-89425529D01*
X131629900Y-89566855D01*
X131487762Y-89682779D01*
X131325815Y-89768888D01*
X131150226Y-89821902D01*
X130967685Y-89839800D01*
X130652283Y-89839800D01*
X130641251Y-89839723D01*
X130641246Y-89839722D01*
X130639193Y-89839708D01*
X130456920Y-89819263D01*
X130282088Y-89763803D01*
X130121359Y-89675442D01*
X129980854Y-89557544D01*
X129865924Y-89414600D01*
X129780948Y-89252055D01*
X129729161Y-89076101D01*
X129729157Y-89076060D01*
X129729156Y-89076056D01*
X129712537Y-88893442D01*
X129731705Y-88711074D01*
X129731710Y-88711027D01*
X129785948Y-88535813D01*
X129873185Y-88374471D01*
X129990100Y-88233145D01*
X130132238Y-88117221D01*
X130294185Y-88031112D01*
X130469774Y-87978098D01*
X130652315Y-87960200D01*
X130967717Y-87960200D01*
X130978749Y-87960277D01*
X130978749Y-87960277D01*
G37*
G36*
X138842700Y-89033700D02*
X137890300Y-89033700D01*
X137890300Y-88131300D01*
X138842700Y-88131300D01*
X138842700Y-89033700D01*
X138842700Y-89033700D01*
G37*
G36*
X137342700Y-89033700D02*
X136390300Y-89033700D01*
X136390300Y-88131300D01*
X137342700Y-88131300D01*
X137342700Y-89033700D01*
X137342700Y-89033700D01*
G37*
G36*
X165032690Y-88358980D02*
X162881310Y-88358980D01*
X162881310Y-87205820D01*
X165032690Y-87205820D01*
X165032690Y-88358980D01*
X165032690Y-88358980D01*
G37*
G36*
X149030690Y-88358980D02*
X146879310Y-88358980D01*
X146879310Y-87205820D01*
X149030690Y-87205820D01*
X149030690Y-88358980D01*
X149030690Y-88358980D01*
G37*
G36*
X145256200Y-88081200D02*
X144303800Y-88081200D01*
X144303800Y-87178800D01*
X145256200Y-87178800D01*
X145256200Y-88081200D01*
X145256200Y-88081200D01*
G37*
G36*
X143756200Y-88081200D02*
X142803800Y-88081200D01*
X142803800Y-87178800D01*
X143756200Y-87178800D01*
X143756200Y-88081200D01*
X143756200Y-88081200D01*
G37*
G36*
X130978749Y-85420277D02*
X130978754Y-85420278D01*
X130980807Y-85420292D01*
X131163080Y-85440737D01*
X131337912Y-85496197D01*
X131498641Y-85584558D01*
X131639146Y-85702456D01*
X131754076Y-85845400D01*
X131839052Y-86007945D01*
X131890839Y-86183899D01*
X131890843Y-86183940D01*
X131890844Y-86183944D01*
X131907463Y-86366558D01*
X131889648Y-86536056D01*
X131888290Y-86548973D01*
X131834052Y-86724187D01*
X131746815Y-86885529D01*
X131629900Y-87026855D01*
X131487762Y-87142779D01*
X131325815Y-87228888D01*
X131150226Y-87281902D01*
X130967685Y-87299800D01*
X130652283Y-87299800D01*
X130641251Y-87299723D01*
X130641246Y-87299722D01*
X130639193Y-87299708D01*
X130456920Y-87279263D01*
X130282088Y-87223803D01*
X130121359Y-87135442D01*
X129980854Y-87017544D01*
X129865924Y-86874600D01*
X129780948Y-86712055D01*
X129729161Y-86536101D01*
X129729157Y-86536060D01*
X129729156Y-86536056D01*
X129712537Y-86353442D01*
X129731705Y-86171074D01*
X129731710Y-86171027D01*
X129785948Y-85995813D01*
X129873185Y-85834471D01*
X129990100Y-85693145D01*
X130132238Y-85577221D01*
X130294185Y-85491112D01*
X130469774Y-85438098D01*
X130652315Y-85420200D01*
X130967717Y-85420200D01*
X130978749Y-85420277D01*
X130978749Y-85420277D01*
G37*
G36*
X145232200Y-86049200D02*
X144279800Y-86049200D01*
X144279800Y-85146800D01*
X145232200Y-85146800D01*
X145232200Y-86049200D01*
X145232200Y-86049200D01*
G37*
G36*
X143732200Y-86049200D02*
X142779800Y-86049200D01*
X142779800Y-85146800D01*
X143732200Y-85146800D01*
X143732200Y-86049200D01*
X143732200Y-86049200D01*
G37*
G36*
X130978749Y-82880277D02*
X130978754Y-82880278D01*
X130980807Y-82880292D01*
X131163080Y-82900737D01*
X131337912Y-82956197D01*
X131498641Y-83044558D01*
X131639146Y-83162456D01*
X131754076Y-83305400D01*
X131839052Y-83467945D01*
X131890839Y-83643899D01*
X131890843Y-83643940D01*
X131890844Y-83643944D01*
X131907463Y-83826558D01*
X131889648Y-83996056D01*
X131888290Y-84008973D01*
X131834052Y-84184187D01*
X131746815Y-84345529D01*
X131629900Y-84486855D01*
X131487762Y-84602779D01*
X131325815Y-84688888D01*
X131150226Y-84741902D01*
X130967685Y-84759800D01*
X130652283Y-84759800D01*
X130641251Y-84759723D01*
X130641246Y-84759722D01*
X130639193Y-84759708D01*
X130456920Y-84739263D01*
X130282088Y-84683803D01*
X130121359Y-84595442D01*
X129980854Y-84477544D01*
X129865924Y-84334600D01*
X129780948Y-84172055D01*
X129729161Y-83996101D01*
X129729157Y-83996060D01*
X129729156Y-83996056D01*
X129712537Y-83813442D01*
X129731705Y-83631074D01*
X129731710Y-83631027D01*
X129785948Y-83455813D01*
X129873185Y-83294471D01*
X129990100Y-83153145D01*
X130132238Y-83037221D01*
X130294185Y-82951112D01*
X130469774Y-82898098D01*
X130652315Y-82880200D01*
X130967717Y-82880200D01*
X130978749Y-82880277D01*
X130978749Y-82880277D01*
G37*
G36*
X152466200Y-84238200D02*
X151513800Y-84238200D01*
X151513800Y-82385800D01*
X152466200Y-82385800D01*
X152466200Y-84238200D01*
X152466200Y-84238200D01*
G37*
G36*
X149066200Y-84238200D02*
X148113800Y-84238200D01*
X148113800Y-82385800D01*
X149066200Y-82385800D01*
X149066200Y-84238200D01*
X149066200Y-84238200D01*
G37*
G36*
X131902200Y-82219800D02*
X129717800Y-82219800D01*
X129717800Y-80340200D01*
X131902200Y-80340200D01*
X131902200Y-82219800D01*
X131902200Y-82219800D01*
G37*
M02*
