%TF.GenerationSoftware,KiCad,Pcbnew,4.0.4+e1-6308~48~ubuntu16.04.1-stable*%
%TF.CreationDate,2017-01-06T13:21:20-08:00*%
%TF.ProjectId,atmega2560,61746D656761323536302E6B69636164,v1.0*%
%TF.FileFunction,Other,Fab,Top*%
%FSLAX46Y46*%
G04 Gerber Fmt 4.6, Leading zero omitted, Abs format (unit mm)*
G04 Created by KiCad (PCBNEW 4.0.4+e1-6308~48~ubuntu16.04.1-stable) date Fri Jan  6 13:21:20 2017*
%MOMM*%
%LPD*%
G01*
G04 APERTURE LIST*
%ADD10C,0.350000*%
%ADD11C,0.050000*%
%ADD12C,0.100000*%
%ADD13C,0.200000*%
%ADD14C,0.150000*%
%ADD15C,0.254000*%
%ADD16C,0.152400*%
G04 APERTURE END LIST*
D10*
D11*
X141757600Y-132981600D02*
X144957600Y-132981600D01*
X141757600Y-132981600D02*
X141757600Y-128381600D01*
X141757600Y-128381600D02*
X144957600Y-128381600D01*
X144957600Y-132981600D02*
X144957600Y-128381600D01*
X125871200Y-95542800D02*
X122971200Y-95542800D01*
X125871200Y-95542800D02*
X125871200Y-94042800D01*
X122971200Y-95542800D02*
X122971200Y-94042800D01*
X125871200Y-94042800D02*
X122971200Y-94042800D01*
X161468000Y-132829200D02*
X164668000Y-132829200D01*
X161468000Y-132829200D02*
X161468000Y-128229200D01*
X161468000Y-128229200D02*
X164668000Y-128229200D01*
X164668000Y-132829200D02*
X164668000Y-128229200D01*
X135597200Y-117032000D02*
X135597200Y-114132000D01*
X135597200Y-117032000D02*
X137097200Y-117032000D01*
X135597200Y-114132000D02*
X137097200Y-114132000D01*
X137097200Y-117032000D02*
X137097200Y-114132000D01*
X146292000Y-113498400D02*
X146292000Y-116398400D01*
X146292000Y-113498400D02*
X144792000Y-113498400D01*
X146292000Y-116398400D02*
X144792000Y-116398400D01*
X144792000Y-113498400D02*
X144792000Y-116398400D01*
X139384000Y-92698000D02*
X136484000Y-92698000D01*
X139384000Y-92698000D02*
X139384000Y-91198000D01*
X136484000Y-92698000D02*
X136484000Y-91198000D01*
X139384000Y-91198000D02*
X136484000Y-91198000D01*
X152412000Y-104078000D02*
X152412000Y-101178000D01*
X152412000Y-104078000D02*
X153912000Y-104078000D01*
X152412000Y-101178000D02*
X153912000Y-101178000D01*
X153912000Y-104078000D02*
X153912000Y-101178000D01*
X137754000Y-110883000D02*
X140654000Y-110883000D01*
X137754000Y-110883000D02*
X137754000Y-112383000D01*
X140654000Y-110883000D02*
X140654000Y-112383000D01*
X137754000Y-112383000D02*
X140654000Y-112383000D01*
X133896800Y-99071200D02*
X133896800Y-101971200D01*
X133896800Y-99071200D02*
X132396800Y-99071200D01*
X133896800Y-101971200D02*
X132396800Y-101971200D01*
X132396800Y-99071200D02*
X132396800Y-101971200D01*
X148934400Y-92647200D02*
X146034400Y-92647200D01*
X148934400Y-92647200D02*
X148934400Y-91147200D01*
X146034400Y-92647200D02*
X146034400Y-91147200D01*
X148934400Y-91147200D02*
X146034400Y-91147200D01*
D12*
X130048000Y-127083820D02*
X127000000Y-127083820D01*
D11*
X126524000Y-126631820D02*
X130524000Y-126631820D01*
X126524000Y-133631820D02*
X126524000Y-126631820D01*
X130524000Y-133631820D02*
X126524000Y-133631820D01*
X130524000Y-126631820D02*
X130524000Y-133631820D01*
D12*
X138107420Y-130098800D02*
X138107420Y-127050800D01*
D11*
X138559420Y-126574800D02*
X138559420Y-130574800D01*
X131559420Y-126574800D02*
X138559420Y-126574800D01*
X131559420Y-130574800D02*
X131559420Y-126574800D01*
X138559420Y-130574800D02*
X131559420Y-130574800D01*
D12*
X168114980Y-137871200D02*
X168114980Y-134823200D01*
D11*
X168566980Y-134347200D02*
X168566980Y-138347200D01*
X161566980Y-134347200D02*
X168566980Y-134347200D01*
X161566980Y-138347200D02*
X161566980Y-134347200D01*
X168566980Y-138347200D02*
X161566980Y-138347200D01*
X131940400Y-131957200D02*
X138140400Y-131957200D01*
X131940400Y-135657200D02*
X138140400Y-135657200D01*
X138140400Y-131957200D02*
X138140400Y-135657200D01*
X131940400Y-131957200D02*
X131940400Y-135657200D01*
X119483600Y-126825600D02*
X126083600Y-126825600D01*
X119483600Y-126825600D02*
X119483600Y-132925600D01*
X126083600Y-126825600D02*
X126083600Y-132925600D01*
X119483600Y-132925600D02*
X126083600Y-132925600D01*
X127180400Y-92941200D02*
X127180400Y-109141200D01*
X127170400Y-92951200D02*
X130670400Y-92951200D01*
X130660400Y-92931200D02*
X130660400Y-109131200D01*
X127160400Y-109121200D02*
X130660400Y-109121200D01*
X131267200Y-121615200D02*
X131267200Y-112979200D01*
X125171200Y-121615200D02*
X131267200Y-121615200D01*
X125171200Y-112979200D02*
X125171200Y-121615200D01*
X131267200Y-112979200D02*
X125171200Y-112979200D01*
D13*
X127203200Y-114757200D02*
G75*
G03X127203200Y-114757200I-254000J0D01*
G01*
D11*
X178370800Y-85953600D02*
X178370800Y-84429600D01*
X178116800Y-85953600D02*
X174306800Y-85953600D01*
X178116800Y-85941600D02*
X178116800Y-84441600D01*
X174306800Y-85941600D02*
X174306800Y-84441600D01*
X178116800Y-84429600D02*
X174306800Y-84429600D01*
X170597600Y-84441600D02*
X173497600Y-84441600D01*
X170597600Y-84441600D02*
X170597600Y-85941600D01*
X173497600Y-84441600D02*
X173497600Y-85941600D01*
X170597600Y-85941600D02*
X173497600Y-85941600D01*
X116906800Y-118059200D02*
X116906800Y-120091200D01*
X120462800Y-118059200D02*
X116906800Y-118059200D01*
X120462800Y-120091200D02*
X120462800Y-118059200D01*
X116906800Y-120091200D02*
X120462800Y-120091200D01*
X110696800Y-117551200D02*
X115776800Y-117551200D01*
X110696800Y-120599200D02*
X110696800Y-117551200D01*
X115776800Y-120599200D02*
X110696800Y-120599200D01*
X115776800Y-117551200D02*
X115776800Y-120599200D01*
X160172400Y-126913640D02*
X160172400Y-135041640D01*
X147472400Y-126913640D02*
X160172400Y-126913640D01*
X147472400Y-127167640D02*
X147472400Y-126913640D01*
X147472400Y-135041640D02*
X147472400Y-127167640D01*
X160172400Y-135041640D02*
X147472400Y-135041640D01*
X151854001Y-110452001D02*
X151854001Y-93180001D01*
X134582001Y-110452001D02*
X151854001Y-110452001D01*
X134582001Y-93180001D02*
X134582001Y-110452001D01*
X151854001Y-93180001D02*
X134582001Y-93180001D01*
D13*
X135852001Y-95720001D02*
G75*
G03X135852001Y-95720001I-254000J0D01*
G01*
D11*
X137388600Y-112979200D02*
X144500600Y-112979200D01*
X137388600Y-117551200D02*
X137388600Y-112979200D01*
X144500600Y-117551200D02*
X137388600Y-117551200D01*
X144500600Y-112979200D02*
X144500600Y-117551200D01*
D13*
X138912600Y-116535200D02*
G75*
G03X138912600Y-116535200I-254000J0D01*
G01*
D14*
X143714743Y-130848266D02*
X143762362Y-130895885D01*
X143809981Y-131038742D01*
X143809981Y-131133980D01*
X143762362Y-131276838D01*
X143667124Y-131372076D01*
X143571886Y-131419695D01*
X143381410Y-131467314D01*
X143238552Y-131467314D01*
X143048076Y-131419695D01*
X142952838Y-131372076D01*
X142857600Y-131276838D01*
X142809981Y-131133980D01*
X142809981Y-131038742D01*
X142857600Y-130895885D01*
X142905219Y-130848266D01*
X143809981Y-129895885D02*
X143809981Y-130467314D01*
X143809981Y-130181600D02*
X142809981Y-130181600D01*
X142952838Y-130276838D01*
X143048076Y-130372076D01*
X143095695Y-130467314D01*
X124197867Y-95038514D02*
X124159772Y-95076610D01*
X124045486Y-95114705D01*
X123969296Y-95114705D01*
X123855010Y-95076610D01*
X123778819Y-95000419D01*
X123740724Y-94924229D01*
X123702629Y-94771848D01*
X123702629Y-94657562D01*
X123740724Y-94505181D01*
X123778819Y-94428990D01*
X123855010Y-94352800D01*
X123969296Y-94314705D01*
X124045486Y-94314705D01*
X124159772Y-94352800D01*
X124197867Y-94390895D01*
X124502629Y-94390895D02*
X124540724Y-94352800D01*
X124616915Y-94314705D01*
X124807391Y-94314705D01*
X124883581Y-94352800D01*
X124921677Y-94390895D01*
X124959772Y-94467086D01*
X124959772Y-94543276D01*
X124921677Y-94657562D01*
X124464534Y-95114705D01*
X124959772Y-95114705D01*
X163425143Y-130695866D02*
X163472762Y-130743485D01*
X163520381Y-130886342D01*
X163520381Y-130981580D01*
X163472762Y-131124438D01*
X163377524Y-131219676D01*
X163282286Y-131267295D01*
X163091810Y-131314914D01*
X162948952Y-131314914D01*
X162758476Y-131267295D01*
X162663238Y-131219676D01*
X162568000Y-131124438D01*
X162520381Y-130981580D01*
X162520381Y-130886342D01*
X162568000Y-130743485D01*
X162615619Y-130695866D01*
X162520381Y-130362533D02*
X162520381Y-129743485D01*
X162901333Y-130076819D01*
X162901333Y-129933961D01*
X162948952Y-129838723D01*
X162996571Y-129791104D01*
X163091810Y-129743485D01*
X163329905Y-129743485D01*
X163425143Y-129791104D01*
X163472762Y-129838723D01*
X163520381Y-129933961D01*
X163520381Y-130219676D01*
X163472762Y-130314914D01*
X163425143Y-130362533D01*
X136672914Y-115625333D02*
X136711010Y-115663428D01*
X136749105Y-115777714D01*
X136749105Y-115853904D01*
X136711010Y-115968190D01*
X136634819Y-116044381D01*
X136558629Y-116082476D01*
X136406248Y-116120571D01*
X136291962Y-116120571D01*
X136139581Y-116082476D01*
X136063390Y-116044381D01*
X135987200Y-115968190D01*
X135949105Y-115853904D01*
X135949105Y-115777714D01*
X135987200Y-115663428D01*
X136025295Y-115625333D01*
X136215771Y-114939619D02*
X136749105Y-114939619D01*
X135911010Y-115130095D02*
X136482438Y-115320571D01*
X136482438Y-114825333D01*
X145787714Y-115171733D02*
X145825810Y-115209828D01*
X145863905Y-115324114D01*
X145863905Y-115400304D01*
X145825810Y-115514590D01*
X145749619Y-115590781D01*
X145673429Y-115628876D01*
X145521048Y-115666971D01*
X145406762Y-115666971D01*
X145254381Y-115628876D01*
X145178190Y-115590781D01*
X145102000Y-115514590D01*
X145063905Y-115400304D01*
X145063905Y-115324114D01*
X145102000Y-115209828D01*
X145140095Y-115171733D01*
X145063905Y-114447923D02*
X145063905Y-114828876D01*
X145444857Y-114866971D01*
X145406762Y-114828876D01*
X145368667Y-114752685D01*
X145368667Y-114562209D01*
X145406762Y-114486019D01*
X145444857Y-114447923D01*
X145521048Y-114409828D01*
X145711524Y-114409828D01*
X145787714Y-114447923D01*
X145825810Y-114486019D01*
X145863905Y-114562209D01*
X145863905Y-114752685D01*
X145825810Y-114828876D01*
X145787714Y-114866971D01*
X137710667Y-92193714D02*
X137672572Y-92231810D01*
X137558286Y-92269905D01*
X137482096Y-92269905D01*
X137367810Y-92231810D01*
X137291619Y-92155619D01*
X137253524Y-92079429D01*
X137215429Y-91927048D01*
X137215429Y-91812762D01*
X137253524Y-91660381D01*
X137291619Y-91584190D01*
X137367810Y-91508000D01*
X137482096Y-91469905D01*
X137558286Y-91469905D01*
X137672572Y-91508000D01*
X137710667Y-91546095D01*
X138396381Y-91469905D02*
X138244000Y-91469905D01*
X138167810Y-91508000D01*
X138129715Y-91546095D01*
X138053524Y-91660381D01*
X138015429Y-91812762D01*
X138015429Y-92117524D01*
X138053524Y-92193714D01*
X138091619Y-92231810D01*
X138167810Y-92269905D01*
X138320191Y-92269905D01*
X138396381Y-92231810D01*
X138434477Y-92193714D01*
X138472572Y-92117524D01*
X138472572Y-91927048D01*
X138434477Y-91850857D01*
X138396381Y-91812762D01*
X138320191Y-91774667D01*
X138167810Y-91774667D01*
X138091619Y-91812762D01*
X138053524Y-91850857D01*
X138015429Y-91927048D01*
X153487714Y-102671333D02*
X153525810Y-102709428D01*
X153563905Y-102823714D01*
X153563905Y-102899904D01*
X153525810Y-103014190D01*
X153449619Y-103090381D01*
X153373429Y-103128476D01*
X153221048Y-103166571D01*
X153106762Y-103166571D01*
X152954381Y-103128476D01*
X152878190Y-103090381D01*
X152802000Y-103014190D01*
X152763905Y-102899904D01*
X152763905Y-102823714D01*
X152802000Y-102709428D01*
X152840095Y-102671333D01*
X152763905Y-102404666D02*
X152763905Y-101871333D01*
X153563905Y-102214190D01*
X139160667Y-111958714D02*
X139122572Y-111996810D01*
X139008286Y-112034905D01*
X138932096Y-112034905D01*
X138817810Y-111996810D01*
X138741619Y-111920619D01*
X138703524Y-111844429D01*
X138665429Y-111692048D01*
X138665429Y-111577762D01*
X138703524Y-111425381D01*
X138741619Y-111349190D01*
X138817810Y-111273000D01*
X138932096Y-111234905D01*
X139008286Y-111234905D01*
X139122572Y-111273000D01*
X139160667Y-111311095D01*
X139617810Y-111577762D02*
X139541619Y-111539667D01*
X139503524Y-111501571D01*
X139465429Y-111425381D01*
X139465429Y-111387286D01*
X139503524Y-111311095D01*
X139541619Y-111273000D01*
X139617810Y-111234905D01*
X139770191Y-111234905D01*
X139846381Y-111273000D01*
X139884477Y-111311095D01*
X139922572Y-111387286D01*
X139922572Y-111425381D01*
X139884477Y-111501571D01*
X139846381Y-111539667D01*
X139770191Y-111577762D01*
X139617810Y-111577762D01*
X139541619Y-111615857D01*
X139503524Y-111653952D01*
X139465429Y-111730143D01*
X139465429Y-111882524D01*
X139503524Y-111958714D01*
X139541619Y-111996810D01*
X139617810Y-112034905D01*
X139770191Y-112034905D01*
X139846381Y-111996810D01*
X139884477Y-111958714D01*
X139922572Y-111882524D01*
X139922572Y-111730143D01*
X139884477Y-111653952D01*
X139846381Y-111615857D01*
X139770191Y-111577762D01*
X133392514Y-100744533D02*
X133430610Y-100782628D01*
X133468705Y-100896914D01*
X133468705Y-100973104D01*
X133430610Y-101087390D01*
X133354419Y-101163581D01*
X133278229Y-101201676D01*
X133125848Y-101239771D01*
X133011562Y-101239771D01*
X132859181Y-101201676D01*
X132782990Y-101163581D01*
X132706800Y-101087390D01*
X132668705Y-100973104D01*
X132668705Y-100896914D01*
X132706800Y-100782628D01*
X132744895Y-100744533D01*
X133468705Y-100363581D02*
X133468705Y-100211200D01*
X133430610Y-100135009D01*
X133392514Y-100096914D01*
X133278229Y-100020723D01*
X133125848Y-99982628D01*
X132821086Y-99982628D01*
X132744895Y-100020723D01*
X132706800Y-100058819D01*
X132668705Y-100135009D01*
X132668705Y-100287390D01*
X132706800Y-100363581D01*
X132744895Y-100401676D01*
X132821086Y-100439771D01*
X133011562Y-100439771D01*
X133087752Y-100401676D01*
X133125848Y-100363581D01*
X133163943Y-100287390D01*
X133163943Y-100135009D01*
X133125848Y-100058819D01*
X133087752Y-100020723D01*
X133011562Y-99982628D01*
X146880114Y-92142914D02*
X146842019Y-92181010D01*
X146727733Y-92219105D01*
X146651543Y-92219105D01*
X146537257Y-92181010D01*
X146461066Y-92104819D01*
X146422971Y-92028629D01*
X146384876Y-91876248D01*
X146384876Y-91761962D01*
X146422971Y-91609581D01*
X146461066Y-91533390D01*
X146537257Y-91457200D01*
X146651543Y-91419105D01*
X146727733Y-91419105D01*
X146842019Y-91457200D01*
X146880114Y-91495295D01*
X147642019Y-92219105D02*
X147184876Y-92219105D01*
X147413447Y-92219105D02*
X147413447Y-91419105D01*
X147337257Y-91533390D01*
X147261066Y-91609581D01*
X147184876Y-91647676D01*
X148137257Y-91419105D02*
X148213448Y-91419105D01*
X148289638Y-91457200D01*
X148327733Y-91495295D01*
X148365829Y-91571486D01*
X148403924Y-91723867D01*
X148403924Y-91914343D01*
X148365829Y-92066724D01*
X148327733Y-92142914D01*
X148289638Y-92181010D01*
X148213448Y-92219105D01*
X148137257Y-92219105D01*
X148061067Y-92181010D01*
X148022971Y-92142914D01*
X147984876Y-92066724D01*
X147946781Y-91914343D01*
X147946781Y-91723867D01*
X147984876Y-91571486D01*
X148022971Y-91495295D01*
X148061067Y-91457200D01*
X148137257Y-91419105D01*
D15*
X129443238Y-131631629D02*
X127411238Y-131631629D01*
X127411238Y-131147820D01*
X127508000Y-130857534D01*
X127701524Y-130664010D01*
X127895048Y-130567249D01*
X128282095Y-130470487D01*
X128572381Y-130470487D01*
X128959429Y-130567249D01*
X129152952Y-130664010D01*
X129346476Y-130857534D01*
X129443238Y-131147820D01*
X129443238Y-131631629D01*
X129443238Y-128535249D02*
X129443238Y-129696391D01*
X129443238Y-129115820D02*
X127411238Y-129115820D01*
X127701524Y-129309344D01*
X127895048Y-129502868D01*
X127991810Y-129696391D01*
X133559611Y-129494038D02*
X133559611Y-127462038D01*
X134043420Y-127462038D01*
X134333706Y-127558800D01*
X134527230Y-127752324D01*
X134623991Y-127945848D01*
X134720753Y-128332895D01*
X134720753Y-128623181D01*
X134623991Y-129010229D01*
X134527230Y-129203752D01*
X134333706Y-129397276D01*
X134043420Y-129494038D01*
X133559611Y-129494038D01*
X135494849Y-127655562D02*
X135591611Y-127558800D01*
X135785134Y-127462038D01*
X136268944Y-127462038D01*
X136462468Y-127558800D01*
X136559230Y-127655562D01*
X136655991Y-127849086D01*
X136655991Y-128042610D01*
X136559230Y-128332895D01*
X135398087Y-129494038D01*
X136655991Y-129494038D01*
X163567171Y-137266438D02*
X163567171Y-135234438D01*
X164050980Y-135234438D01*
X164341266Y-135331200D01*
X164534790Y-135524724D01*
X164631551Y-135718248D01*
X164728313Y-136105295D01*
X164728313Y-136395581D01*
X164631551Y-136782629D01*
X164534790Y-136976152D01*
X164341266Y-137169676D01*
X164050980Y-137266438D01*
X163567171Y-137266438D01*
X165405647Y-135234438D02*
X166663551Y-135234438D01*
X165986218Y-136008533D01*
X166276504Y-136008533D01*
X166470028Y-136105295D01*
X166566790Y-136202057D01*
X166663551Y-136395581D01*
X166663551Y-136879390D01*
X166566790Y-137072914D01*
X166470028Y-137169676D01*
X166276504Y-137266438D01*
X165695932Y-137266438D01*
X165502409Y-137169676D01*
X165405647Y-137072914D01*
D14*
X134707067Y-133735771D02*
X134373733Y-133735771D01*
X134373733Y-134259581D02*
X134373733Y-133259581D01*
X134849924Y-133259581D01*
X135754686Y-134259581D02*
X135183257Y-134259581D01*
X135468971Y-134259581D02*
X135468971Y-133259581D01*
X135373733Y-133402438D01*
X135278495Y-133497676D01*
X135183257Y-133545295D01*
D16*
X122444933Y-129339219D02*
X122444933Y-130064933D01*
X122396553Y-130210076D01*
X122299791Y-130306838D01*
X122154648Y-130355219D01*
X122057886Y-130355219D01*
X123460933Y-130355219D02*
X122880362Y-130355219D01*
X123170648Y-130355219D02*
X123170648Y-129339219D01*
X123073886Y-129484362D01*
X122977124Y-129581124D01*
X122880362Y-129629505D01*
D15*
X127807638Y-101718533D02*
X129259067Y-101718533D01*
X129549352Y-101815295D01*
X129742876Y-102008819D01*
X129839638Y-102299104D01*
X129839638Y-102492628D01*
X128001162Y-100847676D02*
X127904400Y-100750914D01*
X127807638Y-100557391D01*
X127807638Y-100073581D01*
X127904400Y-99880057D01*
X128001162Y-99783295D01*
X128194686Y-99686534D01*
X128388210Y-99686534D01*
X128678495Y-99783295D01*
X129839638Y-100944438D01*
X129839638Y-99686534D01*
D14*
X127885867Y-116749581D02*
X127885867Y-117463867D01*
X127838247Y-117606724D01*
X127743009Y-117701962D01*
X127600152Y-117749581D01*
X127504914Y-117749581D01*
X128266819Y-116749581D02*
X128885867Y-116749581D01*
X128552533Y-117130533D01*
X128695391Y-117130533D01*
X128790629Y-117178152D01*
X128838248Y-117225771D01*
X128885867Y-117321010D01*
X128885867Y-117559105D01*
X128838248Y-117654343D01*
X128790629Y-117701962D01*
X128695391Y-117749581D01*
X128409676Y-117749581D01*
X128314438Y-117701962D01*
X128266819Y-117654343D01*
X175353562Y-85513505D02*
X174972609Y-85513505D01*
X174972609Y-84713505D01*
X175620228Y-85094457D02*
X175886895Y-85094457D01*
X176001181Y-85513505D02*
X175620228Y-85513505D01*
X175620228Y-84713505D01*
X176001181Y-84713505D01*
X176344038Y-85513505D02*
X176344038Y-84713505D01*
X176534514Y-84713505D01*
X176648800Y-84751600D01*
X176724991Y-84827790D01*
X176763086Y-84903981D01*
X176801181Y-85056362D01*
X176801181Y-85170648D01*
X176763086Y-85323029D01*
X176724991Y-85399219D01*
X176648800Y-85475410D01*
X176534514Y-85513505D01*
X176344038Y-85513505D01*
X177563086Y-85513505D02*
X177105943Y-85513505D01*
X177334514Y-85513505D02*
X177334514Y-84713505D01*
X177258324Y-84827790D01*
X177182133Y-84903981D01*
X177105943Y-84942076D01*
X172004267Y-85593505D02*
X171737600Y-85212552D01*
X171547124Y-85593505D02*
X171547124Y-84793505D01*
X171851886Y-84793505D01*
X171928077Y-84831600D01*
X171966172Y-84869695D01*
X172004267Y-84945886D01*
X172004267Y-85060171D01*
X171966172Y-85136362D01*
X171928077Y-85174457D01*
X171851886Y-85212552D01*
X171547124Y-85212552D01*
X172766172Y-85593505D02*
X172309029Y-85593505D01*
X172537600Y-85593505D02*
X172537600Y-84793505D01*
X172461410Y-84907790D01*
X172385219Y-84983981D01*
X172309029Y-85022076D01*
X118518134Y-119527581D02*
X118184800Y-119051390D01*
X117946705Y-119527581D02*
X117946705Y-118527581D01*
X118327658Y-118527581D01*
X118422896Y-118575200D01*
X118470515Y-118622819D01*
X118518134Y-118718057D01*
X118518134Y-118860914D01*
X118470515Y-118956152D01*
X118422896Y-119003771D01*
X118327658Y-119051390D01*
X117946705Y-119051390D01*
X118899086Y-118622819D02*
X118946705Y-118575200D01*
X119041943Y-118527581D01*
X119280039Y-118527581D01*
X119375277Y-118575200D01*
X119422896Y-118622819D01*
X119470515Y-118718057D01*
X119470515Y-118813295D01*
X119422896Y-118956152D01*
X118851467Y-119527581D01*
X119470515Y-119527581D01*
X112474895Y-119479962D02*
X112617752Y-119527581D01*
X112855848Y-119527581D01*
X112951086Y-119479962D01*
X112998705Y-119432343D01*
X113046324Y-119337105D01*
X113046324Y-119241867D01*
X112998705Y-119146629D01*
X112951086Y-119099010D01*
X112855848Y-119051390D01*
X112665371Y-119003771D01*
X112570133Y-118956152D01*
X112522514Y-118908533D01*
X112474895Y-118813295D01*
X112474895Y-118718057D01*
X112522514Y-118622819D01*
X112570133Y-118575200D01*
X112665371Y-118527581D01*
X112903467Y-118527581D01*
X113046324Y-118575200D01*
X113998705Y-119527581D02*
X113427276Y-119527581D01*
X113712990Y-119527581D02*
X113712990Y-118527581D01*
X113617752Y-118670438D01*
X113522514Y-118765676D01*
X113427276Y-118813295D01*
D15*
X155249638Y-132576630D02*
X156894590Y-132576630D01*
X157088114Y-132479869D01*
X157184876Y-132383107D01*
X157281638Y-132189583D01*
X157281638Y-131802535D01*
X157184876Y-131609011D01*
X157088114Y-131512250D01*
X156894590Y-131415488D01*
X155249638Y-131415488D01*
X157281638Y-129383488D02*
X157281638Y-130544630D01*
X157281638Y-129964059D02*
X155249638Y-129964059D01*
X155539924Y-130157583D01*
X155733448Y-130351107D01*
X155830210Y-130544630D01*
D14*
X142456096Y-101268382D02*
X142456096Y-102077906D01*
X142503715Y-102173144D01*
X142551334Y-102220763D01*
X142646572Y-102268382D01*
X142837049Y-102268382D01*
X142932287Y-102220763D01*
X142979906Y-102173144D01*
X143027525Y-102077906D01*
X143027525Y-101268382D01*
X143456096Y-101363620D02*
X143503715Y-101316001D01*
X143598953Y-101268382D01*
X143837049Y-101268382D01*
X143932287Y-101316001D01*
X143979906Y-101363620D01*
X144027525Y-101458858D01*
X144027525Y-101554096D01*
X143979906Y-101696953D01*
X143408477Y-102268382D01*
X144027525Y-102268382D01*
D15*
X139299648Y-114406438D02*
X140654314Y-116438438D01*
X140654314Y-114406438D02*
X139299648Y-116438438D01*
X142492790Y-116438438D02*
X141331648Y-116438438D01*
X141912219Y-116438438D02*
X141912219Y-114406438D01*
X141718695Y-114696724D01*
X141525171Y-114890248D01*
X141331648Y-114987010D01*
M02*
