%TF.GenerationSoftware,KiCad,Pcbnew,4.0.4+e1-6308~48~ubuntu16.04.1-stable*%
%TF.CreationDate,2017-01-06T13:21:20-08:00*%
%TF.ProjectId,atmega2560,61746D656761323536302E6B69636164,v1.0*%
%TF.FileFunction,Paste,Top*%
%FSLAX46Y46*%
G04 Gerber Fmt 4.6, Leading zero omitted, Abs format (unit mm)*
G04 Created by KiCad (PCBNEW 4.0.4+e1-6308~48~ubuntu16.04.1-stable) date Fri Jan  6 13:21:20 2017*
%MOMM*%
%LPD*%
G01*
G04 APERTURE LIST*
%ADD10C,0.350000*%
%ADD11R,2.347600X0.847600*%
%ADD12R,0.647600X0.597600*%
%ADD13R,0.597600X0.647600*%
%ADD14R,1.648460X2.346960*%
%ADD15R,2.346960X1.648460*%
%ADD16R,0.847600X2.847600*%
%ADD17R,0.847600X1.097600*%
%ADD18R,0.647600X1.547600*%
%ADD19R,2.895600X1.498600*%
%ADD20R,6.548120X6.548120*%
%ADD21R,1.347600X0.147600*%
%ADD22R,0.147600X1.347600*%
%ADD23R,1.752600X1.244600*%
G04 APERTURE END LIST*
D10*
D11*
X143357600Y-132181600D03*
X143357600Y-129181600D03*
D12*
X125171200Y-94792800D03*
X123671200Y-94792800D03*
D11*
X163068000Y-132029200D03*
X163068000Y-129029200D03*
D13*
X136347200Y-116332000D03*
X136347200Y-114832000D03*
X145542000Y-114198400D03*
X145542000Y-115698400D03*
D12*
X138684000Y-91948000D03*
X137184000Y-91948000D03*
D13*
X153162000Y-103378000D03*
X153162000Y-101878000D03*
D12*
X138454000Y-111633000D03*
X139954000Y-111633000D03*
D13*
X133146800Y-99771200D03*
X133146800Y-101271200D03*
D12*
X148234400Y-91897200D03*
X146734400Y-91897200D03*
D14*
X128524000Y-128132840D03*
X128524000Y-132130800D03*
D15*
X137058400Y-128574800D03*
X133060440Y-128574800D03*
X167065960Y-136347200D03*
X163068000Y-136347200D03*
D16*
X132740400Y-133807200D03*
X137340400Y-133807200D03*
D12*
X177088800Y-85191600D03*
X175588800Y-85191600D03*
X171297600Y-85191600D03*
X172797600Y-85191600D03*
D17*
X119684800Y-119075200D03*
X117684800Y-119075200D03*
D18*
X114858800Y-119075200D03*
X111458800Y-119075200D03*
D19*
X149504400Y-128676400D03*
D20*
X156154120Y-130977640D03*
D19*
X149504400Y-133278880D03*
D21*
X135518001Y-95816001D03*
X135518001Y-96316001D03*
X135518001Y-96816001D03*
X135518001Y-97316001D03*
X135518001Y-97816001D03*
X135518001Y-98316001D03*
X135518001Y-98816001D03*
X135518001Y-99316001D03*
X135518001Y-99816001D03*
X135518001Y-100316001D03*
X135518001Y-100816001D03*
X135518001Y-101316001D03*
X135518001Y-101816001D03*
X135518001Y-102316001D03*
X135518001Y-102816001D03*
X135518001Y-103316001D03*
X135518001Y-103816001D03*
X135518001Y-104316001D03*
X135518001Y-104816001D03*
X135518001Y-105316001D03*
X135518001Y-105816001D03*
X135518001Y-106316001D03*
X135518001Y-106816001D03*
X135518001Y-107316001D03*
X135518001Y-107816001D03*
D22*
X137218001Y-109516001D03*
X137718001Y-109516001D03*
X138218001Y-109516001D03*
X138718001Y-109516001D03*
X139218001Y-109516001D03*
X139718001Y-109516001D03*
X140218001Y-109516001D03*
X140718001Y-109516001D03*
X141218001Y-109516001D03*
X141718001Y-109516001D03*
X142218001Y-109516001D03*
X142718001Y-109516001D03*
X143218001Y-109516001D03*
X143718001Y-109516001D03*
X144218001Y-109516001D03*
X144718001Y-109516001D03*
X145218001Y-109516001D03*
X145718001Y-109516001D03*
X146218001Y-109516001D03*
X146718001Y-109516001D03*
X147218001Y-109516001D03*
X147718001Y-109516001D03*
X148218001Y-109516001D03*
X148718001Y-109516001D03*
X149218001Y-109516001D03*
D21*
X150918001Y-107816001D03*
X150918001Y-107316001D03*
X150918001Y-106816001D03*
X150918001Y-106316001D03*
X150918001Y-105816001D03*
X150918001Y-105316001D03*
X150918001Y-104816001D03*
X150918001Y-104316001D03*
X150918001Y-103816001D03*
X150918001Y-103316001D03*
X150918001Y-102816001D03*
X150918001Y-102316001D03*
X150918001Y-101816001D03*
X150918001Y-101316001D03*
X150918001Y-100816001D03*
X150918001Y-100316001D03*
X150918001Y-99816001D03*
X150918001Y-99316001D03*
X150918001Y-98816001D03*
X150918001Y-98316001D03*
X150918001Y-97816001D03*
X150918001Y-97316001D03*
X150918001Y-96816001D03*
X150918001Y-96316001D03*
X150918001Y-95816001D03*
D22*
X149218001Y-94116001D03*
X148718001Y-94116001D03*
X148218001Y-94116001D03*
X147718001Y-94116001D03*
X147218001Y-94116001D03*
X146718001Y-94116001D03*
X146218001Y-94116001D03*
X145718001Y-94116001D03*
X145218001Y-94116001D03*
X144718001Y-94116001D03*
X144218001Y-94116001D03*
X143718001Y-94116001D03*
X143218001Y-94116001D03*
X142718001Y-94116001D03*
X142218001Y-94116001D03*
X141718001Y-94116001D03*
X141218001Y-94116001D03*
X140718001Y-94116001D03*
X140218001Y-94116001D03*
X139718001Y-94116001D03*
X139218001Y-94116001D03*
X138718001Y-94116001D03*
X138218001Y-94116001D03*
X137718001Y-94116001D03*
X137218001Y-94116001D03*
D23*
X143129000Y-114046000D03*
X138658600Y-114046000D03*
X143129000Y-116535200D03*
X138658600Y-116535200D03*
M02*
