%TF.GenerationSoftware,KiCad,Pcbnew,4.0.5-e0-6337~49~ubuntu16.04.1*%
%TF.CreationDate,2017-08-14T13:56:54-07:00*%
%TF.ProjectId,mcp73871-battery-mgmt-breakout,6D637037333837312D62617474657279,1.0*%
%TF.FileFunction,Copper,L2,Bot,Signal*%
%FSLAX46Y46*%
G04 Gerber Fmt 4.6, Leading zero omitted, Abs format (unit mm)*
G04 Created by KiCad (PCBNEW 4.0.5-e0-6337~49~ubuntu16.04.1) date Mon Aug 14 13:56:54 2017*
%MOMM*%
%LPD*%
G01*
G04 APERTURE LIST*
%ADD10C,0.350000*%
%ADD11C,1.200000*%
%ADD12R,2.032000X1.727200*%
%ADD13O,2.032000X1.727200*%
%ADD14C,0.685800*%
%ADD15C,0.254000*%
%ADD16C,0.152400*%
%ADD17C,0.330200*%
%ADD18C,0.350000*%
G04 APERTURE END LIST*
D10*
D11*
X31336236Y-21305034D03*
X24236236Y-21305034D03*
D12*
X25425400Y-29768800D03*
D13*
X25425400Y-32308800D03*
X25425400Y-34848800D03*
X25425400Y-37388800D03*
X25425400Y-39928800D03*
X25425400Y-42468800D03*
X25425400Y-45008800D03*
D12*
X48285400Y-29768800D03*
D13*
X48285400Y-32308800D03*
X48285400Y-34848800D03*
X48285400Y-37388800D03*
X48285400Y-39928800D03*
X48285400Y-42468800D03*
X48285400Y-45008800D03*
D14*
X29806900Y-33769300D03*
X42570400Y-37388800D03*
X31013400Y-33324800D03*
X36513510Y-36118800D03*
X37816453Y-29908490D03*
X43661720Y-31686490D03*
X33667290Y-37807910D03*
X42119861Y-30014906D03*
X25069800Y-26111200D03*
X40055800Y-36322000D03*
X37007800Y-34773800D03*
X37871400Y-25044400D03*
X36703000Y-27635200D03*
X36343498Y-33203338D03*
X34337302Y-33170742D03*
X35368381Y-34176898D03*
X35350638Y-32170702D03*
X35365400Y-33148800D03*
X41403400Y-38722300D03*
X32129391Y-32358586D03*
X33858200Y-30124400D03*
X35839400Y-40436800D03*
X42697400Y-41706800D03*
X35585400Y-43230800D03*
X32248303Y-33239606D03*
X42697400Y-39928800D03*
X36347400Y-37896800D03*
X35331400Y-29362400D03*
D15*
X35365400Y-34173917D02*
X35368381Y-34176898D01*
X41427400Y-38277800D02*
X41427400Y-33832800D01*
X41427400Y-38698300D02*
X41403400Y-38722300D01*
X41427400Y-38404800D02*
X41427400Y-38277800D01*
X41427400Y-38277800D02*
X41427400Y-38698300D01*
D16*
X33858200Y-30988000D02*
X33499977Y-30988000D01*
X32472290Y-32015687D02*
X32129391Y-32358586D01*
X33499977Y-30988000D02*
X32472290Y-32015687D01*
D15*
X41427400Y-33832800D02*
X38582600Y-30988000D01*
X38582600Y-30988000D02*
X33858200Y-30988000D01*
D16*
X33858200Y-30988000D02*
X33858200Y-30124400D01*
D15*
X42166333Y-40690800D02*
X36093400Y-40690800D01*
X36093400Y-40690800D02*
X35839400Y-40436800D01*
X42697400Y-41706800D02*
X42697400Y-41221867D01*
X42697400Y-41221867D02*
X42166333Y-40690800D01*
X25425400Y-42468800D02*
X34823400Y-42468800D01*
X34823400Y-42468800D02*
X35585400Y-43230800D01*
X32248303Y-33239606D02*
X30639109Y-34848800D01*
X30639109Y-34848800D02*
X25425400Y-34848800D01*
X42697400Y-39928800D02*
X38379400Y-39928800D01*
X36347400Y-37896800D02*
X38379400Y-39928800D01*
D16*
X38887400Y-30530800D02*
X36499800Y-30530800D01*
X36499800Y-30530800D02*
X35331400Y-29362400D01*
X40665400Y-32308800D02*
X38887400Y-30530800D01*
X48285400Y-32308800D02*
X40665400Y-32308800D01*
D15*
G36*
X30289865Y-20604549D02*
X30101451Y-21058300D01*
X30101022Y-21549613D01*
X30288644Y-22003691D01*
X30635751Y-22351405D01*
X31089502Y-22539819D01*
X31580815Y-22540248D01*
X32034893Y-22352626D01*
X32382607Y-22005519D01*
X32571021Y-21551768D01*
X32571450Y-21060455D01*
X32383828Y-20606377D01*
X32097951Y-20320000D01*
X49485355Y-20320000D01*
X49763911Y-20375408D01*
X49940678Y-20493520D01*
X50058792Y-20670290D01*
X50114200Y-20948849D01*
X50114200Y-46208751D01*
X50058792Y-46487310D01*
X49940678Y-46664080D01*
X49763911Y-46782192D01*
X49485355Y-46837600D01*
X24225449Y-46837600D01*
X23946890Y-46782192D01*
X23770120Y-46664078D01*
X23652008Y-46487311D01*
X23596600Y-46208755D01*
X23596600Y-32308800D01*
X23742055Y-32308800D01*
X23856129Y-32882289D01*
X24180985Y-33368470D01*
X24495766Y-33578800D01*
X24180985Y-33789130D01*
X23856129Y-34275311D01*
X23742055Y-34848800D01*
X23856129Y-35422289D01*
X24180985Y-35908470D01*
X24495766Y-36118800D01*
X24180985Y-36329130D01*
X23856129Y-36815311D01*
X23742055Y-37388800D01*
X23856129Y-37962289D01*
X24180985Y-38448470D01*
X24495766Y-38658800D01*
X24180985Y-38869130D01*
X23856129Y-39355311D01*
X23742055Y-39928800D01*
X23856129Y-40502289D01*
X24180985Y-40988470D01*
X24495766Y-41198800D01*
X24180985Y-41409130D01*
X23856129Y-41895311D01*
X23742055Y-42468800D01*
X23856129Y-43042289D01*
X24180985Y-43528470D01*
X24495766Y-43738800D01*
X24180985Y-43949130D01*
X23856129Y-44435311D01*
X23742055Y-45008800D01*
X23856129Y-45582289D01*
X24180985Y-46068470D01*
X24667166Y-46393326D01*
X25240655Y-46507400D01*
X25610145Y-46507400D01*
X26183634Y-46393326D01*
X26669815Y-46068470D01*
X26994671Y-45582289D01*
X27037330Y-45367826D01*
X46678042Y-45367826D01*
X46680691Y-45383591D01*
X46934668Y-45910836D01*
X47371080Y-46300754D01*
X47923487Y-46493984D01*
X48158400Y-46349724D01*
X48158400Y-45135800D01*
X48412400Y-45135800D01*
X48412400Y-46349724D01*
X48647313Y-46493984D01*
X49199720Y-46300754D01*
X49636132Y-45910836D01*
X49890109Y-45383591D01*
X49892758Y-45367826D01*
X49771617Y-45135800D01*
X48412400Y-45135800D01*
X48158400Y-45135800D01*
X46799183Y-45135800D01*
X46678042Y-45367826D01*
X27037330Y-45367826D01*
X27108745Y-45008800D01*
X26994671Y-44435311D01*
X26669815Y-43949130D01*
X26355034Y-43738800D01*
X26669815Y-43528470D01*
X26868712Y-43230800D01*
X34507770Y-43230800D01*
X34607413Y-43330443D01*
X34607331Y-43424463D01*
X34755893Y-43784012D01*
X35030741Y-44059340D01*
X35390030Y-44208530D01*
X35779063Y-44208869D01*
X36138612Y-44060307D01*
X36413940Y-43785459D01*
X36563130Y-43426170D01*
X36563469Y-43037137D01*
X36414907Y-42677588D01*
X36140059Y-42402260D01*
X35780770Y-42253070D01*
X35685217Y-42252987D01*
X35362215Y-41929985D01*
X35310322Y-41895311D01*
X35115005Y-41764804D01*
X34823400Y-41706800D01*
X26868712Y-41706800D01*
X26669815Y-41409130D01*
X26355034Y-41198800D01*
X26669815Y-40988470D01*
X26994671Y-40502289D01*
X27108745Y-39928800D01*
X26994671Y-39355311D01*
X26669815Y-38869130D01*
X26355034Y-38658800D01*
X26669815Y-38448470D01*
X26994671Y-37962289D01*
X27108745Y-37388800D01*
X26994671Y-36815311D01*
X26669815Y-36329130D01*
X26355034Y-36118800D01*
X26669815Y-35908470D01*
X26868712Y-35610800D01*
X30639109Y-35610800D01*
X30930714Y-35552796D01*
X31177924Y-35387615D01*
X32347946Y-34217593D01*
X32441966Y-34217675D01*
X32801515Y-34069113D01*
X33076843Y-33794265D01*
X33226033Y-33434976D01*
X33226372Y-33045943D01*
X33077810Y-32686394D01*
X33059672Y-32668225D01*
X33107121Y-32553956D01*
X33107267Y-32386498D01*
X33762751Y-31731014D01*
X33858200Y-31750000D01*
X38266970Y-31750000D01*
X40665400Y-34148431D01*
X40665400Y-38077259D01*
X40574860Y-38167641D01*
X40425670Y-38526930D01*
X40425331Y-38915963D01*
X40528974Y-39166800D01*
X38695030Y-39166800D01*
X37325387Y-37797157D01*
X37325469Y-37703137D01*
X37176907Y-37343588D01*
X36902059Y-37068260D01*
X36542770Y-36919070D01*
X36153737Y-36918731D01*
X35794188Y-37067293D01*
X35518860Y-37342141D01*
X35369670Y-37701430D01*
X35369331Y-38090463D01*
X35517893Y-38450012D01*
X35792741Y-38725340D01*
X36152030Y-38874530D01*
X36247583Y-38874613D01*
X37301770Y-39928800D01*
X36687588Y-39928800D01*
X36668907Y-39883588D01*
X36394059Y-39608260D01*
X36034770Y-39459070D01*
X35645737Y-39458731D01*
X35286188Y-39607293D01*
X35010860Y-39882141D01*
X34861670Y-40241430D01*
X34861331Y-40630463D01*
X35009893Y-40990012D01*
X35284741Y-41265340D01*
X35644030Y-41414530D01*
X35902135Y-41414755D01*
X36093400Y-41452800D01*
X41744015Y-41452800D01*
X41719670Y-41511430D01*
X41719331Y-41900463D01*
X41867893Y-42260012D01*
X42142741Y-42535340D01*
X42502030Y-42684530D01*
X42891063Y-42684869D01*
X43250612Y-42536307D01*
X43525940Y-42261459D01*
X43675130Y-41902170D01*
X43675469Y-41513137D01*
X43526907Y-41153588D01*
X43425640Y-41052144D01*
X43401396Y-40930262D01*
X43272140Y-40736817D01*
X43525940Y-40483459D01*
X43675130Y-40124170D01*
X43675469Y-39735137D01*
X43526907Y-39375588D01*
X43252059Y-39100260D01*
X42892770Y-38951070D01*
X42503737Y-38950731D01*
X42339166Y-39018730D01*
X42381130Y-38917670D01*
X42381469Y-38528637D01*
X42232907Y-38169088D01*
X42189400Y-38125505D01*
X42189400Y-33832800D01*
X42131396Y-33541195D01*
X42065234Y-33442177D01*
X41966216Y-33293985D01*
X41692231Y-33020000D01*
X46808145Y-33020000D01*
X47040985Y-33368470D01*
X47355766Y-33578800D01*
X47040985Y-33789130D01*
X46716129Y-34275311D01*
X46602055Y-34848800D01*
X46716129Y-35422289D01*
X47040985Y-35908470D01*
X47355766Y-36118800D01*
X47040985Y-36329130D01*
X46716129Y-36815311D01*
X46602055Y-37388800D01*
X46716129Y-37962289D01*
X47040985Y-38448470D01*
X47355766Y-38658800D01*
X47040985Y-38869130D01*
X46716129Y-39355311D01*
X46602055Y-39928800D01*
X46716129Y-40502289D01*
X47040985Y-40988470D01*
X47355766Y-41198800D01*
X47040985Y-41409130D01*
X46716129Y-41895311D01*
X46602055Y-42468800D01*
X46716129Y-43042289D01*
X47040985Y-43528470D01*
X47350469Y-43735261D01*
X46934668Y-44106764D01*
X46680691Y-44634009D01*
X46678042Y-44649774D01*
X46799183Y-44881800D01*
X48158400Y-44881800D01*
X48158400Y-44861800D01*
X48412400Y-44861800D01*
X48412400Y-44881800D01*
X49771617Y-44881800D01*
X49892758Y-44649774D01*
X49890109Y-44634009D01*
X49636132Y-44106764D01*
X49220331Y-43735261D01*
X49529815Y-43528470D01*
X49854671Y-43042289D01*
X49968745Y-42468800D01*
X49854671Y-41895311D01*
X49529815Y-41409130D01*
X49215034Y-41198800D01*
X49529815Y-40988470D01*
X49854671Y-40502289D01*
X49968745Y-39928800D01*
X49854671Y-39355311D01*
X49529815Y-38869130D01*
X49215034Y-38658800D01*
X49529815Y-38448470D01*
X49854671Y-37962289D01*
X49968745Y-37388800D01*
X49854671Y-36815311D01*
X49529815Y-36329130D01*
X49215034Y-36118800D01*
X49529815Y-35908470D01*
X49854671Y-35422289D01*
X49968745Y-34848800D01*
X49854671Y-34275311D01*
X49529815Y-33789130D01*
X49215034Y-33578800D01*
X49529815Y-33368470D01*
X49854671Y-32882289D01*
X49968745Y-32308800D01*
X49854671Y-31735311D01*
X49529815Y-31249130D01*
X49515487Y-31239557D01*
X49536717Y-31235562D01*
X49752841Y-31096490D01*
X49897831Y-30884290D01*
X49948840Y-30632400D01*
X49948840Y-28905200D01*
X49904562Y-28669883D01*
X49765490Y-28453759D01*
X49553290Y-28308769D01*
X49301400Y-28257760D01*
X47269400Y-28257760D01*
X47034083Y-28302038D01*
X46817959Y-28441110D01*
X46672969Y-28653310D01*
X46621960Y-28905200D01*
X46621960Y-30632400D01*
X46666238Y-30867717D01*
X46805310Y-31083841D01*
X47017510Y-31228831D01*
X47058839Y-31237200D01*
X47040985Y-31249130D01*
X46808145Y-31597600D01*
X40959989Y-31597600D01*
X39390294Y-30027906D01*
X39159565Y-29873737D01*
X38887400Y-29819600D01*
X36794388Y-29819600D01*
X36309325Y-29334537D01*
X36309469Y-29168737D01*
X36160907Y-28809188D01*
X35886059Y-28533860D01*
X35526770Y-28384670D01*
X35137737Y-28384331D01*
X34778188Y-28532893D01*
X34502860Y-28807741D01*
X34353670Y-29167030D01*
X34353579Y-29271245D01*
X34053570Y-29146670D01*
X33664537Y-29146331D01*
X33304988Y-29294893D01*
X33029660Y-29569741D01*
X32880470Y-29929030D01*
X32880131Y-30318063D01*
X32963166Y-30519023D01*
X32101528Y-31380661D01*
X31935728Y-31380517D01*
X31576179Y-31529079D01*
X31300851Y-31803927D01*
X31151661Y-32163216D01*
X31151322Y-32552249D01*
X31299884Y-32911798D01*
X31318022Y-32929967D01*
X31270573Y-33044236D01*
X31270490Y-33139789D01*
X30323479Y-34086800D01*
X26868712Y-34086800D01*
X26669815Y-33789130D01*
X26355034Y-33578800D01*
X26669815Y-33368470D01*
X26994671Y-32882289D01*
X27108745Y-32308800D01*
X26994671Y-31735311D01*
X26669815Y-31249130D01*
X26655487Y-31239557D01*
X26676717Y-31235562D01*
X26892841Y-31096490D01*
X27037831Y-30884290D01*
X27088840Y-30632400D01*
X27088840Y-28905200D01*
X27044562Y-28669883D01*
X26905490Y-28453759D01*
X26693290Y-28308769D01*
X26441400Y-28257760D01*
X24409400Y-28257760D01*
X24174083Y-28302038D01*
X23957959Y-28441110D01*
X23812969Y-28653310D01*
X23761960Y-28905200D01*
X23761960Y-30632400D01*
X23806238Y-30867717D01*
X23945310Y-31083841D01*
X24157510Y-31228831D01*
X24198839Y-31237200D01*
X24180985Y-31249130D01*
X23856129Y-31735311D01*
X23742055Y-32308800D01*
X23596600Y-32308800D01*
X23596600Y-22376672D01*
X23989502Y-22539819D01*
X24480815Y-22540248D01*
X24934893Y-22352626D01*
X25282607Y-22005519D01*
X25471021Y-21551768D01*
X25471450Y-21060455D01*
X25283828Y-20606377D01*
X24997951Y-20320000D01*
X30574912Y-20320000D01*
X30289865Y-20604549D01*
X30289865Y-20604549D01*
G37*
X30289865Y-20604549D02*
X30101451Y-21058300D01*
X30101022Y-21549613D01*
X30288644Y-22003691D01*
X30635751Y-22351405D01*
X31089502Y-22539819D01*
X31580815Y-22540248D01*
X32034893Y-22352626D01*
X32382607Y-22005519D01*
X32571021Y-21551768D01*
X32571450Y-21060455D01*
X32383828Y-20606377D01*
X32097951Y-20320000D01*
X49485355Y-20320000D01*
X49763911Y-20375408D01*
X49940678Y-20493520D01*
X50058792Y-20670290D01*
X50114200Y-20948849D01*
X50114200Y-46208751D01*
X50058792Y-46487310D01*
X49940678Y-46664080D01*
X49763911Y-46782192D01*
X49485355Y-46837600D01*
X24225449Y-46837600D01*
X23946890Y-46782192D01*
X23770120Y-46664078D01*
X23652008Y-46487311D01*
X23596600Y-46208755D01*
X23596600Y-32308800D01*
X23742055Y-32308800D01*
X23856129Y-32882289D01*
X24180985Y-33368470D01*
X24495766Y-33578800D01*
X24180985Y-33789130D01*
X23856129Y-34275311D01*
X23742055Y-34848800D01*
X23856129Y-35422289D01*
X24180985Y-35908470D01*
X24495766Y-36118800D01*
X24180985Y-36329130D01*
X23856129Y-36815311D01*
X23742055Y-37388800D01*
X23856129Y-37962289D01*
X24180985Y-38448470D01*
X24495766Y-38658800D01*
X24180985Y-38869130D01*
X23856129Y-39355311D01*
X23742055Y-39928800D01*
X23856129Y-40502289D01*
X24180985Y-40988470D01*
X24495766Y-41198800D01*
X24180985Y-41409130D01*
X23856129Y-41895311D01*
X23742055Y-42468800D01*
X23856129Y-43042289D01*
X24180985Y-43528470D01*
X24495766Y-43738800D01*
X24180985Y-43949130D01*
X23856129Y-44435311D01*
X23742055Y-45008800D01*
X23856129Y-45582289D01*
X24180985Y-46068470D01*
X24667166Y-46393326D01*
X25240655Y-46507400D01*
X25610145Y-46507400D01*
X26183634Y-46393326D01*
X26669815Y-46068470D01*
X26994671Y-45582289D01*
X27037330Y-45367826D01*
X46678042Y-45367826D01*
X46680691Y-45383591D01*
X46934668Y-45910836D01*
X47371080Y-46300754D01*
X47923487Y-46493984D01*
X48158400Y-46349724D01*
X48158400Y-45135800D01*
X48412400Y-45135800D01*
X48412400Y-46349724D01*
X48647313Y-46493984D01*
X49199720Y-46300754D01*
X49636132Y-45910836D01*
X49890109Y-45383591D01*
X49892758Y-45367826D01*
X49771617Y-45135800D01*
X48412400Y-45135800D01*
X48158400Y-45135800D01*
X46799183Y-45135800D01*
X46678042Y-45367826D01*
X27037330Y-45367826D01*
X27108745Y-45008800D01*
X26994671Y-44435311D01*
X26669815Y-43949130D01*
X26355034Y-43738800D01*
X26669815Y-43528470D01*
X26868712Y-43230800D01*
X34507770Y-43230800D01*
X34607413Y-43330443D01*
X34607331Y-43424463D01*
X34755893Y-43784012D01*
X35030741Y-44059340D01*
X35390030Y-44208530D01*
X35779063Y-44208869D01*
X36138612Y-44060307D01*
X36413940Y-43785459D01*
X36563130Y-43426170D01*
X36563469Y-43037137D01*
X36414907Y-42677588D01*
X36140059Y-42402260D01*
X35780770Y-42253070D01*
X35685217Y-42252987D01*
X35362215Y-41929985D01*
X35310322Y-41895311D01*
X35115005Y-41764804D01*
X34823400Y-41706800D01*
X26868712Y-41706800D01*
X26669815Y-41409130D01*
X26355034Y-41198800D01*
X26669815Y-40988470D01*
X26994671Y-40502289D01*
X27108745Y-39928800D01*
X26994671Y-39355311D01*
X26669815Y-38869130D01*
X26355034Y-38658800D01*
X26669815Y-38448470D01*
X26994671Y-37962289D01*
X27108745Y-37388800D01*
X26994671Y-36815311D01*
X26669815Y-36329130D01*
X26355034Y-36118800D01*
X26669815Y-35908470D01*
X26868712Y-35610800D01*
X30639109Y-35610800D01*
X30930714Y-35552796D01*
X31177924Y-35387615D01*
X32347946Y-34217593D01*
X32441966Y-34217675D01*
X32801515Y-34069113D01*
X33076843Y-33794265D01*
X33226033Y-33434976D01*
X33226372Y-33045943D01*
X33077810Y-32686394D01*
X33059672Y-32668225D01*
X33107121Y-32553956D01*
X33107267Y-32386498D01*
X33762751Y-31731014D01*
X33858200Y-31750000D01*
X38266970Y-31750000D01*
X40665400Y-34148431D01*
X40665400Y-38077259D01*
X40574860Y-38167641D01*
X40425670Y-38526930D01*
X40425331Y-38915963D01*
X40528974Y-39166800D01*
X38695030Y-39166800D01*
X37325387Y-37797157D01*
X37325469Y-37703137D01*
X37176907Y-37343588D01*
X36902059Y-37068260D01*
X36542770Y-36919070D01*
X36153737Y-36918731D01*
X35794188Y-37067293D01*
X35518860Y-37342141D01*
X35369670Y-37701430D01*
X35369331Y-38090463D01*
X35517893Y-38450012D01*
X35792741Y-38725340D01*
X36152030Y-38874530D01*
X36247583Y-38874613D01*
X37301770Y-39928800D01*
X36687588Y-39928800D01*
X36668907Y-39883588D01*
X36394059Y-39608260D01*
X36034770Y-39459070D01*
X35645737Y-39458731D01*
X35286188Y-39607293D01*
X35010860Y-39882141D01*
X34861670Y-40241430D01*
X34861331Y-40630463D01*
X35009893Y-40990012D01*
X35284741Y-41265340D01*
X35644030Y-41414530D01*
X35902135Y-41414755D01*
X36093400Y-41452800D01*
X41744015Y-41452800D01*
X41719670Y-41511430D01*
X41719331Y-41900463D01*
X41867893Y-42260012D01*
X42142741Y-42535340D01*
X42502030Y-42684530D01*
X42891063Y-42684869D01*
X43250612Y-42536307D01*
X43525940Y-42261459D01*
X43675130Y-41902170D01*
X43675469Y-41513137D01*
X43526907Y-41153588D01*
X43425640Y-41052144D01*
X43401396Y-40930262D01*
X43272140Y-40736817D01*
X43525940Y-40483459D01*
X43675130Y-40124170D01*
X43675469Y-39735137D01*
X43526907Y-39375588D01*
X43252059Y-39100260D01*
X42892770Y-38951070D01*
X42503737Y-38950731D01*
X42339166Y-39018730D01*
X42381130Y-38917670D01*
X42381469Y-38528637D01*
X42232907Y-38169088D01*
X42189400Y-38125505D01*
X42189400Y-33832800D01*
X42131396Y-33541195D01*
X42065234Y-33442177D01*
X41966216Y-33293985D01*
X41692231Y-33020000D01*
X46808145Y-33020000D01*
X47040985Y-33368470D01*
X47355766Y-33578800D01*
X47040985Y-33789130D01*
X46716129Y-34275311D01*
X46602055Y-34848800D01*
X46716129Y-35422289D01*
X47040985Y-35908470D01*
X47355766Y-36118800D01*
X47040985Y-36329130D01*
X46716129Y-36815311D01*
X46602055Y-37388800D01*
X46716129Y-37962289D01*
X47040985Y-38448470D01*
X47355766Y-38658800D01*
X47040985Y-38869130D01*
X46716129Y-39355311D01*
X46602055Y-39928800D01*
X46716129Y-40502289D01*
X47040985Y-40988470D01*
X47355766Y-41198800D01*
X47040985Y-41409130D01*
X46716129Y-41895311D01*
X46602055Y-42468800D01*
X46716129Y-43042289D01*
X47040985Y-43528470D01*
X47350469Y-43735261D01*
X46934668Y-44106764D01*
X46680691Y-44634009D01*
X46678042Y-44649774D01*
X46799183Y-44881800D01*
X48158400Y-44881800D01*
X48158400Y-44861800D01*
X48412400Y-44861800D01*
X48412400Y-44881800D01*
X49771617Y-44881800D01*
X49892758Y-44649774D01*
X49890109Y-44634009D01*
X49636132Y-44106764D01*
X49220331Y-43735261D01*
X49529815Y-43528470D01*
X49854671Y-43042289D01*
X49968745Y-42468800D01*
X49854671Y-41895311D01*
X49529815Y-41409130D01*
X49215034Y-41198800D01*
X49529815Y-40988470D01*
X49854671Y-40502289D01*
X49968745Y-39928800D01*
X49854671Y-39355311D01*
X49529815Y-38869130D01*
X49215034Y-38658800D01*
X49529815Y-38448470D01*
X49854671Y-37962289D01*
X49968745Y-37388800D01*
X49854671Y-36815311D01*
X49529815Y-36329130D01*
X49215034Y-36118800D01*
X49529815Y-35908470D01*
X49854671Y-35422289D01*
X49968745Y-34848800D01*
X49854671Y-34275311D01*
X49529815Y-33789130D01*
X49215034Y-33578800D01*
X49529815Y-33368470D01*
X49854671Y-32882289D01*
X49968745Y-32308800D01*
X49854671Y-31735311D01*
X49529815Y-31249130D01*
X49515487Y-31239557D01*
X49536717Y-31235562D01*
X49752841Y-31096490D01*
X49897831Y-30884290D01*
X49948840Y-30632400D01*
X49948840Y-28905200D01*
X49904562Y-28669883D01*
X49765490Y-28453759D01*
X49553290Y-28308769D01*
X49301400Y-28257760D01*
X47269400Y-28257760D01*
X47034083Y-28302038D01*
X46817959Y-28441110D01*
X46672969Y-28653310D01*
X46621960Y-28905200D01*
X46621960Y-30632400D01*
X46666238Y-30867717D01*
X46805310Y-31083841D01*
X47017510Y-31228831D01*
X47058839Y-31237200D01*
X47040985Y-31249130D01*
X46808145Y-31597600D01*
X40959989Y-31597600D01*
X39390294Y-30027906D01*
X39159565Y-29873737D01*
X38887400Y-29819600D01*
X36794388Y-29819600D01*
X36309325Y-29334537D01*
X36309469Y-29168737D01*
X36160907Y-28809188D01*
X35886059Y-28533860D01*
X35526770Y-28384670D01*
X35137737Y-28384331D01*
X34778188Y-28532893D01*
X34502860Y-28807741D01*
X34353670Y-29167030D01*
X34353579Y-29271245D01*
X34053570Y-29146670D01*
X33664537Y-29146331D01*
X33304988Y-29294893D01*
X33029660Y-29569741D01*
X32880470Y-29929030D01*
X32880131Y-30318063D01*
X32963166Y-30519023D01*
X32101528Y-31380661D01*
X31935728Y-31380517D01*
X31576179Y-31529079D01*
X31300851Y-31803927D01*
X31151661Y-32163216D01*
X31151322Y-32552249D01*
X31299884Y-32911798D01*
X31318022Y-32929967D01*
X31270573Y-33044236D01*
X31270490Y-33139789D01*
X30323479Y-34086800D01*
X26868712Y-34086800D01*
X26669815Y-33789130D01*
X26355034Y-33578800D01*
X26669815Y-33368470D01*
X26994671Y-32882289D01*
X27108745Y-32308800D01*
X26994671Y-31735311D01*
X26669815Y-31249130D01*
X26655487Y-31239557D01*
X26676717Y-31235562D01*
X26892841Y-31096490D01*
X27037831Y-30884290D01*
X27088840Y-30632400D01*
X27088840Y-28905200D01*
X27044562Y-28669883D01*
X26905490Y-28453759D01*
X26693290Y-28308769D01*
X26441400Y-28257760D01*
X24409400Y-28257760D01*
X24174083Y-28302038D01*
X23957959Y-28441110D01*
X23812969Y-28653310D01*
X23761960Y-28905200D01*
X23761960Y-30632400D01*
X23806238Y-30867717D01*
X23945310Y-31083841D01*
X24157510Y-31228831D01*
X24198839Y-31237200D01*
X24180985Y-31249130D01*
X23856129Y-31735311D01*
X23742055Y-32308800D01*
X23596600Y-32308800D01*
X23596600Y-22376672D01*
X23989502Y-22539819D01*
X24480815Y-22540248D01*
X24934893Y-22352626D01*
X25282607Y-22005519D01*
X25471021Y-21551768D01*
X25471450Y-21060455D01*
X25283828Y-20606377D01*
X24997951Y-20320000D01*
X30574912Y-20320000D01*
X30289865Y-20604549D01*
D17*
X29806900Y-33769300D03*
X42570400Y-37388800D03*
X31013400Y-33324800D03*
X36513510Y-36118800D03*
X37816453Y-29908490D03*
X43661720Y-31686490D03*
X33667290Y-37807910D03*
X42119861Y-30014906D03*
X25069800Y-26111200D03*
X40055800Y-36322000D03*
X37007800Y-34773800D03*
X37871400Y-25044400D03*
X36703000Y-27635200D03*
X36343498Y-33203338D03*
X34337302Y-33170742D03*
X35368381Y-34176898D03*
X35350638Y-32170702D03*
X35365400Y-33148800D03*
X41403400Y-38722300D03*
X32129391Y-32358586D03*
X33858200Y-30124400D03*
X35839400Y-40436800D03*
X42697400Y-41706800D03*
X35585400Y-43230800D03*
X32248303Y-33239606D03*
X42697400Y-39928800D03*
X36347400Y-37896800D03*
X35331400Y-29362400D03*
D18*
X31336236Y-21305034D03*
X24236236Y-21305034D03*
X25425400Y-29768800D03*
X25425400Y-32308800D03*
X25425400Y-34848800D03*
X25425400Y-37388800D03*
X25425400Y-39928800D03*
X25425400Y-42468800D03*
X25425400Y-45008800D03*
X48285400Y-29768800D03*
X48285400Y-32308800D03*
X48285400Y-34848800D03*
X48285400Y-37388800D03*
X48285400Y-39928800D03*
X48285400Y-42468800D03*
X48285400Y-45008800D03*
M02*
