%TF.GenerationSoftware,KiCad,Pcbnew,4.0.5-e0-6337~49~ubuntu16.04.1*%
%TF.CreationDate,2017-08-14T13:56:54-07:00*%
%TF.ProjectId,mcp73871-battery-mgmt-breakout,6D637037333837312D62617474657279,1.0*%
%TF.FileFunction,Copper,L1,Top,Signal*%
%FSLAX46Y46*%
G04 Gerber Fmt 4.6, Leading zero omitted, Abs format (unit mm)*
G04 Created by KiCad (PCBNEW 4.0.5-e0-6337~49~ubuntu16.04.1) date Mon Aug 14 13:56:54 2017*
%MOMM*%
%LPD*%
G01*
G04 APERTURE LIST*
%ADD10C,0.350000*%
%ADD11R,0.400000X1.350000*%
%ADD12R,1.600000X1.400000*%
%ADD13C,1.200000*%
%ADD14R,1.900000X1.900000*%
%ADD15R,1.000000X3.500000*%
%ADD16R,1.600000X3.400000*%
%ADD17R,2.032000X1.727200*%
%ADD18O,2.032000X1.727200*%
%ADD19R,0.800000X0.750000*%
%ADD20R,0.750000X0.800000*%
%ADD21R,0.600000X0.500000*%
%ADD22R,0.730000X0.300000*%
%ADD23R,0.300000X0.730000*%
%ADD24R,1.250000X1.250000*%
%ADD25R,1.600000X1.000000*%
%ADD26R,1.000000X1.600000*%
%ADD27C,0.685800*%
%ADD28C,0.330200*%
%ADD29C,0.254000*%
%ADD30C,0.152400*%
%ADD31C,0.508000*%
%ADD32C,0.330200*%
%ADD33C,0.350000*%
G04 APERTURE END LIST*
D10*
D11*
X29086236Y-23980034D03*
X28436236Y-23980034D03*
X27787136Y-23980034D03*
X27136236Y-23980034D03*
X26486236Y-23980034D03*
D12*
X30986236Y-23755034D03*
D13*
X31336236Y-21305034D03*
D14*
X28986236Y-21305034D03*
X26586236Y-21305034D03*
D12*
X24586236Y-23755034D03*
D13*
X24236236Y-21305034D03*
D15*
X39891000Y-27597200D03*
X37891000Y-27597200D03*
D16*
X42291000Y-22047200D03*
X35491000Y-22047200D03*
D17*
X25425400Y-29768800D03*
D18*
X25425400Y-32308800D03*
X25425400Y-34848800D03*
X25425400Y-37388800D03*
X25425400Y-39928800D03*
X25425400Y-42468800D03*
X25425400Y-45008800D03*
D17*
X48285400Y-29768800D03*
D18*
X48285400Y-32308800D03*
X48285400Y-34848800D03*
X48285400Y-37388800D03*
X48285400Y-39928800D03*
X48285400Y-42468800D03*
X48285400Y-45008800D03*
D19*
X39903400Y-39342290D03*
X41403400Y-39342290D03*
X39903400Y-42380962D03*
X41403400Y-42380962D03*
X39903400Y-45480800D03*
X41403400Y-45480800D03*
D20*
X31369000Y-27814400D03*
X31369000Y-26314400D03*
D19*
X37085400Y-39292290D03*
X35585400Y-39292290D03*
X37045528Y-42380962D03*
X35545528Y-42380962D03*
X37085400Y-45516800D03*
X35585400Y-45516800D03*
D21*
X31965400Y-36848800D03*
X33065400Y-36848800D03*
D20*
X40965400Y-34748800D03*
X40965400Y-36248800D03*
X39115400Y-34798800D03*
X39115400Y-36298800D03*
D22*
X33375400Y-32173800D03*
X33375400Y-32673800D03*
X33375400Y-33173800D03*
X33375400Y-33673800D03*
X33375400Y-34173800D03*
D23*
X34340400Y-35138800D03*
X34840400Y-35138800D03*
X35340400Y-35138800D03*
X35840400Y-35138800D03*
X36340400Y-35138800D03*
D22*
X37305400Y-34173800D03*
X37305400Y-33673800D03*
X37305400Y-33173800D03*
X37305400Y-32673800D03*
X37305400Y-32173800D03*
D23*
X36340400Y-31208800D03*
X35840400Y-31208800D03*
X35340400Y-31208800D03*
X34840400Y-31208800D03*
X34340400Y-31208800D03*
D24*
X35965400Y-33798800D03*
X35965400Y-32548800D03*
X34715400Y-33798800D03*
X34715400Y-32548800D03*
D25*
X31267400Y-31292800D03*
X31267400Y-34292800D03*
D26*
X29289000Y-26771600D03*
X26289000Y-26771600D03*
X39165400Y-31356300D03*
X42165400Y-31356300D03*
D27*
X29806900Y-33769300D03*
X42570400Y-37388800D03*
X31013400Y-33324800D03*
X36513510Y-36118800D03*
X37816453Y-29908490D03*
X43661720Y-31686490D03*
X33667290Y-37807910D03*
X42119861Y-30014906D03*
X25069800Y-26111200D03*
X40055800Y-36322000D03*
X37007800Y-34773800D03*
X37871400Y-25044400D03*
X36703000Y-27635200D03*
X36343498Y-33203338D03*
X34337302Y-33170742D03*
X35368381Y-34176898D03*
X35350638Y-32170702D03*
X35365400Y-33148800D03*
X41403400Y-38722300D03*
X32129391Y-32358586D03*
X33858200Y-30124400D03*
X35839400Y-40436800D03*
X42697400Y-41706800D03*
X35585400Y-43230800D03*
X32248303Y-33239606D03*
X42697400Y-39928800D03*
X36347400Y-37896800D03*
X35331400Y-29362400D03*
D28*
X31369000Y-26314400D02*
X29746200Y-26314400D01*
X29746200Y-26314400D02*
X29289000Y-26771600D01*
X29086236Y-23980034D02*
X29086236Y-26568836D01*
X29086236Y-26568836D02*
X29289000Y-26771600D01*
D29*
X31267400Y-34292800D02*
X30330400Y-34292800D01*
X30330400Y-34292800D02*
X29806900Y-33769300D01*
X42570400Y-37388800D02*
X42570400Y-36690300D01*
X40965400Y-36248800D02*
X41557400Y-36248800D01*
X41557400Y-36248800D02*
X42697400Y-37388800D01*
X31267400Y-34292800D02*
X31267400Y-35356800D01*
X31267400Y-34292800D02*
X31267400Y-33578800D01*
X31267400Y-33578800D02*
X31013400Y-33324800D01*
X36340400Y-35945690D02*
X36513510Y-36118800D01*
X36340400Y-35138800D02*
X36340400Y-35945690D01*
X37891000Y-27597200D02*
X37891000Y-29833943D01*
X37891000Y-29833943D02*
X37816453Y-29908490D01*
X43649410Y-31698800D02*
X43661720Y-31686490D01*
X42215400Y-31698800D02*
X43649410Y-31698800D01*
D28*
X33444310Y-37807910D02*
X33667290Y-37807910D01*
X33065400Y-36848800D02*
X33065400Y-37429000D01*
X33065400Y-37429000D02*
X33444310Y-37807910D01*
D30*
X26289000Y-26771600D02*
X25628600Y-26771600D01*
X25628600Y-26771600D02*
X25069800Y-27330400D01*
X26289000Y-26771600D02*
X25636600Y-26771600D01*
X25636600Y-26771600D02*
X25069800Y-26204800D01*
X25069800Y-26204800D02*
X25069800Y-26111200D01*
D28*
X26486236Y-23980034D02*
X26486236Y-26574364D01*
X26486236Y-26574364D02*
X26289000Y-26771600D01*
D30*
X39115400Y-36298800D02*
X40032600Y-36298800D01*
X40032600Y-36298800D02*
X40055800Y-36322000D01*
D29*
X35965400Y-33798800D02*
X36032800Y-33798800D01*
X36032800Y-33798800D02*
X37007800Y-34773800D01*
X42215400Y-31698800D02*
X42215400Y-29946000D01*
X37891000Y-27597200D02*
X37891000Y-25064000D01*
X37891000Y-25064000D02*
X37871400Y-25044400D01*
X37891000Y-27597200D02*
X36741000Y-27597200D01*
X36741000Y-27597200D02*
X36703000Y-27635200D01*
D30*
X37305400Y-34173800D02*
X37305400Y-34476200D01*
X37305400Y-34476200D02*
X36642800Y-35138800D01*
X36642800Y-35138800D02*
X36340400Y-35138800D01*
X37305400Y-34173800D02*
X36340400Y-34173800D01*
X36340400Y-34173800D02*
X35965400Y-33798800D01*
X36340400Y-35138800D02*
X36340400Y-34173800D01*
D29*
X35365400Y-33148800D02*
X36288960Y-33148800D01*
X36288960Y-33148800D02*
X36343498Y-33203338D01*
X35365400Y-33148800D02*
X34359244Y-33148800D01*
X34359244Y-33148800D02*
X34337302Y-33170742D01*
X35365400Y-33148800D02*
X35365400Y-34173917D01*
X35365400Y-33148800D02*
X35365400Y-32185464D01*
X35365400Y-32185464D02*
X35350638Y-32170702D01*
X35365400Y-33148800D02*
X34715400Y-33798800D01*
X35965400Y-32548800D02*
X35965400Y-33427800D01*
X33375400Y-32173800D02*
X33375400Y-31318000D01*
X33375400Y-31318000D02*
X33350200Y-31292800D01*
X31267400Y-31292800D02*
X34256400Y-31292800D01*
X34256400Y-31292800D02*
X34340400Y-31208800D01*
D31*
X31267400Y-31292800D02*
X30662600Y-31292800D01*
X30662600Y-31292800D02*
X29646600Y-32308800D01*
X29646600Y-32308800D02*
X25425400Y-32308800D01*
X30662600Y-31292800D02*
X30962600Y-31292800D01*
X33350200Y-31292800D02*
X34182399Y-31292800D01*
X30962600Y-31292800D02*
X33350200Y-31292800D01*
X33350200Y-31292800D02*
X33350200Y-32015799D01*
D28*
X38540400Y-32673800D02*
X38540400Y-32372300D01*
X38540400Y-32372300D02*
X38540400Y-31728300D01*
D29*
X39165400Y-31356300D02*
X39165400Y-31747300D01*
X39165400Y-31747300D02*
X38540400Y-32372300D01*
X39165400Y-31356300D02*
X39165400Y-31332300D01*
X39165400Y-31332300D02*
X39891000Y-30606700D01*
D28*
X39891000Y-29514800D02*
X40152895Y-29252905D01*
X40152895Y-29252905D02*
X42485622Y-29252905D01*
X42485622Y-29252905D02*
X43001517Y-29768800D01*
X43001517Y-29768800D02*
X48285400Y-29768800D01*
D31*
X39891000Y-27597200D02*
X39891000Y-29514800D01*
X39891000Y-29514800D02*
X39891000Y-30606700D01*
X39891000Y-30606700D02*
X39215400Y-31282300D01*
X39215400Y-31282300D02*
X39215400Y-31698800D01*
D28*
X39215400Y-31698800D02*
X38569900Y-31698800D01*
X38569900Y-31698800D02*
X38385200Y-31698800D01*
X38540400Y-31728300D02*
X38569900Y-31698800D01*
X37305400Y-32173800D02*
X37305400Y-31214300D01*
X37305400Y-31214300D02*
X37299900Y-31208800D01*
X37305400Y-32173800D02*
X37305400Y-32604699D01*
D30*
X37305400Y-32673800D02*
X38074782Y-32673800D01*
X38074782Y-32673800D02*
X38023800Y-32673800D01*
D28*
X38540400Y-32673800D02*
X38074782Y-32673800D01*
X39215400Y-31698800D02*
X39215400Y-31998800D01*
X39215400Y-31998800D02*
X38540400Y-32673800D01*
X37895200Y-31208800D02*
X37299900Y-31208800D01*
X37299900Y-31208800D02*
X36409501Y-31208800D01*
X38385200Y-31698800D02*
X37895200Y-31208800D01*
D29*
X39215400Y-31698800D02*
X39215400Y-31398800D01*
X38540400Y-32673800D02*
X38023800Y-32673800D01*
X37305400Y-32173800D02*
X38582600Y-32173800D01*
X39215400Y-31698800D02*
X39057600Y-31698800D01*
X39057600Y-31698800D02*
X38582600Y-32173800D01*
D30*
X37305400Y-32673800D02*
X37305400Y-32173800D01*
D29*
X37085400Y-39292290D02*
X39853400Y-39292290D01*
X39853400Y-39292290D02*
X39903400Y-39342290D01*
X41403400Y-39342290D02*
X41403400Y-38722300D01*
D30*
X33375400Y-32673800D02*
X32858000Y-32673800D01*
X32858000Y-32673800D02*
X32542786Y-32358586D01*
X32542786Y-32358586D02*
X32129391Y-32358586D01*
D28*
X32655636Y-27814400D02*
X31369000Y-27814400D01*
X32655636Y-27814400D02*
X34467800Y-29626564D01*
D29*
X41403400Y-42380962D02*
X41403400Y-39342290D01*
X41403400Y-45480800D02*
X41403400Y-42380962D01*
D28*
X25120600Y-30327600D02*
X28880800Y-30327600D01*
X28880800Y-30327600D02*
X31369000Y-27839400D01*
X31369000Y-27839400D02*
X31369000Y-27814400D01*
X34467800Y-29626564D02*
X35077400Y-30236164D01*
D30*
X33858200Y-30124400D02*
X34356036Y-29626564D01*
X34356036Y-29626564D02*
X34467800Y-29626564D01*
D28*
X35077400Y-30236164D02*
X35077400Y-31089600D01*
D30*
X35340400Y-31208800D02*
X35196600Y-31208800D01*
X35196600Y-31208800D02*
X35077400Y-31089600D01*
X34840400Y-31208800D02*
X34958200Y-31208800D01*
D28*
X35077400Y-31089600D02*
X35077400Y-31292800D01*
D30*
X34958200Y-31208800D02*
X35077400Y-31089600D01*
D29*
X37045528Y-42380962D02*
X39903400Y-42380962D01*
X37085400Y-45516800D02*
X39867400Y-45516800D01*
X39867400Y-45516800D02*
X39903400Y-45480800D01*
X35585400Y-39292290D02*
X35585400Y-40182800D01*
X35585400Y-40182800D02*
X35839400Y-40436800D01*
X35340400Y-35138800D02*
X35340400Y-39047290D01*
X35340400Y-39047290D02*
X35585400Y-39292290D01*
X46253400Y-41706800D02*
X42697400Y-41706800D01*
X48285400Y-42468800D02*
X47015400Y-42468800D01*
X47015400Y-42468800D02*
X46253400Y-41706800D01*
X35585400Y-43230800D02*
X35585400Y-42420834D01*
X35585400Y-42420834D02*
X35545528Y-42380962D01*
X34840400Y-35138800D02*
X34840400Y-41700834D01*
X34840400Y-41700834D02*
X35520528Y-42380962D01*
X35520528Y-42380962D02*
X35545528Y-42380962D01*
X25425400Y-45008800D02*
X33628400Y-45008800D01*
X33628400Y-45008800D02*
X34340400Y-44296800D01*
X34340400Y-35138800D02*
X34340400Y-44296800D01*
X34340400Y-44296800D02*
X35560400Y-45516800D01*
X35560400Y-45516800D02*
X35585400Y-45516800D01*
X25425400Y-39928800D02*
X29389400Y-39928800D01*
X31965400Y-37352800D02*
X31965400Y-36848800D01*
X29389400Y-39928800D02*
X31965400Y-37352800D01*
D28*
X33306299Y-34242901D02*
X33299400Y-34249800D01*
X33299400Y-34249800D02*
X33299400Y-35102800D01*
X33299400Y-35102800D02*
X31965400Y-36436800D01*
X31965400Y-36436800D02*
X31965400Y-36848800D01*
D29*
X48285400Y-34848800D02*
X41065400Y-34848800D01*
X41065400Y-34848800D02*
X40965400Y-34748800D01*
D30*
X40311200Y-33173800D02*
X40965400Y-33828000D01*
X40965400Y-33828000D02*
X40965400Y-34748800D01*
X37305400Y-33173800D02*
X40311200Y-33173800D01*
D29*
X48285400Y-37388800D02*
X43415411Y-37388800D01*
X43415411Y-37388800D02*
X42930269Y-37873942D01*
X42930269Y-37873942D02*
X38610542Y-37873942D01*
X37617400Y-36880800D02*
X37617400Y-36321800D01*
X38610542Y-37873942D02*
X37617400Y-36880800D01*
X37617400Y-36321800D02*
X39115400Y-34823800D01*
X39115400Y-34823800D02*
X39115400Y-34798800D01*
D30*
X38576000Y-33673800D02*
X39115400Y-34213200D01*
X39115400Y-34213200D02*
X39115400Y-34798800D01*
X37305400Y-33673800D02*
X38576000Y-33673800D01*
D29*
X33375400Y-33173800D02*
X32314109Y-33173800D01*
X32314109Y-33173800D02*
X32248303Y-33239606D01*
X30231592Y-37388800D02*
X32537400Y-35082992D01*
X25425400Y-37388800D02*
X30231592Y-37388800D01*
X32833664Y-33673800D02*
X33375400Y-33673800D01*
X32537400Y-35082992D02*
X32537400Y-33970064D01*
X32537400Y-33970064D02*
X32833664Y-33673800D01*
X42951400Y-39928800D02*
X42697400Y-39928800D01*
X48285400Y-39928800D02*
X42951400Y-39928800D01*
X35840400Y-35138800D02*
X35840400Y-37389800D01*
X35840400Y-37389800D02*
X36347400Y-37896800D01*
D30*
X35840400Y-31208800D02*
X35840400Y-29871400D01*
X35840400Y-29871400D02*
X35331400Y-29362400D01*
D29*
G36*
X34043560Y-20347200D02*
X34043560Y-23747200D01*
X34087838Y-23982517D01*
X34226910Y-24198641D01*
X34439110Y-24343631D01*
X34691000Y-24394640D01*
X36291000Y-24394640D01*
X36526317Y-24350362D01*
X36742441Y-24211290D01*
X36887431Y-23999090D01*
X36938440Y-23747200D01*
X36938440Y-20347200D01*
X36933322Y-20320000D01*
X40849068Y-20320000D01*
X40843560Y-20347200D01*
X40843560Y-23747200D01*
X40887838Y-23982517D01*
X41026910Y-24198641D01*
X41239110Y-24343631D01*
X41491000Y-24394640D01*
X43091000Y-24394640D01*
X43326317Y-24350362D01*
X43542441Y-24211290D01*
X43687431Y-23999090D01*
X43738440Y-23747200D01*
X43738440Y-20347200D01*
X43733322Y-20320000D01*
X49485355Y-20320000D01*
X49763911Y-20375408D01*
X49940678Y-20493520D01*
X50058792Y-20670290D01*
X50114200Y-20948849D01*
X50114200Y-46208751D01*
X50058792Y-46487310D01*
X49940678Y-46664080D01*
X49763911Y-46782192D01*
X49485355Y-46837600D01*
X24225449Y-46837600D01*
X23946890Y-46782192D01*
X23770120Y-46664078D01*
X23652008Y-46487311D01*
X23596600Y-46208755D01*
X23596600Y-27057350D01*
X25154000Y-27057350D01*
X25154000Y-27697910D01*
X25250673Y-27931299D01*
X25429302Y-28109927D01*
X25662691Y-28206600D01*
X26003250Y-28206600D01*
X26162000Y-28047850D01*
X26162000Y-26898600D01*
X26416000Y-26898600D01*
X26416000Y-28047850D01*
X26574750Y-28206600D01*
X26915309Y-28206600D01*
X27148698Y-28109927D01*
X27327327Y-27931299D01*
X27424000Y-27697910D01*
X27424000Y-27057350D01*
X27265250Y-26898600D01*
X26416000Y-26898600D01*
X26162000Y-26898600D01*
X25312750Y-26898600D01*
X25154000Y-27057350D01*
X23596600Y-27057350D01*
X23596600Y-25845290D01*
X25154000Y-25845290D01*
X25154000Y-26485850D01*
X25312750Y-26644600D01*
X26162000Y-26644600D01*
X26162000Y-25495350D01*
X26416000Y-25495350D01*
X26416000Y-26644600D01*
X27265250Y-26644600D01*
X27424000Y-26485850D01*
X27424000Y-25845290D01*
X27327327Y-25611901D01*
X27148698Y-25433273D01*
X26915309Y-25336600D01*
X26574750Y-25336600D01*
X26416000Y-25495350D01*
X26162000Y-25495350D01*
X26003250Y-25336600D01*
X25662691Y-25336600D01*
X25429302Y-25433273D01*
X25250673Y-25611901D01*
X25154000Y-25845290D01*
X23596600Y-25845290D01*
X23596600Y-25064072D01*
X23786236Y-25102474D01*
X25386236Y-25102474D01*
X25621553Y-25058196D01*
X25735532Y-24984852D01*
X25747909Y-25014732D01*
X25926537Y-25193361D01*
X26159926Y-25290034D01*
X26227486Y-25290034D01*
X26386236Y-25131284D01*
X26386236Y-24972967D01*
X26472146Y-25106475D01*
X26684346Y-25251465D01*
X26712021Y-25257069D01*
X26744986Y-25290034D01*
X26812546Y-25290034D01*
X26832989Y-25281566D01*
X26936236Y-25302474D01*
X27336236Y-25302474D01*
X27466291Y-25278002D01*
X27587136Y-25302474D01*
X27987136Y-25302474D01*
X28116258Y-25278178D01*
X28236236Y-25302474D01*
X28286136Y-25302474D01*
X28286136Y-25582770D01*
X28192569Y-25719710D01*
X28141560Y-25971600D01*
X28141560Y-27571600D01*
X28185838Y-27806917D01*
X28324910Y-28023041D01*
X28537110Y-28168031D01*
X28789000Y-28219040D01*
X29789000Y-28219040D01*
X29873805Y-28203083D01*
X28549388Y-29527500D01*
X27088840Y-29527500D01*
X27088840Y-28905200D01*
X27044562Y-28669883D01*
X26905490Y-28453759D01*
X26693290Y-28308769D01*
X26441400Y-28257760D01*
X24409400Y-28257760D01*
X24174083Y-28302038D01*
X23957959Y-28441110D01*
X23812969Y-28653310D01*
X23761960Y-28905200D01*
X23761960Y-30632400D01*
X23806238Y-30867717D01*
X23945310Y-31083841D01*
X24157510Y-31228831D01*
X24198839Y-31237200D01*
X24180985Y-31249130D01*
X23856129Y-31735311D01*
X23742055Y-32308800D01*
X23856129Y-32882289D01*
X24180985Y-33368470D01*
X24495766Y-33578800D01*
X24180985Y-33789130D01*
X23856129Y-34275311D01*
X23742055Y-34848800D01*
X23856129Y-35422289D01*
X24180985Y-35908470D01*
X24495766Y-36118800D01*
X24180985Y-36329130D01*
X23856129Y-36815311D01*
X23742055Y-37388800D01*
X23856129Y-37962289D01*
X24180985Y-38448470D01*
X24495766Y-38658800D01*
X24180985Y-38869130D01*
X23856129Y-39355311D01*
X23742055Y-39928800D01*
X23856129Y-40502289D01*
X24180985Y-40988470D01*
X24495766Y-41198800D01*
X24180985Y-41409130D01*
X23856129Y-41895311D01*
X23742055Y-42468800D01*
X23856129Y-43042289D01*
X24180985Y-43528470D01*
X24495766Y-43738800D01*
X24180985Y-43949130D01*
X23856129Y-44435311D01*
X23742055Y-45008800D01*
X23856129Y-45582289D01*
X24180985Y-46068470D01*
X24667166Y-46393326D01*
X25240655Y-46507400D01*
X25610145Y-46507400D01*
X26183634Y-46393326D01*
X26669815Y-46068470D01*
X26868712Y-45770800D01*
X33628400Y-45770800D01*
X33920005Y-45712796D01*
X34167215Y-45547615D01*
X34340400Y-45374430D01*
X34537960Y-45571991D01*
X34537960Y-45891800D01*
X34582238Y-46127117D01*
X34721310Y-46343241D01*
X34933510Y-46488231D01*
X35185400Y-46539240D01*
X35985400Y-46539240D01*
X36220717Y-46494962D01*
X36335378Y-46421180D01*
X36433510Y-46488231D01*
X36685400Y-46539240D01*
X37485400Y-46539240D01*
X37720717Y-46494962D01*
X37936841Y-46355890D01*
X37989514Y-46278800D01*
X39021009Y-46278800D01*
X39039310Y-46307241D01*
X39251510Y-46452231D01*
X39503400Y-46503240D01*
X40303400Y-46503240D01*
X40538717Y-46458962D01*
X40653378Y-46385180D01*
X40751510Y-46452231D01*
X41003400Y-46503240D01*
X41803400Y-46503240D01*
X42038717Y-46458962D01*
X42254841Y-46319890D01*
X42399831Y-46107690D01*
X42450840Y-45855800D01*
X42450840Y-45367826D01*
X46678042Y-45367826D01*
X46680691Y-45383591D01*
X46934668Y-45910836D01*
X47371080Y-46300754D01*
X47923487Y-46493984D01*
X48158400Y-46349724D01*
X48158400Y-45135800D01*
X48412400Y-45135800D01*
X48412400Y-46349724D01*
X48647313Y-46493984D01*
X49199720Y-46300754D01*
X49636132Y-45910836D01*
X49890109Y-45383591D01*
X49892758Y-45367826D01*
X49771617Y-45135800D01*
X48412400Y-45135800D01*
X48158400Y-45135800D01*
X46799183Y-45135800D01*
X46678042Y-45367826D01*
X42450840Y-45367826D01*
X42450840Y-45105800D01*
X42406562Y-44870483D01*
X42267490Y-44654359D01*
X42165400Y-44584604D01*
X42165400Y-43277606D01*
X42254841Y-43220052D01*
X42399831Y-43007852D01*
X42450840Y-42755962D01*
X42450840Y-42663274D01*
X42502030Y-42684530D01*
X42891063Y-42684869D01*
X43250612Y-42536307D01*
X43318237Y-42468800D01*
X45937770Y-42468800D01*
X46476585Y-43007616D01*
X46624777Y-43106634D01*
X46723795Y-43172796D01*
X46815523Y-43191042D01*
X47040985Y-43528470D01*
X47350469Y-43735261D01*
X46934668Y-44106764D01*
X46680691Y-44634009D01*
X46678042Y-44649774D01*
X46799183Y-44881800D01*
X48158400Y-44881800D01*
X48158400Y-44861800D01*
X48412400Y-44861800D01*
X48412400Y-44881800D01*
X49771617Y-44881800D01*
X49892758Y-44649774D01*
X49890109Y-44634009D01*
X49636132Y-44106764D01*
X49220331Y-43735261D01*
X49529815Y-43528470D01*
X49854671Y-43042289D01*
X49968745Y-42468800D01*
X49854671Y-41895311D01*
X49529815Y-41409130D01*
X49215034Y-41198800D01*
X49529815Y-40988470D01*
X49854671Y-40502289D01*
X49968745Y-39928800D01*
X49854671Y-39355311D01*
X49529815Y-38869130D01*
X49215034Y-38658800D01*
X49529815Y-38448470D01*
X49854671Y-37962289D01*
X49968745Y-37388800D01*
X49854671Y-36815311D01*
X49529815Y-36329130D01*
X49215034Y-36118800D01*
X49529815Y-35908470D01*
X49854671Y-35422289D01*
X49968745Y-34848800D01*
X49854671Y-34275311D01*
X49529815Y-33789130D01*
X49215034Y-33578800D01*
X49529815Y-33368470D01*
X49854671Y-32882289D01*
X49968745Y-32308800D01*
X49854671Y-31735311D01*
X49529815Y-31249130D01*
X49515487Y-31239557D01*
X49536717Y-31235562D01*
X49752841Y-31096490D01*
X49897831Y-30884290D01*
X49948840Y-30632400D01*
X49948840Y-28905200D01*
X49904562Y-28669883D01*
X49765490Y-28453759D01*
X49553290Y-28308769D01*
X49301400Y-28257760D01*
X47269400Y-28257760D01*
X47034083Y-28302038D01*
X46817959Y-28441110D01*
X46672969Y-28653310D01*
X46621960Y-28905200D01*
X46621960Y-28968700D01*
X43332929Y-28968700D01*
X43051378Y-28687149D01*
X42791807Y-28513709D01*
X42485622Y-28452805D01*
X41038440Y-28452805D01*
X41038440Y-25847200D01*
X40994162Y-25611883D01*
X40855090Y-25395759D01*
X40642890Y-25250769D01*
X40391000Y-25199760D01*
X39391000Y-25199760D01*
X39155683Y-25244038D01*
X38939559Y-25383110D01*
X38893031Y-25451206D01*
X38750698Y-25308873D01*
X38517309Y-25212200D01*
X38176750Y-25212200D01*
X38018000Y-25370950D01*
X38018000Y-27470200D01*
X38038000Y-27470200D01*
X38038000Y-27724200D01*
X38018000Y-27724200D01*
X38018000Y-29823450D01*
X38176750Y-29982200D01*
X38384919Y-29982200D01*
X38213959Y-30092210D01*
X38068969Y-30304410D01*
X38041939Y-30437888D01*
X37895200Y-30408700D01*
X36965005Y-30408700D01*
X36954490Y-30392359D01*
X36742290Y-30247369D01*
X36551600Y-30208753D01*
X36551600Y-29871400D01*
X36497463Y-29599236D01*
X36468616Y-29556063D01*
X36343295Y-29368506D01*
X36309325Y-29334536D01*
X36309469Y-29168737D01*
X36160907Y-28809188D01*
X35886059Y-28533860D01*
X35526770Y-28384670D01*
X35137737Y-28384331D01*
X34778188Y-28532893D01*
X34641796Y-28669048D01*
X33855698Y-27882950D01*
X36756000Y-27882950D01*
X36756000Y-29473510D01*
X36852673Y-29706899D01*
X37031302Y-29885527D01*
X37264691Y-29982200D01*
X37605250Y-29982200D01*
X37764000Y-29823450D01*
X37764000Y-27724200D01*
X36914750Y-27724200D01*
X36756000Y-27882950D01*
X33855698Y-27882950D01*
X33221392Y-27248644D01*
X32961821Y-27075204D01*
X32655636Y-27014300D01*
X32307627Y-27014300D01*
X32340431Y-26966290D01*
X32391440Y-26714400D01*
X32391440Y-25914400D01*
X32355029Y-25720890D01*
X36756000Y-25720890D01*
X36756000Y-27311450D01*
X36914750Y-27470200D01*
X37764000Y-27470200D01*
X37764000Y-25370950D01*
X37605250Y-25212200D01*
X37264691Y-25212200D01*
X37031302Y-25308873D01*
X36852673Y-25487501D01*
X36756000Y-25720890D01*
X32355029Y-25720890D01*
X32347162Y-25679083D01*
X32208090Y-25462959D01*
X31995890Y-25317969D01*
X31744000Y-25266960D01*
X30994000Y-25266960D01*
X30758683Y-25311238D01*
X30542559Y-25450310D01*
X30498837Y-25514300D01*
X30244515Y-25514300D01*
X30040890Y-25375169D01*
X29886336Y-25343871D01*
X29886336Y-25018661D01*
X29934346Y-25051465D01*
X30186236Y-25102474D01*
X31786236Y-25102474D01*
X32021553Y-25058196D01*
X32237677Y-24919124D01*
X32382667Y-24706924D01*
X32433676Y-24455034D01*
X32433676Y-23055034D01*
X32389398Y-22819717D01*
X32250326Y-22603593D01*
X32038126Y-22458603D01*
X31863831Y-22423307D01*
X32034893Y-22352626D01*
X32382607Y-22005519D01*
X32571021Y-21551768D01*
X32571450Y-21060455D01*
X32383828Y-20606377D01*
X32097951Y-20320000D01*
X34049068Y-20320000D01*
X34043560Y-20347200D01*
X34043560Y-20347200D01*
G37*
X34043560Y-20347200D02*
X34043560Y-23747200D01*
X34087838Y-23982517D01*
X34226910Y-24198641D01*
X34439110Y-24343631D01*
X34691000Y-24394640D01*
X36291000Y-24394640D01*
X36526317Y-24350362D01*
X36742441Y-24211290D01*
X36887431Y-23999090D01*
X36938440Y-23747200D01*
X36938440Y-20347200D01*
X36933322Y-20320000D01*
X40849068Y-20320000D01*
X40843560Y-20347200D01*
X40843560Y-23747200D01*
X40887838Y-23982517D01*
X41026910Y-24198641D01*
X41239110Y-24343631D01*
X41491000Y-24394640D01*
X43091000Y-24394640D01*
X43326317Y-24350362D01*
X43542441Y-24211290D01*
X43687431Y-23999090D01*
X43738440Y-23747200D01*
X43738440Y-20347200D01*
X43733322Y-20320000D01*
X49485355Y-20320000D01*
X49763911Y-20375408D01*
X49940678Y-20493520D01*
X50058792Y-20670290D01*
X50114200Y-20948849D01*
X50114200Y-46208751D01*
X50058792Y-46487310D01*
X49940678Y-46664080D01*
X49763911Y-46782192D01*
X49485355Y-46837600D01*
X24225449Y-46837600D01*
X23946890Y-46782192D01*
X23770120Y-46664078D01*
X23652008Y-46487311D01*
X23596600Y-46208755D01*
X23596600Y-27057350D01*
X25154000Y-27057350D01*
X25154000Y-27697910D01*
X25250673Y-27931299D01*
X25429302Y-28109927D01*
X25662691Y-28206600D01*
X26003250Y-28206600D01*
X26162000Y-28047850D01*
X26162000Y-26898600D01*
X26416000Y-26898600D01*
X26416000Y-28047850D01*
X26574750Y-28206600D01*
X26915309Y-28206600D01*
X27148698Y-28109927D01*
X27327327Y-27931299D01*
X27424000Y-27697910D01*
X27424000Y-27057350D01*
X27265250Y-26898600D01*
X26416000Y-26898600D01*
X26162000Y-26898600D01*
X25312750Y-26898600D01*
X25154000Y-27057350D01*
X23596600Y-27057350D01*
X23596600Y-25845290D01*
X25154000Y-25845290D01*
X25154000Y-26485850D01*
X25312750Y-26644600D01*
X26162000Y-26644600D01*
X26162000Y-25495350D01*
X26416000Y-25495350D01*
X26416000Y-26644600D01*
X27265250Y-26644600D01*
X27424000Y-26485850D01*
X27424000Y-25845290D01*
X27327327Y-25611901D01*
X27148698Y-25433273D01*
X26915309Y-25336600D01*
X26574750Y-25336600D01*
X26416000Y-25495350D01*
X26162000Y-25495350D01*
X26003250Y-25336600D01*
X25662691Y-25336600D01*
X25429302Y-25433273D01*
X25250673Y-25611901D01*
X25154000Y-25845290D01*
X23596600Y-25845290D01*
X23596600Y-25064072D01*
X23786236Y-25102474D01*
X25386236Y-25102474D01*
X25621553Y-25058196D01*
X25735532Y-24984852D01*
X25747909Y-25014732D01*
X25926537Y-25193361D01*
X26159926Y-25290034D01*
X26227486Y-25290034D01*
X26386236Y-25131284D01*
X26386236Y-24972967D01*
X26472146Y-25106475D01*
X26684346Y-25251465D01*
X26712021Y-25257069D01*
X26744986Y-25290034D01*
X26812546Y-25290034D01*
X26832989Y-25281566D01*
X26936236Y-25302474D01*
X27336236Y-25302474D01*
X27466291Y-25278002D01*
X27587136Y-25302474D01*
X27987136Y-25302474D01*
X28116258Y-25278178D01*
X28236236Y-25302474D01*
X28286136Y-25302474D01*
X28286136Y-25582770D01*
X28192569Y-25719710D01*
X28141560Y-25971600D01*
X28141560Y-27571600D01*
X28185838Y-27806917D01*
X28324910Y-28023041D01*
X28537110Y-28168031D01*
X28789000Y-28219040D01*
X29789000Y-28219040D01*
X29873805Y-28203083D01*
X28549388Y-29527500D01*
X27088840Y-29527500D01*
X27088840Y-28905200D01*
X27044562Y-28669883D01*
X26905490Y-28453759D01*
X26693290Y-28308769D01*
X26441400Y-28257760D01*
X24409400Y-28257760D01*
X24174083Y-28302038D01*
X23957959Y-28441110D01*
X23812969Y-28653310D01*
X23761960Y-28905200D01*
X23761960Y-30632400D01*
X23806238Y-30867717D01*
X23945310Y-31083841D01*
X24157510Y-31228831D01*
X24198839Y-31237200D01*
X24180985Y-31249130D01*
X23856129Y-31735311D01*
X23742055Y-32308800D01*
X23856129Y-32882289D01*
X24180985Y-33368470D01*
X24495766Y-33578800D01*
X24180985Y-33789130D01*
X23856129Y-34275311D01*
X23742055Y-34848800D01*
X23856129Y-35422289D01*
X24180985Y-35908470D01*
X24495766Y-36118800D01*
X24180985Y-36329130D01*
X23856129Y-36815311D01*
X23742055Y-37388800D01*
X23856129Y-37962289D01*
X24180985Y-38448470D01*
X24495766Y-38658800D01*
X24180985Y-38869130D01*
X23856129Y-39355311D01*
X23742055Y-39928800D01*
X23856129Y-40502289D01*
X24180985Y-40988470D01*
X24495766Y-41198800D01*
X24180985Y-41409130D01*
X23856129Y-41895311D01*
X23742055Y-42468800D01*
X23856129Y-43042289D01*
X24180985Y-43528470D01*
X24495766Y-43738800D01*
X24180985Y-43949130D01*
X23856129Y-44435311D01*
X23742055Y-45008800D01*
X23856129Y-45582289D01*
X24180985Y-46068470D01*
X24667166Y-46393326D01*
X25240655Y-46507400D01*
X25610145Y-46507400D01*
X26183634Y-46393326D01*
X26669815Y-46068470D01*
X26868712Y-45770800D01*
X33628400Y-45770800D01*
X33920005Y-45712796D01*
X34167215Y-45547615D01*
X34340400Y-45374430D01*
X34537960Y-45571991D01*
X34537960Y-45891800D01*
X34582238Y-46127117D01*
X34721310Y-46343241D01*
X34933510Y-46488231D01*
X35185400Y-46539240D01*
X35985400Y-46539240D01*
X36220717Y-46494962D01*
X36335378Y-46421180D01*
X36433510Y-46488231D01*
X36685400Y-46539240D01*
X37485400Y-46539240D01*
X37720717Y-46494962D01*
X37936841Y-46355890D01*
X37989514Y-46278800D01*
X39021009Y-46278800D01*
X39039310Y-46307241D01*
X39251510Y-46452231D01*
X39503400Y-46503240D01*
X40303400Y-46503240D01*
X40538717Y-46458962D01*
X40653378Y-46385180D01*
X40751510Y-46452231D01*
X41003400Y-46503240D01*
X41803400Y-46503240D01*
X42038717Y-46458962D01*
X42254841Y-46319890D01*
X42399831Y-46107690D01*
X42450840Y-45855800D01*
X42450840Y-45367826D01*
X46678042Y-45367826D01*
X46680691Y-45383591D01*
X46934668Y-45910836D01*
X47371080Y-46300754D01*
X47923487Y-46493984D01*
X48158400Y-46349724D01*
X48158400Y-45135800D01*
X48412400Y-45135800D01*
X48412400Y-46349724D01*
X48647313Y-46493984D01*
X49199720Y-46300754D01*
X49636132Y-45910836D01*
X49890109Y-45383591D01*
X49892758Y-45367826D01*
X49771617Y-45135800D01*
X48412400Y-45135800D01*
X48158400Y-45135800D01*
X46799183Y-45135800D01*
X46678042Y-45367826D01*
X42450840Y-45367826D01*
X42450840Y-45105800D01*
X42406562Y-44870483D01*
X42267490Y-44654359D01*
X42165400Y-44584604D01*
X42165400Y-43277606D01*
X42254841Y-43220052D01*
X42399831Y-43007852D01*
X42450840Y-42755962D01*
X42450840Y-42663274D01*
X42502030Y-42684530D01*
X42891063Y-42684869D01*
X43250612Y-42536307D01*
X43318237Y-42468800D01*
X45937770Y-42468800D01*
X46476585Y-43007616D01*
X46624777Y-43106634D01*
X46723795Y-43172796D01*
X46815523Y-43191042D01*
X47040985Y-43528470D01*
X47350469Y-43735261D01*
X46934668Y-44106764D01*
X46680691Y-44634009D01*
X46678042Y-44649774D01*
X46799183Y-44881800D01*
X48158400Y-44881800D01*
X48158400Y-44861800D01*
X48412400Y-44861800D01*
X48412400Y-44881800D01*
X49771617Y-44881800D01*
X49892758Y-44649774D01*
X49890109Y-44634009D01*
X49636132Y-44106764D01*
X49220331Y-43735261D01*
X49529815Y-43528470D01*
X49854671Y-43042289D01*
X49968745Y-42468800D01*
X49854671Y-41895311D01*
X49529815Y-41409130D01*
X49215034Y-41198800D01*
X49529815Y-40988470D01*
X49854671Y-40502289D01*
X49968745Y-39928800D01*
X49854671Y-39355311D01*
X49529815Y-38869130D01*
X49215034Y-38658800D01*
X49529815Y-38448470D01*
X49854671Y-37962289D01*
X49968745Y-37388800D01*
X49854671Y-36815311D01*
X49529815Y-36329130D01*
X49215034Y-36118800D01*
X49529815Y-35908470D01*
X49854671Y-35422289D01*
X49968745Y-34848800D01*
X49854671Y-34275311D01*
X49529815Y-33789130D01*
X49215034Y-33578800D01*
X49529815Y-33368470D01*
X49854671Y-32882289D01*
X49968745Y-32308800D01*
X49854671Y-31735311D01*
X49529815Y-31249130D01*
X49515487Y-31239557D01*
X49536717Y-31235562D01*
X49752841Y-31096490D01*
X49897831Y-30884290D01*
X49948840Y-30632400D01*
X49948840Y-28905200D01*
X49904562Y-28669883D01*
X49765490Y-28453759D01*
X49553290Y-28308769D01*
X49301400Y-28257760D01*
X47269400Y-28257760D01*
X47034083Y-28302038D01*
X46817959Y-28441110D01*
X46672969Y-28653310D01*
X46621960Y-28905200D01*
X46621960Y-28968700D01*
X43332929Y-28968700D01*
X43051378Y-28687149D01*
X42791807Y-28513709D01*
X42485622Y-28452805D01*
X41038440Y-28452805D01*
X41038440Y-25847200D01*
X40994162Y-25611883D01*
X40855090Y-25395759D01*
X40642890Y-25250769D01*
X40391000Y-25199760D01*
X39391000Y-25199760D01*
X39155683Y-25244038D01*
X38939559Y-25383110D01*
X38893031Y-25451206D01*
X38750698Y-25308873D01*
X38517309Y-25212200D01*
X38176750Y-25212200D01*
X38018000Y-25370950D01*
X38018000Y-27470200D01*
X38038000Y-27470200D01*
X38038000Y-27724200D01*
X38018000Y-27724200D01*
X38018000Y-29823450D01*
X38176750Y-29982200D01*
X38384919Y-29982200D01*
X38213959Y-30092210D01*
X38068969Y-30304410D01*
X38041939Y-30437888D01*
X37895200Y-30408700D01*
X36965005Y-30408700D01*
X36954490Y-30392359D01*
X36742290Y-30247369D01*
X36551600Y-30208753D01*
X36551600Y-29871400D01*
X36497463Y-29599236D01*
X36468616Y-29556063D01*
X36343295Y-29368506D01*
X36309325Y-29334536D01*
X36309469Y-29168737D01*
X36160907Y-28809188D01*
X35886059Y-28533860D01*
X35526770Y-28384670D01*
X35137737Y-28384331D01*
X34778188Y-28532893D01*
X34641796Y-28669048D01*
X33855698Y-27882950D01*
X36756000Y-27882950D01*
X36756000Y-29473510D01*
X36852673Y-29706899D01*
X37031302Y-29885527D01*
X37264691Y-29982200D01*
X37605250Y-29982200D01*
X37764000Y-29823450D01*
X37764000Y-27724200D01*
X36914750Y-27724200D01*
X36756000Y-27882950D01*
X33855698Y-27882950D01*
X33221392Y-27248644D01*
X32961821Y-27075204D01*
X32655636Y-27014300D01*
X32307627Y-27014300D01*
X32340431Y-26966290D01*
X32391440Y-26714400D01*
X32391440Y-25914400D01*
X32355029Y-25720890D01*
X36756000Y-25720890D01*
X36756000Y-27311450D01*
X36914750Y-27470200D01*
X37764000Y-27470200D01*
X37764000Y-25370950D01*
X37605250Y-25212200D01*
X37264691Y-25212200D01*
X37031302Y-25308873D01*
X36852673Y-25487501D01*
X36756000Y-25720890D01*
X32355029Y-25720890D01*
X32347162Y-25679083D01*
X32208090Y-25462959D01*
X31995890Y-25317969D01*
X31744000Y-25266960D01*
X30994000Y-25266960D01*
X30758683Y-25311238D01*
X30542559Y-25450310D01*
X30498837Y-25514300D01*
X30244515Y-25514300D01*
X30040890Y-25375169D01*
X29886336Y-25343871D01*
X29886336Y-25018661D01*
X29934346Y-25051465D01*
X30186236Y-25102474D01*
X31786236Y-25102474D01*
X32021553Y-25058196D01*
X32237677Y-24919124D01*
X32382667Y-24706924D01*
X32433676Y-24455034D01*
X32433676Y-23055034D01*
X32389398Y-22819717D01*
X32250326Y-22603593D01*
X32038126Y-22458603D01*
X31863831Y-22423307D01*
X32034893Y-22352626D01*
X32382607Y-22005519D01*
X32571021Y-21551768D01*
X32571450Y-21060455D01*
X32383828Y-20606377D01*
X32097951Y-20320000D01*
X34049068Y-20320000D01*
X34043560Y-20347200D01*
G36*
X33192400Y-36723800D02*
X33212400Y-36723800D01*
X33212400Y-36973800D01*
X33192400Y-36973800D01*
X33192400Y-37575050D01*
X33351150Y-37733800D01*
X33491709Y-37733800D01*
X33578400Y-37697891D01*
X33578400Y-43981170D01*
X33312770Y-44246800D01*
X26868712Y-44246800D01*
X26669815Y-43949130D01*
X26355034Y-43738800D01*
X26669815Y-43528470D01*
X26994671Y-43042289D01*
X27108745Y-42468800D01*
X26994671Y-41895311D01*
X26669815Y-41409130D01*
X26355034Y-41198800D01*
X26669815Y-40988470D01*
X26868712Y-40690800D01*
X29389400Y-40690800D01*
X29681005Y-40632796D01*
X29928215Y-40467615D01*
X32504215Y-37891615D01*
X32616043Y-37724253D01*
X32639091Y-37733800D01*
X32779650Y-37733800D01*
X32938400Y-37575050D01*
X32938400Y-36973800D01*
X32918400Y-36973800D01*
X32918400Y-36723800D01*
X32938400Y-36723800D01*
X32938400Y-36701800D01*
X33192400Y-36701800D01*
X33192400Y-36723800D01*
X33192400Y-36723800D01*
G37*
X33192400Y-36723800D02*
X33212400Y-36723800D01*
X33212400Y-36973800D01*
X33192400Y-36973800D01*
X33192400Y-37575050D01*
X33351150Y-37733800D01*
X33491709Y-37733800D01*
X33578400Y-37697891D01*
X33578400Y-43981170D01*
X33312770Y-44246800D01*
X26868712Y-44246800D01*
X26669815Y-43949130D01*
X26355034Y-43738800D01*
X26669815Y-43528470D01*
X26994671Y-43042289D01*
X27108745Y-42468800D01*
X26994671Y-41895311D01*
X26669815Y-41409130D01*
X26355034Y-41198800D01*
X26669815Y-40988470D01*
X26868712Y-40690800D01*
X29389400Y-40690800D01*
X29681005Y-40632796D01*
X29928215Y-40467615D01*
X32504215Y-37891615D01*
X32616043Y-37724253D01*
X32639091Y-37733800D01*
X32779650Y-37733800D01*
X32938400Y-37575050D01*
X32938400Y-36973800D01*
X32918400Y-36973800D01*
X32918400Y-36723800D01*
X32938400Y-36723800D01*
X32938400Y-36701800D01*
X33192400Y-36701800D01*
X33192400Y-36723800D01*
G36*
X47040985Y-35908470D02*
X47355766Y-36118800D01*
X47040985Y-36329130D01*
X46842088Y-36626800D01*
X43415411Y-36626800D01*
X43123806Y-36684804D01*
X42876595Y-36849985D01*
X42614639Y-37111942D01*
X41775284Y-37111942D01*
X41878727Y-37008498D01*
X41975400Y-36775109D01*
X41975400Y-36534550D01*
X41816650Y-36375800D01*
X41092400Y-36375800D01*
X41092400Y-36395800D01*
X40838400Y-36395800D01*
X40838400Y-36375800D01*
X40114150Y-36375800D01*
X40015400Y-36474550D01*
X39966650Y-36425800D01*
X39242400Y-36425800D01*
X39242400Y-36445800D01*
X38988400Y-36445800D01*
X38988400Y-36425800D01*
X38968400Y-36425800D01*
X38968400Y-36171800D01*
X38988400Y-36171800D01*
X38988400Y-36151800D01*
X39242400Y-36151800D01*
X39242400Y-36171800D01*
X39966650Y-36171800D01*
X40065400Y-36073050D01*
X40114150Y-36121800D01*
X40838400Y-36121800D01*
X40838400Y-36101800D01*
X41092400Y-36101800D01*
X41092400Y-36121800D01*
X41816650Y-36121800D01*
X41975400Y-35963050D01*
X41975400Y-35722491D01*
X41929136Y-35610800D01*
X46842088Y-35610800D01*
X47040985Y-35908470D01*
X47040985Y-35908470D01*
G37*
X47040985Y-35908470D02*
X47355766Y-36118800D01*
X47040985Y-36329130D01*
X46842088Y-36626800D01*
X43415411Y-36626800D01*
X43123806Y-36684804D01*
X42876595Y-36849985D01*
X42614639Y-37111942D01*
X41775284Y-37111942D01*
X41878727Y-37008498D01*
X41975400Y-36775109D01*
X41975400Y-36534550D01*
X41816650Y-36375800D01*
X41092400Y-36375800D01*
X41092400Y-36395800D01*
X40838400Y-36395800D01*
X40838400Y-36375800D01*
X40114150Y-36375800D01*
X40015400Y-36474550D01*
X39966650Y-36425800D01*
X39242400Y-36425800D01*
X39242400Y-36445800D01*
X38988400Y-36445800D01*
X38988400Y-36425800D01*
X38968400Y-36425800D01*
X38968400Y-36171800D01*
X38988400Y-36171800D01*
X38988400Y-36151800D01*
X39242400Y-36151800D01*
X39242400Y-36171800D01*
X39966650Y-36171800D01*
X40065400Y-36073050D01*
X40114150Y-36121800D01*
X40838400Y-36121800D01*
X40838400Y-36101800D01*
X41092400Y-36101800D01*
X41092400Y-36121800D01*
X41816650Y-36121800D01*
X41975400Y-35963050D01*
X41975400Y-35722491D01*
X41929136Y-35610800D01*
X46842088Y-35610800D01*
X47040985Y-35908470D01*
G36*
X31151322Y-32552249D02*
X31299884Y-32911798D01*
X31318022Y-32929967D01*
X31270573Y-33044236D01*
X31270234Y-33433269D01*
X31394400Y-33733775D01*
X31394400Y-34165800D01*
X31414400Y-34165800D01*
X31414400Y-34419800D01*
X31394400Y-34419800D01*
X31394400Y-34439800D01*
X31140400Y-34439800D01*
X31140400Y-34419800D01*
X29991150Y-34419800D01*
X29832400Y-34578550D01*
X29832400Y-34919109D01*
X29929073Y-35152498D01*
X30107701Y-35331127D01*
X30341090Y-35427800D01*
X30981650Y-35427800D01*
X31140398Y-35269052D01*
X31140398Y-35402364D01*
X29915962Y-36626800D01*
X26868712Y-36626800D01*
X26669815Y-36329130D01*
X26355034Y-36118800D01*
X26669815Y-35908470D01*
X26994671Y-35422289D01*
X27108745Y-34848800D01*
X26994671Y-34275311D01*
X26669815Y-33789130D01*
X26486273Y-33666491D01*
X29832400Y-33666491D01*
X29832400Y-34007050D01*
X29991150Y-34165800D01*
X31140400Y-34165800D01*
X31140400Y-33316550D01*
X30981650Y-33157800D01*
X30341090Y-33157800D01*
X30107701Y-33254473D01*
X29929073Y-33433102D01*
X29832400Y-33666491D01*
X26486273Y-33666491D01*
X26355034Y-33578800D01*
X26669815Y-33368470D01*
X26783853Y-33197800D01*
X29646600Y-33197800D01*
X29986806Y-33130129D01*
X30275218Y-32937418D01*
X30772396Y-32440240D01*
X31151420Y-32440240D01*
X31151322Y-32552249D01*
X31151322Y-32552249D01*
G37*
X31151322Y-32552249D02*
X31299884Y-32911798D01*
X31318022Y-32929967D01*
X31270573Y-33044236D01*
X31270234Y-33433269D01*
X31394400Y-33733775D01*
X31394400Y-34165800D01*
X31414400Y-34165800D01*
X31414400Y-34419800D01*
X31394400Y-34419800D01*
X31394400Y-34439800D01*
X31140400Y-34439800D01*
X31140400Y-34419800D01*
X29991150Y-34419800D01*
X29832400Y-34578550D01*
X29832400Y-34919109D01*
X29929073Y-35152498D01*
X30107701Y-35331127D01*
X30341090Y-35427800D01*
X30981650Y-35427800D01*
X31140398Y-35269052D01*
X31140398Y-35402364D01*
X29915962Y-36626800D01*
X26868712Y-36626800D01*
X26669815Y-36329130D01*
X26355034Y-36118800D01*
X26669815Y-35908470D01*
X26994671Y-35422289D01*
X27108745Y-34848800D01*
X26994671Y-34275311D01*
X26669815Y-33789130D01*
X26486273Y-33666491D01*
X29832400Y-33666491D01*
X29832400Y-34007050D01*
X29991150Y-34165800D01*
X31140400Y-34165800D01*
X31140400Y-33316550D01*
X30981650Y-33157800D01*
X30341090Y-33157800D01*
X30107701Y-33254473D01*
X29929073Y-33433102D01*
X29832400Y-33666491D01*
X26486273Y-33666491D01*
X26355034Y-33578800D01*
X26669815Y-33368470D01*
X26783853Y-33197800D01*
X29646600Y-33197800D01*
X29986806Y-33130129D01*
X30275218Y-32937418D01*
X30772396Y-32440240D01*
X31151420Y-32440240D01*
X31151322Y-32552249D01*
G36*
X37432400Y-34800050D02*
X37591150Y-34958800D01*
X37796709Y-34958800D01*
X37977767Y-34883803D01*
X37078585Y-35782985D01*
X37035152Y-35847987D01*
X37125400Y-35630109D01*
X37125400Y-35424550D01*
X36966650Y-35265800D01*
X36637840Y-35265800D01*
X36637840Y-35058800D01*
X36716709Y-35058800D01*
X36830177Y-35011800D01*
X36966650Y-35011800D01*
X37178400Y-34800050D01*
X37178400Y-34663578D01*
X37225400Y-34550110D01*
X37225400Y-34471240D01*
X37432400Y-34471240D01*
X37432400Y-34800050D01*
X37432400Y-34800050D01*
G37*
X37432400Y-34800050D02*
X37591150Y-34958800D01*
X37796709Y-34958800D01*
X37977767Y-34883803D01*
X37078585Y-35782985D01*
X37035152Y-35847987D01*
X37125400Y-35630109D01*
X37125400Y-35424550D01*
X36966650Y-35265800D01*
X36637840Y-35265800D01*
X36637840Y-35058800D01*
X36716709Y-35058800D01*
X36830177Y-35011800D01*
X36966650Y-35011800D01*
X37178400Y-34800050D01*
X37178400Y-34663578D01*
X37225400Y-34550110D01*
X37225400Y-34471240D01*
X37432400Y-34471240D01*
X37432400Y-34800050D01*
G36*
X41127073Y-30196601D02*
X41030400Y-30429990D01*
X41030400Y-31070550D01*
X41189150Y-31229300D01*
X42038400Y-31229300D01*
X42038400Y-31209300D01*
X42292400Y-31209300D01*
X42292400Y-31229300D01*
X43141650Y-31229300D01*
X43300400Y-31070550D01*
X43300400Y-30568900D01*
X46621960Y-30568900D01*
X46621960Y-30632400D01*
X46666238Y-30867717D01*
X46805310Y-31083841D01*
X47017510Y-31228831D01*
X47058839Y-31237200D01*
X47040985Y-31249130D01*
X46716129Y-31735311D01*
X46602055Y-32308800D01*
X46716129Y-32882289D01*
X47040985Y-33368470D01*
X47355766Y-33578800D01*
X47040985Y-33789130D01*
X46842088Y-34086800D01*
X41926392Y-34086800D01*
X41804490Y-33897359D01*
X41672451Y-33807140D01*
X41622463Y-33555836D01*
X41468295Y-33325106D01*
X40814094Y-32670906D01*
X40583365Y-32516737D01*
X40311200Y-32462600D01*
X40224654Y-32462600D01*
X40261831Y-32408190D01*
X40312840Y-32156300D01*
X40312840Y-31642050D01*
X41030400Y-31642050D01*
X41030400Y-32282610D01*
X41127073Y-32515999D01*
X41305702Y-32694627D01*
X41539091Y-32791300D01*
X41879650Y-32791300D01*
X42038400Y-32632550D01*
X42038400Y-31483300D01*
X42292400Y-31483300D01*
X42292400Y-32632550D01*
X42451150Y-32791300D01*
X42791709Y-32791300D01*
X43025098Y-32694627D01*
X43203727Y-32515999D01*
X43300400Y-32282610D01*
X43300400Y-31642050D01*
X43141650Y-31483300D01*
X42292400Y-31483300D01*
X42038400Y-31483300D01*
X41189150Y-31483300D01*
X41030400Y-31642050D01*
X40312840Y-31642050D01*
X40312840Y-31442096D01*
X40519618Y-31235318D01*
X40612380Y-31096490D01*
X40712329Y-30946906D01*
X40780000Y-30606700D01*
X40780000Y-30053005D01*
X41270670Y-30053005D01*
X41127073Y-30196601D01*
X41127073Y-30196601D01*
G37*
X41127073Y-30196601D02*
X41030400Y-30429990D01*
X41030400Y-31070550D01*
X41189150Y-31229300D01*
X42038400Y-31229300D01*
X42038400Y-31209300D01*
X42292400Y-31209300D01*
X42292400Y-31229300D01*
X43141650Y-31229300D01*
X43300400Y-31070550D01*
X43300400Y-30568900D01*
X46621960Y-30568900D01*
X46621960Y-30632400D01*
X46666238Y-30867717D01*
X46805310Y-31083841D01*
X47017510Y-31228831D01*
X47058839Y-31237200D01*
X47040985Y-31249130D01*
X46716129Y-31735311D01*
X46602055Y-32308800D01*
X46716129Y-32882289D01*
X47040985Y-33368470D01*
X47355766Y-33578800D01*
X47040985Y-33789130D01*
X46842088Y-34086800D01*
X41926392Y-34086800D01*
X41804490Y-33897359D01*
X41672451Y-33807140D01*
X41622463Y-33555836D01*
X41468295Y-33325106D01*
X40814094Y-32670906D01*
X40583365Y-32516737D01*
X40311200Y-32462600D01*
X40224654Y-32462600D01*
X40261831Y-32408190D01*
X40312840Y-32156300D01*
X40312840Y-31642050D01*
X41030400Y-31642050D01*
X41030400Y-32282610D01*
X41127073Y-32515999D01*
X41305702Y-32694627D01*
X41539091Y-32791300D01*
X41879650Y-32791300D01*
X42038400Y-32632550D01*
X42038400Y-31483300D01*
X42292400Y-31483300D01*
X42292400Y-32632550D01*
X42451150Y-32791300D01*
X42791709Y-32791300D01*
X43025098Y-32694627D01*
X43203727Y-32515999D01*
X43300400Y-32282610D01*
X43300400Y-31642050D01*
X43141650Y-31483300D01*
X42292400Y-31483300D01*
X42038400Y-31483300D01*
X41189150Y-31483300D01*
X41030400Y-31642050D01*
X40312840Y-31642050D01*
X40312840Y-31442096D01*
X40519618Y-31235318D01*
X40612380Y-31096490D01*
X40712329Y-30946906D01*
X40780000Y-30606700D01*
X40780000Y-30053005D01*
X41270670Y-30053005D01*
X41127073Y-30196601D01*
G36*
X34842400Y-32421800D02*
X35838400Y-32421800D01*
X35838400Y-32401800D01*
X36092400Y-32401800D01*
X36092400Y-32421800D01*
X36112400Y-32421800D01*
X36112400Y-32675800D01*
X36092400Y-32675800D01*
X36092400Y-33671800D01*
X36112400Y-33671800D01*
X36112400Y-33925800D01*
X36092400Y-33925800D01*
X36092400Y-33945800D01*
X35838400Y-33945800D01*
X35838400Y-33925800D01*
X34842400Y-33925800D01*
X34842400Y-33945800D01*
X34588400Y-33945800D01*
X34588400Y-33925800D01*
X34568400Y-33925800D01*
X34568400Y-33671800D01*
X34588400Y-33671800D01*
X34588400Y-32834550D01*
X34705400Y-32834550D01*
X34705400Y-33513050D01*
X34842400Y-33650050D01*
X34842400Y-33671800D01*
X34864150Y-33671800D01*
X35001150Y-33808800D01*
X35679650Y-33808800D01*
X35816650Y-33671800D01*
X35838400Y-33671800D01*
X35838400Y-33650050D01*
X35975400Y-33513050D01*
X35975400Y-32834550D01*
X35838400Y-32697550D01*
X35838400Y-32675800D01*
X35816650Y-32675800D01*
X35679650Y-32538800D01*
X35001150Y-32538800D01*
X34864150Y-32675800D01*
X34842400Y-32675800D01*
X34842400Y-32697550D01*
X34705400Y-32834550D01*
X34588400Y-32834550D01*
X34588400Y-32675800D01*
X34568400Y-32675800D01*
X34568400Y-32421800D01*
X34588400Y-32421800D01*
X34588400Y-32401800D01*
X34842400Y-32401800D01*
X34842400Y-32421800D01*
X34842400Y-32421800D01*
G37*
X34842400Y-32421800D02*
X35838400Y-32421800D01*
X35838400Y-32401800D01*
X36092400Y-32401800D01*
X36092400Y-32421800D01*
X36112400Y-32421800D01*
X36112400Y-32675800D01*
X36092400Y-32675800D01*
X36092400Y-33671800D01*
X36112400Y-33671800D01*
X36112400Y-33925800D01*
X36092400Y-33925800D01*
X36092400Y-33945800D01*
X35838400Y-33945800D01*
X35838400Y-33925800D01*
X34842400Y-33925800D01*
X34842400Y-33945800D01*
X34588400Y-33945800D01*
X34588400Y-33925800D01*
X34568400Y-33925800D01*
X34568400Y-33671800D01*
X34588400Y-33671800D01*
X34588400Y-32834550D01*
X34705400Y-32834550D01*
X34705400Y-33513050D01*
X34842400Y-33650050D01*
X34842400Y-33671800D01*
X34864150Y-33671800D01*
X35001150Y-33808800D01*
X35679650Y-33808800D01*
X35816650Y-33671800D01*
X35838400Y-33671800D01*
X35838400Y-33650050D01*
X35975400Y-33513050D01*
X35975400Y-32834550D01*
X35838400Y-32697550D01*
X35838400Y-32675800D01*
X35816650Y-32675800D01*
X35679650Y-32538800D01*
X35001150Y-32538800D01*
X34864150Y-32675800D01*
X34842400Y-32675800D01*
X34842400Y-32697550D01*
X34705400Y-32834550D01*
X34588400Y-32834550D01*
X34588400Y-32675800D01*
X34568400Y-32675800D01*
X34568400Y-32421800D01*
X34588400Y-32421800D01*
X34588400Y-32401800D01*
X34842400Y-32401800D01*
X34842400Y-32421800D01*
D32*
X29806900Y-33769300D03*
X42570400Y-37388800D03*
X31013400Y-33324800D03*
X36513510Y-36118800D03*
X37816453Y-29908490D03*
X43661720Y-31686490D03*
X33667290Y-37807910D03*
X42119861Y-30014906D03*
X25069800Y-26111200D03*
X40055800Y-36322000D03*
X37007800Y-34773800D03*
X37871400Y-25044400D03*
X36703000Y-27635200D03*
X36343498Y-33203338D03*
X34337302Y-33170742D03*
X35368381Y-34176898D03*
X35350638Y-32170702D03*
X35365400Y-33148800D03*
X41403400Y-38722300D03*
X32129391Y-32358586D03*
X33858200Y-30124400D03*
X35839400Y-40436800D03*
X42697400Y-41706800D03*
X35585400Y-43230800D03*
X32248303Y-33239606D03*
X42697400Y-39928800D03*
X36347400Y-37896800D03*
X35331400Y-29362400D03*
D33*
X31336236Y-21305034D03*
X24236236Y-21305034D03*
X25425400Y-29768800D03*
X25425400Y-32308800D03*
X25425400Y-34848800D03*
X25425400Y-37388800D03*
X25425400Y-39928800D03*
X25425400Y-42468800D03*
X25425400Y-45008800D03*
X48285400Y-29768800D03*
X48285400Y-32308800D03*
X48285400Y-34848800D03*
X48285400Y-37388800D03*
X48285400Y-39928800D03*
X48285400Y-42468800D03*
X48285400Y-45008800D03*
M02*
