%TF.GenerationSoftware,KiCad,Pcbnew,4.0.5-e0-6337~49~ubuntu16.04.1*%
%TF.CreationDate,2017-07-20T10:54:41-07:00*%
%TF.ProjectId,mcp73871-battery-mgmt-breakout,6D637037333837312D62617474657279,1.0*%
%TF.FileFunction,Soldermask,Top*%
%FSLAX46Y46*%
G04 Gerber Fmt 4.6, Leading zero omitted, Abs format (unit mm)*
G04 Created by KiCad (PCBNEW 4.0.5-e0-6337~49~ubuntu16.04.1) date Thu Jul 20 10:54:41 2017*
%MOMM*%
%LPD*%
G01*
G04 APERTURE LIST*
%ADD10C,0.350000*%
G04 APERTURE END LIST*
D10*
G36*
X128976200Y-100019200D02*
X128023800Y-100019200D01*
X128023800Y-99116800D01*
X128976200Y-99116800D01*
X128976200Y-100019200D01*
X128976200Y-100019200D01*
G37*
G36*
X127476200Y-100019200D02*
X126523800Y-100019200D01*
X126523800Y-99116800D01*
X127476200Y-99116800D01*
X127476200Y-100019200D01*
X127476200Y-100019200D01*
G37*
G36*
X139868749Y-98120277D02*
X139868754Y-98120278D01*
X139870807Y-98120292D01*
X140053080Y-98140737D01*
X140227912Y-98196197D01*
X140388641Y-98284558D01*
X140529146Y-98402456D01*
X140644076Y-98545400D01*
X140729052Y-98707945D01*
X140780839Y-98883899D01*
X140780843Y-98883940D01*
X140780844Y-98883944D01*
X140797463Y-99066558D01*
X140792182Y-99116800D01*
X140778290Y-99248973D01*
X140724052Y-99424187D01*
X140636815Y-99585529D01*
X140519900Y-99726855D01*
X140377762Y-99842779D01*
X140215815Y-99928888D01*
X140040226Y-99981902D01*
X139857685Y-99999800D01*
X139542283Y-99999800D01*
X139531251Y-99999723D01*
X139531246Y-99999722D01*
X139529193Y-99999708D01*
X139346920Y-99979263D01*
X139172088Y-99923803D01*
X139011359Y-99835442D01*
X138870854Y-99717544D01*
X138755924Y-99574600D01*
X138670948Y-99412055D01*
X138619161Y-99236101D01*
X138619157Y-99236060D01*
X138619156Y-99236056D01*
X138602537Y-99053442D01*
X138621705Y-98871074D01*
X138621710Y-98871027D01*
X138675948Y-98695813D01*
X138763185Y-98534471D01*
X138880100Y-98393145D01*
X139022238Y-98277221D01*
X139184185Y-98191112D01*
X139359774Y-98138098D01*
X139542315Y-98120200D01*
X139857717Y-98120200D01*
X139868749Y-98120277D01*
X139868749Y-98120277D01*
G37*
G36*
X117008749Y-98120277D02*
X117008754Y-98120278D01*
X117010807Y-98120292D01*
X117193080Y-98140737D01*
X117367912Y-98196197D01*
X117528641Y-98284558D01*
X117669146Y-98402456D01*
X117784076Y-98545400D01*
X117869052Y-98707945D01*
X117920839Y-98883899D01*
X117920843Y-98883940D01*
X117920844Y-98883944D01*
X117937463Y-99066558D01*
X117932182Y-99116800D01*
X117918290Y-99248973D01*
X117864052Y-99424187D01*
X117776815Y-99585529D01*
X117659900Y-99726855D01*
X117517762Y-99842779D01*
X117355815Y-99928888D01*
X117180226Y-99981902D01*
X116997685Y-99999800D01*
X116682283Y-99999800D01*
X116671251Y-99999723D01*
X116671246Y-99999722D01*
X116669193Y-99999708D01*
X116486920Y-99979263D01*
X116312088Y-99923803D01*
X116151359Y-99835442D01*
X116010854Y-99717544D01*
X115895924Y-99574600D01*
X115810948Y-99412055D01*
X115759161Y-99236101D01*
X115759157Y-99236060D01*
X115759156Y-99236056D01*
X115742537Y-99053442D01*
X115761705Y-98871074D01*
X115761710Y-98871027D01*
X115815948Y-98695813D01*
X115903185Y-98534471D01*
X116020100Y-98393145D01*
X116162238Y-98277221D01*
X116324185Y-98191112D01*
X116499774Y-98138098D01*
X116682315Y-98120200D01*
X116997717Y-98120200D01*
X117008749Y-98120277D01*
X117008749Y-98120277D01*
G37*
G36*
X131794200Y-99983200D02*
X130841800Y-99983200D01*
X130841800Y-99080800D01*
X131794200Y-99080800D01*
X131794200Y-99983200D01*
X131794200Y-99983200D01*
G37*
G36*
X133294200Y-99983200D02*
X132341800Y-99983200D01*
X132341800Y-99080800D01*
X133294200Y-99080800D01*
X133294200Y-99983200D01*
X133294200Y-99983200D01*
G37*
G36*
X139868749Y-95580277D02*
X139868754Y-95580278D01*
X139870807Y-95580292D01*
X140053080Y-95600737D01*
X140227912Y-95656197D01*
X140388641Y-95744558D01*
X140529146Y-95862456D01*
X140644076Y-96005400D01*
X140729052Y-96167945D01*
X140780839Y-96343899D01*
X140780843Y-96343940D01*
X140780844Y-96343944D01*
X140797463Y-96526558D01*
X140779648Y-96696056D01*
X140778290Y-96708973D01*
X140724052Y-96884187D01*
X140636815Y-97045529D01*
X140519900Y-97186855D01*
X140377762Y-97302779D01*
X140215815Y-97388888D01*
X140040226Y-97441902D01*
X139857685Y-97459800D01*
X139542283Y-97459800D01*
X139531251Y-97459723D01*
X139531246Y-97459722D01*
X139529193Y-97459708D01*
X139346920Y-97439263D01*
X139172088Y-97383803D01*
X139011359Y-97295442D01*
X138870854Y-97177544D01*
X138755924Y-97034600D01*
X138670948Y-96872055D01*
X138619161Y-96696101D01*
X138619157Y-96696060D01*
X138619156Y-96696056D01*
X138602537Y-96513442D01*
X138621705Y-96331074D01*
X138621710Y-96331027D01*
X138675948Y-96155813D01*
X138763185Y-95994471D01*
X138880100Y-95853145D01*
X139022238Y-95737221D01*
X139184185Y-95651112D01*
X139359774Y-95598098D01*
X139542315Y-95580200D01*
X139857717Y-95580200D01*
X139868749Y-95580277D01*
X139868749Y-95580277D01*
G37*
G36*
X117008749Y-95580277D02*
X117008754Y-95580278D01*
X117010807Y-95580292D01*
X117193080Y-95600737D01*
X117367912Y-95656197D01*
X117528641Y-95744558D01*
X117669146Y-95862456D01*
X117784076Y-96005400D01*
X117869052Y-96167945D01*
X117920839Y-96343899D01*
X117920843Y-96343940D01*
X117920844Y-96343944D01*
X117937463Y-96526558D01*
X117919648Y-96696056D01*
X117918290Y-96708973D01*
X117864052Y-96884187D01*
X117776815Y-97045529D01*
X117659900Y-97186855D01*
X117517762Y-97302779D01*
X117355815Y-97388888D01*
X117180226Y-97441902D01*
X116997685Y-97459800D01*
X116682283Y-97459800D01*
X116671251Y-97459723D01*
X116671246Y-97459722D01*
X116669193Y-97459708D01*
X116486920Y-97439263D01*
X116312088Y-97383803D01*
X116151359Y-97295442D01*
X116010854Y-97177544D01*
X115895924Y-97034600D01*
X115810948Y-96872055D01*
X115759161Y-96696101D01*
X115759157Y-96696060D01*
X115759156Y-96696056D01*
X115742537Y-96513442D01*
X115761705Y-96331074D01*
X115761710Y-96331027D01*
X115815948Y-96155813D01*
X115903185Y-95994471D01*
X116020100Y-95853145D01*
X116162238Y-95737221D01*
X116324185Y-95651112D01*
X116499774Y-95598098D01*
X116682315Y-95580200D01*
X116997717Y-95580200D01*
X117008749Y-95580277D01*
X117008749Y-95580277D01*
G37*
G36*
X127436328Y-96883362D02*
X126483928Y-96883362D01*
X126483928Y-95980962D01*
X127436328Y-95980962D01*
X127436328Y-96883362D01*
X127436328Y-96883362D01*
G37*
G36*
X128936328Y-96883362D02*
X127983928Y-96883362D01*
X127983928Y-95980962D01*
X128936328Y-95980962D01*
X128936328Y-96883362D01*
X128936328Y-96883362D01*
G37*
G36*
X131794200Y-96883362D02*
X130841800Y-96883362D01*
X130841800Y-95980962D01*
X131794200Y-95980962D01*
X131794200Y-96883362D01*
X131794200Y-96883362D01*
G37*
G36*
X133294200Y-96883362D02*
X132341800Y-96883362D01*
X132341800Y-95980962D01*
X133294200Y-95980962D01*
X133294200Y-96883362D01*
X133294200Y-96883362D01*
G37*
G36*
X139868749Y-93040277D02*
X139868754Y-93040278D01*
X139870807Y-93040292D01*
X140053080Y-93060737D01*
X140227912Y-93116197D01*
X140388641Y-93204558D01*
X140529146Y-93322456D01*
X140644076Y-93465400D01*
X140729052Y-93627945D01*
X140780839Y-93803899D01*
X140780843Y-93803940D01*
X140780844Y-93803944D01*
X140797463Y-93986558D01*
X140779648Y-94156056D01*
X140778290Y-94168973D01*
X140724052Y-94344187D01*
X140636815Y-94505529D01*
X140519900Y-94646855D01*
X140377762Y-94762779D01*
X140215815Y-94848888D01*
X140040226Y-94901902D01*
X139857685Y-94919800D01*
X139542283Y-94919800D01*
X139531251Y-94919723D01*
X139531246Y-94919722D01*
X139529193Y-94919708D01*
X139346920Y-94899263D01*
X139172088Y-94843803D01*
X139011359Y-94755442D01*
X138870854Y-94637544D01*
X138755924Y-94494600D01*
X138670948Y-94332055D01*
X138619161Y-94156101D01*
X138619157Y-94156060D01*
X138619156Y-94156056D01*
X138602537Y-93973442D01*
X138621705Y-93791074D01*
X138621710Y-93791027D01*
X138675948Y-93615813D01*
X138763185Y-93454471D01*
X138880100Y-93313145D01*
X139022238Y-93197221D01*
X139184185Y-93111112D01*
X139359774Y-93058098D01*
X139542315Y-93040200D01*
X139857717Y-93040200D01*
X139868749Y-93040277D01*
X139868749Y-93040277D01*
G37*
G36*
X117008749Y-93040277D02*
X117008754Y-93040278D01*
X117010807Y-93040292D01*
X117193080Y-93060737D01*
X117367912Y-93116197D01*
X117528641Y-93204558D01*
X117669146Y-93322456D01*
X117784076Y-93465400D01*
X117869052Y-93627945D01*
X117920839Y-93803899D01*
X117920843Y-93803940D01*
X117920844Y-93803944D01*
X117937463Y-93986558D01*
X117919648Y-94156056D01*
X117918290Y-94168973D01*
X117864052Y-94344187D01*
X117776815Y-94505529D01*
X117659900Y-94646855D01*
X117517762Y-94762779D01*
X117355815Y-94848888D01*
X117180226Y-94901902D01*
X116997685Y-94919800D01*
X116682283Y-94919800D01*
X116671251Y-94919723D01*
X116671246Y-94919722D01*
X116669193Y-94919708D01*
X116486920Y-94899263D01*
X116312088Y-94843803D01*
X116151359Y-94755442D01*
X116010854Y-94637544D01*
X115895924Y-94494600D01*
X115810948Y-94332055D01*
X115759161Y-94156101D01*
X115759157Y-94156060D01*
X115759156Y-94156056D01*
X115742537Y-93973442D01*
X115761705Y-93791074D01*
X115761710Y-93791027D01*
X115815948Y-93615813D01*
X115903185Y-93454471D01*
X116020100Y-93313145D01*
X116162238Y-93197221D01*
X116324185Y-93111112D01*
X116499774Y-93058098D01*
X116682315Y-93040200D01*
X116997717Y-93040200D01*
X117008749Y-93040277D01*
X117008749Y-93040277D01*
G37*
G36*
X131794200Y-93844690D02*
X130841800Y-93844690D01*
X130841800Y-92942290D01*
X131794200Y-92942290D01*
X131794200Y-93844690D01*
X131794200Y-93844690D01*
G37*
G36*
X133294200Y-93844690D02*
X132341800Y-93844690D01*
X132341800Y-92942290D01*
X133294200Y-92942290D01*
X133294200Y-93844690D01*
X133294200Y-93844690D01*
G37*
G36*
X128976200Y-93794690D02*
X128023800Y-93794690D01*
X128023800Y-92892290D01*
X128976200Y-92892290D01*
X128976200Y-93794690D01*
X128976200Y-93794690D01*
G37*
G36*
X127476200Y-93794690D02*
X126523800Y-93794690D01*
X126523800Y-92892290D01*
X127476200Y-92892290D01*
X127476200Y-93794690D01*
X127476200Y-93794690D01*
G37*
G36*
X139868749Y-90500277D02*
X139868754Y-90500278D01*
X139870807Y-90500292D01*
X140053080Y-90520737D01*
X140227912Y-90576197D01*
X140388641Y-90664558D01*
X140529146Y-90782456D01*
X140644076Y-90925400D01*
X140729052Y-91087945D01*
X140780839Y-91263899D01*
X140780843Y-91263940D01*
X140780844Y-91263944D01*
X140797463Y-91446558D01*
X140779648Y-91616056D01*
X140778290Y-91628973D01*
X140724052Y-91804187D01*
X140636815Y-91965529D01*
X140519900Y-92106855D01*
X140377762Y-92222779D01*
X140215815Y-92308888D01*
X140040226Y-92361902D01*
X139857685Y-92379800D01*
X139542283Y-92379800D01*
X139531251Y-92379723D01*
X139531246Y-92379722D01*
X139529193Y-92379708D01*
X139346920Y-92359263D01*
X139172088Y-92303803D01*
X139011359Y-92215442D01*
X138870854Y-92097544D01*
X138755924Y-91954600D01*
X138670948Y-91792055D01*
X138619161Y-91616101D01*
X138619157Y-91616060D01*
X138619156Y-91616056D01*
X138602537Y-91433442D01*
X138621705Y-91251074D01*
X138621710Y-91251027D01*
X138675948Y-91075813D01*
X138763185Y-90914471D01*
X138880100Y-90773145D01*
X139022238Y-90657221D01*
X139184185Y-90571112D01*
X139359774Y-90518098D01*
X139542315Y-90500200D01*
X139857717Y-90500200D01*
X139868749Y-90500277D01*
X139868749Y-90500277D01*
G37*
G36*
X117008749Y-90500277D02*
X117008754Y-90500278D01*
X117010807Y-90500292D01*
X117193080Y-90520737D01*
X117367912Y-90576197D01*
X117528641Y-90664558D01*
X117669146Y-90782456D01*
X117784076Y-90925400D01*
X117869052Y-91087945D01*
X117920839Y-91263899D01*
X117920843Y-91263940D01*
X117920844Y-91263944D01*
X117937463Y-91446558D01*
X117919648Y-91616056D01*
X117918290Y-91628973D01*
X117864052Y-91804187D01*
X117776815Y-91965529D01*
X117659900Y-92106855D01*
X117517762Y-92222779D01*
X117355815Y-92308888D01*
X117180226Y-92361902D01*
X116997685Y-92379800D01*
X116682283Y-92379800D01*
X116671251Y-92379723D01*
X116671246Y-92379722D01*
X116669193Y-92379708D01*
X116486920Y-92359263D01*
X116312088Y-92303803D01*
X116151359Y-92215442D01*
X116010854Y-92097544D01*
X115895924Y-91954600D01*
X115810948Y-91792055D01*
X115759161Y-91616101D01*
X115759157Y-91616060D01*
X115759156Y-91616056D01*
X115742537Y-91433442D01*
X115761705Y-91251074D01*
X115761710Y-91251027D01*
X115815948Y-91075813D01*
X115903185Y-90914471D01*
X116020100Y-90773145D01*
X116162238Y-90657221D01*
X116324185Y-90571112D01*
X116499774Y-90518098D01*
X116682315Y-90500200D01*
X116997717Y-90500200D01*
X117008749Y-90500277D01*
X117008749Y-90500277D01*
G37*
G36*
X124856200Y-91226200D02*
X124103800Y-91226200D01*
X124103800Y-90573800D01*
X124856200Y-90573800D01*
X124856200Y-91226200D01*
X124856200Y-91226200D01*
G37*
G36*
X123756200Y-91226200D02*
X123003800Y-91226200D01*
X123003800Y-90573800D01*
X123756200Y-90573800D01*
X123756200Y-91226200D01*
X123756200Y-91226200D01*
G37*
G36*
X130981200Y-90826200D02*
X130078800Y-90826200D01*
X130078800Y-89873800D01*
X130981200Y-89873800D01*
X130981200Y-90826200D01*
X130981200Y-90826200D01*
G37*
G36*
X132831200Y-90776200D02*
X131928800Y-90776200D01*
X131928800Y-89823800D01*
X132831200Y-89823800D01*
X132831200Y-90776200D01*
X132831200Y-90776200D01*
G37*
G36*
X117008749Y-87960277D02*
X117008754Y-87960278D01*
X117010807Y-87960292D01*
X117193080Y-87980737D01*
X117367912Y-88036197D01*
X117528641Y-88124558D01*
X117669146Y-88242456D01*
X117784076Y-88385400D01*
X117869052Y-88547945D01*
X117920839Y-88723899D01*
X117920843Y-88723940D01*
X117920844Y-88723944D01*
X117937463Y-88906558D01*
X117936029Y-88920200D01*
X117918290Y-89088973D01*
X117864052Y-89264187D01*
X117776815Y-89425529D01*
X117659900Y-89566855D01*
X117517762Y-89682779D01*
X117355815Y-89768888D01*
X117180226Y-89821902D01*
X116997685Y-89839800D01*
X116682283Y-89839800D01*
X116671251Y-89839723D01*
X116671246Y-89839722D01*
X116669193Y-89839708D01*
X116486920Y-89819263D01*
X116312088Y-89763803D01*
X116151359Y-89675442D01*
X116010854Y-89557544D01*
X115895924Y-89414600D01*
X115810948Y-89252055D01*
X115759161Y-89076101D01*
X115759157Y-89076060D01*
X115759156Y-89076056D01*
X115742537Y-88893442D01*
X115761705Y-88711074D01*
X115761710Y-88711027D01*
X115815948Y-88535813D01*
X115903185Y-88374471D01*
X116020100Y-88233145D01*
X116162238Y-88117221D01*
X116324185Y-88031112D01*
X116499774Y-87978098D01*
X116682315Y-87960200D01*
X116997717Y-87960200D01*
X117008749Y-87960277D01*
X117008749Y-87960277D01*
G37*
G36*
X139868749Y-87960277D02*
X139868754Y-87960278D01*
X139870807Y-87960292D01*
X140053080Y-87980737D01*
X140227912Y-88036197D01*
X140388641Y-88124558D01*
X140529146Y-88242456D01*
X140644076Y-88385400D01*
X140729052Y-88547945D01*
X140780839Y-88723899D01*
X140780843Y-88723940D01*
X140780844Y-88723944D01*
X140797463Y-88906558D01*
X140796029Y-88920200D01*
X140778290Y-89088973D01*
X140724052Y-89264187D01*
X140636815Y-89425529D01*
X140519900Y-89566855D01*
X140377762Y-89682779D01*
X140215815Y-89768888D01*
X140040226Y-89821902D01*
X139857685Y-89839800D01*
X139542283Y-89839800D01*
X139531251Y-89839723D01*
X139531246Y-89839722D01*
X139529193Y-89839708D01*
X139346920Y-89819263D01*
X139172088Y-89763803D01*
X139011359Y-89675442D01*
X138870854Y-89557544D01*
X138755924Y-89414600D01*
X138670948Y-89252055D01*
X138619161Y-89076101D01*
X138619157Y-89076060D01*
X138619156Y-89076056D01*
X138602537Y-88893442D01*
X138621705Y-88711074D01*
X138621710Y-88711027D01*
X138675948Y-88535813D01*
X138763185Y-88374471D01*
X138880100Y-88233145D01*
X139022238Y-88117221D01*
X139184185Y-88031112D01*
X139359774Y-87978098D01*
X139542315Y-87960200D01*
X139857717Y-87960200D01*
X139868749Y-87960277D01*
X139868749Y-87960277D01*
G37*
G36*
X127981200Y-89631200D02*
X125528800Y-89631200D01*
X125528800Y-88748800D01*
X127981200Y-88748800D01*
X127981200Y-89631200D01*
X127981200Y-89631200D01*
G37*
G36*
X130981200Y-89326200D02*
X130078800Y-89326200D01*
X130078800Y-88373800D01*
X130981200Y-88373800D01*
X130981200Y-89326200D01*
X130981200Y-89326200D01*
G37*
G36*
X132831200Y-89276200D02*
X131928800Y-89276200D01*
X131928800Y-88323800D01*
X132831200Y-88323800D01*
X132831200Y-89276200D01*
X132831200Y-89276200D01*
G37*
G36*
X123558200Y-88920200D02*
X121805800Y-88920200D01*
X121805800Y-87767800D01*
X123558200Y-87767800D01*
X123558200Y-88920200D01*
X123558200Y-88920200D01*
G37*
G36*
X129161200Y-88451200D02*
X128278800Y-88451200D01*
X128278800Y-85998800D01*
X129161200Y-85998800D01*
X129161200Y-88451200D01*
X129161200Y-88451200D01*
G37*
G36*
X125231200Y-88451200D02*
X124348800Y-88451200D01*
X124348800Y-85998800D01*
X125231200Y-85998800D01*
X125231200Y-88451200D01*
X125231200Y-88451200D01*
G37*
G36*
X126450200Y-88170200D02*
X125809800Y-88170200D01*
X125809800Y-87529800D01*
X126450200Y-87529800D01*
X126450200Y-88170200D01*
X126450200Y-88170200D01*
G37*
G36*
X127700200Y-88170200D02*
X127059800Y-88170200D01*
X127059800Y-87529800D01*
X127700200Y-87529800D01*
X127700200Y-88170200D01*
X127700200Y-88170200D01*
G37*
G36*
X139868749Y-85420277D02*
X139868754Y-85420278D01*
X139870807Y-85420292D01*
X140053080Y-85440737D01*
X140227912Y-85496197D01*
X140388641Y-85584558D01*
X140529146Y-85702456D01*
X140644076Y-85845400D01*
X140729052Y-86007945D01*
X140780839Y-86183899D01*
X140780843Y-86183940D01*
X140780844Y-86183944D01*
X140797463Y-86366558D01*
X140779648Y-86536056D01*
X140778290Y-86548973D01*
X140724052Y-86724187D01*
X140636815Y-86885529D01*
X140519900Y-87026855D01*
X140377762Y-87142779D01*
X140215815Y-87228888D01*
X140040226Y-87281902D01*
X139857685Y-87299800D01*
X139542283Y-87299800D01*
X139531251Y-87299723D01*
X139531246Y-87299722D01*
X139529193Y-87299708D01*
X139346920Y-87279263D01*
X139172088Y-87223803D01*
X139011359Y-87135442D01*
X138870854Y-87017544D01*
X138755924Y-86874600D01*
X138670948Y-86712055D01*
X138619161Y-86536101D01*
X138619157Y-86536060D01*
X138619156Y-86536056D01*
X138602537Y-86353442D01*
X138621705Y-86171074D01*
X138621710Y-86171027D01*
X138675948Y-85995813D01*
X138763185Y-85834471D01*
X138880100Y-85693145D01*
X139022238Y-85577221D01*
X139184185Y-85491112D01*
X139359774Y-85438098D01*
X139542315Y-85420200D01*
X139857717Y-85420200D01*
X139868749Y-85420277D01*
X139868749Y-85420277D01*
G37*
G36*
X117008749Y-85420277D02*
X117008754Y-85420278D01*
X117010807Y-85420292D01*
X117193080Y-85440737D01*
X117367912Y-85496197D01*
X117528641Y-85584558D01*
X117669146Y-85702456D01*
X117784076Y-85845400D01*
X117869052Y-86007945D01*
X117920839Y-86183899D01*
X117920843Y-86183940D01*
X117920844Y-86183944D01*
X117937463Y-86366558D01*
X117919648Y-86536056D01*
X117918290Y-86548973D01*
X117864052Y-86724187D01*
X117776815Y-86885529D01*
X117659900Y-87026855D01*
X117517762Y-87142779D01*
X117355815Y-87228888D01*
X117180226Y-87281902D01*
X116997685Y-87299800D01*
X116682283Y-87299800D01*
X116671251Y-87299723D01*
X116671246Y-87299722D01*
X116669193Y-87299708D01*
X116486920Y-87279263D01*
X116312088Y-87223803D01*
X116151359Y-87135442D01*
X116010854Y-87017544D01*
X115895924Y-86874600D01*
X115810948Y-86712055D01*
X115759161Y-86536101D01*
X115759157Y-86536060D01*
X115759156Y-86536056D01*
X115742537Y-86353442D01*
X115761705Y-86171074D01*
X115761710Y-86171027D01*
X115815948Y-85995813D01*
X115903185Y-85834471D01*
X116020100Y-85693145D01*
X116162238Y-85577221D01*
X116324185Y-85491112D01*
X116499774Y-85438098D01*
X116682315Y-85420200D01*
X116997717Y-85420200D01*
X117008749Y-85420277D01*
X117008749Y-85420277D01*
G37*
G36*
X127700200Y-86920200D02*
X127059800Y-86920200D01*
X127059800Y-86279800D01*
X127700200Y-86279800D01*
X127700200Y-86920200D01*
X127700200Y-86920200D01*
G37*
G36*
X126450200Y-86920200D02*
X125809800Y-86920200D01*
X125809800Y-86279800D01*
X126450200Y-86279800D01*
X126450200Y-86920200D01*
X126450200Y-86920200D01*
G37*
G36*
X131156200Y-86283700D02*
X130003800Y-86283700D01*
X130003800Y-84531300D01*
X131156200Y-84531300D01*
X131156200Y-86283700D01*
X131156200Y-86283700D01*
G37*
G36*
X134156200Y-86283700D02*
X133003800Y-86283700D01*
X133003800Y-84531300D01*
X134156200Y-84531300D01*
X134156200Y-86283700D01*
X134156200Y-86283700D01*
G37*
G36*
X123558200Y-85920200D02*
X121805800Y-85920200D01*
X121805800Y-84767800D01*
X123558200Y-84767800D01*
X123558200Y-85920200D01*
X123558200Y-85920200D01*
G37*
G36*
X127981200Y-85701200D02*
X125528800Y-85701200D01*
X125528800Y-84818800D01*
X127981200Y-84818800D01*
X127981200Y-85701200D01*
X127981200Y-85701200D01*
G37*
G36*
X117932200Y-84759800D02*
X115747800Y-84759800D01*
X115747800Y-82880200D01*
X117932200Y-82880200D01*
X117932200Y-84759800D01*
X117932200Y-84759800D01*
G37*
G36*
X140792200Y-84759800D02*
X138607800Y-84759800D01*
X138607800Y-82880200D01*
X140792200Y-82880200D01*
X140792200Y-84759800D01*
X140792200Y-84759800D01*
G37*
G36*
X129881800Y-83474600D02*
X128729400Y-83474600D01*
X128729400Y-79822200D01*
X129881800Y-79822200D01*
X129881800Y-83474600D01*
X129881800Y-83474600D01*
G37*
G36*
X131881800Y-83474600D02*
X130729400Y-83474600D01*
X130729400Y-79822200D01*
X131881800Y-79822200D01*
X131881800Y-83474600D01*
X131881800Y-83474600D01*
G37*
G36*
X123234800Y-82341800D02*
X122332400Y-82341800D01*
X122332400Y-81389400D01*
X123234800Y-81389400D01*
X123234800Y-82341800D01*
X123234800Y-82341800D01*
G37*
G36*
X121279800Y-81699000D02*
X120127400Y-81699000D01*
X120127400Y-79946600D01*
X121279800Y-79946600D01*
X121279800Y-81699000D01*
X121279800Y-81699000D01*
G37*
G36*
X118279800Y-81699000D02*
X117127400Y-81699000D01*
X117127400Y-79946600D01*
X118279800Y-79946600D01*
X118279800Y-81699000D01*
X118279800Y-81699000D01*
G37*
G36*
X123234800Y-80841800D02*
X122332400Y-80841800D01*
X122332400Y-79889400D01*
X123234800Y-79889400D01*
X123234800Y-80841800D01*
X123234800Y-80841800D01*
G37*
G36*
X120777036Y-78782434D02*
X117624636Y-78782434D01*
X117624636Y-77280034D01*
X120777036Y-77280034D01*
X120777036Y-78782434D01*
X120777036Y-78782434D01*
G37*
G36*
X116877036Y-78582434D02*
X115124636Y-78582434D01*
X115124636Y-77030034D01*
X116877036Y-77030034D01*
X116877036Y-78582434D01*
X116877036Y-78582434D01*
G37*
G36*
X123277036Y-78582434D02*
X121524636Y-78582434D01*
X121524636Y-77030034D01*
X123277036Y-77030034D01*
X123277036Y-78582434D01*
X123277036Y-78582434D01*
G37*
G36*
X134581800Y-77874600D02*
X132829400Y-77874600D01*
X132829400Y-74322200D01*
X134581800Y-74322200D01*
X134581800Y-77874600D01*
X134581800Y-77874600D01*
G37*
G36*
X127781800Y-77874600D02*
X126029400Y-77874600D01*
X126029400Y-74322200D01*
X127781800Y-74322200D01*
X127781800Y-77874600D01*
X127781800Y-77874600D01*
G37*
G36*
X121427036Y-76382434D02*
X119374636Y-76382434D01*
X119374636Y-74330034D01*
X121427036Y-74330034D01*
X121427036Y-76382434D01*
X121427036Y-76382434D01*
G37*
G36*
X119027036Y-76382434D02*
X116974636Y-76382434D01*
X116974636Y-74330034D01*
X119027036Y-74330034D01*
X119027036Y-76382434D01*
X119027036Y-76382434D01*
G37*
G36*
X115721864Y-74680482D02*
X115851758Y-74707146D01*
X115974013Y-74758537D01*
X116083951Y-74832691D01*
X116177388Y-74926783D01*
X116250777Y-75037242D01*
X116301311Y-75159846D01*
X116326998Y-75289575D01*
X116326998Y-75289590D01*
X116327065Y-75289929D01*
X116324950Y-75441394D01*
X116324874Y-75441728D01*
X116324874Y-75441741D01*
X116295572Y-75570712D01*
X116241637Y-75691853D01*
X116165195Y-75800216D01*
X116069162Y-75891667D01*
X115957196Y-75962723D01*
X115833558Y-76010679D01*
X115702967Y-76033706D01*
X115570383Y-76030928D01*
X115440867Y-76002453D01*
X115319346Y-75949361D01*
X115210457Y-75873681D01*
X115118338Y-75778290D01*
X115046501Y-75666820D01*
X114997682Y-75543518D01*
X114973745Y-75413093D01*
X114975596Y-75280495D01*
X115003168Y-75150780D01*
X115055407Y-75028895D01*
X115130329Y-74919476D01*
X115225077Y-74826692D01*
X115336035Y-74754082D01*
X115458993Y-74704404D01*
X115589251Y-74679557D01*
X115721864Y-74680482D01*
X115721864Y-74680482D01*
G37*
G36*
X122821864Y-74680482D02*
X122951758Y-74707146D01*
X123074013Y-74758537D01*
X123183951Y-74832691D01*
X123277388Y-74926783D01*
X123350777Y-75037242D01*
X123401311Y-75159846D01*
X123426998Y-75289575D01*
X123426998Y-75289590D01*
X123427065Y-75289929D01*
X123424950Y-75441394D01*
X123424874Y-75441728D01*
X123424874Y-75441741D01*
X123395572Y-75570712D01*
X123341637Y-75691853D01*
X123265195Y-75800216D01*
X123169162Y-75891667D01*
X123057196Y-75962723D01*
X122933558Y-76010679D01*
X122802967Y-76033706D01*
X122670383Y-76030928D01*
X122540867Y-76002453D01*
X122419346Y-75949361D01*
X122310457Y-75873681D01*
X122218338Y-75778290D01*
X122146501Y-75666820D01*
X122097682Y-75543518D01*
X122073745Y-75413093D01*
X122075596Y-75280495D01*
X122103168Y-75150780D01*
X122155407Y-75028895D01*
X122230329Y-74919476D01*
X122325077Y-74826692D01*
X122436035Y-74754082D01*
X122558993Y-74704404D01*
X122689251Y-74679557D01*
X122821864Y-74680482D01*
X122821864Y-74680482D01*
G37*
M02*
