%TF.GenerationSoftware,KiCad,Pcbnew,4.0.5-e0-6337~49~ubuntu16.04.1*%
%TF.CreationDate,2017-07-20T10:54:41-07:00*%
%TF.ProjectId,mcp73871-battery-mgmt-breakout,6D637037333837312D62617474657279,1.0*%
%TF.FileFunction,Legend,Top*%
%FSLAX46Y46*%
G04 Gerber Fmt 4.6, Leading zero omitted, Abs format (unit mm)*
G04 Created by KiCad (PCBNEW 4.0.5-e0-6337~49~ubuntu16.04.1) date Thu Jul 20 10:54:41 2017*
%MOMM*%
%LPD*%
G01*
G04 APERTURE LIST*
%ADD10C,0.350000*%
%ADD11C,0.152400*%
%ADD12C,0.150000*%
%ADD13C,0.050000*%
%ADD14R,0.552400X1.502400*%
%ADD15R,1.752400X1.552400*%
%ADD16C,1.352400*%
%ADD17R,2.052400X2.052400*%
%ADD18R,1.152400X3.652400*%
%ADD19R,1.752400X3.552400*%
%ADD20R,2.184400X1.879600*%
%ADD21O,2.184400X1.879600*%
%ADD22R,0.952400X0.902400*%
%ADD23R,0.902400X0.952400*%
%ADD24R,0.752400X0.652400*%
%ADD25R,0.882400X0.452400*%
%ADD26R,0.452400X0.882400*%
%ADD27R,0.640400X0.640400*%
%ADD28R,1.752400X1.152400*%
%ADD29R,1.152400X1.752400*%
G04 APERTURE END LIST*
D10*
D11*
X134160382Y-96931238D02*
X134305525Y-96979619D01*
X134547429Y-96979619D01*
X134644191Y-96931238D01*
X134692572Y-96882857D01*
X134740953Y-96786095D01*
X134740953Y-96689333D01*
X134692572Y-96592571D01*
X134644191Y-96544190D01*
X134547429Y-96495810D01*
X134353906Y-96447429D01*
X134257144Y-96399048D01*
X134208763Y-96350667D01*
X134160382Y-96253905D01*
X134160382Y-96157143D01*
X134208763Y-96060381D01*
X134257144Y-96012000D01*
X134353906Y-95963619D01*
X134595810Y-95963619D01*
X134740953Y-96012000D01*
X135031239Y-95963619D02*
X135611810Y-95963619D01*
X135321525Y-96979619D02*
X135321525Y-95963619D01*
X135902096Y-96689333D02*
X136385905Y-96689333D01*
X135805334Y-96979619D02*
X136144001Y-95963619D01*
X136482667Y-96979619D01*
X136676191Y-95963619D02*
X137256762Y-95963619D01*
X136966477Y-96979619D02*
X136966477Y-95963619D01*
X138127619Y-96979619D02*
X137547048Y-96979619D01*
X137837334Y-96979619D02*
X137837334Y-95963619D01*
X137740572Y-96108762D01*
X137643810Y-96205524D01*
X137547048Y-96253905D01*
X136410096Y-93423619D02*
X136990667Y-93423619D01*
X136700382Y-94439619D02*
X136700382Y-93423619D01*
X137329334Y-93907429D02*
X137668000Y-93907429D01*
X137813143Y-94439619D02*
X137329334Y-94439619D01*
X137329334Y-93423619D01*
X137813143Y-93423619D01*
X136313334Y-93248480D02*
X138006667Y-93248480D01*
X134378096Y-91899619D02*
X134378096Y-90883619D01*
X134765143Y-90883619D01*
X134861905Y-90932000D01*
X134910286Y-90980381D01*
X134958667Y-91077143D01*
X134958667Y-91222286D01*
X134910286Y-91319048D01*
X134861905Y-91367429D01*
X134765143Y-91415810D01*
X134378096Y-91415810D01*
X135974667Y-91899619D02*
X135636001Y-91415810D01*
X135394096Y-91899619D02*
X135394096Y-90883619D01*
X135781143Y-90883619D01*
X135877905Y-90932000D01*
X135926286Y-90980381D01*
X135974667Y-91077143D01*
X135974667Y-91222286D01*
X135926286Y-91319048D01*
X135877905Y-91367429D01*
X135781143Y-91415810D01*
X135394096Y-91415810D01*
X136942286Y-90932000D02*
X136845524Y-90883619D01*
X136700381Y-90883619D01*
X136555239Y-90932000D01*
X136458477Y-91028762D01*
X136410096Y-91125524D01*
X136361715Y-91319048D01*
X136361715Y-91464190D01*
X136410096Y-91657714D01*
X136458477Y-91754476D01*
X136555239Y-91851238D01*
X136700381Y-91899619D01*
X136797143Y-91899619D01*
X136942286Y-91851238D01*
X136990667Y-91802857D01*
X136990667Y-91464190D01*
X136797143Y-91464190D01*
X137329334Y-90883619D02*
X137958286Y-90883619D01*
X137619620Y-91270667D01*
X137764762Y-91270667D01*
X137861524Y-91319048D01*
X137909905Y-91367429D01*
X137958286Y-91464190D01*
X137958286Y-91706095D01*
X137909905Y-91802857D01*
X137861524Y-91851238D01*
X137764762Y-91899619D01*
X137474477Y-91899619D01*
X137377715Y-91851238D01*
X137329334Y-91802857D01*
X134378096Y-89359619D02*
X134378096Y-88343619D01*
X134765143Y-88343619D01*
X134861905Y-88392000D01*
X134910286Y-88440381D01*
X134958667Y-88537143D01*
X134958667Y-88682286D01*
X134910286Y-88779048D01*
X134861905Y-88827429D01*
X134765143Y-88875810D01*
X134378096Y-88875810D01*
X135974667Y-89359619D02*
X135636001Y-88875810D01*
X135394096Y-89359619D02*
X135394096Y-88343619D01*
X135781143Y-88343619D01*
X135877905Y-88392000D01*
X135926286Y-88440381D01*
X135974667Y-88537143D01*
X135974667Y-88682286D01*
X135926286Y-88779048D01*
X135877905Y-88827429D01*
X135781143Y-88875810D01*
X135394096Y-88875810D01*
X136942286Y-88392000D02*
X136845524Y-88343619D01*
X136700381Y-88343619D01*
X136555239Y-88392000D01*
X136458477Y-88488762D01*
X136410096Y-88585524D01*
X136361715Y-88779048D01*
X136361715Y-88924190D01*
X136410096Y-89117714D01*
X136458477Y-89214476D01*
X136555239Y-89311238D01*
X136700381Y-89359619D01*
X136797143Y-89359619D01*
X136942286Y-89311238D01*
X136990667Y-89262857D01*
X136990667Y-88924190D01*
X136797143Y-88924190D01*
X137958286Y-89359619D02*
X137377715Y-89359619D01*
X137668001Y-89359619D02*
X137668001Y-88343619D01*
X137571239Y-88488762D01*
X137474477Y-88585524D01*
X137377715Y-88633905D01*
X137039048Y-86722857D02*
X136990667Y-86771238D01*
X136845524Y-86819619D01*
X136748762Y-86819619D01*
X136603620Y-86771238D01*
X136506858Y-86674476D01*
X136458477Y-86577714D01*
X136410096Y-86384190D01*
X136410096Y-86239048D01*
X136458477Y-86045524D01*
X136506858Y-85948762D01*
X136603620Y-85852000D01*
X136748762Y-85803619D01*
X136845524Y-85803619D01*
X136990667Y-85852000D01*
X137039048Y-85900381D01*
X137474477Y-86287429D02*
X137813143Y-86287429D01*
X137958286Y-86819619D02*
X137474477Y-86819619D01*
X137474477Y-85803619D01*
X137958286Y-85803619D01*
X118630096Y-99773619D02*
X118630096Y-98757619D01*
X119017143Y-98757619D01*
X119113905Y-98806000D01*
X119162286Y-98854381D01*
X119210667Y-98951143D01*
X119210667Y-99096286D01*
X119162286Y-99193048D01*
X119113905Y-99241429D01*
X119017143Y-99289810D01*
X118630096Y-99289810D01*
X120178286Y-98806000D02*
X120081524Y-98757619D01*
X119936381Y-98757619D01*
X119791239Y-98806000D01*
X119694477Y-98902762D01*
X119646096Y-98999524D01*
X119597715Y-99193048D01*
X119597715Y-99338190D01*
X119646096Y-99531714D01*
X119694477Y-99628476D01*
X119791239Y-99725238D01*
X119936381Y-99773619D01*
X120033143Y-99773619D01*
X120178286Y-99725238D01*
X120226667Y-99676857D01*
X120226667Y-99338190D01*
X120033143Y-99338190D01*
X118388191Y-98582480D02*
X120420191Y-98582480D01*
X118581715Y-96931238D02*
X118726858Y-96979619D01*
X118968762Y-96979619D01*
X119065524Y-96931238D01*
X119113905Y-96882857D01*
X119162286Y-96786095D01*
X119162286Y-96689333D01*
X119113905Y-96592571D01*
X119065524Y-96544190D01*
X118968762Y-96495810D01*
X118775239Y-96447429D01*
X118678477Y-96399048D01*
X118630096Y-96350667D01*
X118581715Y-96253905D01*
X118581715Y-96157143D01*
X118630096Y-96060381D01*
X118678477Y-96012000D01*
X118775239Y-95963619D01*
X119017143Y-95963619D01*
X119162286Y-96012000D01*
X119452572Y-95963619D02*
X120033143Y-95963619D01*
X119742858Y-96979619D02*
X119742858Y-95963619D01*
X120323429Y-96689333D02*
X120807238Y-96689333D01*
X120226667Y-96979619D02*
X120565334Y-95963619D01*
X120904000Y-96979619D01*
X121097524Y-95963619D02*
X121678095Y-95963619D01*
X121387810Y-96979619D02*
X121387810Y-95963619D01*
X121968381Y-96060381D02*
X122016762Y-96012000D01*
X122113524Y-95963619D01*
X122355428Y-95963619D01*
X122452190Y-96012000D01*
X122500571Y-96060381D01*
X122548952Y-96157143D01*
X122548952Y-96253905D01*
X122500571Y-96399048D01*
X121920000Y-96979619D01*
X122548952Y-96979619D01*
X118484953Y-93423619D02*
X119065524Y-93423619D01*
X118775239Y-94439619D02*
X118775239Y-93423619D01*
X119404191Y-94439619D02*
X119404191Y-93423619D01*
X119404191Y-93907429D02*
X119984762Y-93907429D01*
X119984762Y-94439619D02*
X119984762Y-93423619D01*
X121049143Y-94439619D02*
X120710477Y-93955810D01*
X120468572Y-94439619D02*
X120468572Y-93423619D01*
X120855619Y-93423619D01*
X120952381Y-93472000D01*
X121000762Y-93520381D01*
X121049143Y-93617143D01*
X121049143Y-93762286D01*
X121000762Y-93859048D01*
X120952381Y-93907429D01*
X120855619Y-93955810D01*
X120468572Y-93955810D01*
X121484572Y-94439619D02*
X121484572Y-93423619D01*
X121823238Y-94149333D01*
X122161905Y-93423619D01*
X122161905Y-94439619D01*
X118630096Y-91899619D02*
X118630096Y-90883619D01*
X119017143Y-90883619D01*
X119113905Y-90932000D01*
X119162286Y-90980381D01*
X119210667Y-91077143D01*
X119210667Y-91222286D01*
X119162286Y-91319048D01*
X119113905Y-91367429D01*
X119017143Y-91415810D01*
X118630096Y-91415810D01*
X120226667Y-91899619D02*
X119888001Y-91415810D01*
X119646096Y-91899619D02*
X119646096Y-90883619D01*
X120033143Y-90883619D01*
X120129905Y-90932000D01*
X120178286Y-90980381D01*
X120226667Y-91077143D01*
X120226667Y-91222286D01*
X120178286Y-91319048D01*
X120129905Y-91367429D01*
X120033143Y-91415810D01*
X119646096Y-91415810D01*
X121194286Y-90932000D02*
X121097524Y-90883619D01*
X120952381Y-90883619D01*
X120807239Y-90932000D01*
X120710477Y-91028762D01*
X120662096Y-91125524D01*
X120613715Y-91319048D01*
X120613715Y-91464190D01*
X120662096Y-91657714D01*
X120710477Y-91754476D01*
X120807239Y-91851238D01*
X120952381Y-91899619D01*
X121049143Y-91899619D01*
X121194286Y-91851238D01*
X121242667Y-91802857D01*
X121242667Y-91464190D01*
X121049143Y-91464190D01*
X121629715Y-90980381D02*
X121678096Y-90932000D01*
X121774858Y-90883619D01*
X122016762Y-90883619D01*
X122113524Y-90932000D01*
X122161905Y-90980381D01*
X122210286Y-91077143D01*
X122210286Y-91173905D01*
X122161905Y-91319048D01*
X121581334Y-91899619D01*
X122210286Y-91899619D01*
X118581715Y-89311238D02*
X118726858Y-89359619D01*
X118968762Y-89359619D01*
X119065524Y-89311238D01*
X119113905Y-89262857D01*
X119162286Y-89166095D01*
X119162286Y-89069333D01*
X119113905Y-88972571D01*
X119065524Y-88924190D01*
X118968762Y-88875810D01*
X118775239Y-88827429D01*
X118678477Y-88779048D01*
X118630096Y-88730667D01*
X118581715Y-88633905D01*
X118581715Y-88537143D01*
X118630096Y-88440381D01*
X118678477Y-88392000D01*
X118775239Y-88343619D01*
X119017143Y-88343619D01*
X119162286Y-88392000D01*
X119597715Y-88827429D02*
X119936381Y-88827429D01*
X120081524Y-89359619D02*
X119597715Y-89359619D01*
X119597715Y-88343619D01*
X120081524Y-88343619D01*
X121000762Y-89359619D02*
X120516953Y-89359619D01*
X120516953Y-88343619D01*
X135829524Y-98552000D02*
X135732762Y-98503619D01*
X135587619Y-98503619D01*
X135442477Y-98552000D01*
X135345715Y-98648762D01*
X135297334Y-98745524D01*
X135248953Y-98939048D01*
X135248953Y-99084190D01*
X135297334Y-99277714D01*
X135345715Y-99374476D01*
X135442477Y-99471238D01*
X135587619Y-99519619D01*
X135684381Y-99519619D01*
X135829524Y-99471238D01*
X135877905Y-99422857D01*
X135877905Y-99084190D01*
X135684381Y-99084190D01*
X136313334Y-99519619D02*
X136313334Y-98503619D01*
X136893905Y-99519619D01*
X136893905Y-98503619D01*
X137377715Y-99519619D02*
X137377715Y-98503619D01*
X137619620Y-98503619D01*
X137764762Y-98552000D01*
X137861524Y-98648762D01*
X137909905Y-98745524D01*
X137958286Y-98939048D01*
X137958286Y-99084190D01*
X137909905Y-99277714D01*
X137861524Y-99374476D01*
X137764762Y-99471238D01*
X137619620Y-99519619D01*
X137377715Y-99519619D01*
X134347858Y-83263619D02*
X134686525Y-84279619D01*
X135025191Y-83263619D01*
X135702524Y-83747429D02*
X135847667Y-83795810D01*
X135896048Y-83844190D01*
X135944429Y-83940952D01*
X135944429Y-84086095D01*
X135896048Y-84182857D01*
X135847667Y-84231238D01*
X135750905Y-84279619D01*
X135363858Y-84279619D01*
X135363858Y-83263619D01*
X135702524Y-83263619D01*
X135799286Y-83312000D01*
X135847667Y-83360381D01*
X135896048Y-83457143D01*
X135896048Y-83553905D01*
X135847667Y-83650667D01*
X135799286Y-83699048D01*
X135702524Y-83747429D01*
X135363858Y-83747429D01*
X136331477Y-83989333D02*
X136815286Y-83989333D01*
X136234715Y-84279619D02*
X136573382Y-83263619D01*
X136912048Y-84279619D01*
X137105572Y-83263619D02*
X137686143Y-83263619D01*
X137395858Y-84279619D02*
X137395858Y-83263619D01*
X118484953Y-85803619D02*
X118823620Y-86819619D01*
X119162286Y-85803619D01*
X120081524Y-86722857D02*
X120033143Y-86771238D01*
X119888000Y-86819619D01*
X119791238Y-86819619D01*
X119646096Y-86771238D01*
X119549334Y-86674476D01*
X119500953Y-86577714D01*
X119452572Y-86384190D01*
X119452572Y-86239048D01*
X119500953Y-86045524D01*
X119549334Y-85948762D01*
X119646096Y-85852000D01*
X119791238Y-85803619D01*
X119888000Y-85803619D01*
X120033143Y-85852000D01*
X120081524Y-85900381D01*
X121097524Y-86722857D02*
X121049143Y-86771238D01*
X120904000Y-86819619D01*
X120807238Y-86819619D01*
X120662096Y-86771238D01*
X120565334Y-86674476D01*
X120516953Y-86577714D01*
X120468572Y-86384190D01*
X120468572Y-86239048D01*
X120516953Y-86045524D01*
X120565334Y-85948762D01*
X120662096Y-85852000D01*
X120807238Y-85803619D01*
X120904000Y-85803619D01*
X121049143Y-85852000D01*
X121097524Y-85900381D01*
X118787334Y-83263619D02*
X119126001Y-84279619D01*
X119464667Y-83263619D01*
X119803334Y-83263619D02*
X119803334Y-84086095D01*
X119851715Y-84182857D01*
X119900096Y-84231238D01*
X119996858Y-84279619D01*
X120190381Y-84279619D01*
X120287143Y-84231238D01*
X120335524Y-84182857D01*
X120383905Y-84086095D01*
X120383905Y-83263619D01*
X120819334Y-84231238D02*
X120964477Y-84279619D01*
X121206381Y-84279619D01*
X121303143Y-84231238D01*
X121351524Y-84182857D01*
X121399905Y-84086095D01*
X121399905Y-83989333D01*
X121351524Y-83892571D01*
X121303143Y-83844190D01*
X121206381Y-83795810D01*
X121012858Y-83747429D01*
X120916096Y-83699048D01*
X120867715Y-83650667D01*
X120819334Y-83553905D01*
X120819334Y-83457143D01*
X120867715Y-83360381D01*
X120916096Y-83312000D01*
X121012858Y-83263619D01*
X121254762Y-83263619D01*
X121399905Y-83312000D01*
X122174000Y-83747429D02*
X122319143Y-83795810D01*
X122367524Y-83844190D01*
X122415905Y-83940952D01*
X122415905Y-84086095D01*
X122367524Y-84182857D01*
X122319143Y-84231238D01*
X122222381Y-84279619D01*
X121835334Y-84279619D01*
X121835334Y-83263619D01*
X122174000Y-83263619D01*
X122270762Y-83312000D01*
X122319143Y-83360381D01*
X122367524Y-83457143D01*
X122367524Y-83553905D01*
X122319143Y-83650667D01*
X122270762Y-83699048D01*
X122174000Y-83747429D01*
X121835334Y-83747429D01*
D12*
X132955600Y-81398400D02*
G75*
G03X132955600Y-81398400I-250000J0D01*
G01*
X130805600Y-74648400D02*
X130805600Y-75648400D01*
X130805600Y-75648400D02*
X129805600Y-75648400D01*
X129805600Y-75648400D02*
X129805600Y-74648400D01*
X132205600Y-80648400D02*
X133455600Y-80648400D01*
X133455600Y-80648400D02*
X133455600Y-82248400D01*
X133455600Y-82248400D02*
X134255600Y-82248400D01*
X134255600Y-82248400D02*
X134255600Y-78148400D01*
X133455600Y-80648400D02*
X134255600Y-80648400D01*
X128405600Y-80648400D02*
X127155600Y-80648400D01*
X127155600Y-80648400D02*
X127155600Y-82248400D01*
X127155600Y-82248400D02*
X126355600Y-82248400D01*
X126355600Y-82248400D02*
X126355600Y-78148400D01*
X127155600Y-80648400D02*
X126355600Y-80648400D01*
X132505600Y-74648400D02*
X128105600Y-74648400D01*
X132505600Y-79548400D02*
X132505600Y-76148400D01*
X132505600Y-76148400D02*
X131505600Y-76148400D01*
X131505600Y-76148400D02*
X131505600Y-79548400D01*
X131505600Y-79548400D02*
X132505600Y-79548400D01*
X128105600Y-79548400D02*
X128105600Y-76148400D01*
X128105600Y-76148400D02*
X129105600Y-76148400D01*
X129105600Y-76148400D02*
X129105600Y-79548400D01*
X129105600Y-79548400D02*
X128105600Y-79548400D01*
X130405600Y-80648400D02*
X130205600Y-80648400D01*
X118110000Y-85090000D02*
X118110000Y-100330000D01*
X118110000Y-100330000D02*
X115570000Y-100330000D01*
X115570000Y-100330000D02*
X115570000Y-85090000D01*
X118390000Y-82270000D02*
X118390000Y-83820000D01*
X118110000Y-85090000D02*
X115570000Y-85090000D01*
X115290000Y-83820000D02*
X115290000Y-82270000D01*
X115290000Y-82270000D02*
X118390000Y-82270000D01*
X140970000Y-85090000D02*
X140970000Y-100330000D01*
X140970000Y-100330000D02*
X138430000Y-100330000D01*
X138430000Y-100330000D02*
X138430000Y-85090000D01*
X141250000Y-82270000D02*
X141250000Y-83820000D01*
X140970000Y-85090000D02*
X138430000Y-85090000D01*
X138150000Y-83820000D02*
X138150000Y-82270000D01*
X138150000Y-82270000D02*
X141250000Y-82270000D01*
D13*
X130544000Y-94155490D02*
X130544000Y-92631490D01*
D12*
X131718000Y-92793490D02*
X132418000Y-92793490D01*
X132418000Y-93993490D02*
X131718000Y-93993490D01*
D13*
X130544000Y-97194162D02*
X130544000Y-95670162D01*
D12*
X131718000Y-95832162D02*
X132418000Y-95832162D01*
X132418000Y-97032162D02*
X131718000Y-97032162D01*
D13*
X130544000Y-100294000D02*
X130544000Y-98770000D01*
D12*
X131718000Y-98932000D02*
X132418000Y-98932000D01*
X132418000Y-100132000D02*
X131718000Y-100132000D01*
D11*
X122148600Y-82512600D02*
X123418600Y-82512600D01*
X122148600Y-79782100D02*
X123418600Y-79782100D01*
D12*
X122148600Y-82512600D02*
X122148600Y-79782100D01*
X123418600Y-79782100D02*
X123418600Y-82512600D01*
D11*
X129147000Y-93978490D02*
X129147000Y-92708490D01*
X126416500Y-93978490D02*
X126416500Y-92708490D01*
D12*
X129147000Y-93978490D02*
X126416500Y-93978490D01*
X126416500Y-92708490D02*
X129147000Y-92708490D01*
D11*
X129107128Y-97067162D02*
X129107128Y-95797162D01*
X126376628Y-97067162D02*
X126376628Y-95797162D01*
D12*
X129107128Y-97067162D02*
X126376628Y-97067162D01*
X126376628Y-95797162D02*
X129107128Y-95797162D01*
D11*
X129147000Y-100203000D02*
X129147000Y-98933000D01*
X126416500Y-100203000D02*
X126416500Y-98933000D01*
D12*
X129147000Y-100203000D02*
X126416500Y-100203000D01*
X126416500Y-98933000D02*
X129147000Y-98933000D01*
X124180000Y-90425000D02*
X123680000Y-90425000D01*
X123680000Y-91375000D02*
X124180000Y-91375000D01*
D11*
X133015000Y-88153000D02*
X131745000Y-88153000D01*
X133015000Y-90883500D02*
X131745000Y-90883500D01*
D12*
X133015000Y-88153000D02*
X133015000Y-90883500D01*
X131745000Y-90883500D02*
X131745000Y-88153000D01*
D11*
X131165000Y-88203000D02*
X129895000Y-88203000D01*
X131165000Y-90933500D02*
X129895000Y-90933500D01*
D12*
X131165000Y-88203000D02*
X131165000Y-90933500D01*
X129895000Y-90933500D02*
X129895000Y-88203000D01*
D11*
X124850000Y-85193000D02*
G75*
G03X124850000Y-85193000I-127000J0D01*
G01*
D12*
X128905000Y-85075000D02*
X128905000Y-85850000D01*
X124605000Y-89375000D02*
X124605000Y-88600000D01*
X128905000Y-89375000D02*
X128905000Y-88600000D01*
X124605000Y-89375000D02*
X125380000Y-89375000D01*
X128905000Y-89375000D02*
X128130000Y-89375000D01*
X128905000Y-85075000D02*
X128130000Y-85075000D01*
X136903460Y-79161640D02*
X136644380Y-79722980D01*
X136644380Y-79722980D02*
X137182860Y-80241140D01*
X137182860Y-80241140D02*
X137703560Y-79971900D01*
X137703560Y-79971900D02*
X137982960Y-80131920D01*
X139423140Y-80111600D02*
X139753340Y-79921100D01*
X139753340Y-79921100D02*
X140192760Y-80251300D01*
X140192760Y-80251300D02*
X140665200Y-79761080D01*
X140665200Y-79761080D02*
X140383260Y-79281020D01*
X140383260Y-79281020D02*
X140573760Y-78811120D01*
X140573760Y-78811120D02*
X141183360Y-78623160D01*
X141183360Y-78623160D02*
X141183360Y-77942440D01*
X141183360Y-77942440D02*
X140624560Y-77802740D01*
X140624560Y-77802740D02*
X140423900Y-77231240D01*
X140423900Y-77231240D02*
X140693140Y-76761340D01*
X140693140Y-76761340D02*
X140223240Y-76250800D01*
X140223240Y-76250800D02*
X139705080Y-76512420D01*
X139705080Y-76512420D02*
X139235180Y-76311760D01*
X139235180Y-76311760D02*
X139065000Y-75770740D01*
X139065000Y-75770740D02*
X138374120Y-75752960D01*
X138374120Y-75752960D02*
X138163300Y-76301600D01*
X138163300Y-76301600D02*
X137744200Y-76471780D01*
X137744200Y-76471780D02*
X137193020Y-76202540D01*
X137193020Y-76202540D02*
X136674860Y-76730860D01*
X136674860Y-76730860D02*
X136923780Y-77271880D01*
X136923780Y-77271880D02*
X136753600Y-77751940D01*
X136753600Y-77751940D02*
X136204960Y-77851000D01*
X136204960Y-77851000D02*
X136194800Y-78552040D01*
X136194800Y-78552040D02*
X136753600Y-78752700D01*
X136753600Y-78752700D02*
X136893300Y-79151480D01*
X139034520Y-79131160D02*
X139334240Y-78981300D01*
X139334240Y-78981300D02*
X139534900Y-78783180D01*
X139534900Y-78783180D02*
X139684760Y-78381860D01*
X139684760Y-78381860D02*
X139684760Y-77983080D01*
X139684760Y-77983080D02*
X139534900Y-77632560D01*
X139534900Y-77632560D02*
X139082780Y-77282040D01*
X139082780Y-77282040D02*
X138633200Y-77231240D01*
X138633200Y-77231240D02*
X138234420Y-77332840D01*
X138234420Y-77332840D02*
X137833100Y-77680820D01*
X137833100Y-77680820D02*
X137683240Y-78132940D01*
X137683240Y-78132940D02*
X137734040Y-78630780D01*
X137734040Y-78630780D02*
X137982960Y-78933040D01*
X137982960Y-78933040D02*
X138333480Y-79131160D01*
X138333480Y-79131160D02*
X137982960Y-80131920D01*
X139034520Y-79131160D02*
X139433300Y-80131920D01*
X123707000Y-87844000D02*
X123707000Y-85844000D01*
X121657000Y-85844000D02*
X121657000Y-87844000D01*
X118203600Y-81847800D02*
X120203600Y-81847800D01*
X120203600Y-79797800D02*
X118203600Y-79797800D01*
X133080000Y-84382500D02*
X131080000Y-84382500D01*
X131080000Y-86432500D02*
X133080000Y-86432500D01*
X130974029Y-95257881D02*
X130497838Y-95257881D01*
X130497838Y-94257881D01*
X131307362Y-94734071D02*
X131640696Y-94734071D01*
X131783553Y-95257881D02*
X131307362Y-95257881D01*
X131307362Y-94257881D01*
X131783553Y-94257881D01*
X132212124Y-95257881D02*
X132212124Y-94257881D01*
X132450219Y-94257881D01*
X132593077Y-94305500D01*
X132688315Y-94400738D01*
X132735934Y-94495976D01*
X132783553Y-94686452D01*
X132783553Y-94829310D01*
X132735934Y-95019786D01*
X132688315Y-95115024D01*
X132593077Y-95210262D01*
X132450219Y-95257881D01*
X132212124Y-95257881D01*
X133735934Y-95257881D02*
X133164505Y-95257881D01*
X133450219Y-95257881D02*
X133450219Y-94257881D01*
X133354981Y-94400738D01*
X133259743Y-94495976D01*
X133164505Y-94543595D01*
X131024453Y-98305881D02*
X130548262Y-98305881D01*
X130548262Y-97305881D01*
X131357786Y-97782071D02*
X131691120Y-97782071D01*
X131833977Y-98305881D02*
X131357786Y-98305881D01*
X131357786Y-97305881D01*
X131833977Y-97305881D01*
X132262548Y-98305881D02*
X132262548Y-97305881D01*
X132500643Y-97305881D01*
X132643501Y-97353500D01*
X132738739Y-97448738D01*
X132786358Y-97543976D01*
X132833977Y-97734452D01*
X132833977Y-97877310D01*
X132786358Y-98067786D01*
X132738739Y-98163024D01*
X132643501Y-98258262D01*
X132500643Y-98305881D01*
X132262548Y-98305881D01*
X133214929Y-97401119D02*
X133262548Y-97353500D01*
X133357786Y-97305881D01*
X133595882Y-97305881D01*
X133691120Y-97353500D01*
X133738739Y-97401119D01*
X133786358Y-97496357D01*
X133786358Y-97591595D01*
X133738739Y-97734452D01*
X133167310Y-98305881D01*
X133786358Y-98305881D01*
X131024453Y-101353881D02*
X130548262Y-101353881D01*
X130548262Y-100353881D01*
X131357786Y-100830071D02*
X131691120Y-100830071D01*
X131833977Y-101353881D02*
X131357786Y-101353881D01*
X131357786Y-100353881D01*
X131833977Y-100353881D01*
X132262548Y-101353881D02*
X132262548Y-100353881D01*
X132500643Y-100353881D01*
X132643501Y-100401500D01*
X132738739Y-100496738D01*
X132786358Y-100591976D01*
X132833977Y-100782452D01*
X132833977Y-100925310D01*
X132786358Y-101115786D01*
X132738739Y-101211024D01*
X132643501Y-101306262D01*
X132500643Y-101353881D01*
X132262548Y-101353881D01*
X133167310Y-100353881D02*
X133786358Y-100353881D01*
X133453024Y-100734833D01*
X133595882Y-100734833D01*
X133691120Y-100782452D01*
X133738739Y-100830071D01*
X133786358Y-100925310D01*
X133786358Y-101163405D01*
X133738739Y-101258643D01*
X133691120Y-101306262D01*
X133595882Y-101353881D01*
X133310167Y-101353881D01*
X133214929Y-101306262D01*
X133167310Y-101258643D01*
X124293334Y-81275181D02*
X123960000Y-80798990D01*
X123721905Y-81275181D02*
X123721905Y-80275181D01*
X124102858Y-80275181D01*
X124198096Y-80322800D01*
X124245715Y-80370419D01*
X124293334Y-80465657D01*
X124293334Y-80608514D01*
X124245715Y-80703752D01*
X124198096Y-80751371D01*
X124102858Y-80798990D01*
X123721905Y-80798990D01*
X125245715Y-81275181D02*
X124674286Y-81275181D01*
X124960000Y-81275181D02*
X124960000Y-80275181D01*
X124864762Y-80418038D01*
X124769524Y-80513276D01*
X124674286Y-80560895D01*
X128293834Y-95192871D02*
X127960500Y-94716680D01*
X127722405Y-95192871D02*
X127722405Y-94192871D01*
X128103358Y-94192871D01*
X128198596Y-94240490D01*
X128246215Y-94288109D01*
X128293834Y-94383347D01*
X128293834Y-94526204D01*
X128246215Y-94621442D01*
X128198596Y-94669061D01*
X128103358Y-94716680D01*
X127722405Y-94716680D01*
X128674786Y-94288109D02*
X128722405Y-94240490D01*
X128817643Y-94192871D01*
X129055739Y-94192871D01*
X129150977Y-94240490D01*
X129198596Y-94288109D01*
X129246215Y-94383347D01*
X129246215Y-94478585D01*
X129198596Y-94621442D01*
X128627167Y-95192871D01*
X129246215Y-95192871D01*
X128253962Y-98281543D02*
X127920628Y-97805352D01*
X127682533Y-98281543D02*
X127682533Y-97281543D01*
X128063486Y-97281543D01*
X128158724Y-97329162D01*
X128206343Y-97376781D01*
X128253962Y-97472019D01*
X128253962Y-97614876D01*
X128206343Y-97710114D01*
X128158724Y-97757733D01*
X128063486Y-97805352D01*
X127682533Y-97805352D01*
X128587295Y-97281543D02*
X129206343Y-97281543D01*
X128873009Y-97662495D01*
X129015867Y-97662495D01*
X129111105Y-97710114D01*
X129158724Y-97757733D01*
X129206343Y-97852972D01*
X129206343Y-98091067D01*
X129158724Y-98186305D01*
X129111105Y-98233924D01*
X129015867Y-98281543D01*
X128730152Y-98281543D01*
X128634914Y-98233924D01*
X128587295Y-98186305D01*
X128293834Y-101417381D02*
X127960500Y-100941190D01*
X127722405Y-101417381D02*
X127722405Y-100417381D01*
X128103358Y-100417381D01*
X128198596Y-100465000D01*
X128246215Y-100512619D01*
X128293834Y-100607857D01*
X128293834Y-100750714D01*
X128246215Y-100845952D01*
X128198596Y-100893571D01*
X128103358Y-100941190D01*
X127722405Y-100941190D01*
X129150977Y-100750714D02*
X129150977Y-101417381D01*
X128912881Y-100369762D02*
X128674786Y-101084048D01*
X129293834Y-101084048D01*
X123658334Y-92844881D02*
X123325000Y-92368690D01*
X123086905Y-92844881D02*
X123086905Y-91844881D01*
X123467858Y-91844881D01*
X123563096Y-91892500D01*
X123610715Y-91940119D01*
X123658334Y-92035357D01*
X123658334Y-92178214D01*
X123610715Y-92273452D01*
X123563096Y-92321071D01*
X123467858Y-92368690D01*
X123086905Y-92368690D01*
X124563096Y-91844881D02*
X124086905Y-91844881D01*
X124039286Y-92321071D01*
X124086905Y-92273452D01*
X124182143Y-92225833D01*
X124420239Y-92225833D01*
X124515477Y-92273452D01*
X124563096Y-92321071D01*
X124610715Y-92416310D01*
X124610715Y-92654405D01*
X124563096Y-92749643D01*
X124515477Y-92797262D01*
X124420239Y-92844881D01*
X124182143Y-92844881D01*
X124086905Y-92797262D01*
X124039286Y-92749643D01*
X132230834Y-92209881D02*
X131897500Y-91733690D01*
X131659405Y-92209881D02*
X131659405Y-91209881D01*
X132040358Y-91209881D01*
X132135596Y-91257500D01*
X132183215Y-91305119D01*
X132230834Y-91400357D01*
X132230834Y-91543214D01*
X132183215Y-91638452D01*
X132135596Y-91686071D01*
X132040358Y-91733690D01*
X131659405Y-91733690D01*
X133087977Y-91209881D02*
X132897500Y-91209881D01*
X132802262Y-91257500D01*
X132754643Y-91305119D01*
X132659405Y-91447976D01*
X132611786Y-91638452D01*
X132611786Y-92019405D01*
X132659405Y-92114643D01*
X132707024Y-92162262D01*
X132802262Y-92209881D01*
X132992739Y-92209881D01*
X133087977Y-92162262D01*
X133135596Y-92114643D01*
X133183215Y-92019405D01*
X133183215Y-91781310D01*
X133135596Y-91686071D01*
X133087977Y-91638452D01*
X132992739Y-91590833D01*
X132802262Y-91590833D01*
X132707024Y-91638452D01*
X132659405Y-91686071D01*
X132611786Y-91781310D01*
X130262334Y-92209881D02*
X129929000Y-91733690D01*
X129690905Y-92209881D02*
X129690905Y-91209881D01*
X130071858Y-91209881D01*
X130167096Y-91257500D01*
X130214715Y-91305119D01*
X130262334Y-91400357D01*
X130262334Y-91543214D01*
X130214715Y-91638452D01*
X130167096Y-91686071D01*
X130071858Y-91733690D01*
X129690905Y-91733690D01*
X130595667Y-91209881D02*
X131262334Y-91209881D01*
X130833762Y-92209881D01*
X125993095Y-89939881D02*
X125993095Y-90749405D01*
X126040714Y-90844643D01*
X126088333Y-90892262D01*
X126183571Y-90939881D01*
X126374048Y-90939881D01*
X126469286Y-90892262D01*
X126516905Y-90844643D01*
X126564524Y-90749405D01*
X126564524Y-89939881D01*
X127564524Y-90939881D02*
X126993095Y-90939881D01*
X127278809Y-90939881D02*
X127278809Y-89939881D01*
X127183571Y-90082738D01*
X127088333Y-90177976D01*
X126993095Y-90225595D01*
X123242343Y-90136266D02*
X123289962Y-90183885D01*
X123337581Y-90326742D01*
X123337581Y-90421980D01*
X123289962Y-90564838D01*
X123194724Y-90660076D01*
X123099486Y-90707695D01*
X122909010Y-90755314D01*
X122766152Y-90755314D01*
X122575676Y-90707695D01*
X122480438Y-90660076D01*
X122385200Y-90564838D01*
X122337581Y-90421980D01*
X122337581Y-90326742D01*
X122385200Y-90183885D01*
X122432819Y-90136266D01*
X122432819Y-89755314D02*
X122385200Y-89707695D01*
X122337581Y-89612457D01*
X122337581Y-89374361D01*
X122385200Y-89279123D01*
X122432819Y-89231504D01*
X122528057Y-89183885D01*
X122623295Y-89183885D01*
X122766152Y-89231504D01*
X123337581Y-89802933D01*
X123337581Y-89183885D01*
X115911334Y-81383143D02*
X115863715Y-81430762D01*
X115720858Y-81478381D01*
X115625620Y-81478381D01*
X115482762Y-81430762D01*
X115387524Y-81335524D01*
X115339905Y-81240286D01*
X115292286Y-81049810D01*
X115292286Y-80906952D01*
X115339905Y-80716476D01*
X115387524Y-80621238D01*
X115482762Y-80526000D01*
X115625620Y-80478381D01*
X115720858Y-80478381D01*
X115863715Y-80526000D01*
X115911334Y-80573619D01*
X116863715Y-81478381D02*
X116292286Y-81478381D01*
X116578000Y-81478381D02*
X116578000Y-80478381D01*
X116482762Y-80621238D01*
X116387524Y-80716476D01*
X116292286Y-80764095D01*
X135038934Y-85561443D02*
X134991315Y-85609062D01*
X134848458Y-85656681D01*
X134753220Y-85656681D01*
X134610362Y-85609062D01*
X134515124Y-85513824D01*
X134467505Y-85418586D01*
X134419886Y-85228110D01*
X134419886Y-85085252D01*
X134467505Y-84894776D01*
X134515124Y-84799538D01*
X134610362Y-84704300D01*
X134753220Y-84656681D01*
X134848458Y-84656681D01*
X134991315Y-84704300D01*
X135038934Y-84751919D01*
X135372267Y-84656681D02*
X135991315Y-84656681D01*
X135657981Y-85037633D01*
X135800839Y-85037633D01*
X135896077Y-85085252D01*
X135943696Y-85132871D01*
X135991315Y-85228110D01*
X135991315Y-85466205D01*
X135943696Y-85561443D01*
X135896077Y-85609062D01*
X135800839Y-85656681D01*
X135515124Y-85656681D01*
X135419886Y-85609062D01*
X135372267Y-85561443D01*
%LPC*%
D14*
X120500836Y-78031234D03*
X119850836Y-78031234D03*
X119201736Y-78031234D03*
X118550836Y-78031234D03*
X117900836Y-78031234D03*
D15*
X122400836Y-77806234D03*
D16*
X122750836Y-75356234D03*
D17*
X120400836Y-75356234D03*
X118000836Y-75356234D03*
D15*
X116000836Y-77806234D03*
D16*
X115650836Y-75356234D03*
D18*
X131305600Y-81648400D03*
X129305600Y-81648400D03*
D19*
X133705600Y-76098400D03*
X126905600Y-76098400D03*
D20*
X116840000Y-83820000D03*
D21*
X116840000Y-86360000D03*
X116840000Y-88900000D03*
X116840000Y-91440000D03*
X116840000Y-93980000D03*
X116840000Y-96520000D03*
X116840000Y-99060000D03*
D20*
X139700000Y-83820000D03*
D21*
X139700000Y-86360000D03*
X139700000Y-88900000D03*
X139700000Y-91440000D03*
X139700000Y-93980000D03*
X139700000Y-96520000D03*
X139700000Y-99060000D03*
D22*
X131318000Y-93393490D03*
X132818000Y-93393490D03*
X131318000Y-96432162D03*
X132818000Y-96432162D03*
X131318000Y-99532000D03*
X132818000Y-99532000D03*
D23*
X122783600Y-81865600D03*
X122783600Y-80365600D03*
D22*
X128500000Y-93343490D03*
X127000000Y-93343490D03*
X128460128Y-96432162D03*
X126960128Y-96432162D03*
X128500000Y-99568000D03*
X127000000Y-99568000D03*
D24*
X123380000Y-90900000D03*
X124480000Y-90900000D03*
D23*
X132380000Y-88800000D03*
X132380000Y-90300000D03*
X130530000Y-88850000D03*
X130530000Y-90350000D03*
D25*
X124790000Y-86225000D03*
X124790000Y-86725000D03*
X124790000Y-87225000D03*
X124790000Y-87725000D03*
X124790000Y-88225000D03*
D26*
X125755000Y-89190000D03*
X126255000Y-89190000D03*
X126755000Y-89190000D03*
X127255000Y-89190000D03*
X127755000Y-89190000D03*
D25*
X128720000Y-88225000D03*
X128720000Y-87725000D03*
X128720000Y-87225000D03*
X128720000Y-86725000D03*
X128720000Y-86225000D03*
D26*
X127755000Y-85260000D03*
X127255000Y-85260000D03*
X126755000Y-85260000D03*
X126255000Y-85260000D03*
X125755000Y-85260000D03*
D27*
X127380000Y-87850000D03*
X127380000Y-86600000D03*
X126130000Y-87850000D03*
X126130000Y-86600000D03*
D28*
X122682000Y-85344000D03*
X122682000Y-88344000D03*
D29*
X120703600Y-80822800D03*
X117703600Y-80822800D03*
X130580000Y-85407500D03*
X133580000Y-85407500D03*
M02*
