%TF.GenerationSoftware,KiCad,Pcbnew,4.0.5-e0-6337~49~ubuntu16.04.1*%
%TF.CreationDate,2017-07-20T10:54:41-07:00*%
%TF.ProjectId,mcp73871-battery-mgmt-breakout,6D637037333837312D62617474657279,1.0*%
%TF.FileFunction,Legend,Bot*%
%FSLAX46Y46*%
G04 Gerber Fmt 4.6, Leading zero omitted, Abs format (unit mm)*
G04 Created by KiCad (PCBNEW 4.0.5-e0-6337~49~ubuntu16.04.1) date Thu Jul 20 10:54:41 2017*
%MOMM*%
%LPD*%
G01*
G04 APERTURE LIST*
%ADD10C,0.350000*%
%ADD11C,0.152400*%
%ADD12C,0.203200*%
%ADD13C,1.352400*%
%ADD14R,2.184400X1.879600*%
%ADD15O,2.184400X1.879600*%
G04 APERTURE END LIST*
D10*
D11*
X133507237Y-99604286D02*
X133313713Y-100281619D01*
X133120190Y-99797810D01*
X132926666Y-100281619D01*
X132733142Y-99604286D01*
X132346094Y-100281619D02*
X132346094Y-99604286D01*
X132346094Y-99265619D02*
X132394475Y-99314000D01*
X132346094Y-99362381D01*
X132297713Y-99314000D01*
X132346094Y-99265619D01*
X132346094Y-99362381D01*
X131426856Y-100233238D02*
X131523618Y-100281619D01*
X131717141Y-100281619D01*
X131813903Y-100233238D01*
X131862284Y-100184857D01*
X131910665Y-100088095D01*
X131910665Y-99797810D01*
X131862284Y-99701048D01*
X131813903Y-99652667D01*
X131717141Y-99604286D01*
X131523618Y-99604286D01*
X131426856Y-99652667D01*
X130991427Y-100281619D02*
X130991427Y-99265619D01*
X130894665Y-99894571D02*
X130604380Y-100281619D01*
X130604380Y-99604286D02*
X130991427Y-99991333D01*
X129781904Y-100233238D02*
X129878666Y-100281619D01*
X130072189Y-100281619D01*
X130168951Y-100233238D01*
X130217332Y-100136476D01*
X130217332Y-99749429D01*
X130168951Y-99652667D01*
X130072189Y-99604286D01*
X129878666Y-99604286D01*
X129781904Y-99652667D01*
X129733523Y-99749429D01*
X129733523Y-99846190D01*
X130217332Y-99942952D01*
X129298094Y-100281619D02*
X129298094Y-99604286D01*
X129298094Y-99797810D02*
X129249713Y-99701048D01*
X129201332Y-99652667D01*
X129104570Y-99604286D01*
X129007809Y-99604286D01*
X128669142Y-100281619D02*
X128669142Y-99265619D01*
X128669142Y-99652667D02*
X128572380Y-99604286D01*
X128378857Y-99604286D01*
X128282095Y-99652667D01*
X128233714Y-99701048D01*
X128185333Y-99797810D01*
X128185333Y-100088095D01*
X128233714Y-100184857D01*
X128282095Y-100233238D01*
X128378857Y-100281619D01*
X128572380Y-100281619D01*
X128669142Y-100233238D01*
X127604761Y-100281619D02*
X127701523Y-100233238D01*
X127749904Y-100184857D01*
X127798285Y-100088095D01*
X127798285Y-99797810D01*
X127749904Y-99701048D01*
X127701523Y-99652667D01*
X127604761Y-99604286D01*
X127459619Y-99604286D01*
X127362857Y-99652667D01*
X127314476Y-99701048D01*
X127266095Y-99797810D01*
X127266095Y-100088095D01*
X127314476Y-100184857D01*
X127362857Y-100233238D01*
X127459619Y-100281619D01*
X127604761Y-100281619D01*
X126927428Y-100281619D02*
X126395238Y-99604286D01*
X126927428Y-99604286D02*
X126395238Y-100281619D01*
X126008190Y-100184857D02*
X125959809Y-100233238D01*
X126008190Y-100281619D01*
X126056571Y-100233238D01*
X126008190Y-100184857D01*
X126008190Y-100281619D01*
X125524380Y-99604286D02*
X125524380Y-100281619D01*
X125524380Y-99701048D02*
X125475999Y-99652667D01*
X125379237Y-99604286D01*
X125234095Y-99604286D01*
X125137333Y-99652667D01*
X125088952Y-99749429D01*
X125088952Y-100281619D01*
X124218095Y-100233238D02*
X124314857Y-100281619D01*
X124508380Y-100281619D01*
X124605142Y-100233238D01*
X124653523Y-100136476D01*
X124653523Y-99749429D01*
X124605142Y-99652667D01*
X124508380Y-99604286D01*
X124314857Y-99604286D01*
X124218095Y-99652667D01*
X124169714Y-99749429D01*
X124169714Y-99846190D01*
X124653523Y-99942952D01*
X123879428Y-99604286D02*
X123492380Y-99604286D01*
X123734285Y-99265619D02*
X123734285Y-100136476D01*
X123685904Y-100233238D01*
X123589142Y-100281619D01*
X123492380Y-100281619D01*
D12*
X141181667Y-76661433D02*
X141181667Y-75416833D01*
X140766800Y-76305833D01*
X140351933Y-75416833D01*
X140351933Y-76661433D01*
X139048067Y-76542900D02*
X139107333Y-76602167D01*
X139285133Y-76661433D01*
X139403667Y-76661433D01*
X139581467Y-76602167D01*
X139700000Y-76483633D01*
X139759267Y-76365100D01*
X139818533Y-76128033D01*
X139818533Y-75950233D01*
X139759267Y-75713167D01*
X139700000Y-75594633D01*
X139581467Y-75476100D01*
X139403667Y-75416833D01*
X139285133Y-75416833D01*
X139107333Y-75476100D01*
X139048067Y-75535367D01*
X138514667Y-76661433D02*
X138514667Y-75416833D01*
X138040533Y-75416833D01*
X137922000Y-75476100D01*
X137862733Y-75535367D01*
X137803467Y-75653900D01*
X137803467Y-75831700D01*
X137862733Y-75950233D01*
X137922000Y-76009500D01*
X138040533Y-76068767D01*
X138514667Y-76068767D01*
X137388600Y-75416833D02*
X136558867Y-75416833D01*
X137092267Y-76661433D01*
X136203267Y-75416833D02*
X135432800Y-75416833D01*
X135847667Y-75890967D01*
X135669867Y-75890967D01*
X135551334Y-75950233D01*
X135492067Y-76009500D01*
X135432800Y-76128033D01*
X135432800Y-76424367D01*
X135492067Y-76542900D01*
X135551334Y-76602167D01*
X135669867Y-76661433D01*
X136025467Y-76661433D01*
X136144000Y-76602167D01*
X136203267Y-76542900D01*
X134721601Y-75950233D02*
X134840134Y-75890967D01*
X134899401Y-75831700D01*
X134958667Y-75713167D01*
X134958667Y-75653900D01*
X134899401Y-75535367D01*
X134840134Y-75476100D01*
X134721601Y-75416833D01*
X134484534Y-75416833D01*
X134366001Y-75476100D01*
X134306734Y-75535367D01*
X134247467Y-75653900D01*
X134247467Y-75713167D01*
X134306734Y-75831700D01*
X134366001Y-75890967D01*
X134484534Y-75950233D01*
X134721601Y-75950233D01*
X134840134Y-76009500D01*
X134899401Y-76068767D01*
X134958667Y-76187300D01*
X134958667Y-76424367D01*
X134899401Y-76542900D01*
X134840134Y-76602167D01*
X134721601Y-76661433D01*
X134484534Y-76661433D01*
X134366001Y-76602167D01*
X134306734Y-76542900D01*
X134247467Y-76424367D01*
X134247467Y-76187300D01*
X134306734Y-76068767D01*
X134366001Y-76009500D01*
X134484534Y-75950233D01*
X133832601Y-75416833D02*
X133002868Y-75416833D01*
X133536268Y-76661433D01*
X131876801Y-76661433D02*
X132588001Y-76661433D01*
X132232401Y-76661433D02*
X132232401Y-75416833D01*
X132350935Y-75594633D01*
X132469468Y-75713167D01*
X132588001Y-75772433D01*
X129980268Y-76009500D02*
X129802468Y-76068767D01*
X129743201Y-76128033D01*
X129683935Y-76246567D01*
X129683935Y-76424367D01*
X129743201Y-76542900D01*
X129802468Y-76602167D01*
X129921001Y-76661433D01*
X130395135Y-76661433D01*
X130395135Y-75416833D01*
X129980268Y-75416833D01*
X129861735Y-75476100D01*
X129802468Y-75535367D01*
X129743201Y-75653900D01*
X129743201Y-75772433D01*
X129802468Y-75890967D01*
X129861735Y-75950233D01*
X129980268Y-76009500D01*
X130395135Y-76009500D01*
X128617135Y-76661433D02*
X128617135Y-76009500D01*
X128676401Y-75890967D01*
X128794935Y-75831700D01*
X129032001Y-75831700D01*
X129150535Y-75890967D01*
X128617135Y-76602167D02*
X128735668Y-76661433D01*
X129032001Y-76661433D01*
X129150535Y-76602167D01*
X129209801Y-76483633D01*
X129209801Y-76365100D01*
X129150535Y-76246567D01*
X129032001Y-76187300D01*
X128735668Y-76187300D01*
X128617135Y-76128033D01*
X128202268Y-75831700D02*
X127728134Y-75831700D01*
X128024468Y-75416833D02*
X128024468Y-76483633D01*
X127965201Y-76602167D01*
X127846668Y-76661433D01*
X127728134Y-76661433D01*
X127491068Y-75831700D02*
X127016934Y-75831700D01*
X127313268Y-75416833D02*
X127313268Y-76483633D01*
X127254001Y-76602167D01*
X127135468Y-76661433D01*
X127016934Y-76661433D01*
X126127934Y-76602167D02*
X126246468Y-76661433D01*
X126483534Y-76661433D01*
X126602068Y-76602167D01*
X126661334Y-76483633D01*
X126661334Y-76009500D01*
X126602068Y-75890967D01*
X126483534Y-75831700D01*
X126246468Y-75831700D01*
X126127934Y-75890967D01*
X126068668Y-76009500D01*
X126068668Y-76128033D01*
X126661334Y-76246567D01*
X125535268Y-76661433D02*
X125535268Y-75831700D01*
X125535268Y-76068767D02*
X125476001Y-75950233D01*
X125416734Y-75890967D01*
X125298201Y-75831700D01*
X125179668Y-75831700D01*
X124883334Y-75831700D02*
X124587001Y-76661433D01*
X124290667Y-75831700D02*
X124587001Y-76661433D01*
X124705534Y-76957767D01*
X124764801Y-77017033D01*
X124883334Y-77076300D01*
X141181667Y-78731533D02*
X141181667Y-77486933D01*
X140766800Y-78375933D01*
X140351933Y-77486933D01*
X140351933Y-78731533D01*
X139225867Y-78731533D02*
X139225867Y-78079600D01*
X139285133Y-77961067D01*
X139403667Y-77901800D01*
X139640733Y-77901800D01*
X139759267Y-77961067D01*
X139225867Y-78672267D02*
X139344400Y-78731533D01*
X139640733Y-78731533D01*
X139759267Y-78672267D01*
X139818533Y-78553733D01*
X139818533Y-78435200D01*
X139759267Y-78316667D01*
X139640733Y-78257400D01*
X139344400Y-78257400D01*
X139225867Y-78198133D01*
X138633200Y-77901800D02*
X138633200Y-78731533D01*
X138633200Y-78020333D02*
X138573933Y-77961067D01*
X138455400Y-77901800D01*
X138277600Y-77901800D01*
X138159066Y-77961067D01*
X138099800Y-78079600D01*
X138099800Y-78731533D01*
X136973733Y-78731533D02*
X136973733Y-78079600D01*
X137032999Y-77961067D01*
X137151533Y-77901800D01*
X137388599Y-77901800D01*
X137507133Y-77961067D01*
X136973733Y-78672267D02*
X137092266Y-78731533D01*
X137388599Y-78731533D01*
X137507133Y-78672267D01*
X137566399Y-78553733D01*
X137566399Y-78435200D01*
X137507133Y-78316667D01*
X137388599Y-78257400D01*
X137092266Y-78257400D01*
X136973733Y-78198133D01*
X135847666Y-77901800D02*
X135847666Y-78909333D01*
X135906932Y-79027867D01*
X135966199Y-79087133D01*
X136084732Y-79146400D01*
X136262532Y-79146400D01*
X136381066Y-79087133D01*
X135847666Y-78672267D02*
X135966199Y-78731533D01*
X136203266Y-78731533D01*
X136321799Y-78672267D01*
X136381066Y-78613000D01*
X136440332Y-78494467D01*
X136440332Y-78138867D01*
X136381066Y-78020333D01*
X136321799Y-77961067D01*
X136203266Y-77901800D01*
X135966199Y-77901800D01*
X135847666Y-77961067D01*
X134780865Y-78672267D02*
X134899399Y-78731533D01*
X135136465Y-78731533D01*
X135254999Y-78672267D01*
X135314265Y-78553733D01*
X135314265Y-78079600D01*
X135254999Y-77961067D01*
X135136465Y-77901800D01*
X134899399Y-77901800D01*
X134780865Y-77961067D01*
X134721599Y-78079600D01*
X134721599Y-78198133D01*
X135314265Y-78316667D01*
X134188199Y-78731533D02*
X134188199Y-77901800D01*
X134188199Y-78020333D02*
X134128932Y-77961067D01*
X134010399Y-77901800D01*
X133832599Y-77901800D01*
X133714065Y-77961067D01*
X133654799Y-78079600D01*
X133654799Y-78731533D01*
X133654799Y-78079600D02*
X133595532Y-77961067D01*
X133476999Y-77901800D01*
X133299199Y-77901800D01*
X133180665Y-77961067D01*
X133121399Y-78079600D01*
X133121399Y-78731533D01*
X132054598Y-78672267D02*
X132173132Y-78731533D01*
X132410198Y-78731533D01*
X132528732Y-78672267D01*
X132587998Y-78553733D01*
X132587998Y-78079600D01*
X132528732Y-77961067D01*
X132410198Y-77901800D01*
X132173132Y-77901800D01*
X132054598Y-77961067D01*
X131995332Y-78079600D01*
X131995332Y-78198133D01*
X132587998Y-78316667D01*
X131461932Y-77901800D02*
X131461932Y-78731533D01*
X131461932Y-78020333D02*
X131402665Y-77961067D01*
X131284132Y-77901800D01*
X131106332Y-77901800D01*
X130987798Y-77961067D01*
X130928532Y-78079600D01*
X130928532Y-78731533D01*
X130513665Y-77901800D02*
X130039531Y-77901800D01*
X130335865Y-77486933D02*
X130335865Y-78553733D01*
X130276598Y-78672267D01*
X130158065Y-78731533D01*
X130039531Y-78731533D01*
X140766800Y-80149700D02*
X140589000Y-80208967D01*
X140529733Y-80268233D01*
X140470467Y-80386767D01*
X140470467Y-80564567D01*
X140529733Y-80683100D01*
X140589000Y-80742367D01*
X140707533Y-80801633D01*
X141181667Y-80801633D01*
X141181667Y-79557033D01*
X140766800Y-79557033D01*
X140648267Y-79616300D01*
X140589000Y-79675567D01*
X140529733Y-79794100D01*
X140529733Y-79912633D01*
X140589000Y-80031167D01*
X140648267Y-80090433D01*
X140766800Y-80149700D01*
X141181667Y-80149700D01*
X139937067Y-80801633D02*
X139937067Y-79971900D01*
X139937067Y-80208967D02*
X139877800Y-80090433D01*
X139818533Y-80031167D01*
X139700000Y-79971900D01*
X139581467Y-79971900D01*
X138692466Y-80742367D02*
X138811000Y-80801633D01*
X139048066Y-80801633D01*
X139166600Y-80742367D01*
X139225866Y-80623833D01*
X139225866Y-80149700D01*
X139166600Y-80031167D01*
X139048066Y-79971900D01*
X138811000Y-79971900D01*
X138692466Y-80031167D01*
X138633200Y-80149700D01*
X138633200Y-80268233D01*
X139225866Y-80386767D01*
X137566400Y-80801633D02*
X137566400Y-80149700D01*
X137625666Y-80031167D01*
X137744200Y-79971900D01*
X137981266Y-79971900D01*
X138099800Y-80031167D01*
X137566400Y-80742367D02*
X137684933Y-80801633D01*
X137981266Y-80801633D01*
X138099800Y-80742367D01*
X138159066Y-80623833D01*
X138159066Y-80505300D01*
X138099800Y-80386767D01*
X137981266Y-80327500D01*
X137684933Y-80327500D01*
X137566400Y-80268233D01*
X136973733Y-80801633D02*
X136973733Y-79557033D01*
X136855199Y-80327500D02*
X136499599Y-80801633D01*
X136499599Y-79971900D02*
X136973733Y-80446033D01*
X135788400Y-80801633D02*
X135906933Y-80742367D01*
X135966200Y-80683100D01*
X136025466Y-80564567D01*
X136025466Y-80208967D01*
X135966200Y-80090433D01*
X135906933Y-80031167D01*
X135788400Y-79971900D01*
X135610600Y-79971900D01*
X135492066Y-80031167D01*
X135432800Y-80090433D01*
X135373533Y-80208967D01*
X135373533Y-80564567D01*
X135432800Y-80683100D01*
X135492066Y-80742367D01*
X135610600Y-80801633D01*
X135788400Y-80801633D01*
X134306733Y-79971900D02*
X134306733Y-80801633D01*
X134840133Y-79971900D02*
X134840133Y-80623833D01*
X134780866Y-80742367D01*
X134662333Y-80801633D01*
X134484533Y-80801633D01*
X134365999Y-80742367D01*
X134306733Y-80683100D01*
X133891866Y-79971900D02*
X133417732Y-79971900D01*
X133714066Y-79557033D02*
X133714066Y-80623833D01*
X133654799Y-80742367D01*
X133536266Y-80801633D01*
X133417732Y-80801633D01*
X132173132Y-79971900D02*
X131876799Y-80801633D01*
X131580465Y-79971900D01*
X130454398Y-80801633D02*
X131165598Y-80801633D01*
X130809998Y-80801633D02*
X130809998Y-79557033D01*
X130928532Y-79734833D01*
X131047065Y-79853367D01*
X131165598Y-79912633D01*
X129920999Y-80683100D02*
X129861732Y-80742367D01*
X129920999Y-80801633D01*
X129980265Y-80742367D01*
X129920999Y-80683100D01*
X129920999Y-80801633D01*
X129091265Y-79557033D02*
X128972732Y-79557033D01*
X128854198Y-79616300D01*
X128794932Y-79675567D01*
X128735665Y-79794100D01*
X128676398Y-80031167D01*
X128676398Y-80327500D01*
X128735665Y-80564567D01*
X128794932Y-80683100D01*
X128854198Y-80742367D01*
X128972732Y-80801633D01*
X129091265Y-80801633D01*
X129209798Y-80742367D01*
X129269065Y-80683100D01*
X129328332Y-80564567D01*
X129387598Y-80327500D01*
X129387598Y-80031167D01*
X129328332Y-79794100D01*
X129269065Y-79675567D01*
X129209798Y-79616300D01*
X129091265Y-79557033D01*
%LPC*%
D13*
X122750836Y-75356234D03*
X115650836Y-75356234D03*
D14*
X116840000Y-83820000D03*
D15*
X116840000Y-86360000D03*
X116840000Y-88900000D03*
X116840000Y-91440000D03*
X116840000Y-93980000D03*
X116840000Y-96520000D03*
X116840000Y-99060000D03*
D14*
X139700000Y-83820000D03*
D15*
X139700000Y-86360000D03*
X139700000Y-88900000D03*
X139700000Y-91440000D03*
X139700000Y-93980000D03*
X139700000Y-96520000D03*
X139700000Y-99060000D03*
M02*
