M48
;DRILL file {KiCad 4.0.5-e0-6337~49~ubuntu16.04.1} date Thu Jul 20 10:50:06 2017
;FORMAT={-:-/ absolute / metric / decimal}
FMAT,2
METRIC,TZ
T1C0.330
T2C1.016
T3C1.200
%
G90
G05
M71
T1
X116.484Y-80.162
X121.221Y-87.82
X122.428Y-87.376
X123.544Y-86.41
X123.663Y-87.291
X125.082Y-91.859
X125.273Y-84.176
X125.752Y-87.222
X126.746Y-83.414
X126.765Y-86.222
X126.78Y-87.2
X126.783Y-88.228
X127.Y-97.282
X127.254Y-94.488
X127.758Y-87.255
X127.762Y-91.948
X127.928Y-90.17
X128.118Y-81.686
X128.422Y-88.825
X129.231Y-83.96
X129.286Y-79.096
X131.47Y-90.373
X132.818Y-92.773
X133.534Y-84.066
X133.985Y-91.44
X134.112Y-93.98
X134.112Y-95.758
X135.076Y-85.738
T2
X116.84Y-83.82
X116.84Y-86.36
X116.84Y-88.9
X116.84Y-91.44
X116.84Y-93.98
X116.84Y-96.52
X116.84Y-99.06
X139.7Y-83.82
X139.7Y-86.36
X139.7Y-88.9
X139.7Y-91.44
X139.7Y-93.98
X139.7Y-96.52
X139.7Y-99.06
T3
X115.651Y-75.356
X122.751Y-75.356
T0
M30
