%TF.GenerationSoftware,KiCad,Pcbnew,4.0.5-e0-6337~49~ubuntu16.04.1*%
%TF.CreationDate,2017-07-20T10:50:06-07:00*%
%TF.ProjectId,mcp73871-battery-mgmt-breakout,6D637037333837312D62617474657279,1.0*%
%TF.FileFunction,Copper,L2,Bot,Signal*%
%FSLAX46Y46*%
G04 Gerber Fmt 4.6, Leading zero omitted, Abs format (unit mm)*
G04 Created by KiCad (PCBNEW 4.0.5-e0-6337~49~ubuntu16.04.1) date Thu Jul 20 10:50:06 2017*
%MOMM*%
%LPD*%
G01*
G04 APERTURE LIST*
%ADD10C,0.350000*%
%ADD11C,1.200000*%
%ADD12R,2.032000X1.727200*%
%ADD13O,2.032000X1.727200*%
%ADD14C,0.685800*%
%ADD15C,0.254000*%
%ADD16C,0.152400*%
%ADD17C,0.330200*%
%ADD18C,0.350000*%
G04 APERTURE END LIST*
D10*
D11*
X122750836Y-75356234D03*
X115650836Y-75356234D03*
D12*
X116840000Y-83820000D03*
D13*
X116840000Y-86360000D03*
X116840000Y-88900000D03*
X116840000Y-91440000D03*
X116840000Y-93980000D03*
X116840000Y-96520000D03*
X116840000Y-99060000D03*
D12*
X139700000Y-83820000D03*
D13*
X139700000Y-86360000D03*
X139700000Y-88900000D03*
X139700000Y-91440000D03*
X139700000Y-93980000D03*
X139700000Y-96520000D03*
X139700000Y-99060000D03*
D14*
X121221500Y-87820500D03*
X133985000Y-91440000D03*
X122428000Y-87376000D03*
X127928110Y-90170000D03*
X129231053Y-83959690D03*
X135076320Y-85737690D03*
X125081890Y-91859110D03*
X133534461Y-84066106D03*
X116484400Y-80162400D03*
X131470400Y-90373200D03*
X128422400Y-88825000D03*
X129286000Y-79095600D03*
X128117600Y-81686400D03*
X127758098Y-87254538D03*
X125751902Y-87221942D03*
X126782981Y-88228098D03*
X126765238Y-86221902D03*
X126780000Y-87200000D03*
X132818000Y-92773500D03*
X123543991Y-86409786D03*
X125272800Y-84175600D03*
X127254000Y-94488000D03*
X134112000Y-95758000D03*
X127000000Y-97282000D03*
X123662903Y-87290806D03*
X134112000Y-93980000D03*
X127762000Y-91948000D03*
X126746000Y-83413600D03*
D15*
X126780000Y-88225117D02*
X126782981Y-88228098D01*
X132842000Y-92329000D02*
X132842000Y-87884000D01*
X132842000Y-92749500D02*
X132818000Y-92773500D01*
X132842000Y-92456000D02*
X132842000Y-92329000D01*
X132842000Y-92329000D02*
X132842000Y-92749500D01*
D16*
X125272800Y-85039200D02*
X124914577Y-85039200D01*
X123886890Y-86066887D02*
X123543991Y-86409786D01*
X124914577Y-85039200D02*
X123886890Y-86066887D01*
D15*
X132842000Y-87884000D02*
X129997200Y-85039200D01*
X129997200Y-85039200D02*
X125272800Y-85039200D01*
D16*
X125272800Y-85039200D02*
X125272800Y-84175600D01*
D15*
X133580933Y-94742000D02*
X127508000Y-94742000D01*
X127508000Y-94742000D02*
X127254000Y-94488000D01*
X134112000Y-95758000D02*
X134112000Y-95273067D01*
X134112000Y-95273067D02*
X133580933Y-94742000D01*
X116840000Y-96520000D02*
X126238000Y-96520000D01*
X126238000Y-96520000D02*
X127000000Y-97282000D01*
X123662903Y-87290806D02*
X122053709Y-88900000D01*
X122053709Y-88900000D02*
X116840000Y-88900000D01*
X134112000Y-93980000D02*
X129794000Y-93980000D01*
X127762000Y-91948000D02*
X129794000Y-93980000D01*
D16*
X130302000Y-84582000D02*
X127914400Y-84582000D01*
X127914400Y-84582000D02*
X126746000Y-83413600D01*
X132080000Y-86360000D02*
X130302000Y-84582000D01*
X139700000Y-86360000D02*
X132080000Y-86360000D01*
D15*
G36*
X121704465Y-74655749D02*
X121516051Y-75109500D01*
X121515622Y-75600813D01*
X121703244Y-76054891D01*
X122050351Y-76402605D01*
X122504102Y-76591019D01*
X122995415Y-76591448D01*
X123449493Y-76403826D01*
X123797207Y-76056719D01*
X123985621Y-75602968D01*
X123986050Y-75111655D01*
X123798428Y-74657577D01*
X123512551Y-74371200D01*
X141528800Y-74371200D01*
X141528800Y-100888800D01*
X115011200Y-100888800D01*
X115011200Y-86360000D01*
X115156655Y-86360000D01*
X115270729Y-86933489D01*
X115595585Y-87419670D01*
X115910366Y-87630000D01*
X115595585Y-87840330D01*
X115270729Y-88326511D01*
X115156655Y-88900000D01*
X115270729Y-89473489D01*
X115595585Y-89959670D01*
X115910366Y-90170000D01*
X115595585Y-90380330D01*
X115270729Y-90866511D01*
X115156655Y-91440000D01*
X115270729Y-92013489D01*
X115595585Y-92499670D01*
X115910366Y-92710000D01*
X115595585Y-92920330D01*
X115270729Y-93406511D01*
X115156655Y-93980000D01*
X115270729Y-94553489D01*
X115595585Y-95039670D01*
X115910366Y-95250000D01*
X115595585Y-95460330D01*
X115270729Y-95946511D01*
X115156655Y-96520000D01*
X115270729Y-97093489D01*
X115595585Y-97579670D01*
X115910366Y-97790000D01*
X115595585Y-98000330D01*
X115270729Y-98486511D01*
X115156655Y-99060000D01*
X115270729Y-99633489D01*
X115595585Y-100119670D01*
X116081766Y-100444526D01*
X116655255Y-100558600D01*
X117024745Y-100558600D01*
X117598234Y-100444526D01*
X118084415Y-100119670D01*
X118409271Y-99633489D01*
X118451930Y-99419026D01*
X138092642Y-99419026D01*
X138095291Y-99434791D01*
X138349268Y-99962036D01*
X138785680Y-100351954D01*
X139338087Y-100545184D01*
X139573000Y-100400924D01*
X139573000Y-99187000D01*
X139827000Y-99187000D01*
X139827000Y-100400924D01*
X140061913Y-100545184D01*
X140614320Y-100351954D01*
X141050732Y-99962036D01*
X141304709Y-99434791D01*
X141307358Y-99419026D01*
X141186217Y-99187000D01*
X139827000Y-99187000D01*
X139573000Y-99187000D01*
X138213783Y-99187000D01*
X138092642Y-99419026D01*
X118451930Y-99419026D01*
X118523345Y-99060000D01*
X118409271Y-98486511D01*
X118084415Y-98000330D01*
X117769634Y-97790000D01*
X118084415Y-97579670D01*
X118283312Y-97282000D01*
X125922370Y-97282000D01*
X126022013Y-97381643D01*
X126021931Y-97475663D01*
X126170493Y-97835212D01*
X126445341Y-98110540D01*
X126804630Y-98259730D01*
X127193663Y-98260069D01*
X127553212Y-98111507D01*
X127828540Y-97836659D01*
X127977730Y-97477370D01*
X127978069Y-97088337D01*
X127829507Y-96728788D01*
X127554659Y-96453460D01*
X127195370Y-96304270D01*
X127099817Y-96304187D01*
X126776815Y-95981185D01*
X126724922Y-95946511D01*
X126529605Y-95816004D01*
X126238000Y-95758000D01*
X118283312Y-95758000D01*
X118084415Y-95460330D01*
X117769634Y-95250000D01*
X118084415Y-95039670D01*
X118409271Y-94553489D01*
X118523345Y-93980000D01*
X118409271Y-93406511D01*
X118084415Y-92920330D01*
X117769634Y-92710000D01*
X118084415Y-92499670D01*
X118409271Y-92013489D01*
X118523345Y-91440000D01*
X118409271Y-90866511D01*
X118084415Y-90380330D01*
X117769634Y-90170000D01*
X118084415Y-89959670D01*
X118283312Y-89662000D01*
X122053709Y-89662000D01*
X122345314Y-89603996D01*
X122592524Y-89438815D01*
X123762546Y-88268793D01*
X123856566Y-88268875D01*
X124216115Y-88120313D01*
X124491443Y-87845465D01*
X124640633Y-87486176D01*
X124640972Y-87097143D01*
X124492410Y-86737594D01*
X124474272Y-86719425D01*
X124521721Y-86605156D01*
X124521867Y-86437698D01*
X125177351Y-85782214D01*
X125272800Y-85801200D01*
X129681570Y-85801200D01*
X132080000Y-88199631D01*
X132080000Y-92128459D01*
X131989460Y-92218841D01*
X131840270Y-92578130D01*
X131839931Y-92967163D01*
X131943574Y-93218000D01*
X130109630Y-93218000D01*
X128739987Y-91848357D01*
X128740069Y-91754337D01*
X128591507Y-91394788D01*
X128316659Y-91119460D01*
X127957370Y-90970270D01*
X127568337Y-90969931D01*
X127208788Y-91118493D01*
X126933460Y-91393341D01*
X126784270Y-91752630D01*
X126783931Y-92141663D01*
X126932493Y-92501212D01*
X127207341Y-92776540D01*
X127566630Y-92925730D01*
X127662183Y-92925813D01*
X128716370Y-93980000D01*
X128102188Y-93980000D01*
X128083507Y-93934788D01*
X127808659Y-93659460D01*
X127449370Y-93510270D01*
X127060337Y-93509931D01*
X126700788Y-93658493D01*
X126425460Y-93933341D01*
X126276270Y-94292630D01*
X126275931Y-94681663D01*
X126424493Y-95041212D01*
X126699341Y-95316540D01*
X127058630Y-95465730D01*
X127316735Y-95465955D01*
X127508000Y-95504000D01*
X133158615Y-95504000D01*
X133134270Y-95562630D01*
X133133931Y-95951663D01*
X133282493Y-96311212D01*
X133557341Y-96586540D01*
X133916630Y-96735730D01*
X134305663Y-96736069D01*
X134665212Y-96587507D01*
X134940540Y-96312659D01*
X135089730Y-95953370D01*
X135090069Y-95564337D01*
X134941507Y-95204788D01*
X134840240Y-95103344D01*
X134815996Y-94981462D01*
X134686740Y-94788017D01*
X134940540Y-94534659D01*
X135089730Y-94175370D01*
X135090069Y-93786337D01*
X134941507Y-93426788D01*
X134666659Y-93151460D01*
X134307370Y-93002270D01*
X133918337Y-93001931D01*
X133753766Y-93069930D01*
X133795730Y-92968870D01*
X133796069Y-92579837D01*
X133647507Y-92220288D01*
X133604000Y-92176705D01*
X133604000Y-87884000D01*
X133545996Y-87592395D01*
X133479834Y-87493377D01*
X133380816Y-87345185D01*
X133106831Y-87071200D01*
X138222745Y-87071200D01*
X138455585Y-87419670D01*
X138770366Y-87630000D01*
X138455585Y-87840330D01*
X138130729Y-88326511D01*
X138016655Y-88900000D01*
X138130729Y-89473489D01*
X138455585Y-89959670D01*
X138770366Y-90170000D01*
X138455585Y-90380330D01*
X138130729Y-90866511D01*
X138016655Y-91440000D01*
X138130729Y-92013489D01*
X138455585Y-92499670D01*
X138770366Y-92710000D01*
X138455585Y-92920330D01*
X138130729Y-93406511D01*
X138016655Y-93980000D01*
X138130729Y-94553489D01*
X138455585Y-95039670D01*
X138770366Y-95250000D01*
X138455585Y-95460330D01*
X138130729Y-95946511D01*
X138016655Y-96520000D01*
X138130729Y-97093489D01*
X138455585Y-97579670D01*
X138765069Y-97786461D01*
X138349268Y-98157964D01*
X138095291Y-98685209D01*
X138092642Y-98700974D01*
X138213783Y-98933000D01*
X139573000Y-98933000D01*
X139573000Y-98913000D01*
X139827000Y-98913000D01*
X139827000Y-98933000D01*
X141186217Y-98933000D01*
X141307358Y-98700974D01*
X141304709Y-98685209D01*
X141050732Y-98157964D01*
X140634931Y-97786461D01*
X140944415Y-97579670D01*
X141269271Y-97093489D01*
X141383345Y-96520000D01*
X141269271Y-95946511D01*
X140944415Y-95460330D01*
X140629634Y-95250000D01*
X140944415Y-95039670D01*
X141269271Y-94553489D01*
X141383345Y-93980000D01*
X141269271Y-93406511D01*
X140944415Y-92920330D01*
X140629634Y-92710000D01*
X140944415Y-92499670D01*
X141269271Y-92013489D01*
X141383345Y-91440000D01*
X141269271Y-90866511D01*
X140944415Y-90380330D01*
X140629634Y-90170000D01*
X140944415Y-89959670D01*
X141269271Y-89473489D01*
X141383345Y-88900000D01*
X141269271Y-88326511D01*
X140944415Y-87840330D01*
X140629634Y-87630000D01*
X140944415Y-87419670D01*
X141269271Y-86933489D01*
X141383345Y-86360000D01*
X141269271Y-85786511D01*
X140944415Y-85300330D01*
X140930087Y-85290757D01*
X140951317Y-85286762D01*
X141167441Y-85147690D01*
X141312431Y-84935490D01*
X141363440Y-84683600D01*
X141363440Y-82956400D01*
X141319162Y-82721083D01*
X141180090Y-82504959D01*
X140967890Y-82359969D01*
X140716000Y-82308960D01*
X138684000Y-82308960D01*
X138448683Y-82353238D01*
X138232559Y-82492310D01*
X138087569Y-82704510D01*
X138036560Y-82956400D01*
X138036560Y-84683600D01*
X138080838Y-84918917D01*
X138219910Y-85135041D01*
X138432110Y-85280031D01*
X138473439Y-85288400D01*
X138455585Y-85300330D01*
X138222745Y-85648800D01*
X132374589Y-85648800D01*
X130804894Y-84079106D01*
X130574165Y-83924937D01*
X130302000Y-83870800D01*
X128208988Y-83870800D01*
X127723925Y-83385737D01*
X127724069Y-83219937D01*
X127575507Y-82860388D01*
X127300659Y-82585060D01*
X126941370Y-82435870D01*
X126552337Y-82435531D01*
X126192788Y-82584093D01*
X125917460Y-82858941D01*
X125768270Y-83218230D01*
X125768179Y-83322445D01*
X125468170Y-83197870D01*
X125079137Y-83197531D01*
X124719588Y-83346093D01*
X124444260Y-83620941D01*
X124295070Y-83980230D01*
X124294731Y-84369263D01*
X124377766Y-84570223D01*
X123516128Y-85431861D01*
X123350328Y-85431717D01*
X122990779Y-85580279D01*
X122715451Y-85855127D01*
X122566261Y-86214416D01*
X122565922Y-86603449D01*
X122714484Y-86962998D01*
X122732622Y-86981167D01*
X122685173Y-87095436D01*
X122685090Y-87190989D01*
X121738079Y-88138000D01*
X118283312Y-88138000D01*
X118084415Y-87840330D01*
X117769634Y-87630000D01*
X118084415Y-87419670D01*
X118409271Y-86933489D01*
X118523345Y-86360000D01*
X118409271Y-85786511D01*
X118084415Y-85300330D01*
X118070087Y-85290757D01*
X118091317Y-85286762D01*
X118307441Y-85147690D01*
X118452431Y-84935490D01*
X118503440Y-84683600D01*
X118503440Y-82956400D01*
X118459162Y-82721083D01*
X118320090Y-82504959D01*
X118107890Y-82359969D01*
X117856000Y-82308960D01*
X115824000Y-82308960D01*
X115588683Y-82353238D01*
X115372559Y-82492310D01*
X115227569Y-82704510D01*
X115176560Y-82956400D01*
X115176560Y-84683600D01*
X115220838Y-84918917D01*
X115359910Y-85135041D01*
X115572110Y-85280031D01*
X115613439Y-85288400D01*
X115595585Y-85300330D01*
X115270729Y-85786511D01*
X115156655Y-86360000D01*
X115011200Y-86360000D01*
X115011200Y-76427872D01*
X115404102Y-76591019D01*
X115895415Y-76591448D01*
X116349493Y-76403826D01*
X116697207Y-76056719D01*
X116885621Y-75602968D01*
X116886050Y-75111655D01*
X116698428Y-74657577D01*
X116412551Y-74371200D01*
X121989512Y-74371200D01*
X121704465Y-74655749D01*
X121704465Y-74655749D01*
G37*
X121704465Y-74655749D02*
X121516051Y-75109500D01*
X121515622Y-75600813D01*
X121703244Y-76054891D01*
X122050351Y-76402605D01*
X122504102Y-76591019D01*
X122995415Y-76591448D01*
X123449493Y-76403826D01*
X123797207Y-76056719D01*
X123985621Y-75602968D01*
X123986050Y-75111655D01*
X123798428Y-74657577D01*
X123512551Y-74371200D01*
X141528800Y-74371200D01*
X141528800Y-100888800D01*
X115011200Y-100888800D01*
X115011200Y-86360000D01*
X115156655Y-86360000D01*
X115270729Y-86933489D01*
X115595585Y-87419670D01*
X115910366Y-87630000D01*
X115595585Y-87840330D01*
X115270729Y-88326511D01*
X115156655Y-88900000D01*
X115270729Y-89473489D01*
X115595585Y-89959670D01*
X115910366Y-90170000D01*
X115595585Y-90380330D01*
X115270729Y-90866511D01*
X115156655Y-91440000D01*
X115270729Y-92013489D01*
X115595585Y-92499670D01*
X115910366Y-92710000D01*
X115595585Y-92920330D01*
X115270729Y-93406511D01*
X115156655Y-93980000D01*
X115270729Y-94553489D01*
X115595585Y-95039670D01*
X115910366Y-95250000D01*
X115595585Y-95460330D01*
X115270729Y-95946511D01*
X115156655Y-96520000D01*
X115270729Y-97093489D01*
X115595585Y-97579670D01*
X115910366Y-97790000D01*
X115595585Y-98000330D01*
X115270729Y-98486511D01*
X115156655Y-99060000D01*
X115270729Y-99633489D01*
X115595585Y-100119670D01*
X116081766Y-100444526D01*
X116655255Y-100558600D01*
X117024745Y-100558600D01*
X117598234Y-100444526D01*
X118084415Y-100119670D01*
X118409271Y-99633489D01*
X118451930Y-99419026D01*
X138092642Y-99419026D01*
X138095291Y-99434791D01*
X138349268Y-99962036D01*
X138785680Y-100351954D01*
X139338087Y-100545184D01*
X139573000Y-100400924D01*
X139573000Y-99187000D01*
X139827000Y-99187000D01*
X139827000Y-100400924D01*
X140061913Y-100545184D01*
X140614320Y-100351954D01*
X141050732Y-99962036D01*
X141304709Y-99434791D01*
X141307358Y-99419026D01*
X141186217Y-99187000D01*
X139827000Y-99187000D01*
X139573000Y-99187000D01*
X138213783Y-99187000D01*
X138092642Y-99419026D01*
X118451930Y-99419026D01*
X118523345Y-99060000D01*
X118409271Y-98486511D01*
X118084415Y-98000330D01*
X117769634Y-97790000D01*
X118084415Y-97579670D01*
X118283312Y-97282000D01*
X125922370Y-97282000D01*
X126022013Y-97381643D01*
X126021931Y-97475663D01*
X126170493Y-97835212D01*
X126445341Y-98110540D01*
X126804630Y-98259730D01*
X127193663Y-98260069D01*
X127553212Y-98111507D01*
X127828540Y-97836659D01*
X127977730Y-97477370D01*
X127978069Y-97088337D01*
X127829507Y-96728788D01*
X127554659Y-96453460D01*
X127195370Y-96304270D01*
X127099817Y-96304187D01*
X126776815Y-95981185D01*
X126724922Y-95946511D01*
X126529605Y-95816004D01*
X126238000Y-95758000D01*
X118283312Y-95758000D01*
X118084415Y-95460330D01*
X117769634Y-95250000D01*
X118084415Y-95039670D01*
X118409271Y-94553489D01*
X118523345Y-93980000D01*
X118409271Y-93406511D01*
X118084415Y-92920330D01*
X117769634Y-92710000D01*
X118084415Y-92499670D01*
X118409271Y-92013489D01*
X118523345Y-91440000D01*
X118409271Y-90866511D01*
X118084415Y-90380330D01*
X117769634Y-90170000D01*
X118084415Y-89959670D01*
X118283312Y-89662000D01*
X122053709Y-89662000D01*
X122345314Y-89603996D01*
X122592524Y-89438815D01*
X123762546Y-88268793D01*
X123856566Y-88268875D01*
X124216115Y-88120313D01*
X124491443Y-87845465D01*
X124640633Y-87486176D01*
X124640972Y-87097143D01*
X124492410Y-86737594D01*
X124474272Y-86719425D01*
X124521721Y-86605156D01*
X124521867Y-86437698D01*
X125177351Y-85782214D01*
X125272800Y-85801200D01*
X129681570Y-85801200D01*
X132080000Y-88199631D01*
X132080000Y-92128459D01*
X131989460Y-92218841D01*
X131840270Y-92578130D01*
X131839931Y-92967163D01*
X131943574Y-93218000D01*
X130109630Y-93218000D01*
X128739987Y-91848357D01*
X128740069Y-91754337D01*
X128591507Y-91394788D01*
X128316659Y-91119460D01*
X127957370Y-90970270D01*
X127568337Y-90969931D01*
X127208788Y-91118493D01*
X126933460Y-91393341D01*
X126784270Y-91752630D01*
X126783931Y-92141663D01*
X126932493Y-92501212D01*
X127207341Y-92776540D01*
X127566630Y-92925730D01*
X127662183Y-92925813D01*
X128716370Y-93980000D01*
X128102188Y-93980000D01*
X128083507Y-93934788D01*
X127808659Y-93659460D01*
X127449370Y-93510270D01*
X127060337Y-93509931D01*
X126700788Y-93658493D01*
X126425460Y-93933341D01*
X126276270Y-94292630D01*
X126275931Y-94681663D01*
X126424493Y-95041212D01*
X126699341Y-95316540D01*
X127058630Y-95465730D01*
X127316735Y-95465955D01*
X127508000Y-95504000D01*
X133158615Y-95504000D01*
X133134270Y-95562630D01*
X133133931Y-95951663D01*
X133282493Y-96311212D01*
X133557341Y-96586540D01*
X133916630Y-96735730D01*
X134305663Y-96736069D01*
X134665212Y-96587507D01*
X134940540Y-96312659D01*
X135089730Y-95953370D01*
X135090069Y-95564337D01*
X134941507Y-95204788D01*
X134840240Y-95103344D01*
X134815996Y-94981462D01*
X134686740Y-94788017D01*
X134940540Y-94534659D01*
X135089730Y-94175370D01*
X135090069Y-93786337D01*
X134941507Y-93426788D01*
X134666659Y-93151460D01*
X134307370Y-93002270D01*
X133918337Y-93001931D01*
X133753766Y-93069930D01*
X133795730Y-92968870D01*
X133796069Y-92579837D01*
X133647507Y-92220288D01*
X133604000Y-92176705D01*
X133604000Y-87884000D01*
X133545996Y-87592395D01*
X133479834Y-87493377D01*
X133380816Y-87345185D01*
X133106831Y-87071200D01*
X138222745Y-87071200D01*
X138455585Y-87419670D01*
X138770366Y-87630000D01*
X138455585Y-87840330D01*
X138130729Y-88326511D01*
X138016655Y-88900000D01*
X138130729Y-89473489D01*
X138455585Y-89959670D01*
X138770366Y-90170000D01*
X138455585Y-90380330D01*
X138130729Y-90866511D01*
X138016655Y-91440000D01*
X138130729Y-92013489D01*
X138455585Y-92499670D01*
X138770366Y-92710000D01*
X138455585Y-92920330D01*
X138130729Y-93406511D01*
X138016655Y-93980000D01*
X138130729Y-94553489D01*
X138455585Y-95039670D01*
X138770366Y-95250000D01*
X138455585Y-95460330D01*
X138130729Y-95946511D01*
X138016655Y-96520000D01*
X138130729Y-97093489D01*
X138455585Y-97579670D01*
X138765069Y-97786461D01*
X138349268Y-98157964D01*
X138095291Y-98685209D01*
X138092642Y-98700974D01*
X138213783Y-98933000D01*
X139573000Y-98933000D01*
X139573000Y-98913000D01*
X139827000Y-98913000D01*
X139827000Y-98933000D01*
X141186217Y-98933000D01*
X141307358Y-98700974D01*
X141304709Y-98685209D01*
X141050732Y-98157964D01*
X140634931Y-97786461D01*
X140944415Y-97579670D01*
X141269271Y-97093489D01*
X141383345Y-96520000D01*
X141269271Y-95946511D01*
X140944415Y-95460330D01*
X140629634Y-95250000D01*
X140944415Y-95039670D01*
X141269271Y-94553489D01*
X141383345Y-93980000D01*
X141269271Y-93406511D01*
X140944415Y-92920330D01*
X140629634Y-92710000D01*
X140944415Y-92499670D01*
X141269271Y-92013489D01*
X141383345Y-91440000D01*
X141269271Y-90866511D01*
X140944415Y-90380330D01*
X140629634Y-90170000D01*
X140944415Y-89959670D01*
X141269271Y-89473489D01*
X141383345Y-88900000D01*
X141269271Y-88326511D01*
X140944415Y-87840330D01*
X140629634Y-87630000D01*
X140944415Y-87419670D01*
X141269271Y-86933489D01*
X141383345Y-86360000D01*
X141269271Y-85786511D01*
X140944415Y-85300330D01*
X140930087Y-85290757D01*
X140951317Y-85286762D01*
X141167441Y-85147690D01*
X141312431Y-84935490D01*
X141363440Y-84683600D01*
X141363440Y-82956400D01*
X141319162Y-82721083D01*
X141180090Y-82504959D01*
X140967890Y-82359969D01*
X140716000Y-82308960D01*
X138684000Y-82308960D01*
X138448683Y-82353238D01*
X138232559Y-82492310D01*
X138087569Y-82704510D01*
X138036560Y-82956400D01*
X138036560Y-84683600D01*
X138080838Y-84918917D01*
X138219910Y-85135041D01*
X138432110Y-85280031D01*
X138473439Y-85288400D01*
X138455585Y-85300330D01*
X138222745Y-85648800D01*
X132374589Y-85648800D01*
X130804894Y-84079106D01*
X130574165Y-83924937D01*
X130302000Y-83870800D01*
X128208988Y-83870800D01*
X127723925Y-83385737D01*
X127724069Y-83219937D01*
X127575507Y-82860388D01*
X127300659Y-82585060D01*
X126941370Y-82435870D01*
X126552337Y-82435531D01*
X126192788Y-82584093D01*
X125917460Y-82858941D01*
X125768270Y-83218230D01*
X125768179Y-83322445D01*
X125468170Y-83197870D01*
X125079137Y-83197531D01*
X124719588Y-83346093D01*
X124444260Y-83620941D01*
X124295070Y-83980230D01*
X124294731Y-84369263D01*
X124377766Y-84570223D01*
X123516128Y-85431861D01*
X123350328Y-85431717D01*
X122990779Y-85580279D01*
X122715451Y-85855127D01*
X122566261Y-86214416D01*
X122565922Y-86603449D01*
X122714484Y-86962998D01*
X122732622Y-86981167D01*
X122685173Y-87095436D01*
X122685090Y-87190989D01*
X121738079Y-88138000D01*
X118283312Y-88138000D01*
X118084415Y-87840330D01*
X117769634Y-87630000D01*
X118084415Y-87419670D01*
X118409271Y-86933489D01*
X118523345Y-86360000D01*
X118409271Y-85786511D01*
X118084415Y-85300330D01*
X118070087Y-85290757D01*
X118091317Y-85286762D01*
X118307441Y-85147690D01*
X118452431Y-84935490D01*
X118503440Y-84683600D01*
X118503440Y-82956400D01*
X118459162Y-82721083D01*
X118320090Y-82504959D01*
X118107890Y-82359969D01*
X117856000Y-82308960D01*
X115824000Y-82308960D01*
X115588683Y-82353238D01*
X115372559Y-82492310D01*
X115227569Y-82704510D01*
X115176560Y-82956400D01*
X115176560Y-84683600D01*
X115220838Y-84918917D01*
X115359910Y-85135041D01*
X115572110Y-85280031D01*
X115613439Y-85288400D01*
X115595585Y-85300330D01*
X115270729Y-85786511D01*
X115156655Y-86360000D01*
X115011200Y-86360000D01*
X115011200Y-76427872D01*
X115404102Y-76591019D01*
X115895415Y-76591448D01*
X116349493Y-76403826D01*
X116697207Y-76056719D01*
X116885621Y-75602968D01*
X116886050Y-75111655D01*
X116698428Y-74657577D01*
X116412551Y-74371200D01*
X121989512Y-74371200D01*
X121704465Y-74655749D01*
D17*
X121221500Y-87820500D03*
X133985000Y-91440000D03*
X122428000Y-87376000D03*
X127928110Y-90170000D03*
X129231053Y-83959690D03*
X135076320Y-85737690D03*
X125081890Y-91859110D03*
X133534461Y-84066106D03*
X116484400Y-80162400D03*
X131470400Y-90373200D03*
X128422400Y-88825000D03*
X129286000Y-79095600D03*
X128117600Y-81686400D03*
X127758098Y-87254538D03*
X125751902Y-87221942D03*
X126782981Y-88228098D03*
X126765238Y-86221902D03*
X126780000Y-87200000D03*
X132818000Y-92773500D03*
X123543991Y-86409786D03*
X125272800Y-84175600D03*
X127254000Y-94488000D03*
X134112000Y-95758000D03*
X127000000Y-97282000D03*
X123662903Y-87290806D03*
X134112000Y-93980000D03*
X127762000Y-91948000D03*
X126746000Y-83413600D03*
D18*
X122750836Y-75356234D03*
X115650836Y-75356234D03*
X116840000Y-83820000D03*
X116840000Y-86360000D03*
X116840000Y-88900000D03*
X116840000Y-91440000D03*
X116840000Y-93980000D03*
X116840000Y-96520000D03*
X116840000Y-99060000D03*
X139700000Y-83820000D03*
X139700000Y-86360000D03*
X139700000Y-88900000D03*
X139700000Y-91440000D03*
X139700000Y-93980000D03*
X139700000Y-96520000D03*
X139700000Y-99060000D03*
M02*
