M48
;DRILL file {KiCad 4.0.5-e0-6337~49~ubuntu16.04.1} date Mon Aug 14 13:56:54 2017
;FORMAT={-:-/ absolute / metric / decimal}
FMAT,2
METRIC,TZ
T1C0.330
T2C1.016
T3C1.200
%
G90
G05
M71
T1
X25.07Y-26.111
X29.807Y-33.769
X31.013Y-33.325
X32.129Y-32.359
X32.248Y-33.24
X33.667Y-37.808
X33.858Y-30.124
X34.337Y-33.171
X35.331Y-29.362
X35.351Y-32.171
X35.365Y-33.149
X35.368Y-34.177
X35.585Y-43.231
X35.839Y-40.437
X36.343Y-33.203
X36.347Y-37.897
X36.514Y-36.119
X36.703Y-27.635
X37.008Y-34.774
X37.816Y-29.908
X37.871Y-25.044
X40.056Y-36.322
X41.403Y-38.722
X42.12Y-30.015
X42.57Y-37.389
X42.697Y-39.929
X42.697Y-41.707
X43.662Y-31.686
T2
X25.425Y-29.769
X25.425Y-32.309
X25.425Y-34.849
X25.425Y-37.389
X25.425Y-39.929
X25.425Y-42.469
X25.425Y-45.009
X48.285Y-29.769
X48.285Y-32.309
X48.285Y-34.849
X48.285Y-37.389
X48.285Y-39.929
X48.285Y-42.469
X48.285Y-45.009
T3
X24.236Y-21.305
X31.336Y-21.305
T0
M30
