%TF.GenerationSoftware,KiCad,Pcbnew,4.0.5-e0-6337~49~ubuntu16.04.1*%
%TF.CreationDate,2017-07-20T10:50:06-07:00*%
%TF.ProjectId,mcp73871-battery-mgmt-breakout,6D637037333837312D62617474657279,1.0*%
%TF.FileFunction,Copper,L1,Top,Signal*%
%FSLAX46Y46*%
G04 Gerber Fmt 4.6, Leading zero omitted, Abs format (unit mm)*
G04 Created by KiCad (PCBNEW 4.0.5-e0-6337~49~ubuntu16.04.1) date Thu Jul 20 10:50:06 2017*
%MOMM*%
%LPD*%
G01*
G04 APERTURE LIST*
%ADD10C,0.350000*%
%ADD11R,1.000000X1.600000*%
%ADD12R,1.600000X1.000000*%
%ADD13R,0.400000X1.350000*%
%ADD14R,1.600000X1.400000*%
%ADD15C,1.200000*%
%ADD16R,1.900000X1.900000*%
%ADD17R,1.000000X3.500000*%
%ADD18R,1.600000X3.400000*%
%ADD19R,2.032000X1.727200*%
%ADD20O,2.032000X1.727200*%
%ADD21R,0.800000X0.750000*%
%ADD22R,0.750000X0.800000*%
%ADD23R,0.600000X0.500000*%
%ADD24R,0.730000X0.300000*%
%ADD25R,0.300000X0.730000*%
%ADD26R,1.250000X1.250000*%
%ADD27C,0.685800*%
%ADD28C,0.330200*%
%ADD29C,0.254000*%
%ADD30C,0.152400*%
%ADD31C,0.508000*%
%ADD32C,0.330200*%
%ADD33C,0.350000*%
G04 APERTURE END LIST*
D10*
D11*
X130580000Y-85407500D03*
X133580000Y-85407500D03*
X120703600Y-80822800D03*
X117703600Y-80822800D03*
D12*
X122682000Y-85344000D03*
X122682000Y-88344000D03*
D13*
X120500836Y-78031234D03*
X119850836Y-78031234D03*
X119201736Y-78031234D03*
X118550836Y-78031234D03*
X117900836Y-78031234D03*
D14*
X122400836Y-77806234D03*
D15*
X122750836Y-75356234D03*
D16*
X120400836Y-75356234D03*
X118000836Y-75356234D03*
D14*
X116000836Y-77806234D03*
D15*
X115650836Y-75356234D03*
D17*
X131305600Y-81648400D03*
X129305600Y-81648400D03*
D18*
X133705600Y-76098400D03*
X126905600Y-76098400D03*
D19*
X116840000Y-83820000D03*
D20*
X116840000Y-86360000D03*
X116840000Y-88900000D03*
X116840000Y-91440000D03*
X116840000Y-93980000D03*
X116840000Y-96520000D03*
X116840000Y-99060000D03*
D19*
X139700000Y-83820000D03*
D20*
X139700000Y-86360000D03*
X139700000Y-88900000D03*
X139700000Y-91440000D03*
X139700000Y-93980000D03*
X139700000Y-96520000D03*
X139700000Y-99060000D03*
D21*
X131318000Y-93393490D03*
X132818000Y-93393490D03*
X131318000Y-96432162D03*
X132818000Y-96432162D03*
X131318000Y-99532000D03*
X132818000Y-99532000D03*
D22*
X122783600Y-81865600D03*
X122783600Y-80365600D03*
D21*
X128500000Y-93343490D03*
X127000000Y-93343490D03*
X128460128Y-96432162D03*
X126960128Y-96432162D03*
X128500000Y-99568000D03*
X127000000Y-99568000D03*
D23*
X123380000Y-90900000D03*
X124480000Y-90900000D03*
D22*
X132380000Y-88800000D03*
X132380000Y-90300000D03*
X130530000Y-88850000D03*
X130530000Y-90350000D03*
D24*
X124790000Y-86225000D03*
X124790000Y-86725000D03*
X124790000Y-87225000D03*
X124790000Y-87725000D03*
X124790000Y-88225000D03*
D25*
X125755000Y-89190000D03*
X126255000Y-89190000D03*
X126755000Y-89190000D03*
X127255000Y-89190000D03*
X127755000Y-89190000D03*
D24*
X128720000Y-88225000D03*
X128720000Y-87725000D03*
X128720000Y-87225000D03*
X128720000Y-86725000D03*
X128720000Y-86225000D03*
D25*
X127755000Y-85260000D03*
X127255000Y-85260000D03*
X126755000Y-85260000D03*
X126255000Y-85260000D03*
X125755000Y-85260000D03*
D26*
X127380000Y-87850000D03*
X127380000Y-86600000D03*
X126130000Y-87850000D03*
X126130000Y-86600000D03*
D27*
X121221500Y-87820500D03*
X133985000Y-91440000D03*
X122428000Y-87376000D03*
X127928110Y-90170000D03*
X129231053Y-83959690D03*
X135076320Y-85737690D03*
X125081890Y-91859110D03*
X133534461Y-84066106D03*
X116484400Y-80162400D03*
X131470400Y-90373200D03*
X128422400Y-88825000D03*
X129286000Y-79095600D03*
X128117600Y-81686400D03*
X127758098Y-87254538D03*
X125751902Y-87221942D03*
X126782981Y-88228098D03*
X126765238Y-86221902D03*
X126780000Y-87200000D03*
X132818000Y-92773500D03*
X123543991Y-86409786D03*
X125272800Y-84175600D03*
X127254000Y-94488000D03*
X134112000Y-95758000D03*
X127000000Y-97282000D03*
X123662903Y-87290806D03*
X134112000Y-93980000D03*
X127762000Y-91948000D03*
X126746000Y-83413600D03*
D28*
X122783600Y-80365600D02*
X121160800Y-80365600D01*
X121160800Y-80365600D02*
X120703600Y-80822800D01*
X120500836Y-78031234D02*
X120500836Y-80620036D01*
X120500836Y-80620036D02*
X120703600Y-80822800D01*
D29*
X122682000Y-88344000D02*
X121745000Y-88344000D01*
X121745000Y-88344000D02*
X121221500Y-87820500D01*
X133985000Y-91440000D02*
X133985000Y-90741500D01*
X132380000Y-90300000D02*
X132972000Y-90300000D01*
X132972000Y-90300000D02*
X134112000Y-91440000D01*
X122682000Y-88344000D02*
X122682000Y-89408000D01*
X122682000Y-88344000D02*
X122682000Y-87630000D01*
X122682000Y-87630000D02*
X122428000Y-87376000D01*
X127755000Y-89996890D02*
X127928110Y-90170000D01*
X127755000Y-89190000D02*
X127755000Y-89996890D01*
X129305600Y-81648400D02*
X129305600Y-83885143D01*
X129305600Y-83885143D02*
X129231053Y-83959690D01*
X135064010Y-85750000D02*
X135076320Y-85737690D01*
X133630000Y-85750000D02*
X135064010Y-85750000D01*
D28*
X124858910Y-91859110D02*
X125081890Y-91859110D01*
X124480000Y-90900000D02*
X124480000Y-91480200D01*
X124480000Y-91480200D02*
X124858910Y-91859110D01*
D30*
X117703600Y-80822800D02*
X117043200Y-80822800D01*
X117043200Y-80822800D02*
X116484400Y-81381600D01*
X117703600Y-80822800D02*
X117051200Y-80822800D01*
X117051200Y-80822800D02*
X116484400Y-80256000D01*
X116484400Y-80256000D02*
X116484400Y-80162400D01*
D28*
X117900836Y-78031234D02*
X117900836Y-80625564D01*
X117900836Y-80625564D02*
X117703600Y-80822800D01*
D30*
X130530000Y-90350000D02*
X131447200Y-90350000D01*
X131447200Y-90350000D02*
X131470400Y-90373200D01*
D29*
X127380000Y-87850000D02*
X127447400Y-87850000D01*
X127447400Y-87850000D02*
X128422400Y-88825000D01*
X133630000Y-85750000D02*
X133630000Y-83997200D01*
X129305600Y-81648400D02*
X129305600Y-79115200D01*
X129305600Y-79115200D02*
X129286000Y-79095600D01*
X129305600Y-81648400D02*
X128155600Y-81648400D01*
X128155600Y-81648400D02*
X128117600Y-81686400D01*
D30*
X128720000Y-88225000D02*
X128720000Y-88527400D01*
X128720000Y-88527400D02*
X128057400Y-89190000D01*
X128057400Y-89190000D02*
X127755000Y-89190000D01*
X128720000Y-88225000D02*
X127755000Y-88225000D01*
X127755000Y-88225000D02*
X127380000Y-87850000D01*
X127755000Y-89190000D02*
X127755000Y-88225000D01*
D29*
X126780000Y-87200000D02*
X127703560Y-87200000D01*
X127703560Y-87200000D02*
X127758098Y-87254538D01*
X126780000Y-87200000D02*
X125773844Y-87200000D01*
X125773844Y-87200000D02*
X125751902Y-87221942D01*
X126780000Y-87200000D02*
X126780000Y-88225117D01*
X126780000Y-87200000D02*
X126780000Y-86236664D01*
X126780000Y-86236664D02*
X126765238Y-86221902D01*
X126780000Y-87200000D02*
X126130000Y-87850000D01*
X127380000Y-86600000D02*
X127380000Y-87479000D01*
X124790000Y-86225000D02*
X124790000Y-85369200D01*
X124790000Y-85369200D02*
X124764800Y-85344000D01*
X122682000Y-85344000D02*
X125671000Y-85344000D01*
X125671000Y-85344000D02*
X125755000Y-85260000D01*
D31*
X122682000Y-85344000D02*
X122077200Y-85344000D01*
X122077200Y-85344000D02*
X121061200Y-86360000D01*
X121061200Y-86360000D02*
X116840000Y-86360000D01*
X122077200Y-85344000D02*
X122377200Y-85344000D01*
X124764800Y-85344000D02*
X125596999Y-85344000D01*
X122377200Y-85344000D02*
X124764800Y-85344000D01*
X124764800Y-85344000D02*
X124764800Y-86066999D01*
D28*
X129955000Y-86725000D02*
X129955000Y-86423500D01*
X129955000Y-86423500D02*
X129955000Y-85779500D01*
D29*
X130580000Y-85407500D02*
X130580000Y-85798500D01*
X130580000Y-85798500D02*
X129955000Y-86423500D01*
X130580000Y-85407500D02*
X130580000Y-85383500D01*
X130580000Y-85383500D02*
X131305600Y-84657900D01*
D28*
X131305600Y-83566000D02*
X131567495Y-83304105D01*
X131567495Y-83304105D02*
X133900222Y-83304105D01*
X133900222Y-83304105D02*
X134416117Y-83820000D01*
X134416117Y-83820000D02*
X139700000Y-83820000D01*
D31*
X131305600Y-81648400D02*
X131305600Y-83566000D01*
X131305600Y-83566000D02*
X131305600Y-84657900D01*
X131305600Y-84657900D02*
X130630000Y-85333500D01*
X130630000Y-85333500D02*
X130630000Y-85750000D01*
D28*
X130630000Y-85750000D02*
X129984500Y-85750000D01*
X129984500Y-85750000D02*
X129799800Y-85750000D01*
X129955000Y-85779500D02*
X129984500Y-85750000D01*
X128720000Y-86225000D02*
X128720000Y-85265500D01*
X128720000Y-85265500D02*
X128714500Y-85260000D01*
X128720000Y-86225000D02*
X128720000Y-86655899D01*
D30*
X128720000Y-86725000D02*
X129489382Y-86725000D01*
X129489382Y-86725000D02*
X129438400Y-86725000D01*
D28*
X129955000Y-86725000D02*
X129489382Y-86725000D01*
X130630000Y-85750000D02*
X130630000Y-86050000D01*
X130630000Y-86050000D02*
X129955000Y-86725000D01*
X129309800Y-85260000D02*
X128714500Y-85260000D01*
X128714500Y-85260000D02*
X127824101Y-85260000D01*
X129799800Y-85750000D02*
X129309800Y-85260000D01*
D29*
X130630000Y-85750000D02*
X130630000Y-85450000D01*
X129955000Y-86725000D02*
X129438400Y-86725000D01*
X128720000Y-86225000D02*
X129997200Y-86225000D01*
X130630000Y-85750000D02*
X130472200Y-85750000D01*
X130472200Y-85750000D02*
X129997200Y-86225000D01*
D30*
X128720000Y-86725000D02*
X128720000Y-86225000D01*
D29*
X128500000Y-93343490D02*
X131268000Y-93343490D01*
X131268000Y-93343490D02*
X131318000Y-93393490D01*
X132818000Y-93393490D02*
X132818000Y-92773500D01*
D30*
X124790000Y-86725000D02*
X124272600Y-86725000D01*
X124272600Y-86725000D02*
X123957386Y-86409786D01*
X123957386Y-86409786D02*
X123543991Y-86409786D01*
D28*
X124070236Y-81865600D02*
X122783600Y-81865600D01*
X124070236Y-81865600D02*
X125882400Y-83677764D01*
D29*
X132818000Y-96432162D02*
X132818000Y-93393490D01*
X132818000Y-99532000D02*
X132818000Y-96432162D01*
D28*
X116535200Y-84378800D02*
X120295400Y-84378800D01*
X120295400Y-84378800D02*
X122783600Y-81890600D01*
X122783600Y-81890600D02*
X122783600Y-81865600D01*
X125882400Y-83677764D02*
X126492000Y-84287364D01*
D30*
X125272800Y-84175600D02*
X125770636Y-83677764D01*
X125770636Y-83677764D02*
X125882400Y-83677764D01*
D28*
X126492000Y-84287364D02*
X126492000Y-85140800D01*
D30*
X126755000Y-85260000D02*
X126611200Y-85260000D01*
X126611200Y-85260000D02*
X126492000Y-85140800D01*
X126255000Y-85260000D02*
X126372800Y-85260000D01*
D28*
X126492000Y-85140800D02*
X126492000Y-85344000D01*
D30*
X126372800Y-85260000D02*
X126492000Y-85140800D01*
D29*
X128460128Y-96432162D02*
X131318000Y-96432162D01*
X128500000Y-99568000D02*
X131282000Y-99568000D01*
X131282000Y-99568000D02*
X131318000Y-99532000D01*
X127000000Y-93343490D02*
X127000000Y-94234000D01*
X127000000Y-94234000D02*
X127254000Y-94488000D01*
X126755000Y-89190000D02*
X126755000Y-93098490D01*
X126755000Y-93098490D02*
X127000000Y-93343490D01*
X137668000Y-95758000D02*
X134112000Y-95758000D01*
X139700000Y-96520000D02*
X138430000Y-96520000D01*
X138430000Y-96520000D02*
X137668000Y-95758000D01*
X127000000Y-97282000D02*
X127000000Y-96472034D01*
X127000000Y-96472034D02*
X126960128Y-96432162D01*
X126255000Y-89190000D02*
X126255000Y-95752034D01*
X126255000Y-95752034D02*
X126935128Y-96432162D01*
X126935128Y-96432162D02*
X126960128Y-96432162D01*
X116840000Y-99060000D02*
X125043000Y-99060000D01*
X125043000Y-99060000D02*
X125755000Y-98348000D01*
X125755000Y-89190000D02*
X125755000Y-98348000D01*
X125755000Y-98348000D02*
X126975000Y-99568000D01*
X126975000Y-99568000D02*
X127000000Y-99568000D01*
X116840000Y-93980000D02*
X120804000Y-93980000D01*
X123380000Y-91404000D02*
X123380000Y-90900000D01*
X120804000Y-93980000D02*
X123380000Y-91404000D01*
D28*
X124720899Y-88294101D02*
X124714000Y-88301000D01*
X124714000Y-88301000D02*
X124714000Y-89154000D01*
X124714000Y-89154000D02*
X123380000Y-90488000D01*
X123380000Y-90488000D02*
X123380000Y-90900000D01*
D29*
X139700000Y-88900000D02*
X132480000Y-88900000D01*
X132480000Y-88900000D02*
X132380000Y-88800000D01*
D30*
X131725800Y-87225000D02*
X132380000Y-87879200D01*
X132380000Y-87879200D02*
X132380000Y-88800000D01*
X128720000Y-87225000D02*
X131725800Y-87225000D01*
D29*
X139700000Y-91440000D02*
X134830011Y-91440000D01*
X134830011Y-91440000D02*
X134344869Y-91925142D01*
X134344869Y-91925142D02*
X130025142Y-91925142D01*
X129032000Y-90932000D02*
X129032000Y-90373000D01*
X130025142Y-91925142D02*
X129032000Y-90932000D01*
X129032000Y-90373000D02*
X130530000Y-88875000D01*
X130530000Y-88875000D02*
X130530000Y-88850000D01*
D30*
X129990600Y-87725000D02*
X130530000Y-88264400D01*
X130530000Y-88264400D02*
X130530000Y-88850000D01*
X128720000Y-87725000D02*
X129990600Y-87725000D01*
D29*
X124790000Y-87225000D02*
X123728709Y-87225000D01*
X123728709Y-87225000D02*
X123662903Y-87290806D01*
X121646192Y-91440000D02*
X123952000Y-89134192D01*
X116840000Y-91440000D02*
X121646192Y-91440000D01*
X124248264Y-87725000D02*
X124790000Y-87725000D01*
X123952000Y-89134192D02*
X123952000Y-88021264D01*
X123952000Y-88021264D02*
X124248264Y-87725000D01*
X134366000Y-93980000D02*
X134112000Y-93980000D01*
X139700000Y-93980000D02*
X134366000Y-93980000D01*
X127255000Y-89190000D02*
X127255000Y-91441000D01*
X127255000Y-91441000D02*
X127762000Y-91948000D01*
D30*
X127255000Y-85260000D02*
X127255000Y-83922600D01*
X127255000Y-83922600D02*
X126746000Y-83413600D01*
D29*
G36*
X125458160Y-74398400D02*
X125458160Y-77798400D01*
X125502438Y-78033717D01*
X125641510Y-78249841D01*
X125853710Y-78394831D01*
X126105600Y-78445840D01*
X127705600Y-78445840D01*
X127940917Y-78401562D01*
X128157041Y-78262490D01*
X128302031Y-78050290D01*
X128353040Y-77798400D01*
X128353040Y-74398400D01*
X128347922Y-74371200D01*
X132263668Y-74371200D01*
X132258160Y-74398400D01*
X132258160Y-77798400D01*
X132302438Y-78033717D01*
X132441510Y-78249841D01*
X132653710Y-78394831D01*
X132905600Y-78445840D01*
X134505600Y-78445840D01*
X134740917Y-78401562D01*
X134957041Y-78262490D01*
X135102031Y-78050290D01*
X135153040Y-77798400D01*
X135153040Y-74398400D01*
X135147922Y-74371200D01*
X141528800Y-74371200D01*
X141528800Y-100888800D01*
X115011200Y-100888800D01*
X115011200Y-81108550D01*
X116568600Y-81108550D01*
X116568600Y-81749110D01*
X116665273Y-81982499D01*
X116843902Y-82161127D01*
X117077291Y-82257800D01*
X117417850Y-82257800D01*
X117576600Y-82099050D01*
X117576600Y-80949800D01*
X117830600Y-80949800D01*
X117830600Y-82099050D01*
X117989350Y-82257800D01*
X118329909Y-82257800D01*
X118563298Y-82161127D01*
X118741927Y-81982499D01*
X118838600Y-81749110D01*
X118838600Y-81108550D01*
X118679850Y-80949800D01*
X117830600Y-80949800D01*
X117576600Y-80949800D01*
X116727350Y-80949800D01*
X116568600Y-81108550D01*
X115011200Y-81108550D01*
X115011200Y-79896490D01*
X116568600Y-79896490D01*
X116568600Y-80537050D01*
X116727350Y-80695800D01*
X117576600Y-80695800D01*
X117576600Y-79546550D01*
X117830600Y-79546550D01*
X117830600Y-80695800D01*
X118679850Y-80695800D01*
X118838600Y-80537050D01*
X118838600Y-79896490D01*
X118741927Y-79663101D01*
X118563298Y-79484473D01*
X118329909Y-79387800D01*
X117989350Y-79387800D01*
X117830600Y-79546550D01*
X117576600Y-79546550D01*
X117417850Y-79387800D01*
X117077291Y-79387800D01*
X116843902Y-79484473D01*
X116665273Y-79663101D01*
X116568600Y-79896490D01*
X115011200Y-79896490D01*
X115011200Y-79115272D01*
X115200836Y-79153674D01*
X116800836Y-79153674D01*
X117036153Y-79109396D01*
X117150132Y-79036052D01*
X117162509Y-79065932D01*
X117341137Y-79244561D01*
X117574526Y-79341234D01*
X117642086Y-79341234D01*
X117800836Y-79182484D01*
X117800836Y-79024167D01*
X117886746Y-79157675D01*
X118098946Y-79302665D01*
X118126621Y-79308269D01*
X118159586Y-79341234D01*
X118227146Y-79341234D01*
X118247589Y-79332766D01*
X118350836Y-79353674D01*
X118750836Y-79353674D01*
X118880891Y-79329202D01*
X119001736Y-79353674D01*
X119401736Y-79353674D01*
X119530858Y-79329378D01*
X119650836Y-79353674D01*
X119700736Y-79353674D01*
X119700736Y-79633970D01*
X119607169Y-79770910D01*
X119556160Y-80022800D01*
X119556160Y-81622800D01*
X119600438Y-81858117D01*
X119739510Y-82074241D01*
X119951710Y-82219231D01*
X120203600Y-82270240D01*
X121203600Y-82270240D01*
X121288405Y-82254283D01*
X119963988Y-83578700D01*
X118503440Y-83578700D01*
X118503440Y-82956400D01*
X118459162Y-82721083D01*
X118320090Y-82504959D01*
X118107890Y-82359969D01*
X117856000Y-82308960D01*
X115824000Y-82308960D01*
X115588683Y-82353238D01*
X115372559Y-82492310D01*
X115227569Y-82704510D01*
X115176560Y-82956400D01*
X115176560Y-84683600D01*
X115220838Y-84918917D01*
X115359910Y-85135041D01*
X115572110Y-85280031D01*
X115613439Y-85288400D01*
X115595585Y-85300330D01*
X115270729Y-85786511D01*
X115156655Y-86360000D01*
X115270729Y-86933489D01*
X115595585Y-87419670D01*
X115910366Y-87630000D01*
X115595585Y-87840330D01*
X115270729Y-88326511D01*
X115156655Y-88900000D01*
X115270729Y-89473489D01*
X115595585Y-89959670D01*
X115910366Y-90170000D01*
X115595585Y-90380330D01*
X115270729Y-90866511D01*
X115156655Y-91440000D01*
X115270729Y-92013489D01*
X115595585Y-92499670D01*
X115910366Y-92710000D01*
X115595585Y-92920330D01*
X115270729Y-93406511D01*
X115156655Y-93980000D01*
X115270729Y-94553489D01*
X115595585Y-95039670D01*
X115910366Y-95250000D01*
X115595585Y-95460330D01*
X115270729Y-95946511D01*
X115156655Y-96520000D01*
X115270729Y-97093489D01*
X115595585Y-97579670D01*
X115910366Y-97790000D01*
X115595585Y-98000330D01*
X115270729Y-98486511D01*
X115156655Y-99060000D01*
X115270729Y-99633489D01*
X115595585Y-100119670D01*
X116081766Y-100444526D01*
X116655255Y-100558600D01*
X117024745Y-100558600D01*
X117598234Y-100444526D01*
X118084415Y-100119670D01*
X118283312Y-99822000D01*
X125043000Y-99822000D01*
X125334605Y-99763996D01*
X125581815Y-99598815D01*
X125755000Y-99425630D01*
X125952560Y-99623191D01*
X125952560Y-99943000D01*
X125996838Y-100178317D01*
X126135910Y-100394441D01*
X126348110Y-100539431D01*
X126600000Y-100590440D01*
X127400000Y-100590440D01*
X127635317Y-100546162D01*
X127749978Y-100472380D01*
X127848110Y-100539431D01*
X128100000Y-100590440D01*
X128900000Y-100590440D01*
X129135317Y-100546162D01*
X129351441Y-100407090D01*
X129404114Y-100330000D01*
X130435609Y-100330000D01*
X130453910Y-100358441D01*
X130666110Y-100503431D01*
X130918000Y-100554440D01*
X131718000Y-100554440D01*
X131953317Y-100510162D01*
X132067978Y-100436380D01*
X132166110Y-100503431D01*
X132418000Y-100554440D01*
X133218000Y-100554440D01*
X133453317Y-100510162D01*
X133669441Y-100371090D01*
X133814431Y-100158890D01*
X133865440Y-99907000D01*
X133865440Y-99419026D01*
X138092642Y-99419026D01*
X138095291Y-99434791D01*
X138349268Y-99962036D01*
X138785680Y-100351954D01*
X139338087Y-100545184D01*
X139573000Y-100400924D01*
X139573000Y-99187000D01*
X139827000Y-99187000D01*
X139827000Y-100400924D01*
X140061913Y-100545184D01*
X140614320Y-100351954D01*
X141050732Y-99962036D01*
X141304709Y-99434791D01*
X141307358Y-99419026D01*
X141186217Y-99187000D01*
X139827000Y-99187000D01*
X139573000Y-99187000D01*
X138213783Y-99187000D01*
X138092642Y-99419026D01*
X133865440Y-99419026D01*
X133865440Y-99157000D01*
X133821162Y-98921683D01*
X133682090Y-98705559D01*
X133580000Y-98635804D01*
X133580000Y-97328806D01*
X133669441Y-97271252D01*
X133814431Y-97059052D01*
X133865440Y-96807162D01*
X133865440Y-96714474D01*
X133916630Y-96735730D01*
X134305663Y-96736069D01*
X134665212Y-96587507D01*
X134732837Y-96520000D01*
X137352370Y-96520000D01*
X137891185Y-97058816D01*
X138039377Y-97157834D01*
X138138395Y-97223996D01*
X138230123Y-97242242D01*
X138455585Y-97579670D01*
X138765069Y-97786461D01*
X138349268Y-98157964D01*
X138095291Y-98685209D01*
X138092642Y-98700974D01*
X138213783Y-98933000D01*
X139573000Y-98933000D01*
X139573000Y-98913000D01*
X139827000Y-98913000D01*
X139827000Y-98933000D01*
X141186217Y-98933000D01*
X141307358Y-98700974D01*
X141304709Y-98685209D01*
X141050732Y-98157964D01*
X140634931Y-97786461D01*
X140944415Y-97579670D01*
X141269271Y-97093489D01*
X141383345Y-96520000D01*
X141269271Y-95946511D01*
X140944415Y-95460330D01*
X140629634Y-95250000D01*
X140944415Y-95039670D01*
X141269271Y-94553489D01*
X141383345Y-93980000D01*
X141269271Y-93406511D01*
X140944415Y-92920330D01*
X140629634Y-92710000D01*
X140944415Y-92499670D01*
X141269271Y-92013489D01*
X141383345Y-91440000D01*
X141269271Y-90866511D01*
X140944415Y-90380330D01*
X140629634Y-90170000D01*
X140944415Y-89959670D01*
X141269271Y-89473489D01*
X141383345Y-88900000D01*
X141269271Y-88326511D01*
X140944415Y-87840330D01*
X140629634Y-87630000D01*
X140944415Y-87419670D01*
X141269271Y-86933489D01*
X141383345Y-86360000D01*
X141269271Y-85786511D01*
X140944415Y-85300330D01*
X140930087Y-85290757D01*
X140951317Y-85286762D01*
X141167441Y-85147690D01*
X141312431Y-84935490D01*
X141363440Y-84683600D01*
X141363440Y-82956400D01*
X141319162Y-82721083D01*
X141180090Y-82504959D01*
X140967890Y-82359969D01*
X140716000Y-82308960D01*
X138684000Y-82308960D01*
X138448683Y-82353238D01*
X138232559Y-82492310D01*
X138087569Y-82704510D01*
X138036560Y-82956400D01*
X138036560Y-83019900D01*
X134747529Y-83019900D01*
X134465978Y-82738349D01*
X134206407Y-82564909D01*
X133900222Y-82504005D01*
X132453040Y-82504005D01*
X132453040Y-79898400D01*
X132408762Y-79663083D01*
X132269690Y-79446959D01*
X132057490Y-79301969D01*
X131805600Y-79250960D01*
X130805600Y-79250960D01*
X130570283Y-79295238D01*
X130354159Y-79434310D01*
X130307631Y-79502406D01*
X130165298Y-79360073D01*
X129931909Y-79263400D01*
X129591350Y-79263400D01*
X129432600Y-79422150D01*
X129432600Y-81521400D01*
X129452600Y-81521400D01*
X129452600Y-81775400D01*
X129432600Y-81775400D01*
X129432600Y-83874650D01*
X129591350Y-84033400D01*
X129799519Y-84033400D01*
X129628559Y-84143410D01*
X129483569Y-84355610D01*
X129456539Y-84489088D01*
X129309800Y-84459900D01*
X128379605Y-84459900D01*
X128369090Y-84443559D01*
X128156890Y-84298569D01*
X127966200Y-84259953D01*
X127966200Y-83922600D01*
X127912063Y-83650436D01*
X127883216Y-83607263D01*
X127757895Y-83419706D01*
X127723925Y-83385736D01*
X127724069Y-83219937D01*
X127575507Y-82860388D01*
X127300659Y-82585060D01*
X126941370Y-82435870D01*
X126552337Y-82435531D01*
X126192788Y-82584093D01*
X126056396Y-82720248D01*
X125270298Y-81934150D01*
X128170600Y-81934150D01*
X128170600Y-83524710D01*
X128267273Y-83758099D01*
X128445902Y-83936727D01*
X128679291Y-84033400D01*
X129019850Y-84033400D01*
X129178600Y-83874650D01*
X129178600Y-81775400D01*
X128329350Y-81775400D01*
X128170600Y-81934150D01*
X125270298Y-81934150D01*
X124635992Y-81299844D01*
X124376421Y-81126404D01*
X124070236Y-81065500D01*
X123722227Y-81065500D01*
X123755031Y-81017490D01*
X123806040Y-80765600D01*
X123806040Y-79965600D01*
X123769629Y-79772090D01*
X128170600Y-79772090D01*
X128170600Y-81362650D01*
X128329350Y-81521400D01*
X129178600Y-81521400D01*
X129178600Y-79422150D01*
X129019850Y-79263400D01*
X128679291Y-79263400D01*
X128445902Y-79360073D01*
X128267273Y-79538701D01*
X128170600Y-79772090D01*
X123769629Y-79772090D01*
X123761762Y-79730283D01*
X123622690Y-79514159D01*
X123410490Y-79369169D01*
X123158600Y-79318160D01*
X122408600Y-79318160D01*
X122173283Y-79362438D01*
X121957159Y-79501510D01*
X121913437Y-79565500D01*
X121659115Y-79565500D01*
X121455490Y-79426369D01*
X121300936Y-79395071D01*
X121300936Y-79069861D01*
X121348946Y-79102665D01*
X121600836Y-79153674D01*
X123200836Y-79153674D01*
X123436153Y-79109396D01*
X123652277Y-78970324D01*
X123797267Y-78758124D01*
X123848276Y-78506234D01*
X123848276Y-77106234D01*
X123803998Y-76870917D01*
X123664926Y-76654793D01*
X123452726Y-76509803D01*
X123278431Y-76474507D01*
X123449493Y-76403826D01*
X123797207Y-76056719D01*
X123985621Y-75602968D01*
X123986050Y-75111655D01*
X123798428Y-74657577D01*
X123512551Y-74371200D01*
X125463668Y-74371200D01*
X125458160Y-74398400D01*
X125458160Y-74398400D01*
G37*
X125458160Y-74398400D02*
X125458160Y-77798400D01*
X125502438Y-78033717D01*
X125641510Y-78249841D01*
X125853710Y-78394831D01*
X126105600Y-78445840D01*
X127705600Y-78445840D01*
X127940917Y-78401562D01*
X128157041Y-78262490D01*
X128302031Y-78050290D01*
X128353040Y-77798400D01*
X128353040Y-74398400D01*
X128347922Y-74371200D01*
X132263668Y-74371200D01*
X132258160Y-74398400D01*
X132258160Y-77798400D01*
X132302438Y-78033717D01*
X132441510Y-78249841D01*
X132653710Y-78394831D01*
X132905600Y-78445840D01*
X134505600Y-78445840D01*
X134740917Y-78401562D01*
X134957041Y-78262490D01*
X135102031Y-78050290D01*
X135153040Y-77798400D01*
X135153040Y-74398400D01*
X135147922Y-74371200D01*
X141528800Y-74371200D01*
X141528800Y-100888800D01*
X115011200Y-100888800D01*
X115011200Y-81108550D01*
X116568600Y-81108550D01*
X116568600Y-81749110D01*
X116665273Y-81982499D01*
X116843902Y-82161127D01*
X117077291Y-82257800D01*
X117417850Y-82257800D01*
X117576600Y-82099050D01*
X117576600Y-80949800D01*
X117830600Y-80949800D01*
X117830600Y-82099050D01*
X117989350Y-82257800D01*
X118329909Y-82257800D01*
X118563298Y-82161127D01*
X118741927Y-81982499D01*
X118838600Y-81749110D01*
X118838600Y-81108550D01*
X118679850Y-80949800D01*
X117830600Y-80949800D01*
X117576600Y-80949800D01*
X116727350Y-80949800D01*
X116568600Y-81108550D01*
X115011200Y-81108550D01*
X115011200Y-79896490D01*
X116568600Y-79896490D01*
X116568600Y-80537050D01*
X116727350Y-80695800D01*
X117576600Y-80695800D01*
X117576600Y-79546550D01*
X117830600Y-79546550D01*
X117830600Y-80695800D01*
X118679850Y-80695800D01*
X118838600Y-80537050D01*
X118838600Y-79896490D01*
X118741927Y-79663101D01*
X118563298Y-79484473D01*
X118329909Y-79387800D01*
X117989350Y-79387800D01*
X117830600Y-79546550D01*
X117576600Y-79546550D01*
X117417850Y-79387800D01*
X117077291Y-79387800D01*
X116843902Y-79484473D01*
X116665273Y-79663101D01*
X116568600Y-79896490D01*
X115011200Y-79896490D01*
X115011200Y-79115272D01*
X115200836Y-79153674D01*
X116800836Y-79153674D01*
X117036153Y-79109396D01*
X117150132Y-79036052D01*
X117162509Y-79065932D01*
X117341137Y-79244561D01*
X117574526Y-79341234D01*
X117642086Y-79341234D01*
X117800836Y-79182484D01*
X117800836Y-79024167D01*
X117886746Y-79157675D01*
X118098946Y-79302665D01*
X118126621Y-79308269D01*
X118159586Y-79341234D01*
X118227146Y-79341234D01*
X118247589Y-79332766D01*
X118350836Y-79353674D01*
X118750836Y-79353674D01*
X118880891Y-79329202D01*
X119001736Y-79353674D01*
X119401736Y-79353674D01*
X119530858Y-79329378D01*
X119650836Y-79353674D01*
X119700736Y-79353674D01*
X119700736Y-79633970D01*
X119607169Y-79770910D01*
X119556160Y-80022800D01*
X119556160Y-81622800D01*
X119600438Y-81858117D01*
X119739510Y-82074241D01*
X119951710Y-82219231D01*
X120203600Y-82270240D01*
X121203600Y-82270240D01*
X121288405Y-82254283D01*
X119963988Y-83578700D01*
X118503440Y-83578700D01*
X118503440Y-82956400D01*
X118459162Y-82721083D01*
X118320090Y-82504959D01*
X118107890Y-82359969D01*
X117856000Y-82308960D01*
X115824000Y-82308960D01*
X115588683Y-82353238D01*
X115372559Y-82492310D01*
X115227569Y-82704510D01*
X115176560Y-82956400D01*
X115176560Y-84683600D01*
X115220838Y-84918917D01*
X115359910Y-85135041D01*
X115572110Y-85280031D01*
X115613439Y-85288400D01*
X115595585Y-85300330D01*
X115270729Y-85786511D01*
X115156655Y-86360000D01*
X115270729Y-86933489D01*
X115595585Y-87419670D01*
X115910366Y-87630000D01*
X115595585Y-87840330D01*
X115270729Y-88326511D01*
X115156655Y-88900000D01*
X115270729Y-89473489D01*
X115595585Y-89959670D01*
X115910366Y-90170000D01*
X115595585Y-90380330D01*
X115270729Y-90866511D01*
X115156655Y-91440000D01*
X115270729Y-92013489D01*
X115595585Y-92499670D01*
X115910366Y-92710000D01*
X115595585Y-92920330D01*
X115270729Y-93406511D01*
X115156655Y-93980000D01*
X115270729Y-94553489D01*
X115595585Y-95039670D01*
X115910366Y-95250000D01*
X115595585Y-95460330D01*
X115270729Y-95946511D01*
X115156655Y-96520000D01*
X115270729Y-97093489D01*
X115595585Y-97579670D01*
X115910366Y-97790000D01*
X115595585Y-98000330D01*
X115270729Y-98486511D01*
X115156655Y-99060000D01*
X115270729Y-99633489D01*
X115595585Y-100119670D01*
X116081766Y-100444526D01*
X116655255Y-100558600D01*
X117024745Y-100558600D01*
X117598234Y-100444526D01*
X118084415Y-100119670D01*
X118283312Y-99822000D01*
X125043000Y-99822000D01*
X125334605Y-99763996D01*
X125581815Y-99598815D01*
X125755000Y-99425630D01*
X125952560Y-99623191D01*
X125952560Y-99943000D01*
X125996838Y-100178317D01*
X126135910Y-100394441D01*
X126348110Y-100539431D01*
X126600000Y-100590440D01*
X127400000Y-100590440D01*
X127635317Y-100546162D01*
X127749978Y-100472380D01*
X127848110Y-100539431D01*
X128100000Y-100590440D01*
X128900000Y-100590440D01*
X129135317Y-100546162D01*
X129351441Y-100407090D01*
X129404114Y-100330000D01*
X130435609Y-100330000D01*
X130453910Y-100358441D01*
X130666110Y-100503431D01*
X130918000Y-100554440D01*
X131718000Y-100554440D01*
X131953317Y-100510162D01*
X132067978Y-100436380D01*
X132166110Y-100503431D01*
X132418000Y-100554440D01*
X133218000Y-100554440D01*
X133453317Y-100510162D01*
X133669441Y-100371090D01*
X133814431Y-100158890D01*
X133865440Y-99907000D01*
X133865440Y-99419026D01*
X138092642Y-99419026D01*
X138095291Y-99434791D01*
X138349268Y-99962036D01*
X138785680Y-100351954D01*
X139338087Y-100545184D01*
X139573000Y-100400924D01*
X139573000Y-99187000D01*
X139827000Y-99187000D01*
X139827000Y-100400924D01*
X140061913Y-100545184D01*
X140614320Y-100351954D01*
X141050732Y-99962036D01*
X141304709Y-99434791D01*
X141307358Y-99419026D01*
X141186217Y-99187000D01*
X139827000Y-99187000D01*
X139573000Y-99187000D01*
X138213783Y-99187000D01*
X138092642Y-99419026D01*
X133865440Y-99419026D01*
X133865440Y-99157000D01*
X133821162Y-98921683D01*
X133682090Y-98705559D01*
X133580000Y-98635804D01*
X133580000Y-97328806D01*
X133669441Y-97271252D01*
X133814431Y-97059052D01*
X133865440Y-96807162D01*
X133865440Y-96714474D01*
X133916630Y-96735730D01*
X134305663Y-96736069D01*
X134665212Y-96587507D01*
X134732837Y-96520000D01*
X137352370Y-96520000D01*
X137891185Y-97058816D01*
X138039377Y-97157834D01*
X138138395Y-97223996D01*
X138230123Y-97242242D01*
X138455585Y-97579670D01*
X138765069Y-97786461D01*
X138349268Y-98157964D01*
X138095291Y-98685209D01*
X138092642Y-98700974D01*
X138213783Y-98933000D01*
X139573000Y-98933000D01*
X139573000Y-98913000D01*
X139827000Y-98913000D01*
X139827000Y-98933000D01*
X141186217Y-98933000D01*
X141307358Y-98700974D01*
X141304709Y-98685209D01*
X141050732Y-98157964D01*
X140634931Y-97786461D01*
X140944415Y-97579670D01*
X141269271Y-97093489D01*
X141383345Y-96520000D01*
X141269271Y-95946511D01*
X140944415Y-95460330D01*
X140629634Y-95250000D01*
X140944415Y-95039670D01*
X141269271Y-94553489D01*
X141383345Y-93980000D01*
X141269271Y-93406511D01*
X140944415Y-92920330D01*
X140629634Y-92710000D01*
X140944415Y-92499670D01*
X141269271Y-92013489D01*
X141383345Y-91440000D01*
X141269271Y-90866511D01*
X140944415Y-90380330D01*
X140629634Y-90170000D01*
X140944415Y-89959670D01*
X141269271Y-89473489D01*
X141383345Y-88900000D01*
X141269271Y-88326511D01*
X140944415Y-87840330D01*
X140629634Y-87630000D01*
X140944415Y-87419670D01*
X141269271Y-86933489D01*
X141383345Y-86360000D01*
X141269271Y-85786511D01*
X140944415Y-85300330D01*
X140930087Y-85290757D01*
X140951317Y-85286762D01*
X141167441Y-85147690D01*
X141312431Y-84935490D01*
X141363440Y-84683600D01*
X141363440Y-82956400D01*
X141319162Y-82721083D01*
X141180090Y-82504959D01*
X140967890Y-82359969D01*
X140716000Y-82308960D01*
X138684000Y-82308960D01*
X138448683Y-82353238D01*
X138232559Y-82492310D01*
X138087569Y-82704510D01*
X138036560Y-82956400D01*
X138036560Y-83019900D01*
X134747529Y-83019900D01*
X134465978Y-82738349D01*
X134206407Y-82564909D01*
X133900222Y-82504005D01*
X132453040Y-82504005D01*
X132453040Y-79898400D01*
X132408762Y-79663083D01*
X132269690Y-79446959D01*
X132057490Y-79301969D01*
X131805600Y-79250960D01*
X130805600Y-79250960D01*
X130570283Y-79295238D01*
X130354159Y-79434310D01*
X130307631Y-79502406D01*
X130165298Y-79360073D01*
X129931909Y-79263400D01*
X129591350Y-79263400D01*
X129432600Y-79422150D01*
X129432600Y-81521400D01*
X129452600Y-81521400D01*
X129452600Y-81775400D01*
X129432600Y-81775400D01*
X129432600Y-83874650D01*
X129591350Y-84033400D01*
X129799519Y-84033400D01*
X129628559Y-84143410D01*
X129483569Y-84355610D01*
X129456539Y-84489088D01*
X129309800Y-84459900D01*
X128379605Y-84459900D01*
X128369090Y-84443559D01*
X128156890Y-84298569D01*
X127966200Y-84259953D01*
X127966200Y-83922600D01*
X127912063Y-83650436D01*
X127883216Y-83607263D01*
X127757895Y-83419706D01*
X127723925Y-83385736D01*
X127724069Y-83219937D01*
X127575507Y-82860388D01*
X127300659Y-82585060D01*
X126941370Y-82435870D01*
X126552337Y-82435531D01*
X126192788Y-82584093D01*
X126056396Y-82720248D01*
X125270298Y-81934150D01*
X128170600Y-81934150D01*
X128170600Y-83524710D01*
X128267273Y-83758099D01*
X128445902Y-83936727D01*
X128679291Y-84033400D01*
X129019850Y-84033400D01*
X129178600Y-83874650D01*
X129178600Y-81775400D01*
X128329350Y-81775400D01*
X128170600Y-81934150D01*
X125270298Y-81934150D01*
X124635992Y-81299844D01*
X124376421Y-81126404D01*
X124070236Y-81065500D01*
X123722227Y-81065500D01*
X123755031Y-81017490D01*
X123806040Y-80765600D01*
X123806040Y-79965600D01*
X123769629Y-79772090D01*
X128170600Y-79772090D01*
X128170600Y-81362650D01*
X128329350Y-81521400D01*
X129178600Y-81521400D01*
X129178600Y-79422150D01*
X129019850Y-79263400D01*
X128679291Y-79263400D01*
X128445902Y-79360073D01*
X128267273Y-79538701D01*
X128170600Y-79772090D01*
X123769629Y-79772090D01*
X123761762Y-79730283D01*
X123622690Y-79514159D01*
X123410490Y-79369169D01*
X123158600Y-79318160D01*
X122408600Y-79318160D01*
X122173283Y-79362438D01*
X121957159Y-79501510D01*
X121913437Y-79565500D01*
X121659115Y-79565500D01*
X121455490Y-79426369D01*
X121300936Y-79395071D01*
X121300936Y-79069861D01*
X121348946Y-79102665D01*
X121600836Y-79153674D01*
X123200836Y-79153674D01*
X123436153Y-79109396D01*
X123652277Y-78970324D01*
X123797267Y-78758124D01*
X123848276Y-78506234D01*
X123848276Y-77106234D01*
X123803998Y-76870917D01*
X123664926Y-76654793D01*
X123452726Y-76509803D01*
X123278431Y-76474507D01*
X123449493Y-76403826D01*
X123797207Y-76056719D01*
X123985621Y-75602968D01*
X123986050Y-75111655D01*
X123798428Y-74657577D01*
X123512551Y-74371200D01*
X125463668Y-74371200D01*
X125458160Y-74398400D01*
G36*
X124607000Y-90775000D02*
X124627000Y-90775000D01*
X124627000Y-91025000D01*
X124607000Y-91025000D01*
X124607000Y-91626250D01*
X124765750Y-91785000D01*
X124906309Y-91785000D01*
X124993000Y-91749091D01*
X124993000Y-98032370D01*
X124727370Y-98298000D01*
X118283312Y-98298000D01*
X118084415Y-98000330D01*
X117769634Y-97790000D01*
X118084415Y-97579670D01*
X118409271Y-97093489D01*
X118523345Y-96520000D01*
X118409271Y-95946511D01*
X118084415Y-95460330D01*
X117769634Y-95250000D01*
X118084415Y-95039670D01*
X118283312Y-94742000D01*
X120804000Y-94742000D01*
X121095605Y-94683996D01*
X121342815Y-94518815D01*
X123918815Y-91942815D01*
X124030643Y-91775453D01*
X124053691Y-91785000D01*
X124194250Y-91785000D01*
X124353000Y-91626250D01*
X124353000Y-91025000D01*
X124333000Y-91025000D01*
X124333000Y-90775000D01*
X124353000Y-90775000D01*
X124353000Y-90753000D01*
X124607000Y-90753000D01*
X124607000Y-90775000D01*
X124607000Y-90775000D01*
G37*
X124607000Y-90775000D02*
X124627000Y-90775000D01*
X124627000Y-91025000D01*
X124607000Y-91025000D01*
X124607000Y-91626250D01*
X124765750Y-91785000D01*
X124906309Y-91785000D01*
X124993000Y-91749091D01*
X124993000Y-98032370D01*
X124727370Y-98298000D01*
X118283312Y-98298000D01*
X118084415Y-98000330D01*
X117769634Y-97790000D01*
X118084415Y-97579670D01*
X118409271Y-97093489D01*
X118523345Y-96520000D01*
X118409271Y-95946511D01*
X118084415Y-95460330D01*
X117769634Y-95250000D01*
X118084415Y-95039670D01*
X118283312Y-94742000D01*
X120804000Y-94742000D01*
X121095605Y-94683996D01*
X121342815Y-94518815D01*
X123918815Y-91942815D01*
X124030643Y-91775453D01*
X124053691Y-91785000D01*
X124194250Y-91785000D01*
X124353000Y-91626250D01*
X124353000Y-91025000D01*
X124333000Y-91025000D01*
X124333000Y-90775000D01*
X124353000Y-90775000D01*
X124353000Y-90753000D01*
X124607000Y-90753000D01*
X124607000Y-90775000D01*
G36*
X138455585Y-89959670D02*
X138770366Y-90170000D01*
X138455585Y-90380330D01*
X138256688Y-90678000D01*
X134830011Y-90678000D01*
X134538406Y-90736004D01*
X134291195Y-90901185D01*
X134029239Y-91163142D01*
X133189884Y-91163142D01*
X133293327Y-91059698D01*
X133390000Y-90826309D01*
X133390000Y-90585750D01*
X133231250Y-90427000D01*
X132507000Y-90427000D01*
X132507000Y-90447000D01*
X132253000Y-90447000D01*
X132253000Y-90427000D01*
X131528750Y-90427000D01*
X131430000Y-90525750D01*
X131381250Y-90477000D01*
X130657000Y-90477000D01*
X130657000Y-90497000D01*
X130403000Y-90497000D01*
X130403000Y-90477000D01*
X130383000Y-90477000D01*
X130383000Y-90223000D01*
X130403000Y-90223000D01*
X130403000Y-90203000D01*
X130657000Y-90203000D01*
X130657000Y-90223000D01*
X131381250Y-90223000D01*
X131480000Y-90124250D01*
X131528750Y-90173000D01*
X132253000Y-90173000D01*
X132253000Y-90153000D01*
X132507000Y-90153000D01*
X132507000Y-90173000D01*
X133231250Y-90173000D01*
X133390000Y-90014250D01*
X133390000Y-89773691D01*
X133343736Y-89662000D01*
X138256688Y-89662000D01*
X138455585Y-89959670D01*
X138455585Y-89959670D01*
G37*
X138455585Y-89959670D02*
X138770366Y-90170000D01*
X138455585Y-90380330D01*
X138256688Y-90678000D01*
X134830011Y-90678000D01*
X134538406Y-90736004D01*
X134291195Y-90901185D01*
X134029239Y-91163142D01*
X133189884Y-91163142D01*
X133293327Y-91059698D01*
X133390000Y-90826309D01*
X133390000Y-90585750D01*
X133231250Y-90427000D01*
X132507000Y-90427000D01*
X132507000Y-90447000D01*
X132253000Y-90447000D01*
X132253000Y-90427000D01*
X131528750Y-90427000D01*
X131430000Y-90525750D01*
X131381250Y-90477000D01*
X130657000Y-90477000D01*
X130657000Y-90497000D01*
X130403000Y-90497000D01*
X130403000Y-90477000D01*
X130383000Y-90477000D01*
X130383000Y-90223000D01*
X130403000Y-90223000D01*
X130403000Y-90203000D01*
X130657000Y-90203000D01*
X130657000Y-90223000D01*
X131381250Y-90223000D01*
X131480000Y-90124250D01*
X131528750Y-90173000D01*
X132253000Y-90173000D01*
X132253000Y-90153000D01*
X132507000Y-90153000D01*
X132507000Y-90173000D01*
X133231250Y-90173000D01*
X133390000Y-90014250D01*
X133390000Y-89773691D01*
X133343736Y-89662000D01*
X138256688Y-89662000D01*
X138455585Y-89959670D01*
G36*
X122565922Y-86603449D02*
X122714484Y-86962998D01*
X122732622Y-86981167D01*
X122685173Y-87095436D01*
X122684834Y-87484469D01*
X122809000Y-87784975D01*
X122809000Y-88217000D01*
X122829000Y-88217000D01*
X122829000Y-88471000D01*
X122809000Y-88471000D01*
X122809000Y-88491000D01*
X122555000Y-88491000D01*
X122555000Y-88471000D01*
X121405750Y-88471000D01*
X121247000Y-88629750D01*
X121247000Y-88970309D01*
X121343673Y-89203698D01*
X121522301Y-89382327D01*
X121755690Y-89479000D01*
X122396250Y-89479000D01*
X122554998Y-89320252D01*
X122554998Y-89453564D01*
X121330562Y-90678000D01*
X118283312Y-90678000D01*
X118084415Y-90380330D01*
X117769634Y-90170000D01*
X118084415Y-89959670D01*
X118409271Y-89473489D01*
X118523345Y-88900000D01*
X118409271Y-88326511D01*
X118084415Y-87840330D01*
X117900873Y-87717691D01*
X121247000Y-87717691D01*
X121247000Y-88058250D01*
X121405750Y-88217000D01*
X122555000Y-88217000D01*
X122555000Y-87367750D01*
X122396250Y-87209000D01*
X121755690Y-87209000D01*
X121522301Y-87305673D01*
X121343673Y-87484302D01*
X121247000Y-87717691D01*
X117900873Y-87717691D01*
X117769634Y-87630000D01*
X118084415Y-87419670D01*
X118198453Y-87249000D01*
X121061200Y-87249000D01*
X121401406Y-87181329D01*
X121689818Y-86988618D01*
X122186996Y-86491440D01*
X122566020Y-86491440D01*
X122565922Y-86603449D01*
X122565922Y-86603449D01*
G37*
X122565922Y-86603449D02*
X122714484Y-86962998D01*
X122732622Y-86981167D01*
X122685173Y-87095436D01*
X122684834Y-87484469D01*
X122809000Y-87784975D01*
X122809000Y-88217000D01*
X122829000Y-88217000D01*
X122829000Y-88471000D01*
X122809000Y-88471000D01*
X122809000Y-88491000D01*
X122555000Y-88491000D01*
X122555000Y-88471000D01*
X121405750Y-88471000D01*
X121247000Y-88629750D01*
X121247000Y-88970309D01*
X121343673Y-89203698D01*
X121522301Y-89382327D01*
X121755690Y-89479000D01*
X122396250Y-89479000D01*
X122554998Y-89320252D01*
X122554998Y-89453564D01*
X121330562Y-90678000D01*
X118283312Y-90678000D01*
X118084415Y-90380330D01*
X117769634Y-90170000D01*
X118084415Y-89959670D01*
X118409271Y-89473489D01*
X118523345Y-88900000D01*
X118409271Y-88326511D01*
X118084415Y-87840330D01*
X117900873Y-87717691D01*
X121247000Y-87717691D01*
X121247000Y-88058250D01*
X121405750Y-88217000D01*
X122555000Y-88217000D01*
X122555000Y-87367750D01*
X122396250Y-87209000D01*
X121755690Y-87209000D01*
X121522301Y-87305673D01*
X121343673Y-87484302D01*
X121247000Y-87717691D01*
X117900873Y-87717691D01*
X117769634Y-87630000D01*
X118084415Y-87419670D01*
X118198453Y-87249000D01*
X121061200Y-87249000D01*
X121401406Y-87181329D01*
X121689818Y-86988618D01*
X122186996Y-86491440D01*
X122566020Y-86491440D01*
X122565922Y-86603449D01*
G36*
X128847000Y-88851250D02*
X129005750Y-89010000D01*
X129211309Y-89010000D01*
X129392367Y-88935003D01*
X128493185Y-89834185D01*
X128449752Y-89899187D01*
X128540000Y-89681309D01*
X128540000Y-89475750D01*
X128381250Y-89317000D01*
X128052440Y-89317000D01*
X128052440Y-89110000D01*
X128131309Y-89110000D01*
X128244777Y-89063000D01*
X128381250Y-89063000D01*
X128593000Y-88851250D01*
X128593000Y-88714778D01*
X128640000Y-88601310D01*
X128640000Y-88522440D01*
X128847000Y-88522440D01*
X128847000Y-88851250D01*
X128847000Y-88851250D01*
G37*
X128847000Y-88851250D02*
X129005750Y-89010000D01*
X129211309Y-89010000D01*
X129392367Y-88935003D01*
X128493185Y-89834185D01*
X128449752Y-89899187D01*
X128540000Y-89681309D01*
X128540000Y-89475750D01*
X128381250Y-89317000D01*
X128052440Y-89317000D01*
X128052440Y-89110000D01*
X128131309Y-89110000D01*
X128244777Y-89063000D01*
X128381250Y-89063000D01*
X128593000Y-88851250D01*
X128593000Y-88714778D01*
X128640000Y-88601310D01*
X128640000Y-88522440D01*
X128847000Y-88522440D01*
X128847000Y-88851250D01*
G36*
X132541673Y-84247801D02*
X132445000Y-84481190D01*
X132445000Y-85121750D01*
X132603750Y-85280500D01*
X133453000Y-85280500D01*
X133453000Y-85260500D01*
X133707000Y-85260500D01*
X133707000Y-85280500D01*
X134556250Y-85280500D01*
X134715000Y-85121750D01*
X134715000Y-84620100D01*
X138036560Y-84620100D01*
X138036560Y-84683600D01*
X138080838Y-84918917D01*
X138219910Y-85135041D01*
X138432110Y-85280031D01*
X138473439Y-85288400D01*
X138455585Y-85300330D01*
X138130729Y-85786511D01*
X138016655Y-86360000D01*
X138130729Y-86933489D01*
X138455585Y-87419670D01*
X138770366Y-87630000D01*
X138455585Y-87840330D01*
X138256688Y-88138000D01*
X133340992Y-88138000D01*
X133219090Y-87948559D01*
X133087051Y-87858340D01*
X133037063Y-87607036D01*
X132882895Y-87376306D01*
X132228694Y-86722106D01*
X131997965Y-86567937D01*
X131725800Y-86513800D01*
X131639254Y-86513800D01*
X131676431Y-86459390D01*
X131727440Y-86207500D01*
X131727440Y-85693250D01*
X132445000Y-85693250D01*
X132445000Y-86333810D01*
X132541673Y-86567199D01*
X132720302Y-86745827D01*
X132953691Y-86842500D01*
X133294250Y-86842500D01*
X133453000Y-86683750D01*
X133453000Y-85534500D01*
X133707000Y-85534500D01*
X133707000Y-86683750D01*
X133865750Y-86842500D01*
X134206309Y-86842500D01*
X134439698Y-86745827D01*
X134618327Y-86567199D01*
X134715000Y-86333810D01*
X134715000Y-85693250D01*
X134556250Y-85534500D01*
X133707000Y-85534500D01*
X133453000Y-85534500D01*
X132603750Y-85534500D01*
X132445000Y-85693250D01*
X131727440Y-85693250D01*
X131727440Y-85493296D01*
X131934218Y-85286518D01*
X132026980Y-85147690D01*
X132126929Y-84998106D01*
X132194600Y-84657900D01*
X132194600Y-84104205D01*
X132685270Y-84104205D01*
X132541673Y-84247801D01*
X132541673Y-84247801D01*
G37*
X132541673Y-84247801D02*
X132445000Y-84481190D01*
X132445000Y-85121750D01*
X132603750Y-85280500D01*
X133453000Y-85280500D01*
X133453000Y-85260500D01*
X133707000Y-85260500D01*
X133707000Y-85280500D01*
X134556250Y-85280500D01*
X134715000Y-85121750D01*
X134715000Y-84620100D01*
X138036560Y-84620100D01*
X138036560Y-84683600D01*
X138080838Y-84918917D01*
X138219910Y-85135041D01*
X138432110Y-85280031D01*
X138473439Y-85288400D01*
X138455585Y-85300330D01*
X138130729Y-85786511D01*
X138016655Y-86360000D01*
X138130729Y-86933489D01*
X138455585Y-87419670D01*
X138770366Y-87630000D01*
X138455585Y-87840330D01*
X138256688Y-88138000D01*
X133340992Y-88138000D01*
X133219090Y-87948559D01*
X133087051Y-87858340D01*
X133037063Y-87607036D01*
X132882895Y-87376306D01*
X132228694Y-86722106D01*
X131997965Y-86567937D01*
X131725800Y-86513800D01*
X131639254Y-86513800D01*
X131676431Y-86459390D01*
X131727440Y-86207500D01*
X131727440Y-85693250D01*
X132445000Y-85693250D01*
X132445000Y-86333810D01*
X132541673Y-86567199D01*
X132720302Y-86745827D01*
X132953691Y-86842500D01*
X133294250Y-86842500D01*
X133453000Y-86683750D01*
X133453000Y-85534500D01*
X133707000Y-85534500D01*
X133707000Y-86683750D01*
X133865750Y-86842500D01*
X134206309Y-86842500D01*
X134439698Y-86745827D01*
X134618327Y-86567199D01*
X134715000Y-86333810D01*
X134715000Y-85693250D01*
X134556250Y-85534500D01*
X133707000Y-85534500D01*
X133453000Y-85534500D01*
X132603750Y-85534500D01*
X132445000Y-85693250D01*
X131727440Y-85693250D01*
X131727440Y-85493296D01*
X131934218Y-85286518D01*
X132026980Y-85147690D01*
X132126929Y-84998106D01*
X132194600Y-84657900D01*
X132194600Y-84104205D01*
X132685270Y-84104205D01*
X132541673Y-84247801D01*
G36*
X126257000Y-86473000D02*
X127253000Y-86473000D01*
X127253000Y-86453000D01*
X127507000Y-86453000D01*
X127507000Y-86473000D01*
X127527000Y-86473000D01*
X127527000Y-86727000D01*
X127507000Y-86727000D01*
X127507000Y-87723000D01*
X127527000Y-87723000D01*
X127527000Y-87977000D01*
X127507000Y-87977000D01*
X127507000Y-87997000D01*
X127253000Y-87997000D01*
X127253000Y-87977000D01*
X126257000Y-87977000D01*
X126257000Y-87997000D01*
X126003000Y-87997000D01*
X126003000Y-87977000D01*
X125983000Y-87977000D01*
X125983000Y-87723000D01*
X126003000Y-87723000D01*
X126003000Y-86885750D01*
X126120000Y-86885750D01*
X126120000Y-87564250D01*
X126257000Y-87701250D01*
X126257000Y-87723000D01*
X126278750Y-87723000D01*
X126415750Y-87860000D01*
X127094250Y-87860000D01*
X127231250Y-87723000D01*
X127253000Y-87723000D01*
X127253000Y-87701250D01*
X127390000Y-87564250D01*
X127390000Y-86885750D01*
X127253000Y-86748750D01*
X127253000Y-86727000D01*
X127231250Y-86727000D01*
X127094250Y-86590000D01*
X126415750Y-86590000D01*
X126278750Y-86727000D01*
X126257000Y-86727000D01*
X126257000Y-86748750D01*
X126120000Y-86885750D01*
X126003000Y-86885750D01*
X126003000Y-86727000D01*
X125983000Y-86727000D01*
X125983000Y-86473000D01*
X126003000Y-86473000D01*
X126003000Y-86453000D01*
X126257000Y-86453000D01*
X126257000Y-86473000D01*
X126257000Y-86473000D01*
G37*
X126257000Y-86473000D02*
X127253000Y-86473000D01*
X127253000Y-86453000D01*
X127507000Y-86453000D01*
X127507000Y-86473000D01*
X127527000Y-86473000D01*
X127527000Y-86727000D01*
X127507000Y-86727000D01*
X127507000Y-87723000D01*
X127527000Y-87723000D01*
X127527000Y-87977000D01*
X127507000Y-87977000D01*
X127507000Y-87997000D01*
X127253000Y-87997000D01*
X127253000Y-87977000D01*
X126257000Y-87977000D01*
X126257000Y-87997000D01*
X126003000Y-87997000D01*
X126003000Y-87977000D01*
X125983000Y-87977000D01*
X125983000Y-87723000D01*
X126003000Y-87723000D01*
X126003000Y-86885750D01*
X126120000Y-86885750D01*
X126120000Y-87564250D01*
X126257000Y-87701250D01*
X126257000Y-87723000D01*
X126278750Y-87723000D01*
X126415750Y-87860000D01*
X127094250Y-87860000D01*
X127231250Y-87723000D01*
X127253000Y-87723000D01*
X127253000Y-87701250D01*
X127390000Y-87564250D01*
X127390000Y-86885750D01*
X127253000Y-86748750D01*
X127253000Y-86727000D01*
X127231250Y-86727000D01*
X127094250Y-86590000D01*
X126415750Y-86590000D01*
X126278750Y-86727000D01*
X126257000Y-86727000D01*
X126257000Y-86748750D01*
X126120000Y-86885750D01*
X126003000Y-86885750D01*
X126003000Y-86727000D01*
X125983000Y-86727000D01*
X125983000Y-86473000D01*
X126003000Y-86473000D01*
X126003000Y-86453000D01*
X126257000Y-86453000D01*
X126257000Y-86473000D01*
D32*
X121221500Y-87820500D03*
X133985000Y-91440000D03*
X122428000Y-87376000D03*
X127928110Y-90170000D03*
X129231053Y-83959690D03*
X135076320Y-85737690D03*
X125081890Y-91859110D03*
X133534461Y-84066106D03*
X116484400Y-80162400D03*
X131470400Y-90373200D03*
X128422400Y-88825000D03*
X129286000Y-79095600D03*
X128117600Y-81686400D03*
X127758098Y-87254538D03*
X125751902Y-87221942D03*
X126782981Y-88228098D03*
X126765238Y-86221902D03*
X126780000Y-87200000D03*
X132818000Y-92773500D03*
X123543991Y-86409786D03*
X125272800Y-84175600D03*
X127254000Y-94488000D03*
X134112000Y-95758000D03*
X127000000Y-97282000D03*
X123662903Y-87290806D03*
X134112000Y-93980000D03*
X127762000Y-91948000D03*
X126746000Y-83413600D03*
D33*
X122750836Y-75356234D03*
X115650836Y-75356234D03*
X116840000Y-83820000D03*
X116840000Y-86360000D03*
X116840000Y-88900000D03*
X116840000Y-91440000D03*
X116840000Y-93980000D03*
X116840000Y-96520000D03*
X116840000Y-99060000D03*
X139700000Y-83820000D03*
X139700000Y-86360000D03*
X139700000Y-88900000D03*
X139700000Y-91440000D03*
X139700000Y-93980000D03*
X139700000Y-96520000D03*
X139700000Y-99060000D03*
M02*
