%TF.GenerationSoftware,KiCad,Pcbnew,4.0.5-e0-6337~49~ubuntu16.04.1*%
%TF.CreationDate,2017-07-20T08:52:04-07:00*%
%TF.ProjectId,stns01-battery-mgmt-breakout,73746E7330312D626174746572792D6D,1.0*%
%TF.FileFunction,Paste,Top*%
%FSLAX46Y46*%
G04 Gerber Fmt 4.6, Leading zero omitted, Abs format (unit mm)*
G04 Created by KiCad (PCBNEW 4.0.5-e0-6337~49~ubuntu16.04.1) date Thu Jul 20 08:52:04 2017*
%MOMM*%
%LPD*%
G01*
G04 APERTURE LIST*
%ADD10C,0.350000*%
%ADD11R,0.647600X0.597600*%
%ADD12R,0.247600X1.197600*%
%ADD13R,1.447600X1.247600*%
%ADD14R,1.747600X1.747600*%
%ADD15R,0.847600X3.347600*%
%ADD16R,1.447600X3.247600*%
%ADD17R,0.547600X0.097600*%
%ADD18R,0.345600X0.561600*%
%ADD19R,0.647700X0.647700*%
G04 APERTURE END LIST*
D10*
D11*
X81095428Y-54979001D03*
X82595428Y-54979001D03*
X70285428Y-59559001D03*
X71785428Y-59559001D03*
X85685428Y-50929001D03*
X87185428Y-50929001D03*
X74935428Y-59559001D03*
X76435428Y-59559001D03*
D12*
X77459001Y-47840201D03*
X78109001Y-47840201D03*
X78758101Y-47840201D03*
X79409001Y-47840201D03*
X80059001Y-47840201D03*
D13*
X75559001Y-48065201D03*
D14*
X77559001Y-50515201D03*
X79959001Y-50515201D03*
D13*
X81959001Y-48065201D03*
D15*
X67379401Y-48904001D03*
X69379401Y-48904001D03*
D16*
X64979401Y-54454001D03*
X71779401Y-54454001D03*
D11*
X79571001Y-59261001D03*
X81071001Y-59261001D03*
X65282571Y-59559001D03*
X66782571Y-59559001D03*
X89739001Y-50929001D03*
X91239001Y-50929001D03*
X57992095Y-61029001D03*
X59492095Y-61029001D03*
X85149001Y-54979001D03*
X86649001Y-54979001D03*
X83609001Y-59029001D03*
X85109001Y-59029001D03*
X88599001Y-54979001D03*
X90099001Y-54979001D03*
D17*
X75063524Y-53420201D03*
X75063524Y-53870201D03*
X75063524Y-54320201D03*
X75063524Y-54770201D03*
X75063524Y-55220201D03*
X75063524Y-55670201D03*
X77863524Y-55670201D03*
X77863524Y-55220201D03*
X77863524Y-54770201D03*
X77863524Y-54320201D03*
X77863524Y-53870201D03*
X77863524Y-53420201D03*
D18*
X76878524Y-55140201D03*
X76878524Y-53950201D03*
X76048524Y-55140201D03*
X76048524Y-53950201D03*
D19*
X80955905Y-43579761D03*
X82855905Y-43579761D03*
X81905905Y-41580781D03*
M02*
