%TF.GenerationSoftware,KiCad,Pcbnew,4.0.5-e0-6337~49~ubuntu16.04.1*%
%TF.CreationDate,2017-07-20T08:52:04-07:00*%
%TF.ProjectId,stns01-battery-mgmt-breakout,73746E7330312D626174746572792D6D,1.0*%
%TF.FileFunction,Copper,L2,Bot,Signal*%
%FSLAX46Y46*%
G04 Gerber Fmt 4.6, Leading zero omitted, Abs format (unit mm)*
G04 Created by KiCad (PCBNEW 4.0.5-e0-6337~49~ubuntu16.04.1) date Thu Jul 20 08:52:04 2017*
%MOMM*%
%LPD*%
G01*
G04 APERTURE LIST*
%ADD10C,0.350000*%
%ADD11C,1.200000*%
%ADD12R,2.032000X1.727200*%
%ADD13O,2.032000X1.727200*%
%ADD14R,1.727200X2.032000*%
%ADD15O,1.727200X2.032000*%
%ADD16C,1.524000*%
%ADD17C,0.350000*%
G04 APERTURE END LIST*
D10*
D11*
X75209001Y-50515201D03*
X82309001Y-50515201D03*
D12*
X105850000Y-50450000D03*
D13*
X105850000Y-52990000D03*
X105850000Y-55530000D03*
X105850000Y-58070000D03*
X105850000Y-60610000D03*
X105850000Y-63150000D03*
X105850000Y-65690000D03*
D14*
X76250000Y-23650000D03*
D15*
X78790000Y-23650000D03*
X81330000Y-23650000D03*
X83870000Y-23650000D03*
X86410000Y-23650000D03*
X88950000Y-23650000D03*
X91490000Y-23650000D03*
D12*
X91449000Y-42729401D03*
D13*
X91449000Y-45269401D03*
X91449000Y-47809401D03*
D16*
X69874321Y-43224321D03*
X72363521Y-43224321D03*
X67385121Y-43224321D03*
D17*
X75209001Y-50515201D03*
X82309001Y-50515201D03*
X105850000Y-50450000D03*
X105850000Y-52990000D03*
X105850000Y-55530000D03*
X105850000Y-58070000D03*
X105850000Y-60610000D03*
X105850000Y-63150000D03*
X105850000Y-65690000D03*
X76250000Y-23650000D03*
X78790000Y-23650000D03*
X81330000Y-23650000D03*
X83870000Y-23650000D03*
X86410000Y-23650000D03*
X88950000Y-23650000D03*
X91490000Y-23650000D03*
X91449000Y-42729401D03*
X91449000Y-45269401D03*
X91449000Y-47809401D03*
X69874321Y-43224321D03*
X72363521Y-43224321D03*
X67385121Y-43224321D03*
M02*
