%TF.GenerationSoftware,KiCad,Pcbnew,4.0.5-e0-6337~49~ubuntu16.04.1*%
%TF.CreationDate,2017-08-14T13:55:07-07:00*%
%TF.ProjectId,stns01-battery-mgmt-breakout,73746E7330312D626174746572792D6D,1.0*%
%TF.FileFunction,Legend,Bot*%
%FSLAX46Y46*%
G04 Gerber Fmt 4.6, Leading zero omitted, Abs format (unit mm)*
G04 Created by KiCad (PCBNEW 4.0.5-e0-6337~49~ubuntu16.04.1) date Mon Aug 14 13:55:07 2017*
%MOMM*%
%LPD*%
G01*
G04 APERTURE LIST*
%ADD10C,0.350000*%
%ADD11C,0.152400*%
%ADD12R,2.184400X1.879600*%
%ADD13O,2.184400X1.879600*%
%ADD14C,1.352400*%
%ADD15C,1.676400*%
G04 APERTURE END LIST*
D10*
D11*
X24652514Y-30853137D02*
X23975181Y-30659613D01*
X24458990Y-30466090D01*
X23975181Y-30272566D01*
X24652514Y-30079042D01*
X23975181Y-29691994D02*
X24652514Y-29691994D01*
X24991181Y-29691994D02*
X24942800Y-29740375D01*
X24894419Y-29691994D01*
X24942800Y-29643613D01*
X24991181Y-29691994D01*
X24894419Y-29691994D01*
X24023562Y-28772756D02*
X23975181Y-28869518D01*
X23975181Y-29063041D01*
X24023562Y-29159803D01*
X24071943Y-29208184D01*
X24168705Y-29256565D01*
X24458990Y-29256565D01*
X24555752Y-29208184D01*
X24604133Y-29159803D01*
X24652514Y-29063041D01*
X24652514Y-28869518D01*
X24604133Y-28772756D01*
X23975181Y-28337327D02*
X24991181Y-28337327D01*
X24362229Y-28240565D02*
X23975181Y-27950280D01*
X24652514Y-27950280D02*
X24265467Y-28337327D01*
X24023562Y-27127804D02*
X23975181Y-27224566D01*
X23975181Y-27418089D01*
X24023562Y-27514851D01*
X24120324Y-27563232D01*
X24507371Y-27563232D01*
X24604133Y-27514851D01*
X24652514Y-27418089D01*
X24652514Y-27224566D01*
X24604133Y-27127804D01*
X24507371Y-27079423D01*
X24410610Y-27079423D01*
X24313848Y-27563232D01*
X23975181Y-26643994D02*
X24652514Y-26643994D01*
X24458990Y-26643994D02*
X24555752Y-26595613D01*
X24604133Y-26547232D01*
X24652514Y-26450470D01*
X24652514Y-26353709D01*
X23975181Y-26015042D02*
X24991181Y-26015042D01*
X24604133Y-26015042D02*
X24652514Y-25918280D01*
X24652514Y-25724757D01*
X24604133Y-25627995D01*
X24555752Y-25579614D01*
X24458990Y-25531233D01*
X24168705Y-25531233D01*
X24071943Y-25579614D01*
X24023562Y-25627995D01*
X23975181Y-25724757D01*
X23975181Y-25918280D01*
X24023562Y-26015042D01*
X23975181Y-24950661D02*
X24023562Y-25047423D01*
X24071943Y-25095804D01*
X24168705Y-25144185D01*
X24458990Y-25144185D01*
X24555752Y-25095804D01*
X24604133Y-25047423D01*
X24652514Y-24950661D01*
X24652514Y-24805519D01*
X24604133Y-24708757D01*
X24555752Y-24660376D01*
X24458990Y-24611995D01*
X24168705Y-24611995D01*
X24071943Y-24660376D01*
X24023562Y-24708757D01*
X23975181Y-24805519D01*
X23975181Y-24950661D01*
X23975181Y-24273328D02*
X24652514Y-23741138D01*
X24652514Y-24273328D02*
X23975181Y-23741138D01*
X24071943Y-23354090D02*
X24023562Y-23305709D01*
X23975181Y-23354090D01*
X24023562Y-23402471D01*
X24071943Y-23354090D01*
X23975181Y-23354090D01*
X24652514Y-22870280D02*
X23975181Y-22870280D01*
X24555752Y-22870280D02*
X24604133Y-22821899D01*
X24652514Y-22725137D01*
X24652514Y-22579995D01*
X24604133Y-22483233D01*
X24507371Y-22434852D01*
X23975181Y-22434852D01*
X24023562Y-21563995D02*
X23975181Y-21660757D01*
X23975181Y-21854280D01*
X24023562Y-21951042D01*
X24120324Y-21999423D01*
X24507371Y-21999423D01*
X24604133Y-21951042D01*
X24652514Y-21854280D01*
X24652514Y-21660757D01*
X24604133Y-21563995D01*
X24507371Y-21515614D01*
X24410610Y-21515614D01*
X24313848Y-21999423D01*
X24652514Y-21225328D02*
X24652514Y-20838280D01*
X24991181Y-21080185D02*
X24120324Y-21080185D01*
X24023562Y-21031804D01*
X23975181Y-20935042D01*
X23975181Y-20838280D01*
X61706273Y-40314638D02*
X61561130Y-40363019D01*
X61319226Y-40363019D01*
X61222464Y-40314638D01*
X61174083Y-40266257D01*
X61125702Y-40169495D01*
X61125702Y-40072733D01*
X61174083Y-39975971D01*
X61222464Y-39927590D01*
X61319226Y-39879210D01*
X61512749Y-39830829D01*
X61609511Y-39782448D01*
X61657892Y-39734067D01*
X61706273Y-39637305D01*
X61706273Y-39540543D01*
X61657892Y-39443781D01*
X61609511Y-39395400D01*
X61512749Y-39347019D01*
X61270845Y-39347019D01*
X61125702Y-39395400D01*
X60835416Y-39347019D02*
X60254845Y-39347019D01*
X60545130Y-40363019D02*
X60545130Y-39347019D01*
X59916178Y-40363019D02*
X59916178Y-39347019D01*
X59335607Y-40363019D01*
X59335607Y-39347019D01*
X58900178Y-40314638D02*
X58755035Y-40363019D01*
X58513131Y-40363019D01*
X58416369Y-40314638D01*
X58367988Y-40266257D01*
X58319607Y-40169495D01*
X58319607Y-40072733D01*
X58367988Y-39975971D01*
X58416369Y-39927590D01*
X58513131Y-39879210D01*
X58706654Y-39830829D01*
X58803416Y-39782448D01*
X58851797Y-39734067D01*
X58900178Y-39637305D01*
X58900178Y-39540543D01*
X58851797Y-39443781D01*
X58803416Y-39395400D01*
X58706654Y-39347019D01*
X58464750Y-39347019D01*
X58319607Y-39395400D01*
X57690654Y-39347019D02*
X57593893Y-39347019D01*
X57497131Y-39395400D01*
X57448750Y-39443781D01*
X57400369Y-39540543D01*
X57351988Y-39734067D01*
X57351988Y-39975971D01*
X57400369Y-40169495D01*
X57448750Y-40266257D01*
X57497131Y-40314638D01*
X57593893Y-40363019D01*
X57690654Y-40363019D01*
X57787416Y-40314638D01*
X57835797Y-40266257D01*
X57884178Y-40169495D01*
X57932559Y-39975971D01*
X57932559Y-39734067D01*
X57884178Y-39540543D01*
X57835797Y-39443781D01*
X57787416Y-39395400D01*
X57690654Y-39347019D01*
X56384369Y-40363019D02*
X56964940Y-40363019D01*
X56674654Y-40363019D02*
X56674654Y-39347019D01*
X56771416Y-39492162D01*
X56868178Y-39588924D01*
X56964940Y-39637305D01*
X54836179Y-39830829D02*
X54691036Y-39879210D01*
X54642655Y-39927590D01*
X54594274Y-40024352D01*
X54594274Y-40169495D01*
X54642655Y-40266257D01*
X54691036Y-40314638D01*
X54787798Y-40363019D01*
X55174845Y-40363019D01*
X55174845Y-39347019D01*
X54836179Y-39347019D01*
X54739417Y-39395400D01*
X54691036Y-39443781D01*
X54642655Y-39540543D01*
X54642655Y-39637305D01*
X54691036Y-39734067D01*
X54739417Y-39782448D01*
X54836179Y-39830829D01*
X55174845Y-39830829D01*
X53723417Y-40363019D02*
X53723417Y-39830829D01*
X53771798Y-39734067D01*
X53868560Y-39685686D01*
X54062083Y-39685686D01*
X54158845Y-39734067D01*
X53723417Y-40314638D02*
X53820179Y-40363019D01*
X54062083Y-40363019D01*
X54158845Y-40314638D01*
X54207226Y-40217876D01*
X54207226Y-40121114D01*
X54158845Y-40024352D01*
X54062083Y-39975971D01*
X53820179Y-39975971D01*
X53723417Y-39927590D01*
X53384750Y-39685686D02*
X52997702Y-39685686D01*
X53239607Y-39347019D02*
X53239607Y-40217876D01*
X53191226Y-40314638D01*
X53094464Y-40363019D01*
X52997702Y-40363019D01*
X52804179Y-39685686D02*
X52417131Y-39685686D01*
X52659036Y-39347019D02*
X52659036Y-40217876D01*
X52610655Y-40314638D01*
X52513893Y-40363019D01*
X52417131Y-40363019D01*
X51691418Y-40314638D02*
X51788180Y-40363019D01*
X51981703Y-40363019D01*
X52078465Y-40314638D01*
X52126846Y-40217876D01*
X52126846Y-39830829D01*
X52078465Y-39734067D01*
X51981703Y-39685686D01*
X51788180Y-39685686D01*
X51691418Y-39734067D01*
X51643037Y-39830829D01*
X51643037Y-39927590D01*
X52126846Y-40024352D01*
X51207608Y-40363019D02*
X51207608Y-39685686D01*
X51207608Y-39879210D02*
X51159227Y-39782448D01*
X51110846Y-39734067D01*
X51014084Y-39685686D01*
X50917323Y-39685686D01*
X50675418Y-39685686D02*
X50433513Y-40363019D01*
X50191609Y-39685686D02*
X50433513Y-40363019D01*
X50530275Y-40604924D01*
X50578656Y-40653305D01*
X50675418Y-40701686D01*
X49030466Y-40363019D02*
X49030466Y-39347019D01*
X48691800Y-40072733D01*
X48353133Y-39347019D01*
X48353133Y-40363019D01*
X47433895Y-40363019D02*
X47433895Y-39830829D01*
X47482276Y-39734067D01*
X47579038Y-39685686D01*
X47772561Y-39685686D01*
X47869323Y-39734067D01*
X47433895Y-40314638D02*
X47530657Y-40363019D01*
X47772561Y-40363019D01*
X47869323Y-40314638D01*
X47917704Y-40217876D01*
X47917704Y-40121114D01*
X47869323Y-40024352D01*
X47772561Y-39975971D01*
X47530657Y-39975971D01*
X47433895Y-39927590D01*
X46950085Y-39685686D02*
X46950085Y-40363019D01*
X46950085Y-39782448D02*
X46901704Y-39734067D01*
X46804942Y-39685686D01*
X46659800Y-39685686D01*
X46563038Y-39734067D01*
X46514657Y-39830829D01*
X46514657Y-40363019D01*
X45595419Y-40363019D02*
X45595419Y-39830829D01*
X45643800Y-39734067D01*
X45740562Y-39685686D01*
X45934085Y-39685686D01*
X46030847Y-39734067D01*
X45595419Y-40314638D02*
X45692181Y-40363019D01*
X45934085Y-40363019D01*
X46030847Y-40314638D01*
X46079228Y-40217876D01*
X46079228Y-40121114D01*
X46030847Y-40024352D01*
X45934085Y-39975971D01*
X45692181Y-39975971D01*
X45595419Y-39927590D01*
X44676181Y-39685686D02*
X44676181Y-40508162D01*
X44724562Y-40604924D01*
X44772943Y-40653305D01*
X44869704Y-40701686D01*
X45014847Y-40701686D01*
X45111609Y-40653305D01*
X44676181Y-40314638D02*
X44772943Y-40363019D01*
X44966466Y-40363019D01*
X45063228Y-40314638D01*
X45111609Y-40266257D01*
X45159990Y-40169495D01*
X45159990Y-39879210D01*
X45111609Y-39782448D01*
X45063228Y-39734067D01*
X44966466Y-39685686D01*
X44772943Y-39685686D01*
X44676181Y-39734067D01*
X43805324Y-40314638D02*
X43902086Y-40363019D01*
X44095609Y-40363019D01*
X44192371Y-40314638D01*
X44240752Y-40217876D01*
X44240752Y-39830829D01*
X44192371Y-39734067D01*
X44095609Y-39685686D01*
X43902086Y-39685686D01*
X43805324Y-39734067D01*
X43756943Y-39830829D01*
X43756943Y-39927590D01*
X44240752Y-40024352D01*
X43321514Y-40363019D02*
X43321514Y-39685686D01*
X43321514Y-39879210D02*
X43273133Y-39782448D01*
X43224752Y-39734067D01*
X43127990Y-39685686D01*
X43031229Y-39685686D01*
X41579801Y-39830829D02*
X41434658Y-39879210D01*
X41386277Y-39927590D01*
X41337896Y-40024352D01*
X41337896Y-40169495D01*
X41386277Y-40266257D01*
X41434658Y-40314638D01*
X41531420Y-40363019D01*
X41918467Y-40363019D01*
X41918467Y-39347019D01*
X41579801Y-39347019D01*
X41483039Y-39395400D01*
X41434658Y-39443781D01*
X41386277Y-39540543D01*
X41386277Y-39637305D01*
X41434658Y-39734067D01*
X41483039Y-39782448D01*
X41579801Y-39830829D01*
X41918467Y-39830829D01*
X40902467Y-40363019D02*
X40902467Y-39685686D01*
X40902467Y-39879210D02*
X40854086Y-39782448D01*
X40805705Y-39734067D01*
X40708943Y-39685686D01*
X40612182Y-39685686D01*
X39886468Y-40314638D02*
X39983230Y-40363019D01*
X40176753Y-40363019D01*
X40273515Y-40314638D01*
X40321896Y-40217876D01*
X40321896Y-39830829D01*
X40273515Y-39734067D01*
X40176753Y-39685686D01*
X39983230Y-39685686D01*
X39886468Y-39734067D01*
X39838087Y-39830829D01*
X39838087Y-39927590D01*
X40321896Y-40024352D01*
X38967230Y-40363019D02*
X38967230Y-39830829D01*
X39015611Y-39734067D01*
X39112373Y-39685686D01*
X39305896Y-39685686D01*
X39402658Y-39734067D01*
X38967230Y-40314638D02*
X39063992Y-40363019D01*
X39305896Y-40363019D01*
X39402658Y-40314638D01*
X39451039Y-40217876D01*
X39451039Y-40121114D01*
X39402658Y-40024352D01*
X39305896Y-39975971D01*
X39063992Y-39975971D01*
X38967230Y-39927590D01*
X38483420Y-40363019D02*
X38483420Y-39347019D01*
X38386658Y-39975971D02*
X38096373Y-40363019D01*
X38096373Y-39685686D02*
X38483420Y-40072733D01*
X37515801Y-40363019D02*
X37612563Y-40314638D01*
X37660944Y-40266257D01*
X37709325Y-40169495D01*
X37709325Y-39879210D01*
X37660944Y-39782448D01*
X37612563Y-39734067D01*
X37515801Y-39685686D01*
X37370659Y-39685686D01*
X37273897Y-39734067D01*
X37225516Y-39782448D01*
X37177135Y-39879210D01*
X37177135Y-40169495D01*
X37225516Y-40266257D01*
X37273897Y-40314638D01*
X37370659Y-40363019D01*
X37515801Y-40363019D01*
X36306278Y-39685686D02*
X36306278Y-40363019D01*
X36741706Y-39685686D02*
X36741706Y-40217876D01*
X36693325Y-40314638D01*
X36596563Y-40363019D01*
X36451421Y-40363019D01*
X36354659Y-40314638D01*
X36306278Y-40266257D01*
X35967611Y-39685686D02*
X35580563Y-39685686D01*
X35822468Y-39347019D02*
X35822468Y-40217876D01*
X35774087Y-40314638D01*
X35677325Y-40363019D01*
X35580563Y-40363019D01*
X34129136Y-39830829D02*
X33983993Y-39879210D01*
X33935612Y-39927590D01*
X33887231Y-40024352D01*
X33887231Y-40169495D01*
X33935612Y-40266257D01*
X33983993Y-40314638D01*
X34080755Y-40363019D01*
X34467802Y-40363019D01*
X34467802Y-39347019D01*
X34129136Y-39347019D01*
X34032374Y-39395400D01*
X33983993Y-39443781D01*
X33935612Y-39540543D01*
X33935612Y-39637305D01*
X33983993Y-39734067D01*
X34032374Y-39782448D01*
X34129136Y-39830829D01*
X34467802Y-39830829D01*
X33306659Y-40363019D02*
X33403421Y-40314638D01*
X33451802Y-40266257D01*
X33500183Y-40169495D01*
X33500183Y-39879210D01*
X33451802Y-39782448D01*
X33403421Y-39734067D01*
X33306659Y-39685686D01*
X33161517Y-39685686D01*
X33064755Y-39734067D01*
X33016374Y-39782448D01*
X32967993Y-39879210D01*
X32967993Y-40169495D01*
X33016374Y-40266257D01*
X33064755Y-40314638D01*
X33161517Y-40363019D01*
X33306659Y-40363019D01*
X32097136Y-40363019D02*
X32097136Y-39830829D01*
X32145517Y-39734067D01*
X32242279Y-39685686D01*
X32435802Y-39685686D01*
X32532564Y-39734067D01*
X32097136Y-40314638D02*
X32193898Y-40363019D01*
X32435802Y-40363019D01*
X32532564Y-40314638D01*
X32580945Y-40217876D01*
X32580945Y-40121114D01*
X32532564Y-40024352D01*
X32435802Y-39975971D01*
X32193898Y-39975971D01*
X32097136Y-39927590D01*
X31613326Y-40363019D02*
X31613326Y-39685686D01*
X31613326Y-39879210D02*
X31564945Y-39782448D01*
X31516564Y-39734067D01*
X31419802Y-39685686D01*
X31323041Y-39685686D01*
X30548946Y-40363019D02*
X30548946Y-39347019D01*
X30548946Y-40314638D02*
X30645708Y-40363019D01*
X30839231Y-40363019D01*
X30935993Y-40314638D01*
X30984374Y-40266257D01*
X31032755Y-40169495D01*
X31032755Y-39879210D01*
X30984374Y-39782448D01*
X30935993Y-39734067D01*
X30839231Y-39685686D01*
X30645708Y-39685686D01*
X30548946Y-39734067D01*
X29387803Y-39685686D02*
X29145898Y-40363019D01*
X28903994Y-39685686D01*
X27984756Y-40363019D02*
X28565327Y-40363019D01*
X28275041Y-40363019D02*
X28275041Y-39347019D01*
X28371803Y-39492162D01*
X28468565Y-39588924D01*
X28565327Y-39637305D01*
X27549327Y-40266257D02*
X27500946Y-40314638D01*
X27549327Y-40363019D01*
X27597708Y-40314638D01*
X27549327Y-40266257D01*
X27549327Y-40363019D01*
X26871993Y-39347019D02*
X26775232Y-39347019D01*
X26678470Y-39395400D01*
X26630089Y-39443781D01*
X26581708Y-39540543D01*
X26533327Y-39734067D01*
X26533327Y-39975971D01*
X26581708Y-40169495D01*
X26630089Y-40266257D01*
X26678470Y-40314638D01*
X26775232Y-40363019D01*
X26871993Y-40363019D01*
X26968755Y-40314638D01*
X27017136Y-40266257D01*
X27065517Y-40169495D01*
X27113898Y-39975971D01*
X27113898Y-39734067D01*
X27065517Y-39540543D01*
X27017136Y-39443781D01*
X26968755Y-39395400D01*
X26871993Y-39347019D01*
%LPC*%
D12*
X28879800Y-22123400D03*
D13*
X28879800Y-24663400D03*
X28879800Y-27203400D03*
X28879800Y-29743400D03*
X28879800Y-32283400D03*
X28879800Y-34823400D03*
X28879800Y-37363400D03*
D14*
X44754300Y-21917900D03*
X37654300Y-21917900D03*
D12*
X59359800Y-22123400D03*
D13*
X59359800Y-24663400D03*
X59359800Y-27203400D03*
X59359800Y-29743400D03*
X59359800Y-32283400D03*
X59359800Y-34823400D03*
X59359800Y-37363400D03*
D12*
X34135060Y-31333440D03*
D13*
X34135060Y-33873440D03*
X34135060Y-36413440D03*
D15*
X50065940Y-36177220D03*
X52555140Y-36177220D03*
X47576740Y-36177220D03*
M02*
