%TF.GenerationSoftware,KiCad,Pcbnew,4.0.5-e0-6337~49~ubuntu16.04.1*%
%TF.CreationDate,2017-07-21T11:10:54-07:00*%
%TF.ProjectId,stns01-battery-mgmt-breakout,73746E7330312D626174746572792D6D,1.0*%
%TF.FileFunction,Paste,Top*%
%FSLAX46Y46*%
G04 Gerber Fmt 4.6, Leading zero omitted, Abs format (unit mm)*
G04 Created by KiCad (PCBNEW 4.0.5-e0-6337~49~ubuntu16.04.1) date Fri Jul 21 11:10:54 2017*
%MOMM*%
%LPD*%
G01*
G04 APERTURE LIST*
%ADD10C,0.350000*%
%ADD11R,0.247600X1.197600*%
%ADD12R,1.447600X1.247600*%
%ADD13R,1.747600X1.747600*%
%ADD14R,0.647600X0.597600*%
%ADD15R,0.597600X0.647600*%
%ADD16R,0.847600X3.347600*%
%ADD17R,1.447600X3.247600*%
%ADD18R,0.547600X0.097600*%
%ADD19R,0.345600X0.561600*%
%ADD20R,0.647700X0.647700*%
G04 APERTURE END LIST*
D10*
D11*
X127924500Y-106609500D03*
X127274500Y-106609500D03*
X126625400Y-106609500D03*
X125974500Y-106609500D03*
X125324500Y-106609500D03*
D12*
X129824500Y-106384500D03*
D13*
X127824500Y-103934500D03*
X125424500Y-103934500D03*
D12*
X123424500Y-106384500D03*
D14*
X127394400Y-108864400D03*
X125894400Y-108864400D03*
X138456800Y-113487200D03*
X136956800Y-113487200D03*
D15*
X122572780Y-112358740D03*
X122572780Y-113858740D03*
X122572780Y-110378240D03*
X122572780Y-108878240D03*
D16*
X138715500Y-110236000D03*
X136715500Y-110236000D03*
D17*
X141115500Y-104686000D03*
X134315500Y-104686000D03*
D15*
X123748800Y-117004400D03*
X123748800Y-118504400D03*
X133421120Y-113438940D03*
X133421120Y-114938940D03*
X129415540Y-113474500D03*
X129415540Y-114974500D03*
X127477520Y-115947060D03*
X127477520Y-117447060D03*
X125603000Y-117463000D03*
X125603000Y-115963000D03*
X129415540Y-111866680D03*
X129415540Y-110366680D03*
X131180840Y-110390940D03*
X131180840Y-111890940D03*
D18*
X124674804Y-111029941D03*
X124674804Y-111479941D03*
X124674804Y-111929941D03*
X124674804Y-112379941D03*
X124674804Y-112829941D03*
X124674804Y-113279941D03*
X127474804Y-113279941D03*
X127474804Y-112829941D03*
X127474804Y-112379941D03*
X127474804Y-111929941D03*
X127474804Y-111479941D03*
X127474804Y-111029941D03*
D19*
X126489804Y-112749941D03*
X126489804Y-111559941D03*
X125659804Y-112749941D03*
X125659804Y-111559941D03*
D20*
X118704360Y-105907800D03*
X118704360Y-107807800D03*
X120703340Y-106857800D03*
M02*
