M48
;DRILL file {KiCad 4.0.5-e0-6337~49~ubuntu16.04.1} date Mon Aug 14 13:55:07 2017
;FORMAT={-:-/ absolute / metric / decimal}
FMAT,2
METRIC,TZ
T1C0.330
T2C1.016
T3C1.200
%
G90
G05
M71
T1
X32.245Y-24.219
X33.071Y-22.758
X36.601Y-34.417
X37.153Y-25.895
X38.009Y-29.447
X38.019Y-31.139
X38.12Y-30.307
X38.685Y-33.553
X38.989Y-26.949
X39.409Y-31.874
X39.904Y-25.832
X40.678Y-28.928
X40.678Y-30.162
X40.678Y-31.346
X42.088Y-38.379
X43.119Y-33.851
X43.51Y-35.331
X46.86Y-29.911
X47.117Y-28.321
X49.504Y-31.512
X49.581Y-32.347
X50.013Y-28.219
X50.394Y-31.496
X54.026Y-32.918
T2
X28.88Y-22.123
X28.88Y-24.663
X28.88Y-27.203
X28.88Y-29.743
X28.88Y-32.283
X28.88Y-34.823
X28.88Y-37.363
X34.135Y-31.333
X34.135Y-33.873
X34.135Y-36.413
X47.577Y-36.177
X50.066Y-36.177
X52.555Y-36.177
X59.36Y-22.123
X59.36Y-24.663
X59.36Y-27.203
X59.36Y-29.743
X59.36Y-32.283
X59.36Y-34.823
X59.36Y-37.363
T3
X37.654Y-21.918
X44.754Y-21.918
T0
M30
