%TF.GenerationSoftware,KiCad,Pcbnew,4.0.5-e0-6337~49~ubuntu16.04.1*%
%TF.CreationDate,2017-08-14T13:55:07-07:00*%
%TF.ProjectId,stns01-battery-mgmt-breakout,73746E7330312D626174746572792D6D,1.0*%
%TF.FileFunction,Paste,Top*%
%FSLAX46Y46*%
G04 Gerber Fmt 4.6, Leading zero omitted, Abs format (unit mm)*
G04 Created by KiCad (PCBNEW 4.0.5-e0-6337~49~ubuntu16.04.1) date Mon Aug 14 13:55:07 2017*
%MOMM*%
%LPD*%
G01*
G04 APERTURE LIST*
%ADD10C,0.350000*%
%ADD11R,0.247600X1.197600*%
%ADD12R,1.447600X1.247600*%
%ADD13R,1.747600X1.747600*%
%ADD14R,0.647600X0.597600*%
%ADD15R,0.597600X0.647600*%
%ADD16R,0.847600X3.347600*%
%ADD17R,1.447600X3.247600*%
%ADD18R,0.547600X0.097600*%
%ADD19R,0.345600X0.561600*%
%ADD20R,0.647700X0.647700*%
G04 APERTURE END LIST*
D10*
D11*
X42504300Y-24592900D03*
X41854300Y-24592900D03*
X41205200Y-24592900D03*
X40554300Y-24592900D03*
X39904300Y-24592900D03*
D12*
X44404300Y-24367900D03*
D13*
X42404300Y-21917900D03*
X40004300Y-21917900D03*
D12*
X38004300Y-24367900D03*
D14*
X41974200Y-26847800D03*
X40474200Y-26847800D03*
X53036600Y-31470600D03*
X51536600Y-31470600D03*
D15*
X37152580Y-30342140D03*
X37152580Y-31842140D03*
X37152580Y-28361640D03*
X37152580Y-26861640D03*
D16*
X53295300Y-28219400D03*
X51295300Y-28219400D03*
D17*
X55695300Y-22669400D03*
X48895300Y-22669400D03*
D15*
X38328600Y-34987800D03*
X38328600Y-36487800D03*
X48000920Y-31422340D03*
X48000920Y-32922340D03*
X43995340Y-31457900D03*
X43995340Y-32957900D03*
X42057320Y-33930460D03*
X42057320Y-35430460D03*
X40182800Y-35446400D03*
X40182800Y-33946400D03*
X43995340Y-29850080D03*
X43995340Y-28350080D03*
X45760640Y-28374340D03*
X45760640Y-29874340D03*
D18*
X39254604Y-29013341D03*
X39254604Y-29463341D03*
X39254604Y-29913341D03*
X39254604Y-30363341D03*
X39254604Y-30813341D03*
X39254604Y-31263341D03*
X42054604Y-31263341D03*
X42054604Y-30813341D03*
X42054604Y-30363341D03*
X42054604Y-29913341D03*
X42054604Y-29463341D03*
X42054604Y-29013341D03*
D19*
X41069604Y-30733341D03*
X41069604Y-29543341D03*
X40239604Y-30733341D03*
X40239604Y-29543341D03*
D20*
X33284160Y-23891200D03*
X33284160Y-25791200D03*
X35283140Y-24841200D03*
M02*
