G04 This is an RS-274x file exported by *
G04 gerbv version 2.6.0 *
G04 More information is available about gerbv at *
G04 http://gerbv.gpleda.org/ *
G04 --End of header info--*
%MOIN*%
%FSLAX34Y34*%
%IPPOS*%
G04 --Define apertures--*
%ADD10C,0.0050*%
%ADD11C,0.0060*%
%ADD12C,0.0079*%
%ADD13C,0.0118*%
%ADD14C,0.0138*%
%ADD15C,0.0059*%
G04 --Start main section--*
G54D11*
G01X0040768Y-014370D02*
G01X0039508Y-014055D01*
G01X0047008Y-027677D02*
G01X0040728Y-014331D01*
G01X0038878Y-031122D02*
G01X0047008Y-027677D01*
G01X0019882Y-025315D02*
G01X0038878Y-031122D01*
G01X0017579Y-014409D02*
G01X0019882Y-025315D01*
G01X0039823Y-014094D02*
G01X0017579Y-014409D01*
G54D12*
G01X0026330Y-016817D02*
G01X0026730Y-017217D01*
G01X0026730Y-016817D02*
G01X0026330Y-017217D01*
G01X0027310Y-016817D02*
G01X0027710Y-017217D01*
G01X0027710Y-016817D02*
G01X0027310Y-017217D01*
G01X0028290Y-016817D02*
G01X0028690Y-017217D01*
G01X0028690Y-016817D02*
G01X0028290Y-017217D01*
G01X0029820Y-009111D02*
G01X0030220Y-009511D01*
G01X0030220Y-009111D02*
G01X0029820Y-009511D01*
G01X0030820Y-009111D02*
G01X0031220Y-009511D01*
G01X0031220Y-009111D02*
G01X0030820Y-009511D01*
G01X0031820Y-009111D02*
G01X0032220Y-009511D01*
G01X0032220Y-009111D02*
G01X0031820Y-009511D01*
G01X0032820Y-009111D02*
G01X0033220Y-009511D01*
G01X0033220Y-009111D02*
G01X0032820Y-009511D01*
G01X0033820Y-009111D02*
G01X0034220Y-009511D01*
G01X0034220Y-009111D02*
G01X0033820Y-009511D01*
G01X0034820Y-009111D02*
G01X0035220Y-009511D01*
G01X0035220Y-009111D02*
G01X0034820Y-009511D01*
G01X0035804Y-016623D02*
G01X0036204Y-017023D01*
G01X0036204Y-016623D02*
G01X0035804Y-017023D01*
G01X0035804Y-017623D02*
G01X0036204Y-018023D01*
G01X0036204Y-017623D02*
G01X0035804Y-018023D01*
G01X0035804Y-018623D02*
G01X0036204Y-019023D01*
G01X0036204Y-018623D02*
G01X0035804Y-019023D01*
G01X0035820Y-009111D02*
G01X0036220Y-009511D01*
G01X0036220Y-009111D02*
G01X0035820Y-009511D01*
G01X0041473Y-019662D02*
G01X0041873Y-020062D01*
G01X0041873Y-019662D02*
G01X0041473Y-020062D01*
G01X0041473Y-020662D02*
G01X0041873Y-021062D01*
G01X0041873Y-020662D02*
G01X0041473Y-021062D01*
G01X0041473Y-021662D02*
G01X0041873Y-022062D01*
G01X0041873Y-021662D02*
G01X0041473Y-022062D01*
G01X0041473Y-022662D02*
G01X0041873Y-023062D01*
G01X0041873Y-022662D02*
G01X0041473Y-023062D01*
G01X0041473Y-023662D02*
G01X0041873Y-024062D01*
G01X0041873Y-023662D02*
G01X0041473Y-024062D01*
G01X0041473Y-024662D02*
G01X0041873Y-025062D01*
G01X0041873Y-024662D02*
G01X0041473Y-025062D01*
G01X0041473Y-025662D02*
G01X0041873Y-026062D01*
G01X0041873Y-025662D02*
G01X0041473Y-026062D01*
G01X0029846Y-019888D02*
G75*
G03X0029846Y-019888I-000236J0000000D01*
G01X0032641Y-019888D02*
G75*
G03X0032641Y-019888I-000236J0000000D01*
G54D13*
G01X0018617Y-032986D02*
G01X0018617Y-031804D01*
G01X0018617Y-031804D02*
G01X0018899Y-031804D01*
G01X0018899Y-031804D02*
G01X0019067Y-031861D01*
G01X0019067Y-031861D02*
G01X0019180Y-031973D01*
G01X0019180Y-031973D02*
G01X0019236Y-032086D01*
G01X0019236Y-032086D02*
G01X0019292Y-032311D01*
G01X0019292Y-032311D02*
G01X0019292Y-032479D01*
G01X0019292Y-032479D02*
G01X0019236Y-032704D01*
G01X0019236Y-032704D02*
G01X0019180Y-032817D01*
G01X0019180Y-032817D02*
G01X0019067Y-032929D01*
G01X0019067Y-032929D02*
G01X0018899Y-032986D01*
G01X0018899Y-032986D02*
G01X0018617Y-032986D01*
G01X0019798Y-032986D02*
G01X0019798Y-032198D01*
G01X0019798Y-032423D02*
G01X0019855Y-032311D01*
G01X0019855Y-032311D02*
G01X0019911Y-032254D01*
G01X0019911Y-032254D02*
G01X0020023Y-032198D01*
G01X0020023Y-032198D02*
G01X0020136Y-032198D01*
G01X0020530Y-032986D02*
G01X0020530Y-032198D01*
G01X0020530Y-031804D02*
G01X0020473Y-031861D01*
G01X0020473Y-031861D02*
G01X0020530Y-031917D01*
G01X0020530Y-031917D02*
G01X0020586Y-031861D01*
G01X0020586Y-031861D02*
G01X0020530Y-031804D01*
G01X0020530Y-031804D02*
G01X0020530Y-031917D01*
G01X0021261Y-032986D02*
G01X0021148Y-032929D01*
G01X0021148Y-032929D02*
G01X0021092Y-032817D01*
G01X0021092Y-032817D02*
G01X0021092Y-031804D01*
G01X0021879Y-032986D02*
G01X0021767Y-032929D01*
G01X0021767Y-032929D02*
G01X0021711Y-032817D01*
G01X0021711Y-032817D02*
G01X0021711Y-031804D01*
G01X0023229Y-032986D02*
G01X0023229Y-031804D01*
G01X0023229Y-031804D02*
G01X0023623Y-032648D01*
G01X0023623Y-032648D02*
G01X0024017Y-031804D01*
G01X0024017Y-031804D02*
G01X0024017Y-032986D01*
G01X0025085Y-032986D02*
G01X0025085Y-032367D01*
G01X0025085Y-032367D02*
G01X0025029Y-032254D01*
G01X0025029Y-032254D02*
G01X0024917Y-032198D01*
G01X0024917Y-032198D02*
G01X0024692Y-032198D01*
G01X0024692Y-032198D02*
G01X0024579Y-032254D01*
G01X0025085Y-032929D02*
G01X0024973Y-032986D01*
G01X0024973Y-032986D02*
G01X0024692Y-032986D01*
G01X0024692Y-032986D02*
G01X0024579Y-032929D01*
G01X0024579Y-032929D02*
G01X0024523Y-032817D01*
G01X0024523Y-032817D02*
G01X0024523Y-032704D01*
G01X0024523Y-032704D02*
G01X0024579Y-032592D01*
G01X0024579Y-032592D02*
G01X0024692Y-032536D01*
G01X0024692Y-032536D02*
G01X0024973Y-032536D01*
G01X0024973Y-032536D02*
G01X0025085Y-032479D01*
G01X0025648Y-032198D02*
G01X0025648Y-033379D01*
G01X0025648Y-032254D02*
G01X0025760Y-032198D01*
G01X0025760Y-032198D02*
G01X0025985Y-032198D01*
G01X0025985Y-032198D02*
G01X0026098Y-032254D01*
G01X0026098Y-032254D02*
G01X0026154Y-032311D01*
G01X0026154Y-032311D02*
G01X0026210Y-032423D01*
G01X0026210Y-032423D02*
G01X0026210Y-032761D01*
G01X0026210Y-032761D02*
G01X0026154Y-032873D01*
G01X0026154Y-032873D02*
G01X0026098Y-032929D01*
G01X0026098Y-032929D02*
G01X0025985Y-032986D01*
G01X0025985Y-032986D02*
G01X0025760Y-032986D01*
G01X0025760Y-032986D02*
G01X0025648Y-032929D01*
G01X0026716Y-032873D02*
G01X0026773Y-032929D01*
G01X0026773Y-032929D02*
G01X0026716Y-032986D01*
G01X0026716Y-032986D02*
G01X0026660Y-032929D01*
G01X0026660Y-032929D02*
G01X0026716Y-032873D01*
G01X0026716Y-032873D02*
G01X0026716Y-032986D01*
G01X0026716Y-032254D02*
G01X0026773Y-032311D01*
G01X0026773Y-032311D02*
G01X0026716Y-032367D01*
G01X0026716Y-032367D02*
G01X0026660Y-032311D01*
G01X0026660Y-032311D02*
G01X0026716Y-032254D01*
G01X0026716Y-032254D02*
G01X0026716Y-032367D01*
G01X0017149Y-034732D02*
G01X0017549Y-035132D01*
G01X0017549Y-034732D02*
G01X0017149Y-035132D01*
G01X0019236Y-035466D02*
G01X0018561Y-035466D01*
G01X0018899Y-035466D02*
G01X0018899Y-034285D01*
G01X0018899Y-034285D02*
G01X0018786Y-034454D01*
G01X0018786Y-034454D02*
G01X0018674Y-034566D01*
G01X0018674Y-034566D02*
G01X0018561Y-034622D01*
G01X0019742Y-035353D02*
G01X0019798Y-035410D01*
G01X0019798Y-035410D02*
G01X0019742Y-035466D01*
G01X0019742Y-035466D02*
G01X0019686Y-035410D01*
G01X0019686Y-035410D02*
G01X0019742Y-035353D01*
G01X0019742Y-035353D02*
G01X0019742Y-035466D01*
G01X0020530Y-034285D02*
G01X0020642Y-034285D01*
G01X0020642Y-034285D02*
G01X0020755Y-034341D01*
G01X0020755Y-034341D02*
G01X0020811Y-034397D01*
G01X0020811Y-034397D02*
G01X0020867Y-034510D01*
G01X0020867Y-034510D02*
G01X0020923Y-034735D01*
G01X0020923Y-034735D02*
G01X0020923Y-035016D01*
G01X0020923Y-035016D02*
G01X0020867Y-035241D01*
G01X0020867Y-035241D02*
G01X0020811Y-035353D01*
G01X0020811Y-035353D02*
G01X0020755Y-035410D01*
G01X0020755Y-035410D02*
G01X0020642Y-035466D01*
G01X0020642Y-035466D02*
G01X0020530Y-035466D01*
G01X0020530Y-035466D02*
G01X0020417Y-035410D01*
G01X0020417Y-035410D02*
G01X0020361Y-035353D01*
G01X0020361Y-035353D02*
G01X0020305Y-035241D01*
G01X0020305Y-035241D02*
G01X0020248Y-035016D01*
G01X0020248Y-035016D02*
G01X0020248Y-034735D01*
G01X0020248Y-034735D02*
G01X0020305Y-034510D01*
G01X0020305Y-034510D02*
G01X0020361Y-034397D01*
G01X0020361Y-034397D02*
G01X0020417Y-034341D01*
G01X0020417Y-034341D02*
G01X0020530Y-034285D01*
G01X0021373Y-034397D02*
G01X0021430Y-034341D01*
G01X0021430Y-034341D02*
G01X0021542Y-034285D01*
G01X0021542Y-034285D02*
G01X0021823Y-034285D01*
G01X0021823Y-034285D02*
G01X0021936Y-034341D01*
G01X0021936Y-034341D02*
G01X0021992Y-034397D01*
G01X0021992Y-034397D02*
G01X0022048Y-034510D01*
G01X0022048Y-034510D02*
G01X0022048Y-034622D01*
G01X0022048Y-034622D02*
G01X0021992Y-034791D01*
G01X0021992Y-034791D02*
G01X0021317Y-035466D01*
G01X0021317Y-035466D02*
G01X0022048Y-035466D01*
G01X0022554Y-035466D02*
G01X0022554Y-034678D01*
G01X0022554Y-034791D02*
G01X0022611Y-034735D01*
G01X0022611Y-034735D02*
G01X0022723Y-034678D01*
G01X0022723Y-034678D02*
G01X0022892Y-034678D01*
G01X0022892Y-034678D02*
G01X0023004Y-034735D01*
G01X0023004Y-034735D02*
G01X0023061Y-034847D01*
G01X0023061Y-034847D02*
G01X0023061Y-035466D01*
G01X0023061Y-034847D02*
G01X0023117Y-034735D01*
G01X0023117Y-034735D02*
G01X0023229Y-034678D01*
G01X0023229Y-034678D02*
G01X0023398Y-034678D01*
G01X0023398Y-034678D02*
G01X0023510Y-034735D01*
G01X0023510Y-034735D02*
G01X0023567Y-034847D01*
G01X0023567Y-034847D02*
G01X0023567Y-035466D01*
G01X0024129Y-035466D02*
G01X0024129Y-034678D01*
G01X0024129Y-034791D02*
G01X0024185Y-034735D01*
G01X0024185Y-034735D02*
G01X0024298Y-034678D01*
G01X0024298Y-034678D02*
G01X0024467Y-034678D01*
G01X0024467Y-034678D02*
G01X0024579Y-034735D01*
G01X0024579Y-034735D02*
G01X0024635Y-034847D01*
G01X0024635Y-034847D02*
G01X0024635Y-035466D01*
G01X0024635Y-034847D02*
G01X0024692Y-034735D01*
G01X0024692Y-034735D02*
G01X0024804Y-034678D01*
G01X0024804Y-034678D02*
G01X0024973Y-034678D01*
G01X0024973Y-034678D02*
G01X0025085Y-034735D01*
G01X0025085Y-034735D02*
G01X0025142Y-034847D01*
G01X0025142Y-034847D02*
G01X0025142Y-035466D01*
G01X0027448Y-034229D02*
G01X0026435Y-035747D01*
G01X0028966Y-034285D02*
G01X0029079Y-034285D01*
G01X0029079Y-034285D02*
G01X0029191Y-034341D01*
G01X0029191Y-034341D02*
G01X0029247Y-034397D01*
G01X0029247Y-034397D02*
G01X0029304Y-034510D01*
G01X0029304Y-034510D02*
G01X0029360Y-034735D01*
G01X0029360Y-034735D02*
G01X0029360Y-035016D01*
G01X0029360Y-035016D02*
G01X0029304Y-035241D01*
G01X0029304Y-035241D02*
G01X0029247Y-035353D01*
G01X0029247Y-035353D02*
G01X0029191Y-035410D01*
G01X0029191Y-035410D02*
G01X0029079Y-035466D01*
G01X0029079Y-035466D02*
G01X0028966Y-035466D01*
G01X0028966Y-035466D02*
G01X0028854Y-035410D01*
G01X0028854Y-035410D02*
G01X0028797Y-035353D01*
G01X0028797Y-035353D02*
G01X0028741Y-035241D01*
G01X0028741Y-035241D02*
G01X0028685Y-035016D01*
G01X0028685Y-035016D02*
G01X0028685Y-034735D01*
G01X0028685Y-034735D02*
G01X0028741Y-034510D01*
G01X0028741Y-034510D02*
G01X0028797Y-034397D01*
G01X0028797Y-034397D02*
G01X0028854Y-034341D01*
G01X0028854Y-034341D02*
G01X0028966Y-034285D01*
G01X0029866Y-035353D02*
G01X0029922Y-035410D01*
G01X0029922Y-035410D02*
G01X0029866Y-035466D01*
G01X0029866Y-035466D02*
G01X0029810Y-035410D01*
G01X0029810Y-035410D02*
G01X0029866Y-035353D01*
G01X0029866Y-035353D02*
G01X0029866Y-035466D01*
G01X0030653Y-034285D02*
G01X0030766Y-034285D01*
G01X0030766Y-034285D02*
G01X0030878Y-034341D01*
G01X0030878Y-034341D02*
G01X0030935Y-034397D01*
G01X0030935Y-034397D02*
G01X0030991Y-034510D01*
G01X0030991Y-034510D02*
G01X0031047Y-034735D01*
G01X0031047Y-034735D02*
G01X0031047Y-035016D01*
G01X0031047Y-035016D02*
G01X0030991Y-035241D01*
G01X0030991Y-035241D02*
G01X0030935Y-035353D01*
G01X0030935Y-035353D02*
G01X0030878Y-035410D01*
G01X0030878Y-035410D02*
G01X0030766Y-035466D01*
G01X0030766Y-035466D02*
G01X0030653Y-035466D01*
G01X0030653Y-035466D02*
G01X0030541Y-035410D01*
G01X0030541Y-035410D02*
G01X0030485Y-035353D01*
G01X0030485Y-035353D02*
G01X0030428Y-035241D01*
G01X0030428Y-035241D02*
G01X0030372Y-035016D01*
G01X0030372Y-035016D02*
G01X0030372Y-034735D01*
G01X0030372Y-034735D02*
G01X0030428Y-034510D01*
G01X0030428Y-034510D02*
G01X0030485Y-034397D01*
G01X0030485Y-034397D02*
G01X0030541Y-034341D01*
G01X0030541Y-034341D02*
G01X0030653Y-034285D01*
G01X0032059Y-034678D02*
G01X0032059Y-035466D01*
G01X0031778Y-034229D02*
G01X0031497Y-035072D01*
G01X0031497Y-035072D02*
G01X0032228Y-035072D01*
G01X0032903Y-034285D02*
G01X0033016Y-034285D01*
G01X0033016Y-034285D02*
G01X0033128Y-034341D01*
G01X0033128Y-034341D02*
G01X0033184Y-034397D01*
G01X0033184Y-034397D02*
G01X0033241Y-034510D01*
G01X0033241Y-034510D02*
G01X0033297Y-034735D01*
G01X0033297Y-034735D02*
G01X0033297Y-035016D01*
G01X0033297Y-035016D02*
G01X0033241Y-035241D01*
G01X0033241Y-035241D02*
G01X0033184Y-035353D01*
G01X0033184Y-035353D02*
G01X0033128Y-035410D01*
G01X0033128Y-035410D02*
G01X0033016Y-035466D01*
G01X0033016Y-035466D02*
G01X0032903Y-035466D01*
G01X0032903Y-035466D02*
G01X0032791Y-035410D01*
G01X0032791Y-035410D02*
G01X0032734Y-035353D01*
G01X0032734Y-035353D02*
G01X0032678Y-035241D01*
G01X0032678Y-035241D02*
G01X0032622Y-035016D01*
G01X0032622Y-035016D02*
G01X0032622Y-034735D01*
G01X0032622Y-034735D02*
G01X0032678Y-034510D01*
G01X0032678Y-034510D02*
G01X0032734Y-034397D01*
G01X0032734Y-034397D02*
G01X0032791Y-034341D01*
G01X0032791Y-034341D02*
G01X0032903Y-034285D01*
G01X0033747Y-034285D02*
G01X0033747Y-034510D01*
G01X0034197Y-034285D02*
G01X0034197Y-034510D01*
G01X0035940Y-035916D02*
G01X0035884Y-035860D01*
G01X0035884Y-035860D02*
G01X0035771Y-035691D01*
G01X0035771Y-035691D02*
G01X0035715Y-035578D01*
G01X0035715Y-035578D02*
G01X0035659Y-035410D01*
G01X0035659Y-035410D02*
G01X0035603Y-035128D01*
G01X0035603Y-035128D02*
G01X0035603Y-034903D01*
G01X0035603Y-034903D02*
G01X0035659Y-034622D01*
G01X0035659Y-034622D02*
G01X0035715Y-034454D01*
G01X0035715Y-034454D02*
G01X0035771Y-034341D01*
G01X0035771Y-034341D02*
G01X0035884Y-034172D01*
G01X0035884Y-034172D02*
G01X0035940Y-034116D01*
G01X0036334Y-034397D02*
G01X0036390Y-034341D01*
G01X0036390Y-034341D02*
G01X0036503Y-034285D01*
G01X0036503Y-034285D02*
G01X0036784Y-034285D01*
G01X0036784Y-034285D02*
G01X0036896Y-034341D01*
G01X0036896Y-034341D02*
G01X0036953Y-034397D01*
G01X0036953Y-034397D02*
G01X0037009Y-034510D01*
G01X0037009Y-034510D02*
G01X0037009Y-034622D01*
G01X0037009Y-034622D02*
G01X0036953Y-034791D01*
G01X0036953Y-034791D02*
G01X0036278Y-035466D01*
G01X0036278Y-035466D02*
G01X0037009Y-035466D01*
G01X0037740Y-034285D02*
G01X0037852Y-034285D01*
G01X0037852Y-034285D02*
G01X0037965Y-034341D01*
G01X0037965Y-034341D02*
G01X0038021Y-034397D01*
G01X0038021Y-034397D02*
G01X0038077Y-034510D01*
G01X0038077Y-034510D02*
G01X0038134Y-034735D01*
G01X0038134Y-034735D02*
G01X0038134Y-035016D01*
G01X0038134Y-035016D02*
G01X0038077Y-035241D01*
G01X0038077Y-035241D02*
G01X0038021Y-035353D01*
G01X0038021Y-035353D02*
G01X0037965Y-035410D01*
G01X0037965Y-035410D02*
G01X0037852Y-035466D01*
G01X0037852Y-035466D02*
G01X0037740Y-035466D01*
G01X0037740Y-035466D02*
G01X0037627Y-035410D01*
G01X0037627Y-035410D02*
G01X0037571Y-035353D01*
G01X0037571Y-035353D02*
G01X0037515Y-035241D01*
G01X0037515Y-035241D02*
G01X0037459Y-035016D01*
G01X0037459Y-035016D02*
G01X0037459Y-034735D01*
G01X0037459Y-034735D02*
G01X0037515Y-034510D01*
G01X0037515Y-034510D02*
G01X0037571Y-034397D01*
G01X0037571Y-034397D02*
G01X0037627Y-034341D01*
G01X0037627Y-034341D02*
G01X0037740Y-034285D01*
G01X0039540Y-035466D02*
G01X0039540Y-034285D01*
G01X0040046Y-035466D02*
G01X0040046Y-034847D01*
G01X0040046Y-034847D02*
G01X0039990Y-034735D01*
G01X0039990Y-034735D02*
G01X0039877Y-034678D01*
G01X0039877Y-034678D02*
G01X0039708Y-034678D01*
G01X0039708Y-034678D02*
G01X0039596Y-034735D01*
G01X0039596Y-034735D02*
G01X0039540Y-034791D01*
G01X0040777Y-035466D02*
G01X0040665Y-035410D01*
G01X0040665Y-035410D02*
G01X0040608Y-035353D01*
G01X0040608Y-035353D02*
G01X0040552Y-035241D01*
G01X0040552Y-035241D02*
G01X0040552Y-034903D01*
G01X0040552Y-034903D02*
G01X0040608Y-034791D01*
G01X0040608Y-034791D02*
G01X0040665Y-034735D01*
G01X0040665Y-034735D02*
G01X0040777Y-034678D01*
G01X0040777Y-034678D02*
G01X0040946Y-034678D01*
G01X0040946Y-034678D02*
G01X0041058Y-034735D01*
G01X0041058Y-034735D02*
G01X0041115Y-034791D01*
G01X0041115Y-034791D02*
G01X0041171Y-034903D01*
G01X0041171Y-034903D02*
G01X0041171Y-035241D01*
G01X0041171Y-035241D02*
G01X0041115Y-035353D01*
G01X0041115Y-035353D02*
G01X0041058Y-035410D01*
G01X0041058Y-035410D02*
G01X0040946Y-035466D01*
G01X0040946Y-035466D02*
G01X0040777Y-035466D01*
G01X0041846Y-035466D02*
G01X0041733Y-035410D01*
G01X0041733Y-035410D02*
G01X0041677Y-035297D01*
G01X0041677Y-035297D02*
G01X0041677Y-034285D01*
G01X0042746Y-035410D02*
G01X0042633Y-035466D01*
G01X0042633Y-035466D02*
G01X0042408Y-035466D01*
G01X0042408Y-035466D02*
G01X0042296Y-035410D01*
G01X0042296Y-035410D02*
G01X0042239Y-035297D01*
G01X0042239Y-035297D02*
G01X0042239Y-034847D01*
G01X0042239Y-034847D02*
G01X0042296Y-034735D01*
G01X0042296Y-034735D02*
G01X0042408Y-034678D01*
G01X0042408Y-034678D02*
G01X0042633Y-034678D01*
G01X0042633Y-034678D02*
G01X0042746Y-034735D01*
G01X0042746Y-034735D02*
G01X0042802Y-034847D01*
G01X0042802Y-034847D02*
G01X0042802Y-034960D01*
G01X0042802Y-034960D02*
G01X0042239Y-035072D01*
G01X0043252Y-035410D02*
G01X0043364Y-035466D01*
G01X0043364Y-035466D02*
G01X0043589Y-035466D01*
G01X0043589Y-035466D02*
G01X0043702Y-035410D01*
G01X0043702Y-035410D02*
G01X0043758Y-035297D01*
G01X0043758Y-035297D02*
G01X0043758Y-035241D01*
G01X0043758Y-035241D02*
G01X0043702Y-035128D01*
G01X0043702Y-035128D02*
G01X0043589Y-035072D01*
G01X0043589Y-035072D02*
G01X0043421Y-035072D01*
G01X0043421Y-035072D02*
G01X0043308Y-035016D01*
G01X0043308Y-035016D02*
G01X0043252Y-034903D01*
G01X0043252Y-034903D02*
G01X0043252Y-034847D01*
G01X0043252Y-034847D02*
G01X0043308Y-034735D01*
G01X0043308Y-034735D02*
G01X0043421Y-034678D01*
G01X0043421Y-034678D02*
G01X0043589Y-034678D01*
G01X0043589Y-034678D02*
G01X0043702Y-034735D01*
G01X0044152Y-035916D02*
G01X0044208Y-035860D01*
G01X0044208Y-035860D02*
G01X0044320Y-035691D01*
G01X0044320Y-035691D02*
G01X0044377Y-035578D01*
G01X0044377Y-035578D02*
G01X0044433Y-035410D01*
G01X0044433Y-035410D02*
G01X0044489Y-035128D01*
G01X0044489Y-035128D02*
G01X0044489Y-034903D01*
G01X0044489Y-034903D02*
G01X0044433Y-034622D01*
G01X0044433Y-034622D02*
G01X0044377Y-034454D01*
G01X0044377Y-034454D02*
G01X0044320Y-034341D01*
G01X0044320Y-034341D02*
G01X0044208Y-034172D01*
G01X0044208Y-034172D02*
G01X0044152Y-034116D01*
G01X0017549Y-036491D02*
G75*
G03X0017549Y-036491I-000236J0000000D01*
G01X0019236Y-037025D02*
G01X0018561Y-037025D01*
G01X0018899Y-037025D02*
G01X0018899Y-035844D01*
G01X0018899Y-035844D02*
G01X0018786Y-036013D01*
G01X0018786Y-036013D02*
G01X0018674Y-036125D01*
G01X0018674Y-036125D02*
G01X0018561Y-036181D01*
G01X0019742Y-036912D02*
G01X0019798Y-036969D01*
G01X0019798Y-036969D02*
G01X0019742Y-037025D01*
G01X0019742Y-037025D02*
G01X0019686Y-036969D01*
G01X0019686Y-036969D02*
G01X0019742Y-036912D01*
G01X0019742Y-036912D02*
G01X0019742Y-037025D01*
G01X0020248Y-035956D02*
G01X0020305Y-035900D01*
G01X0020305Y-035900D02*
G01X0020417Y-035844D01*
G01X0020417Y-035844D02*
G01X0020698Y-035844D01*
G01X0020698Y-035844D02*
G01X0020811Y-035900D01*
G01X0020811Y-035900D02*
G01X0020867Y-035956D01*
G01X0020867Y-035956D02*
G01X0020923Y-036069D01*
G01X0020923Y-036069D02*
G01X0020923Y-036181D01*
G01X0020923Y-036181D02*
G01X0020867Y-036350D01*
G01X0020867Y-036350D02*
G01X0020192Y-037025D01*
G01X0020192Y-037025D02*
G01X0020923Y-037025D01*
G01X0021654Y-035844D02*
G01X0021767Y-035844D01*
G01X0021767Y-035844D02*
G01X0021879Y-035900D01*
G01X0021879Y-035900D02*
G01X0021936Y-035956D01*
G01X0021936Y-035956D02*
G01X0021992Y-036069D01*
G01X0021992Y-036069D02*
G01X0022048Y-036294D01*
G01X0022048Y-036294D02*
G01X0022048Y-036575D01*
G01X0022048Y-036575D02*
G01X0021992Y-036800D01*
G01X0021992Y-036800D02*
G01X0021936Y-036912D01*
G01X0021936Y-036912D02*
G01X0021879Y-036969D01*
G01X0021879Y-036969D02*
G01X0021767Y-037025D01*
G01X0021767Y-037025D02*
G01X0021654Y-037025D01*
G01X0021654Y-037025D02*
G01X0021542Y-036969D01*
G01X0021542Y-036969D02*
G01X0021486Y-036912D01*
G01X0021486Y-036912D02*
G01X0021430Y-036800D01*
G01X0021430Y-036800D02*
G01X0021373Y-036575D01*
G01X0021373Y-036575D02*
G01X0021373Y-036294D01*
G01X0021373Y-036294D02*
G01X0021430Y-036069D01*
G01X0021430Y-036069D02*
G01X0021486Y-035956D01*
G01X0021486Y-035956D02*
G01X0021542Y-035900D01*
G01X0021542Y-035900D02*
G01X0021654Y-035844D01*
G01X0022554Y-037025D02*
G01X0022554Y-036238D01*
G01X0022554Y-036350D02*
G01X0022611Y-036294D01*
G01X0022611Y-036294D02*
G01X0022723Y-036238D01*
G01X0022723Y-036238D02*
G01X0022892Y-036238D01*
G01X0022892Y-036238D02*
G01X0023004Y-036294D01*
G01X0023004Y-036294D02*
G01X0023061Y-036406D01*
G01X0023061Y-036406D02*
G01X0023061Y-037025D01*
G01X0023061Y-036406D02*
G01X0023117Y-036294D01*
G01X0023117Y-036294D02*
G01X0023229Y-036238D01*
G01X0023229Y-036238D02*
G01X0023398Y-036238D01*
G01X0023398Y-036238D02*
G01X0023510Y-036294D01*
G01X0023510Y-036294D02*
G01X0023567Y-036406D01*
G01X0023567Y-036406D02*
G01X0023567Y-037025D01*
G01X0024129Y-037025D02*
G01X0024129Y-036238D01*
G01X0024129Y-036350D02*
G01X0024185Y-036294D01*
G01X0024185Y-036294D02*
G01X0024298Y-036238D01*
G01X0024298Y-036238D02*
G01X0024467Y-036238D01*
G01X0024467Y-036238D02*
G01X0024579Y-036294D01*
G01X0024579Y-036294D02*
G01X0024635Y-036406D01*
G01X0024635Y-036406D02*
G01X0024635Y-037025D01*
G01X0024635Y-036406D02*
G01X0024692Y-036294D01*
G01X0024692Y-036294D02*
G01X0024804Y-036238D01*
G01X0024804Y-036238D02*
G01X0024973Y-036238D01*
G01X0024973Y-036238D02*
G01X0025085Y-036294D01*
G01X0025085Y-036294D02*
G01X0025142Y-036406D01*
G01X0025142Y-036406D02*
G01X0025142Y-037025D01*
G01X0027448Y-035788D02*
G01X0026435Y-037306D01*
G01X0028966Y-035844D02*
G01X0029079Y-035844D01*
G01X0029079Y-035844D02*
G01X0029191Y-035900D01*
G01X0029191Y-035900D02*
G01X0029247Y-035956D01*
G01X0029247Y-035956D02*
G01X0029304Y-036069D01*
G01X0029304Y-036069D02*
G01X0029360Y-036294D01*
G01X0029360Y-036294D02*
G01X0029360Y-036575D01*
G01X0029360Y-036575D02*
G01X0029304Y-036800D01*
G01X0029304Y-036800D02*
G01X0029247Y-036912D01*
G01X0029247Y-036912D02*
G01X0029191Y-036969D01*
G01X0029191Y-036969D02*
G01X0029079Y-037025D01*
G01X0029079Y-037025D02*
G01X0028966Y-037025D01*
G01X0028966Y-037025D02*
G01X0028854Y-036969D01*
G01X0028854Y-036969D02*
G01X0028797Y-036912D01*
G01X0028797Y-036912D02*
G01X0028741Y-036800D01*
G01X0028741Y-036800D02*
G01X0028685Y-036575D01*
G01X0028685Y-036575D02*
G01X0028685Y-036294D01*
G01X0028685Y-036294D02*
G01X0028741Y-036069D01*
G01X0028741Y-036069D02*
G01X0028797Y-035956D01*
G01X0028797Y-035956D02*
G01X0028854Y-035900D01*
G01X0028854Y-035900D02*
G01X0028966Y-035844D01*
G01X0029866Y-036912D02*
G01X0029922Y-036969D01*
G01X0029922Y-036969D02*
G01X0029866Y-037025D01*
G01X0029866Y-037025D02*
G01X0029810Y-036969D01*
G01X0029810Y-036969D02*
G01X0029866Y-036912D01*
G01X0029866Y-036912D02*
G01X0029866Y-037025D01*
G01X0030653Y-035844D02*
G01X0030766Y-035844D01*
G01X0030766Y-035844D02*
G01X0030878Y-035900D01*
G01X0030878Y-035900D02*
G01X0030935Y-035956D01*
G01X0030935Y-035956D02*
G01X0030991Y-036069D01*
G01X0030991Y-036069D02*
G01X0031047Y-036294D01*
G01X0031047Y-036294D02*
G01X0031047Y-036575D01*
G01X0031047Y-036575D02*
G01X0030991Y-036800D01*
G01X0030991Y-036800D02*
G01X0030935Y-036912D01*
G01X0030935Y-036912D02*
G01X0030878Y-036969D01*
G01X0030878Y-036969D02*
G01X0030766Y-037025D01*
G01X0030766Y-037025D02*
G01X0030653Y-037025D01*
G01X0030653Y-037025D02*
G01X0030541Y-036969D01*
G01X0030541Y-036969D02*
G01X0030485Y-036912D01*
G01X0030485Y-036912D02*
G01X0030428Y-036800D01*
G01X0030428Y-036800D02*
G01X0030372Y-036575D01*
G01X0030372Y-036575D02*
G01X0030372Y-036294D01*
G01X0030372Y-036294D02*
G01X0030428Y-036069D01*
G01X0030428Y-036069D02*
G01X0030485Y-035956D01*
G01X0030485Y-035956D02*
G01X0030541Y-035900D01*
G01X0030541Y-035900D02*
G01X0030653Y-035844D01*
G01X0032059Y-036238D02*
G01X0032059Y-037025D01*
G01X0031778Y-035788D02*
G01X0031497Y-036631D01*
G01X0031497Y-036631D02*
G01X0032228Y-036631D01*
G01X0032566Y-035844D02*
G01X0033353Y-035844D01*
G01X0033353Y-035844D02*
G01X0032847Y-037025D01*
G01X0033747Y-035844D02*
G01X0033747Y-036069D01*
G01X0034197Y-035844D02*
G01X0034197Y-036069D01*
G01X0035940Y-037475D02*
G01X0035884Y-037419D01*
G01X0035884Y-037419D02*
G01X0035771Y-037250D01*
G01X0035771Y-037250D02*
G01X0035715Y-037137D01*
G01X0035715Y-037137D02*
G01X0035659Y-036969D01*
G01X0035659Y-036969D02*
G01X0035603Y-036687D01*
G01X0035603Y-036687D02*
G01X0035603Y-036463D01*
G01X0035603Y-036463D02*
G01X0035659Y-036181D01*
G01X0035659Y-036181D02*
G01X0035715Y-036013D01*
G01X0035715Y-036013D02*
G01X0035771Y-035900D01*
G01X0035771Y-035900D02*
G01X0035884Y-035731D01*
G01X0035884Y-035731D02*
G01X0035940Y-035675D01*
G01X0036334Y-035956D02*
G01X0036390Y-035900D01*
G01X0036390Y-035900D02*
G01X0036503Y-035844D01*
G01X0036503Y-035844D02*
G01X0036784Y-035844D01*
G01X0036784Y-035844D02*
G01X0036896Y-035900D01*
G01X0036896Y-035900D02*
G01X0036953Y-035956D01*
G01X0036953Y-035956D02*
G01X0037009Y-036069D01*
G01X0037009Y-036069D02*
G01X0037009Y-036181D01*
G01X0037009Y-036181D02*
G01X0036953Y-036350D01*
G01X0036953Y-036350D02*
G01X0036278Y-037025D01*
G01X0036278Y-037025D02*
G01X0037009Y-037025D01*
G01X0038415Y-037025D02*
G01X0038415Y-035844D01*
G01X0038921Y-037025D02*
G01X0038921Y-036406D01*
G01X0038921Y-036406D02*
G01X0038865Y-036294D01*
G01X0038865Y-036294D02*
G01X0038752Y-036238D01*
G01X0038752Y-036238D02*
G01X0038584Y-036238D01*
G01X0038584Y-036238D02*
G01X0038471Y-036294D01*
G01X0038471Y-036294D02*
G01X0038415Y-036350D01*
G01X0039652Y-037025D02*
G01X0039540Y-036969D01*
G01X0039540Y-036969D02*
G01X0039483Y-036912D01*
G01X0039483Y-036912D02*
G01X0039427Y-036800D01*
G01X0039427Y-036800D02*
G01X0039427Y-036463D01*
G01X0039427Y-036463D02*
G01X0039483Y-036350D01*
G01X0039483Y-036350D02*
G01X0039540Y-036294D01*
G01X0039540Y-036294D02*
G01X0039652Y-036238D01*
G01X0039652Y-036238D02*
G01X0039821Y-036238D01*
G01X0039821Y-036238D02*
G01X0039933Y-036294D01*
G01X0039933Y-036294D02*
G01X0039990Y-036350D01*
G01X0039990Y-036350D02*
G01X0040046Y-036463D01*
G01X0040046Y-036463D02*
G01X0040046Y-036800D01*
G01X0040046Y-036800D02*
G01X0039990Y-036912D01*
G01X0039990Y-036912D02*
G01X0039933Y-036969D01*
G01X0039933Y-036969D02*
G01X0039821Y-037025D01*
G01X0039821Y-037025D02*
G01X0039652Y-037025D01*
G01X0040721Y-037025D02*
G01X0040608Y-036969D01*
G01X0040608Y-036969D02*
G01X0040552Y-036856D01*
G01X0040552Y-036856D02*
G01X0040552Y-035844D01*
G01X0041621Y-036969D02*
G01X0041508Y-037025D01*
G01X0041508Y-037025D02*
G01X0041283Y-037025D01*
G01X0041283Y-037025D02*
G01X0041171Y-036969D01*
G01X0041171Y-036969D02*
G01X0041115Y-036856D01*
G01X0041115Y-036856D02*
G01X0041115Y-036406D01*
G01X0041115Y-036406D02*
G01X0041171Y-036294D01*
G01X0041171Y-036294D02*
G01X0041283Y-036238D01*
G01X0041283Y-036238D02*
G01X0041508Y-036238D01*
G01X0041508Y-036238D02*
G01X0041621Y-036294D01*
G01X0041621Y-036294D02*
G01X0041677Y-036406D01*
G01X0041677Y-036406D02*
G01X0041677Y-036519D01*
G01X0041677Y-036519D02*
G01X0041115Y-036631D01*
G01X0042127Y-036969D02*
G01X0042239Y-037025D01*
G01X0042239Y-037025D02*
G01X0042464Y-037025D01*
G01X0042464Y-037025D02*
G01X0042577Y-036969D01*
G01X0042577Y-036969D02*
G01X0042633Y-036856D01*
G01X0042633Y-036856D02*
G01X0042633Y-036800D01*
G01X0042633Y-036800D02*
G01X0042577Y-036687D01*
G01X0042577Y-036687D02*
G01X0042464Y-036631D01*
G01X0042464Y-036631D02*
G01X0042296Y-036631D01*
G01X0042296Y-036631D02*
G01X0042183Y-036575D01*
G01X0042183Y-036575D02*
G01X0042127Y-036463D01*
G01X0042127Y-036463D02*
G01X0042127Y-036406D01*
G01X0042127Y-036406D02*
G01X0042183Y-036294D01*
G01X0042183Y-036294D02*
G01X0042296Y-036238D01*
G01X0042296Y-036238D02*
G01X0042464Y-036238D01*
G01X0042464Y-036238D02*
G01X0042577Y-036294D01*
G01X0043027Y-037475D02*
G01X0043083Y-037419D01*
G01X0043083Y-037419D02*
G01X0043196Y-037250D01*
G01X0043196Y-037250D02*
G01X0043252Y-037137D01*
G01X0043252Y-037137D02*
G01X0043308Y-036969D01*
G01X0043308Y-036969D02*
G01X0043364Y-036687D01*
G01X0043364Y-036687D02*
G01X0043364Y-036463D01*
G01X0043364Y-036463D02*
G01X0043308Y-036181D01*
G01X0043308Y-036181D02*
G01X0043252Y-036013D01*
G01X0043252Y-036013D02*
G01X0043196Y-035900D01*
G01X0043196Y-035900D02*
G01X0043083Y-035731D01*
G01X0043083Y-035731D02*
G01X0043027Y-035675D01*
G01X0000000Y0000000D02*
G54D11*
G01X0040768Y-014370D02*
G01X0039508Y-014055D01*
G01X0047008Y-027677D02*
G01X0040728Y-014331D01*
G01X0038878Y-031122D02*
G01X0047008Y-027677D01*
G01X0019882Y-025315D02*
G01X0038878Y-031122D01*
G01X0017579Y-014409D02*
G01X0019882Y-025315D01*
G01X0039823Y-014094D02*
G01X0017579Y-014409D01*
G01X0000000Y0000000D02*
G54D15*
G01X0046700Y-030300D02*
G75*
G03X0046700Y-030300I-000500J0000000D01*
G01X0045050Y-031100D02*
G01X0045050Y-029500D01*
G01X0047350Y-031100D02*
G01X0045050Y-031100D01*
G01X0047350Y-029500D02*
G01X0047350Y-031100D01*
G01X0045050Y-029500D02*
G01X0047350Y-029500D01*
G01X0047450Y-037000D02*
G01X0041200Y-037000D01*
G01X0068250Y-040250D02*
G01X0068250Y-037250D01*
G01X0070250Y-040250D02*
G01X0068250Y-040250D01*
G01X0070250Y-037250D02*
G01X0070250Y-040250D01*
G01X0068250Y-037250D02*
G01X0070250Y-037250D01*
G01X0042950Y-048500D02*
G01X0042950Y-045000D01*
G01X0048200Y-048500D02*
G01X0042950Y-048500D01*
G01X0048200Y-045000D02*
G01X0048200Y-048500D01*
G01X0042950Y-045000D02*
G01X0048200Y-045000D01*
G01X0041200Y-037000D02*
G01X0041200Y-032500D01*
G01X0047450Y-032500D02*
G01X0047450Y-037000D01*
G01X0041200Y-032500D02*
G01X0047450Y-032500D01*
M02*
