M48
;DRILL file {KiCad 4.0.5-e0-6337~49~ubuntu16.04.1} date Fri Jul 21 11:10:54 2017
;FORMAT={-:-/ absolute / metric / decimal}
FMAT,2
METRIC,TZ
T1C0.330
T2C1.016
T3C1.200
%
G90
G05
M71
T1
X117.665Y-106.236
X118.491Y-104.775
X122.022Y-116.434
X122.573Y-107.912
X123.429Y-111.463
X123.439Y-113.156
X123.54Y-112.324
X124.105Y-115.57
X124.409Y-108.966
X124.83Y-113.891
X125.325Y-107.848
X126.098Y-110.945
X126.098Y-112.179
X126.098Y-113.363
X127.508Y-120.396
X128.539Y-115.867
X128.93Y-117.348
X132.281Y-111.928
X132.537Y-110.338
X134.924Y-113.529
X135.001Y-114.363
X135.433Y-110.236
X135.814Y-113.513
X139.446Y-114.935
T2
X114.3Y-104.14
X114.3Y-106.68
X114.3Y-109.22
X114.3Y-111.76
X114.3Y-114.3
X114.3Y-116.84
X114.3Y-119.38
X119.555Y-113.35
X119.555Y-115.89
X119.555Y-118.43
X132.997Y-118.194
X135.486Y-118.194
X137.975Y-118.194
X144.78Y-104.14
X144.78Y-106.68
X144.78Y-109.22
X144.78Y-111.76
X144.78Y-114.3
X144.78Y-116.84
X144.78Y-119.38
T3
X123.075Y-103.934
X130.174Y-103.934
T0
M30
