%TF.GenerationSoftware,KiCad,Pcbnew,4.0.5-e0-6337~49~ubuntu16.04.1*%
%TF.CreationDate,2017-07-20T08:52:04-07:00*%
%TF.ProjectId,stns01-battery-mgmt-breakout,73746E7330312D626174746572792D6D,1.0*%
%TF.FileFunction,Copper,L1,Top,Signal*%
%FSLAX46Y46*%
G04 Gerber Fmt 4.6, Leading zero omitted, Abs format (unit mm)*
G04 Created by KiCad (PCBNEW 4.0.5-e0-6337~49~ubuntu16.04.1) date Thu Jul 20 08:52:04 2017*
%MOMM*%
%LPD*%
G01*
G04 APERTURE LIST*
%ADD10C,0.350000*%
%ADD11R,0.800000X0.750000*%
%ADD12R,0.400000X1.350000*%
%ADD13R,1.600000X1.400000*%
%ADD14C,1.200000*%
%ADD15R,1.900000X1.900000*%
%ADD16R,1.000000X3.500000*%
%ADD17R,1.600000X3.400000*%
%ADD18R,2.032000X1.727200*%
%ADD19O,2.032000X1.727200*%
%ADD20R,1.727200X2.032000*%
%ADD21O,1.727200X2.032000*%
%ADD22C,1.524000*%
%ADD23R,0.700000X0.250000*%
%ADD24R,0.830000X1.190000*%
%ADD25R,0.800100X0.800100*%
%ADD26C,0.350000*%
G04 APERTURE END LIST*
D10*
D11*
X81095428Y-54979001D03*
X82595428Y-54979001D03*
X70285428Y-59559001D03*
X71785428Y-59559001D03*
X85685428Y-50929001D03*
X87185428Y-50929001D03*
X74935428Y-59559001D03*
X76435428Y-59559001D03*
D12*
X77459001Y-47840201D03*
X78109001Y-47840201D03*
X78758101Y-47840201D03*
X79409001Y-47840201D03*
X80059001Y-47840201D03*
D13*
X75559001Y-48065201D03*
D14*
X75209001Y-50515201D03*
D15*
X77559001Y-50515201D03*
X79959001Y-50515201D03*
D13*
X81959001Y-48065201D03*
D14*
X82309001Y-50515201D03*
D16*
X67379401Y-48904001D03*
X69379401Y-48904001D03*
D17*
X64979401Y-54454001D03*
X71779401Y-54454001D03*
D18*
X105850000Y-50450000D03*
D19*
X105850000Y-52990000D03*
X105850000Y-55530000D03*
X105850000Y-58070000D03*
X105850000Y-60610000D03*
X105850000Y-63150000D03*
X105850000Y-65690000D03*
D20*
X76250000Y-23650000D03*
D21*
X78790000Y-23650000D03*
X81330000Y-23650000D03*
X83870000Y-23650000D03*
X86410000Y-23650000D03*
X88950000Y-23650000D03*
X91490000Y-23650000D03*
D11*
X79571001Y-59261001D03*
X81071001Y-59261001D03*
X65282571Y-59559001D03*
X66782571Y-59559001D03*
X89739001Y-50929001D03*
X91239001Y-50929001D03*
X57992095Y-61029001D03*
X59492095Y-61029001D03*
X85149001Y-54979001D03*
X86649001Y-54979001D03*
X83609001Y-59029001D03*
X85109001Y-59029001D03*
X88599001Y-54979001D03*
X90099001Y-54979001D03*
D18*
X91449000Y-42729401D03*
D19*
X91449000Y-45269401D03*
X91449000Y-47809401D03*
D22*
X69874321Y-43224321D03*
X72363521Y-43224321D03*
X67385121Y-43224321D03*
D23*
X75063524Y-53420201D03*
X75063524Y-53870201D03*
X75063524Y-54320201D03*
X75063524Y-54770201D03*
X75063524Y-55220201D03*
X75063524Y-55670201D03*
X77863524Y-55670201D03*
X77863524Y-55220201D03*
X77863524Y-54770201D03*
X77863524Y-54320201D03*
X77863524Y-53870201D03*
X77863524Y-53420201D03*
D24*
X76878524Y-55140201D03*
X76878524Y-53950201D03*
X76048524Y-55140201D03*
X76048524Y-53950201D03*
D25*
X80955905Y-43579761D03*
X82855905Y-43579761D03*
X81905905Y-41580781D03*
D26*
X75209001Y-50515201D03*
X82309001Y-50515201D03*
X105850000Y-50450000D03*
X105850000Y-52990000D03*
X105850000Y-55530000D03*
X105850000Y-58070000D03*
X105850000Y-60610000D03*
X105850000Y-63150000D03*
X105850000Y-65690000D03*
X76250000Y-23650000D03*
X78790000Y-23650000D03*
X81330000Y-23650000D03*
X83870000Y-23650000D03*
X86410000Y-23650000D03*
X88950000Y-23650000D03*
X91490000Y-23650000D03*
X91449000Y-42729401D03*
X91449000Y-45269401D03*
X91449000Y-47809401D03*
X69874321Y-43224321D03*
X72363521Y-43224321D03*
X67385121Y-43224321D03*
M02*
