%TF.GenerationSoftware,KiCad,Pcbnew,4.0.5-e0-6337~49~ubuntu16.04.1*%
%TF.CreationDate,2017-08-14T13:55:07-07:00*%
%TF.ProjectId,stns01-battery-mgmt-breakout,73746E7330312D626174746572792D6D,1.0*%
%TF.FileFunction,Copper,L2,Bot,Signal*%
%FSLAX46Y46*%
G04 Gerber Fmt 4.6, Leading zero omitted, Abs format (unit mm)*
G04 Created by KiCad (PCBNEW 4.0.5-e0-6337~49~ubuntu16.04.1) date Mon Aug 14 13:55:07 2017*
%MOMM*%
%LPD*%
G01*
G04 APERTURE LIST*
%ADD10C,0.350000*%
%ADD11R,2.032000X1.727200*%
%ADD12O,2.032000X1.727200*%
%ADD13C,1.200000*%
%ADD14C,1.524000*%
%ADD15C,0.685800*%
%ADD16C,0.254000*%
%ADD17C,0.330200*%
%ADD18C,0.350000*%
G04 APERTURE END LIST*
D10*
D11*
X28879800Y-22123400D03*
D12*
X28879800Y-24663400D03*
X28879800Y-27203400D03*
X28879800Y-29743400D03*
X28879800Y-32283400D03*
X28879800Y-34823400D03*
X28879800Y-37363400D03*
D13*
X44754300Y-21917900D03*
X37654300Y-21917900D03*
D11*
X59359800Y-22123400D03*
D12*
X59359800Y-24663400D03*
X59359800Y-27203400D03*
X59359800Y-29743400D03*
X59359800Y-32283400D03*
X59359800Y-34823400D03*
X59359800Y-37363400D03*
D11*
X34135060Y-31333440D03*
D12*
X34135060Y-33873440D03*
X34135060Y-36413440D03*
D14*
X50065940Y-36177220D03*
X52555140Y-36177220D03*
X47576740Y-36177220D03*
D15*
X49503755Y-31512236D03*
X33070800Y-22758400D03*
X32245300Y-24218900D03*
X42087800Y-38379400D03*
X38684512Y-33553400D03*
X50012600Y-28219400D03*
X39904300Y-25831800D03*
X38989000Y-26949400D03*
X43119040Y-33850580D03*
X37152580Y-25895300D03*
X46860460Y-29911040D03*
X40678100Y-30162500D03*
X40678100Y-31346140D03*
X40678100Y-28928060D03*
X50393600Y-31496000D03*
X38019254Y-31139195D03*
X47117000Y-28321000D03*
X39409361Y-31874480D03*
X38120262Y-30307091D03*
X36601400Y-34417000D03*
X43510200Y-35331400D03*
X38008700Y-29446684D03*
X49580800Y-32346900D03*
X54025800Y-32918400D03*
D16*
X49519991Y-31496000D02*
X49503755Y-31512236D01*
X50393600Y-31496000D02*
X49519991Y-31496000D01*
X40667940Y-28928060D02*
X40667940Y-31335980D01*
X40667940Y-31335980D02*
X40657780Y-31346140D01*
X34467800Y-31000700D02*
X34135060Y-31333440D01*
X38019254Y-31139195D02*
X37526454Y-31139195D01*
X37526454Y-31139195D02*
X36189208Y-32476441D01*
X36189208Y-32476441D02*
X31612841Y-32476441D01*
X31612841Y-32476441D02*
X31419800Y-32283400D01*
X31419800Y-32283400D02*
X30149800Y-32283400D01*
X30149800Y-32283400D02*
X28879800Y-32283400D01*
X48234600Y-27203400D02*
X59359800Y-27203400D01*
X47117000Y-28321000D02*
X48234600Y-27203400D01*
X30149800Y-34823400D02*
X28879800Y-34823400D01*
X30149800Y-34823400D02*
X31419800Y-34823400D01*
X31419800Y-34823400D02*
X31612850Y-35016450D01*
X34782750Y-35016450D02*
X35636200Y-34163000D01*
X31612850Y-35016450D02*
X34782750Y-35016450D01*
X35636200Y-34163000D02*
X35636200Y-33705800D01*
X37465000Y-31877000D02*
X38921908Y-31877000D01*
X38924428Y-31874480D02*
X39409361Y-31874480D01*
X35636200Y-33705800D02*
X37465000Y-31877000D01*
X38921908Y-31877000D02*
X38924428Y-31874480D01*
X30149800Y-29743400D02*
X28879800Y-29743400D01*
X37305289Y-29743400D02*
X30149800Y-29743400D01*
X37305289Y-29743400D02*
X37868980Y-30307091D01*
X37868980Y-30307091D02*
X38120262Y-30307091D01*
X59207400Y-29743400D02*
X59359800Y-29743400D01*
X36601400Y-34417000D02*
X42595800Y-34417000D01*
X42595800Y-34417000D02*
X43510200Y-35331400D01*
X54025800Y-32918400D02*
X53454300Y-32346900D01*
X53454300Y-32346900D02*
X49580800Y-32346900D01*
G36*
X64256316Y-20398345D02*
X64639092Y-20654110D01*
X64894855Y-21036884D01*
X64998600Y-21558449D01*
X64998600Y-39198351D01*
X64894855Y-39719916D01*
X64639092Y-40102690D01*
X64256316Y-40358455D01*
X63734751Y-40462200D01*
X24504849Y-40462200D01*
X23983284Y-40358455D01*
X23600510Y-40102692D01*
X23344745Y-39719916D01*
X23241000Y-39198351D01*
X23241000Y-24663400D01*
X27196455Y-24663400D01*
X27310529Y-25236889D01*
X27635385Y-25723070D01*
X27950166Y-25933400D01*
X27635385Y-26143730D01*
X27310529Y-26629911D01*
X27196455Y-27203400D01*
X27310529Y-27776889D01*
X27635385Y-28263070D01*
X27950166Y-28473400D01*
X27635385Y-28683730D01*
X27310529Y-29169911D01*
X27196455Y-29743400D01*
X27310529Y-30316889D01*
X27635385Y-30803070D01*
X27950166Y-31013400D01*
X27635385Y-31223730D01*
X27310529Y-31709911D01*
X27196455Y-32283400D01*
X27310529Y-32856889D01*
X27635385Y-33343070D01*
X27950166Y-33553400D01*
X27635385Y-33763730D01*
X27310529Y-34249911D01*
X27196455Y-34823400D01*
X27310529Y-35396889D01*
X27635385Y-35883070D01*
X27950166Y-36093400D01*
X27635385Y-36303730D01*
X27310529Y-36789911D01*
X27196455Y-37363400D01*
X27310529Y-37936889D01*
X27635385Y-38423070D01*
X28121566Y-38747926D01*
X28695055Y-38862000D01*
X29064545Y-38862000D01*
X29638034Y-38747926D01*
X30124215Y-38423070D01*
X30449071Y-37936889D01*
X30563145Y-37363400D01*
X30449071Y-36789911D01*
X30124215Y-36303730D01*
X29809434Y-36093400D01*
X30124215Y-35883070D01*
X30323112Y-35585400D01*
X31119135Y-35585400D01*
X31321245Y-35720446D01*
X31612850Y-35778450D01*
X32606883Y-35778450D01*
X32565789Y-35839951D01*
X32451715Y-36413440D01*
X32565789Y-36986929D01*
X32890645Y-37473110D01*
X33376826Y-37797966D01*
X33950315Y-37912040D01*
X34319805Y-37912040D01*
X34893294Y-37797966D01*
X35006347Y-37722426D01*
X57752442Y-37722426D01*
X57755091Y-37738191D01*
X58009068Y-38265436D01*
X58445480Y-38655354D01*
X58997887Y-38848584D01*
X59232800Y-38704324D01*
X59232800Y-37490400D01*
X59486800Y-37490400D01*
X59486800Y-38704324D01*
X59721713Y-38848584D01*
X60274120Y-38655354D01*
X60710532Y-38265436D01*
X60964509Y-37738191D01*
X60967158Y-37722426D01*
X60846017Y-37490400D01*
X59486800Y-37490400D01*
X59232800Y-37490400D01*
X57873583Y-37490400D01*
X57752442Y-37722426D01*
X35006347Y-37722426D01*
X35379475Y-37473110D01*
X35704331Y-36986929D01*
X35810360Y-36453881D01*
X46179498Y-36453881D01*
X46391730Y-36967523D01*
X46784370Y-37360849D01*
X47297640Y-37573977D01*
X47853401Y-37574462D01*
X48367043Y-37362230D01*
X48760369Y-36969590D01*
X48821226Y-36823029D01*
X48880930Y-36967523D01*
X49273570Y-37360849D01*
X49786840Y-37573977D01*
X50342601Y-37574462D01*
X50856243Y-37362230D01*
X51249569Y-36969590D01*
X51310426Y-36823029D01*
X51370130Y-36967523D01*
X51762770Y-37360849D01*
X52276040Y-37573977D01*
X52831801Y-37574462D01*
X53345443Y-37362230D01*
X53738769Y-36969590D01*
X53951897Y-36456320D01*
X53952382Y-35900559D01*
X53740150Y-35386917D01*
X53347510Y-34993591D01*
X52937644Y-34823400D01*
X57676455Y-34823400D01*
X57790529Y-35396889D01*
X58115385Y-35883070D01*
X58424869Y-36089861D01*
X58009068Y-36461364D01*
X57755091Y-36988609D01*
X57752442Y-37004374D01*
X57873583Y-37236400D01*
X59232800Y-37236400D01*
X59232800Y-37216400D01*
X59486800Y-37216400D01*
X59486800Y-37236400D01*
X60846017Y-37236400D01*
X60967158Y-37004374D01*
X60964509Y-36988609D01*
X60710532Y-36461364D01*
X60294731Y-36089861D01*
X60604215Y-35883070D01*
X60929071Y-35396889D01*
X61043145Y-34823400D01*
X60929071Y-34249911D01*
X60604215Y-33763730D01*
X60294731Y-33556939D01*
X60710532Y-33185436D01*
X60964509Y-32658191D01*
X60967158Y-32642426D01*
X60846017Y-32410400D01*
X59486800Y-32410400D01*
X59486800Y-32430400D01*
X59232800Y-32430400D01*
X59232800Y-32410400D01*
X57873583Y-32410400D01*
X57752442Y-32642426D01*
X57755091Y-32658191D01*
X58009068Y-33185436D01*
X58424869Y-33556939D01*
X58115385Y-33763730D01*
X57790529Y-34249911D01*
X57676455Y-34823400D01*
X52937644Y-34823400D01*
X52834240Y-34780463D01*
X52278479Y-34779978D01*
X51764837Y-34992210D01*
X51371511Y-35384850D01*
X51310654Y-35531411D01*
X51250950Y-35386917D01*
X50858310Y-34993591D01*
X50345040Y-34780463D01*
X49789279Y-34779978D01*
X49275637Y-34992210D01*
X48882311Y-35384850D01*
X48821454Y-35531411D01*
X48761750Y-35386917D01*
X48369110Y-34993591D01*
X47855840Y-34780463D01*
X47300079Y-34779978D01*
X46786437Y-34992210D01*
X46393111Y-35384850D01*
X46179983Y-35898120D01*
X46179498Y-36453881D01*
X35810360Y-36453881D01*
X35818405Y-36413440D01*
X35704331Y-35839951D01*
X35436987Y-35439843D01*
X35839197Y-35037634D01*
X36046741Y-35245540D01*
X36406030Y-35394730D01*
X36795063Y-35395069D01*
X37154612Y-35246507D01*
X37222237Y-35179000D01*
X42280170Y-35179000D01*
X42532213Y-35431043D01*
X42532131Y-35525063D01*
X42680693Y-35884612D01*
X42955541Y-36159940D01*
X43314830Y-36309130D01*
X43703863Y-36309469D01*
X44063412Y-36160907D01*
X44338740Y-35886059D01*
X44487930Y-35526770D01*
X44488269Y-35137737D01*
X44339707Y-34778188D01*
X44064859Y-34502860D01*
X43705570Y-34353670D01*
X43610017Y-34353587D01*
X43134615Y-33878185D01*
X42990664Y-33782000D01*
X42887405Y-33713004D01*
X42595800Y-33655000D01*
X37222483Y-33655000D01*
X37156059Y-33588460D01*
X36926494Y-33493136D01*
X37780631Y-32639000D01*
X38790794Y-32639000D01*
X38854702Y-32703020D01*
X39213991Y-32852210D01*
X39603024Y-32852549D01*
X39962573Y-32703987D01*
X40126282Y-32540563D01*
X48602731Y-32540563D01*
X48751293Y-32900112D01*
X49026141Y-33175440D01*
X49385430Y-33324630D01*
X49774463Y-33324969D01*
X50134012Y-33176407D01*
X50201637Y-33108900D01*
X53047734Y-33108900D01*
X53047731Y-33112063D01*
X53196293Y-33471612D01*
X53471141Y-33746940D01*
X53830430Y-33896130D01*
X54219463Y-33896469D01*
X54579012Y-33747907D01*
X54854340Y-33473059D01*
X55003530Y-33113770D01*
X55003869Y-32724737D01*
X54855307Y-32365188D01*
X54580459Y-32089860D01*
X54221170Y-31940670D01*
X54125617Y-31940587D01*
X53993115Y-31808085D01*
X53939776Y-31772445D01*
X53745905Y-31642904D01*
X53454300Y-31584900D01*
X50201883Y-31584900D01*
X50135459Y-31518360D01*
X49776170Y-31369170D01*
X49387137Y-31368831D01*
X49027588Y-31517393D01*
X48752260Y-31792241D01*
X48603070Y-32151530D01*
X48602731Y-32540563D01*
X40126282Y-32540563D01*
X40237901Y-32429139D01*
X40387091Y-32069850D01*
X40387430Y-31680817D01*
X40238868Y-31321268D01*
X39964020Y-31045940D01*
X39604731Y-30896750D01*
X39215698Y-30896411D01*
X38997287Y-30986656D01*
X38997323Y-30945532D01*
X38955771Y-30844967D01*
X39097992Y-30502461D01*
X39098331Y-30113428D01*
X38949769Y-29753879D01*
X38942867Y-29746965D01*
X38986430Y-29642054D01*
X38986769Y-29253021D01*
X38838207Y-28893472D01*
X38563359Y-28618144D01*
X38314150Y-28514663D01*
X46138931Y-28514663D01*
X46287493Y-28874212D01*
X46562341Y-29149540D01*
X46921630Y-29298730D01*
X47310663Y-29299069D01*
X47670212Y-29150507D01*
X47945540Y-28875659D01*
X48094730Y-28516370D01*
X48094813Y-28420817D01*
X48550230Y-27965400D01*
X57916488Y-27965400D01*
X58115385Y-28263070D01*
X58430166Y-28473400D01*
X58115385Y-28683730D01*
X57790529Y-29169911D01*
X57676455Y-29743400D01*
X57790529Y-30316889D01*
X58115385Y-30803070D01*
X58424869Y-31009861D01*
X58009068Y-31381364D01*
X57755091Y-31908609D01*
X57752442Y-31924374D01*
X57873583Y-32156400D01*
X59232800Y-32156400D01*
X59232800Y-32136400D01*
X59486800Y-32136400D01*
X59486800Y-32156400D01*
X60846017Y-32156400D01*
X60967158Y-31924374D01*
X60964509Y-31908609D01*
X60710532Y-31381364D01*
X60294731Y-31009861D01*
X60604215Y-30803070D01*
X60929071Y-30316889D01*
X61043145Y-29743400D01*
X60929071Y-29169911D01*
X60604215Y-28683730D01*
X60289434Y-28473400D01*
X60604215Y-28263070D01*
X60929071Y-27776889D01*
X61043145Y-27203400D01*
X60929071Y-26629911D01*
X60604215Y-26143730D01*
X60289434Y-25933400D01*
X60604215Y-25723070D01*
X60929071Y-25236889D01*
X61043145Y-24663400D01*
X60929071Y-24089911D01*
X60604215Y-23603730D01*
X60589887Y-23594157D01*
X60611117Y-23590162D01*
X60827241Y-23451090D01*
X60972231Y-23238890D01*
X61023240Y-22987000D01*
X61023240Y-21259800D01*
X60978962Y-21024483D01*
X60839890Y-20808359D01*
X60627690Y-20663369D01*
X60375800Y-20612360D01*
X58343800Y-20612360D01*
X58108483Y-20656638D01*
X57892359Y-20795710D01*
X57747369Y-21007910D01*
X57696360Y-21259800D01*
X57696360Y-22987000D01*
X57740638Y-23222317D01*
X57879710Y-23438441D01*
X58091910Y-23583431D01*
X58133239Y-23591800D01*
X58115385Y-23603730D01*
X57790529Y-24089911D01*
X57676455Y-24663400D01*
X57790529Y-25236889D01*
X58115385Y-25723070D01*
X58430166Y-25933400D01*
X58115385Y-26143730D01*
X57916488Y-26441400D01*
X48234600Y-26441400D01*
X47942995Y-26499404D01*
X47695785Y-26664585D01*
X47017357Y-27343013D01*
X46923337Y-27342931D01*
X46563788Y-27491493D01*
X46288460Y-27766341D01*
X46139270Y-28125630D01*
X46138931Y-28514663D01*
X38314150Y-28514663D01*
X38204070Y-28468954D01*
X37815037Y-28468615D01*
X37455488Y-28617177D01*
X37180160Y-28892025D01*
X37143048Y-28981400D01*
X30323112Y-28981400D01*
X30124215Y-28683730D01*
X29809434Y-28473400D01*
X30124215Y-28263070D01*
X30449071Y-27776889D01*
X30563145Y-27203400D01*
X30449071Y-26629911D01*
X30124215Y-26143730D01*
X29809434Y-25933400D01*
X30124215Y-25723070D01*
X30449071Y-25236889D01*
X30563145Y-24663400D01*
X30449071Y-24089911D01*
X30124215Y-23603730D01*
X30109887Y-23594157D01*
X30131117Y-23590162D01*
X30347241Y-23451090D01*
X30492231Y-23238890D01*
X30543240Y-22987000D01*
X30543240Y-22162479D01*
X36419086Y-22162479D01*
X36606708Y-22616557D01*
X36953815Y-22964271D01*
X37407566Y-23152685D01*
X37898879Y-23153114D01*
X38352957Y-22965492D01*
X38700671Y-22618385D01*
X38889085Y-22164634D01*
X38889086Y-22162479D01*
X43519086Y-22162479D01*
X43706708Y-22616557D01*
X44053815Y-22964271D01*
X44507566Y-23152685D01*
X44998879Y-23153114D01*
X45452957Y-22965492D01*
X45800671Y-22618385D01*
X45989085Y-22164634D01*
X45989514Y-21673321D01*
X45801892Y-21219243D01*
X45454785Y-20871529D01*
X45001034Y-20683115D01*
X44509721Y-20682686D01*
X44055643Y-20870308D01*
X43707929Y-21217415D01*
X43519515Y-21671166D01*
X43519086Y-22162479D01*
X38889086Y-22162479D01*
X38889514Y-21673321D01*
X38701892Y-21219243D01*
X38354785Y-20871529D01*
X37901034Y-20683115D01*
X37409721Y-20682686D01*
X36955643Y-20870308D01*
X36607929Y-21217415D01*
X36419515Y-21671166D01*
X36419086Y-22162479D01*
X30543240Y-22162479D01*
X30543240Y-21259800D01*
X30498962Y-21024483D01*
X30359890Y-20808359D01*
X30147690Y-20663369D01*
X29895800Y-20612360D01*
X27863800Y-20612360D01*
X27628483Y-20656638D01*
X27412359Y-20795710D01*
X27267369Y-21007910D01*
X27216360Y-21259800D01*
X27216360Y-22987000D01*
X27260638Y-23222317D01*
X27399710Y-23438441D01*
X27611910Y-23583431D01*
X27653239Y-23591800D01*
X27635385Y-23603730D01*
X27310529Y-24089911D01*
X27196455Y-24663400D01*
X23241000Y-24663400D01*
X23241000Y-21558449D01*
X23344745Y-21036884D01*
X23600510Y-20654108D01*
X23983284Y-20398345D01*
X24504849Y-20294600D01*
X63734751Y-20294600D01*
X64256316Y-20398345D01*
X64256316Y-20398345D01*
G37*
X64256316Y-20398345D02*
X64639092Y-20654110D01*
X64894855Y-21036884D01*
X64998600Y-21558449D01*
X64998600Y-39198351D01*
X64894855Y-39719916D01*
X64639092Y-40102690D01*
X64256316Y-40358455D01*
X63734751Y-40462200D01*
X24504849Y-40462200D01*
X23983284Y-40358455D01*
X23600510Y-40102692D01*
X23344745Y-39719916D01*
X23241000Y-39198351D01*
X23241000Y-24663400D01*
X27196455Y-24663400D01*
X27310529Y-25236889D01*
X27635385Y-25723070D01*
X27950166Y-25933400D01*
X27635385Y-26143730D01*
X27310529Y-26629911D01*
X27196455Y-27203400D01*
X27310529Y-27776889D01*
X27635385Y-28263070D01*
X27950166Y-28473400D01*
X27635385Y-28683730D01*
X27310529Y-29169911D01*
X27196455Y-29743400D01*
X27310529Y-30316889D01*
X27635385Y-30803070D01*
X27950166Y-31013400D01*
X27635385Y-31223730D01*
X27310529Y-31709911D01*
X27196455Y-32283400D01*
X27310529Y-32856889D01*
X27635385Y-33343070D01*
X27950166Y-33553400D01*
X27635385Y-33763730D01*
X27310529Y-34249911D01*
X27196455Y-34823400D01*
X27310529Y-35396889D01*
X27635385Y-35883070D01*
X27950166Y-36093400D01*
X27635385Y-36303730D01*
X27310529Y-36789911D01*
X27196455Y-37363400D01*
X27310529Y-37936889D01*
X27635385Y-38423070D01*
X28121566Y-38747926D01*
X28695055Y-38862000D01*
X29064545Y-38862000D01*
X29638034Y-38747926D01*
X30124215Y-38423070D01*
X30449071Y-37936889D01*
X30563145Y-37363400D01*
X30449071Y-36789911D01*
X30124215Y-36303730D01*
X29809434Y-36093400D01*
X30124215Y-35883070D01*
X30323112Y-35585400D01*
X31119135Y-35585400D01*
X31321245Y-35720446D01*
X31612850Y-35778450D01*
X32606883Y-35778450D01*
X32565789Y-35839951D01*
X32451715Y-36413440D01*
X32565789Y-36986929D01*
X32890645Y-37473110D01*
X33376826Y-37797966D01*
X33950315Y-37912040D01*
X34319805Y-37912040D01*
X34893294Y-37797966D01*
X35006347Y-37722426D01*
X57752442Y-37722426D01*
X57755091Y-37738191D01*
X58009068Y-38265436D01*
X58445480Y-38655354D01*
X58997887Y-38848584D01*
X59232800Y-38704324D01*
X59232800Y-37490400D01*
X59486800Y-37490400D01*
X59486800Y-38704324D01*
X59721713Y-38848584D01*
X60274120Y-38655354D01*
X60710532Y-38265436D01*
X60964509Y-37738191D01*
X60967158Y-37722426D01*
X60846017Y-37490400D01*
X59486800Y-37490400D01*
X59232800Y-37490400D01*
X57873583Y-37490400D01*
X57752442Y-37722426D01*
X35006347Y-37722426D01*
X35379475Y-37473110D01*
X35704331Y-36986929D01*
X35810360Y-36453881D01*
X46179498Y-36453881D01*
X46391730Y-36967523D01*
X46784370Y-37360849D01*
X47297640Y-37573977D01*
X47853401Y-37574462D01*
X48367043Y-37362230D01*
X48760369Y-36969590D01*
X48821226Y-36823029D01*
X48880930Y-36967523D01*
X49273570Y-37360849D01*
X49786840Y-37573977D01*
X50342601Y-37574462D01*
X50856243Y-37362230D01*
X51249569Y-36969590D01*
X51310426Y-36823029D01*
X51370130Y-36967523D01*
X51762770Y-37360849D01*
X52276040Y-37573977D01*
X52831801Y-37574462D01*
X53345443Y-37362230D01*
X53738769Y-36969590D01*
X53951897Y-36456320D01*
X53952382Y-35900559D01*
X53740150Y-35386917D01*
X53347510Y-34993591D01*
X52937644Y-34823400D01*
X57676455Y-34823400D01*
X57790529Y-35396889D01*
X58115385Y-35883070D01*
X58424869Y-36089861D01*
X58009068Y-36461364D01*
X57755091Y-36988609D01*
X57752442Y-37004374D01*
X57873583Y-37236400D01*
X59232800Y-37236400D01*
X59232800Y-37216400D01*
X59486800Y-37216400D01*
X59486800Y-37236400D01*
X60846017Y-37236400D01*
X60967158Y-37004374D01*
X60964509Y-36988609D01*
X60710532Y-36461364D01*
X60294731Y-36089861D01*
X60604215Y-35883070D01*
X60929071Y-35396889D01*
X61043145Y-34823400D01*
X60929071Y-34249911D01*
X60604215Y-33763730D01*
X60294731Y-33556939D01*
X60710532Y-33185436D01*
X60964509Y-32658191D01*
X60967158Y-32642426D01*
X60846017Y-32410400D01*
X59486800Y-32410400D01*
X59486800Y-32430400D01*
X59232800Y-32430400D01*
X59232800Y-32410400D01*
X57873583Y-32410400D01*
X57752442Y-32642426D01*
X57755091Y-32658191D01*
X58009068Y-33185436D01*
X58424869Y-33556939D01*
X58115385Y-33763730D01*
X57790529Y-34249911D01*
X57676455Y-34823400D01*
X52937644Y-34823400D01*
X52834240Y-34780463D01*
X52278479Y-34779978D01*
X51764837Y-34992210D01*
X51371511Y-35384850D01*
X51310654Y-35531411D01*
X51250950Y-35386917D01*
X50858310Y-34993591D01*
X50345040Y-34780463D01*
X49789279Y-34779978D01*
X49275637Y-34992210D01*
X48882311Y-35384850D01*
X48821454Y-35531411D01*
X48761750Y-35386917D01*
X48369110Y-34993591D01*
X47855840Y-34780463D01*
X47300079Y-34779978D01*
X46786437Y-34992210D01*
X46393111Y-35384850D01*
X46179983Y-35898120D01*
X46179498Y-36453881D01*
X35810360Y-36453881D01*
X35818405Y-36413440D01*
X35704331Y-35839951D01*
X35436987Y-35439843D01*
X35839197Y-35037634D01*
X36046741Y-35245540D01*
X36406030Y-35394730D01*
X36795063Y-35395069D01*
X37154612Y-35246507D01*
X37222237Y-35179000D01*
X42280170Y-35179000D01*
X42532213Y-35431043D01*
X42532131Y-35525063D01*
X42680693Y-35884612D01*
X42955541Y-36159940D01*
X43314830Y-36309130D01*
X43703863Y-36309469D01*
X44063412Y-36160907D01*
X44338740Y-35886059D01*
X44487930Y-35526770D01*
X44488269Y-35137737D01*
X44339707Y-34778188D01*
X44064859Y-34502860D01*
X43705570Y-34353670D01*
X43610017Y-34353587D01*
X43134615Y-33878185D01*
X42990664Y-33782000D01*
X42887405Y-33713004D01*
X42595800Y-33655000D01*
X37222483Y-33655000D01*
X37156059Y-33588460D01*
X36926494Y-33493136D01*
X37780631Y-32639000D01*
X38790794Y-32639000D01*
X38854702Y-32703020D01*
X39213991Y-32852210D01*
X39603024Y-32852549D01*
X39962573Y-32703987D01*
X40126282Y-32540563D01*
X48602731Y-32540563D01*
X48751293Y-32900112D01*
X49026141Y-33175440D01*
X49385430Y-33324630D01*
X49774463Y-33324969D01*
X50134012Y-33176407D01*
X50201637Y-33108900D01*
X53047734Y-33108900D01*
X53047731Y-33112063D01*
X53196293Y-33471612D01*
X53471141Y-33746940D01*
X53830430Y-33896130D01*
X54219463Y-33896469D01*
X54579012Y-33747907D01*
X54854340Y-33473059D01*
X55003530Y-33113770D01*
X55003869Y-32724737D01*
X54855307Y-32365188D01*
X54580459Y-32089860D01*
X54221170Y-31940670D01*
X54125617Y-31940587D01*
X53993115Y-31808085D01*
X53939776Y-31772445D01*
X53745905Y-31642904D01*
X53454300Y-31584900D01*
X50201883Y-31584900D01*
X50135459Y-31518360D01*
X49776170Y-31369170D01*
X49387137Y-31368831D01*
X49027588Y-31517393D01*
X48752260Y-31792241D01*
X48603070Y-32151530D01*
X48602731Y-32540563D01*
X40126282Y-32540563D01*
X40237901Y-32429139D01*
X40387091Y-32069850D01*
X40387430Y-31680817D01*
X40238868Y-31321268D01*
X39964020Y-31045940D01*
X39604731Y-30896750D01*
X39215698Y-30896411D01*
X38997287Y-30986656D01*
X38997323Y-30945532D01*
X38955771Y-30844967D01*
X39097992Y-30502461D01*
X39098331Y-30113428D01*
X38949769Y-29753879D01*
X38942867Y-29746965D01*
X38986430Y-29642054D01*
X38986769Y-29253021D01*
X38838207Y-28893472D01*
X38563359Y-28618144D01*
X38314150Y-28514663D01*
X46138931Y-28514663D01*
X46287493Y-28874212D01*
X46562341Y-29149540D01*
X46921630Y-29298730D01*
X47310663Y-29299069D01*
X47670212Y-29150507D01*
X47945540Y-28875659D01*
X48094730Y-28516370D01*
X48094813Y-28420817D01*
X48550230Y-27965400D01*
X57916488Y-27965400D01*
X58115385Y-28263070D01*
X58430166Y-28473400D01*
X58115385Y-28683730D01*
X57790529Y-29169911D01*
X57676455Y-29743400D01*
X57790529Y-30316889D01*
X58115385Y-30803070D01*
X58424869Y-31009861D01*
X58009068Y-31381364D01*
X57755091Y-31908609D01*
X57752442Y-31924374D01*
X57873583Y-32156400D01*
X59232800Y-32156400D01*
X59232800Y-32136400D01*
X59486800Y-32136400D01*
X59486800Y-32156400D01*
X60846017Y-32156400D01*
X60967158Y-31924374D01*
X60964509Y-31908609D01*
X60710532Y-31381364D01*
X60294731Y-31009861D01*
X60604215Y-30803070D01*
X60929071Y-30316889D01*
X61043145Y-29743400D01*
X60929071Y-29169911D01*
X60604215Y-28683730D01*
X60289434Y-28473400D01*
X60604215Y-28263070D01*
X60929071Y-27776889D01*
X61043145Y-27203400D01*
X60929071Y-26629911D01*
X60604215Y-26143730D01*
X60289434Y-25933400D01*
X60604215Y-25723070D01*
X60929071Y-25236889D01*
X61043145Y-24663400D01*
X60929071Y-24089911D01*
X60604215Y-23603730D01*
X60589887Y-23594157D01*
X60611117Y-23590162D01*
X60827241Y-23451090D01*
X60972231Y-23238890D01*
X61023240Y-22987000D01*
X61023240Y-21259800D01*
X60978962Y-21024483D01*
X60839890Y-20808359D01*
X60627690Y-20663369D01*
X60375800Y-20612360D01*
X58343800Y-20612360D01*
X58108483Y-20656638D01*
X57892359Y-20795710D01*
X57747369Y-21007910D01*
X57696360Y-21259800D01*
X57696360Y-22987000D01*
X57740638Y-23222317D01*
X57879710Y-23438441D01*
X58091910Y-23583431D01*
X58133239Y-23591800D01*
X58115385Y-23603730D01*
X57790529Y-24089911D01*
X57676455Y-24663400D01*
X57790529Y-25236889D01*
X58115385Y-25723070D01*
X58430166Y-25933400D01*
X58115385Y-26143730D01*
X57916488Y-26441400D01*
X48234600Y-26441400D01*
X47942995Y-26499404D01*
X47695785Y-26664585D01*
X47017357Y-27343013D01*
X46923337Y-27342931D01*
X46563788Y-27491493D01*
X46288460Y-27766341D01*
X46139270Y-28125630D01*
X46138931Y-28514663D01*
X38314150Y-28514663D01*
X38204070Y-28468954D01*
X37815037Y-28468615D01*
X37455488Y-28617177D01*
X37180160Y-28892025D01*
X37143048Y-28981400D01*
X30323112Y-28981400D01*
X30124215Y-28683730D01*
X29809434Y-28473400D01*
X30124215Y-28263070D01*
X30449071Y-27776889D01*
X30563145Y-27203400D01*
X30449071Y-26629911D01*
X30124215Y-26143730D01*
X29809434Y-25933400D01*
X30124215Y-25723070D01*
X30449071Y-25236889D01*
X30563145Y-24663400D01*
X30449071Y-24089911D01*
X30124215Y-23603730D01*
X30109887Y-23594157D01*
X30131117Y-23590162D01*
X30347241Y-23451090D01*
X30492231Y-23238890D01*
X30543240Y-22987000D01*
X30543240Y-22162479D01*
X36419086Y-22162479D01*
X36606708Y-22616557D01*
X36953815Y-22964271D01*
X37407566Y-23152685D01*
X37898879Y-23153114D01*
X38352957Y-22965492D01*
X38700671Y-22618385D01*
X38889085Y-22164634D01*
X38889086Y-22162479D01*
X43519086Y-22162479D01*
X43706708Y-22616557D01*
X44053815Y-22964271D01*
X44507566Y-23152685D01*
X44998879Y-23153114D01*
X45452957Y-22965492D01*
X45800671Y-22618385D01*
X45989085Y-22164634D01*
X45989514Y-21673321D01*
X45801892Y-21219243D01*
X45454785Y-20871529D01*
X45001034Y-20683115D01*
X44509721Y-20682686D01*
X44055643Y-20870308D01*
X43707929Y-21217415D01*
X43519515Y-21671166D01*
X43519086Y-22162479D01*
X38889086Y-22162479D01*
X38889514Y-21673321D01*
X38701892Y-21219243D01*
X38354785Y-20871529D01*
X37901034Y-20683115D01*
X37409721Y-20682686D01*
X36955643Y-20870308D01*
X36607929Y-21217415D01*
X36419515Y-21671166D01*
X36419086Y-22162479D01*
X30543240Y-22162479D01*
X30543240Y-21259800D01*
X30498962Y-21024483D01*
X30359890Y-20808359D01*
X30147690Y-20663369D01*
X29895800Y-20612360D01*
X27863800Y-20612360D01*
X27628483Y-20656638D01*
X27412359Y-20795710D01*
X27267369Y-21007910D01*
X27216360Y-21259800D01*
X27216360Y-22987000D01*
X27260638Y-23222317D01*
X27399710Y-23438441D01*
X27611910Y-23583431D01*
X27653239Y-23591800D01*
X27635385Y-23603730D01*
X27310529Y-24089911D01*
X27196455Y-24663400D01*
X23241000Y-24663400D01*
X23241000Y-21558449D01*
X23344745Y-21036884D01*
X23600510Y-20654108D01*
X23983284Y-20398345D01*
X24504849Y-20294600D01*
X63734751Y-20294600D01*
X64256316Y-20398345D01*
D17*
X49503755Y-31512236D03*
X33070800Y-22758400D03*
X32245300Y-24218900D03*
X42087800Y-38379400D03*
X38684512Y-33553400D03*
X50012600Y-28219400D03*
X39904300Y-25831800D03*
X38989000Y-26949400D03*
X43119040Y-33850580D03*
X37152580Y-25895300D03*
X46860460Y-29911040D03*
X40678100Y-30162500D03*
X40678100Y-31346140D03*
X40678100Y-28928060D03*
X50393600Y-31496000D03*
X38019254Y-31139195D03*
X47117000Y-28321000D03*
X39409361Y-31874480D03*
X38120262Y-30307091D03*
X36601400Y-34417000D03*
X43510200Y-35331400D03*
X38008700Y-29446684D03*
X49580800Y-32346900D03*
X54025800Y-32918400D03*
D18*
X28879800Y-22123400D03*
X28879800Y-24663400D03*
X28879800Y-27203400D03*
X28879800Y-29743400D03*
X28879800Y-32283400D03*
X28879800Y-34823400D03*
X28879800Y-37363400D03*
X44754300Y-21917900D03*
X37654300Y-21917900D03*
X59359800Y-22123400D03*
X59359800Y-24663400D03*
X59359800Y-27203400D03*
X59359800Y-29743400D03*
X59359800Y-32283400D03*
X59359800Y-34823400D03*
X59359800Y-37363400D03*
X34135060Y-31333440D03*
X34135060Y-33873440D03*
X34135060Y-36413440D03*
X50065940Y-36177220D03*
X52555140Y-36177220D03*
X47576740Y-36177220D03*
M02*
