M48
;DRILL file {KiCad 4.0.5-e0-6337~49~ubuntu16.04.1} date Thu Jul 20 08:52:04 2017
;FORMAT={-:-/ absolute / metric / decimal}
FMAT,2
METRIC,TZ
T1C1.016
T2C1.200
%
G90
G05
M71
T1
X67.385Y-43.224
X69.874Y-43.224
X72.364Y-43.224
X76.25Y-23.65
X78.79Y-23.65
X81.33Y-23.65
X83.87Y-23.65
X86.41Y-23.65
X88.95Y-23.65
X91.449Y-42.729
X91.449Y-45.269
X91.449Y-47.809
X91.49Y-23.65
X105.85Y-50.45
X105.85Y-52.99
X105.85Y-55.53
X105.85Y-58.07
X105.85Y-60.61
X105.85Y-63.15
X105.85Y-65.69
T2
X75.209Y-50.515
X82.309Y-50.515
T0
M30
