%TF.GenerationSoftware,KiCad,Pcbnew,4.0.5-e0-6337~49~ubuntu16.04.1*%
%TF.CreationDate,2017-07-21T11:10:54-07:00*%
%TF.ProjectId,stns01-battery-mgmt-breakout,73746E7330312D626174746572792D6D,1.0*%
%TF.FileFunction,Copper,L1,Top,Signal*%
%FSLAX46Y46*%
G04 Gerber Fmt 4.6, Leading zero omitted, Abs format (unit mm)*
G04 Created by KiCad (PCBNEW 4.0.5-e0-6337~49~ubuntu16.04.1) date Fri Jul 21 11:10:54 2017*
%MOMM*%
%LPD*%
G01*
G04 APERTURE LIST*
%ADD10C,0.350000*%
%ADD11R,2.032000X1.727200*%
%ADD12O,2.032000X1.727200*%
%ADD13R,0.400000X1.350000*%
%ADD14R,1.600000X1.400000*%
%ADD15C,1.200000*%
%ADD16R,1.900000X1.900000*%
%ADD17R,0.800000X0.750000*%
%ADD18R,0.750000X0.800000*%
%ADD19R,1.000000X3.500000*%
%ADD20R,1.600000X3.400000*%
%ADD21C,1.524000*%
%ADD22R,0.700000X0.250000*%
%ADD23R,0.830000X1.190000*%
%ADD24R,0.800100X0.800100*%
%ADD25C,0.685800*%
%ADD26C,0.330200*%
%ADD27C,0.254000*%
%ADD28C,0.508000*%
%ADD29C,0.330200*%
%ADD30C,0.350000*%
G04 APERTURE END LIST*
D10*
D11*
X114300000Y-104140000D03*
D12*
X114300000Y-106680000D03*
X114300000Y-109220000D03*
X114300000Y-111760000D03*
X114300000Y-114300000D03*
X114300000Y-116840000D03*
X114300000Y-119380000D03*
D13*
X127924500Y-106609500D03*
X127274500Y-106609500D03*
X126625400Y-106609500D03*
X125974500Y-106609500D03*
X125324500Y-106609500D03*
D14*
X129824500Y-106384500D03*
D15*
X130174500Y-103934500D03*
D16*
X127824500Y-103934500D03*
X125424500Y-103934500D03*
D14*
X123424500Y-106384500D03*
D15*
X123074500Y-103934500D03*
D17*
X127394400Y-108864400D03*
X125894400Y-108864400D03*
X138456800Y-113487200D03*
X136956800Y-113487200D03*
D18*
X122572780Y-112358740D03*
X122572780Y-113858740D03*
X122572780Y-110378240D03*
X122572780Y-108878240D03*
D19*
X138715500Y-110236000D03*
X136715500Y-110236000D03*
D20*
X141115500Y-104686000D03*
X134315500Y-104686000D03*
D11*
X144780000Y-104140000D03*
D12*
X144780000Y-106680000D03*
X144780000Y-109220000D03*
X144780000Y-111760000D03*
X144780000Y-114300000D03*
X144780000Y-116840000D03*
X144780000Y-119380000D03*
D18*
X123748800Y-117004400D03*
X123748800Y-118504400D03*
X133421120Y-113438940D03*
X133421120Y-114938940D03*
X129415540Y-113474500D03*
X129415540Y-114974500D03*
X127477520Y-115947060D03*
X127477520Y-117447060D03*
X125603000Y-117463000D03*
X125603000Y-115963000D03*
X129415540Y-111866680D03*
X129415540Y-110366680D03*
X131180840Y-110390940D03*
X131180840Y-111890940D03*
D11*
X119555260Y-113350040D03*
D12*
X119555260Y-115890040D03*
X119555260Y-118430040D03*
D21*
X135486140Y-118193820D03*
X137975340Y-118193820D03*
X132996940Y-118193820D03*
D22*
X124674804Y-111029941D03*
X124674804Y-111479941D03*
X124674804Y-111929941D03*
X124674804Y-112379941D03*
X124674804Y-112829941D03*
X124674804Y-113279941D03*
X127474804Y-113279941D03*
X127474804Y-112829941D03*
X127474804Y-112379941D03*
X127474804Y-111929941D03*
X127474804Y-111479941D03*
X127474804Y-111029941D03*
D23*
X126489804Y-112749941D03*
X126489804Y-111559941D03*
X125659804Y-112749941D03*
X125659804Y-111559941D03*
D24*
X118704360Y-105907800D03*
X118704360Y-107807800D03*
X120703340Y-106857800D03*
D25*
X134923955Y-113528836D03*
X118491000Y-104775000D03*
X117665500Y-106235500D03*
X127508000Y-120396000D03*
X124104712Y-115570000D03*
X135432800Y-110236000D03*
X125324500Y-107848400D03*
X124409200Y-108966000D03*
X128539240Y-115867180D03*
X122572780Y-107911900D03*
X132280660Y-111927640D03*
X126098300Y-112179100D03*
X126098300Y-113362740D03*
X126098300Y-110944660D03*
X135813800Y-113512600D03*
X123439454Y-113155795D03*
X132537200Y-110337600D03*
X124829561Y-113891080D03*
X123540462Y-112323691D03*
X122021600Y-116433600D03*
X128930400Y-117348000D03*
X123428900Y-111463284D03*
X135001000Y-114363500D03*
X139446000Y-114935000D03*
D26*
X119507000Y-103187500D02*
X116674900Y-103187500D01*
X116674900Y-103187500D02*
X115722400Y-104140000D01*
X121577100Y-105257600D02*
X119507000Y-103187500D01*
X127577800Y-105257600D02*
X121577100Y-105257600D01*
X115722400Y-104140000D02*
X114300000Y-104140000D01*
X127924500Y-106609500D02*
X127924500Y-108334300D01*
X127924500Y-108334300D02*
X127394400Y-108864400D01*
X127924500Y-105604300D02*
X127924500Y-106609500D01*
X127577800Y-105257600D02*
X127924500Y-105604300D01*
X127394400Y-108864400D02*
X127394400Y-109569600D01*
X127394400Y-109569600D02*
X126931200Y-110032800D01*
X126931200Y-110032800D02*
X125216745Y-110032800D01*
X125216745Y-110032800D02*
X124674804Y-110574741D01*
X124674804Y-110574741D02*
X124674804Y-111029941D01*
X118704360Y-105907800D02*
X118704360Y-104988360D01*
X118704360Y-104988360D02*
X118491000Y-104775000D01*
X118704360Y-105907800D02*
X117993200Y-105907800D01*
X117993200Y-105907800D02*
X117665500Y-106235500D01*
D27*
X127477520Y-117447060D02*
X127477520Y-120365520D01*
X127477520Y-120365520D02*
X127508000Y-120396000D01*
X122572780Y-113858740D02*
X122572780Y-114038068D01*
X122572780Y-114038068D02*
X124104712Y-115570000D01*
X124276113Y-115741401D02*
X124104712Y-115570000D01*
X125671580Y-113858740D02*
X125984000Y-114171160D01*
X126098300Y-113362740D02*
X126098300Y-113847673D01*
X125984000Y-114171160D02*
X126282801Y-114469961D01*
X126098300Y-113847673D02*
X125984000Y-113961973D01*
X125984000Y-113961973D02*
X125984000Y-114171160D01*
X127477520Y-117447060D02*
X127477520Y-118587520D01*
X127477520Y-118587520D02*
X127508000Y-118618000D01*
D26*
X136715500Y-110236000D02*
X135432800Y-110236000D01*
D27*
X125324500Y-107848400D02*
X125324500Y-107999900D01*
D26*
X125324500Y-106609500D02*
X125324500Y-107848400D01*
X125894400Y-108864400D02*
X124510800Y-108864400D01*
X124510800Y-108864400D02*
X124409200Y-108966000D01*
X118704360Y-105907800D02*
X117624900Y-105907800D01*
X117624900Y-105907800D02*
X117602000Y-105930700D01*
D27*
X129415540Y-114974500D02*
X129415540Y-114990880D01*
X129415540Y-114990880D02*
X128539240Y-115867180D01*
X122572780Y-108878240D02*
X122572780Y-107911900D01*
X129415540Y-114974500D02*
X129415540Y-115976400D01*
X129415540Y-115976400D02*
X129423160Y-115984020D01*
X131180840Y-111890940D02*
X132243960Y-111890940D01*
X132243960Y-111890940D02*
X132280660Y-111927640D01*
X126098300Y-112179100D02*
X126098300Y-112358437D01*
X126098300Y-112358437D02*
X126489804Y-112749941D01*
X126489804Y-112749941D02*
X126489804Y-111559941D01*
X125659804Y-111559941D02*
X125659804Y-111372996D01*
X125659804Y-111372996D02*
X126088140Y-110944660D01*
X126489804Y-111559941D02*
X125659804Y-111559941D01*
X126489804Y-112749941D02*
X125659804Y-112749941D01*
X125659804Y-111559941D02*
X125659804Y-112749941D01*
X125671580Y-113858740D02*
X126356680Y-113858740D01*
X125659804Y-113692016D02*
X125659804Y-113846964D01*
X125659804Y-113846964D02*
X125671580Y-113858740D01*
X126356680Y-113858740D02*
X126489804Y-113725616D01*
X125659804Y-113692016D02*
X125634404Y-113692016D01*
X125659804Y-112749941D02*
X125659804Y-113692016D01*
X125659804Y-113692016D02*
X125646180Y-113705640D01*
X126489804Y-112749941D02*
X126489804Y-113725616D01*
X126489804Y-113725616D02*
X126484380Y-113731040D01*
X127474804Y-113279941D02*
X127019804Y-113279941D01*
X127019804Y-113279941D02*
X126489804Y-112749941D01*
X125324500Y-106609500D02*
X125324500Y-108294500D01*
X125324500Y-108294500D02*
X125894400Y-108864400D01*
X136956800Y-113487200D02*
X135839200Y-113487200D01*
X135839200Y-113487200D02*
X135813800Y-113512600D01*
D28*
X136715500Y-110236000D02*
X136715500Y-113245900D01*
X136715500Y-113245900D02*
X136956800Y-113487200D01*
D27*
X125324500Y-107999900D02*
X125171200Y-108153200D01*
D28*
X134304120Y-114938940D02*
X134541481Y-115176301D01*
X138431800Y-113487200D02*
X138456800Y-113487200D01*
X133421120Y-114938940D02*
X134304120Y-114938940D01*
X134541481Y-115176301D02*
X136742699Y-115176301D01*
X136742699Y-115176301D02*
X138431800Y-113487200D01*
X128117600Y-110008145D02*
X128565466Y-109560279D01*
X130403600Y-107746800D02*
X138484300Y-107746800D01*
X128565466Y-109560279D02*
X128590121Y-109560279D01*
X128590121Y-109560279D02*
X130403600Y-107746800D01*
X138715500Y-107978000D02*
X138715500Y-110236000D01*
X138484300Y-107746800D02*
X138715500Y-107978000D01*
D27*
X127474804Y-111029941D02*
X127474804Y-110650941D01*
X127474804Y-110650941D02*
X128117600Y-110008145D01*
D28*
X142849600Y-108610400D02*
X142849600Y-105918000D01*
X142849600Y-105918000D02*
X144627600Y-104140000D01*
X144627600Y-104140000D02*
X144780000Y-104140000D01*
X141224000Y-110236000D02*
X142849600Y-108610400D01*
X138715500Y-110236000D02*
X141224000Y-110236000D01*
X138715500Y-110236000D02*
X138715500Y-113228500D01*
X138715500Y-113228500D02*
X138456800Y-113487200D01*
D26*
X120703340Y-107950000D02*
X120703340Y-105272840D01*
X120703340Y-108318300D02*
X120703340Y-107950000D01*
X120703340Y-109476540D02*
X120703340Y-108585000D01*
X120703340Y-108585000D02*
X120703340Y-107823000D01*
X120703340Y-107950000D02*
X120703340Y-108585000D01*
X120703340Y-108016040D02*
X120703340Y-107823000D01*
X120703340Y-107823000D02*
X120703340Y-106857800D01*
X116052600Y-106273600D02*
X115900200Y-106426000D01*
X115900200Y-106426000D02*
X115646200Y-106680000D01*
X120703340Y-105272840D02*
X119443500Y-104013000D01*
X119443500Y-104013000D02*
X118313200Y-104013000D01*
X118313200Y-104013000D02*
X115900200Y-106426000D01*
X115646200Y-106680000D02*
X114300000Y-106680000D01*
D27*
X124045403Y-111271621D02*
X124045403Y-111158282D01*
X124674804Y-111479941D02*
X124253723Y-111479941D01*
X124045403Y-111158282D02*
X123265361Y-110378240D01*
X123265361Y-110378240D02*
X123201780Y-110378240D01*
X124253723Y-111479941D02*
X124045403Y-111271621D01*
X123201780Y-110378240D02*
X122572780Y-110378240D01*
D26*
X121605040Y-110378240D02*
X120703340Y-109476540D01*
X122572780Y-110378240D02*
X121605040Y-110378240D01*
X118704360Y-107807800D02*
X118704360Y-109268300D01*
X118704360Y-109268300D02*
X114348300Y-109268300D01*
D27*
X118704360Y-109268300D02*
X118704360Y-112499140D01*
X118704360Y-112499140D02*
X119555260Y-113350040D01*
D26*
X144932400Y-116840000D02*
X144780000Y-116840000D01*
D28*
X144780000Y-116840000D02*
X136839960Y-116840000D01*
X136839960Y-116840000D02*
X135486140Y-118193820D01*
D27*
X124968000Y-115062000D02*
X124968000Y-115303000D01*
X124968000Y-115303000D02*
X125603000Y-115938000D01*
X125603000Y-115938000D02*
X125603000Y-115963000D01*
X123901200Y-113131600D02*
X123463649Y-113131600D01*
X123463649Y-113131600D02*
X123439454Y-113155795D01*
X123901200Y-113995200D02*
X123901200Y-113131600D01*
X123901200Y-113131600D02*
X123901200Y-112999545D01*
X123901200Y-112999545D02*
X124070804Y-112829941D01*
X124070804Y-112829941D02*
X124674804Y-112829941D01*
X124968000Y-115062000D02*
X123901200Y-113995200D01*
X131180840Y-110390940D02*
X132483860Y-110390940D01*
X132483860Y-110390940D02*
X132537200Y-110337600D01*
X129415540Y-110366680D02*
X131156580Y-110366680D01*
X131156580Y-110366680D02*
X131180840Y-110390940D01*
X124674804Y-113736323D02*
X124829561Y-113891080D01*
X124674804Y-113279941D02*
X124674804Y-113736323D01*
X123596712Y-112379941D02*
X123540462Y-112323691D01*
X124674804Y-112379941D02*
X123596712Y-112379941D01*
X127477520Y-115947060D02*
X127477520Y-114373660D01*
X127477520Y-114373660D02*
X127774700Y-114076480D01*
X127774700Y-114076480D02*
X128109980Y-113741200D01*
X132232400Y-115824000D02*
X140563600Y-115824000D01*
X140563600Y-115824000D02*
X144627600Y-111760000D01*
X144627600Y-111760000D02*
X144780000Y-111760000D01*
X130657600Y-114249200D02*
X132232400Y-115824000D01*
X128371600Y-114249200D02*
X130657600Y-114249200D01*
X128109980Y-113741200D02*
X128252220Y-113598960D01*
X128109980Y-113987580D02*
X128371600Y-114249200D01*
X128109980Y-113741200D02*
X128109980Y-113987580D01*
X128252220Y-113003357D02*
X128252220Y-113598960D01*
X127474804Y-112829941D02*
X128078804Y-112829941D01*
X128078804Y-112829941D02*
X128252220Y-113003357D01*
X123748800Y-117004400D02*
X125144400Y-117004400D01*
X125144400Y-117004400D02*
X125603000Y-117463000D01*
X129415540Y-111866680D02*
X129352279Y-111929941D01*
X129352279Y-111929941D02*
X127474804Y-111929941D01*
X119555260Y-115890040D02*
X121478040Y-115890040D01*
X121478040Y-115890040D02*
X122021600Y-116433600D01*
D26*
X128930400Y-117348000D02*
X129776220Y-118193820D01*
X129776220Y-118193820D02*
X132996940Y-118193820D01*
D28*
X115570000Y-119380000D02*
X114300000Y-119380000D01*
D26*
X119555260Y-118430040D02*
X116519960Y-118430040D01*
X116519960Y-118430040D02*
X115570000Y-119380000D01*
X122682002Y-118453598D02*
X122631200Y-118504400D01*
X122682002Y-116116606D02*
X122682002Y-118453598D01*
X121361200Y-113595320D02*
X121361200Y-114795804D01*
X122572780Y-112383740D02*
X121361200Y-113595320D01*
X121361200Y-114795804D02*
X122682002Y-116116606D01*
X122572780Y-112358740D02*
X122572780Y-112383740D01*
D27*
X123604147Y-111463284D02*
X123428900Y-111463284D01*
X124070804Y-111929941D02*
X123604147Y-111463284D01*
D26*
X122572780Y-112358740D02*
X122572780Y-112333740D01*
D27*
X124674804Y-111929941D02*
X124070804Y-111929941D01*
D26*
X123428900Y-111477620D02*
X123428900Y-111463284D01*
X122572780Y-112333740D02*
X123428900Y-111477620D01*
X123748800Y-118504400D02*
X122631200Y-118504400D01*
X122631200Y-118504400D02*
X119629620Y-118504400D01*
X119629620Y-118504400D02*
X119555260Y-118430040D01*
D27*
X135001000Y-114363500D02*
X134345680Y-114363500D01*
X134345680Y-114363500D02*
X133421120Y-113438940D01*
X143484590Y-110896410D02*
X139446000Y-114935000D01*
X144780000Y-106680000D02*
X144627600Y-106680000D01*
X144627600Y-106680000D02*
X143484590Y-107823010D01*
X143484590Y-107823010D02*
X143484590Y-110896410D01*
X132560060Y-111091980D02*
X133421120Y-111953040D01*
X133421120Y-111953040D02*
X133421120Y-113438940D01*
X128466765Y-111091980D02*
X132560060Y-111091980D01*
X127474804Y-111479941D02*
X128078804Y-111479941D01*
X128078804Y-111479941D02*
X128466765Y-111091980D01*
X127474804Y-112379941D02*
X128320981Y-112379941D01*
X128320981Y-112379941D02*
X129415540Y-113474500D01*
G36*
X149676516Y-102414945D02*
X150059292Y-102670710D01*
X150315055Y-103053484D01*
X150418800Y-103575049D01*
X150418800Y-121214951D01*
X150315055Y-121736516D01*
X150059292Y-122119290D01*
X149676516Y-122375055D01*
X149154951Y-122478800D01*
X109925049Y-122478800D01*
X109403484Y-122375055D01*
X109020710Y-122119292D01*
X108764945Y-121736516D01*
X108661200Y-121214951D01*
X108661200Y-106680000D01*
X112616655Y-106680000D01*
X112730729Y-107253489D01*
X113055585Y-107739670D01*
X113370366Y-107950000D01*
X113055585Y-108160330D01*
X112730729Y-108646511D01*
X112616655Y-109220000D01*
X112730729Y-109793489D01*
X113055585Y-110279670D01*
X113370366Y-110490000D01*
X113055585Y-110700330D01*
X112730729Y-111186511D01*
X112616655Y-111760000D01*
X112730729Y-112333489D01*
X113055585Y-112819670D01*
X113370366Y-113030000D01*
X113055585Y-113240330D01*
X112730729Y-113726511D01*
X112616655Y-114300000D01*
X112730729Y-114873489D01*
X113055585Y-115359670D01*
X113370366Y-115570000D01*
X113055585Y-115780330D01*
X112730729Y-116266511D01*
X112616655Y-116840000D01*
X112730729Y-117413489D01*
X113055585Y-117899670D01*
X113370366Y-118110000D01*
X113055585Y-118320330D01*
X112730729Y-118806511D01*
X112616655Y-119380000D01*
X112730729Y-119953489D01*
X113055585Y-120439670D01*
X113541766Y-120764526D01*
X114115255Y-120878600D01*
X114484745Y-120878600D01*
X115058234Y-120764526D01*
X115544415Y-120439670D01*
X115672011Y-120248709D01*
X115910206Y-120201329D01*
X116198618Y-120008618D01*
X116391329Y-119720206D01*
X116398784Y-119682728D01*
X116851372Y-119230140D01*
X118137406Y-119230140D01*
X118310845Y-119489710D01*
X118797026Y-119814566D01*
X119370515Y-119928640D01*
X119740005Y-119928640D01*
X120313494Y-119814566D01*
X120426547Y-119739026D01*
X143172642Y-119739026D01*
X143175291Y-119754791D01*
X143429268Y-120282036D01*
X143865680Y-120671954D01*
X144418087Y-120865184D01*
X144653000Y-120720924D01*
X144653000Y-119507000D01*
X144907000Y-119507000D01*
X144907000Y-120720924D01*
X145141913Y-120865184D01*
X145694320Y-120671954D01*
X146130732Y-120282036D01*
X146384709Y-119754791D01*
X146387358Y-119739026D01*
X146266217Y-119507000D01*
X144907000Y-119507000D01*
X144653000Y-119507000D01*
X143293783Y-119507000D01*
X143172642Y-119739026D01*
X120426547Y-119739026D01*
X120799675Y-119489710D01*
X120923428Y-119304500D01*
X122876673Y-119304500D01*
X122909710Y-119355841D01*
X123121910Y-119500831D01*
X123373800Y-119551840D01*
X124123800Y-119551840D01*
X124359117Y-119507562D01*
X124575241Y-119368490D01*
X124720231Y-119156290D01*
X124771240Y-118904400D01*
X124771240Y-118319449D01*
X124976110Y-118459431D01*
X125228000Y-118510440D01*
X125978000Y-118510440D01*
X126213317Y-118466162D01*
X126429441Y-118327090D01*
X126544366Y-118158892D01*
X126564193Y-118206758D01*
X126742821Y-118385387D01*
X126976210Y-118482060D01*
X127191770Y-118482060D01*
X127350520Y-118323310D01*
X127350520Y-117574060D01*
X127330520Y-117574060D01*
X127330520Y-117320060D01*
X127350520Y-117320060D01*
X127350520Y-117300060D01*
X127604520Y-117300060D01*
X127604520Y-117320060D01*
X127624520Y-117320060D01*
X127624520Y-117574060D01*
X127604520Y-117574060D01*
X127604520Y-118323310D01*
X127763270Y-118482060D01*
X127978830Y-118482060D01*
X128212219Y-118385387D01*
X128390847Y-118206758D01*
X128399310Y-118186327D01*
X128735030Y-118325730D01*
X128776654Y-118325766D01*
X129210464Y-118759576D01*
X129470035Y-118933016D01*
X129776220Y-118993920D01*
X131821710Y-118993920D01*
X132204570Y-119377449D01*
X132717840Y-119590577D01*
X133273601Y-119591062D01*
X133787243Y-119378830D01*
X134180569Y-118986190D01*
X134241426Y-118839629D01*
X134301130Y-118984123D01*
X134693770Y-119377449D01*
X135207040Y-119590577D01*
X135762801Y-119591062D01*
X136276443Y-119378830D01*
X136669769Y-118986190D01*
X136730626Y-118839629D01*
X136790330Y-118984123D01*
X137182970Y-119377449D01*
X137696240Y-119590577D01*
X138252001Y-119591062D01*
X138765643Y-119378830D01*
X139158969Y-118986190D01*
X139372097Y-118472920D01*
X139372582Y-117917159D01*
X139294836Y-117729000D01*
X143421547Y-117729000D01*
X143535585Y-117899670D01*
X143845069Y-118106461D01*
X143429268Y-118477964D01*
X143175291Y-119005209D01*
X143172642Y-119020974D01*
X143293783Y-119253000D01*
X144653000Y-119253000D01*
X144653000Y-119233000D01*
X144907000Y-119233000D01*
X144907000Y-119253000D01*
X146266217Y-119253000D01*
X146387358Y-119020974D01*
X146384709Y-119005209D01*
X146130732Y-118477964D01*
X145714931Y-118106461D01*
X146024415Y-117899670D01*
X146349271Y-117413489D01*
X146463345Y-116840000D01*
X146349271Y-116266511D01*
X146024415Y-115780330D01*
X145714931Y-115573539D01*
X146130732Y-115202036D01*
X146384709Y-114674791D01*
X146387358Y-114659026D01*
X146266217Y-114427000D01*
X144907000Y-114427000D01*
X144907000Y-114447000D01*
X144653000Y-114447000D01*
X144653000Y-114427000D01*
X144633000Y-114427000D01*
X144633000Y-114173000D01*
X144653000Y-114173000D01*
X144653000Y-114153000D01*
X144907000Y-114153000D01*
X144907000Y-114173000D01*
X146266217Y-114173000D01*
X146387358Y-113940974D01*
X146384709Y-113925209D01*
X146130732Y-113397964D01*
X145714931Y-113026461D01*
X146024415Y-112819670D01*
X146349271Y-112333489D01*
X146463345Y-111760000D01*
X146349271Y-111186511D01*
X146024415Y-110700330D01*
X145709634Y-110490000D01*
X146024415Y-110279670D01*
X146349271Y-109793489D01*
X146463345Y-109220000D01*
X146349271Y-108646511D01*
X146024415Y-108160330D01*
X145709634Y-107950000D01*
X146024415Y-107739670D01*
X146349271Y-107253489D01*
X146463345Y-106680000D01*
X146349271Y-106106511D01*
X146024415Y-105620330D01*
X146010087Y-105610757D01*
X146031317Y-105606762D01*
X146247441Y-105467690D01*
X146392431Y-105255490D01*
X146443440Y-105003600D01*
X146443440Y-103276400D01*
X146399162Y-103041083D01*
X146260090Y-102824959D01*
X146047890Y-102679969D01*
X145796000Y-102628960D01*
X143764000Y-102628960D01*
X143528683Y-102673238D01*
X143312559Y-102812310D01*
X143167569Y-103024510D01*
X143116560Y-103276400D01*
X143116560Y-104393804D01*
X142562940Y-104947424D01*
X142562940Y-102986000D01*
X142518662Y-102750683D01*
X142379590Y-102534559D01*
X142167390Y-102389569D01*
X141915500Y-102338560D01*
X140315500Y-102338560D01*
X140080183Y-102382838D01*
X139864059Y-102521910D01*
X139719069Y-102734110D01*
X139668060Y-102986000D01*
X139668060Y-106386000D01*
X139712338Y-106621317D01*
X139851410Y-106837441D01*
X140063610Y-106982431D01*
X140315500Y-107033440D01*
X141915500Y-107033440D01*
X141960600Y-107024954D01*
X141960600Y-108242164D01*
X140855764Y-109347000D01*
X139862940Y-109347000D01*
X139862940Y-108486000D01*
X139818662Y-108250683D01*
X139679590Y-108034559D01*
X139604500Y-107983252D01*
X139604500Y-107978000D01*
X139536829Y-107637794D01*
X139344118Y-107349382D01*
X139112918Y-107118182D01*
X139027354Y-107061010D01*
X138824506Y-106925471D01*
X138484300Y-106857800D01*
X135554959Y-106857800D01*
X135566941Y-106850090D01*
X135711931Y-106637890D01*
X135762940Y-106386000D01*
X135762940Y-102986000D01*
X135718662Y-102750683D01*
X135579590Y-102534559D01*
X135367390Y-102389569D01*
X135115500Y-102338560D01*
X133515500Y-102338560D01*
X133280183Y-102382838D01*
X133064059Y-102521910D01*
X132919069Y-102734110D01*
X132868060Y-102986000D01*
X132868060Y-106386000D01*
X132912338Y-106621317D01*
X133051410Y-106837441D01*
X133081206Y-106857800D01*
X131271940Y-106857800D01*
X131271940Y-105684500D01*
X131227662Y-105449183D01*
X131088590Y-105233059D01*
X130876390Y-105088069D01*
X130702095Y-105052773D01*
X130873157Y-104982092D01*
X131220871Y-104634985D01*
X131409285Y-104181234D01*
X131409714Y-103689921D01*
X131222092Y-103235843D01*
X130874985Y-102888129D01*
X130421234Y-102699715D01*
X129929921Y-102699286D01*
X129475843Y-102886908D01*
X129415004Y-102947640D01*
X129377662Y-102749183D01*
X129238590Y-102533059D01*
X129026390Y-102388069D01*
X128774500Y-102337060D01*
X126874500Y-102337060D01*
X126639183Y-102381338D01*
X126627521Y-102388842D01*
X126626390Y-102388069D01*
X126374500Y-102337060D01*
X124474500Y-102337060D01*
X124239183Y-102381338D01*
X124023059Y-102520410D01*
X123878069Y-102732610D01*
X123834502Y-102947750D01*
X123774985Y-102888129D01*
X123321234Y-102699715D01*
X122829921Y-102699286D01*
X122375843Y-102886908D01*
X122028129Y-103234015D01*
X121839715Y-103687766D01*
X121839286Y-104179079D01*
X121954328Y-104457500D01*
X121908512Y-104457500D01*
X120072756Y-102621744D01*
X119813185Y-102448304D01*
X119507000Y-102387400D01*
X116674900Y-102387400D01*
X116368715Y-102448304D01*
X116109144Y-102621744D01*
X115829360Y-102901528D01*
X115780090Y-102824959D01*
X115567890Y-102679969D01*
X115316000Y-102628960D01*
X113284000Y-102628960D01*
X113048683Y-102673238D01*
X112832559Y-102812310D01*
X112687569Y-103024510D01*
X112636560Y-103276400D01*
X112636560Y-105003600D01*
X112680838Y-105238917D01*
X112819910Y-105455041D01*
X113032110Y-105600031D01*
X113073439Y-105608400D01*
X113055585Y-105620330D01*
X112730729Y-106106511D01*
X112616655Y-106680000D01*
X108661200Y-106680000D01*
X108661200Y-103575049D01*
X108764945Y-103053484D01*
X109020710Y-102670708D01*
X109403484Y-102414945D01*
X109925049Y-102311200D01*
X149154951Y-102311200D01*
X149676516Y-102414945D01*
X149676516Y-102414945D01*
G37*
X149676516Y-102414945D02*
X150059292Y-102670710D01*
X150315055Y-103053484D01*
X150418800Y-103575049D01*
X150418800Y-121214951D01*
X150315055Y-121736516D01*
X150059292Y-122119290D01*
X149676516Y-122375055D01*
X149154951Y-122478800D01*
X109925049Y-122478800D01*
X109403484Y-122375055D01*
X109020710Y-122119292D01*
X108764945Y-121736516D01*
X108661200Y-121214951D01*
X108661200Y-106680000D01*
X112616655Y-106680000D01*
X112730729Y-107253489D01*
X113055585Y-107739670D01*
X113370366Y-107950000D01*
X113055585Y-108160330D01*
X112730729Y-108646511D01*
X112616655Y-109220000D01*
X112730729Y-109793489D01*
X113055585Y-110279670D01*
X113370366Y-110490000D01*
X113055585Y-110700330D01*
X112730729Y-111186511D01*
X112616655Y-111760000D01*
X112730729Y-112333489D01*
X113055585Y-112819670D01*
X113370366Y-113030000D01*
X113055585Y-113240330D01*
X112730729Y-113726511D01*
X112616655Y-114300000D01*
X112730729Y-114873489D01*
X113055585Y-115359670D01*
X113370366Y-115570000D01*
X113055585Y-115780330D01*
X112730729Y-116266511D01*
X112616655Y-116840000D01*
X112730729Y-117413489D01*
X113055585Y-117899670D01*
X113370366Y-118110000D01*
X113055585Y-118320330D01*
X112730729Y-118806511D01*
X112616655Y-119380000D01*
X112730729Y-119953489D01*
X113055585Y-120439670D01*
X113541766Y-120764526D01*
X114115255Y-120878600D01*
X114484745Y-120878600D01*
X115058234Y-120764526D01*
X115544415Y-120439670D01*
X115672011Y-120248709D01*
X115910206Y-120201329D01*
X116198618Y-120008618D01*
X116391329Y-119720206D01*
X116398784Y-119682728D01*
X116851372Y-119230140D01*
X118137406Y-119230140D01*
X118310845Y-119489710D01*
X118797026Y-119814566D01*
X119370515Y-119928640D01*
X119740005Y-119928640D01*
X120313494Y-119814566D01*
X120426547Y-119739026D01*
X143172642Y-119739026D01*
X143175291Y-119754791D01*
X143429268Y-120282036D01*
X143865680Y-120671954D01*
X144418087Y-120865184D01*
X144653000Y-120720924D01*
X144653000Y-119507000D01*
X144907000Y-119507000D01*
X144907000Y-120720924D01*
X145141913Y-120865184D01*
X145694320Y-120671954D01*
X146130732Y-120282036D01*
X146384709Y-119754791D01*
X146387358Y-119739026D01*
X146266217Y-119507000D01*
X144907000Y-119507000D01*
X144653000Y-119507000D01*
X143293783Y-119507000D01*
X143172642Y-119739026D01*
X120426547Y-119739026D01*
X120799675Y-119489710D01*
X120923428Y-119304500D01*
X122876673Y-119304500D01*
X122909710Y-119355841D01*
X123121910Y-119500831D01*
X123373800Y-119551840D01*
X124123800Y-119551840D01*
X124359117Y-119507562D01*
X124575241Y-119368490D01*
X124720231Y-119156290D01*
X124771240Y-118904400D01*
X124771240Y-118319449D01*
X124976110Y-118459431D01*
X125228000Y-118510440D01*
X125978000Y-118510440D01*
X126213317Y-118466162D01*
X126429441Y-118327090D01*
X126544366Y-118158892D01*
X126564193Y-118206758D01*
X126742821Y-118385387D01*
X126976210Y-118482060D01*
X127191770Y-118482060D01*
X127350520Y-118323310D01*
X127350520Y-117574060D01*
X127330520Y-117574060D01*
X127330520Y-117320060D01*
X127350520Y-117320060D01*
X127350520Y-117300060D01*
X127604520Y-117300060D01*
X127604520Y-117320060D01*
X127624520Y-117320060D01*
X127624520Y-117574060D01*
X127604520Y-117574060D01*
X127604520Y-118323310D01*
X127763270Y-118482060D01*
X127978830Y-118482060D01*
X128212219Y-118385387D01*
X128390847Y-118206758D01*
X128399310Y-118186327D01*
X128735030Y-118325730D01*
X128776654Y-118325766D01*
X129210464Y-118759576D01*
X129470035Y-118933016D01*
X129776220Y-118993920D01*
X131821710Y-118993920D01*
X132204570Y-119377449D01*
X132717840Y-119590577D01*
X133273601Y-119591062D01*
X133787243Y-119378830D01*
X134180569Y-118986190D01*
X134241426Y-118839629D01*
X134301130Y-118984123D01*
X134693770Y-119377449D01*
X135207040Y-119590577D01*
X135762801Y-119591062D01*
X136276443Y-119378830D01*
X136669769Y-118986190D01*
X136730626Y-118839629D01*
X136790330Y-118984123D01*
X137182970Y-119377449D01*
X137696240Y-119590577D01*
X138252001Y-119591062D01*
X138765643Y-119378830D01*
X139158969Y-118986190D01*
X139372097Y-118472920D01*
X139372582Y-117917159D01*
X139294836Y-117729000D01*
X143421547Y-117729000D01*
X143535585Y-117899670D01*
X143845069Y-118106461D01*
X143429268Y-118477964D01*
X143175291Y-119005209D01*
X143172642Y-119020974D01*
X143293783Y-119253000D01*
X144653000Y-119253000D01*
X144653000Y-119233000D01*
X144907000Y-119233000D01*
X144907000Y-119253000D01*
X146266217Y-119253000D01*
X146387358Y-119020974D01*
X146384709Y-119005209D01*
X146130732Y-118477964D01*
X145714931Y-118106461D01*
X146024415Y-117899670D01*
X146349271Y-117413489D01*
X146463345Y-116840000D01*
X146349271Y-116266511D01*
X146024415Y-115780330D01*
X145714931Y-115573539D01*
X146130732Y-115202036D01*
X146384709Y-114674791D01*
X146387358Y-114659026D01*
X146266217Y-114427000D01*
X144907000Y-114427000D01*
X144907000Y-114447000D01*
X144653000Y-114447000D01*
X144653000Y-114427000D01*
X144633000Y-114427000D01*
X144633000Y-114173000D01*
X144653000Y-114173000D01*
X144653000Y-114153000D01*
X144907000Y-114153000D01*
X144907000Y-114173000D01*
X146266217Y-114173000D01*
X146387358Y-113940974D01*
X146384709Y-113925209D01*
X146130732Y-113397964D01*
X145714931Y-113026461D01*
X146024415Y-112819670D01*
X146349271Y-112333489D01*
X146463345Y-111760000D01*
X146349271Y-111186511D01*
X146024415Y-110700330D01*
X145709634Y-110490000D01*
X146024415Y-110279670D01*
X146349271Y-109793489D01*
X146463345Y-109220000D01*
X146349271Y-108646511D01*
X146024415Y-108160330D01*
X145709634Y-107950000D01*
X146024415Y-107739670D01*
X146349271Y-107253489D01*
X146463345Y-106680000D01*
X146349271Y-106106511D01*
X146024415Y-105620330D01*
X146010087Y-105610757D01*
X146031317Y-105606762D01*
X146247441Y-105467690D01*
X146392431Y-105255490D01*
X146443440Y-105003600D01*
X146443440Y-103276400D01*
X146399162Y-103041083D01*
X146260090Y-102824959D01*
X146047890Y-102679969D01*
X145796000Y-102628960D01*
X143764000Y-102628960D01*
X143528683Y-102673238D01*
X143312559Y-102812310D01*
X143167569Y-103024510D01*
X143116560Y-103276400D01*
X143116560Y-104393804D01*
X142562940Y-104947424D01*
X142562940Y-102986000D01*
X142518662Y-102750683D01*
X142379590Y-102534559D01*
X142167390Y-102389569D01*
X141915500Y-102338560D01*
X140315500Y-102338560D01*
X140080183Y-102382838D01*
X139864059Y-102521910D01*
X139719069Y-102734110D01*
X139668060Y-102986000D01*
X139668060Y-106386000D01*
X139712338Y-106621317D01*
X139851410Y-106837441D01*
X140063610Y-106982431D01*
X140315500Y-107033440D01*
X141915500Y-107033440D01*
X141960600Y-107024954D01*
X141960600Y-108242164D01*
X140855764Y-109347000D01*
X139862940Y-109347000D01*
X139862940Y-108486000D01*
X139818662Y-108250683D01*
X139679590Y-108034559D01*
X139604500Y-107983252D01*
X139604500Y-107978000D01*
X139536829Y-107637794D01*
X139344118Y-107349382D01*
X139112918Y-107118182D01*
X139027354Y-107061010D01*
X138824506Y-106925471D01*
X138484300Y-106857800D01*
X135554959Y-106857800D01*
X135566941Y-106850090D01*
X135711931Y-106637890D01*
X135762940Y-106386000D01*
X135762940Y-102986000D01*
X135718662Y-102750683D01*
X135579590Y-102534559D01*
X135367390Y-102389569D01*
X135115500Y-102338560D01*
X133515500Y-102338560D01*
X133280183Y-102382838D01*
X133064059Y-102521910D01*
X132919069Y-102734110D01*
X132868060Y-102986000D01*
X132868060Y-106386000D01*
X132912338Y-106621317D01*
X133051410Y-106837441D01*
X133081206Y-106857800D01*
X131271940Y-106857800D01*
X131271940Y-105684500D01*
X131227662Y-105449183D01*
X131088590Y-105233059D01*
X130876390Y-105088069D01*
X130702095Y-105052773D01*
X130873157Y-104982092D01*
X131220871Y-104634985D01*
X131409285Y-104181234D01*
X131409714Y-103689921D01*
X131222092Y-103235843D01*
X130874985Y-102888129D01*
X130421234Y-102699715D01*
X129929921Y-102699286D01*
X129475843Y-102886908D01*
X129415004Y-102947640D01*
X129377662Y-102749183D01*
X129238590Y-102533059D01*
X129026390Y-102388069D01*
X128774500Y-102337060D01*
X126874500Y-102337060D01*
X126639183Y-102381338D01*
X126627521Y-102388842D01*
X126626390Y-102388069D01*
X126374500Y-102337060D01*
X124474500Y-102337060D01*
X124239183Y-102381338D01*
X124023059Y-102520410D01*
X123878069Y-102732610D01*
X123834502Y-102947750D01*
X123774985Y-102888129D01*
X123321234Y-102699715D01*
X122829921Y-102699286D01*
X122375843Y-102886908D01*
X122028129Y-103234015D01*
X121839715Y-103687766D01*
X121839286Y-104179079D01*
X121954328Y-104457500D01*
X121908512Y-104457500D01*
X120072756Y-102621744D01*
X119813185Y-102448304D01*
X119507000Y-102387400D01*
X116674900Y-102387400D01*
X116368715Y-102448304D01*
X116109144Y-102621744D01*
X115829360Y-102901528D01*
X115780090Y-102824959D01*
X115567890Y-102679969D01*
X115316000Y-102628960D01*
X113284000Y-102628960D01*
X113048683Y-102673238D01*
X112832559Y-102812310D01*
X112687569Y-103024510D01*
X112636560Y-103276400D01*
X112636560Y-105003600D01*
X112680838Y-105238917D01*
X112819910Y-105455041D01*
X113032110Y-105600031D01*
X113073439Y-105608400D01*
X113055585Y-105620330D01*
X112730729Y-106106511D01*
X112616655Y-106680000D01*
X108661200Y-106680000D01*
X108661200Y-103575049D01*
X108764945Y-103053484D01*
X109020710Y-102670708D01*
X109403484Y-102414945D01*
X109925049Y-102311200D01*
X149154951Y-102311200D01*
X149676516Y-102414945D01*
G36*
X129562540Y-115101500D02*
X129542540Y-115101500D01*
X129542540Y-115850750D01*
X129701290Y-116009500D01*
X129916850Y-116009500D01*
X130150239Y-115912827D01*
X130328867Y-115734198D01*
X130425540Y-115500809D01*
X130425540Y-115260250D01*
X130266792Y-115101502D01*
X130425540Y-115101502D01*
X130425540Y-115094770D01*
X131693585Y-116362816D01*
X131940796Y-116527997D01*
X132232400Y-116586000D01*
X135836724Y-116586000D01*
X135625783Y-116796941D01*
X135209479Y-116796578D01*
X134695837Y-117008810D01*
X134302511Y-117401450D01*
X134241654Y-117548011D01*
X134181950Y-117403517D01*
X133789310Y-117010191D01*
X133276040Y-116797063D01*
X132720279Y-116796578D01*
X132206637Y-117008810D01*
X131821055Y-117393720D01*
X130107632Y-117393720D01*
X129908434Y-117194522D01*
X129908469Y-117154337D01*
X129759907Y-116794788D01*
X129485059Y-116519460D01*
X129125770Y-116370270D01*
X128736737Y-116369931D01*
X128473285Y-116478787D01*
X128499960Y-116347060D01*
X128499960Y-115728759D01*
X128502213Y-115734198D01*
X128680841Y-115912827D01*
X128914230Y-116009500D01*
X129129790Y-116009500D01*
X129288540Y-115850750D01*
X129288540Y-115101500D01*
X129268540Y-115101500D01*
X129268540Y-115011200D01*
X129562540Y-115011200D01*
X129562540Y-115101500D01*
X129562540Y-115101500D01*
G37*
X129562540Y-115101500D02*
X129542540Y-115101500D01*
X129542540Y-115850750D01*
X129701290Y-116009500D01*
X129916850Y-116009500D01*
X130150239Y-115912827D01*
X130328867Y-115734198D01*
X130425540Y-115500809D01*
X130425540Y-115260250D01*
X130266792Y-115101502D01*
X130425540Y-115101502D01*
X130425540Y-115094770D01*
X131693585Y-116362816D01*
X131940796Y-116527997D01*
X132232400Y-116586000D01*
X135836724Y-116586000D01*
X135625783Y-116796941D01*
X135209479Y-116796578D01*
X134695837Y-117008810D01*
X134302511Y-117401450D01*
X134241654Y-117548011D01*
X134181950Y-117403517D01*
X133789310Y-117010191D01*
X133276040Y-116797063D01*
X132720279Y-116796578D01*
X132206637Y-117008810D01*
X131821055Y-117393720D01*
X130107632Y-117393720D01*
X129908434Y-117194522D01*
X129908469Y-117154337D01*
X129759907Y-116794788D01*
X129485059Y-116519460D01*
X129125770Y-116370270D01*
X128736737Y-116369931D01*
X128473285Y-116478787D01*
X128499960Y-116347060D01*
X128499960Y-115728759D01*
X128502213Y-115734198D01*
X128680841Y-115912827D01*
X128914230Y-116009500D01*
X129129790Y-116009500D01*
X129288540Y-115850750D01*
X129288540Y-115101500D01*
X129268540Y-115101500D01*
X129268540Y-115011200D01*
X129562540Y-115011200D01*
X129562540Y-115101500D01*
G36*
X124224531Y-115396161D02*
X124264004Y-115594605D01*
X124374698Y-115760269D01*
X124429185Y-115841815D01*
X124580560Y-115993190D01*
X124580560Y-116147951D01*
X124375690Y-116007969D01*
X124123800Y-115956960D01*
X123450346Y-115956960D01*
X123421198Y-115810421D01*
X123247758Y-115550850D01*
X122590648Y-114893740D01*
X122699782Y-114893740D01*
X122699782Y-114734992D01*
X122858530Y-114893740D01*
X123074090Y-114893740D01*
X123307479Y-114797067D01*
X123466458Y-114638088D01*
X124224531Y-115396161D01*
X124224531Y-115396161D01*
G37*
X124224531Y-115396161D02*
X124264004Y-115594605D01*
X124374698Y-115760269D01*
X124429185Y-115841815D01*
X124580560Y-115993190D01*
X124580560Y-116147951D01*
X124375690Y-116007969D01*
X124123800Y-115956960D01*
X123450346Y-115956960D01*
X123421198Y-115810421D01*
X123247758Y-115550850D01*
X122590648Y-114893740D01*
X122699782Y-114893740D01*
X122699782Y-114734992D01*
X122858530Y-114893740D01*
X123074090Y-114893740D01*
X123307479Y-114797067D01*
X123466458Y-114638088D01*
X124224531Y-115396161D01*
G36*
X126586477Y-113764640D02*
X126616804Y-113794967D01*
X126616804Y-113821191D01*
X126775554Y-113979941D01*
X126841755Y-113979941D01*
X126773524Y-114082055D01*
X126715520Y-114373660D01*
X126715520Y-115041503D01*
X126651079Y-115082970D01*
X126533977Y-115254355D01*
X126442090Y-115111559D01*
X126229890Y-114966569D01*
X125978000Y-114915560D01*
X125700871Y-114915560D01*
X125671996Y-114770395D01*
X125536306Y-114567321D01*
X125658101Y-114445739D01*
X125807291Y-114086450D01*
X125807435Y-113921512D01*
X125943474Y-113977861D01*
X125945554Y-113979941D01*
X126204054Y-113979941D01*
X126206134Y-113977861D01*
X126434502Y-113883268D01*
X126576710Y-113741061D01*
X126586477Y-113764640D01*
X126586477Y-113764640D01*
G37*
X126586477Y-113764640D02*
X126616804Y-113794967D01*
X126616804Y-113821191D01*
X126775554Y-113979941D01*
X126841755Y-113979941D01*
X126773524Y-114082055D01*
X126715520Y-114373660D01*
X126715520Y-115041503D01*
X126651079Y-115082970D01*
X126533977Y-115254355D01*
X126442090Y-115111559D01*
X126229890Y-114966569D01*
X125978000Y-114915560D01*
X125700871Y-114915560D01*
X125671996Y-114770395D01*
X125536306Y-114567321D01*
X125658101Y-114445739D01*
X125807291Y-114086450D01*
X125807435Y-113921512D01*
X125943474Y-113977861D01*
X125945554Y-113979941D01*
X126204054Y-113979941D01*
X126206134Y-113977861D01*
X126434502Y-113883268D01*
X126576710Y-113741061D01*
X126586477Y-113764640D01*
G36*
X132659120Y-112268671D02*
X132659120Y-112533383D01*
X132594679Y-112574850D01*
X132449689Y-112787050D01*
X132398680Y-113038940D01*
X132398680Y-113838940D01*
X132442958Y-114074257D01*
X132516740Y-114188918D01*
X132449689Y-114287050D01*
X132398680Y-114538940D01*
X132398680Y-114912649D01*
X131196415Y-113710385D01*
X131093537Y-113641644D01*
X130949205Y-113545204D01*
X130657600Y-113487200D01*
X130437980Y-113487200D01*
X130437980Y-113074500D01*
X130393702Y-112839183D01*
X130284190Y-112668996D01*
X130284872Y-112667997D01*
X130446141Y-112829267D01*
X130679530Y-112925940D01*
X130895090Y-112925940D01*
X131053840Y-112767190D01*
X131053840Y-112017940D01*
X131307840Y-112017940D01*
X131307840Y-112767190D01*
X131466590Y-112925940D01*
X131682150Y-112925940D01*
X131915539Y-112829267D01*
X132094167Y-112650638D01*
X132190840Y-112417249D01*
X132190840Y-112176690D01*
X132032090Y-112017940D01*
X131307840Y-112017940D01*
X131053840Y-112017940D01*
X131033840Y-112017940D01*
X131033840Y-111853980D01*
X132244430Y-111853980D01*
X132659120Y-112268671D01*
X132659120Y-112268671D01*
G37*
X132659120Y-112268671D02*
X132659120Y-112533383D01*
X132594679Y-112574850D01*
X132449689Y-112787050D01*
X132398680Y-113038940D01*
X132398680Y-113838940D01*
X132442958Y-114074257D01*
X132516740Y-114188918D01*
X132449689Y-114287050D01*
X132398680Y-114538940D01*
X132398680Y-114912649D01*
X131196415Y-113710385D01*
X131093537Y-113641644D01*
X130949205Y-113545204D01*
X130657600Y-113487200D01*
X130437980Y-113487200D01*
X130437980Y-113074500D01*
X130393702Y-112839183D01*
X130284190Y-112668996D01*
X130284872Y-112667997D01*
X130446141Y-112829267D01*
X130679530Y-112925940D01*
X130895090Y-112925940D01*
X131053840Y-112767190D01*
X131053840Y-112017940D01*
X131307840Y-112017940D01*
X131307840Y-112767190D01*
X131466590Y-112925940D01*
X131682150Y-112925940D01*
X131915539Y-112829267D01*
X132094167Y-112650638D01*
X132190840Y-112417249D01*
X132190840Y-112176690D01*
X132032090Y-112017940D01*
X131307840Y-112017940D01*
X131053840Y-112017940D01*
X131033840Y-112017940D01*
X131033840Y-111853980D01*
X132244430Y-111853980D01*
X132659120Y-112268671D01*
G36*
X135580500Y-109950250D02*
X135739250Y-110109000D01*
X136588500Y-110109000D01*
X136588500Y-110089000D01*
X136842500Y-110089000D01*
X136842500Y-110109000D01*
X136862500Y-110109000D01*
X136862500Y-110363000D01*
X136842500Y-110363000D01*
X136842500Y-110383000D01*
X136588500Y-110383000D01*
X136588500Y-110363000D01*
X135739250Y-110363000D01*
X135580500Y-110521750D01*
X135580500Y-112112310D01*
X135677173Y-112345699D01*
X135855802Y-112524327D01*
X136089191Y-112621000D01*
X136149975Y-112621000D01*
X136018473Y-112752501D01*
X135921800Y-112985890D01*
X135921800Y-113201450D01*
X136080550Y-113360200D01*
X136829800Y-113360200D01*
X136829800Y-113340200D01*
X137083800Y-113340200D01*
X137083800Y-113360200D01*
X137103800Y-113360200D01*
X137103800Y-113557964D01*
X137027564Y-113634200D01*
X136829800Y-113634200D01*
X136829800Y-113614200D01*
X136080550Y-113614200D01*
X135921800Y-113772950D01*
X135921800Y-113988510D01*
X136018473Y-114221899D01*
X136083875Y-114287301D01*
X135978967Y-114287301D01*
X135979069Y-114169837D01*
X135830507Y-113810288D01*
X135555659Y-113534960D01*
X135196370Y-113385770D01*
X134807337Y-113385431D01*
X134551111Y-113491301D01*
X134443560Y-113383749D01*
X134443560Y-113038940D01*
X134399282Y-112803623D01*
X134260210Y-112587499D01*
X134183120Y-112534826D01*
X134183120Y-111953040D01*
X134125116Y-111661435D01*
X134039726Y-111533640D01*
X133959936Y-111414225D01*
X133386932Y-110841222D01*
X133514930Y-110532970D01*
X133515269Y-110143937D01*
X133366707Y-109784388D01*
X133091859Y-109509060D01*
X132732570Y-109359870D01*
X132343537Y-109359531D01*
X131983988Y-109508093D01*
X131979916Y-109512158D01*
X131807730Y-109394509D01*
X131555840Y-109343500D01*
X130805840Y-109343500D01*
X130570523Y-109387778D01*
X130354399Y-109526850D01*
X130306866Y-109596416D01*
X130254630Y-109515239D01*
X130042430Y-109370249D01*
X130038236Y-109369400D01*
X130771836Y-108635800D01*
X135580500Y-108635800D01*
X135580500Y-109950250D01*
X135580500Y-109950250D01*
G37*
X135580500Y-109950250D02*
X135739250Y-110109000D01*
X136588500Y-110109000D01*
X136588500Y-110089000D01*
X136842500Y-110089000D01*
X136842500Y-110109000D01*
X136862500Y-110109000D01*
X136862500Y-110363000D01*
X136842500Y-110363000D01*
X136842500Y-110383000D01*
X136588500Y-110383000D01*
X136588500Y-110363000D01*
X135739250Y-110363000D01*
X135580500Y-110521750D01*
X135580500Y-112112310D01*
X135677173Y-112345699D01*
X135855802Y-112524327D01*
X136089191Y-112621000D01*
X136149975Y-112621000D01*
X136018473Y-112752501D01*
X135921800Y-112985890D01*
X135921800Y-113201450D01*
X136080550Y-113360200D01*
X136829800Y-113360200D01*
X136829800Y-113340200D01*
X137083800Y-113340200D01*
X137083800Y-113360200D01*
X137103800Y-113360200D01*
X137103800Y-113557964D01*
X137027564Y-113634200D01*
X136829800Y-113634200D01*
X136829800Y-113614200D01*
X136080550Y-113614200D01*
X135921800Y-113772950D01*
X135921800Y-113988510D01*
X136018473Y-114221899D01*
X136083875Y-114287301D01*
X135978967Y-114287301D01*
X135979069Y-114169837D01*
X135830507Y-113810288D01*
X135555659Y-113534960D01*
X135196370Y-113385770D01*
X134807337Y-113385431D01*
X134551111Y-113491301D01*
X134443560Y-113383749D01*
X134443560Y-113038940D01*
X134399282Y-112803623D01*
X134260210Y-112587499D01*
X134183120Y-112534826D01*
X134183120Y-111953040D01*
X134125116Y-111661435D01*
X134039726Y-111533640D01*
X133959936Y-111414225D01*
X133386932Y-110841222D01*
X133514930Y-110532970D01*
X133515269Y-110143937D01*
X133366707Y-109784388D01*
X133091859Y-109509060D01*
X132732570Y-109359870D01*
X132343537Y-109359531D01*
X131983988Y-109508093D01*
X131979916Y-109512158D01*
X131807730Y-109394509D01*
X131555840Y-109343500D01*
X130805840Y-109343500D01*
X130570523Y-109387778D01*
X130354399Y-109526850D01*
X130306866Y-109596416D01*
X130254630Y-109515239D01*
X130042430Y-109370249D01*
X130038236Y-109369400D01*
X130771836Y-108635800D01*
X135580500Y-108635800D01*
X135580500Y-109950250D01*
G36*
X122719780Y-113819032D02*
X122719780Y-113985740D01*
X122699780Y-113985740D01*
X122699780Y-114005740D01*
X122445780Y-114005740D01*
X122445780Y-113985740D01*
X122425780Y-113985740D01*
X122425780Y-113731740D01*
X122445780Y-113731740D01*
X122445780Y-113711740D01*
X122612675Y-113711740D01*
X122719780Y-113819032D01*
X122719780Y-113819032D01*
G37*
X122719780Y-113819032D02*
X122719780Y-113985740D01*
X122699780Y-113985740D01*
X122699780Y-114005740D01*
X122445780Y-114005740D01*
X122445780Y-113985740D01*
X122425780Y-113985740D01*
X122425780Y-113731740D01*
X122445780Y-113731740D01*
X122445780Y-113711740D01*
X122612675Y-113711740D01*
X122719780Y-113819032D01*
G36*
X121977060Y-107084500D02*
X122021338Y-107319817D01*
X122160410Y-107535941D01*
X122372610Y-107680931D01*
X122624500Y-107731940D01*
X124224500Y-107731940D01*
X124459817Y-107687662D01*
X124573796Y-107614318D01*
X124586173Y-107644198D01*
X124764801Y-107822827D01*
X124998190Y-107919500D01*
X125065750Y-107919500D01*
X125197498Y-107787752D01*
X125197498Y-107919500D01*
X125210926Y-107919500D01*
X125134702Y-107951073D01*
X124956073Y-108129701D01*
X124859400Y-108363090D01*
X124859400Y-108578650D01*
X125018150Y-108737400D01*
X125767400Y-108737400D01*
X125767400Y-108717400D01*
X126021400Y-108717400D01*
X126021400Y-108737400D01*
X126041400Y-108737400D01*
X126041400Y-108991400D01*
X126021400Y-108991400D01*
X126021400Y-109011400D01*
X125767400Y-109011400D01*
X125767400Y-108991400D01*
X125018150Y-108991400D01*
X124859400Y-109150150D01*
X124859400Y-109327788D01*
X124650989Y-109467044D01*
X124109048Y-110008985D01*
X124054850Y-110090099D01*
X123804176Y-109839425D01*
X123735428Y-109793489D01*
X123556966Y-109674244D01*
X123499377Y-109662789D01*
X123484451Y-109639594D01*
X123486107Y-109637938D01*
X123582780Y-109404549D01*
X123582780Y-109163990D01*
X123424030Y-109005240D01*
X122699780Y-109005240D01*
X122699780Y-109025240D01*
X122445780Y-109025240D01*
X122445780Y-109005240D01*
X121721530Y-109005240D01*
X121562780Y-109163990D01*
X121562780Y-109204468D01*
X121503440Y-109145128D01*
X121503440Y-108351931D01*
X121562780Y-108351931D01*
X121562780Y-108592490D01*
X121721530Y-108751240D01*
X122445780Y-108751240D01*
X122445780Y-108001990D01*
X122699780Y-108001990D01*
X122699780Y-108751240D01*
X123424030Y-108751240D01*
X123582780Y-108592490D01*
X123582780Y-108351931D01*
X123486107Y-108118542D01*
X123307479Y-107939913D01*
X123074090Y-107843240D01*
X122858530Y-107843240D01*
X122699780Y-108001990D01*
X122445780Y-108001990D01*
X122287030Y-107843240D01*
X122071470Y-107843240D01*
X121838081Y-107939913D01*
X121659453Y-108118542D01*
X121562780Y-108351931D01*
X121503440Y-108351931D01*
X121503440Y-107755009D01*
X121554831Y-107721940D01*
X121699821Y-107509740D01*
X121750830Y-107257850D01*
X121750830Y-106457750D01*
X121706552Y-106222433D01*
X121600549Y-106057700D01*
X121977060Y-106057700D01*
X121977060Y-107084500D01*
X121977060Y-107084500D01*
G37*
X121977060Y-107084500D02*
X122021338Y-107319817D01*
X122160410Y-107535941D01*
X122372610Y-107680931D01*
X122624500Y-107731940D01*
X124224500Y-107731940D01*
X124459817Y-107687662D01*
X124573796Y-107614318D01*
X124586173Y-107644198D01*
X124764801Y-107822827D01*
X124998190Y-107919500D01*
X125065750Y-107919500D01*
X125197498Y-107787752D01*
X125197498Y-107919500D01*
X125210926Y-107919500D01*
X125134702Y-107951073D01*
X124956073Y-108129701D01*
X124859400Y-108363090D01*
X124859400Y-108578650D01*
X125018150Y-108737400D01*
X125767400Y-108737400D01*
X125767400Y-108717400D01*
X126021400Y-108717400D01*
X126021400Y-108737400D01*
X126041400Y-108737400D01*
X126041400Y-108991400D01*
X126021400Y-108991400D01*
X126021400Y-109011400D01*
X125767400Y-109011400D01*
X125767400Y-108991400D01*
X125018150Y-108991400D01*
X124859400Y-109150150D01*
X124859400Y-109327788D01*
X124650989Y-109467044D01*
X124109048Y-110008985D01*
X124054850Y-110090099D01*
X123804176Y-109839425D01*
X123735428Y-109793489D01*
X123556966Y-109674244D01*
X123499377Y-109662789D01*
X123484451Y-109639594D01*
X123486107Y-109637938D01*
X123582780Y-109404549D01*
X123582780Y-109163990D01*
X123424030Y-109005240D01*
X122699780Y-109005240D01*
X122699780Y-109025240D01*
X122445780Y-109025240D01*
X122445780Y-109005240D01*
X121721530Y-109005240D01*
X121562780Y-109163990D01*
X121562780Y-109204468D01*
X121503440Y-109145128D01*
X121503440Y-108351931D01*
X121562780Y-108351931D01*
X121562780Y-108592490D01*
X121721530Y-108751240D01*
X122445780Y-108751240D01*
X122445780Y-108001990D01*
X122699780Y-108001990D01*
X122699780Y-108751240D01*
X123424030Y-108751240D01*
X123582780Y-108592490D01*
X123582780Y-108351931D01*
X123486107Y-108118542D01*
X123307479Y-107939913D01*
X123074090Y-107843240D01*
X122858530Y-107843240D01*
X122699780Y-108001990D01*
X122445780Y-108001990D01*
X122287030Y-107843240D01*
X122071470Y-107843240D01*
X121838081Y-107939913D01*
X121659453Y-108118542D01*
X121562780Y-108351931D01*
X121503440Y-108351931D01*
X121503440Y-107755009D01*
X121554831Y-107721940D01*
X121699821Y-107509740D01*
X121750830Y-107257850D01*
X121750830Y-106457750D01*
X121706552Y-106222433D01*
X121600549Y-106057700D01*
X121977060Y-106057700D01*
X121977060Y-107084500D01*
G36*
X119171738Y-104872750D02*
X118990110Y-104872750D01*
X118831360Y-105031500D01*
X118831360Y-105780800D01*
X119580660Y-105780800D01*
X119739410Y-105622050D01*
X119739410Y-105440422D01*
X119903240Y-105604252D01*
X119903240Y-105960591D01*
X119851849Y-105993660D01*
X119725069Y-106179209D01*
X119580660Y-106034800D01*
X118831360Y-106034800D01*
X118831360Y-106054800D01*
X118577360Y-106054800D01*
X118577360Y-106034800D01*
X117828060Y-106034800D01*
X117669310Y-106193550D01*
X117669310Y-106434159D01*
X117765983Y-106667548D01*
X117944611Y-106846177D01*
X117980962Y-106861234D01*
X117852869Y-106943660D01*
X117707879Y-107155860D01*
X117656870Y-107407750D01*
X117656870Y-108207850D01*
X117701148Y-108443167D01*
X117717256Y-108468200D01*
X115750127Y-108468200D01*
X115544415Y-108160330D01*
X115229634Y-107950000D01*
X115544415Y-107739670D01*
X115728838Y-107463662D01*
X115952385Y-107419196D01*
X116211956Y-107245756D01*
X117752486Y-105705226D01*
X117828060Y-105780800D01*
X118577360Y-105780800D01*
X118577360Y-105031500D01*
X118501786Y-104955926D01*
X118644612Y-104813100D01*
X119112088Y-104813100D01*
X119171738Y-104872750D01*
X119171738Y-104872750D01*
G37*
X119171738Y-104872750D02*
X118990110Y-104872750D01*
X118831360Y-105031500D01*
X118831360Y-105780800D01*
X119580660Y-105780800D01*
X119739410Y-105622050D01*
X119739410Y-105440422D01*
X119903240Y-105604252D01*
X119903240Y-105960591D01*
X119851849Y-105993660D01*
X119725069Y-106179209D01*
X119580660Y-106034800D01*
X118831360Y-106034800D01*
X118831360Y-106054800D01*
X118577360Y-106054800D01*
X118577360Y-106034800D01*
X117828060Y-106034800D01*
X117669310Y-106193550D01*
X117669310Y-106434159D01*
X117765983Y-106667548D01*
X117944611Y-106846177D01*
X117980962Y-106861234D01*
X117852869Y-106943660D01*
X117707879Y-107155860D01*
X117656870Y-107407750D01*
X117656870Y-108207850D01*
X117701148Y-108443167D01*
X117717256Y-108468200D01*
X115750127Y-108468200D01*
X115544415Y-108160330D01*
X115229634Y-107950000D01*
X115544415Y-107739670D01*
X115728838Y-107463662D01*
X115952385Y-107419196D01*
X116211956Y-107245756D01*
X117752486Y-105705226D01*
X117828060Y-105780800D01*
X118577360Y-105780800D01*
X118577360Y-105031500D01*
X118501786Y-104955926D01*
X118644612Y-104813100D01*
X119112088Y-104813100D01*
X119171738Y-104872750D01*
D29*
X134923955Y-113528836D03*
X118491000Y-104775000D03*
X117665500Y-106235500D03*
X127508000Y-120396000D03*
X124104712Y-115570000D03*
X135432800Y-110236000D03*
X125324500Y-107848400D03*
X124409200Y-108966000D03*
X128539240Y-115867180D03*
X122572780Y-107911900D03*
X132280660Y-111927640D03*
X126098300Y-112179100D03*
X126098300Y-113362740D03*
X126098300Y-110944660D03*
X135813800Y-113512600D03*
X123439454Y-113155795D03*
X132537200Y-110337600D03*
X124829561Y-113891080D03*
X123540462Y-112323691D03*
X122021600Y-116433600D03*
X128930400Y-117348000D03*
X123428900Y-111463284D03*
X135001000Y-114363500D03*
X139446000Y-114935000D03*
D30*
X114300000Y-104140000D03*
X114300000Y-106680000D03*
X114300000Y-109220000D03*
X114300000Y-111760000D03*
X114300000Y-114300000D03*
X114300000Y-116840000D03*
X114300000Y-119380000D03*
X130174500Y-103934500D03*
X123074500Y-103934500D03*
X144780000Y-104140000D03*
X144780000Y-106680000D03*
X144780000Y-109220000D03*
X144780000Y-111760000D03*
X144780000Y-114300000D03*
X144780000Y-116840000D03*
X144780000Y-119380000D03*
X119555260Y-113350040D03*
X119555260Y-115890040D03*
X119555260Y-118430040D03*
X135486140Y-118193820D03*
X137975340Y-118193820D03*
X132996940Y-118193820D03*
M02*
