%TF.GenerationSoftware,KiCad,Pcbnew,4.0.5-e0-6337~49~ubuntu16.04.1*%
%TF.CreationDate,2017-07-20T08:52:04-07:00*%
%TF.ProjectId,stns01-battery-mgmt-breakout,73746E7330312D626174746572792D6D,1.0*%
%TF.FileFunction,Soldermask,Bot*%
%FSLAX46Y46*%
G04 Gerber Fmt 4.6, Leading zero omitted, Abs format (unit mm)*
G04 Created by KiCad (PCBNEW 4.0.5-e0-6337~49~ubuntu16.04.1) date Thu Jul 20 08:52:04 2017*
%MOMM*%
%LPD*%
G01*
G04 APERTURE LIST*
%ADD10C,0.350000*%
G04 APERTURE END LIST*
D10*
G36*
X106018749Y-64750277D02*
X106018754Y-64750278D01*
X106020807Y-64750292D01*
X106203080Y-64770737D01*
X106377912Y-64826197D01*
X106538641Y-64914558D01*
X106679146Y-65032456D01*
X106794076Y-65175400D01*
X106879052Y-65337945D01*
X106930839Y-65513899D01*
X106930843Y-65513940D01*
X106930844Y-65513944D01*
X106947463Y-65696558D01*
X106929648Y-65866056D01*
X106928290Y-65878973D01*
X106874052Y-66054187D01*
X106786815Y-66215529D01*
X106669900Y-66356855D01*
X106527762Y-66472779D01*
X106365815Y-66558888D01*
X106190226Y-66611902D01*
X106007685Y-66629800D01*
X105692283Y-66629800D01*
X105681251Y-66629723D01*
X105681246Y-66629722D01*
X105679193Y-66629708D01*
X105496920Y-66609263D01*
X105322088Y-66553803D01*
X105161359Y-66465442D01*
X105020854Y-66347544D01*
X104905924Y-66204600D01*
X104820948Y-66042055D01*
X104769161Y-65866101D01*
X104769157Y-65866060D01*
X104769156Y-65866056D01*
X104752537Y-65683442D01*
X104771705Y-65501074D01*
X104771710Y-65501027D01*
X104825948Y-65325813D01*
X104913185Y-65164471D01*
X105030100Y-65023145D01*
X105172238Y-64907221D01*
X105334185Y-64821112D01*
X105509774Y-64768098D01*
X105692315Y-64750200D01*
X106007717Y-64750200D01*
X106018749Y-64750277D01*
X106018749Y-64750277D01*
G37*
G36*
X106018749Y-62210277D02*
X106018754Y-62210278D01*
X106020807Y-62210292D01*
X106203080Y-62230737D01*
X106377912Y-62286197D01*
X106538641Y-62374558D01*
X106679146Y-62492456D01*
X106794076Y-62635400D01*
X106879052Y-62797945D01*
X106930839Y-62973899D01*
X106930843Y-62973940D01*
X106930844Y-62973944D01*
X106947463Y-63156558D01*
X106929648Y-63326056D01*
X106928290Y-63338973D01*
X106874052Y-63514187D01*
X106786815Y-63675529D01*
X106669900Y-63816855D01*
X106527762Y-63932779D01*
X106365815Y-64018888D01*
X106190226Y-64071902D01*
X106007685Y-64089800D01*
X105692283Y-64089800D01*
X105681251Y-64089723D01*
X105681246Y-64089722D01*
X105679193Y-64089708D01*
X105496920Y-64069263D01*
X105322088Y-64013803D01*
X105161359Y-63925442D01*
X105020854Y-63807544D01*
X104905924Y-63664600D01*
X104820948Y-63502055D01*
X104769161Y-63326101D01*
X104769157Y-63326060D01*
X104769156Y-63326056D01*
X104752537Y-63143442D01*
X104771705Y-62961074D01*
X104771710Y-62961027D01*
X104825948Y-62785813D01*
X104913185Y-62624471D01*
X105030100Y-62483145D01*
X105172238Y-62367221D01*
X105334185Y-62281112D01*
X105509774Y-62228098D01*
X105692315Y-62210200D01*
X106007717Y-62210200D01*
X106018749Y-62210277D01*
X106018749Y-62210277D01*
G37*
G36*
X106018749Y-59670277D02*
X106018754Y-59670278D01*
X106020807Y-59670292D01*
X106203080Y-59690737D01*
X106377912Y-59746197D01*
X106538641Y-59834558D01*
X106679146Y-59952456D01*
X106794076Y-60095400D01*
X106879052Y-60257945D01*
X106930839Y-60433899D01*
X106930843Y-60433940D01*
X106930844Y-60433944D01*
X106947463Y-60616558D01*
X106929648Y-60786056D01*
X106928290Y-60798973D01*
X106874052Y-60974187D01*
X106786815Y-61135529D01*
X106669900Y-61276855D01*
X106527762Y-61392779D01*
X106365815Y-61478888D01*
X106190226Y-61531902D01*
X106007685Y-61549800D01*
X105692283Y-61549800D01*
X105681251Y-61549723D01*
X105681246Y-61549722D01*
X105679193Y-61549708D01*
X105496920Y-61529263D01*
X105322088Y-61473803D01*
X105161359Y-61385442D01*
X105020854Y-61267544D01*
X104905924Y-61124600D01*
X104820948Y-60962055D01*
X104769161Y-60786101D01*
X104769157Y-60786060D01*
X104769156Y-60786056D01*
X104752537Y-60603442D01*
X104771705Y-60421074D01*
X104771710Y-60421027D01*
X104825948Y-60245813D01*
X104913185Y-60084471D01*
X105030100Y-59943145D01*
X105172238Y-59827221D01*
X105334185Y-59741112D01*
X105509774Y-59688098D01*
X105692315Y-59670200D01*
X106007717Y-59670200D01*
X106018749Y-59670277D01*
X106018749Y-59670277D01*
G37*
G36*
X106018749Y-57130277D02*
X106018754Y-57130278D01*
X106020807Y-57130292D01*
X106203080Y-57150737D01*
X106377912Y-57206197D01*
X106538641Y-57294558D01*
X106679146Y-57412456D01*
X106794076Y-57555400D01*
X106879052Y-57717945D01*
X106930839Y-57893899D01*
X106930843Y-57893940D01*
X106930844Y-57893944D01*
X106947463Y-58076558D01*
X106929648Y-58246056D01*
X106928290Y-58258973D01*
X106874052Y-58434187D01*
X106786815Y-58595529D01*
X106669900Y-58736855D01*
X106527762Y-58852779D01*
X106365815Y-58938888D01*
X106190226Y-58991902D01*
X106007685Y-59009800D01*
X105692283Y-59009800D01*
X105681251Y-59009723D01*
X105681246Y-59009722D01*
X105679193Y-59009708D01*
X105496920Y-58989263D01*
X105322088Y-58933803D01*
X105161359Y-58845442D01*
X105020854Y-58727544D01*
X104905924Y-58584600D01*
X104820948Y-58422055D01*
X104769161Y-58246101D01*
X104769157Y-58246060D01*
X104769156Y-58246056D01*
X104752537Y-58063442D01*
X104771705Y-57881074D01*
X104771710Y-57881027D01*
X104825948Y-57705813D01*
X104913185Y-57544471D01*
X105030100Y-57403145D01*
X105172238Y-57287221D01*
X105334185Y-57201112D01*
X105509774Y-57148098D01*
X105692315Y-57130200D01*
X106007717Y-57130200D01*
X106018749Y-57130277D01*
X106018749Y-57130277D01*
G37*
G36*
X106018749Y-54590277D02*
X106018754Y-54590278D01*
X106020807Y-54590292D01*
X106203080Y-54610737D01*
X106377912Y-54666197D01*
X106538641Y-54754558D01*
X106679146Y-54872456D01*
X106794076Y-55015400D01*
X106879052Y-55177945D01*
X106930839Y-55353899D01*
X106930843Y-55353940D01*
X106930844Y-55353944D01*
X106947463Y-55536558D01*
X106929648Y-55706056D01*
X106928290Y-55718973D01*
X106874052Y-55894187D01*
X106786815Y-56055529D01*
X106669900Y-56196855D01*
X106527762Y-56312779D01*
X106365815Y-56398888D01*
X106190226Y-56451902D01*
X106007685Y-56469800D01*
X105692283Y-56469800D01*
X105681251Y-56469723D01*
X105681246Y-56469722D01*
X105679193Y-56469708D01*
X105496920Y-56449263D01*
X105322088Y-56393803D01*
X105161359Y-56305442D01*
X105020854Y-56187544D01*
X104905924Y-56044600D01*
X104820948Y-55882055D01*
X104769161Y-55706101D01*
X104769157Y-55706060D01*
X104769156Y-55706056D01*
X104752537Y-55523442D01*
X104771705Y-55341074D01*
X104771710Y-55341027D01*
X104825948Y-55165813D01*
X104913185Y-55004471D01*
X105030100Y-54863145D01*
X105172238Y-54747221D01*
X105334185Y-54661112D01*
X105509774Y-54608098D01*
X105692315Y-54590200D01*
X106007717Y-54590200D01*
X106018749Y-54590277D01*
X106018749Y-54590277D01*
G37*
G36*
X106018749Y-52050277D02*
X106018754Y-52050278D01*
X106020807Y-52050292D01*
X106203080Y-52070737D01*
X106377912Y-52126197D01*
X106538641Y-52214558D01*
X106679146Y-52332456D01*
X106794076Y-52475400D01*
X106879052Y-52637945D01*
X106930839Y-52813899D01*
X106930843Y-52813940D01*
X106930844Y-52813944D01*
X106947463Y-52996558D01*
X106929648Y-53166056D01*
X106928290Y-53178973D01*
X106874052Y-53354187D01*
X106786815Y-53515529D01*
X106669900Y-53656855D01*
X106527762Y-53772779D01*
X106365815Y-53858888D01*
X106190226Y-53911902D01*
X106007685Y-53929800D01*
X105692283Y-53929800D01*
X105681251Y-53929723D01*
X105681246Y-53929722D01*
X105679193Y-53929708D01*
X105496920Y-53909263D01*
X105322088Y-53853803D01*
X105161359Y-53765442D01*
X105020854Y-53647544D01*
X104905924Y-53504600D01*
X104820948Y-53342055D01*
X104769161Y-53166101D01*
X104769157Y-53166060D01*
X104769156Y-53166056D01*
X104752537Y-52983442D01*
X104771705Y-52801074D01*
X104771710Y-52801027D01*
X104825948Y-52625813D01*
X104913185Y-52464471D01*
X105030100Y-52323145D01*
X105172238Y-52207221D01*
X105334185Y-52121112D01*
X105509774Y-52068098D01*
X105692315Y-52050200D01*
X106007717Y-52050200D01*
X106018749Y-52050277D01*
X106018749Y-52050277D01*
G37*
G36*
X106942200Y-51389800D02*
X104757800Y-51389800D01*
X104757800Y-49510200D01*
X106942200Y-49510200D01*
X106942200Y-51389800D01*
X106942200Y-51389800D01*
G37*
G36*
X75280029Y-49839449D02*
X75409923Y-49866113D01*
X75532178Y-49917504D01*
X75642116Y-49991658D01*
X75735553Y-50085750D01*
X75808942Y-50196209D01*
X75859476Y-50318813D01*
X75885163Y-50448542D01*
X75885163Y-50448557D01*
X75885230Y-50448896D01*
X75883115Y-50600361D01*
X75883039Y-50600695D01*
X75883039Y-50600708D01*
X75853737Y-50729679D01*
X75799802Y-50850820D01*
X75723360Y-50959183D01*
X75627327Y-51050634D01*
X75515361Y-51121690D01*
X75391723Y-51169646D01*
X75261132Y-51192673D01*
X75128548Y-51189895D01*
X74999032Y-51161420D01*
X74877511Y-51108328D01*
X74768622Y-51032648D01*
X74676503Y-50937257D01*
X74604666Y-50825787D01*
X74555847Y-50702485D01*
X74531910Y-50572060D01*
X74533761Y-50439462D01*
X74561333Y-50309747D01*
X74613572Y-50187862D01*
X74688494Y-50078443D01*
X74783242Y-49985659D01*
X74894200Y-49913049D01*
X75017158Y-49863371D01*
X75147416Y-49838524D01*
X75280029Y-49839449D01*
X75280029Y-49839449D01*
G37*
G36*
X82380029Y-49839449D02*
X82509923Y-49866113D01*
X82632178Y-49917504D01*
X82742116Y-49991658D01*
X82835553Y-50085750D01*
X82908942Y-50196209D01*
X82959476Y-50318813D01*
X82985163Y-50448542D01*
X82985163Y-50448557D01*
X82985230Y-50448896D01*
X82983115Y-50600361D01*
X82983039Y-50600695D01*
X82983039Y-50600708D01*
X82953737Y-50729679D01*
X82899802Y-50850820D01*
X82823360Y-50959183D01*
X82727327Y-51050634D01*
X82615361Y-51121690D01*
X82491723Y-51169646D01*
X82361132Y-51192673D01*
X82228548Y-51189895D01*
X82099032Y-51161420D01*
X81977511Y-51108328D01*
X81868622Y-51032648D01*
X81776503Y-50937257D01*
X81704666Y-50825787D01*
X81655847Y-50702485D01*
X81631910Y-50572060D01*
X81633761Y-50439462D01*
X81661333Y-50309747D01*
X81713572Y-50187862D01*
X81788494Y-50078443D01*
X81883242Y-49985659D01*
X81994200Y-49913049D01*
X82117158Y-49863371D01*
X82247416Y-49838524D01*
X82380029Y-49839449D01*
X82380029Y-49839449D01*
G37*
G36*
X91617749Y-46869678D02*
X91617754Y-46869679D01*
X91619807Y-46869693D01*
X91802080Y-46890138D01*
X91976912Y-46945598D01*
X92137641Y-47033959D01*
X92278146Y-47151857D01*
X92393076Y-47294801D01*
X92478052Y-47457346D01*
X92529839Y-47633300D01*
X92529843Y-47633341D01*
X92529844Y-47633345D01*
X92546463Y-47815959D01*
X92528648Y-47985457D01*
X92527290Y-47998374D01*
X92473052Y-48173588D01*
X92385815Y-48334930D01*
X92268900Y-48476256D01*
X92126762Y-48592180D01*
X91964815Y-48678289D01*
X91789226Y-48731303D01*
X91606685Y-48749201D01*
X91291283Y-48749201D01*
X91280251Y-48749124D01*
X91280246Y-48749123D01*
X91278193Y-48749109D01*
X91095920Y-48728664D01*
X90921088Y-48673204D01*
X90760359Y-48584843D01*
X90619854Y-48466945D01*
X90504924Y-48324001D01*
X90419948Y-48161456D01*
X90368161Y-47985502D01*
X90368157Y-47985461D01*
X90368156Y-47985457D01*
X90351537Y-47802843D01*
X90370705Y-47620475D01*
X90370710Y-47620428D01*
X90424948Y-47445214D01*
X90512185Y-47283872D01*
X90629100Y-47142546D01*
X90771238Y-47026622D01*
X90933185Y-46940513D01*
X91108774Y-46887499D01*
X91291315Y-46869601D01*
X91606717Y-46869601D01*
X91617749Y-46869678D01*
X91617749Y-46869678D01*
G37*
G36*
X91617749Y-44329678D02*
X91617754Y-44329679D01*
X91619807Y-44329693D01*
X91802080Y-44350138D01*
X91976912Y-44405598D01*
X92137641Y-44493959D01*
X92278146Y-44611857D01*
X92393076Y-44754801D01*
X92478052Y-44917346D01*
X92529839Y-45093300D01*
X92529843Y-45093341D01*
X92529844Y-45093345D01*
X92546463Y-45275959D01*
X92528648Y-45445457D01*
X92527290Y-45458374D01*
X92473052Y-45633588D01*
X92385815Y-45794930D01*
X92268900Y-45936256D01*
X92126762Y-46052180D01*
X91964815Y-46138289D01*
X91789226Y-46191303D01*
X91606685Y-46209201D01*
X91291283Y-46209201D01*
X91280251Y-46209124D01*
X91280246Y-46209123D01*
X91278193Y-46209109D01*
X91095920Y-46188664D01*
X90921088Y-46133204D01*
X90760359Y-46044843D01*
X90619854Y-45926945D01*
X90504924Y-45784001D01*
X90419948Y-45621456D01*
X90368161Y-45445502D01*
X90368157Y-45445461D01*
X90368156Y-45445457D01*
X90351537Y-45262843D01*
X90370705Y-45080475D01*
X90370710Y-45080428D01*
X90424948Y-44905214D01*
X90512185Y-44743872D01*
X90629100Y-44602546D01*
X90771238Y-44486622D01*
X90933185Y-44400513D01*
X91108774Y-44347499D01*
X91291315Y-44329601D01*
X91606717Y-44329601D01*
X91617749Y-44329678D01*
X91617749Y-44329678D01*
G37*
G36*
X72451564Y-42386678D02*
X72612579Y-42419730D01*
X72764122Y-42483432D01*
X72900394Y-42575350D01*
X73016227Y-42691993D01*
X73107189Y-42828903D01*
X73169831Y-42980884D01*
X73201689Y-43141777D01*
X73201689Y-43141787D01*
X73201757Y-43142131D01*
X73199136Y-43329884D01*
X73199058Y-43330227D01*
X73199058Y-43330230D01*
X73162718Y-43490182D01*
X73095861Y-43640346D01*
X73001105Y-43774668D01*
X72882066Y-43888029D01*
X72743274Y-43976109D01*
X72590020Y-44035552D01*
X72428140Y-44064096D01*
X72263794Y-44060653D01*
X72103249Y-44025356D01*
X71952615Y-43959545D01*
X71817639Y-43865734D01*
X71703451Y-43747489D01*
X71614404Y-43609315D01*
X71553890Y-43456474D01*
X71524218Y-43294802D01*
X71526512Y-43130437D01*
X71560690Y-42969647D01*
X71625444Y-42818561D01*
X71718315Y-42682928D01*
X71835758Y-42567919D01*
X71973307Y-42477909D01*
X72125718Y-42416331D01*
X72287183Y-42385530D01*
X72451564Y-42386678D01*
X72451564Y-42386678D01*
G37*
G36*
X67473164Y-42386678D02*
X67634179Y-42419730D01*
X67785722Y-42483432D01*
X67921994Y-42575350D01*
X68037827Y-42691993D01*
X68128789Y-42828903D01*
X68191431Y-42980884D01*
X68223289Y-43141777D01*
X68223289Y-43141787D01*
X68223357Y-43142131D01*
X68220736Y-43329884D01*
X68220658Y-43330227D01*
X68220658Y-43330230D01*
X68184318Y-43490182D01*
X68117461Y-43640346D01*
X68022705Y-43774668D01*
X67903666Y-43888029D01*
X67764874Y-43976109D01*
X67611620Y-44035552D01*
X67449740Y-44064096D01*
X67285394Y-44060653D01*
X67124849Y-44025356D01*
X66974215Y-43959545D01*
X66839239Y-43865734D01*
X66725051Y-43747489D01*
X66636004Y-43609315D01*
X66575490Y-43456474D01*
X66545818Y-43294802D01*
X66548112Y-43130437D01*
X66582290Y-42969647D01*
X66647044Y-42818561D01*
X66739915Y-42682928D01*
X66857358Y-42567919D01*
X66994907Y-42477909D01*
X67147318Y-42416331D01*
X67308783Y-42385530D01*
X67473164Y-42386678D01*
X67473164Y-42386678D01*
G37*
G36*
X69962364Y-42386678D02*
X70123379Y-42419730D01*
X70274922Y-42483432D01*
X70411194Y-42575350D01*
X70527027Y-42691993D01*
X70617989Y-42828903D01*
X70680631Y-42980884D01*
X70712489Y-43141777D01*
X70712489Y-43141787D01*
X70712557Y-43142131D01*
X70709936Y-43329884D01*
X70709858Y-43330227D01*
X70709858Y-43330230D01*
X70673518Y-43490182D01*
X70606661Y-43640346D01*
X70511905Y-43774668D01*
X70392866Y-43888029D01*
X70254074Y-43976109D01*
X70100820Y-44035552D01*
X69938940Y-44064096D01*
X69774594Y-44060653D01*
X69614049Y-44025356D01*
X69463415Y-43959545D01*
X69328439Y-43865734D01*
X69214251Y-43747489D01*
X69125204Y-43609315D01*
X69064690Y-43456474D01*
X69035018Y-43294802D01*
X69037312Y-43130437D01*
X69071490Y-42969647D01*
X69136244Y-42818561D01*
X69229115Y-42682928D01*
X69346558Y-42567919D01*
X69484107Y-42477909D01*
X69636518Y-42416331D01*
X69797983Y-42385530D01*
X69962364Y-42386678D01*
X69962364Y-42386678D01*
G37*
G36*
X92541200Y-43669201D02*
X90356800Y-43669201D01*
X90356800Y-41789601D01*
X92541200Y-41789601D01*
X92541200Y-43669201D01*
X92541200Y-43669201D01*
G37*
G36*
X89138926Y-22571705D02*
X89138973Y-22571710D01*
X89314187Y-22625948D01*
X89475529Y-22713185D01*
X89616855Y-22830100D01*
X89732779Y-22972238D01*
X89818888Y-23134185D01*
X89871902Y-23309774D01*
X89889800Y-23492315D01*
X89889800Y-23807717D01*
X89889723Y-23818749D01*
X89889722Y-23818754D01*
X89889708Y-23820807D01*
X89869263Y-24003080D01*
X89813803Y-24177912D01*
X89725442Y-24338641D01*
X89607544Y-24479146D01*
X89464600Y-24594076D01*
X89302055Y-24679052D01*
X89126101Y-24730839D01*
X89126060Y-24730843D01*
X89126056Y-24730844D01*
X88943442Y-24747463D01*
X88761074Y-24728295D01*
X88761027Y-24728290D01*
X88585813Y-24674052D01*
X88424471Y-24586815D01*
X88283145Y-24469900D01*
X88167221Y-24327762D01*
X88081112Y-24165815D01*
X88028098Y-23990226D01*
X88010200Y-23807685D01*
X88010200Y-23492283D01*
X88010277Y-23481251D01*
X88010278Y-23481246D01*
X88010292Y-23479193D01*
X88030737Y-23296920D01*
X88086197Y-23122088D01*
X88174558Y-22961359D01*
X88292456Y-22820854D01*
X88435400Y-22705924D01*
X88597945Y-22620948D01*
X88773899Y-22569161D01*
X88773940Y-22569157D01*
X88773944Y-22569156D01*
X88956558Y-22552537D01*
X89138926Y-22571705D01*
X89138926Y-22571705D01*
G37*
G36*
X78978926Y-22571705D02*
X78978973Y-22571710D01*
X79154187Y-22625948D01*
X79315529Y-22713185D01*
X79456855Y-22830100D01*
X79572779Y-22972238D01*
X79658888Y-23134185D01*
X79711902Y-23309774D01*
X79729800Y-23492315D01*
X79729800Y-23807717D01*
X79729723Y-23818749D01*
X79729722Y-23818754D01*
X79729708Y-23820807D01*
X79709263Y-24003080D01*
X79653803Y-24177912D01*
X79565442Y-24338641D01*
X79447544Y-24479146D01*
X79304600Y-24594076D01*
X79142055Y-24679052D01*
X78966101Y-24730839D01*
X78966060Y-24730843D01*
X78966056Y-24730844D01*
X78783442Y-24747463D01*
X78601074Y-24728295D01*
X78601027Y-24728290D01*
X78425813Y-24674052D01*
X78264471Y-24586815D01*
X78123145Y-24469900D01*
X78007221Y-24327762D01*
X77921112Y-24165815D01*
X77868098Y-23990226D01*
X77850200Y-23807685D01*
X77850200Y-23492283D01*
X77850277Y-23481251D01*
X77850278Y-23481246D01*
X77850292Y-23479193D01*
X77870737Y-23296920D01*
X77926197Y-23122088D01*
X78014558Y-22961359D01*
X78132456Y-22820854D01*
X78275400Y-22705924D01*
X78437945Y-22620948D01*
X78613899Y-22569161D01*
X78613940Y-22569157D01*
X78613944Y-22569156D01*
X78796558Y-22552537D01*
X78978926Y-22571705D01*
X78978926Y-22571705D01*
G37*
G36*
X81518926Y-22571705D02*
X81518973Y-22571710D01*
X81694187Y-22625948D01*
X81855529Y-22713185D01*
X81996855Y-22830100D01*
X82112779Y-22972238D01*
X82198888Y-23134185D01*
X82251902Y-23309774D01*
X82269800Y-23492315D01*
X82269800Y-23807717D01*
X82269723Y-23818749D01*
X82269722Y-23818754D01*
X82269708Y-23820807D01*
X82249263Y-24003080D01*
X82193803Y-24177912D01*
X82105442Y-24338641D01*
X81987544Y-24479146D01*
X81844600Y-24594076D01*
X81682055Y-24679052D01*
X81506101Y-24730839D01*
X81506060Y-24730843D01*
X81506056Y-24730844D01*
X81323442Y-24747463D01*
X81141074Y-24728295D01*
X81141027Y-24728290D01*
X80965813Y-24674052D01*
X80804471Y-24586815D01*
X80663145Y-24469900D01*
X80547221Y-24327762D01*
X80461112Y-24165815D01*
X80408098Y-23990226D01*
X80390200Y-23807685D01*
X80390200Y-23492283D01*
X80390277Y-23481251D01*
X80390278Y-23481246D01*
X80390292Y-23479193D01*
X80410737Y-23296920D01*
X80466197Y-23122088D01*
X80554558Y-22961359D01*
X80672456Y-22820854D01*
X80815400Y-22705924D01*
X80977945Y-22620948D01*
X81153899Y-22569161D01*
X81153940Y-22569157D01*
X81153944Y-22569156D01*
X81336558Y-22552537D01*
X81518926Y-22571705D01*
X81518926Y-22571705D01*
G37*
G36*
X84058926Y-22571705D02*
X84058973Y-22571710D01*
X84234187Y-22625948D01*
X84395529Y-22713185D01*
X84536855Y-22830100D01*
X84652779Y-22972238D01*
X84738888Y-23134185D01*
X84791902Y-23309774D01*
X84809800Y-23492315D01*
X84809800Y-23807717D01*
X84809723Y-23818749D01*
X84809722Y-23818754D01*
X84809708Y-23820807D01*
X84789263Y-24003080D01*
X84733803Y-24177912D01*
X84645442Y-24338641D01*
X84527544Y-24479146D01*
X84384600Y-24594076D01*
X84222055Y-24679052D01*
X84046101Y-24730839D01*
X84046060Y-24730843D01*
X84046056Y-24730844D01*
X83863442Y-24747463D01*
X83681074Y-24728295D01*
X83681027Y-24728290D01*
X83505813Y-24674052D01*
X83344471Y-24586815D01*
X83203145Y-24469900D01*
X83087221Y-24327762D01*
X83001112Y-24165815D01*
X82948098Y-23990226D01*
X82930200Y-23807685D01*
X82930200Y-23492283D01*
X82930277Y-23481251D01*
X82930278Y-23481246D01*
X82930292Y-23479193D01*
X82950737Y-23296920D01*
X83006197Y-23122088D01*
X83094558Y-22961359D01*
X83212456Y-22820854D01*
X83355400Y-22705924D01*
X83517945Y-22620948D01*
X83693899Y-22569161D01*
X83693940Y-22569157D01*
X83693944Y-22569156D01*
X83876558Y-22552537D01*
X84058926Y-22571705D01*
X84058926Y-22571705D01*
G37*
G36*
X91678926Y-22571705D02*
X91678973Y-22571710D01*
X91854187Y-22625948D01*
X92015529Y-22713185D01*
X92156855Y-22830100D01*
X92272779Y-22972238D01*
X92358888Y-23134185D01*
X92411902Y-23309774D01*
X92429800Y-23492315D01*
X92429800Y-23807717D01*
X92429723Y-23818749D01*
X92429722Y-23818754D01*
X92429708Y-23820807D01*
X92409263Y-24003080D01*
X92353803Y-24177912D01*
X92265442Y-24338641D01*
X92147544Y-24479146D01*
X92004600Y-24594076D01*
X91842055Y-24679052D01*
X91666101Y-24730839D01*
X91666060Y-24730843D01*
X91666056Y-24730844D01*
X91483442Y-24747463D01*
X91301074Y-24728295D01*
X91301027Y-24728290D01*
X91125813Y-24674052D01*
X90964471Y-24586815D01*
X90823145Y-24469900D01*
X90707221Y-24327762D01*
X90621112Y-24165815D01*
X90568098Y-23990226D01*
X90550200Y-23807685D01*
X90550200Y-23492283D01*
X90550277Y-23481251D01*
X90550278Y-23481246D01*
X90550292Y-23479193D01*
X90570737Y-23296920D01*
X90626197Y-23122088D01*
X90714558Y-22961359D01*
X90832456Y-22820854D01*
X90975400Y-22705924D01*
X91137945Y-22620948D01*
X91313899Y-22569161D01*
X91313940Y-22569157D01*
X91313944Y-22569156D01*
X91496558Y-22552537D01*
X91678926Y-22571705D01*
X91678926Y-22571705D01*
G37*
G36*
X86598926Y-22571705D02*
X86598973Y-22571710D01*
X86774187Y-22625948D01*
X86935529Y-22713185D01*
X87076855Y-22830100D01*
X87192779Y-22972238D01*
X87278888Y-23134185D01*
X87331902Y-23309774D01*
X87349800Y-23492315D01*
X87349800Y-23807717D01*
X87349723Y-23818749D01*
X87349722Y-23818754D01*
X87349708Y-23820807D01*
X87329263Y-24003080D01*
X87273803Y-24177912D01*
X87185442Y-24338641D01*
X87067544Y-24479146D01*
X86924600Y-24594076D01*
X86762055Y-24679052D01*
X86586101Y-24730839D01*
X86586060Y-24730843D01*
X86586056Y-24730844D01*
X86403442Y-24747463D01*
X86221074Y-24728295D01*
X86221027Y-24728290D01*
X86045813Y-24674052D01*
X85884471Y-24586815D01*
X85743145Y-24469900D01*
X85627221Y-24327762D01*
X85541112Y-24165815D01*
X85488098Y-23990226D01*
X85470200Y-23807685D01*
X85470200Y-23492283D01*
X85470277Y-23481251D01*
X85470278Y-23481246D01*
X85470292Y-23479193D01*
X85490737Y-23296920D01*
X85546197Y-23122088D01*
X85634558Y-22961359D01*
X85752456Y-22820854D01*
X85895400Y-22705924D01*
X86057945Y-22620948D01*
X86233899Y-22569161D01*
X86233940Y-22569157D01*
X86233944Y-22569156D01*
X86416558Y-22552537D01*
X86598926Y-22571705D01*
X86598926Y-22571705D01*
G37*
G36*
X77189800Y-24742200D02*
X75310200Y-24742200D01*
X75310200Y-22557800D01*
X77189800Y-22557800D01*
X77189800Y-24742200D01*
X77189800Y-24742200D01*
G37*
M02*
