%TF.GenerationSoftware,KiCad,Pcbnew,4.0.5-e0-6337~49~ubuntu16.04.1*%
%TF.CreationDate,2017-08-14T13:55:07-07:00*%
%TF.ProjectId,stns01-battery-mgmt-breakout,73746E7330312D626174746572792D6D,1.0*%
%TF.FileFunction,Copper,L1,Top,Signal*%
%FSLAX46Y46*%
G04 Gerber Fmt 4.6, Leading zero omitted, Abs format (unit mm)*
G04 Created by KiCad (PCBNEW 4.0.5-e0-6337~49~ubuntu16.04.1) date Mon Aug 14 13:55:07 2017*
%MOMM*%
%LPD*%
G01*
G04 APERTURE LIST*
%ADD10C,0.350000*%
%ADD11R,2.032000X1.727200*%
%ADD12O,2.032000X1.727200*%
%ADD13R,0.400000X1.350000*%
%ADD14R,1.600000X1.400000*%
%ADD15C,1.200000*%
%ADD16R,1.900000X1.900000*%
%ADD17R,0.800000X0.750000*%
%ADD18R,0.750000X0.800000*%
%ADD19R,1.000000X3.500000*%
%ADD20R,1.600000X3.400000*%
%ADD21C,1.524000*%
%ADD22R,0.700000X0.250000*%
%ADD23R,0.830000X1.190000*%
%ADD24R,0.800100X0.800100*%
%ADD25C,0.685800*%
%ADD26C,0.330200*%
%ADD27C,0.254000*%
%ADD28C,0.508000*%
%ADD29C,0.330200*%
%ADD30C,0.350000*%
G04 APERTURE END LIST*
D10*
D11*
X28879800Y-22123400D03*
D12*
X28879800Y-24663400D03*
X28879800Y-27203400D03*
X28879800Y-29743400D03*
X28879800Y-32283400D03*
X28879800Y-34823400D03*
X28879800Y-37363400D03*
D13*
X42504300Y-24592900D03*
X41854300Y-24592900D03*
X41205200Y-24592900D03*
X40554300Y-24592900D03*
X39904300Y-24592900D03*
D14*
X44404300Y-24367900D03*
D15*
X44754300Y-21917900D03*
D16*
X42404300Y-21917900D03*
X40004300Y-21917900D03*
D14*
X38004300Y-24367900D03*
D15*
X37654300Y-21917900D03*
D17*
X41974200Y-26847800D03*
X40474200Y-26847800D03*
X53036600Y-31470600D03*
X51536600Y-31470600D03*
D18*
X37152580Y-30342140D03*
X37152580Y-31842140D03*
X37152580Y-28361640D03*
X37152580Y-26861640D03*
D19*
X53295300Y-28219400D03*
X51295300Y-28219400D03*
D20*
X55695300Y-22669400D03*
X48895300Y-22669400D03*
D11*
X59359800Y-22123400D03*
D12*
X59359800Y-24663400D03*
X59359800Y-27203400D03*
X59359800Y-29743400D03*
X59359800Y-32283400D03*
X59359800Y-34823400D03*
X59359800Y-37363400D03*
D18*
X38328600Y-34987800D03*
X38328600Y-36487800D03*
X48000920Y-31422340D03*
X48000920Y-32922340D03*
X43995340Y-31457900D03*
X43995340Y-32957900D03*
X42057320Y-33930460D03*
X42057320Y-35430460D03*
X40182800Y-35446400D03*
X40182800Y-33946400D03*
X43995340Y-29850080D03*
X43995340Y-28350080D03*
X45760640Y-28374340D03*
X45760640Y-29874340D03*
D11*
X34135060Y-31333440D03*
D12*
X34135060Y-33873440D03*
X34135060Y-36413440D03*
D21*
X50065940Y-36177220D03*
X52555140Y-36177220D03*
X47576740Y-36177220D03*
D22*
X39254604Y-29013341D03*
X39254604Y-29463341D03*
X39254604Y-29913341D03*
X39254604Y-30363341D03*
X39254604Y-30813341D03*
X39254604Y-31263341D03*
X42054604Y-31263341D03*
X42054604Y-30813341D03*
X42054604Y-30363341D03*
X42054604Y-29913341D03*
X42054604Y-29463341D03*
X42054604Y-29013341D03*
D23*
X41069604Y-30733341D03*
X41069604Y-29543341D03*
X40239604Y-30733341D03*
X40239604Y-29543341D03*
D24*
X33284160Y-23891200D03*
X33284160Y-25791200D03*
X35283140Y-24841200D03*
D25*
X49503755Y-31512236D03*
X33070800Y-22758400D03*
X32245300Y-24218900D03*
X42087800Y-38379400D03*
X38684512Y-33553400D03*
X50012600Y-28219400D03*
X39904300Y-25831800D03*
X38989000Y-26949400D03*
X43119040Y-33850580D03*
X37152580Y-25895300D03*
X46860460Y-29911040D03*
X40678100Y-30162500D03*
X40678100Y-31346140D03*
X40678100Y-28928060D03*
X50393600Y-31496000D03*
X38019254Y-31139195D03*
X47117000Y-28321000D03*
X39409361Y-31874480D03*
X38120262Y-30307091D03*
X36601400Y-34417000D03*
X43510200Y-35331400D03*
X38008700Y-29446684D03*
X49580800Y-32346900D03*
X54025800Y-32918400D03*
D26*
X34086800Y-21170900D02*
X31254700Y-21170900D01*
X31254700Y-21170900D02*
X30302200Y-22123400D01*
X36156900Y-23241000D02*
X34086800Y-21170900D01*
X42157600Y-23241000D02*
X36156900Y-23241000D01*
X30302200Y-22123400D02*
X28879800Y-22123400D01*
X42504300Y-24592900D02*
X42504300Y-26317700D01*
X42504300Y-26317700D02*
X41974200Y-26847800D01*
X42504300Y-23587700D02*
X42504300Y-24592900D01*
X42157600Y-23241000D02*
X42504300Y-23587700D01*
X41974200Y-26847800D02*
X41974200Y-27553000D01*
X41974200Y-27553000D02*
X41511000Y-28016200D01*
X41511000Y-28016200D02*
X39796545Y-28016200D01*
X39796545Y-28016200D02*
X39254604Y-28558141D01*
X39254604Y-28558141D02*
X39254604Y-29013341D01*
X33284160Y-23891200D02*
X33284160Y-22971760D01*
X33284160Y-22971760D02*
X33070800Y-22758400D01*
X33284160Y-23891200D02*
X32573000Y-23891200D01*
X32573000Y-23891200D02*
X32245300Y-24218900D01*
D27*
X42057320Y-35430460D02*
X42057320Y-38348920D01*
X42057320Y-38348920D02*
X42087800Y-38379400D01*
X37152580Y-31842140D02*
X37152580Y-32021468D01*
X37152580Y-32021468D02*
X38684512Y-33553400D01*
X38855913Y-33724801D02*
X38684512Y-33553400D01*
X40251380Y-31842140D02*
X40563800Y-32154560D01*
X40678100Y-31346140D02*
X40678100Y-31831073D01*
X40563800Y-32154560D02*
X40862601Y-32453361D01*
X40678100Y-31831073D02*
X40563800Y-31945373D01*
X40563800Y-31945373D02*
X40563800Y-32154560D01*
X42057320Y-35430460D02*
X42057320Y-36570920D01*
X42057320Y-36570920D02*
X42087800Y-36601400D01*
D26*
X51295300Y-28219400D02*
X50012600Y-28219400D01*
D27*
X39904300Y-25831800D02*
X39904300Y-25983300D01*
D26*
X39904300Y-24592900D02*
X39904300Y-25831800D01*
X40474200Y-26847800D02*
X39090600Y-26847800D01*
X39090600Y-26847800D02*
X38989000Y-26949400D01*
X33284160Y-23891200D02*
X32204700Y-23891200D01*
X32204700Y-23891200D02*
X32181800Y-23914100D01*
D27*
X43995340Y-32957900D02*
X43995340Y-32974280D01*
X43995340Y-32974280D02*
X43119040Y-33850580D01*
X37152580Y-26861640D02*
X37152580Y-25895300D01*
X43995340Y-32957900D02*
X43995340Y-33959800D01*
X43995340Y-33959800D02*
X44002960Y-33967420D01*
X45760640Y-29874340D02*
X46823760Y-29874340D01*
X46823760Y-29874340D02*
X46860460Y-29911040D01*
X40678100Y-30162500D02*
X40678100Y-30341837D01*
X40678100Y-30341837D02*
X41069604Y-30733341D01*
X41069604Y-30733341D02*
X41069604Y-29543341D01*
X40239604Y-29543341D02*
X40239604Y-29356396D01*
X40239604Y-29356396D02*
X40667940Y-28928060D01*
X41069604Y-29543341D02*
X40239604Y-29543341D01*
X41069604Y-30733341D02*
X40239604Y-30733341D01*
X40239604Y-29543341D02*
X40239604Y-30733341D01*
X40251380Y-31842140D02*
X40936480Y-31842140D01*
X40239604Y-31675416D02*
X40239604Y-31830364D01*
X40239604Y-31830364D02*
X40251380Y-31842140D01*
X40936480Y-31842140D02*
X41069604Y-31709016D01*
X40239604Y-31675416D02*
X40214204Y-31675416D01*
X40239604Y-30733341D02*
X40239604Y-31675416D01*
X40239604Y-31675416D02*
X40225980Y-31689040D01*
X41069604Y-30733341D02*
X41069604Y-31709016D01*
X41069604Y-31709016D02*
X41064180Y-31714440D01*
X42054604Y-31263341D02*
X41599604Y-31263341D01*
X41599604Y-31263341D02*
X41069604Y-30733341D01*
X39904300Y-24592900D02*
X39904300Y-26277900D01*
X39904300Y-26277900D02*
X40474200Y-26847800D01*
X51536600Y-31470600D02*
X50419000Y-31470600D01*
X50419000Y-31470600D02*
X50393600Y-31496000D01*
D28*
X51295300Y-28219400D02*
X51295300Y-31229300D01*
X51295300Y-31229300D02*
X51536600Y-31470600D01*
D27*
X39904300Y-25983300D02*
X39751000Y-26136600D01*
D28*
X48883920Y-32922340D02*
X49121281Y-33159701D01*
X53011600Y-31470600D02*
X53036600Y-31470600D01*
X48000920Y-32922340D02*
X48883920Y-32922340D01*
X49121281Y-33159701D02*
X51322499Y-33159701D01*
X51322499Y-33159701D02*
X53011600Y-31470600D01*
X42697400Y-27991545D02*
X43145266Y-27543679D01*
X44983400Y-25730200D02*
X53064100Y-25730200D01*
X43145266Y-27543679D02*
X43169921Y-27543679D01*
X43169921Y-27543679D02*
X44983400Y-25730200D01*
X53295300Y-25961400D02*
X53295300Y-28219400D01*
X53064100Y-25730200D02*
X53295300Y-25961400D01*
D27*
X42054604Y-29013341D02*
X42054604Y-28634341D01*
X42054604Y-28634341D02*
X42697400Y-27991545D01*
D28*
X57429400Y-26593800D02*
X57429400Y-23901400D01*
X57429400Y-23901400D02*
X59207400Y-22123400D01*
X59207400Y-22123400D02*
X59359800Y-22123400D01*
X55803800Y-28219400D02*
X57429400Y-26593800D01*
X53295300Y-28219400D02*
X55803800Y-28219400D01*
X53295300Y-28219400D02*
X53295300Y-31211900D01*
X53295300Y-31211900D02*
X53036600Y-31470600D01*
D26*
X35283140Y-25933400D02*
X35283140Y-23256240D01*
X35283140Y-26301700D02*
X35283140Y-25933400D01*
X35283140Y-27459940D02*
X35283140Y-26568400D01*
X35283140Y-26568400D02*
X35283140Y-25806400D01*
X35283140Y-25933400D02*
X35283140Y-26568400D01*
X35283140Y-25999440D02*
X35283140Y-25806400D01*
X35283140Y-25806400D02*
X35283140Y-24841200D01*
X30632400Y-24257000D02*
X30480000Y-24409400D01*
X30480000Y-24409400D02*
X30226000Y-24663400D01*
X35283140Y-23256240D02*
X34023300Y-21996400D01*
X34023300Y-21996400D02*
X32893000Y-21996400D01*
X32893000Y-21996400D02*
X30480000Y-24409400D01*
X30226000Y-24663400D02*
X28879800Y-24663400D01*
D27*
X38625203Y-29255021D02*
X38625203Y-29141682D01*
X39254604Y-29463341D02*
X38833523Y-29463341D01*
X38625203Y-29141682D02*
X37845161Y-28361640D01*
X37845161Y-28361640D02*
X37781580Y-28361640D01*
X38833523Y-29463341D02*
X38625203Y-29255021D01*
X37781580Y-28361640D02*
X37152580Y-28361640D01*
D26*
X36184840Y-28361640D02*
X35283140Y-27459940D01*
X37152580Y-28361640D02*
X36184840Y-28361640D01*
X33284160Y-25791200D02*
X33284160Y-27251700D01*
X33284160Y-27251700D02*
X28928100Y-27251700D01*
D27*
X33284160Y-27251700D02*
X33284160Y-30482540D01*
X33284160Y-30482540D02*
X34135060Y-31333440D01*
D26*
X59512200Y-34823400D02*
X59359800Y-34823400D01*
D28*
X59359800Y-34823400D02*
X51419760Y-34823400D01*
X51419760Y-34823400D02*
X50065940Y-36177220D01*
D27*
X39547800Y-33045400D02*
X39547800Y-33286400D01*
X39547800Y-33286400D02*
X40182800Y-33921400D01*
X40182800Y-33921400D02*
X40182800Y-33946400D01*
X38481000Y-31115000D02*
X38043449Y-31115000D01*
X38043449Y-31115000D02*
X38019254Y-31139195D01*
X38481000Y-31978600D02*
X38481000Y-31115000D01*
X38481000Y-31115000D02*
X38481000Y-30982945D01*
X38481000Y-30982945D02*
X38650604Y-30813341D01*
X38650604Y-30813341D02*
X39254604Y-30813341D01*
X39547800Y-33045400D02*
X38481000Y-31978600D01*
X45760640Y-28374340D02*
X47063660Y-28374340D01*
X47063660Y-28374340D02*
X47117000Y-28321000D01*
X43995340Y-28350080D02*
X45736380Y-28350080D01*
X45736380Y-28350080D02*
X45760640Y-28374340D01*
X39254604Y-31719723D02*
X39409361Y-31874480D01*
X39254604Y-31263341D02*
X39254604Y-31719723D01*
X38176512Y-30363341D02*
X38120262Y-30307091D01*
X39254604Y-30363341D02*
X38176512Y-30363341D01*
X42057320Y-33930460D02*
X42057320Y-32357060D01*
X42057320Y-32357060D02*
X42354500Y-32059880D01*
X42354500Y-32059880D02*
X42689780Y-31724600D01*
X46812200Y-33807400D02*
X55143400Y-33807400D01*
X55143400Y-33807400D02*
X59207400Y-29743400D01*
X59207400Y-29743400D02*
X59359800Y-29743400D01*
X45237400Y-32232600D02*
X46812200Y-33807400D01*
X42951400Y-32232600D02*
X45237400Y-32232600D01*
X42689780Y-31724600D02*
X42832020Y-31582360D01*
X42689780Y-31970980D02*
X42951400Y-32232600D01*
X42689780Y-31724600D02*
X42689780Y-31970980D01*
X42832020Y-30986757D02*
X42832020Y-31582360D01*
X42054604Y-30813341D02*
X42658604Y-30813341D01*
X42658604Y-30813341D02*
X42832020Y-30986757D01*
X38328600Y-34987800D02*
X39724200Y-34987800D01*
X39724200Y-34987800D02*
X40182800Y-35446400D01*
X43995340Y-29850080D02*
X43932079Y-29913341D01*
X43932079Y-29913341D02*
X42054604Y-29913341D01*
X34135060Y-33873440D02*
X36057840Y-33873440D01*
X36057840Y-33873440D02*
X36601400Y-34417000D01*
D26*
X43510200Y-35331400D02*
X44356020Y-36177220D01*
X44356020Y-36177220D02*
X47576740Y-36177220D01*
D28*
X30149800Y-37363400D02*
X28879800Y-37363400D01*
D26*
X34135060Y-36413440D02*
X31099760Y-36413440D01*
X31099760Y-36413440D02*
X30149800Y-37363400D01*
X37261802Y-36436998D02*
X37211000Y-36487800D01*
X37261802Y-34100006D02*
X37261802Y-36436998D01*
X35941000Y-31578720D02*
X35941000Y-32779204D01*
X37152580Y-30367140D02*
X35941000Y-31578720D01*
X35941000Y-32779204D02*
X37261802Y-34100006D01*
X37152580Y-30342140D02*
X37152580Y-30367140D01*
D27*
X38183947Y-29446684D02*
X38008700Y-29446684D01*
X38650604Y-29913341D02*
X38183947Y-29446684D01*
D26*
X37152580Y-30342140D02*
X37152580Y-30317140D01*
D27*
X39254604Y-29913341D02*
X38650604Y-29913341D01*
D26*
X38008700Y-29461020D02*
X38008700Y-29446684D01*
X37152580Y-30317140D02*
X38008700Y-29461020D01*
X38328600Y-36487800D02*
X37211000Y-36487800D01*
X37211000Y-36487800D02*
X34209420Y-36487800D01*
X34209420Y-36487800D02*
X34135060Y-36413440D01*
D27*
X49580800Y-32346900D02*
X48925480Y-32346900D01*
X48925480Y-32346900D02*
X48000920Y-31422340D01*
X58064390Y-28879810D02*
X54025800Y-32918400D01*
X59359800Y-24663400D02*
X59207400Y-24663400D01*
X59207400Y-24663400D02*
X58064390Y-25806410D01*
X58064390Y-25806410D02*
X58064390Y-28879810D01*
X47139860Y-29075380D02*
X48000920Y-29936440D01*
X48000920Y-29936440D02*
X48000920Y-31422340D01*
X43046565Y-29075380D02*
X47139860Y-29075380D01*
X42054604Y-29463341D02*
X42658604Y-29463341D01*
X42658604Y-29463341D02*
X43046565Y-29075380D01*
X42054604Y-30363341D02*
X42900781Y-30363341D01*
X42900781Y-30363341D02*
X43995340Y-31457900D01*
G36*
X64256316Y-20398345D02*
X64639092Y-20654110D01*
X64894855Y-21036884D01*
X64998600Y-21558449D01*
X64998600Y-39198351D01*
X64894855Y-39719916D01*
X64639092Y-40102690D01*
X64256316Y-40358455D01*
X63734751Y-40462200D01*
X24504849Y-40462200D01*
X23983284Y-40358455D01*
X23600510Y-40102692D01*
X23344745Y-39719916D01*
X23241000Y-39198351D01*
X23241000Y-24663400D01*
X27196455Y-24663400D01*
X27310529Y-25236889D01*
X27635385Y-25723070D01*
X27950166Y-25933400D01*
X27635385Y-26143730D01*
X27310529Y-26629911D01*
X27196455Y-27203400D01*
X27310529Y-27776889D01*
X27635385Y-28263070D01*
X27950166Y-28473400D01*
X27635385Y-28683730D01*
X27310529Y-29169911D01*
X27196455Y-29743400D01*
X27310529Y-30316889D01*
X27635385Y-30803070D01*
X27950166Y-31013400D01*
X27635385Y-31223730D01*
X27310529Y-31709911D01*
X27196455Y-32283400D01*
X27310529Y-32856889D01*
X27635385Y-33343070D01*
X27950166Y-33553400D01*
X27635385Y-33763730D01*
X27310529Y-34249911D01*
X27196455Y-34823400D01*
X27310529Y-35396889D01*
X27635385Y-35883070D01*
X27950166Y-36093400D01*
X27635385Y-36303730D01*
X27310529Y-36789911D01*
X27196455Y-37363400D01*
X27310529Y-37936889D01*
X27635385Y-38423070D01*
X28121566Y-38747926D01*
X28695055Y-38862000D01*
X29064545Y-38862000D01*
X29638034Y-38747926D01*
X30124215Y-38423070D01*
X30251811Y-38232109D01*
X30490006Y-38184729D01*
X30778418Y-37992018D01*
X30971129Y-37703606D01*
X30978584Y-37666128D01*
X31431172Y-37213540D01*
X32717206Y-37213540D01*
X32890645Y-37473110D01*
X33376826Y-37797966D01*
X33950315Y-37912040D01*
X34319805Y-37912040D01*
X34893294Y-37797966D01*
X35006347Y-37722426D01*
X57752442Y-37722426D01*
X57755091Y-37738191D01*
X58009068Y-38265436D01*
X58445480Y-38655354D01*
X58997887Y-38848584D01*
X59232800Y-38704324D01*
X59232800Y-37490400D01*
X59486800Y-37490400D01*
X59486800Y-38704324D01*
X59721713Y-38848584D01*
X60274120Y-38655354D01*
X60710532Y-38265436D01*
X60964509Y-37738191D01*
X60967158Y-37722426D01*
X60846017Y-37490400D01*
X59486800Y-37490400D01*
X59232800Y-37490400D01*
X57873583Y-37490400D01*
X57752442Y-37722426D01*
X35006347Y-37722426D01*
X35379475Y-37473110D01*
X35503228Y-37287900D01*
X37456473Y-37287900D01*
X37489510Y-37339241D01*
X37701710Y-37484231D01*
X37953600Y-37535240D01*
X38703600Y-37535240D01*
X38938917Y-37490962D01*
X39155041Y-37351890D01*
X39300031Y-37139690D01*
X39351040Y-36887800D01*
X39351040Y-36302849D01*
X39555910Y-36442831D01*
X39807800Y-36493840D01*
X40557800Y-36493840D01*
X40793117Y-36449562D01*
X41009241Y-36310490D01*
X41124166Y-36142292D01*
X41143993Y-36190158D01*
X41322621Y-36368787D01*
X41556010Y-36465460D01*
X41771570Y-36465460D01*
X41930320Y-36306710D01*
X41930320Y-35557460D01*
X41910320Y-35557460D01*
X41910320Y-35303460D01*
X41930320Y-35303460D01*
X41930320Y-35283460D01*
X42184320Y-35283460D01*
X42184320Y-35303460D01*
X42204320Y-35303460D01*
X42204320Y-35557460D01*
X42184320Y-35557460D01*
X42184320Y-36306710D01*
X42343070Y-36465460D01*
X42558630Y-36465460D01*
X42792019Y-36368787D01*
X42970647Y-36190158D01*
X42979110Y-36169727D01*
X43314830Y-36309130D01*
X43356454Y-36309166D01*
X43790264Y-36742976D01*
X44049835Y-36916416D01*
X44356020Y-36977320D01*
X46401510Y-36977320D01*
X46784370Y-37360849D01*
X47297640Y-37573977D01*
X47853401Y-37574462D01*
X48367043Y-37362230D01*
X48760369Y-36969590D01*
X48821226Y-36823029D01*
X48880930Y-36967523D01*
X49273570Y-37360849D01*
X49786840Y-37573977D01*
X50342601Y-37574462D01*
X50856243Y-37362230D01*
X51249569Y-36969590D01*
X51310426Y-36823029D01*
X51370130Y-36967523D01*
X51762770Y-37360849D01*
X52276040Y-37573977D01*
X52831801Y-37574462D01*
X53345443Y-37362230D01*
X53738769Y-36969590D01*
X53951897Y-36456320D01*
X53952382Y-35900559D01*
X53874636Y-35712400D01*
X58001347Y-35712400D01*
X58115385Y-35883070D01*
X58424869Y-36089861D01*
X58009068Y-36461364D01*
X57755091Y-36988609D01*
X57752442Y-37004374D01*
X57873583Y-37236400D01*
X59232800Y-37236400D01*
X59232800Y-37216400D01*
X59486800Y-37216400D01*
X59486800Y-37236400D01*
X60846017Y-37236400D01*
X60967158Y-37004374D01*
X60964509Y-36988609D01*
X60710532Y-36461364D01*
X60294731Y-36089861D01*
X60604215Y-35883070D01*
X60929071Y-35396889D01*
X61043145Y-34823400D01*
X60929071Y-34249911D01*
X60604215Y-33763730D01*
X60294731Y-33556939D01*
X60710532Y-33185436D01*
X60964509Y-32658191D01*
X60967158Y-32642426D01*
X60846017Y-32410400D01*
X59486800Y-32410400D01*
X59486800Y-32430400D01*
X59232800Y-32430400D01*
X59232800Y-32410400D01*
X59212800Y-32410400D01*
X59212800Y-32156400D01*
X59232800Y-32156400D01*
X59232800Y-32136400D01*
X59486800Y-32136400D01*
X59486800Y-32156400D01*
X60846017Y-32156400D01*
X60967158Y-31924374D01*
X60964509Y-31908609D01*
X60710532Y-31381364D01*
X60294731Y-31009861D01*
X60604215Y-30803070D01*
X60929071Y-30316889D01*
X61043145Y-29743400D01*
X60929071Y-29169911D01*
X60604215Y-28683730D01*
X60289434Y-28473400D01*
X60604215Y-28263070D01*
X60929071Y-27776889D01*
X61043145Y-27203400D01*
X60929071Y-26629911D01*
X60604215Y-26143730D01*
X60289434Y-25933400D01*
X60604215Y-25723070D01*
X60929071Y-25236889D01*
X61043145Y-24663400D01*
X60929071Y-24089911D01*
X60604215Y-23603730D01*
X60589887Y-23594157D01*
X60611117Y-23590162D01*
X60827241Y-23451090D01*
X60972231Y-23238890D01*
X61023240Y-22987000D01*
X61023240Y-21259800D01*
X60978962Y-21024483D01*
X60839890Y-20808359D01*
X60627690Y-20663369D01*
X60375800Y-20612360D01*
X58343800Y-20612360D01*
X58108483Y-20656638D01*
X57892359Y-20795710D01*
X57747369Y-21007910D01*
X57696360Y-21259800D01*
X57696360Y-22377204D01*
X57142740Y-22930824D01*
X57142740Y-20969400D01*
X57098462Y-20734083D01*
X56959390Y-20517959D01*
X56747190Y-20372969D01*
X56495300Y-20321960D01*
X54895300Y-20321960D01*
X54659983Y-20366238D01*
X54443859Y-20505310D01*
X54298869Y-20717510D01*
X54247860Y-20969400D01*
X54247860Y-24369400D01*
X54292138Y-24604717D01*
X54431210Y-24820841D01*
X54643410Y-24965831D01*
X54895300Y-25016840D01*
X56495300Y-25016840D01*
X56540400Y-25008354D01*
X56540400Y-26225564D01*
X55435564Y-27330400D01*
X54442740Y-27330400D01*
X54442740Y-26469400D01*
X54398462Y-26234083D01*
X54259390Y-26017959D01*
X54184300Y-25966652D01*
X54184300Y-25961400D01*
X54116629Y-25621194D01*
X53923918Y-25332782D01*
X53692718Y-25101582D01*
X53607154Y-25044410D01*
X53404306Y-24908871D01*
X53064100Y-24841200D01*
X50134759Y-24841200D01*
X50146741Y-24833490D01*
X50291731Y-24621290D01*
X50342740Y-24369400D01*
X50342740Y-20969400D01*
X50298462Y-20734083D01*
X50159390Y-20517959D01*
X49947190Y-20372969D01*
X49695300Y-20321960D01*
X48095300Y-20321960D01*
X47859983Y-20366238D01*
X47643859Y-20505310D01*
X47498869Y-20717510D01*
X47447860Y-20969400D01*
X47447860Y-24369400D01*
X47492138Y-24604717D01*
X47631210Y-24820841D01*
X47661006Y-24841200D01*
X45851740Y-24841200D01*
X45851740Y-23667900D01*
X45807462Y-23432583D01*
X45668390Y-23216459D01*
X45456190Y-23071469D01*
X45281895Y-23036173D01*
X45452957Y-22965492D01*
X45800671Y-22618385D01*
X45989085Y-22164634D01*
X45989514Y-21673321D01*
X45801892Y-21219243D01*
X45454785Y-20871529D01*
X45001034Y-20683115D01*
X44509721Y-20682686D01*
X44055643Y-20870308D01*
X43994804Y-20931040D01*
X43957462Y-20732583D01*
X43818390Y-20516459D01*
X43606190Y-20371469D01*
X43354300Y-20320460D01*
X41454300Y-20320460D01*
X41218983Y-20364738D01*
X41207321Y-20372242D01*
X41206190Y-20371469D01*
X40954300Y-20320460D01*
X39054300Y-20320460D01*
X38818983Y-20364738D01*
X38602859Y-20503810D01*
X38457869Y-20716010D01*
X38414302Y-20931150D01*
X38354785Y-20871529D01*
X37901034Y-20683115D01*
X37409721Y-20682686D01*
X36955643Y-20870308D01*
X36607929Y-21217415D01*
X36419515Y-21671166D01*
X36419086Y-22162479D01*
X36534128Y-22440900D01*
X36488312Y-22440900D01*
X34652556Y-20605144D01*
X34392985Y-20431704D01*
X34086800Y-20370800D01*
X31254700Y-20370800D01*
X30948515Y-20431704D01*
X30688944Y-20605144D01*
X30409160Y-20884928D01*
X30359890Y-20808359D01*
X30147690Y-20663369D01*
X29895800Y-20612360D01*
X27863800Y-20612360D01*
X27628483Y-20656638D01*
X27412359Y-20795710D01*
X27267369Y-21007910D01*
X27216360Y-21259800D01*
X27216360Y-22987000D01*
X27260638Y-23222317D01*
X27399710Y-23438441D01*
X27611910Y-23583431D01*
X27653239Y-23591800D01*
X27635385Y-23603730D01*
X27310529Y-24089911D01*
X27196455Y-24663400D01*
X23241000Y-24663400D01*
X23241000Y-21558449D01*
X23344745Y-21036884D01*
X23600510Y-20654108D01*
X23983284Y-20398345D01*
X24504849Y-20294600D01*
X63734751Y-20294600D01*
X64256316Y-20398345D01*
X64256316Y-20398345D01*
G37*
X64256316Y-20398345D02*
X64639092Y-20654110D01*
X64894855Y-21036884D01*
X64998600Y-21558449D01*
X64998600Y-39198351D01*
X64894855Y-39719916D01*
X64639092Y-40102690D01*
X64256316Y-40358455D01*
X63734751Y-40462200D01*
X24504849Y-40462200D01*
X23983284Y-40358455D01*
X23600510Y-40102692D01*
X23344745Y-39719916D01*
X23241000Y-39198351D01*
X23241000Y-24663400D01*
X27196455Y-24663400D01*
X27310529Y-25236889D01*
X27635385Y-25723070D01*
X27950166Y-25933400D01*
X27635385Y-26143730D01*
X27310529Y-26629911D01*
X27196455Y-27203400D01*
X27310529Y-27776889D01*
X27635385Y-28263070D01*
X27950166Y-28473400D01*
X27635385Y-28683730D01*
X27310529Y-29169911D01*
X27196455Y-29743400D01*
X27310529Y-30316889D01*
X27635385Y-30803070D01*
X27950166Y-31013400D01*
X27635385Y-31223730D01*
X27310529Y-31709911D01*
X27196455Y-32283400D01*
X27310529Y-32856889D01*
X27635385Y-33343070D01*
X27950166Y-33553400D01*
X27635385Y-33763730D01*
X27310529Y-34249911D01*
X27196455Y-34823400D01*
X27310529Y-35396889D01*
X27635385Y-35883070D01*
X27950166Y-36093400D01*
X27635385Y-36303730D01*
X27310529Y-36789911D01*
X27196455Y-37363400D01*
X27310529Y-37936889D01*
X27635385Y-38423070D01*
X28121566Y-38747926D01*
X28695055Y-38862000D01*
X29064545Y-38862000D01*
X29638034Y-38747926D01*
X30124215Y-38423070D01*
X30251811Y-38232109D01*
X30490006Y-38184729D01*
X30778418Y-37992018D01*
X30971129Y-37703606D01*
X30978584Y-37666128D01*
X31431172Y-37213540D01*
X32717206Y-37213540D01*
X32890645Y-37473110D01*
X33376826Y-37797966D01*
X33950315Y-37912040D01*
X34319805Y-37912040D01*
X34893294Y-37797966D01*
X35006347Y-37722426D01*
X57752442Y-37722426D01*
X57755091Y-37738191D01*
X58009068Y-38265436D01*
X58445480Y-38655354D01*
X58997887Y-38848584D01*
X59232800Y-38704324D01*
X59232800Y-37490400D01*
X59486800Y-37490400D01*
X59486800Y-38704324D01*
X59721713Y-38848584D01*
X60274120Y-38655354D01*
X60710532Y-38265436D01*
X60964509Y-37738191D01*
X60967158Y-37722426D01*
X60846017Y-37490400D01*
X59486800Y-37490400D01*
X59232800Y-37490400D01*
X57873583Y-37490400D01*
X57752442Y-37722426D01*
X35006347Y-37722426D01*
X35379475Y-37473110D01*
X35503228Y-37287900D01*
X37456473Y-37287900D01*
X37489510Y-37339241D01*
X37701710Y-37484231D01*
X37953600Y-37535240D01*
X38703600Y-37535240D01*
X38938917Y-37490962D01*
X39155041Y-37351890D01*
X39300031Y-37139690D01*
X39351040Y-36887800D01*
X39351040Y-36302849D01*
X39555910Y-36442831D01*
X39807800Y-36493840D01*
X40557800Y-36493840D01*
X40793117Y-36449562D01*
X41009241Y-36310490D01*
X41124166Y-36142292D01*
X41143993Y-36190158D01*
X41322621Y-36368787D01*
X41556010Y-36465460D01*
X41771570Y-36465460D01*
X41930320Y-36306710D01*
X41930320Y-35557460D01*
X41910320Y-35557460D01*
X41910320Y-35303460D01*
X41930320Y-35303460D01*
X41930320Y-35283460D01*
X42184320Y-35283460D01*
X42184320Y-35303460D01*
X42204320Y-35303460D01*
X42204320Y-35557460D01*
X42184320Y-35557460D01*
X42184320Y-36306710D01*
X42343070Y-36465460D01*
X42558630Y-36465460D01*
X42792019Y-36368787D01*
X42970647Y-36190158D01*
X42979110Y-36169727D01*
X43314830Y-36309130D01*
X43356454Y-36309166D01*
X43790264Y-36742976D01*
X44049835Y-36916416D01*
X44356020Y-36977320D01*
X46401510Y-36977320D01*
X46784370Y-37360849D01*
X47297640Y-37573977D01*
X47853401Y-37574462D01*
X48367043Y-37362230D01*
X48760369Y-36969590D01*
X48821226Y-36823029D01*
X48880930Y-36967523D01*
X49273570Y-37360849D01*
X49786840Y-37573977D01*
X50342601Y-37574462D01*
X50856243Y-37362230D01*
X51249569Y-36969590D01*
X51310426Y-36823029D01*
X51370130Y-36967523D01*
X51762770Y-37360849D01*
X52276040Y-37573977D01*
X52831801Y-37574462D01*
X53345443Y-37362230D01*
X53738769Y-36969590D01*
X53951897Y-36456320D01*
X53952382Y-35900559D01*
X53874636Y-35712400D01*
X58001347Y-35712400D01*
X58115385Y-35883070D01*
X58424869Y-36089861D01*
X58009068Y-36461364D01*
X57755091Y-36988609D01*
X57752442Y-37004374D01*
X57873583Y-37236400D01*
X59232800Y-37236400D01*
X59232800Y-37216400D01*
X59486800Y-37216400D01*
X59486800Y-37236400D01*
X60846017Y-37236400D01*
X60967158Y-37004374D01*
X60964509Y-36988609D01*
X60710532Y-36461364D01*
X60294731Y-36089861D01*
X60604215Y-35883070D01*
X60929071Y-35396889D01*
X61043145Y-34823400D01*
X60929071Y-34249911D01*
X60604215Y-33763730D01*
X60294731Y-33556939D01*
X60710532Y-33185436D01*
X60964509Y-32658191D01*
X60967158Y-32642426D01*
X60846017Y-32410400D01*
X59486800Y-32410400D01*
X59486800Y-32430400D01*
X59232800Y-32430400D01*
X59232800Y-32410400D01*
X59212800Y-32410400D01*
X59212800Y-32156400D01*
X59232800Y-32156400D01*
X59232800Y-32136400D01*
X59486800Y-32136400D01*
X59486800Y-32156400D01*
X60846017Y-32156400D01*
X60967158Y-31924374D01*
X60964509Y-31908609D01*
X60710532Y-31381364D01*
X60294731Y-31009861D01*
X60604215Y-30803070D01*
X60929071Y-30316889D01*
X61043145Y-29743400D01*
X60929071Y-29169911D01*
X60604215Y-28683730D01*
X60289434Y-28473400D01*
X60604215Y-28263070D01*
X60929071Y-27776889D01*
X61043145Y-27203400D01*
X60929071Y-26629911D01*
X60604215Y-26143730D01*
X60289434Y-25933400D01*
X60604215Y-25723070D01*
X60929071Y-25236889D01*
X61043145Y-24663400D01*
X60929071Y-24089911D01*
X60604215Y-23603730D01*
X60589887Y-23594157D01*
X60611117Y-23590162D01*
X60827241Y-23451090D01*
X60972231Y-23238890D01*
X61023240Y-22987000D01*
X61023240Y-21259800D01*
X60978962Y-21024483D01*
X60839890Y-20808359D01*
X60627690Y-20663369D01*
X60375800Y-20612360D01*
X58343800Y-20612360D01*
X58108483Y-20656638D01*
X57892359Y-20795710D01*
X57747369Y-21007910D01*
X57696360Y-21259800D01*
X57696360Y-22377204D01*
X57142740Y-22930824D01*
X57142740Y-20969400D01*
X57098462Y-20734083D01*
X56959390Y-20517959D01*
X56747190Y-20372969D01*
X56495300Y-20321960D01*
X54895300Y-20321960D01*
X54659983Y-20366238D01*
X54443859Y-20505310D01*
X54298869Y-20717510D01*
X54247860Y-20969400D01*
X54247860Y-24369400D01*
X54292138Y-24604717D01*
X54431210Y-24820841D01*
X54643410Y-24965831D01*
X54895300Y-25016840D01*
X56495300Y-25016840D01*
X56540400Y-25008354D01*
X56540400Y-26225564D01*
X55435564Y-27330400D01*
X54442740Y-27330400D01*
X54442740Y-26469400D01*
X54398462Y-26234083D01*
X54259390Y-26017959D01*
X54184300Y-25966652D01*
X54184300Y-25961400D01*
X54116629Y-25621194D01*
X53923918Y-25332782D01*
X53692718Y-25101582D01*
X53607154Y-25044410D01*
X53404306Y-24908871D01*
X53064100Y-24841200D01*
X50134759Y-24841200D01*
X50146741Y-24833490D01*
X50291731Y-24621290D01*
X50342740Y-24369400D01*
X50342740Y-20969400D01*
X50298462Y-20734083D01*
X50159390Y-20517959D01*
X49947190Y-20372969D01*
X49695300Y-20321960D01*
X48095300Y-20321960D01*
X47859983Y-20366238D01*
X47643859Y-20505310D01*
X47498869Y-20717510D01*
X47447860Y-20969400D01*
X47447860Y-24369400D01*
X47492138Y-24604717D01*
X47631210Y-24820841D01*
X47661006Y-24841200D01*
X45851740Y-24841200D01*
X45851740Y-23667900D01*
X45807462Y-23432583D01*
X45668390Y-23216459D01*
X45456190Y-23071469D01*
X45281895Y-23036173D01*
X45452957Y-22965492D01*
X45800671Y-22618385D01*
X45989085Y-22164634D01*
X45989514Y-21673321D01*
X45801892Y-21219243D01*
X45454785Y-20871529D01*
X45001034Y-20683115D01*
X44509721Y-20682686D01*
X44055643Y-20870308D01*
X43994804Y-20931040D01*
X43957462Y-20732583D01*
X43818390Y-20516459D01*
X43606190Y-20371469D01*
X43354300Y-20320460D01*
X41454300Y-20320460D01*
X41218983Y-20364738D01*
X41207321Y-20372242D01*
X41206190Y-20371469D01*
X40954300Y-20320460D01*
X39054300Y-20320460D01*
X38818983Y-20364738D01*
X38602859Y-20503810D01*
X38457869Y-20716010D01*
X38414302Y-20931150D01*
X38354785Y-20871529D01*
X37901034Y-20683115D01*
X37409721Y-20682686D01*
X36955643Y-20870308D01*
X36607929Y-21217415D01*
X36419515Y-21671166D01*
X36419086Y-22162479D01*
X36534128Y-22440900D01*
X36488312Y-22440900D01*
X34652556Y-20605144D01*
X34392985Y-20431704D01*
X34086800Y-20370800D01*
X31254700Y-20370800D01*
X30948515Y-20431704D01*
X30688944Y-20605144D01*
X30409160Y-20884928D01*
X30359890Y-20808359D01*
X30147690Y-20663369D01*
X29895800Y-20612360D01*
X27863800Y-20612360D01*
X27628483Y-20656638D01*
X27412359Y-20795710D01*
X27267369Y-21007910D01*
X27216360Y-21259800D01*
X27216360Y-22987000D01*
X27260638Y-23222317D01*
X27399710Y-23438441D01*
X27611910Y-23583431D01*
X27653239Y-23591800D01*
X27635385Y-23603730D01*
X27310529Y-24089911D01*
X27196455Y-24663400D01*
X23241000Y-24663400D01*
X23241000Y-21558449D01*
X23344745Y-21036884D01*
X23600510Y-20654108D01*
X23983284Y-20398345D01*
X24504849Y-20294600D01*
X63734751Y-20294600D01*
X64256316Y-20398345D01*
G36*
X44142340Y-33084900D02*
X44122340Y-33084900D01*
X44122340Y-33834150D01*
X44281090Y-33992900D01*
X44496650Y-33992900D01*
X44730039Y-33896227D01*
X44908667Y-33717598D01*
X45005340Y-33484209D01*
X45005340Y-33243650D01*
X44846592Y-33084902D01*
X45005340Y-33084902D01*
X45005340Y-33078170D01*
X46273385Y-34346216D01*
X46520596Y-34511397D01*
X46812200Y-34569400D01*
X50416524Y-34569400D01*
X50205583Y-34780341D01*
X49789279Y-34779978D01*
X49275637Y-34992210D01*
X48882311Y-35384850D01*
X48821454Y-35531411D01*
X48761750Y-35386917D01*
X48369110Y-34993591D01*
X47855840Y-34780463D01*
X47300079Y-34779978D01*
X46786437Y-34992210D01*
X46400855Y-35377120D01*
X44687432Y-35377120D01*
X44488234Y-35177922D01*
X44488269Y-35137737D01*
X44339707Y-34778188D01*
X44064859Y-34502860D01*
X43705570Y-34353670D01*
X43316537Y-34353331D01*
X43053085Y-34462187D01*
X43079760Y-34330460D01*
X43079760Y-33712159D01*
X43082013Y-33717598D01*
X43260641Y-33896227D01*
X43494030Y-33992900D01*
X43709590Y-33992900D01*
X43868340Y-33834150D01*
X43868340Y-33084900D01*
X43848340Y-33084900D01*
X43848340Y-32994600D01*
X44142340Y-32994600D01*
X44142340Y-33084900D01*
X44142340Y-33084900D01*
G37*
X44142340Y-33084900D02*
X44122340Y-33084900D01*
X44122340Y-33834150D01*
X44281090Y-33992900D01*
X44496650Y-33992900D01*
X44730039Y-33896227D01*
X44908667Y-33717598D01*
X45005340Y-33484209D01*
X45005340Y-33243650D01*
X44846592Y-33084902D01*
X45005340Y-33084902D01*
X45005340Y-33078170D01*
X46273385Y-34346216D01*
X46520596Y-34511397D01*
X46812200Y-34569400D01*
X50416524Y-34569400D01*
X50205583Y-34780341D01*
X49789279Y-34779978D01*
X49275637Y-34992210D01*
X48882311Y-35384850D01*
X48821454Y-35531411D01*
X48761750Y-35386917D01*
X48369110Y-34993591D01*
X47855840Y-34780463D01*
X47300079Y-34779978D01*
X46786437Y-34992210D01*
X46400855Y-35377120D01*
X44687432Y-35377120D01*
X44488234Y-35177922D01*
X44488269Y-35137737D01*
X44339707Y-34778188D01*
X44064859Y-34502860D01*
X43705570Y-34353670D01*
X43316537Y-34353331D01*
X43053085Y-34462187D01*
X43079760Y-34330460D01*
X43079760Y-33712159D01*
X43082013Y-33717598D01*
X43260641Y-33896227D01*
X43494030Y-33992900D01*
X43709590Y-33992900D01*
X43868340Y-33834150D01*
X43868340Y-33084900D01*
X43848340Y-33084900D01*
X43848340Y-32994600D01*
X44142340Y-32994600D01*
X44142340Y-33084900D01*
G36*
X38804331Y-33379561D02*
X38843804Y-33578005D01*
X38954498Y-33743669D01*
X39008985Y-33825215D01*
X39160360Y-33976590D01*
X39160360Y-34131351D01*
X38955490Y-33991369D01*
X38703600Y-33940360D01*
X38030146Y-33940360D01*
X38000998Y-33793821D01*
X37827558Y-33534250D01*
X37170448Y-32877140D01*
X37279582Y-32877140D01*
X37279582Y-32718392D01*
X37438330Y-32877140D01*
X37653890Y-32877140D01*
X37887279Y-32780467D01*
X38046258Y-32621488D01*
X38804331Y-33379561D01*
X38804331Y-33379561D01*
G37*
X38804331Y-33379561D02*
X38843804Y-33578005D01*
X38954498Y-33743669D01*
X39008985Y-33825215D01*
X39160360Y-33976590D01*
X39160360Y-34131351D01*
X38955490Y-33991369D01*
X38703600Y-33940360D01*
X38030146Y-33940360D01*
X38000998Y-33793821D01*
X37827558Y-33534250D01*
X37170448Y-32877140D01*
X37279582Y-32877140D01*
X37279582Y-32718392D01*
X37438330Y-32877140D01*
X37653890Y-32877140D01*
X37887279Y-32780467D01*
X38046258Y-32621488D01*
X38804331Y-33379561D01*
G36*
X41166277Y-31748040D02*
X41196604Y-31778367D01*
X41196604Y-31804591D01*
X41355354Y-31963341D01*
X41421555Y-31963341D01*
X41353324Y-32065455D01*
X41295320Y-32357060D01*
X41295320Y-33024903D01*
X41230879Y-33066370D01*
X41113777Y-33237755D01*
X41021890Y-33094959D01*
X40809690Y-32949969D01*
X40557800Y-32898960D01*
X40280671Y-32898960D01*
X40251796Y-32753795D01*
X40116106Y-32550721D01*
X40237901Y-32429139D01*
X40387091Y-32069850D01*
X40387235Y-31904912D01*
X40523274Y-31961261D01*
X40525354Y-31963341D01*
X40783854Y-31963341D01*
X40785934Y-31961261D01*
X41014302Y-31866668D01*
X41156510Y-31724461D01*
X41166277Y-31748040D01*
X41166277Y-31748040D01*
G37*
X41166277Y-31748040D02*
X41196604Y-31778367D01*
X41196604Y-31804591D01*
X41355354Y-31963341D01*
X41421555Y-31963341D01*
X41353324Y-32065455D01*
X41295320Y-32357060D01*
X41295320Y-33024903D01*
X41230879Y-33066370D01*
X41113777Y-33237755D01*
X41021890Y-33094959D01*
X40809690Y-32949969D01*
X40557800Y-32898960D01*
X40280671Y-32898960D01*
X40251796Y-32753795D01*
X40116106Y-32550721D01*
X40237901Y-32429139D01*
X40387091Y-32069850D01*
X40387235Y-31904912D01*
X40523274Y-31961261D01*
X40525354Y-31963341D01*
X40783854Y-31963341D01*
X40785934Y-31961261D01*
X41014302Y-31866668D01*
X41156510Y-31724461D01*
X41166277Y-31748040D01*
G36*
X47238920Y-30252071D02*
X47238920Y-30516783D01*
X47174479Y-30558250D01*
X47029489Y-30770450D01*
X46978480Y-31022340D01*
X46978480Y-31822340D01*
X47022758Y-32057657D01*
X47096540Y-32172318D01*
X47029489Y-32270450D01*
X46978480Y-32522340D01*
X46978480Y-32896049D01*
X45776215Y-31693785D01*
X45673337Y-31625044D01*
X45529005Y-31528604D01*
X45237400Y-31470600D01*
X45017780Y-31470600D01*
X45017780Y-31057900D01*
X44973502Y-30822583D01*
X44863990Y-30652396D01*
X44864672Y-30651397D01*
X45025941Y-30812667D01*
X45259330Y-30909340D01*
X45474890Y-30909340D01*
X45633640Y-30750590D01*
X45633640Y-30001340D01*
X45887640Y-30001340D01*
X45887640Y-30750590D01*
X46046390Y-30909340D01*
X46261950Y-30909340D01*
X46495339Y-30812667D01*
X46673967Y-30634038D01*
X46770640Y-30400649D01*
X46770640Y-30160090D01*
X46611890Y-30001340D01*
X45887640Y-30001340D01*
X45633640Y-30001340D01*
X45613640Y-30001340D01*
X45613640Y-29837380D01*
X46824230Y-29837380D01*
X47238920Y-30252071D01*
X47238920Y-30252071D01*
G37*
X47238920Y-30252071D02*
X47238920Y-30516783D01*
X47174479Y-30558250D01*
X47029489Y-30770450D01*
X46978480Y-31022340D01*
X46978480Y-31822340D01*
X47022758Y-32057657D01*
X47096540Y-32172318D01*
X47029489Y-32270450D01*
X46978480Y-32522340D01*
X46978480Y-32896049D01*
X45776215Y-31693785D01*
X45673337Y-31625044D01*
X45529005Y-31528604D01*
X45237400Y-31470600D01*
X45017780Y-31470600D01*
X45017780Y-31057900D01*
X44973502Y-30822583D01*
X44863990Y-30652396D01*
X44864672Y-30651397D01*
X45025941Y-30812667D01*
X45259330Y-30909340D01*
X45474890Y-30909340D01*
X45633640Y-30750590D01*
X45633640Y-30001340D01*
X45887640Y-30001340D01*
X45887640Y-30750590D01*
X46046390Y-30909340D01*
X46261950Y-30909340D01*
X46495339Y-30812667D01*
X46673967Y-30634038D01*
X46770640Y-30400649D01*
X46770640Y-30160090D01*
X46611890Y-30001340D01*
X45887640Y-30001340D01*
X45633640Y-30001340D01*
X45613640Y-30001340D01*
X45613640Y-29837380D01*
X46824230Y-29837380D01*
X47238920Y-30252071D01*
G36*
X50160300Y-27933650D02*
X50319050Y-28092400D01*
X51168300Y-28092400D01*
X51168300Y-28072400D01*
X51422300Y-28072400D01*
X51422300Y-28092400D01*
X51442300Y-28092400D01*
X51442300Y-28346400D01*
X51422300Y-28346400D01*
X51422300Y-28366400D01*
X51168300Y-28366400D01*
X51168300Y-28346400D01*
X50319050Y-28346400D01*
X50160300Y-28505150D01*
X50160300Y-30095710D01*
X50256973Y-30329099D01*
X50435602Y-30507727D01*
X50668991Y-30604400D01*
X50729775Y-30604400D01*
X50598273Y-30735901D01*
X50501600Y-30969290D01*
X50501600Y-31184850D01*
X50660350Y-31343600D01*
X51409600Y-31343600D01*
X51409600Y-31323600D01*
X51663600Y-31323600D01*
X51663600Y-31343600D01*
X51683600Y-31343600D01*
X51683600Y-31541364D01*
X51607364Y-31617600D01*
X51409600Y-31617600D01*
X51409600Y-31597600D01*
X50660350Y-31597600D01*
X50501600Y-31756350D01*
X50501600Y-31971910D01*
X50598273Y-32205299D01*
X50663675Y-32270701D01*
X50558767Y-32270701D01*
X50558869Y-32153237D01*
X50410307Y-31793688D01*
X50135459Y-31518360D01*
X49776170Y-31369170D01*
X49387137Y-31368831D01*
X49130911Y-31474701D01*
X49023360Y-31367149D01*
X49023360Y-31022340D01*
X48979082Y-30787023D01*
X48840010Y-30570899D01*
X48762920Y-30518226D01*
X48762920Y-29936440D01*
X48704916Y-29644835D01*
X48619526Y-29517040D01*
X48539736Y-29397625D01*
X47966732Y-28824622D01*
X48094730Y-28516370D01*
X48095069Y-28127337D01*
X47946507Y-27767788D01*
X47671659Y-27492460D01*
X47312370Y-27343270D01*
X46923337Y-27342931D01*
X46563788Y-27491493D01*
X46559716Y-27495558D01*
X46387530Y-27377909D01*
X46135640Y-27326900D01*
X45385640Y-27326900D01*
X45150323Y-27371178D01*
X44934199Y-27510250D01*
X44886666Y-27579816D01*
X44834430Y-27498639D01*
X44622230Y-27353649D01*
X44618036Y-27352800D01*
X45351636Y-26619200D01*
X50160300Y-26619200D01*
X50160300Y-27933650D01*
X50160300Y-27933650D01*
G37*
X50160300Y-27933650D02*
X50319050Y-28092400D01*
X51168300Y-28092400D01*
X51168300Y-28072400D01*
X51422300Y-28072400D01*
X51422300Y-28092400D01*
X51442300Y-28092400D01*
X51442300Y-28346400D01*
X51422300Y-28346400D01*
X51422300Y-28366400D01*
X51168300Y-28366400D01*
X51168300Y-28346400D01*
X50319050Y-28346400D01*
X50160300Y-28505150D01*
X50160300Y-30095710D01*
X50256973Y-30329099D01*
X50435602Y-30507727D01*
X50668991Y-30604400D01*
X50729775Y-30604400D01*
X50598273Y-30735901D01*
X50501600Y-30969290D01*
X50501600Y-31184850D01*
X50660350Y-31343600D01*
X51409600Y-31343600D01*
X51409600Y-31323600D01*
X51663600Y-31323600D01*
X51663600Y-31343600D01*
X51683600Y-31343600D01*
X51683600Y-31541364D01*
X51607364Y-31617600D01*
X51409600Y-31617600D01*
X51409600Y-31597600D01*
X50660350Y-31597600D01*
X50501600Y-31756350D01*
X50501600Y-31971910D01*
X50598273Y-32205299D01*
X50663675Y-32270701D01*
X50558767Y-32270701D01*
X50558869Y-32153237D01*
X50410307Y-31793688D01*
X50135459Y-31518360D01*
X49776170Y-31369170D01*
X49387137Y-31368831D01*
X49130911Y-31474701D01*
X49023360Y-31367149D01*
X49023360Y-31022340D01*
X48979082Y-30787023D01*
X48840010Y-30570899D01*
X48762920Y-30518226D01*
X48762920Y-29936440D01*
X48704916Y-29644835D01*
X48619526Y-29517040D01*
X48539736Y-29397625D01*
X47966732Y-28824622D01*
X48094730Y-28516370D01*
X48095069Y-28127337D01*
X47946507Y-27767788D01*
X47671659Y-27492460D01*
X47312370Y-27343270D01*
X46923337Y-27342931D01*
X46563788Y-27491493D01*
X46559716Y-27495558D01*
X46387530Y-27377909D01*
X46135640Y-27326900D01*
X45385640Y-27326900D01*
X45150323Y-27371178D01*
X44934199Y-27510250D01*
X44886666Y-27579816D01*
X44834430Y-27498639D01*
X44622230Y-27353649D01*
X44618036Y-27352800D01*
X45351636Y-26619200D01*
X50160300Y-26619200D01*
X50160300Y-27933650D01*
G36*
X37299580Y-31802432D02*
X37299580Y-31969140D01*
X37279580Y-31969140D01*
X37279580Y-31989140D01*
X37025580Y-31989140D01*
X37025580Y-31969140D01*
X37005580Y-31969140D01*
X37005580Y-31715140D01*
X37025580Y-31715140D01*
X37025580Y-31695140D01*
X37192475Y-31695140D01*
X37299580Y-31802432D01*
X37299580Y-31802432D01*
G37*
X37299580Y-31802432D02*
X37299580Y-31969140D01*
X37279580Y-31969140D01*
X37279580Y-31989140D01*
X37025580Y-31989140D01*
X37025580Y-31969140D01*
X37005580Y-31969140D01*
X37005580Y-31715140D01*
X37025580Y-31715140D01*
X37025580Y-31695140D01*
X37192475Y-31695140D01*
X37299580Y-31802432D01*
G36*
X36556860Y-25067900D02*
X36601138Y-25303217D01*
X36740210Y-25519341D01*
X36952410Y-25664331D01*
X37204300Y-25715340D01*
X38804300Y-25715340D01*
X39039617Y-25671062D01*
X39153596Y-25597718D01*
X39165973Y-25627598D01*
X39344601Y-25806227D01*
X39577990Y-25902900D01*
X39645550Y-25902900D01*
X39777298Y-25771152D01*
X39777298Y-25902900D01*
X39790726Y-25902900D01*
X39714502Y-25934473D01*
X39535873Y-26113101D01*
X39439200Y-26346490D01*
X39439200Y-26562050D01*
X39597950Y-26720800D01*
X40347200Y-26720800D01*
X40347200Y-26700800D01*
X40601200Y-26700800D01*
X40601200Y-26720800D01*
X40621200Y-26720800D01*
X40621200Y-26974800D01*
X40601200Y-26974800D01*
X40601200Y-26994800D01*
X40347200Y-26994800D01*
X40347200Y-26974800D01*
X39597950Y-26974800D01*
X39439200Y-27133550D01*
X39439200Y-27311188D01*
X39230789Y-27450444D01*
X38688848Y-27992385D01*
X38634650Y-28073499D01*
X38383976Y-27822825D01*
X38315228Y-27776889D01*
X38136766Y-27657644D01*
X38079177Y-27646189D01*
X38064251Y-27622994D01*
X38065907Y-27621338D01*
X38162580Y-27387949D01*
X38162580Y-27147390D01*
X38003830Y-26988640D01*
X37279580Y-26988640D01*
X37279580Y-27008640D01*
X37025580Y-27008640D01*
X37025580Y-26988640D01*
X36301330Y-26988640D01*
X36142580Y-27147390D01*
X36142580Y-27187868D01*
X36083240Y-27128528D01*
X36083240Y-26335331D01*
X36142580Y-26335331D01*
X36142580Y-26575890D01*
X36301330Y-26734640D01*
X37025580Y-26734640D01*
X37025580Y-25985390D01*
X37279580Y-25985390D01*
X37279580Y-26734640D01*
X38003830Y-26734640D01*
X38162580Y-26575890D01*
X38162580Y-26335331D01*
X38065907Y-26101942D01*
X37887279Y-25923313D01*
X37653890Y-25826640D01*
X37438330Y-25826640D01*
X37279580Y-25985390D01*
X37025580Y-25985390D01*
X36866830Y-25826640D01*
X36651270Y-25826640D01*
X36417881Y-25923313D01*
X36239253Y-26101942D01*
X36142580Y-26335331D01*
X36083240Y-26335331D01*
X36083240Y-25738409D01*
X36134631Y-25705340D01*
X36279621Y-25493140D01*
X36330630Y-25241250D01*
X36330630Y-24441150D01*
X36286352Y-24205833D01*
X36180349Y-24041100D01*
X36556860Y-24041100D01*
X36556860Y-25067900D01*
X36556860Y-25067900D01*
G37*
X36556860Y-25067900D02*
X36601138Y-25303217D01*
X36740210Y-25519341D01*
X36952410Y-25664331D01*
X37204300Y-25715340D01*
X38804300Y-25715340D01*
X39039617Y-25671062D01*
X39153596Y-25597718D01*
X39165973Y-25627598D01*
X39344601Y-25806227D01*
X39577990Y-25902900D01*
X39645550Y-25902900D01*
X39777298Y-25771152D01*
X39777298Y-25902900D01*
X39790726Y-25902900D01*
X39714502Y-25934473D01*
X39535873Y-26113101D01*
X39439200Y-26346490D01*
X39439200Y-26562050D01*
X39597950Y-26720800D01*
X40347200Y-26720800D01*
X40347200Y-26700800D01*
X40601200Y-26700800D01*
X40601200Y-26720800D01*
X40621200Y-26720800D01*
X40621200Y-26974800D01*
X40601200Y-26974800D01*
X40601200Y-26994800D01*
X40347200Y-26994800D01*
X40347200Y-26974800D01*
X39597950Y-26974800D01*
X39439200Y-27133550D01*
X39439200Y-27311188D01*
X39230789Y-27450444D01*
X38688848Y-27992385D01*
X38634650Y-28073499D01*
X38383976Y-27822825D01*
X38315228Y-27776889D01*
X38136766Y-27657644D01*
X38079177Y-27646189D01*
X38064251Y-27622994D01*
X38065907Y-27621338D01*
X38162580Y-27387949D01*
X38162580Y-27147390D01*
X38003830Y-26988640D01*
X37279580Y-26988640D01*
X37279580Y-27008640D01*
X37025580Y-27008640D01*
X37025580Y-26988640D01*
X36301330Y-26988640D01*
X36142580Y-27147390D01*
X36142580Y-27187868D01*
X36083240Y-27128528D01*
X36083240Y-26335331D01*
X36142580Y-26335331D01*
X36142580Y-26575890D01*
X36301330Y-26734640D01*
X37025580Y-26734640D01*
X37025580Y-25985390D01*
X37279580Y-25985390D01*
X37279580Y-26734640D01*
X38003830Y-26734640D01*
X38162580Y-26575890D01*
X38162580Y-26335331D01*
X38065907Y-26101942D01*
X37887279Y-25923313D01*
X37653890Y-25826640D01*
X37438330Y-25826640D01*
X37279580Y-25985390D01*
X37025580Y-25985390D01*
X36866830Y-25826640D01*
X36651270Y-25826640D01*
X36417881Y-25923313D01*
X36239253Y-26101942D01*
X36142580Y-26335331D01*
X36083240Y-26335331D01*
X36083240Y-25738409D01*
X36134631Y-25705340D01*
X36279621Y-25493140D01*
X36330630Y-25241250D01*
X36330630Y-24441150D01*
X36286352Y-24205833D01*
X36180349Y-24041100D01*
X36556860Y-24041100D01*
X36556860Y-25067900D01*
G36*
X33751538Y-22856150D02*
X33569910Y-22856150D01*
X33411160Y-23014900D01*
X33411160Y-23764200D01*
X34160460Y-23764200D01*
X34319210Y-23605450D01*
X34319210Y-23423822D01*
X34483040Y-23587652D01*
X34483040Y-23943991D01*
X34431649Y-23977060D01*
X34304869Y-24162609D01*
X34160460Y-24018200D01*
X33411160Y-24018200D01*
X33411160Y-24038200D01*
X33157160Y-24038200D01*
X33157160Y-24018200D01*
X32407860Y-24018200D01*
X32249110Y-24176950D01*
X32249110Y-24417559D01*
X32345783Y-24650948D01*
X32524411Y-24829577D01*
X32560762Y-24844634D01*
X32432669Y-24927060D01*
X32287679Y-25139260D01*
X32236670Y-25391150D01*
X32236670Y-26191250D01*
X32280948Y-26426567D01*
X32297056Y-26451600D01*
X30329927Y-26451600D01*
X30124215Y-26143730D01*
X29809434Y-25933400D01*
X30124215Y-25723070D01*
X30308638Y-25447062D01*
X30532185Y-25402596D01*
X30791756Y-25229156D01*
X32332286Y-23688626D01*
X32407860Y-23764200D01*
X33157160Y-23764200D01*
X33157160Y-23014900D01*
X33081586Y-22939326D01*
X33224412Y-22796500D01*
X33691888Y-22796500D01*
X33751538Y-22856150D01*
X33751538Y-22856150D01*
G37*
X33751538Y-22856150D02*
X33569910Y-22856150D01*
X33411160Y-23014900D01*
X33411160Y-23764200D01*
X34160460Y-23764200D01*
X34319210Y-23605450D01*
X34319210Y-23423822D01*
X34483040Y-23587652D01*
X34483040Y-23943991D01*
X34431649Y-23977060D01*
X34304869Y-24162609D01*
X34160460Y-24018200D01*
X33411160Y-24018200D01*
X33411160Y-24038200D01*
X33157160Y-24038200D01*
X33157160Y-24018200D01*
X32407860Y-24018200D01*
X32249110Y-24176950D01*
X32249110Y-24417559D01*
X32345783Y-24650948D01*
X32524411Y-24829577D01*
X32560762Y-24844634D01*
X32432669Y-24927060D01*
X32287679Y-25139260D01*
X32236670Y-25391150D01*
X32236670Y-26191250D01*
X32280948Y-26426567D01*
X32297056Y-26451600D01*
X30329927Y-26451600D01*
X30124215Y-26143730D01*
X29809434Y-25933400D01*
X30124215Y-25723070D01*
X30308638Y-25447062D01*
X30532185Y-25402596D01*
X30791756Y-25229156D01*
X32332286Y-23688626D01*
X32407860Y-23764200D01*
X33157160Y-23764200D01*
X33157160Y-23014900D01*
X33081586Y-22939326D01*
X33224412Y-22796500D01*
X33691888Y-22796500D01*
X33751538Y-22856150D01*
D29*
X49503755Y-31512236D03*
X33070800Y-22758400D03*
X32245300Y-24218900D03*
X42087800Y-38379400D03*
X38684512Y-33553400D03*
X50012600Y-28219400D03*
X39904300Y-25831800D03*
X38989000Y-26949400D03*
X43119040Y-33850580D03*
X37152580Y-25895300D03*
X46860460Y-29911040D03*
X40678100Y-30162500D03*
X40678100Y-31346140D03*
X40678100Y-28928060D03*
X50393600Y-31496000D03*
X38019254Y-31139195D03*
X47117000Y-28321000D03*
X39409361Y-31874480D03*
X38120262Y-30307091D03*
X36601400Y-34417000D03*
X43510200Y-35331400D03*
X38008700Y-29446684D03*
X49580800Y-32346900D03*
X54025800Y-32918400D03*
D30*
X28879800Y-22123400D03*
X28879800Y-24663400D03*
X28879800Y-27203400D03*
X28879800Y-29743400D03*
X28879800Y-32283400D03*
X28879800Y-34823400D03*
X28879800Y-37363400D03*
X44754300Y-21917900D03*
X37654300Y-21917900D03*
X59359800Y-22123400D03*
X59359800Y-24663400D03*
X59359800Y-27203400D03*
X59359800Y-29743400D03*
X59359800Y-32283400D03*
X59359800Y-34823400D03*
X59359800Y-37363400D03*
X34135060Y-31333440D03*
X34135060Y-33873440D03*
X34135060Y-36413440D03*
X50065940Y-36177220D03*
X52555140Y-36177220D03*
X47576740Y-36177220D03*
M02*
