%TF.GenerationSoftware,KiCad,Pcbnew,4.0.5-e0-6337~49~ubuntu16.04.1*%
%TF.CreationDate,2017-07-21T11:10:54-07:00*%
%TF.ProjectId,stns01-battery-mgmt-breakout,73746E7330312D626174746572792D6D,1.0*%
%TF.FileFunction,Copper,L2,Bot,Signal*%
%FSLAX46Y46*%
G04 Gerber Fmt 4.6, Leading zero omitted, Abs format (unit mm)*
G04 Created by KiCad (PCBNEW 4.0.5-e0-6337~49~ubuntu16.04.1) date Fri Jul 21 11:10:54 2017*
%MOMM*%
%LPD*%
G01*
G04 APERTURE LIST*
%ADD10C,0.350000*%
%ADD11R,2.032000X1.727200*%
%ADD12O,2.032000X1.727200*%
%ADD13C,1.200000*%
%ADD14C,1.524000*%
%ADD15C,0.685800*%
%ADD16C,0.254000*%
%ADD17C,0.330200*%
%ADD18C,0.350000*%
G04 APERTURE END LIST*
D10*
D11*
X114300000Y-104140000D03*
D12*
X114300000Y-106680000D03*
X114300000Y-109220000D03*
X114300000Y-111760000D03*
X114300000Y-114300000D03*
X114300000Y-116840000D03*
X114300000Y-119380000D03*
D13*
X130174500Y-103934500D03*
X123074500Y-103934500D03*
D11*
X144780000Y-104140000D03*
D12*
X144780000Y-106680000D03*
X144780000Y-109220000D03*
X144780000Y-111760000D03*
X144780000Y-114300000D03*
X144780000Y-116840000D03*
X144780000Y-119380000D03*
D11*
X119555260Y-113350040D03*
D12*
X119555260Y-115890040D03*
X119555260Y-118430040D03*
D14*
X135486140Y-118193820D03*
X137975340Y-118193820D03*
X132996940Y-118193820D03*
D15*
X134923955Y-113528836D03*
X118491000Y-104775000D03*
X117665500Y-106235500D03*
X127508000Y-120396000D03*
X124104712Y-115570000D03*
X135432800Y-110236000D03*
X125324500Y-107848400D03*
X124409200Y-108966000D03*
X128539240Y-115867180D03*
X122572780Y-107911900D03*
X132280660Y-111927640D03*
X126098300Y-112179100D03*
X126098300Y-113362740D03*
X126098300Y-110944660D03*
X135813800Y-113512600D03*
X123439454Y-113155795D03*
X132537200Y-110337600D03*
X124829561Y-113891080D03*
X123540462Y-112323691D03*
X122021600Y-116433600D03*
X128930400Y-117348000D03*
X123428900Y-111463284D03*
X135001000Y-114363500D03*
X139446000Y-114935000D03*
D16*
X134940191Y-113512600D02*
X134923955Y-113528836D01*
X135813800Y-113512600D02*
X134940191Y-113512600D01*
X126088140Y-110944660D02*
X126088140Y-113352580D01*
X126088140Y-113352580D02*
X126077980Y-113362740D01*
X119888000Y-113017300D02*
X119555260Y-113350040D01*
X123439454Y-113155795D02*
X122946654Y-113155795D01*
X122946654Y-113155795D02*
X121609408Y-114493041D01*
X121609408Y-114493041D02*
X117033041Y-114493041D01*
X117033041Y-114493041D02*
X116840000Y-114300000D01*
X116840000Y-114300000D02*
X115570000Y-114300000D01*
X115570000Y-114300000D02*
X114300000Y-114300000D01*
X133654800Y-109220000D02*
X144780000Y-109220000D01*
X132537200Y-110337600D02*
X133654800Y-109220000D01*
X115570000Y-116840000D02*
X114300000Y-116840000D01*
X115570000Y-116840000D02*
X116840000Y-116840000D01*
X116840000Y-116840000D02*
X117033050Y-117033050D01*
X120202950Y-117033050D02*
X121056400Y-116179600D01*
X117033050Y-117033050D02*
X120202950Y-117033050D01*
X121056400Y-116179600D02*
X121056400Y-115722400D01*
X122885200Y-113893600D02*
X124342108Y-113893600D01*
X124344628Y-113891080D02*
X124829561Y-113891080D01*
X121056400Y-115722400D02*
X122885200Y-113893600D01*
X124342108Y-113893600D02*
X124344628Y-113891080D01*
X115570000Y-111760000D02*
X114300000Y-111760000D01*
X122725489Y-111760000D02*
X115570000Y-111760000D01*
X122725489Y-111760000D02*
X123289180Y-112323691D01*
X123289180Y-112323691D02*
X123540462Y-112323691D01*
X144627600Y-111760000D02*
X144780000Y-111760000D01*
X122021600Y-116433600D02*
X128016000Y-116433600D01*
X128016000Y-116433600D02*
X128930400Y-117348000D01*
X139446000Y-114935000D02*
X138874500Y-114363500D01*
X138874500Y-114363500D02*
X135001000Y-114363500D01*
G36*
X149676516Y-102414945D02*
X150059292Y-102670710D01*
X150315055Y-103053484D01*
X150418800Y-103575049D01*
X150418800Y-121214951D01*
X150315055Y-121736516D01*
X150059292Y-122119290D01*
X149676516Y-122375055D01*
X149154951Y-122478800D01*
X109925049Y-122478800D01*
X109403484Y-122375055D01*
X109020710Y-122119292D01*
X108764945Y-121736516D01*
X108661200Y-121214951D01*
X108661200Y-106680000D01*
X112616655Y-106680000D01*
X112730729Y-107253489D01*
X113055585Y-107739670D01*
X113370366Y-107950000D01*
X113055585Y-108160330D01*
X112730729Y-108646511D01*
X112616655Y-109220000D01*
X112730729Y-109793489D01*
X113055585Y-110279670D01*
X113370366Y-110490000D01*
X113055585Y-110700330D01*
X112730729Y-111186511D01*
X112616655Y-111760000D01*
X112730729Y-112333489D01*
X113055585Y-112819670D01*
X113370366Y-113030000D01*
X113055585Y-113240330D01*
X112730729Y-113726511D01*
X112616655Y-114300000D01*
X112730729Y-114873489D01*
X113055585Y-115359670D01*
X113370366Y-115570000D01*
X113055585Y-115780330D01*
X112730729Y-116266511D01*
X112616655Y-116840000D01*
X112730729Y-117413489D01*
X113055585Y-117899670D01*
X113370366Y-118110000D01*
X113055585Y-118320330D01*
X112730729Y-118806511D01*
X112616655Y-119380000D01*
X112730729Y-119953489D01*
X113055585Y-120439670D01*
X113541766Y-120764526D01*
X114115255Y-120878600D01*
X114484745Y-120878600D01*
X115058234Y-120764526D01*
X115544415Y-120439670D01*
X115869271Y-119953489D01*
X115983345Y-119380000D01*
X115869271Y-118806511D01*
X115544415Y-118320330D01*
X115229634Y-118110000D01*
X115544415Y-117899670D01*
X115743312Y-117602000D01*
X116539335Y-117602000D01*
X116741445Y-117737046D01*
X117033050Y-117795050D01*
X118027083Y-117795050D01*
X117985989Y-117856551D01*
X117871915Y-118430040D01*
X117985989Y-119003529D01*
X118310845Y-119489710D01*
X118797026Y-119814566D01*
X119370515Y-119928640D01*
X119740005Y-119928640D01*
X120313494Y-119814566D01*
X120426547Y-119739026D01*
X143172642Y-119739026D01*
X143175291Y-119754791D01*
X143429268Y-120282036D01*
X143865680Y-120671954D01*
X144418087Y-120865184D01*
X144653000Y-120720924D01*
X144653000Y-119507000D01*
X144907000Y-119507000D01*
X144907000Y-120720924D01*
X145141913Y-120865184D01*
X145694320Y-120671954D01*
X146130732Y-120282036D01*
X146384709Y-119754791D01*
X146387358Y-119739026D01*
X146266217Y-119507000D01*
X144907000Y-119507000D01*
X144653000Y-119507000D01*
X143293783Y-119507000D01*
X143172642Y-119739026D01*
X120426547Y-119739026D01*
X120799675Y-119489710D01*
X121124531Y-119003529D01*
X121230560Y-118470481D01*
X131599698Y-118470481D01*
X131811930Y-118984123D01*
X132204570Y-119377449D01*
X132717840Y-119590577D01*
X133273601Y-119591062D01*
X133787243Y-119378830D01*
X134180569Y-118986190D01*
X134241426Y-118839629D01*
X134301130Y-118984123D01*
X134693770Y-119377449D01*
X135207040Y-119590577D01*
X135762801Y-119591062D01*
X136276443Y-119378830D01*
X136669769Y-118986190D01*
X136730626Y-118839629D01*
X136790330Y-118984123D01*
X137182970Y-119377449D01*
X137696240Y-119590577D01*
X138252001Y-119591062D01*
X138765643Y-119378830D01*
X139158969Y-118986190D01*
X139372097Y-118472920D01*
X139372582Y-117917159D01*
X139160350Y-117403517D01*
X138767710Y-117010191D01*
X138357844Y-116840000D01*
X143096655Y-116840000D01*
X143210729Y-117413489D01*
X143535585Y-117899670D01*
X143845069Y-118106461D01*
X143429268Y-118477964D01*
X143175291Y-119005209D01*
X143172642Y-119020974D01*
X143293783Y-119253000D01*
X144653000Y-119253000D01*
X144653000Y-119233000D01*
X144907000Y-119233000D01*
X144907000Y-119253000D01*
X146266217Y-119253000D01*
X146387358Y-119020974D01*
X146384709Y-119005209D01*
X146130732Y-118477964D01*
X145714931Y-118106461D01*
X146024415Y-117899670D01*
X146349271Y-117413489D01*
X146463345Y-116840000D01*
X146349271Y-116266511D01*
X146024415Y-115780330D01*
X145714931Y-115573539D01*
X146130732Y-115202036D01*
X146384709Y-114674791D01*
X146387358Y-114659026D01*
X146266217Y-114427000D01*
X144907000Y-114427000D01*
X144907000Y-114447000D01*
X144653000Y-114447000D01*
X144653000Y-114427000D01*
X143293783Y-114427000D01*
X143172642Y-114659026D01*
X143175291Y-114674791D01*
X143429268Y-115202036D01*
X143845069Y-115573539D01*
X143535585Y-115780330D01*
X143210729Y-116266511D01*
X143096655Y-116840000D01*
X138357844Y-116840000D01*
X138254440Y-116797063D01*
X137698679Y-116796578D01*
X137185037Y-117008810D01*
X136791711Y-117401450D01*
X136730854Y-117548011D01*
X136671150Y-117403517D01*
X136278510Y-117010191D01*
X135765240Y-116797063D01*
X135209479Y-116796578D01*
X134695837Y-117008810D01*
X134302511Y-117401450D01*
X134241654Y-117548011D01*
X134181950Y-117403517D01*
X133789310Y-117010191D01*
X133276040Y-116797063D01*
X132720279Y-116796578D01*
X132206637Y-117008810D01*
X131813311Y-117401450D01*
X131600183Y-117914720D01*
X131599698Y-118470481D01*
X121230560Y-118470481D01*
X121238605Y-118430040D01*
X121124531Y-117856551D01*
X120857187Y-117456443D01*
X121259397Y-117054234D01*
X121466941Y-117262140D01*
X121826230Y-117411330D01*
X122215263Y-117411669D01*
X122574812Y-117263107D01*
X122642437Y-117195600D01*
X127700370Y-117195600D01*
X127952413Y-117447643D01*
X127952331Y-117541663D01*
X128100893Y-117901212D01*
X128375741Y-118176540D01*
X128735030Y-118325730D01*
X129124063Y-118326069D01*
X129483612Y-118177507D01*
X129758940Y-117902659D01*
X129908130Y-117543370D01*
X129908469Y-117154337D01*
X129759907Y-116794788D01*
X129485059Y-116519460D01*
X129125770Y-116370270D01*
X129030217Y-116370187D01*
X128554815Y-115894785D01*
X128410864Y-115798600D01*
X128307605Y-115729604D01*
X128016000Y-115671600D01*
X122642683Y-115671600D01*
X122576259Y-115605060D01*
X122346694Y-115509736D01*
X123200831Y-114655600D01*
X124210994Y-114655600D01*
X124274902Y-114719620D01*
X124634191Y-114868810D01*
X125023224Y-114869149D01*
X125382773Y-114720587D01*
X125546482Y-114557163D01*
X134022931Y-114557163D01*
X134171493Y-114916712D01*
X134446341Y-115192040D01*
X134805630Y-115341230D01*
X135194663Y-115341569D01*
X135554212Y-115193007D01*
X135621837Y-115125500D01*
X138467934Y-115125500D01*
X138467931Y-115128663D01*
X138616493Y-115488212D01*
X138891341Y-115763540D01*
X139250630Y-115912730D01*
X139639663Y-115913069D01*
X139999212Y-115764507D01*
X140274540Y-115489659D01*
X140423730Y-115130370D01*
X140424069Y-114741337D01*
X140275507Y-114381788D01*
X140000659Y-114106460D01*
X139641370Y-113957270D01*
X139545817Y-113957187D01*
X139413315Y-113824685D01*
X139359976Y-113789045D01*
X139166105Y-113659504D01*
X138874500Y-113601500D01*
X135622083Y-113601500D01*
X135555659Y-113534960D01*
X135196370Y-113385770D01*
X134807337Y-113385431D01*
X134447788Y-113533993D01*
X134172460Y-113808841D01*
X134023270Y-114168130D01*
X134022931Y-114557163D01*
X125546482Y-114557163D01*
X125658101Y-114445739D01*
X125807291Y-114086450D01*
X125807630Y-113697417D01*
X125659068Y-113337868D01*
X125384220Y-113062540D01*
X125024931Y-112913350D01*
X124635898Y-112913011D01*
X124417487Y-113003256D01*
X124417523Y-112962132D01*
X124375971Y-112861567D01*
X124518192Y-112519061D01*
X124518531Y-112130028D01*
X124369969Y-111770479D01*
X124363067Y-111763565D01*
X124406630Y-111658654D01*
X124406969Y-111269621D01*
X124258407Y-110910072D01*
X123983559Y-110634744D01*
X123734350Y-110531263D01*
X131559131Y-110531263D01*
X131707693Y-110890812D01*
X131982541Y-111166140D01*
X132341830Y-111315330D01*
X132730863Y-111315669D01*
X133090412Y-111167107D01*
X133365740Y-110892259D01*
X133514930Y-110532970D01*
X133515013Y-110437417D01*
X133970430Y-109982000D01*
X143336688Y-109982000D01*
X143535585Y-110279670D01*
X143850366Y-110490000D01*
X143535585Y-110700330D01*
X143210729Y-111186511D01*
X143096655Y-111760000D01*
X143210729Y-112333489D01*
X143535585Y-112819670D01*
X143845069Y-113026461D01*
X143429268Y-113397964D01*
X143175291Y-113925209D01*
X143172642Y-113940974D01*
X143293783Y-114173000D01*
X144653000Y-114173000D01*
X144653000Y-114153000D01*
X144907000Y-114153000D01*
X144907000Y-114173000D01*
X146266217Y-114173000D01*
X146387358Y-113940974D01*
X146384709Y-113925209D01*
X146130732Y-113397964D01*
X145714931Y-113026461D01*
X146024415Y-112819670D01*
X146349271Y-112333489D01*
X146463345Y-111760000D01*
X146349271Y-111186511D01*
X146024415Y-110700330D01*
X145709634Y-110490000D01*
X146024415Y-110279670D01*
X146349271Y-109793489D01*
X146463345Y-109220000D01*
X146349271Y-108646511D01*
X146024415Y-108160330D01*
X145709634Y-107950000D01*
X146024415Y-107739670D01*
X146349271Y-107253489D01*
X146463345Y-106680000D01*
X146349271Y-106106511D01*
X146024415Y-105620330D01*
X146010087Y-105610757D01*
X146031317Y-105606762D01*
X146247441Y-105467690D01*
X146392431Y-105255490D01*
X146443440Y-105003600D01*
X146443440Y-103276400D01*
X146399162Y-103041083D01*
X146260090Y-102824959D01*
X146047890Y-102679969D01*
X145796000Y-102628960D01*
X143764000Y-102628960D01*
X143528683Y-102673238D01*
X143312559Y-102812310D01*
X143167569Y-103024510D01*
X143116560Y-103276400D01*
X143116560Y-105003600D01*
X143160838Y-105238917D01*
X143299910Y-105455041D01*
X143512110Y-105600031D01*
X143553439Y-105608400D01*
X143535585Y-105620330D01*
X143210729Y-106106511D01*
X143096655Y-106680000D01*
X143210729Y-107253489D01*
X143535585Y-107739670D01*
X143850366Y-107950000D01*
X143535585Y-108160330D01*
X143336688Y-108458000D01*
X133654800Y-108458000D01*
X133363195Y-108516004D01*
X133115985Y-108681185D01*
X132437557Y-109359613D01*
X132343537Y-109359531D01*
X131983988Y-109508093D01*
X131708660Y-109782941D01*
X131559470Y-110142230D01*
X131559131Y-110531263D01*
X123734350Y-110531263D01*
X123624270Y-110485554D01*
X123235237Y-110485215D01*
X122875688Y-110633777D01*
X122600360Y-110908625D01*
X122563248Y-110998000D01*
X115743312Y-110998000D01*
X115544415Y-110700330D01*
X115229634Y-110490000D01*
X115544415Y-110279670D01*
X115869271Y-109793489D01*
X115983345Y-109220000D01*
X115869271Y-108646511D01*
X115544415Y-108160330D01*
X115229634Y-107950000D01*
X115544415Y-107739670D01*
X115869271Y-107253489D01*
X115983345Y-106680000D01*
X115869271Y-106106511D01*
X115544415Y-105620330D01*
X115530087Y-105610757D01*
X115551317Y-105606762D01*
X115767441Y-105467690D01*
X115912431Y-105255490D01*
X115963440Y-105003600D01*
X115963440Y-104179079D01*
X121839286Y-104179079D01*
X122026908Y-104633157D01*
X122374015Y-104980871D01*
X122827766Y-105169285D01*
X123319079Y-105169714D01*
X123773157Y-104982092D01*
X124120871Y-104634985D01*
X124309285Y-104181234D01*
X124309286Y-104179079D01*
X128939286Y-104179079D01*
X129126908Y-104633157D01*
X129474015Y-104980871D01*
X129927766Y-105169285D01*
X130419079Y-105169714D01*
X130873157Y-104982092D01*
X131220871Y-104634985D01*
X131409285Y-104181234D01*
X131409714Y-103689921D01*
X131222092Y-103235843D01*
X130874985Y-102888129D01*
X130421234Y-102699715D01*
X129929921Y-102699286D01*
X129475843Y-102886908D01*
X129128129Y-103234015D01*
X128939715Y-103687766D01*
X128939286Y-104179079D01*
X124309286Y-104179079D01*
X124309714Y-103689921D01*
X124122092Y-103235843D01*
X123774985Y-102888129D01*
X123321234Y-102699715D01*
X122829921Y-102699286D01*
X122375843Y-102886908D01*
X122028129Y-103234015D01*
X121839715Y-103687766D01*
X121839286Y-104179079D01*
X115963440Y-104179079D01*
X115963440Y-103276400D01*
X115919162Y-103041083D01*
X115780090Y-102824959D01*
X115567890Y-102679969D01*
X115316000Y-102628960D01*
X113284000Y-102628960D01*
X113048683Y-102673238D01*
X112832559Y-102812310D01*
X112687569Y-103024510D01*
X112636560Y-103276400D01*
X112636560Y-105003600D01*
X112680838Y-105238917D01*
X112819910Y-105455041D01*
X113032110Y-105600031D01*
X113073439Y-105608400D01*
X113055585Y-105620330D01*
X112730729Y-106106511D01*
X112616655Y-106680000D01*
X108661200Y-106680000D01*
X108661200Y-103575049D01*
X108764945Y-103053484D01*
X109020710Y-102670708D01*
X109403484Y-102414945D01*
X109925049Y-102311200D01*
X149154951Y-102311200D01*
X149676516Y-102414945D01*
X149676516Y-102414945D01*
G37*
X149676516Y-102414945D02*
X150059292Y-102670710D01*
X150315055Y-103053484D01*
X150418800Y-103575049D01*
X150418800Y-121214951D01*
X150315055Y-121736516D01*
X150059292Y-122119290D01*
X149676516Y-122375055D01*
X149154951Y-122478800D01*
X109925049Y-122478800D01*
X109403484Y-122375055D01*
X109020710Y-122119292D01*
X108764945Y-121736516D01*
X108661200Y-121214951D01*
X108661200Y-106680000D01*
X112616655Y-106680000D01*
X112730729Y-107253489D01*
X113055585Y-107739670D01*
X113370366Y-107950000D01*
X113055585Y-108160330D01*
X112730729Y-108646511D01*
X112616655Y-109220000D01*
X112730729Y-109793489D01*
X113055585Y-110279670D01*
X113370366Y-110490000D01*
X113055585Y-110700330D01*
X112730729Y-111186511D01*
X112616655Y-111760000D01*
X112730729Y-112333489D01*
X113055585Y-112819670D01*
X113370366Y-113030000D01*
X113055585Y-113240330D01*
X112730729Y-113726511D01*
X112616655Y-114300000D01*
X112730729Y-114873489D01*
X113055585Y-115359670D01*
X113370366Y-115570000D01*
X113055585Y-115780330D01*
X112730729Y-116266511D01*
X112616655Y-116840000D01*
X112730729Y-117413489D01*
X113055585Y-117899670D01*
X113370366Y-118110000D01*
X113055585Y-118320330D01*
X112730729Y-118806511D01*
X112616655Y-119380000D01*
X112730729Y-119953489D01*
X113055585Y-120439670D01*
X113541766Y-120764526D01*
X114115255Y-120878600D01*
X114484745Y-120878600D01*
X115058234Y-120764526D01*
X115544415Y-120439670D01*
X115869271Y-119953489D01*
X115983345Y-119380000D01*
X115869271Y-118806511D01*
X115544415Y-118320330D01*
X115229634Y-118110000D01*
X115544415Y-117899670D01*
X115743312Y-117602000D01*
X116539335Y-117602000D01*
X116741445Y-117737046D01*
X117033050Y-117795050D01*
X118027083Y-117795050D01*
X117985989Y-117856551D01*
X117871915Y-118430040D01*
X117985989Y-119003529D01*
X118310845Y-119489710D01*
X118797026Y-119814566D01*
X119370515Y-119928640D01*
X119740005Y-119928640D01*
X120313494Y-119814566D01*
X120426547Y-119739026D01*
X143172642Y-119739026D01*
X143175291Y-119754791D01*
X143429268Y-120282036D01*
X143865680Y-120671954D01*
X144418087Y-120865184D01*
X144653000Y-120720924D01*
X144653000Y-119507000D01*
X144907000Y-119507000D01*
X144907000Y-120720924D01*
X145141913Y-120865184D01*
X145694320Y-120671954D01*
X146130732Y-120282036D01*
X146384709Y-119754791D01*
X146387358Y-119739026D01*
X146266217Y-119507000D01*
X144907000Y-119507000D01*
X144653000Y-119507000D01*
X143293783Y-119507000D01*
X143172642Y-119739026D01*
X120426547Y-119739026D01*
X120799675Y-119489710D01*
X121124531Y-119003529D01*
X121230560Y-118470481D01*
X131599698Y-118470481D01*
X131811930Y-118984123D01*
X132204570Y-119377449D01*
X132717840Y-119590577D01*
X133273601Y-119591062D01*
X133787243Y-119378830D01*
X134180569Y-118986190D01*
X134241426Y-118839629D01*
X134301130Y-118984123D01*
X134693770Y-119377449D01*
X135207040Y-119590577D01*
X135762801Y-119591062D01*
X136276443Y-119378830D01*
X136669769Y-118986190D01*
X136730626Y-118839629D01*
X136790330Y-118984123D01*
X137182970Y-119377449D01*
X137696240Y-119590577D01*
X138252001Y-119591062D01*
X138765643Y-119378830D01*
X139158969Y-118986190D01*
X139372097Y-118472920D01*
X139372582Y-117917159D01*
X139160350Y-117403517D01*
X138767710Y-117010191D01*
X138357844Y-116840000D01*
X143096655Y-116840000D01*
X143210729Y-117413489D01*
X143535585Y-117899670D01*
X143845069Y-118106461D01*
X143429268Y-118477964D01*
X143175291Y-119005209D01*
X143172642Y-119020974D01*
X143293783Y-119253000D01*
X144653000Y-119253000D01*
X144653000Y-119233000D01*
X144907000Y-119233000D01*
X144907000Y-119253000D01*
X146266217Y-119253000D01*
X146387358Y-119020974D01*
X146384709Y-119005209D01*
X146130732Y-118477964D01*
X145714931Y-118106461D01*
X146024415Y-117899670D01*
X146349271Y-117413489D01*
X146463345Y-116840000D01*
X146349271Y-116266511D01*
X146024415Y-115780330D01*
X145714931Y-115573539D01*
X146130732Y-115202036D01*
X146384709Y-114674791D01*
X146387358Y-114659026D01*
X146266217Y-114427000D01*
X144907000Y-114427000D01*
X144907000Y-114447000D01*
X144653000Y-114447000D01*
X144653000Y-114427000D01*
X143293783Y-114427000D01*
X143172642Y-114659026D01*
X143175291Y-114674791D01*
X143429268Y-115202036D01*
X143845069Y-115573539D01*
X143535585Y-115780330D01*
X143210729Y-116266511D01*
X143096655Y-116840000D01*
X138357844Y-116840000D01*
X138254440Y-116797063D01*
X137698679Y-116796578D01*
X137185037Y-117008810D01*
X136791711Y-117401450D01*
X136730854Y-117548011D01*
X136671150Y-117403517D01*
X136278510Y-117010191D01*
X135765240Y-116797063D01*
X135209479Y-116796578D01*
X134695837Y-117008810D01*
X134302511Y-117401450D01*
X134241654Y-117548011D01*
X134181950Y-117403517D01*
X133789310Y-117010191D01*
X133276040Y-116797063D01*
X132720279Y-116796578D01*
X132206637Y-117008810D01*
X131813311Y-117401450D01*
X131600183Y-117914720D01*
X131599698Y-118470481D01*
X121230560Y-118470481D01*
X121238605Y-118430040D01*
X121124531Y-117856551D01*
X120857187Y-117456443D01*
X121259397Y-117054234D01*
X121466941Y-117262140D01*
X121826230Y-117411330D01*
X122215263Y-117411669D01*
X122574812Y-117263107D01*
X122642437Y-117195600D01*
X127700370Y-117195600D01*
X127952413Y-117447643D01*
X127952331Y-117541663D01*
X128100893Y-117901212D01*
X128375741Y-118176540D01*
X128735030Y-118325730D01*
X129124063Y-118326069D01*
X129483612Y-118177507D01*
X129758940Y-117902659D01*
X129908130Y-117543370D01*
X129908469Y-117154337D01*
X129759907Y-116794788D01*
X129485059Y-116519460D01*
X129125770Y-116370270D01*
X129030217Y-116370187D01*
X128554815Y-115894785D01*
X128410864Y-115798600D01*
X128307605Y-115729604D01*
X128016000Y-115671600D01*
X122642683Y-115671600D01*
X122576259Y-115605060D01*
X122346694Y-115509736D01*
X123200831Y-114655600D01*
X124210994Y-114655600D01*
X124274902Y-114719620D01*
X124634191Y-114868810D01*
X125023224Y-114869149D01*
X125382773Y-114720587D01*
X125546482Y-114557163D01*
X134022931Y-114557163D01*
X134171493Y-114916712D01*
X134446341Y-115192040D01*
X134805630Y-115341230D01*
X135194663Y-115341569D01*
X135554212Y-115193007D01*
X135621837Y-115125500D01*
X138467934Y-115125500D01*
X138467931Y-115128663D01*
X138616493Y-115488212D01*
X138891341Y-115763540D01*
X139250630Y-115912730D01*
X139639663Y-115913069D01*
X139999212Y-115764507D01*
X140274540Y-115489659D01*
X140423730Y-115130370D01*
X140424069Y-114741337D01*
X140275507Y-114381788D01*
X140000659Y-114106460D01*
X139641370Y-113957270D01*
X139545817Y-113957187D01*
X139413315Y-113824685D01*
X139359976Y-113789045D01*
X139166105Y-113659504D01*
X138874500Y-113601500D01*
X135622083Y-113601500D01*
X135555659Y-113534960D01*
X135196370Y-113385770D01*
X134807337Y-113385431D01*
X134447788Y-113533993D01*
X134172460Y-113808841D01*
X134023270Y-114168130D01*
X134022931Y-114557163D01*
X125546482Y-114557163D01*
X125658101Y-114445739D01*
X125807291Y-114086450D01*
X125807630Y-113697417D01*
X125659068Y-113337868D01*
X125384220Y-113062540D01*
X125024931Y-112913350D01*
X124635898Y-112913011D01*
X124417487Y-113003256D01*
X124417523Y-112962132D01*
X124375971Y-112861567D01*
X124518192Y-112519061D01*
X124518531Y-112130028D01*
X124369969Y-111770479D01*
X124363067Y-111763565D01*
X124406630Y-111658654D01*
X124406969Y-111269621D01*
X124258407Y-110910072D01*
X123983559Y-110634744D01*
X123734350Y-110531263D01*
X131559131Y-110531263D01*
X131707693Y-110890812D01*
X131982541Y-111166140D01*
X132341830Y-111315330D01*
X132730863Y-111315669D01*
X133090412Y-111167107D01*
X133365740Y-110892259D01*
X133514930Y-110532970D01*
X133515013Y-110437417D01*
X133970430Y-109982000D01*
X143336688Y-109982000D01*
X143535585Y-110279670D01*
X143850366Y-110490000D01*
X143535585Y-110700330D01*
X143210729Y-111186511D01*
X143096655Y-111760000D01*
X143210729Y-112333489D01*
X143535585Y-112819670D01*
X143845069Y-113026461D01*
X143429268Y-113397964D01*
X143175291Y-113925209D01*
X143172642Y-113940974D01*
X143293783Y-114173000D01*
X144653000Y-114173000D01*
X144653000Y-114153000D01*
X144907000Y-114153000D01*
X144907000Y-114173000D01*
X146266217Y-114173000D01*
X146387358Y-113940974D01*
X146384709Y-113925209D01*
X146130732Y-113397964D01*
X145714931Y-113026461D01*
X146024415Y-112819670D01*
X146349271Y-112333489D01*
X146463345Y-111760000D01*
X146349271Y-111186511D01*
X146024415Y-110700330D01*
X145709634Y-110490000D01*
X146024415Y-110279670D01*
X146349271Y-109793489D01*
X146463345Y-109220000D01*
X146349271Y-108646511D01*
X146024415Y-108160330D01*
X145709634Y-107950000D01*
X146024415Y-107739670D01*
X146349271Y-107253489D01*
X146463345Y-106680000D01*
X146349271Y-106106511D01*
X146024415Y-105620330D01*
X146010087Y-105610757D01*
X146031317Y-105606762D01*
X146247441Y-105467690D01*
X146392431Y-105255490D01*
X146443440Y-105003600D01*
X146443440Y-103276400D01*
X146399162Y-103041083D01*
X146260090Y-102824959D01*
X146047890Y-102679969D01*
X145796000Y-102628960D01*
X143764000Y-102628960D01*
X143528683Y-102673238D01*
X143312559Y-102812310D01*
X143167569Y-103024510D01*
X143116560Y-103276400D01*
X143116560Y-105003600D01*
X143160838Y-105238917D01*
X143299910Y-105455041D01*
X143512110Y-105600031D01*
X143553439Y-105608400D01*
X143535585Y-105620330D01*
X143210729Y-106106511D01*
X143096655Y-106680000D01*
X143210729Y-107253489D01*
X143535585Y-107739670D01*
X143850366Y-107950000D01*
X143535585Y-108160330D01*
X143336688Y-108458000D01*
X133654800Y-108458000D01*
X133363195Y-108516004D01*
X133115985Y-108681185D01*
X132437557Y-109359613D01*
X132343537Y-109359531D01*
X131983988Y-109508093D01*
X131708660Y-109782941D01*
X131559470Y-110142230D01*
X131559131Y-110531263D01*
X123734350Y-110531263D01*
X123624270Y-110485554D01*
X123235237Y-110485215D01*
X122875688Y-110633777D01*
X122600360Y-110908625D01*
X122563248Y-110998000D01*
X115743312Y-110998000D01*
X115544415Y-110700330D01*
X115229634Y-110490000D01*
X115544415Y-110279670D01*
X115869271Y-109793489D01*
X115983345Y-109220000D01*
X115869271Y-108646511D01*
X115544415Y-108160330D01*
X115229634Y-107950000D01*
X115544415Y-107739670D01*
X115869271Y-107253489D01*
X115983345Y-106680000D01*
X115869271Y-106106511D01*
X115544415Y-105620330D01*
X115530087Y-105610757D01*
X115551317Y-105606762D01*
X115767441Y-105467690D01*
X115912431Y-105255490D01*
X115963440Y-105003600D01*
X115963440Y-104179079D01*
X121839286Y-104179079D01*
X122026908Y-104633157D01*
X122374015Y-104980871D01*
X122827766Y-105169285D01*
X123319079Y-105169714D01*
X123773157Y-104982092D01*
X124120871Y-104634985D01*
X124309285Y-104181234D01*
X124309286Y-104179079D01*
X128939286Y-104179079D01*
X129126908Y-104633157D01*
X129474015Y-104980871D01*
X129927766Y-105169285D01*
X130419079Y-105169714D01*
X130873157Y-104982092D01*
X131220871Y-104634985D01*
X131409285Y-104181234D01*
X131409714Y-103689921D01*
X131222092Y-103235843D01*
X130874985Y-102888129D01*
X130421234Y-102699715D01*
X129929921Y-102699286D01*
X129475843Y-102886908D01*
X129128129Y-103234015D01*
X128939715Y-103687766D01*
X128939286Y-104179079D01*
X124309286Y-104179079D01*
X124309714Y-103689921D01*
X124122092Y-103235843D01*
X123774985Y-102888129D01*
X123321234Y-102699715D01*
X122829921Y-102699286D01*
X122375843Y-102886908D01*
X122028129Y-103234015D01*
X121839715Y-103687766D01*
X121839286Y-104179079D01*
X115963440Y-104179079D01*
X115963440Y-103276400D01*
X115919162Y-103041083D01*
X115780090Y-102824959D01*
X115567890Y-102679969D01*
X115316000Y-102628960D01*
X113284000Y-102628960D01*
X113048683Y-102673238D01*
X112832559Y-102812310D01*
X112687569Y-103024510D01*
X112636560Y-103276400D01*
X112636560Y-105003600D01*
X112680838Y-105238917D01*
X112819910Y-105455041D01*
X113032110Y-105600031D01*
X113073439Y-105608400D01*
X113055585Y-105620330D01*
X112730729Y-106106511D01*
X112616655Y-106680000D01*
X108661200Y-106680000D01*
X108661200Y-103575049D01*
X108764945Y-103053484D01*
X109020710Y-102670708D01*
X109403484Y-102414945D01*
X109925049Y-102311200D01*
X149154951Y-102311200D01*
X149676516Y-102414945D01*
D17*
X134923955Y-113528836D03*
X118491000Y-104775000D03*
X117665500Y-106235500D03*
X127508000Y-120396000D03*
X124104712Y-115570000D03*
X135432800Y-110236000D03*
X125324500Y-107848400D03*
X124409200Y-108966000D03*
X128539240Y-115867180D03*
X122572780Y-107911900D03*
X132280660Y-111927640D03*
X126098300Y-112179100D03*
X126098300Y-113362740D03*
X126098300Y-110944660D03*
X135813800Y-113512600D03*
X123439454Y-113155795D03*
X132537200Y-110337600D03*
X124829561Y-113891080D03*
X123540462Y-112323691D03*
X122021600Y-116433600D03*
X128930400Y-117348000D03*
X123428900Y-111463284D03*
X135001000Y-114363500D03*
X139446000Y-114935000D03*
D18*
X114300000Y-104140000D03*
X114300000Y-106680000D03*
X114300000Y-109220000D03*
X114300000Y-111760000D03*
X114300000Y-114300000D03*
X114300000Y-116840000D03*
X114300000Y-119380000D03*
X130174500Y-103934500D03*
X123074500Y-103934500D03*
X144780000Y-104140000D03*
X144780000Y-106680000D03*
X144780000Y-109220000D03*
X144780000Y-111760000D03*
X144780000Y-114300000D03*
X144780000Y-116840000D03*
X144780000Y-119380000D03*
X119555260Y-113350040D03*
X119555260Y-115890040D03*
X119555260Y-118430040D03*
X135486140Y-118193820D03*
X137975340Y-118193820D03*
X132996940Y-118193820D03*
M02*
