%TF.GenerationSoftware,KiCad,Pcbnew,4.0.5-e0-6337~49~ubuntu16.04.1*%
%TF.CreationDate,2017-08-14T13:55:07-07:00*%
%TF.ProjectId,stns01-battery-mgmt-breakout,73746E7330312D626174746572792D6D,1.0*%
%TF.FileFunction,Legend,Top*%
%FSLAX46Y46*%
G04 Gerber Fmt 4.6, Leading zero omitted, Abs format (unit mm)*
G04 Created by KiCad (PCBNEW 4.0.5-e0-6337~49~ubuntu16.04.1) date Mon Aug 14 13:55:07 2017*
%MOMM*%
%LPD*%
G01*
G04 APERTURE LIST*
%ADD10C,0.350000*%
%ADD11C,0.152400*%
%ADD12C,0.203200*%
%ADD13C,0.150000*%
%ADD14C,0.050000*%
%ADD15R,2.184400X1.879600*%
%ADD16O,2.184400X1.879600*%
%ADD17R,0.552400X1.502400*%
%ADD18R,1.752400X1.552400*%
%ADD19C,1.352400*%
%ADD20R,2.052400X2.052400*%
%ADD21R,0.952400X0.902400*%
%ADD22R,0.902400X0.952400*%
%ADD23R,1.152400X3.652400*%
%ADD24R,1.752400X3.552400*%
%ADD25C,1.676400*%
%ADD26R,0.852400X0.402400*%
%ADD27R,0.322000X0.682000*%
%ADD28R,0.952500X0.952500*%
G04 APERTURE END LIST*
D10*
D11*
X31371419Y-35162066D02*
X32387419Y-34823399D01*
X31371419Y-34484733D01*
X32290657Y-33565495D02*
X32339038Y-33613876D01*
X32387419Y-33759019D01*
X32387419Y-33855781D01*
X32339038Y-34000923D01*
X32242276Y-34097685D01*
X32145514Y-34146066D01*
X31951990Y-34194447D01*
X31806848Y-34194447D01*
X31613324Y-34146066D01*
X31516562Y-34097685D01*
X31419800Y-34000923D01*
X31371419Y-33855781D01*
X31371419Y-33759019D01*
X31419800Y-33613876D01*
X31468181Y-33565495D01*
X32290657Y-32549495D02*
X32339038Y-32597876D01*
X32387419Y-32743019D01*
X32387419Y-32839781D01*
X32339038Y-32984923D01*
X32242276Y-33081685D01*
X32145514Y-33130066D01*
X31951990Y-33178447D01*
X31806848Y-33178447D01*
X31613324Y-33130066D01*
X31516562Y-33081685D01*
X31419800Y-32984923D01*
X31371419Y-32839781D01*
X31371419Y-32743019D01*
X31419800Y-32597876D01*
X31468181Y-32549495D01*
X25029886Y-37924619D02*
X24546077Y-37924619D01*
X24546077Y-36908619D01*
X25368553Y-37924619D02*
X25368553Y-36908619D01*
X25610458Y-36908619D01*
X25755600Y-36957000D01*
X25852362Y-37053762D01*
X25900743Y-37150524D01*
X25949124Y-37344048D01*
X25949124Y-37489190D01*
X25900743Y-37682714D01*
X25852362Y-37779476D01*
X25755600Y-37876238D01*
X25610458Y-37924619D01*
X25368553Y-37924619D01*
X26578077Y-36908619D02*
X26771600Y-36908619D01*
X26868362Y-36957000D01*
X26965124Y-37053762D01*
X27013505Y-37247286D01*
X27013505Y-37585952D01*
X26965124Y-37779476D01*
X26868362Y-37876238D01*
X26771600Y-37924619D01*
X26578077Y-37924619D01*
X26481315Y-37876238D01*
X26384553Y-37779476D01*
X26336172Y-37585952D01*
X26336172Y-37247286D01*
X26384553Y-37053762D01*
X26481315Y-36957000D01*
X26578077Y-36908619D01*
X25029886Y-35287857D02*
X24981505Y-35336238D01*
X24836362Y-35384619D01*
X24739600Y-35384619D01*
X24594458Y-35336238D01*
X24497696Y-35239476D01*
X24449315Y-35142714D01*
X24400934Y-34949190D01*
X24400934Y-34804048D01*
X24449315Y-34610524D01*
X24497696Y-34513762D01*
X24594458Y-34417000D01*
X24739600Y-34368619D01*
X24836362Y-34368619D01*
X24981505Y-34417000D01*
X25029886Y-34465381D01*
X25465315Y-34852429D02*
X25803981Y-34852429D01*
X25949124Y-35384619D02*
X25465315Y-35384619D01*
X25465315Y-34368619D01*
X25949124Y-34368619D01*
X26384553Y-35384619D02*
X26384553Y-34368619D01*
X26965124Y-35384619D01*
X26965124Y-34368619D01*
X24933124Y-32747857D02*
X24884743Y-32796238D01*
X24739600Y-32844619D01*
X24642838Y-32844619D01*
X24497696Y-32796238D01*
X24400934Y-32699476D01*
X24352553Y-32602714D01*
X24304172Y-32409190D01*
X24304172Y-32264048D01*
X24352553Y-32070524D01*
X24400934Y-31973762D01*
X24497696Y-31877000D01*
X24642838Y-31828619D01*
X24739600Y-31828619D01*
X24884743Y-31877000D01*
X24933124Y-31925381D01*
X25368553Y-32844619D02*
X25368553Y-31828619D01*
X25368553Y-32312429D02*
X25949124Y-32312429D01*
X25949124Y-32844619D02*
X25949124Y-31828619D01*
X26965124Y-31877000D02*
X26868362Y-31828619D01*
X26723219Y-31828619D01*
X26578077Y-31877000D01*
X26481315Y-31973762D01*
X26432934Y-32070524D01*
X26384553Y-32264048D01*
X26384553Y-32409190D01*
X26432934Y-32602714D01*
X26481315Y-32699476D01*
X26578077Y-32796238D01*
X26723219Y-32844619D01*
X26819981Y-32844619D01*
X26965124Y-32796238D01*
X27013505Y-32747857D01*
X27013505Y-32409190D01*
X26819981Y-32409190D01*
X24110648Y-31653480D02*
X27207029Y-31653480D01*
X25416934Y-30256238D02*
X25562077Y-30304619D01*
X25803981Y-30304619D01*
X25900743Y-30256238D01*
X25949124Y-30207857D01*
X25997505Y-30111095D01*
X25997505Y-30014333D01*
X25949124Y-29917571D01*
X25900743Y-29869190D01*
X25803981Y-29820810D01*
X25610458Y-29772429D01*
X25513696Y-29724048D01*
X25465315Y-29675667D01*
X25416934Y-29578905D01*
X25416934Y-29482143D01*
X25465315Y-29385381D01*
X25513696Y-29337000D01*
X25610458Y-29288619D01*
X25852362Y-29288619D01*
X25997505Y-29337000D01*
X26432934Y-30304619D02*
X26432934Y-29288619D01*
X26674839Y-29288619D01*
X26819981Y-29337000D01*
X26916743Y-29433762D01*
X26965124Y-29530524D01*
X27013505Y-29724048D01*
X27013505Y-29869190D01*
X26965124Y-30062714D01*
X26916743Y-30159476D01*
X26819981Y-30256238D01*
X26674839Y-30304619D01*
X26432934Y-30304619D01*
X23384934Y-21668619D02*
X23723601Y-22684619D01*
X24062267Y-21668619D01*
X24400934Y-21668619D02*
X24400934Y-22491095D01*
X24449315Y-22587857D01*
X24497696Y-22636238D01*
X24594458Y-22684619D01*
X24787981Y-22684619D01*
X24884743Y-22636238D01*
X24933124Y-22587857D01*
X24981505Y-22491095D01*
X24981505Y-21668619D01*
X25416934Y-22636238D02*
X25562077Y-22684619D01*
X25803981Y-22684619D01*
X25900743Y-22636238D01*
X25949124Y-22587857D01*
X25997505Y-22491095D01*
X25997505Y-22394333D01*
X25949124Y-22297571D01*
X25900743Y-22249190D01*
X25803981Y-22200810D01*
X25610458Y-22152429D01*
X25513696Y-22104048D01*
X25465315Y-22055667D01*
X25416934Y-21958905D01*
X25416934Y-21862143D01*
X25465315Y-21765381D01*
X25513696Y-21717000D01*
X25610458Y-21668619D01*
X25852362Y-21668619D01*
X25997505Y-21717000D01*
X26771600Y-22152429D02*
X26916743Y-22200810D01*
X26965124Y-22249190D01*
X27013505Y-22345952D01*
X27013505Y-22491095D01*
X26965124Y-22587857D01*
X26916743Y-22636238D01*
X26819981Y-22684619D01*
X26432934Y-22684619D01*
X26432934Y-21668619D01*
X26771600Y-21668619D01*
X26868362Y-21717000D01*
X26916743Y-21765381D01*
X26965124Y-21862143D01*
X26965124Y-21958905D01*
X26916743Y-22055667D01*
X26868362Y-22104048D01*
X26771600Y-22152429D01*
X26432934Y-22152429D01*
X24594458Y-25176238D02*
X24739601Y-25224619D01*
X24981505Y-25224619D01*
X25078267Y-25176238D01*
X25126648Y-25127857D01*
X25175029Y-25031095D01*
X25175029Y-24934333D01*
X25126648Y-24837571D01*
X25078267Y-24789190D01*
X24981505Y-24740810D01*
X24787982Y-24692429D01*
X24691220Y-24644048D01*
X24642839Y-24595667D01*
X24594458Y-24498905D01*
X24594458Y-24402143D01*
X24642839Y-24305381D01*
X24691220Y-24257000D01*
X24787982Y-24208619D01*
X25029886Y-24208619D01*
X25175029Y-24257000D01*
X25803982Y-24740810D02*
X25803982Y-25224619D01*
X25465315Y-24208619D02*
X25803982Y-24740810D01*
X26142648Y-24208619D01*
X26432934Y-25176238D02*
X26578077Y-25224619D01*
X26819981Y-25224619D01*
X26916743Y-25176238D01*
X26965124Y-25127857D01*
X27013505Y-25031095D01*
X27013505Y-24934333D01*
X26965124Y-24837571D01*
X26916743Y-24789190D01*
X26819981Y-24740810D01*
X26626458Y-24692429D01*
X26529696Y-24644048D01*
X26481315Y-24595667D01*
X26432934Y-24498905D01*
X26432934Y-24402143D01*
X26481315Y-24305381D01*
X26529696Y-24257000D01*
X26626458Y-24208619D01*
X26868362Y-24208619D01*
X27013505Y-24257000D01*
X24449315Y-26748619D02*
X25078267Y-26748619D01*
X24739601Y-27135667D01*
X24884743Y-27135667D01*
X24981505Y-27184048D01*
X25029886Y-27232429D01*
X25078267Y-27329190D01*
X25078267Y-27571095D01*
X25029886Y-27667857D01*
X24981505Y-27716238D01*
X24884743Y-27764619D01*
X24594458Y-27764619D01*
X24497696Y-27716238D01*
X24449315Y-27667857D01*
X25513696Y-27667857D02*
X25562077Y-27716238D01*
X25513696Y-27764619D01*
X25465315Y-27716238D01*
X25513696Y-27667857D01*
X25513696Y-27764619D01*
X25900744Y-26748619D02*
X26529696Y-26748619D01*
X26191030Y-27135667D01*
X26336172Y-27135667D01*
X26432934Y-27184048D01*
X26481315Y-27232429D01*
X26529696Y-27329190D01*
X26529696Y-27571095D01*
X26481315Y-27667857D01*
X26432934Y-27716238D01*
X26336172Y-27764619D01*
X26045887Y-27764619D01*
X25949125Y-27716238D01*
X25900744Y-27667857D01*
X26819982Y-26748619D02*
X27158649Y-27764619D01*
X27497315Y-26748619D01*
X61246658Y-34330519D02*
X61585325Y-35346519D01*
X61923991Y-34330519D01*
X62843229Y-35249757D02*
X62794848Y-35298138D01*
X62649705Y-35346519D01*
X62552943Y-35346519D01*
X62407801Y-35298138D01*
X62311039Y-35201376D01*
X62262658Y-35104614D01*
X62214277Y-34911090D01*
X62214277Y-34765948D01*
X62262658Y-34572424D01*
X62311039Y-34475662D01*
X62407801Y-34378900D01*
X62552943Y-34330519D01*
X62649705Y-34330519D01*
X62794848Y-34378900D01*
X62843229Y-34427281D01*
X63859229Y-35249757D02*
X63810848Y-35298138D01*
X63665705Y-35346519D01*
X63568943Y-35346519D01*
X63423801Y-35298138D01*
X63327039Y-35201376D01*
X63278658Y-35104614D01*
X63230277Y-34911090D01*
X63230277Y-34765948D01*
X63278658Y-34572424D01*
X63327039Y-34475662D01*
X63423801Y-34378900D01*
X63568943Y-34330519D01*
X63665705Y-34330519D01*
X63810848Y-34378900D01*
X63859229Y-34427281D01*
X61923991Y-36918900D02*
X61827229Y-36870519D01*
X61682086Y-36870519D01*
X61536944Y-36918900D01*
X61440182Y-37015662D01*
X61391801Y-37112424D01*
X61343420Y-37305948D01*
X61343420Y-37451090D01*
X61391801Y-37644614D01*
X61440182Y-37741376D01*
X61536944Y-37838138D01*
X61682086Y-37886519D01*
X61778848Y-37886519D01*
X61923991Y-37838138D01*
X61972372Y-37789757D01*
X61972372Y-37451090D01*
X61778848Y-37451090D01*
X62407801Y-37886519D02*
X62407801Y-36870519D01*
X62988372Y-37886519D01*
X62988372Y-36870519D01*
X63472182Y-37886519D02*
X63472182Y-36870519D01*
X63714087Y-36870519D01*
X63859229Y-36918900D01*
X63955991Y-37015662D01*
X64004372Y-37112424D01*
X64052753Y-37305948D01*
X64052753Y-37451090D01*
X64004372Y-37644614D01*
X63955991Y-37741376D01*
X63859229Y-37838138D01*
X63714087Y-37886519D01*
X63472182Y-37886519D01*
X61923991Y-31838900D02*
X61827229Y-31790519D01*
X61682086Y-31790519D01*
X61536944Y-31838900D01*
X61440182Y-31935662D01*
X61391801Y-32032424D01*
X61343420Y-32225948D01*
X61343420Y-32371090D01*
X61391801Y-32564614D01*
X61440182Y-32661376D01*
X61536944Y-32758138D01*
X61682086Y-32806519D01*
X61778848Y-32806519D01*
X61923991Y-32758138D01*
X61972372Y-32709757D01*
X61972372Y-32371090D01*
X61778848Y-32371090D01*
X62407801Y-32806519D02*
X62407801Y-31790519D01*
X62988372Y-32806519D01*
X62988372Y-31790519D01*
X63472182Y-32806519D02*
X63472182Y-31790519D01*
X63714087Y-31790519D01*
X63859229Y-31838900D01*
X63955991Y-31935662D01*
X64004372Y-32032424D01*
X64052753Y-32225948D01*
X64052753Y-32371090D01*
X64004372Y-32564614D01*
X63955991Y-32661376D01*
X63859229Y-32758138D01*
X63714087Y-32806519D01*
X63472182Y-32806519D01*
X61391801Y-30266519D02*
X61391801Y-29250519D01*
X61972372Y-30266519D01*
X61972372Y-29250519D01*
X62311039Y-29250519D02*
X62891610Y-29250519D01*
X62601325Y-30266519D02*
X62601325Y-29250519D01*
X63810848Y-30169757D02*
X63762467Y-30218138D01*
X63617324Y-30266519D01*
X63520562Y-30266519D01*
X63375420Y-30218138D01*
X63278658Y-30121376D01*
X63230277Y-30024614D01*
X63181896Y-29831090D01*
X63181896Y-29685948D01*
X63230277Y-29492424D01*
X63278658Y-29395662D01*
X63375420Y-29298900D01*
X63520562Y-29250519D01*
X63617324Y-29250519D01*
X63762467Y-29298900D01*
X63810848Y-29347281D01*
X61391801Y-27726519D02*
X61391801Y-26710519D01*
X61730467Y-27436233D01*
X62069134Y-26710519D01*
X62069134Y-27726519D01*
X62504563Y-27678138D02*
X62649706Y-27726519D01*
X62891610Y-27726519D01*
X62988372Y-27678138D01*
X63036753Y-27629757D01*
X63085134Y-27532995D01*
X63085134Y-27436233D01*
X63036753Y-27339471D01*
X62988372Y-27291090D01*
X62891610Y-27242710D01*
X62698087Y-27194329D01*
X62601325Y-27145948D01*
X62552944Y-27097567D01*
X62504563Y-27000805D01*
X62504563Y-26904043D01*
X62552944Y-26807281D01*
X62601325Y-26758900D01*
X62698087Y-26710519D01*
X62939991Y-26710519D01*
X63085134Y-26758900D01*
X61343420Y-25138138D02*
X61488563Y-25186519D01*
X61730467Y-25186519D01*
X61827229Y-25138138D01*
X61875610Y-25089757D01*
X61923991Y-24992995D01*
X61923991Y-24896233D01*
X61875610Y-24799471D01*
X61827229Y-24751090D01*
X61730467Y-24702710D01*
X61536944Y-24654329D01*
X61440182Y-24605948D01*
X61391801Y-24557567D01*
X61343420Y-24460805D01*
X61343420Y-24364043D01*
X61391801Y-24267281D01*
X61440182Y-24218900D01*
X61536944Y-24170519D01*
X61778848Y-24170519D01*
X61923991Y-24218900D01*
X62359420Y-25186519D02*
X62359420Y-24170519D01*
X62939991Y-25186519D01*
X62939991Y-24170519D01*
X63375420Y-25138138D02*
X63520563Y-25186519D01*
X63762467Y-25186519D01*
X63859229Y-25138138D01*
X63907610Y-25089757D01*
X63955991Y-24992995D01*
X63955991Y-24896233D01*
X63907610Y-24799471D01*
X63859229Y-24751090D01*
X63762467Y-24702710D01*
X63568944Y-24654329D01*
X63472182Y-24605948D01*
X63423801Y-24557567D01*
X63375420Y-24460805D01*
X63375420Y-24364043D01*
X63423801Y-24267281D01*
X63472182Y-24218900D01*
X63568944Y-24170519D01*
X63810848Y-24170519D01*
X63955991Y-24218900D01*
X61246658Y-21630519D02*
X61585325Y-22646519D01*
X61923991Y-21630519D01*
X62601324Y-22114329D02*
X62746467Y-22162710D01*
X62794848Y-22211090D01*
X62843229Y-22307852D01*
X62843229Y-22452995D01*
X62794848Y-22549757D01*
X62746467Y-22598138D01*
X62649705Y-22646519D01*
X62262658Y-22646519D01*
X62262658Y-21630519D01*
X62601324Y-21630519D01*
X62698086Y-21678900D01*
X62746467Y-21727281D01*
X62794848Y-21824043D01*
X62794848Y-21920805D01*
X62746467Y-22017567D01*
X62698086Y-22065948D01*
X62601324Y-22114329D01*
X62262658Y-22114329D01*
X63230277Y-22356233D02*
X63714086Y-22356233D01*
X63133515Y-22646519D02*
X63472182Y-21630519D01*
X63810848Y-22646519D01*
X64004372Y-21630519D02*
X64584943Y-21630519D01*
X64294658Y-22646519D02*
X64294658Y-21630519D01*
X33234086Y-39855019D02*
X32750277Y-39855019D01*
X32750277Y-38839019D01*
X33572753Y-39855019D02*
X33572753Y-38839019D01*
X33814658Y-38839019D01*
X33959800Y-38887400D01*
X34056562Y-38984162D01*
X34104943Y-39080924D01*
X34153324Y-39274448D01*
X34153324Y-39419590D01*
X34104943Y-39613114D01*
X34056562Y-39709876D01*
X33959800Y-39806638D01*
X33814658Y-39855019D01*
X33572753Y-39855019D01*
X34782277Y-38839019D02*
X34975800Y-38839019D01*
X35072562Y-38887400D01*
X35169324Y-38984162D01*
X35217705Y-39177686D01*
X35217705Y-39516352D01*
X35169324Y-39709876D01*
X35072562Y-39806638D01*
X34975800Y-39855019D01*
X34782277Y-39855019D01*
X34685515Y-39806638D01*
X34588753Y-39709876D01*
X34540372Y-39516352D01*
X34540372Y-39177686D01*
X34588753Y-38984162D01*
X34685515Y-38887400D01*
X34782277Y-38839019D01*
X32713991Y-28425019D02*
X33342943Y-28425019D01*
X33004277Y-28812067D01*
X33149419Y-28812067D01*
X33246181Y-28860448D01*
X33294562Y-28908829D01*
X33342943Y-29005590D01*
X33342943Y-29247495D01*
X33294562Y-29344257D01*
X33246181Y-29392638D01*
X33149419Y-29441019D01*
X32859134Y-29441019D01*
X32762372Y-29392638D01*
X32713991Y-29344257D01*
X33778372Y-29344257D02*
X33826753Y-29392638D01*
X33778372Y-29441019D01*
X33729991Y-29392638D01*
X33778372Y-29344257D01*
X33778372Y-29441019D01*
X34165420Y-28425019D02*
X34794372Y-28425019D01*
X34455706Y-28812067D01*
X34600848Y-28812067D01*
X34697610Y-28860448D01*
X34745991Y-28908829D01*
X34794372Y-29005590D01*
X34794372Y-29247495D01*
X34745991Y-29344257D01*
X34697610Y-29392638D01*
X34600848Y-29441019D01*
X34310563Y-29441019D01*
X34213801Y-29392638D01*
X34165420Y-29344257D01*
X35084658Y-28425019D02*
X35423325Y-29441019D01*
X35761991Y-28425019D01*
D12*
X44772944Y-38953924D02*
X45014848Y-38953924D01*
X45135801Y-39014400D01*
X45256753Y-39135352D01*
X45317229Y-39377257D01*
X45317229Y-39800590D01*
X45256753Y-40042495D01*
X45135801Y-40163448D01*
X45014848Y-40223924D01*
X44772944Y-40223924D01*
X44651991Y-40163448D01*
X44531039Y-40042495D01*
X44470563Y-39800590D01*
X44470563Y-39377257D01*
X44531039Y-39135352D01*
X44651991Y-39014400D01*
X44772944Y-38953924D01*
X45861515Y-40223924D02*
X45861515Y-38953924D01*
X46587229Y-40223924D01*
X46587229Y-38953924D01*
X53239610Y-38953924D02*
X53481514Y-38953924D01*
X53602467Y-39014400D01*
X53723419Y-39135352D01*
X53783895Y-39377257D01*
X53783895Y-39800590D01*
X53723419Y-40042495D01*
X53602467Y-40163448D01*
X53481514Y-40223924D01*
X53239610Y-40223924D01*
X53118657Y-40163448D01*
X52997705Y-40042495D01*
X52937229Y-39800590D01*
X52937229Y-39377257D01*
X52997705Y-39135352D01*
X53118657Y-39014400D01*
X53239610Y-38953924D01*
X54751514Y-39558686D02*
X54328181Y-39558686D01*
X54328181Y-40223924D02*
X54328181Y-38953924D01*
X54932943Y-38953924D01*
X55840085Y-39558686D02*
X55416752Y-39558686D01*
X55416752Y-40223924D02*
X55416752Y-38953924D01*
X56021514Y-38953924D01*
D13*
X30149800Y-23393400D02*
X30149800Y-38633400D01*
X30149800Y-38633400D02*
X27609800Y-38633400D01*
X27609800Y-38633400D02*
X27609800Y-23393400D01*
X30429800Y-20573400D02*
X30429800Y-22123400D01*
X30149800Y-23393400D02*
X27609800Y-23393400D01*
X27329800Y-22123400D02*
X27329800Y-20573400D01*
X27329800Y-20573400D02*
X30429800Y-20573400D01*
D11*
X42621200Y-27482800D02*
X42621200Y-26212800D01*
X39890700Y-27482800D02*
X39890700Y-26212800D01*
D13*
X42621200Y-27482800D02*
X39890700Y-27482800D01*
X39890700Y-26212800D02*
X42621200Y-26212800D01*
D11*
X53683600Y-32105600D02*
X53683600Y-30835600D01*
X50953100Y-32105600D02*
X50953100Y-30835600D01*
D13*
X53683600Y-32105600D02*
X50953100Y-32105600D01*
X50953100Y-30835600D02*
X53683600Y-30835600D01*
D11*
X37787580Y-29695140D02*
X36517580Y-29695140D01*
X37787580Y-32425640D02*
X36517580Y-32425640D01*
D13*
X37787580Y-29695140D02*
X37787580Y-32425640D01*
X36517580Y-32425640D02*
X36517580Y-29695140D01*
D11*
X36517580Y-29008640D02*
X37787580Y-29008640D01*
X36517580Y-26278140D02*
X37787580Y-26278140D01*
D13*
X36517580Y-29008640D02*
X36517580Y-26278140D01*
X37787580Y-26278140D02*
X37787580Y-29008640D01*
X54945300Y-27969400D02*
G75*
G03X54945300Y-27969400I-250000J0D01*
G01*
X52795300Y-21219400D02*
X52795300Y-22219400D01*
X52795300Y-22219400D02*
X51795300Y-22219400D01*
X51795300Y-22219400D02*
X51795300Y-21219400D01*
X54195300Y-27219400D02*
X55445300Y-27219400D01*
X55445300Y-27219400D02*
X55445300Y-28819400D01*
X55445300Y-28819400D02*
X56245300Y-28819400D01*
X56245300Y-28819400D02*
X56245300Y-24719400D01*
X55445300Y-27219400D02*
X56245300Y-27219400D01*
X50395300Y-27219400D02*
X49145300Y-27219400D01*
X49145300Y-27219400D02*
X49145300Y-28819400D01*
X49145300Y-28819400D02*
X48345300Y-28819400D01*
X48345300Y-28819400D02*
X48345300Y-24719400D01*
X49145300Y-27219400D02*
X48345300Y-27219400D01*
X54495300Y-21219400D02*
X50095300Y-21219400D01*
X54495300Y-26119400D02*
X54495300Y-22719400D01*
X54495300Y-22719400D02*
X53495300Y-22719400D01*
X53495300Y-22719400D02*
X53495300Y-26119400D01*
X53495300Y-26119400D02*
X54495300Y-26119400D01*
X50095300Y-26119400D02*
X50095300Y-22719400D01*
X50095300Y-22719400D02*
X51095300Y-22719400D01*
X51095300Y-22719400D02*
X51095300Y-26119400D01*
X51095300Y-26119400D02*
X50095300Y-26119400D01*
X52395300Y-27219400D02*
X52195300Y-27219400D01*
X60629800Y-23393400D02*
X60629800Y-38633400D01*
X60629800Y-38633400D02*
X58089800Y-38633400D01*
X58089800Y-38633400D02*
X58089800Y-23393400D01*
X60909800Y-20573400D02*
X60909800Y-22123400D01*
X60629800Y-23393400D02*
X58089800Y-23393400D01*
X57809800Y-22123400D02*
X57809800Y-20573400D01*
X57809800Y-20573400D02*
X60909800Y-20573400D01*
D14*
X37566600Y-34213800D02*
X39090600Y-34213800D01*
D13*
X38928600Y-35387800D02*
X38928600Y-36087800D01*
X37728600Y-36087800D02*
X37728600Y-35387800D01*
D11*
X48635920Y-30775340D02*
X47365920Y-30775340D01*
X48635920Y-33505840D02*
X47365920Y-33505840D01*
D13*
X48635920Y-30775340D02*
X48635920Y-33505840D01*
X47365920Y-33505840D02*
X47365920Y-30775340D01*
D11*
X44630340Y-30810900D02*
X43360340Y-30810900D01*
X44630340Y-33541400D02*
X43360340Y-33541400D01*
D13*
X44630340Y-30810900D02*
X44630340Y-33541400D01*
X43360340Y-33541400D02*
X43360340Y-30810900D01*
D11*
X42692320Y-33283460D02*
X41422320Y-33283460D01*
X42692320Y-36013960D02*
X41422320Y-36013960D01*
D13*
X42692320Y-33283460D02*
X42692320Y-36013960D01*
X41422320Y-36013960D02*
X41422320Y-33283460D01*
D11*
X39547800Y-36093400D02*
X40817800Y-36093400D01*
X39547800Y-33362900D02*
X40817800Y-33362900D01*
D13*
X39547800Y-36093400D02*
X39547800Y-33362900D01*
X40817800Y-33362900D02*
X40817800Y-36093400D01*
D11*
X43360340Y-30497080D02*
X44630340Y-30497080D01*
X43360340Y-27766580D02*
X44630340Y-27766580D01*
D13*
X43360340Y-30497080D02*
X43360340Y-27766580D01*
X44630340Y-27766580D02*
X44630340Y-30497080D01*
D11*
X46395640Y-27727340D02*
X45125640Y-27727340D01*
X46395640Y-30457840D02*
X45125640Y-30457840D01*
D13*
X46395640Y-27727340D02*
X46395640Y-30457840D01*
X45125640Y-30457840D02*
X45125640Y-27727340D01*
X32865060Y-32603440D02*
X32865060Y-37683440D01*
X32865060Y-37683440D02*
X35405060Y-37683440D01*
X35405060Y-37683440D02*
X35405060Y-32603440D01*
X35685060Y-29783440D02*
X35685060Y-31333440D01*
X35405060Y-32603440D02*
X32865060Y-32603440D01*
X32585060Y-31333440D02*
X32585060Y-29783440D01*
X32585060Y-29783440D02*
X35685060Y-29783440D01*
D11*
X44065940Y-34145220D02*
X44065940Y-38209220D01*
X56065940Y-34145220D02*
X44065940Y-34145220D01*
X56065940Y-38209220D02*
X44065940Y-38209220D01*
X56065940Y-34145220D02*
X56065940Y-38209220D01*
X39384604Y-28360341D02*
G75*
G03X39384604Y-28360341I-127000J0D01*
G01*
D13*
X39604604Y-31763341D02*
X41704604Y-31763341D01*
X39892604Y-28487341D02*
X41670604Y-28487341D01*
X34935160Y-26140360D02*
X34935160Y-26092100D01*
X34234120Y-23341380D02*
X34935160Y-23341380D01*
X34935160Y-23341380D02*
X34935160Y-23590300D01*
X34935160Y-26140360D02*
X34935160Y-26341020D01*
X34935160Y-26341020D02*
X34234120Y-26341020D01*
X39361383Y-26971286D02*
X39409002Y-27018905D01*
X39456621Y-27161762D01*
X39456621Y-27257000D01*
X39409002Y-27399858D01*
X39313764Y-27495096D01*
X39218526Y-27542715D01*
X39028050Y-27590334D01*
X38885192Y-27590334D01*
X38694716Y-27542715D01*
X38599478Y-27495096D01*
X38504240Y-27399858D01*
X38456621Y-27257000D01*
X38456621Y-27161762D01*
X38504240Y-27018905D01*
X38551859Y-26971286D01*
X39456621Y-26018905D02*
X39456621Y-26590334D01*
X39456621Y-26304620D02*
X38456621Y-26304620D01*
X38599478Y-26399858D01*
X38694716Y-26495096D01*
X38742335Y-26590334D01*
X54715114Y-31802343D02*
X54667495Y-31849962D01*
X54524638Y-31897581D01*
X54429400Y-31897581D01*
X54286542Y-31849962D01*
X54191304Y-31754724D01*
X54143685Y-31659486D01*
X54096066Y-31469010D01*
X54096066Y-31326152D01*
X54143685Y-31135676D01*
X54191304Y-31040438D01*
X54286542Y-30945200D01*
X54429400Y-30897581D01*
X54524638Y-30897581D01*
X54667495Y-30945200D01*
X54715114Y-30992819D01*
X55096066Y-30992819D02*
X55143685Y-30945200D01*
X55238923Y-30897581D01*
X55477019Y-30897581D01*
X55572257Y-30945200D01*
X55619876Y-30992819D01*
X55667495Y-31088057D01*
X55667495Y-31183295D01*
X55619876Y-31326152D01*
X55048447Y-31897581D01*
X55667495Y-31897581D01*
X36985914Y-33910543D02*
X36938295Y-33958162D01*
X36795438Y-34005781D01*
X36700200Y-34005781D01*
X36557342Y-33958162D01*
X36462104Y-33862924D01*
X36414485Y-33767686D01*
X36366866Y-33577210D01*
X36366866Y-33434352D01*
X36414485Y-33243876D01*
X36462104Y-33148638D01*
X36557342Y-33053400D01*
X36700200Y-33005781D01*
X36795438Y-33005781D01*
X36938295Y-33053400D01*
X36985914Y-33101019D01*
X37319247Y-33005781D02*
X37938295Y-33005781D01*
X37604961Y-33386733D01*
X37747819Y-33386733D01*
X37843057Y-33434352D01*
X37890676Y-33481971D01*
X37938295Y-33577210D01*
X37938295Y-33815305D01*
X37890676Y-33910543D01*
X37843057Y-33958162D01*
X37747819Y-34005781D01*
X37462104Y-34005781D01*
X37366866Y-33958162D01*
X37319247Y-33910543D01*
X36094943Y-27624066D02*
X36142562Y-27671685D01*
X36190181Y-27814542D01*
X36190181Y-27909780D01*
X36142562Y-28052638D01*
X36047324Y-28147876D01*
X35952086Y-28195495D01*
X35761610Y-28243114D01*
X35618752Y-28243114D01*
X35428276Y-28195495D01*
X35333038Y-28147876D01*
X35237800Y-28052638D01*
X35190181Y-27909780D01*
X35190181Y-27814542D01*
X35237800Y-27671685D01*
X35285419Y-27624066D01*
X35523514Y-26766923D02*
X36190181Y-26766923D01*
X35142562Y-27005019D02*
X35856848Y-27243114D01*
X35856848Y-26624066D01*
X38793681Y-40006447D02*
X38793681Y-40482638D01*
X37793681Y-40482638D01*
X38269871Y-39673114D02*
X38269871Y-39339780D01*
X38793681Y-39196923D02*
X38793681Y-39673114D01*
X37793681Y-39673114D01*
X37793681Y-39196923D01*
X38793681Y-38768352D02*
X37793681Y-38768352D01*
X37793681Y-38530257D01*
X37841300Y-38387399D01*
X37936538Y-38292161D01*
X38031776Y-38244542D01*
X38222252Y-38196923D01*
X38365110Y-38196923D01*
X38555586Y-38244542D01*
X38650824Y-38292161D01*
X38746062Y-38387399D01*
X38793681Y-38530257D01*
X38793681Y-38768352D01*
X38793681Y-37244542D02*
X38793681Y-37815971D01*
X38793681Y-37530257D02*
X37793681Y-37530257D01*
X37936538Y-37625495D01*
X38031776Y-37720733D01*
X38079395Y-37815971D01*
X47890134Y-30449781D02*
X47556800Y-29973590D01*
X47318705Y-30449781D02*
X47318705Y-29449781D01*
X47699658Y-29449781D01*
X47794896Y-29497400D01*
X47842515Y-29545019D01*
X47890134Y-29640257D01*
X47890134Y-29783114D01*
X47842515Y-29878352D01*
X47794896Y-29925971D01*
X47699658Y-29973590D01*
X47318705Y-29973590D01*
X48842515Y-30449781D02*
X48271086Y-30449781D01*
X48556800Y-30449781D02*
X48556800Y-29449781D01*
X48461562Y-29592638D01*
X48366324Y-29687876D01*
X48271086Y-29735495D01*
X45571114Y-33464761D02*
X45237780Y-32988570D01*
X44999685Y-33464761D02*
X44999685Y-32464761D01*
X45380638Y-32464761D01*
X45475876Y-32512380D01*
X45523495Y-32559999D01*
X45571114Y-32655237D01*
X45571114Y-32798094D01*
X45523495Y-32893332D01*
X45475876Y-32940951D01*
X45380638Y-32988570D01*
X44999685Y-32988570D01*
X45952066Y-32559999D02*
X45999685Y-32512380D01*
X46094923Y-32464761D01*
X46333019Y-32464761D01*
X46428257Y-32512380D01*
X46475876Y-32559999D01*
X46523495Y-32655237D01*
X46523495Y-32750475D01*
X46475876Y-32893332D01*
X45904447Y-33464761D01*
X46523495Y-33464761D01*
X41913514Y-37532441D02*
X41580180Y-37056250D01*
X41342085Y-37532441D02*
X41342085Y-36532441D01*
X41723038Y-36532441D01*
X41818276Y-36580060D01*
X41865895Y-36627679D01*
X41913514Y-36722917D01*
X41913514Y-36865774D01*
X41865895Y-36961012D01*
X41818276Y-37008631D01*
X41723038Y-37056250D01*
X41342085Y-37056250D01*
X42246847Y-36532441D02*
X42865895Y-36532441D01*
X42532561Y-36913393D01*
X42675419Y-36913393D01*
X42770657Y-36961012D01*
X42818276Y-37008631D01*
X42865895Y-37103870D01*
X42865895Y-37341965D01*
X42818276Y-37437203D01*
X42770657Y-37484822D01*
X42675419Y-37532441D01*
X42389704Y-37532441D01*
X42294466Y-37484822D01*
X42246847Y-37437203D01*
X39990734Y-37532441D02*
X39657400Y-37056250D01*
X39419305Y-37532441D02*
X39419305Y-36532441D01*
X39800258Y-36532441D01*
X39895496Y-36580060D01*
X39943115Y-36627679D01*
X39990734Y-36722917D01*
X39990734Y-36865774D01*
X39943115Y-36961012D01*
X39895496Y-37008631D01*
X39800258Y-37056250D01*
X39419305Y-37056250D01*
X40847877Y-36865774D02*
X40847877Y-37532441D01*
X40609781Y-36484822D02*
X40371686Y-37199108D01*
X40990734Y-37199108D01*
X44529001Y-26796026D02*
X44052810Y-27129360D01*
X44529001Y-27367455D02*
X43529001Y-27367455D01*
X43529001Y-26986502D01*
X43576620Y-26891264D01*
X43624239Y-26843645D01*
X43719477Y-26796026D01*
X43862334Y-26796026D01*
X43957572Y-26843645D01*
X44005191Y-26891264D01*
X44052810Y-26986502D01*
X44052810Y-27367455D01*
X43529001Y-25891264D02*
X43529001Y-26367455D01*
X44005191Y-26415074D01*
X43957572Y-26367455D01*
X43909953Y-26272217D01*
X43909953Y-26034121D01*
X43957572Y-25938883D01*
X44005191Y-25891264D01*
X44100430Y-25843645D01*
X44338525Y-25843645D01*
X44433763Y-25891264D01*
X44481382Y-25938883D01*
X44529001Y-26034121D01*
X44529001Y-26272217D01*
X44481382Y-26367455D01*
X44433763Y-26415074D01*
X46286681Y-26798566D02*
X45810490Y-27131900D01*
X46286681Y-27369995D02*
X45286681Y-27369995D01*
X45286681Y-26989042D01*
X45334300Y-26893804D01*
X45381919Y-26846185D01*
X45477157Y-26798566D01*
X45620014Y-26798566D01*
X45715252Y-26846185D01*
X45762871Y-26893804D01*
X45810490Y-26989042D01*
X45810490Y-27369995D01*
X45286681Y-25941423D02*
X45286681Y-26131900D01*
X45334300Y-26227138D01*
X45381919Y-26274757D01*
X45524776Y-26369995D01*
X45715252Y-26417614D01*
X46096205Y-26417614D01*
X46191443Y-26369995D01*
X46239062Y-26322376D01*
X46286681Y-26227138D01*
X46286681Y-26036661D01*
X46239062Y-25941423D01*
X46191443Y-25893804D01*
X46096205Y-25846185D01*
X45858110Y-25846185D01*
X45762871Y-25893804D01*
X45715252Y-25941423D01*
X45667633Y-26036661D01*
X45667633Y-26227138D01*
X45715252Y-26322376D01*
X45762871Y-26369995D01*
X45858110Y-26417614D01*
X40055895Y-31989781D02*
X40055895Y-32799305D01*
X40103514Y-32894543D01*
X40151133Y-32942162D01*
X40246371Y-32989781D01*
X40436848Y-32989781D01*
X40532086Y-32942162D01*
X40579705Y-32894543D01*
X40627324Y-32799305D01*
X40627324Y-31989781D01*
X41627324Y-32989781D02*
X41055895Y-32989781D01*
X41341609Y-32989781D02*
X41341609Y-31989781D01*
X41246371Y-32132638D01*
X41151133Y-32227876D01*
X41055895Y-32275495D01*
X33431575Y-21911061D02*
X33431575Y-22720585D01*
X33479194Y-22815823D01*
X33526813Y-22863442D01*
X33622051Y-22911061D01*
X33812528Y-22911061D01*
X33907766Y-22863442D01*
X33955385Y-22815823D01*
X34003004Y-22720585D01*
X34003004Y-21911061D01*
X34431575Y-22006299D02*
X34479194Y-21958680D01*
X34574432Y-21911061D01*
X34812528Y-21911061D01*
X34907766Y-21958680D01*
X34955385Y-22006299D01*
X35003004Y-22101537D01*
X35003004Y-22196775D01*
X34955385Y-22339632D01*
X34383956Y-22911061D01*
X35003004Y-22911061D01*
%LPC*%
D15*
X28879800Y-22123400D03*
D16*
X28879800Y-24663400D03*
X28879800Y-27203400D03*
X28879800Y-29743400D03*
X28879800Y-32283400D03*
X28879800Y-34823400D03*
X28879800Y-37363400D03*
D17*
X42504300Y-24592900D03*
X41854300Y-24592900D03*
X41205200Y-24592900D03*
X40554300Y-24592900D03*
X39904300Y-24592900D03*
D18*
X44404300Y-24367900D03*
D19*
X44754300Y-21917900D03*
D20*
X42404300Y-21917900D03*
X40004300Y-21917900D03*
D18*
X38004300Y-24367900D03*
D19*
X37654300Y-21917900D03*
D21*
X41974200Y-26847800D03*
X40474200Y-26847800D03*
X53036600Y-31470600D03*
X51536600Y-31470600D03*
D22*
X37152580Y-30342140D03*
X37152580Y-31842140D03*
X37152580Y-28361640D03*
X37152580Y-26861640D03*
D23*
X53295300Y-28219400D03*
X51295300Y-28219400D03*
D24*
X55695300Y-22669400D03*
X48895300Y-22669400D03*
D15*
X59359800Y-22123400D03*
D16*
X59359800Y-24663400D03*
X59359800Y-27203400D03*
X59359800Y-29743400D03*
X59359800Y-32283400D03*
X59359800Y-34823400D03*
X59359800Y-37363400D03*
D22*
X38328600Y-34987800D03*
X38328600Y-36487800D03*
X48000920Y-31422340D03*
X48000920Y-32922340D03*
X43995340Y-31457900D03*
X43995340Y-32957900D03*
X42057320Y-33930460D03*
X42057320Y-35430460D03*
X40182800Y-35446400D03*
X40182800Y-33946400D03*
X43995340Y-29850080D03*
X43995340Y-28350080D03*
X45760640Y-28374340D03*
X45760640Y-29874340D03*
D15*
X34135060Y-31333440D03*
D16*
X34135060Y-33873440D03*
X34135060Y-36413440D03*
D25*
X50065940Y-36177220D03*
X52555140Y-36177220D03*
X47576740Y-36177220D03*
D26*
X39254604Y-29013341D03*
X39254604Y-29463341D03*
X39254604Y-29913341D03*
X39254604Y-30363341D03*
X39254604Y-30813341D03*
X39254604Y-31263341D03*
X42054604Y-31263341D03*
X42054604Y-30813341D03*
X42054604Y-30363341D03*
X42054604Y-29913341D03*
X42054604Y-29463341D03*
X42054604Y-29013341D03*
D27*
X41069604Y-30733341D03*
X41069604Y-29543341D03*
X40239604Y-30733341D03*
X40239604Y-29543341D03*
D28*
X33284160Y-23891200D03*
X33284160Y-25791200D03*
X35283140Y-24841200D03*
M02*
