%TF.GenerationSoftware,KiCad,Pcbnew,4.0.5-e0-6337~49~ubuntu16.04.1*%
%TF.CreationDate,2017-01-09T19:52:44-08:00*%
%TF.ProjectId,avr-programmer,6176722D70726F6772616D6D65722E6B,v1.0*%
%TF.FileFunction,Other,Fab,Top*%
%FSLAX46Y46*%
G04 Gerber Fmt 4.6, Leading zero omitted, Abs format (unit mm)*
G04 Created by KiCad (PCBNEW 4.0.5-e0-6337~49~ubuntu16.04.1) date Mon Jan  9 19:52:44 2017*
%MOMM*%
%LPD*%
G01*
G04 APERTURE LIST*
%ADD10C,0.350000*%
%ADD11C,0.152400*%
%ADD12C,0.050000*%
%ADD13C,0.200000*%
%ADD14C,0.045720*%
%ADD15C,0.150000*%
%ADD16C,0.254000*%
G04 APERTURE END LIST*
D10*
D11*
X129600476Y-94185619D02*
X129019905Y-94185619D01*
X129310191Y-94185619D02*
X129310191Y-93169619D01*
X129213429Y-93314762D01*
X129116667Y-93411524D01*
X129019905Y-93459905D01*
X130761619Y-93121238D02*
X129890762Y-94427524D01*
X131148667Y-94185619D02*
X131342191Y-94185619D01*
X131438952Y-94137238D01*
X131487333Y-94088857D01*
X131584095Y-93943714D01*
X131632476Y-93750190D01*
X131632476Y-93363143D01*
X131584095Y-93266381D01*
X131535714Y-93218000D01*
X131438952Y-93169619D01*
X131245429Y-93169619D01*
X131148667Y-93218000D01*
X131100286Y-93266381D01*
X131051905Y-93363143D01*
X131051905Y-93605048D01*
X131100286Y-93701810D01*
X131148667Y-93750190D01*
X131245429Y-93798571D01*
X131438952Y-93798571D01*
X131535714Y-93750190D01*
X131584095Y-93701810D01*
X131632476Y-93605048D01*
X132793619Y-93121238D02*
X131922762Y-94427524D01*
X133664476Y-94185619D02*
X133083905Y-94185619D01*
X133374191Y-94185619D02*
X133374191Y-93169619D01*
X133277429Y-93314762D01*
X133180667Y-93411524D01*
X133083905Y-93459905D01*
X134003143Y-93169619D02*
X134680476Y-93169619D01*
X134245048Y-94185619D01*
X118061620Y-73829333D02*
X118545429Y-73829333D01*
X117964858Y-74119619D02*
X118303525Y-73103619D01*
X118642191Y-74119619D01*
X118835715Y-73103619D02*
X119174382Y-74119619D01*
X119513048Y-73103619D01*
X120432286Y-74119619D02*
X120093620Y-73635810D01*
X119851715Y-74119619D02*
X119851715Y-73103619D01*
X120238762Y-73103619D01*
X120335524Y-73152000D01*
X120383905Y-73200381D01*
X120432286Y-73297143D01*
X120432286Y-73442286D01*
X120383905Y-73539048D01*
X120335524Y-73587429D01*
X120238762Y-73635810D01*
X119851715Y-73635810D01*
X121641810Y-74119619D02*
X121641810Y-73103619D01*
X122028857Y-73103619D01*
X122125619Y-73152000D01*
X122174000Y-73200381D01*
X122222381Y-73297143D01*
X122222381Y-73442286D01*
X122174000Y-73539048D01*
X122125619Y-73587429D01*
X122028857Y-73635810D01*
X121641810Y-73635810D01*
X122657810Y-74119619D02*
X122657810Y-73442286D01*
X122657810Y-73635810D02*
X122706191Y-73539048D01*
X122754572Y-73490667D01*
X122851334Y-73442286D01*
X122948095Y-73442286D01*
X123431905Y-74119619D02*
X123335143Y-74071238D01*
X123286762Y-74022857D01*
X123238381Y-73926095D01*
X123238381Y-73635810D01*
X123286762Y-73539048D01*
X123335143Y-73490667D01*
X123431905Y-73442286D01*
X123577047Y-73442286D01*
X123673809Y-73490667D01*
X123722190Y-73539048D01*
X123770571Y-73635810D01*
X123770571Y-73926095D01*
X123722190Y-74022857D01*
X123673809Y-74071238D01*
X123577047Y-74119619D01*
X123431905Y-74119619D01*
X124641428Y-73442286D02*
X124641428Y-74264762D01*
X124593047Y-74361524D01*
X124544666Y-74409905D01*
X124447905Y-74458286D01*
X124302762Y-74458286D01*
X124206000Y-74409905D01*
X124641428Y-74071238D02*
X124544666Y-74119619D01*
X124351143Y-74119619D01*
X124254381Y-74071238D01*
X124206000Y-74022857D01*
X124157619Y-73926095D01*
X124157619Y-73635810D01*
X124206000Y-73539048D01*
X124254381Y-73490667D01*
X124351143Y-73442286D01*
X124544666Y-73442286D01*
X124641428Y-73490667D01*
X125125238Y-74119619D02*
X125125238Y-73442286D01*
X125125238Y-73635810D02*
X125173619Y-73539048D01*
X125222000Y-73490667D01*
X125318762Y-73442286D01*
X125415523Y-73442286D01*
X126189618Y-74119619D02*
X126189618Y-73587429D01*
X126141237Y-73490667D01*
X126044475Y-73442286D01*
X125850952Y-73442286D01*
X125754190Y-73490667D01*
X126189618Y-74071238D02*
X126092856Y-74119619D01*
X125850952Y-74119619D01*
X125754190Y-74071238D01*
X125705809Y-73974476D01*
X125705809Y-73877714D01*
X125754190Y-73780952D01*
X125850952Y-73732571D01*
X126092856Y-73732571D01*
X126189618Y-73684190D01*
X126673428Y-74119619D02*
X126673428Y-73442286D01*
X126673428Y-73539048D02*
X126721809Y-73490667D01*
X126818571Y-73442286D01*
X126963713Y-73442286D01*
X127060475Y-73490667D01*
X127108856Y-73587429D01*
X127108856Y-74119619D01*
X127108856Y-73587429D02*
X127157237Y-73490667D01*
X127253999Y-73442286D01*
X127399142Y-73442286D01*
X127495904Y-73490667D01*
X127544285Y-73587429D01*
X127544285Y-74119619D01*
X128028095Y-74119619D02*
X128028095Y-73442286D01*
X128028095Y-73539048D02*
X128076476Y-73490667D01*
X128173238Y-73442286D01*
X128318380Y-73442286D01*
X128415142Y-73490667D01*
X128463523Y-73587429D01*
X128463523Y-74119619D01*
X128463523Y-73587429D02*
X128511904Y-73490667D01*
X128608666Y-73442286D01*
X128753809Y-73442286D01*
X128850571Y-73490667D01*
X128898952Y-73587429D01*
X128898952Y-74119619D01*
X129769809Y-74071238D02*
X129673047Y-74119619D01*
X129479524Y-74119619D01*
X129382762Y-74071238D01*
X129334381Y-73974476D01*
X129334381Y-73587429D01*
X129382762Y-73490667D01*
X129479524Y-73442286D01*
X129673047Y-73442286D01*
X129769809Y-73490667D01*
X129818190Y-73587429D01*
X129818190Y-73684190D01*
X129334381Y-73780952D01*
X130253619Y-74119619D02*
X130253619Y-73442286D01*
X130253619Y-73635810D02*
X130302000Y-73539048D01*
X130350381Y-73490667D01*
X130447143Y-73442286D01*
X130543904Y-73442286D01*
X131559904Y-73442286D02*
X131801809Y-74119619D01*
X132043713Y-73442286D01*
X132962951Y-74119619D02*
X132382380Y-74119619D01*
X132672666Y-74119619D02*
X132672666Y-73103619D01*
X132575904Y-73248762D01*
X132479142Y-73345524D01*
X132382380Y-73393905D01*
X133398380Y-74022857D02*
X133446761Y-74071238D01*
X133398380Y-74119619D01*
X133349999Y-74071238D01*
X133398380Y-74022857D01*
X133398380Y-74119619D01*
X134075714Y-73103619D02*
X134172475Y-73103619D01*
X134269237Y-73152000D01*
X134317618Y-73200381D01*
X134365999Y-73297143D01*
X134414380Y-73490667D01*
X134414380Y-73732571D01*
X134365999Y-73926095D01*
X134317618Y-74022857D01*
X134269237Y-74071238D01*
X134172475Y-74119619D01*
X134075714Y-74119619D01*
X133978952Y-74071238D01*
X133930571Y-74022857D01*
X133882190Y-73926095D01*
X133833809Y-73732571D01*
X133833809Y-73490667D01*
X133882190Y-73297143D01*
X133930571Y-73200381D01*
X133978952Y-73152000D01*
X134075714Y-73103619D01*
X129540000Y-92075000D02*
X102870000Y-92075000D01*
X133350000Y-92075000D02*
X129540000Y-92075000D01*
X135255000Y-77470000D02*
X135255000Y-90170000D01*
X133350000Y-75565000D02*
X102870000Y-75565000D01*
X100965000Y-77470000D02*
X100965000Y-90170000D01*
X100965000Y-90170000D02*
G75*
G03X102870000Y-92075000I1905000J0D01*
G01*
X102870000Y-75565000D02*
G75*
G03X100965000Y-77470000I0J-1905000D01*
G01*
X133350000Y-92075000D02*
G75*
G03X135255000Y-90170000I0J1905000D01*
G01*
X135255000Y-77470000D02*
G75*
G03X133350000Y-75565000I-1905000J0D01*
G01*
D12*
X110138000Y-76454000D02*
X115218000Y-76454000D01*
X110138000Y-79502000D02*
X110138000Y-76454000D01*
X115218000Y-79502000D02*
X110138000Y-79502000D01*
X115218000Y-76454000D02*
X115218000Y-79502000D01*
X112182000Y-81522000D02*
X109282000Y-81522000D01*
X112182000Y-81522000D02*
X112182000Y-80022000D01*
X109282000Y-81522000D02*
X109282000Y-80022000D01*
X112182000Y-80022000D02*
X109282000Y-80022000D01*
X109294000Y-82689000D02*
X112194000Y-82689000D01*
X109294000Y-82689000D02*
X109294000Y-84189000D01*
X112194000Y-82689000D02*
X112194000Y-84189000D01*
X109294000Y-84189000D02*
X112194000Y-84189000D01*
X113423000Y-91251000D02*
X113423000Y-88351000D01*
X113423000Y-91251000D02*
X114923000Y-91251000D01*
X113423000Y-88351000D02*
X114923000Y-88351000D01*
X114923000Y-91251000D02*
X114923000Y-88351000D01*
X126504000Y-87544000D02*
X126504000Y-84644000D01*
X126504000Y-87544000D02*
X128004000Y-87544000D01*
X126504000Y-84644000D02*
X128004000Y-84644000D01*
X128004000Y-87544000D02*
X128004000Y-84644000D01*
X113550000Y-86806000D02*
X113550000Y-83906000D01*
X113550000Y-86806000D02*
X115050000Y-86806000D01*
X113550000Y-83906000D02*
X115050000Y-83906000D01*
X115050000Y-86806000D02*
X115050000Y-83906000D01*
X101247000Y-75720000D02*
X101247000Y-91920000D01*
X101237000Y-75730000D02*
X104737000Y-75730000D01*
X104727000Y-75710000D02*
X104727000Y-91910000D01*
X101227000Y-91900000D02*
X104727000Y-91900000D01*
X129032000Y-80772000D02*
X129032000Y-89408000D01*
X135128000Y-80772000D02*
X129032000Y-80772000D01*
X135128000Y-89408000D02*
X135128000Y-80772000D01*
X129032000Y-89408000D02*
X135128000Y-89408000D01*
D13*
X133604000Y-87630000D02*
G75*
G03X133604000Y-87630000I-254000J0D01*
G01*
D12*
X133858000Y-79756000D02*
X133858000Y-77724000D01*
X130302000Y-79756000D02*
X133858000Y-79756000D01*
X130302000Y-77724000D02*
X130302000Y-79756000D01*
X133858000Y-77724000D02*
X130302000Y-77724000D01*
X113080800Y-84455000D02*
X113080800Y-91567000D01*
X108508800Y-84455000D02*
X113080800Y-84455000D01*
X108508800Y-91567000D02*
X108508800Y-84455000D01*
X113080800Y-91567000D02*
X108508800Y-91567000D01*
D13*
X109778800Y-85725000D02*
G75*
G03X109778800Y-85725000I-254000J0D01*
G01*
D14*
X115443000Y-81724500D02*
X116776500Y-80645000D01*
D11*
X116776500Y-81788000D02*
G75*
G03X116776500Y-81788000I-317500J0D01*
G01*
D12*
X126111000Y-91313000D02*
X126111000Y-80645000D01*
X115443000Y-91313000D02*
X126111000Y-91313000D01*
X115443000Y-81724500D02*
X115443000Y-91313000D01*
X126111000Y-80645000D02*
X116776500Y-80645000D01*
D15*
X111916095Y-78382762D02*
X112058952Y-78430381D01*
X112297048Y-78430381D01*
X112392286Y-78382762D01*
X112439905Y-78335143D01*
X112487524Y-78239905D01*
X112487524Y-78144667D01*
X112439905Y-78049429D01*
X112392286Y-78001810D01*
X112297048Y-77954190D01*
X112106571Y-77906571D01*
X112011333Y-77858952D01*
X111963714Y-77811333D01*
X111916095Y-77716095D01*
X111916095Y-77620857D01*
X111963714Y-77525619D01*
X112011333Y-77478000D01*
X112106571Y-77430381D01*
X112344667Y-77430381D01*
X112487524Y-77478000D01*
X113439905Y-78430381D02*
X112868476Y-78430381D01*
X113154190Y-78430381D02*
X113154190Y-77430381D01*
X113058952Y-77573238D01*
X112963714Y-77668476D01*
X112868476Y-77716095D01*
X110508667Y-81017714D02*
X110470572Y-81055810D01*
X110356286Y-81093905D01*
X110280096Y-81093905D01*
X110165810Y-81055810D01*
X110089619Y-80979619D01*
X110051524Y-80903429D01*
X110013429Y-80751048D01*
X110013429Y-80636762D01*
X110051524Y-80484381D01*
X110089619Y-80408190D01*
X110165810Y-80332000D01*
X110280096Y-80293905D01*
X110356286Y-80293905D01*
X110470572Y-80332000D01*
X110508667Y-80370095D01*
X111270572Y-81093905D02*
X110813429Y-81093905D01*
X111042000Y-81093905D02*
X111042000Y-80293905D01*
X110965810Y-80408190D01*
X110889619Y-80484381D01*
X110813429Y-80522476D01*
X110700667Y-83764714D02*
X110662572Y-83802810D01*
X110548286Y-83840905D01*
X110472096Y-83840905D01*
X110357810Y-83802810D01*
X110281619Y-83726619D01*
X110243524Y-83650429D01*
X110205429Y-83498048D01*
X110205429Y-83383762D01*
X110243524Y-83231381D01*
X110281619Y-83155190D01*
X110357810Y-83079000D01*
X110472096Y-83040905D01*
X110548286Y-83040905D01*
X110662572Y-83079000D01*
X110700667Y-83117095D01*
X111005429Y-83117095D02*
X111043524Y-83079000D01*
X111119715Y-83040905D01*
X111310191Y-83040905D01*
X111386381Y-83079000D01*
X111424477Y-83117095D01*
X111462572Y-83193286D01*
X111462572Y-83269476D01*
X111424477Y-83383762D01*
X110967334Y-83840905D01*
X111462572Y-83840905D01*
X114079667Y-89996714D02*
X114041572Y-90034810D01*
X113927286Y-90072905D01*
X113851096Y-90072905D01*
X113736810Y-90034810D01*
X113660619Y-89958619D01*
X113622524Y-89882429D01*
X113584429Y-89730048D01*
X113584429Y-89615762D01*
X113622524Y-89463381D01*
X113660619Y-89387190D01*
X113736810Y-89311000D01*
X113851096Y-89272905D01*
X113927286Y-89272905D01*
X114041572Y-89311000D01*
X114079667Y-89349095D01*
X114346334Y-89272905D02*
X114841572Y-89272905D01*
X114574905Y-89577667D01*
X114689191Y-89577667D01*
X114765381Y-89615762D01*
X114803477Y-89653857D01*
X114841572Y-89730048D01*
X114841572Y-89920524D01*
X114803477Y-89996714D01*
X114765381Y-90034810D01*
X114689191Y-90072905D01*
X114460619Y-90072905D01*
X114384429Y-90034810D01*
X114346334Y-89996714D01*
X127160667Y-86289714D02*
X127122572Y-86327810D01*
X127008286Y-86365905D01*
X126932096Y-86365905D01*
X126817810Y-86327810D01*
X126741619Y-86251619D01*
X126703524Y-86175429D01*
X126665429Y-86023048D01*
X126665429Y-85908762D01*
X126703524Y-85756381D01*
X126741619Y-85680190D01*
X126817810Y-85604000D01*
X126932096Y-85565905D01*
X127008286Y-85565905D01*
X127122572Y-85604000D01*
X127160667Y-85642095D01*
X127884477Y-85565905D02*
X127503524Y-85565905D01*
X127465429Y-85946857D01*
X127503524Y-85908762D01*
X127579715Y-85870667D01*
X127770191Y-85870667D01*
X127846381Y-85908762D01*
X127884477Y-85946857D01*
X127922572Y-86023048D01*
X127922572Y-86213524D01*
X127884477Y-86289714D01*
X127846381Y-86327810D01*
X127770191Y-86365905D01*
X127579715Y-86365905D01*
X127503524Y-86327810D01*
X127465429Y-86289714D01*
X114206667Y-85551714D02*
X114168572Y-85589810D01*
X114054286Y-85627905D01*
X113978096Y-85627905D01*
X113863810Y-85589810D01*
X113787619Y-85513619D01*
X113749524Y-85437429D01*
X113711429Y-85285048D01*
X113711429Y-85170762D01*
X113749524Y-85018381D01*
X113787619Y-84942190D01*
X113863810Y-84866000D01*
X113978096Y-84827905D01*
X114054286Y-84827905D01*
X114168572Y-84866000D01*
X114206667Y-84904095D01*
X114892381Y-84827905D02*
X114740000Y-84827905D01*
X114663810Y-84866000D01*
X114625715Y-84904095D01*
X114549524Y-85018381D01*
X114511429Y-85170762D01*
X114511429Y-85475524D01*
X114549524Y-85551714D01*
X114587619Y-85589810D01*
X114663810Y-85627905D01*
X114816191Y-85627905D01*
X114892381Y-85589810D01*
X114930477Y-85551714D01*
X114968572Y-85475524D01*
X114968572Y-85285048D01*
X114930477Y-85208857D01*
X114892381Y-85170762D01*
X114816191Y-85132667D01*
X114663810Y-85132667D01*
X114587619Y-85170762D01*
X114549524Y-85208857D01*
X114511429Y-85285048D01*
D16*
X102309667Y-82707238D02*
X102309667Y-84158667D01*
X102212905Y-84448952D01*
X102019381Y-84642476D01*
X101729096Y-84739238D01*
X101535572Y-84739238D01*
X104341666Y-84739238D02*
X103180524Y-84739238D01*
X103761095Y-84739238D02*
X103761095Y-82707238D01*
X103567571Y-82997524D01*
X103374047Y-83191048D01*
X103180524Y-83287810D01*
D15*
X131746667Y-84542381D02*
X131746667Y-85256667D01*
X131699047Y-85399524D01*
X131603809Y-85494762D01*
X131460952Y-85542381D01*
X131365714Y-85542381D01*
X132175238Y-84637619D02*
X132222857Y-84590000D01*
X132318095Y-84542381D01*
X132556191Y-84542381D01*
X132651429Y-84590000D01*
X132699048Y-84637619D01*
X132746667Y-84732857D01*
X132746667Y-84828095D01*
X132699048Y-84970952D01*
X132127619Y-85542381D01*
X132746667Y-85542381D01*
X131913334Y-79192381D02*
X131580000Y-78716190D01*
X131341905Y-79192381D02*
X131341905Y-78192381D01*
X131722858Y-78192381D01*
X131818096Y-78240000D01*
X131865715Y-78287619D01*
X131913334Y-78382857D01*
X131913334Y-78525714D01*
X131865715Y-78620952D01*
X131818096Y-78668571D01*
X131722858Y-78716190D01*
X131341905Y-78716190D01*
X132865715Y-79192381D02*
X132294286Y-79192381D01*
X132580000Y-79192381D02*
X132580000Y-78192381D01*
X132484762Y-78335238D01*
X132389524Y-78430476D01*
X132294286Y-78478095D01*
D16*
X109353048Y-86898238D02*
X110707714Y-88930238D01*
X110707714Y-86898238D02*
X109353048Y-88930238D01*
X112546190Y-88930238D02*
X111385048Y-88930238D01*
X111965619Y-88930238D02*
X111965619Y-86898238D01*
X111772095Y-87188524D01*
X111578571Y-87382048D01*
X111385048Y-87478810D01*
D15*
X120015095Y-85431381D02*
X120015095Y-86240905D01*
X120062714Y-86336143D01*
X120110333Y-86383762D01*
X120205571Y-86431381D01*
X120396048Y-86431381D01*
X120491286Y-86383762D01*
X120538905Y-86336143D01*
X120586524Y-86240905D01*
X120586524Y-85431381D01*
X121586524Y-86431381D02*
X121015095Y-86431381D01*
X121300809Y-86431381D02*
X121300809Y-85431381D01*
X121205571Y-85574238D01*
X121110333Y-85669476D01*
X121015095Y-85717095D01*
M02*
