%TF.GenerationSoftware,KiCad,Pcbnew,4.0.5-e0-6337~49~ubuntu16.04.1*%
%TF.CreationDate,2017-02-09T22:12:51-08:00*%
%TF.ProjectId,avr-programmer,6176722D70726F6772616D6D65722E6B,v1.0*%
%TF.FileFunction,Copper,L2,Bot,Signal*%
%FSLAX46Y46*%
G04 Gerber Fmt 4.6, Leading zero omitted, Abs format (unit mm)*
G04 Created by KiCad (PCBNEW 4.0.5-e0-6337~49~ubuntu16.04.1) date Thu Feb  9 22:12:51 2017*
%MOMM*%
%LPD*%
G01*
G04 APERTURE LIST*
%ADD10C,0.350000*%
%ADD11R,2.032000X1.727200*%
%ADD12O,2.032000X1.727200*%
%ADD13R,1.727200X1.727200*%
%ADD14O,1.727200X1.727200*%
%ADD15C,1.524000*%
%ADD16C,0.685800*%
%ADD17C,0.254000*%
%ADD18C,0.508000*%
%ADD19C,0.330200*%
%ADD20C,0.350000*%
G04 APERTURE END LIST*
D10*
D11*
X102997000Y-77470000D03*
D12*
X102997000Y-80010000D03*
X102997000Y-82550000D03*
X102997000Y-85090000D03*
X102997000Y-87630000D03*
X102997000Y-90170000D03*
D13*
X133350000Y-87630000D03*
D14*
X130810000Y-87630000D03*
X133350000Y-85090000D03*
X130810000Y-85090000D03*
X133350000Y-82550000D03*
X130810000Y-82550000D03*
D15*
X137972800Y-83820000D03*
X137972800Y-86309200D03*
X137972800Y-81330800D03*
D16*
X116078000Y-78994000D03*
X115130098Y-88900000D03*
X124714000Y-78740000D03*
X109220000Y-77724000D03*
X111506000Y-82042000D03*
X127000000Y-83566000D03*
X118237000Y-86360000D03*
X109474000Y-88138000D03*
X112776000Y-83947000D03*
X115271902Y-86360000D03*
X118618000Y-80264000D03*
X119634000Y-83058000D03*
X123444000Y-88646000D03*
X128733911Y-87122000D03*
X126593600Y-86969600D03*
X118527376Y-85180624D03*
X129540000Y-78740000D03*
X121977000Y-88462000D03*
D17*
X102997000Y-80010000D02*
X118364000Y-80010000D01*
X118364000Y-80010000D02*
X118618000Y-80264000D01*
X119149067Y-83058000D02*
X119634000Y-83058000D01*
X111450626Y-83058000D02*
X119149067Y-83058000D01*
X110942626Y-82550000D02*
X111450626Y-83058000D01*
X102997000Y-82550000D02*
X110942626Y-82550000D01*
X123444000Y-88646000D02*
X127254000Y-88646000D01*
X128225911Y-87630000D02*
X128225911Y-87674089D01*
X128225911Y-87674089D02*
X127254000Y-88646000D01*
X128225911Y-87630000D02*
X128733911Y-87122000D01*
X126764524Y-86664800D02*
X126764524Y-85108524D01*
X126764524Y-86849476D02*
X126764524Y-86664800D01*
X126764524Y-86664800D02*
X126764524Y-86798676D01*
X126764524Y-86798676D02*
X126593600Y-86969600D01*
X126764524Y-85108524D02*
X126746000Y-85090000D01*
D18*
X118618000Y-85090000D02*
X126746000Y-85090000D01*
X126746000Y-85090000D02*
X128270000Y-85090000D01*
X102997000Y-85090000D02*
X118618000Y-85090000D01*
D17*
X128270000Y-80010000D02*
X128270000Y-85090000D01*
X129540000Y-78740000D02*
X128270000Y-80010000D01*
D18*
X128270000Y-85090000D02*
X130810000Y-87630000D01*
D17*
X121977000Y-88462000D02*
X121977000Y-89338000D01*
X121977000Y-89338000D02*
X122301000Y-89662000D01*
X134620000Y-89662000D02*
X137972800Y-86309200D01*
X122301000Y-89662000D02*
X134620000Y-89662000D01*
G36*
X140126116Y-76379945D02*
X140508892Y-76635710D01*
X140764655Y-77018484D01*
X140868400Y-77540049D01*
X140868400Y-90099951D01*
X140764655Y-90621516D01*
X140508892Y-91004290D01*
X140126116Y-91260055D01*
X139604551Y-91363800D01*
X104021178Y-91363800D01*
X104347732Y-91072036D01*
X104601709Y-90544791D01*
X104604358Y-90529026D01*
X104483217Y-90297000D01*
X103124000Y-90297000D01*
X103124000Y-90317000D01*
X102870000Y-90317000D01*
X102870000Y-90297000D01*
X102850000Y-90297000D01*
X102850000Y-90043000D01*
X102870000Y-90043000D01*
X102870000Y-90023000D01*
X103124000Y-90023000D01*
X103124000Y-90043000D01*
X104483217Y-90043000D01*
X104604358Y-89810974D01*
X104601709Y-89795209D01*
X104347732Y-89267964D01*
X103931931Y-88896461D01*
X104241415Y-88689670D01*
X104566271Y-88203489D01*
X104680345Y-87630000D01*
X104566271Y-87056511D01*
X104241415Y-86570330D01*
X103926634Y-86360000D01*
X104241415Y-86149670D01*
X104355453Y-85979000D01*
X117942606Y-85979000D01*
X117972717Y-86009164D01*
X118332006Y-86158354D01*
X118721039Y-86158693D01*
X119080588Y-86010131D01*
X119111773Y-85979000D01*
X126002524Y-85979000D01*
X126002524Y-86177891D01*
X125765060Y-86414941D01*
X125615870Y-86774230D01*
X125615531Y-87163263D01*
X125764093Y-87522812D01*
X126038941Y-87798140D01*
X126245715Y-87884000D01*
X124065083Y-87884000D01*
X123998659Y-87817460D01*
X123639370Y-87668270D01*
X123250337Y-87667931D01*
X122890788Y-87816493D01*
X122802427Y-87904700D01*
X122531659Y-87633460D01*
X122172370Y-87484270D01*
X121783337Y-87483931D01*
X121423788Y-87632493D01*
X121148460Y-87907341D01*
X120999270Y-88266630D01*
X120998931Y-88655663D01*
X121147493Y-89015212D01*
X121215000Y-89082837D01*
X121215000Y-89338000D01*
X121273004Y-89629605D01*
X121394191Y-89810974D01*
X121438185Y-89876815D01*
X121762184Y-90200815D01*
X122009395Y-90365996D01*
X122301000Y-90424000D01*
X134620000Y-90424000D01*
X134911605Y-90365996D01*
X135158815Y-90200815D01*
X137665418Y-87694213D01*
X137693700Y-87705957D01*
X138249461Y-87706442D01*
X138763103Y-87494210D01*
X139156429Y-87101570D01*
X139369557Y-86588300D01*
X139370042Y-86032539D01*
X139157810Y-85518897D01*
X138765170Y-85125571D01*
X138618609Y-85064714D01*
X138763103Y-85005010D01*
X139156429Y-84612370D01*
X139369557Y-84099100D01*
X139370042Y-83543339D01*
X139157810Y-83029697D01*
X138765170Y-82636371D01*
X138618609Y-82575514D01*
X138763103Y-82515810D01*
X139156429Y-82123170D01*
X139369557Y-81609900D01*
X139370042Y-81054139D01*
X139157810Y-80540497D01*
X138765170Y-80147171D01*
X138251900Y-79934043D01*
X137696139Y-79933558D01*
X137182497Y-80145790D01*
X136789171Y-80538430D01*
X136576043Y-81051700D01*
X136575558Y-81607461D01*
X136787790Y-82121103D01*
X137180430Y-82514429D01*
X137326991Y-82575286D01*
X137182497Y-82634990D01*
X136789171Y-83027630D01*
X136576043Y-83540900D01*
X136575558Y-84096661D01*
X136787790Y-84610303D01*
X137180430Y-85003629D01*
X137326991Y-85064486D01*
X137182497Y-85124190D01*
X136789171Y-85516830D01*
X136576043Y-86030100D01*
X136575558Y-86585861D01*
X136588116Y-86616253D01*
X134861040Y-88343330D01*
X134861040Y-86766400D01*
X134816762Y-86531083D01*
X134677690Y-86314959D01*
X134465490Y-86169969D01*
X134421869Y-86161136D01*
X134439029Y-86149670D01*
X134763885Y-85663489D01*
X134877959Y-85090000D01*
X134763885Y-84516511D01*
X134439029Y-84030330D01*
X134124248Y-83820000D01*
X134439029Y-83609670D01*
X134763885Y-83123489D01*
X134877959Y-82550000D01*
X134763885Y-81976511D01*
X134439029Y-81490330D01*
X133952848Y-81165474D01*
X133379359Y-81051400D01*
X133320641Y-81051400D01*
X132747152Y-81165474D01*
X132260971Y-81490330D01*
X132080008Y-81761161D01*
X131698490Y-81343179D01*
X131169027Y-81095032D01*
X130937000Y-81215531D01*
X130937000Y-82423000D01*
X130957000Y-82423000D01*
X130957000Y-82677000D01*
X130937000Y-82677000D01*
X130937000Y-82697000D01*
X130683000Y-82697000D01*
X130683000Y-82677000D01*
X129476183Y-82677000D01*
X129355042Y-82909026D01*
X129527312Y-83324947D01*
X129921510Y-83756821D01*
X130044228Y-83814336D01*
X129720971Y-84030330D01*
X129396115Y-84516511D01*
X129322721Y-84885485D01*
X129032000Y-84594764D01*
X129032000Y-82190974D01*
X129355042Y-82190974D01*
X129476183Y-82423000D01*
X130683000Y-82423000D01*
X130683000Y-81215531D01*
X130450973Y-81095032D01*
X129921510Y-81343179D01*
X129527312Y-81775053D01*
X129355042Y-82190974D01*
X129032000Y-82190974D01*
X129032000Y-80325630D01*
X129639644Y-79717987D01*
X129733663Y-79718069D01*
X130093212Y-79569507D01*
X130368540Y-79294659D01*
X130517730Y-78935370D01*
X130518069Y-78546337D01*
X130369507Y-78186788D01*
X130094659Y-77911460D01*
X129735370Y-77762270D01*
X129346337Y-77761931D01*
X128986788Y-77910493D01*
X128711460Y-78185341D01*
X128562270Y-78544630D01*
X128562187Y-78640183D01*
X127731185Y-79471185D01*
X127566004Y-79718395D01*
X127508000Y-80010000D01*
X127508000Y-84201000D01*
X104355453Y-84201000D01*
X104241415Y-84030330D01*
X103926634Y-83820000D01*
X104241415Y-83609670D01*
X104440312Y-83312000D01*
X110626996Y-83312000D01*
X110911810Y-83596815D01*
X111074430Y-83705474D01*
X111159021Y-83761996D01*
X111450626Y-83820000D01*
X119012917Y-83820000D01*
X119079341Y-83886540D01*
X119438630Y-84035730D01*
X119827663Y-84036069D01*
X120187212Y-83887507D01*
X120462540Y-83612659D01*
X120611730Y-83253370D01*
X120612069Y-82864337D01*
X120463507Y-82504788D01*
X120188659Y-82229460D01*
X119829370Y-82080270D01*
X119440337Y-82079931D01*
X119080788Y-82228493D01*
X119013163Y-82296000D01*
X111766257Y-82296000D01*
X111481441Y-82011185D01*
X111429548Y-81976511D01*
X111234231Y-81846004D01*
X110942626Y-81788000D01*
X104440312Y-81788000D01*
X104241415Y-81490330D01*
X103926634Y-81280000D01*
X104241415Y-81069670D01*
X104440312Y-80772000D01*
X117769812Y-80772000D01*
X117788493Y-80817212D01*
X118063341Y-81092540D01*
X118422630Y-81241730D01*
X118811663Y-81242069D01*
X119171212Y-81093507D01*
X119446540Y-80818659D01*
X119595730Y-80459370D01*
X119596069Y-80070337D01*
X119447507Y-79710788D01*
X119172659Y-79435460D01*
X118813370Y-79286270D01*
X118555265Y-79286045D01*
X118364000Y-79248000D01*
X117031385Y-79248000D01*
X117055730Y-79189370D01*
X117056069Y-78800337D01*
X116907507Y-78440788D01*
X116632659Y-78165460D01*
X116273370Y-78016270D01*
X115884337Y-78015931D01*
X115524788Y-78164493D01*
X115249460Y-78439341D01*
X115100270Y-78798630D01*
X115099931Y-79187663D01*
X115124862Y-79248000D01*
X104440312Y-79248000D01*
X104241415Y-78950330D01*
X104227087Y-78940757D01*
X104248317Y-78936762D01*
X104464441Y-78797690D01*
X104609431Y-78585490D01*
X104660440Y-78333600D01*
X104660440Y-76606400D01*
X104616162Y-76371083D01*
X104555106Y-76276200D01*
X139604551Y-76276200D01*
X140126116Y-76379945D01*
X140126116Y-76379945D01*
G37*
X140126116Y-76379945D02*
X140508892Y-76635710D01*
X140764655Y-77018484D01*
X140868400Y-77540049D01*
X140868400Y-90099951D01*
X140764655Y-90621516D01*
X140508892Y-91004290D01*
X140126116Y-91260055D01*
X139604551Y-91363800D01*
X104021178Y-91363800D01*
X104347732Y-91072036D01*
X104601709Y-90544791D01*
X104604358Y-90529026D01*
X104483217Y-90297000D01*
X103124000Y-90297000D01*
X103124000Y-90317000D01*
X102870000Y-90317000D01*
X102870000Y-90297000D01*
X102850000Y-90297000D01*
X102850000Y-90043000D01*
X102870000Y-90043000D01*
X102870000Y-90023000D01*
X103124000Y-90023000D01*
X103124000Y-90043000D01*
X104483217Y-90043000D01*
X104604358Y-89810974D01*
X104601709Y-89795209D01*
X104347732Y-89267964D01*
X103931931Y-88896461D01*
X104241415Y-88689670D01*
X104566271Y-88203489D01*
X104680345Y-87630000D01*
X104566271Y-87056511D01*
X104241415Y-86570330D01*
X103926634Y-86360000D01*
X104241415Y-86149670D01*
X104355453Y-85979000D01*
X117942606Y-85979000D01*
X117972717Y-86009164D01*
X118332006Y-86158354D01*
X118721039Y-86158693D01*
X119080588Y-86010131D01*
X119111773Y-85979000D01*
X126002524Y-85979000D01*
X126002524Y-86177891D01*
X125765060Y-86414941D01*
X125615870Y-86774230D01*
X125615531Y-87163263D01*
X125764093Y-87522812D01*
X126038941Y-87798140D01*
X126245715Y-87884000D01*
X124065083Y-87884000D01*
X123998659Y-87817460D01*
X123639370Y-87668270D01*
X123250337Y-87667931D01*
X122890788Y-87816493D01*
X122802427Y-87904700D01*
X122531659Y-87633460D01*
X122172370Y-87484270D01*
X121783337Y-87483931D01*
X121423788Y-87632493D01*
X121148460Y-87907341D01*
X120999270Y-88266630D01*
X120998931Y-88655663D01*
X121147493Y-89015212D01*
X121215000Y-89082837D01*
X121215000Y-89338000D01*
X121273004Y-89629605D01*
X121394191Y-89810974D01*
X121438185Y-89876815D01*
X121762184Y-90200815D01*
X122009395Y-90365996D01*
X122301000Y-90424000D01*
X134620000Y-90424000D01*
X134911605Y-90365996D01*
X135158815Y-90200815D01*
X137665418Y-87694213D01*
X137693700Y-87705957D01*
X138249461Y-87706442D01*
X138763103Y-87494210D01*
X139156429Y-87101570D01*
X139369557Y-86588300D01*
X139370042Y-86032539D01*
X139157810Y-85518897D01*
X138765170Y-85125571D01*
X138618609Y-85064714D01*
X138763103Y-85005010D01*
X139156429Y-84612370D01*
X139369557Y-84099100D01*
X139370042Y-83543339D01*
X139157810Y-83029697D01*
X138765170Y-82636371D01*
X138618609Y-82575514D01*
X138763103Y-82515810D01*
X139156429Y-82123170D01*
X139369557Y-81609900D01*
X139370042Y-81054139D01*
X139157810Y-80540497D01*
X138765170Y-80147171D01*
X138251900Y-79934043D01*
X137696139Y-79933558D01*
X137182497Y-80145790D01*
X136789171Y-80538430D01*
X136576043Y-81051700D01*
X136575558Y-81607461D01*
X136787790Y-82121103D01*
X137180430Y-82514429D01*
X137326991Y-82575286D01*
X137182497Y-82634990D01*
X136789171Y-83027630D01*
X136576043Y-83540900D01*
X136575558Y-84096661D01*
X136787790Y-84610303D01*
X137180430Y-85003629D01*
X137326991Y-85064486D01*
X137182497Y-85124190D01*
X136789171Y-85516830D01*
X136576043Y-86030100D01*
X136575558Y-86585861D01*
X136588116Y-86616253D01*
X134861040Y-88343330D01*
X134861040Y-86766400D01*
X134816762Y-86531083D01*
X134677690Y-86314959D01*
X134465490Y-86169969D01*
X134421869Y-86161136D01*
X134439029Y-86149670D01*
X134763885Y-85663489D01*
X134877959Y-85090000D01*
X134763885Y-84516511D01*
X134439029Y-84030330D01*
X134124248Y-83820000D01*
X134439029Y-83609670D01*
X134763885Y-83123489D01*
X134877959Y-82550000D01*
X134763885Y-81976511D01*
X134439029Y-81490330D01*
X133952848Y-81165474D01*
X133379359Y-81051400D01*
X133320641Y-81051400D01*
X132747152Y-81165474D01*
X132260971Y-81490330D01*
X132080008Y-81761161D01*
X131698490Y-81343179D01*
X131169027Y-81095032D01*
X130937000Y-81215531D01*
X130937000Y-82423000D01*
X130957000Y-82423000D01*
X130957000Y-82677000D01*
X130937000Y-82677000D01*
X130937000Y-82697000D01*
X130683000Y-82697000D01*
X130683000Y-82677000D01*
X129476183Y-82677000D01*
X129355042Y-82909026D01*
X129527312Y-83324947D01*
X129921510Y-83756821D01*
X130044228Y-83814336D01*
X129720971Y-84030330D01*
X129396115Y-84516511D01*
X129322721Y-84885485D01*
X129032000Y-84594764D01*
X129032000Y-82190974D01*
X129355042Y-82190974D01*
X129476183Y-82423000D01*
X130683000Y-82423000D01*
X130683000Y-81215531D01*
X130450973Y-81095032D01*
X129921510Y-81343179D01*
X129527312Y-81775053D01*
X129355042Y-82190974D01*
X129032000Y-82190974D01*
X129032000Y-80325630D01*
X129639644Y-79717987D01*
X129733663Y-79718069D01*
X130093212Y-79569507D01*
X130368540Y-79294659D01*
X130517730Y-78935370D01*
X130518069Y-78546337D01*
X130369507Y-78186788D01*
X130094659Y-77911460D01*
X129735370Y-77762270D01*
X129346337Y-77761931D01*
X128986788Y-77910493D01*
X128711460Y-78185341D01*
X128562270Y-78544630D01*
X128562187Y-78640183D01*
X127731185Y-79471185D01*
X127566004Y-79718395D01*
X127508000Y-80010000D01*
X127508000Y-84201000D01*
X104355453Y-84201000D01*
X104241415Y-84030330D01*
X103926634Y-83820000D01*
X104241415Y-83609670D01*
X104440312Y-83312000D01*
X110626996Y-83312000D01*
X110911810Y-83596815D01*
X111074430Y-83705474D01*
X111159021Y-83761996D01*
X111450626Y-83820000D01*
X119012917Y-83820000D01*
X119079341Y-83886540D01*
X119438630Y-84035730D01*
X119827663Y-84036069D01*
X120187212Y-83887507D01*
X120462540Y-83612659D01*
X120611730Y-83253370D01*
X120612069Y-82864337D01*
X120463507Y-82504788D01*
X120188659Y-82229460D01*
X119829370Y-82080270D01*
X119440337Y-82079931D01*
X119080788Y-82228493D01*
X119013163Y-82296000D01*
X111766257Y-82296000D01*
X111481441Y-82011185D01*
X111429548Y-81976511D01*
X111234231Y-81846004D01*
X110942626Y-81788000D01*
X104440312Y-81788000D01*
X104241415Y-81490330D01*
X103926634Y-81280000D01*
X104241415Y-81069670D01*
X104440312Y-80772000D01*
X117769812Y-80772000D01*
X117788493Y-80817212D01*
X118063341Y-81092540D01*
X118422630Y-81241730D01*
X118811663Y-81242069D01*
X119171212Y-81093507D01*
X119446540Y-80818659D01*
X119595730Y-80459370D01*
X119596069Y-80070337D01*
X119447507Y-79710788D01*
X119172659Y-79435460D01*
X118813370Y-79286270D01*
X118555265Y-79286045D01*
X118364000Y-79248000D01*
X117031385Y-79248000D01*
X117055730Y-79189370D01*
X117056069Y-78800337D01*
X116907507Y-78440788D01*
X116632659Y-78165460D01*
X116273370Y-78016270D01*
X115884337Y-78015931D01*
X115524788Y-78164493D01*
X115249460Y-78439341D01*
X115100270Y-78798630D01*
X115099931Y-79187663D01*
X115124862Y-79248000D01*
X104440312Y-79248000D01*
X104241415Y-78950330D01*
X104227087Y-78940757D01*
X104248317Y-78936762D01*
X104464441Y-78797690D01*
X104609431Y-78585490D01*
X104660440Y-78333600D01*
X104660440Y-76606400D01*
X104616162Y-76371083D01*
X104555106Y-76276200D01*
X139604551Y-76276200D01*
X140126116Y-76379945D01*
D19*
X116078000Y-78994000D03*
X115130098Y-88900000D03*
X124714000Y-78740000D03*
X109220000Y-77724000D03*
X111506000Y-82042000D03*
X127000000Y-83566000D03*
X118237000Y-86360000D03*
X109474000Y-88138000D03*
X112776000Y-83947000D03*
X115271902Y-86360000D03*
X118618000Y-80264000D03*
X119634000Y-83058000D03*
X123444000Y-88646000D03*
X128733911Y-87122000D03*
X126593600Y-86969600D03*
X118527376Y-85180624D03*
X129540000Y-78740000D03*
X121977000Y-88462000D03*
D20*
X102997000Y-77470000D03*
X102997000Y-80010000D03*
X102997000Y-82550000D03*
X102997000Y-85090000D03*
X102997000Y-87630000D03*
X102997000Y-90170000D03*
X133350000Y-87630000D03*
X130810000Y-87630000D03*
X133350000Y-85090000D03*
X130810000Y-85090000D03*
X133350000Y-82550000D03*
X130810000Y-82550000D03*
X137972800Y-83820000D03*
X137972800Y-86309200D03*
X137972800Y-81330800D03*
M02*
