%TF.GenerationSoftware,KiCad,Pcbnew,4.0.5-e0-6337~49~ubuntu16.04.1*%
%TF.CreationDate,2017-01-09T19:52:44-08:00*%
%TF.ProjectId,avr-programmer,6176722D70726F6772616D6D65722E6B,v1.0*%
%TF.FileFunction,Soldermask,Bot*%
%FSLAX46Y46*%
G04 Gerber Fmt 4.6, Leading zero omitted, Abs format (unit mm)*
G04 Created by KiCad (PCBNEW 4.0.5-e0-6337~49~ubuntu16.04.1) date Mon Jan  9 19:52:44 2017*
%MOMM*%
%LPD*%
G01*
G04 APERTURE LIST*
%ADD10C,0.350000*%
G04 APERTURE END LIST*
D10*
G36*
X103165749Y-89230277D02*
X103165754Y-89230278D01*
X103167807Y-89230292D01*
X103350080Y-89250737D01*
X103524912Y-89306197D01*
X103685641Y-89394558D01*
X103826146Y-89512456D01*
X103941076Y-89655400D01*
X104026052Y-89817945D01*
X104077839Y-89993899D01*
X104077843Y-89993940D01*
X104077844Y-89993944D01*
X104094463Y-90176558D01*
X104076648Y-90346056D01*
X104075290Y-90358973D01*
X104021052Y-90534187D01*
X103933815Y-90695529D01*
X103816900Y-90836855D01*
X103674762Y-90952779D01*
X103512815Y-91038888D01*
X103337226Y-91091902D01*
X103154685Y-91109800D01*
X102839283Y-91109800D01*
X102828251Y-91109723D01*
X102828246Y-91109722D01*
X102826193Y-91109708D01*
X102643920Y-91089263D01*
X102469088Y-91033803D01*
X102308359Y-90945442D01*
X102167854Y-90827544D01*
X102052924Y-90684600D01*
X101967948Y-90522055D01*
X101916161Y-90346101D01*
X101916157Y-90346060D01*
X101916156Y-90346056D01*
X101899537Y-90163442D01*
X101918705Y-89981074D01*
X101918710Y-89981027D01*
X101972948Y-89805813D01*
X102060185Y-89644471D01*
X102177100Y-89503145D01*
X102319238Y-89387221D01*
X102481185Y-89301112D01*
X102656774Y-89248098D01*
X102839315Y-89230200D01*
X103154717Y-89230200D01*
X103165749Y-89230277D01*
X103165749Y-89230277D01*
G37*
G36*
X134289800Y-88569800D02*
X132410200Y-88569800D01*
X132410200Y-86690200D01*
X134289800Y-86690200D01*
X134289800Y-88569800D01*
X134289800Y-88569800D01*
G37*
G36*
X130825612Y-86690277D02*
X130825617Y-86690278D01*
X130827669Y-86690292D01*
X131009942Y-86710737D01*
X131184774Y-86766197D01*
X131345503Y-86854558D01*
X131486008Y-86972456D01*
X131600938Y-87115400D01*
X131685914Y-87277945D01*
X131737701Y-87453899D01*
X131737704Y-87453935D01*
X131737707Y-87453944D01*
X131754326Y-87636558D01*
X131735158Y-87818926D01*
X131735156Y-87818931D01*
X131735152Y-87818973D01*
X131680914Y-87994187D01*
X131593677Y-88155529D01*
X131476762Y-88296855D01*
X131334624Y-88412779D01*
X131172677Y-88498888D01*
X130997088Y-88551902D01*
X130814547Y-88569800D01*
X130805420Y-88569800D01*
X130794388Y-88569723D01*
X130794383Y-88569722D01*
X130792331Y-88569708D01*
X130610058Y-88549263D01*
X130435226Y-88493803D01*
X130274497Y-88405442D01*
X130133992Y-88287544D01*
X130019062Y-88144600D01*
X129934086Y-87982055D01*
X129882299Y-87806101D01*
X129882296Y-87806065D01*
X129882293Y-87806056D01*
X129865674Y-87623442D01*
X129884842Y-87441074D01*
X129884844Y-87441069D01*
X129884848Y-87441027D01*
X129939086Y-87265813D01*
X130026323Y-87104471D01*
X130143238Y-86963145D01*
X130285376Y-86847221D01*
X130447323Y-86761112D01*
X130622912Y-86708098D01*
X130805453Y-86690200D01*
X130814580Y-86690200D01*
X130825612Y-86690277D01*
X130825612Y-86690277D01*
G37*
G36*
X103165749Y-86690277D02*
X103165754Y-86690278D01*
X103167807Y-86690292D01*
X103350080Y-86710737D01*
X103524912Y-86766197D01*
X103685641Y-86854558D01*
X103826146Y-86972456D01*
X103941076Y-87115400D01*
X104026052Y-87277945D01*
X104077839Y-87453899D01*
X104077843Y-87453940D01*
X104077844Y-87453944D01*
X104094463Y-87636558D01*
X104076648Y-87806056D01*
X104075290Y-87818973D01*
X104021052Y-87994187D01*
X103933815Y-88155529D01*
X103816900Y-88296855D01*
X103674762Y-88412779D01*
X103512815Y-88498888D01*
X103337226Y-88551902D01*
X103154685Y-88569800D01*
X102839283Y-88569800D01*
X102828251Y-88569723D01*
X102828246Y-88569722D01*
X102826193Y-88569708D01*
X102643920Y-88549263D01*
X102469088Y-88493803D01*
X102308359Y-88405442D01*
X102167854Y-88287544D01*
X102052924Y-88144600D01*
X101967948Y-87982055D01*
X101916161Y-87806101D01*
X101916157Y-87806060D01*
X101916156Y-87806056D01*
X101899537Y-87623442D01*
X101918705Y-87441074D01*
X101918710Y-87441027D01*
X101972948Y-87265813D01*
X102060185Y-87104471D01*
X102177100Y-86963145D01*
X102319238Y-86847221D01*
X102481185Y-86761112D01*
X102656774Y-86708098D01*
X102839315Y-86690200D01*
X103154717Y-86690200D01*
X103165749Y-86690277D01*
X103165749Y-86690277D01*
G37*
G36*
X133365612Y-84150277D02*
X133365617Y-84150278D01*
X133367669Y-84150292D01*
X133549942Y-84170737D01*
X133724774Y-84226197D01*
X133885503Y-84314558D01*
X134026008Y-84432456D01*
X134140938Y-84575400D01*
X134225914Y-84737945D01*
X134277701Y-84913899D01*
X134277704Y-84913935D01*
X134277707Y-84913944D01*
X134294326Y-85096558D01*
X134275158Y-85278926D01*
X134275156Y-85278931D01*
X134275152Y-85278973D01*
X134220914Y-85454187D01*
X134133677Y-85615529D01*
X134016762Y-85756855D01*
X133874624Y-85872779D01*
X133712677Y-85958888D01*
X133537088Y-86011902D01*
X133354547Y-86029800D01*
X133345420Y-86029800D01*
X133334388Y-86029723D01*
X133334383Y-86029722D01*
X133332331Y-86029708D01*
X133150058Y-86009263D01*
X132975226Y-85953803D01*
X132814497Y-85865442D01*
X132673992Y-85747544D01*
X132559062Y-85604600D01*
X132474086Y-85442055D01*
X132422299Y-85266101D01*
X132422296Y-85266065D01*
X132422293Y-85266056D01*
X132405674Y-85083442D01*
X132424842Y-84901074D01*
X132424844Y-84901069D01*
X132424848Y-84901027D01*
X132479086Y-84725813D01*
X132566323Y-84564471D01*
X132683238Y-84423145D01*
X132825376Y-84307221D01*
X132987323Y-84221112D01*
X133162912Y-84168098D01*
X133345453Y-84150200D01*
X133354580Y-84150200D01*
X133365612Y-84150277D01*
X133365612Y-84150277D01*
G37*
G36*
X130825612Y-84150277D02*
X130825617Y-84150278D01*
X130827669Y-84150292D01*
X131009942Y-84170737D01*
X131184774Y-84226197D01*
X131345503Y-84314558D01*
X131486008Y-84432456D01*
X131600938Y-84575400D01*
X131685914Y-84737945D01*
X131737701Y-84913899D01*
X131737704Y-84913935D01*
X131737707Y-84913944D01*
X131754326Y-85096558D01*
X131735158Y-85278926D01*
X131735156Y-85278931D01*
X131735152Y-85278973D01*
X131680914Y-85454187D01*
X131593677Y-85615529D01*
X131476762Y-85756855D01*
X131334624Y-85872779D01*
X131172677Y-85958888D01*
X130997088Y-86011902D01*
X130814547Y-86029800D01*
X130805420Y-86029800D01*
X130794388Y-86029723D01*
X130794383Y-86029722D01*
X130792331Y-86029708D01*
X130610058Y-86009263D01*
X130435226Y-85953803D01*
X130274497Y-85865442D01*
X130133992Y-85747544D01*
X130019062Y-85604600D01*
X129934086Y-85442055D01*
X129882299Y-85266101D01*
X129882296Y-85266065D01*
X129882293Y-85266056D01*
X129865674Y-85083442D01*
X129884842Y-84901074D01*
X129884844Y-84901069D01*
X129884848Y-84901027D01*
X129939086Y-84725813D01*
X130026323Y-84564471D01*
X130143238Y-84423145D01*
X130285376Y-84307221D01*
X130447323Y-84221112D01*
X130622912Y-84168098D01*
X130805453Y-84150200D01*
X130814580Y-84150200D01*
X130825612Y-84150277D01*
X130825612Y-84150277D01*
G37*
G36*
X103165749Y-84150277D02*
X103165754Y-84150278D01*
X103167807Y-84150292D01*
X103350080Y-84170737D01*
X103524912Y-84226197D01*
X103685641Y-84314558D01*
X103826146Y-84432456D01*
X103941076Y-84575400D01*
X104026052Y-84737945D01*
X104077839Y-84913899D01*
X104077843Y-84913940D01*
X104077844Y-84913944D01*
X104094463Y-85096558D01*
X104076648Y-85266056D01*
X104075290Y-85278973D01*
X104021052Y-85454187D01*
X103933815Y-85615529D01*
X103816900Y-85756855D01*
X103674762Y-85872779D01*
X103512815Y-85958888D01*
X103337226Y-86011902D01*
X103154685Y-86029800D01*
X102839283Y-86029800D01*
X102828251Y-86029723D01*
X102828246Y-86029722D01*
X102826193Y-86029708D01*
X102643920Y-86009263D01*
X102469088Y-85953803D01*
X102308359Y-85865442D01*
X102167854Y-85747544D01*
X102052924Y-85604600D01*
X101967948Y-85442055D01*
X101916161Y-85266101D01*
X101916157Y-85266060D01*
X101916156Y-85266056D01*
X101899537Y-85083442D01*
X101918705Y-84901074D01*
X101918710Y-84901027D01*
X101972948Y-84725813D01*
X102060185Y-84564471D01*
X102177100Y-84423145D01*
X102319238Y-84307221D01*
X102481185Y-84221112D01*
X102656774Y-84168098D01*
X102839315Y-84150200D01*
X103154717Y-84150200D01*
X103165749Y-84150277D01*
X103165749Y-84150277D01*
G37*
G36*
X130825612Y-81610277D02*
X130825617Y-81610278D01*
X130827669Y-81610292D01*
X131009942Y-81630737D01*
X131184774Y-81686197D01*
X131345503Y-81774558D01*
X131486008Y-81892456D01*
X131600938Y-82035400D01*
X131685914Y-82197945D01*
X131737701Y-82373899D01*
X131737704Y-82373935D01*
X131737707Y-82373944D01*
X131754326Y-82556558D01*
X131735158Y-82738926D01*
X131735156Y-82738931D01*
X131735152Y-82738973D01*
X131680914Y-82914187D01*
X131593677Y-83075529D01*
X131476762Y-83216855D01*
X131334624Y-83332779D01*
X131172677Y-83418888D01*
X130997088Y-83471902D01*
X130814547Y-83489800D01*
X130805420Y-83489800D01*
X130794388Y-83489723D01*
X130794383Y-83489722D01*
X130792331Y-83489708D01*
X130610058Y-83469263D01*
X130435226Y-83413803D01*
X130274497Y-83325442D01*
X130133992Y-83207544D01*
X130019062Y-83064600D01*
X129934086Y-82902055D01*
X129882299Y-82726101D01*
X129882296Y-82726065D01*
X129882293Y-82726056D01*
X129865674Y-82543442D01*
X129884842Y-82361074D01*
X129884844Y-82361069D01*
X129884848Y-82361027D01*
X129939086Y-82185813D01*
X130026323Y-82024471D01*
X130143238Y-81883145D01*
X130285376Y-81767221D01*
X130447323Y-81681112D01*
X130622912Y-81628098D01*
X130805453Y-81610200D01*
X130814580Y-81610200D01*
X130825612Y-81610277D01*
X130825612Y-81610277D01*
G37*
G36*
X133365612Y-81610277D02*
X133365617Y-81610278D01*
X133367669Y-81610292D01*
X133549942Y-81630737D01*
X133724774Y-81686197D01*
X133885503Y-81774558D01*
X134026008Y-81892456D01*
X134140938Y-82035400D01*
X134225914Y-82197945D01*
X134277701Y-82373899D01*
X134277704Y-82373935D01*
X134277707Y-82373944D01*
X134294326Y-82556558D01*
X134275158Y-82738926D01*
X134275156Y-82738931D01*
X134275152Y-82738973D01*
X134220914Y-82914187D01*
X134133677Y-83075529D01*
X134016762Y-83216855D01*
X133874624Y-83332779D01*
X133712677Y-83418888D01*
X133537088Y-83471902D01*
X133354547Y-83489800D01*
X133345420Y-83489800D01*
X133334388Y-83489723D01*
X133334383Y-83489722D01*
X133332331Y-83489708D01*
X133150058Y-83469263D01*
X132975226Y-83413803D01*
X132814497Y-83325442D01*
X132673992Y-83207544D01*
X132559062Y-83064600D01*
X132474086Y-82902055D01*
X132422299Y-82726101D01*
X132422296Y-82726065D01*
X132422293Y-82726056D01*
X132405674Y-82543442D01*
X132424842Y-82361074D01*
X132424844Y-82361069D01*
X132424848Y-82361027D01*
X132479086Y-82185813D01*
X132566323Y-82024471D01*
X132683238Y-81883145D01*
X132825376Y-81767221D01*
X132987323Y-81681112D01*
X133162912Y-81628098D01*
X133345453Y-81610200D01*
X133354580Y-81610200D01*
X133365612Y-81610277D01*
X133365612Y-81610277D01*
G37*
G36*
X103165749Y-81610277D02*
X103165754Y-81610278D01*
X103167807Y-81610292D01*
X103350080Y-81630737D01*
X103524912Y-81686197D01*
X103685641Y-81774558D01*
X103826146Y-81892456D01*
X103941076Y-82035400D01*
X104026052Y-82197945D01*
X104077839Y-82373899D01*
X104077843Y-82373940D01*
X104077844Y-82373944D01*
X104094463Y-82556558D01*
X104076648Y-82726056D01*
X104075290Y-82738973D01*
X104021052Y-82914187D01*
X103933815Y-83075529D01*
X103816900Y-83216855D01*
X103674762Y-83332779D01*
X103512815Y-83418888D01*
X103337226Y-83471902D01*
X103154685Y-83489800D01*
X102839283Y-83489800D01*
X102828251Y-83489723D01*
X102828246Y-83489722D01*
X102826193Y-83489708D01*
X102643920Y-83469263D01*
X102469088Y-83413803D01*
X102308359Y-83325442D01*
X102167854Y-83207544D01*
X102052924Y-83064600D01*
X101967948Y-82902055D01*
X101916161Y-82726101D01*
X101916157Y-82726060D01*
X101916156Y-82726056D01*
X101899537Y-82543442D01*
X101918705Y-82361074D01*
X101918710Y-82361027D01*
X101972948Y-82185813D01*
X102060185Y-82024471D01*
X102177100Y-81883145D01*
X102319238Y-81767221D01*
X102481185Y-81681112D01*
X102656774Y-81628098D01*
X102839315Y-81610200D01*
X103154717Y-81610200D01*
X103165749Y-81610277D01*
X103165749Y-81610277D01*
G37*
G36*
X103165749Y-79070277D02*
X103165754Y-79070278D01*
X103167807Y-79070292D01*
X103350080Y-79090737D01*
X103524912Y-79146197D01*
X103685641Y-79234558D01*
X103826146Y-79352456D01*
X103941076Y-79495400D01*
X104026052Y-79657945D01*
X104077839Y-79833899D01*
X104077843Y-79833940D01*
X104077844Y-79833944D01*
X104094463Y-80016558D01*
X104076648Y-80186056D01*
X104075290Y-80198973D01*
X104021052Y-80374187D01*
X103933815Y-80535529D01*
X103816900Y-80676855D01*
X103674762Y-80792779D01*
X103512815Y-80878888D01*
X103337226Y-80931902D01*
X103154685Y-80949800D01*
X102839283Y-80949800D01*
X102828251Y-80949723D01*
X102828246Y-80949722D01*
X102826193Y-80949708D01*
X102643920Y-80929263D01*
X102469088Y-80873803D01*
X102308359Y-80785442D01*
X102167854Y-80667544D01*
X102052924Y-80524600D01*
X101967948Y-80362055D01*
X101916161Y-80186101D01*
X101916157Y-80186060D01*
X101916156Y-80186056D01*
X101899537Y-80003442D01*
X101918705Y-79821074D01*
X101918710Y-79821027D01*
X101972948Y-79645813D01*
X102060185Y-79484471D01*
X102177100Y-79343145D01*
X102319238Y-79227221D01*
X102481185Y-79141112D01*
X102656774Y-79088098D01*
X102839315Y-79070200D01*
X103154717Y-79070200D01*
X103165749Y-79070277D01*
X103165749Y-79070277D01*
G37*
G36*
X104089200Y-78409800D02*
X101904800Y-78409800D01*
X101904800Y-76530200D01*
X104089200Y-76530200D01*
X104089200Y-78409800D01*
X104089200Y-78409800D01*
G37*
M02*
