%TF.GenerationSoftware,KiCad,Pcbnew,4.0.5-e0-6337~49~ubuntu16.04.1*%
%TF.CreationDate,2017-02-09T22:12:51-08:00*%
%TF.ProjectId,avr-programmer,6176722D70726F6772616D6D65722E6B,v1.0*%
%TF.FileFunction,Legend,Top*%
%FSLAX46Y46*%
G04 Gerber Fmt 4.6, Leading zero omitted, Abs format (unit mm)*
G04 Created by KiCad (PCBNEW 4.0.5-e0-6337~49~ubuntu16.04.1) date Thu Feb  9 22:12:51 2017*
%MOMM*%
%LPD*%
G01*
G04 APERTURE LIST*
%ADD10C,0.350000*%
%ADD11C,0.152400*%
%ADD12C,0.150000*%
%ADD13C,0.254000*%
G04 APERTURE END LIST*
D10*
D11*
X135282820Y-76304019D02*
X135863391Y-76304019D01*
X135573106Y-77320019D02*
X135573106Y-76304019D01*
X136153677Y-77029733D02*
X136637486Y-77029733D01*
X136056915Y-77320019D02*
X136395582Y-76304019D01*
X136734248Y-77320019D01*
X137653486Y-77320019D02*
X137314820Y-76836210D01*
X137072915Y-77320019D02*
X137072915Y-76304019D01*
X137459962Y-76304019D01*
X137556724Y-76352400D01*
X137605105Y-76400781D01*
X137653486Y-76497543D01*
X137653486Y-76642686D01*
X137605105Y-76739448D01*
X137556724Y-76787829D01*
X137459962Y-76836210D01*
X137072915Y-76836210D01*
X138621105Y-76352400D02*
X138524343Y-76304019D01*
X138379200Y-76304019D01*
X138234058Y-76352400D01*
X138137296Y-76449162D01*
X138088915Y-76545924D01*
X138040534Y-76739448D01*
X138040534Y-76884590D01*
X138088915Y-77078114D01*
X138137296Y-77174876D01*
X138234058Y-77271638D01*
X138379200Y-77320019D01*
X138475962Y-77320019D01*
X138621105Y-77271638D01*
X138669486Y-77223257D01*
X138669486Y-76884590D01*
X138475962Y-76884590D01*
X139104915Y-76787829D02*
X139443581Y-76787829D01*
X139588724Y-77320019D02*
X139104915Y-77320019D01*
X139104915Y-76304019D01*
X139588724Y-76304019D01*
X139879010Y-76304019D02*
X140459581Y-76304019D01*
X140169296Y-77320019D02*
X140169296Y-76304019D01*
X136361715Y-91290019D02*
X136361715Y-90274019D01*
X136748762Y-90274019D01*
X136845524Y-90322400D01*
X136893905Y-90370781D01*
X136942286Y-90467543D01*
X136942286Y-90612686D01*
X136893905Y-90709448D01*
X136845524Y-90757829D01*
X136748762Y-90806210D01*
X136361715Y-90806210D01*
X137958286Y-91290019D02*
X137619620Y-90806210D01*
X137377715Y-91290019D02*
X137377715Y-90274019D01*
X137764762Y-90274019D01*
X137861524Y-90322400D01*
X137909905Y-90370781D01*
X137958286Y-90467543D01*
X137958286Y-90612686D01*
X137909905Y-90709448D01*
X137861524Y-90757829D01*
X137764762Y-90806210D01*
X137377715Y-90806210D01*
X138587239Y-90274019D02*
X138780762Y-90274019D01*
X138877524Y-90322400D01*
X138974286Y-90419162D01*
X139022667Y-90612686D01*
X139022667Y-90951352D01*
X138974286Y-91144876D01*
X138877524Y-91241638D01*
X138780762Y-91290019D01*
X138587239Y-91290019D01*
X138490477Y-91241638D01*
X138393715Y-91144876D01*
X138345334Y-90951352D01*
X138345334Y-90612686D01*
X138393715Y-90419162D01*
X138490477Y-90322400D01*
X138587239Y-90274019D01*
X139990286Y-90322400D02*
X139893524Y-90274019D01*
X139748381Y-90274019D01*
X139603239Y-90322400D01*
X139506477Y-90419162D01*
X139458096Y-90515924D01*
X139409715Y-90709448D01*
X139409715Y-90854590D01*
X139458096Y-91048114D01*
X139506477Y-91144876D01*
X139603239Y-91241638D01*
X139748381Y-91290019D01*
X139845143Y-91290019D01*
X139990286Y-91241638D01*
X140038667Y-91193257D01*
X140038667Y-90854590D01*
X139845143Y-90854590D01*
X116380381Y-78437619D02*
X116041715Y-77953810D01*
X115799810Y-78437619D02*
X115799810Y-77421619D01*
X116186857Y-77421619D01*
X116283619Y-77470000D01*
X116332000Y-77518381D01*
X116380381Y-77615143D01*
X116380381Y-77760286D01*
X116332000Y-77857048D01*
X116283619Y-77905429D01*
X116186857Y-77953810D01*
X115799810Y-77953810D01*
X116815810Y-77905429D02*
X117154476Y-77905429D01*
X117299619Y-78437619D02*
X116815810Y-78437619D01*
X116815810Y-77421619D01*
X117299619Y-77421619D01*
X117686667Y-78389238D02*
X117831810Y-78437619D01*
X118073714Y-78437619D01*
X118170476Y-78389238D01*
X118218857Y-78340857D01*
X118267238Y-78244095D01*
X118267238Y-78147333D01*
X118218857Y-78050571D01*
X118170476Y-78002190D01*
X118073714Y-77953810D01*
X117880191Y-77905429D01*
X117783429Y-77857048D01*
X117735048Y-77808667D01*
X117686667Y-77711905D01*
X117686667Y-77615143D01*
X117735048Y-77518381D01*
X117783429Y-77470000D01*
X117880191Y-77421619D01*
X118122095Y-77421619D01*
X118267238Y-77470000D01*
X118702667Y-77905429D02*
X119041333Y-77905429D01*
X119186476Y-78437619D02*
X118702667Y-78437619D01*
X118702667Y-77421619D01*
X119186476Y-77421619D01*
X119476762Y-77421619D02*
X120057333Y-77421619D01*
X119767048Y-78437619D02*
X119767048Y-77421619D01*
X105753505Y-89712800D02*
X105656743Y-89664419D01*
X105511600Y-89664419D01*
X105366458Y-89712800D01*
X105269696Y-89809562D01*
X105221315Y-89906324D01*
X105172934Y-90099848D01*
X105172934Y-90244990D01*
X105221315Y-90438514D01*
X105269696Y-90535276D01*
X105366458Y-90632038D01*
X105511600Y-90680419D01*
X105608362Y-90680419D01*
X105753505Y-90632038D01*
X105801886Y-90583657D01*
X105801886Y-90244990D01*
X105608362Y-90244990D01*
X106237315Y-90680419D02*
X106237315Y-89664419D01*
X106817886Y-90680419D01*
X106817886Y-89664419D01*
X107301696Y-90680419D02*
X107301696Y-89664419D01*
X107543601Y-89664419D01*
X107688743Y-89712800D01*
X107785505Y-89809562D01*
X107833886Y-89906324D01*
X107882267Y-90099848D01*
X107882267Y-90244990D01*
X107833886Y-90438514D01*
X107785505Y-90535276D01*
X107688743Y-90632038D01*
X107543601Y-90680419D01*
X107301696Y-90680419D01*
X105857524Y-84533619D02*
X105373715Y-84533619D01*
X105325334Y-85017429D01*
X105373715Y-84969048D01*
X105470477Y-84920667D01*
X105712381Y-84920667D01*
X105809143Y-84969048D01*
X105857524Y-85017429D01*
X105905905Y-85114190D01*
X105905905Y-85356095D01*
X105857524Y-85452857D01*
X105809143Y-85501238D01*
X105712381Y-85549619D01*
X105470477Y-85549619D01*
X105373715Y-85501238D01*
X105325334Y-85452857D01*
X106196191Y-84533619D02*
X106534858Y-85549619D01*
X106873524Y-84533619D01*
X105228572Y-81993619D02*
X105809143Y-81993619D01*
X105518858Y-83009619D02*
X105518858Y-81993619D01*
X106051048Y-81993619D02*
X106728381Y-83009619D01*
X106728381Y-81993619D02*
X106051048Y-83009619D01*
X105954286Y-80469619D02*
X105615620Y-79985810D01*
X105373715Y-80469619D02*
X105373715Y-79453619D01*
X105760762Y-79453619D01*
X105857524Y-79502000D01*
X105905905Y-79550381D01*
X105954286Y-79647143D01*
X105954286Y-79792286D01*
X105905905Y-79889048D01*
X105857524Y-79937429D01*
X105760762Y-79985810D01*
X105373715Y-79985810D01*
X106292953Y-79453619D02*
X106970286Y-80469619D01*
X106970286Y-79453619D02*
X106292953Y-80469619D01*
X105954286Y-77929619D02*
X105615620Y-77445810D01*
X105373715Y-77929619D02*
X105373715Y-76913619D01*
X105760762Y-76913619D01*
X105857524Y-76962000D01*
X105905905Y-77010381D01*
X105954286Y-77107143D01*
X105954286Y-77252286D01*
X105905905Y-77349048D01*
X105857524Y-77397429D01*
X105760762Y-77445810D01*
X105373715Y-77445810D01*
X106341334Y-77881238D02*
X106486477Y-77929619D01*
X106728381Y-77929619D01*
X106825143Y-77881238D01*
X106873524Y-77832857D01*
X106921905Y-77736095D01*
X106921905Y-77639333D01*
X106873524Y-77542571D01*
X106825143Y-77494190D01*
X106728381Y-77445810D01*
X106534858Y-77397429D01*
X106438096Y-77349048D01*
X106389715Y-77300667D01*
X106341334Y-77203905D01*
X106341334Y-77107143D01*
X106389715Y-77010381D01*
X106438096Y-76962000D01*
X106534858Y-76913619D01*
X106776762Y-76913619D01*
X106921905Y-76962000D01*
X107212191Y-76913619D02*
X107792762Y-76913619D01*
X107502477Y-77929619D02*
X107502477Y-76913619D01*
X130630991Y-91188419D02*
X130630991Y-90172419D01*
X131695372Y-91091657D02*
X131646991Y-91140038D01*
X131501848Y-91188419D01*
X131405086Y-91188419D01*
X131259944Y-91140038D01*
X131163182Y-91043276D01*
X131114801Y-90946514D01*
X131066420Y-90752990D01*
X131066420Y-90607848D01*
X131114801Y-90414324D01*
X131163182Y-90317562D01*
X131259944Y-90220800D01*
X131405086Y-90172419D01*
X131501848Y-90172419D01*
X131646991Y-90220800D01*
X131695372Y-90269181D01*
X132082420Y-91140038D02*
X132227563Y-91188419D01*
X132469467Y-91188419D01*
X132566229Y-91140038D01*
X132614610Y-91091657D01*
X132662991Y-90994895D01*
X132662991Y-90898133D01*
X132614610Y-90801371D01*
X132566229Y-90752990D01*
X132469467Y-90704610D01*
X132275944Y-90656229D01*
X132179182Y-90607848D01*
X132130801Y-90559467D01*
X132082420Y-90462705D01*
X132082420Y-90365943D01*
X132130801Y-90269181D01*
X132179182Y-90220800D01*
X132275944Y-90172419D01*
X132517848Y-90172419D01*
X132662991Y-90220800D01*
X133098420Y-91188419D02*
X133098420Y-90172419D01*
X133485467Y-90172419D01*
X133582229Y-90220800D01*
X133630610Y-90269181D01*
X133678991Y-90365943D01*
X133678991Y-90511086D01*
X133630610Y-90607848D01*
X133582229Y-90656229D01*
X133485467Y-90704610D01*
X133098420Y-90704610D01*
D12*
X111006680Y-79228000D02*
X114006680Y-79228000D01*
X111006680Y-76728000D02*
X114006680Y-76728000D01*
D10*
X110900000Y-79978000D02*
X110900000Y-79978000D01*
X117822020Y-81291180D02*
X117822020Y-81291180D01*
D11*
X112129000Y-81407000D02*
X112129000Y-80137000D01*
X109398500Y-81407000D02*
X109398500Y-80137000D01*
D12*
X112129000Y-81407000D02*
X109398500Y-81407000D01*
X109398500Y-80137000D02*
X112129000Y-80137000D01*
D11*
X109347000Y-82804000D02*
X109347000Y-84074000D01*
X112077500Y-82804000D02*
X112077500Y-84074000D01*
D12*
X109347000Y-82804000D02*
X112077500Y-82804000D01*
X112077500Y-84074000D02*
X109347000Y-84074000D01*
D11*
X113538000Y-91198000D02*
X114808000Y-91198000D01*
X113538000Y-88467500D02*
X114808000Y-88467500D01*
D12*
X113538000Y-91198000D02*
X113538000Y-88467500D01*
X114808000Y-88467500D02*
X114808000Y-91198000D01*
D11*
X126619000Y-87491000D02*
X127889000Y-87491000D01*
X126619000Y-84760500D02*
X127889000Y-84760500D01*
D12*
X126619000Y-87491000D02*
X126619000Y-84760500D01*
X127889000Y-84760500D02*
X127889000Y-87491000D01*
D11*
X113665000Y-86753000D02*
X114935000Y-86753000D01*
X113665000Y-84022500D02*
X114935000Y-84022500D01*
D12*
X113665000Y-86753000D02*
X113665000Y-84022500D01*
X114935000Y-84022500D02*
X114935000Y-86753000D01*
X104267000Y-78740000D02*
X104267000Y-91440000D01*
X104267000Y-91440000D02*
X101727000Y-91440000D01*
X101727000Y-91440000D02*
X101727000Y-78740000D01*
X104547000Y-75920000D02*
X104547000Y-77470000D01*
X104267000Y-78740000D02*
X101727000Y-78740000D01*
X101447000Y-77470000D02*
X101447000Y-75920000D01*
X101447000Y-75920000D02*
X104547000Y-75920000D01*
X132580000Y-77890000D02*
X131580000Y-77890000D01*
X131580000Y-79590000D02*
X132580000Y-79590000D01*
D11*
X109016800Y-84963000D02*
X112522000Y-84963000D01*
X109016800Y-84963000D02*
X109016800Y-90957400D01*
X112522000Y-84963000D02*
X112522000Y-90957400D01*
X109016800Y-90957400D02*
X112522000Y-90957400D01*
X117348000Y-81343500D02*
X116205000Y-82486500D01*
D12*
X124402000Y-82354000D02*
X124402000Y-82679000D01*
X124402000Y-89604000D02*
X124402000Y-89279000D01*
X117152000Y-89604000D02*
X117152000Y-89279000D01*
X117152000Y-89604000D02*
X117477000Y-89604000D01*
X124402000Y-89604000D02*
X124077000Y-89604000D01*
X124402000Y-82354000D02*
X124077000Y-82354000D01*
D11*
X107315000Y-86094000D02*
X106045000Y-86094000D01*
X107315000Y-88824500D02*
X106045000Y-88824500D01*
D12*
X107315000Y-86094000D02*
X107315000Y-88824500D01*
X106045000Y-88824500D02*
X106045000Y-86094000D01*
D13*
X133604000Y-89408000D02*
G75*
G03X133604000Y-89408000I-254000J0D01*
G01*
D12*
X134620000Y-86360000D02*
X134620000Y-81280000D01*
X134620000Y-81280000D02*
X129540000Y-81280000D01*
X129540000Y-81280000D02*
X129540000Y-86360000D01*
X129540000Y-88900000D02*
X132080000Y-88900000D01*
X129540000Y-86360000D02*
X129540000Y-88900000D01*
D11*
X140004800Y-77820000D02*
X135940800Y-77820000D01*
X140004800Y-89820000D02*
X140004800Y-77820000D01*
X135940800Y-89820000D02*
X135940800Y-77820000D01*
X140004800Y-89820000D02*
X135940800Y-89820000D01*
D12*
X108815143Y-80938666D02*
X108862762Y-80986285D01*
X108910381Y-81129142D01*
X108910381Y-81224380D01*
X108862762Y-81367238D01*
X108767524Y-81462476D01*
X108672286Y-81510095D01*
X108481810Y-81557714D01*
X108338952Y-81557714D01*
X108148476Y-81510095D01*
X108053238Y-81462476D01*
X107958000Y-81367238D01*
X107910381Y-81224380D01*
X107910381Y-81129142D01*
X107958000Y-80986285D01*
X108005619Y-80938666D01*
X108910381Y-79986285D02*
X108910381Y-80557714D01*
X108910381Y-80272000D02*
X107910381Y-80272000D01*
X108053238Y-80367238D01*
X108148476Y-80462476D01*
X108196095Y-80557714D01*
X108815143Y-83732666D02*
X108862762Y-83780285D01*
X108910381Y-83923142D01*
X108910381Y-84018380D01*
X108862762Y-84161238D01*
X108767524Y-84256476D01*
X108672286Y-84304095D01*
X108481810Y-84351714D01*
X108338952Y-84351714D01*
X108148476Y-84304095D01*
X108053238Y-84256476D01*
X107958000Y-84161238D01*
X107910381Y-84018380D01*
X107910381Y-83923142D01*
X107958000Y-83780285D01*
X108005619Y-83732666D01*
X108005619Y-83351714D02*
X107958000Y-83304095D01*
X107910381Y-83208857D01*
X107910381Y-82970761D01*
X107958000Y-82875523D01*
X108005619Y-82827904D01*
X108100857Y-82780285D01*
X108196095Y-82780285D01*
X108338952Y-82827904D01*
X108910381Y-83399333D01*
X108910381Y-82780285D01*
X113879334Y-87987143D02*
X113831715Y-88034762D01*
X113688858Y-88082381D01*
X113593620Y-88082381D01*
X113450762Y-88034762D01*
X113355524Y-87939524D01*
X113307905Y-87844286D01*
X113260286Y-87653810D01*
X113260286Y-87510952D01*
X113307905Y-87320476D01*
X113355524Y-87225238D01*
X113450762Y-87130000D01*
X113593620Y-87082381D01*
X113688858Y-87082381D01*
X113831715Y-87130000D01*
X113879334Y-87177619D01*
X114212667Y-87082381D02*
X114831715Y-87082381D01*
X114498381Y-87463333D01*
X114641239Y-87463333D01*
X114736477Y-87510952D01*
X114784096Y-87558571D01*
X114831715Y-87653810D01*
X114831715Y-87891905D01*
X114784096Y-87987143D01*
X114736477Y-88034762D01*
X114641239Y-88082381D01*
X114355524Y-88082381D01*
X114260286Y-88034762D01*
X114212667Y-87987143D01*
X127087334Y-88749143D02*
X127039715Y-88796762D01*
X126896858Y-88844381D01*
X126801620Y-88844381D01*
X126658762Y-88796762D01*
X126563524Y-88701524D01*
X126515905Y-88606286D01*
X126468286Y-88415810D01*
X126468286Y-88272952D01*
X126515905Y-88082476D01*
X126563524Y-87987238D01*
X126658762Y-87892000D01*
X126801620Y-87844381D01*
X126896858Y-87844381D01*
X127039715Y-87892000D01*
X127087334Y-87939619D01*
X127992096Y-87844381D02*
X127515905Y-87844381D01*
X127468286Y-88320571D01*
X127515905Y-88272952D01*
X127611143Y-88225333D01*
X127849239Y-88225333D01*
X127944477Y-88272952D01*
X127992096Y-88320571D01*
X128039715Y-88415810D01*
X128039715Y-88653905D01*
X127992096Y-88749143D01*
X127944477Y-88796762D01*
X127849239Y-88844381D01*
X127611143Y-88844381D01*
X127515905Y-88796762D01*
X127468286Y-88749143D01*
X114133334Y-83669143D02*
X114085715Y-83716762D01*
X113942858Y-83764381D01*
X113847620Y-83764381D01*
X113704762Y-83716762D01*
X113609524Y-83621524D01*
X113561905Y-83526286D01*
X113514286Y-83335810D01*
X113514286Y-83192952D01*
X113561905Y-83002476D01*
X113609524Y-82907238D01*
X113704762Y-82812000D01*
X113847620Y-82764381D01*
X113942858Y-82764381D01*
X114085715Y-82812000D01*
X114133334Y-82859619D01*
X114990477Y-82764381D02*
X114800000Y-82764381D01*
X114704762Y-82812000D01*
X114657143Y-82859619D01*
X114561905Y-83002476D01*
X114514286Y-83192952D01*
X114514286Y-83573905D01*
X114561905Y-83669143D01*
X114609524Y-83716762D01*
X114704762Y-83764381D01*
X114895239Y-83764381D01*
X114990477Y-83716762D01*
X115038096Y-83669143D01*
X115085715Y-83573905D01*
X115085715Y-83335810D01*
X115038096Y-83240571D01*
X114990477Y-83192952D01*
X114895239Y-83145333D01*
X114704762Y-83145333D01*
X114609524Y-83192952D01*
X114561905Y-83240571D01*
X114514286Y-83335810D01*
X131913334Y-77414381D02*
X131580000Y-76938190D01*
X131341905Y-77414381D02*
X131341905Y-76414381D01*
X131722858Y-76414381D01*
X131818096Y-76462000D01*
X131865715Y-76509619D01*
X131913334Y-76604857D01*
X131913334Y-76747714D01*
X131865715Y-76842952D01*
X131818096Y-76890571D01*
X131722858Y-76938190D01*
X131341905Y-76938190D01*
X132865715Y-77414381D02*
X132294286Y-77414381D01*
X132580000Y-77414381D02*
X132580000Y-76414381D01*
X132484762Y-76557238D01*
X132389524Y-76652476D01*
X132294286Y-76700095D01*
X107656381Y-88693524D02*
X108656381Y-88026857D01*
X107656381Y-88026857D02*
X108656381Y-88693524D01*
X108656381Y-87122095D02*
X108656381Y-87693524D01*
X108656381Y-87407810D02*
X107656381Y-87407810D01*
X107799238Y-87503048D01*
X107894476Y-87598286D01*
X107942095Y-87693524D01*
X124968095Y-81045381D02*
X124968095Y-81854905D01*
X125015714Y-81950143D01*
X125063333Y-81997762D01*
X125158571Y-82045381D01*
X125349048Y-82045381D01*
X125444286Y-81997762D01*
X125491905Y-81950143D01*
X125539524Y-81854905D01*
X125539524Y-81045381D01*
X126539524Y-82045381D02*
X125968095Y-82045381D01*
X126253809Y-82045381D02*
X126253809Y-81045381D01*
X126158571Y-81188238D01*
X126063333Y-81283476D01*
X125968095Y-81331095D01*
X105640143Y-87669666D02*
X105687762Y-87717285D01*
X105735381Y-87860142D01*
X105735381Y-87955380D01*
X105687762Y-88098238D01*
X105592524Y-88193476D01*
X105497286Y-88241095D01*
X105306810Y-88288714D01*
X105163952Y-88288714D01*
X104973476Y-88241095D01*
X104878238Y-88193476D01*
X104783000Y-88098238D01*
X104735381Y-87955380D01*
X104735381Y-87860142D01*
X104783000Y-87717285D01*
X104830619Y-87669666D01*
X105068714Y-86812523D02*
X105735381Y-86812523D01*
X104687762Y-87050619D02*
X105402048Y-87288714D01*
X105402048Y-86669666D01*
M02*
