%TF.GenerationSoftware,KiCad,Pcbnew,4.0.5-e0-6337~49~ubuntu16.04.1*%
%TF.CreationDate,2017-01-09T19:52:44-08:00*%
%TF.ProjectId,avr-programmer,6176722D70726F6772616D6D65722E6B,v1.0*%
%TF.FileFunction,Paste,Top*%
%FSLAX46Y46*%
G04 Gerber Fmt 4.6, Leading zero omitted, Abs format (unit mm)*
G04 Created by KiCad (PCBNEW 4.0.5-e0-6337~49~ubuntu16.04.1) date Mon Jan  9 19:52:44 2017*
%MOMM*%
%LPD*%
G01*
G04 APERTURE LIST*
%ADD10C,0.350000*%
%ADD11R,0.647600X1.547600*%
%ADD12R,0.647600X0.597600*%
%ADD13R,0.597600X0.647600*%
%ADD14R,0.847600X1.097600*%
%ADD15R,1.244600X1.752600*%
%ADD16R,1.447600X0.397600*%
%ADD17R,0.397600X1.447600*%
G04 APERTURE END LIST*
D10*
D11*
X114300000Y-77978000D03*
X110900000Y-77978000D03*
D12*
X111482000Y-80772000D03*
X109982000Y-80772000D03*
X109994000Y-83439000D03*
X111494000Y-83439000D03*
D13*
X114173000Y-90551000D03*
X114173000Y-89051000D03*
X127254000Y-86844000D03*
X127254000Y-85344000D03*
X114300000Y-86106000D03*
X114300000Y-84606000D03*
D14*
X131080000Y-78740000D03*
X133080000Y-78740000D03*
D15*
X112014000Y-90195400D03*
X112014000Y-85725000D03*
X109524800Y-90195400D03*
X109524800Y-85725000D03*
D16*
X116527000Y-83179000D03*
X116527000Y-83979000D03*
X116527000Y-84779000D03*
X116527000Y-85579000D03*
X116527000Y-86379000D03*
X116527000Y-87179000D03*
X116527000Y-87979000D03*
X116527000Y-88779000D03*
D17*
X117977000Y-90229000D03*
X118777000Y-90229000D03*
X119577000Y-90229000D03*
X120377000Y-90229000D03*
X121177000Y-90229000D03*
X121977000Y-90229000D03*
X122777000Y-90229000D03*
X123577000Y-90229000D03*
D16*
X125027000Y-88779000D03*
X125027000Y-87979000D03*
X125027000Y-87179000D03*
X125027000Y-86379000D03*
X125027000Y-85579000D03*
X125027000Y-84779000D03*
X125027000Y-83979000D03*
X125027000Y-83179000D03*
D17*
X123577000Y-81729000D03*
X122777000Y-81729000D03*
X121977000Y-81729000D03*
X121177000Y-81729000D03*
X120377000Y-81729000D03*
X119577000Y-81729000D03*
X118777000Y-81729000D03*
X117977000Y-81729000D03*
M02*
