%TF.GenerationSoftware,KiCad,Pcbnew,4.0.5-e0-6337~49~ubuntu16.04.1*%
%TF.CreationDate,2017-01-09T19:52:44-08:00*%
%TF.ProjectId,avr-programmer,6176722D70726F6772616D6D65722E6B,v1.0*%
%TF.FileFunction,Legend,Bot*%
%FSLAX46Y46*%
G04 Gerber Fmt 4.6, Leading zero omitted, Abs format (unit mm)*
G04 Created by KiCad (PCBNEW 4.0.5-e0-6337~49~ubuntu16.04.1) date Mon Jan  9 19:52:44 2017*
%MOMM*%
%LPD*%
G01*
G04 APERTURE LIST*
%ADD10C,0.350000*%
%ADD11C,0.152400*%
G04 APERTURE END LIST*
D10*
D11*
X133507237Y-89952286D02*
X133313713Y-90629619D01*
X133120190Y-90145810D01*
X132926666Y-90629619D01*
X132733142Y-89952286D01*
X132346094Y-90629619D02*
X132346094Y-89952286D01*
X132346094Y-89613619D02*
X132394475Y-89662000D01*
X132346094Y-89710381D01*
X132297713Y-89662000D01*
X132346094Y-89613619D01*
X132346094Y-89710381D01*
X131426856Y-90581238D02*
X131523618Y-90629619D01*
X131717141Y-90629619D01*
X131813903Y-90581238D01*
X131862284Y-90532857D01*
X131910665Y-90436095D01*
X131910665Y-90145810D01*
X131862284Y-90049048D01*
X131813903Y-90000667D01*
X131717141Y-89952286D01*
X131523618Y-89952286D01*
X131426856Y-90000667D01*
X130991427Y-90629619D02*
X130991427Y-89613619D01*
X130894665Y-90242571D02*
X130604380Y-90629619D01*
X130604380Y-89952286D02*
X130991427Y-90339333D01*
X129781904Y-90581238D02*
X129878666Y-90629619D01*
X130072189Y-90629619D01*
X130168951Y-90581238D01*
X130217332Y-90484476D01*
X130217332Y-90097429D01*
X130168951Y-90000667D01*
X130072189Y-89952286D01*
X129878666Y-89952286D01*
X129781904Y-90000667D01*
X129733523Y-90097429D01*
X129733523Y-90194190D01*
X130217332Y-90290952D01*
X129298094Y-90629619D02*
X129298094Y-89952286D01*
X129298094Y-90145810D02*
X129249713Y-90049048D01*
X129201332Y-90000667D01*
X129104570Y-89952286D01*
X129007809Y-89952286D01*
X128669142Y-90629619D02*
X128669142Y-89613619D01*
X128669142Y-90000667D02*
X128572380Y-89952286D01*
X128378857Y-89952286D01*
X128282095Y-90000667D01*
X128233714Y-90049048D01*
X128185333Y-90145810D01*
X128185333Y-90436095D01*
X128233714Y-90532857D01*
X128282095Y-90581238D01*
X128378857Y-90629619D01*
X128572380Y-90629619D01*
X128669142Y-90581238D01*
X127604761Y-90629619D02*
X127701523Y-90581238D01*
X127749904Y-90532857D01*
X127798285Y-90436095D01*
X127798285Y-90145810D01*
X127749904Y-90049048D01*
X127701523Y-90000667D01*
X127604761Y-89952286D01*
X127459619Y-89952286D01*
X127362857Y-90000667D01*
X127314476Y-90049048D01*
X127266095Y-90145810D01*
X127266095Y-90436095D01*
X127314476Y-90532857D01*
X127362857Y-90581238D01*
X127459619Y-90629619D01*
X127604761Y-90629619D01*
X126927428Y-90629619D02*
X126395238Y-89952286D01*
X126927428Y-89952286D02*
X126395238Y-90629619D01*
X126008190Y-90532857D02*
X125959809Y-90581238D01*
X126008190Y-90629619D01*
X126056571Y-90581238D01*
X126008190Y-90532857D01*
X126008190Y-90629619D01*
X125524380Y-89952286D02*
X125524380Y-90629619D01*
X125524380Y-90049048D02*
X125475999Y-90000667D01*
X125379237Y-89952286D01*
X125234095Y-89952286D01*
X125137333Y-90000667D01*
X125088952Y-90097429D01*
X125088952Y-90629619D01*
X124218095Y-90581238D02*
X124314857Y-90629619D01*
X124508380Y-90629619D01*
X124605142Y-90581238D01*
X124653523Y-90484476D01*
X124653523Y-90097429D01*
X124605142Y-90000667D01*
X124508380Y-89952286D01*
X124314857Y-89952286D01*
X124218095Y-90000667D01*
X124169714Y-90097429D01*
X124169714Y-90194190D01*
X124653523Y-90290952D01*
X123879428Y-89952286D02*
X123492380Y-89952286D01*
X123734285Y-89613619D02*
X123734285Y-90484476D01*
X123685904Y-90581238D01*
X123589142Y-90629619D01*
X123492380Y-90629619D01*
X133652380Y-77385333D02*
X133168571Y-77385333D01*
X133749142Y-77675619D02*
X133410475Y-76659619D01*
X133071809Y-77675619D01*
X132878285Y-76659619D02*
X132539618Y-77675619D01*
X132200952Y-76659619D01*
X131281714Y-77675619D02*
X131620380Y-77191810D01*
X131862285Y-77675619D02*
X131862285Y-76659619D01*
X131475238Y-76659619D01*
X131378476Y-76708000D01*
X131330095Y-76756381D01*
X131281714Y-76853143D01*
X131281714Y-76998286D01*
X131330095Y-77095048D01*
X131378476Y-77143429D01*
X131475238Y-77191810D01*
X131862285Y-77191810D01*
X130072190Y-77675619D02*
X130072190Y-76659619D01*
X129685143Y-76659619D01*
X129588381Y-76708000D01*
X129540000Y-76756381D01*
X129491619Y-76853143D01*
X129491619Y-76998286D01*
X129540000Y-77095048D01*
X129588381Y-77143429D01*
X129685143Y-77191810D01*
X130072190Y-77191810D01*
X129056190Y-77675619D02*
X129056190Y-76998286D01*
X129056190Y-77191810D02*
X129007809Y-77095048D01*
X128959428Y-77046667D01*
X128862666Y-76998286D01*
X128765905Y-76998286D01*
X128282095Y-77675619D02*
X128378857Y-77627238D01*
X128427238Y-77578857D01*
X128475619Y-77482095D01*
X128475619Y-77191810D01*
X128427238Y-77095048D01*
X128378857Y-77046667D01*
X128282095Y-76998286D01*
X128136953Y-76998286D01*
X128040191Y-77046667D01*
X127991810Y-77095048D01*
X127943429Y-77191810D01*
X127943429Y-77482095D01*
X127991810Y-77578857D01*
X128040191Y-77627238D01*
X128136953Y-77675619D01*
X128282095Y-77675619D01*
X127072572Y-76998286D02*
X127072572Y-77820762D01*
X127120953Y-77917524D01*
X127169334Y-77965905D01*
X127266095Y-78014286D01*
X127411238Y-78014286D01*
X127508000Y-77965905D01*
X127072572Y-77627238D02*
X127169334Y-77675619D01*
X127362857Y-77675619D01*
X127459619Y-77627238D01*
X127508000Y-77578857D01*
X127556381Y-77482095D01*
X127556381Y-77191810D01*
X127508000Y-77095048D01*
X127459619Y-77046667D01*
X127362857Y-76998286D01*
X127169334Y-76998286D01*
X127072572Y-77046667D01*
X126588762Y-77675619D02*
X126588762Y-76998286D01*
X126588762Y-77191810D02*
X126540381Y-77095048D01*
X126492000Y-77046667D01*
X126395238Y-76998286D01*
X126298477Y-76998286D01*
X125524382Y-77675619D02*
X125524382Y-77143429D01*
X125572763Y-77046667D01*
X125669525Y-76998286D01*
X125863048Y-76998286D01*
X125959810Y-77046667D01*
X125524382Y-77627238D02*
X125621144Y-77675619D01*
X125863048Y-77675619D01*
X125959810Y-77627238D01*
X126008191Y-77530476D01*
X126008191Y-77433714D01*
X125959810Y-77336952D01*
X125863048Y-77288571D01*
X125621144Y-77288571D01*
X125524382Y-77240190D01*
X125040572Y-77675619D02*
X125040572Y-76998286D01*
X125040572Y-77095048D02*
X124992191Y-77046667D01*
X124895429Y-76998286D01*
X124750287Y-76998286D01*
X124653525Y-77046667D01*
X124605144Y-77143429D01*
X124605144Y-77675619D01*
X124605144Y-77143429D02*
X124556763Y-77046667D01*
X124460001Y-76998286D01*
X124314858Y-76998286D01*
X124218096Y-77046667D01*
X124169715Y-77143429D01*
X124169715Y-77675619D01*
X123685905Y-77675619D02*
X123685905Y-76998286D01*
X123685905Y-77095048D02*
X123637524Y-77046667D01*
X123540762Y-76998286D01*
X123395620Y-76998286D01*
X123298858Y-77046667D01*
X123250477Y-77143429D01*
X123250477Y-77675619D01*
X123250477Y-77143429D02*
X123202096Y-77046667D01*
X123105334Y-76998286D01*
X122960191Y-76998286D01*
X122863429Y-77046667D01*
X122815048Y-77143429D01*
X122815048Y-77675619D01*
X121944191Y-77627238D02*
X122040953Y-77675619D01*
X122234476Y-77675619D01*
X122331238Y-77627238D01*
X122379619Y-77530476D01*
X122379619Y-77143429D01*
X122331238Y-77046667D01*
X122234476Y-76998286D01*
X122040953Y-76998286D01*
X121944191Y-77046667D01*
X121895810Y-77143429D01*
X121895810Y-77240190D01*
X122379619Y-77336952D01*
X121460381Y-77675619D02*
X121460381Y-76998286D01*
X121460381Y-77191810D02*
X121412000Y-77095048D01*
X121363619Y-77046667D01*
X121266857Y-76998286D01*
X121170096Y-76998286D01*
X120154096Y-76998286D02*
X119912191Y-77675619D01*
X119670287Y-76998286D01*
X118751049Y-77675619D02*
X119331620Y-77675619D01*
X119041334Y-77675619D02*
X119041334Y-76659619D01*
X119138096Y-76804762D01*
X119234858Y-76901524D01*
X119331620Y-76949905D01*
X118315620Y-77578857D02*
X118267239Y-77627238D01*
X118315620Y-77675619D01*
X118364001Y-77627238D01*
X118315620Y-77578857D01*
X118315620Y-77675619D01*
X117638286Y-76659619D02*
X117541525Y-76659619D01*
X117444763Y-76708000D01*
X117396382Y-76756381D01*
X117348001Y-76853143D01*
X117299620Y-77046667D01*
X117299620Y-77288571D01*
X117348001Y-77482095D01*
X117396382Y-77578857D01*
X117444763Y-77627238D01*
X117541525Y-77675619D01*
X117638286Y-77675619D01*
X117735048Y-77627238D01*
X117783429Y-77578857D01*
X117831810Y-77482095D01*
X117880191Y-77288571D01*
X117880191Y-77046667D01*
X117831810Y-76853143D01*
X117783429Y-76756381D01*
X117735048Y-76708000D01*
X117638286Y-76659619D01*
M02*
