%TF.GenerationSoftware,KiCad,Pcbnew,4.0.5-e0-6337~49~ubuntu16.04.1*%
%TF.CreationDate,2017-02-09T22:12:51-08:00*%
%TF.ProjectId,avr-programmer,6176722D70726F6772616D6D65722E6B,v1.0*%
%TF.FileFunction,Other,Fab,Top*%
%FSLAX46Y46*%
G04 Gerber Fmt 4.6, Leading zero omitted, Abs format (unit mm)*
G04 Created by KiCad (PCBNEW 4.0.5-e0-6337~49~ubuntu16.04.1) date Thu Feb  9 22:12:51 2017*
%MOMM*%
%LPD*%
G01*
G04 APERTURE LIST*
%ADD10C,0.350000*%
%ADD11C,0.152400*%
%ADD12C,0.050000*%
%ADD13C,0.200000*%
%ADD14C,0.045720*%
%ADD15C,0.040640*%
%ADD16C,0.150000*%
%ADD17C,0.254000*%
G04 APERTURE END LIST*
D10*
D11*
X127435430Y-70476533D02*
X127919239Y-70476533D01*
X127338668Y-70766819D02*
X127677335Y-69750819D01*
X128016001Y-70766819D01*
X128306287Y-70718438D02*
X128403049Y-70766819D01*
X128596573Y-70766819D01*
X128693334Y-70718438D01*
X128741715Y-70621676D01*
X128741715Y-70573295D01*
X128693334Y-70476533D01*
X128596573Y-70428152D01*
X128451430Y-70428152D01*
X128354668Y-70379771D01*
X128306287Y-70283010D01*
X128306287Y-70234629D01*
X128354668Y-70137867D01*
X128451430Y-70089486D01*
X128596573Y-70089486D01*
X128693334Y-70137867D01*
X129128763Y-70718438D02*
X129225525Y-70766819D01*
X129419049Y-70766819D01*
X129515810Y-70718438D01*
X129564191Y-70621676D01*
X129564191Y-70573295D01*
X129515810Y-70476533D01*
X129419049Y-70428152D01*
X129273906Y-70428152D01*
X129177144Y-70379771D01*
X129128763Y-70283010D01*
X129128763Y-70234629D01*
X129177144Y-70137867D01*
X129273906Y-70089486D01*
X129419049Y-70089486D01*
X129515810Y-70137867D01*
X130386667Y-70718438D02*
X130289905Y-70766819D01*
X130096382Y-70766819D01*
X129999620Y-70718438D01*
X129951239Y-70621676D01*
X129951239Y-70234629D01*
X129999620Y-70137867D01*
X130096382Y-70089486D01*
X130289905Y-70089486D01*
X130386667Y-70137867D01*
X130435048Y-70234629D01*
X130435048Y-70331390D01*
X129951239Y-70428152D01*
X130870477Y-70766819D02*
X130870477Y-70089486D01*
X130870477Y-70186248D02*
X130918858Y-70137867D01*
X131015620Y-70089486D01*
X131160762Y-70089486D01*
X131257524Y-70137867D01*
X131305905Y-70234629D01*
X131305905Y-70766819D01*
X131305905Y-70234629D02*
X131354286Y-70137867D01*
X131451048Y-70089486D01*
X131596191Y-70089486D01*
X131692953Y-70137867D01*
X131741334Y-70234629D01*
X131741334Y-70766819D01*
X132225144Y-70766819D02*
X132225144Y-69750819D01*
X132225144Y-70137867D02*
X132321906Y-70089486D01*
X132515429Y-70089486D01*
X132612191Y-70137867D01*
X132660572Y-70186248D01*
X132708953Y-70283010D01*
X132708953Y-70573295D01*
X132660572Y-70670057D01*
X132612191Y-70718438D01*
X132515429Y-70766819D01*
X132321906Y-70766819D01*
X132225144Y-70718438D01*
X133289525Y-70766819D02*
X133192763Y-70718438D01*
X133144382Y-70621676D01*
X133144382Y-69750819D01*
X133579810Y-70089486D02*
X133821715Y-70766819D01*
X134063619Y-70089486D02*
X133821715Y-70766819D01*
X133724953Y-71008724D01*
X133676572Y-71057105D01*
X133579810Y-71105486D01*
X135224762Y-70766819D02*
X135224762Y-69750819D01*
X135466667Y-69750819D01*
X135611809Y-69799200D01*
X135708571Y-69895962D01*
X135756952Y-69992724D01*
X135805333Y-70186248D01*
X135805333Y-70331390D01*
X135756952Y-70524914D01*
X135708571Y-70621676D01*
X135611809Y-70718438D01*
X135466667Y-70766819D01*
X135224762Y-70766819D01*
X136240762Y-70766819D02*
X136240762Y-70089486D01*
X136240762Y-69750819D02*
X136192381Y-69799200D01*
X136240762Y-69847581D01*
X136289143Y-69799200D01*
X136240762Y-69750819D01*
X136240762Y-69847581D01*
X137160000Y-70766819D02*
X137160000Y-70234629D01*
X137111619Y-70137867D01*
X137014857Y-70089486D01*
X136821334Y-70089486D01*
X136724572Y-70137867D01*
X137160000Y-70718438D02*
X137063238Y-70766819D01*
X136821334Y-70766819D01*
X136724572Y-70718438D01*
X136676191Y-70621676D01*
X136676191Y-70524914D01*
X136724572Y-70428152D01*
X136821334Y-70379771D01*
X137063238Y-70379771D01*
X137160000Y-70331390D01*
X138079238Y-70089486D02*
X138079238Y-70911962D01*
X138030857Y-71008724D01*
X137982476Y-71057105D01*
X137885715Y-71105486D01*
X137740572Y-71105486D01*
X137643810Y-71057105D01*
X138079238Y-70718438D02*
X137982476Y-70766819D01*
X137788953Y-70766819D01*
X137692191Y-70718438D01*
X137643810Y-70670057D01*
X137595429Y-70573295D01*
X137595429Y-70283010D01*
X137643810Y-70186248D01*
X137692191Y-70137867D01*
X137788953Y-70089486D01*
X137982476Y-70089486D01*
X138079238Y-70137867D01*
X138563048Y-70766819D02*
X138563048Y-70089486D01*
X138563048Y-70283010D02*
X138611429Y-70186248D01*
X138659810Y-70137867D01*
X138756572Y-70089486D01*
X138853333Y-70089486D01*
X139627428Y-70766819D02*
X139627428Y-70234629D01*
X139579047Y-70137867D01*
X139482285Y-70089486D01*
X139288762Y-70089486D01*
X139192000Y-70137867D01*
X139627428Y-70718438D02*
X139530666Y-70766819D01*
X139288762Y-70766819D01*
X139192000Y-70718438D01*
X139143619Y-70621676D01*
X139143619Y-70524914D01*
X139192000Y-70428152D01*
X139288762Y-70379771D01*
X139530666Y-70379771D01*
X139627428Y-70331390D01*
X140111238Y-70766819D02*
X140111238Y-70089486D01*
X140111238Y-70186248D02*
X140159619Y-70137867D01*
X140256381Y-70089486D01*
X140401523Y-70089486D01*
X140498285Y-70137867D01*
X140546666Y-70234629D01*
X140546666Y-70766819D01*
X140546666Y-70234629D02*
X140595047Y-70137867D01*
X140691809Y-70089486D01*
X140836952Y-70089486D01*
X140933714Y-70137867D01*
X140982095Y-70234629D01*
X140982095Y-70766819D01*
X124677716Y-72152933D02*
X125161525Y-72152933D01*
X124580954Y-72443219D02*
X124919621Y-71427219D01*
X125258287Y-72443219D01*
X125451811Y-71427219D02*
X125790478Y-72443219D01*
X126129144Y-71427219D01*
X127048382Y-72443219D02*
X126709716Y-71959410D01*
X126467811Y-72443219D02*
X126467811Y-71427219D01*
X126854858Y-71427219D01*
X126951620Y-71475600D01*
X127000001Y-71523981D01*
X127048382Y-71620743D01*
X127048382Y-71765886D01*
X127000001Y-71862648D01*
X126951620Y-71911029D01*
X126854858Y-71959410D01*
X126467811Y-71959410D01*
X128257906Y-72443219D02*
X128257906Y-71427219D01*
X128644953Y-71427219D01*
X128741715Y-71475600D01*
X128790096Y-71523981D01*
X128838477Y-71620743D01*
X128838477Y-71765886D01*
X128790096Y-71862648D01*
X128741715Y-71911029D01*
X128644953Y-71959410D01*
X128257906Y-71959410D01*
X129273906Y-72443219D02*
X129273906Y-71765886D01*
X129273906Y-71959410D02*
X129322287Y-71862648D01*
X129370668Y-71814267D01*
X129467430Y-71765886D01*
X129564191Y-71765886D01*
X130048001Y-72443219D02*
X129951239Y-72394838D01*
X129902858Y-72346457D01*
X129854477Y-72249695D01*
X129854477Y-71959410D01*
X129902858Y-71862648D01*
X129951239Y-71814267D01*
X130048001Y-71765886D01*
X130193143Y-71765886D01*
X130289905Y-71814267D01*
X130338286Y-71862648D01*
X130386667Y-71959410D01*
X130386667Y-72249695D01*
X130338286Y-72346457D01*
X130289905Y-72394838D01*
X130193143Y-72443219D01*
X130048001Y-72443219D01*
X131257524Y-71765886D02*
X131257524Y-72588362D01*
X131209143Y-72685124D01*
X131160762Y-72733505D01*
X131064001Y-72781886D01*
X130918858Y-72781886D01*
X130822096Y-72733505D01*
X131257524Y-72394838D02*
X131160762Y-72443219D01*
X130967239Y-72443219D01*
X130870477Y-72394838D01*
X130822096Y-72346457D01*
X130773715Y-72249695D01*
X130773715Y-71959410D01*
X130822096Y-71862648D01*
X130870477Y-71814267D01*
X130967239Y-71765886D01*
X131160762Y-71765886D01*
X131257524Y-71814267D01*
X131741334Y-72443219D02*
X131741334Y-71765886D01*
X131741334Y-71959410D02*
X131789715Y-71862648D01*
X131838096Y-71814267D01*
X131934858Y-71765886D01*
X132031619Y-71765886D01*
X132805714Y-72443219D02*
X132805714Y-71911029D01*
X132757333Y-71814267D01*
X132660571Y-71765886D01*
X132467048Y-71765886D01*
X132370286Y-71814267D01*
X132805714Y-72394838D02*
X132708952Y-72443219D01*
X132467048Y-72443219D01*
X132370286Y-72394838D01*
X132321905Y-72298076D01*
X132321905Y-72201314D01*
X132370286Y-72104552D01*
X132467048Y-72056171D01*
X132708952Y-72056171D01*
X132805714Y-72007790D01*
X133289524Y-72443219D02*
X133289524Y-71765886D01*
X133289524Y-71862648D02*
X133337905Y-71814267D01*
X133434667Y-71765886D01*
X133579809Y-71765886D01*
X133676571Y-71814267D01*
X133724952Y-71911029D01*
X133724952Y-72443219D01*
X133724952Y-71911029D02*
X133773333Y-71814267D01*
X133870095Y-71765886D01*
X134015238Y-71765886D01*
X134112000Y-71814267D01*
X134160381Y-71911029D01*
X134160381Y-72443219D01*
X134644191Y-72443219D02*
X134644191Y-71765886D01*
X134644191Y-71862648D02*
X134692572Y-71814267D01*
X134789334Y-71765886D01*
X134934476Y-71765886D01*
X135031238Y-71814267D01*
X135079619Y-71911029D01*
X135079619Y-72443219D01*
X135079619Y-71911029D02*
X135128000Y-71814267D01*
X135224762Y-71765886D01*
X135369905Y-71765886D01*
X135466667Y-71814267D01*
X135515048Y-71911029D01*
X135515048Y-72443219D01*
X136385905Y-72394838D02*
X136289143Y-72443219D01*
X136095620Y-72443219D01*
X135998858Y-72394838D01*
X135950477Y-72298076D01*
X135950477Y-71911029D01*
X135998858Y-71814267D01*
X136095620Y-71765886D01*
X136289143Y-71765886D01*
X136385905Y-71814267D01*
X136434286Y-71911029D01*
X136434286Y-72007790D01*
X135950477Y-72104552D01*
X136869715Y-72443219D02*
X136869715Y-71765886D01*
X136869715Y-71959410D02*
X136918096Y-71862648D01*
X136966477Y-71814267D01*
X137063239Y-71765886D01*
X137160000Y-71765886D01*
X138176000Y-71765886D02*
X138417905Y-72443219D01*
X138659809Y-71765886D01*
X139579047Y-72443219D02*
X138998476Y-72443219D01*
X139288762Y-72443219D02*
X139288762Y-71427219D01*
X139192000Y-71572362D01*
X139095238Y-71669124D01*
X138998476Y-71717505D01*
X140014476Y-72346457D02*
X140062857Y-72394838D01*
X140014476Y-72443219D01*
X139966095Y-72394838D01*
X140014476Y-72346457D01*
X140014476Y-72443219D01*
X141030476Y-72443219D02*
X140449905Y-72443219D01*
X140740191Y-72443219D02*
X140740191Y-71427219D01*
X140643429Y-71572362D01*
X140546667Y-71669124D01*
X140449905Y-71717505D01*
X135418286Y-73200381D02*
X135466667Y-73152000D01*
X135563429Y-73103619D01*
X135805333Y-73103619D01*
X135902095Y-73152000D01*
X135950476Y-73200381D01*
X135998857Y-73297143D01*
X135998857Y-73393905D01*
X135950476Y-73539048D01*
X135369905Y-74119619D01*
X135998857Y-74119619D01*
X137160000Y-73055238D02*
X136289143Y-74361524D01*
X137547048Y-74119619D02*
X137740572Y-74119619D01*
X137837333Y-74071238D01*
X137885714Y-74022857D01*
X137982476Y-73877714D01*
X138030857Y-73684190D01*
X138030857Y-73297143D01*
X137982476Y-73200381D01*
X137934095Y-73152000D01*
X137837333Y-73103619D01*
X137643810Y-73103619D01*
X137547048Y-73152000D01*
X137498667Y-73200381D01*
X137450286Y-73297143D01*
X137450286Y-73539048D01*
X137498667Y-73635810D01*
X137547048Y-73684190D01*
X137643810Y-73732571D01*
X137837333Y-73732571D01*
X137934095Y-73684190D01*
X137982476Y-73635810D01*
X138030857Y-73539048D01*
X139192000Y-73055238D02*
X138321143Y-74361524D01*
X140062857Y-74119619D02*
X139482286Y-74119619D01*
X139772572Y-74119619D02*
X139772572Y-73103619D01*
X139675810Y-73248762D01*
X139579048Y-73345524D01*
X139482286Y-73393905D01*
X140401524Y-73103619D02*
X141078857Y-73103619D01*
X140643429Y-74119619D01*
X129540000Y-92075000D02*
X102870000Y-92075000D01*
X139725400Y-92075000D02*
X127279400Y-92075000D01*
X141579600Y-77470000D02*
X141579600Y-90170000D01*
X139801600Y-75565000D02*
X102870000Y-75565000D01*
X100965000Y-77470000D02*
X100965000Y-90170000D01*
X100965000Y-90170000D02*
G75*
G03X102870000Y-92075000I1905000J0D01*
G01*
X102870000Y-75565000D02*
G75*
G03X100965000Y-77470000I0J-1905000D01*
G01*
X139674600Y-92075000D02*
G75*
G03X141579600Y-90170000I0J1905000D01*
G01*
X141579600Y-77470000D02*
G75*
G03X139674600Y-75565000I-1905000J0D01*
G01*
D12*
X110138000Y-76454000D02*
X115218000Y-76454000D01*
X110138000Y-79502000D02*
X110138000Y-76454000D01*
X115218000Y-79502000D02*
X110138000Y-79502000D01*
X115218000Y-76454000D02*
X115218000Y-79502000D01*
X112182000Y-81522000D02*
X109282000Y-81522000D01*
X112182000Y-81522000D02*
X112182000Y-80022000D01*
X109282000Y-81522000D02*
X109282000Y-80022000D01*
X112182000Y-80022000D02*
X109282000Y-80022000D01*
X109294000Y-82689000D02*
X112194000Y-82689000D01*
X109294000Y-82689000D02*
X109294000Y-84189000D01*
X112194000Y-82689000D02*
X112194000Y-84189000D01*
X109294000Y-84189000D02*
X112194000Y-84189000D01*
X113423000Y-91251000D02*
X113423000Y-88351000D01*
X113423000Y-91251000D02*
X114923000Y-91251000D01*
X113423000Y-88351000D02*
X114923000Y-88351000D01*
X114923000Y-91251000D02*
X114923000Y-88351000D01*
X126504000Y-87544000D02*
X126504000Y-84644000D01*
X126504000Y-87544000D02*
X128004000Y-87544000D01*
X126504000Y-84644000D02*
X128004000Y-84644000D01*
X128004000Y-87544000D02*
X128004000Y-84644000D01*
X113550000Y-86806000D02*
X113550000Y-83906000D01*
X113550000Y-86806000D02*
X115050000Y-86806000D01*
X113550000Y-83906000D02*
X115050000Y-83906000D01*
X115050000Y-86806000D02*
X115050000Y-83906000D01*
X101247000Y-75720000D02*
X101247000Y-91920000D01*
X101237000Y-75730000D02*
X104737000Y-75730000D01*
X104727000Y-75710000D02*
X104727000Y-91910000D01*
X101227000Y-91900000D02*
X104727000Y-91900000D01*
X133858000Y-79756000D02*
X133858000Y-77724000D01*
X130302000Y-79756000D02*
X133858000Y-79756000D01*
X130302000Y-77724000D02*
X130302000Y-79756000D01*
X133858000Y-77724000D02*
X130302000Y-77724000D01*
X113080800Y-84455000D02*
X113080800Y-91567000D01*
X108508800Y-84455000D02*
X113080800Y-84455000D01*
X108508800Y-91567000D02*
X108508800Y-84455000D01*
X113080800Y-91567000D02*
X108508800Y-91567000D01*
D13*
X109778800Y-85725000D02*
G75*
G03X109778800Y-85725000I-254000J0D01*
G01*
D14*
X115443000Y-81724500D02*
X116776500Y-80645000D01*
D11*
X116776500Y-81788000D02*
G75*
G03X116776500Y-81788000I-317500J0D01*
G01*
D12*
X126111000Y-91313000D02*
X126111000Y-80645000D01*
X115443000Y-91313000D02*
X126111000Y-91313000D01*
X115443000Y-81724500D02*
X115443000Y-91313000D01*
X126111000Y-80645000D02*
X116776500Y-80645000D01*
X107430000Y-86041000D02*
X107430000Y-88941000D01*
X107430000Y-86041000D02*
X105930000Y-86041000D01*
X107430000Y-88941000D02*
X105930000Y-88941000D01*
X105930000Y-86041000D02*
X105930000Y-88941000D01*
X129032000Y-80772000D02*
X129032000Y-89408000D01*
X135128000Y-80772000D02*
X129032000Y-80772000D01*
X135128000Y-89408000D02*
X135128000Y-80772000D01*
X129032000Y-89408000D02*
X135128000Y-89408000D01*
D13*
X133604000Y-87630000D02*
G75*
G03X133604000Y-87630000I-254000J0D01*
G01*
D15*
X135722800Y-90070000D02*
X140222800Y-90070000D01*
X135722800Y-77570000D02*
X135722800Y-90070000D01*
X140222800Y-77570000D02*
X135722800Y-77570000D01*
X140222800Y-90070000D02*
X140222800Y-77570000D01*
D16*
X111916095Y-78382762D02*
X112058952Y-78430381D01*
X112297048Y-78430381D01*
X112392286Y-78382762D01*
X112439905Y-78335143D01*
X112487524Y-78239905D01*
X112487524Y-78144667D01*
X112439905Y-78049429D01*
X112392286Y-78001810D01*
X112297048Y-77954190D01*
X112106571Y-77906571D01*
X112011333Y-77858952D01*
X111963714Y-77811333D01*
X111916095Y-77716095D01*
X111916095Y-77620857D01*
X111963714Y-77525619D01*
X112011333Y-77478000D01*
X112106571Y-77430381D01*
X112344667Y-77430381D01*
X112487524Y-77478000D01*
X113439905Y-78430381D02*
X112868476Y-78430381D01*
X113154190Y-78430381D02*
X113154190Y-77430381D01*
X113058952Y-77573238D01*
X112963714Y-77668476D01*
X112868476Y-77716095D01*
X110508667Y-81017714D02*
X110470572Y-81055810D01*
X110356286Y-81093905D01*
X110280096Y-81093905D01*
X110165810Y-81055810D01*
X110089619Y-80979619D01*
X110051524Y-80903429D01*
X110013429Y-80751048D01*
X110013429Y-80636762D01*
X110051524Y-80484381D01*
X110089619Y-80408190D01*
X110165810Y-80332000D01*
X110280096Y-80293905D01*
X110356286Y-80293905D01*
X110470572Y-80332000D01*
X110508667Y-80370095D01*
X111270572Y-81093905D02*
X110813429Y-81093905D01*
X111042000Y-81093905D02*
X111042000Y-80293905D01*
X110965810Y-80408190D01*
X110889619Y-80484381D01*
X110813429Y-80522476D01*
X110700667Y-83764714D02*
X110662572Y-83802810D01*
X110548286Y-83840905D01*
X110472096Y-83840905D01*
X110357810Y-83802810D01*
X110281619Y-83726619D01*
X110243524Y-83650429D01*
X110205429Y-83498048D01*
X110205429Y-83383762D01*
X110243524Y-83231381D01*
X110281619Y-83155190D01*
X110357810Y-83079000D01*
X110472096Y-83040905D01*
X110548286Y-83040905D01*
X110662572Y-83079000D01*
X110700667Y-83117095D01*
X111005429Y-83117095D02*
X111043524Y-83079000D01*
X111119715Y-83040905D01*
X111310191Y-83040905D01*
X111386381Y-83079000D01*
X111424477Y-83117095D01*
X111462572Y-83193286D01*
X111462572Y-83269476D01*
X111424477Y-83383762D01*
X110967334Y-83840905D01*
X111462572Y-83840905D01*
X114079667Y-89996714D02*
X114041572Y-90034810D01*
X113927286Y-90072905D01*
X113851096Y-90072905D01*
X113736810Y-90034810D01*
X113660619Y-89958619D01*
X113622524Y-89882429D01*
X113584429Y-89730048D01*
X113584429Y-89615762D01*
X113622524Y-89463381D01*
X113660619Y-89387190D01*
X113736810Y-89311000D01*
X113851096Y-89272905D01*
X113927286Y-89272905D01*
X114041572Y-89311000D01*
X114079667Y-89349095D01*
X114346334Y-89272905D02*
X114841572Y-89272905D01*
X114574905Y-89577667D01*
X114689191Y-89577667D01*
X114765381Y-89615762D01*
X114803477Y-89653857D01*
X114841572Y-89730048D01*
X114841572Y-89920524D01*
X114803477Y-89996714D01*
X114765381Y-90034810D01*
X114689191Y-90072905D01*
X114460619Y-90072905D01*
X114384429Y-90034810D01*
X114346334Y-89996714D01*
X127160667Y-86289714D02*
X127122572Y-86327810D01*
X127008286Y-86365905D01*
X126932096Y-86365905D01*
X126817810Y-86327810D01*
X126741619Y-86251619D01*
X126703524Y-86175429D01*
X126665429Y-86023048D01*
X126665429Y-85908762D01*
X126703524Y-85756381D01*
X126741619Y-85680190D01*
X126817810Y-85604000D01*
X126932096Y-85565905D01*
X127008286Y-85565905D01*
X127122572Y-85604000D01*
X127160667Y-85642095D01*
X127884477Y-85565905D02*
X127503524Y-85565905D01*
X127465429Y-85946857D01*
X127503524Y-85908762D01*
X127579715Y-85870667D01*
X127770191Y-85870667D01*
X127846381Y-85908762D01*
X127884477Y-85946857D01*
X127922572Y-86023048D01*
X127922572Y-86213524D01*
X127884477Y-86289714D01*
X127846381Y-86327810D01*
X127770191Y-86365905D01*
X127579715Y-86365905D01*
X127503524Y-86327810D01*
X127465429Y-86289714D01*
X114206667Y-85551714D02*
X114168572Y-85589810D01*
X114054286Y-85627905D01*
X113978096Y-85627905D01*
X113863810Y-85589810D01*
X113787619Y-85513619D01*
X113749524Y-85437429D01*
X113711429Y-85285048D01*
X113711429Y-85170762D01*
X113749524Y-85018381D01*
X113787619Y-84942190D01*
X113863810Y-84866000D01*
X113978096Y-84827905D01*
X114054286Y-84827905D01*
X114168572Y-84866000D01*
X114206667Y-84904095D01*
X114892381Y-84827905D02*
X114740000Y-84827905D01*
X114663810Y-84866000D01*
X114625715Y-84904095D01*
X114549524Y-85018381D01*
X114511429Y-85170762D01*
X114511429Y-85475524D01*
X114549524Y-85551714D01*
X114587619Y-85589810D01*
X114663810Y-85627905D01*
X114816191Y-85627905D01*
X114892381Y-85589810D01*
X114930477Y-85551714D01*
X114968572Y-85475524D01*
X114968572Y-85285048D01*
X114930477Y-85208857D01*
X114892381Y-85170762D01*
X114816191Y-85132667D01*
X114663810Y-85132667D01*
X114587619Y-85170762D01*
X114549524Y-85208857D01*
X114511429Y-85285048D01*
D17*
X102309667Y-82707238D02*
X102309667Y-84158667D01*
X102212905Y-84448952D01*
X102019381Y-84642476D01*
X101729096Y-84739238D01*
X101535572Y-84739238D01*
X104341666Y-84739238D02*
X103180524Y-84739238D01*
X103761095Y-84739238D02*
X103761095Y-82707238D01*
X103567571Y-82997524D01*
X103374047Y-83191048D01*
X103180524Y-83287810D01*
D16*
X131913334Y-79192381D02*
X131580000Y-78716190D01*
X131341905Y-79192381D02*
X131341905Y-78192381D01*
X131722858Y-78192381D01*
X131818096Y-78240000D01*
X131865715Y-78287619D01*
X131913334Y-78382857D01*
X131913334Y-78525714D01*
X131865715Y-78620952D01*
X131818096Y-78668571D01*
X131722858Y-78716190D01*
X131341905Y-78716190D01*
X132865715Y-79192381D02*
X132294286Y-79192381D01*
X132580000Y-79192381D02*
X132580000Y-78192381D01*
X132484762Y-78335238D01*
X132389524Y-78430476D01*
X132294286Y-78478095D01*
D17*
X109353048Y-86898238D02*
X110707714Y-88930238D01*
X110707714Y-86898238D02*
X109353048Y-88930238D01*
X112546190Y-88930238D02*
X111385048Y-88930238D01*
X111965619Y-88930238D02*
X111965619Y-86898238D01*
X111772095Y-87188524D01*
X111578571Y-87382048D01*
X111385048Y-87478810D01*
D16*
X120015095Y-85431381D02*
X120015095Y-86240905D01*
X120062714Y-86336143D01*
X120110333Y-86383762D01*
X120205571Y-86431381D01*
X120396048Y-86431381D01*
X120491286Y-86383762D01*
X120538905Y-86336143D01*
X120586524Y-86240905D01*
X120586524Y-85431381D01*
X121586524Y-86431381D02*
X121015095Y-86431381D01*
X121300809Y-86431381D02*
X121300809Y-85431381D01*
X121205571Y-85574238D01*
X121110333Y-85669476D01*
X121015095Y-85717095D01*
X106925714Y-87714333D02*
X106963810Y-87752428D01*
X107001905Y-87866714D01*
X107001905Y-87942904D01*
X106963810Y-88057190D01*
X106887619Y-88133381D01*
X106811429Y-88171476D01*
X106659048Y-88209571D01*
X106544762Y-88209571D01*
X106392381Y-88171476D01*
X106316190Y-88133381D01*
X106240000Y-88057190D01*
X106201905Y-87942904D01*
X106201905Y-87866714D01*
X106240000Y-87752428D01*
X106278095Y-87714333D01*
X106468571Y-87028619D02*
X107001905Y-87028619D01*
X106163810Y-87219095D02*
X106735238Y-87409571D01*
X106735238Y-86914333D01*
X131746667Y-84542381D02*
X131746667Y-85256667D01*
X131699047Y-85399524D01*
X131603809Y-85494762D01*
X131460952Y-85542381D01*
X131365714Y-85542381D01*
X132175238Y-84637619D02*
X132222857Y-84590000D01*
X132318095Y-84542381D01*
X132556191Y-84542381D01*
X132651429Y-84590000D01*
X132699048Y-84637619D01*
X132746667Y-84732857D01*
X132746667Y-84828095D01*
X132699048Y-84970952D01*
X132127619Y-85542381D01*
X132746667Y-85542381D01*
X137210895Y-84224762D02*
X137353752Y-84272381D01*
X137591848Y-84272381D01*
X137687086Y-84224762D01*
X137734705Y-84177143D01*
X137782324Y-84081905D01*
X137782324Y-83986667D01*
X137734705Y-83891429D01*
X137687086Y-83843810D01*
X137591848Y-83796190D01*
X137401371Y-83748571D01*
X137306133Y-83700952D01*
X137258514Y-83653333D01*
X137210895Y-83558095D01*
X137210895Y-83462857D01*
X137258514Y-83367619D01*
X137306133Y-83320000D01*
X137401371Y-83272381D01*
X137639467Y-83272381D01*
X137782324Y-83320000D01*
X138163276Y-83367619D02*
X138210895Y-83320000D01*
X138306133Y-83272381D01*
X138544229Y-83272381D01*
X138639467Y-83320000D01*
X138687086Y-83367619D01*
X138734705Y-83462857D01*
X138734705Y-83558095D01*
X138687086Y-83700952D01*
X138115657Y-84272381D01*
X138734705Y-84272381D01*
M02*
