M48
;DRILL file {KiCad 4.0.5-e0-6337~49~ubuntu16.04.1} date Mon Jan  9 19:52:44 2017
;FORMAT={-:-/ absolute / metric / decimal}
FMAT,2
METRIC,TZ
T1C0.330
T2C1.016
%
G90
G05
M71
T1
X109.22Y-77.724
X109.474Y-88.138
X111.506Y-82.042
X112.776Y-83.947
X115.13Y-88.9
X115.272Y-86.36
X116.078Y-78.994
X118.237Y-86.36
X118.527Y-85.181
X118.618Y-80.264
X119.634Y-83.058
X123.444Y-88.646
X124.714Y-78.74
X126.422Y-87.122
X127.Y-83.566
X128.734Y-87.122
X129.54Y-78.74
T2
X102.997Y-77.47
X102.997Y-80.01
X102.997Y-82.55
X102.997Y-85.09
X102.997Y-87.63
X102.997Y-90.17
X130.81Y-82.55
X130.81Y-85.09
X130.81Y-87.63
X133.35Y-82.55
X133.35Y-85.09
X133.35Y-87.63
T0
M30
