G04 This is an RS-274x file exported by *
G04 gerbv version 2.6.0 *
G04 More information is available about gerbv at *
G04 http://gerbv.gpleda.org/ *
G04 --End of header info--*
%MOIN*%
%FSLAX34Y34*%
%IPPOS*%
G04 --Define apertures--*
%ADD10C,0.0050*%
%ADD11C,0.0060*%
%ADD12C,0.0079*%
%ADD13C,0.0118*%
%ADD14C,0.0138*%
%ADD15C,0.0059*%
G04 --Start main section--*
G54D11*
G01X0043100Y-036000D02*
G75*
G03X0042100Y-037000I0000000J-001000D01*
G01X0043100Y-043000D02*
G01X0053600Y-043000D01*
G01X0042100Y-037000D02*
G01X0042100Y-042000D01*
G01X0053600Y-036000D02*
G01X0043100Y-036000D01*
G01X0054600Y-037000D02*
G01X0054600Y-042000D01*
G01X0053600Y-043000D02*
G75*
G03X0054600Y-042000I0000000J0001000D01*
G01X0054600Y-037000D02*
G75*
G03X0053600Y-036000I-001000J0000000D01*
G01X0042100Y-042000D02*
G75*
G03X0043100Y-043000I0001000J0000000D01*
G54D12*
G01X0047235Y-040035D02*
G01X0047365Y-040165D01*
G01X0047365Y-040035D02*
G01X0047235Y-040165D01*
G01X0048335Y-041069D02*
G01X0048465Y-041199D01*
G01X0048465Y-041069D02*
G01X0048335Y-041199D01*
G01X0050065Y-038387D02*
G01X0050195Y-038517D01*
G01X0050195Y-038387D02*
G01X0050065Y-038517D01*
G01X0051801Y-038367D02*
G01X0051931Y-038497D01*
G01X0051931Y-038367D02*
G01X0051801Y-038497D01*
G01X0053753Y-036651D02*
G01X0053883Y-036781D01*
G01X0053883Y-036651D02*
G01X0053753Y-036781D01*
G01X0053763Y-041767D02*
G01X0053893Y-041897D01*
G01X0053893Y-041767D02*
G01X0053763Y-041897D01*
G01X0043300Y-037000D02*
G75*
G03X0043300Y-037000I-000200J0000000D01*
G01X0043300Y-038000D02*
G75*
G03X0043300Y-038000I-000200J0000000D01*
G01X0043300Y-039000D02*
G75*
G03X0043300Y-039000I-000200J0000000D01*
G01X0043300Y-040000D02*
G75*
G03X0043300Y-040000I-000200J0000000D01*
G01X0043300Y-041000D02*
G75*
G03X0043300Y-041000I-000200J0000000D01*
G01X0043300Y-042000D02*
G75*
G03X0043300Y-042000I-000200J0000000D01*
G54D13*
G01X0043139Y-044864D02*
G01X0043139Y-043682D01*
G01X0043139Y-043682D02*
G01X0043420Y-043682D01*
G01X0043420Y-043682D02*
G01X0043589Y-043739D01*
G01X0043589Y-043739D02*
G01X0043701Y-043851D01*
G01X0043701Y-043851D02*
G01X0043757Y-043964D01*
G01X0043757Y-043964D02*
G01X0043814Y-044189D01*
G01X0043814Y-044189D02*
G01X0043814Y-044357D01*
G01X0043814Y-044357D02*
G01X0043757Y-044582D01*
G01X0043757Y-044582D02*
G01X0043701Y-044695D01*
G01X0043701Y-044695D02*
G01X0043589Y-044807D01*
G01X0043589Y-044807D02*
G01X0043420Y-044864D01*
G01X0043420Y-044864D02*
G01X0043139Y-044864D01*
G01X0044320Y-044864D02*
G01X0044320Y-044076D01*
G01X0044320Y-044301D02*
G01X0044376Y-044189D01*
G01X0044376Y-044189D02*
G01X0044432Y-044132D01*
G01X0044432Y-044132D02*
G01X0044545Y-044076D01*
G01X0044545Y-044076D02*
G01X0044657Y-044076D01*
G01X0045051Y-044864D02*
G01X0045051Y-044076D01*
G01X0045051Y-043682D02*
G01X0044995Y-043739D01*
G01X0044995Y-043739D02*
G01X0045051Y-043795D01*
G01X0045051Y-043795D02*
G01X0045107Y-043739D01*
G01X0045107Y-043739D02*
G01X0045051Y-043682D01*
G01X0045051Y-043682D02*
G01X0045051Y-043795D01*
G01X0045782Y-044864D02*
G01X0045670Y-044807D01*
G01X0045670Y-044807D02*
G01X0045613Y-044695D01*
G01X0045613Y-044695D02*
G01X0045613Y-043682D01*
G01X0046401Y-044864D02*
G01X0046288Y-044807D01*
G01X0046288Y-044807D02*
G01X0046232Y-044695D01*
G01X0046232Y-044695D02*
G01X0046232Y-043682D01*
G01X0047751Y-044864D02*
G01X0047751Y-043682D01*
G01X0047751Y-043682D02*
G01X0048144Y-044526D01*
G01X0048144Y-044526D02*
G01X0048538Y-043682D01*
G01X0048538Y-043682D02*
G01X0048538Y-044864D01*
G01X0049607Y-044864D02*
G01X0049607Y-044245D01*
G01X0049607Y-044245D02*
G01X0049550Y-044132D01*
G01X0049550Y-044132D02*
G01X0049438Y-044076D01*
G01X0049438Y-044076D02*
G01X0049213Y-044076D01*
G01X0049213Y-044076D02*
G01X0049100Y-044132D01*
G01X0049607Y-044807D02*
G01X0049494Y-044864D01*
G01X0049494Y-044864D02*
G01X0049213Y-044864D01*
G01X0049213Y-044864D02*
G01X0049100Y-044807D01*
G01X0049100Y-044807D02*
G01X0049044Y-044695D01*
G01X0049044Y-044695D02*
G01X0049044Y-044582D01*
G01X0049044Y-044582D02*
G01X0049100Y-044470D01*
G01X0049100Y-044470D02*
G01X0049213Y-044414D01*
G01X0049213Y-044414D02*
G01X0049494Y-044414D01*
G01X0049494Y-044414D02*
G01X0049607Y-044357D01*
G01X0050169Y-044076D02*
G01X0050169Y-045257D01*
G01X0050169Y-044132D02*
G01X0050281Y-044076D01*
G01X0050281Y-044076D02*
G01X0050506Y-044076D01*
G01X0050506Y-044076D02*
G01X0050619Y-044132D01*
G01X0050619Y-044132D02*
G01X0050675Y-044189D01*
G01X0050675Y-044189D02*
G01X0050731Y-044301D01*
G01X0050731Y-044301D02*
G01X0050731Y-044639D01*
G01X0050731Y-044639D02*
G01X0050675Y-044751D01*
G01X0050675Y-044751D02*
G01X0050619Y-044807D01*
G01X0050619Y-044807D02*
G01X0050506Y-044864D01*
G01X0050506Y-044864D02*
G01X0050281Y-044864D01*
G01X0050281Y-044864D02*
G01X0050169Y-044807D01*
G01X0051238Y-044751D02*
G01X0051294Y-044807D01*
G01X0051294Y-044807D02*
G01X0051238Y-044864D01*
G01X0051238Y-044864D02*
G01X0051181Y-044807D01*
G01X0051181Y-044807D02*
G01X0051238Y-044751D01*
G01X0051238Y-044751D02*
G01X0051238Y-044864D01*
G01X0051238Y-044132D02*
G01X0051294Y-044189D01*
G01X0051294Y-044189D02*
G01X0051238Y-044245D01*
G01X0051238Y-044245D02*
G01X0051181Y-044189D01*
G01X0051181Y-044189D02*
G01X0051238Y-044132D01*
G01X0051238Y-044132D02*
G01X0051238Y-044245D01*
G01X0041940Y-046745D02*
G01X0042070Y-046875D01*
G01X0042070Y-046745D02*
G01X0041940Y-046875D01*
G01X0043364Y-046163D02*
G01X0043476Y-046163D01*
G01X0043476Y-046163D02*
G01X0043589Y-046219D01*
G01X0043589Y-046219D02*
G01X0043645Y-046275D01*
G01X0043645Y-046275D02*
G01X0043701Y-046388D01*
G01X0043701Y-046388D02*
G01X0043757Y-046613D01*
G01X0043757Y-046613D02*
G01X0043757Y-046894D01*
G01X0043757Y-046894D02*
G01X0043701Y-047119D01*
G01X0043701Y-047119D02*
G01X0043645Y-047231D01*
G01X0043645Y-047231D02*
G01X0043589Y-047288D01*
G01X0043589Y-047288D02*
G01X0043476Y-047344D01*
G01X0043476Y-047344D02*
G01X0043364Y-047344D01*
G01X0043364Y-047344D02*
G01X0043251Y-047288D01*
G01X0043251Y-047288D02*
G01X0043195Y-047231D01*
G01X0043195Y-047231D02*
G01X0043139Y-047119D01*
G01X0043139Y-047119D02*
G01X0043082Y-046894D01*
G01X0043082Y-046894D02*
G01X0043082Y-046613D01*
G01X0043082Y-046613D02*
G01X0043139Y-046388D01*
G01X0043139Y-046388D02*
G01X0043195Y-046275D01*
G01X0043195Y-046275D02*
G01X0043251Y-046219D01*
G01X0043251Y-046219D02*
G01X0043364Y-046163D01*
G01X0044263Y-047231D02*
G01X0044320Y-047288D01*
G01X0044320Y-047288D02*
G01X0044263Y-047344D01*
G01X0044263Y-047344D02*
G01X0044207Y-047288D01*
G01X0044207Y-047288D02*
G01X0044263Y-047231D01*
G01X0044263Y-047231D02*
G01X0044263Y-047344D01*
G01X0044713Y-046163D02*
G01X0045445Y-046163D01*
G01X0045445Y-046163D02*
G01X0045051Y-046613D01*
G01X0045051Y-046613D02*
G01X0045220Y-046613D01*
G01X0045220Y-046613D02*
G01X0045332Y-046669D01*
G01X0045332Y-046669D02*
G01X0045388Y-046725D01*
G01X0045388Y-046725D02*
G01X0045445Y-046838D01*
G01X0045445Y-046838D02*
G01X0045445Y-047119D01*
G01X0045445Y-047119D02*
G01X0045388Y-047231D01*
G01X0045388Y-047231D02*
G01X0045332Y-047288D01*
G01X0045332Y-047288D02*
G01X0045220Y-047344D01*
G01X0045220Y-047344D02*
G01X0044882Y-047344D01*
G01X0044882Y-047344D02*
G01X0044770Y-047288D01*
G01X0044770Y-047288D02*
G01X0044713Y-047231D01*
G01X0045838Y-046163D02*
G01X0046569Y-046163D01*
G01X0046569Y-046163D02*
G01X0046176Y-046613D01*
G01X0046176Y-046613D02*
G01X0046344Y-046613D01*
G01X0046344Y-046613D02*
G01X0046457Y-046669D01*
G01X0046457Y-046669D02*
G01X0046513Y-046725D01*
G01X0046513Y-046725D02*
G01X0046569Y-046838D01*
G01X0046569Y-046838D02*
G01X0046569Y-047119D01*
G01X0046569Y-047119D02*
G01X0046513Y-047231D01*
G01X0046513Y-047231D02*
G01X0046457Y-047288D01*
G01X0046457Y-047288D02*
G01X0046344Y-047344D01*
G01X0046344Y-047344D02*
G01X0046007Y-047344D01*
G01X0046007Y-047344D02*
G01X0045895Y-047288D01*
G01X0045895Y-047288D02*
G01X0045838Y-047231D01*
G01X0047076Y-047344D02*
G01X0047076Y-046556D01*
G01X0047076Y-046669D02*
G01X0047132Y-046613D01*
G01X0047132Y-046613D02*
G01X0047244Y-046556D01*
G01X0047244Y-046556D02*
G01X0047413Y-046556D01*
G01X0047413Y-046556D02*
G01X0047526Y-046613D01*
G01X0047526Y-046613D02*
G01X0047582Y-046725D01*
G01X0047582Y-046725D02*
G01X0047582Y-047344D01*
G01X0047582Y-046725D02*
G01X0047638Y-046613D01*
G01X0047638Y-046613D02*
G01X0047751Y-046556D01*
G01X0047751Y-046556D02*
G01X0047919Y-046556D01*
G01X0047919Y-046556D02*
G01X0048032Y-046613D01*
G01X0048032Y-046613D02*
G01X0048088Y-046725D01*
G01X0048088Y-046725D02*
G01X0048088Y-047344D01*
G01X0048650Y-047344D02*
G01X0048650Y-046556D01*
G01X0048650Y-046669D02*
G01X0048707Y-046613D01*
G01X0048707Y-046613D02*
G01X0048819Y-046556D01*
G01X0048819Y-046556D02*
G01X0048988Y-046556D01*
G01X0048988Y-046556D02*
G01X0049100Y-046613D01*
G01X0049100Y-046613D02*
G01X0049157Y-046725D01*
G01X0049157Y-046725D02*
G01X0049157Y-047344D01*
G01X0049157Y-046725D02*
G01X0049213Y-046613D01*
G01X0049213Y-046613D02*
G01X0049325Y-046556D01*
G01X0049325Y-046556D02*
G01X0049494Y-046556D01*
G01X0049494Y-046556D02*
G01X0049607Y-046613D01*
G01X0049607Y-046613D02*
G01X0049663Y-046725D01*
G01X0049663Y-046725D02*
G01X0049663Y-047344D01*
G01X0051969Y-046106D02*
G01X0050956Y-047625D01*
G01X0053487Y-046163D02*
G01X0053600Y-046163D01*
G01X0053600Y-046163D02*
G01X0053712Y-046219D01*
G01X0053712Y-046219D02*
G01X0053769Y-046275D01*
G01X0053769Y-046275D02*
G01X0053825Y-046388D01*
G01X0053825Y-046388D02*
G01X0053881Y-046613D01*
G01X0053881Y-046613D02*
G01X0053881Y-046894D01*
G01X0053881Y-046894D02*
G01X0053825Y-047119D01*
G01X0053825Y-047119D02*
G01X0053769Y-047231D01*
G01X0053769Y-047231D02*
G01X0053712Y-047288D01*
G01X0053712Y-047288D02*
G01X0053600Y-047344D01*
G01X0053600Y-047344D02*
G01X0053487Y-047344D01*
G01X0053487Y-047344D02*
G01X0053375Y-047288D01*
G01X0053375Y-047288D02*
G01X0053319Y-047231D01*
G01X0053319Y-047231D02*
G01X0053262Y-047119D01*
G01X0053262Y-047119D02*
G01X0053206Y-046894D01*
G01X0053206Y-046894D02*
G01X0053206Y-046613D01*
G01X0053206Y-046613D02*
G01X0053262Y-046388D01*
G01X0053262Y-046388D02*
G01X0053319Y-046275D01*
G01X0053319Y-046275D02*
G01X0053375Y-046219D01*
G01X0053375Y-046219D02*
G01X0053487Y-046163D01*
G01X0054387Y-047231D02*
G01X0054443Y-047288D01*
G01X0054443Y-047288D02*
G01X0054387Y-047344D01*
G01X0054387Y-047344D02*
G01X0054331Y-047288D01*
G01X0054331Y-047288D02*
G01X0054387Y-047231D01*
G01X0054387Y-047231D02*
G01X0054387Y-047344D01*
G01X0055175Y-046163D02*
G01X0055287Y-046163D01*
G01X0055287Y-046163D02*
G01X0055400Y-046219D01*
G01X0055400Y-046219D02*
G01X0055456Y-046275D01*
G01X0055456Y-046275D02*
G01X0055512Y-046388D01*
G01X0055512Y-046388D02*
G01X0055568Y-046613D01*
G01X0055568Y-046613D02*
G01X0055568Y-046894D01*
G01X0055568Y-046894D02*
G01X0055512Y-047119D01*
G01X0055512Y-047119D02*
G01X0055456Y-047231D01*
G01X0055456Y-047231D02*
G01X0055400Y-047288D01*
G01X0055400Y-047288D02*
G01X0055287Y-047344D01*
G01X0055287Y-047344D02*
G01X0055175Y-047344D01*
G01X0055175Y-047344D02*
G01X0055062Y-047288D01*
G01X0055062Y-047288D02*
G01X0055006Y-047231D01*
G01X0055006Y-047231D02*
G01X0054950Y-047119D01*
G01X0054950Y-047119D02*
G01X0054893Y-046894D01*
G01X0054893Y-046894D02*
G01X0054893Y-046613D01*
G01X0054893Y-046613D02*
G01X0054950Y-046388D01*
G01X0054950Y-046388D02*
G01X0055006Y-046275D01*
G01X0055006Y-046275D02*
G01X0055062Y-046219D01*
G01X0055062Y-046219D02*
G01X0055175Y-046163D01*
G01X0056693Y-047344D02*
G01X0056018Y-047344D01*
G01X0056356Y-047344D02*
G01X0056356Y-046163D01*
G01X0056356Y-046163D02*
G01X0056243Y-046331D01*
G01X0056243Y-046331D02*
G01X0056131Y-046444D01*
G01X0056131Y-046444D02*
G01X0056018Y-046500D01*
G01X0057087Y-046163D02*
G01X0057818Y-046163D01*
G01X0057818Y-046163D02*
G01X0057424Y-046613D01*
G01X0057424Y-046613D02*
G01X0057593Y-046613D01*
G01X0057593Y-046613D02*
G01X0057706Y-046669D01*
G01X0057706Y-046669D02*
G01X0057762Y-046725D01*
G01X0057762Y-046725D02*
G01X0057818Y-046838D01*
G01X0057818Y-046838D02*
G01X0057818Y-047119D01*
G01X0057818Y-047119D02*
G01X0057762Y-047231D01*
G01X0057762Y-047231D02*
G01X0057706Y-047288D01*
G01X0057706Y-047288D02*
G01X0057593Y-047344D01*
G01X0057593Y-047344D02*
G01X0057256Y-047344D01*
G01X0057256Y-047344D02*
G01X0057143Y-047288D01*
G01X0057143Y-047288D02*
G01X0057087Y-047231D01*
G01X0058268Y-046163D02*
G01X0058268Y-046388D01*
G01X0058718Y-046163D02*
G01X0058718Y-046388D01*
G01X0060461Y-047794D02*
G01X0060405Y-047738D01*
G01X0060405Y-047738D02*
G01X0060293Y-047569D01*
G01X0060293Y-047569D02*
G01X0060236Y-047456D01*
G01X0060236Y-047456D02*
G01X0060180Y-047288D01*
G01X0060180Y-047288D02*
G01X0060124Y-047006D01*
G01X0060124Y-047006D02*
G01X0060124Y-046781D01*
G01X0060124Y-046781D02*
G01X0060180Y-046500D01*
G01X0060180Y-046500D02*
G01X0060236Y-046331D01*
G01X0060236Y-046331D02*
G01X0060293Y-046219D01*
G01X0060293Y-046219D02*
G01X0060405Y-046050D01*
G01X0060405Y-046050D02*
G01X0060461Y-045994D01*
G01X0061418Y-046163D02*
G01X0061193Y-046163D01*
G01X0061193Y-046163D02*
G01X0061080Y-046219D01*
G01X0061080Y-046219D02*
G01X0061024Y-046275D01*
G01X0061024Y-046275D02*
G01X0060911Y-046444D01*
G01X0060911Y-046444D02*
G01X0060855Y-046669D01*
G01X0060855Y-046669D02*
G01X0060855Y-047119D01*
G01X0060855Y-047119D02*
G01X0060911Y-047231D01*
G01X0060911Y-047231D02*
G01X0060968Y-047288D01*
G01X0060968Y-047288D02*
G01X0061080Y-047344D01*
G01X0061080Y-047344D02*
G01X0061305Y-047344D01*
G01X0061305Y-047344D02*
G01X0061418Y-047288D01*
G01X0061418Y-047288D02*
G01X0061474Y-047231D01*
G01X0061474Y-047231D02*
G01X0061530Y-047119D01*
G01X0061530Y-047119D02*
G01X0061530Y-046838D01*
G01X0061530Y-046838D02*
G01X0061474Y-046725D01*
G01X0061474Y-046725D02*
G01X0061418Y-046669D01*
G01X0061418Y-046669D02*
G01X0061305Y-046613D01*
G01X0061305Y-046613D02*
G01X0061080Y-046613D01*
G01X0061080Y-046613D02*
G01X0060968Y-046669D01*
G01X0060968Y-046669D02*
G01X0060911Y-046725D01*
G01X0060911Y-046725D02*
G01X0060855Y-046838D01*
G01X0062936Y-047344D02*
G01X0062936Y-046163D01*
G01X0063442Y-047344D02*
G01X0063442Y-046725D01*
G01X0063442Y-046725D02*
G01X0063386Y-046613D01*
G01X0063386Y-046613D02*
G01X0063274Y-046556D01*
G01X0063274Y-046556D02*
G01X0063105Y-046556D01*
G01X0063105Y-046556D02*
G01X0062992Y-046613D01*
G01X0062992Y-046613D02*
G01X0062936Y-046669D01*
G01X0064173Y-047344D02*
G01X0064061Y-047288D01*
G01X0064061Y-047288D02*
G01X0064005Y-047231D01*
G01X0064005Y-047231D02*
G01X0063949Y-047119D01*
G01X0063949Y-047119D02*
G01X0063949Y-046781D01*
G01X0063949Y-046781D02*
G01X0064005Y-046669D01*
G01X0064005Y-046669D02*
G01X0064061Y-046613D01*
G01X0064061Y-046613D02*
G01X0064173Y-046556D01*
G01X0064173Y-046556D02*
G01X0064342Y-046556D01*
G01X0064342Y-046556D02*
G01X0064455Y-046613D01*
G01X0064455Y-046613D02*
G01X0064511Y-046669D01*
G01X0064511Y-046669D02*
G01X0064567Y-046781D01*
G01X0064567Y-046781D02*
G01X0064567Y-047119D01*
G01X0064567Y-047119D02*
G01X0064511Y-047231D01*
G01X0064511Y-047231D02*
G01X0064455Y-047288D01*
G01X0064455Y-047288D02*
G01X0064342Y-047344D01*
G01X0064342Y-047344D02*
G01X0064173Y-047344D01*
G01X0065242Y-047344D02*
G01X0065130Y-047288D01*
G01X0065130Y-047288D02*
G01X0065073Y-047175D01*
G01X0065073Y-047175D02*
G01X0065073Y-046163D01*
G01X0066142Y-047288D02*
G01X0066030Y-047344D01*
G01X0066030Y-047344D02*
G01X0065805Y-047344D01*
G01X0065805Y-047344D02*
G01X0065692Y-047288D01*
G01X0065692Y-047288D02*
G01X0065636Y-047175D01*
G01X0065636Y-047175D02*
G01X0065636Y-046725D01*
G01X0065636Y-046725D02*
G01X0065692Y-046613D01*
G01X0065692Y-046613D02*
G01X0065805Y-046556D01*
G01X0065805Y-046556D02*
G01X0066030Y-046556D01*
G01X0066030Y-046556D02*
G01X0066142Y-046613D01*
G01X0066142Y-046613D02*
G01X0066198Y-046725D01*
G01X0066198Y-046725D02*
G01X0066198Y-046838D01*
G01X0066198Y-046838D02*
G01X0065636Y-046950D01*
G01X0066648Y-047288D02*
G01X0066761Y-047344D01*
G01X0066761Y-047344D02*
G01X0066986Y-047344D01*
G01X0066986Y-047344D02*
G01X0067098Y-047288D01*
G01X0067098Y-047288D02*
G01X0067154Y-047175D01*
G01X0067154Y-047175D02*
G01X0067154Y-047119D01*
G01X0067154Y-047119D02*
G01X0067098Y-047006D01*
G01X0067098Y-047006D02*
G01X0066986Y-046950D01*
G01X0066986Y-046950D02*
G01X0066817Y-046950D01*
G01X0066817Y-046950D02*
G01X0066704Y-046894D01*
G01X0066704Y-046894D02*
G01X0066648Y-046781D01*
G01X0066648Y-046781D02*
G01X0066648Y-046725D01*
G01X0066648Y-046725D02*
G01X0066704Y-046613D01*
G01X0066704Y-046613D02*
G01X0066817Y-046556D01*
G01X0066817Y-046556D02*
G01X0066986Y-046556D01*
G01X0066986Y-046556D02*
G01X0067098Y-046613D01*
G01X0067548Y-047794D02*
G01X0067604Y-047738D01*
G01X0067604Y-047738D02*
G01X0067717Y-047569D01*
G01X0067717Y-047569D02*
G01X0067773Y-047456D01*
G01X0067773Y-047456D02*
G01X0067829Y-047288D01*
G01X0067829Y-047288D02*
G01X0067886Y-047006D01*
G01X0067886Y-047006D02*
G01X0067886Y-046781D01*
G01X0067886Y-046781D02*
G01X0067829Y-046500D01*
G01X0067829Y-046500D02*
G01X0067773Y-046331D01*
G01X0067773Y-046331D02*
G01X0067717Y-046219D01*
G01X0067717Y-046219D02*
G01X0067604Y-046050D01*
G01X0067604Y-046050D02*
G01X0067548Y-045994D01*
G01X0042070Y-048369D02*
G75*
G03X0042070Y-048369I-000200J0000000D01*
G01X0043757Y-048903D02*
G01X0043082Y-048903D01*
G01X0043420Y-048903D02*
G01X0043420Y-047722D01*
G01X0043420Y-047722D02*
G01X0043307Y-047891D01*
G01X0043307Y-047891D02*
G01X0043195Y-048003D01*
G01X0043195Y-048003D02*
G01X0043082Y-048059D01*
G01X0044263Y-048790D02*
G01X0044320Y-048847D01*
G01X0044320Y-048847D02*
G01X0044263Y-048903D01*
G01X0044263Y-048903D02*
G01X0044207Y-048847D01*
G01X0044207Y-048847D02*
G01X0044263Y-048790D01*
G01X0044263Y-048790D02*
G01X0044263Y-048903D01*
G01X0045051Y-047722D02*
G01X0045163Y-047722D01*
G01X0045163Y-047722D02*
G01X0045276Y-047778D01*
G01X0045276Y-047778D02*
G01X0045332Y-047834D01*
G01X0045332Y-047834D02*
G01X0045388Y-047947D01*
G01X0045388Y-047947D02*
G01X0045445Y-048172D01*
G01X0045445Y-048172D02*
G01X0045445Y-048453D01*
G01X0045445Y-048453D02*
G01X0045388Y-048678D01*
G01X0045388Y-048678D02*
G01X0045332Y-048790D01*
G01X0045332Y-048790D02*
G01X0045276Y-048847D01*
G01X0045276Y-048847D02*
G01X0045163Y-048903D01*
G01X0045163Y-048903D02*
G01X0045051Y-048903D01*
G01X0045051Y-048903D02*
G01X0044938Y-048847D01*
G01X0044938Y-048847D02*
G01X0044882Y-048790D01*
G01X0044882Y-048790D02*
G01X0044826Y-048678D01*
G01X0044826Y-048678D02*
G01X0044770Y-048453D01*
G01X0044770Y-048453D02*
G01X0044770Y-048172D01*
G01X0044770Y-048172D02*
G01X0044826Y-047947D01*
G01X0044826Y-047947D02*
G01X0044882Y-047834D01*
G01X0044882Y-047834D02*
G01X0044938Y-047778D01*
G01X0044938Y-047778D02*
G01X0045051Y-047722D01*
G01X0045895Y-047834D02*
G01X0045951Y-047778D01*
G01X0045951Y-047778D02*
G01X0046063Y-047722D01*
G01X0046063Y-047722D02*
G01X0046344Y-047722D01*
G01X0046344Y-047722D02*
G01X0046457Y-047778D01*
G01X0046457Y-047778D02*
G01X0046513Y-047834D01*
G01X0046513Y-047834D02*
G01X0046569Y-047947D01*
G01X0046569Y-047947D02*
G01X0046569Y-048059D01*
G01X0046569Y-048059D02*
G01X0046513Y-048228D01*
G01X0046513Y-048228D02*
G01X0045838Y-048903D01*
G01X0045838Y-048903D02*
G01X0046569Y-048903D01*
G01X0047076Y-048903D02*
G01X0047076Y-048115D01*
G01X0047076Y-048228D02*
G01X0047132Y-048172D01*
G01X0047132Y-048172D02*
G01X0047244Y-048115D01*
G01X0047244Y-048115D02*
G01X0047413Y-048115D01*
G01X0047413Y-048115D02*
G01X0047526Y-048172D01*
G01X0047526Y-048172D02*
G01X0047582Y-048284D01*
G01X0047582Y-048284D02*
G01X0047582Y-048903D01*
G01X0047582Y-048284D02*
G01X0047638Y-048172D01*
G01X0047638Y-048172D02*
G01X0047751Y-048115D01*
G01X0047751Y-048115D02*
G01X0047919Y-048115D01*
G01X0047919Y-048115D02*
G01X0048032Y-048172D01*
G01X0048032Y-048172D02*
G01X0048088Y-048284D01*
G01X0048088Y-048284D02*
G01X0048088Y-048903D01*
G01X0048650Y-048903D02*
G01X0048650Y-048115D01*
G01X0048650Y-048228D02*
G01X0048707Y-048172D01*
G01X0048707Y-048172D02*
G01X0048819Y-048115D01*
G01X0048819Y-048115D02*
G01X0048988Y-048115D01*
G01X0048988Y-048115D02*
G01X0049100Y-048172D01*
G01X0049100Y-048172D02*
G01X0049157Y-048284D01*
G01X0049157Y-048284D02*
G01X0049157Y-048903D01*
G01X0049157Y-048284D02*
G01X0049213Y-048172D01*
G01X0049213Y-048172D02*
G01X0049325Y-048115D01*
G01X0049325Y-048115D02*
G01X0049494Y-048115D01*
G01X0049494Y-048115D02*
G01X0049607Y-048172D01*
G01X0049607Y-048172D02*
G01X0049663Y-048284D01*
G01X0049663Y-048284D02*
G01X0049663Y-048903D01*
G01X0051969Y-047666D02*
G01X0050956Y-049184D01*
G01X0053487Y-047722D02*
G01X0053600Y-047722D01*
G01X0053600Y-047722D02*
G01X0053712Y-047778D01*
G01X0053712Y-047778D02*
G01X0053769Y-047834D01*
G01X0053769Y-047834D02*
G01X0053825Y-047947D01*
G01X0053825Y-047947D02*
G01X0053881Y-048172D01*
G01X0053881Y-048172D02*
G01X0053881Y-048453D01*
G01X0053881Y-048453D02*
G01X0053825Y-048678D01*
G01X0053825Y-048678D02*
G01X0053769Y-048790D01*
G01X0053769Y-048790D02*
G01X0053712Y-048847D01*
G01X0053712Y-048847D02*
G01X0053600Y-048903D01*
G01X0053600Y-048903D02*
G01X0053487Y-048903D01*
G01X0053487Y-048903D02*
G01X0053375Y-048847D01*
G01X0053375Y-048847D02*
G01X0053319Y-048790D01*
G01X0053319Y-048790D02*
G01X0053262Y-048678D01*
G01X0053262Y-048678D02*
G01X0053206Y-048453D01*
G01X0053206Y-048453D02*
G01X0053206Y-048172D01*
G01X0053206Y-048172D02*
G01X0053262Y-047947D01*
G01X0053262Y-047947D02*
G01X0053319Y-047834D01*
G01X0053319Y-047834D02*
G01X0053375Y-047778D01*
G01X0053375Y-047778D02*
G01X0053487Y-047722D01*
G01X0054387Y-048790D02*
G01X0054443Y-048847D01*
G01X0054443Y-048847D02*
G01X0054387Y-048903D01*
G01X0054387Y-048903D02*
G01X0054331Y-048847D01*
G01X0054331Y-048847D02*
G01X0054387Y-048790D01*
G01X0054387Y-048790D02*
G01X0054387Y-048903D01*
G01X0055175Y-047722D02*
G01X0055287Y-047722D01*
G01X0055287Y-047722D02*
G01X0055400Y-047778D01*
G01X0055400Y-047778D02*
G01X0055456Y-047834D01*
G01X0055456Y-047834D02*
G01X0055512Y-047947D01*
G01X0055512Y-047947D02*
G01X0055568Y-048172D01*
G01X0055568Y-048172D02*
G01X0055568Y-048453D01*
G01X0055568Y-048453D02*
G01X0055512Y-048678D01*
G01X0055512Y-048678D02*
G01X0055456Y-048790D01*
G01X0055456Y-048790D02*
G01X0055400Y-048847D01*
G01X0055400Y-048847D02*
G01X0055287Y-048903D01*
G01X0055287Y-048903D02*
G01X0055175Y-048903D01*
G01X0055175Y-048903D02*
G01X0055062Y-048847D01*
G01X0055062Y-048847D02*
G01X0055006Y-048790D01*
G01X0055006Y-048790D02*
G01X0054950Y-048678D01*
G01X0054950Y-048678D02*
G01X0054893Y-048453D01*
G01X0054893Y-048453D02*
G01X0054893Y-048172D01*
G01X0054893Y-048172D02*
G01X0054950Y-047947D01*
G01X0054950Y-047947D02*
G01X0055006Y-047834D01*
G01X0055006Y-047834D02*
G01X0055062Y-047778D01*
G01X0055062Y-047778D02*
G01X0055175Y-047722D01*
G01X0056581Y-048115D02*
G01X0056581Y-048903D01*
G01X0056299Y-047666D02*
G01X0056018Y-048509D01*
G01X0056018Y-048509D02*
G01X0056749Y-048509D01*
G01X0057424Y-047722D02*
G01X0057537Y-047722D01*
G01X0057537Y-047722D02*
G01X0057649Y-047778D01*
G01X0057649Y-047778D02*
G01X0057706Y-047834D01*
G01X0057706Y-047834D02*
G01X0057762Y-047947D01*
G01X0057762Y-047947D02*
G01X0057818Y-048172D01*
G01X0057818Y-048172D02*
G01X0057818Y-048453D01*
G01X0057818Y-048453D02*
G01X0057762Y-048678D01*
G01X0057762Y-048678D02*
G01X0057706Y-048790D01*
G01X0057706Y-048790D02*
G01X0057649Y-048847D01*
G01X0057649Y-048847D02*
G01X0057537Y-048903D01*
G01X0057537Y-048903D02*
G01X0057424Y-048903D01*
G01X0057424Y-048903D02*
G01X0057312Y-048847D01*
G01X0057312Y-048847D02*
G01X0057256Y-048790D01*
G01X0057256Y-048790D02*
G01X0057199Y-048678D01*
G01X0057199Y-048678D02*
G01X0057143Y-048453D01*
G01X0057143Y-048453D02*
G01X0057143Y-048172D01*
G01X0057143Y-048172D02*
G01X0057199Y-047947D01*
G01X0057199Y-047947D02*
G01X0057256Y-047834D01*
G01X0057256Y-047834D02*
G01X0057312Y-047778D01*
G01X0057312Y-047778D02*
G01X0057424Y-047722D01*
G01X0058268Y-047722D02*
G01X0058268Y-047947D01*
G01X0058718Y-047722D02*
G01X0058718Y-047947D01*
G01X0060461Y-049353D02*
G01X0060405Y-049297D01*
G01X0060405Y-049297D02*
G01X0060293Y-049128D01*
G01X0060293Y-049128D02*
G01X0060236Y-049015D01*
G01X0060236Y-049015D02*
G01X0060180Y-048847D01*
G01X0060180Y-048847D02*
G01X0060124Y-048565D01*
G01X0060124Y-048565D02*
G01X0060124Y-048340D01*
G01X0060124Y-048340D02*
G01X0060180Y-048059D01*
G01X0060180Y-048059D02*
G01X0060236Y-047891D01*
G01X0060236Y-047891D02*
G01X0060293Y-047778D01*
G01X0060293Y-047778D02*
G01X0060405Y-047609D01*
G01X0060405Y-047609D02*
G01X0060461Y-047553D01*
G01X0061418Y-047722D02*
G01X0061193Y-047722D01*
G01X0061193Y-047722D02*
G01X0061080Y-047778D01*
G01X0061080Y-047778D02*
G01X0061024Y-047834D01*
G01X0061024Y-047834D02*
G01X0060911Y-048003D01*
G01X0060911Y-048003D02*
G01X0060855Y-048228D01*
G01X0060855Y-048228D02*
G01X0060855Y-048678D01*
G01X0060855Y-048678D02*
G01X0060911Y-048790D01*
G01X0060911Y-048790D02*
G01X0060968Y-048847D01*
G01X0060968Y-048847D02*
G01X0061080Y-048903D01*
G01X0061080Y-048903D02*
G01X0061305Y-048903D01*
G01X0061305Y-048903D02*
G01X0061418Y-048847D01*
G01X0061418Y-048847D02*
G01X0061474Y-048790D01*
G01X0061474Y-048790D02*
G01X0061530Y-048678D01*
G01X0061530Y-048678D02*
G01X0061530Y-048397D01*
G01X0061530Y-048397D02*
G01X0061474Y-048284D01*
G01X0061474Y-048284D02*
G01X0061418Y-048228D01*
G01X0061418Y-048228D02*
G01X0061305Y-048172D01*
G01X0061305Y-048172D02*
G01X0061080Y-048172D01*
G01X0061080Y-048172D02*
G01X0060968Y-048228D01*
G01X0060968Y-048228D02*
G01X0060911Y-048284D01*
G01X0060911Y-048284D02*
G01X0060855Y-048397D01*
G01X0062936Y-048903D02*
G01X0062936Y-047722D01*
G01X0063442Y-048903D02*
G01X0063442Y-048284D01*
G01X0063442Y-048284D02*
G01X0063386Y-048172D01*
G01X0063386Y-048172D02*
G01X0063274Y-048115D01*
G01X0063274Y-048115D02*
G01X0063105Y-048115D01*
G01X0063105Y-048115D02*
G01X0062992Y-048172D01*
G01X0062992Y-048172D02*
G01X0062936Y-048228D01*
G01X0064173Y-048903D02*
G01X0064061Y-048847D01*
G01X0064061Y-048847D02*
G01X0064005Y-048790D01*
G01X0064005Y-048790D02*
G01X0063949Y-048678D01*
G01X0063949Y-048678D02*
G01X0063949Y-048340D01*
G01X0063949Y-048340D02*
G01X0064005Y-048228D01*
G01X0064005Y-048228D02*
G01X0064061Y-048172D01*
G01X0064061Y-048172D02*
G01X0064173Y-048115D01*
G01X0064173Y-048115D02*
G01X0064342Y-048115D01*
G01X0064342Y-048115D02*
G01X0064455Y-048172D01*
G01X0064455Y-048172D02*
G01X0064511Y-048228D01*
G01X0064511Y-048228D02*
G01X0064567Y-048340D01*
G01X0064567Y-048340D02*
G01X0064567Y-048678D01*
G01X0064567Y-048678D02*
G01X0064511Y-048790D01*
G01X0064511Y-048790D02*
G01X0064455Y-048847D01*
G01X0064455Y-048847D02*
G01X0064342Y-048903D01*
G01X0064342Y-048903D02*
G01X0064173Y-048903D01*
G01X0065242Y-048903D02*
G01X0065130Y-048847D01*
G01X0065130Y-048847D02*
G01X0065073Y-048734D01*
G01X0065073Y-048734D02*
G01X0065073Y-047722D01*
G01X0066142Y-048847D02*
G01X0066030Y-048903D01*
G01X0066030Y-048903D02*
G01X0065805Y-048903D01*
G01X0065805Y-048903D02*
G01X0065692Y-048847D01*
G01X0065692Y-048847D02*
G01X0065636Y-048734D01*
G01X0065636Y-048734D02*
G01X0065636Y-048284D01*
G01X0065636Y-048284D02*
G01X0065692Y-048172D01*
G01X0065692Y-048172D02*
G01X0065805Y-048115D01*
G01X0065805Y-048115D02*
G01X0066030Y-048115D01*
G01X0066030Y-048115D02*
G01X0066142Y-048172D01*
G01X0066142Y-048172D02*
G01X0066198Y-048284D01*
G01X0066198Y-048284D02*
G01X0066198Y-048397D01*
G01X0066198Y-048397D02*
G01X0065636Y-048509D01*
G01X0066648Y-048847D02*
G01X0066761Y-048903D01*
G01X0066761Y-048903D02*
G01X0066986Y-048903D01*
G01X0066986Y-048903D02*
G01X0067098Y-048847D01*
G01X0067098Y-048847D02*
G01X0067154Y-048734D01*
G01X0067154Y-048734D02*
G01X0067154Y-048678D01*
G01X0067154Y-048678D02*
G01X0067098Y-048565D01*
G01X0067098Y-048565D02*
G01X0066986Y-048509D01*
G01X0066986Y-048509D02*
G01X0066817Y-048509D01*
G01X0066817Y-048509D02*
G01X0066704Y-048453D01*
G01X0066704Y-048453D02*
G01X0066648Y-048340D01*
G01X0066648Y-048340D02*
G01X0066648Y-048284D01*
G01X0066648Y-048284D02*
G01X0066704Y-048172D01*
G01X0066704Y-048172D02*
G01X0066817Y-048115D01*
G01X0066817Y-048115D02*
G01X0066986Y-048115D01*
G01X0066986Y-048115D02*
G01X0067098Y-048172D01*
G01X0067548Y-049353D02*
G01X0067604Y-049297D01*
G01X0067604Y-049297D02*
G01X0067717Y-049128D01*
G01X0067717Y-049128D02*
G01X0067773Y-049015D01*
G01X0067773Y-049015D02*
G01X0067829Y-048847D01*
G01X0067829Y-048847D02*
G01X0067886Y-048565D01*
G01X0067886Y-048565D02*
G01X0067886Y-048340D01*
G01X0067886Y-048340D02*
G01X0067829Y-048059D01*
G01X0067829Y-048059D02*
G01X0067773Y-047891D01*
G01X0067773Y-047891D02*
G01X0067717Y-047778D01*
G01X0067717Y-047778D02*
G01X0067604Y-047609D01*
G01X0067604Y-047609D02*
G01X0067548Y-047553D01*
G01X0000000Y0000000D02*
G54D11*
G01X0043100Y-036000D02*
G75*
G03X0042100Y-037000I0000000J-001000D01*
G01X0043100Y-043000D02*
G01X0053600Y-043000D01*
G01X0042100Y-037000D02*
G01X0042100Y-042000D01*
G01X0053600Y-036000D02*
G01X0043100Y-036000D01*
G01X0054600Y-037000D02*
G01X0054600Y-042000D01*
G01X0053600Y-043000D02*
G75*
G03X0054600Y-042000I0000000J0001000D01*
G01X0054600Y-037000D02*
G75*
G03X0053600Y-036000I-001000J0000000D01*
G01X0042100Y-042000D02*
G75*
G03X0043100Y-043000I0001000J0000000D01*
G01X0000000Y0000000D02*
G54D15*
G01X0046700Y-030300D02*
G75*
G03X0046700Y-030300I-000500J0000000D01*
G01X0045050Y-031100D02*
G01X0045050Y-029500D01*
G01X0047350Y-031100D02*
G01X0045050Y-031100D01*
G01X0047350Y-029500D02*
G01X0047350Y-031100D01*
G01X0045050Y-029500D02*
G01X0047350Y-029500D01*
G01X0047450Y-037000D02*
G01X0041200Y-037000D01*
G01X0068250Y-040250D02*
G01X0068250Y-037250D01*
G01X0070250Y-040250D02*
G01X0068250Y-040250D01*
G01X0070250Y-037250D02*
G01X0070250Y-040250D01*
G01X0068250Y-037250D02*
G01X0070250Y-037250D01*
G01X0042950Y-048500D02*
G01X0042950Y-045000D01*
G01X0048200Y-048500D02*
G01X0042950Y-048500D01*
G01X0048200Y-045000D02*
G01X0048200Y-048500D01*
G01X0042950Y-045000D02*
G01X0048200Y-045000D01*
G01X0041200Y-037000D02*
G01X0041200Y-032500D01*
G01X0047450Y-032500D02*
G01X0047450Y-037000D01*
G01X0041200Y-032500D02*
G01X0047450Y-032500D01*
M02*
