%TF.GenerationSoftware,KiCad,Pcbnew,4.0.4+e1-6308~48~ubuntu16.04.1-stable*%
%TF.CreationDate,2017-01-04T16:11:55-08:00*%
%TF.ProjectId,sd-micro-hinged-5009010801-breakout,73642D6D6963726F2D68696E6765642D,v1.0*%
%TF.FileFunction,Soldermask,Bot*%
%FSLAX46Y46*%
G04 Gerber Fmt 4.6, Leading zero omitted, Abs format (unit mm)*
G04 Created by KiCad (PCBNEW 4.0.4+e1-6308~48~ubuntu16.04.1-stable) date Wed Jan  4 16:11:55 2017*
%MOMM*%
%LPD*%
G01*
G04 APERTURE LIST*
%ADD10C,0.350000*%
G04 APERTURE END LIST*
D10*
G36*
X110540800Y-107594400D02*
X108407200Y-107594400D01*
X108407200Y-105765600D01*
X110540800Y-105765600D01*
X110540800Y-107594400D01*
X110540800Y-107594400D01*
G37*
G36*
X109642273Y-103225674D02*
X109642279Y-103225675D01*
X109644329Y-103225689D01*
X109821676Y-103245582D01*
X109991782Y-103299543D01*
X110148168Y-103385516D01*
X110284876Y-103500228D01*
X110396699Y-103639308D01*
X110479379Y-103797460D01*
X110529765Y-103968659D01*
X110529768Y-103968690D01*
X110529772Y-103968704D01*
X110545941Y-104146380D01*
X110527292Y-104323818D01*
X110527291Y-104323823D01*
X110527286Y-104323866D01*
X110474514Y-104494344D01*
X110389634Y-104651326D01*
X110275880Y-104788831D01*
X110137583Y-104901623D01*
X109980013Y-104985405D01*
X109809170Y-105036985D01*
X109631562Y-105054400D01*
X109316403Y-105054400D01*
X109305727Y-105054326D01*
X109305721Y-105054325D01*
X109303671Y-105054311D01*
X109126324Y-105034418D01*
X108956218Y-104980457D01*
X108799832Y-104894484D01*
X108663124Y-104779772D01*
X108551301Y-104640692D01*
X108468621Y-104482540D01*
X108418235Y-104311341D01*
X108418232Y-104311310D01*
X108418228Y-104311296D01*
X108402059Y-104133620D01*
X108420708Y-103956182D01*
X108420709Y-103956177D01*
X108420714Y-103956134D01*
X108473486Y-103785656D01*
X108558366Y-103628674D01*
X108672120Y-103491169D01*
X108810417Y-103378377D01*
X108967987Y-103294595D01*
X109138830Y-103243015D01*
X109316438Y-103225600D01*
X109631597Y-103225600D01*
X109642273Y-103225674D01*
X109642273Y-103225674D01*
G37*
G36*
X109642273Y-100685674D02*
X109642279Y-100685675D01*
X109644329Y-100685689D01*
X109821676Y-100705582D01*
X109991782Y-100759543D01*
X110148168Y-100845516D01*
X110284876Y-100960228D01*
X110396699Y-101099308D01*
X110479379Y-101257460D01*
X110529765Y-101428659D01*
X110529768Y-101428690D01*
X110529772Y-101428704D01*
X110545941Y-101606380D01*
X110527292Y-101783818D01*
X110527291Y-101783823D01*
X110527286Y-101783866D01*
X110474514Y-101954344D01*
X110389634Y-102111326D01*
X110275880Y-102248831D01*
X110137583Y-102361623D01*
X109980013Y-102445405D01*
X109809170Y-102496985D01*
X109631562Y-102514400D01*
X109316403Y-102514400D01*
X109305727Y-102514326D01*
X109305721Y-102514325D01*
X109303671Y-102514311D01*
X109126324Y-102494418D01*
X108956218Y-102440457D01*
X108799832Y-102354484D01*
X108663124Y-102239772D01*
X108551301Y-102100692D01*
X108468621Y-101942540D01*
X108418235Y-101771341D01*
X108418232Y-101771310D01*
X108418228Y-101771296D01*
X108402059Y-101593620D01*
X108420708Y-101416182D01*
X108420709Y-101416177D01*
X108420714Y-101416134D01*
X108473486Y-101245656D01*
X108558366Y-101088674D01*
X108672120Y-100951169D01*
X108810417Y-100838377D01*
X108967987Y-100754595D01*
X109138830Y-100703015D01*
X109316438Y-100685600D01*
X109631597Y-100685600D01*
X109642273Y-100685674D01*
X109642273Y-100685674D01*
G37*
G36*
X109642273Y-98145674D02*
X109642279Y-98145675D01*
X109644329Y-98145689D01*
X109821676Y-98165582D01*
X109991782Y-98219543D01*
X110148168Y-98305516D01*
X110284876Y-98420228D01*
X110396699Y-98559308D01*
X110479379Y-98717460D01*
X110529765Y-98888659D01*
X110529768Y-98888690D01*
X110529772Y-98888704D01*
X110545941Y-99066380D01*
X110527292Y-99243818D01*
X110527291Y-99243823D01*
X110527286Y-99243866D01*
X110474514Y-99414344D01*
X110389634Y-99571326D01*
X110275880Y-99708831D01*
X110137583Y-99821623D01*
X109980013Y-99905405D01*
X109809170Y-99956985D01*
X109631562Y-99974400D01*
X109316403Y-99974400D01*
X109305727Y-99974326D01*
X109305721Y-99974325D01*
X109303671Y-99974311D01*
X109126324Y-99954418D01*
X108956218Y-99900457D01*
X108799832Y-99814484D01*
X108663124Y-99699772D01*
X108551301Y-99560692D01*
X108468621Y-99402540D01*
X108418235Y-99231341D01*
X108418232Y-99231310D01*
X108418228Y-99231296D01*
X108402059Y-99053620D01*
X108420708Y-98876182D01*
X108420709Y-98876177D01*
X108420714Y-98876134D01*
X108473486Y-98705656D01*
X108558366Y-98548674D01*
X108672120Y-98411169D01*
X108810417Y-98298377D01*
X108967987Y-98214595D01*
X109138830Y-98163015D01*
X109316438Y-98145600D01*
X109631597Y-98145600D01*
X109642273Y-98145674D01*
X109642273Y-98145674D01*
G37*
G36*
X109642273Y-95605674D02*
X109642279Y-95605675D01*
X109644329Y-95605689D01*
X109821676Y-95625582D01*
X109991782Y-95679543D01*
X110148168Y-95765516D01*
X110284876Y-95880228D01*
X110396699Y-96019308D01*
X110479379Y-96177460D01*
X110529765Y-96348659D01*
X110529768Y-96348690D01*
X110529772Y-96348704D01*
X110545941Y-96526380D01*
X110527292Y-96703818D01*
X110527291Y-96703823D01*
X110527286Y-96703866D01*
X110474514Y-96874344D01*
X110389634Y-97031326D01*
X110275880Y-97168831D01*
X110137583Y-97281623D01*
X109980013Y-97365405D01*
X109809170Y-97416985D01*
X109631562Y-97434400D01*
X109316403Y-97434400D01*
X109305727Y-97434326D01*
X109305721Y-97434325D01*
X109303671Y-97434311D01*
X109126324Y-97414418D01*
X108956218Y-97360457D01*
X108799832Y-97274484D01*
X108663124Y-97159772D01*
X108551301Y-97020692D01*
X108468621Y-96862540D01*
X108418235Y-96691341D01*
X108418232Y-96691310D01*
X108418228Y-96691296D01*
X108402059Y-96513620D01*
X108420708Y-96336182D01*
X108420709Y-96336177D01*
X108420714Y-96336134D01*
X108473486Y-96165656D01*
X108558366Y-96008674D01*
X108672120Y-95871169D01*
X108810417Y-95758377D01*
X108967987Y-95674595D01*
X109138830Y-95623015D01*
X109316438Y-95605600D01*
X109631597Y-95605600D01*
X109642273Y-95605674D01*
X109642273Y-95605674D01*
G37*
G36*
X109642273Y-93065674D02*
X109642279Y-93065675D01*
X109644329Y-93065689D01*
X109821676Y-93085582D01*
X109991782Y-93139543D01*
X110148168Y-93225516D01*
X110284876Y-93340228D01*
X110396699Y-93479308D01*
X110479379Y-93637460D01*
X110529765Y-93808659D01*
X110529768Y-93808690D01*
X110529772Y-93808704D01*
X110545941Y-93986380D01*
X110527292Y-94163818D01*
X110527291Y-94163823D01*
X110527286Y-94163866D01*
X110474514Y-94334344D01*
X110389634Y-94491326D01*
X110275880Y-94628831D01*
X110137583Y-94741623D01*
X109980013Y-94825405D01*
X109809170Y-94876985D01*
X109631562Y-94894400D01*
X109316403Y-94894400D01*
X109305727Y-94894326D01*
X109305721Y-94894325D01*
X109303671Y-94894311D01*
X109126324Y-94874418D01*
X108956218Y-94820457D01*
X108799832Y-94734484D01*
X108663124Y-94619772D01*
X108551301Y-94480692D01*
X108468621Y-94322540D01*
X108418235Y-94151341D01*
X108418232Y-94151310D01*
X108418228Y-94151296D01*
X108402059Y-93973620D01*
X108420708Y-93796182D01*
X108420709Y-93796177D01*
X108420714Y-93796134D01*
X108473486Y-93625656D01*
X108558366Y-93468674D01*
X108672120Y-93331169D01*
X108810417Y-93218377D01*
X108967987Y-93134595D01*
X109138830Y-93083015D01*
X109316438Y-93065600D01*
X109631597Y-93065600D01*
X109642273Y-93065674D01*
X109642273Y-93065674D01*
G37*
M02*
