%TF.GenerationSoftware,KiCad,Pcbnew,4.0.4+e1-6308~48~ubuntu16.04.1-stable*%
%TF.CreationDate,2017-01-04T16:11:55-08:00*%
%TF.ProjectId,sd-micro-hinged-5009010801-breakout,73642D6D6963726F2D68696E6765642D,v1.0*%
%TF.FileFunction,Copper,L1,Top,Signal*%
%FSLAX46Y46*%
G04 Gerber Fmt 4.6, Leading zero omitted, Abs format (unit mm)*
G04 Created by KiCad (PCBNEW 4.0.4+e1-6308~48~ubuntu16.04.1-stable) date Wed Jan  4 16:11:55 2017*
%MOMM*%
%LPD*%
G01*
G04 APERTURE LIST*
%ADD10C,0.350000*%
%ADD11R,2.000000X1.450000*%
%ADD12R,1.600000X0.700000*%
%ADD13R,0.750000X0.800000*%
%ADD14R,0.800000X0.750000*%
%ADD15R,2.032000X1.727200*%
%ADD16O,2.032000X1.727200*%
%ADD17R,1.500000X0.600000*%
%ADD18R,0.600000X0.420000*%
%ADD19C,0.685800*%
%ADD20C,0.254000*%
%ADD21C,0.508000*%
%ADD22C,0.330200*%
%ADD23C,0.330200*%
%ADD24C,0.350000*%
G04 APERTURE END LIST*
D10*
D11*
X134567000Y-93240500D03*
X134567000Y-106840500D03*
X126267000Y-93240500D03*
X126267000Y-106840500D03*
D12*
X129667000Y-102040500D03*
X129667000Y-103140500D03*
X129667000Y-100940500D03*
X129667000Y-99840500D03*
X129667000Y-98740500D03*
X129667000Y-95440500D03*
X129667000Y-96540500D03*
X129667000Y-97640500D03*
D13*
X117094000Y-105295000D03*
X117094000Y-106795000D03*
D14*
X117094000Y-103314500D03*
X118594000Y-103314500D03*
X123114500Y-103314500D03*
X121614500Y-103314500D03*
D13*
X122110500Y-105307000D03*
X122110500Y-106807000D03*
D15*
X109474000Y-106680000D03*
D16*
X109474000Y-104140000D03*
X109474000Y-101600000D03*
X109474000Y-99060000D03*
X109474000Y-96520000D03*
X109474000Y-93980000D03*
D17*
X122176500Y-100711000D03*
X122176500Y-99441000D03*
X122176500Y-98171000D03*
X122176500Y-96901000D03*
X122176500Y-95631000D03*
X122176500Y-94361000D03*
X122176500Y-93091000D03*
X116776500Y-93091000D03*
X116776500Y-94361000D03*
X116776500Y-95631000D03*
X116776500Y-96901000D03*
X116776500Y-98171000D03*
X116776500Y-99441000D03*
X116776500Y-100711000D03*
D18*
X118623000Y-105410000D03*
X118623000Y-106710000D03*
X120523000Y-105410000D03*
X118623000Y-106060000D03*
X120523000Y-106710000D03*
D19*
X127762000Y-100838000D03*
X120142000Y-101854000D03*
X122936000Y-104481500D03*
X130975000Y-98740500D03*
D20*
X119168802Y-105410000D02*
X118623000Y-105410000D01*
X119634000Y-106253000D02*
X119634000Y-105875198D01*
X119634000Y-105875198D02*
X119168802Y-105410000D01*
X118623000Y-106710000D02*
X119177000Y-106710000D01*
X119177000Y-106710000D02*
X119634000Y-106253000D01*
X118623000Y-105410000D02*
X117209000Y-105410000D01*
X117209000Y-105410000D02*
X117094000Y-105295000D01*
D21*
X117094000Y-102971600D02*
X116776500Y-102654100D01*
X116776500Y-102654100D02*
X116776500Y-100711000D01*
X117094000Y-105295000D02*
X117094000Y-102971600D01*
X113995200Y-106680000D02*
X115380200Y-105295000D01*
X115380200Y-105295000D02*
X117094000Y-105295000D01*
X109474000Y-106680000D02*
X113995200Y-106680000D01*
D20*
X129667000Y-100940500D02*
X127864500Y-100940500D01*
X127864500Y-100940500D02*
X127762000Y-100838000D01*
D21*
X120142000Y-103314500D02*
X118594000Y-103314500D01*
X121614500Y-103314500D02*
X120142000Y-103314500D01*
X120142000Y-103314500D02*
X120142000Y-101854000D01*
X117094000Y-106795000D02*
X117094000Y-107703000D01*
X122174000Y-107950000D02*
X122174000Y-106870500D01*
X117094000Y-107703000D02*
X117595000Y-108204000D01*
X117595000Y-108204000D02*
X121920000Y-108204000D01*
X121920000Y-108204000D02*
X122174000Y-107950000D01*
X122174000Y-106870500D02*
X122110500Y-106807000D01*
D20*
X118623000Y-106060000D02*
X117829000Y-106060000D01*
X117829000Y-106060000D02*
X117094000Y-106795000D01*
D21*
X134567000Y-106840500D02*
X131419600Y-106840500D01*
X131419600Y-106840500D02*
X130903500Y-106840500D01*
X131470400Y-101435900D02*
X131470400Y-106789700D01*
X129667000Y-100940500D02*
X130975000Y-100940500D01*
X131470400Y-106789700D02*
X131419600Y-106840500D01*
X130975000Y-100940500D02*
X131470400Y-101435900D01*
X134567000Y-93240500D02*
X134567000Y-106840500D01*
X126267000Y-93240500D02*
X134567000Y-93240500D01*
X130903500Y-106840500D02*
X126267000Y-106840500D01*
X122110500Y-106807000D02*
X126233500Y-106807000D01*
X126233500Y-106807000D02*
X126267000Y-106840500D01*
X115214400Y-92151200D02*
X119978700Y-92151200D01*
X120918500Y-93091000D02*
X122176500Y-93091000D01*
X119978700Y-92151200D02*
X120918500Y-93091000D01*
X113385600Y-93980000D02*
X115214400Y-92151200D01*
X109474000Y-93980000D02*
X113385600Y-93980000D01*
X122176500Y-93091000D02*
X126117500Y-93091000D01*
X126117500Y-93091000D02*
X126267000Y-93240500D01*
X122936000Y-104481500D02*
X122110500Y-105307000D01*
X123114500Y-104303000D02*
X122936000Y-104481500D01*
X130989700Y-98755200D02*
X130975000Y-98740500D01*
X129667000Y-98740500D02*
X130975000Y-98740500D01*
X123114500Y-103314500D02*
X123114500Y-101649000D01*
X123114500Y-101649000D02*
X122176500Y-100711000D01*
X123114500Y-103314500D02*
X123114500Y-104303000D01*
X120523000Y-105410000D02*
X122007500Y-105410000D01*
X122007500Y-105410000D02*
X122110500Y-105307000D01*
X119329200Y-94284800D02*
X118135400Y-93091000D01*
X118135400Y-93091000D02*
X116776500Y-93091000D01*
X119329200Y-99121700D02*
X119329200Y-94284800D01*
X122176500Y-100711000D02*
X120918500Y-100711000D01*
X120918500Y-100711000D02*
X119329200Y-99121700D01*
D22*
X116776500Y-99441000D02*
X114173000Y-99441000D01*
X110820200Y-102946200D02*
X109626400Y-104140000D01*
X114173000Y-99441000D02*
X110820200Y-102793800D01*
X109626400Y-104140000D02*
X109474000Y-104140000D01*
X110820200Y-102793800D02*
X110820200Y-102946200D01*
X116776500Y-96901000D02*
X111785400Y-96901000D01*
X111785400Y-96901000D02*
X109626400Y-99060000D01*
X109626400Y-99060000D02*
X109474000Y-99060000D01*
X116776500Y-95631000D02*
X110363000Y-95631000D01*
X110363000Y-95631000D02*
X109474000Y-96520000D01*
X116776500Y-98171000D02*
X112903000Y-98171000D01*
X112903000Y-98171000D02*
X110820200Y-100253800D01*
X110820200Y-100253800D02*
X110820200Y-100406200D01*
X110820200Y-100406200D02*
X109626400Y-101600000D01*
X109626400Y-101600000D02*
X109474000Y-101600000D01*
X126373700Y-102040500D02*
X123774200Y-99441000D01*
X123774200Y-99441000D02*
X122176500Y-99441000D01*
X129667000Y-102040500D02*
X126373700Y-102040500D01*
X124587000Y-98171000D02*
X126256500Y-99840500D01*
X126256500Y-99840500D02*
X129667000Y-99840500D01*
X122176500Y-98171000D02*
X124587000Y-98171000D01*
X125349000Y-95631000D02*
X126258500Y-96540500D01*
X126258500Y-96540500D02*
X129667000Y-96540500D01*
X122176500Y-95631000D02*
X125349000Y-95631000D01*
X125145800Y-96901000D02*
X125885300Y-97640500D01*
X125885300Y-97640500D02*
X129667000Y-97640500D01*
X122176500Y-96901000D02*
X125145800Y-96901000D01*
D20*
G36*
X124728673Y-92155802D02*
X124632000Y-92389191D01*
X124632000Y-92954750D01*
X124790750Y-93113500D01*
X126140000Y-93113500D01*
X126140000Y-93093500D01*
X126394000Y-93093500D01*
X126394000Y-93113500D01*
X127743250Y-93113500D01*
X127902000Y-92954750D01*
X127902000Y-92389191D01*
X127805327Y-92155802D01*
X127800725Y-92151200D01*
X133033275Y-92151200D01*
X133028673Y-92155802D01*
X132932000Y-92389191D01*
X132932000Y-92954750D01*
X133090750Y-93113500D01*
X134440000Y-93113500D01*
X134440000Y-93093500D01*
X134694000Y-93093500D01*
X134694000Y-93113500D01*
X136043250Y-93113500D01*
X136202000Y-92954750D01*
X136202000Y-92389191D01*
X136106067Y-92157587D01*
X136838520Y-92303282D01*
X137427304Y-92696696D01*
X137820719Y-93285482D01*
X137972800Y-94050044D01*
X137972800Y-106609956D01*
X137820719Y-107374518D01*
X137427304Y-107963304D01*
X136838520Y-108356718D01*
X136073955Y-108508800D01*
X109544044Y-108508800D01*
X108779482Y-108356719D01*
X108531526Y-108191040D01*
X110490000Y-108191040D01*
X110725317Y-108146762D01*
X110941441Y-108007690D01*
X111086431Y-107795490D01*
X111132296Y-107569000D01*
X113995200Y-107569000D01*
X114335406Y-107501329D01*
X114623818Y-107308618D01*
X114851686Y-107080750D01*
X116084000Y-107080750D01*
X116084000Y-107321309D01*
X116180673Y-107554698D01*
X116359301Y-107733327D01*
X116592690Y-107830000D01*
X116808250Y-107830000D01*
X116967000Y-107671250D01*
X116967000Y-106922000D01*
X116242750Y-106922000D01*
X116084000Y-107080750D01*
X114851686Y-107080750D01*
X115748436Y-106184000D01*
X116119080Y-106184000D01*
X116084000Y-106268691D01*
X116084000Y-106509250D01*
X116242750Y-106668000D01*
X116967000Y-106668000D01*
X116967000Y-106648000D01*
X117221000Y-106648000D01*
X117221000Y-106668000D01*
X117241000Y-106668000D01*
X117241000Y-106922000D01*
X117221000Y-106922000D01*
X117221000Y-107671250D01*
X117379750Y-107830000D01*
X117595310Y-107830000D01*
X117828699Y-107733327D01*
X118007327Y-107554698D01*
X118033751Y-107490905D01*
X118071110Y-107516431D01*
X118323000Y-107567440D01*
X118923000Y-107567440D01*
X119158317Y-107523162D01*
X119265040Y-107454488D01*
X119468605Y-107413996D01*
X119690771Y-107265549D01*
X119758910Y-107371441D01*
X119971110Y-107516431D01*
X120223000Y-107567440D01*
X120823000Y-107567440D01*
X121058317Y-107523162D01*
X121153713Y-107461776D01*
X121197173Y-107566698D01*
X121375801Y-107745327D01*
X121609190Y-107842000D01*
X121824750Y-107842000D01*
X121983500Y-107683250D01*
X121983500Y-106934000D01*
X122237500Y-106934000D01*
X122237500Y-107683250D01*
X122396250Y-107842000D01*
X122611810Y-107842000D01*
X122845199Y-107745327D01*
X123023827Y-107566698D01*
X123120500Y-107333309D01*
X123120500Y-107126250D01*
X124632000Y-107126250D01*
X124632000Y-107691809D01*
X124728673Y-107925198D01*
X124907301Y-108103827D01*
X125140690Y-108200500D01*
X125981250Y-108200500D01*
X126140000Y-108041750D01*
X126140000Y-106967500D01*
X126394000Y-106967500D01*
X126394000Y-108041750D01*
X126552750Y-108200500D01*
X127393310Y-108200500D01*
X127626699Y-108103827D01*
X127805327Y-107925198D01*
X127902000Y-107691809D01*
X127902000Y-107126250D01*
X132932000Y-107126250D01*
X132932000Y-107691809D01*
X133028673Y-107925198D01*
X133207301Y-108103827D01*
X133440690Y-108200500D01*
X134281250Y-108200500D01*
X134440000Y-108041750D01*
X134440000Y-106967500D01*
X134694000Y-106967500D01*
X134694000Y-108041750D01*
X134852750Y-108200500D01*
X135693310Y-108200500D01*
X135926699Y-108103827D01*
X136105327Y-107925198D01*
X136202000Y-107691809D01*
X136202000Y-107126250D01*
X136043250Y-106967500D01*
X134694000Y-106967500D01*
X134440000Y-106967500D01*
X133090750Y-106967500D01*
X132932000Y-107126250D01*
X127902000Y-107126250D01*
X127743250Y-106967500D01*
X126394000Y-106967500D01*
X126140000Y-106967500D01*
X124790750Y-106967500D01*
X124632000Y-107126250D01*
X123120500Y-107126250D01*
X123120500Y-107092750D01*
X122961750Y-106934000D01*
X122237500Y-106934000D01*
X121983500Y-106934000D01*
X121963500Y-106934000D01*
X121963500Y-106680000D01*
X121983500Y-106680000D01*
X121983500Y-106660000D01*
X122237500Y-106660000D01*
X122237500Y-106680000D01*
X122961750Y-106680000D01*
X123120500Y-106521250D01*
X123120500Y-106280691D01*
X123023827Y-106047302D01*
X123022457Y-106045932D01*
X123061226Y-105989191D01*
X124632000Y-105989191D01*
X124632000Y-106554750D01*
X124790750Y-106713500D01*
X126140000Y-106713500D01*
X126140000Y-105639250D01*
X126394000Y-105639250D01*
X126394000Y-106713500D01*
X127743250Y-106713500D01*
X127902000Y-106554750D01*
X127902000Y-105989191D01*
X132932000Y-105989191D01*
X132932000Y-106554750D01*
X133090750Y-106713500D01*
X134440000Y-106713500D01*
X134440000Y-105639250D01*
X134694000Y-105639250D01*
X134694000Y-106713500D01*
X136043250Y-106713500D01*
X136202000Y-106554750D01*
X136202000Y-105989191D01*
X136105327Y-105755802D01*
X135926699Y-105577173D01*
X135693310Y-105480500D01*
X134852750Y-105480500D01*
X134694000Y-105639250D01*
X134440000Y-105639250D01*
X134281250Y-105480500D01*
X133440690Y-105480500D01*
X133207301Y-105577173D01*
X133028673Y-105755802D01*
X132932000Y-105989191D01*
X127902000Y-105989191D01*
X127805327Y-105755802D01*
X127626699Y-105577173D01*
X127393310Y-105480500D01*
X126552750Y-105480500D01*
X126394000Y-105639250D01*
X126140000Y-105639250D01*
X125981250Y-105480500D01*
X125140690Y-105480500D01*
X124907301Y-105577173D01*
X124728673Y-105755802D01*
X124632000Y-105989191D01*
X123061226Y-105989191D01*
X123081931Y-105958890D01*
X123132940Y-105707000D01*
X123132940Y-105541796D01*
X123275373Y-105399363D01*
X123489212Y-105311007D01*
X123764540Y-105036159D01*
X123913730Y-104676870D01*
X123913731Y-104676279D01*
X123935829Y-104643206D01*
X124003500Y-104303000D01*
X124003500Y-104098621D01*
X124110931Y-103941390D01*
X124161940Y-103689500D01*
X124161940Y-102939500D01*
X124117662Y-102704183D01*
X124003500Y-102526770D01*
X124003500Y-101649000D01*
X123935829Y-101308794D01*
X123743118Y-101020382D01*
X123573940Y-100851204D01*
X123573940Y-100411000D01*
X123564959Y-100363271D01*
X125807944Y-102606256D01*
X126067515Y-102779696D01*
X126373700Y-102840600D01*
X128219560Y-102840600D01*
X128219560Y-103490500D01*
X128263838Y-103725817D01*
X128402910Y-103941941D01*
X128615110Y-104086931D01*
X128867000Y-104137940D01*
X130467000Y-104137940D01*
X130702317Y-104093662D01*
X130918441Y-103954590D01*
X131063431Y-103742390D01*
X131114440Y-103490500D01*
X131114440Y-102790500D01*
X131075426Y-102583158D01*
X131114440Y-102390500D01*
X131114440Y-101690500D01*
X131075142Y-101481650D01*
X131102000Y-101416809D01*
X131102000Y-101226250D01*
X130943250Y-101067500D01*
X130587688Y-101067500D01*
X130467000Y-101043060D01*
X128867000Y-101043060D01*
X128737113Y-101067500D01*
X128390750Y-101067500D01*
X128232000Y-101226250D01*
X128232000Y-101240400D01*
X126705112Y-101240400D01*
X126067772Y-100603060D01*
X126256500Y-100640600D01*
X128232000Y-100640600D01*
X128232000Y-100654750D01*
X128390750Y-100813500D01*
X128746312Y-100813500D01*
X128867000Y-100837940D01*
X130467000Y-100837940D01*
X130596887Y-100813500D01*
X130943250Y-100813500D01*
X131102000Y-100654750D01*
X131102000Y-100464191D01*
X131073130Y-100394493D01*
X131114440Y-100190500D01*
X131114440Y-99718522D01*
X131168663Y-99718569D01*
X131528212Y-99570007D01*
X131803540Y-99295159D01*
X131952730Y-98935870D01*
X131953069Y-98546837D01*
X131804507Y-98187288D01*
X131529659Y-97911960D01*
X131170370Y-97762770D01*
X131114440Y-97762721D01*
X131114440Y-97290500D01*
X131075426Y-97083158D01*
X131114440Y-96890500D01*
X131114440Y-96190500D01*
X131075426Y-95983158D01*
X131114440Y-95790500D01*
X131114440Y-95090500D01*
X131070162Y-94855183D01*
X130931090Y-94639059D01*
X130718890Y-94494069D01*
X130467000Y-94443060D01*
X128867000Y-94443060D01*
X128631683Y-94487338D01*
X128415559Y-94626410D01*
X128270569Y-94838610D01*
X128219560Y-95090500D01*
X128219560Y-95740400D01*
X126589912Y-95740400D01*
X125914756Y-95065244D01*
X125655185Y-94891804D01*
X125349000Y-94830900D01*
X123539534Y-94830900D01*
X123573940Y-94661000D01*
X123573940Y-94061000D01*
X123529662Y-93825683D01*
X123471322Y-93735020D01*
X123557796Y-93526250D01*
X124632000Y-93526250D01*
X124632000Y-94091809D01*
X124728673Y-94325198D01*
X124907301Y-94503827D01*
X125140690Y-94600500D01*
X125981250Y-94600500D01*
X126140000Y-94441750D01*
X126140000Y-93367500D01*
X126394000Y-93367500D01*
X126394000Y-94441750D01*
X126552750Y-94600500D01*
X127393310Y-94600500D01*
X127626699Y-94503827D01*
X127805327Y-94325198D01*
X127902000Y-94091809D01*
X127902000Y-93526250D01*
X132932000Y-93526250D01*
X132932000Y-94091809D01*
X133028673Y-94325198D01*
X133207301Y-94503827D01*
X133440690Y-94600500D01*
X134281250Y-94600500D01*
X134440000Y-94441750D01*
X134440000Y-93367500D01*
X134694000Y-93367500D01*
X134694000Y-94441750D01*
X134852750Y-94600500D01*
X135693310Y-94600500D01*
X135926699Y-94503827D01*
X136105327Y-94325198D01*
X136202000Y-94091809D01*
X136202000Y-93526250D01*
X136043250Y-93367500D01*
X134694000Y-93367500D01*
X134440000Y-93367500D01*
X133090750Y-93367500D01*
X132932000Y-93526250D01*
X127902000Y-93526250D01*
X127743250Y-93367500D01*
X126394000Y-93367500D01*
X126140000Y-93367500D01*
X124790750Y-93367500D01*
X124632000Y-93526250D01*
X123557796Y-93526250D01*
X123561500Y-93517310D01*
X123561500Y-93376750D01*
X123402750Y-93218000D01*
X122303500Y-93218000D01*
X122303500Y-93238000D01*
X122049500Y-93238000D01*
X122049500Y-93218000D01*
X120950250Y-93218000D01*
X120791500Y-93376750D01*
X120791500Y-93517310D01*
X120881306Y-93734122D01*
X120830069Y-93809110D01*
X120779060Y-94061000D01*
X120779060Y-94661000D01*
X120823338Y-94896317D01*
X120887178Y-94995528D01*
X120830069Y-95079110D01*
X120779060Y-95331000D01*
X120779060Y-95931000D01*
X120823338Y-96166317D01*
X120887178Y-96265528D01*
X120830069Y-96349110D01*
X120779060Y-96601000D01*
X120779060Y-97201000D01*
X120823338Y-97436317D01*
X120887178Y-97535528D01*
X120830069Y-97619110D01*
X120779060Y-97871000D01*
X120779060Y-98471000D01*
X120823338Y-98706317D01*
X120887178Y-98805528D01*
X120830069Y-98889110D01*
X120779060Y-99141000D01*
X120779060Y-99314324D01*
X120218200Y-98753464D01*
X120218200Y-94284800D01*
X120150529Y-93944594D01*
X119957818Y-93656182D01*
X118966326Y-92664690D01*
X120791500Y-92664690D01*
X120791500Y-92805250D01*
X120950250Y-92964000D01*
X122049500Y-92964000D01*
X122049500Y-92314750D01*
X122303500Y-92314750D01*
X122303500Y-92964000D01*
X123402750Y-92964000D01*
X123561500Y-92805250D01*
X123561500Y-92664690D01*
X123464827Y-92431301D01*
X123286198Y-92252673D01*
X123052809Y-92156000D01*
X122462250Y-92156000D01*
X122303500Y-92314750D01*
X122049500Y-92314750D01*
X121890750Y-92156000D01*
X121300191Y-92156000D01*
X121066802Y-92252673D01*
X120888173Y-92431301D01*
X120791500Y-92664690D01*
X118966326Y-92664690D01*
X118764018Y-92462382D01*
X118654480Y-92389191D01*
X118475606Y-92269671D01*
X118135400Y-92202000D01*
X117789266Y-92202000D01*
X117778390Y-92194569D01*
X117564227Y-92151200D01*
X124733275Y-92151200D01*
X124728673Y-92155802D01*
X124728673Y-92155802D01*
G37*
X124728673Y-92155802D02*
X124632000Y-92389191D01*
X124632000Y-92954750D01*
X124790750Y-93113500D01*
X126140000Y-93113500D01*
X126140000Y-93093500D01*
X126394000Y-93093500D01*
X126394000Y-93113500D01*
X127743250Y-93113500D01*
X127902000Y-92954750D01*
X127902000Y-92389191D01*
X127805327Y-92155802D01*
X127800725Y-92151200D01*
X133033275Y-92151200D01*
X133028673Y-92155802D01*
X132932000Y-92389191D01*
X132932000Y-92954750D01*
X133090750Y-93113500D01*
X134440000Y-93113500D01*
X134440000Y-93093500D01*
X134694000Y-93093500D01*
X134694000Y-93113500D01*
X136043250Y-93113500D01*
X136202000Y-92954750D01*
X136202000Y-92389191D01*
X136106067Y-92157587D01*
X136838520Y-92303282D01*
X137427304Y-92696696D01*
X137820719Y-93285482D01*
X137972800Y-94050044D01*
X137972800Y-106609956D01*
X137820719Y-107374518D01*
X137427304Y-107963304D01*
X136838520Y-108356718D01*
X136073955Y-108508800D01*
X109544044Y-108508800D01*
X108779482Y-108356719D01*
X108531526Y-108191040D01*
X110490000Y-108191040D01*
X110725317Y-108146762D01*
X110941441Y-108007690D01*
X111086431Y-107795490D01*
X111132296Y-107569000D01*
X113995200Y-107569000D01*
X114335406Y-107501329D01*
X114623818Y-107308618D01*
X114851686Y-107080750D01*
X116084000Y-107080750D01*
X116084000Y-107321309D01*
X116180673Y-107554698D01*
X116359301Y-107733327D01*
X116592690Y-107830000D01*
X116808250Y-107830000D01*
X116967000Y-107671250D01*
X116967000Y-106922000D01*
X116242750Y-106922000D01*
X116084000Y-107080750D01*
X114851686Y-107080750D01*
X115748436Y-106184000D01*
X116119080Y-106184000D01*
X116084000Y-106268691D01*
X116084000Y-106509250D01*
X116242750Y-106668000D01*
X116967000Y-106668000D01*
X116967000Y-106648000D01*
X117221000Y-106648000D01*
X117221000Y-106668000D01*
X117241000Y-106668000D01*
X117241000Y-106922000D01*
X117221000Y-106922000D01*
X117221000Y-107671250D01*
X117379750Y-107830000D01*
X117595310Y-107830000D01*
X117828699Y-107733327D01*
X118007327Y-107554698D01*
X118033751Y-107490905D01*
X118071110Y-107516431D01*
X118323000Y-107567440D01*
X118923000Y-107567440D01*
X119158317Y-107523162D01*
X119265040Y-107454488D01*
X119468605Y-107413996D01*
X119690771Y-107265549D01*
X119758910Y-107371441D01*
X119971110Y-107516431D01*
X120223000Y-107567440D01*
X120823000Y-107567440D01*
X121058317Y-107523162D01*
X121153713Y-107461776D01*
X121197173Y-107566698D01*
X121375801Y-107745327D01*
X121609190Y-107842000D01*
X121824750Y-107842000D01*
X121983500Y-107683250D01*
X121983500Y-106934000D01*
X122237500Y-106934000D01*
X122237500Y-107683250D01*
X122396250Y-107842000D01*
X122611810Y-107842000D01*
X122845199Y-107745327D01*
X123023827Y-107566698D01*
X123120500Y-107333309D01*
X123120500Y-107126250D01*
X124632000Y-107126250D01*
X124632000Y-107691809D01*
X124728673Y-107925198D01*
X124907301Y-108103827D01*
X125140690Y-108200500D01*
X125981250Y-108200500D01*
X126140000Y-108041750D01*
X126140000Y-106967500D01*
X126394000Y-106967500D01*
X126394000Y-108041750D01*
X126552750Y-108200500D01*
X127393310Y-108200500D01*
X127626699Y-108103827D01*
X127805327Y-107925198D01*
X127902000Y-107691809D01*
X127902000Y-107126250D01*
X132932000Y-107126250D01*
X132932000Y-107691809D01*
X133028673Y-107925198D01*
X133207301Y-108103827D01*
X133440690Y-108200500D01*
X134281250Y-108200500D01*
X134440000Y-108041750D01*
X134440000Y-106967500D01*
X134694000Y-106967500D01*
X134694000Y-108041750D01*
X134852750Y-108200500D01*
X135693310Y-108200500D01*
X135926699Y-108103827D01*
X136105327Y-107925198D01*
X136202000Y-107691809D01*
X136202000Y-107126250D01*
X136043250Y-106967500D01*
X134694000Y-106967500D01*
X134440000Y-106967500D01*
X133090750Y-106967500D01*
X132932000Y-107126250D01*
X127902000Y-107126250D01*
X127743250Y-106967500D01*
X126394000Y-106967500D01*
X126140000Y-106967500D01*
X124790750Y-106967500D01*
X124632000Y-107126250D01*
X123120500Y-107126250D01*
X123120500Y-107092750D01*
X122961750Y-106934000D01*
X122237500Y-106934000D01*
X121983500Y-106934000D01*
X121963500Y-106934000D01*
X121963500Y-106680000D01*
X121983500Y-106680000D01*
X121983500Y-106660000D01*
X122237500Y-106660000D01*
X122237500Y-106680000D01*
X122961750Y-106680000D01*
X123120500Y-106521250D01*
X123120500Y-106280691D01*
X123023827Y-106047302D01*
X123022457Y-106045932D01*
X123061226Y-105989191D01*
X124632000Y-105989191D01*
X124632000Y-106554750D01*
X124790750Y-106713500D01*
X126140000Y-106713500D01*
X126140000Y-105639250D01*
X126394000Y-105639250D01*
X126394000Y-106713500D01*
X127743250Y-106713500D01*
X127902000Y-106554750D01*
X127902000Y-105989191D01*
X132932000Y-105989191D01*
X132932000Y-106554750D01*
X133090750Y-106713500D01*
X134440000Y-106713500D01*
X134440000Y-105639250D01*
X134694000Y-105639250D01*
X134694000Y-106713500D01*
X136043250Y-106713500D01*
X136202000Y-106554750D01*
X136202000Y-105989191D01*
X136105327Y-105755802D01*
X135926699Y-105577173D01*
X135693310Y-105480500D01*
X134852750Y-105480500D01*
X134694000Y-105639250D01*
X134440000Y-105639250D01*
X134281250Y-105480500D01*
X133440690Y-105480500D01*
X133207301Y-105577173D01*
X133028673Y-105755802D01*
X132932000Y-105989191D01*
X127902000Y-105989191D01*
X127805327Y-105755802D01*
X127626699Y-105577173D01*
X127393310Y-105480500D01*
X126552750Y-105480500D01*
X126394000Y-105639250D01*
X126140000Y-105639250D01*
X125981250Y-105480500D01*
X125140690Y-105480500D01*
X124907301Y-105577173D01*
X124728673Y-105755802D01*
X124632000Y-105989191D01*
X123061226Y-105989191D01*
X123081931Y-105958890D01*
X123132940Y-105707000D01*
X123132940Y-105541796D01*
X123275373Y-105399363D01*
X123489212Y-105311007D01*
X123764540Y-105036159D01*
X123913730Y-104676870D01*
X123913731Y-104676279D01*
X123935829Y-104643206D01*
X124003500Y-104303000D01*
X124003500Y-104098621D01*
X124110931Y-103941390D01*
X124161940Y-103689500D01*
X124161940Y-102939500D01*
X124117662Y-102704183D01*
X124003500Y-102526770D01*
X124003500Y-101649000D01*
X123935829Y-101308794D01*
X123743118Y-101020382D01*
X123573940Y-100851204D01*
X123573940Y-100411000D01*
X123564959Y-100363271D01*
X125807944Y-102606256D01*
X126067515Y-102779696D01*
X126373700Y-102840600D01*
X128219560Y-102840600D01*
X128219560Y-103490500D01*
X128263838Y-103725817D01*
X128402910Y-103941941D01*
X128615110Y-104086931D01*
X128867000Y-104137940D01*
X130467000Y-104137940D01*
X130702317Y-104093662D01*
X130918441Y-103954590D01*
X131063431Y-103742390D01*
X131114440Y-103490500D01*
X131114440Y-102790500D01*
X131075426Y-102583158D01*
X131114440Y-102390500D01*
X131114440Y-101690500D01*
X131075142Y-101481650D01*
X131102000Y-101416809D01*
X131102000Y-101226250D01*
X130943250Y-101067500D01*
X130587688Y-101067500D01*
X130467000Y-101043060D01*
X128867000Y-101043060D01*
X128737113Y-101067500D01*
X128390750Y-101067500D01*
X128232000Y-101226250D01*
X128232000Y-101240400D01*
X126705112Y-101240400D01*
X126067772Y-100603060D01*
X126256500Y-100640600D01*
X128232000Y-100640600D01*
X128232000Y-100654750D01*
X128390750Y-100813500D01*
X128746312Y-100813500D01*
X128867000Y-100837940D01*
X130467000Y-100837940D01*
X130596887Y-100813500D01*
X130943250Y-100813500D01*
X131102000Y-100654750D01*
X131102000Y-100464191D01*
X131073130Y-100394493D01*
X131114440Y-100190500D01*
X131114440Y-99718522D01*
X131168663Y-99718569D01*
X131528212Y-99570007D01*
X131803540Y-99295159D01*
X131952730Y-98935870D01*
X131953069Y-98546837D01*
X131804507Y-98187288D01*
X131529659Y-97911960D01*
X131170370Y-97762770D01*
X131114440Y-97762721D01*
X131114440Y-97290500D01*
X131075426Y-97083158D01*
X131114440Y-96890500D01*
X131114440Y-96190500D01*
X131075426Y-95983158D01*
X131114440Y-95790500D01*
X131114440Y-95090500D01*
X131070162Y-94855183D01*
X130931090Y-94639059D01*
X130718890Y-94494069D01*
X130467000Y-94443060D01*
X128867000Y-94443060D01*
X128631683Y-94487338D01*
X128415559Y-94626410D01*
X128270569Y-94838610D01*
X128219560Y-95090500D01*
X128219560Y-95740400D01*
X126589912Y-95740400D01*
X125914756Y-95065244D01*
X125655185Y-94891804D01*
X125349000Y-94830900D01*
X123539534Y-94830900D01*
X123573940Y-94661000D01*
X123573940Y-94061000D01*
X123529662Y-93825683D01*
X123471322Y-93735020D01*
X123557796Y-93526250D01*
X124632000Y-93526250D01*
X124632000Y-94091809D01*
X124728673Y-94325198D01*
X124907301Y-94503827D01*
X125140690Y-94600500D01*
X125981250Y-94600500D01*
X126140000Y-94441750D01*
X126140000Y-93367500D01*
X126394000Y-93367500D01*
X126394000Y-94441750D01*
X126552750Y-94600500D01*
X127393310Y-94600500D01*
X127626699Y-94503827D01*
X127805327Y-94325198D01*
X127902000Y-94091809D01*
X127902000Y-93526250D01*
X132932000Y-93526250D01*
X132932000Y-94091809D01*
X133028673Y-94325198D01*
X133207301Y-94503827D01*
X133440690Y-94600500D01*
X134281250Y-94600500D01*
X134440000Y-94441750D01*
X134440000Y-93367500D01*
X134694000Y-93367500D01*
X134694000Y-94441750D01*
X134852750Y-94600500D01*
X135693310Y-94600500D01*
X135926699Y-94503827D01*
X136105327Y-94325198D01*
X136202000Y-94091809D01*
X136202000Y-93526250D01*
X136043250Y-93367500D01*
X134694000Y-93367500D01*
X134440000Y-93367500D01*
X133090750Y-93367500D01*
X132932000Y-93526250D01*
X127902000Y-93526250D01*
X127743250Y-93367500D01*
X126394000Y-93367500D01*
X126140000Y-93367500D01*
X124790750Y-93367500D01*
X124632000Y-93526250D01*
X123557796Y-93526250D01*
X123561500Y-93517310D01*
X123561500Y-93376750D01*
X123402750Y-93218000D01*
X122303500Y-93218000D01*
X122303500Y-93238000D01*
X122049500Y-93238000D01*
X122049500Y-93218000D01*
X120950250Y-93218000D01*
X120791500Y-93376750D01*
X120791500Y-93517310D01*
X120881306Y-93734122D01*
X120830069Y-93809110D01*
X120779060Y-94061000D01*
X120779060Y-94661000D01*
X120823338Y-94896317D01*
X120887178Y-94995528D01*
X120830069Y-95079110D01*
X120779060Y-95331000D01*
X120779060Y-95931000D01*
X120823338Y-96166317D01*
X120887178Y-96265528D01*
X120830069Y-96349110D01*
X120779060Y-96601000D01*
X120779060Y-97201000D01*
X120823338Y-97436317D01*
X120887178Y-97535528D01*
X120830069Y-97619110D01*
X120779060Y-97871000D01*
X120779060Y-98471000D01*
X120823338Y-98706317D01*
X120887178Y-98805528D01*
X120830069Y-98889110D01*
X120779060Y-99141000D01*
X120779060Y-99314324D01*
X120218200Y-98753464D01*
X120218200Y-94284800D01*
X120150529Y-93944594D01*
X119957818Y-93656182D01*
X118966326Y-92664690D01*
X120791500Y-92664690D01*
X120791500Y-92805250D01*
X120950250Y-92964000D01*
X122049500Y-92964000D01*
X122049500Y-92314750D01*
X122303500Y-92314750D01*
X122303500Y-92964000D01*
X123402750Y-92964000D01*
X123561500Y-92805250D01*
X123561500Y-92664690D01*
X123464827Y-92431301D01*
X123286198Y-92252673D01*
X123052809Y-92156000D01*
X122462250Y-92156000D01*
X122303500Y-92314750D01*
X122049500Y-92314750D01*
X121890750Y-92156000D01*
X121300191Y-92156000D01*
X121066802Y-92252673D01*
X120888173Y-92431301D01*
X120791500Y-92664690D01*
X118966326Y-92664690D01*
X118764018Y-92462382D01*
X118654480Y-92389191D01*
X118475606Y-92269671D01*
X118135400Y-92202000D01*
X117789266Y-92202000D01*
X117778390Y-92194569D01*
X117564227Y-92151200D01*
X124733275Y-92151200D01*
X124728673Y-92155802D01*
G36*
X115791183Y-92187838D02*
X115575059Y-92326910D01*
X115430069Y-92539110D01*
X115379060Y-92791000D01*
X115379060Y-93391000D01*
X115423338Y-93626317D01*
X115487178Y-93725528D01*
X115430069Y-93809110D01*
X115379060Y-94061000D01*
X115379060Y-94661000D01*
X115411029Y-94830900D01*
X110849365Y-94830900D01*
X111078709Y-94354791D01*
X111081358Y-94339026D01*
X110960217Y-94107000D01*
X109601000Y-94107000D01*
X109601000Y-94127000D01*
X109347000Y-94127000D01*
X109347000Y-94107000D01*
X107987783Y-94107000D01*
X107866642Y-94339026D01*
X107869291Y-94354791D01*
X108123268Y-94882036D01*
X108539069Y-95253539D01*
X108229585Y-95460330D01*
X107904729Y-95946511D01*
X107790655Y-96520000D01*
X107904729Y-97093489D01*
X108229585Y-97579670D01*
X108544366Y-97790000D01*
X108229585Y-98000330D01*
X107904729Y-98486511D01*
X107790655Y-99060000D01*
X107904729Y-99633489D01*
X108229585Y-100119670D01*
X108544366Y-100330000D01*
X108229585Y-100540330D01*
X107904729Y-101026511D01*
X107790655Y-101600000D01*
X107904729Y-102173489D01*
X108229585Y-102659670D01*
X108544366Y-102870000D01*
X108229585Y-103080330D01*
X107904729Y-103566511D01*
X107790655Y-104140000D01*
X107904729Y-104713489D01*
X108229585Y-105199670D01*
X108243913Y-105209243D01*
X108222683Y-105213238D01*
X108006559Y-105352310D01*
X107861569Y-105564510D01*
X107810560Y-105816400D01*
X107810560Y-107394392D01*
X107797282Y-107374520D01*
X107645200Y-106609955D01*
X107645200Y-94050045D01*
X107730547Y-93620974D01*
X107866642Y-93620974D01*
X107987783Y-93853000D01*
X109347000Y-93853000D01*
X109347000Y-92639076D01*
X109601000Y-92639076D01*
X109601000Y-93853000D01*
X110960217Y-93853000D01*
X111081358Y-93620974D01*
X111078709Y-93605209D01*
X110824732Y-93077964D01*
X110388320Y-92688046D01*
X109835913Y-92494816D01*
X109601000Y-92639076D01*
X109347000Y-92639076D01*
X109112087Y-92494816D01*
X108559680Y-92688046D01*
X108123268Y-93077964D01*
X107869291Y-93605209D01*
X107866642Y-93620974D01*
X107730547Y-93620974D01*
X107797282Y-93285480D01*
X108190696Y-92696696D01*
X108779482Y-92303281D01*
X109544044Y-92151200D01*
X115985897Y-92151200D01*
X115791183Y-92187838D01*
X115791183Y-92187838D01*
G37*
X115791183Y-92187838D02*
X115575059Y-92326910D01*
X115430069Y-92539110D01*
X115379060Y-92791000D01*
X115379060Y-93391000D01*
X115423338Y-93626317D01*
X115487178Y-93725528D01*
X115430069Y-93809110D01*
X115379060Y-94061000D01*
X115379060Y-94661000D01*
X115411029Y-94830900D01*
X110849365Y-94830900D01*
X111078709Y-94354791D01*
X111081358Y-94339026D01*
X110960217Y-94107000D01*
X109601000Y-94107000D01*
X109601000Y-94127000D01*
X109347000Y-94127000D01*
X109347000Y-94107000D01*
X107987783Y-94107000D01*
X107866642Y-94339026D01*
X107869291Y-94354791D01*
X108123268Y-94882036D01*
X108539069Y-95253539D01*
X108229585Y-95460330D01*
X107904729Y-95946511D01*
X107790655Y-96520000D01*
X107904729Y-97093489D01*
X108229585Y-97579670D01*
X108544366Y-97790000D01*
X108229585Y-98000330D01*
X107904729Y-98486511D01*
X107790655Y-99060000D01*
X107904729Y-99633489D01*
X108229585Y-100119670D01*
X108544366Y-100330000D01*
X108229585Y-100540330D01*
X107904729Y-101026511D01*
X107790655Y-101600000D01*
X107904729Y-102173489D01*
X108229585Y-102659670D01*
X108544366Y-102870000D01*
X108229585Y-103080330D01*
X107904729Y-103566511D01*
X107790655Y-104140000D01*
X107904729Y-104713489D01*
X108229585Y-105199670D01*
X108243913Y-105209243D01*
X108222683Y-105213238D01*
X108006559Y-105352310D01*
X107861569Y-105564510D01*
X107810560Y-105816400D01*
X107810560Y-107394392D01*
X107797282Y-107374520D01*
X107645200Y-106609955D01*
X107645200Y-94050045D01*
X107730547Y-93620974D01*
X107866642Y-93620974D01*
X107987783Y-93853000D01*
X109347000Y-93853000D01*
X109347000Y-92639076D01*
X109601000Y-92639076D01*
X109601000Y-93853000D01*
X110960217Y-93853000D01*
X111081358Y-93620974D01*
X111078709Y-93605209D01*
X110824732Y-93077964D01*
X110388320Y-92688046D01*
X109835913Y-92494816D01*
X109601000Y-92639076D01*
X109347000Y-92639076D01*
X109112087Y-92494816D01*
X108559680Y-92688046D01*
X108123268Y-93077964D01*
X107869291Y-93605209D01*
X107866642Y-93620974D01*
X107730547Y-93620974D01*
X107797282Y-93285480D01*
X108190696Y-92696696D01*
X108779482Y-92303281D01*
X109544044Y-92151200D01*
X115985897Y-92151200D01*
X115791183Y-92187838D01*
G36*
X118440200Y-94653036D02*
X118440200Y-99121700D01*
X118507871Y-99461906D01*
X118679368Y-99718569D01*
X118700582Y-99750318D01*
X120289882Y-101339618D01*
X120578295Y-101532330D01*
X120918500Y-101600000D01*
X121163734Y-101600000D01*
X121174610Y-101607431D01*
X121426500Y-101658440D01*
X121866704Y-101658440D01*
X122225500Y-102017236D01*
X122225500Y-102339580D01*
X122140809Y-102304500D01*
X121900250Y-102304500D01*
X121741500Y-102463250D01*
X121741500Y-103187500D01*
X121761500Y-103187500D01*
X121761500Y-103441500D01*
X121741500Y-103441500D01*
X121741500Y-103461500D01*
X121487500Y-103461500D01*
X121487500Y-103441500D01*
X120738250Y-103441500D01*
X120579500Y-103600250D01*
X120579500Y-103815810D01*
X120676173Y-104049199D01*
X120854802Y-104227827D01*
X121088191Y-104324500D01*
X121328750Y-104324500D01*
X121487498Y-104165752D01*
X121487498Y-104312001D01*
X121284059Y-104442910D01*
X121230702Y-104521000D01*
X120523000Y-104521000D01*
X120364337Y-104552560D01*
X120223000Y-104552560D01*
X119987683Y-104596838D01*
X119771559Y-104735910D01*
X119688059Y-104858117D01*
X119460407Y-104706004D01*
X119269122Y-104667955D01*
X119174890Y-104603569D01*
X118923000Y-104552560D01*
X118323000Y-104552560D01*
X118087683Y-104596838D01*
X118048109Y-104622303D01*
X117983000Y-104521121D01*
X117983000Y-104289420D01*
X118067691Y-104324500D01*
X118308250Y-104324500D01*
X118467000Y-104165750D01*
X118467000Y-103441500D01*
X118721000Y-103441500D01*
X118721000Y-104165750D01*
X118879750Y-104324500D01*
X119120309Y-104324500D01*
X119353698Y-104227827D01*
X119532327Y-104049199D01*
X119629000Y-103815810D01*
X119629000Y-103600250D01*
X119470250Y-103441500D01*
X118721000Y-103441500D01*
X118467000Y-103441500D01*
X118447000Y-103441500D01*
X118447000Y-103187500D01*
X118467000Y-103187500D01*
X118467000Y-102463250D01*
X118721000Y-102463250D01*
X118721000Y-103187500D01*
X119470250Y-103187500D01*
X119629000Y-103028750D01*
X119629000Y-102813190D01*
X120579500Y-102813190D01*
X120579500Y-103028750D01*
X120738250Y-103187500D01*
X121487500Y-103187500D01*
X121487500Y-102463250D01*
X121328750Y-102304500D01*
X121088191Y-102304500D01*
X120854802Y-102401173D01*
X120676173Y-102579801D01*
X120579500Y-102813190D01*
X119629000Y-102813190D01*
X119532327Y-102579801D01*
X119353698Y-102401173D01*
X119120309Y-102304500D01*
X118879750Y-102304500D01*
X118721000Y-102463250D01*
X118467000Y-102463250D01*
X118308250Y-102304500D01*
X118067691Y-102304500D01*
X117834302Y-102401173D01*
X117832932Y-102402543D01*
X117745890Y-102343069D01*
X117716818Y-102337182D01*
X117665500Y-102285864D01*
X117665500Y-101632285D01*
X117761817Y-101614162D01*
X117977941Y-101475090D01*
X118122931Y-101262890D01*
X118173940Y-101011000D01*
X118173940Y-100411000D01*
X118129662Y-100175683D01*
X118065822Y-100076472D01*
X118122931Y-99992890D01*
X118173940Y-99741000D01*
X118173940Y-99141000D01*
X118129662Y-98905683D01*
X118065822Y-98806472D01*
X118122931Y-98722890D01*
X118173940Y-98471000D01*
X118173940Y-97871000D01*
X118129662Y-97635683D01*
X118065822Y-97536472D01*
X118122931Y-97452890D01*
X118173940Y-97201000D01*
X118173940Y-96601000D01*
X118129662Y-96365683D01*
X118065822Y-96266472D01*
X118122931Y-96182890D01*
X118173940Y-95931000D01*
X118173940Y-95331000D01*
X118129662Y-95095683D01*
X118065822Y-94996472D01*
X118122931Y-94912890D01*
X118173940Y-94661000D01*
X118173940Y-94386776D01*
X118440200Y-94653036D01*
X118440200Y-94653036D01*
G37*
X118440200Y-94653036D02*
X118440200Y-99121700D01*
X118507871Y-99461906D01*
X118679368Y-99718569D01*
X118700582Y-99750318D01*
X120289882Y-101339618D01*
X120578295Y-101532330D01*
X120918500Y-101600000D01*
X121163734Y-101600000D01*
X121174610Y-101607431D01*
X121426500Y-101658440D01*
X121866704Y-101658440D01*
X122225500Y-102017236D01*
X122225500Y-102339580D01*
X122140809Y-102304500D01*
X121900250Y-102304500D01*
X121741500Y-102463250D01*
X121741500Y-103187500D01*
X121761500Y-103187500D01*
X121761500Y-103441500D01*
X121741500Y-103441500D01*
X121741500Y-103461500D01*
X121487500Y-103461500D01*
X121487500Y-103441500D01*
X120738250Y-103441500D01*
X120579500Y-103600250D01*
X120579500Y-103815810D01*
X120676173Y-104049199D01*
X120854802Y-104227827D01*
X121088191Y-104324500D01*
X121328750Y-104324500D01*
X121487498Y-104165752D01*
X121487498Y-104312001D01*
X121284059Y-104442910D01*
X121230702Y-104521000D01*
X120523000Y-104521000D01*
X120364337Y-104552560D01*
X120223000Y-104552560D01*
X119987683Y-104596838D01*
X119771559Y-104735910D01*
X119688059Y-104858117D01*
X119460407Y-104706004D01*
X119269122Y-104667955D01*
X119174890Y-104603569D01*
X118923000Y-104552560D01*
X118323000Y-104552560D01*
X118087683Y-104596838D01*
X118048109Y-104622303D01*
X117983000Y-104521121D01*
X117983000Y-104289420D01*
X118067691Y-104324500D01*
X118308250Y-104324500D01*
X118467000Y-104165750D01*
X118467000Y-103441500D01*
X118721000Y-103441500D01*
X118721000Y-104165750D01*
X118879750Y-104324500D01*
X119120309Y-104324500D01*
X119353698Y-104227827D01*
X119532327Y-104049199D01*
X119629000Y-103815810D01*
X119629000Y-103600250D01*
X119470250Y-103441500D01*
X118721000Y-103441500D01*
X118467000Y-103441500D01*
X118447000Y-103441500D01*
X118447000Y-103187500D01*
X118467000Y-103187500D01*
X118467000Y-102463250D01*
X118721000Y-102463250D01*
X118721000Y-103187500D01*
X119470250Y-103187500D01*
X119629000Y-103028750D01*
X119629000Y-102813190D01*
X120579500Y-102813190D01*
X120579500Y-103028750D01*
X120738250Y-103187500D01*
X121487500Y-103187500D01*
X121487500Y-102463250D01*
X121328750Y-102304500D01*
X121088191Y-102304500D01*
X120854802Y-102401173D01*
X120676173Y-102579801D01*
X120579500Y-102813190D01*
X119629000Y-102813190D01*
X119532327Y-102579801D01*
X119353698Y-102401173D01*
X119120309Y-102304500D01*
X118879750Y-102304500D01*
X118721000Y-102463250D01*
X118467000Y-102463250D01*
X118308250Y-102304500D01*
X118067691Y-102304500D01*
X117834302Y-102401173D01*
X117832932Y-102402543D01*
X117745890Y-102343069D01*
X117716818Y-102337182D01*
X117665500Y-102285864D01*
X117665500Y-101632285D01*
X117761817Y-101614162D01*
X117977941Y-101475090D01*
X118122931Y-101262890D01*
X118173940Y-101011000D01*
X118173940Y-100411000D01*
X118129662Y-100175683D01*
X118065822Y-100076472D01*
X118122931Y-99992890D01*
X118173940Y-99741000D01*
X118173940Y-99141000D01*
X118129662Y-98905683D01*
X118065822Y-98806472D01*
X118122931Y-98722890D01*
X118173940Y-98471000D01*
X118173940Y-97871000D01*
X118129662Y-97635683D01*
X118065822Y-97536472D01*
X118122931Y-97452890D01*
X118173940Y-97201000D01*
X118173940Y-96601000D01*
X118129662Y-96365683D01*
X118065822Y-96266472D01*
X118122931Y-96182890D01*
X118173940Y-95931000D01*
X118173940Y-95331000D01*
X118129662Y-95095683D01*
X118065822Y-94996472D01*
X118122931Y-94912890D01*
X118173940Y-94661000D01*
X118173940Y-94386776D01*
X118440200Y-94653036D01*
D23*
X127762000Y-100838000D03*
X120142000Y-101854000D03*
X122936000Y-104481500D03*
X130975000Y-98740500D03*
D24*
X109474000Y-106680000D03*
X109474000Y-104140000D03*
X109474000Y-101600000D03*
X109474000Y-99060000D03*
X109474000Y-96520000D03*
X109474000Y-93980000D03*
M02*
