%TF.GenerationSoftware,KiCad,Pcbnew,4.0.5-e0-6337~49~ubuntu16.04.1*%
%TF.CreationDate,2017-03-18T14:10:31-07:00*%
%TF.ProjectId,sd-micro-hinged-5009010801-breakout,73642D6D6963726F2D68696E6765642D,v1.0*%
%TF.FileFunction,Legend,Bot*%
%FSLAX46Y46*%
G04 Gerber Fmt 4.6, Leading zero omitted, Abs format (unit mm)*
G04 Created by KiCad (PCBNEW 4.0.5-e0-6337~49~ubuntu16.04.1) date Sat Mar 18 14:10:31 2017*
%MOMM*%
%LPD*%
G01*
G04 APERTURE LIST*
%ADD10C,0.350000*%
%ADD11C,0.152400*%
%ADD12R,2.133600X1.828800*%
%ADD13O,2.133600X1.828800*%
G04 APERTURE END LIST*
D10*
D11*
X136613534Y-96146499D02*
X136613534Y-95130499D01*
X136613534Y-95614309D02*
X136032963Y-95614309D01*
X136032963Y-96146499D02*
X136032963Y-95130499D01*
X135549153Y-96146499D02*
X135549153Y-95469166D01*
X135549153Y-95130499D02*
X135597534Y-95178880D01*
X135549153Y-95227261D01*
X135500772Y-95178880D01*
X135549153Y-95130499D01*
X135549153Y-95227261D01*
X135065343Y-95469166D02*
X135065343Y-96146499D01*
X135065343Y-95565928D02*
X135016962Y-95517547D01*
X134920200Y-95469166D01*
X134775058Y-95469166D01*
X134678296Y-95517547D01*
X134629915Y-95614309D01*
X134629915Y-96146499D01*
X133710677Y-95469166D02*
X133710677Y-96291642D01*
X133759058Y-96388404D01*
X133807439Y-96436785D01*
X133904200Y-96485166D01*
X134049343Y-96485166D01*
X134146105Y-96436785D01*
X133710677Y-96098118D02*
X133807439Y-96146499D01*
X134000962Y-96146499D01*
X134097724Y-96098118D01*
X134146105Y-96049737D01*
X134194486Y-95952975D01*
X134194486Y-95662690D01*
X134146105Y-95565928D01*
X134097724Y-95517547D01*
X134000962Y-95469166D01*
X133807439Y-95469166D01*
X133710677Y-95517547D01*
X132839820Y-96098118D02*
X132936582Y-96146499D01*
X133130105Y-96146499D01*
X133226867Y-96098118D01*
X133275248Y-96001356D01*
X133275248Y-95614309D01*
X133226867Y-95517547D01*
X133130105Y-95469166D01*
X132936582Y-95469166D01*
X132839820Y-95517547D01*
X132791439Y-95614309D01*
X132791439Y-95711070D01*
X133275248Y-95807832D01*
X131920582Y-96146499D02*
X131920582Y-95130499D01*
X131920582Y-96098118D02*
X132017344Y-96146499D01*
X132210867Y-96146499D01*
X132307629Y-96098118D01*
X132356010Y-96049737D01*
X132404391Y-95952975D01*
X132404391Y-95662690D01*
X132356010Y-95565928D01*
X132307629Y-95517547D01*
X132210867Y-95469166D01*
X132017344Y-95469166D01*
X131920582Y-95517547D01*
X130662677Y-96146499D02*
X130662677Y-95130499D01*
X130324011Y-95856213D01*
X129985344Y-95130499D01*
X129985344Y-96146499D01*
X129501534Y-96146499D02*
X129501534Y-95469166D01*
X129501534Y-95130499D02*
X129549915Y-95178880D01*
X129501534Y-95227261D01*
X129453153Y-95178880D01*
X129501534Y-95130499D01*
X129501534Y-95227261D01*
X128582296Y-96098118D02*
X128679058Y-96146499D01*
X128872581Y-96146499D01*
X128969343Y-96098118D01*
X129017724Y-96049737D01*
X129066105Y-95952975D01*
X129066105Y-95662690D01*
X129017724Y-95565928D01*
X128969343Y-95517547D01*
X128872581Y-95469166D01*
X128679058Y-95469166D01*
X128582296Y-95517547D01*
X128146867Y-96146499D02*
X128146867Y-95469166D01*
X128146867Y-95662690D02*
X128098486Y-95565928D01*
X128050105Y-95517547D01*
X127953343Y-95469166D01*
X127856582Y-95469166D01*
X127372772Y-96146499D02*
X127469534Y-96098118D01*
X127517915Y-96049737D01*
X127566296Y-95952975D01*
X127566296Y-95662690D01*
X127517915Y-95565928D01*
X127469534Y-95517547D01*
X127372772Y-95469166D01*
X127227630Y-95469166D01*
X127130868Y-95517547D01*
X127082487Y-95565928D01*
X127034106Y-95662690D01*
X127034106Y-95952975D01*
X127082487Y-96049737D01*
X127130868Y-96098118D01*
X127227630Y-96146499D01*
X127372772Y-96146499D01*
X125872963Y-96098118D02*
X125727820Y-96146499D01*
X125485916Y-96146499D01*
X125389154Y-96098118D01*
X125340773Y-96049737D01*
X125292392Y-95952975D01*
X125292392Y-95856213D01*
X125340773Y-95759451D01*
X125389154Y-95711070D01*
X125485916Y-95662690D01*
X125679439Y-95614309D01*
X125776201Y-95565928D01*
X125824582Y-95517547D01*
X125872963Y-95420785D01*
X125872963Y-95324023D01*
X125824582Y-95227261D01*
X125776201Y-95178880D01*
X125679439Y-95130499D01*
X125437535Y-95130499D01*
X125292392Y-95178880D01*
X124856963Y-96146499D02*
X124856963Y-95130499D01*
X124615058Y-95130499D01*
X124469916Y-95178880D01*
X124373154Y-95275642D01*
X124324773Y-95372404D01*
X124276392Y-95565928D01*
X124276392Y-95711070D01*
X124324773Y-95904594D01*
X124373154Y-96001356D01*
X124469916Y-96098118D01*
X124615058Y-96146499D01*
X124856963Y-96146499D01*
X122486297Y-96049737D02*
X122534678Y-96098118D01*
X122679821Y-96146499D01*
X122776583Y-96146499D01*
X122921725Y-96098118D01*
X123018487Y-96001356D01*
X123066868Y-95904594D01*
X123115249Y-95711070D01*
X123115249Y-95565928D01*
X123066868Y-95372404D01*
X123018487Y-95275642D01*
X122921725Y-95178880D01*
X122776583Y-95130499D01*
X122679821Y-95130499D01*
X122534678Y-95178880D01*
X122486297Y-95227261D01*
X121615440Y-96146499D02*
X121615440Y-95614309D01*
X121663821Y-95517547D01*
X121760583Y-95469166D01*
X121954106Y-95469166D01*
X122050868Y-95517547D01*
X121615440Y-96098118D02*
X121712202Y-96146499D01*
X121954106Y-96146499D01*
X122050868Y-96098118D01*
X122099249Y-96001356D01*
X122099249Y-95904594D01*
X122050868Y-95807832D01*
X121954106Y-95759451D01*
X121712202Y-95759451D01*
X121615440Y-95711070D01*
X121131630Y-96146499D02*
X121131630Y-95469166D01*
X121131630Y-95662690D02*
X121083249Y-95565928D01*
X121034868Y-95517547D01*
X120938106Y-95469166D01*
X120841345Y-95469166D01*
X120067250Y-96146499D02*
X120067250Y-95130499D01*
X120067250Y-96098118D02*
X120164012Y-96146499D01*
X120357535Y-96146499D01*
X120454297Y-96098118D01*
X120502678Y-96049737D01*
X120551059Y-95952975D01*
X120551059Y-95662690D01*
X120502678Y-95565928D01*
X120454297Y-95517547D01*
X120357535Y-95469166D01*
X120164012Y-95469166D01*
X120067250Y-95517547D01*
X118470679Y-95614309D02*
X118325536Y-95662690D01*
X118277155Y-95711070D01*
X118228774Y-95807832D01*
X118228774Y-95952975D01*
X118277155Y-96049737D01*
X118325536Y-96098118D01*
X118422298Y-96146499D01*
X118809345Y-96146499D01*
X118809345Y-95130499D01*
X118470679Y-95130499D01*
X118373917Y-95178880D01*
X118325536Y-95227261D01*
X118277155Y-95324023D01*
X118277155Y-95420785D01*
X118325536Y-95517547D01*
X118373917Y-95565928D01*
X118470679Y-95614309D01*
X118809345Y-95614309D01*
X117793345Y-96146499D02*
X117793345Y-95469166D01*
X117793345Y-95662690D02*
X117744964Y-95565928D01*
X117696583Y-95517547D01*
X117599821Y-95469166D01*
X117503060Y-95469166D01*
X116777346Y-96098118D02*
X116874108Y-96146499D01*
X117067631Y-96146499D01*
X117164393Y-96098118D01*
X117212774Y-96001356D01*
X117212774Y-95614309D01*
X117164393Y-95517547D01*
X117067631Y-95469166D01*
X116874108Y-95469166D01*
X116777346Y-95517547D01*
X116728965Y-95614309D01*
X116728965Y-95711070D01*
X117212774Y-95807832D01*
X115858108Y-96146499D02*
X115858108Y-95614309D01*
X115906489Y-95517547D01*
X116003251Y-95469166D01*
X116196774Y-95469166D01*
X116293536Y-95517547D01*
X115858108Y-96098118D02*
X115954870Y-96146499D01*
X116196774Y-96146499D01*
X116293536Y-96098118D01*
X116341917Y-96001356D01*
X116341917Y-95904594D01*
X116293536Y-95807832D01*
X116196774Y-95759451D01*
X115954870Y-95759451D01*
X115858108Y-95711070D01*
X115374298Y-96146499D02*
X115374298Y-95130499D01*
X115277536Y-95759451D02*
X114987251Y-96146499D01*
X114987251Y-95469166D02*
X115374298Y-95856213D01*
X114406679Y-96146499D02*
X114503441Y-96098118D01*
X114551822Y-96049737D01*
X114600203Y-95952975D01*
X114600203Y-95662690D01*
X114551822Y-95565928D01*
X114503441Y-95517547D01*
X114406679Y-95469166D01*
X114261537Y-95469166D01*
X114164775Y-95517547D01*
X114116394Y-95565928D01*
X114068013Y-95662690D01*
X114068013Y-95952975D01*
X114116394Y-96049737D01*
X114164775Y-96098118D01*
X114261537Y-96146499D01*
X114406679Y-96146499D01*
X113197156Y-95469166D02*
X113197156Y-96146499D01*
X113632584Y-95469166D02*
X113632584Y-96001356D01*
X113584203Y-96098118D01*
X113487441Y-96146499D01*
X113342299Y-96146499D01*
X113245537Y-96098118D01*
X113197156Y-96049737D01*
X112858489Y-95469166D02*
X112471441Y-95469166D01*
X112713346Y-95130499D02*
X112713346Y-96001356D01*
X112664965Y-96098118D01*
X112568203Y-96146499D01*
X112471441Y-96146499D01*
X115422680Y-97145566D02*
X115180775Y-97822899D01*
X114938871Y-97145566D01*
X114019633Y-97822899D02*
X114600204Y-97822899D01*
X114309918Y-97822899D02*
X114309918Y-96806899D01*
X114406680Y-96952042D01*
X114503442Y-97048804D01*
X114600204Y-97097185D01*
X113584204Y-97726137D02*
X113535823Y-97774518D01*
X113584204Y-97822899D01*
X113632585Y-97774518D01*
X113584204Y-97726137D01*
X113584204Y-97822899D01*
X112568204Y-97822899D02*
X113148775Y-97822899D01*
X112858489Y-97822899D02*
X112858489Y-96806899D01*
X112955251Y-96952042D01*
X113052013Y-97048804D01*
X113148775Y-97097185D01*
X130471332Y-98328238D02*
X130326189Y-98376619D01*
X130084285Y-98376619D01*
X129987523Y-98328238D01*
X129939142Y-98279857D01*
X129890761Y-98183095D01*
X129890761Y-98086333D01*
X129939142Y-97989571D01*
X129987523Y-97941190D01*
X130084285Y-97892810D01*
X130277808Y-97844429D01*
X130374570Y-97796048D01*
X130422951Y-97747667D01*
X130471332Y-97650905D01*
X130471332Y-97554143D01*
X130422951Y-97457381D01*
X130374570Y-97409000D01*
X130277808Y-97360619D01*
X130035904Y-97360619D01*
X129890761Y-97409000D01*
X129455332Y-98376619D02*
X129455332Y-97360619D01*
X129213427Y-97360619D01*
X129068285Y-97409000D01*
X128971523Y-97505762D01*
X128923142Y-97602524D01*
X128874761Y-97796048D01*
X128874761Y-97941190D01*
X128923142Y-98134714D01*
X128971523Y-98231476D01*
X129068285Y-98328238D01*
X129213427Y-98376619D01*
X129455332Y-98376619D01*
X127084666Y-98279857D02*
X127133047Y-98328238D01*
X127278190Y-98376619D01*
X127374952Y-98376619D01*
X127520094Y-98328238D01*
X127616856Y-98231476D01*
X127665237Y-98134714D01*
X127713618Y-97941190D01*
X127713618Y-97796048D01*
X127665237Y-97602524D01*
X127616856Y-97505762D01*
X127520094Y-97409000D01*
X127374952Y-97360619D01*
X127278190Y-97360619D01*
X127133047Y-97409000D01*
X127084666Y-97457381D01*
X126504094Y-98376619D02*
X126600856Y-98328238D01*
X126649237Y-98279857D01*
X126697618Y-98183095D01*
X126697618Y-97892810D01*
X126649237Y-97796048D01*
X126600856Y-97747667D01*
X126504094Y-97699286D01*
X126358952Y-97699286D01*
X126262190Y-97747667D01*
X126213809Y-97796048D01*
X126165428Y-97892810D01*
X126165428Y-98183095D01*
X126213809Y-98279857D01*
X126262190Y-98328238D01*
X126358952Y-98376619D01*
X126504094Y-98376619D01*
X125729999Y-97699286D02*
X125729999Y-98376619D01*
X125729999Y-97796048D02*
X125681618Y-97747667D01*
X125584856Y-97699286D01*
X125439714Y-97699286D01*
X125342952Y-97747667D01*
X125294571Y-97844429D01*
X125294571Y-98376619D01*
X124810761Y-97699286D02*
X124810761Y-98376619D01*
X124810761Y-97796048D02*
X124762380Y-97747667D01*
X124665618Y-97699286D01*
X124520476Y-97699286D01*
X124423714Y-97747667D01*
X124375333Y-97844429D01*
X124375333Y-98376619D01*
X123504476Y-98328238D02*
X123601238Y-98376619D01*
X123794761Y-98376619D01*
X123891523Y-98328238D01*
X123939904Y-98231476D01*
X123939904Y-97844429D01*
X123891523Y-97747667D01*
X123794761Y-97699286D01*
X123601238Y-97699286D01*
X123504476Y-97747667D01*
X123456095Y-97844429D01*
X123456095Y-97941190D01*
X123939904Y-98037952D01*
X122585238Y-98328238D02*
X122682000Y-98376619D01*
X122875523Y-98376619D01*
X122972285Y-98328238D01*
X123020666Y-98279857D01*
X123069047Y-98183095D01*
X123069047Y-97892810D01*
X123020666Y-97796048D01*
X122972285Y-97747667D01*
X122875523Y-97699286D01*
X122682000Y-97699286D01*
X122585238Y-97747667D01*
X122294952Y-97699286D02*
X121907904Y-97699286D01*
X122149809Y-97360619D02*
X122149809Y-98231476D01*
X122101428Y-98328238D01*
X122004666Y-98376619D01*
X121907904Y-98376619D01*
X121424095Y-98376619D02*
X121520857Y-98328238D01*
X121569238Y-98279857D01*
X121617619Y-98183095D01*
X121617619Y-97892810D01*
X121569238Y-97796048D01*
X121520857Y-97747667D01*
X121424095Y-97699286D01*
X121278953Y-97699286D01*
X121182191Y-97747667D01*
X121133810Y-97796048D01*
X121085429Y-97892810D01*
X121085429Y-98183095D01*
X121133810Y-98279857D01*
X121182191Y-98328238D01*
X121278953Y-98376619D01*
X121424095Y-98376619D01*
X120650000Y-98376619D02*
X120650000Y-97699286D01*
X120650000Y-97892810D02*
X120601619Y-97796048D01*
X120553238Y-97747667D01*
X120456476Y-97699286D01*
X120359715Y-97699286D01*
X120021048Y-98279857D02*
X119972667Y-98328238D01*
X120021048Y-98376619D01*
X120069429Y-98328238D01*
X120021048Y-98279857D01*
X120021048Y-98376619D01*
X120021048Y-97747667D02*
X119972667Y-97796048D01*
X120021048Y-97844429D01*
X120069429Y-97796048D01*
X120021048Y-97747667D01*
X120021048Y-97844429D01*
X134317618Y-100053019D02*
X134317618Y-99037019D01*
X133978952Y-99762733D01*
X133640285Y-99037019D01*
X133640285Y-100053019D01*
X133011332Y-100053019D02*
X133108094Y-100004638D01*
X133156475Y-99956257D01*
X133204856Y-99859495D01*
X133204856Y-99569210D01*
X133156475Y-99472448D01*
X133108094Y-99424067D01*
X133011332Y-99375686D01*
X132866190Y-99375686D01*
X132769428Y-99424067D01*
X132721047Y-99472448D01*
X132672666Y-99569210D01*
X132672666Y-99859495D01*
X132721047Y-99956257D01*
X132769428Y-100004638D01*
X132866190Y-100053019D01*
X133011332Y-100053019D01*
X132092094Y-100053019D02*
X132188856Y-100004638D01*
X132237237Y-99907876D01*
X132237237Y-99037019D01*
X131318000Y-100004638D02*
X131414762Y-100053019D01*
X131608285Y-100053019D01*
X131705047Y-100004638D01*
X131753428Y-99907876D01*
X131753428Y-99520829D01*
X131705047Y-99424067D01*
X131608285Y-99375686D01*
X131414762Y-99375686D01*
X131318000Y-99424067D01*
X131269619Y-99520829D01*
X131269619Y-99617590D01*
X131753428Y-99714352D01*
X130930952Y-100053019D02*
X130398762Y-99375686D01*
X130930952Y-99375686D02*
X130398762Y-100053019D01*
X129237619Y-100053019D02*
X129237619Y-99037019D01*
X128850572Y-99037019D01*
X128753810Y-99085400D01*
X128705429Y-99133781D01*
X128657048Y-99230543D01*
X128657048Y-99375686D01*
X128705429Y-99472448D01*
X128753810Y-99520829D01*
X128850572Y-99569210D01*
X129237619Y-99569210D01*
X127495905Y-98988638D02*
X128366762Y-100294924D01*
X127157238Y-100053019D02*
X127157238Y-99037019D01*
X126576667Y-100053019D01*
X126576667Y-99037019D01*
X124834953Y-99037019D02*
X125318762Y-99037019D01*
X125367143Y-99520829D01*
X125318762Y-99472448D01*
X125222000Y-99424067D01*
X124980096Y-99424067D01*
X124883334Y-99472448D01*
X124834953Y-99520829D01*
X124786572Y-99617590D01*
X124786572Y-99859495D01*
X124834953Y-99956257D01*
X124883334Y-100004638D01*
X124980096Y-100053019D01*
X125222000Y-100053019D01*
X125318762Y-100004638D01*
X125367143Y-99956257D01*
X124157619Y-99037019D02*
X124060858Y-99037019D01*
X123964096Y-99085400D01*
X123915715Y-99133781D01*
X123867334Y-99230543D01*
X123818953Y-99424067D01*
X123818953Y-99665971D01*
X123867334Y-99859495D01*
X123915715Y-99956257D01*
X123964096Y-100004638D01*
X124060858Y-100053019D01*
X124157619Y-100053019D01*
X124254381Y-100004638D01*
X124302762Y-99956257D01*
X124351143Y-99859495D01*
X124399524Y-99665971D01*
X124399524Y-99424067D01*
X124351143Y-99230543D01*
X124302762Y-99133781D01*
X124254381Y-99085400D01*
X124157619Y-99037019D01*
X123190000Y-99037019D02*
X123093239Y-99037019D01*
X122996477Y-99085400D01*
X122948096Y-99133781D01*
X122899715Y-99230543D01*
X122851334Y-99424067D01*
X122851334Y-99665971D01*
X122899715Y-99859495D01*
X122948096Y-99956257D01*
X122996477Y-100004638D01*
X123093239Y-100053019D01*
X123190000Y-100053019D01*
X123286762Y-100004638D01*
X123335143Y-99956257D01*
X123383524Y-99859495D01*
X123431905Y-99665971D01*
X123431905Y-99424067D01*
X123383524Y-99230543D01*
X123335143Y-99133781D01*
X123286762Y-99085400D01*
X123190000Y-99037019D01*
X122367524Y-100053019D02*
X122174000Y-100053019D01*
X122077239Y-100004638D01*
X122028858Y-99956257D01*
X121932096Y-99811114D01*
X121883715Y-99617590D01*
X121883715Y-99230543D01*
X121932096Y-99133781D01*
X121980477Y-99085400D01*
X122077239Y-99037019D01*
X122270762Y-99037019D01*
X122367524Y-99085400D01*
X122415905Y-99133781D01*
X122464286Y-99230543D01*
X122464286Y-99472448D01*
X122415905Y-99569210D01*
X122367524Y-99617590D01*
X122270762Y-99665971D01*
X122077239Y-99665971D01*
X121980477Y-99617590D01*
X121932096Y-99569210D01*
X121883715Y-99472448D01*
X121254762Y-99037019D02*
X121158001Y-99037019D01*
X121061239Y-99085400D01*
X121012858Y-99133781D01*
X120964477Y-99230543D01*
X120916096Y-99424067D01*
X120916096Y-99665971D01*
X120964477Y-99859495D01*
X121012858Y-99956257D01*
X121061239Y-100004638D01*
X121158001Y-100053019D01*
X121254762Y-100053019D01*
X121351524Y-100004638D01*
X121399905Y-99956257D01*
X121448286Y-99859495D01*
X121496667Y-99665971D01*
X121496667Y-99424067D01*
X121448286Y-99230543D01*
X121399905Y-99133781D01*
X121351524Y-99085400D01*
X121254762Y-99037019D01*
X119948477Y-100053019D02*
X120529048Y-100053019D01*
X120238762Y-100053019D02*
X120238762Y-99037019D01*
X120335524Y-99182162D01*
X120432286Y-99278924D01*
X120529048Y-99327305D01*
X119319524Y-99037019D02*
X119222763Y-99037019D01*
X119126001Y-99085400D01*
X119077620Y-99133781D01*
X119029239Y-99230543D01*
X118980858Y-99424067D01*
X118980858Y-99665971D01*
X119029239Y-99859495D01*
X119077620Y-99956257D01*
X119126001Y-100004638D01*
X119222763Y-100053019D01*
X119319524Y-100053019D01*
X119416286Y-100004638D01*
X119464667Y-99956257D01*
X119513048Y-99859495D01*
X119561429Y-99665971D01*
X119561429Y-99424067D01*
X119513048Y-99230543D01*
X119464667Y-99133781D01*
X119416286Y-99085400D01*
X119319524Y-99037019D01*
X118400286Y-99472448D02*
X118497048Y-99424067D01*
X118545429Y-99375686D01*
X118593810Y-99278924D01*
X118593810Y-99230543D01*
X118545429Y-99133781D01*
X118497048Y-99085400D01*
X118400286Y-99037019D01*
X118206763Y-99037019D01*
X118110001Y-99085400D01*
X118061620Y-99133781D01*
X118013239Y-99230543D01*
X118013239Y-99278924D01*
X118061620Y-99375686D01*
X118110001Y-99424067D01*
X118206763Y-99472448D01*
X118400286Y-99472448D01*
X118497048Y-99520829D01*
X118545429Y-99569210D01*
X118593810Y-99665971D01*
X118593810Y-99859495D01*
X118545429Y-99956257D01*
X118497048Y-100004638D01*
X118400286Y-100053019D01*
X118206763Y-100053019D01*
X118110001Y-100004638D01*
X118061620Y-99956257D01*
X118013239Y-99859495D01*
X118013239Y-99665971D01*
X118061620Y-99569210D01*
X118110001Y-99520829D01*
X118206763Y-99472448D01*
X117384286Y-99037019D02*
X117287525Y-99037019D01*
X117190763Y-99085400D01*
X117142382Y-99133781D01*
X117094001Y-99230543D01*
X117045620Y-99424067D01*
X117045620Y-99665971D01*
X117094001Y-99859495D01*
X117142382Y-99956257D01*
X117190763Y-100004638D01*
X117287525Y-100053019D01*
X117384286Y-100053019D01*
X117481048Y-100004638D01*
X117529429Y-99956257D01*
X117577810Y-99859495D01*
X117626191Y-99665971D01*
X117626191Y-99424067D01*
X117577810Y-99230543D01*
X117529429Y-99133781D01*
X117481048Y-99085400D01*
X117384286Y-99037019D01*
X116078001Y-100053019D02*
X116658572Y-100053019D01*
X116368286Y-100053019D02*
X116368286Y-99037019D01*
X116465048Y-99182162D01*
X116561810Y-99278924D01*
X116658572Y-99327305D01*
X133857999Y-102389819D02*
X133519332Y-103405819D01*
X133180666Y-102389819D01*
X132841999Y-103405819D02*
X132841999Y-102389819D01*
X132358189Y-103405819D02*
X132358189Y-102389819D01*
X131777618Y-103405819D01*
X131777618Y-102389819D01*
X130084285Y-103357438D02*
X130181047Y-103405819D01*
X130374570Y-103405819D01*
X130471332Y-103357438D01*
X130519713Y-103309057D01*
X130568094Y-103212295D01*
X130568094Y-102922010D01*
X130519713Y-102825248D01*
X130471332Y-102776867D01*
X130374570Y-102728486D01*
X130181047Y-102728486D01*
X130084285Y-102776867D01*
X129213428Y-103405819D02*
X129213428Y-102873629D01*
X129261809Y-102776867D01*
X129358571Y-102728486D01*
X129552094Y-102728486D01*
X129648856Y-102776867D01*
X129213428Y-103357438D02*
X129310190Y-103405819D01*
X129552094Y-103405819D01*
X129648856Y-103357438D01*
X129697237Y-103260676D01*
X129697237Y-103163914D01*
X129648856Y-103067152D01*
X129552094Y-103018771D01*
X129310190Y-103018771D01*
X129213428Y-102970390D01*
X128729618Y-102728486D02*
X128729618Y-103405819D01*
X128729618Y-102825248D02*
X128681237Y-102776867D01*
X128584475Y-102728486D01*
X128439333Y-102728486D01*
X128342571Y-102776867D01*
X128294190Y-102873629D01*
X128294190Y-103405819D01*
X127036285Y-103405819D02*
X127036285Y-102389819D01*
X127036285Y-102776867D02*
X126939523Y-102728486D01*
X126746000Y-102728486D01*
X126649238Y-102776867D01*
X126600857Y-102825248D01*
X126552476Y-102922010D01*
X126552476Y-103212295D01*
X126600857Y-103309057D01*
X126649238Y-103357438D01*
X126746000Y-103405819D01*
X126939523Y-103405819D01*
X127036285Y-103357438D01*
X125730000Y-103357438D02*
X125826762Y-103405819D01*
X126020285Y-103405819D01*
X126117047Y-103357438D01*
X126165428Y-103260676D01*
X126165428Y-102873629D01*
X126117047Y-102776867D01*
X126020285Y-102728486D01*
X125826762Y-102728486D01*
X125730000Y-102776867D01*
X125681619Y-102873629D01*
X125681619Y-102970390D01*
X126165428Y-103067152D01*
X123988286Y-102389819D02*
X124472095Y-102389819D01*
X124520476Y-102873629D01*
X124472095Y-102825248D01*
X124375333Y-102776867D01*
X124133429Y-102776867D01*
X124036667Y-102825248D01*
X123988286Y-102873629D01*
X123939905Y-102970390D01*
X123939905Y-103212295D01*
X123988286Y-103309057D01*
X124036667Y-103357438D01*
X124133429Y-103405819D01*
X124375333Y-103405819D01*
X124472095Y-103357438D01*
X124520476Y-103309057D01*
X123649619Y-102389819D02*
X123310952Y-103405819D01*
X122972286Y-102389819D01*
X121714381Y-103405819D02*
X121811143Y-103357438D01*
X121859524Y-103309057D01*
X121907905Y-103212295D01*
X121907905Y-102922010D01*
X121859524Y-102825248D01*
X121811143Y-102776867D01*
X121714381Y-102728486D01*
X121569239Y-102728486D01*
X121472477Y-102776867D01*
X121424096Y-102825248D01*
X121375715Y-102922010D01*
X121375715Y-103212295D01*
X121424096Y-103309057D01*
X121472477Y-103357438D01*
X121569239Y-103405819D01*
X121714381Y-103405819D01*
X120940286Y-103405819D02*
X120940286Y-102728486D01*
X120940286Y-102922010D02*
X120891905Y-102825248D01*
X120843524Y-102776867D01*
X120746762Y-102728486D01*
X120650001Y-102728486D01*
X119634001Y-102389819D02*
X119005049Y-102389819D01*
X119343715Y-102776867D01*
X119198573Y-102776867D01*
X119101811Y-102825248D01*
X119053430Y-102873629D01*
X119005049Y-102970390D01*
X119005049Y-103212295D01*
X119053430Y-103309057D01*
X119101811Y-103357438D01*
X119198573Y-103405819D01*
X119488858Y-103405819D01*
X119585620Y-103357438D01*
X119634001Y-103309057D01*
X118569620Y-103309057D02*
X118521239Y-103357438D01*
X118569620Y-103405819D01*
X118618001Y-103357438D01*
X118569620Y-103309057D01*
X118569620Y-103405819D01*
X118182572Y-102389819D02*
X117553620Y-102389819D01*
X117892286Y-102776867D01*
X117747144Y-102776867D01*
X117650382Y-102825248D01*
X117602001Y-102873629D01*
X117553620Y-102970390D01*
X117553620Y-103212295D01*
X117602001Y-103309057D01*
X117650382Y-103357438D01*
X117747144Y-103405819D01*
X118037429Y-103405819D01*
X118134191Y-103357438D01*
X118182572Y-103309057D01*
X117263334Y-102389819D02*
X116924667Y-103405819D01*
X116586001Y-102389819D01*
X130205237Y-106081286D02*
X130011713Y-106758619D01*
X129818190Y-106274810D01*
X129624666Y-106758619D01*
X129431142Y-106081286D01*
X129044094Y-106758619D02*
X129044094Y-106081286D01*
X129044094Y-105742619D02*
X129092475Y-105791000D01*
X129044094Y-105839381D01*
X128995713Y-105791000D01*
X129044094Y-105742619D01*
X129044094Y-105839381D01*
X128124856Y-106710238D02*
X128221618Y-106758619D01*
X128415141Y-106758619D01*
X128511903Y-106710238D01*
X128560284Y-106661857D01*
X128608665Y-106565095D01*
X128608665Y-106274810D01*
X128560284Y-106178048D01*
X128511903Y-106129667D01*
X128415141Y-106081286D01*
X128221618Y-106081286D01*
X128124856Y-106129667D01*
X127689427Y-106758619D02*
X127689427Y-105742619D01*
X127592665Y-106371571D02*
X127302380Y-106758619D01*
X127302380Y-106081286D02*
X127689427Y-106468333D01*
X126479904Y-106710238D02*
X126576666Y-106758619D01*
X126770189Y-106758619D01*
X126866951Y-106710238D01*
X126915332Y-106613476D01*
X126915332Y-106226429D01*
X126866951Y-106129667D01*
X126770189Y-106081286D01*
X126576666Y-106081286D01*
X126479904Y-106129667D01*
X126431523Y-106226429D01*
X126431523Y-106323190D01*
X126915332Y-106419952D01*
X125996094Y-106758619D02*
X125996094Y-106081286D01*
X125996094Y-106274810D02*
X125947713Y-106178048D01*
X125899332Y-106129667D01*
X125802570Y-106081286D01*
X125705809Y-106081286D01*
X125367142Y-106758619D02*
X125367142Y-105742619D01*
X125367142Y-106129667D02*
X125270380Y-106081286D01*
X125076857Y-106081286D01*
X124980095Y-106129667D01*
X124931714Y-106178048D01*
X124883333Y-106274810D01*
X124883333Y-106565095D01*
X124931714Y-106661857D01*
X124980095Y-106710238D01*
X125076857Y-106758619D01*
X125270380Y-106758619D01*
X125367142Y-106710238D01*
X124302761Y-106758619D02*
X124399523Y-106710238D01*
X124447904Y-106661857D01*
X124496285Y-106565095D01*
X124496285Y-106274810D01*
X124447904Y-106178048D01*
X124399523Y-106129667D01*
X124302761Y-106081286D01*
X124157619Y-106081286D01*
X124060857Y-106129667D01*
X124012476Y-106178048D01*
X123964095Y-106274810D01*
X123964095Y-106565095D01*
X124012476Y-106661857D01*
X124060857Y-106710238D01*
X124157619Y-106758619D01*
X124302761Y-106758619D01*
X123625428Y-106758619D02*
X123093238Y-106081286D01*
X123625428Y-106081286D02*
X123093238Y-106758619D01*
X122706190Y-106661857D02*
X122657809Y-106710238D01*
X122706190Y-106758619D01*
X122754571Y-106710238D01*
X122706190Y-106661857D01*
X122706190Y-106758619D01*
X122222380Y-106081286D02*
X122222380Y-106758619D01*
X122222380Y-106178048D02*
X122173999Y-106129667D01*
X122077237Y-106081286D01*
X121932095Y-106081286D01*
X121835333Y-106129667D01*
X121786952Y-106226429D01*
X121786952Y-106758619D01*
X120916095Y-106710238D02*
X121012857Y-106758619D01*
X121206380Y-106758619D01*
X121303142Y-106710238D01*
X121351523Y-106613476D01*
X121351523Y-106226429D01*
X121303142Y-106129667D01*
X121206380Y-106081286D01*
X121012857Y-106081286D01*
X120916095Y-106129667D01*
X120867714Y-106226429D01*
X120867714Y-106323190D01*
X121351523Y-106419952D01*
X120577428Y-106081286D02*
X120190380Y-106081286D01*
X120432285Y-105742619D02*
X120432285Y-106613476D01*
X120383904Y-106710238D01*
X120287142Y-106758619D01*
X120190380Y-106758619D01*
%LPC*%
D12*
X109474000Y-106680000D03*
D13*
X109474000Y-104140000D03*
X109474000Y-101600000D03*
X109474000Y-99060000D03*
X109474000Y-96520000D03*
X109474000Y-93980000D03*
M02*
