G04 This is an RS-274x file exported by *
G04 gerbv version 2.6.0 *
G04 More information is available about gerbv at *
G04 http://gerbv.gpleda.org/ *
G04 --End of header info--*
%MOIN*%
%FSLAX34Y34*%
%IPPOS*%
G04 --Define apertures--*
%ADD10C,0.0138*%
%ADD11C,0.0020*%
%ADD12C,0.0100*%
%ADD13C,0.0020*%
%ADD14C,0.0016*%
%ADD15C,0.0059*%
%ADD16C,0.0080*%
%ADD17C,0.0060*%
G04 --Start main section--*
G54D11*
G01X0046395Y-041179D02*
G01X0046395Y-042321D01*
G01X0046395Y-041179D02*
G01X0045805Y-041179D01*
G01X0046395Y-042321D02*
G01X0045805Y-042321D01*
G01X0045805Y-041179D02*
G01X0045805Y-042321D01*
G01X0045824Y-040380D02*
G01X0046966Y-040380D01*
G01X0045824Y-040380D02*
G01X0045824Y-040970D01*
G01X0046966Y-040380D02*
G01X0046966Y-040970D01*
G01X0045824Y-040970D02*
G01X0046966Y-040970D01*
G01X0048746Y-040970D02*
G01X0047604Y-040970D01*
G01X0048746Y-040970D02*
G01X0048746Y-040380D01*
G01X0047604Y-040970D02*
G01X0047604Y-040380D01*
G01X0048746Y-040380D02*
G01X0047604Y-040380D01*
G01X0048370Y-041184D02*
G01X0048370Y-042326D01*
G01X0048370Y-041184D02*
G01X0047780Y-041184D01*
G01X0048370Y-042326D02*
G01X0047780Y-042326D01*
G01X0047780Y-041184D02*
G01X0047780Y-042326D01*
G01X0043789Y-042689D02*
G01X0043789Y-036311D01*
G01X0043793Y-042685D02*
G01X0042415Y-042685D01*
G01X0042419Y-042693D02*
G01X0042419Y-036315D01*
G01X0043797Y-036319D02*
G01X0042419Y-036319D01*
G54D12*
G01X0048238Y-039646D02*
G75*
G03X0048238Y-039646I-000088J0000000D01*
G54D13*
G01X0048534Y-040040D02*
G01X0048534Y-040000D01*
G01X0045542Y-040040D02*
G01X0048534Y-040040D01*
G01X0045542Y-036300D02*
G01X0045542Y-040040D01*
G01X0048534Y-036300D02*
G01X0045542Y-036300D01*
G01X0048534Y-040000D02*
G01X0048534Y-036300D01*
G54D14*
G01X0047676Y-042281D02*
G01X0047676Y-041231D01*
G01X0046476Y-042281D02*
G01X0047676Y-042281D01*
G01X0046476Y-041231D02*
G01X0046476Y-042281D01*
G01X0047676Y-041231D02*
G01X0046476Y-041231D01*
G01X0054456Y-036256D02*
G01X0048944Y-036256D01*
G01X0054456Y-042457D02*
G01X0054456Y-036256D01*
G01X0048944Y-042457D02*
G01X0054456Y-042457D01*
G01X0048944Y-041473D02*
G01X0048944Y-042457D01*
G01X0049436Y-041473D02*
G01X0048944Y-041473D01*
G01X0049436Y-037732D02*
G01X0049436Y-041473D01*
G01X0048944Y-037732D02*
G01X0049436Y-037732D01*
G01X0048944Y-036256D02*
G01X0048944Y-037732D01*
G54D15*
G01X0046197Y-041838D02*
G01X0046212Y-041853D01*
G01X0046212Y-041853D02*
G01X0046227Y-041898D01*
G01X0046227Y-041898D02*
G01X0046227Y-041928D01*
G01X0046227Y-041928D02*
G01X0046212Y-041973D01*
G01X0046212Y-041973D02*
G01X0046182Y-042003D01*
G01X0046182Y-042003D02*
G01X0046152Y-042018D01*
G01X0046152Y-042018D02*
G01X0046092Y-042033D01*
G01X0046092Y-042033D02*
G01X0046047Y-042033D01*
G01X0046047Y-042033D02*
G01X0045987Y-042018D01*
G01X0045987Y-042018D02*
G01X0045957Y-042003D01*
G01X0045957Y-042003D02*
G01X0045927Y-041973D01*
G01X0045927Y-041973D02*
G01X0045912Y-041928D01*
G01X0045912Y-041928D02*
G01X0045912Y-041898D01*
G01X0045912Y-041898D02*
G01X0045927Y-041853D01*
G01X0045927Y-041853D02*
G01X0045942Y-041838D01*
G01X0046227Y-041538D02*
G01X0046227Y-041718D01*
G01X0046227Y-041628D02*
G01X0045912Y-041628D01*
G01X0045912Y-041628D02*
G01X0045957Y-041658D01*
G01X0045957Y-041658D02*
G01X0045987Y-041688D01*
G01X0045987Y-041688D02*
G01X0046002Y-041718D01*
G01X0046378Y-040803D02*
G01X0046363Y-040818D01*
G01X0046363Y-040818D02*
G01X0046318Y-040833D01*
G01X0046318Y-040833D02*
G01X0046288Y-040833D01*
G01X0046288Y-040833D02*
G01X0046243Y-040818D01*
G01X0046243Y-040818D02*
G01X0046213Y-040788D01*
G01X0046213Y-040788D02*
G01X0046198Y-040758D01*
G01X0046198Y-040758D02*
G01X0046183Y-040698D01*
G01X0046183Y-040698D02*
G01X0046183Y-040653D01*
G01X0046183Y-040653D02*
G01X0046198Y-040593D01*
G01X0046198Y-040593D02*
G01X0046213Y-040563D01*
G01X0046213Y-040563D02*
G01X0046243Y-040533D01*
G01X0046243Y-040533D02*
G01X0046288Y-040518D01*
G01X0046288Y-040518D02*
G01X0046318Y-040518D01*
G01X0046318Y-040518D02*
G01X0046363Y-040533D01*
G01X0046363Y-040533D02*
G01X0046378Y-040548D01*
G01X0046498Y-040548D02*
G01X0046513Y-040533D01*
G01X0046513Y-040533D02*
G01X0046543Y-040518D01*
G01X0046543Y-040518D02*
G01X0046618Y-040518D01*
G01X0046618Y-040518D02*
G01X0046648Y-040533D01*
G01X0046648Y-040533D02*
G01X0046663Y-040548D01*
G01X0046663Y-040548D02*
G01X0046678Y-040578D01*
G01X0046678Y-040578D02*
G01X0046678Y-040608D01*
G01X0046678Y-040608D02*
G01X0046663Y-040653D01*
G01X0046663Y-040653D02*
G01X0046483Y-040833D01*
G01X0046483Y-040833D02*
G01X0046678Y-040833D01*
G01X0048087Y-040772D02*
G01X0048072Y-040787D01*
G01X0048072Y-040787D02*
G01X0048027Y-040802D01*
G01X0048027Y-040802D02*
G01X0047997Y-040802D01*
G01X0047997Y-040802D02*
G01X0047952Y-040787D01*
G01X0047952Y-040787D02*
G01X0047922Y-040757D01*
G01X0047922Y-040757D02*
G01X0047907Y-040727D01*
G01X0047907Y-040727D02*
G01X0047892Y-040667D01*
G01X0047892Y-040667D02*
G01X0047892Y-040622D01*
G01X0047892Y-040622D02*
G01X0047907Y-040562D01*
G01X0047907Y-040562D02*
G01X0047922Y-040532D01*
G01X0047922Y-040532D02*
G01X0047952Y-040502D01*
G01X0047952Y-040502D02*
G01X0047997Y-040487D01*
G01X0047997Y-040487D02*
G01X0048027Y-040487D01*
G01X0048027Y-040487D02*
G01X0048072Y-040502D01*
G01X0048072Y-040502D02*
G01X0048087Y-040517D01*
G01X0048192Y-040487D02*
G01X0048387Y-040487D01*
G01X0048387Y-040487D02*
G01X0048282Y-040607D01*
G01X0048282Y-040607D02*
G01X0048327Y-040607D01*
G01X0048327Y-040607D02*
G01X0048357Y-040622D01*
G01X0048357Y-040622D02*
G01X0048372Y-040637D01*
G01X0048372Y-040637D02*
G01X0048387Y-040667D01*
G01X0048387Y-040667D02*
G01X0048387Y-040742D01*
G01X0048387Y-040742D02*
G01X0048372Y-040772D01*
G01X0048372Y-040772D02*
G01X0048357Y-040787D01*
G01X0048357Y-040787D02*
G01X0048327Y-040802D01*
G01X0048327Y-040802D02*
G01X0048237Y-040802D01*
G01X0048237Y-040802D02*
G01X0048207Y-040787D01*
G01X0048207Y-040787D02*
G01X0048192Y-040772D01*
G01X0048172Y-041843D02*
G01X0048187Y-041858D01*
G01X0048187Y-041858D02*
G01X0048202Y-041903D01*
G01X0048202Y-041903D02*
G01X0048202Y-041933D01*
G01X0048202Y-041933D02*
G01X0048187Y-041978D01*
G01X0048187Y-041978D02*
G01X0048157Y-042008D01*
G01X0048157Y-042008D02*
G01X0048127Y-042023D01*
G01X0048127Y-042023D02*
G01X0048067Y-042038D01*
G01X0048067Y-042038D02*
G01X0048022Y-042038D01*
G01X0048022Y-042038D02*
G01X0047962Y-042023D01*
G01X0047962Y-042023D02*
G01X0047932Y-042008D01*
G01X0047932Y-042008D02*
G01X0047902Y-041978D01*
G01X0047902Y-041978D02*
G01X0047887Y-041933D01*
G01X0047887Y-041933D02*
G01X0047887Y-041903D01*
G01X0047887Y-041903D02*
G01X0047902Y-041858D01*
G01X0047902Y-041858D02*
G01X0047917Y-041843D01*
G01X0047992Y-041573D02*
G01X0048202Y-041573D01*
G01X0047872Y-041648D02*
G01X0048097Y-041723D01*
G01X0048097Y-041723D02*
G01X0048097Y-041528D01*
G54D12*
G01X0042837Y-039062D02*
G01X0042837Y-039633D01*
G01X0042837Y-039633D02*
G01X0042799Y-039748D01*
G01X0042799Y-039748D02*
G01X0042723Y-039824D01*
G01X0042723Y-039824D02*
G01X0042609Y-039862D01*
G01X0042609Y-039862D02*
G01X0042533Y-039862D01*
G01X0043637Y-039862D02*
G01X0043180Y-039862D01*
G01X0043409Y-039862D02*
G01X0043409Y-039062D01*
G01X0043409Y-039062D02*
G01X0043333Y-039176D01*
G01X0043333Y-039176D02*
G01X0043256Y-039252D01*
G01X0043256Y-039252D02*
G01X0043180Y-039290D01*
G54D15*
G01X0046738Y-037895D02*
G01X0046738Y-038214D01*
G01X0046738Y-038214D02*
G01X0046757Y-038251D01*
G01X0046757Y-038251D02*
G01X0046776Y-038270D01*
G01X0046776Y-038270D02*
G01X0046813Y-038289D01*
G01X0046813Y-038289D02*
G01X0046888Y-038289D01*
G01X0046888Y-038289D02*
G01X0046926Y-038270D01*
G01X0046926Y-038270D02*
G01X0046944Y-038251D01*
G01X0046944Y-038251D02*
G01X0046963Y-038214D01*
G01X0046963Y-038214D02*
G01X0046963Y-037895D01*
G01X0047132Y-037933D02*
G01X0047150Y-037914D01*
G01X0047150Y-037914D02*
G01X0047188Y-037895D01*
G01X0047188Y-037895D02*
G01X0047282Y-037895D01*
G01X0047282Y-037895D02*
G01X0047319Y-037914D01*
G01X0047319Y-037914D02*
G01X0047338Y-037933D01*
G01X0047338Y-037933D02*
G01X0047357Y-037970D01*
G01X0047357Y-037970D02*
G01X0047357Y-038008D01*
G01X0047357Y-038008D02*
G01X0047338Y-038064D01*
G01X0047338Y-038064D02*
G01X0047113Y-038289D01*
G01X0047113Y-038289D02*
G01X0047357Y-038289D01*
G01X0046776Y-041540D02*
G01X0046776Y-041859D01*
G01X0046776Y-041859D02*
G01X0046795Y-041897D01*
G01X0046795Y-041897D02*
G01X0046814Y-041915D01*
G01X0046814Y-041915D02*
G01X0046851Y-041934D01*
G01X0046851Y-041934D02*
G01X0046926Y-041934D01*
G01X0046926Y-041934D02*
G01X0046963Y-041915D01*
G01X0046963Y-041915D02*
G01X0046982Y-041897D01*
G01X0046982Y-041897D02*
G01X0047001Y-041859D01*
G01X0047001Y-041859D02*
G01X0047001Y-041540D01*
G01X0047395Y-041934D02*
G01X0047170Y-041934D01*
G01X0047282Y-041934D02*
G01X0047282Y-041540D01*
G01X0047282Y-041540D02*
G01X0047245Y-041597D01*
G01X0047245Y-041597D02*
G01X0047207Y-041634D01*
G01X0047207Y-041634D02*
G01X0047170Y-041653D01*
G54D16*
G01X0051992Y-039106D02*
G01X0051992Y-039392D01*
G01X0051992Y-039392D02*
G01X0051973Y-039449D01*
G01X0051973Y-039449D02*
G01X0051935Y-039487D01*
G01X0051935Y-039487D02*
G01X0051877Y-039506D01*
G01X0051877Y-039506D02*
G01X0051839Y-039506D01*
G01X0052163Y-039144D02*
G01X0052182Y-039125D01*
G01X0052182Y-039125D02*
G01X0052220Y-039106D01*
G01X0052220Y-039106D02*
G01X0052315Y-039106D01*
G01X0052315Y-039106D02*
G01X0052354Y-039125D01*
G01X0052354Y-039125D02*
G01X0052373Y-039144D01*
G01X0052373Y-039144D02*
G01X0052392Y-039182D01*
G01X0052392Y-039182D02*
G01X0052392Y-039220D01*
G01X0052392Y-039220D02*
G01X0052373Y-039277D01*
G01X0052373Y-039277D02*
G01X0052144Y-039506D01*
G01X0052144Y-039506D02*
G01X0052392Y-039506D01*
G01X0000000Y0000000D02*
G54D17*
G01X0043100Y-036000D02*
G75*
G03X0042100Y-037000I0000000J-001000D01*
G01X0043100Y-043000D02*
G01X0053600Y-043000D01*
G01X0042100Y-037000D02*
G01X0042100Y-042000D01*
G01X0053600Y-036000D02*
G01X0043100Y-036000D01*
G01X0054600Y-037000D02*
G01X0054600Y-042000D01*
G01X0053600Y-043000D02*
G75*
G03X0054600Y-042000I0000000J0001000D01*
G01X0054600Y-037000D02*
G75*
G03X0053600Y-036000I-001000J0000000D01*
G01X0042100Y-042000D02*
G75*
G03X0043100Y-043000I0001000J0000000D01*
M02*
