%TF.GenerationSoftware,KiCad,Pcbnew,4.0.4+e1-6308~48~ubuntu16.04.1-stable*%
%TF.CreationDate,2017-01-03T17:52:22-08:00*%
%TF.ProjectId,sd-micro-hinged-5009010801-breakout,73642D6D6963726F2D68696E6765642D,v1.0*%
%TF.FileFunction,Other,Fab,Top*%
%FSLAX46Y46*%
G04 Gerber Fmt 4.6, Leading zero omitted, Abs format (unit mm)*
G04 Created by KiCad (PCBNEW 4.0.4+e1-6308~48~ubuntu16.04.1-stable) date Tue Jan  3 17:52:22 2017*
%MOMM*%
%LPD*%
G01*
G04 APERTURE LIST*
%ADD10C,0.350000*%
%ADD11C,0.152400*%
%ADD12C,0.050000*%
%ADD13C,0.040640*%
%ADD14C,0.254000*%
%ADD15C,0.050800*%
%ADD16C,0.150000*%
%ADD17C,0.203200*%
G04 APERTURE END LIST*
D10*
D11*
X109474000Y-109220000D02*
X136144000Y-109220000D01*
X106934000Y-93980000D02*
X106934000Y-106680000D01*
X136144000Y-91440000D02*
X109474000Y-91440000D01*
X138684000Y-93980000D02*
X138684000Y-106680000D01*
X136144000Y-109220000D02*
G75*
G03X138684000Y-106680000I0J2540000D01*
G01*
X138684000Y-93980000D02*
G75*
G03X136144000Y-91440000I-2540000J0D01*
G01*
X106934000Y-106680000D02*
G75*
G03X109474000Y-109220000I2540000J0D01*
G01*
X109474000Y-91440000D02*
G75*
G03X106934000Y-93980000I0J-2540000D01*
G01*
D12*
X117844000Y-104595000D02*
X117844000Y-107495000D01*
X117844000Y-104595000D02*
X116344000Y-104595000D01*
X117844000Y-107495000D02*
X116344000Y-107495000D01*
X116344000Y-104595000D02*
X116344000Y-107495000D01*
X116394000Y-102564500D02*
X119294000Y-102564500D01*
X116394000Y-102564500D02*
X116394000Y-104064500D01*
X119294000Y-102564500D02*
X119294000Y-104064500D01*
X116394000Y-104064500D02*
X119294000Y-104064500D01*
X123814500Y-104064500D02*
X120914500Y-104064500D01*
X123814500Y-104064500D02*
X123814500Y-102564500D01*
X120914500Y-104064500D02*
X120914500Y-102564500D01*
X123814500Y-102564500D02*
X120914500Y-102564500D01*
X122860500Y-104607000D02*
X122860500Y-107507000D01*
X122860500Y-104607000D02*
X121360500Y-104607000D01*
X122860500Y-107507000D02*
X121360500Y-107507000D01*
X121360500Y-104607000D02*
X121360500Y-107507000D01*
X111224000Y-108430000D02*
X111224000Y-92230000D01*
X111234000Y-108420000D02*
X107734000Y-108420000D01*
X107744000Y-108440000D02*
X107744000Y-92240000D01*
X111244000Y-92250000D02*
X107744000Y-92250000D01*
D13*
X138317000Y-92090500D02*
X124317000Y-92090500D01*
X138317000Y-107840500D02*
X138317000Y-92090500D01*
X124317000Y-107840500D02*
X138317000Y-107840500D01*
X124317000Y-105340500D02*
X124317000Y-107840500D01*
X125567000Y-105340500D02*
X124317000Y-105340500D01*
X125567000Y-95840500D02*
X125567000Y-105340500D01*
X124317000Y-95840500D02*
X125567000Y-95840500D01*
X124317000Y-92090500D02*
X124317000Y-95840500D01*
D14*
X122523713Y-100701000D02*
G75*
G03X122523713Y-100701000I-223607J0D01*
G01*
D15*
X123276500Y-101701000D02*
X123276500Y-101601000D01*
X115676500Y-101701000D02*
X123276500Y-101701000D01*
X115676500Y-92201000D02*
X115676500Y-101701000D01*
X123276500Y-92201000D02*
X115676500Y-92201000D01*
X123276500Y-101601000D02*
X123276500Y-92201000D01*
D13*
X121097000Y-107393500D02*
X121097000Y-104726500D01*
X118049000Y-107393500D02*
X121097000Y-107393500D01*
X118049000Y-104726500D02*
X118049000Y-107393500D01*
X121097000Y-104726500D02*
X118049000Y-104726500D01*
D16*
X117339714Y-106268333D02*
X117377810Y-106306428D01*
X117415905Y-106420714D01*
X117415905Y-106496904D01*
X117377810Y-106611190D01*
X117301619Y-106687381D01*
X117225429Y-106725476D01*
X117073048Y-106763571D01*
X116958762Y-106763571D01*
X116806381Y-106725476D01*
X116730190Y-106687381D01*
X116654000Y-106611190D01*
X116615905Y-106496904D01*
X116615905Y-106420714D01*
X116654000Y-106306428D01*
X116692095Y-106268333D01*
X117415905Y-105506428D02*
X117415905Y-105963571D01*
X117415905Y-105735000D02*
X116615905Y-105735000D01*
X116730190Y-105811190D01*
X116806381Y-105887381D01*
X116844476Y-105963571D01*
X117800667Y-103640214D02*
X117762572Y-103678310D01*
X117648286Y-103716405D01*
X117572096Y-103716405D01*
X117457810Y-103678310D01*
X117381619Y-103602119D01*
X117343524Y-103525929D01*
X117305429Y-103373548D01*
X117305429Y-103259262D01*
X117343524Y-103106881D01*
X117381619Y-103030690D01*
X117457810Y-102954500D01*
X117572096Y-102916405D01*
X117648286Y-102916405D01*
X117762572Y-102954500D01*
X117800667Y-102992595D01*
X118105429Y-102992595D02*
X118143524Y-102954500D01*
X118219715Y-102916405D01*
X118410191Y-102916405D01*
X118486381Y-102954500D01*
X118524477Y-102992595D01*
X118562572Y-103068786D01*
X118562572Y-103144976D01*
X118524477Y-103259262D01*
X118067334Y-103716405D01*
X118562572Y-103716405D01*
X122141167Y-103560214D02*
X122103072Y-103598310D01*
X121988786Y-103636405D01*
X121912596Y-103636405D01*
X121798310Y-103598310D01*
X121722119Y-103522119D01*
X121684024Y-103445929D01*
X121645929Y-103293548D01*
X121645929Y-103179262D01*
X121684024Y-103026881D01*
X121722119Y-102950690D01*
X121798310Y-102874500D01*
X121912596Y-102836405D01*
X121988786Y-102836405D01*
X122103072Y-102874500D01*
X122141167Y-102912595D01*
X122407834Y-102836405D02*
X122903072Y-102836405D01*
X122636405Y-103141167D01*
X122750691Y-103141167D01*
X122826881Y-103179262D01*
X122864977Y-103217357D01*
X122903072Y-103293548D01*
X122903072Y-103484024D01*
X122864977Y-103560214D01*
X122826881Y-103598310D01*
X122750691Y-103636405D01*
X122522119Y-103636405D01*
X122445929Y-103598310D01*
X122407834Y-103560214D01*
X122356214Y-106280333D02*
X122394310Y-106318428D01*
X122432405Y-106432714D01*
X122432405Y-106508904D01*
X122394310Y-106623190D01*
X122318119Y-106699381D01*
X122241929Y-106737476D01*
X122089548Y-106775571D01*
X121975262Y-106775571D01*
X121822881Y-106737476D01*
X121746690Y-106699381D01*
X121670500Y-106623190D01*
X121632405Y-106508904D01*
X121632405Y-106432714D01*
X121670500Y-106318428D01*
X121708595Y-106280333D01*
X121899071Y-105594619D02*
X122432405Y-105594619D01*
X121594310Y-105785095D02*
X122165738Y-105975571D01*
X122165738Y-105480333D01*
D14*
X108806667Y-99217238D02*
X108806667Y-100668667D01*
X108709905Y-100958952D01*
X108516381Y-101152476D01*
X108226096Y-101249238D01*
X108032572Y-101249238D01*
X110838666Y-101249238D02*
X109677524Y-101249238D01*
X110258095Y-101249238D02*
X110258095Y-99217238D01*
X110064571Y-99507524D01*
X109871047Y-99701048D01*
X109677524Y-99797810D01*
D17*
X132058833Y-99329119D02*
X132058833Y-100054833D01*
X132010453Y-100199976D01*
X131913691Y-100296738D01*
X131768548Y-100345119D01*
X131671786Y-100345119D01*
X132494262Y-99425881D02*
X132542643Y-99377500D01*
X132639405Y-99329119D01*
X132881309Y-99329119D01*
X132978071Y-99377500D01*
X133026452Y-99425881D01*
X133074833Y-99522643D01*
X133074833Y-99619405D01*
X133026452Y-99764548D01*
X132445881Y-100345119D01*
X133074833Y-100345119D01*
D16*
X118714595Y-96253381D02*
X118714595Y-97062905D01*
X118762214Y-97158143D01*
X118809833Y-97205762D01*
X118905071Y-97253381D01*
X119095548Y-97253381D01*
X119190786Y-97205762D01*
X119238405Y-97158143D01*
X119286024Y-97062905D01*
X119286024Y-96253381D01*
X119714595Y-96348619D02*
X119762214Y-96301000D01*
X119857452Y-96253381D01*
X120095548Y-96253381D01*
X120190786Y-96301000D01*
X120238405Y-96348619D01*
X120286024Y-96443857D01*
X120286024Y-96539095D01*
X120238405Y-96681952D01*
X119666976Y-97253381D01*
X120286024Y-97253381D01*
X118811095Y-105512381D02*
X118811095Y-106321905D01*
X118858714Y-106417143D01*
X118906333Y-106464762D01*
X119001571Y-106512381D01*
X119192048Y-106512381D01*
X119287286Y-106464762D01*
X119334905Y-106417143D01*
X119382524Y-106321905D01*
X119382524Y-105512381D01*
X120382524Y-106512381D02*
X119811095Y-106512381D01*
X120096809Y-106512381D02*
X120096809Y-105512381D01*
X120001571Y-105655238D01*
X119906333Y-105750476D01*
X119811095Y-105798095D01*
M02*
