%TF.GenerationSoftware,KiCad,Pcbnew,4.0.4+e1-6308~48~ubuntu16.04.1-stable*%
%TF.CreationDate,2017-01-03T17:52:22-08:00*%
%TF.ProjectId,sd-micro-hinged-5009010801-breakout,73642D6D6963726F2D68696E6765642D,v1.0*%
%TF.FileFunction,Legend,Top*%
%FSLAX46Y46*%
G04 Gerber Fmt 4.6, Leading zero omitted, Abs format (unit mm)*
G04 Created by KiCad (PCBNEW 4.0.4+e1-6308~48~ubuntu16.04.1-stable) date Tue Jan  3 17:52:22 2017*
%MOMM*%
%LPD*%
G01*
G04 APERTURE LIST*
%ADD10C,0.350000*%
%ADD11C,0.152400*%
%ADD12C,0.150000*%
%ADD13C,0.101600*%
%ADD14C,0.120000*%
G04 APERTURE END LIST*
D10*
D11*
X123952000Y-100838000D02*
G75*
G03X123952000Y-100838000I-254000J0D01*
G01*
X111542286Y-106123619D02*
X111880953Y-107139619D01*
X112219619Y-106123619D01*
X112558286Y-107139619D02*
X112558286Y-106123619D01*
X113042096Y-107139619D02*
X113042096Y-106123619D01*
X113622667Y-107139619D01*
X113622667Y-106123619D01*
X111687429Y-104599619D02*
X111687429Y-103583619D01*
X112026095Y-104309333D01*
X112364762Y-103583619D01*
X112364762Y-104599619D01*
X112848572Y-104599619D02*
X112848572Y-103583619D01*
X113284001Y-104551238D02*
X113429144Y-104599619D01*
X113671048Y-104599619D01*
X113767810Y-104551238D01*
X113816191Y-104502857D01*
X113864572Y-104406095D01*
X113864572Y-104309333D01*
X113816191Y-104212571D01*
X113767810Y-104164190D01*
X113671048Y-104115810D01*
X113477525Y-104067429D01*
X113380763Y-104019048D01*
X113332382Y-103970667D01*
X113284001Y-103873905D01*
X113284001Y-103777143D01*
X113332382Y-103680381D01*
X113380763Y-103632000D01*
X113477525Y-103583619D01*
X113719429Y-103583619D01*
X113864572Y-103632000D01*
X114493525Y-103583619D02*
X114687048Y-103583619D01*
X114783810Y-103632000D01*
X114880572Y-103728762D01*
X114928953Y-103922286D01*
X114928953Y-104260952D01*
X114880572Y-104454476D01*
X114783810Y-104551238D01*
X114687048Y-104599619D01*
X114493525Y-104599619D01*
X114396763Y-104551238D01*
X114300001Y-104454476D01*
X114251620Y-104260952D01*
X114251620Y-103922286D01*
X114300001Y-103728762D01*
X114396763Y-103632000D01*
X114493525Y-103583619D01*
X111687429Y-102059619D02*
X111687429Y-101043619D01*
X112026095Y-101769333D01*
X112364762Y-101043619D01*
X112364762Y-102059619D01*
X113042096Y-101043619D02*
X113235619Y-101043619D01*
X113332381Y-101092000D01*
X113429143Y-101188762D01*
X113477524Y-101382286D01*
X113477524Y-101720952D01*
X113429143Y-101914476D01*
X113332381Y-102011238D01*
X113235619Y-102059619D01*
X113042096Y-102059619D01*
X112945334Y-102011238D01*
X112848572Y-101914476D01*
X112800191Y-101720952D01*
X112800191Y-101382286D01*
X112848572Y-101188762D01*
X112945334Y-101092000D01*
X113042096Y-101043619D01*
X113864572Y-102011238D02*
X114009715Y-102059619D01*
X114251619Y-102059619D01*
X114348381Y-102011238D01*
X114396762Y-101962857D01*
X114445143Y-101866095D01*
X114445143Y-101769333D01*
X114396762Y-101672571D01*
X114348381Y-101624190D01*
X114251619Y-101575810D01*
X114058096Y-101527429D01*
X113961334Y-101479048D01*
X113912953Y-101430667D01*
X113864572Y-101333905D01*
X113864572Y-101237143D01*
X113912953Y-101140381D01*
X113961334Y-101092000D01*
X114058096Y-101043619D01*
X114300000Y-101043619D01*
X114445143Y-101092000D01*
X114880572Y-102059619D02*
X114880572Y-101043619D01*
X111639048Y-99471238D02*
X111784191Y-99519619D01*
X112026095Y-99519619D01*
X112122857Y-99471238D01*
X112171238Y-99422857D01*
X112219619Y-99326095D01*
X112219619Y-99229333D01*
X112171238Y-99132571D01*
X112122857Y-99084190D01*
X112026095Y-99035810D01*
X111832572Y-98987429D01*
X111735810Y-98939048D01*
X111687429Y-98890667D01*
X111639048Y-98793905D01*
X111639048Y-98697143D01*
X111687429Y-98600381D01*
X111735810Y-98552000D01*
X111832572Y-98503619D01*
X112074476Y-98503619D01*
X112219619Y-98552000D01*
X113235619Y-99422857D02*
X113187238Y-99471238D01*
X113042095Y-99519619D01*
X112945333Y-99519619D01*
X112800191Y-99471238D01*
X112703429Y-99374476D01*
X112655048Y-99277714D01*
X112606667Y-99084190D01*
X112606667Y-98939048D01*
X112655048Y-98745524D01*
X112703429Y-98648762D01*
X112800191Y-98552000D01*
X112945333Y-98503619D01*
X113042095Y-98503619D01*
X113187238Y-98552000D01*
X113235619Y-98600381D01*
X113671048Y-99519619D02*
X113671048Y-98503619D01*
X114251619Y-99519619D02*
X113816191Y-98939048D01*
X114251619Y-98503619D02*
X113671048Y-99084190D01*
X112268000Y-96882857D02*
X112219619Y-96931238D01*
X112074476Y-96979619D01*
X111977714Y-96979619D01*
X111832572Y-96931238D01*
X111735810Y-96834476D01*
X111687429Y-96737714D01*
X111639048Y-96544190D01*
X111639048Y-96399048D01*
X111687429Y-96205524D01*
X111735810Y-96108762D01*
X111832572Y-96012000D01*
X111977714Y-95963619D01*
X112074476Y-95963619D01*
X112219619Y-96012000D01*
X112268000Y-96060381D01*
X112655048Y-96931238D02*
X112800191Y-96979619D01*
X113042095Y-96979619D01*
X113138857Y-96931238D01*
X113187238Y-96882857D01*
X113235619Y-96786095D01*
X113235619Y-96689333D01*
X113187238Y-96592571D01*
X113138857Y-96544190D01*
X113042095Y-96495810D01*
X112848572Y-96447429D01*
X112751810Y-96399048D01*
X112703429Y-96350667D01*
X112655048Y-96253905D01*
X112655048Y-96157143D01*
X112703429Y-96060381D01*
X112751810Y-96012000D01*
X112848572Y-95963619D01*
X113090476Y-95963619D01*
X113235619Y-96012000D01*
X112219619Y-93472000D02*
X112122857Y-93423619D01*
X111977714Y-93423619D01*
X111832572Y-93472000D01*
X111735810Y-93568762D01*
X111687429Y-93665524D01*
X111639048Y-93859048D01*
X111639048Y-94004190D01*
X111687429Y-94197714D01*
X111735810Y-94294476D01*
X111832572Y-94391238D01*
X111977714Y-94439619D01*
X112074476Y-94439619D01*
X112219619Y-94391238D01*
X112268000Y-94342857D01*
X112268000Y-94004190D01*
X112074476Y-94004190D01*
X112703429Y-94439619D02*
X112703429Y-93423619D01*
X113284000Y-94439619D01*
X113284000Y-93423619D01*
X113767810Y-94439619D02*
X113767810Y-93423619D01*
X114009715Y-93423619D01*
X114154857Y-93472000D01*
X114251619Y-93568762D01*
X114300000Y-93665524D01*
X114348381Y-93859048D01*
X114348381Y-94004190D01*
X114300000Y-94197714D01*
X114251619Y-94294476D01*
X114154857Y-94391238D01*
X114009715Y-94439619D01*
X113767810Y-94439619D01*
X117729000Y-104648000D02*
X116459000Y-104648000D01*
X117729000Y-107378500D02*
X116459000Y-107378500D01*
D12*
X117729000Y-104648000D02*
X117729000Y-107378500D01*
X116459000Y-107378500D02*
X116459000Y-104648000D01*
D11*
X116447000Y-102679500D02*
X116447000Y-103949500D01*
X119177500Y-102679500D02*
X119177500Y-103949500D01*
D12*
X116447000Y-102679500D02*
X119177500Y-102679500D01*
X119177500Y-103949500D02*
X116447000Y-103949500D01*
D11*
X123761500Y-103949500D02*
X123761500Y-102679500D01*
X121031000Y-103949500D02*
X121031000Y-102679500D01*
D12*
X123761500Y-103949500D02*
X121031000Y-103949500D01*
X121031000Y-102679500D02*
X123761500Y-102679500D01*
D11*
X122745500Y-104660000D02*
X121475500Y-104660000D01*
X122745500Y-107390500D02*
X121475500Y-107390500D01*
D12*
X122745500Y-104660000D02*
X122745500Y-107390500D01*
X121475500Y-107390500D02*
X121475500Y-104660000D01*
X108204000Y-105410000D02*
X108204000Y-92710000D01*
X108204000Y-92710000D02*
X110744000Y-92710000D01*
X110744000Y-92710000D02*
X110744000Y-105410000D01*
X107924000Y-108230000D02*
X107924000Y-106680000D01*
X108204000Y-105410000D02*
X110744000Y-105410000D01*
X111024000Y-106680000D02*
X111024000Y-108230000D01*
X111024000Y-108230000D02*
X107924000Y-108230000D01*
D13*
X138167000Y-106840500D02*
X138167000Y-93340500D01*
X124567000Y-93340500D02*
X124867000Y-93340500D01*
X124567000Y-95640500D02*
X124567000Y-93340500D01*
X125667000Y-95640500D02*
X124567000Y-95640500D01*
X125667000Y-105340500D02*
X125667000Y-95640500D01*
X124567000Y-105340500D02*
X125667000Y-105340500D01*
X124567000Y-106840500D02*
X124567000Y-105340500D01*
X124867000Y-106840500D02*
X124567000Y-106840500D01*
X138167000Y-106840500D02*
X124867000Y-106840500D01*
X138167000Y-93340500D02*
X124867000Y-93340500D01*
D12*
X117401500Y-101351000D02*
X117401500Y-101236000D01*
X117401500Y-92451000D02*
X117401500Y-92566000D01*
X121551500Y-92451000D02*
X121551500Y-92566000D01*
X121551500Y-101351000D02*
X117401500Y-101351000D01*
X121551500Y-92451000D02*
X117401500Y-92451000D01*
X121551500Y-101351000D02*
X122926500Y-101351000D01*
D14*
X120273000Y-104900000D02*
X118373000Y-104900000D01*
X118873000Y-107220000D02*
X120273000Y-107220000D01*
D12*
X115927143Y-106338666D02*
X115974762Y-106386285D01*
X116022381Y-106529142D01*
X116022381Y-106624380D01*
X115974762Y-106767238D01*
X115879524Y-106862476D01*
X115784286Y-106910095D01*
X115593810Y-106957714D01*
X115450952Y-106957714D01*
X115260476Y-106910095D01*
X115165238Y-106862476D01*
X115070000Y-106767238D01*
X115022381Y-106624380D01*
X115022381Y-106529142D01*
X115070000Y-106386285D01*
X115117619Y-106338666D01*
X116022381Y-105386285D02*
X116022381Y-105957714D01*
X116022381Y-105672000D02*
X115022381Y-105672000D01*
X115165238Y-105767238D01*
X115260476Y-105862476D01*
X115308095Y-105957714D01*
X120499143Y-103544666D02*
X120546762Y-103592285D01*
X120594381Y-103735142D01*
X120594381Y-103830380D01*
X120546762Y-103973238D01*
X120451524Y-104068476D01*
X120356286Y-104116095D01*
X120165810Y-104163714D01*
X120022952Y-104163714D01*
X119832476Y-104116095D01*
X119737238Y-104068476D01*
X119642000Y-103973238D01*
X119594381Y-103830380D01*
X119594381Y-103735142D01*
X119642000Y-103592285D01*
X119689619Y-103544666D01*
X119689619Y-103163714D02*
X119642000Y-103116095D01*
X119594381Y-103020857D01*
X119594381Y-102782761D01*
X119642000Y-102687523D01*
X119689619Y-102639904D01*
X119784857Y-102592285D01*
X119880095Y-102592285D01*
X120022952Y-102639904D01*
X120594381Y-103211333D01*
X120594381Y-102592285D01*
X125071143Y-103544666D02*
X125118762Y-103592285D01*
X125166381Y-103735142D01*
X125166381Y-103830380D01*
X125118762Y-103973238D01*
X125023524Y-104068476D01*
X124928286Y-104116095D01*
X124737810Y-104163714D01*
X124594952Y-104163714D01*
X124404476Y-104116095D01*
X124309238Y-104068476D01*
X124214000Y-103973238D01*
X124166381Y-103830380D01*
X124166381Y-103735142D01*
X124214000Y-103592285D01*
X124261619Y-103544666D01*
X124166381Y-103211333D02*
X124166381Y-102592285D01*
X124547333Y-102925619D01*
X124547333Y-102782761D01*
X124594952Y-102687523D01*
X124642571Y-102639904D01*
X124737810Y-102592285D01*
X124975905Y-102592285D01*
X125071143Y-102639904D01*
X125118762Y-102687523D01*
X125166381Y-102782761D01*
X125166381Y-103068476D01*
X125118762Y-103163714D01*
X125071143Y-103211333D01*
X123928143Y-106148166D02*
X123975762Y-106195785D01*
X124023381Y-106338642D01*
X124023381Y-106433880D01*
X123975762Y-106576738D01*
X123880524Y-106671976D01*
X123785286Y-106719595D01*
X123594810Y-106767214D01*
X123451952Y-106767214D01*
X123261476Y-106719595D01*
X123166238Y-106671976D01*
X123071000Y-106576738D01*
X123023381Y-106433880D01*
X123023381Y-106338642D01*
X123071000Y-106195785D01*
X123118619Y-106148166D01*
X123356714Y-105291023D02*
X124023381Y-105291023D01*
X122975762Y-105529119D02*
X123690048Y-105767214D01*
X123690048Y-105148166D01*
X136445667Y-107148381D02*
X136445667Y-107862667D01*
X136398047Y-108005524D01*
X136302809Y-108100762D01*
X136159952Y-108148381D01*
X136064714Y-108148381D01*
X136874238Y-107243619D02*
X136921857Y-107196000D01*
X137017095Y-107148381D01*
X137255191Y-107148381D01*
X137350429Y-107196000D01*
X137398048Y-107243619D01*
X137445667Y-107338857D01*
X137445667Y-107434095D01*
X137398048Y-107576952D01*
X136826619Y-108148381D01*
X137445667Y-108148381D01*
X128119381Y-95054785D02*
X128119381Y-95626214D01*
X128119381Y-95340500D02*
X127119381Y-95340500D01*
X127262238Y-95435738D01*
X127357476Y-95530976D01*
X127405095Y-95626214D01*
X123658381Y-99821905D02*
X124467905Y-99821905D01*
X124563143Y-99774286D01*
X124610762Y-99726667D01*
X124658381Y-99631429D01*
X124658381Y-99440952D01*
X124610762Y-99345714D01*
X124563143Y-99298095D01*
X124467905Y-99250476D01*
X123658381Y-99250476D01*
X123753619Y-98821905D02*
X123706000Y-98774286D01*
X123658381Y-98679048D01*
X123658381Y-98440952D01*
X123706000Y-98345714D01*
X123753619Y-98298095D01*
X123848857Y-98250476D01*
X123944095Y-98250476D01*
X124086952Y-98298095D01*
X124658381Y-98869524D01*
X124658381Y-98250476D01*
X118872095Y-107465881D02*
X118872095Y-108275405D01*
X118919714Y-108370643D01*
X118967333Y-108418262D01*
X119062571Y-108465881D01*
X119253048Y-108465881D01*
X119348286Y-108418262D01*
X119395905Y-108370643D01*
X119443524Y-108275405D01*
X119443524Y-107465881D01*
X120443524Y-108465881D02*
X119872095Y-108465881D01*
X120157809Y-108465881D02*
X120157809Y-107465881D01*
X120062571Y-107608738D01*
X119967333Y-107703976D01*
X119872095Y-107751595D01*
M02*
