M48
;DRILL file {KiCad 4.0.5-e0-6337~49~ubuntu16.04.1} date Sat Aug  5 15:29:30 2017
;FORMAT={-:-/ absolute / metric / decimal}
FMAT,2
METRIC,TZ
T1C0.813
T2C1.016
%
G90
G05
M71
T1
X101.219Y-63.5
X101.219Y-64.77
X101.219Y-66.04
X101.219Y-67.31
X101.219Y-68.58
X102.489Y-63.5
X102.489Y-64.77
X102.489Y-66.04
X102.489Y-67.31
X102.489Y-68.58
T2
X77.47Y-64.643
X77.47Y-67.183
X77.47Y-69.723
X77.47Y-72.263
X77.47Y-74.803
X77.47Y-77.343
X77.47Y-79.883
X77.47Y-82.423
X77.47Y-84.963
X77.47Y-87.503
X80.01Y-64.643
X80.01Y-67.183
X80.01Y-69.723
X80.01Y-72.263
X80.01Y-74.803
X80.01Y-77.343
X80.01Y-79.883
X80.01Y-82.423
X80.01Y-84.963
X80.01Y-87.503
X89.916Y-64.77
X89.916Y-67.31
X89.916Y-69.85
X89.916Y-72.39
X89.916Y-74.93
X90.17Y-90.17
X92.456Y-64.77
X92.456Y-67.31
X92.456Y-69.85
X92.456Y-72.39
X92.456Y-74.93
X92.71Y-90.17
X95.25Y-90.17
X97.79Y-90.17
X100.33Y-90.17
T0
M30
