%TF.GenerationSoftware,KiCad,Pcbnew,4.0.5-e0-6337~49~ubuntu16.04.1*%
%TF.CreationDate,2017-08-14T13:45:05-07:00*%
%TF.ProjectId,atsamd21g18-jtag-stlinkv2-adapter,617473616D6432316731382D6A746167,1.0*%
%TF.FileFunction,Copper,L2,Bot,Signal*%
%FSLAX46Y46*%
G04 Gerber Fmt 4.6, Leading zero omitted, Abs format (unit mm)*
G04 Created by KiCad (PCBNEW 4.0.5-e0-6337~49~ubuntu16.04.1) date Mon Aug 14 13:45:05 2017*
%MOMM*%
%LPD*%
G01*
G04 APERTURE LIST*
%ADD10C,0.350000*%
%ADD11R,1.727200X2.032000*%
%ADD12O,1.727200X2.032000*%
%ADD13C,1.524000*%
%ADD14C,1.117600*%
%ADD15C,0.330200*%
%ADD16C,0.254000*%
%ADD17C,0.350000*%
G04 APERTURE END LIST*
D10*
D11*
X54864000Y-65125600D03*
D12*
X52324000Y-65125600D03*
X49784000Y-65125600D03*
X47244000Y-65125600D03*
X44704000Y-65125600D03*
D13*
X44450000Y-49885600D03*
X44450000Y-47345600D03*
X44450000Y-44805600D03*
X44450000Y-42265600D03*
X44450000Y-39725600D03*
X46990000Y-49885600D03*
X46990000Y-47345600D03*
X46990000Y-44805600D03*
X46990000Y-42265600D03*
X46990000Y-39725600D03*
X32004000Y-62458600D03*
X32004000Y-59918600D03*
X32004000Y-57378600D03*
X32004000Y-54838600D03*
X32004000Y-52298600D03*
X34544000Y-62458600D03*
X34544000Y-59918600D03*
X34544000Y-57378600D03*
X34544000Y-54838600D03*
X34544000Y-52298600D03*
X34544000Y-42138600D03*
X32004000Y-44678600D03*
X32004000Y-42138600D03*
X32004000Y-39598600D03*
X34544000Y-44678600D03*
X34544000Y-39598600D03*
X34544000Y-47218600D03*
X32004000Y-49758600D03*
X32004000Y-47218600D03*
X34544000Y-49758600D03*
D14*
X55753000Y-43535600D03*
X57023000Y-43535600D03*
X55753000Y-42265600D03*
X57023000Y-42265600D03*
X55753000Y-40995600D03*
X57023000Y-40995600D03*
X55753000Y-39725600D03*
X57023000Y-39725600D03*
X55753000Y-38455600D03*
X57023000Y-38455600D03*
D15*
X54864000Y-65125600D02*
X54864000Y-45909486D01*
X54864000Y-45909486D02*
X57023000Y-43750486D01*
X57023000Y-43750486D02*
X57023000Y-43535600D01*
X57023000Y-42265600D02*
X58674000Y-42265600D01*
X57023000Y-40995600D02*
X58674000Y-40995600D01*
X57023000Y-39725600D02*
X58674000Y-39725600D01*
X52324000Y-65125600D02*
X52324000Y-46964600D01*
X52324000Y-46964600D02*
X55753000Y-43535600D01*
X54926817Y-42265600D02*
X55753000Y-42265600D01*
X50977800Y-46214617D02*
X54926817Y-42265600D01*
X50977800Y-63779400D02*
X50977800Y-46214617D01*
X49784000Y-64973200D02*
X50977800Y-63779400D01*
X49784000Y-65125600D02*
X49784000Y-64973200D01*
X49784000Y-62433200D02*
X49784000Y-43598417D01*
X49784000Y-43598417D02*
X54926817Y-38455600D01*
X54926817Y-38455600D02*
X55753000Y-38455600D01*
X47244000Y-65125600D02*
X47244000Y-64973200D01*
X47244000Y-64973200D02*
X49784000Y-62433200D01*
D16*
G36*
X58098520Y-34238882D02*
X58687304Y-34632296D01*
X59080719Y-35221082D01*
X59232800Y-35985644D01*
X59232800Y-66325556D01*
X59080719Y-67090118D01*
X58687304Y-67678904D01*
X58098520Y-68072318D01*
X57333955Y-68224400D01*
X30804044Y-68224400D01*
X30039482Y-68072319D01*
X29450696Y-67678904D01*
X29057282Y-67090120D01*
X28905200Y-66325555D01*
X28905200Y-65487513D01*
X43218816Y-65487513D01*
X43412046Y-66039920D01*
X43801964Y-66476332D01*
X44329209Y-66730309D01*
X44344974Y-66732958D01*
X44577000Y-66611817D01*
X44577000Y-65252600D01*
X43363076Y-65252600D01*
X43218816Y-65487513D01*
X28905200Y-65487513D01*
X28905200Y-64763687D01*
X43218816Y-64763687D01*
X43363076Y-64998600D01*
X44577000Y-64998600D01*
X44577000Y-63639383D01*
X44831000Y-63639383D01*
X44831000Y-64998600D01*
X44851000Y-64998600D01*
X44851000Y-65252600D01*
X44831000Y-65252600D01*
X44831000Y-66611817D01*
X45063026Y-66732958D01*
X45078791Y-66730309D01*
X45606036Y-66476332D01*
X45977539Y-66060531D01*
X46184330Y-66370015D01*
X46670511Y-66694871D01*
X47244000Y-66808945D01*
X47817489Y-66694871D01*
X48303670Y-66370015D01*
X48514000Y-66055234D01*
X48724330Y-66370015D01*
X49210511Y-66694871D01*
X49784000Y-66808945D01*
X50357489Y-66694871D01*
X50843670Y-66370015D01*
X51054000Y-66055234D01*
X51264330Y-66370015D01*
X51750511Y-66694871D01*
X52324000Y-66808945D01*
X52897489Y-66694871D01*
X53383670Y-66370015D01*
X53393243Y-66355687D01*
X53397238Y-66376917D01*
X53536310Y-66593041D01*
X53748510Y-66738031D01*
X54000400Y-66789040D01*
X55727600Y-66789040D01*
X55962917Y-66744762D01*
X56179041Y-66605690D01*
X56324031Y-66393490D01*
X56375040Y-66141600D01*
X56375040Y-64109600D01*
X56330762Y-63874283D01*
X56191690Y-63658159D01*
X55979490Y-63513169D01*
X55727600Y-63462160D01*
X55664100Y-63462160D01*
X55664100Y-46240898D01*
X57175464Y-44729534D01*
X57259420Y-44729607D01*
X57698350Y-44548245D01*
X58034464Y-44212716D01*
X58216592Y-43774103D01*
X58217007Y-43299180D01*
X58044211Y-42880981D01*
X58076999Y-42874395D01*
X58229744Y-42424705D01*
X58198774Y-41950793D01*
X58076999Y-41656805D01*
X57946531Y-41630600D01*
X58076999Y-41604395D01*
X58229744Y-41154705D01*
X58198774Y-40680793D01*
X58076999Y-40386805D01*
X57946531Y-40360600D01*
X58076999Y-40334395D01*
X58229744Y-39884705D01*
X58198774Y-39410793D01*
X58076999Y-39116805D01*
X57946531Y-39090600D01*
X58076999Y-39064395D01*
X58229744Y-38614705D01*
X58198774Y-38140793D01*
X58076999Y-37846805D01*
X57855824Y-37802381D01*
X57202605Y-38455600D01*
X57216748Y-38469743D01*
X57166622Y-38519868D01*
X56946732Y-38534238D01*
X56946916Y-38323794D01*
X57008858Y-38261853D01*
X57023000Y-38275995D01*
X57676219Y-37622776D01*
X57631795Y-37401601D01*
X57182105Y-37248856D01*
X56708193Y-37279826D01*
X56414205Y-37401601D01*
X56407544Y-37434763D01*
X55991503Y-37262008D01*
X55516580Y-37261593D01*
X55077650Y-37442955D01*
X54849286Y-37670922D01*
X54620632Y-37716404D01*
X54361061Y-37889844D01*
X49218244Y-43032661D01*
X49044804Y-43292232D01*
X48983900Y-43598417D01*
X48983900Y-62101788D01*
X47577163Y-63508525D01*
X47244000Y-63442255D01*
X46670511Y-63556329D01*
X46184330Y-63881185D01*
X45977539Y-64190669D01*
X45606036Y-63774868D01*
X45078791Y-63520891D01*
X45063026Y-63518242D01*
X44831000Y-63639383D01*
X44577000Y-63639383D01*
X44344974Y-63518242D01*
X44329209Y-63520891D01*
X43801964Y-63774868D01*
X43412046Y-64211280D01*
X43218816Y-64763687D01*
X28905200Y-64763687D01*
X28905200Y-62735261D01*
X30606758Y-62735261D01*
X30818990Y-63248903D01*
X31211630Y-63642229D01*
X31724900Y-63855357D01*
X32280661Y-63855842D01*
X32794303Y-63643610D01*
X33187629Y-63250970D01*
X33273949Y-63043088D01*
X33358990Y-63248903D01*
X33751630Y-63642229D01*
X34264900Y-63855357D01*
X34820661Y-63855842D01*
X35334303Y-63643610D01*
X35727629Y-63250970D01*
X35940757Y-62737700D01*
X35941242Y-62181939D01*
X35729010Y-61668297D01*
X35336370Y-61274971D01*
X35144273Y-61195205D01*
X35275143Y-61140997D01*
X35344608Y-60898813D01*
X34544000Y-60098205D01*
X33743392Y-60898813D01*
X33812857Y-61140997D01*
X33953318Y-61191109D01*
X33753697Y-61273590D01*
X33360371Y-61666230D01*
X33274051Y-61874112D01*
X33189010Y-61668297D01*
X32796370Y-61274971D01*
X32604273Y-61195205D01*
X32735143Y-61140997D01*
X32804608Y-60898813D01*
X32004000Y-60098205D01*
X31203392Y-60898813D01*
X31272857Y-61140997D01*
X31413318Y-61191109D01*
X31213697Y-61273590D01*
X30820371Y-61666230D01*
X30607243Y-62179500D01*
X30606758Y-62735261D01*
X28905200Y-62735261D01*
X28905200Y-59710902D01*
X30594856Y-59710902D01*
X30622638Y-60265968D01*
X30781603Y-60649743D01*
X31023787Y-60719208D01*
X31824395Y-59918600D01*
X32183605Y-59918600D01*
X32984213Y-60719208D01*
X33226397Y-60649743D01*
X33270453Y-60526256D01*
X33321603Y-60649743D01*
X33563787Y-60719208D01*
X34364395Y-59918600D01*
X34723605Y-59918600D01*
X35524213Y-60719208D01*
X35766397Y-60649743D01*
X35953144Y-60126298D01*
X35925362Y-59571232D01*
X35766397Y-59187457D01*
X35524213Y-59117992D01*
X34723605Y-59918600D01*
X34364395Y-59918600D01*
X33563787Y-59117992D01*
X33321603Y-59187457D01*
X33277547Y-59310944D01*
X33226397Y-59187457D01*
X32984213Y-59117992D01*
X32183605Y-59918600D01*
X31824395Y-59918600D01*
X31023787Y-59117992D01*
X30781603Y-59187457D01*
X30594856Y-59710902D01*
X28905200Y-59710902D01*
X28905200Y-58358813D01*
X31203392Y-58358813D01*
X31272857Y-58600997D01*
X31396344Y-58645053D01*
X31272857Y-58696203D01*
X31203392Y-58938387D01*
X32004000Y-59738995D01*
X32804608Y-58938387D01*
X32735143Y-58696203D01*
X32611656Y-58652147D01*
X32735143Y-58600997D01*
X32804608Y-58358813D01*
X33743392Y-58358813D01*
X33812857Y-58600997D01*
X33936344Y-58645053D01*
X33812857Y-58696203D01*
X33743392Y-58938387D01*
X34544000Y-59738995D01*
X35344608Y-58938387D01*
X35275143Y-58696203D01*
X35151656Y-58652147D01*
X35275143Y-58600997D01*
X35344608Y-58358813D01*
X34544000Y-57558205D01*
X33743392Y-58358813D01*
X32804608Y-58358813D01*
X32004000Y-57558205D01*
X31203392Y-58358813D01*
X28905200Y-58358813D01*
X28905200Y-57170902D01*
X30594856Y-57170902D01*
X30622638Y-57725968D01*
X30781603Y-58109743D01*
X31023787Y-58179208D01*
X31824395Y-57378600D01*
X32183605Y-57378600D01*
X32984213Y-58179208D01*
X33226397Y-58109743D01*
X33270453Y-57986256D01*
X33321603Y-58109743D01*
X33563787Y-58179208D01*
X34364395Y-57378600D01*
X34723605Y-57378600D01*
X35524213Y-58179208D01*
X35766397Y-58109743D01*
X35953144Y-57586298D01*
X35925362Y-57031232D01*
X35766397Y-56647457D01*
X35524213Y-56577992D01*
X34723605Y-57378600D01*
X34364395Y-57378600D01*
X33563787Y-56577992D01*
X33321603Y-56647457D01*
X33277547Y-56770944D01*
X33226397Y-56647457D01*
X32984213Y-56577992D01*
X32183605Y-57378600D01*
X31824395Y-57378600D01*
X31023787Y-56577992D01*
X30781603Y-56647457D01*
X30594856Y-57170902D01*
X28905200Y-57170902D01*
X28905200Y-55818813D01*
X31203392Y-55818813D01*
X31272857Y-56060997D01*
X31396344Y-56105053D01*
X31272857Y-56156203D01*
X31203392Y-56398387D01*
X32004000Y-57198995D01*
X32804608Y-56398387D01*
X32735143Y-56156203D01*
X32611656Y-56112147D01*
X32735143Y-56060997D01*
X32804608Y-55818813D01*
X32004000Y-55018205D01*
X31203392Y-55818813D01*
X28905200Y-55818813D01*
X28905200Y-54630902D01*
X30594856Y-54630902D01*
X30622638Y-55185968D01*
X30781603Y-55569743D01*
X31023787Y-55639208D01*
X31824395Y-54838600D01*
X31023787Y-54037992D01*
X30781603Y-54107457D01*
X30594856Y-54630902D01*
X28905200Y-54630902D01*
X28905200Y-53278813D01*
X31203392Y-53278813D01*
X31272857Y-53520997D01*
X31396344Y-53565053D01*
X31272857Y-53616203D01*
X31203392Y-53858387D01*
X32004000Y-54658995D01*
X32804608Y-53858387D01*
X32735143Y-53616203D01*
X32611656Y-53572147D01*
X32735143Y-53520997D01*
X32804608Y-53278813D01*
X32004000Y-52478205D01*
X31203392Y-53278813D01*
X28905200Y-53278813D01*
X28905200Y-52090902D01*
X30594856Y-52090902D01*
X30622638Y-52645968D01*
X30781603Y-53029743D01*
X31023787Y-53099208D01*
X31824395Y-52298600D01*
X31023787Y-51497992D01*
X30781603Y-51567457D01*
X30594856Y-52090902D01*
X28905200Y-52090902D01*
X28905200Y-50738813D01*
X31203392Y-50738813D01*
X31272857Y-50980997D01*
X31396344Y-51025053D01*
X31272857Y-51076203D01*
X31203392Y-51318387D01*
X32004000Y-52118995D01*
X32804608Y-51318387D01*
X32735143Y-51076203D01*
X32611656Y-51032147D01*
X32735143Y-50980997D01*
X32804608Y-50738813D01*
X32004000Y-49938205D01*
X31203392Y-50738813D01*
X28905200Y-50738813D01*
X28905200Y-49550902D01*
X30594856Y-49550902D01*
X30622638Y-50105968D01*
X30781603Y-50489743D01*
X31023787Y-50559208D01*
X31824395Y-49758600D01*
X31023787Y-48957992D01*
X30781603Y-49027457D01*
X30594856Y-49550902D01*
X28905200Y-49550902D01*
X28905200Y-48198813D01*
X31203392Y-48198813D01*
X31272857Y-48440997D01*
X31396344Y-48485053D01*
X31272857Y-48536203D01*
X31203392Y-48778387D01*
X32004000Y-49578995D01*
X32804608Y-48778387D01*
X32735143Y-48536203D01*
X32611656Y-48492147D01*
X32735143Y-48440997D01*
X32804608Y-48198813D01*
X32004000Y-47398205D01*
X31203392Y-48198813D01*
X28905200Y-48198813D01*
X28905200Y-47010902D01*
X30594856Y-47010902D01*
X30622638Y-47565968D01*
X30781603Y-47949743D01*
X31023787Y-48019208D01*
X31824395Y-47218600D01*
X31023787Y-46417992D01*
X30781603Y-46487457D01*
X30594856Y-47010902D01*
X28905200Y-47010902D01*
X28905200Y-45658813D01*
X31203392Y-45658813D01*
X31272857Y-45900997D01*
X31396344Y-45945053D01*
X31272857Y-45996203D01*
X31203392Y-46238387D01*
X32004000Y-47038995D01*
X32804608Y-46238387D01*
X32735143Y-45996203D01*
X32611656Y-45952147D01*
X32735143Y-45900997D01*
X32804608Y-45658813D01*
X32004000Y-44858205D01*
X31203392Y-45658813D01*
X28905200Y-45658813D01*
X28905200Y-44470902D01*
X30594856Y-44470902D01*
X30622638Y-45025968D01*
X30781603Y-45409743D01*
X31023787Y-45479208D01*
X31824395Y-44678600D01*
X31023787Y-43877992D01*
X30781603Y-43947457D01*
X30594856Y-44470902D01*
X28905200Y-44470902D01*
X28905200Y-43118813D01*
X31203392Y-43118813D01*
X31272857Y-43360997D01*
X31396344Y-43405053D01*
X31272857Y-43456203D01*
X31203392Y-43698387D01*
X32004000Y-44498995D01*
X32804608Y-43698387D01*
X32735143Y-43456203D01*
X32611656Y-43412147D01*
X32735143Y-43360997D01*
X32804608Y-43118813D01*
X32004000Y-42318205D01*
X31203392Y-43118813D01*
X28905200Y-43118813D01*
X28905200Y-41930902D01*
X30594856Y-41930902D01*
X30622638Y-42485968D01*
X30781603Y-42869743D01*
X31023787Y-42939208D01*
X31824395Y-42138600D01*
X31023787Y-41337992D01*
X30781603Y-41407457D01*
X30594856Y-41930902D01*
X28905200Y-41930902D01*
X28905200Y-40578813D01*
X31203392Y-40578813D01*
X31272857Y-40820997D01*
X31396344Y-40865053D01*
X31272857Y-40916203D01*
X31203392Y-41158387D01*
X32004000Y-41958995D01*
X32804608Y-41158387D01*
X32735143Y-40916203D01*
X32611656Y-40872147D01*
X32735143Y-40820997D01*
X32804608Y-40578813D01*
X32004000Y-39778205D01*
X31203392Y-40578813D01*
X28905200Y-40578813D01*
X28905200Y-39390902D01*
X30594856Y-39390902D01*
X30622638Y-39945968D01*
X30781603Y-40329743D01*
X31023787Y-40399208D01*
X31824395Y-39598600D01*
X32183605Y-39598600D01*
X32984213Y-40399208D01*
X33226397Y-40329743D01*
X33276509Y-40189282D01*
X33358990Y-40388903D01*
X33751630Y-40782229D01*
X33959512Y-40868549D01*
X33753697Y-40953590D01*
X33360371Y-41346230D01*
X33280605Y-41538327D01*
X33226397Y-41407457D01*
X32984213Y-41337992D01*
X32183605Y-42138600D01*
X32984213Y-42939208D01*
X33226397Y-42869743D01*
X33276509Y-42729282D01*
X33358990Y-42928903D01*
X33751630Y-43322229D01*
X33959512Y-43408549D01*
X33753697Y-43493590D01*
X33360371Y-43886230D01*
X33280605Y-44078327D01*
X33226397Y-43947457D01*
X32984213Y-43877992D01*
X32183605Y-44678600D01*
X32984213Y-45479208D01*
X33226397Y-45409743D01*
X33276509Y-45269282D01*
X33358990Y-45468903D01*
X33751630Y-45862229D01*
X33959512Y-45948549D01*
X33753697Y-46033590D01*
X33360371Y-46426230D01*
X33280605Y-46618327D01*
X33226397Y-46487457D01*
X32984213Y-46417992D01*
X32183605Y-47218600D01*
X32984213Y-48019208D01*
X33226397Y-47949743D01*
X33276509Y-47809282D01*
X33358990Y-48008903D01*
X33751630Y-48402229D01*
X33959512Y-48488549D01*
X33753697Y-48573590D01*
X33360371Y-48966230D01*
X33280605Y-49158327D01*
X33226397Y-49027457D01*
X32984213Y-48957992D01*
X32183605Y-49758600D01*
X32984213Y-50559208D01*
X33226397Y-50489743D01*
X33276509Y-50349282D01*
X33358990Y-50548903D01*
X33751630Y-50942229D01*
X33959512Y-51028549D01*
X33753697Y-51113590D01*
X33360371Y-51506230D01*
X33280605Y-51698327D01*
X33226397Y-51567457D01*
X32984213Y-51497992D01*
X32183605Y-52298600D01*
X32984213Y-53099208D01*
X33226397Y-53029743D01*
X33276509Y-52889282D01*
X33358990Y-53088903D01*
X33751630Y-53482229D01*
X33959512Y-53568549D01*
X33753697Y-53653590D01*
X33360371Y-54046230D01*
X33280605Y-54238327D01*
X33226397Y-54107457D01*
X32984213Y-54037992D01*
X32183605Y-54838600D01*
X32984213Y-55639208D01*
X33226397Y-55569743D01*
X33276509Y-55429282D01*
X33358990Y-55628903D01*
X33751630Y-56022229D01*
X33943727Y-56101995D01*
X33812857Y-56156203D01*
X33743392Y-56398387D01*
X34544000Y-57198995D01*
X35344608Y-56398387D01*
X35275143Y-56156203D01*
X35134682Y-56106091D01*
X35334303Y-56023610D01*
X35727629Y-55630970D01*
X35940757Y-55117700D01*
X35941242Y-54561939D01*
X35729010Y-54048297D01*
X35336370Y-53654971D01*
X35128488Y-53568651D01*
X35334303Y-53483610D01*
X35727629Y-53090970D01*
X35940757Y-52577700D01*
X35941242Y-52021939D01*
X35729010Y-51508297D01*
X35336370Y-51114971D01*
X35128488Y-51028651D01*
X35334303Y-50943610D01*
X35727629Y-50550970D01*
X35940757Y-50037700D01*
X35941242Y-49481939D01*
X35729010Y-48968297D01*
X35336370Y-48574971D01*
X35128488Y-48488651D01*
X35334303Y-48403610D01*
X35727629Y-48010970D01*
X35940757Y-47497700D01*
X35941242Y-46941939D01*
X35729010Y-46428297D01*
X35336370Y-46034971D01*
X35128488Y-45948651D01*
X35334303Y-45863610D01*
X35727629Y-45470970D01*
X35940757Y-44957700D01*
X35941242Y-44401939D01*
X35729010Y-43888297D01*
X35336370Y-43494971D01*
X35128488Y-43408651D01*
X35334303Y-43323610D01*
X35727629Y-42930970D01*
X35940757Y-42417700D01*
X35941242Y-41861939D01*
X35729010Y-41348297D01*
X35336370Y-40954971D01*
X35128488Y-40868651D01*
X35334303Y-40783610D01*
X35727629Y-40390970D01*
X35889034Y-40002261D01*
X43052758Y-40002261D01*
X43264990Y-40515903D01*
X43657630Y-40909229D01*
X43865512Y-40995549D01*
X43659697Y-41080590D01*
X43266371Y-41473230D01*
X43053243Y-41986500D01*
X43052758Y-42542261D01*
X43264990Y-43055903D01*
X43657630Y-43449229D01*
X43865512Y-43535549D01*
X43659697Y-43620590D01*
X43266371Y-44013230D01*
X43053243Y-44526500D01*
X43052758Y-45082261D01*
X43264990Y-45595903D01*
X43657630Y-45989229D01*
X43865512Y-46075549D01*
X43659697Y-46160590D01*
X43266371Y-46553230D01*
X43053243Y-47066500D01*
X43052758Y-47622261D01*
X43264990Y-48135903D01*
X43657630Y-48529229D01*
X43865512Y-48615549D01*
X43659697Y-48700590D01*
X43266371Y-49093230D01*
X43053243Y-49606500D01*
X43052758Y-50162261D01*
X43264990Y-50675903D01*
X43657630Y-51069229D01*
X44170900Y-51282357D01*
X44726661Y-51282842D01*
X45240303Y-51070610D01*
X45633629Y-50677970D01*
X45719949Y-50470088D01*
X45804990Y-50675903D01*
X46197630Y-51069229D01*
X46710900Y-51282357D01*
X47266661Y-51282842D01*
X47780303Y-51070610D01*
X48173629Y-50677970D01*
X48386757Y-50164700D01*
X48387242Y-49608939D01*
X48175010Y-49095297D01*
X47782370Y-48701971D01*
X47590273Y-48622205D01*
X47721143Y-48567997D01*
X47790608Y-48325813D01*
X46990000Y-47525205D01*
X46189392Y-48325813D01*
X46258857Y-48567997D01*
X46399318Y-48618109D01*
X46199697Y-48700590D01*
X45806371Y-49093230D01*
X45720051Y-49301112D01*
X45635010Y-49095297D01*
X45242370Y-48701971D01*
X45034488Y-48615651D01*
X45240303Y-48530610D01*
X45633629Y-48137970D01*
X45713395Y-47945873D01*
X45767603Y-48076743D01*
X46009787Y-48146208D01*
X46810395Y-47345600D01*
X47169605Y-47345600D01*
X47970213Y-48146208D01*
X48212397Y-48076743D01*
X48399144Y-47553298D01*
X48371362Y-46998232D01*
X48212397Y-46614457D01*
X47970213Y-46544992D01*
X47169605Y-47345600D01*
X46810395Y-47345600D01*
X46009787Y-46544992D01*
X45767603Y-46614457D01*
X45717491Y-46754918D01*
X45635010Y-46555297D01*
X45242370Y-46161971D01*
X45034488Y-46075651D01*
X45240303Y-45990610D01*
X45445457Y-45785813D01*
X46189392Y-45785813D01*
X46258857Y-46027997D01*
X46382344Y-46072053D01*
X46258857Y-46123203D01*
X46189392Y-46365387D01*
X46990000Y-47165995D01*
X47790608Y-46365387D01*
X47721143Y-46123203D01*
X47597656Y-46079147D01*
X47721143Y-46027997D01*
X47790608Y-45785813D01*
X46990000Y-44985205D01*
X46189392Y-45785813D01*
X45445457Y-45785813D01*
X45633629Y-45597970D01*
X45713395Y-45405873D01*
X45767603Y-45536743D01*
X46009787Y-45606208D01*
X46810395Y-44805600D01*
X47169605Y-44805600D01*
X47970213Y-45606208D01*
X48212397Y-45536743D01*
X48399144Y-45013298D01*
X48371362Y-44458232D01*
X48212397Y-44074457D01*
X47970213Y-44004992D01*
X47169605Y-44805600D01*
X46810395Y-44805600D01*
X46009787Y-44004992D01*
X45767603Y-44074457D01*
X45717491Y-44214918D01*
X45635010Y-44015297D01*
X45242370Y-43621971D01*
X45034488Y-43535651D01*
X45240303Y-43450610D01*
X45445457Y-43245813D01*
X46189392Y-43245813D01*
X46258857Y-43487997D01*
X46382344Y-43532053D01*
X46258857Y-43583203D01*
X46189392Y-43825387D01*
X46990000Y-44625995D01*
X47790608Y-43825387D01*
X47721143Y-43583203D01*
X47597656Y-43539147D01*
X47721143Y-43487997D01*
X47790608Y-43245813D01*
X46990000Y-42445205D01*
X46189392Y-43245813D01*
X45445457Y-43245813D01*
X45633629Y-43057970D01*
X45713395Y-42865873D01*
X45767603Y-42996743D01*
X46009787Y-43066208D01*
X46810395Y-42265600D01*
X47169605Y-42265600D01*
X47970213Y-43066208D01*
X48212397Y-42996743D01*
X48399144Y-42473298D01*
X48371362Y-41918232D01*
X48212397Y-41534457D01*
X47970213Y-41464992D01*
X47169605Y-42265600D01*
X46810395Y-42265600D01*
X46009787Y-41464992D01*
X45767603Y-41534457D01*
X45717491Y-41674918D01*
X45635010Y-41475297D01*
X45242370Y-41081971D01*
X45034488Y-40995651D01*
X45240303Y-40910610D01*
X45445457Y-40705813D01*
X46189392Y-40705813D01*
X46258857Y-40947997D01*
X46382344Y-40992053D01*
X46258857Y-41043203D01*
X46189392Y-41285387D01*
X46990000Y-42085995D01*
X47790608Y-41285387D01*
X47721143Y-41043203D01*
X47597656Y-40999147D01*
X47721143Y-40947997D01*
X47790608Y-40705813D01*
X46990000Y-39905205D01*
X46189392Y-40705813D01*
X45445457Y-40705813D01*
X45633629Y-40517970D01*
X45713395Y-40325873D01*
X45767603Y-40456743D01*
X46009787Y-40526208D01*
X46810395Y-39725600D01*
X47169605Y-39725600D01*
X47970213Y-40526208D01*
X48212397Y-40456743D01*
X48399144Y-39933298D01*
X48371362Y-39378232D01*
X48212397Y-38994457D01*
X47970213Y-38924992D01*
X47169605Y-39725600D01*
X46810395Y-39725600D01*
X46009787Y-38924992D01*
X45767603Y-38994457D01*
X45717491Y-39134918D01*
X45635010Y-38935297D01*
X45445432Y-38745387D01*
X46189392Y-38745387D01*
X46990000Y-39545995D01*
X47790608Y-38745387D01*
X47721143Y-38503203D01*
X47197698Y-38316456D01*
X46642632Y-38344238D01*
X46258857Y-38503203D01*
X46189392Y-38745387D01*
X45445432Y-38745387D01*
X45242370Y-38541971D01*
X44729100Y-38328843D01*
X44173339Y-38328358D01*
X43659697Y-38540590D01*
X43266371Y-38933230D01*
X43053243Y-39446500D01*
X43052758Y-40002261D01*
X35889034Y-40002261D01*
X35940757Y-39877700D01*
X35941242Y-39321939D01*
X35729010Y-38808297D01*
X35336370Y-38414971D01*
X34823100Y-38201843D01*
X34267339Y-38201358D01*
X33753697Y-38413590D01*
X33360371Y-38806230D01*
X33280605Y-38998327D01*
X33226397Y-38867457D01*
X32984213Y-38797992D01*
X32183605Y-39598600D01*
X31824395Y-39598600D01*
X31023787Y-38797992D01*
X30781603Y-38867457D01*
X30594856Y-39390902D01*
X28905200Y-39390902D01*
X28905200Y-38618387D01*
X31203392Y-38618387D01*
X32004000Y-39418995D01*
X32804608Y-38618387D01*
X32735143Y-38376203D01*
X32211698Y-38189456D01*
X31656632Y-38217238D01*
X31272857Y-38376203D01*
X31203392Y-38618387D01*
X28905200Y-38618387D01*
X28905200Y-35985645D01*
X29057282Y-35221080D01*
X29450696Y-34632296D01*
X30039482Y-34238881D01*
X30804044Y-34086800D01*
X57333955Y-34086800D01*
X58098520Y-34238882D01*
X58098520Y-34238882D01*
G37*
X58098520Y-34238882D02*
X58687304Y-34632296D01*
X59080719Y-35221082D01*
X59232800Y-35985644D01*
X59232800Y-66325556D01*
X59080719Y-67090118D01*
X58687304Y-67678904D01*
X58098520Y-68072318D01*
X57333955Y-68224400D01*
X30804044Y-68224400D01*
X30039482Y-68072319D01*
X29450696Y-67678904D01*
X29057282Y-67090120D01*
X28905200Y-66325555D01*
X28905200Y-65487513D01*
X43218816Y-65487513D01*
X43412046Y-66039920D01*
X43801964Y-66476332D01*
X44329209Y-66730309D01*
X44344974Y-66732958D01*
X44577000Y-66611817D01*
X44577000Y-65252600D01*
X43363076Y-65252600D01*
X43218816Y-65487513D01*
X28905200Y-65487513D01*
X28905200Y-64763687D01*
X43218816Y-64763687D01*
X43363076Y-64998600D01*
X44577000Y-64998600D01*
X44577000Y-63639383D01*
X44831000Y-63639383D01*
X44831000Y-64998600D01*
X44851000Y-64998600D01*
X44851000Y-65252600D01*
X44831000Y-65252600D01*
X44831000Y-66611817D01*
X45063026Y-66732958D01*
X45078791Y-66730309D01*
X45606036Y-66476332D01*
X45977539Y-66060531D01*
X46184330Y-66370015D01*
X46670511Y-66694871D01*
X47244000Y-66808945D01*
X47817489Y-66694871D01*
X48303670Y-66370015D01*
X48514000Y-66055234D01*
X48724330Y-66370015D01*
X49210511Y-66694871D01*
X49784000Y-66808945D01*
X50357489Y-66694871D01*
X50843670Y-66370015D01*
X51054000Y-66055234D01*
X51264330Y-66370015D01*
X51750511Y-66694871D01*
X52324000Y-66808945D01*
X52897489Y-66694871D01*
X53383670Y-66370015D01*
X53393243Y-66355687D01*
X53397238Y-66376917D01*
X53536310Y-66593041D01*
X53748510Y-66738031D01*
X54000400Y-66789040D01*
X55727600Y-66789040D01*
X55962917Y-66744762D01*
X56179041Y-66605690D01*
X56324031Y-66393490D01*
X56375040Y-66141600D01*
X56375040Y-64109600D01*
X56330762Y-63874283D01*
X56191690Y-63658159D01*
X55979490Y-63513169D01*
X55727600Y-63462160D01*
X55664100Y-63462160D01*
X55664100Y-46240898D01*
X57175464Y-44729534D01*
X57259420Y-44729607D01*
X57698350Y-44548245D01*
X58034464Y-44212716D01*
X58216592Y-43774103D01*
X58217007Y-43299180D01*
X58044211Y-42880981D01*
X58076999Y-42874395D01*
X58229744Y-42424705D01*
X58198774Y-41950793D01*
X58076999Y-41656805D01*
X57946531Y-41630600D01*
X58076999Y-41604395D01*
X58229744Y-41154705D01*
X58198774Y-40680793D01*
X58076999Y-40386805D01*
X57946531Y-40360600D01*
X58076999Y-40334395D01*
X58229744Y-39884705D01*
X58198774Y-39410793D01*
X58076999Y-39116805D01*
X57946531Y-39090600D01*
X58076999Y-39064395D01*
X58229744Y-38614705D01*
X58198774Y-38140793D01*
X58076999Y-37846805D01*
X57855824Y-37802381D01*
X57202605Y-38455600D01*
X57216748Y-38469743D01*
X57166622Y-38519868D01*
X56946732Y-38534238D01*
X56946916Y-38323794D01*
X57008858Y-38261853D01*
X57023000Y-38275995D01*
X57676219Y-37622776D01*
X57631795Y-37401601D01*
X57182105Y-37248856D01*
X56708193Y-37279826D01*
X56414205Y-37401601D01*
X56407544Y-37434763D01*
X55991503Y-37262008D01*
X55516580Y-37261593D01*
X55077650Y-37442955D01*
X54849286Y-37670922D01*
X54620632Y-37716404D01*
X54361061Y-37889844D01*
X49218244Y-43032661D01*
X49044804Y-43292232D01*
X48983900Y-43598417D01*
X48983900Y-62101788D01*
X47577163Y-63508525D01*
X47244000Y-63442255D01*
X46670511Y-63556329D01*
X46184330Y-63881185D01*
X45977539Y-64190669D01*
X45606036Y-63774868D01*
X45078791Y-63520891D01*
X45063026Y-63518242D01*
X44831000Y-63639383D01*
X44577000Y-63639383D01*
X44344974Y-63518242D01*
X44329209Y-63520891D01*
X43801964Y-63774868D01*
X43412046Y-64211280D01*
X43218816Y-64763687D01*
X28905200Y-64763687D01*
X28905200Y-62735261D01*
X30606758Y-62735261D01*
X30818990Y-63248903D01*
X31211630Y-63642229D01*
X31724900Y-63855357D01*
X32280661Y-63855842D01*
X32794303Y-63643610D01*
X33187629Y-63250970D01*
X33273949Y-63043088D01*
X33358990Y-63248903D01*
X33751630Y-63642229D01*
X34264900Y-63855357D01*
X34820661Y-63855842D01*
X35334303Y-63643610D01*
X35727629Y-63250970D01*
X35940757Y-62737700D01*
X35941242Y-62181939D01*
X35729010Y-61668297D01*
X35336370Y-61274971D01*
X35144273Y-61195205D01*
X35275143Y-61140997D01*
X35344608Y-60898813D01*
X34544000Y-60098205D01*
X33743392Y-60898813D01*
X33812857Y-61140997D01*
X33953318Y-61191109D01*
X33753697Y-61273590D01*
X33360371Y-61666230D01*
X33274051Y-61874112D01*
X33189010Y-61668297D01*
X32796370Y-61274971D01*
X32604273Y-61195205D01*
X32735143Y-61140997D01*
X32804608Y-60898813D01*
X32004000Y-60098205D01*
X31203392Y-60898813D01*
X31272857Y-61140997D01*
X31413318Y-61191109D01*
X31213697Y-61273590D01*
X30820371Y-61666230D01*
X30607243Y-62179500D01*
X30606758Y-62735261D01*
X28905200Y-62735261D01*
X28905200Y-59710902D01*
X30594856Y-59710902D01*
X30622638Y-60265968D01*
X30781603Y-60649743D01*
X31023787Y-60719208D01*
X31824395Y-59918600D01*
X32183605Y-59918600D01*
X32984213Y-60719208D01*
X33226397Y-60649743D01*
X33270453Y-60526256D01*
X33321603Y-60649743D01*
X33563787Y-60719208D01*
X34364395Y-59918600D01*
X34723605Y-59918600D01*
X35524213Y-60719208D01*
X35766397Y-60649743D01*
X35953144Y-60126298D01*
X35925362Y-59571232D01*
X35766397Y-59187457D01*
X35524213Y-59117992D01*
X34723605Y-59918600D01*
X34364395Y-59918600D01*
X33563787Y-59117992D01*
X33321603Y-59187457D01*
X33277547Y-59310944D01*
X33226397Y-59187457D01*
X32984213Y-59117992D01*
X32183605Y-59918600D01*
X31824395Y-59918600D01*
X31023787Y-59117992D01*
X30781603Y-59187457D01*
X30594856Y-59710902D01*
X28905200Y-59710902D01*
X28905200Y-58358813D01*
X31203392Y-58358813D01*
X31272857Y-58600997D01*
X31396344Y-58645053D01*
X31272857Y-58696203D01*
X31203392Y-58938387D01*
X32004000Y-59738995D01*
X32804608Y-58938387D01*
X32735143Y-58696203D01*
X32611656Y-58652147D01*
X32735143Y-58600997D01*
X32804608Y-58358813D01*
X33743392Y-58358813D01*
X33812857Y-58600997D01*
X33936344Y-58645053D01*
X33812857Y-58696203D01*
X33743392Y-58938387D01*
X34544000Y-59738995D01*
X35344608Y-58938387D01*
X35275143Y-58696203D01*
X35151656Y-58652147D01*
X35275143Y-58600997D01*
X35344608Y-58358813D01*
X34544000Y-57558205D01*
X33743392Y-58358813D01*
X32804608Y-58358813D01*
X32004000Y-57558205D01*
X31203392Y-58358813D01*
X28905200Y-58358813D01*
X28905200Y-57170902D01*
X30594856Y-57170902D01*
X30622638Y-57725968D01*
X30781603Y-58109743D01*
X31023787Y-58179208D01*
X31824395Y-57378600D01*
X32183605Y-57378600D01*
X32984213Y-58179208D01*
X33226397Y-58109743D01*
X33270453Y-57986256D01*
X33321603Y-58109743D01*
X33563787Y-58179208D01*
X34364395Y-57378600D01*
X34723605Y-57378600D01*
X35524213Y-58179208D01*
X35766397Y-58109743D01*
X35953144Y-57586298D01*
X35925362Y-57031232D01*
X35766397Y-56647457D01*
X35524213Y-56577992D01*
X34723605Y-57378600D01*
X34364395Y-57378600D01*
X33563787Y-56577992D01*
X33321603Y-56647457D01*
X33277547Y-56770944D01*
X33226397Y-56647457D01*
X32984213Y-56577992D01*
X32183605Y-57378600D01*
X31824395Y-57378600D01*
X31023787Y-56577992D01*
X30781603Y-56647457D01*
X30594856Y-57170902D01*
X28905200Y-57170902D01*
X28905200Y-55818813D01*
X31203392Y-55818813D01*
X31272857Y-56060997D01*
X31396344Y-56105053D01*
X31272857Y-56156203D01*
X31203392Y-56398387D01*
X32004000Y-57198995D01*
X32804608Y-56398387D01*
X32735143Y-56156203D01*
X32611656Y-56112147D01*
X32735143Y-56060997D01*
X32804608Y-55818813D01*
X32004000Y-55018205D01*
X31203392Y-55818813D01*
X28905200Y-55818813D01*
X28905200Y-54630902D01*
X30594856Y-54630902D01*
X30622638Y-55185968D01*
X30781603Y-55569743D01*
X31023787Y-55639208D01*
X31824395Y-54838600D01*
X31023787Y-54037992D01*
X30781603Y-54107457D01*
X30594856Y-54630902D01*
X28905200Y-54630902D01*
X28905200Y-53278813D01*
X31203392Y-53278813D01*
X31272857Y-53520997D01*
X31396344Y-53565053D01*
X31272857Y-53616203D01*
X31203392Y-53858387D01*
X32004000Y-54658995D01*
X32804608Y-53858387D01*
X32735143Y-53616203D01*
X32611656Y-53572147D01*
X32735143Y-53520997D01*
X32804608Y-53278813D01*
X32004000Y-52478205D01*
X31203392Y-53278813D01*
X28905200Y-53278813D01*
X28905200Y-52090902D01*
X30594856Y-52090902D01*
X30622638Y-52645968D01*
X30781603Y-53029743D01*
X31023787Y-53099208D01*
X31824395Y-52298600D01*
X31023787Y-51497992D01*
X30781603Y-51567457D01*
X30594856Y-52090902D01*
X28905200Y-52090902D01*
X28905200Y-50738813D01*
X31203392Y-50738813D01*
X31272857Y-50980997D01*
X31396344Y-51025053D01*
X31272857Y-51076203D01*
X31203392Y-51318387D01*
X32004000Y-52118995D01*
X32804608Y-51318387D01*
X32735143Y-51076203D01*
X32611656Y-51032147D01*
X32735143Y-50980997D01*
X32804608Y-50738813D01*
X32004000Y-49938205D01*
X31203392Y-50738813D01*
X28905200Y-50738813D01*
X28905200Y-49550902D01*
X30594856Y-49550902D01*
X30622638Y-50105968D01*
X30781603Y-50489743D01*
X31023787Y-50559208D01*
X31824395Y-49758600D01*
X31023787Y-48957992D01*
X30781603Y-49027457D01*
X30594856Y-49550902D01*
X28905200Y-49550902D01*
X28905200Y-48198813D01*
X31203392Y-48198813D01*
X31272857Y-48440997D01*
X31396344Y-48485053D01*
X31272857Y-48536203D01*
X31203392Y-48778387D01*
X32004000Y-49578995D01*
X32804608Y-48778387D01*
X32735143Y-48536203D01*
X32611656Y-48492147D01*
X32735143Y-48440997D01*
X32804608Y-48198813D01*
X32004000Y-47398205D01*
X31203392Y-48198813D01*
X28905200Y-48198813D01*
X28905200Y-47010902D01*
X30594856Y-47010902D01*
X30622638Y-47565968D01*
X30781603Y-47949743D01*
X31023787Y-48019208D01*
X31824395Y-47218600D01*
X31023787Y-46417992D01*
X30781603Y-46487457D01*
X30594856Y-47010902D01*
X28905200Y-47010902D01*
X28905200Y-45658813D01*
X31203392Y-45658813D01*
X31272857Y-45900997D01*
X31396344Y-45945053D01*
X31272857Y-45996203D01*
X31203392Y-46238387D01*
X32004000Y-47038995D01*
X32804608Y-46238387D01*
X32735143Y-45996203D01*
X32611656Y-45952147D01*
X32735143Y-45900997D01*
X32804608Y-45658813D01*
X32004000Y-44858205D01*
X31203392Y-45658813D01*
X28905200Y-45658813D01*
X28905200Y-44470902D01*
X30594856Y-44470902D01*
X30622638Y-45025968D01*
X30781603Y-45409743D01*
X31023787Y-45479208D01*
X31824395Y-44678600D01*
X31023787Y-43877992D01*
X30781603Y-43947457D01*
X30594856Y-44470902D01*
X28905200Y-44470902D01*
X28905200Y-43118813D01*
X31203392Y-43118813D01*
X31272857Y-43360997D01*
X31396344Y-43405053D01*
X31272857Y-43456203D01*
X31203392Y-43698387D01*
X32004000Y-44498995D01*
X32804608Y-43698387D01*
X32735143Y-43456203D01*
X32611656Y-43412147D01*
X32735143Y-43360997D01*
X32804608Y-43118813D01*
X32004000Y-42318205D01*
X31203392Y-43118813D01*
X28905200Y-43118813D01*
X28905200Y-41930902D01*
X30594856Y-41930902D01*
X30622638Y-42485968D01*
X30781603Y-42869743D01*
X31023787Y-42939208D01*
X31824395Y-42138600D01*
X31023787Y-41337992D01*
X30781603Y-41407457D01*
X30594856Y-41930902D01*
X28905200Y-41930902D01*
X28905200Y-40578813D01*
X31203392Y-40578813D01*
X31272857Y-40820997D01*
X31396344Y-40865053D01*
X31272857Y-40916203D01*
X31203392Y-41158387D01*
X32004000Y-41958995D01*
X32804608Y-41158387D01*
X32735143Y-40916203D01*
X32611656Y-40872147D01*
X32735143Y-40820997D01*
X32804608Y-40578813D01*
X32004000Y-39778205D01*
X31203392Y-40578813D01*
X28905200Y-40578813D01*
X28905200Y-39390902D01*
X30594856Y-39390902D01*
X30622638Y-39945968D01*
X30781603Y-40329743D01*
X31023787Y-40399208D01*
X31824395Y-39598600D01*
X32183605Y-39598600D01*
X32984213Y-40399208D01*
X33226397Y-40329743D01*
X33276509Y-40189282D01*
X33358990Y-40388903D01*
X33751630Y-40782229D01*
X33959512Y-40868549D01*
X33753697Y-40953590D01*
X33360371Y-41346230D01*
X33280605Y-41538327D01*
X33226397Y-41407457D01*
X32984213Y-41337992D01*
X32183605Y-42138600D01*
X32984213Y-42939208D01*
X33226397Y-42869743D01*
X33276509Y-42729282D01*
X33358990Y-42928903D01*
X33751630Y-43322229D01*
X33959512Y-43408549D01*
X33753697Y-43493590D01*
X33360371Y-43886230D01*
X33280605Y-44078327D01*
X33226397Y-43947457D01*
X32984213Y-43877992D01*
X32183605Y-44678600D01*
X32984213Y-45479208D01*
X33226397Y-45409743D01*
X33276509Y-45269282D01*
X33358990Y-45468903D01*
X33751630Y-45862229D01*
X33959512Y-45948549D01*
X33753697Y-46033590D01*
X33360371Y-46426230D01*
X33280605Y-46618327D01*
X33226397Y-46487457D01*
X32984213Y-46417992D01*
X32183605Y-47218600D01*
X32984213Y-48019208D01*
X33226397Y-47949743D01*
X33276509Y-47809282D01*
X33358990Y-48008903D01*
X33751630Y-48402229D01*
X33959512Y-48488549D01*
X33753697Y-48573590D01*
X33360371Y-48966230D01*
X33280605Y-49158327D01*
X33226397Y-49027457D01*
X32984213Y-48957992D01*
X32183605Y-49758600D01*
X32984213Y-50559208D01*
X33226397Y-50489743D01*
X33276509Y-50349282D01*
X33358990Y-50548903D01*
X33751630Y-50942229D01*
X33959512Y-51028549D01*
X33753697Y-51113590D01*
X33360371Y-51506230D01*
X33280605Y-51698327D01*
X33226397Y-51567457D01*
X32984213Y-51497992D01*
X32183605Y-52298600D01*
X32984213Y-53099208D01*
X33226397Y-53029743D01*
X33276509Y-52889282D01*
X33358990Y-53088903D01*
X33751630Y-53482229D01*
X33959512Y-53568549D01*
X33753697Y-53653590D01*
X33360371Y-54046230D01*
X33280605Y-54238327D01*
X33226397Y-54107457D01*
X32984213Y-54037992D01*
X32183605Y-54838600D01*
X32984213Y-55639208D01*
X33226397Y-55569743D01*
X33276509Y-55429282D01*
X33358990Y-55628903D01*
X33751630Y-56022229D01*
X33943727Y-56101995D01*
X33812857Y-56156203D01*
X33743392Y-56398387D01*
X34544000Y-57198995D01*
X35344608Y-56398387D01*
X35275143Y-56156203D01*
X35134682Y-56106091D01*
X35334303Y-56023610D01*
X35727629Y-55630970D01*
X35940757Y-55117700D01*
X35941242Y-54561939D01*
X35729010Y-54048297D01*
X35336370Y-53654971D01*
X35128488Y-53568651D01*
X35334303Y-53483610D01*
X35727629Y-53090970D01*
X35940757Y-52577700D01*
X35941242Y-52021939D01*
X35729010Y-51508297D01*
X35336370Y-51114971D01*
X35128488Y-51028651D01*
X35334303Y-50943610D01*
X35727629Y-50550970D01*
X35940757Y-50037700D01*
X35941242Y-49481939D01*
X35729010Y-48968297D01*
X35336370Y-48574971D01*
X35128488Y-48488651D01*
X35334303Y-48403610D01*
X35727629Y-48010970D01*
X35940757Y-47497700D01*
X35941242Y-46941939D01*
X35729010Y-46428297D01*
X35336370Y-46034971D01*
X35128488Y-45948651D01*
X35334303Y-45863610D01*
X35727629Y-45470970D01*
X35940757Y-44957700D01*
X35941242Y-44401939D01*
X35729010Y-43888297D01*
X35336370Y-43494971D01*
X35128488Y-43408651D01*
X35334303Y-43323610D01*
X35727629Y-42930970D01*
X35940757Y-42417700D01*
X35941242Y-41861939D01*
X35729010Y-41348297D01*
X35336370Y-40954971D01*
X35128488Y-40868651D01*
X35334303Y-40783610D01*
X35727629Y-40390970D01*
X35889034Y-40002261D01*
X43052758Y-40002261D01*
X43264990Y-40515903D01*
X43657630Y-40909229D01*
X43865512Y-40995549D01*
X43659697Y-41080590D01*
X43266371Y-41473230D01*
X43053243Y-41986500D01*
X43052758Y-42542261D01*
X43264990Y-43055903D01*
X43657630Y-43449229D01*
X43865512Y-43535549D01*
X43659697Y-43620590D01*
X43266371Y-44013230D01*
X43053243Y-44526500D01*
X43052758Y-45082261D01*
X43264990Y-45595903D01*
X43657630Y-45989229D01*
X43865512Y-46075549D01*
X43659697Y-46160590D01*
X43266371Y-46553230D01*
X43053243Y-47066500D01*
X43052758Y-47622261D01*
X43264990Y-48135903D01*
X43657630Y-48529229D01*
X43865512Y-48615549D01*
X43659697Y-48700590D01*
X43266371Y-49093230D01*
X43053243Y-49606500D01*
X43052758Y-50162261D01*
X43264990Y-50675903D01*
X43657630Y-51069229D01*
X44170900Y-51282357D01*
X44726661Y-51282842D01*
X45240303Y-51070610D01*
X45633629Y-50677970D01*
X45719949Y-50470088D01*
X45804990Y-50675903D01*
X46197630Y-51069229D01*
X46710900Y-51282357D01*
X47266661Y-51282842D01*
X47780303Y-51070610D01*
X48173629Y-50677970D01*
X48386757Y-50164700D01*
X48387242Y-49608939D01*
X48175010Y-49095297D01*
X47782370Y-48701971D01*
X47590273Y-48622205D01*
X47721143Y-48567997D01*
X47790608Y-48325813D01*
X46990000Y-47525205D01*
X46189392Y-48325813D01*
X46258857Y-48567997D01*
X46399318Y-48618109D01*
X46199697Y-48700590D01*
X45806371Y-49093230D01*
X45720051Y-49301112D01*
X45635010Y-49095297D01*
X45242370Y-48701971D01*
X45034488Y-48615651D01*
X45240303Y-48530610D01*
X45633629Y-48137970D01*
X45713395Y-47945873D01*
X45767603Y-48076743D01*
X46009787Y-48146208D01*
X46810395Y-47345600D01*
X47169605Y-47345600D01*
X47970213Y-48146208D01*
X48212397Y-48076743D01*
X48399144Y-47553298D01*
X48371362Y-46998232D01*
X48212397Y-46614457D01*
X47970213Y-46544992D01*
X47169605Y-47345600D01*
X46810395Y-47345600D01*
X46009787Y-46544992D01*
X45767603Y-46614457D01*
X45717491Y-46754918D01*
X45635010Y-46555297D01*
X45242370Y-46161971D01*
X45034488Y-46075651D01*
X45240303Y-45990610D01*
X45445457Y-45785813D01*
X46189392Y-45785813D01*
X46258857Y-46027997D01*
X46382344Y-46072053D01*
X46258857Y-46123203D01*
X46189392Y-46365387D01*
X46990000Y-47165995D01*
X47790608Y-46365387D01*
X47721143Y-46123203D01*
X47597656Y-46079147D01*
X47721143Y-46027997D01*
X47790608Y-45785813D01*
X46990000Y-44985205D01*
X46189392Y-45785813D01*
X45445457Y-45785813D01*
X45633629Y-45597970D01*
X45713395Y-45405873D01*
X45767603Y-45536743D01*
X46009787Y-45606208D01*
X46810395Y-44805600D01*
X47169605Y-44805600D01*
X47970213Y-45606208D01*
X48212397Y-45536743D01*
X48399144Y-45013298D01*
X48371362Y-44458232D01*
X48212397Y-44074457D01*
X47970213Y-44004992D01*
X47169605Y-44805600D01*
X46810395Y-44805600D01*
X46009787Y-44004992D01*
X45767603Y-44074457D01*
X45717491Y-44214918D01*
X45635010Y-44015297D01*
X45242370Y-43621971D01*
X45034488Y-43535651D01*
X45240303Y-43450610D01*
X45445457Y-43245813D01*
X46189392Y-43245813D01*
X46258857Y-43487997D01*
X46382344Y-43532053D01*
X46258857Y-43583203D01*
X46189392Y-43825387D01*
X46990000Y-44625995D01*
X47790608Y-43825387D01*
X47721143Y-43583203D01*
X47597656Y-43539147D01*
X47721143Y-43487997D01*
X47790608Y-43245813D01*
X46990000Y-42445205D01*
X46189392Y-43245813D01*
X45445457Y-43245813D01*
X45633629Y-43057970D01*
X45713395Y-42865873D01*
X45767603Y-42996743D01*
X46009787Y-43066208D01*
X46810395Y-42265600D01*
X47169605Y-42265600D01*
X47970213Y-43066208D01*
X48212397Y-42996743D01*
X48399144Y-42473298D01*
X48371362Y-41918232D01*
X48212397Y-41534457D01*
X47970213Y-41464992D01*
X47169605Y-42265600D01*
X46810395Y-42265600D01*
X46009787Y-41464992D01*
X45767603Y-41534457D01*
X45717491Y-41674918D01*
X45635010Y-41475297D01*
X45242370Y-41081971D01*
X45034488Y-40995651D01*
X45240303Y-40910610D01*
X45445457Y-40705813D01*
X46189392Y-40705813D01*
X46258857Y-40947997D01*
X46382344Y-40992053D01*
X46258857Y-41043203D01*
X46189392Y-41285387D01*
X46990000Y-42085995D01*
X47790608Y-41285387D01*
X47721143Y-41043203D01*
X47597656Y-40999147D01*
X47721143Y-40947997D01*
X47790608Y-40705813D01*
X46990000Y-39905205D01*
X46189392Y-40705813D01*
X45445457Y-40705813D01*
X45633629Y-40517970D01*
X45713395Y-40325873D01*
X45767603Y-40456743D01*
X46009787Y-40526208D01*
X46810395Y-39725600D01*
X47169605Y-39725600D01*
X47970213Y-40526208D01*
X48212397Y-40456743D01*
X48399144Y-39933298D01*
X48371362Y-39378232D01*
X48212397Y-38994457D01*
X47970213Y-38924992D01*
X47169605Y-39725600D01*
X46810395Y-39725600D01*
X46009787Y-38924992D01*
X45767603Y-38994457D01*
X45717491Y-39134918D01*
X45635010Y-38935297D01*
X45445432Y-38745387D01*
X46189392Y-38745387D01*
X46990000Y-39545995D01*
X47790608Y-38745387D01*
X47721143Y-38503203D01*
X47197698Y-38316456D01*
X46642632Y-38344238D01*
X46258857Y-38503203D01*
X46189392Y-38745387D01*
X45445432Y-38745387D01*
X45242370Y-38541971D01*
X44729100Y-38328843D01*
X44173339Y-38328358D01*
X43659697Y-38540590D01*
X43266371Y-38933230D01*
X43053243Y-39446500D01*
X43052758Y-40002261D01*
X35889034Y-40002261D01*
X35940757Y-39877700D01*
X35941242Y-39321939D01*
X35729010Y-38808297D01*
X35336370Y-38414971D01*
X34823100Y-38201843D01*
X34267339Y-38201358D01*
X33753697Y-38413590D01*
X33360371Y-38806230D01*
X33280605Y-38998327D01*
X33226397Y-38867457D01*
X32984213Y-38797992D01*
X32183605Y-39598600D01*
X31824395Y-39598600D01*
X31023787Y-38797992D01*
X30781603Y-38867457D01*
X30594856Y-39390902D01*
X28905200Y-39390902D01*
X28905200Y-38618387D01*
X31203392Y-38618387D01*
X32004000Y-39418995D01*
X32804608Y-38618387D01*
X32735143Y-38376203D01*
X32211698Y-38189456D01*
X31656632Y-38217238D01*
X31272857Y-38376203D01*
X31203392Y-38618387D01*
X28905200Y-38618387D01*
X28905200Y-35985645D01*
X29057282Y-35221080D01*
X29450696Y-34632296D01*
X30039482Y-34238881D01*
X30804044Y-34086800D01*
X57333955Y-34086800D01*
X58098520Y-34238882D01*
G36*
X57216748Y-42251458D02*
X57202605Y-42265600D01*
X57216748Y-42279743D01*
X57154575Y-42341915D01*
X56946734Y-42341733D01*
X56946860Y-42196922D01*
X57149002Y-42183712D01*
X57216748Y-42251458D01*
X57216748Y-42251458D01*
G37*
X57216748Y-42251458D02*
X57202605Y-42265600D01*
X57216748Y-42279743D01*
X57154575Y-42341915D01*
X56946734Y-42341733D01*
X56946860Y-42196922D01*
X57149002Y-42183712D01*
X57216748Y-42251458D01*
G36*
X57216748Y-40981458D02*
X57202605Y-40995600D01*
X57216748Y-41009743D01*
X57166622Y-41059868D01*
X56946732Y-41074238D01*
X56946860Y-40926922D01*
X57149002Y-40913712D01*
X57216748Y-40981458D01*
X57216748Y-40981458D01*
G37*
X57216748Y-40981458D02*
X57202605Y-40995600D01*
X57216748Y-41009743D01*
X57166622Y-41059868D01*
X56946732Y-41074238D01*
X56946860Y-40926922D01*
X57149002Y-40913712D01*
X57216748Y-40981458D01*
G36*
X57216748Y-39711458D02*
X57202605Y-39725600D01*
X57216748Y-39739743D01*
X57166622Y-39789868D01*
X56946732Y-39804238D01*
X56946860Y-39656922D01*
X57149002Y-39643712D01*
X57216748Y-39711458D01*
X57216748Y-39711458D01*
G37*
X57216748Y-39711458D02*
X57202605Y-39725600D01*
X57216748Y-39739743D01*
X57166622Y-39789868D01*
X56946732Y-39804238D01*
X56946860Y-39656922D01*
X57149002Y-39643712D01*
X57216748Y-39711458D01*
D17*
X54864000Y-65125600D03*
X52324000Y-65125600D03*
X49784000Y-65125600D03*
X47244000Y-65125600D03*
X44704000Y-65125600D03*
X44450000Y-49885600D03*
X44450000Y-47345600D03*
X44450000Y-44805600D03*
X44450000Y-42265600D03*
X44450000Y-39725600D03*
X46990000Y-49885600D03*
X46990000Y-47345600D03*
X46990000Y-44805600D03*
X46990000Y-42265600D03*
X46990000Y-39725600D03*
X32004000Y-62458600D03*
X32004000Y-59918600D03*
X32004000Y-57378600D03*
X32004000Y-54838600D03*
X32004000Y-52298600D03*
X34544000Y-62458600D03*
X34544000Y-59918600D03*
X34544000Y-57378600D03*
X34544000Y-54838600D03*
X34544000Y-52298600D03*
X34544000Y-42138600D03*
X32004000Y-44678600D03*
X32004000Y-42138600D03*
X32004000Y-39598600D03*
X34544000Y-44678600D03*
X34544000Y-39598600D03*
X34544000Y-47218600D03*
X32004000Y-49758600D03*
X32004000Y-47218600D03*
X34544000Y-49758600D03*
X55753000Y-43535600D03*
X57023000Y-43535600D03*
X55753000Y-42265600D03*
X57023000Y-42265600D03*
X55753000Y-40995600D03*
X57023000Y-40995600D03*
X55753000Y-39725600D03*
X57023000Y-39725600D03*
X55753000Y-38455600D03*
X57023000Y-38455600D03*
M02*
