%TF.GenerationSoftware,KiCad,Pcbnew,4.0.5-e0-6337~49~ubuntu16.04.1*%
%TF.CreationDate,2017-08-14T13:45:05-07:00*%
%TF.ProjectId,atsamd21g18-jtag-stlinkv2-adapter,617473616D6432316731382D6A746167,1.0*%
%TF.FileFunction,Soldermask,Bot*%
%FSLAX46Y46*%
G04 Gerber Fmt 4.6, Leading zero omitted, Abs format (unit mm)*
G04 Created by KiCad (PCBNEW 4.0.5-e0-6337~49~ubuntu16.04.1) date Mon Aug 14 13:45:05 2017*
%MOMM*%
%LPD*%
G01*
G04 APERTURE LIST*
%ADD10C,0.350000*%
G04 APERTURE END LIST*
D10*
G36*
X49972926Y-64047305D02*
X49972973Y-64047310D01*
X50148187Y-64101548D01*
X50309529Y-64188785D01*
X50450855Y-64305700D01*
X50566779Y-64447838D01*
X50652888Y-64609785D01*
X50705902Y-64785374D01*
X50723800Y-64967915D01*
X50723800Y-65283317D01*
X50723723Y-65294349D01*
X50723722Y-65294354D01*
X50723708Y-65296407D01*
X50703263Y-65478680D01*
X50647803Y-65653512D01*
X50559442Y-65814241D01*
X50441544Y-65954746D01*
X50298600Y-66069676D01*
X50136055Y-66154652D01*
X49960101Y-66206439D01*
X49960060Y-66206443D01*
X49960056Y-66206444D01*
X49777442Y-66223063D01*
X49595074Y-66203895D01*
X49595027Y-66203890D01*
X49419813Y-66149652D01*
X49258471Y-66062415D01*
X49117145Y-65945500D01*
X49001221Y-65803362D01*
X48915112Y-65641415D01*
X48862098Y-65465826D01*
X48844200Y-65283285D01*
X48844200Y-64967883D01*
X48844277Y-64956851D01*
X48844278Y-64956846D01*
X48844292Y-64954793D01*
X48864737Y-64772520D01*
X48920197Y-64597688D01*
X49008558Y-64436959D01*
X49126456Y-64296454D01*
X49269400Y-64181524D01*
X49431945Y-64096548D01*
X49607899Y-64044761D01*
X49607940Y-64044757D01*
X49607944Y-64044756D01*
X49790558Y-64028137D01*
X49972926Y-64047305D01*
X49972926Y-64047305D01*
G37*
G36*
X47432926Y-64047305D02*
X47432973Y-64047310D01*
X47608187Y-64101548D01*
X47769529Y-64188785D01*
X47910855Y-64305700D01*
X48026779Y-64447838D01*
X48112888Y-64609785D01*
X48165902Y-64785374D01*
X48183800Y-64967915D01*
X48183800Y-65283317D01*
X48183723Y-65294349D01*
X48183722Y-65294354D01*
X48183708Y-65296407D01*
X48163263Y-65478680D01*
X48107803Y-65653512D01*
X48019442Y-65814241D01*
X47901544Y-65954746D01*
X47758600Y-66069676D01*
X47596055Y-66154652D01*
X47420101Y-66206439D01*
X47420060Y-66206443D01*
X47420056Y-66206444D01*
X47237442Y-66223063D01*
X47055074Y-66203895D01*
X47055027Y-66203890D01*
X46879813Y-66149652D01*
X46718471Y-66062415D01*
X46577145Y-65945500D01*
X46461221Y-65803362D01*
X46375112Y-65641415D01*
X46322098Y-65465826D01*
X46304200Y-65283285D01*
X46304200Y-64967883D01*
X46304277Y-64956851D01*
X46304278Y-64956846D01*
X46304292Y-64954793D01*
X46324737Y-64772520D01*
X46380197Y-64597688D01*
X46468558Y-64436959D01*
X46586456Y-64296454D01*
X46729400Y-64181524D01*
X46891945Y-64096548D01*
X47067899Y-64044761D01*
X47067940Y-64044757D01*
X47067944Y-64044756D01*
X47250558Y-64028137D01*
X47432926Y-64047305D01*
X47432926Y-64047305D01*
G37*
G36*
X44892926Y-64047305D02*
X44892973Y-64047310D01*
X45068187Y-64101548D01*
X45229529Y-64188785D01*
X45370855Y-64305700D01*
X45486779Y-64447838D01*
X45572888Y-64609785D01*
X45625902Y-64785374D01*
X45643800Y-64967915D01*
X45643800Y-65283317D01*
X45643723Y-65294349D01*
X45643722Y-65294354D01*
X45643708Y-65296407D01*
X45623263Y-65478680D01*
X45567803Y-65653512D01*
X45479442Y-65814241D01*
X45361544Y-65954746D01*
X45218600Y-66069676D01*
X45056055Y-66154652D01*
X44880101Y-66206439D01*
X44880060Y-66206443D01*
X44880056Y-66206444D01*
X44697442Y-66223063D01*
X44515074Y-66203895D01*
X44515027Y-66203890D01*
X44339813Y-66149652D01*
X44178471Y-66062415D01*
X44037145Y-65945500D01*
X43921221Y-65803362D01*
X43835112Y-65641415D01*
X43782098Y-65465826D01*
X43764200Y-65283285D01*
X43764200Y-64967883D01*
X43764277Y-64956851D01*
X43764278Y-64956846D01*
X43764292Y-64954793D01*
X43784737Y-64772520D01*
X43840197Y-64597688D01*
X43928558Y-64436959D01*
X44046456Y-64296454D01*
X44189400Y-64181524D01*
X44351945Y-64096548D01*
X44527899Y-64044761D01*
X44527940Y-64044757D01*
X44527944Y-64044756D01*
X44710558Y-64028137D01*
X44892926Y-64047305D01*
X44892926Y-64047305D01*
G37*
G36*
X52512926Y-64047305D02*
X52512973Y-64047310D01*
X52688187Y-64101548D01*
X52849529Y-64188785D01*
X52990855Y-64305700D01*
X53106779Y-64447838D01*
X53192888Y-64609785D01*
X53245902Y-64785374D01*
X53263800Y-64967915D01*
X53263800Y-65283317D01*
X53263723Y-65294349D01*
X53263722Y-65294354D01*
X53263708Y-65296407D01*
X53243263Y-65478680D01*
X53187803Y-65653512D01*
X53099442Y-65814241D01*
X52981544Y-65954746D01*
X52838600Y-66069676D01*
X52676055Y-66154652D01*
X52500101Y-66206439D01*
X52500060Y-66206443D01*
X52500056Y-66206444D01*
X52317442Y-66223063D01*
X52135074Y-66203895D01*
X52135027Y-66203890D01*
X51959813Y-66149652D01*
X51798471Y-66062415D01*
X51657145Y-65945500D01*
X51541221Y-65803362D01*
X51455112Y-65641415D01*
X51402098Y-65465826D01*
X51384200Y-65283285D01*
X51384200Y-64967883D01*
X51384277Y-64956851D01*
X51384278Y-64956846D01*
X51384292Y-64954793D01*
X51404737Y-64772520D01*
X51460197Y-64597688D01*
X51548558Y-64436959D01*
X51666456Y-64296454D01*
X51809400Y-64181524D01*
X51971945Y-64096548D01*
X52147899Y-64044761D01*
X52147940Y-64044757D01*
X52147944Y-64044756D01*
X52330558Y-64028137D01*
X52512926Y-64047305D01*
X52512926Y-64047305D01*
G37*
G36*
X55803800Y-66217800D02*
X53924200Y-66217800D01*
X53924200Y-64033400D01*
X55803800Y-64033400D01*
X55803800Y-66217800D01*
X55803800Y-66217800D01*
G37*
G36*
X34632043Y-61620957D02*
X34793058Y-61654009D01*
X34944601Y-61717711D01*
X35080873Y-61809629D01*
X35196706Y-61926272D01*
X35287668Y-62063182D01*
X35350310Y-62215163D01*
X35382168Y-62376056D01*
X35382168Y-62376066D01*
X35382236Y-62376410D01*
X35379615Y-62564163D01*
X35379537Y-62564506D01*
X35379537Y-62564509D01*
X35343197Y-62724461D01*
X35276340Y-62874625D01*
X35181584Y-63008947D01*
X35062545Y-63122308D01*
X34923753Y-63210388D01*
X34770499Y-63269831D01*
X34608619Y-63298375D01*
X34444273Y-63294932D01*
X34283728Y-63259635D01*
X34133094Y-63193824D01*
X33998118Y-63100013D01*
X33883930Y-62981768D01*
X33794883Y-62843594D01*
X33734369Y-62690753D01*
X33704697Y-62529081D01*
X33706991Y-62364716D01*
X33741169Y-62203926D01*
X33805923Y-62052840D01*
X33898794Y-61917207D01*
X34016237Y-61802198D01*
X34153786Y-61712188D01*
X34306197Y-61650610D01*
X34467662Y-61619809D01*
X34632043Y-61620957D01*
X34632043Y-61620957D01*
G37*
G36*
X32092043Y-61620957D02*
X32253058Y-61654009D01*
X32404601Y-61717711D01*
X32540873Y-61809629D01*
X32656706Y-61926272D01*
X32747668Y-62063182D01*
X32810310Y-62215163D01*
X32842168Y-62376056D01*
X32842168Y-62376066D01*
X32842236Y-62376410D01*
X32839615Y-62564163D01*
X32839537Y-62564506D01*
X32839537Y-62564509D01*
X32803197Y-62724461D01*
X32736340Y-62874625D01*
X32641584Y-63008947D01*
X32522545Y-63122308D01*
X32383753Y-63210388D01*
X32230499Y-63269831D01*
X32068619Y-63298375D01*
X31904273Y-63294932D01*
X31743728Y-63259635D01*
X31593094Y-63193824D01*
X31458118Y-63100013D01*
X31343930Y-62981768D01*
X31254883Y-62843594D01*
X31194369Y-62690753D01*
X31164697Y-62529081D01*
X31166991Y-62364716D01*
X31201169Y-62203926D01*
X31265923Y-62052840D01*
X31358794Y-61917207D01*
X31476237Y-61802198D01*
X31613786Y-61712188D01*
X31766197Y-61650610D01*
X31927662Y-61619809D01*
X32092043Y-61620957D01*
X32092043Y-61620957D01*
G37*
G36*
X32092043Y-59080957D02*
X32253058Y-59114009D01*
X32404601Y-59177711D01*
X32540873Y-59269629D01*
X32656706Y-59386272D01*
X32747668Y-59523182D01*
X32810310Y-59675163D01*
X32842168Y-59836056D01*
X32842168Y-59836066D01*
X32842236Y-59836410D01*
X32839615Y-60024163D01*
X32839537Y-60024506D01*
X32839537Y-60024509D01*
X32803197Y-60184461D01*
X32736340Y-60334625D01*
X32641584Y-60468947D01*
X32522545Y-60582308D01*
X32383753Y-60670388D01*
X32230499Y-60729831D01*
X32068619Y-60758375D01*
X31904273Y-60754932D01*
X31743728Y-60719635D01*
X31593094Y-60653824D01*
X31458118Y-60560013D01*
X31343930Y-60441768D01*
X31254883Y-60303594D01*
X31194369Y-60150753D01*
X31164697Y-59989081D01*
X31166991Y-59824716D01*
X31201169Y-59663926D01*
X31265923Y-59512840D01*
X31358794Y-59377207D01*
X31476237Y-59262198D01*
X31613786Y-59172188D01*
X31766197Y-59110610D01*
X31927662Y-59079809D01*
X32092043Y-59080957D01*
X32092043Y-59080957D01*
G37*
G36*
X34632043Y-59080957D02*
X34793058Y-59114009D01*
X34944601Y-59177711D01*
X35080873Y-59269629D01*
X35196706Y-59386272D01*
X35287668Y-59523182D01*
X35350310Y-59675163D01*
X35382168Y-59836056D01*
X35382168Y-59836066D01*
X35382236Y-59836410D01*
X35379615Y-60024163D01*
X35379537Y-60024506D01*
X35379537Y-60024509D01*
X35343197Y-60184461D01*
X35276340Y-60334625D01*
X35181584Y-60468947D01*
X35062545Y-60582308D01*
X34923753Y-60670388D01*
X34770499Y-60729831D01*
X34608619Y-60758375D01*
X34444273Y-60754932D01*
X34283728Y-60719635D01*
X34133094Y-60653824D01*
X33998118Y-60560013D01*
X33883930Y-60441768D01*
X33794883Y-60303594D01*
X33734369Y-60150753D01*
X33704697Y-59989081D01*
X33706991Y-59824716D01*
X33741169Y-59663926D01*
X33805923Y-59512840D01*
X33898794Y-59377207D01*
X34016237Y-59262198D01*
X34153786Y-59172188D01*
X34306197Y-59110610D01*
X34467662Y-59079809D01*
X34632043Y-59080957D01*
X34632043Y-59080957D01*
G37*
G36*
X32092043Y-56540957D02*
X32253058Y-56574009D01*
X32404601Y-56637711D01*
X32540873Y-56729629D01*
X32656706Y-56846272D01*
X32747668Y-56983182D01*
X32810310Y-57135163D01*
X32842168Y-57296056D01*
X32842168Y-57296066D01*
X32842236Y-57296410D01*
X32839615Y-57484163D01*
X32839537Y-57484506D01*
X32839537Y-57484509D01*
X32803197Y-57644461D01*
X32736340Y-57794625D01*
X32641584Y-57928947D01*
X32522545Y-58042308D01*
X32383753Y-58130388D01*
X32230499Y-58189831D01*
X32068619Y-58218375D01*
X31904273Y-58214932D01*
X31743728Y-58179635D01*
X31593094Y-58113824D01*
X31458118Y-58020013D01*
X31343930Y-57901768D01*
X31254883Y-57763594D01*
X31194369Y-57610753D01*
X31164697Y-57449081D01*
X31166991Y-57284716D01*
X31201169Y-57123926D01*
X31265923Y-56972840D01*
X31358794Y-56837207D01*
X31476237Y-56722198D01*
X31613786Y-56632188D01*
X31766197Y-56570610D01*
X31927662Y-56539809D01*
X32092043Y-56540957D01*
X32092043Y-56540957D01*
G37*
G36*
X34632043Y-56540957D02*
X34793058Y-56574009D01*
X34944601Y-56637711D01*
X35080873Y-56729629D01*
X35196706Y-56846272D01*
X35287668Y-56983182D01*
X35350310Y-57135163D01*
X35382168Y-57296056D01*
X35382168Y-57296066D01*
X35382236Y-57296410D01*
X35379615Y-57484163D01*
X35379537Y-57484506D01*
X35379537Y-57484509D01*
X35343197Y-57644461D01*
X35276340Y-57794625D01*
X35181584Y-57928947D01*
X35062545Y-58042308D01*
X34923753Y-58130388D01*
X34770499Y-58189831D01*
X34608619Y-58218375D01*
X34444273Y-58214932D01*
X34283728Y-58179635D01*
X34133094Y-58113824D01*
X33998118Y-58020013D01*
X33883930Y-57901768D01*
X33794883Y-57763594D01*
X33734369Y-57610753D01*
X33704697Y-57449081D01*
X33706991Y-57284716D01*
X33741169Y-57123926D01*
X33805923Y-56972840D01*
X33898794Y-56837207D01*
X34016237Y-56722198D01*
X34153786Y-56632188D01*
X34306197Y-56570610D01*
X34467662Y-56539809D01*
X34632043Y-56540957D01*
X34632043Y-56540957D01*
G37*
G36*
X34632043Y-54000957D02*
X34793058Y-54034009D01*
X34944601Y-54097711D01*
X35080873Y-54189629D01*
X35196706Y-54306272D01*
X35287668Y-54443182D01*
X35350310Y-54595163D01*
X35382168Y-54756056D01*
X35382168Y-54756066D01*
X35382236Y-54756410D01*
X35379615Y-54944163D01*
X35379537Y-54944506D01*
X35379537Y-54944509D01*
X35343197Y-55104461D01*
X35276340Y-55254625D01*
X35181584Y-55388947D01*
X35062545Y-55502308D01*
X34923753Y-55590388D01*
X34770499Y-55649831D01*
X34608619Y-55678375D01*
X34444273Y-55674932D01*
X34283728Y-55639635D01*
X34133094Y-55573824D01*
X33998118Y-55480013D01*
X33883930Y-55361768D01*
X33794883Y-55223594D01*
X33734369Y-55070753D01*
X33704697Y-54909081D01*
X33706991Y-54744716D01*
X33741169Y-54583926D01*
X33805923Y-54432840D01*
X33898794Y-54297207D01*
X34016237Y-54182198D01*
X34153786Y-54092188D01*
X34306197Y-54030610D01*
X34467662Y-53999809D01*
X34632043Y-54000957D01*
X34632043Y-54000957D01*
G37*
G36*
X32092043Y-54000957D02*
X32253058Y-54034009D01*
X32404601Y-54097711D01*
X32540873Y-54189629D01*
X32656706Y-54306272D01*
X32747668Y-54443182D01*
X32810310Y-54595163D01*
X32842168Y-54756056D01*
X32842168Y-54756066D01*
X32842236Y-54756410D01*
X32839615Y-54944163D01*
X32839537Y-54944506D01*
X32839537Y-54944509D01*
X32803197Y-55104461D01*
X32736340Y-55254625D01*
X32641584Y-55388947D01*
X32522545Y-55502308D01*
X32383753Y-55590388D01*
X32230499Y-55649831D01*
X32068619Y-55678375D01*
X31904273Y-55674932D01*
X31743728Y-55639635D01*
X31593094Y-55573824D01*
X31458118Y-55480013D01*
X31343930Y-55361768D01*
X31254883Y-55223594D01*
X31194369Y-55070753D01*
X31164697Y-54909081D01*
X31166991Y-54744716D01*
X31201169Y-54583926D01*
X31265923Y-54432840D01*
X31358794Y-54297207D01*
X31476237Y-54182198D01*
X31613786Y-54092188D01*
X31766197Y-54030610D01*
X31927662Y-53999809D01*
X32092043Y-54000957D01*
X32092043Y-54000957D01*
G37*
G36*
X34632043Y-51460957D02*
X34793058Y-51494009D01*
X34944601Y-51557711D01*
X35080873Y-51649629D01*
X35196706Y-51766272D01*
X35287668Y-51903182D01*
X35350310Y-52055163D01*
X35382168Y-52216056D01*
X35382168Y-52216066D01*
X35382236Y-52216410D01*
X35379615Y-52404163D01*
X35379537Y-52404506D01*
X35379537Y-52404509D01*
X35343197Y-52564461D01*
X35276340Y-52714625D01*
X35181584Y-52848947D01*
X35062545Y-52962308D01*
X34923753Y-53050388D01*
X34770499Y-53109831D01*
X34608619Y-53138375D01*
X34444273Y-53134932D01*
X34283728Y-53099635D01*
X34133094Y-53033824D01*
X33998118Y-52940013D01*
X33883930Y-52821768D01*
X33794883Y-52683594D01*
X33734369Y-52530753D01*
X33704697Y-52369081D01*
X33706991Y-52204716D01*
X33741169Y-52043926D01*
X33805923Y-51892840D01*
X33898794Y-51757207D01*
X34016237Y-51642198D01*
X34153786Y-51552188D01*
X34306197Y-51490610D01*
X34467662Y-51459809D01*
X34632043Y-51460957D01*
X34632043Y-51460957D01*
G37*
G36*
X32092043Y-51460957D02*
X32253058Y-51494009D01*
X32404601Y-51557711D01*
X32540873Y-51649629D01*
X32656706Y-51766272D01*
X32747668Y-51903182D01*
X32810310Y-52055163D01*
X32842168Y-52216056D01*
X32842168Y-52216066D01*
X32842236Y-52216410D01*
X32839615Y-52404163D01*
X32839537Y-52404506D01*
X32839537Y-52404509D01*
X32803197Y-52564461D01*
X32736340Y-52714625D01*
X32641584Y-52848947D01*
X32522545Y-52962308D01*
X32383753Y-53050388D01*
X32230499Y-53109831D01*
X32068619Y-53138375D01*
X31904273Y-53134932D01*
X31743728Y-53099635D01*
X31593094Y-53033824D01*
X31458118Y-52940013D01*
X31343930Y-52821768D01*
X31254883Y-52683594D01*
X31194369Y-52530753D01*
X31164697Y-52369081D01*
X31166991Y-52204716D01*
X31201169Y-52043926D01*
X31265923Y-51892840D01*
X31358794Y-51757207D01*
X31476237Y-51642198D01*
X31613786Y-51552188D01*
X31766197Y-51490610D01*
X31927662Y-51459809D01*
X32092043Y-51460957D01*
X32092043Y-51460957D01*
G37*
G36*
X44538043Y-49047957D02*
X44699058Y-49081009D01*
X44850601Y-49144711D01*
X44986873Y-49236629D01*
X45102706Y-49353272D01*
X45193668Y-49490182D01*
X45256310Y-49642163D01*
X45288168Y-49803056D01*
X45288168Y-49803066D01*
X45288236Y-49803410D01*
X45285615Y-49991163D01*
X45285537Y-49991506D01*
X45285537Y-49991509D01*
X45249197Y-50151461D01*
X45182340Y-50301625D01*
X45087584Y-50435947D01*
X44968545Y-50549308D01*
X44829753Y-50637388D01*
X44676499Y-50696831D01*
X44514619Y-50725375D01*
X44350273Y-50721932D01*
X44189728Y-50686635D01*
X44039094Y-50620824D01*
X43904118Y-50527013D01*
X43789930Y-50408768D01*
X43700883Y-50270594D01*
X43640369Y-50117753D01*
X43610697Y-49956081D01*
X43612991Y-49791716D01*
X43647169Y-49630926D01*
X43711923Y-49479840D01*
X43804794Y-49344207D01*
X43922237Y-49229198D01*
X44059786Y-49139188D01*
X44212197Y-49077610D01*
X44373662Y-49046809D01*
X44538043Y-49047957D01*
X44538043Y-49047957D01*
G37*
G36*
X47078043Y-49047957D02*
X47239058Y-49081009D01*
X47390601Y-49144711D01*
X47526873Y-49236629D01*
X47642706Y-49353272D01*
X47733668Y-49490182D01*
X47796310Y-49642163D01*
X47828168Y-49803056D01*
X47828168Y-49803066D01*
X47828236Y-49803410D01*
X47825615Y-49991163D01*
X47825537Y-49991506D01*
X47825537Y-49991509D01*
X47789197Y-50151461D01*
X47722340Y-50301625D01*
X47627584Y-50435947D01*
X47508545Y-50549308D01*
X47369753Y-50637388D01*
X47216499Y-50696831D01*
X47054619Y-50725375D01*
X46890273Y-50721932D01*
X46729728Y-50686635D01*
X46579094Y-50620824D01*
X46444118Y-50527013D01*
X46329930Y-50408768D01*
X46240883Y-50270594D01*
X46180369Y-50117753D01*
X46150697Y-49956081D01*
X46152991Y-49791716D01*
X46187169Y-49630926D01*
X46251923Y-49479840D01*
X46344794Y-49344207D01*
X46462237Y-49229198D01*
X46599786Y-49139188D01*
X46752197Y-49077610D01*
X46913662Y-49046809D01*
X47078043Y-49047957D01*
X47078043Y-49047957D01*
G37*
G36*
X34632043Y-48920957D02*
X34793058Y-48954009D01*
X34944601Y-49017711D01*
X35080873Y-49109629D01*
X35196706Y-49226272D01*
X35287668Y-49363182D01*
X35350310Y-49515163D01*
X35382168Y-49676056D01*
X35382168Y-49676066D01*
X35382236Y-49676410D01*
X35379615Y-49864163D01*
X35379537Y-49864506D01*
X35379537Y-49864509D01*
X35343197Y-50024461D01*
X35276340Y-50174625D01*
X35181584Y-50308947D01*
X35062545Y-50422308D01*
X34923753Y-50510388D01*
X34770499Y-50569831D01*
X34608619Y-50598375D01*
X34444273Y-50594932D01*
X34283728Y-50559635D01*
X34133094Y-50493824D01*
X33998118Y-50400013D01*
X33883930Y-50281768D01*
X33794883Y-50143594D01*
X33734369Y-49990753D01*
X33704697Y-49829081D01*
X33706991Y-49664716D01*
X33741169Y-49503926D01*
X33805923Y-49352840D01*
X33898794Y-49217207D01*
X34016237Y-49102198D01*
X34153786Y-49012188D01*
X34306197Y-48950610D01*
X34467662Y-48919809D01*
X34632043Y-48920957D01*
X34632043Y-48920957D01*
G37*
G36*
X32092043Y-48920957D02*
X32253058Y-48954009D01*
X32404601Y-49017711D01*
X32540873Y-49109629D01*
X32656706Y-49226272D01*
X32747668Y-49363182D01*
X32810310Y-49515163D01*
X32842168Y-49676056D01*
X32842168Y-49676066D01*
X32842236Y-49676410D01*
X32839615Y-49864163D01*
X32839537Y-49864506D01*
X32839537Y-49864509D01*
X32803197Y-50024461D01*
X32736340Y-50174625D01*
X32641584Y-50308947D01*
X32522545Y-50422308D01*
X32383753Y-50510388D01*
X32230499Y-50569831D01*
X32068619Y-50598375D01*
X31904273Y-50594932D01*
X31743728Y-50559635D01*
X31593094Y-50493824D01*
X31458118Y-50400013D01*
X31343930Y-50281768D01*
X31254883Y-50143594D01*
X31194369Y-49990753D01*
X31164697Y-49829081D01*
X31166991Y-49664716D01*
X31201169Y-49503926D01*
X31265923Y-49352840D01*
X31358794Y-49217207D01*
X31476237Y-49102198D01*
X31613786Y-49012188D01*
X31766197Y-48950610D01*
X31927662Y-48919809D01*
X32092043Y-48920957D01*
X32092043Y-48920957D01*
G37*
G36*
X47078043Y-46507957D02*
X47239058Y-46541009D01*
X47390601Y-46604711D01*
X47526873Y-46696629D01*
X47642706Y-46813272D01*
X47733668Y-46950182D01*
X47796310Y-47102163D01*
X47828168Y-47263056D01*
X47828168Y-47263066D01*
X47828236Y-47263410D01*
X47825615Y-47451163D01*
X47825537Y-47451506D01*
X47825537Y-47451509D01*
X47789197Y-47611461D01*
X47722340Y-47761625D01*
X47627584Y-47895947D01*
X47508545Y-48009308D01*
X47369753Y-48097388D01*
X47216499Y-48156831D01*
X47054619Y-48185375D01*
X46890273Y-48181932D01*
X46729728Y-48146635D01*
X46579094Y-48080824D01*
X46444118Y-47987013D01*
X46329930Y-47868768D01*
X46240883Y-47730594D01*
X46180369Y-47577753D01*
X46150697Y-47416081D01*
X46152991Y-47251716D01*
X46187169Y-47090926D01*
X46251923Y-46939840D01*
X46344794Y-46804207D01*
X46462237Y-46689198D01*
X46599786Y-46599188D01*
X46752197Y-46537610D01*
X46913662Y-46506809D01*
X47078043Y-46507957D01*
X47078043Y-46507957D01*
G37*
G36*
X44538043Y-46507957D02*
X44699058Y-46541009D01*
X44850601Y-46604711D01*
X44986873Y-46696629D01*
X45102706Y-46813272D01*
X45193668Y-46950182D01*
X45256310Y-47102163D01*
X45288168Y-47263056D01*
X45288168Y-47263066D01*
X45288236Y-47263410D01*
X45285615Y-47451163D01*
X45285537Y-47451506D01*
X45285537Y-47451509D01*
X45249197Y-47611461D01*
X45182340Y-47761625D01*
X45087584Y-47895947D01*
X44968545Y-48009308D01*
X44829753Y-48097388D01*
X44676499Y-48156831D01*
X44514619Y-48185375D01*
X44350273Y-48181932D01*
X44189728Y-48146635D01*
X44039094Y-48080824D01*
X43904118Y-47987013D01*
X43789930Y-47868768D01*
X43700883Y-47730594D01*
X43640369Y-47577753D01*
X43610697Y-47416081D01*
X43612991Y-47251716D01*
X43647169Y-47090926D01*
X43711923Y-46939840D01*
X43804794Y-46804207D01*
X43922237Y-46689198D01*
X44059786Y-46599188D01*
X44212197Y-46537610D01*
X44373662Y-46506809D01*
X44538043Y-46507957D01*
X44538043Y-46507957D01*
G37*
G36*
X34632043Y-46380957D02*
X34793058Y-46414009D01*
X34944601Y-46477711D01*
X35080873Y-46569629D01*
X35196706Y-46686272D01*
X35287668Y-46823182D01*
X35350310Y-46975163D01*
X35382168Y-47136056D01*
X35382168Y-47136066D01*
X35382236Y-47136410D01*
X35379615Y-47324163D01*
X35379537Y-47324506D01*
X35379537Y-47324509D01*
X35343197Y-47484461D01*
X35276340Y-47634625D01*
X35181584Y-47768947D01*
X35062545Y-47882308D01*
X34923753Y-47970388D01*
X34770499Y-48029831D01*
X34608619Y-48058375D01*
X34444273Y-48054932D01*
X34283728Y-48019635D01*
X34133094Y-47953824D01*
X33998118Y-47860013D01*
X33883930Y-47741768D01*
X33794883Y-47603594D01*
X33734369Y-47450753D01*
X33704697Y-47289081D01*
X33706991Y-47124716D01*
X33741169Y-46963926D01*
X33805923Y-46812840D01*
X33898794Y-46677207D01*
X34016237Y-46562198D01*
X34153786Y-46472188D01*
X34306197Y-46410610D01*
X34467662Y-46379809D01*
X34632043Y-46380957D01*
X34632043Y-46380957D01*
G37*
G36*
X32092043Y-46380957D02*
X32253058Y-46414009D01*
X32404601Y-46477711D01*
X32540873Y-46569629D01*
X32656706Y-46686272D01*
X32747668Y-46823182D01*
X32810310Y-46975163D01*
X32842168Y-47136056D01*
X32842168Y-47136066D01*
X32842236Y-47136410D01*
X32839615Y-47324163D01*
X32839537Y-47324506D01*
X32839537Y-47324509D01*
X32803197Y-47484461D01*
X32736340Y-47634625D01*
X32641584Y-47768947D01*
X32522545Y-47882308D01*
X32383753Y-47970388D01*
X32230499Y-48029831D01*
X32068619Y-48058375D01*
X31904273Y-48054932D01*
X31743728Y-48019635D01*
X31593094Y-47953824D01*
X31458118Y-47860013D01*
X31343930Y-47741768D01*
X31254883Y-47603594D01*
X31194369Y-47450753D01*
X31164697Y-47289081D01*
X31166991Y-47124716D01*
X31201169Y-46963926D01*
X31265923Y-46812840D01*
X31358794Y-46677207D01*
X31476237Y-46562198D01*
X31613786Y-46472188D01*
X31766197Y-46410610D01*
X31927662Y-46379809D01*
X32092043Y-46380957D01*
X32092043Y-46380957D01*
G37*
G36*
X47078043Y-43967957D02*
X47239058Y-44001009D01*
X47390601Y-44064711D01*
X47526873Y-44156629D01*
X47642706Y-44273272D01*
X47733668Y-44410182D01*
X47796310Y-44562163D01*
X47828168Y-44723056D01*
X47828168Y-44723066D01*
X47828236Y-44723410D01*
X47825615Y-44911163D01*
X47825537Y-44911506D01*
X47825537Y-44911509D01*
X47789197Y-45071461D01*
X47722340Y-45221625D01*
X47627584Y-45355947D01*
X47508545Y-45469308D01*
X47369753Y-45557388D01*
X47216499Y-45616831D01*
X47054619Y-45645375D01*
X46890273Y-45641932D01*
X46729728Y-45606635D01*
X46579094Y-45540824D01*
X46444118Y-45447013D01*
X46329930Y-45328768D01*
X46240883Y-45190594D01*
X46180369Y-45037753D01*
X46150697Y-44876081D01*
X46152991Y-44711716D01*
X46187169Y-44550926D01*
X46251923Y-44399840D01*
X46344794Y-44264207D01*
X46462237Y-44149198D01*
X46599786Y-44059188D01*
X46752197Y-43997610D01*
X46913662Y-43966809D01*
X47078043Y-43967957D01*
X47078043Y-43967957D01*
G37*
G36*
X44538043Y-43967957D02*
X44699058Y-44001009D01*
X44850601Y-44064711D01*
X44986873Y-44156629D01*
X45102706Y-44273272D01*
X45193668Y-44410182D01*
X45256310Y-44562163D01*
X45288168Y-44723056D01*
X45288168Y-44723066D01*
X45288236Y-44723410D01*
X45285615Y-44911163D01*
X45285537Y-44911506D01*
X45285537Y-44911509D01*
X45249197Y-45071461D01*
X45182340Y-45221625D01*
X45087584Y-45355947D01*
X44968545Y-45469308D01*
X44829753Y-45557388D01*
X44676499Y-45616831D01*
X44514619Y-45645375D01*
X44350273Y-45641932D01*
X44189728Y-45606635D01*
X44039094Y-45540824D01*
X43904118Y-45447013D01*
X43789930Y-45328768D01*
X43700883Y-45190594D01*
X43640369Y-45037753D01*
X43610697Y-44876081D01*
X43612991Y-44711716D01*
X43647169Y-44550926D01*
X43711923Y-44399840D01*
X43804794Y-44264207D01*
X43922237Y-44149198D01*
X44059786Y-44059188D01*
X44212197Y-43997610D01*
X44373662Y-43966809D01*
X44538043Y-43967957D01*
X44538043Y-43967957D01*
G37*
G36*
X32092043Y-43840957D02*
X32253058Y-43874009D01*
X32404601Y-43937711D01*
X32540873Y-44029629D01*
X32656706Y-44146272D01*
X32747668Y-44283182D01*
X32810310Y-44435163D01*
X32842168Y-44596056D01*
X32842168Y-44596066D01*
X32842236Y-44596410D01*
X32839615Y-44784163D01*
X32839537Y-44784506D01*
X32839537Y-44784509D01*
X32803197Y-44944461D01*
X32736340Y-45094625D01*
X32641584Y-45228947D01*
X32522545Y-45342308D01*
X32383753Y-45430388D01*
X32230499Y-45489831D01*
X32068619Y-45518375D01*
X31904273Y-45514932D01*
X31743728Y-45479635D01*
X31593094Y-45413824D01*
X31458118Y-45320013D01*
X31343930Y-45201768D01*
X31254883Y-45063594D01*
X31194369Y-44910753D01*
X31164697Y-44749081D01*
X31166991Y-44584716D01*
X31201169Y-44423926D01*
X31265923Y-44272840D01*
X31358794Y-44137207D01*
X31476237Y-44022198D01*
X31613786Y-43932188D01*
X31766197Y-43870610D01*
X31927662Y-43839809D01*
X32092043Y-43840957D01*
X32092043Y-43840957D01*
G37*
G36*
X34632043Y-43840957D02*
X34793058Y-43874009D01*
X34944601Y-43937711D01*
X35080873Y-44029629D01*
X35196706Y-44146272D01*
X35287668Y-44283182D01*
X35350310Y-44435163D01*
X35382168Y-44596056D01*
X35382168Y-44596066D01*
X35382236Y-44596410D01*
X35379615Y-44784163D01*
X35379537Y-44784506D01*
X35379537Y-44784509D01*
X35343197Y-44944461D01*
X35276340Y-45094625D01*
X35181584Y-45228947D01*
X35062545Y-45342308D01*
X34923753Y-45430388D01*
X34770499Y-45489831D01*
X34608619Y-45518375D01*
X34444273Y-45514932D01*
X34283728Y-45479635D01*
X34133094Y-45413824D01*
X33998118Y-45320013D01*
X33883930Y-45201768D01*
X33794883Y-45063594D01*
X33734369Y-44910753D01*
X33704697Y-44749081D01*
X33706991Y-44584716D01*
X33741169Y-44423926D01*
X33805923Y-44272840D01*
X33898794Y-44137207D01*
X34016237Y-44022198D01*
X34153786Y-43932188D01*
X34306197Y-43870610D01*
X34467662Y-43839809D01*
X34632043Y-43840957D01*
X34632043Y-43840957D01*
G37*
G36*
X57043764Y-42939510D02*
X57055820Y-42947191D01*
X57076462Y-42951732D01*
X57084364Y-42951787D01*
X57196585Y-42974824D01*
X57302207Y-43019223D01*
X57397187Y-43083288D01*
X57477915Y-43164581D01*
X57541315Y-43260005D01*
X57584973Y-43365928D01*
X57607157Y-43477967D01*
X57607157Y-43477972D01*
X57607225Y-43478316D01*
X57605398Y-43609174D01*
X57605321Y-43609512D01*
X57605321Y-43609521D01*
X57580016Y-43720898D01*
X57533419Y-43825556D01*
X57467377Y-43919176D01*
X57384410Y-43998185D01*
X57287678Y-44059573D01*
X57180861Y-44101004D01*
X57068038Y-44120898D01*
X56953492Y-44118498D01*
X56841598Y-44093898D01*
X56736611Y-44048029D01*
X56642537Y-43982646D01*
X56562951Y-43900233D01*
X56500888Y-43803930D01*
X56458711Y-43697402D01*
X56438031Y-43584723D01*
X56439630Y-43470166D01*
X56463451Y-43358098D01*
X56508582Y-43252797D01*
X56573310Y-43158265D01*
X56655165Y-43078107D01*
X56751033Y-43015373D01*
X56857259Y-42972455D01*
X56969794Y-42950988D01*
X57007754Y-42951253D01*
X57021920Y-42949340D01*
X57034993Y-42943557D01*
X57042084Y-42937599D01*
X57043764Y-42939510D01*
X57043764Y-42939510D01*
G37*
G36*
X55773764Y-42939510D02*
X55785820Y-42947191D01*
X55806462Y-42951732D01*
X55814364Y-42951787D01*
X55926585Y-42974824D01*
X56032207Y-43019223D01*
X56127187Y-43083288D01*
X56207915Y-43164581D01*
X56271315Y-43260005D01*
X56314973Y-43365928D01*
X56337157Y-43477967D01*
X56337157Y-43477972D01*
X56337225Y-43478316D01*
X56335398Y-43609174D01*
X56335321Y-43609512D01*
X56335321Y-43609521D01*
X56310016Y-43720898D01*
X56263419Y-43825556D01*
X56197377Y-43919176D01*
X56114410Y-43998185D01*
X56017678Y-44059573D01*
X55910861Y-44101004D01*
X55798038Y-44120898D01*
X55683492Y-44118498D01*
X55571598Y-44093898D01*
X55466611Y-44048029D01*
X55372537Y-43982646D01*
X55292951Y-43900233D01*
X55230888Y-43803930D01*
X55188711Y-43697402D01*
X55168031Y-43584723D01*
X55169630Y-43470166D01*
X55193451Y-43358098D01*
X55238582Y-43252797D01*
X55303310Y-43158265D01*
X55385165Y-43078107D01*
X55481033Y-43015373D01*
X55587259Y-42972455D01*
X55699794Y-42950988D01*
X55737754Y-42951253D01*
X55751920Y-42949340D01*
X55764993Y-42943557D01*
X55772084Y-42937599D01*
X55773764Y-42939510D01*
X55773764Y-42939510D01*
G37*
G36*
X44538043Y-41427957D02*
X44699058Y-41461009D01*
X44850601Y-41524711D01*
X44986873Y-41616629D01*
X45102706Y-41733272D01*
X45193668Y-41870182D01*
X45256310Y-42022163D01*
X45288168Y-42183056D01*
X45288168Y-42183066D01*
X45288236Y-42183410D01*
X45285615Y-42371163D01*
X45285537Y-42371506D01*
X45285537Y-42371509D01*
X45249197Y-42531461D01*
X45182340Y-42681625D01*
X45087584Y-42815947D01*
X44968545Y-42929308D01*
X44829753Y-43017388D01*
X44676499Y-43076831D01*
X44514619Y-43105375D01*
X44350273Y-43101932D01*
X44189728Y-43066635D01*
X44039094Y-43000824D01*
X43904118Y-42907013D01*
X43789930Y-42788768D01*
X43700883Y-42650594D01*
X43640369Y-42497753D01*
X43610697Y-42336081D01*
X43612991Y-42171716D01*
X43647169Y-42010926D01*
X43711923Y-41859840D01*
X43804794Y-41724207D01*
X43922237Y-41609198D01*
X44059786Y-41519188D01*
X44212197Y-41457610D01*
X44373662Y-41426809D01*
X44538043Y-41427957D01*
X44538043Y-41427957D01*
G37*
G36*
X47078043Y-41427957D02*
X47239058Y-41461009D01*
X47390601Y-41524711D01*
X47526873Y-41616629D01*
X47642706Y-41733272D01*
X47733668Y-41870182D01*
X47796310Y-42022163D01*
X47828168Y-42183056D01*
X47828168Y-42183066D01*
X47828236Y-42183410D01*
X47825615Y-42371163D01*
X47825537Y-42371506D01*
X47825537Y-42371509D01*
X47789197Y-42531461D01*
X47722340Y-42681625D01*
X47627584Y-42815947D01*
X47508545Y-42929308D01*
X47369753Y-43017388D01*
X47216499Y-43076831D01*
X47054619Y-43105375D01*
X46890273Y-43101932D01*
X46729728Y-43066635D01*
X46579094Y-43000824D01*
X46444118Y-42907013D01*
X46329930Y-42788768D01*
X46240883Y-42650594D01*
X46180369Y-42497753D01*
X46150697Y-42336081D01*
X46152991Y-42171716D01*
X46187169Y-42010926D01*
X46251923Y-41859840D01*
X46344794Y-41724207D01*
X46462237Y-41609198D01*
X46599786Y-41519188D01*
X46752197Y-41457610D01*
X46913662Y-41426809D01*
X47078043Y-41427957D01*
X47078043Y-41427957D01*
G37*
G36*
X32092043Y-41300957D02*
X32253058Y-41334009D01*
X32404601Y-41397711D01*
X32540873Y-41489629D01*
X32656706Y-41606272D01*
X32747668Y-41743182D01*
X32810310Y-41895163D01*
X32842168Y-42056056D01*
X32842168Y-42056066D01*
X32842236Y-42056410D01*
X32839615Y-42244163D01*
X32839537Y-42244506D01*
X32839537Y-42244509D01*
X32803197Y-42404461D01*
X32736340Y-42554625D01*
X32641584Y-42688947D01*
X32522545Y-42802308D01*
X32383753Y-42890388D01*
X32230499Y-42949831D01*
X32068619Y-42978375D01*
X31904273Y-42974932D01*
X31743728Y-42939635D01*
X31593094Y-42873824D01*
X31458118Y-42780013D01*
X31343930Y-42661768D01*
X31254883Y-42523594D01*
X31194369Y-42370753D01*
X31164697Y-42209081D01*
X31166991Y-42044716D01*
X31201169Y-41883926D01*
X31265923Y-41732840D01*
X31358794Y-41597207D01*
X31476237Y-41482198D01*
X31613786Y-41392188D01*
X31766197Y-41330610D01*
X31927662Y-41299809D01*
X32092043Y-41300957D01*
X32092043Y-41300957D01*
G37*
G36*
X34632043Y-41300957D02*
X34793058Y-41334009D01*
X34944601Y-41397711D01*
X35080873Y-41489629D01*
X35196706Y-41606272D01*
X35287668Y-41743182D01*
X35350310Y-41895163D01*
X35382168Y-42056056D01*
X35382168Y-42056066D01*
X35382236Y-42056410D01*
X35379615Y-42244163D01*
X35379537Y-42244506D01*
X35379537Y-42244509D01*
X35343197Y-42404461D01*
X35276340Y-42554625D01*
X35181584Y-42688947D01*
X35062545Y-42802308D01*
X34923753Y-42890388D01*
X34770499Y-42949831D01*
X34608619Y-42978375D01*
X34444273Y-42974932D01*
X34283728Y-42939635D01*
X34133094Y-42873824D01*
X33998118Y-42780013D01*
X33883930Y-42661768D01*
X33794883Y-42523594D01*
X33734369Y-42370753D01*
X33704697Y-42209081D01*
X33706991Y-42044716D01*
X33741169Y-41883926D01*
X33805923Y-41732840D01*
X33898794Y-41597207D01*
X34016237Y-41482198D01*
X34153786Y-41392188D01*
X34306197Y-41330610D01*
X34467662Y-41299809D01*
X34632043Y-41300957D01*
X34632043Y-41300957D01*
G37*
G36*
X57043764Y-41669510D02*
X57055820Y-41677191D01*
X57076462Y-41681732D01*
X57084364Y-41681787D01*
X57196585Y-41704824D01*
X57302207Y-41749223D01*
X57397187Y-41813288D01*
X57477915Y-41894581D01*
X57541315Y-41990005D01*
X57584973Y-42095928D01*
X57607157Y-42207967D01*
X57607157Y-42207972D01*
X57607225Y-42208316D01*
X57605398Y-42339174D01*
X57605321Y-42339512D01*
X57605321Y-42339521D01*
X57580016Y-42450898D01*
X57533419Y-42555556D01*
X57467377Y-42649176D01*
X57384410Y-42728185D01*
X57287678Y-42789573D01*
X57180861Y-42831004D01*
X57067996Y-42850905D01*
X57054408Y-42855343D01*
X57042594Y-42863391D01*
X57042383Y-42863646D01*
X57037111Y-42858747D01*
X57024344Y-42852318D01*
X57009173Y-42849665D01*
X56953493Y-42848498D01*
X56841598Y-42823898D01*
X56736611Y-42778029D01*
X56642537Y-42712646D01*
X56562951Y-42630233D01*
X56500888Y-42533930D01*
X56458711Y-42427402D01*
X56438031Y-42314723D01*
X56439630Y-42200166D01*
X56463451Y-42088098D01*
X56508582Y-41982797D01*
X56573310Y-41888265D01*
X56655165Y-41808107D01*
X56751033Y-41745373D01*
X56857259Y-41702455D01*
X56969794Y-41680988D01*
X57007754Y-41681253D01*
X57021920Y-41679340D01*
X57034993Y-41673557D01*
X57042084Y-41667599D01*
X57043764Y-41669510D01*
X57043764Y-41669510D01*
G37*
G36*
X55773764Y-41669510D02*
X55785820Y-41677191D01*
X55806462Y-41681732D01*
X55814364Y-41681787D01*
X55926585Y-41704824D01*
X56032207Y-41749223D01*
X56127187Y-41813288D01*
X56207915Y-41894581D01*
X56271315Y-41990005D01*
X56314973Y-42095928D01*
X56337157Y-42207967D01*
X56337157Y-42207972D01*
X56337225Y-42208316D01*
X56335398Y-42339174D01*
X56335321Y-42339512D01*
X56335321Y-42339521D01*
X56310016Y-42450898D01*
X56263419Y-42555556D01*
X56197377Y-42649176D01*
X56114410Y-42728185D01*
X56017678Y-42789573D01*
X55910861Y-42831004D01*
X55797996Y-42850905D01*
X55784408Y-42855343D01*
X55772594Y-42863391D01*
X55772383Y-42863646D01*
X55767111Y-42858747D01*
X55754344Y-42852318D01*
X55739173Y-42849665D01*
X55683493Y-42848498D01*
X55571598Y-42823898D01*
X55466611Y-42778029D01*
X55372537Y-42712646D01*
X55292951Y-42630233D01*
X55230888Y-42533930D01*
X55188711Y-42427402D01*
X55168031Y-42314723D01*
X55169630Y-42200166D01*
X55193451Y-42088098D01*
X55238582Y-41982797D01*
X55303310Y-41888265D01*
X55385165Y-41808107D01*
X55481033Y-41745373D01*
X55587259Y-41702455D01*
X55699794Y-41680988D01*
X55737754Y-41681253D01*
X55751920Y-41679340D01*
X55764993Y-41673557D01*
X55772084Y-41667599D01*
X55773764Y-41669510D01*
X55773764Y-41669510D01*
G37*
G36*
X55773764Y-40399510D02*
X55785820Y-40407191D01*
X55806462Y-40411732D01*
X55814364Y-40411787D01*
X55926585Y-40434824D01*
X56032207Y-40479223D01*
X56127187Y-40543288D01*
X56207915Y-40624581D01*
X56271315Y-40720005D01*
X56314973Y-40825928D01*
X56337157Y-40937967D01*
X56337157Y-40937972D01*
X56337225Y-40938316D01*
X56335398Y-41069174D01*
X56335321Y-41069512D01*
X56335321Y-41069521D01*
X56310016Y-41180898D01*
X56263419Y-41285556D01*
X56197377Y-41379176D01*
X56114410Y-41458185D01*
X56017678Y-41519573D01*
X55910861Y-41561004D01*
X55797996Y-41580905D01*
X55784408Y-41585343D01*
X55772594Y-41593391D01*
X55772383Y-41593646D01*
X55767111Y-41588747D01*
X55754344Y-41582318D01*
X55739173Y-41579665D01*
X55683493Y-41578498D01*
X55571598Y-41553898D01*
X55466611Y-41508029D01*
X55372537Y-41442646D01*
X55292951Y-41360233D01*
X55230888Y-41263930D01*
X55188711Y-41157402D01*
X55168031Y-41044723D01*
X55169630Y-40930166D01*
X55193451Y-40818098D01*
X55238582Y-40712797D01*
X55303310Y-40618265D01*
X55385165Y-40538107D01*
X55481033Y-40475373D01*
X55587259Y-40432455D01*
X55699794Y-40410988D01*
X55737754Y-40411253D01*
X55751920Y-40409340D01*
X55764993Y-40403557D01*
X55772084Y-40397599D01*
X55773764Y-40399510D01*
X55773764Y-40399510D01*
G37*
G36*
X57043764Y-40399510D02*
X57055820Y-40407191D01*
X57076462Y-40411732D01*
X57084364Y-40411787D01*
X57196585Y-40434824D01*
X57302207Y-40479223D01*
X57397187Y-40543288D01*
X57477915Y-40624581D01*
X57541315Y-40720005D01*
X57584973Y-40825928D01*
X57607157Y-40937967D01*
X57607157Y-40937972D01*
X57607225Y-40938316D01*
X57605398Y-41069174D01*
X57605321Y-41069512D01*
X57605321Y-41069521D01*
X57580016Y-41180898D01*
X57533419Y-41285556D01*
X57467377Y-41379176D01*
X57384410Y-41458185D01*
X57287678Y-41519573D01*
X57180861Y-41561004D01*
X57067996Y-41580905D01*
X57054408Y-41585343D01*
X57042594Y-41593391D01*
X57042383Y-41593646D01*
X57037111Y-41588747D01*
X57024344Y-41582318D01*
X57009173Y-41579665D01*
X56953493Y-41578498D01*
X56841598Y-41553898D01*
X56736611Y-41508029D01*
X56642537Y-41442646D01*
X56562951Y-41360233D01*
X56500888Y-41263930D01*
X56458711Y-41157402D01*
X56438031Y-41044723D01*
X56439630Y-40930166D01*
X56463451Y-40818098D01*
X56508582Y-40712797D01*
X56573310Y-40618265D01*
X56655165Y-40538107D01*
X56751033Y-40475373D01*
X56857259Y-40432455D01*
X56969794Y-40410988D01*
X57007754Y-40411253D01*
X57021920Y-40409340D01*
X57034993Y-40403557D01*
X57042084Y-40397599D01*
X57043764Y-40399510D01*
X57043764Y-40399510D01*
G37*
G36*
X44538043Y-38887957D02*
X44699058Y-38921009D01*
X44850601Y-38984711D01*
X44986873Y-39076629D01*
X45102706Y-39193272D01*
X45193668Y-39330182D01*
X45256310Y-39482163D01*
X45288168Y-39643056D01*
X45288168Y-39643066D01*
X45288236Y-39643410D01*
X45285615Y-39831163D01*
X45285537Y-39831506D01*
X45285537Y-39831509D01*
X45249197Y-39991461D01*
X45182340Y-40141625D01*
X45087584Y-40275947D01*
X44968545Y-40389308D01*
X44829753Y-40477388D01*
X44676499Y-40536831D01*
X44514619Y-40565375D01*
X44350273Y-40561932D01*
X44189728Y-40526635D01*
X44039094Y-40460824D01*
X43904118Y-40367013D01*
X43789930Y-40248768D01*
X43700883Y-40110594D01*
X43640369Y-39957753D01*
X43610697Y-39796081D01*
X43612991Y-39631716D01*
X43647169Y-39470926D01*
X43711923Y-39319840D01*
X43804794Y-39184207D01*
X43922237Y-39069198D01*
X44059786Y-38979188D01*
X44212197Y-38917610D01*
X44373662Y-38886809D01*
X44538043Y-38887957D01*
X44538043Y-38887957D01*
G37*
G36*
X47078043Y-38887957D02*
X47239058Y-38921009D01*
X47390601Y-38984711D01*
X47526873Y-39076629D01*
X47642706Y-39193272D01*
X47733668Y-39330182D01*
X47796310Y-39482163D01*
X47828168Y-39643056D01*
X47828168Y-39643066D01*
X47828236Y-39643410D01*
X47825615Y-39831163D01*
X47825537Y-39831506D01*
X47825537Y-39831509D01*
X47789197Y-39991461D01*
X47722340Y-40141625D01*
X47627584Y-40275947D01*
X47508545Y-40389308D01*
X47369753Y-40477388D01*
X47216499Y-40536831D01*
X47054619Y-40565375D01*
X46890273Y-40561932D01*
X46729728Y-40526635D01*
X46579094Y-40460824D01*
X46444118Y-40367013D01*
X46329930Y-40248768D01*
X46240883Y-40110594D01*
X46180369Y-39957753D01*
X46150697Y-39796081D01*
X46152991Y-39631716D01*
X46187169Y-39470926D01*
X46251923Y-39319840D01*
X46344794Y-39184207D01*
X46462237Y-39069198D01*
X46599786Y-38979188D01*
X46752197Y-38917610D01*
X46913662Y-38886809D01*
X47078043Y-38887957D01*
X47078043Y-38887957D01*
G37*
G36*
X32092043Y-38760957D02*
X32253058Y-38794009D01*
X32404601Y-38857711D01*
X32540873Y-38949629D01*
X32656706Y-39066272D01*
X32747668Y-39203182D01*
X32810310Y-39355163D01*
X32842168Y-39516056D01*
X32842168Y-39516066D01*
X32842236Y-39516410D01*
X32839615Y-39704163D01*
X32839537Y-39704506D01*
X32839537Y-39704509D01*
X32803197Y-39864461D01*
X32736340Y-40014625D01*
X32641584Y-40148947D01*
X32522545Y-40262308D01*
X32383753Y-40350388D01*
X32230499Y-40409831D01*
X32068619Y-40438375D01*
X31904273Y-40434932D01*
X31743728Y-40399635D01*
X31593094Y-40333824D01*
X31458118Y-40240013D01*
X31343930Y-40121768D01*
X31254883Y-39983594D01*
X31194369Y-39830753D01*
X31164697Y-39669081D01*
X31166991Y-39504716D01*
X31201169Y-39343926D01*
X31265923Y-39192840D01*
X31358794Y-39057207D01*
X31476237Y-38942198D01*
X31613786Y-38852188D01*
X31766197Y-38790610D01*
X31927662Y-38759809D01*
X32092043Y-38760957D01*
X32092043Y-38760957D01*
G37*
G36*
X34632043Y-38760957D02*
X34793058Y-38794009D01*
X34944601Y-38857711D01*
X35080873Y-38949629D01*
X35196706Y-39066272D01*
X35287668Y-39203182D01*
X35350310Y-39355163D01*
X35382168Y-39516056D01*
X35382168Y-39516066D01*
X35382236Y-39516410D01*
X35379615Y-39704163D01*
X35379537Y-39704506D01*
X35379537Y-39704509D01*
X35343197Y-39864461D01*
X35276340Y-40014625D01*
X35181584Y-40148947D01*
X35062545Y-40262308D01*
X34923753Y-40350388D01*
X34770499Y-40409831D01*
X34608619Y-40438375D01*
X34444273Y-40434932D01*
X34283728Y-40399635D01*
X34133094Y-40333824D01*
X33998118Y-40240013D01*
X33883930Y-40121768D01*
X33794883Y-39983594D01*
X33734369Y-39830753D01*
X33704697Y-39669081D01*
X33706991Y-39504716D01*
X33741169Y-39343926D01*
X33805923Y-39192840D01*
X33898794Y-39057207D01*
X34016237Y-38942198D01*
X34153786Y-38852188D01*
X34306197Y-38790610D01*
X34467662Y-38759809D01*
X34632043Y-38760957D01*
X34632043Y-38760957D01*
G37*
G36*
X57043764Y-39129510D02*
X57055820Y-39137191D01*
X57076462Y-39141732D01*
X57084364Y-39141787D01*
X57196585Y-39164824D01*
X57302207Y-39209223D01*
X57397187Y-39273288D01*
X57477915Y-39354581D01*
X57541315Y-39450005D01*
X57584973Y-39555928D01*
X57607157Y-39667967D01*
X57607157Y-39667972D01*
X57607225Y-39668316D01*
X57605398Y-39799174D01*
X57605321Y-39799512D01*
X57605321Y-39799521D01*
X57580016Y-39910898D01*
X57533419Y-40015556D01*
X57467377Y-40109176D01*
X57384410Y-40188185D01*
X57287678Y-40249573D01*
X57180861Y-40291004D01*
X57067996Y-40310905D01*
X57054408Y-40315343D01*
X57042594Y-40323391D01*
X57042383Y-40323646D01*
X57037111Y-40318747D01*
X57024344Y-40312318D01*
X57009173Y-40309665D01*
X56953493Y-40308498D01*
X56841598Y-40283898D01*
X56736611Y-40238029D01*
X56642537Y-40172646D01*
X56562951Y-40090233D01*
X56500888Y-39993930D01*
X56458711Y-39887402D01*
X56438031Y-39774723D01*
X56439630Y-39660166D01*
X56463451Y-39548098D01*
X56508582Y-39442797D01*
X56573310Y-39348265D01*
X56655165Y-39268107D01*
X56751033Y-39205373D01*
X56857259Y-39162455D01*
X56969794Y-39140988D01*
X57007754Y-39141253D01*
X57021920Y-39139340D01*
X57034993Y-39133557D01*
X57042084Y-39127599D01*
X57043764Y-39129510D01*
X57043764Y-39129510D01*
G37*
G36*
X55773764Y-39129510D02*
X55785820Y-39137191D01*
X55806462Y-39141732D01*
X55814364Y-39141787D01*
X55926585Y-39164824D01*
X56032207Y-39209223D01*
X56127187Y-39273288D01*
X56207915Y-39354581D01*
X56271315Y-39450005D01*
X56314973Y-39555928D01*
X56337157Y-39667967D01*
X56337157Y-39667972D01*
X56337225Y-39668316D01*
X56335398Y-39799174D01*
X56335321Y-39799512D01*
X56335321Y-39799521D01*
X56310016Y-39910898D01*
X56263419Y-40015556D01*
X56197377Y-40109176D01*
X56114410Y-40188185D01*
X56017678Y-40249573D01*
X55910861Y-40291004D01*
X55797996Y-40310905D01*
X55784408Y-40315343D01*
X55772594Y-40323391D01*
X55772383Y-40323646D01*
X55767111Y-40318747D01*
X55754344Y-40312318D01*
X55739173Y-40309665D01*
X55683493Y-40308498D01*
X55571598Y-40283898D01*
X55466611Y-40238029D01*
X55372537Y-40172646D01*
X55292951Y-40090233D01*
X55230888Y-39993930D01*
X55188711Y-39887402D01*
X55168031Y-39774723D01*
X55169630Y-39660166D01*
X55193451Y-39548098D01*
X55238582Y-39442797D01*
X55303310Y-39348265D01*
X55385165Y-39268107D01*
X55481033Y-39205373D01*
X55587259Y-39162455D01*
X55699794Y-39140988D01*
X55737754Y-39141253D01*
X55751920Y-39139340D01*
X55764993Y-39133557D01*
X55772084Y-39127599D01*
X55773764Y-39129510D01*
X55773764Y-39129510D01*
G37*
G36*
X57084364Y-37871787D02*
X57196585Y-37894824D01*
X57302207Y-37939223D01*
X57397187Y-38003288D01*
X57477915Y-38084581D01*
X57541315Y-38180005D01*
X57584973Y-38285928D01*
X57607157Y-38397967D01*
X57607157Y-38397972D01*
X57607225Y-38398316D01*
X57605398Y-38529174D01*
X57605321Y-38529512D01*
X57605321Y-38529521D01*
X57580016Y-38640898D01*
X57533419Y-38745556D01*
X57467377Y-38839176D01*
X57384410Y-38918185D01*
X57287678Y-38979573D01*
X57180861Y-39021004D01*
X57067996Y-39040905D01*
X57054408Y-39045343D01*
X57042594Y-39053391D01*
X57042383Y-39053646D01*
X57037111Y-39048747D01*
X57024344Y-39042318D01*
X57009173Y-39039665D01*
X56953493Y-39038498D01*
X56841598Y-39013898D01*
X56736611Y-38968029D01*
X56642537Y-38902646D01*
X56562951Y-38820233D01*
X56500888Y-38723930D01*
X56458711Y-38617402D01*
X56438031Y-38504723D01*
X56439630Y-38390166D01*
X56463451Y-38278098D01*
X56508582Y-38172797D01*
X56573310Y-38078265D01*
X56655165Y-37998107D01*
X56751033Y-37935373D01*
X56857259Y-37892455D01*
X56969794Y-37870988D01*
X57084364Y-37871787D01*
X57084364Y-37871787D01*
G37*
G36*
X55814364Y-37871787D02*
X55926585Y-37894824D01*
X56032207Y-37939223D01*
X56127187Y-38003288D01*
X56207915Y-38084581D01*
X56271315Y-38180005D01*
X56314973Y-38285928D01*
X56337157Y-38397967D01*
X56337157Y-38397972D01*
X56337225Y-38398316D01*
X56335398Y-38529174D01*
X56335321Y-38529512D01*
X56335321Y-38529521D01*
X56310016Y-38640898D01*
X56263419Y-38745556D01*
X56197377Y-38839176D01*
X56114410Y-38918185D01*
X56017678Y-38979573D01*
X55910861Y-39021004D01*
X55797996Y-39040905D01*
X55784408Y-39045343D01*
X55772594Y-39053391D01*
X55772383Y-39053646D01*
X55767111Y-39048747D01*
X55754344Y-39042318D01*
X55739173Y-39039665D01*
X55683493Y-39038498D01*
X55571598Y-39013898D01*
X55466611Y-38968029D01*
X55372537Y-38902646D01*
X55292951Y-38820233D01*
X55230888Y-38723930D01*
X55188711Y-38617402D01*
X55168031Y-38504723D01*
X55169630Y-38390166D01*
X55193451Y-38278098D01*
X55238582Y-38172797D01*
X55303310Y-38078265D01*
X55385165Y-37998107D01*
X55481033Y-37935373D01*
X55587259Y-37892455D01*
X55699794Y-37870988D01*
X55814364Y-37871787D01*
X55814364Y-37871787D01*
G37*
M02*
