%TF.GenerationSoftware,KiCad,Pcbnew,4.0.5-e0-6337~49~ubuntu16.04.1*%
%TF.CreationDate,2017-08-05T15:29:30-07:00*%
%TF.ProjectId,atsamd21g18-jtag-stlinkv2-adapter,617473616D6432316731382D6A746167,1.0*%
%TF.FileFunction,Legend,Bot*%
%FSLAX46Y46*%
G04 Gerber Fmt 4.6, Leading zero omitted, Abs format (unit mm)*
G04 Created by KiCad (PCBNEW 4.0.5-e0-6337~49~ubuntu16.04.1) date Sat Aug  5 15:29:30 2017*
%MOMM*%
%LPD*%
G01*
G04 APERTURE LIST*
%ADD10C,0.350000*%
%ADD11C,0.152400*%
%ADD12R,1.879600X2.184400*%
%ADD13O,1.879600X2.184400*%
%ADD14C,1.676400*%
%ADD15C,1.168400*%
G04 APERTURE END LIST*
D10*
D11*
X100233237Y-92492286D02*
X100039713Y-93169619D01*
X99846190Y-92685810D01*
X99652666Y-93169619D01*
X99459142Y-92492286D01*
X99072094Y-93169619D02*
X99072094Y-92492286D01*
X99072094Y-92153619D02*
X99120475Y-92202000D01*
X99072094Y-92250381D01*
X99023713Y-92202000D01*
X99072094Y-92153619D01*
X99072094Y-92250381D01*
X98152856Y-93121238D02*
X98249618Y-93169619D01*
X98443141Y-93169619D01*
X98539903Y-93121238D01*
X98588284Y-93072857D01*
X98636665Y-92976095D01*
X98636665Y-92685810D01*
X98588284Y-92589048D01*
X98539903Y-92540667D01*
X98443141Y-92492286D01*
X98249618Y-92492286D01*
X98152856Y-92540667D01*
X97717427Y-93169619D02*
X97717427Y-92153619D01*
X97620665Y-92782571D02*
X97330380Y-93169619D01*
X97330380Y-92492286D02*
X97717427Y-92879333D01*
X96507904Y-93121238D02*
X96604666Y-93169619D01*
X96798189Y-93169619D01*
X96894951Y-93121238D01*
X96943332Y-93024476D01*
X96943332Y-92637429D01*
X96894951Y-92540667D01*
X96798189Y-92492286D01*
X96604666Y-92492286D01*
X96507904Y-92540667D01*
X96459523Y-92637429D01*
X96459523Y-92734190D01*
X96943332Y-92830952D01*
X96024094Y-93169619D02*
X96024094Y-92492286D01*
X96024094Y-92685810D02*
X95975713Y-92589048D01*
X95927332Y-92540667D01*
X95830570Y-92492286D01*
X95733809Y-92492286D01*
X95395142Y-93169619D02*
X95395142Y-92153619D01*
X95395142Y-92540667D02*
X95298380Y-92492286D01*
X95104857Y-92492286D01*
X95008095Y-92540667D01*
X94959714Y-92589048D01*
X94911333Y-92685810D01*
X94911333Y-92976095D01*
X94959714Y-93072857D01*
X95008095Y-93121238D01*
X95104857Y-93169619D01*
X95298380Y-93169619D01*
X95395142Y-93121238D01*
X94330761Y-93169619D02*
X94427523Y-93121238D01*
X94475904Y-93072857D01*
X94524285Y-92976095D01*
X94524285Y-92685810D01*
X94475904Y-92589048D01*
X94427523Y-92540667D01*
X94330761Y-92492286D01*
X94185619Y-92492286D01*
X94088857Y-92540667D01*
X94040476Y-92589048D01*
X93992095Y-92685810D01*
X93992095Y-92976095D01*
X94040476Y-93072857D01*
X94088857Y-93121238D01*
X94185619Y-93169619D01*
X94330761Y-93169619D01*
X93653428Y-93169619D02*
X93121238Y-92492286D01*
X93653428Y-92492286D02*
X93121238Y-93169619D01*
X92734190Y-93072857D02*
X92685809Y-93121238D01*
X92734190Y-93169619D01*
X92782571Y-93121238D01*
X92734190Y-93072857D01*
X92734190Y-93169619D01*
X92250380Y-92492286D02*
X92250380Y-93169619D01*
X92250380Y-92589048D02*
X92201999Y-92540667D01*
X92105237Y-92492286D01*
X91960095Y-92492286D01*
X91863333Y-92540667D01*
X91814952Y-92637429D01*
X91814952Y-93169619D01*
X90944095Y-93121238D02*
X91040857Y-93169619D01*
X91234380Y-93169619D01*
X91331142Y-93121238D01*
X91379523Y-93024476D01*
X91379523Y-92637429D01*
X91331142Y-92540667D01*
X91234380Y-92492286D01*
X91040857Y-92492286D01*
X90944095Y-92540667D01*
X90895714Y-92637429D01*
X90895714Y-92734190D01*
X91379523Y-92830952D01*
X90605428Y-92492286D02*
X90218380Y-92492286D01*
X90460285Y-92153619D02*
X90460285Y-93024476D01*
X90411904Y-93121238D01*
X90315142Y-93169619D01*
X90218380Y-93169619D01*
X100813809Y-84663038D02*
X100668666Y-84711419D01*
X100426762Y-84711419D01*
X100330000Y-84663038D01*
X100281619Y-84614657D01*
X100233238Y-84517895D01*
X100233238Y-84421133D01*
X100281619Y-84324371D01*
X100330000Y-84275990D01*
X100426762Y-84227610D01*
X100620285Y-84179229D01*
X100717047Y-84130848D01*
X100765428Y-84082467D01*
X100813809Y-83985705D01*
X100813809Y-83888943D01*
X100765428Y-83792181D01*
X100717047Y-83743800D01*
X100620285Y-83695419D01*
X100378381Y-83695419D01*
X100233238Y-83743800D01*
X99942952Y-83695419D02*
X99362381Y-83695419D01*
X99652666Y-84711419D02*
X99652666Y-83695419D01*
X98539905Y-84711419D02*
X99023714Y-84711419D01*
X99023714Y-83695419D01*
X98201238Y-84711419D02*
X98201238Y-84034086D01*
X98201238Y-83695419D02*
X98249619Y-83743800D01*
X98201238Y-83792181D01*
X98152857Y-83743800D01*
X98201238Y-83695419D01*
X98201238Y-83792181D01*
X97717428Y-84034086D02*
X97717428Y-84711419D01*
X97717428Y-84130848D02*
X97669047Y-84082467D01*
X97572285Y-84034086D01*
X97427143Y-84034086D01*
X97330381Y-84082467D01*
X97282000Y-84179229D01*
X97282000Y-84711419D01*
X96798190Y-84711419D02*
X96798190Y-83695419D01*
X96701428Y-84324371D02*
X96411143Y-84711419D01*
X96411143Y-84034086D02*
X96798190Y-84421133D01*
X95250000Y-83647038D02*
X96120857Y-84953324D01*
X95008095Y-84034086D02*
X94766190Y-84711419D01*
X94524286Y-84034086D01*
X94185619Y-83792181D02*
X94137238Y-83743800D01*
X94040476Y-83695419D01*
X93798572Y-83695419D01*
X93701810Y-83743800D01*
X93653429Y-83792181D01*
X93605048Y-83888943D01*
X93605048Y-83985705D01*
X93653429Y-84130848D01*
X94234000Y-84711419D01*
X93605048Y-84711419D01*
X92443905Y-84663038D02*
X92298762Y-84711419D01*
X92056858Y-84711419D01*
X91960096Y-84663038D01*
X91911715Y-84614657D01*
X91863334Y-84517895D01*
X91863334Y-84421133D01*
X91911715Y-84324371D01*
X91960096Y-84275990D01*
X92056858Y-84227610D01*
X92250381Y-84179229D01*
X92347143Y-84130848D01*
X92395524Y-84082467D01*
X92443905Y-83985705D01*
X92443905Y-83888943D01*
X92395524Y-83792181D01*
X92347143Y-83743800D01*
X92250381Y-83695419D01*
X92008477Y-83695419D01*
X91863334Y-83743800D01*
X91524667Y-83695419D02*
X91282762Y-84711419D01*
X91089239Y-83985705D01*
X90895715Y-84711419D01*
X90653810Y-83695419D01*
X90266762Y-84711419D02*
X90266762Y-83695419D01*
X90024857Y-83695419D01*
X89879715Y-83743800D01*
X89782953Y-83840562D01*
X89734572Y-83937324D01*
X89686191Y-84130848D01*
X89686191Y-84275990D01*
X89734572Y-84469514D01*
X89782953Y-84566276D01*
X89879715Y-84663038D01*
X90024857Y-84711419D01*
X90266762Y-84711419D01*
X102482951Y-86097533D02*
X101999142Y-86097533D01*
X102579713Y-86387819D02*
X102241046Y-85371819D01*
X101902380Y-86387819D01*
X101128285Y-86387819D02*
X101128285Y-85371819D01*
X101128285Y-86339438D02*
X101225047Y-86387819D01*
X101418570Y-86387819D01*
X101515332Y-86339438D01*
X101563713Y-86291057D01*
X101612094Y-86194295D01*
X101612094Y-85904010D01*
X101563713Y-85807248D01*
X101515332Y-85758867D01*
X101418570Y-85710486D01*
X101225047Y-85710486D01*
X101128285Y-85758867D01*
X100209047Y-86387819D02*
X100209047Y-85855629D01*
X100257428Y-85758867D01*
X100354190Y-85710486D01*
X100547713Y-85710486D01*
X100644475Y-85758867D01*
X100209047Y-86339438D02*
X100305809Y-86387819D01*
X100547713Y-86387819D01*
X100644475Y-86339438D01*
X100692856Y-86242676D01*
X100692856Y-86145914D01*
X100644475Y-86049152D01*
X100547713Y-86000771D01*
X100305809Y-86000771D01*
X100209047Y-85952390D01*
X99725237Y-85710486D02*
X99725237Y-86726486D01*
X99725237Y-85758867D02*
X99628475Y-85710486D01*
X99434952Y-85710486D01*
X99338190Y-85758867D01*
X99289809Y-85807248D01*
X99241428Y-85904010D01*
X99241428Y-86194295D01*
X99289809Y-86291057D01*
X99338190Y-86339438D01*
X99434952Y-86387819D01*
X99628475Y-86387819D01*
X99725237Y-86339438D01*
X98951142Y-85710486D02*
X98564094Y-85710486D01*
X98805999Y-85371819D02*
X98805999Y-86242676D01*
X98757618Y-86339438D01*
X98660856Y-86387819D01*
X98564094Y-86387819D01*
X97838381Y-86339438D02*
X97935143Y-86387819D01*
X98128666Y-86387819D01*
X98225428Y-86339438D01*
X98273809Y-86242676D01*
X98273809Y-85855629D01*
X98225428Y-85758867D01*
X98128666Y-85710486D01*
X97935143Y-85710486D01*
X97838381Y-85758867D01*
X97790000Y-85855629D01*
X97790000Y-85952390D01*
X98273809Y-86049152D01*
X97354571Y-86387819D02*
X97354571Y-85710486D01*
X97354571Y-85904010D02*
X97306190Y-85807248D01*
X97257809Y-85758867D01*
X97161047Y-85710486D01*
X97064286Y-85710486D01*
X95612858Y-85855629D02*
X95467715Y-85904010D01*
X95419334Y-85952390D01*
X95370953Y-86049152D01*
X95370953Y-86194295D01*
X95419334Y-86291057D01*
X95467715Y-86339438D01*
X95564477Y-86387819D01*
X95951524Y-86387819D01*
X95951524Y-85371819D01*
X95612858Y-85371819D01*
X95516096Y-85420200D01*
X95467715Y-85468581D01*
X95419334Y-85565343D01*
X95419334Y-85662105D01*
X95467715Y-85758867D01*
X95516096Y-85807248D01*
X95612858Y-85855629D01*
X95951524Y-85855629D01*
X94790381Y-86387819D02*
X94887143Y-86339438D01*
X94935524Y-86291057D01*
X94983905Y-86194295D01*
X94983905Y-85904010D01*
X94935524Y-85807248D01*
X94887143Y-85758867D01*
X94790381Y-85710486D01*
X94645239Y-85710486D01*
X94548477Y-85758867D01*
X94500096Y-85807248D01*
X94451715Y-85904010D01*
X94451715Y-86194295D01*
X94500096Y-86291057D01*
X94548477Y-86339438D01*
X94645239Y-86387819D01*
X94790381Y-86387819D01*
X93580858Y-86387819D02*
X93580858Y-85855629D01*
X93629239Y-85758867D01*
X93726001Y-85710486D01*
X93919524Y-85710486D01*
X94016286Y-85758867D01*
X93580858Y-86339438D02*
X93677620Y-86387819D01*
X93919524Y-86387819D01*
X94016286Y-86339438D01*
X94064667Y-86242676D01*
X94064667Y-86145914D01*
X94016286Y-86049152D01*
X93919524Y-86000771D01*
X93677620Y-86000771D01*
X93580858Y-85952390D01*
X93097048Y-86387819D02*
X93097048Y-85710486D01*
X93097048Y-85904010D02*
X93048667Y-85807248D01*
X93000286Y-85758867D01*
X92903524Y-85710486D01*
X92806763Y-85710486D01*
X92032668Y-86387819D02*
X92032668Y-85371819D01*
X92032668Y-86339438D02*
X92129430Y-86387819D01*
X92322953Y-86387819D01*
X92419715Y-86339438D01*
X92468096Y-86291057D01*
X92516477Y-86194295D01*
X92516477Y-85904010D01*
X92468096Y-85807248D01*
X92419715Y-85758867D01*
X92322953Y-85710486D01*
X92129430Y-85710486D01*
X92032668Y-85758867D01*
X90871525Y-85710486D02*
X90629620Y-86387819D01*
X90387716Y-85710486D01*
X89468478Y-86387819D02*
X90049049Y-86387819D01*
X89758763Y-86387819D02*
X89758763Y-85371819D01*
X89855525Y-85516962D01*
X89952287Y-85613724D01*
X90049049Y-85662105D01*
X89033049Y-86291057D02*
X88984668Y-86339438D01*
X89033049Y-86387819D01*
X89081430Y-86339438D01*
X89033049Y-86291057D01*
X89033049Y-86387819D01*
X88355715Y-85371819D02*
X88258954Y-85371819D01*
X88162192Y-85420200D01*
X88113811Y-85468581D01*
X88065430Y-85565343D01*
X88017049Y-85758867D01*
X88017049Y-86000771D01*
X88065430Y-86194295D01*
X88113811Y-86291057D01*
X88162192Y-86339438D01*
X88258954Y-86387819D01*
X88355715Y-86387819D01*
X88452477Y-86339438D01*
X88500858Y-86291057D01*
X88549239Y-86194295D01*
X88597620Y-86000771D01*
X88597620Y-85758867D01*
X88549239Y-85565343D01*
X88500858Y-85468581D01*
X88452477Y-85420200D01*
X88355715Y-85371819D01*
%LPC*%
D12*
X100330000Y-90170000D03*
D13*
X97790000Y-90170000D03*
X95250000Y-90170000D03*
X92710000Y-90170000D03*
X90170000Y-90170000D03*
D14*
X89916000Y-74930000D03*
X89916000Y-72390000D03*
X89916000Y-69850000D03*
X89916000Y-67310000D03*
X89916000Y-64770000D03*
X92456000Y-74930000D03*
X92456000Y-72390000D03*
X92456000Y-69850000D03*
X92456000Y-67310000D03*
X92456000Y-64770000D03*
X77470000Y-87503000D03*
X77470000Y-84963000D03*
X77470000Y-82423000D03*
X77470000Y-79883000D03*
X77470000Y-77343000D03*
X80010000Y-87503000D03*
X80010000Y-84963000D03*
X80010000Y-82423000D03*
X80010000Y-79883000D03*
X80010000Y-77343000D03*
X80010000Y-67183000D03*
X77470000Y-69723000D03*
X77470000Y-67183000D03*
X77470000Y-64643000D03*
X80010000Y-69723000D03*
X80010000Y-64643000D03*
X80010000Y-72263000D03*
X77470000Y-74803000D03*
X77470000Y-72263000D03*
X80010000Y-74803000D03*
D15*
X101219000Y-68580000D03*
X102489000Y-68580000D03*
X101219000Y-67310000D03*
X102489000Y-67310000D03*
X101219000Y-66040000D03*
X102489000Y-66040000D03*
X101219000Y-64770000D03*
X102489000Y-64770000D03*
X101219000Y-63500000D03*
X102489000Y-63500000D03*
M02*
