%TF.GenerationSoftware,KiCad,Pcbnew,4.0.5-e0-6337~49~ubuntu16.04.1*%
%TF.CreationDate,2017-08-05T15:29:30-07:00*%
%TF.ProjectId,atsamd21g18-jtag-stlinkv2-adapter,617473616D6432316731382D6A746167,1.0*%
%TF.FileFunction,Legend,Top*%
%FSLAX46Y46*%
G04 Gerber Fmt 4.6, Leading zero omitted, Abs format (unit mm)*
G04 Created by KiCad (PCBNEW 4.0.5-e0-6337~49~ubuntu16.04.1) date Sat Aug  5 15:29:30 2017*
%MOMM*%
%LPD*%
G01*
G04 APERTURE LIST*
%ADD10C,0.350000*%
%ADD11C,0.152400*%
%ADD12C,0.150000*%
%ADD13C,0.254000*%
%ADD14C,0.101600*%
%ADD15C,0.049784*%
%ADD16R,1.879600X2.184400*%
%ADD17O,1.879600X2.184400*%
%ADD18C,1.676400*%
%ADD19C,1.168400*%
G04 APERTURE END LIST*
D10*
D11*
X102785333Y-89359619D02*
X102785333Y-90085333D01*
X102736953Y-90230476D01*
X102640191Y-90327238D01*
X102495048Y-90375619D01*
X102398286Y-90375619D01*
X103172381Y-89359619D02*
X103801333Y-89359619D01*
X103462667Y-89746667D01*
X103607809Y-89746667D01*
X103704571Y-89795048D01*
X103752952Y-89843429D01*
X103801333Y-89940190D01*
X103801333Y-90182095D01*
X103752952Y-90278857D01*
X103704571Y-90327238D01*
X103607809Y-90375619D01*
X103317524Y-90375619D01*
X103220762Y-90327238D01*
X103172381Y-90278857D01*
X84110286Y-88089619D02*
X83529715Y-88089619D01*
X83820001Y-88089619D02*
X83820001Y-87073619D01*
X83723239Y-87218762D01*
X83626477Y-87315524D01*
X83529715Y-87363905D01*
X89662000Y-87313105D02*
X89613619Y-87409867D01*
X89613619Y-87555010D01*
X89662000Y-87700152D01*
X89758762Y-87796914D01*
X89855524Y-87845295D01*
X90049048Y-87893676D01*
X90194190Y-87893676D01*
X90387714Y-87845295D01*
X90484476Y-87796914D01*
X90581238Y-87700152D01*
X90629619Y-87555010D01*
X90629619Y-87458248D01*
X90581238Y-87313105D01*
X90532857Y-87264724D01*
X90194190Y-87264724D01*
X90194190Y-87458248D01*
X90629619Y-86829295D02*
X89613619Y-86829295D01*
X90629619Y-86248724D01*
X89613619Y-86248724D01*
X90629619Y-85764914D02*
X89613619Y-85764914D01*
X89613619Y-85523009D01*
X89662000Y-85377867D01*
X89758762Y-85281105D01*
X89855524Y-85232724D01*
X90049048Y-85184343D01*
X90194190Y-85184343D01*
X90387714Y-85232724D01*
X90484476Y-85281105D01*
X90581238Y-85377867D01*
X90629619Y-85523009D01*
X90629619Y-85764914D01*
X93169619Y-87264724D02*
X92685810Y-87603390D01*
X93169619Y-87845295D02*
X92153619Y-87845295D01*
X92153619Y-87458248D01*
X92202000Y-87361486D01*
X92250381Y-87313105D01*
X92347143Y-87264724D01*
X92492286Y-87264724D01*
X92589048Y-87313105D01*
X92637429Y-87361486D01*
X92685810Y-87458248D01*
X92685810Y-87845295D01*
X92637429Y-86829295D02*
X92637429Y-86490629D01*
X93169619Y-86345486D02*
X93169619Y-86829295D01*
X92153619Y-86829295D01*
X92153619Y-86345486D01*
X93121238Y-85958438D02*
X93169619Y-85813295D01*
X93169619Y-85571391D01*
X93121238Y-85474629D01*
X93072857Y-85426248D01*
X92976095Y-85377867D01*
X92879333Y-85377867D01*
X92782571Y-85426248D01*
X92734190Y-85474629D01*
X92685810Y-85571391D01*
X92637429Y-85764914D01*
X92589048Y-85861676D01*
X92540667Y-85910057D01*
X92443905Y-85958438D01*
X92347143Y-85958438D01*
X92250381Y-85910057D01*
X92202000Y-85861676D01*
X92153619Y-85764914D01*
X92153619Y-85523010D01*
X92202000Y-85377867D01*
X92637429Y-84942438D02*
X92637429Y-84603772D01*
X93169619Y-84458629D02*
X93169619Y-84942438D01*
X92153619Y-84942438D01*
X92153619Y-84458629D01*
X92153619Y-84168343D02*
X92153619Y-83587772D01*
X93169619Y-83878057D02*
X92153619Y-83878057D01*
X91978480Y-88087200D02*
X91978480Y-83491010D01*
X95661238Y-87893676D02*
X95709619Y-87748533D01*
X95709619Y-87506629D01*
X95661238Y-87409867D01*
X95612857Y-87361486D01*
X95516095Y-87313105D01*
X95419333Y-87313105D01*
X95322571Y-87361486D01*
X95274190Y-87409867D01*
X95225810Y-87506629D01*
X95177429Y-87700152D01*
X95129048Y-87796914D01*
X95080667Y-87845295D01*
X94983905Y-87893676D01*
X94887143Y-87893676D01*
X94790381Y-87845295D01*
X94742000Y-87796914D01*
X94693619Y-87700152D01*
X94693619Y-87458248D01*
X94742000Y-87313105D01*
X94693619Y-86974438D02*
X95709619Y-86732533D01*
X94983905Y-86539010D01*
X95709619Y-86345486D01*
X94693619Y-86103581D01*
X95612857Y-85135962D02*
X95661238Y-85184343D01*
X95709619Y-85329486D01*
X95709619Y-85426248D01*
X95661238Y-85571390D01*
X95564476Y-85668152D01*
X95467714Y-85716533D01*
X95274190Y-85764914D01*
X95129048Y-85764914D01*
X94935524Y-85716533D01*
X94838762Y-85668152D01*
X94742000Y-85571390D01*
X94693619Y-85426248D01*
X94693619Y-85329486D01*
X94742000Y-85184343D01*
X94790381Y-85135962D01*
X95709619Y-84216724D02*
X95709619Y-84700533D01*
X94693619Y-84700533D01*
X95709619Y-83878057D02*
X94693619Y-83878057D01*
X95709619Y-83297486D02*
X95129048Y-83732914D01*
X94693619Y-83297486D02*
X95274190Y-83878057D01*
X98201238Y-87893676D02*
X98249619Y-87748533D01*
X98249619Y-87506629D01*
X98201238Y-87409867D01*
X98152857Y-87361486D01*
X98056095Y-87313105D01*
X97959333Y-87313105D01*
X97862571Y-87361486D01*
X97814190Y-87409867D01*
X97765810Y-87506629D01*
X97717429Y-87700152D01*
X97669048Y-87796914D01*
X97620667Y-87845295D01*
X97523905Y-87893676D01*
X97427143Y-87893676D01*
X97330381Y-87845295D01*
X97282000Y-87796914D01*
X97233619Y-87700152D01*
X97233619Y-87458248D01*
X97282000Y-87313105D01*
X97233619Y-86974438D02*
X98249619Y-86732533D01*
X97523905Y-86539010D01*
X98249619Y-86345486D01*
X97233619Y-86103581D01*
X98249619Y-85716533D02*
X97233619Y-85716533D01*
X97233619Y-85474628D01*
X97282000Y-85329486D01*
X97378762Y-85232724D01*
X97475524Y-85184343D01*
X97669048Y-85135962D01*
X97814190Y-85135962D01*
X98007714Y-85184343D01*
X98104476Y-85232724D01*
X98201238Y-85329486D01*
X98249619Y-85474628D01*
X98249619Y-85716533D01*
X98249619Y-84700533D02*
X97233619Y-84700533D01*
X97233619Y-84023199D02*
X97233619Y-83829676D01*
X97282000Y-83732914D01*
X97378762Y-83636152D01*
X97572286Y-83587771D01*
X97910952Y-83587771D01*
X98104476Y-83636152D01*
X98201238Y-83732914D01*
X98249619Y-83829676D01*
X98249619Y-84023199D01*
X98201238Y-84119961D01*
X98104476Y-84216723D01*
X97910952Y-84265104D01*
X97572286Y-84265104D01*
X97378762Y-84216723D01*
X97282000Y-84119961D01*
X97233619Y-84023199D01*
X99773619Y-87990438D02*
X100789619Y-87651771D01*
X99773619Y-87313105D01*
X100692857Y-86393867D02*
X100741238Y-86442248D01*
X100789619Y-86587391D01*
X100789619Y-86684153D01*
X100741238Y-86829295D01*
X100644476Y-86926057D01*
X100547714Y-86974438D01*
X100354190Y-87022819D01*
X100209048Y-87022819D01*
X100015524Y-86974438D01*
X99918762Y-86926057D01*
X99822000Y-86829295D01*
X99773619Y-86684153D01*
X99773619Y-86587391D01*
X99822000Y-86442248D01*
X99870381Y-86393867D01*
X100692857Y-85377867D02*
X100741238Y-85426248D01*
X100789619Y-85571391D01*
X100789619Y-85668153D01*
X100741238Y-85813295D01*
X100644476Y-85910057D01*
X100547714Y-85958438D01*
X100354190Y-86006819D01*
X100209048Y-86006819D01*
X100015524Y-85958438D01*
X99918762Y-85910057D01*
X99822000Y-85813295D01*
X99773619Y-85668153D01*
X99773619Y-85571391D01*
X99822000Y-85426248D01*
X99870381Y-85377867D01*
D12*
X100330000Y-88620000D02*
X101880000Y-88620000D01*
X101880000Y-88620000D02*
X101880000Y-91720000D01*
X99060000Y-91440000D02*
X88900000Y-91440000D01*
X88900000Y-91440000D02*
X88900000Y-88900000D01*
X88900000Y-88900000D02*
X99060000Y-88900000D01*
X99060000Y-91440000D02*
X99060000Y-88900000D01*
D13*
X94847210Y-74930000D02*
G75*
G03X94847210Y-74930000I-359210J0D01*
G01*
D14*
X94234000Y-68580000D02*
X95504000Y-68580000D01*
X94234000Y-71120000D02*
X94234000Y-68580000D01*
X95504000Y-71120000D02*
X94234000Y-71120000D01*
X95504000Y-80010000D02*
X95504000Y-71120000D01*
X86868000Y-59690000D02*
X86868000Y-80010000D01*
X95504000Y-80010000D02*
X86868000Y-80010000D01*
X95504000Y-59690000D02*
X86868000Y-59690000D01*
X95504000Y-68580000D02*
X95504000Y-59690000D01*
D13*
X82401210Y-87503000D02*
G75*
G03X82401210Y-87503000I-359210J0D01*
G01*
D14*
X81788000Y-73533000D02*
X83058000Y-73533000D01*
X81788000Y-78613000D02*
X81788000Y-73533000D01*
X83058000Y-78613000D02*
X81788000Y-78613000D01*
X83058000Y-92583000D02*
X83058000Y-78613000D01*
X74422000Y-59563000D02*
X74422000Y-92583000D01*
X83058000Y-92583000D02*
X74422000Y-92583000D01*
X83058000Y-59563000D02*
X74422000Y-59563000D01*
X83058000Y-73533000D02*
X83058000Y-59563000D01*
D15*
X104394000Y-67310000D02*
X103759000Y-67310000D01*
X103759000Y-67310000D02*
X103759000Y-64770000D01*
X99304000Y-59710000D02*
X104404000Y-59710000D01*
X99314000Y-72370000D02*
X99314000Y-59710000D01*
X99314000Y-72370000D02*
X104414000Y-72370000D01*
X104394000Y-72350000D02*
X104394000Y-67310000D01*
D13*
X103938605Y-68580000D02*
G75*
G03X103938605Y-68580000I-179605J0D01*
G01*
D15*
X103759000Y-64770000D02*
X104394000Y-64770000D01*
X104394000Y-59730000D02*
X104394000Y-64770000D01*
D12*
X96440667Y-78700381D02*
X96440667Y-79414667D01*
X96393047Y-79557524D01*
X96297809Y-79652762D01*
X96154952Y-79700381D01*
X96059714Y-79700381D01*
X96869238Y-78795619D02*
X96916857Y-78748000D01*
X97012095Y-78700381D01*
X97250191Y-78700381D01*
X97345429Y-78748000D01*
X97393048Y-78795619D01*
X97440667Y-78890857D01*
X97440667Y-78986095D01*
X97393048Y-79128952D01*
X96821619Y-79700381D01*
X97440667Y-79700381D01*
X83867667Y-90892381D02*
X83867667Y-91606667D01*
X83820047Y-91749524D01*
X83724809Y-91844762D01*
X83581952Y-91892381D01*
X83486714Y-91892381D01*
X84867667Y-91892381D02*
X84296238Y-91892381D01*
X84581952Y-91892381D02*
X84581952Y-90892381D01*
X84486714Y-91035238D01*
X84391476Y-91130476D01*
X84296238Y-91178095D01*
X103298667Y-73112381D02*
X103298667Y-73826667D01*
X103251047Y-73969524D01*
X103155809Y-74064762D01*
X103012952Y-74112381D01*
X102917714Y-74112381D01*
X104203429Y-73445714D02*
X104203429Y-74112381D01*
X103965333Y-73064762D02*
X103727238Y-73779048D01*
X104346286Y-73779048D01*
%LPC*%
D16*
X100330000Y-90170000D03*
D17*
X97790000Y-90170000D03*
X95250000Y-90170000D03*
X92710000Y-90170000D03*
X90170000Y-90170000D03*
D18*
X89916000Y-74930000D03*
X89916000Y-72390000D03*
X89916000Y-69850000D03*
X89916000Y-67310000D03*
X89916000Y-64770000D03*
X92456000Y-74930000D03*
X92456000Y-72390000D03*
X92456000Y-69850000D03*
X92456000Y-67310000D03*
X92456000Y-64770000D03*
X77470000Y-87503000D03*
X77470000Y-84963000D03*
X77470000Y-82423000D03*
X77470000Y-79883000D03*
X77470000Y-77343000D03*
X80010000Y-87503000D03*
X80010000Y-84963000D03*
X80010000Y-82423000D03*
X80010000Y-79883000D03*
X80010000Y-77343000D03*
X80010000Y-67183000D03*
X77470000Y-69723000D03*
X77470000Y-67183000D03*
X77470000Y-64643000D03*
X80010000Y-69723000D03*
X80010000Y-64643000D03*
X80010000Y-72263000D03*
X77470000Y-74803000D03*
X77470000Y-72263000D03*
X80010000Y-74803000D03*
D19*
X101219000Y-68580000D03*
X102489000Y-68580000D03*
X101219000Y-67310000D03*
X102489000Y-67310000D03*
X101219000Y-66040000D03*
X102489000Y-66040000D03*
X101219000Y-64770000D03*
X102489000Y-64770000D03*
X101219000Y-63500000D03*
X102489000Y-63500000D03*
M02*
