%TF.GenerationSoftware,KiCad,Pcbnew,4.0.5-e0-6337~49~ubuntu16.04.1*%
%TF.CreationDate,2017-08-05T15:29:30-07:00*%
%TF.ProjectId,atsamd21g18-jtag-stlinkv2-adapter,617473616D6432316731382D6A746167,1.0*%
%TF.FileFunction,Soldermask,Bot*%
%FSLAX46Y46*%
G04 Gerber Fmt 4.6, Leading zero omitted, Abs format (unit mm)*
G04 Created by KiCad (PCBNEW 4.0.5-e0-6337~49~ubuntu16.04.1) date Sat Aug  5 15:29:30 2017*
%MOMM*%
%LPD*%
G01*
G04 APERTURE LIST*
%ADD10C,0.350000*%
G04 APERTURE END LIST*
D10*
G36*
X95438926Y-89091705D02*
X95438973Y-89091710D01*
X95614187Y-89145948D01*
X95775529Y-89233185D01*
X95916855Y-89350100D01*
X96032779Y-89492238D01*
X96118888Y-89654185D01*
X96171902Y-89829774D01*
X96189800Y-90012315D01*
X96189800Y-90327717D01*
X96189723Y-90338749D01*
X96189722Y-90338754D01*
X96189708Y-90340807D01*
X96169263Y-90523080D01*
X96113803Y-90697912D01*
X96025442Y-90858641D01*
X95907544Y-90999146D01*
X95764600Y-91114076D01*
X95602055Y-91199052D01*
X95426101Y-91250839D01*
X95426060Y-91250843D01*
X95426056Y-91250844D01*
X95243442Y-91267463D01*
X95061074Y-91248295D01*
X95061027Y-91248290D01*
X94885813Y-91194052D01*
X94724471Y-91106815D01*
X94583145Y-90989900D01*
X94467221Y-90847762D01*
X94381112Y-90685815D01*
X94328098Y-90510226D01*
X94310200Y-90327685D01*
X94310200Y-90012283D01*
X94310277Y-90001251D01*
X94310278Y-90001246D01*
X94310292Y-89999193D01*
X94330737Y-89816920D01*
X94386197Y-89642088D01*
X94474558Y-89481359D01*
X94592456Y-89340854D01*
X94735400Y-89225924D01*
X94897945Y-89140948D01*
X95073899Y-89089161D01*
X95073940Y-89089157D01*
X95073944Y-89089156D01*
X95256558Y-89072537D01*
X95438926Y-89091705D01*
X95438926Y-89091705D01*
G37*
G36*
X92898926Y-89091705D02*
X92898973Y-89091710D01*
X93074187Y-89145948D01*
X93235529Y-89233185D01*
X93376855Y-89350100D01*
X93492779Y-89492238D01*
X93578888Y-89654185D01*
X93631902Y-89829774D01*
X93649800Y-90012315D01*
X93649800Y-90327717D01*
X93649723Y-90338749D01*
X93649722Y-90338754D01*
X93649708Y-90340807D01*
X93629263Y-90523080D01*
X93573803Y-90697912D01*
X93485442Y-90858641D01*
X93367544Y-90999146D01*
X93224600Y-91114076D01*
X93062055Y-91199052D01*
X92886101Y-91250839D01*
X92886060Y-91250843D01*
X92886056Y-91250844D01*
X92703442Y-91267463D01*
X92521074Y-91248295D01*
X92521027Y-91248290D01*
X92345813Y-91194052D01*
X92184471Y-91106815D01*
X92043145Y-90989900D01*
X91927221Y-90847762D01*
X91841112Y-90685815D01*
X91788098Y-90510226D01*
X91770200Y-90327685D01*
X91770200Y-90012283D01*
X91770277Y-90001251D01*
X91770278Y-90001246D01*
X91770292Y-89999193D01*
X91790737Y-89816920D01*
X91846197Y-89642088D01*
X91934558Y-89481359D01*
X92052456Y-89340854D01*
X92195400Y-89225924D01*
X92357945Y-89140948D01*
X92533899Y-89089161D01*
X92533940Y-89089157D01*
X92533944Y-89089156D01*
X92716558Y-89072537D01*
X92898926Y-89091705D01*
X92898926Y-89091705D01*
G37*
G36*
X90358926Y-89091705D02*
X90358973Y-89091710D01*
X90534187Y-89145948D01*
X90695529Y-89233185D01*
X90836855Y-89350100D01*
X90952779Y-89492238D01*
X91038888Y-89654185D01*
X91091902Y-89829774D01*
X91109800Y-90012315D01*
X91109800Y-90327717D01*
X91109723Y-90338749D01*
X91109722Y-90338754D01*
X91109708Y-90340807D01*
X91089263Y-90523080D01*
X91033803Y-90697912D01*
X90945442Y-90858641D01*
X90827544Y-90999146D01*
X90684600Y-91114076D01*
X90522055Y-91199052D01*
X90346101Y-91250839D01*
X90346060Y-91250843D01*
X90346056Y-91250844D01*
X90163442Y-91267463D01*
X89981074Y-91248295D01*
X89981027Y-91248290D01*
X89805813Y-91194052D01*
X89644471Y-91106815D01*
X89503145Y-90989900D01*
X89387221Y-90847762D01*
X89301112Y-90685815D01*
X89248098Y-90510226D01*
X89230200Y-90327685D01*
X89230200Y-90012283D01*
X89230277Y-90001251D01*
X89230278Y-90001246D01*
X89230292Y-89999193D01*
X89250737Y-89816920D01*
X89306197Y-89642088D01*
X89394558Y-89481359D01*
X89512456Y-89340854D01*
X89655400Y-89225924D01*
X89817945Y-89140948D01*
X89993899Y-89089161D01*
X89993940Y-89089157D01*
X89993944Y-89089156D01*
X90176558Y-89072537D01*
X90358926Y-89091705D01*
X90358926Y-89091705D01*
G37*
G36*
X97978926Y-89091705D02*
X97978973Y-89091710D01*
X98154187Y-89145948D01*
X98315529Y-89233185D01*
X98456855Y-89350100D01*
X98572779Y-89492238D01*
X98658888Y-89654185D01*
X98711902Y-89829774D01*
X98729800Y-90012315D01*
X98729800Y-90327717D01*
X98729723Y-90338749D01*
X98729722Y-90338754D01*
X98729708Y-90340807D01*
X98709263Y-90523080D01*
X98653803Y-90697912D01*
X98565442Y-90858641D01*
X98447544Y-90999146D01*
X98304600Y-91114076D01*
X98142055Y-91199052D01*
X97966101Y-91250839D01*
X97966060Y-91250843D01*
X97966056Y-91250844D01*
X97783442Y-91267463D01*
X97601074Y-91248295D01*
X97601027Y-91248290D01*
X97425813Y-91194052D01*
X97264471Y-91106815D01*
X97123145Y-90989900D01*
X97007221Y-90847762D01*
X96921112Y-90685815D01*
X96868098Y-90510226D01*
X96850200Y-90327685D01*
X96850200Y-90012283D01*
X96850277Y-90001251D01*
X96850278Y-90001246D01*
X96850292Y-89999193D01*
X96870737Y-89816920D01*
X96926197Y-89642088D01*
X97014558Y-89481359D01*
X97132456Y-89340854D01*
X97275400Y-89225924D01*
X97437945Y-89140948D01*
X97613899Y-89089161D01*
X97613940Y-89089157D01*
X97613944Y-89089156D01*
X97796558Y-89072537D01*
X97978926Y-89091705D01*
X97978926Y-89091705D01*
G37*
G36*
X101269800Y-91262200D02*
X99390200Y-91262200D01*
X99390200Y-89077800D01*
X101269800Y-89077800D01*
X101269800Y-91262200D01*
X101269800Y-91262200D01*
G37*
G36*
X80098043Y-86665357D02*
X80259058Y-86698409D01*
X80410601Y-86762111D01*
X80546873Y-86854029D01*
X80662706Y-86970672D01*
X80753668Y-87107582D01*
X80816310Y-87259563D01*
X80848168Y-87420456D01*
X80848168Y-87420466D01*
X80848236Y-87420810D01*
X80845615Y-87608563D01*
X80845537Y-87608906D01*
X80845537Y-87608909D01*
X80809197Y-87768861D01*
X80742340Y-87919025D01*
X80647584Y-88053347D01*
X80528545Y-88166708D01*
X80389753Y-88254788D01*
X80236499Y-88314231D01*
X80074619Y-88342775D01*
X79910273Y-88339332D01*
X79749728Y-88304035D01*
X79599094Y-88238224D01*
X79464118Y-88144413D01*
X79349930Y-88026168D01*
X79260883Y-87887994D01*
X79200369Y-87735153D01*
X79170697Y-87573481D01*
X79172991Y-87409116D01*
X79207169Y-87248326D01*
X79271923Y-87097240D01*
X79364794Y-86961607D01*
X79482237Y-86846598D01*
X79619786Y-86756588D01*
X79772197Y-86695010D01*
X79933662Y-86664209D01*
X80098043Y-86665357D01*
X80098043Y-86665357D01*
G37*
G36*
X77558043Y-86665357D02*
X77719058Y-86698409D01*
X77870601Y-86762111D01*
X78006873Y-86854029D01*
X78122706Y-86970672D01*
X78213668Y-87107582D01*
X78276310Y-87259563D01*
X78308168Y-87420456D01*
X78308168Y-87420466D01*
X78308236Y-87420810D01*
X78305615Y-87608563D01*
X78305537Y-87608906D01*
X78305537Y-87608909D01*
X78269197Y-87768861D01*
X78202340Y-87919025D01*
X78107584Y-88053347D01*
X77988545Y-88166708D01*
X77849753Y-88254788D01*
X77696499Y-88314231D01*
X77534619Y-88342775D01*
X77370273Y-88339332D01*
X77209728Y-88304035D01*
X77059094Y-88238224D01*
X76924118Y-88144413D01*
X76809930Y-88026168D01*
X76720883Y-87887994D01*
X76660369Y-87735153D01*
X76630697Y-87573481D01*
X76632991Y-87409116D01*
X76667169Y-87248326D01*
X76731923Y-87097240D01*
X76824794Y-86961607D01*
X76942237Y-86846598D01*
X77079786Y-86756588D01*
X77232197Y-86695010D01*
X77393662Y-86664209D01*
X77558043Y-86665357D01*
X77558043Y-86665357D01*
G37*
G36*
X77558043Y-84125357D02*
X77719058Y-84158409D01*
X77870601Y-84222111D01*
X78006873Y-84314029D01*
X78122706Y-84430672D01*
X78213668Y-84567582D01*
X78276310Y-84719563D01*
X78308168Y-84880456D01*
X78308168Y-84880466D01*
X78308236Y-84880810D01*
X78305615Y-85068563D01*
X78305537Y-85068906D01*
X78305537Y-85068909D01*
X78269197Y-85228861D01*
X78202340Y-85379025D01*
X78107584Y-85513347D01*
X77988545Y-85626708D01*
X77849753Y-85714788D01*
X77696499Y-85774231D01*
X77534619Y-85802775D01*
X77370273Y-85799332D01*
X77209728Y-85764035D01*
X77059094Y-85698224D01*
X76924118Y-85604413D01*
X76809930Y-85486168D01*
X76720883Y-85347994D01*
X76660369Y-85195153D01*
X76630697Y-85033481D01*
X76632991Y-84869116D01*
X76667169Y-84708326D01*
X76731923Y-84557240D01*
X76824794Y-84421607D01*
X76942237Y-84306598D01*
X77079786Y-84216588D01*
X77232197Y-84155010D01*
X77393662Y-84124209D01*
X77558043Y-84125357D01*
X77558043Y-84125357D01*
G37*
G36*
X80098043Y-84125357D02*
X80259058Y-84158409D01*
X80410601Y-84222111D01*
X80546873Y-84314029D01*
X80662706Y-84430672D01*
X80753668Y-84567582D01*
X80816310Y-84719563D01*
X80848168Y-84880456D01*
X80848168Y-84880466D01*
X80848236Y-84880810D01*
X80845615Y-85068563D01*
X80845537Y-85068906D01*
X80845537Y-85068909D01*
X80809197Y-85228861D01*
X80742340Y-85379025D01*
X80647584Y-85513347D01*
X80528545Y-85626708D01*
X80389753Y-85714788D01*
X80236499Y-85774231D01*
X80074619Y-85802775D01*
X79910273Y-85799332D01*
X79749728Y-85764035D01*
X79599094Y-85698224D01*
X79464118Y-85604413D01*
X79349930Y-85486168D01*
X79260883Y-85347994D01*
X79200369Y-85195153D01*
X79170697Y-85033481D01*
X79172991Y-84869116D01*
X79207169Y-84708326D01*
X79271923Y-84557240D01*
X79364794Y-84421607D01*
X79482237Y-84306598D01*
X79619786Y-84216588D01*
X79772197Y-84155010D01*
X79933662Y-84124209D01*
X80098043Y-84125357D01*
X80098043Y-84125357D01*
G37*
G36*
X77558043Y-81585357D02*
X77719058Y-81618409D01*
X77870601Y-81682111D01*
X78006873Y-81774029D01*
X78122706Y-81890672D01*
X78213668Y-82027582D01*
X78276310Y-82179563D01*
X78308168Y-82340456D01*
X78308168Y-82340466D01*
X78308236Y-82340810D01*
X78305615Y-82528563D01*
X78305537Y-82528906D01*
X78305537Y-82528909D01*
X78269197Y-82688861D01*
X78202340Y-82839025D01*
X78107584Y-82973347D01*
X77988545Y-83086708D01*
X77849753Y-83174788D01*
X77696499Y-83234231D01*
X77534619Y-83262775D01*
X77370273Y-83259332D01*
X77209728Y-83224035D01*
X77059094Y-83158224D01*
X76924118Y-83064413D01*
X76809930Y-82946168D01*
X76720883Y-82807994D01*
X76660369Y-82655153D01*
X76630697Y-82493481D01*
X76632991Y-82329116D01*
X76667169Y-82168326D01*
X76731923Y-82017240D01*
X76824794Y-81881607D01*
X76942237Y-81766598D01*
X77079786Y-81676588D01*
X77232197Y-81615010D01*
X77393662Y-81584209D01*
X77558043Y-81585357D01*
X77558043Y-81585357D01*
G37*
G36*
X80098043Y-81585357D02*
X80259058Y-81618409D01*
X80410601Y-81682111D01*
X80546873Y-81774029D01*
X80662706Y-81890672D01*
X80753668Y-82027582D01*
X80816310Y-82179563D01*
X80848168Y-82340456D01*
X80848168Y-82340466D01*
X80848236Y-82340810D01*
X80845615Y-82528563D01*
X80845537Y-82528906D01*
X80845537Y-82528909D01*
X80809197Y-82688861D01*
X80742340Y-82839025D01*
X80647584Y-82973347D01*
X80528545Y-83086708D01*
X80389753Y-83174788D01*
X80236499Y-83234231D01*
X80074619Y-83262775D01*
X79910273Y-83259332D01*
X79749728Y-83224035D01*
X79599094Y-83158224D01*
X79464118Y-83064413D01*
X79349930Y-82946168D01*
X79260883Y-82807994D01*
X79200369Y-82655153D01*
X79170697Y-82493481D01*
X79172991Y-82329116D01*
X79207169Y-82168326D01*
X79271923Y-82017240D01*
X79364794Y-81881607D01*
X79482237Y-81766598D01*
X79619786Y-81676588D01*
X79772197Y-81615010D01*
X79933662Y-81584209D01*
X80098043Y-81585357D01*
X80098043Y-81585357D01*
G37*
G36*
X80098043Y-79045357D02*
X80259058Y-79078409D01*
X80410601Y-79142111D01*
X80546873Y-79234029D01*
X80662706Y-79350672D01*
X80753668Y-79487582D01*
X80816310Y-79639563D01*
X80848168Y-79800456D01*
X80848168Y-79800466D01*
X80848236Y-79800810D01*
X80845615Y-79988563D01*
X80845537Y-79988906D01*
X80845537Y-79988909D01*
X80809197Y-80148861D01*
X80742340Y-80299025D01*
X80647584Y-80433347D01*
X80528545Y-80546708D01*
X80389753Y-80634788D01*
X80236499Y-80694231D01*
X80074619Y-80722775D01*
X79910273Y-80719332D01*
X79749728Y-80684035D01*
X79599094Y-80618224D01*
X79464118Y-80524413D01*
X79349930Y-80406168D01*
X79260883Y-80267994D01*
X79200369Y-80115153D01*
X79170697Y-79953481D01*
X79172991Y-79789116D01*
X79207169Y-79628326D01*
X79271923Y-79477240D01*
X79364794Y-79341607D01*
X79482237Y-79226598D01*
X79619786Y-79136588D01*
X79772197Y-79075010D01*
X79933662Y-79044209D01*
X80098043Y-79045357D01*
X80098043Y-79045357D01*
G37*
G36*
X77558043Y-79045357D02*
X77719058Y-79078409D01*
X77870601Y-79142111D01*
X78006873Y-79234029D01*
X78122706Y-79350672D01*
X78213668Y-79487582D01*
X78276310Y-79639563D01*
X78308168Y-79800456D01*
X78308168Y-79800466D01*
X78308236Y-79800810D01*
X78305615Y-79988563D01*
X78305537Y-79988906D01*
X78305537Y-79988909D01*
X78269197Y-80148861D01*
X78202340Y-80299025D01*
X78107584Y-80433347D01*
X77988545Y-80546708D01*
X77849753Y-80634788D01*
X77696499Y-80694231D01*
X77534619Y-80722775D01*
X77370273Y-80719332D01*
X77209728Y-80684035D01*
X77059094Y-80618224D01*
X76924118Y-80524413D01*
X76809930Y-80406168D01*
X76720883Y-80267994D01*
X76660369Y-80115153D01*
X76630697Y-79953481D01*
X76632991Y-79789116D01*
X76667169Y-79628326D01*
X76731923Y-79477240D01*
X76824794Y-79341607D01*
X76942237Y-79226598D01*
X77079786Y-79136588D01*
X77232197Y-79075010D01*
X77393662Y-79044209D01*
X77558043Y-79045357D01*
X77558043Y-79045357D01*
G37*
G36*
X80098043Y-76505357D02*
X80259058Y-76538409D01*
X80410601Y-76602111D01*
X80546873Y-76694029D01*
X80662706Y-76810672D01*
X80753668Y-76947582D01*
X80816310Y-77099563D01*
X80848168Y-77260456D01*
X80848168Y-77260466D01*
X80848236Y-77260810D01*
X80845615Y-77448563D01*
X80845537Y-77448906D01*
X80845537Y-77448909D01*
X80809197Y-77608861D01*
X80742340Y-77759025D01*
X80647584Y-77893347D01*
X80528545Y-78006708D01*
X80389753Y-78094788D01*
X80236499Y-78154231D01*
X80074619Y-78182775D01*
X79910273Y-78179332D01*
X79749728Y-78144035D01*
X79599094Y-78078224D01*
X79464118Y-77984413D01*
X79349930Y-77866168D01*
X79260883Y-77727994D01*
X79200369Y-77575153D01*
X79170697Y-77413481D01*
X79172991Y-77249116D01*
X79207169Y-77088326D01*
X79271923Y-76937240D01*
X79364794Y-76801607D01*
X79482237Y-76686598D01*
X79619786Y-76596588D01*
X79772197Y-76535010D01*
X79933662Y-76504209D01*
X80098043Y-76505357D01*
X80098043Y-76505357D01*
G37*
G36*
X77558043Y-76505357D02*
X77719058Y-76538409D01*
X77870601Y-76602111D01*
X78006873Y-76694029D01*
X78122706Y-76810672D01*
X78213668Y-76947582D01*
X78276310Y-77099563D01*
X78308168Y-77260456D01*
X78308168Y-77260466D01*
X78308236Y-77260810D01*
X78305615Y-77448563D01*
X78305537Y-77448906D01*
X78305537Y-77448909D01*
X78269197Y-77608861D01*
X78202340Y-77759025D01*
X78107584Y-77893347D01*
X77988545Y-78006708D01*
X77849753Y-78094788D01*
X77696499Y-78154231D01*
X77534619Y-78182775D01*
X77370273Y-78179332D01*
X77209728Y-78144035D01*
X77059094Y-78078224D01*
X76924118Y-77984413D01*
X76809930Y-77866168D01*
X76720883Y-77727994D01*
X76660369Y-77575153D01*
X76630697Y-77413481D01*
X76632991Y-77249116D01*
X76667169Y-77088326D01*
X76731923Y-76937240D01*
X76824794Y-76801607D01*
X76942237Y-76686598D01*
X77079786Y-76596588D01*
X77232197Y-76535010D01*
X77393662Y-76504209D01*
X77558043Y-76505357D01*
X77558043Y-76505357D01*
G37*
G36*
X90004043Y-74092357D02*
X90165058Y-74125409D01*
X90316601Y-74189111D01*
X90452873Y-74281029D01*
X90568706Y-74397672D01*
X90659668Y-74534582D01*
X90722310Y-74686563D01*
X90754168Y-74847456D01*
X90754168Y-74847466D01*
X90754236Y-74847810D01*
X90751615Y-75035563D01*
X90751537Y-75035906D01*
X90751537Y-75035909D01*
X90715197Y-75195861D01*
X90648340Y-75346025D01*
X90553584Y-75480347D01*
X90434545Y-75593708D01*
X90295753Y-75681788D01*
X90142499Y-75741231D01*
X89980619Y-75769775D01*
X89816273Y-75766332D01*
X89655728Y-75731035D01*
X89505094Y-75665224D01*
X89370118Y-75571413D01*
X89255930Y-75453168D01*
X89166883Y-75314994D01*
X89106369Y-75162153D01*
X89076697Y-75000481D01*
X89078991Y-74836116D01*
X89113169Y-74675326D01*
X89177923Y-74524240D01*
X89270794Y-74388607D01*
X89388237Y-74273598D01*
X89525786Y-74183588D01*
X89678197Y-74122010D01*
X89839662Y-74091209D01*
X90004043Y-74092357D01*
X90004043Y-74092357D01*
G37*
G36*
X92544043Y-74092357D02*
X92705058Y-74125409D01*
X92856601Y-74189111D01*
X92992873Y-74281029D01*
X93108706Y-74397672D01*
X93199668Y-74534582D01*
X93262310Y-74686563D01*
X93294168Y-74847456D01*
X93294168Y-74847466D01*
X93294236Y-74847810D01*
X93291615Y-75035563D01*
X93291537Y-75035906D01*
X93291537Y-75035909D01*
X93255197Y-75195861D01*
X93188340Y-75346025D01*
X93093584Y-75480347D01*
X92974545Y-75593708D01*
X92835753Y-75681788D01*
X92682499Y-75741231D01*
X92520619Y-75769775D01*
X92356273Y-75766332D01*
X92195728Y-75731035D01*
X92045094Y-75665224D01*
X91910118Y-75571413D01*
X91795930Y-75453168D01*
X91706883Y-75314994D01*
X91646369Y-75162153D01*
X91616697Y-75000481D01*
X91618991Y-74836116D01*
X91653169Y-74675326D01*
X91717923Y-74524240D01*
X91810794Y-74388607D01*
X91928237Y-74273598D01*
X92065786Y-74183588D01*
X92218197Y-74122010D01*
X92379662Y-74091209D01*
X92544043Y-74092357D01*
X92544043Y-74092357D01*
G37*
G36*
X80098043Y-73965357D02*
X80259058Y-73998409D01*
X80410601Y-74062111D01*
X80546873Y-74154029D01*
X80662706Y-74270672D01*
X80753668Y-74407582D01*
X80816310Y-74559563D01*
X80848168Y-74720456D01*
X80848168Y-74720466D01*
X80848236Y-74720810D01*
X80845615Y-74908563D01*
X80845537Y-74908906D01*
X80845537Y-74908909D01*
X80809197Y-75068861D01*
X80742340Y-75219025D01*
X80647584Y-75353347D01*
X80528545Y-75466708D01*
X80389753Y-75554788D01*
X80236499Y-75614231D01*
X80074619Y-75642775D01*
X79910273Y-75639332D01*
X79749728Y-75604035D01*
X79599094Y-75538224D01*
X79464118Y-75444413D01*
X79349930Y-75326168D01*
X79260883Y-75187994D01*
X79200369Y-75035153D01*
X79170697Y-74873481D01*
X79172991Y-74709116D01*
X79207169Y-74548326D01*
X79271923Y-74397240D01*
X79364794Y-74261607D01*
X79482237Y-74146598D01*
X79619786Y-74056588D01*
X79772197Y-73995010D01*
X79933662Y-73964209D01*
X80098043Y-73965357D01*
X80098043Y-73965357D01*
G37*
G36*
X77558043Y-73965357D02*
X77719058Y-73998409D01*
X77870601Y-74062111D01*
X78006873Y-74154029D01*
X78122706Y-74270672D01*
X78213668Y-74407582D01*
X78276310Y-74559563D01*
X78308168Y-74720456D01*
X78308168Y-74720466D01*
X78308236Y-74720810D01*
X78305615Y-74908563D01*
X78305537Y-74908906D01*
X78305537Y-74908909D01*
X78269197Y-75068861D01*
X78202340Y-75219025D01*
X78107584Y-75353347D01*
X77988545Y-75466708D01*
X77849753Y-75554788D01*
X77696499Y-75614231D01*
X77534619Y-75642775D01*
X77370273Y-75639332D01*
X77209728Y-75604035D01*
X77059094Y-75538224D01*
X76924118Y-75444413D01*
X76809930Y-75326168D01*
X76720883Y-75187994D01*
X76660369Y-75035153D01*
X76630697Y-74873481D01*
X76632991Y-74709116D01*
X76667169Y-74548326D01*
X76731923Y-74397240D01*
X76824794Y-74261607D01*
X76942237Y-74146598D01*
X77079786Y-74056588D01*
X77232197Y-73995010D01*
X77393662Y-73964209D01*
X77558043Y-73965357D01*
X77558043Y-73965357D01*
G37*
G36*
X92544043Y-71552357D02*
X92705058Y-71585409D01*
X92856601Y-71649111D01*
X92992873Y-71741029D01*
X93108706Y-71857672D01*
X93199668Y-71994582D01*
X93262310Y-72146563D01*
X93294168Y-72307456D01*
X93294168Y-72307466D01*
X93294236Y-72307810D01*
X93291615Y-72495563D01*
X93291537Y-72495906D01*
X93291537Y-72495909D01*
X93255197Y-72655861D01*
X93188340Y-72806025D01*
X93093584Y-72940347D01*
X92974545Y-73053708D01*
X92835753Y-73141788D01*
X92682499Y-73201231D01*
X92520619Y-73229775D01*
X92356273Y-73226332D01*
X92195728Y-73191035D01*
X92045094Y-73125224D01*
X91910118Y-73031413D01*
X91795930Y-72913168D01*
X91706883Y-72774994D01*
X91646369Y-72622153D01*
X91616697Y-72460481D01*
X91618991Y-72296116D01*
X91653169Y-72135326D01*
X91717923Y-71984240D01*
X91810794Y-71848607D01*
X91928237Y-71733598D01*
X92065786Y-71643588D01*
X92218197Y-71582010D01*
X92379662Y-71551209D01*
X92544043Y-71552357D01*
X92544043Y-71552357D01*
G37*
G36*
X90004043Y-71552357D02*
X90165058Y-71585409D01*
X90316601Y-71649111D01*
X90452873Y-71741029D01*
X90568706Y-71857672D01*
X90659668Y-71994582D01*
X90722310Y-72146563D01*
X90754168Y-72307456D01*
X90754168Y-72307466D01*
X90754236Y-72307810D01*
X90751615Y-72495563D01*
X90751537Y-72495906D01*
X90751537Y-72495909D01*
X90715197Y-72655861D01*
X90648340Y-72806025D01*
X90553584Y-72940347D01*
X90434545Y-73053708D01*
X90295753Y-73141788D01*
X90142499Y-73201231D01*
X89980619Y-73229775D01*
X89816273Y-73226332D01*
X89655728Y-73191035D01*
X89505094Y-73125224D01*
X89370118Y-73031413D01*
X89255930Y-72913168D01*
X89166883Y-72774994D01*
X89106369Y-72622153D01*
X89076697Y-72460481D01*
X89078991Y-72296116D01*
X89113169Y-72135326D01*
X89177923Y-71984240D01*
X89270794Y-71848607D01*
X89388237Y-71733598D01*
X89525786Y-71643588D01*
X89678197Y-71582010D01*
X89839662Y-71551209D01*
X90004043Y-71552357D01*
X90004043Y-71552357D01*
G37*
G36*
X80098043Y-71425357D02*
X80259058Y-71458409D01*
X80410601Y-71522111D01*
X80546873Y-71614029D01*
X80662706Y-71730672D01*
X80753668Y-71867582D01*
X80816310Y-72019563D01*
X80848168Y-72180456D01*
X80848168Y-72180466D01*
X80848236Y-72180810D01*
X80845615Y-72368563D01*
X80845537Y-72368906D01*
X80845537Y-72368909D01*
X80809197Y-72528861D01*
X80742340Y-72679025D01*
X80647584Y-72813347D01*
X80528545Y-72926708D01*
X80389753Y-73014788D01*
X80236499Y-73074231D01*
X80074619Y-73102775D01*
X79910273Y-73099332D01*
X79749728Y-73064035D01*
X79599094Y-72998224D01*
X79464118Y-72904413D01*
X79349930Y-72786168D01*
X79260883Y-72647994D01*
X79200369Y-72495153D01*
X79170697Y-72333481D01*
X79172991Y-72169116D01*
X79207169Y-72008326D01*
X79271923Y-71857240D01*
X79364794Y-71721607D01*
X79482237Y-71606598D01*
X79619786Y-71516588D01*
X79772197Y-71455010D01*
X79933662Y-71424209D01*
X80098043Y-71425357D01*
X80098043Y-71425357D01*
G37*
G36*
X77558043Y-71425357D02*
X77719058Y-71458409D01*
X77870601Y-71522111D01*
X78006873Y-71614029D01*
X78122706Y-71730672D01*
X78213668Y-71867582D01*
X78276310Y-72019563D01*
X78308168Y-72180456D01*
X78308168Y-72180466D01*
X78308236Y-72180810D01*
X78305615Y-72368563D01*
X78305537Y-72368906D01*
X78305537Y-72368909D01*
X78269197Y-72528861D01*
X78202340Y-72679025D01*
X78107584Y-72813347D01*
X77988545Y-72926708D01*
X77849753Y-73014788D01*
X77696499Y-73074231D01*
X77534619Y-73102775D01*
X77370273Y-73099332D01*
X77209728Y-73064035D01*
X77059094Y-72998224D01*
X76924118Y-72904413D01*
X76809930Y-72786168D01*
X76720883Y-72647994D01*
X76660369Y-72495153D01*
X76630697Y-72333481D01*
X76632991Y-72169116D01*
X76667169Y-72008326D01*
X76731923Y-71857240D01*
X76824794Y-71721607D01*
X76942237Y-71606598D01*
X77079786Y-71516588D01*
X77232197Y-71455010D01*
X77393662Y-71424209D01*
X77558043Y-71425357D01*
X77558043Y-71425357D01*
G37*
G36*
X92544043Y-69012357D02*
X92705058Y-69045409D01*
X92856601Y-69109111D01*
X92992873Y-69201029D01*
X93108706Y-69317672D01*
X93199668Y-69454582D01*
X93262310Y-69606563D01*
X93294168Y-69767456D01*
X93294168Y-69767466D01*
X93294236Y-69767810D01*
X93291615Y-69955563D01*
X93291537Y-69955906D01*
X93291537Y-69955909D01*
X93255197Y-70115861D01*
X93188340Y-70266025D01*
X93093584Y-70400347D01*
X92974545Y-70513708D01*
X92835753Y-70601788D01*
X92682499Y-70661231D01*
X92520619Y-70689775D01*
X92356273Y-70686332D01*
X92195728Y-70651035D01*
X92045094Y-70585224D01*
X91910118Y-70491413D01*
X91795930Y-70373168D01*
X91706883Y-70234994D01*
X91646369Y-70082153D01*
X91616697Y-69920481D01*
X91618991Y-69756116D01*
X91653169Y-69595326D01*
X91717923Y-69444240D01*
X91810794Y-69308607D01*
X91928237Y-69193598D01*
X92065786Y-69103588D01*
X92218197Y-69042010D01*
X92379662Y-69011209D01*
X92544043Y-69012357D01*
X92544043Y-69012357D01*
G37*
G36*
X90004043Y-69012357D02*
X90165058Y-69045409D01*
X90316601Y-69109111D01*
X90452873Y-69201029D01*
X90568706Y-69317672D01*
X90659668Y-69454582D01*
X90722310Y-69606563D01*
X90754168Y-69767456D01*
X90754168Y-69767466D01*
X90754236Y-69767810D01*
X90751615Y-69955563D01*
X90751537Y-69955906D01*
X90751537Y-69955909D01*
X90715197Y-70115861D01*
X90648340Y-70266025D01*
X90553584Y-70400347D01*
X90434545Y-70513708D01*
X90295753Y-70601788D01*
X90142499Y-70661231D01*
X89980619Y-70689775D01*
X89816273Y-70686332D01*
X89655728Y-70651035D01*
X89505094Y-70585224D01*
X89370118Y-70491413D01*
X89255930Y-70373168D01*
X89166883Y-70234994D01*
X89106369Y-70082153D01*
X89076697Y-69920481D01*
X89078991Y-69756116D01*
X89113169Y-69595326D01*
X89177923Y-69444240D01*
X89270794Y-69308607D01*
X89388237Y-69193598D01*
X89525786Y-69103588D01*
X89678197Y-69042010D01*
X89839662Y-69011209D01*
X90004043Y-69012357D01*
X90004043Y-69012357D01*
G37*
G36*
X77558043Y-68885357D02*
X77719058Y-68918409D01*
X77870601Y-68982111D01*
X78006873Y-69074029D01*
X78122706Y-69190672D01*
X78213668Y-69327582D01*
X78276310Y-69479563D01*
X78308168Y-69640456D01*
X78308168Y-69640466D01*
X78308236Y-69640810D01*
X78305615Y-69828563D01*
X78305537Y-69828906D01*
X78305537Y-69828909D01*
X78269197Y-69988861D01*
X78202340Y-70139025D01*
X78107584Y-70273347D01*
X77988545Y-70386708D01*
X77849753Y-70474788D01*
X77696499Y-70534231D01*
X77534619Y-70562775D01*
X77370273Y-70559332D01*
X77209728Y-70524035D01*
X77059094Y-70458224D01*
X76924118Y-70364413D01*
X76809930Y-70246168D01*
X76720883Y-70107994D01*
X76660369Y-69955153D01*
X76630697Y-69793481D01*
X76632991Y-69629116D01*
X76667169Y-69468326D01*
X76731923Y-69317240D01*
X76824794Y-69181607D01*
X76942237Y-69066598D01*
X77079786Y-68976588D01*
X77232197Y-68915010D01*
X77393662Y-68884209D01*
X77558043Y-68885357D01*
X77558043Y-68885357D01*
G37*
G36*
X80098043Y-68885357D02*
X80259058Y-68918409D01*
X80410601Y-68982111D01*
X80546873Y-69074029D01*
X80662706Y-69190672D01*
X80753668Y-69327582D01*
X80816310Y-69479563D01*
X80848168Y-69640456D01*
X80848168Y-69640466D01*
X80848236Y-69640810D01*
X80845615Y-69828563D01*
X80845537Y-69828906D01*
X80845537Y-69828909D01*
X80809197Y-69988861D01*
X80742340Y-70139025D01*
X80647584Y-70273347D01*
X80528545Y-70386708D01*
X80389753Y-70474788D01*
X80236499Y-70534231D01*
X80074619Y-70562775D01*
X79910273Y-70559332D01*
X79749728Y-70524035D01*
X79599094Y-70458224D01*
X79464118Y-70364413D01*
X79349930Y-70246168D01*
X79260883Y-70107994D01*
X79200369Y-69955153D01*
X79170697Y-69793481D01*
X79172991Y-69629116D01*
X79207169Y-69468326D01*
X79271923Y-69317240D01*
X79364794Y-69181607D01*
X79482237Y-69066598D01*
X79619786Y-68976588D01*
X79772197Y-68915010D01*
X79933662Y-68884209D01*
X80098043Y-68885357D01*
X80098043Y-68885357D01*
G37*
G36*
X102509764Y-67983910D02*
X102521820Y-67991591D01*
X102542462Y-67996132D01*
X102550364Y-67996187D01*
X102662585Y-68019224D01*
X102768207Y-68063623D01*
X102863187Y-68127688D01*
X102943915Y-68208981D01*
X103007315Y-68304405D01*
X103050973Y-68410328D01*
X103073157Y-68522367D01*
X103073157Y-68522372D01*
X103073225Y-68522716D01*
X103071398Y-68653574D01*
X103071321Y-68653912D01*
X103071321Y-68653921D01*
X103046016Y-68765298D01*
X102999419Y-68869956D01*
X102933377Y-68963576D01*
X102850410Y-69042585D01*
X102753678Y-69103973D01*
X102646861Y-69145404D01*
X102534038Y-69165298D01*
X102419492Y-69162898D01*
X102307598Y-69138298D01*
X102202611Y-69092429D01*
X102108537Y-69027046D01*
X102028951Y-68944633D01*
X101966888Y-68848330D01*
X101924711Y-68741802D01*
X101904031Y-68629123D01*
X101905630Y-68514566D01*
X101929451Y-68402498D01*
X101974582Y-68297197D01*
X102039310Y-68202665D01*
X102121165Y-68122507D01*
X102217033Y-68059773D01*
X102323259Y-68016855D01*
X102435794Y-67995388D01*
X102473754Y-67995653D01*
X102487920Y-67993740D01*
X102500993Y-67987957D01*
X102508084Y-67981999D01*
X102509764Y-67983910D01*
X102509764Y-67983910D01*
G37*
G36*
X101239764Y-67983910D02*
X101251820Y-67991591D01*
X101272462Y-67996132D01*
X101280364Y-67996187D01*
X101392585Y-68019224D01*
X101498207Y-68063623D01*
X101593187Y-68127688D01*
X101673915Y-68208981D01*
X101737315Y-68304405D01*
X101780973Y-68410328D01*
X101803157Y-68522367D01*
X101803157Y-68522372D01*
X101803225Y-68522716D01*
X101801398Y-68653574D01*
X101801321Y-68653912D01*
X101801321Y-68653921D01*
X101776016Y-68765298D01*
X101729419Y-68869956D01*
X101663377Y-68963576D01*
X101580410Y-69042585D01*
X101483678Y-69103973D01*
X101376861Y-69145404D01*
X101264038Y-69165298D01*
X101149492Y-69162898D01*
X101037598Y-69138298D01*
X100932611Y-69092429D01*
X100838537Y-69027046D01*
X100758951Y-68944633D01*
X100696888Y-68848330D01*
X100654711Y-68741802D01*
X100634031Y-68629123D01*
X100635630Y-68514566D01*
X100659451Y-68402498D01*
X100704582Y-68297197D01*
X100769310Y-68202665D01*
X100851165Y-68122507D01*
X100947033Y-68059773D01*
X101053259Y-68016855D01*
X101165794Y-67995388D01*
X101203754Y-67995653D01*
X101217920Y-67993740D01*
X101230993Y-67987957D01*
X101238084Y-67981999D01*
X101239764Y-67983910D01*
X101239764Y-67983910D01*
G37*
G36*
X90004043Y-66472357D02*
X90165058Y-66505409D01*
X90316601Y-66569111D01*
X90452873Y-66661029D01*
X90568706Y-66777672D01*
X90659668Y-66914582D01*
X90722310Y-67066563D01*
X90754168Y-67227456D01*
X90754168Y-67227466D01*
X90754236Y-67227810D01*
X90751615Y-67415563D01*
X90751537Y-67415906D01*
X90751537Y-67415909D01*
X90715197Y-67575861D01*
X90648340Y-67726025D01*
X90553584Y-67860347D01*
X90434545Y-67973708D01*
X90295753Y-68061788D01*
X90142499Y-68121231D01*
X89980619Y-68149775D01*
X89816273Y-68146332D01*
X89655728Y-68111035D01*
X89505094Y-68045224D01*
X89370118Y-67951413D01*
X89255930Y-67833168D01*
X89166883Y-67694994D01*
X89106369Y-67542153D01*
X89076697Y-67380481D01*
X89078991Y-67216116D01*
X89113169Y-67055326D01*
X89177923Y-66904240D01*
X89270794Y-66768607D01*
X89388237Y-66653598D01*
X89525786Y-66563588D01*
X89678197Y-66502010D01*
X89839662Y-66471209D01*
X90004043Y-66472357D01*
X90004043Y-66472357D01*
G37*
G36*
X92544043Y-66472357D02*
X92705058Y-66505409D01*
X92856601Y-66569111D01*
X92992873Y-66661029D01*
X93108706Y-66777672D01*
X93199668Y-66914582D01*
X93262310Y-67066563D01*
X93294168Y-67227456D01*
X93294168Y-67227466D01*
X93294236Y-67227810D01*
X93291615Y-67415563D01*
X93291537Y-67415906D01*
X93291537Y-67415909D01*
X93255197Y-67575861D01*
X93188340Y-67726025D01*
X93093584Y-67860347D01*
X92974545Y-67973708D01*
X92835753Y-68061788D01*
X92682499Y-68121231D01*
X92520619Y-68149775D01*
X92356273Y-68146332D01*
X92195728Y-68111035D01*
X92045094Y-68045224D01*
X91910118Y-67951413D01*
X91795930Y-67833168D01*
X91706883Y-67694994D01*
X91646369Y-67542153D01*
X91616697Y-67380481D01*
X91618991Y-67216116D01*
X91653169Y-67055326D01*
X91717923Y-66904240D01*
X91810794Y-66768607D01*
X91928237Y-66653598D01*
X92065786Y-66563588D01*
X92218197Y-66502010D01*
X92379662Y-66471209D01*
X92544043Y-66472357D01*
X92544043Y-66472357D01*
G37*
G36*
X77558043Y-66345357D02*
X77719058Y-66378409D01*
X77870601Y-66442111D01*
X78006873Y-66534029D01*
X78122706Y-66650672D01*
X78213668Y-66787582D01*
X78276310Y-66939563D01*
X78308168Y-67100456D01*
X78308168Y-67100466D01*
X78308236Y-67100810D01*
X78305615Y-67288563D01*
X78305537Y-67288906D01*
X78305537Y-67288909D01*
X78269197Y-67448861D01*
X78202340Y-67599025D01*
X78107584Y-67733347D01*
X77988545Y-67846708D01*
X77849753Y-67934788D01*
X77696499Y-67994231D01*
X77534619Y-68022775D01*
X77370273Y-68019332D01*
X77209728Y-67984035D01*
X77059094Y-67918224D01*
X76924118Y-67824413D01*
X76809930Y-67706168D01*
X76720883Y-67567994D01*
X76660369Y-67415153D01*
X76630697Y-67253481D01*
X76632991Y-67089116D01*
X76667169Y-66928326D01*
X76731923Y-66777240D01*
X76824794Y-66641607D01*
X76942237Y-66526598D01*
X77079786Y-66436588D01*
X77232197Y-66375010D01*
X77393662Y-66344209D01*
X77558043Y-66345357D01*
X77558043Y-66345357D01*
G37*
G36*
X80098043Y-66345357D02*
X80259058Y-66378409D01*
X80410601Y-66442111D01*
X80546873Y-66534029D01*
X80662706Y-66650672D01*
X80753668Y-66787582D01*
X80816310Y-66939563D01*
X80848168Y-67100456D01*
X80848168Y-67100466D01*
X80848236Y-67100810D01*
X80845615Y-67288563D01*
X80845537Y-67288906D01*
X80845537Y-67288909D01*
X80809197Y-67448861D01*
X80742340Y-67599025D01*
X80647584Y-67733347D01*
X80528545Y-67846708D01*
X80389753Y-67934788D01*
X80236499Y-67994231D01*
X80074619Y-68022775D01*
X79910273Y-68019332D01*
X79749728Y-67984035D01*
X79599094Y-67918224D01*
X79464118Y-67824413D01*
X79349930Y-67706168D01*
X79260883Y-67567994D01*
X79200369Y-67415153D01*
X79170697Y-67253481D01*
X79172991Y-67089116D01*
X79207169Y-66928326D01*
X79271923Y-66777240D01*
X79364794Y-66641607D01*
X79482237Y-66526598D01*
X79619786Y-66436588D01*
X79772197Y-66375010D01*
X79933662Y-66344209D01*
X80098043Y-66345357D01*
X80098043Y-66345357D01*
G37*
G36*
X102509764Y-66713910D02*
X102521820Y-66721591D01*
X102542462Y-66726132D01*
X102550364Y-66726187D01*
X102662585Y-66749224D01*
X102768207Y-66793623D01*
X102863187Y-66857688D01*
X102943915Y-66938981D01*
X103007315Y-67034405D01*
X103050973Y-67140328D01*
X103073157Y-67252367D01*
X103073157Y-67252372D01*
X103073225Y-67252716D01*
X103071398Y-67383574D01*
X103071321Y-67383912D01*
X103071321Y-67383921D01*
X103046016Y-67495298D01*
X102999419Y-67599956D01*
X102933377Y-67693576D01*
X102850410Y-67772585D01*
X102753678Y-67833973D01*
X102646861Y-67875404D01*
X102533996Y-67895305D01*
X102520408Y-67899743D01*
X102508594Y-67907791D01*
X102508383Y-67908046D01*
X102503111Y-67903147D01*
X102490344Y-67896718D01*
X102475173Y-67894065D01*
X102419493Y-67892898D01*
X102307598Y-67868298D01*
X102202611Y-67822429D01*
X102108537Y-67757046D01*
X102028951Y-67674633D01*
X101966888Y-67578330D01*
X101924711Y-67471802D01*
X101904031Y-67359123D01*
X101905630Y-67244566D01*
X101929451Y-67132498D01*
X101974582Y-67027197D01*
X102039310Y-66932665D01*
X102121165Y-66852507D01*
X102217033Y-66789773D01*
X102323259Y-66746855D01*
X102435794Y-66725388D01*
X102473754Y-66725653D01*
X102487920Y-66723740D01*
X102500993Y-66717957D01*
X102508084Y-66711999D01*
X102509764Y-66713910D01*
X102509764Y-66713910D01*
G37*
G36*
X101239764Y-66713910D02*
X101251820Y-66721591D01*
X101272462Y-66726132D01*
X101280364Y-66726187D01*
X101392585Y-66749224D01*
X101498207Y-66793623D01*
X101593187Y-66857688D01*
X101673915Y-66938981D01*
X101737315Y-67034405D01*
X101780973Y-67140328D01*
X101803157Y-67252367D01*
X101803157Y-67252372D01*
X101803225Y-67252716D01*
X101801398Y-67383574D01*
X101801321Y-67383912D01*
X101801321Y-67383921D01*
X101776016Y-67495298D01*
X101729419Y-67599956D01*
X101663377Y-67693576D01*
X101580410Y-67772585D01*
X101483678Y-67833973D01*
X101376861Y-67875404D01*
X101263996Y-67895305D01*
X101250408Y-67899743D01*
X101238594Y-67907791D01*
X101238383Y-67908046D01*
X101233111Y-67903147D01*
X101220344Y-67896718D01*
X101205173Y-67894065D01*
X101149493Y-67892898D01*
X101037598Y-67868298D01*
X100932611Y-67822429D01*
X100838537Y-67757046D01*
X100758951Y-67674633D01*
X100696888Y-67578330D01*
X100654711Y-67471802D01*
X100634031Y-67359123D01*
X100635630Y-67244566D01*
X100659451Y-67132498D01*
X100704582Y-67027197D01*
X100769310Y-66932665D01*
X100851165Y-66852507D01*
X100947033Y-66789773D01*
X101053259Y-66746855D01*
X101165794Y-66725388D01*
X101203754Y-66725653D01*
X101217920Y-66723740D01*
X101230993Y-66717957D01*
X101238084Y-66711999D01*
X101239764Y-66713910D01*
X101239764Y-66713910D01*
G37*
G36*
X101239764Y-65443910D02*
X101251820Y-65451591D01*
X101272462Y-65456132D01*
X101280364Y-65456187D01*
X101392585Y-65479224D01*
X101498207Y-65523623D01*
X101593187Y-65587688D01*
X101673915Y-65668981D01*
X101737315Y-65764405D01*
X101780973Y-65870328D01*
X101803157Y-65982367D01*
X101803157Y-65982372D01*
X101803225Y-65982716D01*
X101801398Y-66113574D01*
X101801321Y-66113912D01*
X101801321Y-66113921D01*
X101776016Y-66225298D01*
X101729419Y-66329956D01*
X101663377Y-66423576D01*
X101580410Y-66502585D01*
X101483678Y-66563973D01*
X101376861Y-66605404D01*
X101263996Y-66625305D01*
X101250408Y-66629743D01*
X101238594Y-66637791D01*
X101238383Y-66638046D01*
X101233111Y-66633147D01*
X101220344Y-66626718D01*
X101205173Y-66624065D01*
X101149493Y-66622898D01*
X101037598Y-66598298D01*
X100932611Y-66552429D01*
X100838537Y-66487046D01*
X100758951Y-66404633D01*
X100696888Y-66308330D01*
X100654711Y-66201802D01*
X100634031Y-66089123D01*
X100635630Y-65974566D01*
X100659451Y-65862498D01*
X100704582Y-65757197D01*
X100769310Y-65662665D01*
X100851165Y-65582507D01*
X100947033Y-65519773D01*
X101053259Y-65476855D01*
X101165794Y-65455388D01*
X101203754Y-65455653D01*
X101217920Y-65453740D01*
X101230993Y-65447957D01*
X101238084Y-65441999D01*
X101239764Y-65443910D01*
X101239764Y-65443910D01*
G37*
G36*
X102509764Y-65443910D02*
X102521820Y-65451591D01*
X102542462Y-65456132D01*
X102550364Y-65456187D01*
X102662585Y-65479224D01*
X102768207Y-65523623D01*
X102863187Y-65587688D01*
X102943915Y-65668981D01*
X103007315Y-65764405D01*
X103050973Y-65870328D01*
X103073157Y-65982367D01*
X103073157Y-65982372D01*
X103073225Y-65982716D01*
X103071398Y-66113574D01*
X103071321Y-66113912D01*
X103071321Y-66113921D01*
X103046016Y-66225298D01*
X102999419Y-66329956D01*
X102933377Y-66423576D01*
X102850410Y-66502585D01*
X102753678Y-66563973D01*
X102646861Y-66605404D01*
X102533996Y-66625305D01*
X102520408Y-66629743D01*
X102508594Y-66637791D01*
X102508383Y-66638046D01*
X102503111Y-66633147D01*
X102490344Y-66626718D01*
X102475173Y-66624065D01*
X102419493Y-66622898D01*
X102307598Y-66598298D01*
X102202611Y-66552429D01*
X102108537Y-66487046D01*
X102028951Y-66404633D01*
X101966888Y-66308330D01*
X101924711Y-66201802D01*
X101904031Y-66089123D01*
X101905630Y-65974566D01*
X101929451Y-65862498D01*
X101974582Y-65757197D01*
X102039310Y-65662665D01*
X102121165Y-65582507D01*
X102217033Y-65519773D01*
X102323259Y-65476855D01*
X102435794Y-65455388D01*
X102473754Y-65455653D01*
X102487920Y-65453740D01*
X102500993Y-65447957D01*
X102508084Y-65441999D01*
X102509764Y-65443910D01*
X102509764Y-65443910D01*
G37*
G36*
X90004043Y-63932357D02*
X90165058Y-63965409D01*
X90316601Y-64029111D01*
X90452873Y-64121029D01*
X90568706Y-64237672D01*
X90659668Y-64374582D01*
X90722310Y-64526563D01*
X90754168Y-64687456D01*
X90754168Y-64687466D01*
X90754236Y-64687810D01*
X90751615Y-64875563D01*
X90751537Y-64875906D01*
X90751537Y-64875909D01*
X90715197Y-65035861D01*
X90648340Y-65186025D01*
X90553584Y-65320347D01*
X90434545Y-65433708D01*
X90295753Y-65521788D01*
X90142499Y-65581231D01*
X89980619Y-65609775D01*
X89816273Y-65606332D01*
X89655728Y-65571035D01*
X89505094Y-65505224D01*
X89370118Y-65411413D01*
X89255930Y-65293168D01*
X89166883Y-65154994D01*
X89106369Y-65002153D01*
X89076697Y-64840481D01*
X89078991Y-64676116D01*
X89113169Y-64515326D01*
X89177923Y-64364240D01*
X89270794Y-64228607D01*
X89388237Y-64113598D01*
X89525786Y-64023588D01*
X89678197Y-63962010D01*
X89839662Y-63931209D01*
X90004043Y-63932357D01*
X90004043Y-63932357D01*
G37*
G36*
X92544043Y-63932357D02*
X92705058Y-63965409D01*
X92856601Y-64029111D01*
X92992873Y-64121029D01*
X93108706Y-64237672D01*
X93199668Y-64374582D01*
X93262310Y-64526563D01*
X93294168Y-64687456D01*
X93294168Y-64687466D01*
X93294236Y-64687810D01*
X93291615Y-64875563D01*
X93291537Y-64875906D01*
X93291537Y-64875909D01*
X93255197Y-65035861D01*
X93188340Y-65186025D01*
X93093584Y-65320347D01*
X92974545Y-65433708D01*
X92835753Y-65521788D01*
X92682499Y-65581231D01*
X92520619Y-65609775D01*
X92356273Y-65606332D01*
X92195728Y-65571035D01*
X92045094Y-65505224D01*
X91910118Y-65411413D01*
X91795930Y-65293168D01*
X91706883Y-65154994D01*
X91646369Y-65002153D01*
X91616697Y-64840481D01*
X91618991Y-64676116D01*
X91653169Y-64515326D01*
X91717923Y-64364240D01*
X91810794Y-64228607D01*
X91928237Y-64113598D01*
X92065786Y-64023588D01*
X92218197Y-63962010D01*
X92379662Y-63931209D01*
X92544043Y-63932357D01*
X92544043Y-63932357D01*
G37*
G36*
X77558043Y-63805357D02*
X77719058Y-63838409D01*
X77870601Y-63902111D01*
X78006873Y-63994029D01*
X78122706Y-64110672D01*
X78213668Y-64247582D01*
X78276310Y-64399563D01*
X78308168Y-64560456D01*
X78308168Y-64560466D01*
X78308236Y-64560810D01*
X78305615Y-64748563D01*
X78305537Y-64748906D01*
X78305537Y-64748909D01*
X78269197Y-64908861D01*
X78202340Y-65059025D01*
X78107584Y-65193347D01*
X77988545Y-65306708D01*
X77849753Y-65394788D01*
X77696499Y-65454231D01*
X77534619Y-65482775D01*
X77370273Y-65479332D01*
X77209728Y-65444035D01*
X77059094Y-65378224D01*
X76924118Y-65284413D01*
X76809930Y-65166168D01*
X76720883Y-65027994D01*
X76660369Y-64875153D01*
X76630697Y-64713481D01*
X76632991Y-64549116D01*
X76667169Y-64388326D01*
X76731923Y-64237240D01*
X76824794Y-64101607D01*
X76942237Y-63986598D01*
X77079786Y-63896588D01*
X77232197Y-63835010D01*
X77393662Y-63804209D01*
X77558043Y-63805357D01*
X77558043Y-63805357D01*
G37*
G36*
X80098043Y-63805357D02*
X80259058Y-63838409D01*
X80410601Y-63902111D01*
X80546873Y-63994029D01*
X80662706Y-64110672D01*
X80753668Y-64247582D01*
X80816310Y-64399563D01*
X80848168Y-64560456D01*
X80848168Y-64560466D01*
X80848236Y-64560810D01*
X80845615Y-64748563D01*
X80845537Y-64748906D01*
X80845537Y-64748909D01*
X80809197Y-64908861D01*
X80742340Y-65059025D01*
X80647584Y-65193347D01*
X80528545Y-65306708D01*
X80389753Y-65394788D01*
X80236499Y-65454231D01*
X80074619Y-65482775D01*
X79910273Y-65479332D01*
X79749728Y-65444035D01*
X79599094Y-65378224D01*
X79464118Y-65284413D01*
X79349930Y-65166168D01*
X79260883Y-65027994D01*
X79200369Y-64875153D01*
X79170697Y-64713481D01*
X79172991Y-64549116D01*
X79207169Y-64388326D01*
X79271923Y-64237240D01*
X79364794Y-64101607D01*
X79482237Y-63986598D01*
X79619786Y-63896588D01*
X79772197Y-63835010D01*
X79933662Y-63804209D01*
X80098043Y-63805357D01*
X80098043Y-63805357D01*
G37*
G36*
X102509764Y-64173910D02*
X102521820Y-64181591D01*
X102542462Y-64186132D01*
X102550364Y-64186187D01*
X102662585Y-64209224D01*
X102768207Y-64253623D01*
X102863187Y-64317688D01*
X102943915Y-64398981D01*
X103007315Y-64494405D01*
X103050973Y-64600328D01*
X103073157Y-64712367D01*
X103073157Y-64712372D01*
X103073225Y-64712716D01*
X103071398Y-64843574D01*
X103071321Y-64843912D01*
X103071321Y-64843921D01*
X103046016Y-64955298D01*
X102999419Y-65059956D01*
X102933377Y-65153576D01*
X102850410Y-65232585D01*
X102753678Y-65293973D01*
X102646861Y-65335404D01*
X102533996Y-65355305D01*
X102520408Y-65359743D01*
X102508594Y-65367791D01*
X102508383Y-65368046D01*
X102503111Y-65363147D01*
X102490344Y-65356718D01*
X102475173Y-65354065D01*
X102419493Y-65352898D01*
X102307598Y-65328298D01*
X102202611Y-65282429D01*
X102108537Y-65217046D01*
X102028951Y-65134633D01*
X101966888Y-65038330D01*
X101924711Y-64931802D01*
X101904031Y-64819123D01*
X101905630Y-64704566D01*
X101929451Y-64592498D01*
X101974582Y-64487197D01*
X102039310Y-64392665D01*
X102121165Y-64312507D01*
X102217033Y-64249773D01*
X102323259Y-64206855D01*
X102435794Y-64185388D01*
X102473754Y-64185653D01*
X102487920Y-64183740D01*
X102500993Y-64177957D01*
X102508084Y-64171999D01*
X102509764Y-64173910D01*
X102509764Y-64173910D01*
G37*
G36*
X101239764Y-64173910D02*
X101251820Y-64181591D01*
X101272462Y-64186132D01*
X101280364Y-64186187D01*
X101392585Y-64209224D01*
X101498207Y-64253623D01*
X101593187Y-64317688D01*
X101673915Y-64398981D01*
X101737315Y-64494405D01*
X101780973Y-64600328D01*
X101803157Y-64712367D01*
X101803157Y-64712372D01*
X101803225Y-64712716D01*
X101801398Y-64843574D01*
X101801321Y-64843912D01*
X101801321Y-64843921D01*
X101776016Y-64955298D01*
X101729419Y-65059956D01*
X101663377Y-65153576D01*
X101580410Y-65232585D01*
X101483678Y-65293973D01*
X101376861Y-65335404D01*
X101263996Y-65355305D01*
X101250408Y-65359743D01*
X101238594Y-65367791D01*
X101238383Y-65368046D01*
X101233111Y-65363147D01*
X101220344Y-65356718D01*
X101205173Y-65354065D01*
X101149493Y-65352898D01*
X101037598Y-65328298D01*
X100932611Y-65282429D01*
X100838537Y-65217046D01*
X100758951Y-65134633D01*
X100696888Y-65038330D01*
X100654711Y-64931802D01*
X100634031Y-64819123D01*
X100635630Y-64704566D01*
X100659451Y-64592498D01*
X100704582Y-64487197D01*
X100769310Y-64392665D01*
X100851165Y-64312507D01*
X100947033Y-64249773D01*
X101053259Y-64206855D01*
X101165794Y-64185388D01*
X101203754Y-64185653D01*
X101217920Y-64183740D01*
X101230993Y-64177957D01*
X101238084Y-64171999D01*
X101239764Y-64173910D01*
X101239764Y-64173910D01*
G37*
G36*
X102550364Y-62916187D02*
X102662585Y-62939224D01*
X102768207Y-62983623D01*
X102863187Y-63047688D01*
X102943915Y-63128981D01*
X103007315Y-63224405D01*
X103050973Y-63330328D01*
X103073157Y-63442367D01*
X103073157Y-63442372D01*
X103073225Y-63442716D01*
X103071398Y-63573574D01*
X103071321Y-63573912D01*
X103071321Y-63573921D01*
X103046016Y-63685298D01*
X102999419Y-63789956D01*
X102933377Y-63883576D01*
X102850410Y-63962585D01*
X102753678Y-64023973D01*
X102646861Y-64065404D01*
X102533996Y-64085305D01*
X102520408Y-64089743D01*
X102508594Y-64097791D01*
X102508383Y-64098046D01*
X102503111Y-64093147D01*
X102490344Y-64086718D01*
X102475173Y-64084065D01*
X102419493Y-64082898D01*
X102307598Y-64058298D01*
X102202611Y-64012429D01*
X102108537Y-63947046D01*
X102028951Y-63864633D01*
X101966888Y-63768330D01*
X101924711Y-63661802D01*
X101904031Y-63549123D01*
X101905630Y-63434566D01*
X101929451Y-63322498D01*
X101974582Y-63217197D01*
X102039310Y-63122665D01*
X102121165Y-63042507D01*
X102217033Y-62979773D01*
X102323259Y-62936855D01*
X102435794Y-62915388D01*
X102550364Y-62916187D01*
X102550364Y-62916187D01*
G37*
G36*
X101280364Y-62916187D02*
X101392585Y-62939224D01*
X101498207Y-62983623D01*
X101593187Y-63047688D01*
X101673915Y-63128981D01*
X101737315Y-63224405D01*
X101780973Y-63330328D01*
X101803157Y-63442367D01*
X101803157Y-63442372D01*
X101803225Y-63442716D01*
X101801398Y-63573574D01*
X101801321Y-63573912D01*
X101801321Y-63573921D01*
X101776016Y-63685298D01*
X101729419Y-63789956D01*
X101663377Y-63883576D01*
X101580410Y-63962585D01*
X101483678Y-64023973D01*
X101376861Y-64065404D01*
X101263996Y-64085305D01*
X101250408Y-64089743D01*
X101238594Y-64097791D01*
X101238383Y-64098046D01*
X101233111Y-64093147D01*
X101220344Y-64086718D01*
X101205173Y-64084065D01*
X101149493Y-64082898D01*
X101037598Y-64058298D01*
X100932611Y-64012429D01*
X100838537Y-63947046D01*
X100758951Y-63864633D01*
X100696888Y-63768330D01*
X100654711Y-63661802D01*
X100634031Y-63549123D01*
X100635630Y-63434566D01*
X100659451Y-63322498D01*
X100704582Y-63217197D01*
X100769310Y-63122665D01*
X100851165Y-63042507D01*
X100947033Y-62979773D01*
X101053259Y-62936855D01*
X101165794Y-62915388D01*
X101280364Y-62916187D01*
X101280364Y-62916187D01*
G37*
M02*
