G04 This is an RS-274x file exported by *
G04 gerbv version 2.6.0 *
G04 More information is available about gerbv at *
G04 http://gerbv.gpleda.org/ *
G04 --End of header info--*
%MOIN*%
%FSLAX34Y34*%
%IPPOS*%
G04 --Define apertures--*
%ADD10C,0.0138*%
%ADD11C,0.0157*%
%ADD12C,0.0020*%
%ADD13C,0.0016*%
%ADD14C,0.0100*%
%ADD15C,0.0020*%
%ADD16C,0.0059*%
%ADD17C,0.0060*%
G04 --Start main section--*
G54D11*
G01X0039641Y-035500D02*
G75*
G03X0039641Y-035500I-000141J0000000D01*
G54D12*
G01X0034776Y-036189D02*
G01X0040189Y-036189D01*
G01X0034776Y-034811D02*
G01X0034776Y-036189D01*
G01X0040189Y-034811D02*
G01X0034776Y-034811D01*
G01X0040189Y-036189D02*
G01X0040189Y-034811D01*
G54D13*
G01X0034300Y-023500D02*
G01X0034200Y-023500D01*
G01X0037600Y-023500D02*
G01X0034300Y-023500D01*
G01X0037600Y-027000D02*
G01X0037600Y-023500D01*
G01X0037100Y-027000D02*
G01X0037600Y-027000D01*
G01X0037100Y-028000D02*
G01X0037100Y-027000D01*
G01X0037600Y-028000D02*
G01X0037100Y-028000D01*
G01X0037600Y-031500D02*
G01X0037600Y-028000D01*
G01X0034200Y-031500D02*
G01X0037600Y-031500D01*
G01X0034200Y-023500D02*
G01X0034200Y-031500D01*
G54D14*
G01X0037341Y-029500D02*
G75*
G03X0037341Y-029500I-000141J0000000D01*
G54D13*
G01X0029400Y-023450D02*
G01X0029300Y-023450D01*
G01X0032700Y-023450D02*
G01X0029400Y-023450D01*
G01X0032700Y-028950D02*
G01X0032700Y-023450D01*
G01X0032200Y-028950D02*
G01X0032700Y-028950D01*
G01X0032200Y-030950D02*
G01X0032200Y-028950D01*
G01X0032700Y-030950D02*
G01X0032200Y-030950D01*
G01X0032700Y-036450D02*
G01X0032700Y-030950D01*
G01X0029300Y-036450D02*
G01X0032700Y-036450D01*
G01X0029300Y-023450D02*
G01X0029300Y-036450D01*
G54D14*
G01X0032441Y-034450D02*
G75*
G03X0032441Y-034450I-000141J0000000D01*
G01X0040921Y-027000D02*
G75*
G03X0040921Y-027000I-000071J0000000D01*
G54D15*
G01X0039096Y-023508D02*
G01X0041104Y-023508D01*
G01X0039100Y-028492D02*
G01X0041108Y-028492D01*
G01X0041100Y-028484D02*
G01X0041100Y-026500D01*
G01X0041100Y-026500D02*
G01X0040850Y-026500D01*
G01X0040850Y-026500D02*
G01X0040850Y-025500D01*
G01X0040850Y-025500D02*
G01X0041100Y-025500D01*
G01X0041100Y-023516D02*
G01X0041100Y-025500D01*
G01X0039100Y-028492D02*
G01X0039100Y-023508D01*
G54D14*
G01X0037166Y-035062D02*
G01X0037166Y-035633D01*
G01X0037166Y-035633D02*
G01X0037128Y-035748D01*
G01X0037128Y-035748D02*
G01X0037052Y-035824D01*
G01X0037052Y-035824D02*
G01X0036938Y-035862D01*
G01X0036938Y-035862D02*
G01X0036862Y-035862D01*
G01X0037471Y-035062D02*
G01X0037966Y-035062D01*
G01X0037966Y-035062D02*
G01X0037700Y-035367D01*
G01X0037700Y-035367D02*
G01X0037814Y-035367D01*
G01X0037814Y-035367D02*
G01X0037890Y-035405D01*
G01X0037890Y-035405D02*
G01X0037928Y-035443D01*
G01X0037928Y-035443D02*
G01X0037966Y-035519D01*
G01X0037966Y-035519D02*
G01X0037966Y-035710D01*
G01X0037966Y-035710D02*
G01X0037928Y-035786D01*
G01X0037928Y-035786D02*
G01X0037890Y-035824D01*
G01X0037890Y-035824D02*
G01X0037814Y-035862D01*
G01X0037814Y-035862D02*
G01X0037585Y-035862D01*
G01X0037585Y-035862D02*
G01X0037509Y-035824D01*
G01X0037509Y-035824D02*
G01X0037471Y-035786D01*
G54D16*
G01X0035684Y-027631D02*
G01X0035966Y-027631D01*
G01X0035966Y-027631D02*
G01X0036022Y-027650D01*
G01X0036022Y-027650D02*
G01X0036059Y-027687D01*
G01X0036059Y-027687D02*
G01X0036078Y-027744D01*
G01X0036078Y-027744D02*
G01X0036078Y-027781D01*
G01X0035722Y-027463D02*
G01X0035703Y-027444D01*
G01X0035703Y-027444D02*
G01X0035684Y-027406D01*
G01X0035684Y-027406D02*
G01X0035684Y-027313D01*
G01X0035684Y-027313D02*
G01X0035703Y-027275D01*
G01X0035703Y-027275D02*
G01X0035722Y-027256D01*
G01X0035722Y-027256D02*
G01X0035759Y-027238D01*
G01X0035759Y-027238D02*
G01X0035797Y-027238D01*
G01X0035797Y-027238D02*
G01X0035853Y-027256D01*
G01X0035853Y-027256D02*
G01X0036078Y-027481D01*
G01X0036078Y-027481D02*
G01X0036078Y-027238D01*
G01X0030784Y-030081D02*
G01X0031066Y-030081D01*
G01X0031066Y-030081D02*
G01X0031122Y-030100D01*
G01X0031122Y-030100D02*
G01X0031159Y-030137D01*
G01X0031159Y-030137D02*
G01X0031178Y-030194D01*
G01X0031178Y-030194D02*
G01X0031178Y-030231D01*
G01X0031178Y-029688D02*
G01X0031178Y-029913D01*
G01X0031178Y-029800D02*
G01X0030784Y-029800D01*
G01X0030784Y-029800D02*
G01X0030841Y-029838D01*
G01X0030841Y-029838D02*
G01X0030878Y-029875D01*
G01X0030878Y-029875D02*
G01X0030897Y-029913D01*
G01X0039884Y-026131D02*
G01X0040166Y-026131D01*
G01X0040166Y-026131D02*
G01X0040222Y-026150D01*
G01X0040222Y-026150D02*
G01X0040259Y-026187D01*
G01X0040259Y-026187D02*
G01X0040278Y-026244D01*
G01X0040278Y-026244D02*
G01X0040278Y-026281D01*
G01X0040016Y-025775D02*
G01X0040278Y-025775D01*
G01X0039866Y-025869D02*
G01X0040147Y-025963D01*
G01X0040147Y-025963D02*
G01X0040147Y-025719D01*
G01X0000000Y0000000D02*
G54D17*
G01X0040500Y-023000D02*
G01X0030000Y-023000D01*
G01X0041500Y-036000D02*
G01X0041500Y-024000D01*
G01X0030000Y-037000D02*
G01X0040500Y-037000D01*
G01X0029000Y-024000D02*
G01X0029000Y-036000D01*
G01X0030000Y-023000D02*
G75*
G03X0029000Y-024000I0000000J-001000D01*
G01X0029000Y-036000D02*
G75*
G03X0030000Y-037000I0001000J0000000D01*
G01X0040500Y-037000D02*
G75*
G03X0041500Y-036000I0000000J0001000D01*
G01X0041500Y-024000D02*
G75*
G03X0040500Y-023000I-001000J0000000D01*
M02*
