%TF.GenerationSoftware,KiCad,Pcbnew,4.0.5-e0-6337~49~ubuntu16.04.1*%
%TF.CreationDate,2017-08-14T13:45:05-07:00*%
%TF.ProjectId,atsamd21g18-jtag-stlinkv2-adapter,617473616D6432316731382D6A746167,1.0*%
%TF.FileFunction,Legend,Bot*%
%FSLAX46Y46*%
G04 Gerber Fmt 4.6, Leading zero omitted, Abs format (unit mm)*
G04 Created by KiCad (PCBNEW 4.0.5-e0-6337~49~ubuntu16.04.1) date Mon Aug 14 13:45:05 2017*
%MOMM*%
%LPD*%
G01*
G04 APERTURE LIST*
%ADD10C,0.350000*%
%ADD11C,0.152400*%
%ADD12R,1.879600X2.184400*%
%ADD13O,1.879600X2.184400*%
%ADD14C,1.676400*%
%ADD15C,1.168400*%
G04 APERTURE END LIST*
D10*
D11*
X54767237Y-67447886D02*
X54573713Y-68125219D01*
X54380190Y-67641410D01*
X54186666Y-68125219D01*
X53993142Y-67447886D01*
X53606094Y-68125219D02*
X53606094Y-67447886D01*
X53606094Y-67109219D02*
X53654475Y-67157600D01*
X53606094Y-67205981D01*
X53557713Y-67157600D01*
X53606094Y-67109219D01*
X53606094Y-67205981D01*
X52686856Y-68076838D02*
X52783618Y-68125219D01*
X52977141Y-68125219D01*
X53073903Y-68076838D01*
X53122284Y-68028457D01*
X53170665Y-67931695D01*
X53170665Y-67641410D01*
X53122284Y-67544648D01*
X53073903Y-67496267D01*
X52977141Y-67447886D01*
X52783618Y-67447886D01*
X52686856Y-67496267D01*
X52251427Y-68125219D02*
X52251427Y-67109219D01*
X52154665Y-67738171D02*
X51864380Y-68125219D01*
X51864380Y-67447886D02*
X52251427Y-67834933D01*
X51041904Y-68076838D02*
X51138666Y-68125219D01*
X51332189Y-68125219D01*
X51428951Y-68076838D01*
X51477332Y-67980076D01*
X51477332Y-67593029D01*
X51428951Y-67496267D01*
X51332189Y-67447886D01*
X51138666Y-67447886D01*
X51041904Y-67496267D01*
X50993523Y-67593029D01*
X50993523Y-67689790D01*
X51477332Y-67786552D01*
X50558094Y-68125219D02*
X50558094Y-67447886D01*
X50558094Y-67641410D02*
X50509713Y-67544648D01*
X50461332Y-67496267D01*
X50364570Y-67447886D01*
X50267809Y-67447886D01*
X49929142Y-68125219D02*
X49929142Y-67109219D01*
X49929142Y-67496267D02*
X49832380Y-67447886D01*
X49638857Y-67447886D01*
X49542095Y-67496267D01*
X49493714Y-67544648D01*
X49445333Y-67641410D01*
X49445333Y-67931695D01*
X49493714Y-68028457D01*
X49542095Y-68076838D01*
X49638857Y-68125219D01*
X49832380Y-68125219D01*
X49929142Y-68076838D01*
X48864761Y-68125219D02*
X48961523Y-68076838D01*
X49009904Y-68028457D01*
X49058285Y-67931695D01*
X49058285Y-67641410D01*
X49009904Y-67544648D01*
X48961523Y-67496267D01*
X48864761Y-67447886D01*
X48719619Y-67447886D01*
X48622857Y-67496267D01*
X48574476Y-67544648D01*
X48526095Y-67641410D01*
X48526095Y-67931695D01*
X48574476Y-68028457D01*
X48622857Y-68076838D01*
X48719619Y-68125219D01*
X48864761Y-68125219D01*
X48187428Y-68125219D02*
X47655238Y-67447886D01*
X48187428Y-67447886D02*
X47655238Y-68125219D01*
X47268190Y-68028457D02*
X47219809Y-68076838D01*
X47268190Y-68125219D01*
X47316571Y-68076838D01*
X47268190Y-68028457D01*
X47268190Y-68125219D01*
X46784380Y-67447886D02*
X46784380Y-68125219D01*
X46784380Y-67544648D02*
X46735999Y-67496267D01*
X46639237Y-67447886D01*
X46494095Y-67447886D01*
X46397333Y-67496267D01*
X46348952Y-67593029D01*
X46348952Y-68125219D01*
X45478095Y-68076838D02*
X45574857Y-68125219D01*
X45768380Y-68125219D01*
X45865142Y-68076838D01*
X45913523Y-67980076D01*
X45913523Y-67593029D01*
X45865142Y-67496267D01*
X45768380Y-67447886D01*
X45574857Y-67447886D01*
X45478095Y-67496267D01*
X45429714Y-67593029D01*
X45429714Y-67689790D01*
X45913523Y-67786552D01*
X45139428Y-67447886D02*
X44752380Y-67447886D01*
X44994285Y-67109219D02*
X44994285Y-67980076D01*
X44945904Y-68076838D01*
X44849142Y-68125219D01*
X44752380Y-68125219D01*
X55347809Y-59618638D02*
X55202666Y-59667019D01*
X54960762Y-59667019D01*
X54864000Y-59618638D01*
X54815619Y-59570257D01*
X54767238Y-59473495D01*
X54767238Y-59376733D01*
X54815619Y-59279971D01*
X54864000Y-59231590D01*
X54960762Y-59183210D01*
X55154285Y-59134829D01*
X55251047Y-59086448D01*
X55299428Y-59038067D01*
X55347809Y-58941305D01*
X55347809Y-58844543D01*
X55299428Y-58747781D01*
X55251047Y-58699400D01*
X55154285Y-58651019D01*
X54912381Y-58651019D01*
X54767238Y-58699400D01*
X54476952Y-58651019D02*
X53896381Y-58651019D01*
X54186666Y-59667019D02*
X54186666Y-58651019D01*
X53073905Y-59667019D02*
X53557714Y-59667019D01*
X53557714Y-58651019D01*
X52735238Y-59667019D02*
X52735238Y-58989686D01*
X52735238Y-58651019D02*
X52783619Y-58699400D01*
X52735238Y-58747781D01*
X52686857Y-58699400D01*
X52735238Y-58651019D01*
X52735238Y-58747781D01*
X52251428Y-58989686D02*
X52251428Y-59667019D01*
X52251428Y-59086448D02*
X52203047Y-59038067D01*
X52106285Y-58989686D01*
X51961143Y-58989686D01*
X51864381Y-59038067D01*
X51816000Y-59134829D01*
X51816000Y-59667019D01*
X51332190Y-59667019D02*
X51332190Y-58651019D01*
X51235428Y-59279971D02*
X50945143Y-59667019D01*
X50945143Y-58989686D02*
X51332190Y-59376733D01*
X49784000Y-58602638D02*
X50654857Y-59908924D01*
X49542095Y-58989686D02*
X49300190Y-59667019D01*
X49058286Y-58989686D01*
X48719619Y-58747781D02*
X48671238Y-58699400D01*
X48574476Y-58651019D01*
X48332572Y-58651019D01*
X48235810Y-58699400D01*
X48187429Y-58747781D01*
X48139048Y-58844543D01*
X48139048Y-58941305D01*
X48187429Y-59086448D01*
X48768000Y-59667019D01*
X48139048Y-59667019D01*
X46977905Y-59618638D02*
X46832762Y-59667019D01*
X46590858Y-59667019D01*
X46494096Y-59618638D01*
X46445715Y-59570257D01*
X46397334Y-59473495D01*
X46397334Y-59376733D01*
X46445715Y-59279971D01*
X46494096Y-59231590D01*
X46590858Y-59183210D01*
X46784381Y-59134829D01*
X46881143Y-59086448D01*
X46929524Y-59038067D01*
X46977905Y-58941305D01*
X46977905Y-58844543D01*
X46929524Y-58747781D01*
X46881143Y-58699400D01*
X46784381Y-58651019D01*
X46542477Y-58651019D01*
X46397334Y-58699400D01*
X46058667Y-58651019D02*
X45816762Y-59667019D01*
X45623239Y-58941305D01*
X45429715Y-59667019D01*
X45187810Y-58651019D01*
X44800762Y-59667019D02*
X44800762Y-58651019D01*
X44558857Y-58651019D01*
X44413715Y-58699400D01*
X44316953Y-58796162D01*
X44268572Y-58892924D01*
X44220191Y-59086448D01*
X44220191Y-59231590D01*
X44268572Y-59425114D01*
X44316953Y-59521876D01*
X44413715Y-59618638D01*
X44558857Y-59667019D01*
X44800762Y-59667019D01*
X57016951Y-61053133D02*
X56533142Y-61053133D01*
X57113713Y-61343419D02*
X56775046Y-60327419D01*
X56436380Y-61343419D01*
X55662285Y-61343419D02*
X55662285Y-60327419D01*
X55662285Y-61295038D02*
X55759047Y-61343419D01*
X55952570Y-61343419D01*
X56049332Y-61295038D01*
X56097713Y-61246657D01*
X56146094Y-61149895D01*
X56146094Y-60859610D01*
X56097713Y-60762848D01*
X56049332Y-60714467D01*
X55952570Y-60666086D01*
X55759047Y-60666086D01*
X55662285Y-60714467D01*
X54743047Y-61343419D02*
X54743047Y-60811229D01*
X54791428Y-60714467D01*
X54888190Y-60666086D01*
X55081713Y-60666086D01*
X55178475Y-60714467D01*
X54743047Y-61295038D02*
X54839809Y-61343419D01*
X55081713Y-61343419D01*
X55178475Y-61295038D01*
X55226856Y-61198276D01*
X55226856Y-61101514D01*
X55178475Y-61004752D01*
X55081713Y-60956371D01*
X54839809Y-60956371D01*
X54743047Y-60907990D01*
X54259237Y-60666086D02*
X54259237Y-61682086D01*
X54259237Y-60714467D02*
X54162475Y-60666086D01*
X53968952Y-60666086D01*
X53872190Y-60714467D01*
X53823809Y-60762848D01*
X53775428Y-60859610D01*
X53775428Y-61149895D01*
X53823809Y-61246657D01*
X53872190Y-61295038D01*
X53968952Y-61343419D01*
X54162475Y-61343419D01*
X54259237Y-61295038D01*
X53485142Y-60666086D02*
X53098094Y-60666086D01*
X53339999Y-60327419D02*
X53339999Y-61198276D01*
X53291618Y-61295038D01*
X53194856Y-61343419D01*
X53098094Y-61343419D01*
X52372381Y-61295038D02*
X52469143Y-61343419D01*
X52662666Y-61343419D01*
X52759428Y-61295038D01*
X52807809Y-61198276D01*
X52807809Y-60811229D01*
X52759428Y-60714467D01*
X52662666Y-60666086D01*
X52469143Y-60666086D01*
X52372381Y-60714467D01*
X52324000Y-60811229D01*
X52324000Y-60907990D01*
X52807809Y-61004752D01*
X51888571Y-61343419D02*
X51888571Y-60666086D01*
X51888571Y-60859610D02*
X51840190Y-60762848D01*
X51791809Y-60714467D01*
X51695047Y-60666086D01*
X51598286Y-60666086D01*
X50146858Y-60811229D02*
X50001715Y-60859610D01*
X49953334Y-60907990D01*
X49904953Y-61004752D01*
X49904953Y-61149895D01*
X49953334Y-61246657D01*
X50001715Y-61295038D01*
X50098477Y-61343419D01*
X50485524Y-61343419D01*
X50485524Y-60327419D01*
X50146858Y-60327419D01*
X50050096Y-60375800D01*
X50001715Y-60424181D01*
X49953334Y-60520943D01*
X49953334Y-60617705D01*
X50001715Y-60714467D01*
X50050096Y-60762848D01*
X50146858Y-60811229D01*
X50485524Y-60811229D01*
X49324381Y-61343419D02*
X49421143Y-61295038D01*
X49469524Y-61246657D01*
X49517905Y-61149895D01*
X49517905Y-60859610D01*
X49469524Y-60762848D01*
X49421143Y-60714467D01*
X49324381Y-60666086D01*
X49179239Y-60666086D01*
X49082477Y-60714467D01*
X49034096Y-60762848D01*
X48985715Y-60859610D01*
X48985715Y-61149895D01*
X49034096Y-61246657D01*
X49082477Y-61295038D01*
X49179239Y-61343419D01*
X49324381Y-61343419D01*
X48114858Y-61343419D02*
X48114858Y-60811229D01*
X48163239Y-60714467D01*
X48260001Y-60666086D01*
X48453524Y-60666086D01*
X48550286Y-60714467D01*
X48114858Y-61295038D02*
X48211620Y-61343419D01*
X48453524Y-61343419D01*
X48550286Y-61295038D01*
X48598667Y-61198276D01*
X48598667Y-61101514D01*
X48550286Y-61004752D01*
X48453524Y-60956371D01*
X48211620Y-60956371D01*
X48114858Y-60907990D01*
X47631048Y-61343419D02*
X47631048Y-60666086D01*
X47631048Y-60859610D02*
X47582667Y-60762848D01*
X47534286Y-60714467D01*
X47437524Y-60666086D01*
X47340763Y-60666086D01*
X46566668Y-61343419D02*
X46566668Y-60327419D01*
X46566668Y-61295038D02*
X46663430Y-61343419D01*
X46856953Y-61343419D01*
X46953715Y-61295038D01*
X47002096Y-61246657D01*
X47050477Y-61149895D01*
X47050477Y-60859610D01*
X47002096Y-60762848D01*
X46953715Y-60714467D01*
X46856953Y-60666086D01*
X46663430Y-60666086D01*
X46566668Y-60714467D01*
X45405525Y-60666086D02*
X45163620Y-61343419D01*
X44921716Y-60666086D01*
X44002478Y-61343419D02*
X44583049Y-61343419D01*
X44292763Y-61343419D02*
X44292763Y-60327419D01*
X44389525Y-60472562D01*
X44486287Y-60569324D01*
X44583049Y-60617705D01*
X43567049Y-61246657D02*
X43518668Y-61295038D01*
X43567049Y-61343419D01*
X43615430Y-61295038D01*
X43567049Y-61246657D01*
X43567049Y-61343419D01*
X42889715Y-60327419D02*
X42792954Y-60327419D01*
X42696192Y-60375800D01*
X42647811Y-60424181D01*
X42599430Y-60520943D01*
X42551049Y-60714467D01*
X42551049Y-60956371D01*
X42599430Y-61149895D01*
X42647811Y-61246657D01*
X42696192Y-61295038D01*
X42792954Y-61343419D01*
X42889715Y-61343419D01*
X42986477Y-61295038D01*
X43034858Y-61246657D01*
X43083239Y-61149895D01*
X43131620Y-60956371D01*
X43131620Y-60714467D01*
X43083239Y-60520943D01*
X43034858Y-60424181D01*
X42986477Y-60375800D01*
X42889715Y-60327419D01*
%LPC*%
D12*
X54864000Y-65125600D03*
D13*
X52324000Y-65125600D03*
X49784000Y-65125600D03*
X47244000Y-65125600D03*
X44704000Y-65125600D03*
D14*
X44450000Y-49885600D03*
X44450000Y-47345600D03*
X44450000Y-44805600D03*
X44450000Y-42265600D03*
X44450000Y-39725600D03*
X46990000Y-49885600D03*
X46990000Y-47345600D03*
X46990000Y-44805600D03*
X46990000Y-42265600D03*
X46990000Y-39725600D03*
X32004000Y-62458600D03*
X32004000Y-59918600D03*
X32004000Y-57378600D03*
X32004000Y-54838600D03*
X32004000Y-52298600D03*
X34544000Y-62458600D03*
X34544000Y-59918600D03*
X34544000Y-57378600D03*
X34544000Y-54838600D03*
X34544000Y-52298600D03*
X34544000Y-42138600D03*
X32004000Y-44678600D03*
X32004000Y-42138600D03*
X32004000Y-39598600D03*
X34544000Y-44678600D03*
X34544000Y-39598600D03*
X34544000Y-47218600D03*
X32004000Y-49758600D03*
X32004000Y-47218600D03*
X34544000Y-49758600D03*
D15*
X55753000Y-43535600D03*
X57023000Y-43535600D03*
X55753000Y-42265600D03*
X57023000Y-42265600D03*
X55753000Y-40995600D03*
X57023000Y-40995600D03*
X55753000Y-39725600D03*
X57023000Y-39725600D03*
X55753000Y-38455600D03*
X57023000Y-38455600D03*
M02*
