G04 This is an RS-274x file exported by *
G04 gerbv version 2.6.0 *
G04 More information is available about gerbv at *
G04 http://gerbv.gpleda.org/ *
G04 --End of header info--*
%MOIN*%
%FSLAX34Y34*%
%IPPOS*%
G04 --Define apertures--*
%ADD10C,0.0138*%
%ADD11C,0.0157*%
%ADD12C,0.0020*%
%ADD13C,0.0016*%
%ADD14C,0.0100*%
%ADD15C,0.0020*%
%ADD16C,0.0059*%
%ADD17C,0.0060*%
G04 --Start main section--*
G54D11*
G01X0021741Y-025640D02*
G75*
G03X0021741Y-025640I-000141J0000000D01*
G54D12*
G01X0016876Y-026329D02*
G01X0022289Y-026329D01*
G01X0016876Y-024951D02*
G01X0016876Y-026329D01*
G01X0022289Y-024951D02*
G01X0016876Y-024951D01*
G01X0022289Y-026329D02*
G01X0022289Y-024951D01*
G54D13*
G01X0016400Y-013640D02*
G01X0016300Y-013640D01*
G01X0019700Y-013640D02*
G01X0016400Y-013640D01*
G01X0019700Y-017140D02*
G01X0019700Y-013640D01*
G01X0019200Y-017140D02*
G01X0019700Y-017140D01*
G01X0019200Y-018140D02*
G01X0019200Y-017140D01*
G01X0019700Y-018140D02*
G01X0019200Y-018140D01*
G01X0019700Y-021640D02*
G01X0019700Y-018140D01*
G01X0016300Y-021640D02*
G01X0019700Y-021640D01*
G01X0016300Y-013640D02*
G01X0016300Y-021640D01*
G54D14*
G01X0019441Y-019640D02*
G75*
G03X0019441Y-019640I-000141J0000000D01*
G54D13*
G01X0011500Y-013590D02*
G01X0011400Y-013590D01*
G01X0014800Y-013590D02*
G01X0011500Y-013590D01*
G01X0014800Y-019090D02*
G01X0014800Y-013590D01*
G01X0014300Y-019090D02*
G01X0014800Y-019090D01*
G01X0014300Y-021090D02*
G01X0014300Y-019090D01*
G01X0014800Y-021090D02*
G01X0014300Y-021090D01*
G01X0014800Y-026590D02*
G01X0014800Y-021090D01*
G01X0011400Y-026590D02*
G01X0014800Y-026590D01*
G01X0011400Y-013590D02*
G01X0011400Y-026590D01*
G54D14*
G01X0014541Y-024590D02*
G75*
G03X0014541Y-024590I-000141J0000000D01*
G01X0023021Y-017140D02*
G75*
G03X0023021Y-017140I-000071J0000000D01*
G54D15*
G01X0021196Y-013648D02*
G01X0023204Y-013648D01*
G01X0021200Y-018632D02*
G01X0023208Y-018632D01*
G01X0023200Y-018624D02*
G01X0023200Y-016640D01*
G01X0023200Y-016640D02*
G01X0022950Y-016640D01*
G01X0022950Y-016640D02*
G01X0022950Y-015640D01*
G01X0022950Y-015640D02*
G01X0023200Y-015640D01*
G01X0023200Y-013656D02*
G01X0023200Y-015640D01*
G01X0021200Y-018632D02*
G01X0021200Y-013648D01*
G54D14*
G01X0019266Y-025202D02*
G01X0019266Y-025773D01*
G01X0019266Y-025773D02*
G01X0019228Y-025888D01*
G01X0019228Y-025888D02*
G01X0019152Y-025964D01*
G01X0019152Y-025964D02*
G01X0019038Y-026002D01*
G01X0019038Y-026002D02*
G01X0018962Y-026002D01*
G01X0019571Y-025202D02*
G01X0020066Y-025202D01*
G01X0020066Y-025202D02*
G01X0019800Y-025507D01*
G01X0019800Y-025507D02*
G01X0019914Y-025507D01*
G01X0019914Y-025507D02*
G01X0019990Y-025545D01*
G01X0019990Y-025545D02*
G01X0020028Y-025583D01*
G01X0020028Y-025583D02*
G01X0020066Y-025659D01*
G01X0020066Y-025659D02*
G01X0020066Y-025850D01*
G01X0020066Y-025850D02*
G01X0020028Y-025926D01*
G01X0020028Y-025926D02*
G01X0019990Y-025964D01*
G01X0019990Y-025964D02*
G01X0019914Y-026002D01*
G01X0019914Y-026002D02*
G01X0019685Y-026002D01*
G01X0019685Y-026002D02*
G01X0019609Y-025964D01*
G01X0019609Y-025964D02*
G01X0019571Y-025926D01*
G54D16*
G01X0017784Y-017771D02*
G01X0018066Y-017771D01*
G01X0018066Y-017771D02*
G01X0018122Y-017790D01*
G01X0018122Y-017790D02*
G01X0018159Y-017827D01*
G01X0018159Y-017827D02*
G01X0018178Y-017884D01*
G01X0018178Y-017884D02*
G01X0018178Y-017921D01*
G01X0017822Y-017603D02*
G01X0017803Y-017584D01*
G01X0017803Y-017584D02*
G01X0017784Y-017546D01*
G01X0017784Y-017546D02*
G01X0017784Y-017453D01*
G01X0017784Y-017453D02*
G01X0017803Y-017415D01*
G01X0017803Y-017415D02*
G01X0017822Y-017396D01*
G01X0017822Y-017396D02*
G01X0017859Y-017378D01*
G01X0017859Y-017378D02*
G01X0017897Y-017378D01*
G01X0017897Y-017378D02*
G01X0017953Y-017396D01*
G01X0017953Y-017396D02*
G01X0018178Y-017621D01*
G01X0018178Y-017621D02*
G01X0018178Y-017378D01*
G01X0012884Y-020221D02*
G01X0013166Y-020221D01*
G01X0013166Y-020221D02*
G01X0013222Y-020240D01*
G01X0013222Y-020240D02*
G01X0013259Y-020277D01*
G01X0013259Y-020277D02*
G01X0013278Y-020334D01*
G01X0013278Y-020334D02*
G01X0013278Y-020371D01*
G01X0013278Y-019828D02*
G01X0013278Y-020053D01*
G01X0013278Y-019940D02*
G01X0012884Y-019940D01*
G01X0012884Y-019940D02*
G01X0012941Y-019978D01*
G01X0012941Y-019978D02*
G01X0012978Y-020015D01*
G01X0012978Y-020015D02*
G01X0012997Y-020053D01*
G01X0021984Y-016271D02*
G01X0022266Y-016271D01*
G01X0022266Y-016271D02*
G01X0022322Y-016290D01*
G01X0022322Y-016290D02*
G01X0022359Y-016327D01*
G01X0022359Y-016327D02*
G01X0022378Y-016384D01*
G01X0022378Y-016384D02*
G01X0022378Y-016421D01*
G01X0022116Y-015915D02*
G01X0022378Y-015915D01*
G01X0021966Y-016009D02*
G01X0022247Y-016103D01*
G01X0022247Y-016103D02*
G01X0022247Y-015859D01*
G01X0000000Y0000000D02*
G54D17*
G01X0022600Y-013140D02*
G01X0012100Y-013140D01*
G01X0023600Y-026140D02*
G01X0023600Y-014140D01*
G01X0012100Y-027140D02*
G01X0022600Y-027140D01*
G01X0011100Y-014140D02*
G01X0011100Y-026140D01*
G01X0012100Y-013140D02*
G75*
G03X0011100Y-014140I0000000J-001000D01*
G01X0011100Y-026140D02*
G75*
G03X0012100Y-027140I0001000J0000000D01*
G01X0022600Y-027140D02*
G75*
G03X0023600Y-026140I0000000J0001000D01*
G01X0023600Y-014140D02*
G75*
G03X0022600Y-013140I-001000J0000000D01*
M02*
