M48
;DRILL file {KiCad 4.0.5-e0-6337~49~ubuntu16.04.1} date Mon Aug 14 13:45:05 2017
;FORMAT={-:-/ absolute / metric / decimal}
FMAT,2
METRIC,TZ
T1C0.813
T2C1.016
%
G90
G05
M71
T1
X55.753Y-38.456
X55.753Y-39.726
X55.753Y-40.996
X55.753Y-42.266
X55.753Y-43.536
X57.023Y-38.456
X57.023Y-39.726
X57.023Y-40.996
X57.023Y-42.266
X57.023Y-43.536
T2
X32.004Y-39.599
X32.004Y-42.139
X32.004Y-44.679
X32.004Y-47.219
X32.004Y-49.759
X32.004Y-52.299
X32.004Y-54.839
X32.004Y-57.379
X32.004Y-59.919
X32.004Y-62.459
X34.544Y-39.599
X34.544Y-42.139
X34.544Y-44.679
X34.544Y-47.219
X34.544Y-49.759
X34.544Y-52.299
X34.544Y-54.839
X34.544Y-57.379
X34.544Y-59.919
X34.544Y-62.459
X44.45Y-39.726
X44.45Y-42.266
X44.45Y-44.806
X44.45Y-47.346
X44.45Y-49.886
X44.704Y-65.126
X46.99Y-39.726
X46.99Y-42.266
X46.99Y-44.806
X46.99Y-47.346
X46.99Y-49.886
X47.244Y-65.126
X49.784Y-65.126
X52.324Y-65.126
X54.864Y-65.126
T0
M30
