G04 This is an RS-274x file exported by *
G04 gerbv version 2.6.0 *
G04 More information is available about gerbv at *
G04 http://gerbv.gpleda.org/ *
G04 --End of header info--*
%MOIN*%
%FSLAX34Y34*%
%IPPOS*%
G04 --Define apertures--*
%ADD10C,0.0050*%
%ADD11C,0.0060*%
%ADD12C,0.0079*%
%ADD13C,0.0118*%
%ADD14C,0.0138*%
%ADD15C,0.0059*%
G04 --Start main section--*
G54D11*
G01X0040500Y-023000D02*
G01X0030000Y-023000D01*
G01X0041500Y-036000D02*
G01X0041500Y-024000D01*
G01X0030000Y-037000D02*
G01X0040500Y-037000D01*
G01X0029000Y-024000D02*
G01X0029000Y-036000D01*
G01X0030000Y-023000D02*
G75*
G03X0029000Y-024000I0000000J-001000D01*
G01X0029000Y-036000D02*
G75*
G03X0030000Y-037000I0001000J0000000D01*
G01X0040500Y-037000D02*
G75*
G03X0041500Y-036000I0000000J0001000D01*
G01X0041500Y-024000D02*
G75*
G03X0040500Y-023000I-001000J0000000D01*
G54D12*
G01X0039690Y-024840D02*
G01X0040010Y-025160D01*
G01X0040010Y-024840D02*
G01X0039690Y-025160D01*
G01X0039690Y-025340D02*
G01X0040010Y-025660D01*
G01X0040010Y-025340D02*
G01X0039690Y-025660D01*
G01X0039690Y-025840D02*
G01X0040010Y-026160D01*
G01X0040010Y-025840D02*
G01X0039690Y-026160D01*
G01X0039690Y-026340D02*
G01X0040010Y-026660D01*
G01X0040010Y-026340D02*
G01X0039690Y-026660D01*
G01X0039690Y-026840D02*
G01X0040010Y-027160D01*
G01X0040010Y-026840D02*
G01X0039690Y-027160D01*
G01X0040190Y-024840D02*
G01X0040510Y-025160D01*
G01X0040510Y-024840D02*
G01X0040190Y-025160D01*
G01X0040190Y-025340D02*
G01X0040510Y-025660D01*
G01X0040510Y-025340D02*
G01X0040190Y-025660D01*
G01X0040190Y-025840D02*
G01X0040510Y-026160D01*
G01X0040510Y-025840D02*
G01X0040190Y-026160D01*
G01X0040190Y-026340D02*
G01X0040510Y-026660D01*
G01X0040510Y-026340D02*
G01X0040190Y-026660D01*
G01X0040190Y-026840D02*
G01X0040510Y-027160D01*
G01X0040510Y-026840D02*
G01X0040190Y-027160D01*
G01X0030700Y-025450D02*
G75*
G03X0030700Y-025450I-000200J0000000D01*
G01X0030700Y-026450D02*
G75*
G03X0030700Y-026450I-000200J0000000D01*
G01X0030700Y-027450D02*
G75*
G03X0030700Y-027450I-000200J0000000D01*
G01X0030700Y-028450D02*
G75*
G03X0030700Y-028450I-000200J0000000D01*
G01X0030700Y-029450D02*
G75*
G03X0030700Y-029450I-000200J0000000D01*
G01X0030700Y-030450D02*
G75*
G03X0030700Y-030450I-000200J0000000D01*
G01X0030700Y-031450D02*
G75*
G03X0030700Y-031450I-000200J0000000D01*
G01X0030700Y-032450D02*
G75*
G03X0030700Y-032450I-000200J0000000D01*
G01X0030700Y-033450D02*
G75*
G03X0030700Y-033450I-000200J0000000D01*
G01X0030700Y-034450D02*
G75*
G03X0030700Y-034450I-000200J0000000D01*
G01X0031700Y-025450D02*
G75*
G03X0031700Y-025450I-000200J0000000D01*
G01X0031700Y-026450D02*
G75*
G03X0031700Y-026450I-000200J0000000D01*
G01X0031700Y-027450D02*
G75*
G03X0031700Y-027450I-000200J0000000D01*
G01X0031700Y-028450D02*
G75*
G03X0031700Y-028450I-000200J0000000D01*
G01X0031700Y-029450D02*
G75*
G03X0031700Y-029450I-000200J0000000D01*
G01X0031700Y-030450D02*
G75*
G03X0031700Y-030450I-000200J0000000D01*
G01X0031700Y-031450D02*
G75*
G03X0031700Y-031450I-000200J0000000D01*
G01X0031700Y-032450D02*
G75*
G03X0031700Y-032450I-000200J0000000D01*
G01X0031700Y-033450D02*
G75*
G03X0031700Y-033450I-000200J0000000D01*
G01X0031700Y-034450D02*
G75*
G03X0031700Y-034450I-000200J0000000D01*
G01X0035600Y-025500D02*
G75*
G03X0035600Y-025500I-000200J0000000D01*
G01X0035600Y-026500D02*
G75*
G03X0035600Y-026500I-000200J0000000D01*
G01X0035600Y-027500D02*
G75*
G03X0035600Y-027500I-000200J0000000D01*
G01X0035600Y-028500D02*
G75*
G03X0035600Y-028500I-000200J0000000D01*
G01X0035600Y-029500D02*
G75*
G03X0035600Y-029500I-000200J0000000D01*
G01X0035700Y-035500D02*
G75*
G03X0035700Y-035500I-000200J0000000D01*
G01X0036600Y-025500D02*
G75*
G03X0036600Y-025500I-000200J0000000D01*
G01X0036600Y-026500D02*
G75*
G03X0036600Y-026500I-000200J0000000D01*
G01X0036600Y-027500D02*
G75*
G03X0036600Y-027500I-000200J0000000D01*
G01X0036600Y-028500D02*
G75*
G03X0036600Y-028500I-000200J0000000D01*
G01X0036600Y-029500D02*
G75*
G03X0036600Y-029500I-000200J0000000D01*
G01X0036700Y-035500D02*
G75*
G03X0036700Y-035500I-000200J0000000D01*
G01X0037700Y-035500D02*
G75*
G03X0037700Y-035500I-000200J0000000D01*
G01X0038700Y-035500D02*
G75*
G03X0038700Y-035500I-000200J0000000D01*
G01X0039700Y-035500D02*
G75*
G03X0039700Y-035500I-000200J0000000D01*
G54D13*
G01X0030039Y-038864D02*
G01X0030039Y-037682D01*
G01X0030039Y-037682D02*
G01X0030320Y-037682D01*
G01X0030320Y-037682D02*
G01X0030489Y-037739D01*
G01X0030489Y-037739D02*
G01X0030601Y-037851D01*
G01X0030601Y-037851D02*
G01X0030657Y-037964D01*
G01X0030657Y-037964D02*
G01X0030714Y-038189D01*
G01X0030714Y-038189D02*
G01X0030714Y-038357D01*
G01X0030714Y-038357D02*
G01X0030657Y-038582D01*
G01X0030657Y-038582D02*
G01X0030601Y-038695D01*
G01X0030601Y-038695D02*
G01X0030489Y-038807D01*
G01X0030489Y-038807D02*
G01X0030320Y-038864D01*
G01X0030320Y-038864D02*
G01X0030039Y-038864D01*
G01X0031220Y-038864D02*
G01X0031220Y-038076D01*
G01X0031220Y-038301D02*
G01X0031276Y-038189D01*
G01X0031276Y-038189D02*
G01X0031332Y-038132D01*
G01X0031332Y-038132D02*
G01X0031445Y-038076D01*
G01X0031445Y-038076D02*
G01X0031557Y-038076D01*
G01X0031951Y-038864D02*
G01X0031951Y-038076D01*
G01X0031951Y-037682D02*
G01X0031895Y-037739D01*
G01X0031895Y-037739D02*
G01X0031951Y-037795D01*
G01X0031951Y-037795D02*
G01X0032007Y-037739D01*
G01X0032007Y-037739D02*
G01X0031951Y-037682D01*
G01X0031951Y-037682D02*
G01X0031951Y-037795D01*
G01X0032682Y-038864D02*
G01X0032570Y-038807D01*
G01X0032570Y-038807D02*
G01X0032513Y-038695D01*
G01X0032513Y-038695D02*
G01X0032513Y-037682D01*
G01X0033301Y-038864D02*
G01X0033188Y-038807D01*
G01X0033188Y-038807D02*
G01X0033132Y-038695D01*
G01X0033132Y-038695D02*
G01X0033132Y-037682D01*
G01X0034651Y-038864D02*
G01X0034651Y-037682D01*
G01X0034651Y-037682D02*
G01X0035044Y-038526D01*
G01X0035044Y-038526D02*
G01X0035438Y-037682D01*
G01X0035438Y-037682D02*
G01X0035438Y-038864D01*
G01X0036507Y-038864D02*
G01X0036507Y-038245D01*
G01X0036507Y-038245D02*
G01X0036450Y-038132D01*
G01X0036450Y-038132D02*
G01X0036338Y-038076D01*
G01X0036338Y-038076D02*
G01X0036113Y-038076D01*
G01X0036113Y-038076D02*
G01X0036000Y-038132D01*
G01X0036507Y-038807D02*
G01X0036394Y-038864D01*
G01X0036394Y-038864D02*
G01X0036113Y-038864D01*
G01X0036113Y-038864D02*
G01X0036000Y-038807D01*
G01X0036000Y-038807D02*
G01X0035944Y-038695D01*
G01X0035944Y-038695D02*
G01X0035944Y-038582D01*
G01X0035944Y-038582D02*
G01X0036000Y-038470D01*
G01X0036000Y-038470D02*
G01X0036113Y-038414D01*
G01X0036113Y-038414D02*
G01X0036394Y-038414D01*
G01X0036394Y-038414D02*
G01X0036507Y-038357D01*
G01X0037069Y-038076D02*
G01X0037069Y-039257D01*
G01X0037069Y-038132D02*
G01X0037181Y-038076D01*
G01X0037181Y-038076D02*
G01X0037406Y-038076D01*
G01X0037406Y-038076D02*
G01X0037519Y-038132D01*
G01X0037519Y-038132D02*
G01X0037575Y-038189D01*
G01X0037575Y-038189D02*
G01X0037631Y-038301D01*
G01X0037631Y-038301D02*
G01X0037631Y-038639D01*
G01X0037631Y-038639D02*
G01X0037575Y-038751D01*
G01X0037575Y-038751D02*
G01X0037519Y-038807D01*
G01X0037519Y-038807D02*
G01X0037406Y-038864D01*
G01X0037406Y-038864D02*
G01X0037181Y-038864D01*
G01X0037181Y-038864D02*
G01X0037069Y-038807D01*
G01X0038138Y-038751D02*
G01X0038194Y-038807D01*
G01X0038194Y-038807D02*
G01X0038138Y-038864D01*
G01X0038138Y-038864D02*
G01X0038081Y-038807D01*
G01X0038081Y-038807D02*
G01X0038138Y-038751D01*
G01X0038138Y-038751D02*
G01X0038138Y-038864D01*
G01X0038138Y-038132D02*
G01X0038194Y-038189D01*
G01X0038194Y-038189D02*
G01X0038138Y-038245D01*
G01X0038138Y-038245D02*
G01X0038081Y-038189D01*
G01X0038081Y-038189D02*
G01X0038138Y-038132D01*
G01X0038138Y-038132D02*
G01X0038138Y-038245D01*
G01X0028650Y-040650D02*
G01X0028970Y-040970D01*
G01X0028970Y-040650D02*
G01X0028650Y-040970D01*
G01X0030264Y-040163D02*
G01X0030376Y-040163D01*
G01X0030376Y-040163D02*
G01X0030489Y-040219D01*
G01X0030489Y-040219D02*
G01X0030545Y-040275D01*
G01X0030545Y-040275D02*
G01X0030601Y-040388D01*
G01X0030601Y-040388D02*
G01X0030657Y-040613D01*
G01X0030657Y-040613D02*
G01X0030657Y-040894D01*
G01X0030657Y-040894D02*
G01X0030601Y-041119D01*
G01X0030601Y-041119D02*
G01X0030545Y-041231D01*
G01X0030545Y-041231D02*
G01X0030489Y-041288D01*
G01X0030489Y-041288D02*
G01X0030376Y-041344D01*
G01X0030376Y-041344D02*
G01X0030264Y-041344D01*
G01X0030264Y-041344D02*
G01X0030151Y-041288D01*
G01X0030151Y-041288D02*
G01X0030095Y-041231D01*
G01X0030095Y-041231D02*
G01X0030039Y-041119D01*
G01X0030039Y-041119D02*
G01X0029982Y-040894D01*
G01X0029982Y-040894D02*
G01X0029982Y-040613D01*
G01X0029982Y-040613D02*
G01X0030039Y-040388D01*
G01X0030039Y-040388D02*
G01X0030095Y-040275D01*
G01X0030095Y-040275D02*
G01X0030151Y-040219D01*
G01X0030151Y-040219D02*
G01X0030264Y-040163D01*
G01X0031163Y-041231D02*
G01X0031220Y-041288D01*
G01X0031220Y-041288D02*
G01X0031163Y-041344D01*
G01X0031163Y-041344D02*
G01X0031107Y-041288D01*
G01X0031107Y-041288D02*
G01X0031163Y-041231D01*
G01X0031163Y-041231D02*
G01X0031163Y-041344D01*
G01X0031895Y-040669D02*
G01X0031782Y-040613D01*
G01X0031782Y-040613D02*
G01X0031726Y-040556D01*
G01X0031726Y-040556D02*
G01X0031670Y-040444D01*
G01X0031670Y-040444D02*
G01X0031670Y-040388D01*
G01X0031670Y-040388D02*
G01X0031726Y-040275D01*
G01X0031726Y-040275D02*
G01X0031782Y-040219D01*
G01X0031782Y-040219D02*
G01X0031895Y-040163D01*
G01X0031895Y-040163D02*
G01X0032120Y-040163D01*
G01X0032120Y-040163D02*
G01X0032232Y-040219D01*
G01X0032232Y-040219D02*
G01X0032288Y-040275D01*
G01X0032288Y-040275D02*
G01X0032345Y-040388D01*
G01X0032345Y-040388D02*
G01X0032345Y-040444D01*
G01X0032345Y-040444D02*
G01X0032288Y-040556D01*
G01X0032288Y-040556D02*
G01X0032232Y-040613D01*
G01X0032232Y-040613D02*
G01X0032120Y-040669D01*
G01X0032120Y-040669D02*
G01X0031895Y-040669D01*
G01X0031895Y-040669D02*
G01X0031782Y-040725D01*
G01X0031782Y-040725D02*
G01X0031726Y-040781D01*
G01X0031726Y-040781D02*
G01X0031670Y-040894D01*
G01X0031670Y-040894D02*
G01X0031670Y-041119D01*
G01X0031670Y-041119D02*
G01X0031726Y-041231D01*
G01X0031726Y-041231D02*
G01X0031782Y-041288D01*
G01X0031782Y-041288D02*
G01X0031895Y-041344D01*
G01X0031895Y-041344D02*
G01X0032120Y-041344D01*
G01X0032120Y-041344D02*
G01X0032232Y-041288D01*
G01X0032232Y-041288D02*
G01X0032288Y-041231D01*
G01X0032288Y-041231D02*
G01X0032345Y-041119D01*
G01X0032345Y-041119D02*
G01X0032345Y-040894D01*
G01X0032345Y-040894D02*
G01X0032288Y-040781D01*
G01X0032288Y-040781D02*
G01X0032232Y-040725D01*
G01X0032232Y-040725D02*
G01X0032120Y-040669D01*
G01X0033469Y-041344D02*
G01X0032795Y-041344D01*
G01X0033132Y-041344D02*
G01X0033132Y-040163D01*
G01X0033132Y-040163D02*
G01X0033019Y-040331D01*
G01X0033019Y-040331D02*
G01X0032907Y-040444D01*
G01X0032907Y-040444D02*
G01X0032795Y-040500D01*
G01X0033976Y-041344D02*
G01X0033976Y-040556D01*
G01X0033976Y-040669D02*
G01X0034032Y-040613D01*
G01X0034032Y-040613D02*
G01X0034144Y-040556D01*
G01X0034144Y-040556D02*
G01X0034313Y-040556D01*
G01X0034313Y-040556D02*
G01X0034426Y-040613D01*
G01X0034426Y-040613D02*
G01X0034482Y-040725D01*
G01X0034482Y-040725D02*
G01X0034482Y-041344D01*
G01X0034482Y-040725D02*
G01X0034538Y-040613D01*
G01X0034538Y-040613D02*
G01X0034651Y-040556D01*
G01X0034651Y-040556D02*
G01X0034819Y-040556D01*
G01X0034819Y-040556D02*
G01X0034932Y-040613D01*
G01X0034932Y-040613D02*
G01X0034988Y-040725D01*
G01X0034988Y-040725D02*
G01X0034988Y-041344D01*
G01X0035550Y-041344D02*
G01X0035550Y-040556D01*
G01X0035550Y-040669D02*
G01X0035607Y-040613D01*
G01X0035607Y-040613D02*
G01X0035719Y-040556D01*
G01X0035719Y-040556D02*
G01X0035888Y-040556D01*
G01X0035888Y-040556D02*
G01X0036000Y-040613D01*
G01X0036000Y-040613D02*
G01X0036057Y-040725D01*
G01X0036057Y-040725D02*
G01X0036057Y-041344D01*
G01X0036057Y-040725D02*
G01X0036113Y-040613D01*
G01X0036113Y-040613D02*
G01X0036225Y-040556D01*
G01X0036225Y-040556D02*
G01X0036394Y-040556D01*
G01X0036394Y-040556D02*
G01X0036507Y-040613D01*
G01X0036507Y-040613D02*
G01X0036563Y-040725D01*
G01X0036563Y-040725D02*
G01X0036563Y-041344D01*
G01X0038869Y-040106D02*
G01X0037856Y-041625D01*
G01X0040387Y-040163D02*
G01X0040500Y-040163D01*
G01X0040500Y-040163D02*
G01X0040612Y-040219D01*
G01X0040612Y-040219D02*
G01X0040669Y-040275D01*
G01X0040669Y-040275D02*
G01X0040725Y-040388D01*
G01X0040725Y-040388D02*
G01X0040781Y-040613D01*
G01X0040781Y-040613D02*
G01X0040781Y-040894D01*
G01X0040781Y-040894D02*
G01X0040725Y-041119D01*
G01X0040725Y-041119D02*
G01X0040669Y-041231D01*
G01X0040669Y-041231D02*
G01X0040612Y-041288D01*
G01X0040612Y-041288D02*
G01X0040500Y-041344D01*
G01X0040500Y-041344D02*
G01X0040387Y-041344D01*
G01X0040387Y-041344D02*
G01X0040275Y-041288D01*
G01X0040275Y-041288D02*
G01X0040219Y-041231D01*
G01X0040219Y-041231D02*
G01X0040162Y-041119D01*
G01X0040162Y-041119D02*
G01X0040106Y-040894D01*
G01X0040106Y-040894D02*
G01X0040106Y-040613D01*
G01X0040106Y-040613D02*
G01X0040162Y-040388D01*
G01X0040162Y-040388D02*
G01X0040219Y-040275D01*
G01X0040219Y-040275D02*
G01X0040275Y-040219D01*
G01X0040275Y-040219D02*
G01X0040387Y-040163D01*
G01X0041287Y-041231D02*
G01X0041343Y-041288D01*
G01X0041343Y-041288D02*
G01X0041287Y-041344D01*
G01X0041287Y-041344D02*
G01X0041231Y-041288D01*
G01X0041231Y-041288D02*
G01X0041287Y-041231D01*
G01X0041287Y-041231D02*
G01X0041287Y-041344D01*
G01X0042075Y-040163D02*
G01X0042187Y-040163D01*
G01X0042187Y-040163D02*
G01X0042300Y-040219D01*
G01X0042300Y-040219D02*
G01X0042356Y-040275D01*
G01X0042356Y-040275D02*
G01X0042412Y-040388D01*
G01X0042412Y-040388D02*
G01X0042468Y-040613D01*
G01X0042468Y-040613D02*
G01X0042468Y-040894D01*
G01X0042468Y-040894D02*
G01X0042412Y-041119D01*
G01X0042412Y-041119D02*
G01X0042356Y-041231D01*
G01X0042356Y-041231D02*
G01X0042300Y-041288D01*
G01X0042300Y-041288D02*
G01X0042187Y-041344D01*
G01X0042187Y-041344D02*
G01X0042075Y-041344D01*
G01X0042075Y-041344D02*
G01X0041962Y-041288D01*
G01X0041962Y-041288D02*
G01X0041906Y-041231D01*
G01X0041906Y-041231D02*
G01X0041850Y-041119D01*
G01X0041850Y-041119D02*
G01X0041793Y-040894D01*
G01X0041793Y-040894D02*
G01X0041793Y-040613D01*
G01X0041793Y-040613D02*
G01X0041850Y-040388D01*
G01X0041850Y-040388D02*
G01X0041906Y-040275D01*
G01X0041906Y-040275D02*
G01X0041962Y-040219D01*
G01X0041962Y-040219D02*
G01X0042075Y-040163D01*
G01X0042862Y-040163D02*
G01X0043593Y-040163D01*
G01X0043593Y-040163D02*
G01X0043199Y-040613D01*
G01X0043199Y-040613D02*
G01X0043368Y-040613D01*
G01X0043368Y-040613D02*
G01X0043481Y-040669D01*
G01X0043481Y-040669D02*
G01X0043537Y-040725D01*
G01X0043537Y-040725D02*
G01X0043593Y-040838D01*
G01X0043593Y-040838D02*
G01X0043593Y-041119D01*
G01X0043593Y-041119D02*
G01X0043537Y-041231D01*
G01X0043537Y-041231D02*
G01X0043481Y-041288D01*
G01X0043481Y-041288D02*
G01X0043368Y-041344D01*
G01X0043368Y-041344D02*
G01X0043031Y-041344D01*
G01X0043031Y-041344D02*
G01X0042918Y-041288D01*
G01X0042918Y-041288D02*
G01X0042862Y-041231D01*
G01X0044043Y-040275D02*
G01X0044099Y-040219D01*
G01X0044099Y-040219D02*
G01X0044212Y-040163D01*
G01X0044212Y-040163D02*
G01X0044493Y-040163D01*
G01X0044493Y-040163D02*
G01X0044606Y-040219D01*
G01X0044606Y-040219D02*
G01X0044662Y-040275D01*
G01X0044662Y-040275D02*
G01X0044718Y-040388D01*
G01X0044718Y-040388D02*
G01X0044718Y-040500D01*
G01X0044718Y-040500D02*
G01X0044662Y-040669D01*
G01X0044662Y-040669D02*
G01X0043987Y-041344D01*
G01X0043987Y-041344D02*
G01X0044718Y-041344D01*
G01X0045168Y-040163D02*
G01X0045168Y-040388D01*
G01X0045618Y-040163D02*
G01X0045618Y-040388D01*
G01X0047361Y-041794D02*
G01X0047305Y-041738D01*
G01X0047305Y-041738D02*
G01X0047193Y-041569D01*
G01X0047193Y-041569D02*
G01X0047136Y-041456D01*
G01X0047136Y-041456D02*
G01X0047080Y-041288D01*
G01X0047080Y-041288D02*
G01X0047024Y-041006D01*
G01X0047024Y-041006D02*
G01X0047024Y-040781D01*
G01X0047024Y-040781D02*
G01X0047080Y-040500D01*
G01X0047080Y-040500D02*
G01X0047136Y-040331D01*
G01X0047136Y-040331D02*
G01X0047193Y-040219D01*
G01X0047193Y-040219D02*
G01X0047305Y-040050D01*
G01X0047305Y-040050D02*
G01X0047361Y-039994D01*
G01X0048430Y-041344D02*
G01X0047755Y-041344D01*
G01X0048093Y-041344D02*
G01X0048093Y-040163D01*
G01X0048093Y-040163D02*
G01X0047980Y-040331D01*
G01X0047980Y-040331D02*
G01X0047868Y-040444D01*
G01X0047868Y-040444D02*
G01X0047755Y-040500D01*
G01X0049161Y-040163D02*
G01X0049274Y-040163D01*
G01X0049274Y-040163D02*
G01X0049386Y-040219D01*
G01X0049386Y-040219D02*
G01X0049442Y-040275D01*
G01X0049442Y-040275D02*
G01X0049499Y-040388D01*
G01X0049499Y-040388D02*
G01X0049555Y-040613D01*
G01X0049555Y-040613D02*
G01X0049555Y-040894D01*
G01X0049555Y-040894D02*
G01X0049499Y-041119D01*
G01X0049499Y-041119D02*
G01X0049442Y-041231D01*
G01X0049442Y-041231D02*
G01X0049386Y-041288D01*
G01X0049386Y-041288D02*
G01X0049274Y-041344D01*
G01X0049274Y-041344D02*
G01X0049161Y-041344D01*
G01X0049161Y-041344D02*
G01X0049049Y-041288D01*
G01X0049049Y-041288D02*
G01X0048992Y-041231D01*
G01X0048992Y-041231D02*
G01X0048936Y-041119D01*
G01X0048936Y-041119D02*
G01X0048880Y-040894D01*
G01X0048880Y-040894D02*
G01X0048880Y-040613D01*
G01X0048880Y-040613D02*
G01X0048936Y-040388D01*
G01X0048936Y-040388D02*
G01X0048992Y-040275D01*
G01X0048992Y-040275D02*
G01X0049049Y-040219D01*
G01X0049049Y-040219D02*
G01X0049161Y-040163D01*
G01X0050961Y-041344D02*
G01X0050961Y-040163D01*
G01X0051467Y-041344D02*
G01X0051467Y-040725D01*
G01X0051467Y-040725D02*
G01X0051411Y-040613D01*
G01X0051411Y-040613D02*
G01X0051298Y-040556D01*
G01X0051298Y-040556D02*
G01X0051130Y-040556D01*
G01X0051130Y-040556D02*
G01X0051017Y-040613D01*
G01X0051017Y-040613D02*
G01X0050961Y-040669D01*
G01X0052198Y-041344D02*
G01X0052086Y-041288D01*
G01X0052086Y-041288D02*
G01X0052030Y-041231D01*
G01X0052030Y-041231D02*
G01X0051973Y-041119D01*
G01X0051973Y-041119D02*
G01X0051973Y-040781D01*
G01X0051973Y-040781D02*
G01X0052030Y-040669D01*
G01X0052030Y-040669D02*
G01X0052086Y-040613D01*
G01X0052086Y-040613D02*
G01X0052198Y-040556D01*
G01X0052198Y-040556D02*
G01X0052367Y-040556D01*
G01X0052367Y-040556D02*
G01X0052480Y-040613D01*
G01X0052480Y-040613D02*
G01X0052536Y-040669D01*
G01X0052536Y-040669D02*
G01X0052592Y-040781D01*
G01X0052592Y-040781D02*
G01X0052592Y-041119D01*
G01X0052592Y-041119D02*
G01X0052536Y-041231D01*
G01X0052536Y-041231D02*
G01X0052480Y-041288D01*
G01X0052480Y-041288D02*
G01X0052367Y-041344D01*
G01X0052367Y-041344D02*
G01X0052198Y-041344D01*
G01X0053267Y-041344D02*
G01X0053154Y-041288D01*
G01X0053154Y-041288D02*
G01X0053098Y-041175D01*
G01X0053098Y-041175D02*
G01X0053098Y-040163D01*
G01X0054167Y-041288D02*
G01X0054054Y-041344D01*
G01X0054054Y-041344D02*
G01X0053829Y-041344D01*
G01X0053829Y-041344D02*
G01X0053717Y-041288D01*
G01X0053717Y-041288D02*
G01X0053661Y-041175D01*
G01X0053661Y-041175D02*
G01X0053661Y-040725D01*
G01X0053661Y-040725D02*
G01X0053717Y-040613D01*
G01X0053717Y-040613D02*
G01X0053829Y-040556D01*
G01X0053829Y-040556D02*
G01X0054054Y-040556D01*
G01X0054054Y-040556D02*
G01X0054167Y-040613D01*
G01X0054167Y-040613D02*
G01X0054223Y-040725D01*
G01X0054223Y-040725D02*
G01X0054223Y-040838D01*
G01X0054223Y-040838D02*
G01X0053661Y-040950D01*
G01X0054673Y-041288D02*
G01X0054786Y-041344D01*
G01X0054786Y-041344D02*
G01X0055010Y-041344D01*
G01X0055010Y-041344D02*
G01X0055123Y-041288D01*
G01X0055123Y-041288D02*
G01X0055179Y-041175D01*
G01X0055179Y-041175D02*
G01X0055179Y-041119D01*
G01X0055179Y-041119D02*
G01X0055123Y-041006D01*
G01X0055123Y-041006D02*
G01X0055010Y-040950D01*
G01X0055010Y-040950D02*
G01X0054842Y-040950D01*
G01X0054842Y-040950D02*
G01X0054729Y-040894D01*
G01X0054729Y-040894D02*
G01X0054673Y-040781D01*
G01X0054673Y-040781D02*
G01X0054673Y-040725D01*
G01X0054673Y-040725D02*
G01X0054729Y-040613D01*
G01X0054729Y-040613D02*
G01X0054842Y-040556D01*
G01X0054842Y-040556D02*
G01X0055010Y-040556D01*
G01X0055010Y-040556D02*
G01X0055123Y-040613D01*
G01X0055573Y-041794D02*
G01X0055629Y-041738D01*
G01X0055629Y-041738D02*
G01X0055742Y-041569D01*
G01X0055742Y-041569D02*
G01X0055798Y-041456D01*
G01X0055798Y-041456D02*
G01X0055854Y-041288D01*
G01X0055854Y-041288D02*
G01X0055910Y-041006D01*
G01X0055910Y-041006D02*
G01X0055910Y-040781D01*
G01X0055910Y-040781D02*
G01X0055854Y-040500D01*
G01X0055854Y-040500D02*
G01X0055798Y-040331D01*
G01X0055798Y-040331D02*
G01X0055742Y-040219D01*
G01X0055742Y-040219D02*
G01X0055629Y-040050D01*
G01X0055629Y-040050D02*
G01X0055573Y-039994D01*
G01X0028970Y-042369D02*
G75*
G03X0028970Y-042369I-000200J0000000D01*
G01X0030657Y-042903D02*
G01X0029982Y-042903D01*
G01X0030320Y-042903D02*
G01X0030320Y-041722D01*
G01X0030320Y-041722D02*
G01X0030207Y-041891D01*
G01X0030207Y-041891D02*
G01X0030095Y-042003D01*
G01X0030095Y-042003D02*
G01X0029982Y-042059D01*
G01X0031163Y-042790D02*
G01X0031220Y-042847D01*
G01X0031220Y-042847D02*
G01X0031163Y-042903D01*
G01X0031163Y-042903D02*
G01X0031107Y-042847D01*
G01X0031107Y-042847D02*
G01X0031163Y-042790D01*
G01X0031163Y-042790D02*
G01X0031163Y-042903D01*
G01X0031951Y-041722D02*
G01X0032063Y-041722D01*
G01X0032063Y-041722D02*
G01X0032176Y-041778D01*
G01X0032176Y-041778D02*
G01X0032232Y-041834D01*
G01X0032232Y-041834D02*
G01X0032288Y-041947D01*
G01X0032288Y-041947D02*
G01X0032345Y-042172D01*
G01X0032345Y-042172D02*
G01X0032345Y-042453D01*
G01X0032345Y-042453D02*
G01X0032288Y-042678D01*
G01X0032288Y-042678D02*
G01X0032232Y-042790D01*
G01X0032232Y-042790D02*
G01X0032176Y-042847D01*
G01X0032176Y-042847D02*
G01X0032063Y-042903D01*
G01X0032063Y-042903D02*
G01X0031951Y-042903D01*
G01X0031951Y-042903D02*
G01X0031838Y-042847D01*
G01X0031838Y-042847D02*
G01X0031782Y-042790D01*
G01X0031782Y-042790D02*
G01X0031726Y-042678D01*
G01X0031726Y-042678D02*
G01X0031670Y-042453D01*
G01X0031670Y-042453D02*
G01X0031670Y-042172D01*
G01X0031670Y-042172D02*
G01X0031726Y-041947D01*
G01X0031726Y-041947D02*
G01X0031782Y-041834D01*
G01X0031782Y-041834D02*
G01X0031838Y-041778D01*
G01X0031838Y-041778D02*
G01X0031951Y-041722D01*
G01X0032795Y-041834D02*
G01X0032851Y-041778D01*
G01X0032851Y-041778D02*
G01X0032963Y-041722D01*
G01X0032963Y-041722D02*
G01X0033244Y-041722D01*
G01X0033244Y-041722D02*
G01X0033357Y-041778D01*
G01X0033357Y-041778D02*
G01X0033413Y-041834D01*
G01X0033413Y-041834D02*
G01X0033469Y-041947D01*
G01X0033469Y-041947D02*
G01X0033469Y-042059D01*
G01X0033469Y-042059D02*
G01X0033413Y-042228D01*
G01X0033413Y-042228D02*
G01X0032738Y-042903D01*
G01X0032738Y-042903D02*
G01X0033469Y-042903D01*
G01X0033976Y-042903D02*
G01X0033976Y-042115D01*
G01X0033976Y-042228D02*
G01X0034032Y-042172D01*
G01X0034032Y-042172D02*
G01X0034144Y-042115D01*
G01X0034144Y-042115D02*
G01X0034313Y-042115D01*
G01X0034313Y-042115D02*
G01X0034426Y-042172D01*
G01X0034426Y-042172D02*
G01X0034482Y-042284D01*
G01X0034482Y-042284D02*
G01X0034482Y-042903D01*
G01X0034482Y-042284D02*
G01X0034538Y-042172D01*
G01X0034538Y-042172D02*
G01X0034651Y-042115D01*
G01X0034651Y-042115D02*
G01X0034819Y-042115D01*
G01X0034819Y-042115D02*
G01X0034932Y-042172D01*
G01X0034932Y-042172D02*
G01X0034988Y-042284D01*
G01X0034988Y-042284D02*
G01X0034988Y-042903D01*
G01X0035550Y-042903D02*
G01X0035550Y-042115D01*
G01X0035550Y-042228D02*
G01X0035607Y-042172D01*
G01X0035607Y-042172D02*
G01X0035719Y-042115D01*
G01X0035719Y-042115D02*
G01X0035888Y-042115D01*
G01X0035888Y-042115D02*
G01X0036000Y-042172D01*
G01X0036000Y-042172D02*
G01X0036057Y-042284D01*
G01X0036057Y-042284D02*
G01X0036057Y-042903D01*
G01X0036057Y-042284D02*
G01X0036113Y-042172D01*
G01X0036113Y-042172D02*
G01X0036225Y-042115D01*
G01X0036225Y-042115D02*
G01X0036394Y-042115D01*
G01X0036394Y-042115D02*
G01X0036507Y-042172D01*
G01X0036507Y-042172D02*
G01X0036563Y-042284D01*
G01X0036563Y-042284D02*
G01X0036563Y-042903D01*
G01X0038869Y-041666D02*
G01X0037856Y-043184D01*
G01X0040387Y-041722D02*
G01X0040500Y-041722D01*
G01X0040500Y-041722D02*
G01X0040612Y-041778D01*
G01X0040612Y-041778D02*
G01X0040669Y-041834D01*
G01X0040669Y-041834D02*
G01X0040725Y-041947D01*
G01X0040725Y-041947D02*
G01X0040781Y-042172D01*
G01X0040781Y-042172D02*
G01X0040781Y-042453D01*
G01X0040781Y-042453D02*
G01X0040725Y-042678D01*
G01X0040725Y-042678D02*
G01X0040669Y-042790D01*
G01X0040669Y-042790D02*
G01X0040612Y-042847D01*
G01X0040612Y-042847D02*
G01X0040500Y-042903D01*
G01X0040500Y-042903D02*
G01X0040387Y-042903D01*
G01X0040387Y-042903D02*
G01X0040275Y-042847D01*
G01X0040275Y-042847D02*
G01X0040219Y-042790D01*
G01X0040219Y-042790D02*
G01X0040162Y-042678D01*
G01X0040162Y-042678D02*
G01X0040106Y-042453D01*
G01X0040106Y-042453D02*
G01X0040106Y-042172D01*
G01X0040106Y-042172D02*
G01X0040162Y-041947D01*
G01X0040162Y-041947D02*
G01X0040219Y-041834D01*
G01X0040219Y-041834D02*
G01X0040275Y-041778D01*
G01X0040275Y-041778D02*
G01X0040387Y-041722D01*
G01X0041287Y-042790D02*
G01X0041343Y-042847D01*
G01X0041343Y-042847D02*
G01X0041287Y-042903D01*
G01X0041287Y-042903D02*
G01X0041231Y-042847D01*
G01X0041231Y-042847D02*
G01X0041287Y-042790D01*
G01X0041287Y-042790D02*
G01X0041287Y-042903D01*
G01X0042075Y-041722D02*
G01X0042187Y-041722D01*
G01X0042187Y-041722D02*
G01X0042300Y-041778D01*
G01X0042300Y-041778D02*
G01X0042356Y-041834D01*
G01X0042356Y-041834D02*
G01X0042412Y-041947D01*
G01X0042412Y-041947D02*
G01X0042468Y-042172D01*
G01X0042468Y-042172D02*
G01X0042468Y-042453D01*
G01X0042468Y-042453D02*
G01X0042412Y-042678D01*
G01X0042412Y-042678D02*
G01X0042356Y-042790D01*
G01X0042356Y-042790D02*
G01X0042300Y-042847D01*
G01X0042300Y-042847D02*
G01X0042187Y-042903D01*
G01X0042187Y-042903D02*
G01X0042075Y-042903D01*
G01X0042075Y-042903D02*
G01X0041962Y-042847D01*
G01X0041962Y-042847D02*
G01X0041906Y-042790D01*
G01X0041906Y-042790D02*
G01X0041850Y-042678D01*
G01X0041850Y-042678D02*
G01X0041793Y-042453D01*
G01X0041793Y-042453D02*
G01X0041793Y-042172D01*
G01X0041793Y-042172D02*
G01X0041850Y-041947D01*
G01X0041850Y-041947D02*
G01X0041906Y-041834D01*
G01X0041906Y-041834D02*
G01X0041962Y-041778D01*
G01X0041962Y-041778D02*
G01X0042075Y-041722D01*
G01X0043481Y-042115D02*
G01X0043481Y-042903D01*
G01X0043199Y-041666D02*
G01X0042918Y-042509D01*
G01X0042918Y-042509D02*
G01X0043649Y-042509D01*
G01X0044324Y-041722D02*
G01X0044437Y-041722D01*
G01X0044437Y-041722D02*
G01X0044549Y-041778D01*
G01X0044549Y-041778D02*
G01X0044606Y-041834D01*
G01X0044606Y-041834D02*
G01X0044662Y-041947D01*
G01X0044662Y-041947D02*
G01X0044718Y-042172D01*
G01X0044718Y-042172D02*
G01X0044718Y-042453D01*
G01X0044718Y-042453D02*
G01X0044662Y-042678D01*
G01X0044662Y-042678D02*
G01X0044606Y-042790D01*
G01X0044606Y-042790D02*
G01X0044549Y-042847D01*
G01X0044549Y-042847D02*
G01X0044437Y-042903D01*
G01X0044437Y-042903D02*
G01X0044324Y-042903D01*
G01X0044324Y-042903D02*
G01X0044212Y-042847D01*
G01X0044212Y-042847D02*
G01X0044156Y-042790D01*
G01X0044156Y-042790D02*
G01X0044099Y-042678D01*
G01X0044099Y-042678D02*
G01X0044043Y-042453D01*
G01X0044043Y-042453D02*
G01X0044043Y-042172D01*
G01X0044043Y-042172D02*
G01X0044099Y-041947D01*
G01X0044099Y-041947D02*
G01X0044156Y-041834D01*
G01X0044156Y-041834D02*
G01X0044212Y-041778D01*
G01X0044212Y-041778D02*
G01X0044324Y-041722D01*
G01X0045168Y-041722D02*
G01X0045168Y-041947D01*
G01X0045618Y-041722D02*
G01X0045618Y-041947D01*
G01X0047361Y-043353D02*
G01X0047305Y-043297D01*
G01X0047305Y-043297D02*
G01X0047193Y-043128D01*
G01X0047193Y-043128D02*
G01X0047136Y-043015D01*
G01X0047136Y-043015D02*
G01X0047080Y-042847D01*
G01X0047080Y-042847D02*
G01X0047024Y-042565D01*
G01X0047024Y-042565D02*
G01X0047024Y-042340D01*
G01X0047024Y-042340D02*
G01X0047080Y-042059D01*
G01X0047080Y-042059D02*
G01X0047136Y-041891D01*
G01X0047136Y-041891D02*
G01X0047193Y-041778D01*
G01X0047193Y-041778D02*
G01X0047305Y-041609D01*
G01X0047305Y-041609D02*
G01X0047361Y-041553D01*
G01X0047699Y-041722D02*
G01X0048430Y-041722D01*
G01X0048430Y-041722D02*
G01X0048036Y-042172D01*
G01X0048036Y-042172D02*
G01X0048205Y-042172D01*
G01X0048205Y-042172D02*
G01X0048318Y-042228D01*
G01X0048318Y-042228D02*
G01X0048374Y-042284D01*
G01X0048374Y-042284D02*
G01X0048430Y-042397D01*
G01X0048430Y-042397D02*
G01X0048430Y-042678D01*
G01X0048430Y-042678D02*
G01X0048374Y-042790D01*
G01X0048374Y-042790D02*
G01X0048318Y-042847D01*
G01X0048318Y-042847D02*
G01X0048205Y-042903D01*
G01X0048205Y-042903D02*
G01X0047868Y-042903D01*
G01X0047868Y-042903D02*
G01X0047755Y-042847D01*
G01X0047755Y-042847D02*
G01X0047699Y-042790D01*
G01X0049499Y-041722D02*
G01X0048936Y-041722D01*
G01X0048936Y-041722D02*
G01X0048880Y-042284D01*
G01X0048880Y-042284D02*
G01X0048936Y-042228D01*
G01X0048936Y-042228D02*
G01X0049049Y-042172D01*
G01X0049049Y-042172D02*
G01X0049330Y-042172D01*
G01X0049330Y-042172D02*
G01X0049442Y-042228D01*
G01X0049442Y-042228D02*
G01X0049499Y-042284D01*
G01X0049499Y-042284D02*
G01X0049555Y-042397D01*
G01X0049555Y-042397D02*
G01X0049555Y-042678D01*
G01X0049555Y-042678D02*
G01X0049499Y-042790D01*
G01X0049499Y-042790D02*
G01X0049442Y-042847D01*
G01X0049442Y-042847D02*
G01X0049330Y-042903D01*
G01X0049330Y-042903D02*
G01X0049049Y-042903D01*
G01X0049049Y-042903D02*
G01X0048936Y-042847D01*
G01X0048936Y-042847D02*
G01X0048880Y-042790D01*
G01X0050961Y-042903D02*
G01X0050961Y-041722D01*
G01X0051467Y-042903D02*
G01X0051467Y-042284D01*
G01X0051467Y-042284D02*
G01X0051411Y-042172D01*
G01X0051411Y-042172D02*
G01X0051298Y-042115D01*
G01X0051298Y-042115D02*
G01X0051130Y-042115D01*
G01X0051130Y-042115D02*
G01X0051017Y-042172D01*
G01X0051017Y-042172D02*
G01X0050961Y-042228D01*
G01X0052198Y-042903D02*
G01X0052086Y-042847D01*
G01X0052086Y-042847D02*
G01X0052030Y-042790D01*
G01X0052030Y-042790D02*
G01X0051973Y-042678D01*
G01X0051973Y-042678D02*
G01X0051973Y-042340D01*
G01X0051973Y-042340D02*
G01X0052030Y-042228D01*
G01X0052030Y-042228D02*
G01X0052086Y-042172D01*
G01X0052086Y-042172D02*
G01X0052198Y-042115D01*
G01X0052198Y-042115D02*
G01X0052367Y-042115D01*
G01X0052367Y-042115D02*
G01X0052480Y-042172D01*
G01X0052480Y-042172D02*
G01X0052536Y-042228D01*
G01X0052536Y-042228D02*
G01X0052592Y-042340D01*
G01X0052592Y-042340D02*
G01X0052592Y-042678D01*
G01X0052592Y-042678D02*
G01X0052536Y-042790D01*
G01X0052536Y-042790D02*
G01X0052480Y-042847D01*
G01X0052480Y-042847D02*
G01X0052367Y-042903D01*
G01X0052367Y-042903D02*
G01X0052198Y-042903D01*
G01X0053267Y-042903D02*
G01X0053154Y-042847D01*
G01X0053154Y-042847D02*
G01X0053098Y-042734D01*
G01X0053098Y-042734D02*
G01X0053098Y-041722D01*
G01X0054167Y-042847D02*
G01X0054054Y-042903D01*
G01X0054054Y-042903D02*
G01X0053829Y-042903D01*
G01X0053829Y-042903D02*
G01X0053717Y-042847D01*
G01X0053717Y-042847D02*
G01X0053661Y-042734D01*
G01X0053661Y-042734D02*
G01X0053661Y-042284D01*
G01X0053661Y-042284D02*
G01X0053717Y-042172D01*
G01X0053717Y-042172D02*
G01X0053829Y-042115D01*
G01X0053829Y-042115D02*
G01X0054054Y-042115D01*
G01X0054054Y-042115D02*
G01X0054167Y-042172D01*
G01X0054167Y-042172D02*
G01X0054223Y-042284D01*
G01X0054223Y-042284D02*
G01X0054223Y-042397D01*
G01X0054223Y-042397D02*
G01X0053661Y-042509D01*
G01X0054673Y-042847D02*
G01X0054786Y-042903D01*
G01X0054786Y-042903D02*
G01X0055010Y-042903D01*
G01X0055010Y-042903D02*
G01X0055123Y-042847D01*
G01X0055123Y-042847D02*
G01X0055179Y-042734D01*
G01X0055179Y-042734D02*
G01X0055179Y-042678D01*
G01X0055179Y-042678D02*
G01X0055123Y-042565D01*
G01X0055123Y-042565D02*
G01X0055010Y-042509D01*
G01X0055010Y-042509D02*
G01X0054842Y-042509D01*
G01X0054842Y-042509D02*
G01X0054729Y-042453D01*
G01X0054729Y-042453D02*
G01X0054673Y-042340D01*
G01X0054673Y-042340D02*
G01X0054673Y-042284D01*
G01X0054673Y-042284D02*
G01X0054729Y-042172D01*
G01X0054729Y-042172D02*
G01X0054842Y-042115D01*
G01X0054842Y-042115D02*
G01X0055010Y-042115D01*
G01X0055010Y-042115D02*
G01X0055123Y-042172D01*
G01X0055573Y-043353D02*
G01X0055629Y-043297D01*
G01X0055629Y-043297D02*
G01X0055742Y-043128D01*
G01X0055742Y-043128D02*
G01X0055798Y-043015D01*
G01X0055798Y-043015D02*
G01X0055854Y-042847D01*
G01X0055854Y-042847D02*
G01X0055910Y-042565D01*
G01X0055910Y-042565D02*
G01X0055910Y-042340D01*
G01X0055910Y-042340D02*
G01X0055854Y-042059D01*
G01X0055854Y-042059D02*
G01X0055798Y-041891D01*
G01X0055798Y-041891D02*
G01X0055742Y-041778D01*
G01X0055742Y-041778D02*
G01X0055629Y-041609D01*
G01X0055629Y-041609D02*
G01X0055573Y-041553D01*
G01X0000000Y0000000D02*
G54D11*
G01X0040500Y-023000D02*
G01X0030000Y-023000D01*
G01X0041500Y-036000D02*
G01X0041500Y-024000D01*
G01X0030000Y-037000D02*
G01X0040500Y-037000D01*
G01X0029000Y-024000D02*
G01X0029000Y-036000D01*
G01X0030000Y-023000D02*
G75*
G03X0029000Y-024000I0000000J-001000D01*
G01X0029000Y-036000D02*
G75*
G03X0030000Y-037000I0001000J0000000D01*
G01X0040500Y-037000D02*
G75*
G03X0041500Y-036000I0000000J0001000D01*
G01X0041500Y-024000D02*
G75*
G03X0040500Y-023000I-001000J0000000D01*
G01X0000000Y0000000D02*
G54D15*
G01X0046700Y-030300D02*
G75*
G03X0046700Y-030300I-000500J0000000D01*
G01X0045050Y-031100D02*
G01X0045050Y-029500D01*
G01X0047350Y-031100D02*
G01X0045050Y-031100D01*
G01X0047350Y-029500D02*
G01X0047350Y-031100D01*
G01X0045050Y-029500D02*
G01X0047350Y-029500D01*
G01X0047450Y-037000D02*
G01X0041200Y-037000D01*
G01X0068250Y-040250D02*
G01X0068250Y-037250D01*
G01X0070250Y-040250D02*
G01X0068250Y-040250D01*
G01X0070250Y-037250D02*
G01X0070250Y-040250D01*
G01X0068250Y-037250D02*
G01X0070250Y-037250D01*
G01X0042950Y-048500D02*
G01X0042950Y-045000D01*
G01X0048200Y-048500D02*
G01X0042950Y-048500D01*
G01X0048200Y-045000D02*
G01X0048200Y-048500D01*
G01X0042950Y-045000D02*
G01X0048200Y-045000D01*
G01X0041200Y-037000D02*
G01X0041200Y-032500D01*
G01X0047450Y-032500D02*
G01X0047450Y-037000D01*
G01X0041200Y-032500D02*
G01X0047450Y-032500D01*
M02*
