%TF.GenerationSoftware,KiCad,Pcbnew,4.0.4+e1-6308~48~ubuntu16.04.1-stable*%
%TF.CreationDate,2016-12-05T15:11:49-08:00*%
%TF.ProjectId,mma7660-sensor-breakout,6D6D61373636302D73656E736F722D62,v1.0*%
%TF.FileFunction,Copper,L1,Top,Signal*%
%FSLAX46Y46*%
G04 Gerber Fmt 4.6, Leading zero omitted, Abs format (unit mm)*
G04 Created by KiCad (PCBNEW 4.0.4+e1-6308~48~ubuntu16.04.1-stable) date Mon Dec  5 15:11:49 2016*
%MOMM*%
%LPD*%
G01*
G04 APERTURE LIST*
%ADD10C,0.350000*%
%ADD11R,1.250000X1.000000*%
%ADD12R,1.727200X2.032000*%
%ADD13O,1.727200X2.032000*%
%ADD14R,0.650000X0.300000*%
%ADD15R,0.775000X1.240000*%
%ADD16C,0.762000*%
%ADD17C,0.685800*%
%ADD18C,0.330200*%
%ADD19C,0.152400*%
%ADD20C,0.508000*%
%ADD21C,0.254000*%
%ADD22C,0.350000*%
%ADD23C,0.330200*%
G04 APERTURE END LIST*
D10*
D11*
X152908000Y-106801000D03*
X152908000Y-104801000D03*
X142510000Y-106918000D03*
X142510000Y-104918000D03*
D12*
X142748000Y-113284000D03*
D13*
X145288000Y-113284000D03*
X147828000Y-113284000D03*
X150368000Y-113284000D03*
X152908000Y-113284000D03*
D14*
X146558000Y-106204000D03*
X146558000Y-106704000D03*
X146558000Y-107204000D03*
X146558000Y-107704000D03*
X146558000Y-108204000D03*
X149658000Y-108204000D03*
X149658000Y-107704000D03*
X149658000Y-107204000D03*
X149658000Y-106704000D03*
X149658000Y-106204000D03*
D15*
X148495500Y-107824000D03*
X148495500Y-106584000D03*
X147720500Y-107824000D03*
X147720500Y-106584000D03*
D16*
X151384000Y-106680000D03*
D17*
X145526000Y-106918000D03*
X151892000Y-108204000D03*
D16*
X143764000Y-105156000D03*
D17*
X146304000Y-105156000D03*
X145288000Y-108204000D03*
X150876000Y-108458000D03*
D18*
X151739000Y-104801000D02*
X151384000Y-105156000D01*
D19*
X146558000Y-107204000D02*
X145812000Y-107204000D01*
X145812000Y-107204000D02*
X145526000Y-106918000D01*
D18*
X150845185Y-106680000D02*
X151384000Y-106680000D01*
X150821185Y-106704000D02*
X150845185Y-106680000D01*
X150344000Y-106704000D02*
X150821185Y-106704000D01*
D19*
X149658000Y-106704000D02*
X150344000Y-106704000D01*
D20*
X152908000Y-106801000D02*
X151505000Y-106801000D01*
X151505000Y-106801000D02*
X151384000Y-106680000D01*
X144655000Y-106918000D02*
X145526000Y-106918000D01*
X142748000Y-108825000D02*
X143764000Y-107809000D01*
X143764000Y-107809000D02*
X144655000Y-106918000D01*
X142510000Y-106918000D02*
X142635000Y-106918000D01*
X142635000Y-106918000D02*
X143643000Y-107926000D01*
X143643000Y-107926000D02*
X143647000Y-107926000D01*
X143647000Y-107926000D02*
X143764000Y-107809000D01*
X142748000Y-113284000D02*
X142748000Y-108825000D01*
D18*
X152908000Y-104801000D02*
X151993600Y-104801000D01*
D19*
X146304000Y-105156000D02*
X151638600Y-105156000D01*
X151638600Y-105156000D02*
X151993600Y-104801000D01*
X146304000Y-105156000D02*
X143764000Y-105156000D01*
X152908000Y-113284000D02*
X152908000Y-109220000D01*
X152908000Y-109220000D02*
X151892000Y-108204000D01*
X150892000Y-107204000D02*
X151892000Y-108204000D01*
X149658000Y-107204000D02*
X150892000Y-107204000D01*
X146558000Y-106204000D02*
X146558000Y-105410000D01*
X146558000Y-105410000D02*
X146304000Y-105156000D01*
X150336000Y-106204000D02*
X150876000Y-105664000D01*
X149658000Y-106204000D02*
X150336000Y-106204000D01*
X149658000Y-106204000D02*
X149658000Y-105901600D01*
X149658000Y-105901600D02*
X149420400Y-105664000D01*
D18*
X142510000Y-104918000D02*
X143526000Y-104918000D01*
X143526000Y-104918000D02*
X143764000Y-105156000D01*
D19*
X145796000Y-106172000D02*
X145288000Y-105664000D01*
X146351000Y-106172000D02*
X145796000Y-106172000D01*
X146558000Y-106204000D02*
X146383000Y-106204000D01*
X146383000Y-106204000D02*
X146351000Y-106172000D01*
X146558000Y-107704000D02*
X145788000Y-107704000D01*
X145788000Y-107704000D02*
X145288000Y-108204000D01*
X149658000Y-106204000D02*
X149658000Y-105866000D01*
X145288000Y-113284000D02*
X145288000Y-109299000D01*
X145288000Y-109299000D02*
X146383000Y-108204000D01*
X146383000Y-108204000D02*
X146558000Y-108204000D01*
X150876000Y-108458000D02*
X150212606Y-107794606D01*
X150212606Y-107794606D02*
X150135400Y-107717400D01*
X149658000Y-107704000D02*
X150135400Y-107704000D01*
X149658000Y-108204000D02*
X149658000Y-112574000D01*
X149658000Y-112574000D02*
X150368000Y-113284000D01*
D21*
G36*
X151818910Y-107752441D02*
X152031110Y-107897431D01*
X152283000Y-107948440D01*
X153533000Y-107948440D01*
X153722000Y-107912877D01*
X153722000Y-111890861D01*
X153282791Y-111679291D01*
X153267026Y-111676642D01*
X153035000Y-111797783D01*
X153035000Y-113157000D01*
X153055000Y-113157000D01*
X153055000Y-113411000D01*
X153035000Y-113411000D01*
X153035000Y-113431000D01*
X152781000Y-113431000D01*
X152781000Y-113411000D01*
X152761000Y-113411000D01*
X152761000Y-113157000D01*
X152781000Y-113157000D01*
X152781000Y-111797783D01*
X152548974Y-111676642D01*
X152533209Y-111679291D01*
X152005964Y-111933268D01*
X151634461Y-112349069D01*
X151427670Y-112039585D01*
X150941489Y-111714729D01*
X150369200Y-111600894D01*
X150369200Y-109306413D01*
X150680630Y-109435730D01*
X151069663Y-109436069D01*
X151429212Y-109287507D01*
X151704540Y-109012659D01*
X151853730Y-108653370D01*
X151854069Y-108264337D01*
X151705507Y-107904788D01*
X151497182Y-107696099D01*
X151585208Y-107696176D01*
X151600155Y-107690000D01*
X151778730Y-107690000D01*
X151818910Y-107752441D01*
X151818910Y-107752441D01*
G37*
X151818910Y-107752441D02*
X152031110Y-107897431D01*
X152283000Y-107948440D01*
X153533000Y-107948440D01*
X153722000Y-107912877D01*
X153722000Y-111890861D01*
X153282791Y-111679291D01*
X153267026Y-111676642D01*
X153035000Y-111797783D01*
X153035000Y-113157000D01*
X153055000Y-113157000D01*
X153055000Y-113411000D01*
X153035000Y-113411000D01*
X153035000Y-113431000D01*
X152781000Y-113431000D01*
X152781000Y-113411000D01*
X152761000Y-113411000D01*
X152761000Y-113157000D01*
X152781000Y-113157000D01*
X152781000Y-111797783D01*
X152548974Y-111676642D01*
X152533209Y-111679291D01*
X152005964Y-111933268D01*
X151634461Y-112349069D01*
X151427670Y-112039585D01*
X150941489Y-111714729D01*
X150369200Y-111600894D01*
X150369200Y-109306413D01*
X150680630Y-109435730D01*
X151069663Y-109436069D01*
X151429212Y-109287507D01*
X151704540Y-109012659D01*
X151853730Y-108653370D01*
X151854069Y-108264337D01*
X151705507Y-107904788D01*
X151497182Y-107696099D01*
X151585208Y-107696176D01*
X151600155Y-107690000D01*
X151778730Y-107690000D01*
X151818910Y-107752441D01*
G36*
X145330630Y-107895730D02*
X145617560Y-107895980D01*
X145611920Y-107923830D01*
X145598000Y-107937750D01*
X145598000Y-107980310D01*
X145598850Y-107982362D01*
X144785106Y-108796106D01*
X144630937Y-109026835D01*
X144602619Y-109169200D01*
X144576800Y-109299000D01*
X144576800Y-111806745D01*
X144228330Y-112039585D01*
X144218757Y-112053913D01*
X144214762Y-112032683D01*
X144075690Y-111816559D01*
X143863490Y-111671569D01*
X143637000Y-111625704D01*
X143637000Y-109193236D01*
X145023236Y-107807000D01*
X145116945Y-107807000D01*
X145330630Y-107895730D01*
X145330630Y-107895730D01*
G37*
X145330630Y-107895730D02*
X145617560Y-107895980D01*
X145611920Y-107923830D01*
X145598000Y-107937750D01*
X145598000Y-107980310D01*
X145598850Y-107982362D01*
X144785106Y-108796106D01*
X144630937Y-109026835D01*
X144602619Y-109169200D01*
X144576800Y-109299000D01*
X144576800Y-111806745D01*
X144228330Y-112039585D01*
X144218757Y-112053913D01*
X144214762Y-112032683D01*
X144075690Y-111816559D01*
X143863490Y-111671569D01*
X143637000Y-111625704D01*
X143637000Y-109193236D01*
X145023236Y-107807000D01*
X145116945Y-107807000D01*
X145330630Y-107895730D01*
G36*
X151648000Y-104174691D02*
X151648000Y-104515250D01*
X151806750Y-104674000D01*
X152781000Y-104674000D01*
X152781000Y-104654000D01*
X153035000Y-104654000D01*
X153035000Y-104674000D01*
X153055000Y-104674000D01*
X153055000Y-104928000D01*
X153035000Y-104928000D01*
X153035000Y-104948000D01*
X152781000Y-104948000D01*
X152781000Y-104928000D01*
X151806750Y-104928000D01*
X151648000Y-105086750D01*
X151648000Y-105427309D01*
X151744673Y-105660698D01*
X151862596Y-105778621D01*
X151586982Y-105664176D01*
X151182792Y-105663824D01*
X150809234Y-105818175D01*
X150723359Y-105903900D01*
X150608146Y-105903900D01*
X150521327Y-105694301D01*
X150342698Y-105515673D01*
X150109309Y-105419000D01*
X149943750Y-105419000D01*
X149785000Y-105577750D01*
X149785000Y-105906560D01*
X149531000Y-105906560D01*
X149531000Y-105577750D01*
X149372250Y-105419000D01*
X149210162Y-105419000D01*
X149134890Y-105367569D01*
X148883000Y-105316560D01*
X147333000Y-105316560D01*
X147097683Y-105360838D01*
X147007297Y-105419000D01*
X146843750Y-105419000D01*
X146685000Y-105577750D01*
X146685000Y-105906560D01*
X146431000Y-105906560D01*
X146431000Y-105577750D01*
X146272250Y-105419000D01*
X146106691Y-105419000D01*
X145873302Y-105515673D01*
X145694673Y-105694301D01*
X145598000Y-105927690D01*
X145598000Y-105940162D01*
X145332337Y-105939931D01*
X145116773Y-106029000D01*
X144655000Y-106029000D01*
X144314794Y-106096671D01*
X144026382Y-106289382D01*
X143782440Y-106533324D01*
X143782440Y-106418000D01*
X143738162Y-106182683D01*
X143599090Y-105966559D01*
X143530994Y-105920031D01*
X143673327Y-105777698D01*
X143770000Y-105544309D01*
X143770000Y-105203750D01*
X143611250Y-105045000D01*
X142637000Y-105045000D01*
X142637000Y-105065000D01*
X142383000Y-105065000D01*
X142383000Y-105045000D01*
X142363000Y-105045000D01*
X142363000Y-104791000D01*
X142383000Y-104791000D01*
X142383000Y-104771000D01*
X142637000Y-104771000D01*
X142637000Y-104791000D01*
X143611250Y-104791000D01*
X143770000Y-104632250D01*
X143770000Y-104291691D01*
X143685628Y-104088000D01*
X151683909Y-104088000D01*
X151648000Y-104174691D01*
X151648000Y-104174691D01*
G37*
X151648000Y-104174691D02*
X151648000Y-104515250D01*
X151806750Y-104674000D01*
X152781000Y-104674000D01*
X152781000Y-104654000D01*
X153035000Y-104654000D01*
X153035000Y-104674000D01*
X153055000Y-104674000D01*
X153055000Y-104928000D01*
X153035000Y-104928000D01*
X153035000Y-104948000D01*
X152781000Y-104948000D01*
X152781000Y-104928000D01*
X151806750Y-104928000D01*
X151648000Y-105086750D01*
X151648000Y-105427309D01*
X151744673Y-105660698D01*
X151862596Y-105778621D01*
X151586982Y-105664176D01*
X151182792Y-105663824D01*
X150809234Y-105818175D01*
X150723359Y-105903900D01*
X150608146Y-105903900D01*
X150521327Y-105694301D01*
X150342698Y-105515673D01*
X150109309Y-105419000D01*
X149943750Y-105419000D01*
X149785000Y-105577750D01*
X149785000Y-105906560D01*
X149531000Y-105906560D01*
X149531000Y-105577750D01*
X149372250Y-105419000D01*
X149210162Y-105419000D01*
X149134890Y-105367569D01*
X148883000Y-105316560D01*
X147333000Y-105316560D01*
X147097683Y-105360838D01*
X147007297Y-105419000D01*
X146843750Y-105419000D01*
X146685000Y-105577750D01*
X146685000Y-105906560D01*
X146431000Y-105906560D01*
X146431000Y-105577750D01*
X146272250Y-105419000D01*
X146106691Y-105419000D01*
X145873302Y-105515673D01*
X145694673Y-105694301D01*
X145598000Y-105927690D01*
X145598000Y-105940162D01*
X145332337Y-105939931D01*
X145116773Y-106029000D01*
X144655000Y-106029000D01*
X144314794Y-106096671D01*
X144026382Y-106289382D01*
X143782440Y-106533324D01*
X143782440Y-106418000D01*
X143738162Y-106182683D01*
X143599090Y-105966559D01*
X143530994Y-105920031D01*
X143673327Y-105777698D01*
X143770000Y-105544309D01*
X143770000Y-105203750D01*
X143611250Y-105045000D01*
X142637000Y-105045000D01*
X142637000Y-105065000D01*
X142383000Y-105065000D01*
X142383000Y-105045000D01*
X142363000Y-105045000D01*
X142363000Y-104791000D01*
X142383000Y-104791000D01*
X142383000Y-104771000D01*
X142637000Y-104771000D01*
X142637000Y-104791000D01*
X143611250Y-104791000D01*
X143770000Y-104632250D01*
X143770000Y-104291691D01*
X143685628Y-104088000D01*
X151683909Y-104088000D01*
X151648000Y-104174691D01*
D22*
X151384000Y-106680000D03*
D23*
X145526000Y-106918000D03*
X151892000Y-108204000D03*
D22*
X143764000Y-105156000D03*
D23*
X146304000Y-105156000D03*
X145288000Y-108204000D03*
X150876000Y-108458000D03*
D22*
X142748000Y-113284000D03*
X145288000Y-113284000D03*
X147828000Y-113284000D03*
X150368000Y-113284000D03*
X152908000Y-113284000D03*
M02*
