%TF.GenerationSoftware,KiCad,Pcbnew,4.0.4+e1-6308~48~ubuntu16.04.1-stable*%
%TF.CreationDate,2016-12-05T15:11:49-08:00*%
%TF.ProjectId,mma7660-sensor-breakout,6D6D61373636302D73656E736F722D62,v1.0*%
%TF.FileFunction,Legend,Top*%
%FSLAX46Y46*%
G04 Gerber Fmt 4.6, Leading zero omitted, Abs format (unit mm)*
G04 Created by KiCad (PCBNEW 4.0.4+e1-6308~48~ubuntu16.04.1-stable) date Mon Dec  5 15:11:49 2016*
%MOMM*%
%LPD*%
G01*
G04 APERTURE LIST*
%ADD10C,0.350000*%
%ADD11C,0.203200*%
%ADD12C,0.150000*%
%ADD13C,0.100000*%
G04 APERTURE END LIST*
D10*
D11*
X152654000Y-111010095D02*
X152605619Y-111106857D01*
X152605619Y-111252000D01*
X152654000Y-111397142D01*
X152750762Y-111493904D01*
X152847524Y-111542285D01*
X153041048Y-111590666D01*
X153186190Y-111590666D01*
X153379714Y-111542285D01*
X153476476Y-111493904D01*
X153573238Y-111397142D01*
X153621619Y-111252000D01*
X153621619Y-111155238D01*
X153573238Y-111010095D01*
X153524857Y-110961714D01*
X153186190Y-110961714D01*
X153186190Y-111155238D01*
X153621619Y-110526285D02*
X152605619Y-110526285D01*
X153621619Y-109945714D01*
X152605619Y-109945714D01*
X153621619Y-109461904D02*
X152605619Y-109461904D01*
X152605619Y-109219999D01*
X152654000Y-109074857D01*
X152750762Y-108978095D01*
X152847524Y-108929714D01*
X153041048Y-108881333D01*
X153186190Y-108881333D01*
X153379714Y-108929714D01*
X153476476Y-108978095D01*
X153573238Y-109074857D01*
X153621619Y-109219999D01*
X153621619Y-109461904D01*
X151033238Y-111699523D02*
X151081619Y-111554380D01*
X151081619Y-111312476D01*
X151033238Y-111215714D01*
X150984857Y-111167333D01*
X150888095Y-111118952D01*
X150791333Y-111118952D01*
X150694571Y-111167333D01*
X150646190Y-111215714D01*
X150597810Y-111312476D01*
X150549429Y-111505999D01*
X150501048Y-111602761D01*
X150452667Y-111651142D01*
X150355905Y-111699523D01*
X150259143Y-111699523D01*
X150162381Y-111651142D01*
X150114000Y-111602761D01*
X150065619Y-111505999D01*
X150065619Y-111264095D01*
X150114000Y-111118952D01*
X150984857Y-110102952D02*
X151033238Y-110151333D01*
X151081619Y-110296476D01*
X151081619Y-110393238D01*
X151033238Y-110538380D01*
X150936476Y-110635142D01*
X150839714Y-110683523D01*
X150646190Y-110731904D01*
X150501048Y-110731904D01*
X150307524Y-110683523D01*
X150210762Y-110635142D01*
X150114000Y-110538380D01*
X150065619Y-110393238D01*
X150065619Y-110296476D01*
X150114000Y-110151333D01*
X150162381Y-110102952D01*
X151081619Y-109183714D02*
X151081619Y-109667523D01*
X150065619Y-109667523D01*
X148493238Y-111723714D02*
X148541619Y-111578571D01*
X148541619Y-111336667D01*
X148493238Y-111239905D01*
X148444857Y-111191524D01*
X148348095Y-111143143D01*
X148251333Y-111143143D01*
X148154571Y-111191524D01*
X148106190Y-111239905D01*
X148057810Y-111336667D01*
X148009429Y-111530190D01*
X147961048Y-111626952D01*
X147912667Y-111675333D01*
X147815905Y-111723714D01*
X147719143Y-111723714D01*
X147622381Y-111675333D01*
X147574000Y-111626952D01*
X147525619Y-111530190D01*
X147525619Y-111288286D01*
X147574000Y-111143143D01*
X148541619Y-110707714D02*
X147525619Y-110707714D01*
X147525619Y-110465809D01*
X147574000Y-110320667D01*
X147670762Y-110223905D01*
X147767524Y-110175524D01*
X147961048Y-110127143D01*
X148106190Y-110127143D01*
X148299714Y-110175524D01*
X148396476Y-110223905D01*
X148493238Y-110320667D01*
X148541619Y-110465809D01*
X148541619Y-110707714D01*
X148251333Y-109740095D02*
X148251333Y-109256286D01*
X148541619Y-109836857D02*
X147525619Y-109498190D01*
X148541619Y-109159524D01*
X145747619Y-111409238D02*
X144731619Y-111409238D01*
X145747619Y-110925428D02*
X144731619Y-110925428D01*
X145747619Y-110344857D01*
X144731619Y-110344857D01*
X144731619Y-110006190D02*
X144731619Y-109425619D01*
X145747619Y-109715904D02*
X144731619Y-109715904D01*
X144556480Y-111651143D02*
X144556480Y-109328857D01*
X142191619Y-111481809D02*
X142191619Y-110852857D01*
X142578667Y-111191523D01*
X142578667Y-111046381D01*
X142627048Y-110949619D01*
X142675429Y-110901238D01*
X142772190Y-110852857D01*
X143014095Y-110852857D01*
X143110857Y-110901238D01*
X143159238Y-110949619D01*
X143207619Y-111046381D01*
X143207619Y-111336666D01*
X143159238Y-111433428D01*
X143110857Y-111481809D01*
X143110857Y-110417428D02*
X143159238Y-110369047D01*
X143207619Y-110417428D01*
X143159238Y-110465809D01*
X143110857Y-110417428D01*
X143207619Y-110417428D01*
X142191619Y-110030380D02*
X142191619Y-109401428D01*
X142578667Y-109740094D01*
X142578667Y-109594952D01*
X142627048Y-109498190D01*
X142675429Y-109449809D01*
X142772190Y-109401428D01*
X143014095Y-109401428D01*
X143110857Y-109449809D01*
X143159238Y-109498190D01*
X143207619Y-109594952D01*
X143207619Y-109885237D01*
X143159238Y-109981999D01*
X143110857Y-110030380D01*
X142191619Y-109111142D02*
X143207619Y-108772475D01*
X142191619Y-108433809D01*
D12*
X152058000Y-105301000D02*
X152058000Y-106301000D01*
X153758000Y-106301000D02*
X153758000Y-105301000D01*
X141660000Y-105418000D02*
X141660000Y-106418000D01*
X143360000Y-106418000D02*
X143360000Y-105418000D01*
X142748000Y-114834000D02*
X141198000Y-114834000D01*
X141198000Y-114834000D02*
X141198000Y-111734000D01*
X141198000Y-111734000D02*
X142748000Y-111734000D01*
X144018000Y-112014000D02*
X154178000Y-112014000D01*
X154178000Y-112014000D02*
X154178000Y-114554000D01*
X154178000Y-114554000D02*
X144018000Y-114554000D01*
X144018000Y-112014000D02*
X144018000Y-114554000D01*
X146883000Y-108854000D02*
X149333000Y-108854000D01*
X146858000Y-105554000D02*
X149333000Y-105554000D01*
D13*
X146648139Y-105604000D02*
G75*
G03X146648139Y-105604000I-90139J0D01*
G01*
D12*
X151741143Y-105132166D02*
X151788762Y-105179785D01*
X151836381Y-105322642D01*
X151836381Y-105417880D01*
X151788762Y-105560738D01*
X151693524Y-105655976D01*
X151598286Y-105703595D01*
X151407810Y-105751214D01*
X151264952Y-105751214D01*
X151074476Y-105703595D01*
X150979238Y-105655976D01*
X150884000Y-105560738D01*
X150836381Y-105417880D01*
X150836381Y-105322642D01*
X150884000Y-105179785D01*
X150931619Y-105132166D01*
X151836381Y-104179785D02*
X151836381Y-104751214D01*
X151836381Y-104465500D02*
X150836381Y-104465500D01*
X150979238Y-104560738D01*
X151074476Y-104655976D01*
X151122095Y-104751214D01*
X145137143Y-105132166D02*
X145184762Y-105179785D01*
X145232381Y-105322642D01*
X145232381Y-105417880D01*
X145184762Y-105560738D01*
X145089524Y-105655976D01*
X144994286Y-105703595D01*
X144803810Y-105751214D01*
X144660952Y-105751214D01*
X144470476Y-105703595D01*
X144375238Y-105655976D01*
X144280000Y-105560738D01*
X144232381Y-105417880D01*
X144232381Y-105322642D01*
X144280000Y-105179785D01*
X144327619Y-105132166D01*
X144327619Y-104751214D02*
X144280000Y-104703595D01*
X144232381Y-104608357D01*
X144232381Y-104370261D01*
X144280000Y-104275023D01*
X144327619Y-104227404D01*
X144422857Y-104179785D01*
X144518095Y-104179785D01*
X144660952Y-104227404D01*
X145232381Y-104798833D01*
X145232381Y-104179785D01*
X147346095Y-104156381D02*
X147346095Y-104965905D01*
X147393714Y-105061143D01*
X147441333Y-105108762D01*
X147536571Y-105156381D01*
X147727048Y-105156381D01*
X147822286Y-105108762D01*
X147869905Y-105061143D01*
X147917524Y-104965905D01*
X147917524Y-104156381D01*
X148917524Y-105156381D02*
X148346095Y-105156381D01*
X148631809Y-105156381D02*
X148631809Y-104156381D01*
X148536571Y-104299238D01*
X148441333Y-104394476D01*
X148346095Y-104442095D01*
M02*
