M48
;DRILL file {KiCad 4.0.1-3.201512221402+6198~38~ubuntu14.04.1-stable} date Sat 14 May 2016 03:25:45 PM PDT
;FORMAT={-:-/ absolute / inch / decimal}
FMAT,2
INCH,TZ
T1C0.040
%
G90
G05
M72
T1
X3.75Y-2.86
X3.75Y-2.96
X3.75Y-3.06
X3.75Y-3.16
X3.75Y-3.26
X3.75Y-3.36
X3.75Y-3.46
X3.75Y-3.56
X3.75Y-3.66
X3.75Y-3.76
X3.75Y-3.86
X3.75Y-3.96
X3.75Y-4.06
X3.75Y-4.16
X3.85Y-4.16
X3.95Y-4.16
X4.05Y-4.16
X4.15Y-4.16
X4.25Y-4.16
X4.35Y-2.86
X4.35Y-2.96
X4.35Y-3.06
X4.35Y-3.16
X4.35Y-3.26
X4.35Y-3.36
X4.35Y-3.46
X4.35Y-3.56
X4.35Y-3.66
X4.35Y-3.76
X4.35Y-3.86
X4.35Y-3.96
X4.35Y-4.06
X4.35Y-4.16
T0
M30
