G04 #@! TF.FileFunction,Soldermask,Top*
%FSLAX46Y46*%
G04 Gerber Fmt 4.6, Leading zero omitted, Abs format (unit mm)*
G04 Created by KiCad (PCBNEW 4.0.1-3.201512221402+6198~38~ubuntu14.04.1-stable) date Sat 14 May 2016 03:25:43 PM PDT*
%MOMM*%
G01*
G04 APERTURE LIST*
%ADD10C,0.100000*%
G04 APERTURE END LIST*
D10*
G36*
X95348715Y-104724824D02*
X95529248Y-104761883D01*
X95699158Y-104833306D01*
X95851949Y-104936366D01*
X95981821Y-105067146D01*
X96083810Y-105220653D01*
X96154043Y-105391051D01*
X96189772Y-105571499D01*
X96189772Y-105571504D01*
X96189840Y-105571848D01*
X96186901Y-105782358D01*
X96186824Y-105782696D01*
X96186824Y-105782706D01*
X96146070Y-105962086D01*
X96071108Y-106130452D01*
X95964868Y-106281056D01*
X95831399Y-106408157D01*
X95675784Y-106506914D01*
X95503954Y-106573562D01*
X95322452Y-106605566D01*
X95138186Y-106601706D01*
X94958179Y-106562129D01*
X94789288Y-106488343D01*
X94637950Y-106383160D01*
X94509921Y-106250582D01*
X94410081Y-106095661D01*
X94342232Y-105924293D01*
X94308963Y-105743023D01*
X94311535Y-105558736D01*
X94349856Y-105378456D01*
X94422459Y-105209057D01*
X94526587Y-105056984D01*
X94658266Y-104928033D01*
X94812487Y-104827114D01*
X94983372Y-104758072D01*
X95164409Y-104723538D01*
X95348715Y-104724824D01*
X95348715Y-104724824D01*
G37*
G36*
X110588715Y-104724824D02*
X110769248Y-104761883D01*
X110939158Y-104833306D01*
X111091949Y-104936366D01*
X111221821Y-105067146D01*
X111323810Y-105220653D01*
X111394043Y-105391051D01*
X111429772Y-105571499D01*
X111429772Y-105571504D01*
X111429840Y-105571848D01*
X111426901Y-105782358D01*
X111426824Y-105782696D01*
X111426824Y-105782706D01*
X111386070Y-105962086D01*
X111311108Y-106130452D01*
X111204868Y-106281056D01*
X111071399Y-106408157D01*
X110915784Y-106506914D01*
X110743954Y-106573562D01*
X110562452Y-106605566D01*
X110378186Y-106601706D01*
X110198179Y-106562129D01*
X110029288Y-106488343D01*
X109877950Y-106383160D01*
X109749921Y-106250582D01*
X109650081Y-106095661D01*
X109582232Y-105924293D01*
X109548963Y-105743023D01*
X109551535Y-105558736D01*
X109589856Y-105378456D01*
X109662459Y-105209057D01*
X109766587Y-105056984D01*
X109898266Y-104928033D01*
X110052487Y-104827114D01*
X110223372Y-104758072D01*
X110404409Y-104723538D01*
X110588715Y-104724824D01*
X110588715Y-104724824D01*
G37*
G36*
X108048715Y-104724824D02*
X108229248Y-104761883D01*
X108399158Y-104833306D01*
X108551949Y-104936366D01*
X108681821Y-105067146D01*
X108783810Y-105220653D01*
X108854043Y-105391051D01*
X108889772Y-105571499D01*
X108889772Y-105571504D01*
X108889840Y-105571848D01*
X108886901Y-105782358D01*
X108886824Y-105782696D01*
X108886824Y-105782706D01*
X108846070Y-105962086D01*
X108771108Y-106130452D01*
X108664868Y-106281056D01*
X108531399Y-106408157D01*
X108375784Y-106506914D01*
X108203954Y-106573562D01*
X108022452Y-106605566D01*
X107838186Y-106601706D01*
X107658179Y-106562129D01*
X107489288Y-106488343D01*
X107337950Y-106383160D01*
X107209921Y-106250582D01*
X107110081Y-106095661D01*
X107042232Y-105924293D01*
X107008963Y-105743023D01*
X107011535Y-105558736D01*
X107049856Y-105378456D01*
X107122459Y-105209057D01*
X107226587Y-105056984D01*
X107358266Y-104928033D01*
X107512487Y-104827114D01*
X107683372Y-104758072D01*
X107864409Y-104723538D01*
X108048715Y-104724824D01*
X108048715Y-104724824D01*
G37*
G36*
X102968715Y-104724824D02*
X103149248Y-104761883D01*
X103319158Y-104833306D01*
X103471949Y-104936366D01*
X103601821Y-105067146D01*
X103703810Y-105220653D01*
X103774043Y-105391051D01*
X103809772Y-105571499D01*
X103809772Y-105571504D01*
X103809840Y-105571848D01*
X103806901Y-105782358D01*
X103806824Y-105782696D01*
X103806824Y-105782706D01*
X103766070Y-105962086D01*
X103691108Y-106130452D01*
X103584868Y-106281056D01*
X103451399Y-106408157D01*
X103295784Y-106506914D01*
X103123954Y-106573562D01*
X102942452Y-106605566D01*
X102758186Y-106601706D01*
X102578179Y-106562129D01*
X102409288Y-106488343D01*
X102257950Y-106383160D01*
X102129921Y-106250582D01*
X102030081Y-106095661D01*
X101962232Y-105924293D01*
X101928963Y-105743023D01*
X101931535Y-105558736D01*
X101969856Y-105378456D01*
X102042459Y-105209057D01*
X102146587Y-105056984D01*
X102278266Y-104928033D01*
X102432487Y-104827114D01*
X102603372Y-104758072D01*
X102784409Y-104723538D01*
X102968715Y-104724824D01*
X102968715Y-104724824D01*
G37*
G36*
X100428715Y-104724824D02*
X100609248Y-104761883D01*
X100779158Y-104833306D01*
X100931949Y-104936366D01*
X101061821Y-105067146D01*
X101163810Y-105220653D01*
X101234043Y-105391051D01*
X101269772Y-105571499D01*
X101269772Y-105571504D01*
X101269840Y-105571848D01*
X101266901Y-105782358D01*
X101266824Y-105782696D01*
X101266824Y-105782706D01*
X101226070Y-105962086D01*
X101151108Y-106130452D01*
X101044868Y-106281056D01*
X100911399Y-106408157D01*
X100755784Y-106506914D01*
X100583954Y-106573562D01*
X100402452Y-106605566D01*
X100218186Y-106601706D01*
X100038179Y-106562129D01*
X99869288Y-106488343D01*
X99717950Y-106383160D01*
X99589921Y-106250582D01*
X99490081Y-106095661D01*
X99422232Y-105924293D01*
X99388963Y-105743023D01*
X99391535Y-105558736D01*
X99429856Y-105378456D01*
X99502459Y-105209057D01*
X99606587Y-105056984D01*
X99738266Y-104928033D01*
X99892487Y-104827114D01*
X100063372Y-104758072D01*
X100244409Y-104723538D01*
X100428715Y-104724824D01*
X100428715Y-104724824D01*
G37*
G36*
X105508715Y-104724824D02*
X105689248Y-104761883D01*
X105859158Y-104833306D01*
X106011949Y-104936366D01*
X106141821Y-105067146D01*
X106243810Y-105220653D01*
X106314043Y-105391051D01*
X106349772Y-105571499D01*
X106349772Y-105571504D01*
X106349840Y-105571848D01*
X106346901Y-105782358D01*
X106346824Y-105782696D01*
X106346824Y-105782706D01*
X106306070Y-105962086D01*
X106231108Y-106130452D01*
X106124868Y-106281056D01*
X105991399Y-106408157D01*
X105835784Y-106506914D01*
X105663954Y-106573562D01*
X105482452Y-106605566D01*
X105298186Y-106601706D01*
X105118179Y-106562129D01*
X104949288Y-106488343D01*
X104797950Y-106383160D01*
X104669921Y-106250582D01*
X104570081Y-106095661D01*
X104502232Y-105924293D01*
X104468963Y-105743023D01*
X104471535Y-105558736D01*
X104509856Y-105378456D01*
X104582459Y-105209057D01*
X104686587Y-105056984D01*
X104818266Y-104928033D01*
X104972487Y-104827114D01*
X105143372Y-104758072D01*
X105324409Y-104723538D01*
X105508715Y-104724824D01*
X105508715Y-104724824D01*
G37*
G36*
X97888715Y-104724824D02*
X98069248Y-104761883D01*
X98239158Y-104833306D01*
X98391949Y-104936366D01*
X98521821Y-105067146D01*
X98623810Y-105220653D01*
X98694043Y-105391051D01*
X98729772Y-105571499D01*
X98729772Y-105571504D01*
X98729840Y-105571848D01*
X98726901Y-105782358D01*
X98726824Y-105782696D01*
X98726824Y-105782706D01*
X98686070Y-105962086D01*
X98611108Y-106130452D01*
X98504868Y-106281056D01*
X98371399Y-106408157D01*
X98215784Y-106506914D01*
X98043954Y-106573562D01*
X97862452Y-106605566D01*
X97678186Y-106601706D01*
X97498179Y-106562129D01*
X97329288Y-106488343D01*
X97177950Y-106383160D01*
X97049921Y-106250582D01*
X96950081Y-106095661D01*
X96882232Y-105924293D01*
X96848963Y-105743023D01*
X96851535Y-105558736D01*
X96889856Y-105378456D01*
X96962459Y-105209057D01*
X97066587Y-105056984D01*
X97198266Y-104928033D01*
X97352487Y-104827114D01*
X97523372Y-104758072D01*
X97704409Y-104723538D01*
X97888715Y-104724824D01*
X97888715Y-104724824D01*
G37*
G36*
X110588715Y-102184824D02*
X110769248Y-102221883D01*
X110939158Y-102293306D01*
X111091949Y-102396366D01*
X111221821Y-102527146D01*
X111323810Y-102680653D01*
X111394043Y-102851051D01*
X111429772Y-103031499D01*
X111429772Y-103031504D01*
X111429840Y-103031848D01*
X111426901Y-103242358D01*
X111426824Y-103242696D01*
X111426824Y-103242706D01*
X111386070Y-103422086D01*
X111311108Y-103590452D01*
X111204868Y-103741056D01*
X111071399Y-103868157D01*
X110915784Y-103966914D01*
X110743954Y-104033562D01*
X110562452Y-104065566D01*
X110378186Y-104061706D01*
X110198179Y-104022129D01*
X110029288Y-103948343D01*
X109877950Y-103843160D01*
X109749921Y-103710582D01*
X109650081Y-103555661D01*
X109582232Y-103384293D01*
X109548963Y-103203023D01*
X109551535Y-103018736D01*
X109589856Y-102838456D01*
X109662459Y-102669057D01*
X109766587Y-102516984D01*
X109898266Y-102388033D01*
X110052487Y-102287114D01*
X110223372Y-102218072D01*
X110404409Y-102183538D01*
X110588715Y-102184824D01*
X110588715Y-102184824D01*
G37*
G36*
X95348715Y-102184824D02*
X95529248Y-102221883D01*
X95699158Y-102293306D01*
X95851949Y-102396366D01*
X95981821Y-102527146D01*
X96083810Y-102680653D01*
X96154043Y-102851051D01*
X96189772Y-103031499D01*
X96189772Y-103031504D01*
X96189840Y-103031848D01*
X96186901Y-103242358D01*
X96186824Y-103242696D01*
X96186824Y-103242706D01*
X96146070Y-103422086D01*
X96071108Y-103590452D01*
X95964868Y-103741056D01*
X95831399Y-103868157D01*
X95675784Y-103966914D01*
X95503954Y-104033562D01*
X95322452Y-104065566D01*
X95138186Y-104061706D01*
X94958179Y-104022129D01*
X94789288Y-103948343D01*
X94637950Y-103843160D01*
X94509921Y-103710582D01*
X94410081Y-103555661D01*
X94342232Y-103384293D01*
X94308963Y-103203023D01*
X94311535Y-103018736D01*
X94349856Y-102838456D01*
X94422459Y-102669057D01*
X94526587Y-102516984D01*
X94658266Y-102388033D01*
X94812487Y-102287114D01*
X94983372Y-102218072D01*
X95164409Y-102183538D01*
X95348715Y-102184824D01*
X95348715Y-102184824D01*
G37*
G36*
X110588715Y-99644824D02*
X110769248Y-99681883D01*
X110939158Y-99753306D01*
X111091949Y-99856366D01*
X111221821Y-99987146D01*
X111323810Y-100140653D01*
X111394043Y-100311051D01*
X111429772Y-100491499D01*
X111429772Y-100491504D01*
X111429840Y-100491848D01*
X111426901Y-100702358D01*
X111426824Y-100702696D01*
X111426824Y-100702706D01*
X111386070Y-100882086D01*
X111311108Y-101050452D01*
X111204868Y-101201056D01*
X111071399Y-101328157D01*
X110915784Y-101426914D01*
X110743954Y-101493562D01*
X110562452Y-101525566D01*
X110378186Y-101521706D01*
X110198179Y-101482129D01*
X110029288Y-101408343D01*
X109877950Y-101303160D01*
X109749921Y-101170582D01*
X109650081Y-101015661D01*
X109582232Y-100844293D01*
X109548963Y-100663023D01*
X109551535Y-100478736D01*
X109589856Y-100298456D01*
X109662459Y-100129057D01*
X109766587Y-99976984D01*
X109898266Y-99848033D01*
X110052487Y-99747114D01*
X110223372Y-99678072D01*
X110404409Y-99643538D01*
X110588715Y-99644824D01*
X110588715Y-99644824D01*
G37*
G36*
X95348715Y-99644824D02*
X95529248Y-99681883D01*
X95699158Y-99753306D01*
X95851949Y-99856366D01*
X95981821Y-99987146D01*
X96083810Y-100140653D01*
X96154043Y-100311051D01*
X96189772Y-100491499D01*
X96189772Y-100491504D01*
X96189840Y-100491848D01*
X96186901Y-100702358D01*
X96186824Y-100702696D01*
X96186824Y-100702706D01*
X96146070Y-100882086D01*
X96071108Y-101050452D01*
X95964868Y-101201056D01*
X95831399Y-101328157D01*
X95675784Y-101426914D01*
X95503954Y-101493562D01*
X95322452Y-101525566D01*
X95138186Y-101521706D01*
X94958179Y-101482129D01*
X94789288Y-101408343D01*
X94637950Y-101303160D01*
X94509921Y-101170582D01*
X94410081Y-101015661D01*
X94342232Y-100844293D01*
X94308963Y-100663023D01*
X94311535Y-100478736D01*
X94349856Y-100298456D01*
X94422459Y-100129057D01*
X94526587Y-99976984D01*
X94658266Y-99848033D01*
X94812487Y-99747114D01*
X94983372Y-99678072D01*
X95164409Y-99643538D01*
X95348715Y-99644824D01*
X95348715Y-99644824D01*
G37*
G36*
X95348715Y-97104824D02*
X95529248Y-97141883D01*
X95699158Y-97213306D01*
X95851949Y-97316366D01*
X95981821Y-97447146D01*
X96083810Y-97600653D01*
X96154043Y-97771051D01*
X96189772Y-97951499D01*
X96189772Y-97951504D01*
X96189840Y-97951848D01*
X96186901Y-98162358D01*
X96186824Y-98162696D01*
X96186824Y-98162706D01*
X96146070Y-98342086D01*
X96071108Y-98510452D01*
X95964868Y-98661056D01*
X95831399Y-98788157D01*
X95675784Y-98886914D01*
X95503954Y-98953562D01*
X95322452Y-98985566D01*
X95138186Y-98981706D01*
X94958179Y-98942129D01*
X94789288Y-98868343D01*
X94637950Y-98763160D01*
X94509921Y-98630582D01*
X94410081Y-98475661D01*
X94342232Y-98304293D01*
X94308963Y-98123023D01*
X94311535Y-97938736D01*
X94349856Y-97758456D01*
X94422459Y-97589057D01*
X94526587Y-97436984D01*
X94658266Y-97308033D01*
X94812487Y-97207114D01*
X94983372Y-97138072D01*
X95164409Y-97103538D01*
X95348715Y-97104824D01*
X95348715Y-97104824D01*
G37*
G36*
X110588715Y-97104824D02*
X110769248Y-97141883D01*
X110939158Y-97213306D01*
X111091949Y-97316366D01*
X111221821Y-97447146D01*
X111323810Y-97600653D01*
X111394043Y-97771051D01*
X111429772Y-97951499D01*
X111429772Y-97951504D01*
X111429840Y-97951848D01*
X111426901Y-98162358D01*
X111426824Y-98162696D01*
X111426824Y-98162706D01*
X111386070Y-98342086D01*
X111311108Y-98510452D01*
X111204868Y-98661056D01*
X111071399Y-98788157D01*
X110915784Y-98886914D01*
X110743954Y-98953562D01*
X110562452Y-98985566D01*
X110378186Y-98981706D01*
X110198179Y-98942129D01*
X110029288Y-98868343D01*
X109877950Y-98763160D01*
X109749921Y-98630582D01*
X109650081Y-98475661D01*
X109582232Y-98304293D01*
X109548963Y-98123023D01*
X109551535Y-97938736D01*
X109589856Y-97758456D01*
X109662459Y-97589057D01*
X109766587Y-97436984D01*
X109898266Y-97308033D01*
X110052487Y-97207114D01*
X110223372Y-97138072D01*
X110404409Y-97103538D01*
X110588715Y-97104824D01*
X110588715Y-97104824D01*
G37*
G36*
X95348715Y-94564824D02*
X95529248Y-94601883D01*
X95699158Y-94673306D01*
X95851949Y-94776366D01*
X95981821Y-94907146D01*
X96083810Y-95060653D01*
X96154043Y-95231051D01*
X96189772Y-95411499D01*
X96189772Y-95411504D01*
X96189840Y-95411848D01*
X96186901Y-95622358D01*
X96186824Y-95622696D01*
X96186824Y-95622706D01*
X96146070Y-95802086D01*
X96071108Y-95970452D01*
X95964868Y-96121056D01*
X95831399Y-96248157D01*
X95675784Y-96346914D01*
X95503954Y-96413562D01*
X95322452Y-96445566D01*
X95138186Y-96441706D01*
X94958179Y-96402129D01*
X94789288Y-96328343D01*
X94637950Y-96223160D01*
X94509921Y-96090582D01*
X94410081Y-95935661D01*
X94342232Y-95764293D01*
X94308963Y-95583023D01*
X94311535Y-95398736D01*
X94349856Y-95218456D01*
X94422459Y-95049057D01*
X94526587Y-94896984D01*
X94658266Y-94768033D01*
X94812487Y-94667114D01*
X94983372Y-94598072D01*
X95164409Y-94563538D01*
X95348715Y-94564824D01*
X95348715Y-94564824D01*
G37*
G36*
X110588715Y-94564824D02*
X110769248Y-94601883D01*
X110939158Y-94673306D01*
X111091949Y-94776366D01*
X111221821Y-94907146D01*
X111323810Y-95060653D01*
X111394043Y-95231051D01*
X111429772Y-95411499D01*
X111429772Y-95411504D01*
X111429840Y-95411848D01*
X111426901Y-95622358D01*
X111426824Y-95622696D01*
X111426824Y-95622706D01*
X111386070Y-95802086D01*
X111311108Y-95970452D01*
X111204868Y-96121056D01*
X111071399Y-96248157D01*
X110915784Y-96346914D01*
X110743954Y-96413562D01*
X110562452Y-96445566D01*
X110378186Y-96441706D01*
X110198179Y-96402129D01*
X110029288Y-96328343D01*
X109877950Y-96223160D01*
X109749921Y-96090582D01*
X109650081Y-95935661D01*
X109582232Y-95764293D01*
X109548963Y-95583023D01*
X109551535Y-95398736D01*
X109589856Y-95218456D01*
X109662459Y-95049057D01*
X109766587Y-94896984D01*
X109898266Y-94768033D01*
X110052487Y-94667114D01*
X110223372Y-94598072D01*
X110404409Y-94563538D01*
X110588715Y-94564824D01*
X110588715Y-94564824D01*
G37*
G36*
X110588715Y-92024824D02*
X110769248Y-92061883D01*
X110939158Y-92133306D01*
X111091949Y-92236366D01*
X111221821Y-92367146D01*
X111323810Y-92520653D01*
X111394043Y-92691051D01*
X111429772Y-92871499D01*
X111429772Y-92871504D01*
X111429840Y-92871848D01*
X111426901Y-93082358D01*
X111426824Y-93082696D01*
X111426824Y-93082706D01*
X111386070Y-93262086D01*
X111311108Y-93430452D01*
X111204868Y-93581056D01*
X111071399Y-93708157D01*
X110915784Y-93806914D01*
X110743954Y-93873562D01*
X110562452Y-93905566D01*
X110378186Y-93901706D01*
X110198179Y-93862129D01*
X110029288Y-93788343D01*
X109877950Y-93683160D01*
X109749921Y-93550582D01*
X109650081Y-93395661D01*
X109582232Y-93224293D01*
X109548963Y-93043023D01*
X109551535Y-92858736D01*
X109589856Y-92678456D01*
X109662459Y-92509057D01*
X109766587Y-92356984D01*
X109898266Y-92228033D01*
X110052487Y-92127114D01*
X110223372Y-92058072D01*
X110404409Y-92023538D01*
X110588715Y-92024824D01*
X110588715Y-92024824D01*
G37*
G36*
X95348715Y-92024824D02*
X95529248Y-92061883D01*
X95699158Y-92133306D01*
X95851949Y-92236366D01*
X95981821Y-92367146D01*
X96083810Y-92520653D01*
X96154043Y-92691051D01*
X96189772Y-92871499D01*
X96189772Y-92871504D01*
X96189840Y-92871848D01*
X96186901Y-93082358D01*
X96186824Y-93082696D01*
X96186824Y-93082706D01*
X96146070Y-93262086D01*
X96071108Y-93430452D01*
X95964868Y-93581056D01*
X95831399Y-93708157D01*
X95675784Y-93806914D01*
X95503954Y-93873562D01*
X95322452Y-93905566D01*
X95138186Y-93901706D01*
X94958179Y-93862129D01*
X94789288Y-93788343D01*
X94637950Y-93683160D01*
X94509921Y-93550582D01*
X94410081Y-93395661D01*
X94342232Y-93224293D01*
X94308963Y-93043023D01*
X94311535Y-92858736D01*
X94349856Y-92678456D01*
X94422459Y-92509057D01*
X94526587Y-92356984D01*
X94658266Y-92228033D01*
X94812487Y-92127114D01*
X94983372Y-92058072D01*
X95164409Y-92023538D01*
X95348715Y-92024824D01*
X95348715Y-92024824D01*
G37*
G36*
X110588715Y-89484824D02*
X110769248Y-89521883D01*
X110939158Y-89593306D01*
X111091949Y-89696366D01*
X111221821Y-89827146D01*
X111323810Y-89980653D01*
X111394043Y-90151051D01*
X111429772Y-90331499D01*
X111429772Y-90331504D01*
X111429840Y-90331848D01*
X111426901Y-90542358D01*
X111426824Y-90542696D01*
X111426824Y-90542706D01*
X111386070Y-90722086D01*
X111311108Y-90890452D01*
X111204868Y-91041056D01*
X111071399Y-91168157D01*
X110915784Y-91266914D01*
X110743954Y-91333562D01*
X110562452Y-91365566D01*
X110378186Y-91361706D01*
X110198179Y-91322129D01*
X110029288Y-91248343D01*
X109877950Y-91143160D01*
X109749921Y-91010582D01*
X109650081Y-90855661D01*
X109582232Y-90684293D01*
X109548963Y-90503023D01*
X109551535Y-90318736D01*
X109589856Y-90138456D01*
X109662459Y-89969057D01*
X109766587Y-89816984D01*
X109898266Y-89688033D01*
X110052487Y-89587114D01*
X110223372Y-89518072D01*
X110404409Y-89483538D01*
X110588715Y-89484824D01*
X110588715Y-89484824D01*
G37*
G36*
X95348715Y-89484824D02*
X95529248Y-89521883D01*
X95699158Y-89593306D01*
X95851949Y-89696366D01*
X95981821Y-89827146D01*
X96083810Y-89980653D01*
X96154043Y-90151051D01*
X96189772Y-90331499D01*
X96189772Y-90331504D01*
X96189840Y-90331848D01*
X96186901Y-90542358D01*
X96186824Y-90542696D01*
X96186824Y-90542706D01*
X96146070Y-90722086D01*
X96071108Y-90890452D01*
X95964868Y-91041056D01*
X95831399Y-91168157D01*
X95675784Y-91266914D01*
X95503954Y-91333562D01*
X95322452Y-91365566D01*
X95138186Y-91361706D01*
X94958179Y-91322129D01*
X94789288Y-91248343D01*
X94637950Y-91143160D01*
X94509921Y-91010582D01*
X94410081Y-90855661D01*
X94342232Y-90684293D01*
X94308963Y-90503023D01*
X94311535Y-90318736D01*
X94349856Y-90138456D01*
X94422459Y-89969057D01*
X94526587Y-89816984D01*
X94658266Y-89688033D01*
X94812487Y-89587114D01*
X94983372Y-89518072D01*
X95164409Y-89483538D01*
X95348715Y-89484824D01*
X95348715Y-89484824D01*
G37*
G36*
X95348715Y-86944824D02*
X95529248Y-86981883D01*
X95699158Y-87053306D01*
X95851949Y-87156366D01*
X95981821Y-87287146D01*
X96083810Y-87440653D01*
X96154043Y-87611051D01*
X96189772Y-87791499D01*
X96189772Y-87791504D01*
X96189840Y-87791848D01*
X96186901Y-88002358D01*
X96186824Y-88002696D01*
X96186824Y-88002706D01*
X96146070Y-88182086D01*
X96071108Y-88350452D01*
X95964868Y-88501056D01*
X95831399Y-88628157D01*
X95675784Y-88726914D01*
X95503954Y-88793562D01*
X95322452Y-88825566D01*
X95138186Y-88821706D01*
X94958179Y-88782129D01*
X94789288Y-88708343D01*
X94637950Y-88603160D01*
X94509921Y-88470582D01*
X94410081Y-88315661D01*
X94342232Y-88144293D01*
X94308963Y-87963023D01*
X94311535Y-87778736D01*
X94349856Y-87598456D01*
X94422459Y-87429057D01*
X94526587Y-87276984D01*
X94658266Y-87148033D01*
X94812487Y-87047114D01*
X94983372Y-86978072D01*
X95164409Y-86943538D01*
X95348715Y-86944824D01*
X95348715Y-86944824D01*
G37*
G36*
X110588715Y-86944824D02*
X110769248Y-86981883D01*
X110939158Y-87053306D01*
X111091949Y-87156366D01*
X111221821Y-87287146D01*
X111323810Y-87440653D01*
X111394043Y-87611051D01*
X111429772Y-87791499D01*
X111429772Y-87791504D01*
X111429840Y-87791848D01*
X111426901Y-88002358D01*
X111426824Y-88002696D01*
X111426824Y-88002706D01*
X111386070Y-88182086D01*
X111311108Y-88350452D01*
X111204868Y-88501056D01*
X111071399Y-88628157D01*
X110915784Y-88726914D01*
X110743954Y-88793562D01*
X110562452Y-88825566D01*
X110378186Y-88821706D01*
X110198179Y-88782129D01*
X110029288Y-88708343D01*
X109877950Y-88603160D01*
X109749921Y-88470582D01*
X109650081Y-88315661D01*
X109582232Y-88144293D01*
X109548963Y-87963023D01*
X109551535Y-87778736D01*
X109589856Y-87598456D01*
X109662459Y-87429057D01*
X109766587Y-87276984D01*
X109898266Y-87148033D01*
X110052487Y-87047114D01*
X110223372Y-86978072D01*
X110404409Y-86943538D01*
X110588715Y-86944824D01*
X110588715Y-86944824D01*
G37*
G36*
X110588715Y-84404824D02*
X110769248Y-84441883D01*
X110939158Y-84513306D01*
X111091949Y-84616366D01*
X111221821Y-84747146D01*
X111323810Y-84900653D01*
X111394043Y-85071051D01*
X111429772Y-85251499D01*
X111429772Y-85251504D01*
X111429840Y-85251848D01*
X111426901Y-85462358D01*
X111426824Y-85462696D01*
X111426824Y-85462706D01*
X111386070Y-85642086D01*
X111311108Y-85810452D01*
X111204868Y-85961056D01*
X111071399Y-86088157D01*
X110915784Y-86186914D01*
X110743954Y-86253562D01*
X110562452Y-86285566D01*
X110378186Y-86281706D01*
X110198179Y-86242129D01*
X110029288Y-86168343D01*
X109877950Y-86063160D01*
X109749921Y-85930582D01*
X109650081Y-85775661D01*
X109582232Y-85604293D01*
X109548963Y-85423023D01*
X109551535Y-85238736D01*
X109589856Y-85058456D01*
X109662459Y-84889057D01*
X109766587Y-84736984D01*
X109898266Y-84608033D01*
X110052487Y-84507114D01*
X110223372Y-84438072D01*
X110404409Y-84403538D01*
X110588715Y-84404824D01*
X110588715Y-84404824D01*
G37*
G36*
X95348715Y-84404824D02*
X95529248Y-84441883D01*
X95699158Y-84513306D01*
X95851949Y-84616366D01*
X95981821Y-84747146D01*
X96083810Y-84900653D01*
X96154043Y-85071051D01*
X96189772Y-85251499D01*
X96189772Y-85251504D01*
X96189840Y-85251848D01*
X96186901Y-85462358D01*
X96186824Y-85462696D01*
X96186824Y-85462706D01*
X96146070Y-85642086D01*
X96071108Y-85810452D01*
X95964868Y-85961056D01*
X95831399Y-86088157D01*
X95675784Y-86186914D01*
X95503954Y-86253562D01*
X95322452Y-86285566D01*
X95138186Y-86281706D01*
X94958179Y-86242129D01*
X94789288Y-86168343D01*
X94637950Y-86063160D01*
X94509921Y-85930582D01*
X94410081Y-85775661D01*
X94342232Y-85604293D01*
X94308963Y-85423023D01*
X94311535Y-85238736D01*
X94349856Y-85058456D01*
X94422459Y-84889057D01*
X94526587Y-84736984D01*
X94658266Y-84608033D01*
X94812487Y-84507114D01*
X94983372Y-84438072D01*
X95164409Y-84403538D01*
X95348715Y-84404824D01*
X95348715Y-84404824D01*
G37*
G36*
X110588715Y-81864824D02*
X110769248Y-81901883D01*
X110939158Y-81973306D01*
X111091949Y-82076366D01*
X111221821Y-82207146D01*
X111323810Y-82360653D01*
X111394043Y-82531051D01*
X111429772Y-82711499D01*
X111429772Y-82711504D01*
X111429840Y-82711848D01*
X111426901Y-82922358D01*
X111426824Y-82922696D01*
X111426824Y-82922706D01*
X111386070Y-83102086D01*
X111311108Y-83270452D01*
X111204868Y-83421056D01*
X111071399Y-83548157D01*
X110915784Y-83646914D01*
X110743954Y-83713562D01*
X110562452Y-83745566D01*
X110378186Y-83741706D01*
X110198179Y-83702129D01*
X110029288Y-83628343D01*
X109877950Y-83523160D01*
X109749921Y-83390582D01*
X109650081Y-83235661D01*
X109582232Y-83064293D01*
X109548963Y-82883023D01*
X109551535Y-82698736D01*
X109589856Y-82518456D01*
X109662459Y-82349057D01*
X109766587Y-82196984D01*
X109898266Y-82068033D01*
X110052487Y-81967114D01*
X110223372Y-81898072D01*
X110404409Y-81863538D01*
X110588715Y-81864824D01*
X110588715Y-81864824D01*
G37*
G36*
X95348715Y-81864824D02*
X95529248Y-81901883D01*
X95699158Y-81973306D01*
X95851949Y-82076366D01*
X95981821Y-82207146D01*
X96083810Y-82360653D01*
X96154043Y-82531051D01*
X96189772Y-82711499D01*
X96189772Y-82711504D01*
X96189840Y-82711848D01*
X96186901Y-82922358D01*
X96186824Y-82922696D01*
X96186824Y-82922706D01*
X96146070Y-83102086D01*
X96071108Y-83270452D01*
X95964868Y-83421056D01*
X95831399Y-83548157D01*
X95675784Y-83646914D01*
X95503954Y-83713562D01*
X95322452Y-83745566D01*
X95138186Y-83741706D01*
X94958179Y-83702129D01*
X94789288Y-83628343D01*
X94637950Y-83523160D01*
X94509921Y-83390582D01*
X94410081Y-83235661D01*
X94342232Y-83064293D01*
X94308963Y-82883023D01*
X94311535Y-82698736D01*
X94349856Y-82518456D01*
X94422459Y-82349057D01*
X94526587Y-82196984D01*
X94658266Y-82068033D01*
X94812487Y-81967114D01*
X94983372Y-81898072D01*
X95164409Y-81863538D01*
X95348715Y-81864824D01*
X95348715Y-81864824D01*
G37*
G36*
X110588715Y-79324824D02*
X110769248Y-79361883D01*
X110939158Y-79433306D01*
X111091949Y-79536366D01*
X111221821Y-79667146D01*
X111323810Y-79820653D01*
X111394043Y-79991051D01*
X111429772Y-80171499D01*
X111429772Y-80171504D01*
X111429840Y-80171848D01*
X111426901Y-80382358D01*
X111426824Y-80382696D01*
X111426824Y-80382706D01*
X111386070Y-80562086D01*
X111311108Y-80730452D01*
X111204868Y-80881056D01*
X111071399Y-81008157D01*
X110915784Y-81106914D01*
X110743954Y-81173562D01*
X110562452Y-81205566D01*
X110378186Y-81201706D01*
X110198179Y-81162129D01*
X110029288Y-81088343D01*
X109877950Y-80983160D01*
X109749921Y-80850582D01*
X109650081Y-80695661D01*
X109582232Y-80524293D01*
X109548963Y-80343023D01*
X109551535Y-80158736D01*
X109589856Y-79978456D01*
X109662459Y-79809057D01*
X109766587Y-79656984D01*
X109898266Y-79528033D01*
X110052487Y-79427114D01*
X110223372Y-79358072D01*
X110404409Y-79323538D01*
X110588715Y-79324824D01*
X110588715Y-79324824D01*
G37*
G36*
X95348715Y-79324824D02*
X95529248Y-79361883D01*
X95699158Y-79433306D01*
X95851949Y-79536366D01*
X95981821Y-79667146D01*
X96083810Y-79820653D01*
X96154043Y-79991051D01*
X96189772Y-80171499D01*
X96189772Y-80171504D01*
X96189840Y-80171848D01*
X96186901Y-80382358D01*
X96186824Y-80382696D01*
X96186824Y-80382706D01*
X96146070Y-80562086D01*
X96071108Y-80730452D01*
X95964868Y-80881056D01*
X95831399Y-81008157D01*
X95675784Y-81106914D01*
X95503954Y-81173562D01*
X95322452Y-81205566D01*
X95138186Y-81201706D01*
X94958179Y-81162129D01*
X94789288Y-81088343D01*
X94637950Y-80983160D01*
X94509921Y-80850582D01*
X94410081Y-80695661D01*
X94342232Y-80524293D01*
X94308963Y-80343023D01*
X94311535Y-80158736D01*
X94349856Y-79978456D01*
X94422459Y-79809057D01*
X94526587Y-79656984D01*
X94658266Y-79528033D01*
X94812487Y-79427114D01*
X94983372Y-79358072D01*
X95164409Y-79323538D01*
X95348715Y-79324824D01*
X95348715Y-79324824D01*
G37*
G36*
X110588715Y-76784824D02*
X110769248Y-76821883D01*
X110939158Y-76893306D01*
X111091949Y-76996366D01*
X111221821Y-77127146D01*
X111323810Y-77280653D01*
X111394043Y-77451051D01*
X111429772Y-77631499D01*
X111429772Y-77631504D01*
X111429840Y-77631848D01*
X111426901Y-77842358D01*
X111426824Y-77842696D01*
X111426824Y-77842706D01*
X111386070Y-78022086D01*
X111311108Y-78190452D01*
X111204868Y-78341056D01*
X111071399Y-78468157D01*
X110915784Y-78566914D01*
X110743954Y-78633562D01*
X110562452Y-78665566D01*
X110378186Y-78661706D01*
X110198179Y-78622129D01*
X110029288Y-78548343D01*
X109877950Y-78443160D01*
X109749921Y-78310582D01*
X109650081Y-78155661D01*
X109582232Y-77984293D01*
X109548963Y-77803023D01*
X109551535Y-77618736D01*
X109589856Y-77438456D01*
X109662459Y-77269057D01*
X109766587Y-77116984D01*
X109898266Y-76988033D01*
X110052487Y-76887114D01*
X110223372Y-76818072D01*
X110404409Y-76783538D01*
X110588715Y-76784824D01*
X110588715Y-76784824D01*
G37*
G36*
X95348715Y-76784824D02*
X95529248Y-76821883D01*
X95699158Y-76893306D01*
X95851949Y-76996366D01*
X95981821Y-77127146D01*
X96083810Y-77280653D01*
X96154043Y-77451051D01*
X96189772Y-77631499D01*
X96189772Y-77631504D01*
X96189840Y-77631848D01*
X96186901Y-77842358D01*
X96186824Y-77842696D01*
X96186824Y-77842706D01*
X96146070Y-78022086D01*
X96071108Y-78190452D01*
X95964868Y-78341056D01*
X95831399Y-78468157D01*
X95675784Y-78566914D01*
X95503954Y-78633562D01*
X95322452Y-78665566D01*
X95138186Y-78661706D01*
X94958179Y-78622129D01*
X94789288Y-78548343D01*
X94637950Y-78443160D01*
X94509921Y-78310582D01*
X94410081Y-78155661D01*
X94342232Y-77984293D01*
X94308963Y-77803023D01*
X94311535Y-77618736D01*
X94349856Y-77438456D01*
X94422459Y-77269057D01*
X94526587Y-77116984D01*
X94658266Y-76988033D01*
X94812487Y-76887114D01*
X94983372Y-76818072D01*
X95164409Y-76783538D01*
X95348715Y-76784824D01*
X95348715Y-76784824D01*
G37*
G36*
X110588715Y-74244824D02*
X110769248Y-74281883D01*
X110939158Y-74353306D01*
X111091949Y-74456366D01*
X111221821Y-74587146D01*
X111323810Y-74740653D01*
X111394043Y-74911051D01*
X111429772Y-75091499D01*
X111429772Y-75091504D01*
X111429840Y-75091848D01*
X111426901Y-75302358D01*
X111426824Y-75302696D01*
X111426824Y-75302706D01*
X111386070Y-75482086D01*
X111311108Y-75650452D01*
X111204868Y-75801056D01*
X111071399Y-75928157D01*
X110915784Y-76026914D01*
X110743954Y-76093562D01*
X110562452Y-76125566D01*
X110378186Y-76121706D01*
X110198179Y-76082129D01*
X110029288Y-76008343D01*
X109877950Y-75903160D01*
X109749921Y-75770582D01*
X109650081Y-75615661D01*
X109582232Y-75444293D01*
X109548963Y-75263023D01*
X109551535Y-75078736D01*
X109589856Y-74898456D01*
X109662459Y-74729057D01*
X109766587Y-74576984D01*
X109898266Y-74448033D01*
X110052487Y-74347114D01*
X110223372Y-74278072D01*
X110404409Y-74243538D01*
X110588715Y-74244824D01*
X110588715Y-74244824D01*
G37*
G36*
X95348715Y-74244824D02*
X95529248Y-74281883D01*
X95699158Y-74353306D01*
X95851949Y-74456366D01*
X95981821Y-74587146D01*
X96083810Y-74740653D01*
X96154043Y-74911051D01*
X96189772Y-75091499D01*
X96189772Y-75091504D01*
X96189840Y-75091848D01*
X96186901Y-75302358D01*
X96186824Y-75302696D01*
X96186824Y-75302706D01*
X96146070Y-75482086D01*
X96071108Y-75650452D01*
X95964868Y-75801056D01*
X95831399Y-75928157D01*
X95675784Y-76026914D01*
X95503954Y-76093562D01*
X95322452Y-76125566D01*
X95138186Y-76121706D01*
X94958179Y-76082129D01*
X94789288Y-76008343D01*
X94637950Y-75903160D01*
X94509921Y-75770582D01*
X94410081Y-75615661D01*
X94342232Y-75444293D01*
X94308963Y-75263023D01*
X94311535Y-75078736D01*
X94349856Y-74898456D01*
X94422459Y-74729057D01*
X94526587Y-74576984D01*
X94658266Y-74448033D01*
X94812487Y-74347114D01*
X94983372Y-74278072D01*
X95164409Y-74243538D01*
X95348715Y-74244824D01*
X95348715Y-74244824D01*
G37*
G36*
X110588715Y-71704824D02*
X110769248Y-71741883D01*
X110939158Y-71813306D01*
X111091949Y-71916366D01*
X111221821Y-72047146D01*
X111323810Y-72200653D01*
X111394043Y-72371051D01*
X111429772Y-72551499D01*
X111429772Y-72551504D01*
X111429840Y-72551848D01*
X111426901Y-72762358D01*
X111426824Y-72762696D01*
X111426824Y-72762706D01*
X111386070Y-72942086D01*
X111311108Y-73110452D01*
X111204868Y-73261056D01*
X111071399Y-73388157D01*
X110915784Y-73486914D01*
X110743954Y-73553562D01*
X110562452Y-73585566D01*
X110378186Y-73581706D01*
X110198179Y-73542129D01*
X110029288Y-73468343D01*
X109877950Y-73363160D01*
X109749921Y-73230582D01*
X109650081Y-73075661D01*
X109582232Y-72904293D01*
X109548963Y-72723023D01*
X109551535Y-72538736D01*
X109589856Y-72358456D01*
X109662459Y-72189057D01*
X109766587Y-72036984D01*
X109898266Y-71908033D01*
X110052487Y-71807114D01*
X110223372Y-71738072D01*
X110404409Y-71703538D01*
X110588715Y-71704824D01*
X110588715Y-71704824D01*
G37*
G36*
X95348715Y-71704824D02*
X95529248Y-71741883D01*
X95699158Y-71813306D01*
X95851949Y-71916366D01*
X95981821Y-72047146D01*
X96083810Y-72200653D01*
X96154043Y-72371051D01*
X96189772Y-72551499D01*
X96189772Y-72551504D01*
X96189840Y-72551848D01*
X96186901Y-72762358D01*
X96186824Y-72762696D01*
X96186824Y-72762706D01*
X96146070Y-72942086D01*
X96071108Y-73110452D01*
X95964868Y-73261056D01*
X95831399Y-73388157D01*
X95675784Y-73486914D01*
X95503954Y-73553562D01*
X95322452Y-73585566D01*
X95138186Y-73581706D01*
X94958179Y-73542129D01*
X94789288Y-73468343D01*
X94637950Y-73363160D01*
X94509921Y-73230582D01*
X94410081Y-73075661D01*
X94342232Y-72904293D01*
X94308963Y-72723023D01*
X94311535Y-72538736D01*
X94349856Y-72358456D01*
X94422459Y-72189057D01*
X94526587Y-72036984D01*
X94658266Y-71908033D01*
X94812487Y-71807114D01*
X94983372Y-71738072D01*
X95164409Y-71703538D01*
X95348715Y-71704824D01*
X95348715Y-71704824D01*
G37*
M02*
