%TF.GenerationSoftware,KiCad,Pcbnew,4.0.4+e1-6308~48~ubuntu16.04.1-stable*%
%TF.CreationDate,2016-12-31T17:29:36-08:00*%
%TF.ProjectId,mma7660-sensor-breakout,6D6D61373636302D73656E736F722D62,v1.0*%
%TF.FileFunction,Copper,L2,Bot,Signal*%
%FSLAX46Y46*%
G04 Gerber Fmt 4.6, Leading zero omitted, Abs format (unit mm)*
G04 Created by KiCad (PCBNEW 4.0.4+e1-6308~48~ubuntu16.04.1-stable) date Sat Dec 31 17:29:36 2016*
%MOMM*%
%LPD*%
G01*
G04 APERTURE LIST*
%ADD10C,0.350000*%
%ADD11R,1.727200X2.032000*%
%ADD12O,1.727200X2.032000*%
%ADD13C,0.685800*%
%ADD14C,0.152400*%
%ADD15C,0.254000*%
%ADD16C,0.330200*%
%ADD17C,0.350000*%
G04 APERTURE END LIST*
D10*
D11*
X142748000Y-113728500D03*
D12*
X145288000Y-113728500D03*
X147828000Y-113728500D03*
X150368000Y-113728500D03*
X152908000Y-113728500D03*
D13*
X148844539Y-105079789D03*
X142748000Y-108331000D03*
X151828500Y-109283500D03*
X148844000Y-105918000D03*
X148842958Y-104241579D03*
X151765000Y-104330500D03*
X143891000Y-107442000D03*
X143764000Y-104648000D03*
X148844000Y-106807000D03*
D14*
X148359606Y-105079789D02*
X148844539Y-105079789D01*
X144793434Y-108331000D02*
X148044645Y-105079789D01*
X142748000Y-108331000D02*
X144793434Y-108331000D01*
X148044645Y-105079789D02*
X148359606Y-105079789D01*
X148844000Y-105918000D02*
X149519433Y-105918000D01*
X149519433Y-105918000D02*
X150241000Y-105918000D01*
X147828000Y-113728500D02*
X147828000Y-113131600D01*
X147828000Y-113131600D02*
X147472400Y-112776000D01*
X146812000Y-112115600D02*
X147828000Y-113131600D01*
X147828000Y-113131600D02*
X147828000Y-113284000D01*
X146812000Y-106743500D02*
X146812000Y-112115600D01*
X148399500Y-106362500D02*
X147193000Y-106362500D01*
X147193000Y-106362500D02*
X146812000Y-106743500D01*
X148844000Y-106807000D02*
X148399500Y-106362500D01*
D15*
G36*
X154103000Y-112705665D02*
X153810036Y-112377768D01*
X153282791Y-112123791D01*
X153267026Y-112121142D01*
X153035000Y-112242283D01*
X153035000Y-113601500D01*
X153055000Y-113601500D01*
X153055000Y-113855500D01*
X153035000Y-113855500D01*
X153035000Y-113875500D01*
X152781000Y-113875500D01*
X152781000Y-113855500D01*
X152761000Y-113855500D01*
X152761000Y-113601500D01*
X152781000Y-113601500D01*
X152781000Y-112242283D01*
X152548974Y-112121142D01*
X152533209Y-112123791D01*
X152005964Y-112377768D01*
X151634461Y-112793569D01*
X151427670Y-112484085D01*
X150941489Y-112159229D01*
X150368000Y-112045155D01*
X149794511Y-112159229D01*
X149308330Y-112484085D01*
X149098000Y-112798866D01*
X148887670Y-112484085D01*
X148401489Y-112159229D01*
X147828000Y-112045155D01*
X147760725Y-112058537D01*
X147523200Y-111821012D01*
X147523200Y-107073700D01*
X147896109Y-107073700D01*
X148014493Y-107360212D01*
X148289341Y-107635540D01*
X148648630Y-107784730D01*
X149037663Y-107785069D01*
X149397212Y-107636507D01*
X149672540Y-107361659D01*
X149821730Y-107002370D01*
X149822069Y-106613337D01*
X149673507Y-106253788D01*
X149398659Y-105978460D01*
X149314718Y-105943605D01*
X149397751Y-105909296D01*
X149673079Y-105634448D01*
X149822269Y-105275159D01*
X149822608Y-104886126D01*
X149674046Y-104526577D01*
X149399198Y-104251249D01*
X149039909Y-104102059D01*
X148650876Y-104101720D01*
X148291327Y-104250282D01*
X148172813Y-104368589D01*
X148044645Y-104368589D01*
X147772481Y-104422726D01*
X147541751Y-104576894D01*
X144498846Y-107619800D01*
X143419794Y-107619800D01*
X143302659Y-107502460D01*
X142943370Y-107353270D01*
X142554337Y-107352931D01*
X142194788Y-107501493D01*
X141919460Y-107776341D01*
X141770270Y-108135630D01*
X141769931Y-108524663D01*
X141918493Y-108884212D01*
X142193341Y-109159540D01*
X142552630Y-109308730D01*
X142941663Y-109309069D01*
X143301212Y-109160507D01*
X143419726Y-109042200D01*
X144793434Y-109042200D01*
X145065599Y-108988063D01*
X145296328Y-108833894D01*
X146100800Y-108029422D01*
X146100800Y-112115600D01*
X146147491Y-112350329D01*
X145861489Y-112159229D01*
X145288000Y-112045155D01*
X144714511Y-112159229D01*
X144228330Y-112484085D01*
X144218757Y-112498413D01*
X144214762Y-112477183D01*
X144075690Y-112261059D01*
X143863490Y-112116069D01*
X143611600Y-112065060D01*
X141884400Y-112065060D01*
X141680000Y-112103521D01*
X141680000Y-104088000D01*
X154103000Y-104088000D01*
X154103000Y-112705665D01*
X154103000Y-112705665D01*
G37*
X154103000Y-112705665D02*
X153810036Y-112377768D01*
X153282791Y-112123791D01*
X153267026Y-112121142D01*
X153035000Y-112242283D01*
X153035000Y-113601500D01*
X153055000Y-113601500D01*
X153055000Y-113855500D01*
X153035000Y-113855500D01*
X153035000Y-113875500D01*
X152781000Y-113875500D01*
X152781000Y-113855500D01*
X152761000Y-113855500D01*
X152761000Y-113601500D01*
X152781000Y-113601500D01*
X152781000Y-112242283D01*
X152548974Y-112121142D01*
X152533209Y-112123791D01*
X152005964Y-112377768D01*
X151634461Y-112793569D01*
X151427670Y-112484085D01*
X150941489Y-112159229D01*
X150368000Y-112045155D01*
X149794511Y-112159229D01*
X149308330Y-112484085D01*
X149098000Y-112798866D01*
X148887670Y-112484085D01*
X148401489Y-112159229D01*
X147828000Y-112045155D01*
X147760725Y-112058537D01*
X147523200Y-111821012D01*
X147523200Y-107073700D01*
X147896109Y-107073700D01*
X148014493Y-107360212D01*
X148289341Y-107635540D01*
X148648630Y-107784730D01*
X149037663Y-107785069D01*
X149397212Y-107636507D01*
X149672540Y-107361659D01*
X149821730Y-107002370D01*
X149822069Y-106613337D01*
X149673507Y-106253788D01*
X149398659Y-105978460D01*
X149314718Y-105943605D01*
X149397751Y-105909296D01*
X149673079Y-105634448D01*
X149822269Y-105275159D01*
X149822608Y-104886126D01*
X149674046Y-104526577D01*
X149399198Y-104251249D01*
X149039909Y-104102059D01*
X148650876Y-104101720D01*
X148291327Y-104250282D01*
X148172813Y-104368589D01*
X148044645Y-104368589D01*
X147772481Y-104422726D01*
X147541751Y-104576894D01*
X144498846Y-107619800D01*
X143419794Y-107619800D01*
X143302659Y-107502460D01*
X142943370Y-107353270D01*
X142554337Y-107352931D01*
X142194788Y-107501493D01*
X141919460Y-107776341D01*
X141770270Y-108135630D01*
X141769931Y-108524663D01*
X141918493Y-108884212D01*
X142193341Y-109159540D01*
X142552630Y-109308730D01*
X142941663Y-109309069D01*
X143301212Y-109160507D01*
X143419726Y-109042200D01*
X144793434Y-109042200D01*
X145065599Y-108988063D01*
X145296328Y-108833894D01*
X146100800Y-108029422D01*
X146100800Y-112115600D01*
X146147491Y-112350329D01*
X145861489Y-112159229D01*
X145288000Y-112045155D01*
X144714511Y-112159229D01*
X144228330Y-112484085D01*
X144218757Y-112498413D01*
X144214762Y-112477183D01*
X144075690Y-112261059D01*
X143863490Y-112116069D01*
X143611600Y-112065060D01*
X141884400Y-112065060D01*
X141680000Y-112103521D01*
X141680000Y-104088000D01*
X154103000Y-104088000D01*
X154103000Y-112705665D01*
D16*
X148844539Y-105079789D03*
X142748000Y-108331000D03*
X151828500Y-109283500D03*
X148844000Y-105918000D03*
X148842958Y-104241579D03*
X151765000Y-104330500D03*
X143891000Y-107442000D03*
X143764000Y-104648000D03*
X148844000Y-106807000D03*
D17*
X142748000Y-113728500D03*
X145288000Y-113728500D03*
X147828000Y-113728500D03*
X150368000Y-113728500D03*
X152908000Y-113728500D03*
M02*
