%TF.GenerationSoftware,KiCad,Pcbnew,4.0.4+e1-6308~48~ubuntu16.04.1-stable*%
%TF.CreationDate,2016-12-31T17:29:36-08:00*%
%TF.ProjectId,mma7660-sensor-breakout,6D6D61373636302D73656E736F722D62,v1.0*%
%TF.FileFunction,Copper,L1,Top,Signal*%
%FSLAX46Y46*%
G04 Gerber Fmt 4.6, Leading zero omitted, Abs format (unit mm)*
G04 Created by KiCad (PCBNEW 4.0.4+e1-6308~48~ubuntu16.04.1-stable) date Sat Dec 31 17:29:36 2016*
%MOMM*%
%LPD*%
G01*
G04 APERTURE LIST*
%ADD10C,0.350000*%
%ADD11R,1.250000X1.000000*%
%ADD12R,1.727200X2.032000*%
%ADD13O,1.727200X2.032000*%
%ADD14R,0.650000X0.300000*%
%ADD15R,0.775000X1.240000*%
%ADD16R,0.800000X0.750000*%
%ADD17C,0.685800*%
%ADD18C,0.762000*%
%ADD19C,0.152400*%
%ADD20C,0.330200*%
%ADD21C,0.254000*%
%ADD22C,0.330200*%
%ADD23C,0.350000*%
G04 APERTURE END LIST*
D10*
D11*
X153162000Y-107410000D03*
X153162000Y-105410000D03*
X142510000Y-107426000D03*
X142510000Y-105426000D03*
D12*
X142748000Y-113728500D03*
D13*
X145288000Y-113728500D03*
X147828000Y-113728500D03*
X150368000Y-113728500D03*
X152908000Y-113728500D03*
D14*
X144874500Y-104776000D03*
X144874500Y-105276000D03*
X144874500Y-105776000D03*
X144874500Y-106276000D03*
X144874500Y-106776000D03*
X147974500Y-106776000D03*
X147974500Y-106276000D03*
X147974500Y-105776000D03*
X147974500Y-105276000D03*
X147974500Y-104776000D03*
D15*
X146812000Y-106396000D03*
X146812000Y-105156000D03*
X146037000Y-106396000D03*
X146037000Y-105156000D03*
D16*
X151360000Y-107061000D03*
X149860000Y-107061000D03*
X151360000Y-105410000D03*
X149860000Y-105410000D03*
D17*
X148844539Y-105079789D03*
X142748000Y-108331000D03*
X151828500Y-109283500D03*
X148844000Y-105918000D03*
X148842958Y-104241579D03*
X151765000Y-104330500D03*
X143891000Y-107442000D03*
X143764000Y-104648000D03*
X148844000Y-106807000D03*
D18*
X142748000Y-113284000D02*
X142748000Y-110426500D01*
D19*
X142748000Y-113728500D02*
X142748000Y-110426500D01*
D18*
X142748000Y-110426500D02*
X142748000Y-108331000D01*
D19*
X148844539Y-105079789D02*
X149187438Y-104736890D01*
X149187438Y-104736890D02*
X150661890Y-104736890D01*
X151335000Y-105410000D02*
X151360000Y-105410000D01*
X150661890Y-104736890D02*
X151335000Y-105410000D01*
X148648328Y-105276000D02*
X148844539Y-105079789D01*
X151239700Y-105346500D02*
X150972989Y-105079789D01*
X147974500Y-105276000D02*
X148648328Y-105276000D01*
X147974500Y-105276000D02*
X148322676Y-105276000D01*
D18*
X142748000Y-108331000D02*
X142748000Y-107664000D01*
D20*
X151360000Y-106172000D02*
X151360000Y-105466800D01*
X151360000Y-105466800D02*
X151239700Y-105346500D01*
X151360000Y-106172000D02*
X151360000Y-107315000D01*
X153162000Y-107410000D02*
X151455000Y-107410000D01*
X151455000Y-107410000D02*
X151360000Y-107315000D01*
D19*
X144160000Y-105776000D02*
X143764000Y-106172000D01*
D20*
X143764000Y-106172000D02*
X142510000Y-107426000D01*
X142510000Y-107426000D02*
X142635000Y-107426000D01*
D19*
X144874500Y-105776000D02*
X144160000Y-105776000D01*
D18*
X142748000Y-107664000D02*
X142510000Y-107426000D01*
D19*
X152908000Y-113284000D02*
X152908000Y-111696500D01*
X152908000Y-111696500D02*
X152908000Y-110363000D01*
X152908000Y-113728500D02*
X152908000Y-112560100D01*
X152908000Y-112560100D02*
X152908000Y-111696500D01*
X152908000Y-110363000D02*
X151828500Y-109283500D01*
X153162000Y-105410000D02*
X153162000Y-104757600D01*
X153162000Y-104757600D02*
X152734900Y-104330500D01*
X152734900Y-104330500D02*
X152249933Y-104330500D01*
X152249933Y-104330500D02*
X151765000Y-104330500D01*
X147974500Y-104776000D02*
X148149500Y-104776000D01*
X148149500Y-104776000D02*
X148683921Y-104241579D01*
X148780500Y-105854500D02*
X148844000Y-105918000D01*
X148780500Y-105664000D02*
X148780500Y-105854500D01*
X148683921Y-104241579D02*
X148842958Y-104241579D01*
X148800415Y-104480387D02*
X149143314Y-104137488D01*
X149143314Y-104137488D02*
X151508488Y-104137488D01*
X151508488Y-104137488D02*
X151676101Y-104305101D01*
X151676101Y-104305101D02*
X152019000Y-104648000D01*
X147974500Y-105776000D02*
X148668500Y-105776000D01*
X148668500Y-105776000D02*
X148780500Y-105664000D01*
X153162000Y-105410000D02*
X152781000Y-105410000D01*
X153162000Y-105410000D02*
X153037000Y-105410000D01*
X144397100Y-106276000D02*
X143891000Y-106782100D01*
X143891000Y-106782100D02*
X143891000Y-107442000D01*
X144874500Y-106276000D02*
X144397100Y-106276000D01*
D20*
X143494000Y-105426000D02*
X143764000Y-105156000D01*
X143764000Y-105156000D02*
X143764000Y-104648000D01*
X142510000Y-105426000D02*
X143494000Y-105426000D01*
D19*
X144874500Y-104776000D02*
X143892000Y-104776000D01*
X143892000Y-104776000D02*
X143764000Y-104648000D01*
D21*
X145288000Y-113284000D02*
X145288000Y-112522000D01*
X145288000Y-112522000D02*
X145288000Y-112014000D01*
D19*
X145288000Y-113728500D02*
X145288000Y-112522000D01*
X144874500Y-106776000D02*
X144874500Y-107600000D01*
X144874500Y-107600000D02*
X144907000Y-107632500D01*
D21*
X144907000Y-111633000D02*
X144907000Y-107632500D01*
X145288000Y-112014000D02*
X144907000Y-111633000D01*
D19*
X149479000Y-106172000D02*
X149625400Y-106172000D01*
X149625400Y-106172000D02*
X149860000Y-105937400D01*
X149860000Y-105937400D02*
X149860000Y-105410000D01*
X148844000Y-106807000D02*
X149479000Y-106172000D01*
X148717000Y-106632018D02*
X148717000Y-106680000D01*
X148717000Y-106632018D02*
X148784382Y-106699400D01*
X148482381Y-106397399D02*
X148717000Y-106632018D01*
X148717000Y-106680000D02*
X148844000Y-106807000D01*
X147974500Y-106276000D02*
X148095899Y-106397399D01*
X148095899Y-106397399D02*
X148482381Y-106397399D01*
X149860000Y-112776000D02*
X149860000Y-113220500D01*
X149860000Y-113220500D02*
X150368000Y-113728500D01*
X149860000Y-112776000D02*
X150368000Y-113284000D01*
X149860000Y-107442000D02*
X149860000Y-112776000D01*
X149860000Y-107442000D02*
X149860000Y-107061000D01*
X147974500Y-106776000D02*
X147974500Y-107078400D01*
X147974500Y-107078400D02*
X148484500Y-107588400D01*
X148484500Y-107588400D02*
X149307600Y-107588400D01*
X149307600Y-107588400D02*
X149835000Y-107061000D01*
X149835000Y-107061000D02*
X149860000Y-107061000D01*
D21*
G36*
X150708110Y-108032431D02*
X150960000Y-108083440D01*
X151050404Y-108083440D01*
X151148815Y-108149196D01*
X151455000Y-108210100D01*
X151975525Y-108210100D01*
X152072910Y-108361441D01*
X152285110Y-108506431D01*
X152537000Y-108557440D01*
X153787000Y-108557440D01*
X154022317Y-108513162D01*
X154103000Y-108461244D01*
X154103000Y-112705665D01*
X153810036Y-112377768D01*
X153282791Y-112123791D01*
X153267026Y-112121142D01*
X153035000Y-112242283D01*
X153035000Y-113601500D01*
X153055000Y-113601500D01*
X153055000Y-113855500D01*
X153035000Y-113855500D01*
X153035000Y-113875500D01*
X152781000Y-113875500D01*
X152781000Y-113855500D01*
X152761000Y-113855500D01*
X152761000Y-113601500D01*
X152781000Y-113601500D01*
X152781000Y-112242283D01*
X152548974Y-112121142D01*
X152533209Y-112123791D01*
X152005964Y-112377768D01*
X151634461Y-112793569D01*
X151427670Y-112484085D01*
X150941489Y-112159229D01*
X150571200Y-112085574D01*
X150571200Y-107990333D01*
X150609978Y-107965380D01*
X150708110Y-108032431D01*
X150708110Y-108032431D01*
G37*
X150708110Y-108032431D02*
X150960000Y-108083440D01*
X151050404Y-108083440D01*
X151148815Y-108149196D01*
X151455000Y-108210100D01*
X151975525Y-108210100D01*
X152072910Y-108361441D01*
X152285110Y-108506431D01*
X152537000Y-108557440D01*
X153787000Y-108557440D01*
X154022317Y-108513162D01*
X154103000Y-108461244D01*
X154103000Y-112705665D01*
X153810036Y-112377768D01*
X153282791Y-112123791D01*
X153267026Y-112121142D01*
X153035000Y-112242283D01*
X153035000Y-113601500D01*
X153055000Y-113601500D01*
X153055000Y-113855500D01*
X153035000Y-113855500D01*
X153035000Y-113875500D01*
X152781000Y-113875500D01*
X152781000Y-113855500D01*
X152761000Y-113855500D01*
X152761000Y-113601500D01*
X152781000Y-113601500D01*
X152781000Y-112242283D01*
X152548974Y-112121142D01*
X152533209Y-112123791D01*
X152005964Y-112377768D01*
X151634461Y-112793569D01*
X151427670Y-112484085D01*
X150941489Y-112159229D01*
X150571200Y-112085574D01*
X150571200Y-107990333D01*
X150609978Y-107965380D01*
X150708110Y-108032431D01*
G36*
X143946338Y-107161317D02*
X144085410Y-107377441D01*
X144163300Y-107430661D01*
X144163300Y-107540500D01*
X144145000Y-107632500D01*
X144145000Y-111633000D01*
X144203004Y-111924605D01*
X144326439Y-112109338D01*
X144368185Y-112171815D01*
X144499359Y-112302989D01*
X144228330Y-112484085D01*
X144218757Y-112498413D01*
X144214762Y-112477183D01*
X144075690Y-112261059D01*
X143863490Y-112116069D01*
X143764000Y-112095922D01*
X143764000Y-108017059D01*
X143782440Y-107926000D01*
X143782440Y-107285072D01*
X143939981Y-107127531D01*
X143946338Y-107161317D01*
X143946338Y-107161317D01*
G37*
X143946338Y-107161317D02*
X144085410Y-107377441D01*
X144163300Y-107430661D01*
X144163300Y-107540500D01*
X144145000Y-107632500D01*
X144145000Y-111633000D01*
X144203004Y-111924605D01*
X144326439Y-112109338D01*
X144368185Y-112171815D01*
X144499359Y-112302989D01*
X144228330Y-112484085D01*
X144218757Y-112498413D01*
X144214762Y-112477183D01*
X144075690Y-112261059D01*
X143863490Y-112116069D01*
X143764000Y-112095922D01*
X143764000Y-108017059D01*
X143782440Y-107926000D01*
X143782440Y-107285072D01*
X143939981Y-107127531D01*
X143946338Y-107161317D01*
G36*
X144011173Y-104266301D02*
X143914500Y-104499690D01*
X143914500Y-104542250D01*
X144072121Y-104699871D01*
X143953069Y-104874110D01*
X143928420Y-104995830D01*
X143914500Y-105009750D01*
X143914500Y-105052310D01*
X143916167Y-105056335D01*
X143904147Y-105115692D01*
X143887836Y-105118937D01*
X143657106Y-105273105D01*
X143631213Y-105298998D01*
X143611252Y-105298998D01*
X143770000Y-105140250D01*
X143770000Y-104799691D01*
X143673327Y-104566302D01*
X143494699Y-104387673D01*
X143261310Y-104291000D01*
X142795750Y-104291000D01*
X142637000Y-104449750D01*
X142637000Y-105299000D01*
X142657000Y-105299000D01*
X142657000Y-105553000D01*
X142637000Y-105553000D01*
X142637000Y-105573000D01*
X142383000Y-105573000D01*
X142383000Y-105553000D01*
X142363000Y-105553000D01*
X142363000Y-105299000D01*
X142383000Y-105299000D01*
X142383000Y-104449750D01*
X142224250Y-104291000D01*
X141758690Y-104291000D01*
X141680000Y-104323595D01*
X141680000Y-104088000D01*
X144189475Y-104088000D01*
X144011173Y-104266301D01*
X144011173Y-104266301D01*
G37*
X144011173Y-104266301D02*
X143914500Y-104499690D01*
X143914500Y-104542250D01*
X144072121Y-104699871D01*
X143953069Y-104874110D01*
X143928420Y-104995830D01*
X143914500Y-105009750D01*
X143914500Y-105052310D01*
X143916167Y-105056335D01*
X143904147Y-105115692D01*
X143887836Y-105118937D01*
X143657106Y-105273105D01*
X143631213Y-105298998D01*
X143611252Y-105298998D01*
X143770000Y-105140250D01*
X143770000Y-104799691D01*
X143673327Y-104566302D01*
X143494699Y-104387673D01*
X143261310Y-104291000D01*
X142795750Y-104291000D01*
X142637000Y-104449750D01*
X142637000Y-105299000D01*
X142657000Y-105299000D01*
X142657000Y-105553000D01*
X142637000Y-105553000D01*
X142637000Y-105573000D01*
X142383000Y-105573000D01*
X142383000Y-105553000D01*
X142363000Y-105553000D01*
X142363000Y-105299000D01*
X142383000Y-105299000D01*
X142383000Y-104449750D01*
X142224250Y-104291000D01*
X141758690Y-104291000D01*
X141680000Y-104323595D01*
X141680000Y-104088000D01*
X144189475Y-104088000D01*
X144011173Y-104266301D01*
G36*
X154103000Y-104353572D02*
X153913310Y-104275000D01*
X153447750Y-104275000D01*
X153289000Y-104433750D01*
X153289000Y-105283000D01*
X153309000Y-105283000D01*
X153309000Y-105537000D01*
X153289000Y-105537000D01*
X153289000Y-105557000D01*
X153035000Y-105557000D01*
X153035000Y-105537000D01*
X153015000Y-105537000D01*
X153015000Y-105283000D01*
X153035000Y-105283000D01*
X153035000Y-104433750D01*
X152876250Y-104275000D01*
X152410690Y-104275000D01*
X152177301Y-104371673D01*
X152070416Y-104478558D01*
X152011890Y-104438569D01*
X151760000Y-104387560D01*
X151318348Y-104387560D01*
X151164784Y-104233996D01*
X150946287Y-104088000D01*
X154103000Y-104088000D01*
X154103000Y-104353572D01*
X154103000Y-104353572D01*
G37*
X154103000Y-104353572D02*
X153913310Y-104275000D01*
X153447750Y-104275000D01*
X153289000Y-104433750D01*
X153289000Y-105283000D01*
X153309000Y-105283000D01*
X153309000Y-105537000D01*
X153289000Y-105537000D01*
X153289000Y-105557000D01*
X153035000Y-105557000D01*
X153035000Y-105537000D01*
X153015000Y-105537000D01*
X153015000Y-105283000D01*
X153035000Y-105283000D01*
X153035000Y-104433750D01*
X152876250Y-104275000D01*
X152410690Y-104275000D01*
X152177301Y-104371673D01*
X152070416Y-104478558D01*
X152011890Y-104438569D01*
X151760000Y-104387560D01*
X151318348Y-104387560D01*
X151164784Y-104233996D01*
X150946287Y-104088000D01*
X154103000Y-104088000D01*
X154103000Y-104353572D01*
D22*
X148844539Y-105079789D03*
X142748000Y-108331000D03*
X151828500Y-109283500D03*
X148844000Y-105918000D03*
X148842958Y-104241579D03*
X151765000Y-104330500D03*
X143891000Y-107442000D03*
X143764000Y-104648000D03*
X148844000Y-106807000D03*
D23*
X142748000Y-113728500D03*
X145288000Y-113728500D03*
X147828000Y-113728500D03*
X150368000Y-113728500D03*
X152908000Y-113728500D03*
M02*
