G04 #@! TF.FileFunction,Other,Fab,Top*
%FSLAX46Y46*%
G04 Gerber Fmt 4.6, Leading zero omitted, Abs format (unit mm)*
G04 Created by KiCad (PCBNEW 4.0.3+e1-6302~38~ubuntu14.04.1-stable) date Tue Aug 30 12:55:10 2016*
%MOMM*%
%LPD*%
G01*
G04 APERTURE LIST*
%ADD10C,0.100000*%
%ADD11C,0.150000*%
%ADD12C,0.050000*%
G04 APERTURE END LIST*
D10*
D11*
X153289381Y-99956952D02*
X153194143Y-99909333D01*
X153146524Y-99861714D01*
X153098905Y-99766476D01*
X153098905Y-99718857D01*
X153146524Y-99623619D01*
X153194143Y-99576000D01*
X153289381Y-99528381D01*
X153479858Y-99528381D01*
X153575096Y-99576000D01*
X153622715Y-99623619D01*
X153670334Y-99718857D01*
X153670334Y-99766476D01*
X153622715Y-99861714D01*
X153575096Y-99909333D01*
X153479858Y-99956952D01*
X153289381Y-99956952D01*
X153194143Y-100004571D01*
X153146524Y-100052190D01*
X153098905Y-100147429D01*
X153098905Y-100337905D01*
X153146524Y-100433143D01*
X153194143Y-100480762D01*
X153289381Y-100528381D01*
X153479858Y-100528381D01*
X153575096Y-100480762D01*
X153622715Y-100433143D01*
X153670334Y-100337905D01*
X153670334Y-100147429D01*
X153622715Y-100052190D01*
X153575096Y-100004571D01*
X153479858Y-99956952D01*
X154813191Y-99480762D02*
X153956048Y-100766476D01*
X155051286Y-99528381D02*
X155670334Y-99528381D01*
X155337000Y-99909333D01*
X155479858Y-99909333D01*
X155575096Y-99956952D01*
X155622715Y-100004571D01*
X155670334Y-100099810D01*
X155670334Y-100337905D01*
X155622715Y-100433143D01*
X155575096Y-100480762D01*
X155479858Y-100528381D01*
X155194143Y-100528381D01*
X155098905Y-100480762D01*
X155051286Y-100433143D01*
X156289381Y-99528381D02*
X156384620Y-99528381D01*
X156479858Y-99576000D01*
X156527477Y-99623619D01*
X156575096Y-99718857D01*
X156622715Y-99909333D01*
X156622715Y-100147429D01*
X156575096Y-100337905D01*
X156527477Y-100433143D01*
X156479858Y-100480762D01*
X156384620Y-100528381D01*
X156289381Y-100528381D01*
X156194143Y-100480762D01*
X156146524Y-100433143D01*
X156098905Y-100337905D01*
X156051286Y-100147429D01*
X156051286Y-99909333D01*
X156098905Y-99718857D01*
X156146524Y-99623619D01*
X156194143Y-99576000D01*
X156289381Y-99528381D01*
X157765572Y-99480762D02*
X156908429Y-100766476D01*
X158622715Y-100528381D02*
X158051286Y-100528381D01*
X158337000Y-100528381D02*
X158337000Y-99528381D01*
X158241762Y-99671238D01*
X158146524Y-99766476D01*
X158051286Y-99814095D01*
X159479858Y-99528381D02*
X159289381Y-99528381D01*
X159194143Y-99576000D01*
X159146524Y-99623619D01*
X159051286Y-99766476D01*
X159003667Y-99956952D01*
X159003667Y-100337905D01*
X159051286Y-100433143D01*
X159098905Y-100480762D01*
X159194143Y-100528381D01*
X159384620Y-100528381D01*
X159479858Y-100480762D01*
X159527477Y-100433143D01*
X159575096Y-100337905D01*
X159575096Y-100099810D01*
X159527477Y-100004571D01*
X159479858Y-99956952D01*
X159384620Y-99909333D01*
X159194143Y-99909333D01*
X159098905Y-99956952D01*
X159051286Y-100004571D01*
X159003667Y-100099810D01*
X136550237Y-102179381D02*
X136550237Y-101179381D01*
X136883571Y-101893667D01*
X137216904Y-101179381D01*
X137216904Y-102179381D01*
X137693094Y-102179381D02*
X137693094Y-101179381D01*
X138026428Y-101893667D01*
X138359761Y-101179381D01*
X138359761Y-102179381D01*
X138788332Y-101893667D02*
X139264523Y-101893667D01*
X138693094Y-102179381D02*
X139026427Y-101179381D01*
X139359761Y-102179381D01*
X139597856Y-101179381D02*
X140264523Y-101179381D01*
X139835951Y-102179381D01*
X141074047Y-101179381D02*
X140883570Y-101179381D01*
X140788332Y-101227000D01*
X140740713Y-101274619D01*
X140645475Y-101417476D01*
X140597856Y-101607952D01*
X140597856Y-101988905D01*
X140645475Y-102084143D01*
X140693094Y-102131762D01*
X140788332Y-102179381D01*
X140978809Y-102179381D01*
X141074047Y-102131762D01*
X141121666Y-102084143D01*
X141169285Y-101988905D01*
X141169285Y-101750810D01*
X141121666Y-101655571D01*
X141074047Y-101607952D01*
X140978809Y-101560333D01*
X140788332Y-101560333D01*
X140693094Y-101607952D01*
X140645475Y-101655571D01*
X140597856Y-101750810D01*
X142026428Y-101179381D02*
X141835951Y-101179381D01*
X141740713Y-101227000D01*
X141693094Y-101274619D01*
X141597856Y-101417476D01*
X141550237Y-101607952D01*
X141550237Y-101988905D01*
X141597856Y-102084143D01*
X141645475Y-102131762D01*
X141740713Y-102179381D01*
X141931190Y-102179381D01*
X142026428Y-102131762D01*
X142074047Y-102084143D01*
X142121666Y-101988905D01*
X142121666Y-101750810D01*
X142074047Y-101655571D01*
X142026428Y-101607952D01*
X141931190Y-101560333D01*
X141740713Y-101560333D01*
X141645475Y-101607952D01*
X141597856Y-101655571D01*
X141550237Y-101750810D01*
X142740713Y-101179381D02*
X142835952Y-101179381D01*
X142931190Y-101227000D01*
X142978809Y-101274619D01*
X143026428Y-101369857D01*
X143074047Y-101560333D01*
X143074047Y-101798429D01*
X143026428Y-101988905D01*
X142978809Y-102084143D01*
X142931190Y-102131762D01*
X142835952Y-102179381D01*
X142740713Y-102179381D01*
X142645475Y-102131762D01*
X142597856Y-102084143D01*
X142550237Y-101988905D01*
X142502618Y-101798429D01*
X142502618Y-101560333D01*
X142550237Y-101369857D01*
X142597856Y-101274619D01*
X142645475Y-101227000D01*
X142740713Y-101179381D01*
X144597857Y-101655571D02*
X144740714Y-101703190D01*
X144788333Y-101750810D01*
X144835952Y-101846048D01*
X144835952Y-101988905D01*
X144788333Y-102084143D01*
X144740714Y-102131762D01*
X144645476Y-102179381D01*
X144264523Y-102179381D01*
X144264523Y-101179381D01*
X144597857Y-101179381D01*
X144693095Y-101227000D01*
X144740714Y-101274619D01*
X144788333Y-101369857D01*
X144788333Y-101465095D01*
X144740714Y-101560333D01*
X144693095Y-101607952D01*
X144597857Y-101655571D01*
X144264523Y-101655571D01*
X145264523Y-102179381D02*
X145264523Y-101512714D01*
X145264523Y-101703190D02*
X145312142Y-101607952D01*
X145359761Y-101560333D01*
X145454999Y-101512714D01*
X145550238Y-101512714D01*
X146264524Y-102131762D02*
X146169286Y-102179381D01*
X145978809Y-102179381D01*
X145883571Y-102131762D01*
X145835952Y-102036524D01*
X145835952Y-101655571D01*
X145883571Y-101560333D01*
X145978809Y-101512714D01*
X146169286Y-101512714D01*
X146264524Y-101560333D01*
X146312143Y-101655571D01*
X146312143Y-101750810D01*
X145835952Y-101846048D01*
X147169286Y-102179381D02*
X147169286Y-101655571D01*
X147121667Y-101560333D01*
X147026429Y-101512714D01*
X146835952Y-101512714D01*
X146740714Y-101560333D01*
X147169286Y-102131762D02*
X147074048Y-102179381D01*
X146835952Y-102179381D01*
X146740714Y-102131762D01*
X146693095Y-102036524D01*
X146693095Y-101941286D01*
X146740714Y-101846048D01*
X146835952Y-101798429D01*
X147074048Y-101798429D01*
X147169286Y-101750810D01*
X147645476Y-102179381D02*
X147645476Y-101179381D01*
X147740714Y-101798429D02*
X148026429Y-102179381D01*
X148026429Y-101512714D02*
X147645476Y-101893667D01*
X148597857Y-102179381D02*
X148502619Y-102131762D01*
X148455000Y-102084143D01*
X148407381Y-101988905D01*
X148407381Y-101703190D01*
X148455000Y-101607952D01*
X148502619Y-101560333D01*
X148597857Y-101512714D01*
X148740715Y-101512714D01*
X148835953Y-101560333D01*
X148883572Y-101607952D01*
X148931191Y-101703190D01*
X148931191Y-101988905D01*
X148883572Y-102084143D01*
X148835953Y-102131762D01*
X148740715Y-102179381D01*
X148597857Y-102179381D01*
X149788334Y-101512714D02*
X149788334Y-102179381D01*
X149359762Y-101512714D02*
X149359762Y-102036524D01*
X149407381Y-102131762D01*
X149502619Y-102179381D01*
X149645477Y-102179381D01*
X149740715Y-102131762D01*
X149788334Y-102084143D01*
X150121667Y-101512714D02*
X150502619Y-101512714D01*
X150264524Y-101179381D02*
X150264524Y-102036524D01*
X150312143Y-102131762D01*
X150407381Y-102179381D01*
X150502619Y-102179381D01*
X151931192Y-101655571D02*
X152074049Y-101703190D01*
X152121668Y-101750810D01*
X152169287Y-101846048D01*
X152169287Y-101988905D01*
X152121668Y-102084143D01*
X152074049Y-102131762D01*
X151978811Y-102179381D01*
X151597858Y-102179381D01*
X151597858Y-101179381D01*
X151931192Y-101179381D01*
X152026430Y-101227000D01*
X152074049Y-101274619D01*
X152121668Y-101369857D01*
X152121668Y-101465095D01*
X152074049Y-101560333D01*
X152026430Y-101607952D01*
X151931192Y-101655571D01*
X151597858Y-101655571D01*
X152740715Y-102179381D02*
X152645477Y-102131762D01*
X152597858Y-102084143D01*
X152550239Y-101988905D01*
X152550239Y-101703190D01*
X152597858Y-101607952D01*
X152645477Y-101560333D01*
X152740715Y-101512714D01*
X152883573Y-101512714D01*
X152978811Y-101560333D01*
X153026430Y-101607952D01*
X153074049Y-101703190D01*
X153074049Y-101988905D01*
X153026430Y-102084143D01*
X152978811Y-102131762D01*
X152883573Y-102179381D01*
X152740715Y-102179381D01*
X153931192Y-102179381D02*
X153931192Y-101655571D01*
X153883573Y-101560333D01*
X153788335Y-101512714D01*
X153597858Y-101512714D01*
X153502620Y-101560333D01*
X153931192Y-102131762D02*
X153835954Y-102179381D01*
X153597858Y-102179381D01*
X153502620Y-102131762D01*
X153455001Y-102036524D01*
X153455001Y-101941286D01*
X153502620Y-101846048D01*
X153597858Y-101798429D01*
X153835954Y-101798429D01*
X153931192Y-101750810D01*
X154407382Y-102179381D02*
X154407382Y-101512714D01*
X154407382Y-101703190D02*
X154455001Y-101607952D01*
X154502620Y-101560333D01*
X154597858Y-101512714D01*
X154693097Y-101512714D01*
X155455002Y-102179381D02*
X155455002Y-101179381D01*
X155455002Y-102131762D02*
X155359764Y-102179381D01*
X155169287Y-102179381D01*
X155074049Y-102131762D01*
X155026430Y-102084143D01*
X154978811Y-101988905D01*
X154978811Y-101703190D01*
X155026430Y-101607952D01*
X155074049Y-101560333D01*
X155169287Y-101512714D01*
X155359764Y-101512714D01*
X155455002Y-101560333D01*
X156597859Y-101512714D02*
X156835954Y-102179381D01*
X157074050Y-101512714D01*
X157978812Y-102179381D02*
X157407383Y-102179381D01*
X157693097Y-102179381D02*
X157693097Y-101179381D01*
X157597859Y-101322238D01*
X157502621Y-101417476D01*
X157407383Y-101465095D01*
X158407383Y-102084143D02*
X158455002Y-102131762D01*
X158407383Y-102179381D01*
X158359764Y-102131762D01*
X158407383Y-102084143D01*
X158407383Y-102179381D01*
X159074049Y-101179381D02*
X159169288Y-101179381D01*
X159264526Y-101227000D01*
X159312145Y-101274619D01*
X159359764Y-101369857D01*
X159407383Y-101560333D01*
X159407383Y-101798429D01*
X159359764Y-101988905D01*
X159312145Y-102084143D01*
X159264526Y-102131762D01*
X159169288Y-102179381D01*
X159074049Y-102179381D01*
X158978811Y-102131762D01*
X158931192Y-102084143D01*
X158883573Y-101988905D01*
X158835954Y-101798429D01*
X158835954Y-101560333D01*
X158883573Y-101369857D01*
X158931192Y-101274619D01*
X158978811Y-101227000D01*
X159074049Y-101179381D01*
D12*
X154813000Y-103378000D02*
X140970000Y-103378000D01*
X154813000Y-103505000D02*
X154813000Y-103378000D01*
X154813000Y-115062000D02*
X154813000Y-103505000D01*
X154813000Y-115062000D02*
X140970000Y-115062000D01*
X140970000Y-103378000D02*
X140970000Y-115062000D01*
X153924000Y-104023000D02*
X151892000Y-104023000D01*
X153924000Y-107579000D02*
X153924000Y-104023000D01*
X151892000Y-107579000D02*
X153924000Y-107579000D01*
X151892000Y-104023000D02*
X151892000Y-107579000D01*
X143526000Y-104140000D02*
X141494000Y-104140000D01*
X143526000Y-107696000D02*
X143526000Y-104140000D01*
X141494000Y-107696000D02*
X143526000Y-107696000D01*
X141494000Y-104140000D02*
X141494000Y-107696000D01*
X154723000Y-111509000D02*
X141023000Y-111509000D01*
X154723000Y-115034000D02*
X154723000Y-111509000D01*
X141023000Y-115034000D02*
X154723000Y-115034000D01*
X141023000Y-111534000D02*
X141023000Y-115034000D01*
D10*
X146648139Y-105604000D02*
G75*
G03X146648139Y-105604000I-90139J0D01*
G01*
D12*
X150258000Y-109054000D02*
X150258000Y-105354000D01*
X145958000Y-109054000D02*
X150258000Y-109054000D01*
X145958000Y-105354000D02*
X145958000Y-109054000D01*
X150258000Y-105354000D02*
X145958000Y-105354000D01*
D11*
X153265143Y-105967666D02*
X153312762Y-106015285D01*
X153360381Y-106158142D01*
X153360381Y-106253380D01*
X153312762Y-106396238D01*
X153217524Y-106491476D01*
X153122286Y-106539095D01*
X152931810Y-106586714D01*
X152788952Y-106586714D01*
X152598476Y-106539095D01*
X152503238Y-106491476D01*
X152408000Y-106396238D01*
X152360381Y-106253380D01*
X152360381Y-106158142D01*
X152408000Y-106015285D01*
X152455619Y-105967666D01*
X153360381Y-105015285D02*
X153360381Y-105586714D01*
X153360381Y-105301000D02*
X152360381Y-105301000D01*
X152503238Y-105396238D01*
X152598476Y-105491476D01*
X152646095Y-105586714D01*
X142867143Y-106084666D02*
X142914762Y-106132285D01*
X142962381Y-106275142D01*
X142962381Y-106370380D01*
X142914762Y-106513238D01*
X142819524Y-106608476D01*
X142724286Y-106656095D01*
X142533810Y-106703714D01*
X142390952Y-106703714D01*
X142200476Y-106656095D01*
X142105238Y-106608476D01*
X142010000Y-106513238D01*
X141962381Y-106370380D01*
X141962381Y-106275142D01*
X142010000Y-106132285D01*
X142057619Y-106084666D01*
X142057619Y-105703714D02*
X142010000Y-105656095D01*
X141962381Y-105560857D01*
X141962381Y-105322761D01*
X142010000Y-105227523D01*
X142057619Y-105179904D01*
X142152857Y-105132285D01*
X142248095Y-105132285D01*
X142390952Y-105179904D01*
X142962381Y-105751333D01*
X142962381Y-105132285D01*
X149039667Y-112686381D02*
X149039667Y-113400667D01*
X148992047Y-113543524D01*
X148896809Y-113638762D01*
X148753952Y-113686381D01*
X148658714Y-113686381D01*
X150039667Y-113686381D02*
X149468238Y-113686381D01*
X149753952Y-113686381D02*
X149753952Y-112686381D01*
X149658714Y-112829238D01*
X149563476Y-112924476D01*
X149468238Y-112972095D01*
X147346095Y-106656381D02*
X147346095Y-107465905D01*
X147393714Y-107561143D01*
X147441333Y-107608762D01*
X147536571Y-107656381D01*
X147727048Y-107656381D01*
X147822286Y-107608762D01*
X147869905Y-107561143D01*
X147917524Y-107465905D01*
X147917524Y-106656381D01*
X148917524Y-107656381D02*
X148346095Y-107656381D01*
X148631809Y-107656381D02*
X148631809Y-106656381D01*
X148536571Y-106799238D01*
X148441333Y-106894476D01*
X148346095Y-106942095D01*
M02*
