%TF.GenerationSoftware,KiCad,Pcbnew,4.0.4+e1-6308~48~ubuntu16.04.1-stable*%
%TF.CreationDate,2016-12-31T17:29:36-08:00*%
%TF.ProjectId,mma7660-sensor-breakout,6D6D61373636302D73656E736F722D62,v1.0*%
%TF.FileFunction,Other,Fab,Top*%
%FSLAX46Y46*%
G04 Gerber Fmt 4.6, Leading zero omitted, Abs format (unit mm)*
G04 Created by KiCad (PCBNEW 4.0.4+e1-6308~48~ubuntu16.04.1-stable) date Sat Dec 31 17:29:36 2016*
%MOMM*%
%LPD*%
G01*
G04 APERTURE LIST*
%ADD10C,0.350000*%
%ADD11C,0.050000*%
%ADD12C,0.150000*%
%ADD13C,0.100000*%
G04 APERTURE END LIST*
D10*
D11*
X154813000Y-103505000D02*
X154813000Y-103378000D01*
D12*
X153194143Y-100528381D02*
X152622714Y-100528381D01*
X152908428Y-100528381D02*
X152908428Y-99528381D01*
X152813190Y-99671238D01*
X152717952Y-99766476D01*
X152622714Y-99814095D01*
X153575095Y-99623619D02*
X153622714Y-99576000D01*
X153717952Y-99528381D01*
X153956048Y-99528381D01*
X154051286Y-99576000D01*
X154098905Y-99623619D01*
X154146524Y-99718857D01*
X154146524Y-99814095D01*
X154098905Y-99956952D01*
X153527476Y-100528381D01*
X154146524Y-100528381D01*
X155289381Y-99480762D02*
X154432238Y-100766476D01*
X155527476Y-99528381D02*
X156146524Y-99528381D01*
X155813190Y-99909333D01*
X155956048Y-99909333D01*
X156051286Y-99956952D01*
X156098905Y-100004571D01*
X156146524Y-100099810D01*
X156146524Y-100337905D01*
X156098905Y-100433143D01*
X156051286Y-100480762D01*
X155956048Y-100528381D01*
X155670333Y-100528381D01*
X155575095Y-100480762D01*
X155527476Y-100433143D01*
X157098905Y-100528381D02*
X156527476Y-100528381D01*
X156813190Y-100528381D02*
X156813190Y-99528381D01*
X156717952Y-99671238D01*
X156622714Y-99766476D01*
X156527476Y-99814095D01*
X158241762Y-99480762D02*
X157384619Y-100766476D01*
X159098905Y-100528381D02*
X158527476Y-100528381D01*
X158813190Y-100528381D02*
X158813190Y-99528381D01*
X158717952Y-99671238D01*
X158622714Y-99766476D01*
X158527476Y-99814095D01*
X159956048Y-99528381D02*
X159765571Y-99528381D01*
X159670333Y-99576000D01*
X159622714Y-99623619D01*
X159527476Y-99766476D01*
X159479857Y-99956952D01*
X159479857Y-100337905D01*
X159527476Y-100433143D01*
X159575095Y-100480762D01*
X159670333Y-100528381D01*
X159860810Y-100528381D01*
X159956048Y-100480762D01*
X160003667Y-100433143D01*
X160051286Y-100337905D01*
X160051286Y-100099810D01*
X160003667Y-100004571D01*
X159956048Y-99956952D01*
X159860810Y-99909333D01*
X159670333Y-99909333D01*
X159575095Y-99956952D01*
X159527476Y-100004571D01*
X159479857Y-100099810D01*
X136550237Y-102179381D02*
X136550237Y-101179381D01*
X136883571Y-101893667D01*
X137216904Y-101179381D01*
X137216904Y-102179381D01*
X137693094Y-102179381D02*
X137693094Y-101179381D01*
X138026428Y-101893667D01*
X138359761Y-101179381D01*
X138359761Y-102179381D01*
X138788332Y-101893667D02*
X139264523Y-101893667D01*
X138693094Y-102179381D02*
X139026427Y-101179381D01*
X139359761Y-102179381D01*
X139597856Y-101179381D02*
X140264523Y-101179381D01*
X139835951Y-102179381D01*
X141074047Y-101179381D02*
X140883570Y-101179381D01*
X140788332Y-101227000D01*
X140740713Y-101274619D01*
X140645475Y-101417476D01*
X140597856Y-101607952D01*
X140597856Y-101988905D01*
X140645475Y-102084143D01*
X140693094Y-102131762D01*
X140788332Y-102179381D01*
X140978809Y-102179381D01*
X141074047Y-102131762D01*
X141121666Y-102084143D01*
X141169285Y-101988905D01*
X141169285Y-101750810D01*
X141121666Y-101655571D01*
X141074047Y-101607952D01*
X140978809Y-101560333D01*
X140788332Y-101560333D01*
X140693094Y-101607952D01*
X140645475Y-101655571D01*
X140597856Y-101750810D01*
X142026428Y-101179381D02*
X141835951Y-101179381D01*
X141740713Y-101227000D01*
X141693094Y-101274619D01*
X141597856Y-101417476D01*
X141550237Y-101607952D01*
X141550237Y-101988905D01*
X141597856Y-102084143D01*
X141645475Y-102131762D01*
X141740713Y-102179381D01*
X141931190Y-102179381D01*
X142026428Y-102131762D01*
X142074047Y-102084143D01*
X142121666Y-101988905D01*
X142121666Y-101750810D01*
X142074047Y-101655571D01*
X142026428Y-101607952D01*
X141931190Y-101560333D01*
X141740713Y-101560333D01*
X141645475Y-101607952D01*
X141597856Y-101655571D01*
X141550237Y-101750810D01*
X142740713Y-101179381D02*
X142835952Y-101179381D01*
X142931190Y-101227000D01*
X142978809Y-101274619D01*
X143026428Y-101369857D01*
X143074047Y-101560333D01*
X143074047Y-101798429D01*
X143026428Y-101988905D01*
X142978809Y-102084143D01*
X142931190Y-102131762D01*
X142835952Y-102179381D01*
X142740713Y-102179381D01*
X142645475Y-102131762D01*
X142597856Y-102084143D01*
X142550237Y-101988905D01*
X142502618Y-101798429D01*
X142502618Y-101560333D01*
X142550237Y-101369857D01*
X142597856Y-101274619D01*
X142645475Y-101227000D01*
X142740713Y-101179381D01*
X144597857Y-101655571D02*
X144740714Y-101703190D01*
X144788333Y-101750810D01*
X144835952Y-101846048D01*
X144835952Y-101988905D01*
X144788333Y-102084143D01*
X144740714Y-102131762D01*
X144645476Y-102179381D01*
X144264523Y-102179381D01*
X144264523Y-101179381D01*
X144597857Y-101179381D01*
X144693095Y-101227000D01*
X144740714Y-101274619D01*
X144788333Y-101369857D01*
X144788333Y-101465095D01*
X144740714Y-101560333D01*
X144693095Y-101607952D01*
X144597857Y-101655571D01*
X144264523Y-101655571D01*
X145264523Y-102179381D02*
X145264523Y-101512714D01*
X145264523Y-101703190D02*
X145312142Y-101607952D01*
X145359761Y-101560333D01*
X145454999Y-101512714D01*
X145550238Y-101512714D01*
X146264524Y-102131762D02*
X146169286Y-102179381D01*
X145978809Y-102179381D01*
X145883571Y-102131762D01*
X145835952Y-102036524D01*
X145835952Y-101655571D01*
X145883571Y-101560333D01*
X145978809Y-101512714D01*
X146169286Y-101512714D01*
X146264524Y-101560333D01*
X146312143Y-101655571D01*
X146312143Y-101750810D01*
X145835952Y-101846048D01*
X147169286Y-102179381D02*
X147169286Y-101655571D01*
X147121667Y-101560333D01*
X147026429Y-101512714D01*
X146835952Y-101512714D01*
X146740714Y-101560333D01*
X147169286Y-102131762D02*
X147074048Y-102179381D01*
X146835952Y-102179381D01*
X146740714Y-102131762D01*
X146693095Y-102036524D01*
X146693095Y-101941286D01*
X146740714Y-101846048D01*
X146835952Y-101798429D01*
X147074048Y-101798429D01*
X147169286Y-101750810D01*
X147645476Y-102179381D02*
X147645476Y-101179381D01*
X147740714Y-101798429D02*
X148026429Y-102179381D01*
X148026429Y-101512714D02*
X147645476Y-101893667D01*
X148597857Y-102179381D02*
X148502619Y-102131762D01*
X148455000Y-102084143D01*
X148407381Y-101988905D01*
X148407381Y-101703190D01*
X148455000Y-101607952D01*
X148502619Y-101560333D01*
X148597857Y-101512714D01*
X148740715Y-101512714D01*
X148835953Y-101560333D01*
X148883572Y-101607952D01*
X148931191Y-101703190D01*
X148931191Y-101988905D01*
X148883572Y-102084143D01*
X148835953Y-102131762D01*
X148740715Y-102179381D01*
X148597857Y-102179381D01*
X149788334Y-101512714D02*
X149788334Y-102179381D01*
X149359762Y-101512714D02*
X149359762Y-102036524D01*
X149407381Y-102131762D01*
X149502619Y-102179381D01*
X149645477Y-102179381D01*
X149740715Y-102131762D01*
X149788334Y-102084143D01*
X150121667Y-101512714D02*
X150502619Y-101512714D01*
X150264524Y-101179381D02*
X150264524Y-102036524D01*
X150312143Y-102131762D01*
X150407381Y-102179381D01*
X150502619Y-102179381D01*
X151931192Y-101655571D02*
X152074049Y-101703190D01*
X152121668Y-101750810D01*
X152169287Y-101846048D01*
X152169287Y-101988905D01*
X152121668Y-102084143D01*
X152074049Y-102131762D01*
X151978811Y-102179381D01*
X151597858Y-102179381D01*
X151597858Y-101179381D01*
X151931192Y-101179381D01*
X152026430Y-101227000D01*
X152074049Y-101274619D01*
X152121668Y-101369857D01*
X152121668Y-101465095D01*
X152074049Y-101560333D01*
X152026430Y-101607952D01*
X151931192Y-101655571D01*
X151597858Y-101655571D01*
X152740715Y-102179381D02*
X152645477Y-102131762D01*
X152597858Y-102084143D01*
X152550239Y-101988905D01*
X152550239Y-101703190D01*
X152597858Y-101607952D01*
X152645477Y-101560333D01*
X152740715Y-101512714D01*
X152883573Y-101512714D01*
X152978811Y-101560333D01*
X153026430Y-101607952D01*
X153074049Y-101703190D01*
X153074049Y-101988905D01*
X153026430Y-102084143D01*
X152978811Y-102131762D01*
X152883573Y-102179381D01*
X152740715Y-102179381D01*
X153931192Y-102179381D02*
X153931192Y-101655571D01*
X153883573Y-101560333D01*
X153788335Y-101512714D01*
X153597858Y-101512714D01*
X153502620Y-101560333D01*
X153931192Y-102131762D02*
X153835954Y-102179381D01*
X153597858Y-102179381D01*
X153502620Y-102131762D01*
X153455001Y-102036524D01*
X153455001Y-101941286D01*
X153502620Y-101846048D01*
X153597858Y-101798429D01*
X153835954Y-101798429D01*
X153931192Y-101750810D01*
X154407382Y-102179381D02*
X154407382Y-101512714D01*
X154407382Y-101703190D02*
X154455001Y-101607952D01*
X154502620Y-101560333D01*
X154597858Y-101512714D01*
X154693097Y-101512714D01*
X155455002Y-102179381D02*
X155455002Y-101179381D01*
X155455002Y-102131762D02*
X155359764Y-102179381D01*
X155169287Y-102179381D01*
X155074049Y-102131762D01*
X155026430Y-102084143D01*
X154978811Y-101988905D01*
X154978811Y-101703190D01*
X155026430Y-101607952D01*
X155074049Y-101560333D01*
X155169287Y-101512714D01*
X155359764Y-101512714D01*
X155455002Y-101560333D01*
X156597859Y-101512714D02*
X156835954Y-102179381D01*
X157074050Y-101512714D01*
X157978812Y-102179381D02*
X157407383Y-102179381D01*
X157693097Y-102179381D02*
X157693097Y-101179381D01*
X157597859Y-101322238D01*
X157502621Y-101417476D01*
X157407383Y-101465095D01*
X158407383Y-102084143D02*
X158455002Y-102131762D01*
X158407383Y-102179381D01*
X158359764Y-102131762D01*
X158407383Y-102084143D01*
X158407383Y-102179381D01*
X159407383Y-102179381D02*
X158835954Y-102179381D01*
X159121668Y-102179381D02*
X159121668Y-101179381D01*
X159026430Y-101322238D01*
X158931192Y-101417476D01*
X158835954Y-101465095D01*
D11*
X154813000Y-103378000D02*
X140970000Y-103378000D01*
X154813000Y-115062000D02*
X154813000Y-103505000D01*
X154813000Y-115062000D02*
X140970000Y-115062000D01*
X140970000Y-103378000D02*
X140970000Y-115062000D01*
X154178000Y-104632000D02*
X152146000Y-104632000D01*
X154178000Y-108188000D02*
X154178000Y-104632000D01*
X152146000Y-108188000D02*
X154178000Y-108188000D01*
X152146000Y-104632000D02*
X152146000Y-108188000D01*
X143526000Y-104648000D02*
X141494000Y-104648000D01*
X143526000Y-108204000D02*
X143526000Y-104648000D01*
X141494000Y-108204000D02*
X143526000Y-108204000D01*
X141494000Y-104648000D02*
X141494000Y-108204000D01*
X154723000Y-111953500D02*
X141023000Y-111953500D01*
X154723000Y-115478500D02*
X154723000Y-111953500D01*
X141023000Y-115478500D02*
X154723000Y-115478500D01*
X141023000Y-111978500D02*
X141023000Y-115478500D01*
D13*
X144964639Y-104176000D02*
G75*
G03X144964639Y-104176000I-90139J0D01*
G01*
D11*
X148574500Y-107626000D02*
X148574500Y-103926000D01*
X144274500Y-107626000D02*
X148574500Y-107626000D01*
X144274500Y-103926000D02*
X144274500Y-107626000D01*
X148574500Y-103926000D02*
X144274500Y-103926000D01*
X152060000Y-107811000D02*
X149160000Y-107811000D01*
X152060000Y-107811000D02*
X152060000Y-106311000D01*
X149160000Y-107811000D02*
X149160000Y-106311000D01*
X152060000Y-106311000D02*
X149160000Y-106311000D01*
X152060000Y-106160000D02*
X149160000Y-106160000D01*
X152060000Y-106160000D02*
X152060000Y-104660000D01*
X149160000Y-106160000D02*
X149160000Y-104660000D01*
X152060000Y-104660000D02*
X149160000Y-104660000D01*
D12*
X153519143Y-106576666D02*
X153566762Y-106624285D01*
X153614381Y-106767142D01*
X153614381Y-106862380D01*
X153566762Y-107005238D01*
X153471524Y-107100476D01*
X153376286Y-107148095D01*
X153185810Y-107195714D01*
X153042952Y-107195714D01*
X152852476Y-107148095D01*
X152757238Y-107100476D01*
X152662000Y-107005238D01*
X152614381Y-106862380D01*
X152614381Y-106767142D01*
X152662000Y-106624285D01*
X152709619Y-106576666D01*
X153614381Y-105624285D02*
X153614381Y-106195714D01*
X153614381Y-105910000D02*
X152614381Y-105910000D01*
X152757238Y-106005238D01*
X152852476Y-106100476D01*
X152900095Y-106195714D01*
X142867143Y-106592666D02*
X142914762Y-106640285D01*
X142962381Y-106783142D01*
X142962381Y-106878380D01*
X142914762Y-107021238D01*
X142819524Y-107116476D01*
X142724286Y-107164095D01*
X142533810Y-107211714D01*
X142390952Y-107211714D01*
X142200476Y-107164095D01*
X142105238Y-107116476D01*
X142010000Y-107021238D01*
X141962381Y-106878380D01*
X141962381Y-106783142D01*
X142010000Y-106640285D01*
X142057619Y-106592666D01*
X142057619Y-106211714D02*
X142010000Y-106164095D01*
X141962381Y-106068857D01*
X141962381Y-105830761D01*
X142010000Y-105735523D01*
X142057619Y-105687904D01*
X142152857Y-105640285D01*
X142248095Y-105640285D01*
X142390952Y-105687904D01*
X142962381Y-106259333D01*
X142962381Y-105640285D01*
X149039667Y-113130881D02*
X149039667Y-113845167D01*
X148992047Y-113988024D01*
X148896809Y-114083262D01*
X148753952Y-114130881D01*
X148658714Y-114130881D01*
X150039667Y-114130881D02*
X149468238Y-114130881D01*
X149753952Y-114130881D02*
X149753952Y-113130881D01*
X149658714Y-113273738D01*
X149563476Y-113368976D01*
X149468238Y-113416595D01*
X145662595Y-105228381D02*
X145662595Y-106037905D01*
X145710214Y-106133143D01*
X145757833Y-106180762D01*
X145853071Y-106228381D01*
X146043548Y-106228381D01*
X146138786Y-106180762D01*
X146186405Y-106133143D01*
X146234024Y-106037905D01*
X146234024Y-105228381D01*
X147234024Y-106228381D02*
X146662595Y-106228381D01*
X146948309Y-106228381D02*
X146948309Y-105228381D01*
X146853071Y-105371238D01*
X146757833Y-105466476D01*
X146662595Y-105514095D01*
X150386667Y-107382905D02*
X150120000Y-107001952D01*
X149929524Y-107382905D02*
X149929524Y-106582905D01*
X150234286Y-106582905D01*
X150310477Y-106621000D01*
X150348572Y-106659095D01*
X150386667Y-106735286D01*
X150386667Y-106849571D01*
X150348572Y-106925762D01*
X150310477Y-106963857D01*
X150234286Y-107001952D01*
X149929524Y-107001952D01*
X150691429Y-106659095D02*
X150729524Y-106621000D01*
X150805715Y-106582905D01*
X150996191Y-106582905D01*
X151072381Y-106621000D01*
X151110477Y-106659095D01*
X151148572Y-106735286D01*
X151148572Y-106811476D01*
X151110477Y-106925762D01*
X150653334Y-107382905D01*
X151148572Y-107382905D01*
X150386667Y-105731905D02*
X150120000Y-105350952D01*
X149929524Y-105731905D02*
X149929524Y-104931905D01*
X150234286Y-104931905D01*
X150310477Y-104970000D01*
X150348572Y-105008095D01*
X150386667Y-105084286D01*
X150386667Y-105198571D01*
X150348572Y-105274762D01*
X150310477Y-105312857D01*
X150234286Y-105350952D01*
X149929524Y-105350952D01*
X151148572Y-105731905D02*
X150691429Y-105731905D01*
X150920000Y-105731905D02*
X150920000Y-104931905D01*
X150843810Y-105046190D01*
X150767619Y-105122381D01*
X150691429Y-105160476D01*
M02*
