%TF.GenerationSoftware,KiCad,Pcbnew,4.0.5-e0-6337~49~ubuntu16.04.1*%
%TF.CreationDate,2017-02-07T11:01:34-08:00*%
%TF.ProjectId,neopixel-ws2812b-breakout,6E656F706978656C2D77733238313262,v1.0*%
%TF.FileFunction,Other,Fab,Top*%
%FSLAX46Y46*%
G04 Gerber Fmt 4.6, Leading zero omitted, Abs format (unit mm)*
G04 Created by KiCad (PCBNEW 4.0.5-e0-6337~49~ubuntu16.04.1) date Tue Feb  7 11:01:34 2017*
%MOMM*%
%LPD*%
G01*
G04 APERTURE LIST*
%ADD10C,0.350000*%
%ADD11C,0.203200*%
%ADD12C,0.200000*%
%ADD13C,0.050000*%
%ADD14C,0.400000*%
%ADD15C,0.046400*%
%ADD16C,0.150000*%
G04 APERTURE END LIST*
D10*
D11*
X145082381Y-115757476D02*
X145142857Y-115697000D01*
X145263809Y-115636524D01*
X145566190Y-115636524D01*
X145687143Y-115697000D01*
X145747619Y-115757476D01*
X145808095Y-115878429D01*
X145808095Y-115999381D01*
X145747619Y-116180810D01*
X145021905Y-116906524D01*
X145808095Y-116906524D01*
X147259524Y-115576048D02*
X146170952Y-117208905D01*
X147561905Y-115636524D02*
X148408571Y-115636524D01*
X147864286Y-116906524D01*
X149799524Y-115576048D02*
X148710952Y-117208905D01*
X150888095Y-116906524D02*
X150162381Y-116906524D01*
X150525238Y-116906524D02*
X150525238Y-115636524D01*
X150404286Y-115817952D01*
X150283333Y-115938905D01*
X150162381Y-115999381D01*
X151311429Y-115636524D02*
X152158095Y-115636524D01*
X151613810Y-116906524D01*
X141266333Y-90706424D02*
X140843000Y-90101662D01*
X140540619Y-90706424D02*
X140540619Y-89436424D01*
X141024428Y-89436424D01*
X141145381Y-89496900D01*
X141205857Y-89557376D01*
X141266333Y-89678329D01*
X141266333Y-89859757D01*
X141205857Y-89980710D01*
X141145381Y-90041186D01*
X141024428Y-90101662D01*
X140540619Y-90101662D01*
X142475857Y-89496900D02*
X142354905Y-89436424D01*
X142173476Y-89436424D01*
X141992048Y-89496900D01*
X141871095Y-89617852D01*
X141810619Y-89738805D01*
X141750143Y-89980710D01*
X141750143Y-90162138D01*
X141810619Y-90404043D01*
X141871095Y-90524995D01*
X141992048Y-90645948D01*
X142173476Y-90706424D01*
X142294428Y-90706424D01*
X142475857Y-90645948D01*
X142536333Y-90585471D01*
X142536333Y-90162138D01*
X142294428Y-90162138D01*
X143503952Y-90041186D02*
X143685381Y-90101662D01*
X143745857Y-90162138D01*
X143806333Y-90283090D01*
X143806333Y-90464519D01*
X143745857Y-90585471D01*
X143685381Y-90645948D01*
X143564428Y-90706424D01*
X143080619Y-90706424D01*
X143080619Y-89436424D01*
X143503952Y-89436424D01*
X143624905Y-89496900D01*
X143685381Y-89557376D01*
X143745857Y-89678329D01*
X143745857Y-89799281D01*
X143685381Y-89920233D01*
X143624905Y-89980710D01*
X143503952Y-90041186D01*
X143080619Y-90041186D01*
X144955381Y-89436424D02*
X144350619Y-89436424D01*
X144290143Y-90041186D01*
X144350619Y-89980710D01*
X144471571Y-89920233D01*
X144773952Y-89920233D01*
X144894905Y-89980710D01*
X144955381Y-90041186D01*
X145015857Y-90162138D01*
X145015857Y-90464519D01*
X144955381Y-90585471D01*
X144894905Y-90645948D01*
X144773952Y-90706424D01*
X144471571Y-90706424D01*
X144350619Y-90645948D01*
X144290143Y-90585471D01*
X145802048Y-89436424D02*
X145923000Y-89436424D01*
X146043952Y-89496900D01*
X146104429Y-89557376D01*
X146164905Y-89678329D01*
X146225381Y-89920233D01*
X146225381Y-90222614D01*
X146164905Y-90464519D01*
X146104429Y-90585471D01*
X146043952Y-90645948D01*
X145923000Y-90706424D01*
X145802048Y-90706424D01*
X145681095Y-90645948D01*
X145620619Y-90585471D01*
X145560143Y-90464519D01*
X145499667Y-90222614D01*
X145499667Y-89920233D01*
X145560143Y-89678329D01*
X145620619Y-89557376D01*
X145681095Y-89496900D01*
X145802048Y-89436424D01*
X147374429Y-89436424D02*
X146769667Y-89436424D01*
X146709191Y-90041186D01*
X146769667Y-89980710D01*
X146890619Y-89920233D01*
X147193000Y-89920233D01*
X147313953Y-89980710D01*
X147374429Y-90041186D01*
X147434905Y-90162138D01*
X147434905Y-90464519D01*
X147374429Y-90585471D01*
X147313953Y-90645948D01*
X147193000Y-90706424D01*
X146890619Y-90706424D01*
X146769667Y-90645948D01*
X146709191Y-90585471D01*
X148221096Y-89436424D02*
X148342048Y-89436424D01*
X148463000Y-89496900D01*
X148523477Y-89557376D01*
X148583953Y-89678329D01*
X148644429Y-89920233D01*
X148644429Y-90222614D01*
X148583953Y-90464519D01*
X148523477Y-90585471D01*
X148463000Y-90645948D01*
X148342048Y-90706424D01*
X148221096Y-90706424D01*
X148100143Y-90645948D01*
X148039667Y-90585471D01*
X147979191Y-90464519D01*
X147918715Y-90222614D01*
X147918715Y-89920233D01*
X147979191Y-89678329D01*
X148039667Y-89557376D01*
X148100143Y-89496900D01*
X148221096Y-89436424D01*
X150156334Y-90706424D02*
X150156334Y-89436424D01*
X150882048Y-90706424D01*
X150882048Y-89436424D01*
X151970619Y-90645948D02*
X151849667Y-90706424D01*
X151607762Y-90706424D01*
X151486810Y-90645948D01*
X151426334Y-90524995D01*
X151426334Y-90041186D01*
X151486810Y-89920233D01*
X151607762Y-89859757D01*
X151849667Y-89859757D01*
X151970619Y-89920233D01*
X152031096Y-90041186D01*
X152031096Y-90162138D01*
X151426334Y-90283090D01*
X152756810Y-90706424D02*
X152635857Y-90645948D01*
X152575381Y-90585471D01*
X152514905Y-90464519D01*
X152514905Y-90101662D01*
X152575381Y-89980710D01*
X152635857Y-89920233D01*
X152756810Y-89859757D01*
X152938238Y-89859757D01*
X153059190Y-89920233D01*
X153119667Y-89980710D01*
X153180143Y-90101662D01*
X153180143Y-90464519D01*
X153119667Y-90585471D01*
X153059190Y-90645948D01*
X152938238Y-90706424D01*
X152756810Y-90706424D01*
X153724429Y-89859757D02*
X153724429Y-91129757D01*
X153724429Y-89920233D02*
X153845381Y-89859757D01*
X154087286Y-89859757D01*
X154208238Y-89920233D01*
X154268715Y-89980710D01*
X154329191Y-90101662D01*
X154329191Y-90464519D01*
X154268715Y-90585471D01*
X154208238Y-90645948D01*
X154087286Y-90706424D01*
X153845381Y-90706424D01*
X153724429Y-90645948D01*
X154873477Y-90706424D02*
X154873477Y-89859757D01*
X154873477Y-89436424D02*
X154813001Y-89496900D01*
X154873477Y-89557376D01*
X154933953Y-89496900D01*
X154873477Y-89436424D01*
X154873477Y-89557376D01*
X155357287Y-90706424D02*
X156022525Y-89859757D01*
X155357287Y-89859757D02*
X156022525Y-90706424D01*
X156990143Y-90645948D02*
X156869191Y-90706424D01*
X156627286Y-90706424D01*
X156506334Y-90645948D01*
X156445858Y-90524995D01*
X156445858Y-90041186D01*
X156506334Y-89920233D01*
X156627286Y-89859757D01*
X156869191Y-89859757D01*
X156990143Y-89920233D01*
X157050620Y-90041186D01*
X157050620Y-90162138D01*
X156445858Y-90283090D01*
X157776334Y-90706424D02*
X157655381Y-90645948D01*
X157594905Y-90524995D01*
X157594905Y-89436424D01*
X143171333Y-92149386D02*
X143352762Y-92209862D01*
X143413238Y-92270338D01*
X143473714Y-92391290D01*
X143473714Y-92572719D01*
X143413238Y-92693671D01*
X143352762Y-92754148D01*
X143231809Y-92814624D01*
X142748000Y-92814624D01*
X142748000Y-91544624D01*
X143171333Y-91544624D01*
X143292286Y-91605100D01*
X143352762Y-91665576D01*
X143413238Y-91786529D01*
X143413238Y-91907481D01*
X143352762Y-92028433D01*
X143292286Y-92088910D01*
X143171333Y-92149386D01*
X142748000Y-92149386D01*
X144018000Y-92814624D02*
X144018000Y-91967957D01*
X144018000Y-92209862D02*
X144078476Y-92088910D01*
X144138952Y-92028433D01*
X144259905Y-91967957D01*
X144380857Y-91967957D01*
X145287999Y-92754148D02*
X145167047Y-92814624D01*
X144925142Y-92814624D01*
X144804190Y-92754148D01*
X144743714Y-92633195D01*
X144743714Y-92149386D01*
X144804190Y-92028433D01*
X144925142Y-91967957D01*
X145167047Y-91967957D01*
X145287999Y-92028433D01*
X145348476Y-92149386D01*
X145348476Y-92270338D01*
X144743714Y-92391290D01*
X146437047Y-92814624D02*
X146437047Y-92149386D01*
X146376570Y-92028433D01*
X146255618Y-91967957D01*
X146013713Y-91967957D01*
X145892761Y-92028433D01*
X146437047Y-92754148D02*
X146316094Y-92814624D01*
X146013713Y-92814624D01*
X145892761Y-92754148D01*
X145832285Y-92633195D01*
X145832285Y-92512243D01*
X145892761Y-92391290D01*
X146013713Y-92330814D01*
X146316094Y-92330814D01*
X146437047Y-92270338D01*
X147041809Y-92814624D02*
X147041809Y-91544624D01*
X147162761Y-92330814D02*
X147525618Y-92814624D01*
X147525618Y-91967957D02*
X147041809Y-92451767D01*
X148251333Y-92814624D02*
X148130380Y-92754148D01*
X148069904Y-92693671D01*
X148009428Y-92572719D01*
X148009428Y-92209862D01*
X148069904Y-92088910D01*
X148130380Y-92028433D01*
X148251333Y-91967957D01*
X148432761Y-91967957D01*
X148553713Y-92028433D01*
X148614190Y-92088910D01*
X148674666Y-92209862D01*
X148674666Y-92572719D01*
X148614190Y-92693671D01*
X148553713Y-92754148D01*
X148432761Y-92814624D01*
X148251333Y-92814624D01*
X149763238Y-91967957D02*
X149763238Y-92814624D01*
X149218952Y-91967957D02*
X149218952Y-92633195D01*
X149279428Y-92754148D01*
X149400381Y-92814624D01*
X149581809Y-92814624D01*
X149702761Y-92754148D01*
X149763238Y-92693671D01*
X150186571Y-91967957D02*
X150670381Y-91967957D01*
X150368000Y-91544624D02*
X150368000Y-92633195D01*
X150428476Y-92754148D01*
X150549429Y-92814624D01*
X150670381Y-92814624D01*
X151940381Y-91967957D02*
X152242762Y-92814624D01*
X152545142Y-91967957D01*
X153694190Y-92814624D02*
X152968476Y-92814624D01*
X153331333Y-92814624D02*
X153331333Y-91544624D01*
X153210381Y-91726052D01*
X153089428Y-91847005D01*
X152968476Y-91907481D01*
X154238476Y-92693671D02*
X154298952Y-92754148D01*
X154238476Y-92814624D01*
X154178000Y-92754148D01*
X154238476Y-92693671D01*
X154238476Y-92814624D01*
X155508476Y-92814624D02*
X154782762Y-92814624D01*
X155145619Y-92814624D02*
X155145619Y-91544624D01*
X155024667Y-91726052D01*
X154903714Y-91847005D01*
X154782762Y-91907481D01*
D12*
X144780000Y-93853000D02*
X152527000Y-93853000D01*
X144780000Y-114300000D02*
X144780000Y-93853000D01*
X152527000Y-114300000D02*
X144780000Y-114300000D01*
X152527000Y-93980000D02*
X152527000Y-114300000D01*
D13*
X145610000Y-113510000D02*
X151610000Y-113510000D01*
X145610000Y-113510000D02*
X145610000Y-110010000D01*
X151610000Y-110010000D02*
X145610000Y-110010000D01*
X151610000Y-113510000D02*
X151610000Y-110010000D01*
D14*
X150151548Y-111760000D02*
G75*
G03X150151548Y-111760000I-291548J0D01*
G01*
D13*
X145610000Y-98270000D02*
X151610000Y-98270000D01*
X145610000Y-98270000D02*
X145610000Y-94770000D01*
X151610000Y-94770000D02*
X145610000Y-94770000D01*
X151610000Y-98270000D02*
X151610000Y-94770000D01*
D14*
X150151548Y-96520000D02*
G75*
G03X150151548Y-96520000I-291548J0D01*
G01*
D13*
X148897000Y-108446000D02*
X145997000Y-108446000D01*
X148897000Y-108446000D02*
X148897000Y-106946000D01*
X145997000Y-108446000D02*
X145997000Y-106946000D01*
X148897000Y-106946000D02*
X145997000Y-106946000D01*
D15*
X146329400Y-99898200D02*
X144932400Y-101803200D01*
D13*
X146450514Y-101296200D02*
G75*
G03X146450514Y-101296200I-158114J0D01*
G01*
X144932400Y-101803200D02*
X144932400Y-105867200D01*
X152552400Y-99898200D02*
X146329400Y-99898200D01*
X152552400Y-105867200D02*
X152552400Y-99898200D01*
X144932400Y-105867200D02*
X152552400Y-105867200D01*
D16*
X148276667Y-111212381D02*
X148276667Y-111926667D01*
X148229047Y-112069524D01*
X148133809Y-112164762D01*
X147990952Y-112212381D01*
X147895714Y-112212381D01*
X149276667Y-112212381D02*
X148705238Y-112212381D01*
X148990952Y-112212381D02*
X148990952Y-111212381D01*
X148895714Y-111355238D01*
X148800476Y-111450476D01*
X148705238Y-111498095D01*
X148276667Y-95972381D02*
X148276667Y-96686667D01*
X148229047Y-96829524D01*
X148133809Y-96924762D01*
X147990952Y-96972381D01*
X147895714Y-96972381D01*
X148705238Y-96067619D02*
X148752857Y-96020000D01*
X148848095Y-95972381D01*
X149086191Y-95972381D01*
X149181429Y-96020000D01*
X149229048Y-96067619D01*
X149276667Y-96162857D01*
X149276667Y-96258095D01*
X149229048Y-96400952D01*
X148657619Y-96972381D01*
X149276667Y-96972381D01*
X147223667Y-108017905D02*
X146957000Y-107636952D01*
X146766524Y-108017905D02*
X146766524Y-107217905D01*
X147071286Y-107217905D01*
X147147477Y-107256000D01*
X147185572Y-107294095D01*
X147223667Y-107370286D01*
X147223667Y-107484571D01*
X147185572Y-107560762D01*
X147147477Y-107598857D01*
X147071286Y-107636952D01*
X146766524Y-107636952D01*
X147985572Y-108017905D02*
X147528429Y-108017905D01*
X147757000Y-108017905D02*
X147757000Y-107217905D01*
X147680810Y-107332190D01*
X147604619Y-107408381D01*
X147528429Y-107446476D01*
X147598353Y-103398581D02*
X147122162Y-103398581D01*
X147122162Y-102398581D01*
X147931686Y-102874771D02*
X148265020Y-102874771D01*
X148407877Y-103398581D02*
X147931686Y-103398581D01*
X147931686Y-102398581D01*
X148407877Y-102398581D01*
X148836448Y-103398581D02*
X148836448Y-102398581D01*
X149074543Y-102398581D01*
X149217401Y-102446200D01*
X149312639Y-102541438D01*
X149360258Y-102636676D01*
X149407877Y-102827152D01*
X149407877Y-102970010D01*
X149360258Y-103160486D01*
X149312639Y-103255724D01*
X149217401Y-103350962D01*
X149074543Y-103398581D01*
X148836448Y-103398581D01*
X150360258Y-103398581D02*
X149788829Y-103398581D01*
X150074543Y-103398581D02*
X150074543Y-102398581D01*
X149979305Y-102541438D01*
X149884067Y-102636676D01*
X149788829Y-102684295D01*
M02*
