%TF.GenerationSoftware,KiCad,Pcbnew,4.0.5-e0-6337~49~ubuntu16.04.1*%
%TF.CreationDate,2017-02-07T11:01:34-08:00*%
%TF.ProjectId,neopixel-ws2812b-breakout,6E656F706978656C2D77733238313262,v1.0*%
%TF.FileFunction,Legend,Top*%
%FSLAX46Y46*%
G04 Gerber Fmt 4.6, Leading zero omitted, Abs format (unit mm)*
G04 Created by KiCad (PCBNEW 4.0.5-e0-6337~49~ubuntu16.04.1) date Tue Feb  7 11:01:34 2017*
%MOMM*%
%LPD*%
G01*
G04 APERTURE LIST*
%ADD10C,0.350000*%
%ADD11C,0.203200*%
%ADD12C,0.150000*%
%ADD13C,0.050000*%
%ADD14C,0.152400*%
G04 APERTURE END LIST*
D10*
D11*
X149569715Y-99456119D02*
X149569715Y-98440119D01*
X149811620Y-98440119D01*
X149956762Y-98488500D01*
X150053524Y-98585262D01*
X150101905Y-98682024D01*
X150150286Y-98875548D01*
X150150286Y-99020690D01*
X150101905Y-99214214D01*
X150053524Y-99310976D01*
X149956762Y-99407738D01*
X149811620Y-99456119D01*
X149569715Y-99456119D01*
X150779239Y-98440119D02*
X150972762Y-98440119D01*
X151069524Y-98488500D01*
X151166286Y-98585262D01*
X151214667Y-98778786D01*
X151214667Y-99117452D01*
X151166286Y-99310976D01*
X151069524Y-99407738D01*
X150972762Y-99456119D01*
X150779239Y-99456119D01*
X150682477Y-99407738D01*
X150585715Y-99310976D01*
X150537334Y-99117452D01*
X150537334Y-98778786D01*
X150585715Y-98585262D01*
X150682477Y-98488500D01*
X150779239Y-98440119D01*
X146291905Y-98425000D02*
X146195143Y-98376619D01*
X146050000Y-98376619D01*
X145904858Y-98425000D01*
X145808096Y-98521762D01*
X145759715Y-98618524D01*
X145711334Y-98812048D01*
X145711334Y-98957190D01*
X145759715Y-99150714D01*
X145808096Y-99247476D01*
X145904858Y-99344238D01*
X146050000Y-99392619D01*
X146146762Y-99392619D01*
X146291905Y-99344238D01*
X146340286Y-99295857D01*
X146340286Y-98957190D01*
X146146762Y-98957190D01*
X146775715Y-99392619D02*
X146775715Y-98376619D01*
X147356286Y-99392619D01*
X147356286Y-98376619D01*
X147840096Y-99392619D02*
X147840096Y-98376619D01*
X148082001Y-98376619D01*
X148227143Y-98425000D01*
X148323905Y-98521762D01*
X148372286Y-98618524D01*
X148420667Y-98812048D01*
X148420667Y-98957190D01*
X148372286Y-99150714D01*
X148323905Y-99247476D01*
X148227143Y-99344238D01*
X148082001Y-99392619D01*
X147840096Y-99392619D01*
X146431000Y-109870119D02*
X146431000Y-108854119D01*
X146672905Y-108854119D01*
X146818047Y-108902500D01*
X146914809Y-108999262D01*
X146963190Y-109096024D01*
X147011571Y-109289548D01*
X147011571Y-109434690D01*
X146963190Y-109628214D01*
X146914809Y-109724976D01*
X146818047Y-109821738D01*
X146672905Y-109870119D01*
X146431000Y-109870119D01*
X147447000Y-109870119D02*
X147447000Y-108854119D01*
X149013334Y-108790619D02*
X149352001Y-109806619D01*
X149690667Y-108790619D01*
X150609905Y-109709857D02*
X150561524Y-109758238D01*
X150416381Y-109806619D01*
X150319619Y-109806619D01*
X150174477Y-109758238D01*
X150077715Y-109661476D01*
X150029334Y-109564714D01*
X149980953Y-109371190D01*
X149980953Y-109226048D01*
X150029334Y-109032524D01*
X150077715Y-108935762D01*
X150174477Y-108839000D01*
X150319619Y-108790619D01*
X150416381Y-108790619D01*
X150561524Y-108839000D01*
X150609905Y-108887381D01*
X151625905Y-109709857D02*
X151577524Y-109758238D01*
X151432381Y-109806619D01*
X151335619Y-109806619D01*
X151190477Y-109758238D01*
X151093715Y-109661476D01*
X151045334Y-109564714D01*
X150996953Y-109371190D01*
X150996953Y-109226048D01*
X151045334Y-109032524D01*
X151093715Y-108935762D01*
X151190477Y-108839000D01*
X151335619Y-108790619D01*
X151432381Y-108790619D01*
X151577524Y-108839000D01*
X151625905Y-108887381D01*
D12*
X148590000Y-113030000D02*
X146050000Y-113030000D01*
X151410000Y-113310000D02*
X149860000Y-113310000D01*
X148590000Y-113030000D02*
X148590000Y-110490000D01*
X149860000Y-110210000D02*
X151410000Y-110210000D01*
X151410000Y-110210000D02*
X151410000Y-113310000D01*
X148590000Y-110490000D02*
X146050000Y-110490000D01*
X146050000Y-110490000D02*
X146050000Y-113030000D01*
X148590000Y-97790000D02*
X146050000Y-97790000D01*
X151410000Y-98070000D02*
X149860000Y-98070000D01*
X148590000Y-97790000D02*
X148590000Y-95250000D01*
X149860000Y-94970000D02*
X151410000Y-94970000D01*
X151410000Y-94970000D02*
X151410000Y-98070000D01*
X148590000Y-95250000D02*
X146050000Y-95250000D01*
X146050000Y-95250000D02*
X146050000Y-97790000D01*
X147797000Y-108296000D02*
X147097000Y-108296000D01*
X147097000Y-107096000D02*
X147797000Y-107096000D01*
D13*
X145142400Y-101946200D02*
X145142400Y-100446200D01*
D14*
X151282400Y-103835200D02*
X151282400Y-102057200D01*
X146202400Y-100406200D02*
X151155400Y-100406200D01*
X151282400Y-105486200D02*
X146202400Y-105486200D01*
X146202400Y-103835200D02*
X146202400Y-102057200D01*
D12*
X150074334Y-108275381D02*
X149741000Y-107799190D01*
X149502905Y-108275381D02*
X149502905Y-107275381D01*
X149883858Y-107275381D01*
X149979096Y-107323000D01*
X150026715Y-107370619D01*
X150074334Y-107465857D01*
X150074334Y-107608714D01*
X150026715Y-107703952D01*
X149979096Y-107751571D01*
X149883858Y-107799190D01*
X149502905Y-107799190D01*
X151026715Y-108275381D02*
X150455286Y-108275381D01*
X150741000Y-108275381D02*
X150741000Y-107275381D01*
X150645762Y-107418238D01*
X150550524Y-107513476D01*
X150455286Y-107561095D01*
M02*
