%TF.GenerationSoftware,KiCad,Pcbnew,4.0.4+e1-6308~48~ubuntu16.04.1-stable*%
%TF.CreationDate,2017-01-04T17:26:24-08:00*%
%TF.ProjectId,sd-full-2041021-4-breakout,73642D66756C6C2D323034313032312D,v1.0*%
%TF.FileFunction,Other,Fab,Top*%
%FSLAX46Y46*%
G04 Gerber Fmt 4.6, Leading zero omitted, Abs format (unit mm)*
G04 Created by KiCad (PCBNEW 4.0.4+e1-6308~48~ubuntu16.04.1-stable) date Wed Jan  4 17:26:24 2017*
%MOMM*%
%LPD*%
G01*
G04 APERTURE LIST*
%ADD10C,0.350000*%
%ADD11C,0.152400*%
%ADD12C,0.050000*%
%ADD13C,0.040640*%
%ADD14C,0.254000*%
%ADD15C,0.050800*%
%ADD16C,0.150000*%
G04 APERTURE END LIST*
D10*
D11*
X137474476Y-94439619D02*
X136893905Y-94439619D01*
X137184191Y-94439619D02*
X137184191Y-93423619D01*
X137087429Y-93568762D01*
X136990667Y-93665524D01*
X136893905Y-93713905D01*
X138635619Y-93375238D02*
X137764762Y-94681524D01*
X139409714Y-93762286D02*
X139409714Y-94439619D01*
X139167810Y-93375238D02*
X138925905Y-94100952D01*
X139554857Y-94100952D01*
X140667619Y-93375238D02*
X139796762Y-94681524D01*
X141538476Y-94439619D02*
X140957905Y-94439619D01*
X141248191Y-94439619D02*
X141248191Y-93423619D01*
X141151429Y-93568762D01*
X141054667Y-93665524D01*
X140957905Y-93713905D01*
X141877143Y-93423619D02*
X142554476Y-93423619D01*
X142119048Y-94439619D01*
X119585621Y-62641238D02*
X119730764Y-62689619D01*
X119972668Y-62689619D01*
X120069430Y-62641238D01*
X120117811Y-62592857D01*
X120166192Y-62496095D01*
X120166192Y-62399333D01*
X120117811Y-62302571D01*
X120069430Y-62254190D01*
X119972668Y-62205810D01*
X119779145Y-62157429D01*
X119682383Y-62109048D01*
X119634002Y-62060667D01*
X119585621Y-61963905D01*
X119585621Y-61867143D01*
X119634002Y-61770381D01*
X119682383Y-61722000D01*
X119779145Y-61673619D01*
X120021049Y-61673619D01*
X120166192Y-61722000D01*
X120601621Y-62689619D02*
X120601621Y-61673619D01*
X120843526Y-61673619D01*
X120988668Y-61722000D01*
X121085430Y-61818762D01*
X121133811Y-61915524D01*
X121182192Y-62109048D01*
X121182192Y-62254190D01*
X121133811Y-62447714D01*
X121085430Y-62544476D01*
X120988668Y-62641238D01*
X120843526Y-62689619D01*
X120601621Y-62689619D01*
X122972287Y-62592857D02*
X122923906Y-62641238D01*
X122778763Y-62689619D01*
X122682001Y-62689619D01*
X122536859Y-62641238D01*
X122440097Y-62544476D01*
X122391716Y-62447714D01*
X122343335Y-62254190D01*
X122343335Y-62109048D01*
X122391716Y-61915524D01*
X122440097Y-61818762D01*
X122536859Y-61722000D01*
X122682001Y-61673619D01*
X122778763Y-61673619D01*
X122923906Y-61722000D01*
X122972287Y-61770381D01*
X123843144Y-62689619D02*
X123843144Y-62157429D01*
X123794763Y-62060667D01*
X123698001Y-62012286D01*
X123504478Y-62012286D01*
X123407716Y-62060667D01*
X123843144Y-62641238D02*
X123746382Y-62689619D01*
X123504478Y-62689619D01*
X123407716Y-62641238D01*
X123359335Y-62544476D01*
X123359335Y-62447714D01*
X123407716Y-62350952D01*
X123504478Y-62302571D01*
X123746382Y-62302571D01*
X123843144Y-62254190D01*
X124326954Y-62689619D02*
X124326954Y-62012286D01*
X124326954Y-62205810D02*
X124375335Y-62109048D01*
X124423716Y-62060667D01*
X124520478Y-62012286D01*
X124617239Y-62012286D01*
X125391334Y-62689619D02*
X125391334Y-61673619D01*
X125391334Y-62641238D02*
X125294572Y-62689619D01*
X125101049Y-62689619D01*
X125004287Y-62641238D01*
X124955906Y-62592857D01*
X124907525Y-62496095D01*
X124907525Y-62205810D01*
X124955906Y-62109048D01*
X125004287Y-62060667D01*
X125101049Y-62012286D01*
X125294572Y-62012286D01*
X125391334Y-62060667D01*
X126987905Y-62157429D02*
X127133048Y-62205810D01*
X127181429Y-62254190D01*
X127229810Y-62350952D01*
X127229810Y-62496095D01*
X127181429Y-62592857D01*
X127133048Y-62641238D01*
X127036286Y-62689619D01*
X126649239Y-62689619D01*
X126649239Y-61673619D01*
X126987905Y-61673619D01*
X127084667Y-61722000D01*
X127133048Y-61770381D01*
X127181429Y-61867143D01*
X127181429Y-61963905D01*
X127133048Y-62060667D01*
X127084667Y-62109048D01*
X126987905Y-62157429D01*
X126649239Y-62157429D01*
X127665239Y-62689619D02*
X127665239Y-62012286D01*
X127665239Y-62205810D02*
X127713620Y-62109048D01*
X127762001Y-62060667D01*
X127858763Y-62012286D01*
X127955524Y-62012286D01*
X128681238Y-62641238D02*
X128584476Y-62689619D01*
X128390953Y-62689619D01*
X128294191Y-62641238D01*
X128245810Y-62544476D01*
X128245810Y-62157429D01*
X128294191Y-62060667D01*
X128390953Y-62012286D01*
X128584476Y-62012286D01*
X128681238Y-62060667D01*
X128729619Y-62157429D01*
X128729619Y-62254190D01*
X128245810Y-62350952D01*
X129600476Y-62689619D02*
X129600476Y-62157429D01*
X129552095Y-62060667D01*
X129455333Y-62012286D01*
X129261810Y-62012286D01*
X129165048Y-62060667D01*
X129600476Y-62641238D02*
X129503714Y-62689619D01*
X129261810Y-62689619D01*
X129165048Y-62641238D01*
X129116667Y-62544476D01*
X129116667Y-62447714D01*
X129165048Y-62350952D01*
X129261810Y-62302571D01*
X129503714Y-62302571D01*
X129600476Y-62254190D01*
X130084286Y-62689619D02*
X130084286Y-61673619D01*
X130181048Y-62302571D02*
X130471333Y-62689619D01*
X130471333Y-62012286D02*
X130084286Y-62399333D01*
X131051905Y-62689619D02*
X130955143Y-62641238D01*
X130906762Y-62592857D01*
X130858381Y-62496095D01*
X130858381Y-62205810D01*
X130906762Y-62109048D01*
X130955143Y-62060667D01*
X131051905Y-62012286D01*
X131197047Y-62012286D01*
X131293809Y-62060667D01*
X131342190Y-62109048D01*
X131390571Y-62205810D01*
X131390571Y-62496095D01*
X131342190Y-62592857D01*
X131293809Y-62641238D01*
X131197047Y-62689619D01*
X131051905Y-62689619D01*
X132261428Y-62012286D02*
X132261428Y-62689619D01*
X131826000Y-62012286D02*
X131826000Y-62544476D01*
X131874381Y-62641238D01*
X131971143Y-62689619D01*
X132116285Y-62689619D01*
X132213047Y-62641238D01*
X132261428Y-62592857D01*
X132600095Y-62012286D02*
X132987143Y-62012286D01*
X132745238Y-61673619D02*
X132745238Y-62544476D01*
X132793619Y-62641238D01*
X132890381Y-62689619D01*
X132987143Y-62689619D01*
X134438570Y-62157429D02*
X134583713Y-62205810D01*
X134632094Y-62254190D01*
X134680475Y-62350952D01*
X134680475Y-62496095D01*
X134632094Y-62592857D01*
X134583713Y-62641238D01*
X134486951Y-62689619D01*
X134099904Y-62689619D01*
X134099904Y-61673619D01*
X134438570Y-61673619D01*
X134535332Y-61722000D01*
X134583713Y-61770381D01*
X134632094Y-61867143D01*
X134632094Y-61963905D01*
X134583713Y-62060667D01*
X134535332Y-62109048D01*
X134438570Y-62157429D01*
X134099904Y-62157429D01*
X135261047Y-62689619D02*
X135164285Y-62641238D01*
X135115904Y-62592857D01*
X135067523Y-62496095D01*
X135067523Y-62205810D01*
X135115904Y-62109048D01*
X135164285Y-62060667D01*
X135261047Y-62012286D01*
X135406189Y-62012286D01*
X135502951Y-62060667D01*
X135551332Y-62109048D01*
X135599713Y-62205810D01*
X135599713Y-62496095D01*
X135551332Y-62592857D01*
X135502951Y-62641238D01*
X135406189Y-62689619D01*
X135261047Y-62689619D01*
X136470570Y-62689619D02*
X136470570Y-62157429D01*
X136422189Y-62060667D01*
X136325427Y-62012286D01*
X136131904Y-62012286D01*
X136035142Y-62060667D01*
X136470570Y-62641238D02*
X136373808Y-62689619D01*
X136131904Y-62689619D01*
X136035142Y-62641238D01*
X135986761Y-62544476D01*
X135986761Y-62447714D01*
X136035142Y-62350952D01*
X136131904Y-62302571D01*
X136373808Y-62302571D01*
X136470570Y-62254190D01*
X136954380Y-62689619D02*
X136954380Y-62012286D01*
X136954380Y-62205810D02*
X137002761Y-62109048D01*
X137051142Y-62060667D01*
X137147904Y-62012286D01*
X137244665Y-62012286D01*
X138018760Y-62689619D02*
X138018760Y-61673619D01*
X138018760Y-62641238D02*
X137921998Y-62689619D01*
X137728475Y-62689619D01*
X137631713Y-62641238D01*
X137583332Y-62592857D01*
X137534951Y-62496095D01*
X137534951Y-62205810D01*
X137583332Y-62109048D01*
X137631713Y-62060667D01*
X137728475Y-62012286D01*
X137921998Y-62012286D01*
X138018760Y-62060667D01*
X139179903Y-62012286D02*
X139421808Y-62689619D01*
X139663712Y-62012286D01*
X140582950Y-62689619D02*
X140002379Y-62689619D01*
X140292665Y-62689619D02*
X140292665Y-61673619D01*
X140195903Y-61818762D01*
X140099141Y-61915524D01*
X140002379Y-61963905D01*
X141018379Y-62592857D02*
X141066760Y-62641238D01*
X141018379Y-62689619D01*
X140969998Y-62641238D01*
X141018379Y-62592857D01*
X141018379Y-62689619D01*
X141695713Y-61673619D02*
X141792474Y-61673619D01*
X141889236Y-61722000D01*
X141937617Y-61770381D01*
X141985998Y-61867143D01*
X142034379Y-62060667D01*
X142034379Y-62302571D01*
X141985998Y-62496095D01*
X141937617Y-62592857D01*
X141889236Y-62641238D01*
X141792474Y-62689619D01*
X141695713Y-62689619D01*
X141598951Y-62641238D01*
X141550570Y-62592857D01*
X141502189Y-62496095D01*
X141453808Y-62302571D01*
X141453808Y-62060667D01*
X141502189Y-61867143D01*
X141550570Y-61770381D01*
X141598951Y-61722000D01*
X141695713Y-61673619D01*
X142240000Y-64770000D02*
X142240000Y-91440000D01*
X140970000Y-92710000D02*
G75*
G03X142240000Y-91440000I0J1270000D01*
G01*
X142240000Y-64770000D02*
G75*
G03X140970000Y-63500000I-1270000J0D01*
G01*
X140970000Y-63500000D02*
X100330000Y-63500000D01*
X100330000Y-92710000D02*
X140970000Y-92710000D01*
X97790000Y-90170000D02*
G75*
G03X100330000Y-92710000I2540000J0D01*
G01*
X97790000Y-66040000D02*
X97790000Y-90170000D01*
X100330000Y-63500000D02*
G75*
G03X97790000Y-66040000I0J-2540000D01*
G01*
D12*
X108192000Y-85152000D02*
X108192000Y-88052000D01*
X108192000Y-85152000D02*
X106692000Y-85152000D01*
X108192000Y-88052000D02*
X106692000Y-88052000D01*
X106692000Y-85152000D02*
X106692000Y-88052000D01*
X106258000Y-81038000D02*
X109158000Y-81038000D01*
X106258000Y-81038000D02*
X106258000Y-82538000D01*
X109158000Y-81038000D02*
X109158000Y-82538000D01*
X106258000Y-82538000D02*
X109158000Y-82538000D01*
X106258000Y-69862000D02*
X109158000Y-69862000D01*
X106258000Y-69862000D02*
X106258000Y-71362000D01*
X109158000Y-69862000D02*
X109158000Y-71362000D01*
X106258000Y-71362000D02*
X109158000Y-71362000D01*
X112026000Y-88064000D02*
X112026000Y-85164000D01*
X112026000Y-88064000D02*
X113526000Y-88064000D01*
X112026000Y-85164000D02*
X113526000Y-85164000D01*
X113526000Y-88064000D02*
X113526000Y-85164000D01*
X101826000Y-88110000D02*
X101826000Y-71910000D01*
X101836000Y-88100000D02*
X98336000Y-88100000D01*
X98346000Y-88120000D02*
X98346000Y-71920000D01*
X101846000Y-71930000D02*
X98346000Y-71930000D01*
D13*
X114802000Y-92132000D02*
X114802000Y-66732000D01*
X142742000Y-92132000D02*
X114802000Y-92132000D01*
X142742000Y-64192000D02*
X142742000Y-92132000D01*
X123692000Y-64192000D02*
X142742000Y-64192000D01*
X121152000Y-66732000D02*
X123692000Y-64192000D01*
X114802000Y-66732000D02*
X121152000Y-66732000D01*
X108648500Y-88204000D02*
X111315500Y-88204000D01*
X108648500Y-85156000D02*
X108648500Y-88204000D01*
X111315500Y-85156000D02*
X108648500Y-85156000D01*
X111315500Y-88204000D02*
X111315500Y-85156000D01*
D14*
X113189213Y-80000000D02*
G75*
G03X113189213Y-80000000I-223607J0D01*
G01*
D15*
X113942000Y-81000000D02*
X113942000Y-80900000D01*
X106342000Y-81000000D02*
X113942000Y-81000000D01*
X106342000Y-71500000D02*
X106342000Y-81000000D01*
X113942000Y-71500000D02*
X106342000Y-71500000D01*
X113942000Y-80900000D02*
X113942000Y-71500000D01*
D16*
X107687714Y-86825333D02*
X107725810Y-86863428D01*
X107763905Y-86977714D01*
X107763905Y-87053904D01*
X107725810Y-87168190D01*
X107649619Y-87244381D01*
X107573429Y-87282476D01*
X107421048Y-87320571D01*
X107306762Y-87320571D01*
X107154381Y-87282476D01*
X107078190Y-87244381D01*
X107002000Y-87168190D01*
X106963905Y-87053904D01*
X106963905Y-86977714D01*
X107002000Y-86863428D01*
X107040095Y-86825333D01*
X107763905Y-86063428D02*
X107763905Y-86520571D01*
X107763905Y-86292000D02*
X106963905Y-86292000D01*
X107078190Y-86368190D01*
X107154381Y-86444381D01*
X107192476Y-86520571D01*
X107664667Y-82113714D02*
X107626572Y-82151810D01*
X107512286Y-82189905D01*
X107436096Y-82189905D01*
X107321810Y-82151810D01*
X107245619Y-82075619D01*
X107207524Y-81999429D01*
X107169429Y-81847048D01*
X107169429Y-81732762D01*
X107207524Y-81580381D01*
X107245619Y-81504190D01*
X107321810Y-81428000D01*
X107436096Y-81389905D01*
X107512286Y-81389905D01*
X107626572Y-81428000D01*
X107664667Y-81466095D01*
X107969429Y-81466095D02*
X108007524Y-81428000D01*
X108083715Y-81389905D01*
X108274191Y-81389905D01*
X108350381Y-81428000D01*
X108388477Y-81466095D01*
X108426572Y-81542286D01*
X108426572Y-81618476D01*
X108388477Y-81732762D01*
X107931334Y-82189905D01*
X108426572Y-82189905D01*
X107664667Y-70937714D02*
X107626572Y-70975810D01*
X107512286Y-71013905D01*
X107436096Y-71013905D01*
X107321810Y-70975810D01*
X107245619Y-70899619D01*
X107207524Y-70823429D01*
X107169429Y-70671048D01*
X107169429Y-70556762D01*
X107207524Y-70404381D01*
X107245619Y-70328190D01*
X107321810Y-70252000D01*
X107436096Y-70213905D01*
X107512286Y-70213905D01*
X107626572Y-70252000D01*
X107664667Y-70290095D01*
X107931334Y-70213905D02*
X108426572Y-70213905D01*
X108159905Y-70518667D01*
X108274191Y-70518667D01*
X108350381Y-70556762D01*
X108388477Y-70594857D01*
X108426572Y-70671048D01*
X108426572Y-70861524D01*
X108388477Y-70937714D01*
X108350381Y-70975810D01*
X108274191Y-71013905D01*
X108045619Y-71013905D01*
X107969429Y-70975810D01*
X107931334Y-70937714D01*
X113101714Y-86657333D02*
X113139810Y-86695428D01*
X113177905Y-86809714D01*
X113177905Y-86885904D01*
X113139810Y-87000190D01*
X113063619Y-87076381D01*
X112987429Y-87114476D01*
X112835048Y-87152571D01*
X112720762Y-87152571D01*
X112568381Y-87114476D01*
X112492190Y-87076381D01*
X112416000Y-87000190D01*
X112377905Y-86885904D01*
X112377905Y-86809714D01*
X112416000Y-86695428D01*
X112454095Y-86657333D01*
X112644571Y-85971619D02*
X113177905Y-85971619D01*
X112339810Y-86162095D02*
X112911238Y-86352571D01*
X112911238Y-85857333D01*
D14*
X98973238Y-80687333D02*
X100424667Y-80687333D01*
X100714952Y-80784095D01*
X100908476Y-80977619D01*
X101005238Y-81267904D01*
X101005238Y-81461428D01*
X101005238Y-78655334D02*
X101005238Y-79816476D01*
X101005238Y-79235905D02*
X98973238Y-79235905D01*
X99263524Y-79429429D01*
X99457048Y-79622953D01*
X99553810Y-79816476D01*
D16*
X128224381Y-78495333D02*
X128938667Y-78495333D01*
X129081524Y-78542953D01*
X129176762Y-78638191D01*
X129224381Y-78781048D01*
X129224381Y-78876286D01*
X128319619Y-78066762D02*
X128272000Y-78019143D01*
X128224381Y-77923905D01*
X128224381Y-77685809D01*
X128272000Y-77590571D01*
X128319619Y-77542952D01*
X128414857Y-77495333D01*
X128510095Y-77495333D01*
X128652952Y-77542952D01*
X129224381Y-78114381D01*
X129224381Y-77495333D01*
X109434381Y-87441905D02*
X110243905Y-87441905D01*
X110339143Y-87394286D01*
X110386762Y-87346667D01*
X110434381Y-87251429D01*
X110434381Y-87060952D01*
X110386762Y-86965714D01*
X110339143Y-86918095D01*
X110243905Y-86870476D01*
X109434381Y-86870476D01*
X110434381Y-85870476D02*
X110434381Y-86441905D01*
X110434381Y-86156191D02*
X109434381Y-86156191D01*
X109577238Y-86251429D01*
X109672476Y-86346667D01*
X109720095Y-86441905D01*
X109594381Y-76861905D02*
X110403905Y-76861905D01*
X110499143Y-76814286D01*
X110546762Y-76766667D01*
X110594381Y-76671429D01*
X110594381Y-76480952D01*
X110546762Y-76385714D01*
X110499143Y-76338095D01*
X110403905Y-76290476D01*
X109594381Y-76290476D01*
X109689619Y-75861905D02*
X109642000Y-75814286D01*
X109594381Y-75719048D01*
X109594381Y-75480952D01*
X109642000Y-75385714D01*
X109689619Y-75338095D01*
X109784857Y-75290476D01*
X109880095Y-75290476D01*
X110022952Y-75338095D01*
X110594381Y-75909524D01*
X110594381Y-75290476D01*
M02*
