%TF.GenerationSoftware,KiCad,Pcbnew,4.0.4+e1-6308~48~ubuntu16.04.1-stable*%
%TF.CreationDate,2017-01-04T17:26:24-08:00*%
%TF.ProjectId,sd-full-2041021-4-breakout,73642D66756C6C2D323034313032312D,v1.0*%
%TF.FileFunction,Paste,Top*%
%FSLAX46Y46*%
G04 Gerber Fmt 4.6, Leading zero omitted, Abs format (unit mm)*
G04 Created by KiCad (PCBNEW 4.0.4+e1-6308~48~ubuntu16.04.1-stable) date Wed Jan  4 17:26:24 2017*
%MOMM*%
%LPD*%
G01*
G04 APERTURE LIST*
%ADD10C,0.350000*%
%ADD11R,0.597600X0.647600*%
%ADD12R,0.647600X0.597600*%
%ADD13R,1.347600X0.847600*%
%ADD14R,1.347600X0.547600*%
%ADD15R,2.647600X1.347600*%
%ADD16R,0.267600X0.447600*%
%ADD17R,1.347600X0.447600*%
G04 APERTURE END LIST*
D10*
D11*
X107442000Y-85852000D03*
X107442000Y-87352000D03*
D12*
X106958000Y-81788000D03*
X108458000Y-81788000D03*
X106958000Y-70612000D03*
X108458000Y-70612000D03*
D11*
X112776000Y-87364000D03*
X112776000Y-85864000D03*
D13*
X116072000Y-71287000D03*
X116072000Y-73787000D03*
X116072000Y-76287000D03*
X116072000Y-78787000D03*
X116072000Y-81287000D03*
X116072000Y-83787000D03*
X116072000Y-86217000D03*
X116072000Y-87917000D03*
X116072000Y-68787000D03*
D14*
X116072000Y-89217000D03*
X116072000Y-90417000D03*
D15*
X117872000Y-66712000D03*
X139372000Y-64512000D03*
X139372000Y-91812000D03*
X117872000Y-91812000D03*
D16*
X110632000Y-85730000D03*
X109332000Y-85730000D03*
X110632000Y-87630000D03*
X109982000Y-85730000D03*
X109332000Y-87630000D03*
D17*
X112842000Y-80010000D03*
X112842000Y-78740000D03*
X112842000Y-77470000D03*
X112842000Y-76200000D03*
X112842000Y-74930000D03*
X112842000Y-73660000D03*
X112842000Y-72390000D03*
X107442000Y-72390000D03*
X107442000Y-73660000D03*
X107442000Y-74930000D03*
X107442000Y-76200000D03*
X107442000Y-77470000D03*
X107442000Y-78740000D03*
X107442000Y-80010000D03*
M02*
