%TF.GenerationSoftware,KiCad,Pcbnew,4.0.4+e1-6308~48~ubuntu16.04.1-stable*%
%TF.CreationDate,2017-01-04T17:26:24-08:00*%
%TF.ProjectId,sd-full-2041021-4-breakout,73642D66756C6C2D323034313032312D,v1.0*%
%TF.FileFunction,Legend,Top*%
%FSLAX46Y46*%
G04 Gerber Fmt 4.6, Leading zero omitted, Abs format (unit mm)*
G04 Created by KiCad (PCBNEW 4.0.4+e1-6308~48~ubuntu16.04.1-stable) date Wed Jan  4 17:26:24 2017*
%MOMM*%
%LPD*%
G01*
G04 APERTURE LIST*
%ADD10C,0.350000*%
%ADD11C,0.152400*%
%ADD12C,0.150000*%
%ADD13C,0.120000*%
G04 APERTURE END LIST*
D10*
D11*
X101817715Y-85803619D02*
X102156382Y-86819619D01*
X102495048Y-85803619D01*
X102833715Y-86819619D02*
X102833715Y-85803619D01*
X103317525Y-86819619D02*
X103317525Y-85803619D01*
X103898096Y-86819619D01*
X103898096Y-85803619D01*
X101962858Y-84279619D02*
X101962858Y-83263619D01*
X102301524Y-83989333D01*
X102640191Y-83263619D01*
X102640191Y-84279619D01*
X103124001Y-84279619D02*
X103124001Y-83263619D01*
X103559430Y-84231238D02*
X103704573Y-84279619D01*
X103946477Y-84279619D01*
X104043239Y-84231238D01*
X104091620Y-84182857D01*
X104140001Y-84086095D01*
X104140001Y-83989333D01*
X104091620Y-83892571D01*
X104043239Y-83844190D01*
X103946477Y-83795810D01*
X103752954Y-83747429D01*
X103656192Y-83699048D01*
X103607811Y-83650667D01*
X103559430Y-83553905D01*
X103559430Y-83457143D01*
X103607811Y-83360381D01*
X103656192Y-83312000D01*
X103752954Y-83263619D01*
X103994858Y-83263619D01*
X104140001Y-83312000D01*
X104768954Y-83263619D02*
X104962477Y-83263619D01*
X105059239Y-83312000D01*
X105156001Y-83408762D01*
X105204382Y-83602286D01*
X105204382Y-83940952D01*
X105156001Y-84134476D01*
X105059239Y-84231238D01*
X104962477Y-84279619D01*
X104768954Y-84279619D01*
X104672192Y-84231238D01*
X104575430Y-84134476D01*
X104527049Y-83940952D01*
X104527049Y-83602286D01*
X104575430Y-83408762D01*
X104672192Y-83312000D01*
X104768954Y-83263619D01*
X101914477Y-81691238D02*
X102059620Y-81739619D01*
X102301524Y-81739619D01*
X102398286Y-81691238D01*
X102446667Y-81642857D01*
X102495048Y-81546095D01*
X102495048Y-81449333D01*
X102446667Y-81352571D01*
X102398286Y-81304190D01*
X102301524Y-81255810D01*
X102108001Y-81207429D01*
X102011239Y-81159048D01*
X101962858Y-81110667D01*
X101914477Y-81013905D01*
X101914477Y-80917143D01*
X101962858Y-80820381D01*
X102011239Y-80772000D01*
X102108001Y-80723619D01*
X102349905Y-80723619D01*
X102495048Y-80772000D01*
X103511048Y-81642857D02*
X103462667Y-81691238D01*
X103317524Y-81739619D01*
X103220762Y-81739619D01*
X103075620Y-81691238D01*
X102978858Y-81594476D01*
X102930477Y-81497714D01*
X102882096Y-81304190D01*
X102882096Y-81159048D01*
X102930477Y-80965524D01*
X102978858Y-80868762D01*
X103075620Y-80772000D01*
X103220762Y-80723619D01*
X103317524Y-80723619D01*
X103462667Y-80772000D01*
X103511048Y-80820381D01*
X104430286Y-81739619D02*
X103946477Y-81739619D01*
X103946477Y-80723619D01*
X104768953Y-81739619D02*
X104768953Y-80723619D01*
X105349524Y-81739619D02*
X104914096Y-81159048D01*
X105349524Y-80723619D02*
X104768953Y-81304190D01*
X101962858Y-79199619D02*
X101962858Y-78183619D01*
X102301524Y-78909333D01*
X102640191Y-78183619D01*
X102640191Y-79199619D01*
X103317525Y-78183619D02*
X103511048Y-78183619D01*
X103607810Y-78232000D01*
X103704572Y-78328762D01*
X103752953Y-78522286D01*
X103752953Y-78860952D01*
X103704572Y-79054476D01*
X103607810Y-79151238D01*
X103511048Y-79199619D01*
X103317525Y-79199619D01*
X103220763Y-79151238D01*
X103124001Y-79054476D01*
X103075620Y-78860952D01*
X103075620Y-78522286D01*
X103124001Y-78328762D01*
X103220763Y-78232000D01*
X103317525Y-78183619D01*
X104140001Y-79151238D02*
X104285144Y-79199619D01*
X104527048Y-79199619D01*
X104623810Y-79151238D01*
X104672191Y-79102857D01*
X104720572Y-79006095D01*
X104720572Y-78909333D01*
X104672191Y-78812571D01*
X104623810Y-78764190D01*
X104527048Y-78715810D01*
X104333525Y-78667429D01*
X104236763Y-78619048D01*
X104188382Y-78570667D01*
X104140001Y-78473905D01*
X104140001Y-78377143D01*
X104188382Y-78280381D01*
X104236763Y-78232000D01*
X104333525Y-78183619D01*
X104575429Y-78183619D01*
X104720572Y-78232000D01*
X105156001Y-79199619D02*
X105156001Y-78183619D01*
X102543429Y-76562857D02*
X102495048Y-76611238D01*
X102349905Y-76659619D01*
X102253143Y-76659619D01*
X102108001Y-76611238D01*
X102011239Y-76514476D01*
X101962858Y-76417714D01*
X101914477Y-76224190D01*
X101914477Y-76079048D01*
X101962858Y-75885524D01*
X102011239Y-75788762D01*
X102108001Y-75692000D01*
X102253143Y-75643619D01*
X102349905Y-75643619D01*
X102495048Y-75692000D01*
X102543429Y-75740381D01*
X102930477Y-76611238D02*
X103075620Y-76659619D01*
X103317524Y-76659619D01*
X103414286Y-76611238D01*
X103462667Y-76562857D01*
X103511048Y-76466095D01*
X103511048Y-76369333D01*
X103462667Y-76272571D01*
X103414286Y-76224190D01*
X103317524Y-76175810D01*
X103124001Y-76127429D01*
X103027239Y-76079048D01*
X102978858Y-76030667D01*
X102930477Y-75933905D01*
X102930477Y-75837143D01*
X102978858Y-75740381D01*
X103027239Y-75692000D01*
X103124001Y-75643619D01*
X103365905Y-75643619D01*
X103511048Y-75692000D01*
X102495048Y-73152000D02*
X102398286Y-73103619D01*
X102253143Y-73103619D01*
X102108001Y-73152000D01*
X102011239Y-73248762D01*
X101962858Y-73345524D01*
X101914477Y-73539048D01*
X101914477Y-73684190D01*
X101962858Y-73877714D01*
X102011239Y-73974476D01*
X102108001Y-74071238D01*
X102253143Y-74119619D01*
X102349905Y-74119619D01*
X102495048Y-74071238D01*
X102543429Y-74022857D01*
X102543429Y-73684190D01*
X102349905Y-73684190D01*
X102978858Y-74119619D02*
X102978858Y-73103619D01*
X103559429Y-74119619D01*
X103559429Y-73103619D01*
X104043239Y-74119619D02*
X104043239Y-73103619D01*
X104285144Y-73103619D01*
X104430286Y-73152000D01*
X104527048Y-73248762D01*
X104575429Y-73345524D01*
X104623810Y-73539048D01*
X104623810Y-73684190D01*
X104575429Y-73877714D01*
X104527048Y-73974476D01*
X104430286Y-74071238D01*
X104285144Y-74119619D01*
X104043239Y-74119619D01*
X108077000Y-85205000D02*
X106807000Y-85205000D01*
X108077000Y-87935500D02*
X106807000Y-87935500D01*
D12*
X108077000Y-85205000D02*
X108077000Y-87935500D01*
X106807000Y-87935500D02*
X106807000Y-85205000D01*
D11*
X106311000Y-81153000D02*
X106311000Y-82423000D01*
X109041500Y-81153000D02*
X109041500Y-82423000D01*
D12*
X106311000Y-81153000D02*
X109041500Y-81153000D01*
X109041500Y-82423000D02*
X106311000Y-82423000D01*
D11*
X106311000Y-69977000D02*
X106311000Y-71247000D01*
X109041500Y-69977000D02*
X109041500Y-71247000D01*
D12*
X106311000Y-69977000D02*
X109041500Y-69977000D01*
X109041500Y-71247000D02*
X106311000Y-71247000D01*
D11*
X112141000Y-88011000D02*
X113411000Y-88011000D01*
X112141000Y-85280500D02*
X113411000Y-85280500D01*
D12*
X112141000Y-88011000D02*
X112141000Y-85280500D01*
X113411000Y-85280500D02*
X113411000Y-88011000D01*
X98806000Y-85090000D02*
X98806000Y-72390000D01*
X98806000Y-72390000D02*
X101346000Y-72390000D01*
X101346000Y-72390000D02*
X101346000Y-85090000D01*
X98526000Y-87910000D02*
X98526000Y-86360000D01*
X98806000Y-85090000D02*
X101346000Y-85090000D01*
X101626000Y-86360000D02*
X101626000Y-87910000D01*
X101626000Y-87910000D02*
X98526000Y-87910000D01*
D13*
X141872000Y-64362000D02*
X141072000Y-64362000D01*
X141872000Y-91762000D02*
X141872000Y-64362000D01*
X141072000Y-91762000D02*
X141872000Y-91762000D01*
X119672000Y-91762000D02*
X137672000Y-91762000D01*
X124072000Y-64362000D02*
X137672000Y-64362000D01*
X121672000Y-66762000D02*
X124072000Y-64362000D01*
X119672000Y-66762000D02*
X121672000Y-66762000D01*
X115072000Y-66762000D02*
X116072000Y-66762000D01*
X115072000Y-91762000D02*
X115072000Y-66762000D01*
X116072000Y-91762000D02*
X115072000Y-91762000D01*
X111142000Y-87380000D02*
X111142000Y-85480000D01*
X108822000Y-85980000D02*
X108822000Y-87380000D01*
D12*
X108067000Y-80650000D02*
X108067000Y-80535000D01*
X108067000Y-71750000D02*
X108067000Y-71865000D01*
X112217000Y-71750000D02*
X112217000Y-71865000D01*
X112217000Y-80650000D02*
X108067000Y-80650000D01*
X112217000Y-71750000D02*
X108067000Y-71750000D01*
X112217000Y-80650000D02*
X113592000Y-80650000D01*
X107402334Y-89384143D02*
X107354715Y-89431762D01*
X107211858Y-89479381D01*
X107116620Y-89479381D01*
X106973762Y-89431762D01*
X106878524Y-89336524D01*
X106830905Y-89241286D01*
X106783286Y-89050810D01*
X106783286Y-88907952D01*
X106830905Y-88717476D01*
X106878524Y-88622238D01*
X106973762Y-88527000D01*
X107116620Y-88479381D01*
X107211858Y-88479381D01*
X107354715Y-88527000D01*
X107402334Y-88574619D01*
X108354715Y-89479381D02*
X107783286Y-89479381D01*
X108069000Y-89479381D02*
X108069000Y-88479381D01*
X107973762Y-88622238D01*
X107878524Y-88717476D01*
X107783286Y-88765095D01*
X110323334Y-82145143D02*
X110275715Y-82192762D01*
X110132858Y-82240381D01*
X110037620Y-82240381D01*
X109894762Y-82192762D01*
X109799524Y-82097524D01*
X109751905Y-82002286D01*
X109704286Y-81811810D01*
X109704286Y-81668952D01*
X109751905Y-81478476D01*
X109799524Y-81383238D01*
X109894762Y-81288000D01*
X110037620Y-81240381D01*
X110132858Y-81240381D01*
X110275715Y-81288000D01*
X110323334Y-81335619D01*
X110704286Y-81335619D02*
X110751905Y-81288000D01*
X110847143Y-81240381D01*
X111085239Y-81240381D01*
X111180477Y-81288000D01*
X111228096Y-81335619D01*
X111275715Y-81430857D01*
X111275715Y-81526095D01*
X111228096Y-81668952D01*
X110656667Y-82240381D01*
X111275715Y-82240381D01*
X110196334Y-70969143D02*
X110148715Y-71016762D01*
X110005858Y-71064381D01*
X109910620Y-71064381D01*
X109767762Y-71016762D01*
X109672524Y-70921524D01*
X109624905Y-70826286D01*
X109577286Y-70635810D01*
X109577286Y-70492952D01*
X109624905Y-70302476D01*
X109672524Y-70207238D01*
X109767762Y-70112000D01*
X109910620Y-70064381D01*
X110005858Y-70064381D01*
X110148715Y-70112000D01*
X110196334Y-70159619D01*
X110529667Y-70064381D02*
X111148715Y-70064381D01*
X110815381Y-70445333D01*
X110958239Y-70445333D01*
X111053477Y-70492952D01*
X111101096Y-70540571D01*
X111148715Y-70635810D01*
X111148715Y-70873905D01*
X111101096Y-70969143D01*
X111053477Y-71016762D01*
X110958239Y-71064381D01*
X110672524Y-71064381D01*
X110577286Y-71016762D01*
X110529667Y-70969143D01*
X112609334Y-89384143D02*
X112561715Y-89431762D01*
X112418858Y-89479381D01*
X112323620Y-89479381D01*
X112180762Y-89431762D01*
X112085524Y-89336524D01*
X112037905Y-89241286D01*
X111990286Y-89050810D01*
X111990286Y-88907952D01*
X112037905Y-88717476D01*
X112085524Y-88622238D01*
X112180762Y-88527000D01*
X112323620Y-88479381D01*
X112418858Y-88479381D01*
X112561715Y-88527000D01*
X112609334Y-88574619D01*
X113466477Y-88812714D02*
X113466477Y-89479381D01*
X113228381Y-88431762D02*
X112990286Y-89146048D01*
X113609334Y-89146048D01*
X113371381Y-91392333D02*
X114085667Y-91392333D01*
X114228524Y-91439953D01*
X114323762Y-91535191D01*
X114371381Y-91678048D01*
X114371381Y-91773286D01*
X113466619Y-90963762D02*
X113419000Y-90916143D01*
X113371381Y-90820905D01*
X113371381Y-90582809D01*
X113419000Y-90487571D01*
X113466619Y-90439952D01*
X113561857Y-90392333D01*
X113657095Y-90392333D01*
X113799952Y-90439952D01*
X114371381Y-91011381D01*
X114371381Y-90392333D01*
X109220095Y-83780381D02*
X109220095Y-84589905D01*
X109267714Y-84685143D01*
X109315333Y-84732762D01*
X109410571Y-84780381D01*
X109601048Y-84780381D01*
X109696286Y-84732762D01*
X109743905Y-84685143D01*
X109791524Y-84589905D01*
X109791524Y-83780381D01*
X110791524Y-84780381D02*
X110220095Y-84780381D01*
X110505809Y-84780381D02*
X110505809Y-83780381D01*
X110410571Y-83923238D01*
X110315333Y-84018476D01*
X110220095Y-84066095D01*
X112268095Y-81240381D02*
X112268095Y-82049905D01*
X112315714Y-82145143D01*
X112363333Y-82192762D01*
X112458571Y-82240381D01*
X112649048Y-82240381D01*
X112744286Y-82192762D01*
X112791905Y-82145143D01*
X112839524Y-82049905D01*
X112839524Y-81240381D01*
X113268095Y-81335619D02*
X113315714Y-81288000D01*
X113410952Y-81240381D01*
X113649048Y-81240381D01*
X113744286Y-81288000D01*
X113791905Y-81335619D01*
X113839524Y-81430857D01*
X113839524Y-81526095D01*
X113791905Y-81668952D01*
X113220476Y-82240381D01*
X113839524Y-82240381D01*
M02*
