%TF.GenerationSoftware,KiCad,Pcbnew,4.0.4+e1-6308~48~ubuntu16.04.1-stable*%
%TF.CreationDate,2017-01-04T17:26:24-08:00*%
%TF.ProjectId,sd-full-2041021-4-breakout,73642D66756C6C2D323034313032312D,v1.0*%
%TF.FileFunction,Legend,Bot*%
%FSLAX46Y46*%
G04 Gerber Fmt 4.6, Leading zero omitted, Abs format (unit mm)*
G04 Created by KiCad (PCBNEW 4.0.4+e1-6308~48~ubuntu16.04.1-stable) date Wed Jan  4 17:26:24 2017*
%MOMM*%
%LPD*%
G01*
G04 APERTURE LIST*
%ADD10C,0.350000*%
%ADD11C,0.152400*%
G04 APERTURE END LIST*
D10*
D11*
X136368971Y-88313379D02*
X136368971Y-88652045D01*
X135836781Y-88652045D02*
X136852781Y-88652045D01*
X136852781Y-88168236D01*
X136514114Y-87345760D02*
X135836781Y-87345760D01*
X136514114Y-87781188D02*
X135981924Y-87781188D01*
X135885162Y-87732807D01*
X135836781Y-87636045D01*
X135836781Y-87490903D01*
X135885162Y-87394141D01*
X135933543Y-87345760D01*
X135836781Y-86716807D02*
X135885162Y-86813569D01*
X135981924Y-86861950D01*
X136852781Y-86861950D01*
X135836781Y-86184617D02*
X135885162Y-86281379D01*
X135981924Y-86329760D01*
X136852781Y-86329760D01*
X136223829Y-85797570D02*
X136223829Y-85023475D01*
X135885162Y-84588046D02*
X135836781Y-84491284D01*
X135836781Y-84297760D01*
X135885162Y-84200999D01*
X135981924Y-84152618D01*
X136030305Y-84152618D01*
X136127067Y-84200999D01*
X136175448Y-84297760D01*
X136175448Y-84442903D01*
X136223829Y-84539665D01*
X136320590Y-84588046D01*
X136368971Y-84588046D01*
X136465733Y-84539665D01*
X136514114Y-84442903D01*
X136514114Y-84297760D01*
X136465733Y-84200999D01*
X135836781Y-83717189D02*
X136514114Y-83717189D01*
X136852781Y-83717189D02*
X136804400Y-83765570D01*
X136756019Y-83717189D01*
X136804400Y-83668808D01*
X136852781Y-83717189D01*
X136756019Y-83717189D01*
X136514114Y-83330141D02*
X136514114Y-82797951D01*
X135836781Y-83330141D01*
X135836781Y-82797951D01*
X135885162Y-82023856D02*
X135836781Y-82120618D01*
X135836781Y-82314141D01*
X135885162Y-82410903D01*
X135981924Y-82459284D01*
X136368971Y-82459284D01*
X136465733Y-82410903D01*
X136514114Y-82314141D01*
X136514114Y-82120618D01*
X136465733Y-82023856D01*
X136368971Y-81975475D01*
X136272210Y-81975475D01*
X136175448Y-82459284D01*
X135885162Y-80814332D02*
X135836781Y-80669189D01*
X135836781Y-80427285D01*
X135885162Y-80330523D01*
X135933543Y-80282142D01*
X136030305Y-80233761D01*
X136127067Y-80233761D01*
X136223829Y-80282142D01*
X136272210Y-80330523D01*
X136320590Y-80427285D01*
X136368971Y-80620808D01*
X136417352Y-80717570D01*
X136465733Y-80765951D01*
X136562495Y-80814332D01*
X136659257Y-80814332D01*
X136756019Y-80765951D01*
X136804400Y-80717570D01*
X136852781Y-80620808D01*
X136852781Y-80378904D01*
X136804400Y-80233761D01*
X135836781Y-79798332D02*
X136852781Y-79798332D01*
X136852781Y-79556427D01*
X136804400Y-79411285D01*
X136707638Y-79314523D01*
X136610876Y-79266142D01*
X136417352Y-79217761D01*
X136272210Y-79217761D01*
X136078686Y-79266142D01*
X135981924Y-79314523D01*
X135885162Y-79411285D01*
X135836781Y-79556427D01*
X135836781Y-79798332D01*
X135933543Y-77427666D02*
X135885162Y-77476047D01*
X135836781Y-77621190D01*
X135836781Y-77717952D01*
X135885162Y-77863094D01*
X135981924Y-77959856D01*
X136078686Y-78008237D01*
X136272210Y-78056618D01*
X136417352Y-78056618D01*
X136610876Y-78008237D01*
X136707638Y-77959856D01*
X136804400Y-77863094D01*
X136852781Y-77717952D01*
X136852781Y-77621190D01*
X136804400Y-77476047D01*
X136756019Y-77427666D01*
X135836781Y-76556809D02*
X136368971Y-76556809D01*
X136465733Y-76605190D01*
X136514114Y-76701952D01*
X136514114Y-76895475D01*
X136465733Y-76992237D01*
X135885162Y-76556809D02*
X135836781Y-76653571D01*
X135836781Y-76895475D01*
X135885162Y-76992237D01*
X135981924Y-77040618D01*
X136078686Y-77040618D01*
X136175448Y-76992237D01*
X136223829Y-76895475D01*
X136223829Y-76653571D01*
X136272210Y-76556809D01*
X135836781Y-76072999D02*
X136514114Y-76072999D01*
X136320590Y-76072999D02*
X136417352Y-76024618D01*
X136465733Y-75976237D01*
X136514114Y-75879475D01*
X136514114Y-75782714D01*
X135836781Y-75008619D02*
X136852781Y-75008619D01*
X135885162Y-75008619D02*
X135836781Y-75105381D01*
X135836781Y-75298904D01*
X135885162Y-75395666D01*
X135933543Y-75444047D01*
X136030305Y-75492428D01*
X136320590Y-75492428D01*
X136417352Y-75444047D01*
X136465733Y-75395666D01*
X136514114Y-75298904D01*
X136514114Y-75105381D01*
X136465733Y-75008619D01*
X136368971Y-73412048D02*
X136320590Y-73266905D01*
X136272210Y-73218524D01*
X136175448Y-73170143D01*
X136030305Y-73170143D01*
X135933543Y-73218524D01*
X135885162Y-73266905D01*
X135836781Y-73363667D01*
X135836781Y-73750714D01*
X136852781Y-73750714D01*
X136852781Y-73412048D01*
X136804400Y-73315286D01*
X136756019Y-73266905D01*
X136659257Y-73218524D01*
X136562495Y-73218524D01*
X136465733Y-73266905D01*
X136417352Y-73315286D01*
X136368971Y-73412048D01*
X136368971Y-73750714D01*
X135836781Y-72734714D02*
X136514114Y-72734714D01*
X136320590Y-72734714D02*
X136417352Y-72686333D01*
X136465733Y-72637952D01*
X136514114Y-72541190D01*
X136514114Y-72444429D01*
X135885162Y-71718715D02*
X135836781Y-71815477D01*
X135836781Y-72009000D01*
X135885162Y-72105762D01*
X135981924Y-72154143D01*
X136368971Y-72154143D01*
X136465733Y-72105762D01*
X136514114Y-72009000D01*
X136514114Y-71815477D01*
X136465733Y-71718715D01*
X136368971Y-71670334D01*
X136272210Y-71670334D01*
X136175448Y-72154143D01*
X135836781Y-70799477D02*
X136368971Y-70799477D01*
X136465733Y-70847858D01*
X136514114Y-70944620D01*
X136514114Y-71138143D01*
X136465733Y-71234905D01*
X135885162Y-70799477D02*
X135836781Y-70896239D01*
X135836781Y-71138143D01*
X135885162Y-71234905D01*
X135981924Y-71283286D01*
X136078686Y-71283286D01*
X136175448Y-71234905D01*
X136223829Y-71138143D01*
X136223829Y-70896239D01*
X136272210Y-70799477D01*
X135836781Y-70315667D02*
X136852781Y-70315667D01*
X136223829Y-70218905D02*
X135836781Y-69928620D01*
X136514114Y-69928620D02*
X136127067Y-70315667D01*
X135836781Y-69348048D02*
X135885162Y-69444810D01*
X135933543Y-69493191D01*
X136030305Y-69541572D01*
X136320590Y-69541572D01*
X136417352Y-69493191D01*
X136465733Y-69444810D01*
X136514114Y-69348048D01*
X136514114Y-69202906D01*
X136465733Y-69106144D01*
X136417352Y-69057763D01*
X136320590Y-69009382D01*
X136030305Y-69009382D01*
X135933543Y-69057763D01*
X135885162Y-69106144D01*
X135836781Y-69202906D01*
X135836781Y-69348048D01*
X136514114Y-68138525D02*
X135836781Y-68138525D01*
X136514114Y-68573953D02*
X135981924Y-68573953D01*
X135885162Y-68525572D01*
X135836781Y-68428810D01*
X135836781Y-68283668D01*
X135885162Y-68186906D01*
X135933543Y-68138525D01*
X136514114Y-67799858D02*
X136514114Y-67412810D01*
X136852781Y-67654715D02*
X135981924Y-67654715D01*
X135885162Y-67606334D01*
X135836781Y-67509572D01*
X135836781Y-67412810D01*
X132532362Y-83354332D02*
X132483981Y-83209189D01*
X132483981Y-82967285D01*
X132532362Y-82870523D01*
X132580743Y-82822142D01*
X132677505Y-82773761D01*
X132774267Y-82773761D01*
X132871029Y-82822142D01*
X132919410Y-82870523D01*
X132967790Y-82967285D01*
X133016171Y-83160808D01*
X133064552Y-83257570D01*
X133112933Y-83305951D01*
X133209695Y-83354332D01*
X133306457Y-83354332D01*
X133403219Y-83305951D01*
X133451600Y-83257570D01*
X133499981Y-83160808D01*
X133499981Y-82918904D01*
X133451600Y-82773761D01*
X132483981Y-82338332D02*
X133499981Y-82338332D01*
X133499981Y-82096427D01*
X133451600Y-81951285D01*
X133354838Y-81854523D01*
X133258076Y-81806142D01*
X133064552Y-81757761D01*
X132919410Y-81757761D01*
X132725886Y-81806142D01*
X132629124Y-81854523D01*
X132532362Y-81951285D01*
X132483981Y-82096427D01*
X132483981Y-82338332D01*
X132580743Y-79967666D02*
X132532362Y-80016047D01*
X132483981Y-80161190D01*
X132483981Y-80257952D01*
X132532362Y-80403094D01*
X132629124Y-80499856D01*
X132725886Y-80548237D01*
X132919410Y-80596618D01*
X133064552Y-80596618D01*
X133258076Y-80548237D01*
X133354838Y-80499856D01*
X133451600Y-80403094D01*
X133499981Y-80257952D01*
X133499981Y-80161190D01*
X133451600Y-80016047D01*
X133403219Y-79967666D01*
X132483981Y-79387094D02*
X132532362Y-79483856D01*
X132580743Y-79532237D01*
X132677505Y-79580618D01*
X132967790Y-79580618D01*
X133064552Y-79532237D01*
X133112933Y-79483856D01*
X133161314Y-79387094D01*
X133161314Y-79241952D01*
X133112933Y-79145190D01*
X133064552Y-79096809D01*
X132967790Y-79048428D01*
X132677505Y-79048428D01*
X132580743Y-79096809D01*
X132532362Y-79145190D01*
X132483981Y-79241952D01*
X132483981Y-79387094D01*
X133161314Y-78612999D02*
X132483981Y-78612999D01*
X133064552Y-78612999D02*
X133112933Y-78564618D01*
X133161314Y-78467856D01*
X133161314Y-78322714D01*
X133112933Y-78225952D01*
X133016171Y-78177571D01*
X132483981Y-78177571D01*
X133161314Y-77693761D02*
X132483981Y-77693761D01*
X133064552Y-77693761D02*
X133112933Y-77645380D01*
X133161314Y-77548618D01*
X133161314Y-77403476D01*
X133112933Y-77306714D01*
X133016171Y-77258333D01*
X132483981Y-77258333D01*
X132532362Y-76387476D02*
X132483981Y-76484238D01*
X132483981Y-76677761D01*
X132532362Y-76774523D01*
X132629124Y-76822904D01*
X133016171Y-76822904D01*
X133112933Y-76774523D01*
X133161314Y-76677761D01*
X133161314Y-76484238D01*
X133112933Y-76387476D01*
X133016171Y-76339095D01*
X132919410Y-76339095D01*
X132822648Y-76822904D01*
X132532362Y-75468238D02*
X132483981Y-75565000D01*
X132483981Y-75758523D01*
X132532362Y-75855285D01*
X132580743Y-75903666D01*
X132677505Y-75952047D01*
X132967790Y-75952047D01*
X133064552Y-75903666D01*
X133112933Y-75855285D01*
X133161314Y-75758523D01*
X133161314Y-75565000D01*
X133112933Y-75468238D01*
X133161314Y-75177952D02*
X133161314Y-74790904D01*
X133499981Y-75032809D02*
X132629124Y-75032809D01*
X132532362Y-74984428D01*
X132483981Y-74887666D01*
X132483981Y-74790904D01*
X132483981Y-74307095D02*
X132532362Y-74403857D01*
X132580743Y-74452238D01*
X132677505Y-74500619D01*
X132967790Y-74500619D01*
X133064552Y-74452238D01*
X133112933Y-74403857D01*
X133161314Y-74307095D01*
X133161314Y-74161953D01*
X133112933Y-74065191D01*
X133064552Y-74016810D01*
X132967790Y-73968429D01*
X132677505Y-73968429D01*
X132580743Y-74016810D01*
X132532362Y-74065191D01*
X132483981Y-74161953D01*
X132483981Y-74307095D01*
X132483981Y-73533000D02*
X133161314Y-73533000D01*
X132967790Y-73533000D02*
X133064552Y-73484619D01*
X133112933Y-73436238D01*
X133161314Y-73339476D01*
X133161314Y-73242715D01*
X132580743Y-72904048D02*
X132532362Y-72855667D01*
X132483981Y-72904048D01*
X132532362Y-72952429D01*
X132580743Y-72904048D01*
X132483981Y-72904048D01*
X133112933Y-72904048D02*
X133064552Y-72855667D01*
X133016171Y-72904048D01*
X133064552Y-72952429D01*
X133112933Y-72904048D01*
X133016171Y-72904048D01*
X131823581Y-88192428D02*
X131823581Y-87611857D01*
X130807581Y-87902142D02*
X131823581Y-87902142D01*
X131339771Y-87273190D02*
X131339771Y-86934524D01*
X130807581Y-86789381D02*
X130807581Y-87273190D01*
X131823581Y-87273190D01*
X131823581Y-86789381D01*
X130904343Y-84999286D02*
X130855962Y-85047667D01*
X130807581Y-85192810D01*
X130807581Y-85289572D01*
X130855962Y-85434714D01*
X130952724Y-85531476D01*
X131049486Y-85579857D01*
X131243010Y-85628238D01*
X131388152Y-85628238D01*
X131581676Y-85579857D01*
X131678438Y-85531476D01*
X131775200Y-85434714D01*
X131823581Y-85289572D01*
X131823581Y-85192810D01*
X131775200Y-85047667D01*
X131726819Y-84999286D01*
X131823581Y-84370333D02*
X131823581Y-84176810D01*
X131775200Y-84080048D01*
X131678438Y-83983286D01*
X131484914Y-83934905D01*
X131146248Y-83934905D01*
X130952724Y-83983286D01*
X130855962Y-84080048D01*
X130807581Y-84176810D01*
X130807581Y-84370333D01*
X130855962Y-84467095D01*
X130952724Y-84563857D01*
X131146248Y-84612238D01*
X131484914Y-84612238D01*
X131678438Y-84563857D01*
X131775200Y-84467095D01*
X131823581Y-84370333D01*
X130807581Y-83499476D02*
X131823581Y-83499476D01*
X130807581Y-82918905D01*
X131823581Y-82918905D01*
X130807581Y-82435095D02*
X131823581Y-82435095D01*
X130807581Y-81854524D01*
X131823581Y-81854524D01*
X130807581Y-80596619D02*
X131823581Y-80596619D01*
X131823581Y-80209572D01*
X131775200Y-80112810D01*
X131726819Y-80064429D01*
X131630057Y-80016048D01*
X131484914Y-80016048D01*
X131388152Y-80064429D01*
X131339771Y-80112810D01*
X131291390Y-80209572D01*
X131291390Y-80596619D01*
X131871962Y-78854905D02*
X130565676Y-79725762D01*
X130807581Y-78516238D02*
X131823581Y-78516238D01*
X130807581Y-77935667D01*
X131823581Y-77935667D01*
X131726819Y-76726143D02*
X131775200Y-76677762D01*
X131823581Y-76581000D01*
X131823581Y-76339096D01*
X131775200Y-76242334D01*
X131726819Y-76193953D01*
X131630057Y-76145572D01*
X131533295Y-76145572D01*
X131388152Y-76193953D01*
X130807581Y-76774524D01*
X130807581Y-76145572D01*
X131823581Y-75516619D02*
X131823581Y-75419858D01*
X131775200Y-75323096D01*
X131726819Y-75274715D01*
X131630057Y-75226334D01*
X131436533Y-75177953D01*
X131194629Y-75177953D01*
X131001105Y-75226334D01*
X130904343Y-75274715D01*
X130855962Y-75323096D01*
X130807581Y-75419858D01*
X130807581Y-75516619D01*
X130855962Y-75613381D01*
X130904343Y-75661762D01*
X131001105Y-75710143D01*
X131194629Y-75758524D01*
X131436533Y-75758524D01*
X131630057Y-75710143D01*
X131726819Y-75661762D01*
X131775200Y-75613381D01*
X131823581Y-75516619D01*
X131484914Y-74307096D02*
X130807581Y-74307096D01*
X131871962Y-74549000D02*
X131146248Y-74790905D01*
X131146248Y-74161953D01*
X130807581Y-73242715D02*
X130807581Y-73823286D01*
X130807581Y-73533000D02*
X131823581Y-73533000D01*
X131678438Y-73629762D01*
X131581676Y-73726524D01*
X131533295Y-73823286D01*
X131823581Y-72613762D02*
X131823581Y-72517001D01*
X131775200Y-72420239D01*
X131726819Y-72371858D01*
X131630057Y-72323477D01*
X131436533Y-72275096D01*
X131194629Y-72275096D01*
X131001105Y-72323477D01*
X130904343Y-72371858D01*
X130855962Y-72420239D01*
X130807581Y-72517001D01*
X130807581Y-72613762D01*
X130855962Y-72710524D01*
X130904343Y-72758905D01*
X131001105Y-72807286D01*
X131194629Y-72855667D01*
X131436533Y-72855667D01*
X131630057Y-72807286D01*
X131726819Y-72758905D01*
X131775200Y-72710524D01*
X131823581Y-72613762D01*
X131726819Y-71888048D02*
X131775200Y-71839667D01*
X131823581Y-71742905D01*
X131823581Y-71501001D01*
X131775200Y-71404239D01*
X131726819Y-71355858D01*
X131630057Y-71307477D01*
X131533295Y-71307477D01*
X131388152Y-71355858D01*
X130807581Y-71936429D01*
X130807581Y-71307477D01*
X130807581Y-70339858D02*
X130807581Y-70920429D01*
X130807581Y-70630143D02*
X131823581Y-70630143D01*
X131678438Y-70726905D01*
X131581676Y-70823667D01*
X131533295Y-70920429D01*
X131194629Y-69904429D02*
X131194629Y-69130334D01*
X131484914Y-68211096D02*
X130807581Y-68211096D01*
X131871962Y-68453000D02*
X131146248Y-68694905D01*
X131146248Y-68065953D01*
X128470781Y-86740999D02*
X127454781Y-86402332D01*
X128470781Y-86063666D01*
X127454781Y-85724999D02*
X128470781Y-85724999D01*
X127454781Y-85241189D02*
X128470781Y-85241189D01*
X127454781Y-84660618D01*
X128470781Y-84660618D01*
X127503162Y-82967285D02*
X127454781Y-83064047D01*
X127454781Y-83257570D01*
X127503162Y-83354332D01*
X127551543Y-83402713D01*
X127648305Y-83451094D01*
X127938590Y-83451094D01*
X128035352Y-83402713D01*
X128083733Y-83354332D01*
X128132114Y-83257570D01*
X128132114Y-83064047D01*
X128083733Y-82967285D01*
X127454781Y-82096428D02*
X127986971Y-82096428D01*
X128083733Y-82144809D01*
X128132114Y-82241571D01*
X128132114Y-82435094D01*
X128083733Y-82531856D01*
X127503162Y-82096428D02*
X127454781Y-82193190D01*
X127454781Y-82435094D01*
X127503162Y-82531856D01*
X127599924Y-82580237D01*
X127696686Y-82580237D01*
X127793448Y-82531856D01*
X127841829Y-82435094D01*
X127841829Y-82193190D01*
X127890210Y-82096428D01*
X128132114Y-81612618D02*
X127454781Y-81612618D01*
X128035352Y-81612618D02*
X128083733Y-81564237D01*
X128132114Y-81467475D01*
X128132114Y-81322333D01*
X128083733Y-81225571D01*
X127986971Y-81177190D01*
X127454781Y-81177190D01*
X127454781Y-79919285D02*
X128470781Y-79919285D01*
X128083733Y-79919285D02*
X128132114Y-79822523D01*
X128132114Y-79629000D01*
X128083733Y-79532238D01*
X128035352Y-79483857D01*
X127938590Y-79435476D01*
X127648305Y-79435476D01*
X127551543Y-79483857D01*
X127503162Y-79532238D01*
X127454781Y-79629000D01*
X127454781Y-79822523D01*
X127503162Y-79919285D01*
X127503162Y-78613000D02*
X127454781Y-78709762D01*
X127454781Y-78903285D01*
X127503162Y-79000047D01*
X127599924Y-79048428D01*
X127986971Y-79048428D01*
X128083733Y-79000047D01*
X128132114Y-78903285D01*
X128132114Y-78709762D01*
X128083733Y-78613000D01*
X127986971Y-78564619D01*
X127890210Y-78564619D01*
X127793448Y-79048428D01*
X128470781Y-76871286D02*
X128470781Y-77355095D01*
X127986971Y-77403476D01*
X128035352Y-77355095D01*
X128083733Y-77258333D01*
X128083733Y-77016429D01*
X128035352Y-76919667D01*
X127986971Y-76871286D01*
X127890210Y-76822905D01*
X127648305Y-76822905D01*
X127551543Y-76871286D01*
X127503162Y-76919667D01*
X127454781Y-77016429D01*
X127454781Y-77258333D01*
X127503162Y-77355095D01*
X127551543Y-77403476D01*
X128470781Y-76532619D02*
X127454781Y-76193952D01*
X128470781Y-75855286D01*
X127454781Y-74597381D02*
X127503162Y-74694143D01*
X127551543Y-74742524D01*
X127648305Y-74790905D01*
X127938590Y-74790905D01*
X128035352Y-74742524D01*
X128083733Y-74694143D01*
X128132114Y-74597381D01*
X128132114Y-74452239D01*
X128083733Y-74355477D01*
X128035352Y-74307096D01*
X127938590Y-74258715D01*
X127648305Y-74258715D01*
X127551543Y-74307096D01*
X127503162Y-74355477D01*
X127454781Y-74452239D01*
X127454781Y-74597381D01*
X127454781Y-73823286D02*
X128132114Y-73823286D01*
X127938590Y-73823286D02*
X128035352Y-73774905D01*
X128083733Y-73726524D01*
X128132114Y-73629762D01*
X128132114Y-73533001D01*
X128470781Y-72517001D02*
X128470781Y-71888049D01*
X128083733Y-72226715D01*
X128083733Y-72081573D01*
X128035352Y-71984811D01*
X127986971Y-71936430D01*
X127890210Y-71888049D01*
X127648305Y-71888049D01*
X127551543Y-71936430D01*
X127503162Y-71984811D01*
X127454781Y-72081573D01*
X127454781Y-72371858D01*
X127503162Y-72468620D01*
X127551543Y-72517001D01*
X127551543Y-71452620D02*
X127503162Y-71404239D01*
X127454781Y-71452620D01*
X127503162Y-71501001D01*
X127551543Y-71452620D01*
X127454781Y-71452620D01*
X128470781Y-71065572D02*
X128470781Y-70436620D01*
X128083733Y-70775286D01*
X128083733Y-70630144D01*
X128035352Y-70533382D01*
X127986971Y-70485001D01*
X127890210Y-70436620D01*
X127648305Y-70436620D01*
X127551543Y-70485001D01*
X127503162Y-70533382D01*
X127454781Y-70630144D01*
X127454781Y-70920429D01*
X127503162Y-71017191D01*
X127551543Y-71065572D01*
X128470781Y-70146334D02*
X127454781Y-69807667D01*
X128470781Y-69469001D01*
X124779314Y-83088237D02*
X124101981Y-82894713D01*
X124585790Y-82701190D01*
X124101981Y-82507666D01*
X124779314Y-82314142D01*
X124101981Y-81927094D02*
X124779314Y-81927094D01*
X125117981Y-81927094D02*
X125069600Y-81975475D01*
X125021219Y-81927094D01*
X125069600Y-81878713D01*
X125117981Y-81927094D01*
X125021219Y-81927094D01*
X124150362Y-81007856D02*
X124101981Y-81104618D01*
X124101981Y-81298141D01*
X124150362Y-81394903D01*
X124198743Y-81443284D01*
X124295505Y-81491665D01*
X124585790Y-81491665D01*
X124682552Y-81443284D01*
X124730933Y-81394903D01*
X124779314Y-81298141D01*
X124779314Y-81104618D01*
X124730933Y-81007856D01*
X124101981Y-80572427D02*
X125117981Y-80572427D01*
X124489029Y-80475665D02*
X124101981Y-80185380D01*
X124779314Y-80185380D02*
X124392267Y-80572427D01*
X124150362Y-79362904D02*
X124101981Y-79459666D01*
X124101981Y-79653189D01*
X124150362Y-79749951D01*
X124247124Y-79798332D01*
X124634171Y-79798332D01*
X124730933Y-79749951D01*
X124779314Y-79653189D01*
X124779314Y-79459666D01*
X124730933Y-79362904D01*
X124634171Y-79314523D01*
X124537410Y-79314523D01*
X124440648Y-79798332D01*
X124101981Y-78879094D02*
X124779314Y-78879094D01*
X124585790Y-78879094D02*
X124682552Y-78830713D01*
X124730933Y-78782332D01*
X124779314Y-78685570D01*
X124779314Y-78588809D01*
X124101981Y-78250142D02*
X125117981Y-78250142D01*
X124730933Y-78250142D02*
X124779314Y-78153380D01*
X124779314Y-77959857D01*
X124730933Y-77863095D01*
X124682552Y-77814714D01*
X124585790Y-77766333D01*
X124295505Y-77766333D01*
X124198743Y-77814714D01*
X124150362Y-77863095D01*
X124101981Y-77959857D01*
X124101981Y-78153380D01*
X124150362Y-78250142D01*
X124101981Y-77185761D02*
X124150362Y-77282523D01*
X124198743Y-77330904D01*
X124295505Y-77379285D01*
X124585790Y-77379285D01*
X124682552Y-77330904D01*
X124730933Y-77282523D01*
X124779314Y-77185761D01*
X124779314Y-77040619D01*
X124730933Y-76943857D01*
X124682552Y-76895476D01*
X124585790Y-76847095D01*
X124295505Y-76847095D01*
X124198743Y-76895476D01*
X124150362Y-76943857D01*
X124101981Y-77040619D01*
X124101981Y-77185761D01*
X124101981Y-76508428D02*
X124779314Y-75976238D01*
X124779314Y-76508428D02*
X124101981Y-75976238D01*
X124198743Y-75589190D02*
X124150362Y-75540809D01*
X124101981Y-75589190D01*
X124150362Y-75637571D01*
X124198743Y-75589190D01*
X124101981Y-75589190D01*
X124779314Y-75105380D02*
X124101981Y-75105380D01*
X124682552Y-75105380D02*
X124730933Y-75056999D01*
X124779314Y-74960237D01*
X124779314Y-74815095D01*
X124730933Y-74718333D01*
X124634171Y-74669952D01*
X124101981Y-74669952D01*
X124150362Y-73799095D02*
X124101981Y-73895857D01*
X124101981Y-74089380D01*
X124150362Y-74186142D01*
X124247124Y-74234523D01*
X124634171Y-74234523D01*
X124730933Y-74186142D01*
X124779314Y-74089380D01*
X124779314Y-73895857D01*
X124730933Y-73799095D01*
X124634171Y-73750714D01*
X124537410Y-73750714D01*
X124440648Y-74234523D01*
X124779314Y-73460428D02*
X124779314Y-73073380D01*
X125117981Y-73315285D02*
X124247124Y-73315285D01*
X124150362Y-73266904D01*
X124101981Y-73170142D01*
X124101981Y-73073380D01*
M02*
