%TF.GenerationSoftware,KiCad,Pcbnew,4.0.4+e1-6308~48~ubuntu16.04.1-stable*%
%TF.CreationDate,2017-01-04T17:26:24-08:00*%
%TF.ProjectId,sd-full-2041021-4-breakout,73642D66756C6C2D323034313032312D,v1.0*%
%TF.FileFunction,Copper,L2,Bot,Signal*%
%FSLAX46Y46*%
G04 Gerber Fmt 4.6, Leading zero omitted, Abs format (unit mm)*
G04 Created by KiCad (PCBNEW 4.0.4+e1-6308~48~ubuntu16.04.1-stable) date Wed Jan  4 17:26:24 2017*
%MOMM*%
%LPD*%
G01*
G04 APERTURE LIST*
%ADD10C,0.350000*%
%ADD11R,2.032000X1.727200*%
%ADD12O,2.032000X1.727200*%
%ADD13C,0.685800*%
%ADD14C,0.330200*%
%ADD15C,0.254000*%
%ADD16C,0.330200*%
%ADD17C,0.350000*%
G04 APERTURE END LIST*
D10*
D11*
X100076000Y-86360000D03*
D12*
X100076000Y-83820000D03*
X100076000Y-81280000D03*
X100076000Y-78740000D03*
X100076000Y-76200000D03*
X100076000Y-73660000D03*
D13*
X111633000Y-85852000D03*
X108458000Y-87503000D03*
X117856000Y-76327000D03*
X117983000Y-83820000D03*
X112903000Y-70866000D03*
X108458000Y-69342000D03*
X108458000Y-82931000D03*
X110236000Y-76835000D03*
X114681000Y-77343000D03*
X112842000Y-83505000D03*
D14*
X114173000Y-76835000D02*
X110236000Y-76835000D01*
X114681000Y-77343000D02*
X114173000Y-76835000D01*
D15*
G36*
X141178511Y-64266608D02*
X141355278Y-64384720D01*
X141473392Y-64561490D01*
X141528800Y-64840049D01*
X141528800Y-91369951D01*
X141473392Y-91648510D01*
X141355278Y-91825280D01*
X141178511Y-91943392D01*
X140899955Y-91998800D01*
X100400044Y-91998800D01*
X99635482Y-91846719D01*
X99046696Y-91453304D01*
X98653102Y-90864250D01*
X98501200Y-90104053D01*
X98501200Y-89896677D01*
X117686794Y-89896677D01*
X117866820Y-90332372D01*
X118199875Y-90666009D01*
X118635255Y-90846794D01*
X119106677Y-90847206D01*
X119542372Y-90667180D01*
X119876009Y-90334125D01*
X120056794Y-89898745D01*
X120057206Y-89427323D01*
X119877180Y-88991628D01*
X119544125Y-88657991D01*
X119108745Y-88477206D01*
X118637323Y-88476794D01*
X118201628Y-88656820D01*
X117867991Y-88989875D01*
X117687206Y-89425255D01*
X117686794Y-89896677D01*
X98501200Y-89896677D01*
X98501200Y-87527857D01*
X98595910Y-87675041D01*
X98808110Y-87820031D01*
X99060000Y-87871040D01*
X101092000Y-87871040D01*
X101327317Y-87826762D01*
X101543441Y-87687690D01*
X101688431Y-87475490D01*
X101739440Y-87223600D01*
X101739440Y-85496400D01*
X101695162Y-85261083D01*
X101556090Y-85044959D01*
X101343890Y-84899969D01*
X101302561Y-84891600D01*
X101320415Y-84879670D01*
X101645271Y-84393489D01*
X101759345Y-83820000D01*
X101735210Y-83698663D01*
X111863931Y-83698663D01*
X112012493Y-84058212D01*
X112287341Y-84333540D01*
X112646630Y-84482730D01*
X113035663Y-84483069D01*
X113395212Y-84334507D01*
X113670540Y-84059659D01*
X113819730Y-83700370D01*
X113820069Y-83311337D01*
X113671507Y-82951788D01*
X113396659Y-82676460D01*
X113037370Y-82527270D01*
X112648337Y-82526931D01*
X112288788Y-82675493D01*
X112013460Y-82950341D01*
X111864270Y-83309630D01*
X111863931Y-83698663D01*
X101735210Y-83698663D01*
X101645271Y-83246511D01*
X101320415Y-82760330D01*
X101005634Y-82550000D01*
X101320415Y-82339670D01*
X101645271Y-81853489D01*
X101759345Y-81280000D01*
X101645271Y-80706511D01*
X101320415Y-80220330D01*
X101005634Y-80010000D01*
X101320415Y-79799670D01*
X101645271Y-79313489D01*
X101759345Y-78740000D01*
X101645271Y-78166511D01*
X101320415Y-77680330D01*
X101005634Y-77470000D01*
X101320415Y-77259670D01*
X101474769Y-77028663D01*
X109257931Y-77028663D01*
X109406493Y-77388212D01*
X109681341Y-77663540D01*
X110040630Y-77812730D01*
X110429663Y-77813069D01*
X110789212Y-77664507D01*
X110818670Y-77635100D01*
X113743604Y-77635100D01*
X113851493Y-77896212D01*
X114126341Y-78171540D01*
X114485630Y-78320730D01*
X114874663Y-78321069D01*
X115234212Y-78172507D01*
X115509540Y-77897659D01*
X115658730Y-77538370D01*
X115659069Y-77149337D01*
X115510507Y-76789788D01*
X115235659Y-76514460D01*
X114876370Y-76365270D01*
X114834746Y-76365234D01*
X114738756Y-76269244D01*
X114479185Y-76095804D01*
X114173000Y-76034900D01*
X110819049Y-76034900D01*
X110790659Y-76006460D01*
X110431370Y-75857270D01*
X110042337Y-75856931D01*
X109682788Y-76005493D01*
X109407460Y-76280341D01*
X109258270Y-76639630D01*
X109257931Y-77028663D01*
X101474769Y-77028663D01*
X101645271Y-76773489D01*
X101759345Y-76200000D01*
X101645271Y-75626511D01*
X101320415Y-75140330D01*
X101010931Y-74933539D01*
X101426732Y-74562036D01*
X101680709Y-74034791D01*
X101683358Y-74019026D01*
X101562217Y-73787000D01*
X100203000Y-73787000D01*
X100203000Y-73807000D01*
X99949000Y-73807000D01*
X99949000Y-73787000D01*
X99929000Y-73787000D01*
X99929000Y-73533000D01*
X99949000Y-73533000D01*
X99949000Y-72319076D01*
X100203000Y-72319076D01*
X100203000Y-73533000D01*
X101562217Y-73533000D01*
X101683358Y-73300974D01*
X101680709Y-73285209D01*
X101426732Y-72757964D01*
X100990320Y-72368046D01*
X100437913Y-72174816D01*
X100203000Y-72319076D01*
X99949000Y-72319076D01*
X99714087Y-72174816D01*
X99161680Y-72368046D01*
X98725268Y-72757964D01*
X98501200Y-73223119D01*
X98501200Y-68946187D01*
X117436752Y-68946187D01*
X117654757Y-69473800D01*
X118058077Y-69877824D01*
X118585309Y-70096750D01*
X119156187Y-70097248D01*
X119683800Y-69879243D01*
X120087824Y-69475923D01*
X120306750Y-68948691D01*
X120307248Y-68377813D01*
X120089243Y-67850200D01*
X119685923Y-67446176D01*
X119158691Y-67227250D01*
X118587813Y-67226752D01*
X118060200Y-67444757D01*
X117656176Y-67848077D01*
X117437250Y-68375309D01*
X117436752Y-68946187D01*
X98501200Y-68946187D01*
X98501200Y-66110045D01*
X98653282Y-65345480D01*
X99046696Y-64756696D01*
X99635749Y-64363102D01*
X100395947Y-64211200D01*
X140899955Y-64211200D01*
X141178511Y-64266608D01*
X141178511Y-64266608D01*
G37*
X141178511Y-64266608D02*
X141355278Y-64384720D01*
X141473392Y-64561490D01*
X141528800Y-64840049D01*
X141528800Y-91369951D01*
X141473392Y-91648510D01*
X141355278Y-91825280D01*
X141178511Y-91943392D01*
X140899955Y-91998800D01*
X100400044Y-91998800D01*
X99635482Y-91846719D01*
X99046696Y-91453304D01*
X98653102Y-90864250D01*
X98501200Y-90104053D01*
X98501200Y-89896677D01*
X117686794Y-89896677D01*
X117866820Y-90332372D01*
X118199875Y-90666009D01*
X118635255Y-90846794D01*
X119106677Y-90847206D01*
X119542372Y-90667180D01*
X119876009Y-90334125D01*
X120056794Y-89898745D01*
X120057206Y-89427323D01*
X119877180Y-88991628D01*
X119544125Y-88657991D01*
X119108745Y-88477206D01*
X118637323Y-88476794D01*
X118201628Y-88656820D01*
X117867991Y-88989875D01*
X117687206Y-89425255D01*
X117686794Y-89896677D01*
X98501200Y-89896677D01*
X98501200Y-87527857D01*
X98595910Y-87675041D01*
X98808110Y-87820031D01*
X99060000Y-87871040D01*
X101092000Y-87871040D01*
X101327317Y-87826762D01*
X101543441Y-87687690D01*
X101688431Y-87475490D01*
X101739440Y-87223600D01*
X101739440Y-85496400D01*
X101695162Y-85261083D01*
X101556090Y-85044959D01*
X101343890Y-84899969D01*
X101302561Y-84891600D01*
X101320415Y-84879670D01*
X101645271Y-84393489D01*
X101759345Y-83820000D01*
X101735210Y-83698663D01*
X111863931Y-83698663D01*
X112012493Y-84058212D01*
X112287341Y-84333540D01*
X112646630Y-84482730D01*
X113035663Y-84483069D01*
X113395212Y-84334507D01*
X113670540Y-84059659D01*
X113819730Y-83700370D01*
X113820069Y-83311337D01*
X113671507Y-82951788D01*
X113396659Y-82676460D01*
X113037370Y-82527270D01*
X112648337Y-82526931D01*
X112288788Y-82675493D01*
X112013460Y-82950341D01*
X111864270Y-83309630D01*
X111863931Y-83698663D01*
X101735210Y-83698663D01*
X101645271Y-83246511D01*
X101320415Y-82760330D01*
X101005634Y-82550000D01*
X101320415Y-82339670D01*
X101645271Y-81853489D01*
X101759345Y-81280000D01*
X101645271Y-80706511D01*
X101320415Y-80220330D01*
X101005634Y-80010000D01*
X101320415Y-79799670D01*
X101645271Y-79313489D01*
X101759345Y-78740000D01*
X101645271Y-78166511D01*
X101320415Y-77680330D01*
X101005634Y-77470000D01*
X101320415Y-77259670D01*
X101474769Y-77028663D01*
X109257931Y-77028663D01*
X109406493Y-77388212D01*
X109681341Y-77663540D01*
X110040630Y-77812730D01*
X110429663Y-77813069D01*
X110789212Y-77664507D01*
X110818670Y-77635100D01*
X113743604Y-77635100D01*
X113851493Y-77896212D01*
X114126341Y-78171540D01*
X114485630Y-78320730D01*
X114874663Y-78321069D01*
X115234212Y-78172507D01*
X115509540Y-77897659D01*
X115658730Y-77538370D01*
X115659069Y-77149337D01*
X115510507Y-76789788D01*
X115235659Y-76514460D01*
X114876370Y-76365270D01*
X114834746Y-76365234D01*
X114738756Y-76269244D01*
X114479185Y-76095804D01*
X114173000Y-76034900D01*
X110819049Y-76034900D01*
X110790659Y-76006460D01*
X110431370Y-75857270D01*
X110042337Y-75856931D01*
X109682788Y-76005493D01*
X109407460Y-76280341D01*
X109258270Y-76639630D01*
X109257931Y-77028663D01*
X101474769Y-77028663D01*
X101645271Y-76773489D01*
X101759345Y-76200000D01*
X101645271Y-75626511D01*
X101320415Y-75140330D01*
X101010931Y-74933539D01*
X101426732Y-74562036D01*
X101680709Y-74034791D01*
X101683358Y-74019026D01*
X101562217Y-73787000D01*
X100203000Y-73787000D01*
X100203000Y-73807000D01*
X99949000Y-73807000D01*
X99949000Y-73787000D01*
X99929000Y-73787000D01*
X99929000Y-73533000D01*
X99949000Y-73533000D01*
X99949000Y-72319076D01*
X100203000Y-72319076D01*
X100203000Y-73533000D01*
X101562217Y-73533000D01*
X101683358Y-73300974D01*
X101680709Y-73285209D01*
X101426732Y-72757964D01*
X100990320Y-72368046D01*
X100437913Y-72174816D01*
X100203000Y-72319076D01*
X99949000Y-72319076D01*
X99714087Y-72174816D01*
X99161680Y-72368046D01*
X98725268Y-72757964D01*
X98501200Y-73223119D01*
X98501200Y-68946187D01*
X117436752Y-68946187D01*
X117654757Y-69473800D01*
X118058077Y-69877824D01*
X118585309Y-70096750D01*
X119156187Y-70097248D01*
X119683800Y-69879243D01*
X120087824Y-69475923D01*
X120306750Y-68948691D01*
X120307248Y-68377813D01*
X120089243Y-67850200D01*
X119685923Y-67446176D01*
X119158691Y-67227250D01*
X118587813Y-67226752D01*
X118060200Y-67444757D01*
X117656176Y-67848077D01*
X117437250Y-68375309D01*
X117436752Y-68946187D01*
X98501200Y-68946187D01*
X98501200Y-66110045D01*
X98653282Y-65345480D01*
X99046696Y-64756696D01*
X99635749Y-64363102D01*
X100395947Y-64211200D01*
X140899955Y-64211200D01*
X141178511Y-64266608D01*
D16*
X111633000Y-85852000D03*
X108458000Y-87503000D03*
X117856000Y-76327000D03*
X117983000Y-83820000D03*
X112903000Y-70866000D03*
X108458000Y-69342000D03*
X108458000Y-82931000D03*
X110236000Y-76835000D03*
X114681000Y-77343000D03*
X112842000Y-83505000D03*
D17*
X100076000Y-86360000D03*
X100076000Y-83820000D03*
X100076000Y-81280000D03*
X100076000Y-78740000D03*
X100076000Y-76200000D03*
X100076000Y-73660000D03*
X118872000Y-68662000D03*
X118872000Y-89662000D03*
M02*
