%TF.GenerationSoftware,KiCad,Pcbnew,4.0.4+e1-6308~48~ubuntu16.04.1-stable*%
%TF.CreationDate,2017-01-02T12:50:36-08:00*%
%TF.ProjectId,mpu9250-breakout,6D7075393235302D627265616B6F7574,v1.0*%
%TF.FileFunction,Legend,Top*%
%FSLAX46Y46*%
G04 Gerber Fmt 4.6, Leading zero omitted, Abs format (unit mm)*
G04 Created by KiCad (PCBNEW 4.0.4+e1-6308~48~ubuntu16.04.1-stable) date Mon Jan  2 12:50:36 2017*
%MOMM*%
%LPD*%
G01*
G04 APERTURE LIST*
%ADD10C,0.350000*%
%ADD11C,0.152400*%
%ADD12C,0.150000*%
G04 APERTURE END LIST*
D10*
D11*
X147906619Y-111075409D02*
X147906619Y-110446457D01*
X148293667Y-110785123D01*
X148293667Y-110639981D01*
X148342048Y-110543219D01*
X148390429Y-110494838D01*
X148487190Y-110446457D01*
X148729095Y-110446457D01*
X148825857Y-110494838D01*
X148874238Y-110543219D01*
X148922619Y-110639981D01*
X148922619Y-110930266D01*
X148874238Y-111027028D01*
X148825857Y-111075409D01*
X148825857Y-110011028D02*
X148874238Y-109962647D01*
X148922619Y-110011028D01*
X148874238Y-110059409D01*
X148825857Y-110011028D01*
X148922619Y-110011028D01*
X147906619Y-109623980D02*
X147906619Y-108995028D01*
X148293667Y-109333694D01*
X148293667Y-109188552D01*
X148342048Y-109091790D01*
X148390429Y-109043409D01*
X148487190Y-108995028D01*
X148729095Y-108995028D01*
X148825857Y-109043409D01*
X148874238Y-109091790D01*
X148922619Y-109188552D01*
X148922619Y-109478837D01*
X148874238Y-109575599D01*
X148825857Y-109623980D01*
X147906619Y-108704742D02*
X148922619Y-108366075D01*
X147906619Y-108027409D01*
X140286619Y-111856762D02*
X141302619Y-111518095D01*
X140286619Y-111179429D01*
X141302619Y-110840762D02*
X140286619Y-110840762D01*
X140286619Y-110598857D01*
X140335000Y-110453715D01*
X140431762Y-110356953D01*
X140528524Y-110308572D01*
X140722048Y-110260191D01*
X140867190Y-110260191D01*
X141060714Y-110308572D01*
X141157476Y-110356953D01*
X141254238Y-110453715D01*
X141302619Y-110598857D01*
X141302619Y-110840762D01*
X141302619Y-109824762D02*
X140286619Y-109824762D01*
X140286619Y-109582857D01*
X140335000Y-109437715D01*
X140431762Y-109340953D01*
X140528524Y-109292572D01*
X140722048Y-109244191D01*
X140867190Y-109244191D01*
X141060714Y-109292572D01*
X141157476Y-109340953D01*
X141254238Y-109437715D01*
X141302619Y-109582857D01*
X141302619Y-109824762D01*
X141302619Y-108808762D02*
X140286619Y-108808762D01*
X140286619Y-108131428D02*
X140286619Y-107937905D01*
X140335000Y-107841143D01*
X140431762Y-107744381D01*
X140625286Y-107696000D01*
X140963952Y-107696000D01*
X141157476Y-107744381D01*
X141254238Y-107841143D01*
X141302619Y-107937905D01*
X141302619Y-108131428D01*
X141254238Y-108228190D01*
X141157476Y-108324952D01*
X140963952Y-108373333D01*
X140625286Y-108373333D01*
X140431762Y-108324952D01*
X140335000Y-108228190D01*
X140286619Y-108131428D01*
X151547286Y-114886619D02*
X151547286Y-113870619D01*
X152031096Y-114886619D02*
X152031096Y-113870619D01*
X152611667Y-114886619D01*
X152611667Y-113870619D01*
X152950334Y-113870619D02*
X153530905Y-113870619D01*
X153240620Y-114886619D02*
X153240620Y-113870619D01*
X151305381Y-118999000D02*
X151208619Y-118950619D01*
X151063476Y-118950619D01*
X150918334Y-118999000D01*
X150821572Y-119095762D01*
X150773191Y-119192524D01*
X150724810Y-119386048D01*
X150724810Y-119531190D01*
X150773191Y-119724714D01*
X150821572Y-119821476D01*
X150918334Y-119918238D01*
X151063476Y-119966619D01*
X151160238Y-119966619D01*
X151305381Y-119918238D01*
X151353762Y-119869857D01*
X151353762Y-119531190D01*
X151160238Y-119531190D01*
X151789191Y-119966619D02*
X151789191Y-118950619D01*
X152369762Y-119966619D01*
X152369762Y-118950619D01*
X152853572Y-119966619D02*
X152853572Y-118950619D01*
X153095477Y-118950619D01*
X153240619Y-118999000D01*
X153337381Y-119095762D01*
X153385762Y-119192524D01*
X153434143Y-119386048D01*
X153434143Y-119531190D01*
X153385762Y-119724714D01*
X153337381Y-119821476D01*
X153240619Y-119918238D01*
X153095477Y-119966619D01*
X152853572Y-119966619D01*
X150458714Y-116894429D02*
X150120048Y-116894429D01*
X150120048Y-117426619D02*
X150120048Y-116410619D01*
X150603857Y-116410619D01*
X150942524Y-117378238D02*
X151087667Y-117426619D01*
X151329571Y-117426619D01*
X151426333Y-117378238D01*
X151474714Y-117329857D01*
X151523095Y-117233095D01*
X151523095Y-117136333D01*
X151474714Y-117039571D01*
X151426333Y-116991190D01*
X151329571Y-116942810D01*
X151136048Y-116894429D01*
X151039286Y-116846048D01*
X150990905Y-116797667D01*
X150942524Y-116700905D01*
X150942524Y-116604143D01*
X150990905Y-116507381D01*
X151039286Y-116459000D01*
X151136048Y-116410619D01*
X151377952Y-116410619D01*
X151523095Y-116459000D01*
X152152048Y-116942810D02*
X152152048Y-117426619D01*
X151813381Y-116410619D02*
X152152048Y-116942810D01*
X152490714Y-116410619D01*
X152829381Y-117426619D02*
X152829381Y-116410619D01*
X153409952Y-117426619D01*
X153409952Y-116410619D01*
X149902334Y-109516333D02*
X150386143Y-109516333D01*
X149805572Y-109806619D02*
X150144239Y-108790619D01*
X150482905Y-109806619D01*
X150821572Y-108790619D02*
X150821572Y-109613095D01*
X150869953Y-109709857D01*
X150918334Y-109758238D01*
X151015096Y-109806619D01*
X151208619Y-109806619D01*
X151305381Y-109758238D01*
X151353762Y-109709857D01*
X151402143Y-109613095D01*
X151402143Y-108790619D01*
X151789191Y-108790619D02*
X152466524Y-109806619D01*
X152466524Y-108790619D02*
X151789191Y-109806619D01*
X152853572Y-109806619D02*
X152853572Y-108790619D01*
X153095477Y-108790619D01*
X153240619Y-108839000D01*
X153337381Y-108935762D01*
X153385762Y-109032524D01*
X153434143Y-109226048D01*
X153434143Y-109371190D01*
X153385762Y-109564714D01*
X153337381Y-109661476D01*
X153240619Y-109758238D01*
X153095477Y-109806619D01*
X152853572Y-109806619D01*
X149902334Y-112056333D02*
X150386143Y-112056333D01*
X149805572Y-112346619D02*
X150144239Y-111330619D01*
X150482905Y-112346619D01*
X150821572Y-111330619D02*
X150821572Y-112153095D01*
X150869953Y-112249857D01*
X150918334Y-112298238D01*
X151015096Y-112346619D01*
X151208619Y-112346619D01*
X151305381Y-112298238D01*
X151353762Y-112249857D01*
X151402143Y-112153095D01*
X151402143Y-111330619D01*
X151789191Y-111330619D02*
X152466524Y-112346619D01*
X152466524Y-111330619D02*
X151789191Y-112346619D01*
X153434143Y-112249857D02*
X153385762Y-112298238D01*
X153240619Y-112346619D01*
X153143857Y-112346619D01*
X152998715Y-112298238D01*
X152901953Y-112201476D01*
X152853572Y-112104714D01*
X152805191Y-111911190D01*
X152805191Y-111766048D01*
X152853572Y-111572524D01*
X152901953Y-111475762D01*
X152998715Y-111379000D01*
X153143857Y-111330619D01*
X153240619Y-111330619D01*
X153385762Y-111379000D01*
X153434143Y-111427381D01*
X134586739Y-117009333D02*
X135070548Y-117009333D01*
X134489977Y-117299619D02*
X134828644Y-116283619D01*
X135167310Y-117299619D01*
X135505977Y-117299619D02*
X135505977Y-116283619D01*
X135747882Y-116283619D01*
X135893024Y-116332000D01*
X135989786Y-116428762D01*
X136038167Y-116525524D01*
X136086548Y-116719048D01*
X136086548Y-116864190D01*
X136038167Y-117057714D01*
X135989786Y-117154476D01*
X135893024Y-117251238D01*
X135747882Y-117299619D01*
X135505977Y-117299619D01*
X136715501Y-116283619D02*
X136812262Y-116283619D01*
X136909024Y-116332000D01*
X136957405Y-116380381D01*
X137005786Y-116477143D01*
X137054167Y-116670667D01*
X137054167Y-116912571D01*
X137005786Y-117106095D01*
X136957405Y-117202857D01*
X136909024Y-117251238D01*
X136812262Y-117299619D01*
X136715501Y-117299619D01*
X136618739Y-117251238D01*
X136570358Y-117202857D01*
X136521977Y-117106095D01*
X136473596Y-116912571D01*
X136473596Y-116670667D01*
X136521977Y-116477143D01*
X136570358Y-116380381D01*
X136618739Y-116332000D01*
X136715501Y-116283619D01*
X135167310Y-118872000D02*
X135070548Y-118823619D01*
X134925405Y-118823619D01*
X134780263Y-118872000D01*
X134683501Y-118968762D01*
X134635120Y-119065524D01*
X134586739Y-119259048D01*
X134586739Y-119404190D01*
X134635120Y-119597714D01*
X134683501Y-119694476D01*
X134780263Y-119791238D01*
X134925405Y-119839619D01*
X135022167Y-119839619D01*
X135167310Y-119791238D01*
X135215691Y-119742857D01*
X135215691Y-119404190D01*
X135022167Y-119404190D01*
X135651120Y-119839619D02*
X135651120Y-118823619D01*
X136231691Y-119839619D01*
X136231691Y-118823619D01*
X136715501Y-119839619D02*
X136715501Y-118823619D01*
X136957406Y-118823619D01*
X137102548Y-118872000D01*
X137199310Y-118968762D01*
X137247691Y-119065524D01*
X137296072Y-119259048D01*
X137296072Y-119404190D01*
X137247691Y-119597714D01*
X137199310Y-119694476D01*
X137102548Y-119791238D01*
X136957406Y-119839619D01*
X136715501Y-119839619D01*
X134586739Y-114711238D02*
X134731882Y-114759619D01*
X134973786Y-114759619D01*
X135070548Y-114711238D01*
X135118929Y-114662857D01*
X135167310Y-114566095D01*
X135167310Y-114469333D01*
X135118929Y-114372571D01*
X135070548Y-114324190D01*
X134973786Y-114275810D01*
X134780263Y-114227429D01*
X134683501Y-114179048D01*
X134635120Y-114130667D01*
X134586739Y-114033905D01*
X134586739Y-113937143D01*
X134635120Y-113840381D01*
X134683501Y-113792000D01*
X134780263Y-113743619D01*
X135022167Y-113743619D01*
X135167310Y-113792000D01*
X135602739Y-114759619D02*
X135602739Y-113743619D01*
X135844644Y-113743619D01*
X135989786Y-113792000D01*
X136086548Y-113888762D01*
X136134929Y-113985524D01*
X136183310Y-114179048D01*
X136183310Y-114324190D01*
X136134929Y-114517714D01*
X136086548Y-114614476D01*
X135989786Y-114711238D01*
X135844644Y-114759619D01*
X135602739Y-114759619D01*
X136570358Y-114469333D02*
X137054167Y-114469333D01*
X136473596Y-114759619D02*
X136812263Y-113743619D01*
X137150929Y-114759619D01*
X134538358Y-108663619D02*
X135167310Y-108663619D01*
X134828644Y-109050667D01*
X134973786Y-109050667D01*
X135070548Y-109099048D01*
X135118929Y-109147429D01*
X135167310Y-109244190D01*
X135167310Y-109486095D01*
X135118929Y-109582857D01*
X135070548Y-109631238D01*
X134973786Y-109679619D01*
X134683501Y-109679619D01*
X134586739Y-109631238D01*
X134538358Y-109582857D01*
X135602739Y-109582857D02*
X135651120Y-109631238D01*
X135602739Y-109679619D01*
X135554358Y-109631238D01*
X135602739Y-109582857D01*
X135602739Y-109679619D01*
X135989787Y-108663619D02*
X136618739Y-108663619D01*
X136280073Y-109050667D01*
X136425215Y-109050667D01*
X136521977Y-109099048D01*
X136570358Y-109147429D01*
X136618739Y-109244190D01*
X136618739Y-109486095D01*
X136570358Y-109582857D01*
X136521977Y-109631238D01*
X136425215Y-109679619D01*
X136134930Y-109679619D01*
X136038168Y-109631238D01*
X135989787Y-109582857D01*
X136909025Y-108663619D02*
X137247692Y-109679619D01*
X137586358Y-108663619D01*
X134586739Y-112171238D02*
X134731882Y-112219619D01*
X134973786Y-112219619D01*
X135070548Y-112171238D01*
X135118929Y-112122857D01*
X135167310Y-112026095D01*
X135167310Y-111929333D01*
X135118929Y-111832571D01*
X135070548Y-111784190D01*
X134973786Y-111735810D01*
X134780263Y-111687429D01*
X134683501Y-111639048D01*
X134635120Y-111590667D01*
X134586739Y-111493905D01*
X134586739Y-111397143D01*
X134635120Y-111300381D01*
X134683501Y-111252000D01*
X134780263Y-111203619D01*
X135022167Y-111203619D01*
X135167310Y-111252000D01*
X136183310Y-112122857D02*
X136134929Y-112171238D01*
X135989786Y-112219619D01*
X135893024Y-112219619D01*
X135747882Y-112171238D01*
X135651120Y-112074476D01*
X135602739Y-111977714D01*
X135554358Y-111784190D01*
X135554358Y-111639048D01*
X135602739Y-111445524D01*
X135651120Y-111348762D01*
X135747882Y-111252000D01*
X135893024Y-111203619D01*
X135989786Y-111203619D01*
X136134929Y-111252000D01*
X136183310Y-111300381D01*
X137102548Y-112219619D02*
X136618739Y-112219619D01*
X136618739Y-111203619D01*
X139651619Y-96108762D02*
X140667619Y-95770095D01*
X139651619Y-95431429D01*
X140667619Y-95092762D02*
X139651619Y-95092762D01*
X139651619Y-94850857D01*
X139700000Y-94705715D01*
X139796762Y-94608953D01*
X139893524Y-94560572D01*
X140087048Y-94512191D01*
X140232190Y-94512191D01*
X140425714Y-94560572D01*
X140522476Y-94608953D01*
X140619238Y-94705715D01*
X140667619Y-94850857D01*
X140667619Y-95092762D01*
X140667619Y-94076762D02*
X139651619Y-94076762D01*
X139651619Y-93834857D01*
X139700000Y-93689715D01*
X139796762Y-93592953D01*
X139893524Y-93544572D01*
X140087048Y-93496191D01*
X140232190Y-93496191D01*
X140425714Y-93544572D01*
X140522476Y-93592953D01*
X140619238Y-93689715D01*
X140667619Y-93834857D01*
X140667619Y-94076762D01*
X140667619Y-93060762D02*
X139651619Y-93060762D01*
X139651619Y-92383428D02*
X139651619Y-92189905D01*
X139700000Y-92093143D01*
X139796762Y-91996381D01*
X139990286Y-91948000D01*
X140328952Y-91948000D01*
X140522476Y-91996381D01*
X140619238Y-92093143D01*
X140667619Y-92189905D01*
X140667619Y-92383428D01*
X140619238Y-92480190D01*
X140522476Y-92576952D01*
X140328952Y-92625333D01*
X139990286Y-92625333D01*
X139796762Y-92576952D01*
X139700000Y-92480190D01*
X139651619Y-92383428D01*
X147271619Y-95327409D02*
X147271619Y-94698457D01*
X147658667Y-95037123D01*
X147658667Y-94891981D01*
X147707048Y-94795219D01*
X147755429Y-94746838D01*
X147852190Y-94698457D01*
X148094095Y-94698457D01*
X148190857Y-94746838D01*
X148239238Y-94795219D01*
X148287619Y-94891981D01*
X148287619Y-95182266D01*
X148239238Y-95279028D01*
X148190857Y-95327409D01*
X148190857Y-94263028D02*
X148239238Y-94214647D01*
X148287619Y-94263028D01*
X148239238Y-94311409D01*
X148190857Y-94263028D01*
X148287619Y-94263028D01*
X147271619Y-93875980D02*
X147271619Y-93247028D01*
X147658667Y-93585694D01*
X147658667Y-93440552D01*
X147707048Y-93343790D01*
X147755429Y-93295409D01*
X147852190Y-93247028D01*
X148094095Y-93247028D01*
X148190857Y-93295409D01*
X148239238Y-93343790D01*
X148287619Y-93440552D01*
X148287619Y-93730837D01*
X148239238Y-93827599D01*
X148190857Y-93875980D01*
X147271619Y-92956742D02*
X148287619Y-92618075D01*
X147271619Y-92279409D01*
X150077714Y-101019429D02*
X149739048Y-101019429D01*
X149739048Y-101551619D02*
X149739048Y-100535619D01*
X150222857Y-100535619D01*
X150561524Y-101503238D02*
X150706667Y-101551619D01*
X150948571Y-101551619D01*
X151045333Y-101503238D01*
X151093714Y-101454857D01*
X151142095Y-101358095D01*
X151142095Y-101261333D01*
X151093714Y-101164571D01*
X151045333Y-101116190D01*
X150948571Y-101067810D01*
X150755048Y-101019429D01*
X150658286Y-100971048D01*
X150609905Y-100922667D01*
X150561524Y-100825905D01*
X150561524Y-100729143D01*
X150609905Y-100632381D01*
X150658286Y-100584000D01*
X150755048Y-100535619D01*
X150996952Y-100535619D01*
X151142095Y-100584000D01*
X151771048Y-101067810D02*
X151771048Y-101551619D01*
X151432381Y-100535619D02*
X151771048Y-101067810D01*
X152109714Y-100535619D01*
X152448381Y-101551619D02*
X152448381Y-100535619D01*
X153028952Y-101551619D01*
X153028952Y-100535619D01*
X150924381Y-103124000D02*
X150827619Y-103075619D01*
X150682476Y-103075619D01*
X150537334Y-103124000D01*
X150440572Y-103220762D01*
X150392191Y-103317524D01*
X150343810Y-103511048D01*
X150343810Y-103656190D01*
X150392191Y-103849714D01*
X150440572Y-103946476D01*
X150537334Y-104043238D01*
X150682476Y-104091619D01*
X150779238Y-104091619D01*
X150924381Y-104043238D01*
X150972762Y-103994857D01*
X150972762Y-103656190D01*
X150779238Y-103656190D01*
X151408191Y-104091619D02*
X151408191Y-103075619D01*
X151988762Y-104091619D01*
X151988762Y-103075619D01*
X152472572Y-104091619D02*
X152472572Y-103075619D01*
X152714477Y-103075619D01*
X152859619Y-103124000D01*
X152956381Y-103220762D01*
X153004762Y-103317524D01*
X153053143Y-103511048D01*
X153053143Y-103656190D01*
X153004762Y-103849714D01*
X152956381Y-103946476D01*
X152859619Y-104043238D01*
X152714477Y-104091619D01*
X152472572Y-104091619D01*
X151166286Y-99011619D02*
X151166286Y-97995619D01*
X151650096Y-99011619D02*
X151650096Y-97995619D01*
X152230667Y-99011619D01*
X152230667Y-97995619D01*
X152569334Y-97995619D02*
X153149905Y-97995619D01*
X152859620Y-99011619D02*
X152859620Y-97995619D01*
X149521334Y-93641333D02*
X150005143Y-93641333D01*
X149424572Y-93931619D02*
X149763239Y-92915619D01*
X150101905Y-93931619D01*
X150440572Y-92915619D02*
X150440572Y-93738095D01*
X150488953Y-93834857D01*
X150537334Y-93883238D01*
X150634096Y-93931619D01*
X150827619Y-93931619D01*
X150924381Y-93883238D01*
X150972762Y-93834857D01*
X151021143Y-93738095D01*
X151021143Y-92915619D01*
X151408191Y-92915619D02*
X152085524Y-93931619D01*
X152085524Y-92915619D02*
X151408191Y-93931619D01*
X152472572Y-93931619D02*
X152472572Y-92915619D01*
X152714477Y-92915619D01*
X152859619Y-92964000D01*
X152956381Y-93060762D01*
X153004762Y-93157524D01*
X153053143Y-93351048D01*
X153053143Y-93496190D01*
X153004762Y-93689714D01*
X152956381Y-93786476D01*
X152859619Y-93883238D01*
X152714477Y-93931619D01*
X152472572Y-93931619D01*
X149521334Y-96181333D02*
X150005143Y-96181333D01*
X149424572Y-96471619D02*
X149763239Y-95455619D01*
X150101905Y-96471619D01*
X150440572Y-95455619D02*
X150440572Y-96278095D01*
X150488953Y-96374857D01*
X150537334Y-96423238D01*
X150634096Y-96471619D01*
X150827619Y-96471619D01*
X150924381Y-96423238D01*
X150972762Y-96374857D01*
X151021143Y-96278095D01*
X151021143Y-95455619D01*
X151408191Y-95455619D02*
X152085524Y-96471619D01*
X152085524Y-95455619D02*
X151408191Y-96471619D01*
X153053143Y-96374857D02*
X153004762Y-96423238D01*
X152859619Y-96471619D01*
X152762857Y-96471619D01*
X152617715Y-96423238D01*
X152520953Y-96326476D01*
X152472572Y-96229714D01*
X152424191Y-96036190D01*
X152424191Y-95891048D01*
X152472572Y-95697524D01*
X152520953Y-95600762D01*
X152617715Y-95504000D01*
X152762857Y-95455619D01*
X152859619Y-95455619D01*
X153004762Y-95504000D01*
X153053143Y-95552381D01*
X134982858Y-104091619D02*
X134982858Y-103075619D01*
X135321524Y-103801333D01*
X135660191Y-103075619D01*
X135660191Y-104091619D01*
X136144001Y-104091619D02*
X136144001Y-103075619D01*
X136579430Y-104043238D02*
X136724573Y-104091619D01*
X136966477Y-104091619D01*
X137063239Y-104043238D01*
X137111620Y-103994857D01*
X137160001Y-103898095D01*
X137160001Y-103801333D01*
X137111620Y-103704571D01*
X137063239Y-103656190D01*
X136966477Y-103607810D01*
X136772954Y-103559429D01*
X136676192Y-103511048D01*
X136627811Y-103462667D01*
X136579430Y-103365905D01*
X136579430Y-103269143D01*
X136627811Y-103172381D01*
X136676192Y-103124000D01*
X136772954Y-103075619D01*
X137014858Y-103075619D01*
X137160001Y-103124000D01*
X137788954Y-103075619D02*
X137982477Y-103075619D01*
X138079239Y-103124000D01*
X138176001Y-103220762D01*
X138224382Y-103414286D01*
X138224382Y-103752952D01*
X138176001Y-103946476D01*
X138079239Y-104043238D01*
X137982477Y-104091619D01*
X137788954Y-104091619D01*
X137692192Y-104043238D01*
X137595430Y-103946476D01*
X137547049Y-103752952D01*
X137547049Y-103414286D01*
X137595430Y-103220762D01*
X137692192Y-103124000D01*
X137788954Y-103075619D01*
X134982858Y-101551619D02*
X134982858Y-100535619D01*
X135321524Y-101261333D01*
X135660191Y-100535619D01*
X135660191Y-101551619D01*
X136337525Y-100535619D02*
X136531048Y-100535619D01*
X136627810Y-100584000D01*
X136724572Y-100680762D01*
X136772953Y-100874286D01*
X136772953Y-101212952D01*
X136724572Y-101406476D01*
X136627810Y-101503238D01*
X136531048Y-101551619D01*
X136337525Y-101551619D01*
X136240763Y-101503238D01*
X136144001Y-101406476D01*
X136095620Y-101212952D01*
X136095620Y-100874286D01*
X136144001Y-100680762D01*
X136240763Y-100584000D01*
X136337525Y-100535619D01*
X137160001Y-101503238D02*
X137305144Y-101551619D01*
X137547048Y-101551619D01*
X137643810Y-101503238D01*
X137692191Y-101454857D01*
X137740572Y-101358095D01*
X137740572Y-101261333D01*
X137692191Y-101164571D01*
X137643810Y-101116190D01*
X137547048Y-101067810D01*
X137353525Y-101019429D01*
X137256763Y-100971048D01*
X137208382Y-100922667D01*
X137160001Y-100825905D01*
X137160001Y-100729143D01*
X137208382Y-100632381D01*
X137256763Y-100584000D01*
X137353525Y-100535619D01*
X137595429Y-100535619D01*
X137740572Y-100584000D01*
X138176001Y-101551619D02*
X138176001Y-100535619D01*
X134934477Y-98963238D02*
X135079620Y-99011619D01*
X135321524Y-99011619D01*
X135418286Y-98963238D01*
X135466667Y-98914857D01*
X135515048Y-98818095D01*
X135515048Y-98721333D01*
X135466667Y-98624571D01*
X135418286Y-98576190D01*
X135321524Y-98527810D01*
X135128001Y-98479429D01*
X135031239Y-98431048D01*
X134982858Y-98382667D01*
X134934477Y-98285905D01*
X134934477Y-98189143D01*
X134982858Y-98092381D01*
X135031239Y-98044000D01*
X135128001Y-97995619D01*
X135369905Y-97995619D01*
X135515048Y-98044000D01*
X136531048Y-98914857D02*
X136482667Y-98963238D01*
X136337524Y-99011619D01*
X136240762Y-99011619D01*
X136095620Y-98963238D01*
X135998858Y-98866476D01*
X135950477Y-98769714D01*
X135902096Y-98576190D01*
X135902096Y-98431048D01*
X135950477Y-98237524D01*
X135998858Y-98140762D01*
X136095620Y-98044000D01*
X136240762Y-97995619D01*
X136337524Y-97995619D01*
X136482667Y-98044000D01*
X136531048Y-98092381D01*
X137450286Y-99011619D02*
X136966477Y-99011619D01*
X136966477Y-97995619D01*
X137788953Y-99011619D02*
X137788953Y-97995619D01*
X138369524Y-99011619D02*
X137934096Y-98431048D01*
X138369524Y-97995619D02*
X137788953Y-98576190D01*
X135563429Y-96374857D02*
X135515048Y-96423238D01*
X135369905Y-96471619D01*
X135273143Y-96471619D01*
X135128001Y-96423238D01*
X135031239Y-96326476D01*
X134982858Y-96229714D01*
X134934477Y-96036190D01*
X134934477Y-95891048D01*
X134982858Y-95697524D01*
X135031239Y-95600762D01*
X135128001Y-95504000D01*
X135273143Y-95455619D01*
X135369905Y-95455619D01*
X135515048Y-95504000D01*
X135563429Y-95552381D01*
X135950477Y-96423238D02*
X136095620Y-96471619D01*
X136337524Y-96471619D01*
X136434286Y-96423238D01*
X136482667Y-96374857D01*
X136531048Y-96278095D01*
X136531048Y-96181333D01*
X136482667Y-96084571D01*
X136434286Y-96036190D01*
X136337524Y-95987810D01*
X136144001Y-95939429D01*
X136047239Y-95891048D01*
X135998858Y-95842667D01*
X135950477Y-95745905D01*
X135950477Y-95649143D01*
X135998858Y-95552381D01*
X136047239Y-95504000D01*
X136144001Y-95455619D01*
X136385905Y-95455619D01*
X136531048Y-95504000D01*
X134886096Y-92915619D02*
X135515048Y-92915619D01*
X135176382Y-93302667D01*
X135321524Y-93302667D01*
X135418286Y-93351048D01*
X135466667Y-93399429D01*
X135515048Y-93496190D01*
X135515048Y-93738095D01*
X135466667Y-93834857D01*
X135418286Y-93883238D01*
X135321524Y-93931619D01*
X135031239Y-93931619D01*
X134934477Y-93883238D01*
X134886096Y-93834857D01*
X135950477Y-93834857D02*
X135998858Y-93883238D01*
X135950477Y-93931619D01*
X135902096Y-93883238D01*
X135950477Y-93834857D01*
X135950477Y-93931619D01*
X136337525Y-92915619D02*
X136966477Y-92915619D01*
X136627811Y-93302667D01*
X136772953Y-93302667D01*
X136869715Y-93351048D01*
X136918096Y-93399429D01*
X136966477Y-93496190D01*
X136966477Y-93738095D01*
X136918096Y-93834857D01*
X136869715Y-93883238D01*
X136772953Y-93931619D01*
X136482668Y-93931619D01*
X136385906Y-93883238D01*
X136337525Y-93834857D01*
X137256763Y-92915619D02*
X137595430Y-93931619D01*
X137934096Y-92915619D01*
X143105000Y-115325500D02*
G75*
G03X143105000Y-115325500I-63500J0D01*
G01*
D12*
X143029000Y-118513000D02*
X143029000Y-118113000D01*
X143029000Y-118513000D02*
X143429000Y-118513000D01*
X146229000Y-118513000D02*
X146229000Y-118113000D01*
X146229000Y-118513000D02*
X145829000Y-118513000D01*
X146229000Y-115313000D02*
X146229000Y-115713000D01*
X146229000Y-115313000D02*
X145829000Y-115313000D01*
X143029000Y-115313000D02*
X143429000Y-115313000D01*
X141953000Y-101739600D02*
X141953000Y-101239600D01*
X141003000Y-101239600D02*
X141003000Y-101739600D01*
X145538000Y-104046000D02*
X145038000Y-104046000D01*
X145038000Y-104996000D02*
X145538000Y-104996000D01*
X146489400Y-102204800D02*
X146489400Y-102704800D01*
X147439400Y-102704800D02*
X147439400Y-102204800D01*
X131038000Y-93472000D02*
X131038000Y-91922000D01*
X131038000Y-91922000D02*
X134138000Y-91922000D01*
X134138000Y-91922000D02*
X134138000Y-93472000D01*
X133858000Y-94742000D02*
X133858000Y-104902000D01*
X133858000Y-104902000D02*
X131318000Y-104902000D01*
X131318000Y-104902000D02*
X131318000Y-94742000D01*
X133858000Y-94742000D02*
X131318000Y-94742000D01*
X153898000Y-93472000D02*
X153898000Y-91922000D01*
X153898000Y-91922000D02*
X156998000Y-91922000D01*
X156998000Y-91922000D02*
X156998000Y-93472000D01*
X156718000Y-94742000D02*
X156718000Y-104902000D01*
X156718000Y-104902000D02*
X154178000Y-104902000D01*
X154178000Y-104902000D02*
X154178000Y-94742000D01*
X156718000Y-94742000D02*
X154178000Y-94742000D01*
X143916400Y-92608400D02*
X146456400Y-92608400D01*
X141096400Y-92328400D02*
X142646400Y-92328400D01*
X143916400Y-92608400D02*
X143916400Y-95148400D01*
X142646400Y-95428400D02*
X141096400Y-95428400D01*
X141096400Y-95428400D02*
X141096400Y-92328400D01*
X143916400Y-95148400D02*
X146456400Y-95148400D01*
X146456400Y-95148400D02*
X146456400Y-92608400D01*
D11*
X142621000Y-100115500D02*
G75*
G03X142621000Y-100115500I-63500J0D01*
G01*
D12*
X142545000Y-103303000D02*
X142545000Y-102903000D01*
X142545000Y-103303000D02*
X142945000Y-103303000D01*
X145745000Y-103303000D02*
X145745000Y-102903000D01*
X145745000Y-103303000D02*
X145345000Y-103303000D01*
X145745000Y-100103000D02*
X145745000Y-100503000D01*
X145745000Y-100103000D02*
X145345000Y-100103000D01*
X142545000Y-100103000D02*
X142945000Y-100103000D01*
X142334000Y-116540000D02*
X142334000Y-116040000D01*
X141384000Y-116040000D02*
X141384000Y-116540000D01*
X145961000Y-119159000D02*
X145461000Y-119159000D01*
X145461000Y-120109000D02*
X145961000Y-120109000D01*
X146972000Y-117394000D02*
X146972000Y-117894000D01*
X147922000Y-117894000D02*
X147922000Y-117394000D01*
X153898000Y-109263201D02*
X153898000Y-107713201D01*
X153898000Y-107713201D02*
X156998000Y-107713201D01*
X156998000Y-107713201D02*
X156998000Y-109263201D01*
X156718000Y-110533201D02*
X156718000Y-120693201D01*
X156718000Y-120693201D02*
X154178000Y-120693201D01*
X154178000Y-120693201D02*
X154178000Y-110533201D01*
X156718000Y-110533201D02*
X154178000Y-110533201D01*
X131038000Y-109263201D02*
X131038000Y-107713201D01*
X131038000Y-107713201D02*
X134138000Y-107713201D01*
X134138000Y-107713201D02*
X134138000Y-109263201D01*
X133858000Y-110533201D02*
X133858000Y-120693201D01*
X133858000Y-120693201D02*
X131318000Y-120693201D01*
X131318000Y-120693201D02*
X131318000Y-110533201D01*
X133858000Y-110533201D02*
X131318000Y-110533201D01*
X144716500Y-108458000D02*
X147256500Y-108458000D01*
X141896500Y-108178000D02*
X143446500Y-108178000D01*
X144716500Y-108458000D02*
X144716500Y-110998000D01*
X143446500Y-111278000D02*
X141896500Y-111278000D01*
X141896500Y-111278000D02*
X141896500Y-108178000D01*
X144716500Y-110998000D02*
X147256500Y-110998000D01*
X147256500Y-110998000D02*
X147256500Y-108458000D01*
X142724095Y-113507881D02*
X142724095Y-114317405D01*
X142771714Y-114412643D01*
X142819333Y-114460262D01*
X142914571Y-114507881D01*
X143105048Y-114507881D01*
X143200286Y-114460262D01*
X143247905Y-114412643D01*
X143295524Y-114317405D01*
X143295524Y-113507881D01*
X143724095Y-113603119D02*
X143771714Y-113555500D01*
X143866952Y-113507881D01*
X144105048Y-113507881D01*
X144200286Y-113555500D01*
X144247905Y-113603119D01*
X144295524Y-113698357D01*
X144295524Y-113793595D01*
X144247905Y-113936452D01*
X143676476Y-114507881D01*
X144295524Y-114507881D01*
X141835143Y-103773266D02*
X141882762Y-103820885D01*
X141930381Y-103963742D01*
X141930381Y-104058980D01*
X141882762Y-104201838D01*
X141787524Y-104297076D01*
X141692286Y-104344695D01*
X141501810Y-104392314D01*
X141358952Y-104392314D01*
X141168476Y-104344695D01*
X141073238Y-104297076D01*
X140978000Y-104201838D01*
X140930381Y-104058980D01*
X140930381Y-103963742D01*
X140978000Y-103820885D01*
X141025619Y-103773266D01*
X141930381Y-102820885D02*
X141930381Y-103392314D01*
X141930381Y-103106600D02*
X140930381Y-103106600D01*
X141073238Y-103201838D01*
X141168476Y-103297076D01*
X141216095Y-103392314D01*
X142835334Y-104878143D02*
X142787715Y-104925762D01*
X142644858Y-104973381D01*
X142549620Y-104973381D01*
X142406762Y-104925762D01*
X142311524Y-104830524D01*
X142263905Y-104735286D01*
X142216286Y-104544810D01*
X142216286Y-104401952D01*
X142263905Y-104211476D01*
X142311524Y-104116238D01*
X142406762Y-104021000D01*
X142549620Y-103973381D01*
X142644858Y-103973381D01*
X142787715Y-104021000D01*
X142835334Y-104068619D01*
X143216286Y-104068619D02*
X143263905Y-104021000D01*
X143359143Y-103973381D01*
X143597239Y-103973381D01*
X143692477Y-104021000D01*
X143740096Y-104068619D01*
X143787715Y-104163857D01*
X143787715Y-104259095D01*
X143740096Y-104401952D01*
X143168667Y-104973381D01*
X143787715Y-104973381D01*
X147372343Y-100445866D02*
X147419962Y-100493485D01*
X147467581Y-100636342D01*
X147467581Y-100731580D01*
X147419962Y-100874438D01*
X147324724Y-100969676D01*
X147229486Y-101017295D01*
X147039010Y-101064914D01*
X146896152Y-101064914D01*
X146705676Y-101017295D01*
X146610438Y-100969676D01*
X146515200Y-100874438D01*
X146467581Y-100731580D01*
X146467581Y-100636342D01*
X146515200Y-100493485D01*
X146562819Y-100445866D01*
X146467581Y-100112533D02*
X146467581Y-99493485D01*
X146848533Y-99826819D01*
X146848533Y-99683961D01*
X146896152Y-99588723D01*
X146943771Y-99541104D01*
X147039010Y-99493485D01*
X147277105Y-99493485D01*
X147372343Y-99541104D01*
X147419962Y-99588723D01*
X147467581Y-99683961D01*
X147467581Y-99969676D01*
X147419962Y-100064914D01*
X147372343Y-100112533D01*
X142544895Y-98297881D02*
X142544895Y-99107405D01*
X142592514Y-99202643D01*
X142640133Y-99250262D01*
X142735371Y-99297881D01*
X142925848Y-99297881D01*
X143021086Y-99250262D01*
X143068705Y-99202643D01*
X143116324Y-99107405D01*
X143116324Y-98297881D01*
X144116324Y-99297881D02*
X143544895Y-99297881D01*
X143830609Y-99297881D02*
X143830609Y-98297881D01*
X143735371Y-98440738D01*
X143640133Y-98535976D01*
X143544895Y-98583595D01*
X142216143Y-118657666D02*
X142263762Y-118705285D01*
X142311381Y-118848142D01*
X142311381Y-118943380D01*
X142263762Y-119086238D01*
X142168524Y-119181476D01*
X142073286Y-119229095D01*
X141882810Y-119276714D01*
X141739952Y-119276714D01*
X141549476Y-119229095D01*
X141454238Y-119181476D01*
X141359000Y-119086238D01*
X141311381Y-118943380D01*
X141311381Y-118848142D01*
X141359000Y-118705285D01*
X141406619Y-118657666D01*
X141644714Y-117800523D02*
X142311381Y-117800523D01*
X141263762Y-118038619D02*
X141978048Y-118276714D01*
X141978048Y-117657666D01*
X143427334Y-120118143D02*
X143379715Y-120165762D01*
X143236858Y-120213381D01*
X143141620Y-120213381D01*
X142998762Y-120165762D01*
X142903524Y-120070524D01*
X142855905Y-119975286D01*
X142808286Y-119784810D01*
X142808286Y-119641952D01*
X142855905Y-119451476D01*
X142903524Y-119356238D01*
X142998762Y-119261000D01*
X143141620Y-119213381D01*
X143236858Y-119213381D01*
X143379715Y-119261000D01*
X143427334Y-119308619D01*
X144332096Y-119213381D02*
X143855905Y-119213381D01*
X143808286Y-119689571D01*
X143855905Y-119641952D01*
X143951143Y-119594333D01*
X144189239Y-119594333D01*
X144284477Y-119641952D01*
X144332096Y-119689571D01*
X144379715Y-119784810D01*
X144379715Y-120022905D01*
X144332096Y-120118143D01*
X144284477Y-120165762D01*
X144189239Y-120213381D01*
X143951143Y-120213381D01*
X143855905Y-120165762D01*
X143808286Y-120118143D01*
X147867643Y-115609666D02*
X147915262Y-115657285D01*
X147962881Y-115800142D01*
X147962881Y-115895380D01*
X147915262Y-116038238D01*
X147820024Y-116133476D01*
X147724786Y-116181095D01*
X147534310Y-116228714D01*
X147391452Y-116228714D01*
X147200976Y-116181095D01*
X147105738Y-116133476D01*
X147010500Y-116038238D01*
X146962881Y-115895380D01*
X146962881Y-115800142D01*
X147010500Y-115657285D01*
X147058119Y-115609666D01*
X146962881Y-114752523D02*
X146962881Y-114943000D01*
X147010500Y-115038238D01*
X147058119Y-115085857D01*
X147200976Y-115181095D01*
X147391452Y-115228714D01*
X147772405Y-115228714D01*
X147867643Y-115181095D01*
X147915262Y-115133476D01*
X147962881Y-115038238D01*
X147962881Y-114847761D01*
X147915262Y-114752523D01*
X147867643Y-114704904D01*
X147772405Y-114657285D01*
X147534310Y-114657285D01*
X147439071Y-114704904D01*
X147391452Y-114752523D01*
X147343833Y-114847761D01*
X147343833Y-115038238D01*
X147391452Y-115133476D01*
X147439071Y-115181095D01*
X147534310Y-115228714D01*
M02*
