%TF.GenerationSoftware,KiCad,Pcbnew,4.0.4+e1-6308~48~ubuntu16.04.1-stable*%
%TF.CreationDate,2017-01-02T12:50:36-08:00*%
%TF.ProjectId,mpu9250-breakout,6D7075393235302D627265616B6F7574,v1.0*%
%TF.FileFunction,Copper,L1,Top,Signal*%
%FSLAX46Y46*%
G04 Gerber Fmt 4.6, Leading zero omitted, Abs format (unit mm)*
G04 Created by KiCad (PCBNEW 4.0.4+e1-6308~48~ubuntu16.04.1-stable) date Mon Jan  2 12:50:36 2017*
%MOMM*%
%LPD*%
G01*
G04 APERTURE LIST*
%ADD10C,0.350000*%
%ADD11R,0.550000X0.200000*%
%ADD12R,0.200000X0.550000*%
%ADD13R,0.500000X0.600000*%
%ADD14R,0.600000X0.500000*%
%ADD15R,2.032000X1.727200*%
%ADD16O,2.032000X1.727200*%
%ADD17R,2.032000X2.032000*%
%ADD18O,2.032000X2.032000*%
%ADD19C,0.685800*%
%ADD20C,0.254000*%
%ADD21C,0.152400*%
%ADD22C,0.330200*%
%ADD23C,0.330200*%
%ADD24C,0.350000*%
G04 APERTURE END LIST*
D10*
D11*
X143129000Y-115913000D03*
X143129000Y-116313000D03*
X143129000Y-116713000D03*
X143129000Y-117113000D03*
X143129000Y-117513000D03*
X143129000Y-117913000D03*
D12*
X143629000Y-118413000D03*
X144029000Y-118413000D03*
X144429000Y-118413000D03*
X144829000Y-118413000D03*
X145229000Y-118413000D03*
X145629000Y-118413000D03*
D11*
X146129000Y-117913000D03*
X146129000Y-117513000D03*
X146129000Y-117113000D03*
X146129000Y-116713000D03*
X146129000Y-116313000D03*
X146129000Y-115913000D03*
D12*
X145629000Y-115413000D03*
X145229000Y-115413000D03*
X144829000Y-115413000D03*
X144429000Y-115413000D03*
X144029000Y-115413000D03*
X143629000Y-115413000D03*
D13*
X141478000Y-100939600D03*
X141478000Y-102039600D03*
D14*
X144738000Y-104521000D03*
X145838000Y-104521000D03*
D13*
X146964400Y-103004800D03*
X146964400Y-101904800D03*
D15*
X132588000Y-93472000D03*
D16*
X132588000Y-96012000D03*
X132588000Y-98552000D03*
X132588000Y-101092000D03*
X132588000Y-103632000D03*
D15*
X155448000Y-93472000D03*
D16*
X155448000Y-96012000D03*
X155448000Y-98552000D03*
X155448000Y-101092000D03*
X155448000Y-103632000D03*
D17*
X142646400Y-93878400D03*
D18*
X145186400Y-93878400D03*
D11*
X142645000Y-100703000D03*
X142645000Y-101103000D03*
X142645000Y-101503000D03*
X142645000Y-101903000D03*
X142645000Y-102303000D03*
X142645000Y-102703000D03*
D12*
X143145000Y-103203000D03*
X143545000Y-103203000D03*
X143945000Y-103203000D03*
X144345000Y-103203000D03*
X144745000Y-103203000D03*
X145145000Y-103203000D03*
D11*
X145645000Y-102703000D03*
X145645000Y-102303000D03*
X145645000Y-101903000D03*
X145645000Y-101503000D03*
X145645000Y-101103000D03*
X145645000Y-100703000D03*
D12*
X145145000Y-100203000D03*
X144745000Y-100203000D03*
X144345000Y-100203000D03*
X143945000Y-100203000D03*
X143545000Y-100203000D03*
X143145000Y-100203000D03*
D13*
X141859000Y-115740000D03*
X141859000Y-116840000D03*
D14*
X145161000Y-119634000D03*
X146261000Y-119634000D03*
D13*
X147447000Y-118194000D03*
X147447000Y-117094000D03*
D15*
X155448000Y-109263201D03*
D16*
X155448000Y-111803201D03*
X155448000Y-114343201D03*
X155448000Y-116883201D03*
X155448000Y-119423201D03*
D15*
X132588000Y-109263201D03*
D16*
X132588000Y-111803201D03*
X132588000Y-114343201D03*
X132588000Y-116883201D03*
X132588000Y-119423201D03*
D17*
X143446500Y-109728000D03*
D18*
X145986500Y-109728000D03*
D19*
X146932252Y-113665000D03*
X146932252Y-117812607D03*
X146259493Y-102763651D03*
X148526500Y-118173490D03*
X143573500Y-119126000D03*
X145615170Y-99598913D03*
X143560800Y-101295200D03*
X138557000Y-113030000D03*
X138811000Y-110490000D03*
X148336000Y-112966500D03*
X145445495Y-114252243D03*
X147461324Y-119684821D03*
X147554562Y-115865414D03*
X148590000Y-117094000D03*
X140716000Y-116840000D03*
X144945110Y-98897023D03*
X148234400Y-101904800D03*
X146913600Y-104546400D03*
X140462000Y-102057200D03*
X146964400Y-100584000D03*
X142138400Y-99923600D03*
X144029000Y-116343000D03*
D20*
X144429000Y-115413000D02*
X144429000Y-113894092D01*
X144429000Y-113894092D02*
X145013701Y-113309391D01*
X145013701Y-113309391D02*
X146576643Y-113309391D01*
X146576643Y-113309391D02*
X146589353Y-113322101D01*
X146589353Y-113322101D02*
X146932252Y-113665000D01*
X147447000Y-118194000D02*
X147313645Y-118194000D01*
X147313645Y-118194000D02*
X146932252Y-117812607D01*
X146129000Y-117913000D02*
X147166000Y-117913000D01*
X147166000Y-117913000D02*
X147447000Y-118194000D01*
D21*
X145645000Y-102703000D02*
X146202400Y-102703000D01*
X146259493Y-102763651D02*
X146662600Y-102703000D01*
X146202400Y-102706558D02*
X146259493Y-102763651D01*
X146202400Y-102703000D02*
X146202400Y-102706558D01*
D22*
X141274800Y-92456000D02*
X143764000Y-92456000D01*
X143764000Y-92456000D02*
X145186400Y-93878400D01*
X140258800Y-93472000D02*
X141274800Y-92456000D01*
X132588000Y-93472000D02*
X140258800Y-93472000D01*
D21*
X146662600Y-102703000D02*
X146964400Y-103004800D01*
X153847800Y-112852190D02*
X148869399Y-117830591D01*
X153847800Y-111887000D02*
X153847800Y-112852190D01*
X148869399Y-117830591D02*
X148526500Y-118173490D01*
X143629000Y-118413000D02*
X143629000Y-119070500D01*
X143629000Y-119070500D02*
X143573500Y-119126000D01*
X149879887Y-99598913D02*
X153466800Y-96012000D01*
X153466800Y-96012000D02*
X155448000Y-96012000D01*
X145615170Y-99598913D02*
X149879887Y-99598913D01*
X143148601Y-103199399D02*
X143148601Y-101707399D01*
X143145000Y-103203000D02*
X143148601Y-103199399D01*
X143148601Y-101707399D02*
X143560800Y-101295200D01*
X143945000Y-103630400D02*
X143945000Y-103203000D01*
X143282991Y-104292409D02*
X143945000Y-103630400D01*
X142062943Y-104292409D02*
X143282991Y-104292409D01*
X132588000Y-103632000D02*
X141402534Y-103632000D01*
X141402534Y-103632000D02*
X142062943Y-104292409D01*
X145501911Y-119113311D02*
X149940557Y-119113311D01*
X145229000Y-118840400D02*
X145501911Y-119113311D01*
X149940557Y-119113311D02*
X152170667Y-116883201D01*
X145229000Y-118413000D02*
X145229000Y-118840400D01*
X152170667Y-116883201D02*
X154279600Y-116883201D01*
X154279600Y-116883201D02*
X155448000Y-116883201D01*
X145051400Y-103936800D02*
X152450800Y-103936800D01*
X152450800Y-103936800D02*
X155295600Y-101092000D01*
X155295600Y-101092000D02*
X155448000Y-101092000D01*
X144745000Y-103203000D02*
X144745000Y-103630400D01*
X144745000Y-103630400D02*
X145051400Y-103936800D01*
X149814301Y-118808500D02*
X146276900Y-118808500D01*
X146276900Y-118808500D02*
X145881400Y-118413000D01*
X145881400Y-118413000D02*
X145629000Y-118413000D01*
X155448000Y-114343201D02*
X154279600Y-114343201D01*
X154279600Y-114343201D02*
X149814301Y-118808500D01*
X145145000Y-103203000D02*
X145145000Y-103378000D01*
X145145000Y-103378000D02*
X145348200Y-103581200D01*
X145348200Y-103581200D02*
X150266400Y-103581200D01*
X155295600Y-98552000D02*
X155448000Y-98552000D01*
X150266400Y-103581200D02*
X155295600Y-98552000D01*
D20*
X145229000Y-115413000D02*
X145229000Y-114468738D01*
X145229000Y-114468738D02*
X145445495Y-114252243D01*
X147410503Y-119634000D02*
X147461324Y-119684821D01*
X146261000Y-119634000D02*
X147410503Y-119634000D01*
X147506976Y-115913000D02*
X147554562Y-115865414D01*
X146129000Y-115913000D02*
X147506976Y-115913000D01*
X147447000Y-115972976D02*
X147554562Y-115865414D01*
X147447000Y-117094000D02*
X147447000Y-115972976D01*
X147447000Y-117094000D02*
X148590000Y-117094000D01*
X141859000Y-116840000D02*
X140716000Y-116840000D01*
D21*
X144745000Y-99097133D02*
X144945110Y-98897023D01*
X144745000Y-100203000D02*
X144745000Y-99097133D01*
X146964400Y-101904800D02*
X148234400Y-101904800D01*
X145838000Y-104521000D02*
X146888200Y-104521000D01*
X146888200Y-104521000D02*
X146913600Y-104546400D01*
X144745000Y-100203000D02*
X144745000Y-100630400D01*
X144745000Y-100630400D02*
X144821201Y-100706601D01*
X144821201Y-100706601D02*
X145641399Y-100706601D01*
X145641399Y-100706601D02*
X145645000Y-100703000D01*
X141478000Y-102039600D02*
X140479600Y-102039600D01*
X140479600Y-102039600D02*
X140462000Y-102057200D01*
X146964400Y-101904800D02*
X146964400Y-100584000D01*
X146423000Y-100703000D02*
X146939000Y-101219000D01*
X146939000Y-101219000D02*
X146939000Y-101981000D01*
X145645000Y-100703000D02*
X146423000Y-100703000D01*
X146621500Y-114363500D02*
X150195301Y-114363500D01*
X150195301Y-114363500D02*
X155295600Y-109263201D01*
X155295600Y-109263201D02*
X155448000Y-109263201D01*
X145923000Y-113665000D02*
X146621500Y-114363500D01*
X145224500Y-113665000D02*
X145923000Y-113665000D01*
X144829000Y-114060500D02*
X145224500Y-113665000D01*
X144829000Y-115413000D02*
X144829000Y-114060500D01*
X149301200Y-98094800D02*
X153924000Y-93472000D01*
X153924000Y-93472000D02*
X155448000Y-93472000D01*
X144830800Y-98094800D02*
X149301200Y-98094800D01*
X144373600Y-98552000D02*
X144830800Y-98094800D01*
X144373600Y-99747000D02*
X144373600Y-98552000D01*
X144345000Y-100203000D02*
X144345000Y-99775600D01*
X144345000Y-99775600D02*
X144373600Y-99747000D01*
X143916389Y-100174389D02*
X143945000Y-100203000D01*
X143916389Y-99638033D02*
X143916389Y-100174389D01*
X140290356Y-96012000D02*
X143916389Y-99638033D01*
X132588000Y-96012000D02*
X140290356Y-96012000D01*
X142399289Y-98552000D02*
X133756400Y-98552000D01*
X143545000Y-99697711D02*
X142399289Y-98552000D01*
X143545000Y-100203000D02*
X143545000Y-99697711D01*
X133756400Y-98552000D02*
X132588000Y-98552000D01*
X143145000Y-100028000D02*
X143145000Y-100203000D01*
X141102079Y-99352099D02*
X142469099Y-99352099D01*
X142469099Y-99352099D02*
X143145000Y-100028000D01*
X139362178Y-101092000D02*
X141102079Y-99352099D01*
X132588000Y-101092000D02*
X139362178Y-101092000D01*
D20*
X144829000Y-118413000D02*
X144829000Y-119302000D01*
X144829000Y-119302000D02*
X145161000Y-119634000D01*
D21*
X144345000Y-103203000D02*
X144345000Y-104128000D01*
X144345000Y-104128000D02*
X144738000Y-104521000D01*
X142645000Y-100703000D02*
X142665698Y-100723698D01*
X142665698Y-100723698D02*
X143835122Y-100723698D01*
X144132302Y-101020878D02*
X144132302Y-102188298D01*
X143545000Y-102775600D02*
X143545000Y-103203000D01*
X143835122Y-100723698D02*
X144132302Y-101020878D01*
X144132302Y-102188298D02*
X143545000Y-102775600D01*
X142645000Y-100703000D02*
X142087600Y-100703000D01*
X142087600Y-100703000D02*
X141714600Y-100703000D01*
X142138400Y-100652200D02*
X142087600Y-100703000D01*
X142138400Y-99923600D02*
X142138400Y-100652200D01*
X141714600Y-100703000D02*
X141478000Y-100939600D01*
X143129000Y-115913000D02*
X143183401Y-115967401D01*
X143183401Y-115967401D02*
X143653401Y-115967401D01*
X143129000Y-115913000D02*
X142032000Y-115913000D01*
X142032000Y-115913000D02*
X141859000Y-115740000D01*
D20*
X144029000Y-116343000D02*
X143653401Y-115967401D01*
X144029000Y-118413000D02*
X144029000Y-116343000D01*
D21*
X141330701Y-111803201D02*
X144029000Y-114501500D01*
X144029000Y-114501500D02*
X144029000Y-115413000D01*
X132588000Y-111803201D02*
X141330701Y-111803201D01*
X133502400Y-114300000D02*
X132334000Y-114300000D01*
X143629000Y-115413000D02*
X143629000Y-115238000D01*
X143629000Y-115238000D02*
X142734201Y-114343201D01*
X142734201Y-114343201D02*
X133807210Y-114343201D01*
X144429000Y-118413000D02*
X144429000Y-119413500D01*
X144429000Y-119413500D02*
X144145000Y-119697500D01*
X144145000Y-119697500D02*
X136570699Y-119697500D01*
X136570699Y-119697500D02*
X133756400Y-116883201D01*
X133756400Y-116883201D02*
X132588000Y-116883201D01*
D20*
G36*
X153961783Y-103505000D02*
X155321000Y-103505000D01*
X155321000Y-103485000D01*
X155575000Y-103485000D01*
X155575000Y-103505000D01*
X155595000Y-103505000D01*
X155595000Y-103759000D01*
X155575000Y-103759000D01*
X155575000Y-103779000D01*
X155321000Y-103779000D01*
X155321000Y-103759000D01*
X153961783Y-103759000D01*
X153840642Y-103991026D01*
X153843291Y-104006791D01*
X154097268Y-104534036D01*
X154533680Y-104923954D01*
X154616145Y-104952800D01*
X146750015Y-104952800D01*
X146773000Y-104897310D01*
X146773000Y-104804750D01*
X146616252Y-104648002D01*
X146773000Y-104648002D01*
X146773000Y-104648000D01*
X152450800Y-104648000D01*
X152722965Y-104593863D01*
X152953694Y-104439694D01*
X153936608Y-103456781D01*
X153961783Y-103505000D01*
X153961783Y-103505000D01*
G37*
X153961783Y-103505000D02*
X155321000Y-103505000D01*
X155321000Y-103485000D01*
X155575000Y-103485000D01*
X155575000Y-103505000D01*
X155595000Y-103505000D01*
X155595000Y-103759000D01*
X155575000Y-103759000D01*
X155575000Y-103779000D01*
X155321000Y-103779000D01*
X155321000Y-103759000D01*
X153961783Y-103759000D01*
X153840642Y-103991026D01*
X153843291Y-104006791D01*
X154097268Y-104534036D01*
X154533680Y-104923954D01*
X154616145Y-104952800D01*
X146750015Y-104952800D01*
X146773000Y-104897310D01*
X146773000Y-104804750D01*
X146616252Y-104648002D01*
X146773000Y-104648002D01*
X146773000Y-104648000D01*
X152450800Y-104648000D01*
X152722965Y-104593863D01*
X152953694Y-104439694D01*
X153936608Y-103456781D01*
X153961783Y-103505000D01*
G36*
X140580560Y-101239600D02*
X140624838Y-101474917D01*
X140640339Y-101499006D01*
X140593000Y-101613291D01*
X140593000Y-101753850D01*
X140751750Y-101912600D01*
X141353000Y-101912600D01*
X141353000Y-101892600D01*
X141603000Y-101892600D01*
X141603000Y-101912600D01*
X141625000Y-101912600D01*
X141625000Y-102166600D01*
X141603000Y-102166600D01*
X141603000Y-102186600D01*
X141353000Y-102186600D01*
X141353000Y-102166600D01*
X140751750Y-102166600D01*
X140593000Y-102325350D01*
X140593000Y-102465909D01*
X140689673Y-102699298D01*
X140868301Y-102877927D01*
X140971805Y-102920800D01*
X134065255Y-102920800D01*
X133832415Y-102572330D01*
X133517634Y-102362000D01*
X133832415Y-102151670D01*
X134065255Y-101803200D01*
X139362178Y-101803200D01*
X139634343Y-101749063D01*
X139865072Y-101594894D01*
X140580560Y-100879406D01*
X140580560Y-101239600D01*
X140580560Y-101239600D01*
G37*
X140580560Y-101239600D02*
X140624838Y-101474917D01*
X140640339Y-101499006D01*
X140593000Y-101613291D01*
X140593000Y-101753850D01*
X140751750Y-101912600D01*
X141353000Y-101912600D01*
X141353000Y-101892600D01*
X141603000Y-101892600D01*
X141603000Y-101912600D01*
X141625000Y-101912600D01*
X141625000Y-102166600D01*
X141603000Y-102166600D01*
X141603000Y-102186600D01*
X141353000Y-102186600D01*
X141353000Y-102166600D01*
X140751750Y-102166600D01*
X140593000Y-102325350D01*
X140593000Y-102465909D01*
X140689673Y-102699298D01*
X140868301Y-102877927D01*
X140971805Y-102920800D01*
X134065255Y-102920800D01*
X133832415Y-102572330D01*
X133517634Y-102362000D01*
X133832415Y-102151670D01*
X134065255Y-101803200D01*
X139362178Y-101803200D01*
X139634343Y-101749063D01*
X139865072Y-101594894D01*
X140580560Y-100879406D01*
X140580560Y-101239600D01*
G36*
X154203585Y-97071670D02*
X154518366Y-97282000D01*
X154203585Y-97492330D01*
X153878729Y-97978511D01*
X153764655Y-98552000D01*
X153851784Y-98990028D01*
X149971812Y-102870000D01*
X147861840Y-102870000D01*
X147861840Y-102704800D01*
X147817562Y-102469483D01*
X147802061Y-102445394D01*
X147849400Y-102331109D01*
X147849400Y-102190550D01*
X147690650Y-102031800D01*
X147089400Y-102031800D01*
X147089400Y-102051800D01*
X146943540Y-102051800D01*
X146934765Y-102045937D01*
X146922312Y-102043460D01*
X146817400Y-101938365D01*
X146817400Y-101777800D01*
X146839400Y-101777800D01*
X146839400Y-101128550D01*
X147089400Y-101128550D01*
X147089400Y-101777800D01*
X147690650Y-101777800D01*
X147849400Y-101619050D01*
X147849400Y-101478491D01*
X147752727Y-101245102D01*
X147574099Y-101066473D01*
X147340710Y-100969800D01*
X147248150Y-100969800D01*
X147089400Y-101128550D01*
X146839400Y-101128550D01*
X146680650Y-100969800D01*
X146588090Y-100969800D01*
X146563138Y-100980136D01*
X146554020Y-100931677D01*
X146555000Y-100929310D01*
X146555000Y-100911750D01*
X146549174Y-100905924D01*
X146523162Y-100767683D01*
X146428569Y-100620681D01*
X146555000Y-100494250D01*
X146555000Y-100476690D01*
X146486001Y-100310113D01*
X149879887Y-100310113D01*
X150152052Y-100255976D01*
X150382781Y-100101807D01*
X153761388Y-96723200D01*
X153970745Y-96723200D01*
X154203585Y-97071670D01*
X154203585Y-97071670D01*
G37*
X154203585Y-97071670D02*
X154518366Y-97282000D01*
X154203585Y-97492330D01*
X153878729Y-97978511D01*
X153764655Y-98552000D01*
X153851784Y-98990028D01*
X149971812Y-102870000D01*
X147861840Y-102870000D01*
X147861840Y-102704800D01*
X147817562Y-102469483D01*
X147802061Y-102445394D01*
X147849400Y-102331109D01*
X147849400Y-102190550D01*
X147690650Y-102031800D01*
X147089400Y-102031800D01*
X147089400Y-102051800D01*
X146943540Y-102051800D01*
X146934765Y-102045937D01*
X146922312Y-102043460D01*
X146817400Y-101938365D01*
X146817400Y-101777800D01*
X146839400Y-101777800D01*
X146839400Y-101128550D01*
X147089400Y-101128550D01*
X147089400Y-101777800D01*
X147690650Y-101777800D01*
X147849400Y-101619050D01*
X147849400Y-101478491D01*
X147752727Y-101245102D01*
X147574099Y-101066473D01*
X147340710Y-100969800D01*
X147248150Y-100969800D01*
X147089400Y-101128550D01*
X146839400Y-101128550D01*
X146680650Y-100969800D01*
X146588090Y-100969800D01*
X146563138Y-100980136D01*
X146554020Y-100931677D01*
X146555000Y-100929310D01*
X146555000Y-100911750D01*
X146549174Y-100905924D01*
X146523162Y-100767683D01*
X146428569Y-100620681D01*
X146555000Y-100494250D01*
X146555000Y-100476690D01*
X146486001Y-100310113D01*
X149879887Y-100310113D01*
X150152052Y-100255976D01*
X150382781Y-100101807D01*
X153761388Y-96723200D01*
X153970745Y-96723200D01*
X154203585Y-97071670D01*
G36*
X154203585Y-117942871D02*
X154513069Y-118149662D01*
X154097268Y-118521165D01*
X153843291Y-119048410D01*
X153840642Y-119064175D01*
X153961783Y-119296201D01*
X155321000Y-119296201D01*
X155321000Y-119276201D01*
X155575000Y-119276201D01*
X155575000Y-119296201D01*
X155595000Y-119296201D01*
X155595000Y-119550201D01*
X155575000Y-119550201D01*
X155575000Y-119570201D01*
X155321000Y-119570201D01*
X155321000Y-119550201D01*
X153961783Y-119550201D01*
X153840642Y-119782227D01*
X153843291Y-119797992D01*
X154097268Y-120325237D01*
X154517613Y-120700800D01*
X133518387Y-120700800D01*
X133938732Y-120325237D01*
X134192709Y-119797992D01*
X134195358Y-119782227D01*
X134074217Y-119550201D01*
X132715000Y-119550201D01*
X132715000Y-119570201D01*
X132461000Y-119570201D01*
X132461000Y-119550201D01*
X132441000Y-119550201D01*
X132441000Y-119296201D01*
X132461000Y-119296201D01*
X132461000Y-119276201D01*
X132715000Y-119276201D01*
X132715000Y-119296201D01*
X134074217Y-119296201D01*
X134195358Y-119064175D01*
X134192709Y-119048410D01*
X133938732Y-118521165D01*
X133522931Y-118149662D01*
X133819147Y-117951736D01*
X136067805Y-120200394D01*
X136298534Y-120354563D01*
X136570699Y-120408700D01*
X144145000Y-120408700D01*
X144417165Y-120354563D01*
X144421074Y-120351951D01*
X144609110Y-120480431D01*
X144861000Y-120531440D01*
X145461000Y-120531440D01*
X145696317Y-120487162D01*
X145720406Y-120471661D01*
X145834691Y-120519000D01*
X145975250Y-120519000D01*
X146134000Y-120360250D01*
X146134000Y-119824511D01*
X146388000Y-119824511D01*
X146388000Y-120360250D01*
X146546750Y-120519000D01*
X146687309Y-120519000D01*
X146920698Y-120422327D01*
X147099327Y-120243699D01*
X147196000Y-120010310D01*
X147196000Y-119917750D01*
X147102761Y-119824511D01*
X149940557Y-119824511D01*
X150212722Y-119770374D01*
X150443451Y-119616205D01*
X152465255Y-117594401D01*
X153970745Y-117594401D01*
X154203585Y-117942871D01*
X154203585Y-117942871D01*
G37*
X154203585Y-117942871D02*
X154513069Y-118149662D01*
X154097268Y-118521165D01*
X153843291Y-119048410D01*
X153840642Y-119064175D01*
X153961783Y-119296201D01*
X155321000Y-119296201D01*
X155321000Y-119276201D01*
X155575000Y-119276201D01*
X155575000Y-119296201D01*
X155595000Y-119296201D01*
X155595000Y-119550201D01*
X155575000Y-119550201D01*
X155575000Y-119570201D01*
X155321000Y-119570201D01*
X155321000Y-119550201D01*
X153961783Y-119550201D01*
X153840642Y-119782227D01*
X153843291Y-119797992D01*
X154097268Y-120325237D01*
X154517613Y-120700800D01*
X133518387Y-120700800D01*
X133938732Y-120325237D01*
X134192709Y-119797992D01*
X134195358Y-119782227D01*
X134074217Y-119550201D01*
X132715000Y-119550201D01*
X132715000Y-119570201D01*
X132461000Y-119570201D01*
X132461000Y-119550201D01*
X132441000Y-119550201D01*
X132441000Y-119296201D01*
X132461000Y-119296201D01*
X132461000Y-119276201D01*
X132715000Y-119276201D01*
X132715000Y-119296201D01*
X134074217Y-119296201D01*
X134195358Y-119064175D01*
X134192709Y-119048410D01*
X133938732Y-118521165D01*
X133522931Y-118149662D01*
X133819147Y-117951736D01*
X136067805Y-120200394D01*
X136298534Y-120354563D01*
X136570699Y-120408700D01*
X144145000Y-120408700D01*
X144417165Y-120354563D01*
X144421074Y-120351951D01*
X144609110Y-120480431D01*
X144861000Y-120531440D01*
X145461000Y-120531440D01*
X145696317Y-120487162D01*
X145720406Y-120471661D01*
X145834691Y-120519000D01*
X145975250Y-120519000D01*
X146134000Y-120360250D01*
X146134000Y-119824511D01*
X146388000Y-119824511D01*
X146388000Y-120360250D01*
X146546750Y-120519000D01*
X146687309Y-120519000D01*
X146920698Y-120422327D01*
X147099327Y-120243699D01*
X147196000Y-120010310D01*
X147196000Y-119917750D01*
X147102761Y-119824511D01*
X149940557Y-119824511D01*
X150212722Y-119770374D01*
X150443451Y-119616205D01*
X152465255Y-117594401D01*
X153970745Y-117594401D01*
X154203585Y-117942871D01*
G36*
X141012569Y-115188110D02*
X140961560Y-115440000D01*
X140961560Y-116040000D01*
X141005838Y-116275317D01*
X141021339Y-116299406D01*
X140974000Y-116413691D01*
X140974000Y-116554250D01*
X141132750Y-116713000D01*
X141734000Y-116713000D01*
X141734000Y-116693000D01*
X141984000Y-116693000D01*
X141984000Y-116713000D01*
X142006000Y-116713000D01*
X142006000Y-116967000D01*
X141984000Y-116967000D01*
X141984000Y-117616250D01*
X142142750Y-117775000D01*
X142214255Y-117775000D01*
X142206560Y-117813000D01*
X142206560Y-118013000D01*
X142250838Y-118248317D01*
X142389910Y-118464441D01*
X142602110Y-118609431D01*
X142719290Y-118633161D01*
X142595770Y-118930630D01*
X142595721Y-118986300D01*
X136865287Y-118986300D01*
X135004737Y-117125750D01*
X140974000Y-117125750D01*
X140974000Y-117266309D01*
X141070673Y-117499698D01*
X141249301Y-117678327D01*
X141482690Y-117775000D01*
X141575250Y-117775000D01*
X141734000Y-117616250D01*
X141734000Y-116967000D01*
X141132750Y-116967000D01*
X140974000Y-117125750D01*
X135004737Y-117125750D01*
X134259294Y-116380307D01*
X134157827Y-116312509D01*
X134157271Y-116309712D01*
X133832415Y-115823531D01*
X133517634Y-115613201D01*
X133832415Y-115402871D01*
X134065255Y-115054401D01*
X141103928Y-115054401D01*
X141012569Y-115188110D01*
X141012569Y-115188110D01*
G37*
X141012569Y-115188110D02*
X140961560Y-115440000D01*
X140961560Y-116040000D01*
X141005838Y-116275317D01*
X141021339Y-116299406D01*
X140974000Y-116413691D01*
X140974000Y-116554250D01*
X141132750Y-116713000D01*
X141734000Y-116713000D01*
X141734000Y-116693000D01*
X141984000Y-116693000D01*
X141984000Y-116713000D01*
X142006000Y-116713000D01*
X142006000Y-116967000D01*
X141984000Y-116967000D01*
X141984000Y-117616250D01*
X142142750Y-117775000D01*
X142214255Y-117775000D01*
X142206560Y-117813000D01*
X142206560Y-118013000D01*
X142250838Y-118248317D01*
X142389910Y-118464441D01*
X142602110Y-118609431D01*
X142719290Y-118633161D01*
X142595770Y-118930630D01*
X142595721Y-118986300D01*
X136865287Y-118986300D01*
X135004737Y-117125750D01*
X140974000Y-117125750D01*
X140974000Y-117266309D01*
X141070673Y-117499698D01*
X141249301Y-117678327D01*
X141482690Y-117775000D01*
X141575250Y-117775000D01*
X141734000Y-117616250D01*
X141734000Y-116967000D01*
X141132750Y-116967000D01*
X140974000Y-117125750D01*
X135004737Y-117125750D01*
X134259294Y-116380307D01*
X134157827Y-116312509D01*
X134157271Y-116309712D01*
X133832415Y-115823531D01*
X133517634Y-115613201D01*
X133832415Y-115402871D01*
X134065255Y-115054401D01*
X141103928Y-115054401D01*
X141012569Y-115188110D01*
G36*
X153136600Y-112557602D02*
X148498637Y-117195565D01*
X148332837Y-117195421D01*
X148201810Y-117249560D01*
X148173250Y-117221000D01*
X147723431Y-117221000D01*
X147486911Y-116984067D01*
X147322000Y-116915590D01*
X147322000Y-116317750D01*
X147572000Y-116317750D01*
X147572000Y-116967000D01*
X148173250Y-116967000D01*
X148332000Y-116808250D01*
X148332000Y-116667691D01*
X148235327Y-116434302D01*
X148056699Y-116255673D01*
X147823310Y-116159000D01*
X147730750Y-116159000D01*
X147572000Y-116317750D01*
X147322000Y-116317750D01*
X147163250Y-116159000D01*
X147070690Y-116159000D01*
X147043406Y-116170302D01*
X147038020Y-116141677D01*
X147039000Y-116139310D01*
X147039000Y-116121750D01*
X147033174Y-116115924D01*
X147007162Y-115977683D01*
X146912569Y-115830681D01*
X147039000Y-115704250D01*
X147039000Y-115686690D01*
X146942327Y-115453301D01*
X146763698Y-115274673D01*
X146530309Y-115178000D01*
X146414750Y-115178000D01*
X146376440Y-115216310D01*
X146376440Y-115138000D01*
X146354537Y-115021598D01*
X146390746Y-115028800D01*
X146621500Y-115074700D01*
X150195301Y-115074700D01*
X150467466Y-115020563D01*
X150698195Y-114866394D01*
X153136600Y-112427989D01*
X153136600Y-112557602D01*
X153136600Y-112557602D01*
G37*
X153136600Y-112557602D02*
X148498637Y-117195565D01*
X148332837Y-117195421D01*
X148201810Y-117249560D01*
X148173250Y-117221000D01*
X147723431Y-117221000D01*
X147486911Y-116984067D01*
X147322000Y-116915590D01*
X147322000Y-116317750D01*
X147572000Y-116317750D01*
X147572000Y-116967000D01*
X148173250Y-116967000D01*
X148332000Y-116808250D01*
X148332000Y-116667691D01*
X148235327Y-116434302D01*
X148056699Y-116255673D01*
X147823310Y-116159000D01*
X147730750Y-116159000D01*
X147572000Y-116317750D01*
X147322000Y-116317750D01*
X147163250Y-116159000D01*
X147070690Y-116159000D01*
X147043406Y-116170302D01*
X147038020Y-116141677D01*
X147039000Y-116139310D01*
X147039000Y-116121750D01*
X147033174Y-116115924D01*
X147007162Y-115977683D01*
X146912569Y-115830681D01*
X147039000Y-115704250D01*
X147039000Y-115686690D01*
X146942327Y-115453301D01*
X146763698Y-115274673D01*
X146530309Y-115178000D01*
X146414750Y-115178000D01*
X146376440Y-115216310D01*
X146376440Y-115138000D01*
X146354537Y-115021598D01*
X146390746Y-115028800D01*
X146621500Y-115074700D01*
X150195301Y-115074700D01*
X150467466Y-115020563D01*
X150698195Y-114866394D01*
X153136600Y-112427989D01*
X153136600Y-112557602D01*
G36*
X153980559Y-107935511D02*
X153835569Y-108147711D01*
X153784560Y-108399601D01*
X153784560Y-109768453D01*
X149900713Y-113652300D01*
X147910163Y-113652300D01*
X147910321Y-113471337D01*
X147761759Y-113111788D01*
X147486911Y-112836460D01*
X147127622Y-112687270D01*
X146990603Y-112687151D01*
X146868248Y-112605395D01*
X146576643Y-112547391D01*
X145013701Y-112547391D01*
X144722096Y-112605395D01*
X144474886Y-112770576D01*
X143890185Y-113355277D01*
X143889536Y-113356248D01*
X141833595Y-111300307D01*
X141602866Y-111146138D01*
X141330701Y-111092001D01*
X134065255Y-111092001D01*
X133832415Y-110743531D01*
X133818087Y-110733958D01*
X133839317Y-110729963D01*
X134055441Y-110590891D01*
X134200431Y-110378691D01*
X134251440Y-110126801D01*
X134251440Y-108712000D01*
X141783060Y-108712000D01*
X141783060Y-110744000D01*
X141827338Y-110979317D01*
X141966410Y-111195441D01*
X142178610Y-111340431D01*
X142430500Y-111391440D01*
X144462500Y-111391440D01*
X144697817Y-111347162D01*
X144913941Y-111208090D01*
X145015698Y-111059163D01*
X145354690Y-111285670D01*
X145986500Y-111411345D01*
X146618310Y-111285670D01*
X147153933Y-110927778D01*
X147511825Y-110392155D01*
X147637500Y-109760345D01*
X147637500Y-109695655D01*
X147511825Y-109063845D01*
X147153933Y-108528222D01*
X146618310Y-108170330D01*
X145986500Y-108044655D01*
X145354690Y-108170330D01*
X145014708Y-108397499D01*
X144926590Y-108260559D01*
X144714390Y-108115569D01*
X144462500Y-108064560D01*
X142430500Y-108064560D01*
X142195183Y-108108838D01*
X141979059Y-108247910D01*
X141834069Y-108460110D01*
X141783060Y-108712000D01*
X134251440Y-108712000D01*
X134251440Y-108399601D01*
X134207162Y-108164284D01*
X134068090Y-107948160D01*
X133996435Y-107899200D01*
X154036988Y-107899200D01*
X153980559Y-107935511D01*
X153980559Y-107935511D01*
G37*
X153980559Y-107935511D02*
X153835569Y-108147711D01*
X153784560Y-108399601D01*
X153784560Y-109768453D01*
X149900713Y-113652300D01*
X147910163Y-113652300D01*
X147910321Y-113471337D01*
X147761759Y-113111788D01*
X147486911Y-112836460D01*
X147127622Y-112687270D01*
X146990603Y-112687151D01*
X146868248Y-112605395D01*
X146576643Y-112547391D01*
X145013701Y-112547391D01*
X144722096Y-112605395D01*
X144474886Y-112770576D01*
X143890185Y-113355277D01*
X143889536Y-113356248D01*
X141833595Y-111300307D01*
X141602866Y-111146138D01*
X141330701Y-111092001D01*
X134065255Y-111092001D01*
X133832415Y-110743531D01*
X133818087Y-110733958D01*
X133839317Y-110729963D01*
X134055441Y-110590891D01*
X134200431Y-110378691D01*
X134251440Y-110126801D01*
X134251440Y-108712000D01*
X141783060Y-108712000D01*
X141783060Y-110744000D01*
X141827338Y-110979317D01*
X141966410Y-111195441D01*
X142178610Y-111340431D01*
X142430500Y-111391440D01*
X144462500Y-111391440D01*
X144697817Y-111347162D01*
X144913941Y-111208090D01*
X145015698Y-111059163D01*
X145354690Y-111285670D01*
X145986500Y-111411345D01*
X146618310Y-111285670D01*
X147153933Y-110927778D01*
X147511825Y-110392155D01*
X147637500Y-109760345D01*
X147637500Y-109695655D01*
X147511825Y-109063845D01*
X147153933Y-108528222D01*
X146618310Y-108170330D01*
X145986500Y-108044655D01*
X145354690Y-108170330D01*
X145014708Y-108397499D01*
X144926590Y-108260559D01*
X144714390Y-108115569D01*
X144462500Y-108064560D01*
X142430500Y-108064560D01*
X142195183Y-108108838D01*
X141979059Y-108247910D01*
X141834069Y-108460110D01*
X141783060Y-108712000D01*
X134251440Y-108712000D01*
X134251440Y-108399601D01*
X134207162Y-108164284D01*
X134068090Y-107948160D01*
X133996435Y-107899200D01*
X154036988Y-107899200D01*
X153980559Y-107935511D01*
G36*
X142153713Y-113632001D02*
X134065255Y-113632001D01*
X133832415Y-113283531D01*
X133517634Y-113073201D01*
X133832415Y-112862871D01*
X134065255Y-112514401D01*
X141036113Y-112514401D01*
X142153713Y-113632001D01*
X142153713Y-113632001D01*
G37*
X142153713Y-113632001D02*
X134065255Y-113632001D01*
X133832415Y-113283531D01*
X133517634Y-113073201D01*
X133832415Y-112862871D01*
X134065255Y-112514401D01*
X141036113Y-112514401D01*
X142153713Y-113632001D01*
D23*
X146932252Y-113665000D03*
X146932252Y-117812607D03*
X146259493Y-102763651D03*
X148526500Y-118173490D03*
X143573500Y-119126000D03*
X145615170Y-99598913D03*
X143560800Y-101295200D03*
X138557000Y-113030000D03*
X138811000Y-110490000D03*
X148336000Y-112966500D03*
X145445495Y-114252243D03*
X147461324Y-119684821D03*
X147554562Y-115865414D03*
X148590000Y-117094000D03*
X140716000Y-116840000D03*
X144945110Y-98897023D03*
X148234400Y-101904800D03*
X146913600Y-104546400D03*
X140462000Y-102057200D03*
X146964400Y-100584000D03*
X142138400Y-99923600D03*
X144029000Y-116343000D03*
D24*
X132588000Y-93472000D03*
X132588000Y-96012000D03*
X132588000Y-98552000D03*
X132588000Y-101092000D03*
X132588000Y-103632000D03*
X155448000Y-93472000D03*
X155448000Y-96012000D03*
X155448000Y-98552000D03*
X155448000Y-101092000D03*
X155448000Y-103632000D03*
X142646400Y-93878400D03*
X145186400Y-93878400D03*
X155448000Y-109263201D03*
X155448000Y-111803201D03*
X155448000Y-114343201D03*
X155448000Y-116883201D03*
X155448000Y-119423201D03*
X132588000Y-109263201D03*
X132588000Y-111803201D03*
X132588000Y-114343201D03*
X132588000Y-116883201D03*
X132588000Y-119423201D03*
X143446500Y-109728000D03*
X145986500Y-109728000D03*
M02*
