%TF.GenerationSoftware,KiCad,Pcbnew,4.0.4+e1-6308~48~ubuntu16.04.1-stable*%
%TF.CreationDate,2017-01-02T12:50:36-08:00*%
%TF.ProjectId,mpu9250-breakout,6D7075393235302D627265616B6F7574,v1.0*%
%TF.FileFunction,Other,Fab,Top*%
%FSLAX46Y46*%
G04 Gerber Fmt 4.6, Leading zero omitted, Abs format (unit mm)*
G04 Created by KiCad (PCBNEW 4.0.4+e1-6308~48~ubuntu16.04.1-stable) date Mon Jan  2 12:50:36 2017*
%MOMM*%
%LPD*%
G01*
G04 APERTURE LIST*
%ADD10C,0.350000*%
%ADD11C,0.152400*%
%ADD12C,0.150000*%
%ADD13C,0.050000*%
%ADD14C,0.050800*%
%ADD15C,0.254000*%
G04 APERTURE END LIST*
D10*
D11*
X150591762Y-95171381D02*
X150543381Y-95316524D01*
X150543381Y-95558428D01*
X150591762Y-95655190D01*
X150640143Y-95703571D01*
X150736905Y-95751952D01*
X150833667Y-95751952D01*
X150930429Y-95703571D01*
X150978810Y-95655190D01*
X151027190Y-95558428D01*
X151075571Y-95364905D01*
X151123952Y-95268143D01*
X151172333Y-95219762D01*
X151269095Y-95171381D01*
X151365857Y-95171381D01*
X151462619Y-95219762D01*
X151511000Y-95268143D01*
X151559381Y-95364905D01*
X151559381Y-95606809D01*
X151511000Y-95751952D01*
X150543381Y-96187381D02*
X151559381Y-96187381D01*
X151559381Y-96574428D01*
X151511000Y-96671190D01*
X151462619Y-96719571D01*
X151365857Y-96767952D01*
X151220714Y-96767952D01*
X151123952Y-96719571D01*
X151075571Y-96671190D01*
X151027190Y-96574428D01*
X151027190Y-96187381D01*
X150543381Y-97203381D02*
X151559381Y-97203381D01*
X150543381Y-98461286D02*
X151559381Y-98461286D01*
X150833667Y-98799952D01*
X151559381Y-99138619D01*
X150543381Y-99138619D01*
X151559381Y-99815953D02*
X151559381Y-100009476D01*
X151511000Y-100106238D01*
X151414238Y-100203000D01*
X151220714Y-100251381D01*
X150882048Y-100251381D01*
X150688524Y-100203000D01*
X150591762Y-100106238D01*
X150543381Y-100009476D01*
X150543381Y-99815953D01*
X150591762Y-99719191D01*
X150688524Y-99622429D01*
X150882048Y-99574048D01*
X151220714Y-99574048D01*
X151414238Y-99622429D01*
X151511000Y-99719191D01*
X151559381Y-99815953D01*
X150543381Y-100686810D02*
X151559381Y-100686810D01*
X151559381Y-100928715D01*
X151511000Y-101073857D01*
X151414238Y-101170619D01*
X151317476Y-101219000D01*
X151123952Y-101267381D01*
X150978810Y-101267381D01*
X150785286Y-101219000D01*
X150688524Y-101170619D01*
X150591762Y-101073857D01*
X150543381Y-100928715D01*
X150543381Y-100686810D01*
X151075571Y-101702810D02*
X151075571Y-102041476D01*
X150543381Y-102186619D02*
X150543381Y-101702810D01*
X151559381Y-101702810D01*
X151559381Y-102186619D01*
X150479881Y-111094762D02*
X151495881Y-111094762D01*
X151399119Y-111530191D02*
X151447500Y-111578572D01*
X151495881Y-111675334D01*
X151495881Y-111917238D01*
X151447500Y-112014000D01*
X151399119Y-112062381D01*
X151302357Y-112110762D01*
X151205595Y-112110762D01*
X151060452Y-112062381D01*
X150479881Y-111481810D01*
X150479881Y-112110762D01*
X150576643Y-113126762D02*
X150528262Y-113078381D01*
X150479881Y-112933238D01*
X150479881Y-112836476D01*
X150528262Y-112691334D01*
X150625024Y-112594572D01*
X150721786Y-112546191D01*
X150915310Y-112497810D01*
X151060452Y-112497810D01*
X151253976Y-112546191D01*
X151350738Y-112594572D01*
X151447500Y-112691334D01*
X151495881Y-112836476D01*
X151495881Y-112933238D01*
X151447500Y-113078381D01*
X151399119Y-113126762D01*
X150479881Y-114336286D02*
X151495881Y-114336286D01*
X150770167Y-114674952D01*
X151495881Y-115013619D01*
X150479881Y-115013619D01*
X151495881Y-115690953D02*
X151495881Y-115884476D01*
X151447500Y-115981238D01*
X151350738Y-116078000D01*
X151157214Y-116126381D01*
X150818548Y-116126381D01*
X150625024Y-116078000D01*
X150528262Y-115981238D01*
X150479881Y-115884476D01*
X150479881Y-115690953D01*
X150528262Y-115594191D01*
X150625024Y-115497429D01*
X150818548Y-115449048D01*
X151157214Y-115449048D01*
X151350738Y-115497429D01*
X151447500Y-115594191D01*
X151495881Y-115690953D01*
X150479881Y-116561810D02*
X151495881Y-116561810D01*
X151495881Y-116803715D01*
X151447500Y-116948857D01*
X151350738Y-117045619D01*
X151253976Y-117094000D01*
X151060452Y-117142381D01*
X150915310Y-117142381D01*
X150721786Y-117094000D01*
X150625024Y-117045619D01*
X150528262Y-116948857D01*
X150479881Y-116803715D01*
X150479881Y-116561810D01*
X151012071Y-117577810D02*
X151012071Y-117916476D01*
X150479881Y-118061619D02*
X150479881Y-117577810D01*
X151495881Y-117577810D01*
X151495881Y-118061619D01*
X132524500Y-105664000D02*
X155384500Y-105664000D01*
X157416500Y-103632000D02*
X157416500Y-93472000D01*
X157416500Y-93472000D02*
G75*
G03X155384500Y-91440000I-2032000J0D01*
G01*
X155384500Y-91440000D02*
X132524500Y-91440000D01*
X132524500Y-91440000D02*
G75*
G03X130492500Y-93472000I0J-2032000D01*
G01*
X130492500Y-93472000D02*
X130492500Y-103632000D01*
X130492500Y-103632000D02*
G75*
G03X132524500Y-105664000I2032000J0D01*
G01*
X155384500Y-105664000D02*
G75*
G03X157416500Y-103632000I0J2032000D01*
G01*
X130556000Y-119380000D02*
G75*
G03X132588000Y-121412000I2032000J0D01*
G01*
X132588000Y-121412000D02*
X155448000Y-121412000D01*
X155448000Y-121412000D02*
G75*
G03X157480000Y-119380000I0J2032000D01*
G01*
X157480000Y-119380000D02*
X157480000Y-109220000D01*
X157480000Y-109220000D02*
G75*
G03X155448000Y-107188000I-2032000J0D01*
G01*
X155448000Y-107188000D02*
X132588000Y-107188000D01*
X132588000Y-107188000D02*
G75*
G03X130556000Y-109220000I0J-2032000D01*
G01*
X130556000Y-109220000D02*
X130556000Y-119380000D01*
D12*
X144129000Y-115413000D02*
X146129000Y-115413000D01*
X146129000Y-115413000D02*
X146129000Y-118413000D01*
X146129000Y-118413000D02*
X143129000Y-118413000D01*
X143129000Y-118413000D02*
X143129000Y-116413000D01*
X143129000Y-116413000D02*
X144129000Y-115413000D01*
D13*
X142078000Y-100339600D02*
X140878000Y-100339600D01*
X142078000Y-100339600D02*
X142078000Y-102639600D01*
X142078000Y-102639600D02*
X140878000Y-102639600D01*
X140878000Y-100339600D02*
X140878000Y-102639600D01*
X144138000Y-103921000D02*
X144138000Y-105121000D01*
X144138000Y-103921000D02*
X146438000Y-103921000D01*
X146438000Y-103921000D02*
X146438000Y-105121000D01*
X144138000Y-105121000D02*
X146438000Y-105121000D01*
X146364400Y-103604800D02*
X147564400Y-103604800D01*
X146364400Y-103604800D02*
X146364400Y-101304800D01*
X146364400Y-101304800D02*
X147564400Y-101304800D01*
X147564400Y-103604800D02*
X147564400Y-101304800D01*
D14*
X134338000Y-105472000D02*
X134338000Y-91722000D01*
X130838000Y-105472000D02*
X134338000Y-105472000D01*
X130838000Y-91722000D02*
X130838000Y-105472000D01*
X134338000Y-91722000D02*
X130838000Y-91722000D01*
X157198000Y-105472000D02*
X157198000Y-91722000D01*
X153698000Y-105472000D02*
X157198000Y-105472000D01*
X153698000Y-91722000D02*
X153698000Y-105472000D01*
X157198000Y-91722000D02*
X153698000Y-91722000D01*
D13*
X146896400Y-92128400D02*
X140896400Y-92128400D01*
X146896400Y-92128400D02*
X146896400Y-95628400D01*
X140896400Y-95628400D02*
X146896400Y-95628400D01*
X140896400Y-92128400D02*
X140896400Y-95628400D01*
D12*
X143645000Y-100203000D02*
X145645000Y-100203000D01*
X145645000Y-100203000D02*
X145645000Y-103203000D01*
X145645000Y-103203000D02*
X142645000Y-103203000D01*
X142645000Y-103203000D02*
X142645000Y-101203000D01*
X142645000Y-101203000D02*
X143645000Y-100203000D01*
D13*
X142459000Y-115140000D02*
X141259000Y-115140000D01*
X142459000Y-115140000D02*
X142459000Y-117440000D01*
X142459000Y-117440000D02*
X141259000Y-117440000D01*
X141259000Y-115140000D02*
X141259000Y-117440000D01*
X144561000Y-119034000D02*
X144561000Y-120234000D01*
X144561000Y-119034000D02*
X146861000Y-119034000D01*
X146861000Y-119034000D02*
X146861000Y-120234000D01*
X144561000Y-120234000D02*
X146861000Y-120234000D01*
X146847000Y-118794000D02*
X148047000Y-118794000D01*
X146847000Y-118794000D02*
X146847000Y-116494000D01*
X146847000Y-116494000D02*
X148047000Y-116494000D01*
X148047000Y-118794000D02*
X148047000Y-116494000D01*
D14*
X157198000Y-121263201D02*
X157198000Y-107513201D01*
X153698000Y-121263201D02*
X157198000Y-121263201D01*
X153698000Y-107513201D02*
X153698000Y-121263201D01*
X157198000Y-107513201D02*
X153698000Y-107513201D01*
X134338000Y-121263201D02*
X134338000Y-107513201D01*
X130838000Y-121263201D02*
X134338000Y-121263201D01*
X130838000Y-107513201D02*
X130838000Y-121263201D01*
X134338000Y-107513201D02*
X130838000Y-107513201D01*
D13*
X147696500Y-107978000D02*
X141696500Y-107978000D01*
X147696500Y-107978000D02*
X147696500Y-111478000D01*
X141696500Y-111478000D02*
X147696500Y-111478000D01*
X141696500Y-107978000D02*
X141696500Y-111478000D01*
D12*
X143803595Y-116428881D02*
X143803595Y-117238405D01*
X143851214Y-117333643D01*
X143898833Y-117381262D01*
X143994071Y-117428881D01*
X144184548Y-117428881D01*
X144279786Y-117381262D01*
X144327405Y-117333643D01*
X144375024Y-117238405D01*
X144375024Y-116428881D01*
X144803595Y-116524119D02*
X144851214Y-116476500D01*
X144946452Y-116428881D01*
X145184548Y-116428881D01*
X145279786Y-116476500D01*
X145327405Y-116524119D01*
X145375024Y-116619357D01*
X145375024Y-116714595D01*
X145327405Y-116857452D01*
X144755976Y-117428881D01*
X145375024Y-117428881D01*
X141763714Y-101622933D02*
X141801810Y-101661028D01*
X141839905Y-101775314D01*
X141839905Y-101851504D01*
X141801810Y-101965790D01*
X141725619Y-102041981D01*
X141649429Y-102080076D01*
X141497048Y-102118171D01*
X141382762Y-102118171D01*
X141230381Y-102080076D01*
X141154190Y-102041981D01*
X141078000Y-101965790D01*
X141039905Y-101851504D01*
X141039905Y-101775314D01*
X141078000Y-101661028D01*
X141116095Y-101622933D01*
X141839905Y-100861028D02*
X141839905Y-101318171D01*
X141839905Y-101089600D02*
X141039905Y-101089600D01*
X141154190Y-101165790D01*
X141230381Y-101241981D01*
X141268476Y-101318171D01*
X145154667Y-104806714D02*
X145116572Y-104844810D01*
X145002286Y-104882905D01*
X144926096Y-104882905D01*
X144811810Y-104844810D01*
X144735619Y-104768619D01*
X144697524Y-104692429D01*
X144659429Y-104540048D01*
X144659429Y-104425762D01*
X144697524Y-104273381D01*
X144735619Y-104197190D01*
X144811810Y-104121000D01*
X144926096Y-104082905D01*
X145002286Y-104082905D01*
X145116572Y-104121000D01*
X145154667Y-104159095D01*
X145459429Y-104159095D02*
X145497524Y-104121000D01*
X145573715Y-104082905D01*
X145764191Y-104082905D01*
X145840381Y-104121000D01*
X145878477Y-104159095D01*
X145916572Y-104235286D01*
X145916572Y-104311476D01*
X145878477Y-104425762D01*
X145421334Y-104882905D01*
X145916572Y-104882905D01*
X147250114Y-102588133D02*
X147288210Y-102626228D01*
X147326305Y-102740514D01*
X147326305Y-102816704D01*
X147288210Y-102930990D01*
X147212019Y-103007181D01*
X147135829Y-103045276D01*
X146983448Y-103083371D01*
X146869162Y-103083371D01*
X146716781Y-103045276D01*
X146640590Y-103007181D01*
X146564400Y-102930990D01*
X146526305Y-102816704D01*
X146526305Y-102740514D01*
X146564400Y-102626228D01*
X146602495Y-102588133D01*
X146526305Y-102321466D02*
X146526305Y-101826228D01*
X146831067Y-102092895D01*
X146831067Y-101978609D01*
X146869162Y-101902419D01*
X146907257Y-101864323D01*
X146983448Y-101826228D01*
X147173924Y-101826228D01*
X147250114Y-101864323D01*
X147288210Y-101902419D01*
X147326305Y-101978609D01*
X147326305Y-102207181D01*
X147288210Y-102283371D01*
X147250114Y-102321466D01*
D15*
X131475238Y-99399333D02*
X132926667Y-99399333D01*
X133216952Y-99496095D01*
X133410476Y-99689619D01*
X133507238Y-99979904D01*
X133507238Y-100173428D01*
X133507238Y-97367334D02*
X133507238Y-98528476D01*
X133507238Y-97947905D02*
X131475238Y-97947905D01*
X131765524Y-98141429D01*
X131959048Y-98334953D01*
X132055810Y-98528476D01*
X154335238Y-99399333D02*
X155786667Y-99399333D01*
X156076952Y-99496095D01*
X156270476Y-99689619D01*
X156367238Y-99979904D01*
X156367238Y-100173428D01*
X154528762Y-98528476D02*
X154432000Y-98431714D01*
X154335238Y-98238191D01*
X154335238Y-97754381D01*
X154432000Y-97560857D01*
X154528762Y-97464095D01*
X154722286Y-97367334D01*
X154915810Y-97367334D01*
X155206095Y-97464095D01*
X156367238Y-98625238D01*
X156367238Y-97367334D01*
D11*
X143049733Y-93322019D02*
X143049733Y-94047733D01*
X143001353Y-94192876D01*
X142904591Y-94289638D01*
X142759448Y-94338019D01*
X142662686Y-94338019D01*
X143533543Y-94338019D02*
X143533543Y-93322019D01*
X143920590Y-93322019D01*
X144017352Y-93370400D01*
X144065733Y-93418781D01*
X144114114Y-93515543D01*
X144114114Y-93660686D01*
X144065733Y-93757448D01*
X144017352Y-93805829D01*
X143920590Y-93854210D01*
X143533543Y-93854210D01*
X145081733Y-94338019D02*
X144501162Y-94338019D01*
X144791448Y-94338019D02*
X144791448Y-93322019D01*
X144694686Y-93467162D01*
X144597924Y-93563924D01*
X144501162Y-93612305D01*
D12*
X143319595Y-101218881D02*
X143319595Y-102028405D01*
X143367214Y-102123643D01*
X143414833Y-102171262D01*
X143510071Y-102218881D01*
X143700548Y-102218881D01*
X143795786Y-102171262D01*
X143843405Y-102123643D01*
X143891024Y-102028405D01*
X143891024Y-101218881D01*
X144891024Y-102218881D02*
X144319595Y-102218881D01*
X144605309Y-102218881D02*
X144605309Y-101218881D01*
X144510071Y-101361738D01*
X144414833Y-101456976D01*
X144319595Y-101504595D01*
X142144714Y-116423333D02*
X142182810Y-116461428D01*
X142220905Y-116575714D01*
X142220905Y-116651904D01*
X142182810Y-116766190D01*
X142106619Y-116842381D01*
X142030429Y-116880476D01*
X141878048Y-116918571D01*
X141763762Y-116918571D01*
X141611381Y-116880476D01*
X141535190Y-116842381D01*
X141459000Y-116766190D01*
X141420905Y-116651904D01*
X141420905Y-116575714D01*
X141459000Y-116461428D01*
X141497095Y-116423333D01*
X141687571Y-115737619D02*
X142220905Y-115737619D01*
X141382810Y-115928095D02*
X141954238Y-116118571D01*
X141954238Y-115623333D01*
X145577667Y-119919714D02*
X145539572Y-119957810D01*
X145425286Y-119995905D01*
X145349096Y-119995905D01*
X145234810Y-119957810D01*
X145158619Y-119881619D01*
X145120524Y-119805429D01*
X145082429Y-119653048D01*
X145082429Y-119538762D01*
X145120524Y-119386381D01*
X145158619Y-119310190D01*
X145234810Y-119234000D01*
X145349096Y-119195905D01*
X145425286Y-119195905D01*
X145539572Y-119234000D01*
X145577667Y-119272095D01*
X146301477Y-119195905D02*
X145920524Y-119195905D01*
X145882429Y-119576857D01*
X145920524Y-119538762D01*
X145996715Y-119500667D01*
X146187191Y-119500667D01*
X146263381Y-119538762D01*
X146301477Y-119576857D01*
X146339572Y-119653048D01*
X146339572Y-119843524D01*
X146301477Y-119919714D01*
X146263381Y-119957810D01*
X146187191Y-119995905D01*
X145996715Y-119995905D01*
X145920524Y-119957810D01*
X145882429Y-119919714D01*
X147732714Y-117777333D02*
X147770810Y-117815428D01*
X147808905Y-117929714D01*
X147808905Y-118005904D01*
X147770810Y-118120190D01*
X147694619Y-118196381D01*
X147618429Y-118234476D01*
X147466048Y-118272571D01*
X147351762Y-118272571D01*
X147199381Y-118234476D01*
X147123190Y-118196381D01*
X147047000Y-118120190D01*
X147008905Y-118005904D01*
X147008905Y-117929714D01*
X147047000Y-117815428D01*
X147085095Y-117777333D01*
X147008905Y-117091619D02*
X147008905Y-117244000D01*
X147047000Y-117320190D01*
X147085095Y-117358285D01*
X147199381Y-117434476D01*
X147351762Y-117472571D01*
X147656524Y-117472571D01*
X147732714Y-117434476D01*
X147770810Y-117396381D01*
X147808905Y-117320190D01*
X147808905Y-117167809D01*
X147770810Y-117091619D01*
X147732714Y-117053523D01*
X147656524Y-117015428D01*
X147466048Y-117015428D01*
X147389857Y-117053523D01*
X147351762Y-117091619D01*
X147313667Y-117167809D01*
X147313667Y-117320190D01*
X147351762Y-117396381D01*
X147389857Y-117434476D01*
X147466048Y-117472571D01*
D15*
X154335238Y-115190534D02*
X155786667Y-115190534D01*
X156076952Y-115287296D01*
X156270476Y-115480820D01*
X156367238Y-115771105D01*
X156367238Y-115964629D01*
X154335238Y-114416439D02*
X154335238Y-113158535D01*
X155109333Y-113835868D01*
X155109333Y-113545582D01*
X155206095Y-113352058D01*
X155302857Y-113255296D01*
X155496381Y-113158535D01*
X155980190Y-113158535D01*
X156173714Y-113255296D01*
X156270476Y-113352058D01*
X156367238Y-113545582D01*
X156367238Y-114126154D01*
X156270476Y-114319677D01*
X156173714Y-114416439D01*
X131475238Y-115190534D02*
X132926667Y-115190534D01*
X133216952Y-115287296D01*
X133410476Y-115480820D01*
X133507238Y-115771105D01*
X133507238Y-115964629D01*
X132152571Y-113352058D02*
X133507238Y-113352058D01*
X131378476Y-113835868D02*
X132829905Y-114319677D01*
X132829905Y-113061773D01*
D11*
X143849833Y-109171619D02*
X143849833Y-109897333D01*
X143801453Y-110042476D01*
X143704691Y-110139238D01*
X143559548Y-110187619D01*
X143462786Y-110187619D01*
X144333643Y-110187619D02*
X144333643Y-109171619D01*
X144720690Y-109171619D01*
X144817452Y-109220000D01*
X144865833Y-109268381D01*
X144914214Y-109365143D01*
X144914214Y-109510286D01*
X144865833Y-109607048D01*
X144817452Y-109655429D01*
X144720690Y-109703810D01*
X144333643Y-109703810D01*
X145301262Y-109268381D02*
X145349643Y-109220000D01*
X145446405Y-109171619D01*
X145688309Y-109171619D01*
X145785071Y-109220000D01*
X145833452Y-109268381D01*
X145881833Y-109365143D01*
X145881833Y-109461905D01*
X145833452Y-109607048D01*
X145252881Y-110187619D01*
X145881833Y-110187619D01*
M02*
