M48
;DRILL file {KiCad 4.0.4+e1-6308~48~ubuntu16.04.1-stable} date Mon Jan  2 12:50:36 2017
;FORMAT={-:-/ absolute / metric / decimal}
FMAT,2
METRIC,TZ
T1C0.330
T2C1.016
%
G90
G05
M71
T1
X138.557Y-113.03
X138.811Y-110.49
X140.462Y-102.057
X140.716Y-116.84
X142.138Y-99.924
X143.561Y-101.295
X143.573Y-119.126
X144.029Y-116.343
X144.945Y-98.897
X145.445Y-114.252
X145.615Y-99.599
X146.259Y-102.764
X146.914Y-104.546
X146.932Y-113.665
X146.932Y-117.813
X146.964Y-100.584
X147.461Y-119.685
X147.555Y-115.865
X148.234Y-101.905
X148.336Y-112.966
X148.526Y-118.173
X148.59Y-117.094
T2
X132.588Y-93.472
X132.588Y-96.012
X132.588Y-98.552
X132.588Y-101.092
X132.588Y-103.632
X132.588Y-109.263
X132.588Y-111.803
X132.588Y-114.343
X132.588Y-116.883
X132.588Y-119.423
X142.646Y-93.878
X143.446Y-109.728
X145.186Y-93.878
X145.987Y-109.728
X155.448Y-93.472
X155.448Y-96.012
X155.448Y-98.552
X155.448Y-101.092
X155.448Y-103.632
X155.448Y-109.263
X155.448Y-111.803
X155.448Y-114.343
X155.448Y-116.883
X155.448Y-119.423
T0
M30
