%TF.GenerationSoftware,KiCad,Pcbnew,4.0.4+e1-6308~48~ubuntu16.04.1-stable*%
%TF.CreationDate,2017-01-02T12:50:36-08:00*%
%TF.ProjectId,mpu9250-breakout,6D7075393235302D627265616B6F7574,v1.0*%
%TF.FileFunction,Copper,L2,Bot,Signal*%
%FSLAX46Y46*%
G04 Gerber Fmt 4.6, Leading zero omitted, Abs format (unit mm)*
G04 Created by KiCad (PCBNEW 4.0.4+e1-6308~48~ubuntu16.04.1-stable) date Mon Jan  2 12:50:36 2017*
%MOMM*%
%LPD*%
G01*
G04 APERTURE LIST*
%ADD10C,0.350000*%
%ADD11R,2.032000X1.727200*%
%ADD12O,2.032000X1.727200*%
%ADD13R,2.032000X2.032000*%
%ADD14O,2.032000X2.032000*%
%ADD15C,0.685800*%
%ADD16C,0.254000*%
%ADD17C,0.152400*%
%ADD18C,0.330200*%
%ADD19C,0.330200*%
%ADD20C,0.350000*%
G04 APERTURE END LIST*
D10*
D11*
X132588000Y-93472000D03*
D12*
X132588000Y-96012000D03*
X132588000Y-98552000D03*
X132588000Y-101092000D03*
X132588000Y-103632000D03*
D11*
X155448000Y-93472000D03*
D12*
X155448000Y-96012000D03*
X155448000Y-98552000D03*
X155448000Y-101092000D03*
X155448000Y-103632000D03*
D13*
X142646400Y-93878400D03*
D14*
X145186400Y-93878400D03*
D11*
X155448000Y-109263201D03*
D12*
X155448000Y-111803201D03*
X155448000Y-114343201D03*
X155448000Y-116883201D03*
X155448000Y-119423201D03*
D11*
X132588000Y-109263201D03*
D12*
X132588000Y-111803201D03*
X132588000Y-114343201D03*
X132588000Y-116883201D03*
X132588000Y-119423201D03*
D13*
X143446500Y-109728000D03*
D14*
X145986500Y-109728000D03*
D15*
X146932252Y-113665000D03*
X146932252Y-117812607D03*
X146259493Y-102763651D03*
X148526500Y-118173490D03*
X143573500Y-119126000D03*
X145615170Y-99598913D03*
X143560800Y-101295200D03*
X138557000Y-113030000D03*
X138811000Y-110490000D03*
X148336000Y-112966500D03*
X145445495Y-114252243D03*
X147461324Y-119684821D03*
X147554562Y-115865414D03*
X148590000Y-117094000D03*
X140716000Y-116840000D03*
X144945110Y-98897023D03*
X148234400Y-101904800D03*
X146913600Y-104546400D03*
X140462000Y-102057200D03*
X146964400Y-100584000D03*
X142138400Y-99923600D03*
X144029000Y-116343000D03*
D16*
X146932252Y-112110592D02*
X146932252Y-113665000D01*
X146932252Y-113665000D02*
X146932252Y-117812607D01*
X145986500Y-109728000D02*
X145986500Y-111164840D01*
X145986500Y-111164840D02*
X146932252Y-112110592D01*
X141732000Y-108140500D02*
X144399000Y-108140500D01*
X144399000Y-108140500D02*
X145986500Y-109728000D01*
X140609299Y-109263201D02*
X141732000Y-108140500D01*
X132588000Y-109263201D02*
X140609299Y-109263201D01*
X145186400Y-97739200D02*
X146151600Y-98704400D01*
X146151600Y-98704400D02*
X146253200Y-98806000D01*
X146259493Y-102763651D02*
X146259493Y-98812293D01*
D17*
X146259493Y-98812293D02*
X146151600Y-98704400D01*
D16*
X145186400Y-93878400D02*
X145186400Y-97739200D01*
D17*
X143573500Y-119126000D02*
X143916399Y-118783101D01*
X143916399Y-118783101D02*
X147916889Y-118783101D01*
X148183601Y-118516389D02*
X148526500Y-118173490D01*
X147916889Y-118783101D02*
X148183601Y-118516389D01*
X143560800Y-101295200D02*
X145257087Y-99598913D01*
X145257087Y-99598913D02*
X145615170Y-99598913D01*
X140716000Y-115189000D02*
X138557000Y-113030000D01*
X140716000Y-116840000D02*
X140716000Y-115189000D01*
X140373101Y-112052101D02*
X138811000Y-110490000D01*
X140716000Y-116840000D02*
X140373101Y-116497101D01*
X140373101Y-116497101D02*
X140373101Y-112052101D01*
X148336000Y-114599043D02*
X148336000Y-112966500D01*
X147554562Y-115865414D02*
X147554562Y-115380481D01*
X147554562Y-115380481D02*
X148336000Y-114599043D01*
D18*
X142646400Y-99415600D02*
X142138400Y-99923600D01*
X142646400Y-93878400D02*
X142646400Y-99415600D01*
D17*
X143446500Y-109728000D02*
X143446500Y-115760500D01*
X143446500Y-115760500D02*
X144029000Y-116343000D01*
D16*
G36*
X153835569Y-92356510D02*
X153784560Y-92608400D01*
X153784560Y-94335600D01*
X153828838Y-94570917D01*
X153967910Y-94787041D01*
X154180110Y-94932031D01*
X154221439Y-94940400D01*
X154203585Y-94952330D01*
X153878729Y-95438511D01*
X153764655Y-96012000D01*
X153878729Y-96585489D01*
X154203585Y-97071670D01*
X154518366Y-97282000D01*
X154203585Y-97492330D01*
X153878729Y-97978511D01*
X153764655Y-98552000D01*
X153878729Y-99125489D01*
X154203585Y-99611670D01*
X154518366Y-99822000D01*
X154203585Y-100032330D01*
X153878729Y-100518511D01*
X153764655Y-101092000D01*
X153878729Y-101665489D01*
X154203585Y-102151670D01*
X154513069Y-102358461D01*
X154097268Y-102729964D01*
X153843291Y-103257209D01*
X153840642Y-103272974D01*
X153961783Y-103505000D01*
X155321000Y-103505000D01*
X155321000Y-103485000D01*
X155575000Y-103485000D01*
X155575000Y-103505000D01*
X155595000Y-103505000D01*
X155595000Y-103759000D01*
X155575000Y-103759000D01*
X155575000Y-103779000D01*
X155321000Y-103779000D01*
X155321000Y-103759000D01*
X153961783Y-103759000D01*
X153840642Y-103991026D01*
X153843291Y-104006791D01*
X154097268Y-104534036D01*
X154533680Y-104923954D01*
X154616145Y-104952800D01*
X133441607Y-104952800D01*
X133832415Y-104691670D01*
X134157271Y-104205489D01*
X134271345Y-103632000D01*
X134157271Y-103058511D01*
X133832415Y-102572330D01*
X133517634Y-102362000D01*
X133832415Y-102151670D01*
X134157271Y-101665489D01*
X134271345Y-101092000D01*
X134157271Y-100518511D01*
X133832415Y-100032330D01*
X133517634Y-99822000D01*
X133832415Y-99611670D01*
X134157271Y-99125489D01*
X134271345Y-98552000D01*
X134157271Y-97978511D01*
X133832415Y-97492330D01*
X133517634Y-97282000D01*
X133832415Y-97071670D01*
X134157271Y-96585489D01*
X134271345Y-96012000D01*
X134157271Y-95438511D01*
X133832415Y-94952330D01*
X133818087Y-94942757D01*
X133839317Y-94938762D01*
X134055441Y-94799690D01*
X134200431Y-94587490D01*
X134251440Y-94335600D01*
X134251440Y-92862400D01*
X140982960Y-92862400D01*
X140982960Y-94894400D01*
X141027238Y-95129717D01*
X141166310Y-95345841D01*
X141378510Y-95490831D01*
X141630400Y-95541840D01*
X141846300Y-95541840D01*
X141846300Y-98986204D01*
X141585188Y-99094093D01*
X141309860Y-99368941D01*
X141160670Y-99728230D01*
X141160331Y-100117263D01*
X141308893Y-100476812D01*
X141583741Y-100752140D01*
X141943030Y-100901330D01*
X142332063Y-100901669D01*
X142691612Y-100753107D01*
X142966940Y-100478259D01*
X143116130Y-100118970D01*
X143116166Y-100077346D01*
X143212156Y-99981356D01*
X143385596Y-99721785D01*
X143407499Y-99611670D01*
X143446500Y-99415600D01*
X143446500Y-95541840D01*
X143662400Y-95541840D01*
X143897717Y-95497562D01*
X144113841Y-95358490D01*
X144215598Y-95209563D01*
X144424400Y-95349080D01*
X144424400Y-97739200D01*
X144482404Y-98030805D01*
X144596463Y-98201506D01*
X144647585Y-98278015D01*
X145116457Y-98746887D01*
X145061958Y-98769406D01*
X144786630Y-99044254D01*
X144769337Y-99085900D01*
X144754193Y-99096019D01*
X143532937Y-100317275D01*
X143367137Y-100317131D01*
X143007588Y-100465693D01*
X142732260Y-100740541D01*
X142583070Y-101099830D01*
X142582731Y-101488863D01*
X142731293Y-101848412D01*
X143006141Y-102123740D01*
X143365430Y-102272930D01*
X143754463Y-102273269D01*
X144114012Y-102124707D01*
X144389340Y-101849859D01*
X144538530Y-101490570D01*
X144538676Y-101323112D01*
X145324653Y-100537135D01*
X145419800Y-100576643D01*
X145497493Y-100576711D01*
X145497493Y-102142568D01*
X145430953Y-102208992D01*
X145281763Y-102568281D01*
X145281424Y-102957314D01*
X145429986Y-103316863D01*
X145704834Y-103592191D01*
X146064123Y-103741381D01*
X146453156Y-103741720D01*
X146812705Y-103593158D01*
X147088033Y-103318310D01*
X147237223Y-102959021D01*
X147237562Y-102569988D01*
X147089000Y-102210439D01*
X147021493Y-102142814D01*
X147021493Y-98812293D01*
X146963489Y-98520688D01*
X146798308Y-98273478D01*
X146794536Y-98270957D01*
X146792015Y-98267185D01*
X145948400Y-97423570D01*
X145948400Y-95349080D01*
X146353833Y-95078178D01*
X146711725Y-94542555D01*
X146837400Y-93910745D01*
X146837400Y-93846055D01*
X146711725Y-93214245D01*
X146353833Y-92678622D01*
X145818210Y-92320730D01*
X145186400Y-92195055D01*
X144554590Y-92320730D01*
X144214608Y-92547899D01*
X144126490Y-92410959D01*
X143914290Y-92265969D01*
X143662400Y-92214960D01*
X141630400Y-92214960D01*
X141395083Y-92259238D01*
X141178959Y-92398310D01*
X141033969Y-92610510D01*
X140982960Y-92862400D01*
X134251440Y-92862400D01*
X134251440Y-92608400D01*
X134207162Y-92373083D01*
X134068090Y-92156959D01*
X134059661Y-92151200D01*
X153975851Y-92151200D01*
X153835569Y-92356510D01*
X153835569Y-92356510D01*
G37*
X153835569Y-92356510D02*
X153784560Y-92608400D01*
X153784560Y-94335600D01*
X153828838Y-94570917D01*
X153967910Y-94787041D01*
X154180110Y-94932031D01*
X154221439Y-94940400D01*
X154203585Y-94952330D01*
X153878729Y-95438511D01*
X153764655Y-96012000D01*
X153878729Y-96585489D01*
X154203585Y-97071670D01*
X154518366Y-97282000D01*
X154203585Y-97492330D01*
X153878729Y-97978511D01*
X153764655Y-98552000D01*
X153878729Y-99125489D01*
X154203585Y-99611670D01*
X154518366Y-99822000D01*
X154203585Y-100032330D01*
X153878729Y-100518511D01*
X153764655Y-101092000D01*
X153878729Y-101665489D01*
X154203585Y-102151670D01*
X154513069Y-102358461D01*
X154097268Y-102729964D01*
X153843291Y-103257209D01*
X153840642Y-103272974D01*
X153961783Y-103505000D01*
X155321000Y-103505000D01*
X155321000Y-103485000D01*
X155575000Y-103485000D01*
X155575000Y-103505000D01*
X155595000Y-103505000D01*
X155595000Y-103759000D01*
X155575000Y-103759000D01*
X155575000Y-103779000D01*
X155321000Y-103779000D01*
X155321000Y-103759000D01*
X153961783Y-103759000D01*
X153840642Y-103991026D01*
X153843291Y-104006791D01*
X154097268Y-104534036D01*
X154533680Y-104923954D01*
X154616145Y-104952800D01*
X133441607Y-104952800D01*
X133832415Y-104691670D01*
X134157271Y-104205489D01*
X134271345Y-103632000D01*
X134157271Y-103058511D01*
X133832415Y-102572330D01*
X133517634Y-102362000D01*
X133832415Y-102151670D01*
X134157271Y-101665489D01*
X134271345Y-101092000D01*
X134157271Y-100518511D01*
X133832415Y-100032330D01*
X133517634Y-99822000D01*
X133832415Y-99611670D01*
X134157271Y-99125489D01*
X134271345Y-98552000D01*
X134157271Y-97978511D01*
X133832415Y-97492330D01*
X133517634Y-97282000D01*
X133832415Y-97071670D01*
X134157271Y-96585489D01*
X134271345Y-96012000D01*
X134157271Y-95438511D01*
X133832415Y-94952330D01*
X133818087Y-94942757D01*
X133839317Y-94938762D01*
X134055441Y-94799690D01*
X134200431Y-94587490D01*
X134251440Y-94335600D01*
X134251440Y-92862400D01*
X140982960Y-92862400D01*
X140982960Y-94894400D01*
X141027238Y-95129717D01*
X141166310Y-95345841D01*
X141378510Y-95490831D01*
X141630400Y-95541840D01*
X141846300Y-95541840D01*
X141846300Y-98986204D01*
X141585188Y-99094093D01*
X141309860Y-99368941D01*
X141160670Y-99728230D01*
X141160331Y-100117263D01*
X141308893Y-100476812D01*
X141583741Y-100752140D01*
X141943030Y-100901330D01*
X142332063Y-100901669D01*
X142691612Y-100753107D01*
X142966940Y-100478259D01*
X143116130Y-100118970D01*
X143116166Y-100077346D01*
X143212156Y-99981356D01*
X143385596Y-99721785D01*
X143407499Y-99611670D01*
X143446500Y-99415600D01*
X143446500Y-95541840D01*
X143662400Y-95541840D01*
X143897717Y-95497562D01*
X144113841Y-95358490D01*
X144215598Y-95209563D01*
X144424400Y-95349080D01*
X144424400Y-97739200D01*
X144482404Y-98030805D01*
X144596463Y-98201506D01*
X144647585Y-98278015D01*
X145116457Y-98746887D01*
X145061958Y-98769406D01*
X144786630Y-99044254D01*
X144769337Y-99085900D01*
X144754193Y-99096019D01*
X143532937Y-100317275D01*
X143367137Y-100317131D01*
X143007588Y-100465693D01*
X142732260Y-100740541D01*
X142583070Y-101099830D01*
X142582731Y-101488863D01*
X142731293Y-101848412D01*
X143006141Y-102123740D01*
X143365430Y-102272930D01*
X143754463Y-102273269D01*
X144114012Y-102124707D01*
X144389340Y-101849859D01*
X144538530Y-101490570D01*
X144538676Y-101323112D01*
X145324653Y-100537135D01*
X145419800Y-100576643D01*
X145497493Y-100576711D01*
X145497493Y-102142568D01*
X145430953Y-102208992D01*
X145281763Y-102568281D01*
X145281424Y-102957314D01*
X145429986Y-103316863D01*
X145704834Y-103592191D01*
X146064123Y-103741381D01*
X146453156Y-103741720D01*
X146812705Y-103593158D01*
X147088033Y-103318310D01*
X147237223Y-102959021D01*
X147237562Y-102569988D01*
X147089000Y-102210439D01*
X147021493Y-102142814D01*
X147021493Y-98812293D01*
X146963489Y-98520688D01*
X146798308Y-98273478D01*
X146794536Y-98270957D01*
X146792015Y-98267185D01*
X145948400Y-97423570D01*
X145948400Y-95349080D01*
X146353833Y-95078178D01*
X146711725Y-94542555D01*
X146837400Y-93910745D01*
X146837400Y-93846055D01*
X146711725Y-93214245D01*
X146353833Y-92678622D01*
X145818210Y-92320730D01*
X145186400Y-92195055D01*
X144554590Y-92320730D01*
X144214608Y-92547899D01*
X144126490Y-92410959D01*
X143914290Y-92265969D01*
X143662400Y-92214960D01*
X141630400Y-92214960D01*
X141395083Y-92259238D01*
X141178959Y-92398310D01*
X141033969Y-92610510D01*
X140982960Y-92862400D01*
X134251440Y-92862400D01*
X134251440Y-92608400D01*
X134207162Y-92373083D01*
X134068090Y-92156959D01*
X134059661Y-92151200D01*
X153975851Y-92151200D01*
X153835569Y-92356510D01*
G36*
X153980559Y-107935511D02*
X153835569Y-108147711D01*
X153784560Y-108399601D01*
X153784560Y-110126801D01*
X153828838Y-110362118D01*
X153967910Y-110578242D01*
X154180110Y-110723232D01*
X154221439Y-110731601D01*
X154203585Y-110743531D01*
X153878729Y-111229712D01*
X153764655Y-111803201D01*
X153878729Y-112376690D01*
X154203585Y-112862871D01*
X154518366Y-113073201D01*
X154203585Y-113283531D01*
X153878729Y-113769712D01*
X153764655Y-114343201D01*
X153878729Y-114916690D01*
X154203585Y-115402871D01*
X154518366Y-115613201D01*
X154203585Y-115823531D01*
X153878729Y-116309712D01*
X153764655Y-116883201D01*
X153878729Y-117456690D01*
X154203585Y-117942871D01*
X154513069Y-118149662D01*
X154097268Y-118521165D01*
X153843291Y-119048410D01*
X153840642Y-119064175D01*
X153961783Y-119296201D01*
X155321000Y-119296201D01*
X155321000Y-119276201D01*
X155575000Y-119276201D01*
X155575000Y-119296201D01*
X155595000Y-119296201D01*
X155595000Y-119550201D01*
X155575000Y-119550201D01*
X155575000Y-119570201D01*
X155321000Y-119570201D01*
X155321000Y-119550201D01*
X153961783Y-119550201D01*
X153840642Y-119782227D01*
X153843291Y-119797992D01*
X154097268Y-120325237D01*
X154517613Y-120700800D01*
X133518387Y-120700800D01*
X133938732Y-120325237D01*
X134192709Y-119797992D01*
X134195358Y-119782227D01*
X134074217Y-119550201D01*
X132715000Y-119550201D01*
X132715000Y-119570201D01*
X132461000Y-119570201D01*
X132461000Y-119550201D01*
X132441000Y-119550201D01*
X132441000Y-119296201D01*
X132461000Y-119296201D01*
X132461000Y-119276201D01*
X132715000Y-119276201D01*
X132715000Y-119296201D01*
X134074217Y-119296201D01*
X134195358Y-119064175D01*
X134192709Y-119048410D01*
X133938732Y-118521165D01*
X133522931Y-118149662D01*
X133832415Y-117942871D01*
X134157271Y-117456690D01*
X134271345Y-116883201D01*
X134157271Y-116309712D01*
X133832415Y-115823531D01*
X133517634Y-115613201D01*
X133832415Y-115402871D01*
X134157271Y-114916690D01*
X134271345Y-114343201D01*
X134157271Y-113769712D01*
X133832415Y-113283531D01*
X133517634Y-113073201D01*
X133832415Y-112862871D01*
X134157271Y-112376690D01*
X134271345Y-111803201D01*
X134157271Y-111229712D01*
X133832415Y-110743531D01*
X133818087Y-110733958D01*
X133839317Y-110729963D01*
X134055441Y-110590891D01*
X134200431Y-110378691D01*
X134251440Y-110126801D01*
X134251440Y-110025201D01*
X140609299Y-110025201D01*
X140900904Y-109967197D01*
X141148114Y-109802016D01*
X141783060Y-109167070D01*
X141783060Y-110744000D01*
X141827338Y-110979317D01*
X141966410Y-111195441D01*
X142178610Y-111340431D01*
X142430500Y-111391440D01*
X142735300Y-111391440D01*
X142735300Y-115760500D01*
X142789437Y-116032665D01*
X142943606Y-116263394D01*
X143051075Y-116370864D01*
X143050931Y-116536663D01*
X143199493Y-116896212D01*
X143474341Y-117171540D01*
X143833630Y-117320730D01*
X144222663Y-117321069D01*
X144582212Y-117172507D01*
X144857540Y-116897659D01*
X145006730Y-116538370D01*
X145007069Y-116149337D01*
X144858507Y-115789788D01*
X144583659Y-115514460D01*
X144224370Y-115365270D01*
X144157700Y-115365212D01*
X144157700Y-111391440D01*
X144462500Y-111391440D01*
X144697817Y-111347162D01*
X144913941Y-111208090D01*
X145015698Y-111059163D01*
X145232263Y-111203867D01*
X145282504Y-111456445D01*
X145359566Y-111571776D01*
X145447685Y-111703655D01*
X146170252Y-112426223D01*
X146170252Y-113043917D01*
X146103712Y-113110341D01*
X145954522Y-113469630D01*
X145954183Y-113858663D01*
X146102745Y-114218212D01*
X146170252Y-114285837D01*
X146170252Y-117191524D01*
X146103712Y-117257948D01*
X145954522Y-117617237D01*
X145954183Y-118006270D01*
X145981301Y-118071901D01*
X143916399Y-118071901D01*
X143644235Y-118126038D01*
X143611168Y-118148133D01*
X143379837Y-118147931D01*
X143020288Y-118296493D01*
X142744960Y-118571341D01*
X142595770Y-118930630D01*
X142595431Y-119319663D01*
X142743993Y-119679212D01*
X143018841Y-119954540D01*
X143378130Y-120103730D01*
X143767163Y-120104069D01*
X144126712Y-119955507D01*
X144402040Y-119680659D01*
X144479423Y-119494301D01*
X147916889Y-119494301D01*
X148189054Y-119440164D01*
X148419783Y-119285995D01*
X148554364Y-119151415D01*
X148720163Y-119151559D01*
X149079712Y-119002997D01*
X149355040Y-118728149D01*
X149504230Y-118368860D01*
X149504569Y-117979827D01*
X149356007Y-117620278D01*
X149081159Y-117344950D01*
X148721870Y-117195760D01*
X148332837Y-117195421D01*
X147973288Y-117343983D01*
X147848274Y-117468779D01*
X147761759Y-117259395D01*
X147694252Y-117191770D01*
X147694252Y-114286083D01*
X147760792Y-114219659D01*
X147909982Y-113860370D01*
X147910321Y-113471337D01*
X147761759Y-113111788D01*
X147694252Y-113044163D01*
X147694252Y-112110592D01*
X147636248Y-111818987D01*
X147625700Y-111803201D01*
X147471067Y-111571776D01*
X146957992Y-111058702D01*
X147153933Y-110927778D01*
X147511825Y-110392155D01*
X147637500Y-109760345D01*
X147637500Y-109695655D01*
X147511825Y-109063845D01*
X147153933Y-108528222D01*
X146618310Y-108170330D01*
X145986500Y-108044655D01*
X145481280Y-108145150D01*
X145235330Y-107899200D01*
X154036988Y-107899200D01*
X153980559Y-107935511D01*
X153980559Y-107935511D01*
G37*
X153980559Y-107935511D02*
X153835569Y-108147711D01*
X153784560Y-108399601D01*
X153784560Y-110126801D01*
X153828838Y-110362118D01*
X153967910Y-110578242D01*
X154180110Y-110723232D01*
X154221439Y-110731601D01*
X154203585Y-110743531D01*
X153878729Y-111229712D01*
X153764655Y-111803201D01*
X153878729Y-112376690D01*
X154203585Y-112862871D01*
X154518366Y-113073201D01*
X154203585Y-113283531D01*
X153878729Y-113769712D01*
X153764655Y-114343201D01*
X153878729Y-114916690D01*
X154203585Y-115402871D01*
X154518366Y-115613201D01*
X154203585Y-115823531D01*
X153878729Y-116309712D01*
X153764655Y-116883201D01*
X153878729Y-117456690D01*
X154203585Y-117942871D01*
X154513069Y-118149662D01*
X154097268Y-118521165D01*
X153843291Y-119048410D01*
X153840642Y-119064175D01*
X153961783Y-119296201D01*
X155321000Y-119296201D01*
X155321000Y-119276201D01*
X155575000Y-119276201D01*
X155575000Y-119296201D01*
X155595000Y-119296201D01*
X155595000Y-119550201D01*
X155575000Y-119550201D01*
X155575000Y-119570201D01*
X155321000Y-119570201D01*
X155321000Y-119550201D01*
X153961783Y-119550201D01*
X153840642Y-119782227D01*
X153843291Y-119797992D01*
X154097268Y-120325237D01*
X154517613Y-120700800D01*
X133518387Y-120700800D01*
X133938732Y-120325237D01*
X134192709Y-119797992D01*
X134195358Y-119782227D01*
X134074217Y-119550201D01*
X132715000Y-119550201D01*
X132715000Y-119570201D01*
X132461000Y-119570201D01*
X132461000Y-119550201D01*
X132441000Y-119550201D01*
X132441000Y-119296201D01*
X132461000Y-119296201D01*
X132461000Y-119276201D01*
X132715000Y-119276201D01*
X132715000Y-119296201D01*
X134074217Y-119296201D01*
X134195358Y-119064175D01*
X134192709Y-119048410D01*
X133938732Y-118521165D01*
X133522931Y-118149662D01*
X133832415Y-117942871D01*
X134157271Y-117456690D01*
X134271345Y-116883201D01*
X134157271Y-116309712D01*
X133832415Y-115823531D01*
X133517634Y-115613201D01*
X133832415Y-115402871D01*
X134157271Y-114916690D01*
X134271345Y-114343201D01*
X134157271Y-113769712D01*
X133832415Y-113283531D01*
X133517634Y-113073201D01*
X133832415Y-112862871D01*
X134157271Y-112376690D01*
X134271345Y-111803201D01*
X134157271Y-111229712D01*
X133832415Y-110743531D01*
X133818087Y-110733958D01*
X133839317Y-110729963D01*
X134055441Y-110590891D01*
X134200431Y-110378691D01*
X134251440Y-110126801D01*
X134251440Y-110025201D01*
X140609299Y-110025201D01*
X140900904Y-109967197D01*
X141148114Y-109802016D01*
X141783060Y-109167070D01*
X141783060Y-110744000D01*
X141827338Y-110979317D01*
X141966410Y-111195441D01*
X142178610Y-111340431D01*
X142430500Y-111391440D01*
X142735300Y-111391440D01*
X142735300Y-115760500D01*
X142789437Y-116032665D01*
X142943606Y-116263394D01*
X143051075Y-116370864D01*
X143050931Y-116536663D01*
X143199493Y-116896212D01*
X143474341Y-117171540D01*
X143833630Y-117320730D01*
X144222663Y-117321069D01*
X144582212Y-117172507D01*
X144857540Y-116897659D01*
X145006730Y-116538370D01*
X145007069Y-116149337D01*
X144858507Y-115789788D01*
X144583659Y-115514460D01*
X144224370Y-115365270D01*
X144157700Y-115365212D01*
X144157700Y-111391440D01*
X144462500Y-111391440D01*
X144697817Y-111347162D01*
X144913941Y-111208090D01*
X145015698Y-111059163D01*
X145232263Y-111203867D01*
X145282504Y-111456445D01*
X145359566Y-111571776D01*
X145447685Y-111703655D01*
X146170252Y-112426223D01*
X146170252Y-113043917D01*
X146103712Y-113110341D01*
X145954522Y-113469630D01*
X145954183Y-113858663D01*
X146102745Y-114218212D01*
X146170252Y-114285837D01*
X146170252Y-117191524D01*
X146103712Y-117257948D01*
X145954522Y-117617237D01*
X145954183Y-118006270D01*
X145981301Y-118071901D01*
X143916399Y-118071901D01*
X143644235Y-118126038D01*
X143611168Y-118148133D01*
X143379837Y-118147931D01*
X143020288Y-118296493D01*
X142744960Y-118571341D01*
X142595770Y-118930630D01*
X142595431Y-119319663D01*
X142743993Y-119679212D01*
X143018841Y-119954540D01*
X143378130Y-120103730D01*
X143767163Y-120104069D01*
X144126712Y-119955507D01*
X144402040Y-119680659D01*
X144479423Y-119494301D01*
X147916889Y-119494301D01*
X148189054Y-119440164D01*
X148419783Y-119285995D01*
X148554364Y-119151415D01*
X148720163Y-119151559D01*
X149079712Y-119002997D01*
X149355040Y-118728149D01*
X149504230Y-118368860D01*
X149504569Y-117979827D01*
X149356007Y-117620278D01*
X149081159Y-117344950D01*
X148721870Y-117195760D01*
X148332837Y-117195421D01*
X147973288Y-117343983D01*
X147848274Y-117468779D01*
X147761759Y-117259395D01*
X147694252Y-117191770D01*
X147694252Y-114286083D01*
X147760792Y-114219659D01*
X147909982Y-113860370D01*
X147910321Y-113471337D01*
X147761759Y-113111788D01*
X147694252Y-113044163D01*
X147694252Y-112110592D01*
X147636248Y-111818987D01*
X147625700Y-111803201D01*
X147471067Y-111571776D01*
X146957992Y-111058702D01*
X147153933Y-110927778D01*
X147511825Y-110392155D01*
X147637500Y-109760345D01*
X147637500Y-109695655D01*
X147511825Y-109063845D01*
X147153933Y-108528222D01*
X146618310Y-108170330D01*
X145986500Y-108044655D01*
X145481280Y-108145150D01*
X145235330Y-107899200D01*
X154036988Y-107899200D01*
X153980559Y-107935511D01*
D19*
X146932252Y-113665000D03*
X146932252Y-117812607D03*
X146259493Y-102763651D03*
X148526500Y-118173490D03*
X143573500Y-119126000D03*
X145615170Y-99598913D03*
X143560800Y-101295200D03*
X138557000Y-113030000D03*
X138811000Y-110490000D03*
X148336000Y-112966500D03*
X145445495Y-114252243D03*
X147461324Y-119684821D03*
X147554562Y-115865414D03*
X148590000Y-117094000D03*
X140716000Y-116840000D03*
X144945110Y-98897023D03*
X148234400Y-101904800D03*
X146913600Y-104546400D03*
X140462000Y-102057200D03*
X146964400Y-100584000D03*
X142138400Y-99923600D03*
X144029000Y-116343000D03*
D20*
X132588000Y-93472000D03*
X132588000Y-96012000D03*
X132588000Y-98552000D03*
X132588000Y-101092000D03*
X132588000Y-103632000D03*
X155448000Y-93472000D03*
X155448000Y-96012000D03*
X155448000Y-98552000D03*
X155448000Y-101092000D03*
X155448000Y-103632000D03*
X142646400Y-93878400D03*
X145186400Y-93878400D03*
X155448000Y-109263201D03*
X155448000Y-111803201D03*
X155448000Y-114343201D03*
X155448000Y-116883201D03*
X155448000Y-119423201D03*
X132588000Y-109263201D03*
X132588000Y-111803201D03*
X132588000Y-114343201D03*
X132588000Y-116883201D03*
X132588000Y-119423201D03*
X143446500Y-109728000D03*
X145986500Y-109728000D03*
M02*
