%TF.GenerationSoftware,KiCad,Pcbnew,4.0.4+e1-6308~48~ubuntu16.04.1-stable*%
%TF.CreationDate,2017-01-02T12:50:36-08:00*%
%TF.ProjectId,mpu9250-breakout,6D7075393235302D627265616B6F7574,v1.0*%
%TF.FileFunction,Soldermask,Top*%
%FSLAX46Y46*%
G04 Gerber Fmt 4.6, Leading zero omitted, Abs format (unit mm)*
G04 Created by KiCad (PCBNEW 4.0.4+e1-6308~48~ubuntu16.04.1-stable) date Mon Jan  2 12:50:36 2017*
%MOMM*%
%LPD*%
G01*
G04 APERTURE LIST*
%ADD10C,0.350000*%
G04 APERTURE END LIST*
D10*
G36*
X155616273Y-118508875D02*
X155616279Y-118508876D01*
X155618329Y-118508890D01*
X155795676Y-118528783D01*
X155965782Y-118582744D01*
X156122168Y-118668717D01*
X156258876Y-118783429D01*
X156370699Y-118922509D01*
X156453379Y-119080661D01*
X156503765Y-119251860D01*
X156503768Y-119251891D01*
X156503772Y-119251905D01*
X156519941Y-119429581D01*
X156501292Y-119607019D01*
X156501291Y-119607024D01*
X156501286Y-119607067D01*
X156448514Y-119777545D01*
X156363634Y-119934527D01*
X156249880Y-120072032D01*
X156111583Y-120184824D01*
X155954013Y-120268606D01*
X155783170Y-120320186D01*
X155605562Y-120337601D01*
X155290403Y-120337601D01*
X155279727Y-120337527D01*
X155279721Y-120337526D01*
X155277671Y-120337512D01*
X155100324Y-120317619D01*
X154930218Y-120263658D01*
X154773832Y-120177685D01*
X154637124Y-120062973D01*
X154525301Y-119923893D01*
X154442621Y-119765741D01*
X154392235Y-119594542D01*
X154392232Y-119594511D01*
X154392228Y-119594497D01*
X154376059Y-119416821D01*
X154394708Y-119239383D01*
X154394709Y-119239378D01*
X154394714Y-119239335D01*
X154447486Y-119068857D01*
X154532366Y-118911875D01*
X154646120Y-118774370D01*
X154784417Y-118661578D01*
X154941987Y-118577796D01*
X155112830Y-118526216D01*
X155290438Y-118508801D01*
X155605597Y-118508801D01*
X155616273Y-118508875D01*
X155616273Y-118508875D01*
G37*
G36*
X132756273Y-118508875D02*
X132756279Y-118508876D01*
X132758329Y-118508890D01*
X132935676Y-118528783D01*
X133105782Y-118582744D01*
X133262168Y-118668717D01*
X133398876Y-118783429D01*
X133510699Y-118922509D01*
X133593379Y-119080661D01*
X133643765Y-119251860D01*
X133643768Y-119251891D01*
X133643772Y-119251905D01*
X133659941Y-119429581D01*
X133641292Y-119607019D01*
X133641291Y-119607024D01*
X133641286Y-119607067D01*
X133588514Y-119777545D01*
X133503634Y-119934527D01*
X133389880Y-120072032D01*
X133251583Y-120184824D01*
X133094013Y-120268606D01*
X132923170Y-120320186D01*
X132745562Y-120337601D01*
X132430403Y-120337601D01*
X132419727Y-120337527D01*
X132419721Y-120337526D01*
X132417671Y-120337512D01*
X132240324Y-120317619D01*
X132070218Y-120263658D01*
X131913832Y-120177685D01*
X131777124Y-120062973D01*
X131665301Y-119923893D01*
X131582621Y-119765741D01*
X131532235Y-119594542D01*
X131532232Y-119594511D01*
X131532228Y-119594497D01*
X131516059Y-119416821D01*
X131534708Y-119239383D01*
X131534709Y-119239378D01*
X131534714Y-119239335D01*
X131587486Y-119068857D01*
X131672366Y-118911875D01*
X131786120Y-118774370D01*
X131924417Y-118661578D01*
X132081987Y-118577796D01*
X132252830Y-118526216D01*
X132430438Y-118508801D01*
X132745597Y-118508801D01*
X132756273Y-118508875D01*
X132756273Y-118508875D01*
G37*
G36*
X146611800Y-119934800D02*
X145910200Y-119934800D01*
X145910200Y-119333200D01*
X146611800Y-119333200D01*
X146611800Y-119934800D01*
X146611800Y-119934800D01*
G37*
G36*
X145511800Y-119934800D02*
X144810200Y-119934800D01*
X144810200Y-119333200D01*
X145511800Y-119333200D01*
X145511800Y-119934800D01*
X145511800Y-119934800D01*
G37*
G36*
X145779800Y-115711400D02*
X145781811Y-115725553D01*
X145787686Y-115738584D01*
X145796958Y-115749464D01*
X145808894Y-115757329D01*
X145822549Y-115761558D01*
X145830600Y-115762200D01*
X146454800Y-115762200D01*
X146454800Y-118063800D01*
X145830600Y-118063800D01*
X145816447Y-118065811D01*
X145803416Y-118071686D01*
X145792536Y-118080958D01*
X145784671Y-118092894D01*
X145780442Y-118106549D01*
X145779800Y-118114600D01*
X145779800Y-118738800D01*
X143478200Y-118738800D01*
X143478200Y-118114600D01*
X143476189Y-118100447D01*
X143470314Y-118087416D01*
X143461042Y-118076536D01*
X143449106Y-118068671D01*
X143435451Y-118064442D01*
X143427400Y-118063800D01*
X142803200Y-118063800D01*
X142803200Y-115789600D01*
X143454800Y-115789600D01*
X143454800Y-118036400D01*
X143456811Y-118050553D01*
X143462686Y-118063584D01*
X143471958Y-118074464D01*
X143483894Y-118082329D01*
X143497549Y-118086558D01*
X143505600Y-118087200D01*
X145752400Y-118087200D01*
X145766553Y-118085189D01*
X145779584Y-118079314D01*
X145790464Y-118070042D01*
X145798329Y-118058106D01*
X145802558Y-118044451D01*
X145803200Y-118036400D01*
X145803200Y-115789600D01*
X145801189Y-115775447D01*
X145795314Y-115762416D01*
X145786042Y-115751536D01*
X145774106Y-115743671D01*
X145760451Y-115739442D01*
X145752400Y-115738800D01*
X143505600Y-115738800D01*
X143491447Y-115740811D01*
X143478416Y-115746686D01*
X143467536Y-115755958D01*
X143459671Y-115767894D01*
X143455442Y-115781549D01*
X143454800Y-115789600D01*
X142803200Y-115789600D01*
X142803200Y-115762200D01*
X143427400Y-115762200D01*
X143441553Y-115760189D01*
X143454584Y-115754314D01*
X143465464Y-115745042D01*
X143473329Y-115733106D01*
X143477558Y-115719451D01*
X143478200Y-115711400D01*
X143478200Y-115087200D01*
X145779800Y-115087200D01*
X145779800Y-115711400D01*
X145779800Y-115711400D01*
G37*
G36*
X147747800Y-118544800D02*
X147146200Y-118544800D01*
X147146200Y-117843200D01*
X147747800Y-117843200D01*
X147747800Y-118544800D01*
X147747800Y-118544800D01*
G37*
G36*
X155616273Y-115968875D02*
X155616279Y-115968876D01*
X155618329Y-115968890D01*
X155795676Y-115988783D01*
X155965782Y-116042744D01*
X156122168Y-116128717D01*
X156258876Y-116243429D01*
X156370699Y-116382509D01*
X156453379Y-116540661D01*
X156503765Y-116711860D01*
X156503768Y-116711891D01*
X156503772Y-116711905D01*
X156519941Y-116889581D01*
X156501292Y-117067019D01*
X156501291Y-117067024D01*
X156501286Y-117067067D01*
X156448514Y-117237545D01*
X156363634Y-117394527D01*
X156249880Y-117532032D01*
X156111583Y-117644824D01*
X155954013Y-117728606D01*
X155783170Y-117780186D01*
X155605562Y-117797601D01*
X155290403Y-117797601D01*
X155279727Y-117797527D01*
X155279721Y-117797526D01*
X155277671Y-117797512D01*
X155100324Y-117777619D01*
X154930218Y-117723658D01*
X154773832Y-117637685D01*
X154637124Y-117522973D01*
X154525301Y-117383893D01*
X154442621Y-117225741D01*
X154392235Y-117054542D01*
X154392232Y-117054511D01*
X154392228Y-117054497D01*
X154376059Y-116876821D01*
X154394708Y-116699383D01*
X154394709Y-116699378D01*
X154394714Y-116699335D01*
X154447486Y-116528857D01*
X154532366Y-116371875D01*
X154646120Y-116234370D01*
X154784417Y-116121578D01*
X154941987Y-116037796D01*
X155112830Y-115986216D01*
X155290438Y-115968801D01*
X155605597Y-115968801D01*
X155616273Y-115968875D01*
X155616273Y-115968875D01*
G37*
G36*
X132756273Y-115968875D02*
X132756279Y-115968876D01*
X132758329Y-115968890D01*
X132935676Y-115988783D01*
X133105782Y-116042744D01*
X133262168Y-116128717D01*
X133398876Y-116243429D01*
X133510699Y-116382509D01*
X133593379Y-116540661D01*
X133643765Y-116711860D01*
X133643768Y-116711891D01*
X133643772Y-116711905D01*
X133659941Y-116889581D01*
X133641292Y-117067019D01*
X133641291Y-117067024D01*
X133641286Y-117067067D01*
X133588514Y-117237545D01*
X133503634Y-117394527D01*
X133389880Y-117532032D01*
X133251583Y-117644824D01*
X133094013Y-117728606D01*
X132923170Y-117780186D01*
X132745562Y-117797601D01*
X132430403Y-117797601D01*
X132419727Y-117797527D01*
X132419721Y-117797526D01*
X132417671Y-117797512D01*
X132240324Y-117777619D01*
X132070218Y-117723658D01*
X131913832Y-117637685D01*
X131777124Y-117522973D01*
X131665301Y-117383893D01*
X131582621Y-117225741D01*
X131532235Y-117054542D01*
X131532232Y-117054511D01*
X131532228Y-117054497D01*
X131516059Y-116876821D01*
X131534708Y-116699383D01*
X131534709Y-116699378D01*
X131534714Y-116699335D01*
X131587486Y-116528857D01*
X131672366Y-116371875D01*
X131786120Y-116234370D01*
X131924417Y-116121578D01*
X132081987Y-116037796D01*
X132252830Y-115986216D01*
X132430438Y-115968801D01*
X132745597Y-115968801D01*
X132756273Y-115968875D01*
X132756273Y-115968875D01*
G37*
G36*
X147747800Y-117444800D02*
X147146200Y-117444800D01*
X147146200Y-116743200D01*
X147747800Y-116743200D01*
X147747800Y-117444800D01*
X147747800Y-117444800D01*
G37*
G36*
X142159800Y-117190800D02*
X141558200Y-117190800D01*
X141558200Y-116489200D01*
X142159800Y-116489200D01*
X142159800Y-117190800D01*
X142159800Y-117190800D01*
G37*
G36*
X142159800Y-116090800D02*
X141558200Y-116090800D01*
X141558200Y-115389200D01*
X142159800Y-115389200D01*
X142159800Y-116090800D01*
X142159800Y-116090800D01*
G37*
G36*
X155616273Y-113428875D02*
X155616279Y-113428876D01*
X155618329Y-113428890D01*
X155795676Y-113448783D01*
X155965782Y-113502744D01*
X156122168Y-113588717D01*
X156258876Y-113703429D01*
X156370699Y-113842509D01*
X156453379Y-114000661D01*
X156503765Y-114171860D01*
X156503768Y-114171891D01*
X156503772Y-114171905D01*
X156519941Y-114349581D01*
X156501292Y-114527019D01*
X156501291Y-114527024D01*
X156501286Y-114527067D01*
X156448514Y-114697545D01*
X156363634Y-114854527D01*
X156249880Y-114992032D01*
X156111583Y-115104824D01*
X155954013Y-115188606D01*
X155783170Y-115240186D01*
X155605562Y-115257601D01*
X155290403Y-115257601D01*
X155279727Y-115257527D01*
X155279721Y-115257526D01*
X155277671Y-115257512D01*
X155100324Y-115237619D01*
X154930218Y-115183658D01*
X154773832Y-115097685D01*
X154637124Y-114982973D01*
X154525301Y-114843893D01*
X154442621Y-114685741D01*
X154392235Y-114514542D01*
X154392232Y-114514511D01*
X154392228Y-114514497D01*
X154376059Y-114336821D01*
X154394708Y-114159383D01*
X154394709Y-114159378D01*
X154394714Y-114159335D01*
X154447486Y-113988857D01*
X154532366Y-113831875D01*
X154646120Y-113694370D01*
X154784417Y-113581578D01*
X154941987Y-113497796D01*
X155112830Y-113446216D01*
X155290438Y-113428801D01*
X155605597Y-113428801D01*
X155616273Y-113428875D01*
X155616273Y-113428875D01*
G37*
G36*
X132756273Y-113428875D02*
X132756279Y-113428876D01*
X132758329Y-113428890D01*
X132935676Y-113448783D01*
X133105782Y-113502744D01*
X133262168Y-113588717D01*
X133398876Y-113703429D01*
X133510699Y-113842509D01*
X133593379Y-114000661D01*
X133643765Y-114171860D01*
X133643768Y-114171891D01*
X133643772Y-114171905D01*
X133659941Y-114349581D01*
X133641292Y-114527019D01*
X133641291Y-114527024D01*
X133641286Y-114527067D01*
X133588514Y-114697545D01*
X133503634Y-114854527D01*
X133389880Y-114992032D01*
X133251583Y-115104824D01*
X133094013Y-115188606D01*
X132923170Y-115240186D01*
X132745562Y-115257601D01*
X132430403Y-115257601D01*
X132419727Y-115257527D01*
X132419721Y-115257526D01*
X132417671Y-115257512D01*
X132240324Y-115237619D01*
X132070218Y-115183658D01*
X131913832Y-115097685D01*
X131777124Y-114982973D01*
X131665301Y-114843893D01*
X131582621Y-114685741D01*
X131532235Y-114514542D01*
X131532232Y-114514511D01*
X131532228Y-114514497D01*
X131516059Y-114336821D01*
X131534708Y-114159383D01*
X131534709Y-114159378D01*
X131534714Y-114159335D01*
X131587486Y-113988857D01*
X131672366Y-113831875D01*
X131786120Y-113694370D01*
X131924417Y-113581578D01*
X132081987Y-113497796D01*
X132252830Y-113446216D01*
X132430438Y-113428801D01*
X132745597Y-113428801D01*
X132756273Y-113428875D01*
X132756273Y-113428875D01*
G37*
G36*
X132756273Y-110888875D02*
X132756279Y-110888876D01*
X132758329Y-110888890D01*
X132935676Y-110908783D01*
X133105782Y-110962744D01*
X133262168Y-111048717D01*
X133398876Y-111163429D01*
X133510699Y-111302509D01*
X133593379Y-111460661D01*
X133643765Y-111631860D01*
X133643768Y-111631891D01*
X133643772Y-111631905D01*
X133659941Y-111809581D01*
X133641292Y-111987019D01*
X133641291Y-111987024D01*
X133641286Y-111987067D01*
X133588514Y-112157545D01*
X133503634Y-112314527D01*
X133389880Y-112452032D01*
X133251583Y-112564824D01*
X133094013Y-112648606D01*
X132923170Y-112700186D01*
X132745562Y-112717601D01*
X132430403Y-112717601D01*
X132419727Y-112717527D01*
X132419721Y-112717526D01*
X132417671Y-112717512D01*
X132240324Y-112697619D01*
X132070218Y-112643658D01*
X131913832Y-112557685D01*
X131777124Y-112442973D01*
X131665301Y-112303893D01*
X131582621Y-112145741D01*
X131532235Y-111974542D01*
X131532232Y-111974511D01*
X131532228Y-111974497D01*
X131516059Y-111796821D01*
X131534708Y-111619383D01*
X131534709Y-111619378D01*
X131534714Y-111619335D01*
X131587486Y-111448857D01*
X131672366Y-111291875D01*
X131786120Y-111154370D01*
X131924417Y-111041578D01*
X132081987Y-110957796D01*
X132252830Y-110906216D01*
X132430438Y-110888801D01*
X132745597Y-110888801D01*
X132756273Y-110888875D01*
X132756273Y-110888875D01*
G37*
G36*
X155616273Y-110888875D02*
X155616279Y-110888876D01*
X155618329Y-110888890D01*
X155795676Y-110908783D01*
X155965782Y-110962744D01*
X156122168Y-111048717D01*
X156258876Y-111163429D01*
X156370699Y-111302509D01*
X156453379Y-111460661D01*
X156503765Y-111631860D01*
X156503768Y-111631891D01*
X156503772Y-111631905D01*
X156519941Y-111809581D01*
X156501292Y-111987019D01*
X156501291Y-111987024D01*
X156501286Y-111987067D01*
X156448514Y-112157545D01*
X156363634Y-112314527D01*
X156249880Y-112452032D01*
X156111583Y-112564824D01*
X155954013Y-112648606D01*
X155783170Y-112700186D01*
X155605562Y-112717601D01*
X155290403Y-112717601D01*
X155279727Y-112717527D01*
X155279721Y-112717526D01*
X155277671Y-112717512D01*
X155100324Y-112697619D01*
X154930218Y-112643658D01*
X154773832Y-112557685D01*
X154637124Y-112442973D01*
X154525301Y-112303893D01*
X154442621Y-112145741D01*
X154392235Y-111974542D01*
X154392232Y-111974511D01*
X154392228Y-111974497D01*
X154376059Y-111796821D01*
X154394708Y-111619383D01*
X154394709Y-111619378D01*
X154394714Y-111619335D01*
X154447486Y-111448857D01*
X154532366Y-111291875D01*
X154646120Y-111154370D01*
X154784417Y-111041578D01*
X154941987Y-110957796D01*
X155112830Y-110906216D01*
X155290438Y-110888801D01*
X155605597Y-110888801D01*
X155616273Y-110888875D01*
X155616273Y-110888875D01*
G37*
G36*
X146200963Y-108677821D02*
X146200968Y-108677823D01*
X146201010Y-108677827D01*
X146399902Y-108739394D01*
X146583047Y-108838421D01*
X146743470Y-108971134D01*
X146875060Y-109132480D01*
X146972806Y-109316312D01*
X147032983Y-109515629D01*
X147053300Y-109722838D01*
X147053300Y-109733196D01*
X147053211Y-109746001D01*
X147053210Y-109746007D01*
X147053196Y-109748057D01*
X147029988Y-109954962D01*
X146967034Y-110153419D01*
X146866731Y-110335869D01*
X146732901Y-110495361D01*
X146570640Y-110625822D01*
X146386130Y-110722282D01*
X146186398Y-110781066D01*
X146186362Y-110781069D01*
X146186353Y-110781072D01*
X145979055Y-110799938D01*
X145772037Y-110778179D01*
X145772032Y-110778177D01*
X145771990Y-110778173D01*
X145573098Y-110716606D01*
X145389953Y-110617579D01*
X145229530Y-110484866D01*
X145097940Y-110323520D01*
X145000194Y-110139688D01*
X144940017Y-109940371D01*
X144919700Y-109733162D01*
X144919700Y-109722804D01*
X144919789Y-109709999D01*
X144919790Y-109709993D01*
X144919804Y-109707943D01*
X144943012Y-109501038D01*
X145005966Y-109302581D01*
X145106269Y-109120131D01*
X145240099Y-108960639D01*
X145402360Y-108830178D01*
X145586870Y-108733718D01*
X145786602Y-108674934D01*
X145786638Y-108674931D01*
X145786647Y-108674928D01*
X145993945Y-108656062D01*
X146200963Y-108677821D01*
X146200963Y-108677821D01*
G37*
G36*
X144513300Y-110794800D02*
X142379700Y-110794800D01*
X142379700Y-108661200D01*
X144513300Y-108661200D01*
X144513300Y-110794800D01*
X144513300Y-110794800D01*
G37*
G36*
X133654800Y-110177601D02*
X131521200Y-110177601D01*
X131521200Y-108348801D01*
X133654800Y-108348801D01*
X133654800Y-110177601D01*
X133654800Y-110177601D01*
G37*
G36*
X156514800Y-110177601D02*
X154381200Y-110177601D01*
X154381200Y-108348801D01*
X156514800Y-108348801D01*
X156514800Y-110177601D01*
X156514800Y-110177601D01*
G37*
G36*
X145088800Y-104821800D02*
X144387200Y-104821800D01*
X144387200Y-104220200D01*
X145088800Y-104220200D01*
X145088800Y-104821800D01*
X145088800Y-104821800D01*
G37*
G36*
X146188800Y-104821800D02*
X145487200Y-104821800D01*
X145487200Y-104220200D01*
X146188800Y-104220200D01*
X146188800Y-104821800D01*
X146188800Y-104821800D01*
G37*
G36*
X132756273Y-102717674D02*
X132756279Y-102717675D01*
X132758329Y-102717689D01*
X132935676Y-102737582D01*
X133105782Y-102791543D01*
X133262168Y-102877516D01*
X133398876Y-102992228D01*
X133510699Y-103131308D01*
X133593379Y-103289460D01*
X133643765Y-103460659D01*
X133643768Y-103460690D01*
X133643772Y-103460704D01*
X133659941Y-103638380D01*
X133641292Y-103815818D01*
X133641291Y-103815823D01*
X133641286Y-103815866D01*
X133588514Y-103986344D01*
X133503634Y-104143326D01*
X133389880Y-104280831D01*
X133251583Y-104393623D01*
X133094013Y-104477405D01*
X132923170Y-104528985D01*
X132745562Y-104546400D01*
X132430403Y-104546400D01*
X132419727Y-104546326D01*
X132419721Y-104546325D01*
X132417671Y-104546311D01*
X132240324Y-104526418D01*
X132070218Y-104472457D01*
X131913832Y-104386484D01*
X131777124Y-104271772D01*
X131665301Y-104132692D01*
X131582621Y-103974540D01*
X131532235Y-103803341D01*
X131532232Y-103803310D01*
X131532228Y-103803296D01*
X131516059Y-103625620D01*
X131534708Y-103448182D01*
X131534709Y-103448177D01*
X131534714Y-103448134D01*
X131587486Y-103277656D01*
X131672366Y-103120674D01*
X131786120Y-102983169D01*
X131924417Y-102870377D01*
X132081987Y-102786595D01*
X132252830Y-102735015D01*
X132430438Y-102717600D01*
X132745597Y-102717600D01*
X132756273Y-102717674D01*
X132756273Y-102717674D01*
G37*
G36*
X155616273Y-102717674D02*
X155616279Y-102717675D01*
X155618329Y-102717689D01*
X155795676Y-102737582D01*
X155965782Y-102791543D01*
X156122168Y-102877516D01*
X156258876Y-102992228D01*
X156370699Y-103131308D01*
X156453379Y-103289460D01*
X156503765Y-103460659D01*
X156503768Y-103460690D01*
X156503772Y-103460704D01*
X156519941Y-103638380D01*
X156501292Y-103815818D01*
X156501291Y-103815823D01*
X156501286Y-103815866D01*
X156448514Y-103986344D01*
X156363634Y-104143326D01*
X156249880Y-104280831D01*
X156111583Y-104393623D01*
X155954013Y-104477405D01*
X155783170Y-104528985D01*
X155605562Y-104546400D01*
X155290403Y-104546400D01*
X155279727Y-104546326D01*
X155279721Y-104546325D01*
X155277671Y-104546311D01*
X155100324Y-104526418D01*
X154930218Y-104472457D01*
X154773832Y-104386484D01*
X154637124Y-104271772D01*
X154525301Y-104132692D01*
X154442621Y-103974540D01*
X154392235Y-103803341D01*
X154392232Y-103803310D01*
X154392228Y-103803296D01*
X154376059Y-103625620D01*
X154394708Y-103448182D01*
X154394709Y-103448177D01*
X154394714Y-103448134D01*
X154447486Y-103277656D01*
X154532366Y-103120674D01*
X154646120Y-102983169D01*
X154784417Y-102870377D01*
X154941987Y-102786595D01*
X155112830Y-102735015D01*
X155290438Y-102717600D01*
X155605597Y-102717600D01*
X155616273Y-102717674D01*
X155616273Y-102717674D01*
G37*
G36*
X145295800Y-100501400D02*
X145297811Y-100515553D01*
X145303686Y-100528584D01*
X145312958Y-100539464D01*
X145324894Y-100547329D01*
X145338549Y-100551558D01*
X145346600Y-100552200D01*
X145970800Y-100552200D01*
X145970800Y-102853800D01*
X145346600Y-102853800D01*
X145332447Y-102855811D01*
X145319416Y-102861686D01*
X145308536Y-102870958D01*
X145300671Y-102882894D01*
X145296442Y-102896549D01*
X145295800Y-102904600D01*
X145295800Y-103528800D01*
X142994200Y-103528800D01*
X142994200Y-102904600D01*
X142992189Y-102890447D01*
X142986314Y-102877416D01*
X142977042Y-102866536D01*
X142965106Y-102858671D01*
X142951451Y-102854442D01*
X142943400Y-102853800D01*
X142319200Y-102853800D01*
X142319200Y-100579600D01*
X142970800Y-100579600D01*
X142970800Y-102826400D01*
X142972811Y-102840553D01*
X142978686Y-102853584D01*
X142987958Y-102864464D01*
X142999894Y-102872329D01*
X143013549Y-102876558D01*
X143021600Y-102877200D01*
X145268400Y-102877200D01*
X145282553Y-102875189D01*
X145295584Y-102869314D01*
X145306464Y-102860042D01*
X145314329Y-102848106D01*
X145318558Y-102834451D01*
X145319200Y-102826400D01*
X145319200Y-100579600D01*
X145317189Y-100565447D01*
X145311314Y-100552416D01*
X145302042Y-100541536D01*
X145290106Y-100533671D01*
X145276451Y-100529442D01*
X145268400Y-100528800D01*
X143021600Y-100528800D01*
X143007447Y-100530811D01*
X142994416Y-100536686D01*
X142983536Y-100545958D01*
X142975671Y-100557894D01*
X142971442Y-100571549D01*
X142970800Y-100579600D01*
X142319200Y-100579600D01*
X142319200Y-100552200D01*
X142943400Y-100552200D01*
X142957553Y-100550189D01*
X142970584Y-100544314D01*
X142981464Y-100535042D01*
X142989329Y-100523106D01*
X142993558Y-100509451D01*
X142994200Y-100501400D01*
X142994200Y-99877200D01*
X145295800Y-99877200D01*
X145295800Y-100501400D01*
X145295800Y-100501400D01*
G37*
G36*
X147265200Y-103355600D02*
X146663600Y-103355600D01*
X146663600Y-102654000D01*
X147265200Y-102654000D01*
X147265200Y-103355600D01*
X147265200Y-103355600D01*
G37*
G36*
X141778800Y-102390400D02*
X141177200Y-102390400D01*
X141177200Y-101688800D01*
X141778800Y-101688800D01*
X141778800Y-102390400D01*
X141778800Y-102390400D01*
G37*
G36*
X147265200Y-102255600D02*
X146663600Y-102255600D01*
X146663600Y-101554000D01*
X147265200Y-101554000D01*
X147265200Y-102255600D01*
X147265200Y-102255600D01*
G37*
G36*
X132756273Y-100177674D02*
X132756279Y-100177675D01*
X132758329Y-100177689D01*
X132935676Y-100197582D01*
X133105782Y-100251543D01*
X133262168Y-100337516D01*
X133398876Y-100452228D01*
X133510699Y-100591308D01*
X133593379Y-100749460D01*
X133643765Y-100920659D01*
X133643768Y-100920690D01*
X133643772Y-100920704D01*
X133659941Y-101098380D01*
X133641292Y-101275818D01*
X133641291Y-101275823D01*
X133641286Y-101275866D01*
X133588514Y-101446344D01*
X133503634Y-101603326D01*
X133389880Y-101740831D01*
X133251583Y-101853623D01*
X133094013Y-101937405D01*
X132923170Y-101988985D01*
X132745562Y-102006400D01*
X132430403Y-102006400D01*
X132419727Y-102006326D01*
X132419721Y-102006325D01*
X132417671Y-102006311D01*
X132240324Y-101986418D01*
X132070218Y-101932457D01*
X131913832Y-101846484D01*
X131777124Y-101731772D01*
X131665301Y-101592692D01*
X131582621Y-101434540D01*
X131532235Y-101263341D01*
X131532232Y-101263310D01*
X131532228Y-101263296D01*
X131516059Y-101085620D01*
X131534708Y-100908182D01*
X131534709Y-100908177D01*
X131534714Y-100908134D01*
X131587486Y-100737656D01*
X131672366Y-100580674D01*
X131786120Y-100443169D01*
X131924417Y-100330377D01*
X132081987Y-100246595D01*
X132252830Y-100195015D01*
X132430438Y-100177600D01*
X132745597Y-100177600D01*
X132756273Y-100177674D01*
X132756273Y-100177674D01*
G37*
G36*
X155616273Y-100177674D02*
X155616279Y-100177675D01*
X155618329Y-100177689D01*
X155795676Y-100197582D01*
X155965782Y-100251543D01*
X156122168Y-100337516D01*
X156258876Y-100452228D01*
X156370699Y-100591308D01*
X156453379Y-100749460D01*
X156503765Y-100920659D01*
X156503768Y-100920690D01*
X156503772Y-100920704D01*
X156519941Y-101098380D01*
X156501292Y-101275818D01*
X156501291Y-101275823D01*
X156501286Y-101275866D01*
X156448514Y-101446344D01*
X156363634Y-101603326D01*
X156249880Y-101740831D01*
X156111583Y-101853623D01*
X155954013Y-101937405D01*
X155783170Y-101988985D01*
X155605562Y-102006400D01*
X155290403Y-102006400D01*
X155279727Y-102006326D01*
X155279721Y-102006325D01*
X155277671Y-102006311D01*
X155100324Y-101986418D01*
X154930218Y-101932457D01*
X154773832Y-101846484D01*
X154637124Y-101731772D01*
X154525301Y-101592692D01*
X154442621Y-101434540D01*
X154392235Y-101263341D01*
X154392232Y-101263310D01*
X154392228Y-101263296D01*
X154376059Y-101085620D01*
X154394708Y-100908182D01*
X154394709Y-100908177D01*
X154394714Y-100908134D01*
X154447486Y-100737656D01*
X154532366Y-100580674D01*
X154646120Y-100443169D01*
X154784417Y-100330377D01*
X154941987Y-100246595D01*
X155112830Y-100195015D01*
X155290438Y-100177600D01*
X155605597Y-100177600D01*
X155616273Y-100177674D01*
X155616273Y-100177674D01*
G37*
G36*
X141778800Y-101290400D02*
X141177200Y-101290400D01*
X141177200Y-100588800D01*
X141778800Y-100588800D01*
X141778800Y-101290400D01*
X141778800Y-101290400D01*
G37*
G36*
X155616273Y-97637674D02*
X155616279Y-97637675D01*
X155618329Y-97637689D01*
X155795676Y-97657582D01*
X155965782Y-97711543D01*
X156122168Y-97797516D01*
X156258876Y-97912228D01*
X156370699Y-98051308D01*
X156453379Y-98209460D01*
X156503765Y-98380659D01*
X156503768Y-98380690D01*
X156503772Y-98380704D01*
X156519941Y-98558380D01*
X156501292Y-98735818D01*
X156501291Y-98735823D01*
X156501286Y-98735866D01*
X156448514Y-98906344D01*
X156363634Y-99063326D01*
X156249880Y-99200831D01*
X156111583Y-99313623D01*
X155954013Y-99397405D01*
X155783170Y-99448985D01*
X155605562Y-99466400D01*
X155290403Y-99466400D01*
X155279727Y-99466326D01*
X155279721Y-99466325D01*
X155277671Y-99466311D01*
X155100324Y-99446418D01*
X154930218Y-99392457D01*
X154773832Y-99306484D01*
X154637124Y-99191772D01*
X154525301Y-99052692D01*
X154442621Y-98894540D01*
X154392235Y-98723341D01*
X154392232Y-98723310D01*
X154392228Y-98723296D01*
X154376059Y-98545620D01*
X154394708Y-98368182D01*
X154394709Y-98368177D01*
X154394714Y-98368134D01*
X154447486Y-98197656D01*
X154532366Y-98040674D01*
X154646120Y-97903169D01*
X154784417Y-97790377D01*
X154941987Y-97706595D01*
X155112830Y-97655015D01*
X155290438Y-97637600D01*
X155605597Y-97637600D01*
X155616273Y-97637674D01*
X155616273Y-97637674D01*
G37*
G36*
X132756273Y-97637674D02*
X132756279Y-97637675D01*
X132758329Y-97637689D01*
X132935676Y-97657582D01*
X133105782Y-97711543D01*
X133262168Y-97797516D01*
X133398876Y-97912228D01*
X133510699Y-98051308D01*
X133593379Y-98209460D01*
X133643765Y-98380659D01*
X133643768Y-98380690D01*
X133643772Y-98380704D01*
X133659941Y-98558380D01*
X133641292Y-98735818D01*
X133641291Y-98735823D01*
X133641286Y-98735866D01*
X133588514Y-98906344D01*
X133503634Y-99063326D01*
X133389880Y-99200831D01*
X133251583Y-99313623D01*
X133094013Y-99397405D01*
X132923170Y-99448985D01*
X132745562Y-99466400D01*
X132430403Y-99466400D01*
X132419727Y-99466326D01*
X132419721Y-99466325D01*
X132417671Y-99466311D01*
X132240324Y-99446418D01*
X132070218Y-99392457D01*
X131913832Y-99306484D01*
X131777124Y-99191772D01*
X131665301Y-99052692D01*
X131582621Y-98894540D01*
X131532235Y-98723341D01*
X131532232Y-98723310D01*
X131532228Y-98723296D01*
X131516059Y-98545620D01*
X131534708Y-98368182D01*
X131534709Y-98368177D01*
X131534714Y-98368134D01*
X131587486Y-98197656D01*
X131672366Y-98040674D01*
X131786120Y-97903169D01*
X131924417Y-97790377D01*
X132081987Y-97706595D01*
X132252830Y-97655015D01*
X132430438Y-97637600D01*
X132745597Y-97637600D01*
X132756273Y-97637674D01*
X132756273Y-97637674D01*
G37*
G36*
X155616273Y-95097674D02*
X155616279Y-95097675D01*
X155618329Y-95097689D01*
X155795676Y-95117582D01*
X155965782Y-95171543D01*
X156122168Y-95257516D01*
X156258876Y-95372228D01*
X156370699Y-95511308D01*
X156453379Y-95669460D01*
X156503765Y-95840659D01*
X156503768Y-95840690D01*
X156503772Y-95840704D01*
X156519941Y-96018380D01*
X156501292Y-96195818D01*
X156501291Y-96195823D01*
X156501286Y-96195866D01*
X156448514Y-96366344D01*
X156363634Y-96523326D01*
X156249880Y-96660831D01*
X156111583Y-96773623D01*
X155954013Y-96857405D01*
X155783170Y-96908985D01*
X155605562Y-96926400D01*
X155290403Y-96926400D01*
X155279727Y-96926326D01*
X155279721Y-96926325D01*
X155277671Y-96926311D01*
X155100324Y-96906418D01*
X154930218Y-96852457D01*
X154773832Y-96766484D01*
X154637124Y-96651772D01*
X154525301Y-96512692D01*
X154442621Y-96354540D01*
X154392235Y-96183341D01*
X154392232Y-96183310D01*
X154392228Y-96183296D01*
X154376059Y-96005620D01*
X154394708Y-95828182D01*
X154394709Y-95828177D01*
X154394714Y-95828134D01*
X154447486Y-95657656D01*
X154532366Y-95500674D01*
X154646120Y-95363169D01*
X154784417Y-95250377D01*
X154941987Y-95166595D01*
X155112830Y-95115015D01*
X155290438Y-95097600D01*
X155605597Y-95097600D01*
X155616273Y-95097674D01*
X155616273Y-95097674D01*
G37*
G36*
X132756273Y-95097674D02*
X132756279Y-95097675D01*
X132758329Y-95097689D01*
X132935676Y-95117582D01*
X133105782Y-95171543D01*
X133262168Y-95257516D01*
X133398876Y-95372228D01*
X133510699Y-95511308D01*
X133593379Y-95669460D01*
X133643765Y-95840659D01*
X133643768Y-95840690D01*
X133643772Y-95840704D01*
X133659941Y-96018380D01*
X133641292Y-96195818D01*
X133641291Y-96195823D01*
X133641286Y-96195866D01*
X133588514Y-96366344D01*
X133503634Y-96523326D01*
X133389880Y-96660831D01*
X133251583Y-96773623D01*
X133094013Y-96857405D01*
X132923170Y-96908985D01*
X132745562Y-96926400D01*
X132430403Y-96926400D01*
X132419727Y-96926326D01*
X132419721Y-96926325D01*
X132417671Y-96926311D01*
X132240324Y-96906418D01*
X132070218Y-96852457D01*
X131913832Y-96766484D01*
X131777124Y-96651772D01*
X131665301Y-96512692D01*
X131582621Y-96354540D01*
X131532235Y-96183341D01*
X131532232Y-96183310D01*
X131532228Y-96183296D01*
X131516059Y-96005620D01*
X131534708Y-95828182D01*
X131534709Y-95828177D01*
X131534714Y-95828134D01*
X131587486Y-95657656D01*
X131672366Y-95500674D01*
X131786120Y-95363169D01*
X131924417Y-95250377D01*
X132081987Y-95166595D01*
X132252830Y-95115015D01*
X132430438Y-95097600D01*
X132745597Y-95097600D01*
X132756273Y-95097674D01*
X132756273Y-95097674D01*
G37*
G36*
X145400863Y-92828221D02*
X145400868Y-92828223D01*
X145400910Y-92828227D01*
X145599802Y-92889794D01*
X145782947Y-92988821D01*
X145943370Y-93121534D01*
X146074960Y-93282880D01*
X146172706Y-93466712D01*
X146232883Y-93666029D01*
X146253200Y-93873238D01*
X146253200Y-93883596D01*
X146253111Y-93896401D01*
X146253110Y-93896407D01*
X146253096Y-93898457D01*
X146229888Y-94105362D01*
X146166934Y-94303819D01*
X146066631Y-94486269D01*
X145932801Y-94645761D01*
X145770540Y-94776222D01*
X145586030Y-94872682D01*
X145386298Y-94931466D01*
X145386262Y-94931469D01*
X145386253Y-94931472D01*
X145178955Y-94950338D01*
X144971937Y-94928579D01*
X144971932Y-94928577D01*
X144971890Y-94928573D01*
X144772998Y-94867006D01*
X144589853Y-94767979D01*
X144429430Y-94635266D01*
X144297840Y-94473920D01*
X144200094Y-94290088D01*
X144139917Y-94090771D01*
X144119600Y-93883562D01*
X144119600Y-93873204D01*
X144119689Y-93860399D01*
X144119690Y-93860393D01*
X144119704Y-93858343D01*
X144142912Y-93651438D01*
X144205866Y-93452981D01*
X144306169Y-93270531D01*
X144439999Y-93111039D01*
X144602260Y-92980578D01*
X144786770Y-92884118D01*
X144986502Y-92825334D01*
X144986538Y-92825331D01*
X144986547Y-92825328D01*
X145193845Y-92806462D01*
X145400863Y-92828221D01*
X145400863Y-92828221D01*
G37*
G36*
X143713200Y-94945200D02*
X141579600Y-94945200D01*
X141579600Y-92811600D01*
X143713200Y-92811600D01*
X143713200Y-94945200D01*
X143713200Y-94945200D01*
G37*
G36*
X133654800Y-94386400D02*
X131521200Y-94386400D01*
X131521200Y-92557600D01*
X133654800Y-92557600D01*
X133654800Y-94386400D01*
X133654800Y-94386400D01*
G37*
G36*
X156514800Y-94386400D02*
X154381200Y-94386400D01*
X154381200Y-92557600D01*
X156514800Y-92557600D01*
X156514800Y-94386400D01*
X156514800Y-94386400D01*
G37*
M02*
