%TF.GenerationSoftware,KiCad,Pcbnew,4.0.4+e1-6308~48~ubuntu16.04.1-stable*%
%TF.CreationDate,2017-01-02T12:50:36-08:00*%
%TF.ProjectId,mpu9250-breakout,6D7075393235302D627265616B6F7574,v1.0*%
%TF.FileFunction,Paste,Top*%
%FSLAX46Y46*%
G04 Gerber Fmt 4.6, Leading zero omitted, Abs format (unit mm)*
G04 Created by KiCad (PCBNEW 4.0.4+e1-6308~48~ubuntu16.04.1-stable) date Mon Jan  2 12:50:36 2017*
%MOMM*%
%LPD*%
G01*
G04 APERTURE LIST*
%ADD10C,0.350000*%
%ADD11R,0.397600X0.047600*%
%ADD12R,0.047600X0.397600*%
%ADD13R,0.347600X0.447600*%
%ADD14R,0.447600X0.347600*%
G04 APERTURE END LIST*
D10*
D11*
X143129000Y-115913000D03*
X143129000Y-116313000D03*
X143129000Y-116713000D03*
X143129000Y-117113000D03*
X143129000Y-117513000D03*
X143129000Y-117913000D03*
D12*
X143629000Y-118413000D03*
X144029000Y-118413000D03*
X144429000Y-118413000D03*
X144829000Y-118413000D03*
X145229000Y-118413000D03*
X145629000Y-118413000D03*
D11*
X146129000Y-117913000D03*
X146129000Y-117513000D03*
X146129000Y-117113000D03*
X146129000Y-116713000D03*
X146129000Y-116313000D03*
X146129000Y-115913000D03*
D12*
X145629000Y-115413000D03*
X145229000Y-115413000D03*
X144829000Y-115413000D03*
X144429000Y-115413000D03*
X144029000Y-115413000D03*
X143629000Y-115413000D03*
D13*
X141478000Y-100939600D03*
X141478000Y-102039600D03*
D14*
X144738000Y-104521000D03*
X145838000Y-104521000D03*
D13*
X146964400Y-103004800D03*
X146964400Y-101904800D03*
D11*
X142645000Y-100703000D03*
X142645000Y-101103000D03*
X142645000Y-101503000D03*
X142645000Y-101903000D03*
X142645000Y-102303000D03*
X142645000Y-102703000D03*
D12*
X143145000Y-103203000D03*
X143545000Y-103203000D03*
X143945000Y-103203000D03*
X144345000Y-103203000D03*
X144745000Y-103203000D03*
X145145000Y-103203000D03*
D11*
X145645000Y-102703000D03*
X145645000Y-102303000D03*
X145645000Y-101903000D03*
X145645000Y-101503000D03*
X145645000Y-101103000D03*
X145645000Y-100703000D03*
D12*
X145145000Y-100203000D03*
X144745000Y-100203000D03*
X144345000Y-100203000D03*
X143945000Y-100203000D03*
X143545000Y-100203000D03*
X143145000Y-100203000D03*
D13*
X141859000Y-115740000D03*
X141859000Y-116840000D03*
D14*
X145161000Y-119634000D03*
X146261000Y-119634000D03*
D13*
X147447000Y-118194000D03*
X147447000Y-117094000D03*
M02*
