%TF.GenerationSoftware,KiCad,Pcbnew,4.0.4+e1-6308~48~ubuntu16.04.1-stable*%
%TF.CreationDate,2017-01-04T16:55:51-08:00*%
%TF.ProjectId,sd-micro-pushpull-0475710001-breakout,73642D6D6963726F2D7075736870756C,v1.0*%
%TF.FileFunction,Legend,Top*%
%FSLAX46Y46*%
G04 Gerber Fmt 4.6, Leading zero omitted, Abs format (unit mm)*
G04 Created by KiCad (PCBNEW 4.0.4+e1-6308~48~ubuntu16.04.1-stable) date Wed Jan  4 16:55:51 2017*
%MOMM*%
%LPD*%
G01*
G04 APERTURE LIST*
%ADD10C,0.350000*%
%ADD11C,0.152400*%
%ADD12C,0.150000*%
%ADD13C,0.050000*%
%ADD14C,0.120000*%
G04 APERTURE END LIST*
D10*
D11*
X125512286Y-106123619D02*
X125850953Y-107139619D01*
X126189619Y-106123619D01*
X126528286Y-107139619D02*
X126528286Y-106123619D01*
X127012096Y-107139619D02*
X127012096Y-106123619D01*
X127592667Y-107139619D01*
X127592667Y-106123619D01*
X125657429Y-104599619D02*
X125657429Y-103583619D01*
X125996095Y-104309333D01*
X126334762Y-103583619D01*
X126334762Y-104599619D01*
X126818572Y-104599619D02*
X126818572Y-103583619D01*
X127254001Y-104551238D02*
X127399144Y-104599619D01*
X127641048Y-104599619D01*
X127737810Y-104551238D01*
X127786191Y-104502857D01*
X127834572Y-104406095D01*
X127834572Y-104309333D01*
X127786191Y-104212571D01*
X127737810Y-104164190D01*
X127641048Y-104115810D01*
X127447525Y-104067429D01*
X127350763Y-104019048D01*
X127302382Y-103970667D01*
X127254001Y-103873905D01*
X127254001Y-103777143D01*
X127302382Y-103680381D01*
X127350763Y-103632000D01*
X127447525Y-103583619D01*
X127689429Y-103583619D01*
X127834572Y-103632000D01*
X128463525Y-103583619D02*
X128657048Y-103583619D01*
X128753810Y-103632000D01*
X128850572Y-103728762D01*
X128898953Y-103922286D01*
X128898953Y-104260952D01*
X128850572Y-104454476D01*
X128753810Y-104551238D01*
X128657048Y-104599619D01*
X128463525Y-104599619D01*
X128366763Y-104551238D01*
X128270001Y-104454476D01*
X128221620Y-104260952D01*
X128221620Y-103922286D01*
X128270001Y-103728762D01*
X128366763Y-103632000D01*
X128463525Y-103583619D01*
X126238000Y-101962857D02*
X126189619Y-102011238D01*
X126044476Y-102059619D01*
X125947714Y-102059619D01*
X125802572Y-102011238D01*
X125705810Y-101914476D01*
X125657429Y-101817714D01*
X125609048Y-101624190D01*
X125609048Y-101479048D01*
X125657429Y-101285524D01*
X125705810Y-101188762D01*
X125802572Y-101092000D01*
X125947714Y-101043619D01*
X126044476Y-101043619D01*
X126189619Y-101092000D01*
X126238000Y-101140381D01*
X127157238Y-102059619D02*
X126673429Y-102059619D01*
X126673429Y-101043619D01*
X127495905Y-102059619D02*
X127495905Y-101043619D01*
X128076476Y-102059619D02*
X127641048Y-101479048D01*
X128076476Y-101043619D02*
X127495905Y-101624190D01*
X125657429Y-99519619D02*
X125657429Y-98503619D01*
X125996095Y-99229333D01*
X126334762Y-98503619D01*
X126334762Y-99519619D01*
X127012096Y-98503619D02*
X127205619Y-98503619D01*
X127302381Y-98552000D01*
X127399143Y-98648762D01*
X127447524Y-98842286D01*
X127447524Y-99180952D01*
X127399143Y-99374476D01*
X127302381Y-99471238D01*
X127205619Y-99519619D01*
X127012096Y-99519619D01*
X126915334Y-99471238D01*
X126818572Y-99374476D01*
X126770191Y-99180952D01*
X126770191Y-98842286D01*
X126818572Y-98648762D01*
X126915334Y-98552000D01*
X127012096Y-98503619D01*
X127834572Y-99471238D02*
X127979715Y-99519619D01*
X128221619Y-99519619D01*
X128318381Y-99471238D01*
X128366762Y-99422857D01*
X128415143Y-99326095D01*
X128415143Y-99229333D01*
X128366762Y-99132571D01*
X128318381Y-99084190D01*
X128221619Y-99035810D01*
X128028096Y-98987429D01*
X127931334Y-98939048D01*
X127882953Y-98890667D01*
X127834572Y-98793905D01*
X127834572Y-98697143D01*
X127882953Y-98600381D01*
X127931334Y-98552000D01*
X128028096Y-98503619D01*
X128270000Y-98503619D01*
X128415143Y-98552000D01*
X128850572Y-99519619D02*
X128850572Y-98503619D01*
X126238000Y-96882857D02*
X126189619Y-96931238D01*
X126044476Y-96979619D01*
X125947714Y-96979619D01*
X125802572Y-96931238D01*
X125705810Y-96834476D01*
X125657429Y-96737714D01*
X125609048Y-96544190D01*
X125609048Y-96399048D01*
X125657429Y-96205524D01*
X125705810Y-96108762D01*
X125802572Y-96012000D01*
X125947714Y-95963619D01*
X126044476Y-95963619D01*
X126189619Y-96012000D01*
X126238000Y-96060381D01*
X126625048Y-96931238D02*
X126770191Y-96979619D01*
X127012095Y-96979619D01*
X127108857Y-96931238D01*
X127157238Y-96882857D01*
X127205619Y-96786095D01*
X127205619Y-96689333D01*
X127157238Y-96592571D01*
X127108857Y-96544190D01*
X127012095Y-96495810D01*
X126818572Y-96447429D01*
X126721810Y-96399048D01*
X126673429Y-96350667D01*
X126625048Y-96253905D01*
X126625048Y-96157143D01*
X126673429Y-96060381D01*
X126721810Y-96012000D01*
X126818572Y-95963619D01*
X127060476Y-95963619D01*
X127205619Y-96012000D01*
X126189619Y-93472000D02*
X126092857Y-93423619D01*
X125947714Y-93423619D01*
X125802572Y-93472000D01*
X125705810Y-93568762D01*
X125657429Y-93665524D01*
X125609048Y-93859048D01*
X125609048Y-94004190D01*
X125657429Y-94197714D01*
X125705810Y-94294476D01*
X125802572Y-94391238D01*
X125947714Y-94439619D01*
X126044476Y-94439619D01*
X126189619Y-94391238D01*
X126238000Y-94342857D01*
X126238000Y-94004190D01*
X126044476Y-94004190D01*
X126673429Y-94439619D02*
X126673429Y-93423619D01*
X127254000Y-94439619D01*
X127254000Y-93423619D01*
X127737810Y-94439619D02*
X127737810Y-93423619D01*
X127979715Y-93423619D01*
X128124857Y-93472000D01*
X128221619Y-93568762D01*
X128270000Y-93665524D01*
X128318381Y-93859048D01*
X128318381Y-94004190D01*
X128270000Y-94197714D01*
X128221619Y-94294476D01*
X128124857Y-94391238D01*
X127979715Y-94439619D01*
X127737810Y-94439619D01*
X133731000Y-104775000D02*
X132461000Y-104775000D01*
X133731000Y-107505500D02*
X132461000Y-107505500D01*
D12*
X133731000Y-104775000D02*
X133731000Y-107505500D01*
X132461000Y-107505500D02*
X132461000Y-104775000D01*
D11*
X131965000Y-103505000D02*
X131965000Y-102235000D01*
X129234500Y-103505000D02*
X129234500Y-102235000D01*
D12*
X131965000Y-103505000D02*
X129234500Y-103505000D01*
X129234500Y-102235000D02*
X131965000Y-102235000D01*
D11*
X131965000Y-95885000D02*
X131965000Y-94615000D01*
X129234500Y-95885000D02*
X129234500Y-94615000D01*
D12*
X131965000Y-95885000D02*
X129234500Y-95885000D01*
X129234500Y-94615000D02*
X131965000Y-94615000D01*
D11*
X138811000Y-104787000D02*
X137541000Y-104787000D01*
X138811000Y-107517500D02*
X137541000Y-107517500D01*
D12*
X138811000Y-104787000D02*
X138811000Y-107517500D01*
X137541000Y-107517500D02*
X137541000Y-104787000D01*
X122428000Y-105410000D02*
X122428000Y-92710000D01*
X122428000Y-92710000D02*
X124968000Y-92710000D01*
X124968000Y-92710000D02*
X124968000Y-105410000D01*
X122148000Y-108230000D02*
X122148000Y-106680000D01*
X122428000Y-105410000D02*
X124968000Y-105410000D01*
X125248000Y-106680000D02*
X125248000Y-108230000D01*
X125248000Y-108230000D02*
X122148000Y-108230000D01*
D13*
X140696000Y-106351400D02*
X140696000Y-94351400D01*
X146446000Y-106351400D02*
X140696000Y-106351400D01*
X146446000Y-94351400D02*
X146446000Y-106351400D01*
X140696000Y-94351400D02*
X146446000Y-94351400D01*
D14*
X136336000Y-105378000D02*
X134436000Y-105378000D01*
X134936000Y-107698000D02*
X136336000Y-107698000D01*
D12*
X134229000Y-103510000D02*
X134229000Y-103395000D01*
X134229000Y-94610000D02*
X134229000Y-94725000D01*
X138379000Y-94610000D02*
X138379000Y-94725000D01*
X138379000Y-103510000D02*
X134229000Y-103510000D01*
X138379000Y-94610000D02*
X134229000Y-94610000D01*
X138379000Y-103510000D02*
X139754000Y-103510000D01*
X131929143Y-106592666D02*
X131976762Y-106640285D01*
X132024381Y-106783142D01*
X132024381Y-106878380D01*
X131976762Y-107021238D01*
X131881524Y-107116476D01*
X131786286Y-107164095D01*
X131595810Y-107211714D01*
X131452952Y-107211714D01*
X131262476Y-107164095D01*
X131167238Y-107116476D01*
X131072000Y-107021238D01*
X131024381Y-106878380D01*
X131024381Y-106783142D01*
X131072000Y-106640285D01*
X131119619Y-106592666D01*
X132024381Y-105640285D02*
X132024381Y-106211714D01*
X132024381Y-105926000D02*
X131024381Y-105926000D01*
X131167238Y-106021238D01*
X131262476Y-106116476D01*
X131310095Y-106211714D01*
X130389334Y-101703143D02*
X130341715Y-101750762D01*
X130198858Y-101798381D01*
X130103620Y-101798381D01*
X129960762Y-101750762D01*
X129865524Y-101655524D01*
X129817905Y-101560286D01*
X129770286Y-101369810D01*
X129770286Y-101226952D01*
X129817905Y-101036476D01*
X129865524Y-100941238D01*
X129960762Y-100846000D01*
X130103620Y-100798381D01*
X130198858Y-100798381D01*
X130341715Y-100846000D01*
X130389334Y-100893619D01*
X130770286Y-100893619D02*
X130817905Y-100846000D01*
X130913143Y-100798381D01*
X131151239Y-100798381D01*
X131246477Y-100846000D01*
X131294096Y-100893619D01*
X131341715Y-100988857D01*
X131341715Y-101084095D01*
X131294096Y-101226952D01*
X130722667Y-101798381D01*
X131341715Y-101798381D01*
X130413334Y-97385143D02*
X130365715Y-97432762D01*
X130222858Y-97480381D01*
X130127620Y-97480381D01*
X129984762Y-97432762D01*
X129889524Y-97337524D01*
X129841905Y-97242286D01*
X129794286Y-97051810D01*
X129794286Y-96908952D01*
X129841905Y-96718476D01*
X129889524Y-96623238D01*
X129984762Y-96528000D01*
X130127620Y-96480381D01*
X130222858Y-96480381D01*
X130365715Y-96528000D01*
X130413334Y-96575619D01*
X130746667Y-96480381D02*
X131365715Y-96480381D01*
X131032381Y-96861333D01*
X131175239Y-96861333D01*
X131270477Y-96908952D01*
X131318096Y-96956571D01*
X131365715Y-97051810D01*
X131365715Y-97289905D01*
X131318096Y-97385143D01*
X131270477Y-97432762D01*
X131175239Y-97480381D01*
X130889524Y-97480381D01*
X130794286Y-97432762D01*
X130746667Y-97385143D01*
X140057143Y-106592666D02*
X140104762Y-106640285D01*
X140152381Y-106783142D01*
X140152381Y-106878380D01*
X140104762Y-107021238D01*
X140009524Y-107116476D01*
X139914286Y-107164095D01*
X139723810Y-107211714D01*
X139580952Y-107211714D01*
X139390476Y-107164095D01*
X139295238Y-107116476D01*
X139200000Y-107021238D01*
X139152381Y-106878380D01*
X139152381Y-106783142D01*
X139200000Y-106640285D01*
X139247619Y-106592666D01*
X139485714Y-105735523D02*
X140152381Y-105735523D01*
X139104762Y-105973619D02*
X139819048Y-106211714D01*
X139819048Y-105592666D01*
X140890667Y-92924381D02*
X140890667Y-93638667D01*
X140843047Y-93781524D01*
X140747809Y-93876762D01*
X140604952Y-93924381D01*
X140509714Y-93924381D01*
X141319238Y-93019619D02*
X141366857Y-92972000D01*
X141462095Y-92924381D01*
X141700191Y-92924381D01*
X141795429Y-92972000D01*
X141843048Y-93019619D01*
X141890667Y-93114857D01*
X141890667Y-93210095D01*
X141843048Y-93352952D01*
X141271619Y-93924381D01*
X141890667Y-93924381D01*
X134620095Y-104100381D02*
X134620095Y-104909905D01*
X134667714Y-105005143D01*
X134715333Y-105052762D01*
X134810571Y-105100381D01*
X135001048Y-105100381D01*
X135096286Y-105052762D01*
X135143905Y-105005143D01*
X135191524Y-104909905D01*
X135191524Y-104100381D01*
X136191524Y-105100381D02*
X135620095Y-105100381D01*
X135905809Y-105100381D02*
X135905809Y-104100381D01*
X135810571Y-104243238D01*
X135715333Y-104338476D01*
X135620095Y-104386095D01*
X136652095Y-93178381D02*
X136652095Y-93987905D01*
X136699714Y-94083143D01*
X136747333Y-94130762D01*
X136842571Y-94178381D01*
X137033048Y-94178381D01*
X137128286Y-94130762D01*
X137175905Y-94083143D01*
X137223524Y-93987905D01*
X137223524Y-93178381D01*
X137652095Y-93273619D02*
X137699714Y-93226000D01*
X137794952Y-93178381D01*
X138033048Y-93178381D01*
X138128286Y-93226000D01*
X138175905Y-93273619D01*
X138223524Y-93368857D01*
X138223524Y-93464095D01*
X138175905Y-93606952D01*
X137604476Y-94178381D01*
X138223524Y-94178381D01*
M02*
