%TF.GenerationSoftware,KiCad,Pcbnew,4.0.4+e1-6308~48~ubuntu16.04.1-stable*%
%TF.CreationDate,2017-01-04T16:55:51-08:00*%
%TF.ProjectId,sd-micro-pushpull-0475710001-breakout,73642D6D6963726F2D7075736870756C,v1.0*%
%TF.FileFunction,Paste,Top*%
%FSLAX46Y46*%
G04 Gerber Fmt 4.6, Leading zero omitted, Abs format (unit mm)*
G04 Created by KiCad (PCBNEW 4.0.4+e1-6308~48~ubuntu16.04.1-stable) date Wed Jan  4 16:55:51 2017*
%MOMM*%
%LPD*%
G01*
G04 APERTURE LIST*
%ADD10C,0.350000*%
%ADD11R,0.597600X0.647600*%
%ADD12R,0.647600X0.597600*%
%ADD13R,0.747600X1.247600*%
%ADD14R,0.997600X1.047600*%
%ADD15R,1.047600X1.297600*%
%ADD16R,0.847600X0.547600*%
%ADD17R,0.547600X0.847600*%
%ADD18R,0.447600X0.267600*%
%ADD19R,1.347600X0.447600*%
G04 APERTURE END LIST*
D10*
D11*
X133096000Y-105422000D03*
X133096000Y-106922000D03*
D12*
X131318000Y-102870000D03*
X129818000Y-102870000D03*
X131318000Y-95250000D03*
X129818000Y-95250000D03*
D11*
X138176000Y-105434000D03*
X138176000Y-106934000D03*
D13*
X145796000Y-95250000D03*
D14*
X145659500Y-105514900D03*
D15*
X143496000Y-95275000D03*
D14*
X143059500Y-105514900D03*
D16*
X142019500Y-102914900D03*
X142019500Y-104014900D03*
X142019500Y-101814900D03*
X142019500Y-100714900D03*
X142019500Y-99614900D03*
X142019500Y-96314900D03*
X142019500Y-97414900D03*
X142019500Y-98514900D03*
D17*
X144646000Y-95050000D03*
D18*
X134686000Y-105888000D03*
X134686000Y-107188000D03*
X136586000Y-105888000D03*
X134686000Y-106538000D03*
X136586000Y-107188000D03*
D19*
X139004000Y-102870000D03*
X139004000Y-101600000D03*
X139004000Y-100330000D03*
X139004000Y-99060000D03*
X139004000Y-97790000D03*
X139004000Y-96520000D03*
X139004000Y-95250000D03*
X133604000Y-95250000D03*
X133604000Y-96520000D03*
X133604000Y-97790000D03*
X133604000Y-99060000D03*
X133604000Y-100330000D03*
X133604000Y-101600000D03*
X133604000Y-102870000D03*
M02*
