%TF.GenerationSoftware,KiCad,Pcbnew,4.0.4+e1-6308~48~ubuntu16.04.1-stable*%
%TF.CreationDate,2016-12-31T16:39:50-08:00*%
%TF.ProjectId,usb-breakout,7573622D627265616B6F75742E6B6963,v1.1*%
%TF.FileFunction,Copper,L1,Top,Signal*%
%FSLAX46Y46*%
G04 Gerber Fmt 4.6, Leading zero omitted, Abs format (unit mm)*
G04 Created by KiCad (PCBNEW 4.0.4+e1-6308~48~ubuntu16.04.1-stable) date Sat Dec 31 16:39:50 2016*
%MOMM*%
%LPD*%
G01*
G04 APERTURE LIST*
%ADD10C,0.350000*%
%ADD11R,2.000000X2.000000*%
%ADD12C,2.000000*%
%ADD13C,1.998980*%
%ADD14R,1.998980X1.998980*%
%ADD15C,1.700000*%
%ADD16R,2.032000X1.727200*%
%ADD17O,2.032000X1.727200*%
%ADD18R,1.350000X0.400000*%
%ADD19R,1.400000X1.600000*%
%ADD20C,1.200000*%
%ADD21R,1.900000X1.900000*%
%ADD22C,0.254000*%
%ADD23C,0.508000*%
%ADD24C,0.330200*%
%ADD25C,0.350000*%
G04 APERTURE END LIST*
D10*
D11*
X110490000Y-97155000D03*
D12*
X110490000Y-102155000D03*
D13*
X125641100Y-105295700D03*
D14*
X115481100Y-105295700D03*
D13*
X125641100Y-93345000D03*
D14*
X115481100Y-93345000D03*
D15*
X137325100Y-105460300D03*
X131325100Y-105460300D03*
X137325100Y-101460300D03*
X131325100Y-101460300D03*
D13*
X116078000Y-101092000D03*
X125078000Y-101092000D03*
X116095000Y-97536000D03*
X125095000Y-97536000D03*
X138794000Y-93980000D03*
X129794000Y-93980000D03*
D16*
X144653000Y-93789500D03*
D17*
X144653000Y-96329500D03*
X144653000Y-98869500D03*
X144653000Y-101409500D03*
X144653000Y-103949500D03*
D18*
X106295400Y-97962800D03*
X106295400Y-98612800D03*
X106295400Y-99261900D03*
X106295400Y-99912800D03*
X106295400Y-100562800D03*
D19*
X106070400Y-96062800D03*
D20*
X103620400Y-95712800D03*
D21*
X103620400Y-98062800D03*
X103620400Y-100462800D03*
D19*
X106070400Y-102462800D03*
D20*
X103620400Y-102812800D03*
D22*
X106295400Y-100562800D02*
X108182800Y-100562800D01*
X108182800Y-100562800D02*
X109775000Y-102155000D01*
X109775000Y-102155000D02*
X110490000Y-102155000D01*
D23*
X129794000Y-93980000D02*
X128706100Y-93980000D01*
D24*
X116095000Y-95504000D02*
X116095000Y-93958900D01*
X116095000Y-97536000D02*
X116095000Y-95504000D01*
X116095000Y-95504000D02*
X127182100Y-95504000D01*
X127182100Y-95504000D02*
X128706100Y-93980000D01*
X116095000Y-93958900D02*
X115481100Y-93345000D01*
X106295400Y-98612800D02*
X115018200Y-98612800D01*
X115018200Y-98612800D02*
X116095000Y-97536000D01*
X115252500Y-92999560D02*
X115481100Y-92770960D01*
X115481100Y-105295700D02*
X115481100Y-101688900D01*
X115481100Y-101688900D02*
X116078000Y-101092000D01*
X106295400Y-99261900D02*
X114247900Y-99261900D01*
X114247900Y-99261900D02*
X116078000Y-101092000D01*
X115252500Y-105067100D02*
X115481100Y-105295700D01*
D23*
X144653000Y-93789500D02*
X138984500Y-93789500D01*
X138984500Y-93789500D02*
X138794000Y-93980000D01*
D22*
X107777200Y-97962800D02*
X108585000Y-97155000D01*
X108585000Y-97155000D02*
X110490000Y-97155000D01*
D24*
X144462500Y-93980000D02*
X144653000Y-93789500D01*
D22*
X107777200Y-97962800D02*
X107300600Y-97962800D01*
D24*
X106295400Y-97962800D02*
X107300600Y-97962800D01*
X125095000Y-97536000D02*
X143294100Y-97536000D01*
X143294100Y-97536000D02*
X144500600Y-96329500D01*
X144500600Y-96329500D02*
X144653000Y-96329500D01*
X144653000Y-98869500D02*
X143827500Y-98869500D01*
X143827500Y-98869500D02*
X143510000Y-98552000D01*
X143510000Y-98552000D02*
X127618000Y-98552000D01*
X127618000Y-98552000D02*
X125078000Y-101092000D01*
X137325100Y-101460300D02*
X144602200Y-101460300D01*
X144602200Y-101460300D02*
X144653000Y-101409500D01*
X131325100Y-101460300D02*
X137325100Y-101460300D01*
D25*
X110490000Y-97155000D03*
X110490000Y-102155000D03*
X125641100Y-105295700D03*
X115481100Y-105295700D03*
X125641100Y-93345000D03*
X115481100Y-93345000D03*
X137325100Y-105460300D03*
X131325100Y-105460300D03*
X137325100Y-101460300D03*
X131325100Y-101460300D03*
X116078000Y-101092000D03*
X125078000Y-101092000D03*
X116095000Y-97536000D03*
X125095000Y-97536000D03*
X138794000Y-93980000D03*
X129794000Y-93980000D03*
X144653000Y-93789500D03*
X144653000Y-96329500D03*
X144653000Y-98869500D03*
X144653000Y-101409500D03*
X144653000Y-103949500D03*
X103620400Y-95712800D03*
X103620400Y-102812800D03*
M02*
