M48
;DRILL file {KiCad 4.0.4+e1-6308~48~ubuntu14.04.1-stable} date Mon Nov 21 12:40:55 2016
;FORMAT={-:-/ absolute / metric / decimal}
FMAT,2
METRIC,TZ
T1C0.406
T2C1.000
T3C1.001
T4C1.016
T5C1.200
T6C1.270
%
G90
G05
M71
T1
X112.395Y-100.965
X113.03Y-96.043
T2
X131.325Y-101.46
X131.325Y-105.46
X137.325Y-101.46
X137.325Y-105.46
T3
X115.252Y-97.066
X115.252Y-100.927
X115.481Y-93.345
X115.481Y-105.296
X122.872Y-97.066
X122.872Y-100.927
X130.086Y-93.98
X137.706Y-93.98
T4
X144.653Y-93.789
X144.653Y-96.329
X144.653Y-98.87
X144.653Y-101.409
X144.653Y-103.95
T5
X107.43Y-95.713
X107.43Y-102.813
T6
X125.641Y-93.345
X125.641Y-105.296
T0
M30
