%TF.GenerationSoftware,KiCad,Pcbnew,4.0.4+e1-6308~48~ubuntu16.04.1-stable*%
%TF.CreationDate,2016-12-31T16:39:50-08:00*%
%TF.ProjectId,usb-breakout,7573622D627265616B6F75742E6B6963,v1.1*%
%TF.FileFunction,Soldermask,Bot*%
%FSLAX46Y46*%
G04 Gerber Fmt 4.6, Leading zero omitted, Abs format (unit mm)*
G04 Created by KiCad (PCBNEW 4.0.4+e1-6308~48~ubuntu16.04.1-stable) date Sat Dec 31 16:39:50 2016*
%MOMM*%
%LPD*%
G01*
G04 APERTURE LIST*
%ADD10C,0.350000*%
G04 APERTURE END LIST*
D10*
G36*
X131422386Y-104534715D02*
X131600307Y-104571237D01*
X131767758Y-104641627D01*
X131918341Y-104743197D01*
X132046329Y-104872081D01*
X132146843Y-105023369D01*
X132216062Y-105191305D01*
X132251272Y-105369127D01*
X132251272Y-105369142D01*
X132251339Y-105369481D01*
X132248442Y-105576945D01*
X132248366Y-105577279D01*
X132248366Y-105577292D01*
X132208202Y-105754072D01*
X132134326Y-105920002D01*
X132029623Y-106068427D01*
X131898085Y-106193688D01*
X131744723Y-106291016D01*
X131575379Y-106356700D01*
X131396503Y-106388241D01*
X131214904Y-106384436D01*
X131037502Y-106345432D01*
X130871055Y-106272713D01*
X130721907Y-106169053D01*
X130595731Y-106038394D01*
X130497336Y-105885713D01*
X130430468Y-105716827D01*
X130397681Y-105538180D01*
X130400216Y-105356559D01*
X130437982Y-105178888D01*
X130509535Y-105011940D01*
X130612155Y-104862068D01*
X130741929Y-104734984D01*
X130893919Y-104635525D01*
X131062331Y-104567482D01*
X131240748Y-104533447D01*
X131422386Y-104534715D01*
X131422386Y-104534715D01*
G37*
G36*
X137422386Y-104534715D02*
X137600307Y-104571237D01*
X137767758Y-104641627D01*
X137918341Y-104743197D01*
X138046329Y-104872081D01*
X138146843Y-105023369D01*
X138216062Y-105191305D01*
X138251272Y-105369127D01*
X138251272Y-105369142D01*
X138251339Y-105369481D01*
X138248442Y-105576945D01*
X138248366Y-105577279D01*
X138248366Y-105577292D01*
X138208202Y-105754072D01*
X138134326Y-105920002D01*
X138029623Y-106068427D01*
X137898085Y-106193688D01*
X137744723Y-106291016D01*
X137575379Y-106356700D01*
X137396503Y-106388241D01*
X137214904Y-106384436D01*
X137037502Y-106345432D01*
X136871055Y-106272713D01*
X136721907Y-106169053D01*
X136595731Y-106038394D01*
X136497336Y-105885713D01*
X136430468Y-105716827D01*
X136397681Y-105538180D01*
X136400216Y-105356559D01*
X136437982Y-105178888D01*
X136509535Y-105011940D01*
X136612155Y-104862068D01*
X136741929Y-104734984D01*
X136893919Y-104635525D01*
X137062331Y-104567482D01*
X137240748Y-104533447D01*
X137422386Y-104534715D01*
X137422386Y-104534715D01*
G37*
G36*
X125754088Y-104220724D02*
X125960726Y-104263141D01*
X126155204Y-104344892D01*
X126330091Y-104462855D01*
X126478736Y-104612541D01*
X126595475Y-104788248D01*
X126675863Y-104983284D01*
X126716769Y-105189874D01*
X126716769Y-105189884D01*
X126716836Y-105190223D01*
X126713472Y-105431172D01*
X126713395Y-105431510D01*
X126713395Y-105431519D01*
X126666737Y-105636887D01*
X126580936Y-105829599D01*
X126459334Y-106001980D01*
X126306566Y-106147459D01*
X126128453Y-106260493D01*
X125931772Y-106336780D01*
X125724027Y-106373412D01*
X125513117Y-106368993D01*
X125307084Y-106323695D01*
X125113772Y-106239238D01*
X124940551Y-106118846D01*
X124794009Y-105967099D01*
X124679733Y-105789776D01*
X124602073Y-105593631D01*
X124563993Y-105386149D01*
X124566938Y-105175215D01*
X124610799Y-104968868D01*
X124693902Y-104774974D01*
X124813085Y-104600912D01*
X124963804Y-104453316D01*
X125140325Y-104337805D01*
X125335919Y-104258779D01*
X125543133Y-104219252D01*
X125754088Y-104220724D01*
X125754088Y-104220724D01*
G37*
G36*
X116556790Y-106371390D02*
X114405410Y-106371390D01*
X114405410Y-104220010D01*
X116556790Y-104220010D01*
X116556790Y-106371390D01*
X116556790Y-106371390D01*
G37*
G36*
X144821749Y-103009777D02*
X144821754Y-103009778D01*
X144823807Y-103009792D01*
X145006080Y-103030237D01*
X145180912Y-103085697D01*
X145341641Y-103174058D01*
X145482146Y-103291956D01*
X145597076Y-103434900D01*
X145682052Y-103597445D01*
X145733839Y-103773399D01*
X145733843Y-103773440D01*
X145733844Y-103773444D01*
X145750463Y-103956058D01*
X145732648Y-104125556D01*
X145731290Y-104138473D01*
X145677052Y-104313687D01*
X145589815Y-104475029D01*
X145472900Y-104616355D01*
X145330762Y-104732279D01*
X145168815Y-104818388D01*
X144993226Y-104871402D01*
X144810685Y-104889300D01*
X144495283Y-104889300D01*
X144484251Y-104889223D01*
X144484246Y-104889222D01*
X144482193Y-104889208D01*
X144299920Y-104868763D01*
X144125088Y-104813303D01*
X143964359Y-104724942D01*
X143823854Y-104607044D01*
X143708924Y-104464100D01*
X143623948Y-104301555D01*
X143572161Y-104125601D01*
X143572157Y-104125560D01*
X143572156Y-104125556D01*
X143555537Y-103942942D01*
X143574705Y-103760574D01*
X143574710Y-103760527D01*
X143628948Y-103585313D01*
X143716185Y-103423971D01*
X143833100Y-103282645D01*
X143975238Y-103166721D01*
X144137185Y-103080612D01*
X144312774Y-103027598D01*
X144495315Y-103009700D01*
X144810717Y-103009700D01*
X144821749Y-103009777D01*
X144821749Y-103009777D01*
G37*
G36*
X103691428Y-102137048D02*
X103821322Y-102163712D01*
X103943577Y-102215103D01*
X104053515Y-102289257D01*
X104146952Y-102383349D01*
X104220341Y-102493808D01*
X104270875Y-102616412D01*
X104296562Y-102746141D01*
X104296562Y-102746156D01*
X104296629Y-102746495D01*
X104294514Y-102897960D01*
X104294438Y-102898294D01*
X104294438Y-102898307D01*
X104265136Y-103027278D01*
X104211201Y-103148419D01*
X104134759Y-103256782D01*
X104038726Y-103348233D01*
X103926760Y-103419289D01*
X103803122Y-103467245D01*
X103672531Y-103490272D01*
X103539947Y-103487494D01*
X103410431Y-103459019D01*
X103288910Y-103405927D01*
X103180021Y-103330247D01*
X103087902Y-103234856D01*
X103016065Y-103123386D01*
X102967246Y-103000084D01*
X102943309Y-102869659D01*
X102945160Y-102737061D01*
X102972732Y-102607346D01*
X103024971Y-102485461D01*
X103099893Y-102376042D01*
X103194641Y-102283258D01*
X103305599Y-102210648D01*
X103428557Y-102160970D01*
X103558815Y-102136123D01*
X103691428Y-102137048D01*
X103691428Y-102137048D01*
G37*
G36*
X110603042Y-101079515D02*
X110809777Y-101121952D01*
X111004347Y-101203741D01*
X111179318Y-101321761D01*
X111328033Y-101471518D01*
X111444827Y-101647308D01*
X111525253Y-101842436D01*
X111566178Y-102049124D01*
X111566178Y-102049129D01*
X111566246Y-102049473D01*
X111562880Y-102290536D01*
X111562803Y-102290874D01*
X111562803Y-102290883D01*
X111516122Y-102496349D01*
X111430281Y-102689152D01*
X111308621Y-102861615D01*
X111155782Y-103007162D01*
X110977584Y-103120250D01*
X110780810Y-103196573D01*
X110572967Y-103233222D01*
X110361957Y-103228802D01*
X110155825Y-103183481D01*
X109962422Y-103098985D01*
X109789119Y-102978536D01*
X109642508Y-102826717D01*
X109528178Y-102649310D01*
X109450481Y-102453072D01*
X109412384Y-102245492D01*
X109415330Y-102034458D01*
X109459211Y-101828013D01*
X109542353Y-101634028D01*
X109661593Y-101459883D01*
X109812384Y-101312217D01*
X109988988Y-101196651D01*
X110184675Y-101117588D01*
X110391987Y-101078042D01*
X110603042Y-101079515D01*
X110603042Y-101079515D01*
G37*
G36*
X131422386Y-100534715D02*
X131600307Y-100571237D01*
X131767758Y-100641627D01*
X131918341Y-100743197D01*
X132046329Y-100872081D01*
X132146843Y-101023369D01*
X132216062Y-101191305D01*
X132251272Y-101369127D01*
X132251272Y-101369142D01*
X132251339Y-101369481D01*
X132248442Y-101576945D01*
X132248366Y-101577279D01*
X132248366Y-101577292D01*
X132208202Y-101754072D01*
X132134326Y-101920002D01*
X132029623Y-102068427D01*
X131898085Y-102193688D01*
X131744723Y-102291016D01*
X131575379Y-102356700D01*
X131396503Y-102388241D01*
X131214904Y-102384436D01*
X131037502Y-102345432D01*
X130871055Y-102272713D01*
X130721907Y-102169053D01*
X130595731Y-102038394D01*
X130497336Y-101885713D01*
X130430468Y-101716827D01*
X130397681Y-101538180D01*
X130400216Y-101356559D01*
X130437982Y-101178888D01*
X130509535Y-101011940D01*
X130612155Y-100862068D01*
X130741929Y-100734984D01*
X130893919Y-100635525D01*
X131062331Y-100567482D01*
X131240748Y-100533447D01*
X131422386Y-100534715D01*
X131422386Y-100534715D01*
G37*
G36*
X137422386Y-100534715D02*
X137600307Y-100571237D01*
X137767758Y-100641627D01*
X137918341Y-100743197D01*
X138046329Y-100872081D01*
X138146843Y-101023369D01*
X138216062Y-101191305D01*
X138251272Y-101369127D01*
X138251272Y-101369142D01*
X138251339Y-101369481D01*
X138248442Y-101576945D01*
X138248366Y-101577279D01*
X138248366Y-101577292D01*
X138208202Y-101754072D01*
X138134326Y-101920002D01*
X138029623Y-102068427D01*
X137898085Y-102193688D01*
X137744723Y-102291016D01*
X137575379Y-102356700D01*
X137396503Y-102388241D01*
X137214904Y-102384436D01*
X137037502Y-102345432D01*
X136871055Y-102272713D01*
X136721907Y-102169053D01*
X136595731Y-102038394D01*
X136497336Y-101885713D01*
X136430468Y-101716827D01*
X136397681Y-101538180D01*
X136400216Y-101356559D01*
X136437982Y-101178888D01*
X136509535Y-101011940D01*
X136612155Y-100862068D01*
X136741929Y-100734984D01*
X136893919Y-100635525D01*
X137062331Y-100567482D01*
X137240748Y-100533447D01*
X137422386Y-100534715D01*
X137422386Y-100534715D01*
G37*
G36*
X144821749Y-100469777D02*
X144821754Y-100469778D01*
X144823807Y-100469792D01*
X145006080Y-100490237D01*
X145180912Y-100545697D01*
X145341641Y-100634058D01*
X145482146Y-100751956D01*
X145597076Y-100894900D01*
X145682052Y-101057445D01*
X145733839Y-101233399D01*
X145733843Y-101233440D01*
X145733844Y-101233444D01*
X145750463Y-101416058D01*
X145737627Y-101538180D01*
X145731290Y-101598473D01*
X145677052Y-101773687D01*
X145589815Y-101935029D01*
X145472900Y-102076355D01*
X145330762Y-102192279D01*
X145168815Y-102278388D01*
X144993226Y-102331402D01*
X144810685Y-102349300D01*
X144495283Y-102349300D01*
X144484251Y-102349223D01*
X144484246Y-102349222D01*
X144482193Y-102349208D01*
X144299920Y-102328763D01*
X144125088Y-102273303D01*
X143964359Y-102184942D01*
X143823854Y-102067044D01*
X143708924Y-101924100D01*
X143623948Y-101761555D01*
X143572161Y-101585601D01*
X143572157Y-101585560D01*
X143572156Y-101585556D01*
X143555537Y-101402942D01*
X143574705Y-101220574D01*
X143574710Y-101220527D01*
X143628948Y-101045313D01*
X143716185Y-100883971D01*
X143833100Y-100742645D01*
X143975238Y-100626721D01*
X144137185Y-100540612D01*
X144312774Y-100487598D01*
X144495315Y-100469700D01*
X144810717Y-100469700D01*
X144821749Y-100469777D01*
X144821749Y-100469777D01*
G37*
G36*
X116190988Y-100017024D02*
X116397626Y-100059441D01*
X116592104Y-100141192D01*
X116766991Y-100259155D01*
X116915636Y-100408841D01*
X117032375Y-100584548D01*
X117112763Y-100779584D01*
X117153669Y-100986174D01*
X117153669Y-100986184D01*
X117153736Y-100986523D01*
X117150372Y-101227472D01*
X117150295Y-101227810D01*
X117150295Y-101227819D01*
X117103637Y-101433187D01*
X117017836Y-101625899D01*
X116896234Y-101798280D01*
X116743466Y-101943759D01*
X116565353Y-102056793D01*
X116368672Y-102133080D01*
X116160927Y-102169712D01*
X115950017Y-102165293D01*
X115743984Y-102119995D01*
X115550672Y-102035538D01*
X115377451Y-101915146D01*
X115230909Y-101763399D01*
X115116633Y-101586076D01*
X115038973Y-101389931D01*
X115000893Y-101182449D01*
X115003838Y-100971515D01*
X115047699Y-100765168D01*
X115130802Y-100571274D01*
X115249985Y-100397212D01*
X115400704Y-100249616D01*
X115577225Y-100134105D01*
X115772819Y-100055079D01*
X115980033Y-100015552D01*
X116190988Y-100017024D01*
X116190988Y-100017024D01*
G37*
G36*
X125190988Y-100017024D02*
X125397626Y-100059441D01*
X125592104Y-100141192D01*
X125766991Y-100259155D01*
X125915636Y-100408841D01*
X126032375Y-100584548D01*
X126112763Y-100779584D01*
X126153669Y-100986174D01*
X126153669Y-100986184D01*
X126153736Y-100986523D01*
X126150372Y-101227472D01*
X126150295Y-101227810D01*
X126150295Y-101227819D01*
X126103637Y-101433187D01*
X126017836Y-101625899D01*
X125896234Y-101798280D01*
X125743466Y-101943759D01*
X125565353Y-102056793D01*
X125368672Y-102133080D01*
X125160927Y-102169712D01*
X124950017Y-102165293D01*
X124743984Y-102119995D01*
X124550672Y-102035538D01*
X124377451Y-101915146D01*
X124230909Y-101763399D01*
X124116633Y-101586076D01*
X124038973Y-101389931D01*
X124000893Y-101182449D01*
X124003838Y-100971515D01*
X124047699Y-100765168D01*
X124130802Y-100571274D01*
X124249985Y-100397212D01*
X124400704Y-100249616D01*
X124577225Y-100134105D01*
X124772819Y-100055079D01*
X124980033Y-100015552D01*
X125190988Y-100017024D01*
X125190988Y-100017024D01*
G37*
G36*
X144821749Y-97929777D02*
X144821754Y-97929778D01*
X144823807Y-97929792D01*
X145006080Y-97950237D01*
X145180912Y-98005697D01*
X145341641Y-98094058D01*
X145482146Y-98211956D01*
X145597076Y-98354900D01*
X145682052Y-98517445D01*
X145733839Y-98693399D01*
X145733843Y-98693440D01*
X145733844Y-98693444D01*
X145750463Y-98876058D01*
X145732648Y-99045556D01*
X145731290Y-99058473D01*
X145677052Y-99233687D01*
X145589815Y-99395029D01*
X145472900Y-99536355D01*
X145330762Y-99652279D01*
X145168815Y-99738388D01*
X144993226Y-99791402D01*
X144810685Y-99809300D01*
X144495283Y-99809300D01*
X144484251Y-99809223D01*
X144484246Y-99809222D01*
X144482193Y-99809208D01*
X144299920Y-99788763D01*
X144125088Y-99733303D01*
X143964359Y-99644942D01*
X143823854Y-99527044D01*
X143708924Y-99384100D01*
X143623948Y-99221555D01*
X143572161Y-99045601D01*
X143572157Y-99045560D01*
X143572156Y-99045556D01*
X143555537Y-98862942D01*
X143574705Y-98680574D01*
X143574710Y-98680527D01*
X143628948Y-98505313D01*
X143716185Y-98343971D01*
X143833100Y-98202645D01*
X143975238Y-98086721D01*
X144137185Y-98000612D01*
X144312774Y-97947598D01*
X144495315Y-97929700D01*
X144810717Y-97929700D01*
X144821749Y-97929777D01*
X144821749Y-97929777D01*
G37*
G36*
X116207988Y-96461024D02*
X116414626Y-96503441D01*
X116609104Y-96585192D01*
X116783991Y-96703155D01*
X116932636Y-96852841D01*
X117049375Y-97028548D01*
X117129763Y-97223584D01*
X117170669Y-97430174D01*
X117170669Y-97430184D01*
X117170736Y-97430523D01*
X117167372Y-97671472D01*
X117167295Y-97671810D01*
X117167295Y-97671819D01*
X117120637Y-97877187D01*
X117034836Y-98069899D01*
X116913234Y-98242280D01*
X116760466Y-98387759D01*
X116582353Y-98500793D01*
X116385672Y-98577080D01*
X116177927Y-98613712D01*
X115967017Y-98609293D01*
X115760984Y-98563995D01*
X115567672Y-98479538D01*
X115394451Y-98359146D01*
X115247909Y-98207399D01*
X115133633Y-98030076D01*
X115055973Y-97833931D01*
X115017893Y-97626449D01*
X115020838Y-97415515D01*
X115064699Y-97209168D01*
X115147802Y-97015274D01*
X115266985Y-96841212D01*
X115417704Y-96693616D01*
X115594225Y-96578105D01*
X115789819Y-96499079D01*
X115997033Y-96459552D01*
X116207988Y-96461024D01*
X116207988Y-96461024D01*
G37*
G36*
X125207988Y-96461024D02*
X125414626Y-96503441D01*
X125609104Y-96585192D01*
X125783991Y-96703155D01*
X125932636Y-96852841D01*
X126049375Y-97028548D01*
X126129763Y-97223584D01*
X126170669Y-97430174D01*
X126170669Y-97430184D01*
X126170736Y-97430523D01*
X126167372Y-97671472D01*
X126167295Y-97671810D01*
X126167295Y-97671819D01*
X126120637Y-97877187D01*
X126034836Y-98069899D01*
X125913234Y-98242280D01*
X125760466Y-98387759D01*
X125582353Y-98500793D01*
X125385672Y-98577080D01*
X125177927Y-98613712D01*
X124967017Y-98609293D01*
X124760984Y-98563995D01*
X124567672Y-98479538D01*
X124394451Y-98359146D01*
X124247909Y-98207399D01*
X124133633Y-98030076D01*
X124055973Y-97833931D01*
X124017893Y-97626449D01*
X124020838Y-97415515D01*
X124064699Y-97209168D01*
X124147802Y-97015274D01*
X124266985Y-96841212D01*
X124417704Y-96693616D01*
X124594225Y-96578105D01*
X124789819Y-96499079D01*
X124997033Y-96459552D01*
X125207988Y-96461024D01*
X125207988Y-96461024D01*
G37*
G36*
X111566200Y-98231200D02*
X109413800Y-98231200D01*
X109413800Y-96078800D01*
X111566200Y-96078800D01*
X111566200Y-98231200D01*
X111566200Y-98231200D01*
G37*
G36*
X144821749Y-95389777D02*
X144821754Y-95389778D01*
X144823807Y-95389792D01*
X145006080Y-95410237D01*
X145180912Y-95465697D01*
X145341641Y-95554058D01*
X145482146Y-95671956D01*
X145597076Y-95814900D01*
X145682052Y-95977445D01*
X145733839Y-96153399D01*
X145733843Y-96153440D01*
X145733844Y-96153444D01*
X145750463Y-96336058D01*
X145737483Y-96459552D01*
X145731290Y-96518473D01*
X145677052Y-96693687D01*
X145589815Y-96855029D01*
X145472900Y-96996355D01*
X145330762Y-97112279D01*
X145168815Y-97198388D01*
X144993226Y-97251402D01*
X144810685Y-97269300D01*
X144495283Y-97269300D01*
X144484251Y-97269223D01*
X144484246Y-97269222D01*
X144482193Y-97269208D01*
X144299920Y-97248763D01*
X144125088Y-97193303D01*
X143964359Y-97104942D01*
X143823854Y-96987044D01*
X143708924Y-96844100D01*
X143623948Y-96681555D01*
X143572161Y-96505601D01*
X143572157Y-96505560D01*
X143572156Y-96505556D01*
X143555537Y-96322942D01*
X143574705Y-96140574D01*
X143574710Y-96140527D01*
X143628948Y-95965313D01*
X143716185Y-95803971D01*
X143833100Y-95662645D01*
X143975238Y-95546721D01*
X144137185Y-95460612D01*
X144312774Y-95407598D01*
X144495315Y-95389700D01*
X144810717Y-95389700D01*
X144821749Y-95389777D01*
X144821749Y-95389777D01*
G37*
G36*
X103691428Y-95037048D02*
X103821322Y-95063712D01*
X103943577Y-95115103D01*
X104053515Y-95189257D01*
X104146952Y-95283349D01*
X104220341Y-95393808D01*
X104270875Y-95516412D01*
X104296562Y-95646141D01*
X104296562Y-95646156D01*
X104296629Y-95646495D01*
X104294514Y-95797960D01*
X104294438Y-95798294D01*
X104294438Y-95798307D01*
X104265136Y-95927278D01*
X104211201Y-96048419D01*
X104134759Y-96156782D01*
X104038726Y-96248233D01*
X103926760Y-96319289D01*
X103803122Y-96367245D01*
X103672531Y-96390272D01*
X103539947Y-96387494D01*
X103410431Y-96359019D01*
X103288910Y-96305927D01*
X103180021Y-96230247D01*
X103087902Y-96134856D01*
X103016065Y-96023386D01*
X102967246Y-95900084D01*
X102943309Y-95769659D01*
X102945160Y-95637061D01*
X102972732Y-95507346D01*
X103024971Y-95385461D01*
X103099893Y-95276042D01*
X103194641Y-95183258D01*
X103305599Y-95110648D01*
X103428557Y-95060970D01*
X103558815Y-95036123D01*
X103691428Y-95037048D01*
X103691428Y-95037048D01*
G37*
G36*
X129906988Y-92905024D02*
X130113626Y-92947441D01*
X130308104Y-93029192D01*
X130482991Y-93147155D01*
X130631636Y-93296841D01*
X130748375Y-93472548D01*
X130828763Y-93667584D01*
X130869669Y-93874174D01*
X130869669Y-93874184D01*
X130869736Y-93874523D01*
X130866372Y-94115472D01*
X130866295Y-94115810D01*
X130866295Y-94115819D01*
X130819637Y-94321187D01*
X130733836Y-94513899D01*
X130612234Y-94686280D01*
X130459466Y-94831759D01*
X130281353Y-94944793D01*
X130084672Y-95021080D01*
X129876927Y-95057712D01*
X129666017Y-95053293D01*
X129459984Y-95007995D01*
X129266672Y-94923538D01*
X129093451Y-94803146D01*
X128946909Y-94651399D01*
X128832633Y-94474076D01*
X128754973Y-94277931D01*
X128716893Y-94070449D01*
X128719838Y-93859515D01*
X128763699Y-93653168D01*
X128846802Y-93459274D01*
X128965985Y-93285212D01*
X129116704Y-93137616D01*
X129293225Y-93022105D01*
X129488819Y-92943079D01*
X129696033Y-92903552D01*
X129906988Y-92905024D01*
X129906988Y-92905024D01*
G37*
G36*
X138906988Y-92905024D02*
X139113626Y-92947441D01*
X139308104Y-93029192D01*
X139482991Y-93147155D01*
X139631636Y-93296841D01*
X139748375Y-93472548D01*
X139828763Y-93667584D01*
X139869669Y-93874174D01*
X139869669Y-93874184D01*
X139869736Y-93874523D01*
X139866372Y-94115472D01*
X139866295Y-94115810D01*
X139866295Y-94115819D01*
X139819637Y-94321187D01*
X139733836Y-94513899D01*
X139612234Y-94686280D01*
X139459466Y-94831759D01*
X139281353Y-94944793D01*
X139084672Y-95021080D01*
X138876927Y-95057712D01*
X138666017Y-95053293D01*
X138459984Y-95007995D01*
X138266672Y-94923538D01*
X138093451Y-94803146D01*
X137946909Y-94651399D01*
X137832633Y-94474076D01*
X137754973Y-94277931D01*
X137716893Y-94070449D01*
X137719838Y-93859515D01*
X137763699Y-93653168D01*
X137846802Y-93459274D01*
X137965985Y-93285212D01*
X138116704Y-93137616D01*
X138293225Y-93022105D01*
X138488819Y-92943079D01*
X138696033Y-92903552D01*
X138906988Y-92905024D01*
X138906988Y-92905024D01*
G37*
G36*
X145745200Y-94729300D02*
X143560800Y-94729300D01*
X143560800Y-92849700D01*
X145745200Y-92849700D01*
X145745200Y-94729300D01*
X145745200Y-94729300D01*
G37*
G36*
X125754088Y-92270024D02*
X125960726Y-92312441D01*
X126155204Y-92394192D01*
X126330091Y-92512155D01*
X126478736Y-92661841D01*
X126595475Y-92837548D01*
X126675863Y-93032584D01*
X126716769Y-93239174D01*
X126716769Y-93239184D01*
X126716836Y-93239523D01*
X126713472Y-93480472D01*
X126713395Y-93480810D01*
X126713395Y-93480819D01*
X126666737Y-93686187D01*
X126580936Y-93878899D01*
X126459334Y-94051280D01*
X126306566Y-94196759D01*
X126128453Y-94309793D01*
X125931772Y-94386080D01*
X125724027Y-94422712D01*
X125513117Y-94418293D01*
X125307084Y-94372995D01*
X125113772Y-94288538D01*
X124940551Y-94168146D01*
X124794009Y-94016399D01*
X124679733Y-93839076D01*
X124602073Y-93642931D01*
X124563993Y-93435449D01*
X124566938Y-93224515D01*
X124610799Y-93018168D01*
X124693902Y-92824274D01*
X124813085Y-92650212D01*
X124963804Y-92502616D01*
X125140325Y-92387105D01*
X125335919Y-92308079D01*
X125543133Y-92268552D01*
X125754088Y-92270024D01*
X125754088Y-92270024D01*
G37*
G36*
X116556790Y-94420690D02*
X114405410Y-94420690D01*
X114405410Y-92269310D01*
X116556790Y-92269310D01*
X116556790Y-94420690D01*
X116556790Y-94420690D01*
G37*
M02*
