%TF.GenerationSoftware,KiCad,Pcbnew,4.0.4+e1-6308~48~ubuntu16.04.1-stable*%
%TF.CreationDate,2016-12-10T16:28:55-08:00*%
%TF.ProjectId,usb-breakout,7573622D627265616B6F75742E6B6963,rev?*%
%TF.FileFunction,Soldermask,Bot*%
%FSLAX46Y46*%
G04 Gerber Fmt 4.6, Leading zero omitted, Abs format (unit mm)*
G04 Created by KiCad (PCBNEW 4.0.4+e1-6308~48~ubuntu16.04.1-stable) date Sat Dec 10 16:28:55 2016*
%MOMM*%
%LPD*%
G01*
G04 APERTURE LIST*
%ADD10C,0.350000*%
G04 APERTURE END LIST*
D10*
G36*
X131422386Y-104534715D02*
X131600307Y-104571237D01*
X131767758Y-104641627D01*
X131918341Y-104743197D01*
X132046329Y-104872081D01*
X132146843Y-105023369D01*
X132216062Y-105191305D01*
X132251272Y-105369127D01*
X132251272Y-105369142D01*
X132251339Y-105369481D01*
X132248442Y-105576945D01*
X132248366Y-105577279D01*
X132248366Y-105577292D01*
X132208202Y-105754072D01*
X132134326Y-105920002D01*
X132029623Y-106068427D01*
X131898085Y-106193688D01*
X131744723Y-106291016D01*
X131575379Y-106356700D01*
X131396503Y-106388241D01*
X131214904Y-106384436D01*
X131037502Y-106345432D01*
X130871055Y-106272713D01*
X130721907Y-106169053D01*
X130595731Y-106038394D01*
X130497336Y-105885713D01*
X130430468Y-105716827D01*
X130397681Y-105538180D01*
X130400216Y-105356559D01*
X130437982Y-105178888D01*
X130509535Y-105011940D01*
X130612155Y-104862068D01*
X130741929Y-104734984D01*
X130893919Y-104635525D01*
X131062331Y-104567482D01*
X131240748Y-104533447D01*
X131422386Y-104534715D01*
X131422386Y-104534715D01*
G37*
G36*
X137422386Y-104534715D02*
X137600307Y-104571237D01*
X137767758Y-104641627D01*
X137918341Y-104743197D01*
X138046329Y-104872081D01*
X138146843Y-105023369D01*
X138216062Y-105191305D01*
X138251272Y-105369127D01*
X138251272Y-105369142D01*
X138251339Y-105369481D01*
X138248442Y-105576945D01*
X138248366Y-105577279D01*
X138248366Y-105577292D01*
X138208202Y-105754072D01*
X138134326Y-105920002D01*
X138029623Y-106068427D01*
X137898085Y-106193688D01*
X137744723Y-106291016D01*
X137575379Y-106356700D01*
X137396503Y-106388241D01*
X137214904Y-106384436D01*
X137037502Y-106345432D01*
X136871055Y-106272713D01*
X136721907Y-106169053D01*
X136595731Y-106038394D01*
X136497336Y-105885713D01*
X136430468Y-105716827D01*
X136397681Y-105538180D01*
X136400216Y-105356559D01*
X136437982Y-105178888D01*
X136509535Y-105011940D01*
X136612155Y-104862068D01*
X136741929Y-104734984D01*
X136893919Y-104635525D01*
X137062331Y-104567482D01*
X137240748Y-104533447D01*
X137422386Y-104534715D01*
X137422386Y-104534715D01*
G37*
G36*
X125754088Y-104220724D02*
X125960726Y-104263141D01*
X126155204Y-104344892D01*
X126330091Y-104462855D01*
X126478736Y-104612541D01*
X126595475Y-104788248D01*
X126675863Y-104983284D01*
X126716769Y-105189874D01*
X126716769Y-105189884D01*
X126716836Y-105190223D01*
X126713472Y-105431172D01*
X126713395Y-105431510D01*
X126713395Y-105431519D01*
X126666737Y-105636887D01*
X126580936Y-105829599D01*
X126459334Y-106001980D01*
X126306566Y-106147459D01*
X126128453Y-106260493D01*
X125931772Y-106336780D01*
X125724027Y-106373412D01*
X125513117Y-106368993D01*
X125307084Y-106323695D01*
X125113772Y-106239238D01*
X124940551Y-106118846D01*
X124794009Y-105967099D01*
X124679733Y-105789776D01*
X124602073Y-105593631D01*
X124563993Y-105386149D01*
X124566938Y-105175215D01*
X124610799Y-104968868D01*
X124693902Y-104774974D01*
X124813085Y-104600912D01*
X124963804Y-104453316D01*
X125140325Y-104337805D01*
X125335919Y-104258779D01*
X125543133Y-104219252D01*
X125754088Y-104220724D01*
X125754088Y-104220724D01*
G37*
G36*
X116556790Y-106371390D02*
X114405410Y-106371390D01*
X114405410Y-104220010D01*
X116556790Y-104220010D01*
X116556790Y-106371390D01*
X116556790Y-106371390D01*
G37*
G36*
X144821749Y-103009777D02*
X144821754Y-103009778D01*
X144823807Y-103009792D01*
X145006080Y-103030237D01*
X145180912Y-103085697D01*
X145341641Y-103174058D01*
X145482146Y-103291956D01*
X145597076Y-103434900D01*
X145682052Y-103597445D01*
X145733839Y-103773399D01*
X145733843Y-103773440D01*
X145733844Y-103773444D01*
X145750463Y-103956058D01*
X145732648Y-104125556D01*
X145731290Y-104138473D01*
X145677052Y-104313687D01*
X145589815Y-104475029D01*
X145472900Y-104616355D01*
X145330762Y-104732279D01*
X145168815Y-104818388D01*
X144993226Y-104871402D01*
X144810685Y-104889300D01*
X144495283Y-104889300D01*
X144484251Y-104889223D01*
X144484246Y-104889222D01*
X144482193Y-104889208D01*
X144299920Y-104868763D01*
X144125088Y-104813303D01*
X143964359Y-104724942D01*
X143823854Y-104607044D01*
X143708924Y-104464100D01*
X143623948Y-104301555D01*
X143572161Y-104125601D01*
X143572157Y-104125560D01*
X143572156Y-104125556D01*
X143555537Y-103942942D01*
X143574705Y-103760574D01*
X143574710Y-103760527D01*
X143628948Y-103585313D01*
X143716185Y-103423971D01*
X143833100Y-103282645D01*
X143975238Y-103166721D01*
X144137185Y-103080612D01*
X144312774Y-103027598D01*
X144495315Y-103009700D01*
X144810717Y-103009700D01*
X144821749Y-103009777D01*
X144821749Y-103009777D01*
G37*
G36*
X107501428Y-102137048D02*
X107631322Y-102163712D01*
X107753577Y-102215103D01*
X107863515Y-102289257D01*
X107956952Y-102383349D01*
X108030341Y-102493808D01*
X108080875Y-102616412D01*
X108106562Y-102746141D01*
X108106562Y-102746156D01*
X108106629Y-102746495D01*
X108104514Y-102897960D01*
X108104438Y-102898294D01*
X108104438Y-102898307D01*
X108075136Y-103027278D01*
X108021201Y-103148419D01*
X107944759Y-103256782D01*
X107848726Y-103348233D01*
X107736760Y-103419289D01*
X107613122Y-103467245D01*
X107482531Y-103490272D01*
X107349947Y-103487494D01*
X107220431Y-103459019D01*
X107098910Y-103405927D01*
X106990021Y-103330247D01*
X106897902Y-103234856D01*
X106826065Y-103123386D01*
X106777246Y-103000084D01*
X106753309Y-102869659D01*
X106755160Y-102737061D01*
X106782732Y-102607346D01*
X106834971Y-102485461D01*
X106909893Y-102376042D01*
X107004641Y-102283258D01*
X107115599Y-102210648D01*
X107238557Y-102160970D01*
X107368815Y-102136123D01*
X107501428Y-102137048D01*
X107501428Y-102137048D01*
G37*
G36*
X137422386Y-100534715D02*
X137600307Y-100571237D01*
X137767758Y-100641627D01*
X137918341Y-100743197D01*
X138046329Y-100872081D01*
X138146843Y-101023369D01*
X138216062Y-101191305D01*
X138251272Y-101369127D01*
X138251272Y-101369142D01*
X138251339Y-101369481D01*
X138248442Y-101576945D01*
X138248366Y-101577279D01*
X138248366Y-101577292D01*
X138208202Y-101754072D01*
X138134326Y-101920002D01*
X138029623Y-102068427D01*
X137898085Y-102193688D01*
X137744723Y-102291016D01*
X137575379Y-102356700D01*
X137396503Y-102388241D01*
X137214904Y-102384436D01*
X137037502Y-102345432D01*
X136871055Y-102272713D01*
X136721907Y-102169053D01*
X136595731Y-102038394D01*
X136497336Y-101885713D01*
X136430468Y-101716827D01*
X136397681Y-101538180D01*
X136400216Y-101356559D01*
X136437982Y-101178888D01*
X136509535Y-101011940D01*
X136612155Y-100862068D01*
X136741929Y-100734984D01*
X136893919Y-100635525D01*
X137062331Y-100567482D01*
X137240748Y-100533447D01*
X137422386Y-100534715D01*
X137422386Y-100534715D01*
G37*
G36*
X131422386Y-100534715D02*
X131600307Y-100571237D01*
X131767758Y-100641627D01*
X131918341Y-100743197D01*
X132046329Y-100872081D01*
X132146843Y-101023369D01*
X132216062Y-101191305D01*
X132251272Y-101369127D01*
X132251272Y-101369142D01*
X132251339Y-101369481D01*
X132248442Y-101576945D01*
X132248366Y-101577279D01*
X132248366Y-101577292D01*
X132208202Y-101754072D01*
X132134326Y-101920002D01*
X132029623Y-102068427D01*
X131898085Y-102193688D01*
X131744723Y-102291016D01*
X131575379Y-102356700D01*
X131396503Y-102388241D01*
X131214904Y-102384436D01*
X131037502Y-102345432D01*
X130871055Y-102272713D01*
X130721907Y-102169053D01*
X130595731Y-102038394D01*
X130497336Y-101885713D01*
X130430468Y-101716827D01*
X130397681Y-101538180D01*
X130400216Y-101356559D01*
X130437982Y-101178888D01*
X130509535Y-101011940D01*
X130612155Y-100862068D01*
X130741929Y-100734984D01*
X130893919Y-100635525D01*
X131062331Y-100567482D01*
X131240748Y-100533447D01*
X131422386Y-100534715D01*
X131422386Y-100534715D01*
G37*
G36*
X144821749Y-100469777D02*
X144821754Y-100469778D01*
X144823807Y-100469792D01*
X145006080Y-100490237D01*
X145180912Y-100545697D01*
X145341641Y-100634058D01*
X145482146Y-100751956D01*
X145597076Y-100894900D01*
X145682052Y-101057445D01*
X145733839Y-101233399D01*
X145733843Y-101233440D01*
X145733844Y-101233444D01*
X145750463Y-101416058D01*
X145737627Y-101538180D01*
X145731290Y-101598473D01*
X145677052Y-101773687D01*
X145589815Y-101935029D01*
X145472900Y-102076355D01*
X145330762Y-102192279D01*
X145168815Y-102278388D01*
X144993226Y-102331402D01*
X144810685Y-102349300D01*
X144495283Y-102349300D01*
X144484251Y-102349223D01*
X144484246Y-102349222D01*
X144482193Y-102349208D01*
X144299920Y-102328763D01*
X144125088Y-102273303D01*
X143964359Y-102184942D01*
X143823854Y-102067044D01*
X143708924Y-101924100D01*
X143623948Y-101761555D01*
X143572161Y-101585601D01*
X143572157Y-101585560D01*
X143572156Y-101585556D01*
X143555537Y-101402942D01*
X143574705Y-101220574D01*
X143574710Y-101220527D01*
X143628948Y-101045313D01*
X143716185Y-100883971D01*
X143833100Y-100742645D01*
X143975238Y-100626721D01*
X144137185Y-100540612D01*
X144312774Y-100487598D01*
X144495315Y-100469700D01*
X144810717Y-100469700D01*
X144821749Y-100469777D01*
X144821749Y-100469777D01*
G37*
G36*
X122985488Y-99851924D02*
X123192126Y-99894341D01*
X123386604Y-99976092D01*
X123561491Y-100094055D01*
X123710136Y-100243741D01*
X123826875Y-100419448D01*
X123907263Y-100614484D01*
X123948169Y-100821074D01*
X123948169Y-100821084D01*
X123948236Y-100821423D01*
X123944872Y-101062372D01*
X123944795Y-101062710D01*
X123944795Y-101062719D01*
X123898137Y-101268087D01*
X123812336Y-101460799D01*
X123690734Y-101633180D01*
X123537966Y-101778659D01*
X123359853Y-101891693D01*
X123163172Y-101967980D01*
X122955427Y-102004612D01*
X122744517Y-102000193D01*
X122538484Y-101954895D01*
X122345172Y-101870438D01*
X122171951Y-101750046D01*
X122025409Y-101598299D01*
X121911133Y-101420976D01*
X121833473Y-101224831D01*
X121795393Y-101017349D01*
X121798338Y-100806415D01*
X121842199Y-100600068D01*
X121925302Y-100406174D01*
X122044485Y-100232112D01*
X122195204Y-100084516D01*
X122371725Y-99969005D01*
X122567319Y-99889979D01*
X122774533Y-99850452D01*
X122985488Y-99851924D01*
X122985488Y-99851924D01*
G37*
G36*
X115365488Y-99851924D02*
X115572126Y-99894341D01*
X115766604Y-99976092D01*
X115941491Y-100094055D01*
X116090136Y-100243741D01*
X116206875Y-100419448D01*
X116287263Y-100614484D01*
X116328169Y-100821074D01*
X116328169Y-100821084D01*
X116328236Y-100821423D01*
X116324872Y-101062372D01*
X116324795Y-101062710D01*
X116324795Y-101062719D01*
X116278137Y-101268087D01*
X116192336Y-101460799D01*
X116070734Y-101633180D01*
X115917966Y-101778659D01*
X115739853Y-101891693D01*
X115543172Y-101967980D01*
X115335427Y-102004612D01*
X115124517Y-102000193D01*
X114918484Y-101954895D01*
X114725172Y-101870438D01*
X114551951Y-101750046D01*
X114405409Y-101598299D01*
X114291133Y-101420976D01*
X114213473Y-101224831D01*
X114175393Y-101017349D01*
X114178338Y-100806415D01*
X114222199Y-100600068D01*
X114305302Y-100406174D01*
X114424485Y-100232112D01*
X114575204Y-100084516D01*
X114751725Y-99969005D01*
X114947319Y-99889979D01*
X115154533Y-99850452D01*
X115365488Y-99851924D01*
X115365488Y-99851924D01*
G37*
G36*
X144821749Y-97929777D02*
X144821754Y-97929778D01*
X144823807Y-97929792D01*
X145006080Y-97950237D01*
X145180912Y-98005697D01*
X145341641Y-98094058D01*
X145482146Y-98211956D01*
X145597076Y-98354900D01*
X145682052Y-98517445D01*
X145733839Y-98693399D01*
X145733843Y-98693440D01*
X145733844Y-98693444D01*
X145750463Y-98876058D01*
X145732648Y-99045556D01*
X145731290Y-99058473D01*
X145677052Y-99233687D01*
X145589815Y-99395029D01*
X145472900Y-99536355D01*
X145330762Y-99652279D01*
X145168815Y-99738388D01*
X144993226Y-99791402D01*
X144810685Y-99809300D01*
X144495283Y-99809300D01*
X144484251Y-99809223D01*
X144484246Y-99809222D01*
X144482193Y-99809208D01*
X144299920Y-99788763D01*
X144125088Y-99733303D01*
X143964359Y-99644942D01*
X143823854Y-99527044D01*
X143708924Y-99384100D01*
X143623948Y-99221555D01*
X143572161Y-99045601D01*
X143572157Y-99045560D01*
X143572156Y-99045556D01*
X143555537Y-98862942D01*
X143574705Y-98680574D01*
X143574710Y-98680527D01*
X143628948Y-98505313D01*
X143716185Y-98343971D01*
X143833100Y-98202645D01*
X143975238Y-98086721D01*
X144137185Y-98000612D01*
X144312774Y-97947598D01*
X144495315Y-97929700D01*
X144810717Y-97929700D01*
X144821749Y-97929777D01*
X144821749Y-97929777D01*
G37*
G36*
X115365488Y-95991124D02*
X115572126Y-96033541D01*
X115766604Y-96115292D01*
X115941491Y-96233255D01*
X116090136Y-96382941D01*
X116206875Y-96558648D01*
X116287263Y-96753684D01*
X116328169Y-96960274D01*
X116328169Y-96960284D01*
X116328236Y-96960623D01*
X116324872Y-97201572D01*
X116324795Y-97201910D01*
X116324795Y-97201919D01*
X116278137Y-97407287D01*
X116192336Y-97599999D01*
X116070734Y-97772380D01*
X115917966Y-97917859D01*
X115739853Y-98030893D01*
X115543172Y-98107180D01*
X115335427Y-98143812D01*
X115124517Y-98139393D01*
X114918484Y-98094095D01*
X114725172Y-98009638D01*
X114551951Y-97889246D01*
X114405409Y-97737499D01*
X114291133Y-97560176D01*
X114213473Y-97364031D01*
X114175393Y-97156549D01*
X114178338Y-96945615D01*
X114222199Y-96739268D01*
X114305302Y-96545374D01*
X114424485Y-96371312D01*
X114575204Y-96223716D01*
X114751725Y-96108205D01*
X114947319Y-96029179D01*
X115154533Y-95989652D01*
X115365488Y-95991124D01*
X115365488Y-95991124D01*
G37*
G36*
X122985488Y-95991124D02*
X123192126Y-96033541D01*
X123386604Y-96115292D01*
X123561491Y-96233255D01*
X123710136Y-96382941D01*
X123826875Y-96558648D01*
X123907263Y-96753684D01*
X123948169Y-96960274D01*
X123948169Y-96960284D01*
X123948236Y-96960623D01*
X123944872Y-97201572D01*
X123944795Y-97201910D01*
X123944795Y-97201919D01*
X123898137Y-97407287D01*
X123812336Y-97599999D01*
X123690734Y-97772380D01*
X123537966Y-97917859D01*
X123359853Y-98030893D01*
X123163172Y-98107180D01*
X122955427Y-98143812D01*
X122744517Y-98139393D01*
X122538484Y-98094095D01*
X122345172Y-98009638D01*
X122171951Y-97889246D01*
X122025409Y-97737499D01*
X121911133Y-97560176D01*
X121833473Y-97364031D01*
X121795393Y-97156549D01*
X121798338Y-96945615D01*
X121842199Y-96739268D01*
X121925302Y-96545374D01*
X122044485Y-96371312D01*
X122195204Y-96223716D01*
X122371725Y-96108205D01*
X122567319Y-96029179D01*
X122774533Y-95989652D01*
X122985488Y-95991124D01*
X122985488Y-95991124D01*
G37*
G36*
X144821749Y-95389777D02*
X144821754Y-95389778D01*
X144823807Y-95389792D01*
X145006080Y-95410237D01*
X145180912Y-95465697D01*
X145341641Y-95554058D01*
X145482146Y-95671956D01*
X145597076Y-95814900D01*
X145682052Y-95977445D01*
X145733839Y-96153399D01*
X145733843Y-96153440D01*
X145733844Y-96153444D01*
X145750463Y-96336058D01*
X145732648Y-96505556D01*
X145731290Y-96518473D01*
X145677052Y-96693687D01*
X145589815Y-96855029D01*
X145472900Y-96996355D01*
X145330762Y-97112279D01*
X145168815Y-97198388D01*
X144993226Y-97251402D01*
X144810685Y-97269300D01*
X144495283Y-97269300D01*
X144484251Y-97269223D01*
X144484246Y-97269222D01*
X144482193Y-97269208D01*
X144299920Y-97248763D01*
X144125088Y-97193303D01*
X143964359Y-97104942D01*
X143823854Y-96987044D01*
X143708924Y-96844100D01*
X143623948Y-96681555D01*
X143572161Y-96505601D01*
X143572157Y-96505560D01*
X143572156Y-96505556D01*
X143555537Y-96322942D01*
X143574705Y-96140574D01*
X143574710Y-96140527D01*
X143628948Y-95965313D01*
X143716185Y-95803971D01*
X143833100Y-95662645D01*
X143975238Y-95546721D01*
X144137185Y-95460612D01*
X144312774Y-95407598D01*
X144495315Y-95389700D01*
X144810717Y-95389700D01*
X144821749Y-95389777D01*
X144821749Y-95389777D01*
G37*
G36*
X107501428Y-95037048D02*
X107631322Y-95063712D01*
X107753577Y-95115103D01*
X107863515Y-95189257D01*
X107956952Y-95283349D01*
X108030341Y-95393808D01*
X108080875Y-95516412D01*
X108106562Y-95646141D01*
X108106562Y-95646156D01*
X108106629Y-95646495D01*
X108104514Y-95797960D01*
X108104438Y-95798294D01*
X108104438Y-95798307D01*
X108075136Y-95927278D01*
X108021201Y-96048419D01*
X107944759Y-96156782D01*
X107848726Y-96248233D01*
X107736760Y-96319289D01*
X107613122Y-96367245D01*
X107482531Y-96390272D01*
X107349947Y-96387494D01*
X107220431Y-96359019D01*
X107098910Y-96305927D01*
X106990021Y-96230247D01*
X106897902Y-96134856D01*
X106826065Y-96023386D01*
X106777246Y-95900084D01*
X106753309Y-95769659D01*
X106755160Y-95637061D01*
X106782732Y-95507346D01*
X106834971Y-95385461D01*
X106909893Y-95276042D01*
X107004641Y-95183258D01*
X107115599Y-95110648D01*
X107238557Y-95060970D01*
X107368815Y-95036123D01*
X107501428Y-95037048D01*
X107501428Y-95037048D01*
G37*
G36*
X130199088Y-92905024D02*
X130405726Y-92947441D01*
X130600204Y-93029192D01*
X130775091Y-93147155D01*
X130923736Y-93296841D01*
X131040475Y-93472548D01*
X131120863Y-93667584D01*
X131161769Y-93874174D01*
X131161769Y-93874184D01*
X131161836Y-93874523D01*
X131158472Y-94115472D01*
X131158395Y-94115810D01*
X131158395Y-94115819D01*
X131111737Y-94321187D01*
X131025936Y-94513899D01*
X130904334Y-94686280D01*
X130751566Y-94831759D01*
X130573453Y-94944793D01*
X130376772Y-95021080D01*
X130169027Y-95057712D01*
X129958117Y-95053293D01*
X129752084Y-95007995D01*
X129558772Y-94923538D01*
X129385551Y-94803146D01*
X129239009Y-94651399D01*
X129124733Y-94474076D01*
X129047073Y-94277931D01*
X129008993Y-94070449D01*
X129011938Y-93859515D01*
X129055799Y-93653168D01*
X129138902Y-93459274D01*
X129258085Y-93285212D01*
X129408804Y-93137616D01*
X129585325Y-93022105D01*
X129780919Y-92943079D01*
X129988133Y-92903552D01*
X130199088Y-92905024D01*
X130199088Y-92905024D01*
G37*
G36*
X137819088Y-92905024D02*
X138025726Y-92947441D01*
X138220204Y-93029192D01*
X138395091Y-93147155D01*
X138543736Y-93296841D01*
X138660475Y-93472548D01*
X138740863Y-93667584D01*
X138781769Y-93874174D01*
X138781769Y-93874184D01*
X138781836Y-93874523D01*
X138778472Y-94115472D01*
X138778395Y-94115810D01*
X138778395Y-94115819D01*
X138731737Y-94321187D01*
X138645936Y-94513899D01*
X138524334Y-94686280D01*
X138371566Y-94831759D01*
X138193453Y-94944793D01*
X137996772Y-95021080D01*
X137789027Y-95057712D01*
X137578117Y-95053293D01*
X137372084Y-95007995D01*
X137178772Y-94923538D01*
X137005551Y-94803146D01*
X136859009Y-94651399D01*
X136744733Y-94474076D01*
X136667073Y-94277931D01*
X136628993Y-94070449D01*
X136631938Y-93859515D01*
X136675799Y-93653168D01*
X136758902Y-93459274D01*
X136878085Y-93285212D01*
X137028804Y-93137616D01*
X137205325Y-93022105D01*
X137400919Y-92943079D01*
X137608133Y-92903552D01*
X137819088Y-92905024D01*
X137819088Y-92905024D01*
G37*
G36*
X145745200Y-94729300D02*
X143560800Y-94729300D01*
X143560800Y-92849700D01*
X145745200Y-92849700D01*
X145745200Y-94729300D01*
X145745200Y-94729300D01*
G37*
G36*
X125754088Y-92270024D02*
X125960726Y-92312441D01*
X126155204Y-92394192D01*
X126330091Y-92512155D01*
X126478736Y-92661841D01*
X126595475Y-92837548D01*
X126675863Y-93032584D01*
X126716769Y-93239174D01*
X126716769Y-93239184D01*
X126716836Y-93239523D01*
X126713472Y-93480472D01*
X126713395Y-93480810D01*
X126713395Y-93480819D01*
X126666737Y-93686187D01*
X126580936Y-93878899D01*
X126459334Y-94051280D01*
X126306566Y-94196759D01*
X126128453Y-94309793D01*
X125931772Y-94386080D01*
X125724027Y-94422712D01*
X125513117Y-94418293D01*
X125307084Y-94372995D01*
X125113772Y-94288538D01*
X124940551Y-94168146D01*
X124794009Y-94016399D01*
X124679733Y-93839076D01*
X124602073Y-93642931D01*
X124563993Y-93435449D01*
X124566938Y-93224515D01*
X124610799Y-93018168D01*
X124693902Y-92824274D01*
X124813085Y-92650212D01*
X124963804Y-92502616D01*
X125140325Y-92387105D01*
X125335919Y-92308079D01*
X125543133Y-92268552D01*
X125754088Y-92270024D01*
X125754088Y-92270024D01*
G37*
G36*
X116556790Y-94420690D02*
X114405410Y-94420690D01*
X114405410Y-92269310D01*
X116556790Y-92269310D01*
X116556790Y-94420690D01*
X116556790Y-94420690D01*
G37*
M02*
