<?xml version="1.0" standalone="no"?>
 <!DOCTYPE svg PUBLIC "-//W3C//DTD SVG 1.1//EN" 
 "http://www.w3.org/Graphics/SVG/1.1/DTD/svg11.dtd"> 
<svg xmlns="http://www.w3.org/2000/svg" version="1.1" 
    width="27.94cm" height="21.59cm" viewBox="0 0 110000 85000 ">
<title>SVG Picture created as usb-breakout-Assembly.svg date 2016/11/21 12:40:55 </title>
  <desc>Picture generated by PCBNEW </desc>
<g style="fill:#000000; fill-opacity:1;stroke:#000000; stroke-opacity:1;
stroke-linecap:round; stroke-linejoin:round; "
 transform="translate(0 0) scale(1 1)">
</g>
<g style="fill:#000000; fill-opacity:0.0; 
stroke:#000000; stroke-width:-0.000393701; stroke-opacity:1; 
stroke-linecap:round; stroke-linejoin:round;">
</g>
<g style="fill:#000000; fill-opacity:0.0; 
stroke:#000000; stroke-width:60; stroke-opacity:1; 
stroke-linecap:round; stroke-linejoin:round;">
<path d="M54992 43430
L54764 43430
" />
<path d="M54878 43430
L54878 43030
L54840 43088
L54802 43126
L54764 43145
" />
<path d="M55373 43430
L55145 43430
" />
<path d="M55259 43430
L55259 43030
L55221 43088
L55183 43126
L55145 43145
" />
<path d="M55830 43011
L55488 43526
" />
<path d="M55945 43069
L55964 43050
L56002 43030
L56097 43030
L56135 43050
L56154 43069
L56173 43107
L56173 43145
L56154 43202
L55926 43430
L56173 43430
" />
<path d="M56554 43430
L56326 43430
" />
<path d="M56440 43430
L56440 43030
L56402 43088
L56364 43126
L56326 43145
" />
<path d="M57011 43011
L56669 43526
" />
<path d="M57354 43430
L57126 43430
" />
<path d="M57240 43430
L57240 43030
L57202 43088
L57164 43126
L57126 43145
" />
<path d="M57697 43030
L57621 43030
L57583 43050
L57564 43069
L57526 43126
L57507 43202
L57507 43354
L57526 43392
L57545 43411
L57583 43430
L57659 43430
L57697 43411
L57716 43392
L57735 43354
L57735 43259
L57716 43221
L57697 43202
L57659 43183
L57583 43183
L57545 43202
L57526 43221
L57507 43259
" />
<path d="M51759 33950
L51759 34274
L51778 34312
L51797 34331
L51835 34350
L51911 34350
L51950 34331
L51969 34312
L51988 34274
L51988 33950
" />
<path d="M52159 34331
L52216 34350
L52311 34350
L52350 34331
L52369 34312
L52388 34274
L52388 34236
L52369 34198
L52350 34179
L52311 34160
L52235 34141
L52197 34122
L52178 34103
L52159 34065
L52159 34027
L52178 33989
L52197 33970
L52235 33950
L52330 33950
L52388 33970
" />
<path d="M52692 34141
L52750 34160
L52769 34179
L52788 34217
L52788 34274
L52769 34312
L52750 34331
L52711 34350
L52559 34350
L52559 33950
L52692 33950
L52730 33970
L52750 33989
L52769 34027
L52769 34065
L52750 34103
L52730 34122
L52692 34141
L52559 34141
" />
<path d="M53397 34141
L53454 34160
L53473 34179
L53492 34217
L53492 34274
L53473 34312
L53454 34331
L53416 34350
L53264 34350
L53264 33950
L53397 33950
L53435 33970
L53454 33989
L53473 34027
L53473 34065
L53454 34103
L53435 34122
L53397 34141
L53264 34141
" />
<path d="M53664 34350
L53664 34084
" />
<path d="M53664 34160
L53683 34122
L53702 34103
L53740 34084
L53778 34084
" />
<path d="M54064 34331
L54026 34350
L53950 34350
L53911 34331
L53892 34293
L53892 34141
L53911 34103
L53950 34084
L54026 34084
L54064 34103
L54083 34141
L54083 34179
L53892 34217
" />
<path d="M54426 34350
L54426 34141
L54407 34103
L54369 34084
L54292 34084
L54254 34103
" />
<path d="M54426 34331
L54388 34350
L54292 34350
L54254 34331
L54235 34293
L54235 34255
L54254 34217
L54292 34198
L54388 34198
L54426 34179
" />
<path d="M54616 34350
L54616 33950
" />
<path d="M54654 34198
L54769 34350
" />
<path d="M54769 34084
L54616 34236
" />
<path d="M54997 34350
L54959 34331
L54940 34312
L54921 34274
L54921 34160
L54940 34122
L54959 34103
L54997 34084
L55054 34084
L55092 34103
L55111 34122
L55130 34160
L55130 34274
L55111 34312
L55092 34331
L55054 34350
L54997 34350
" />
<path d="M55473 34084
L55473 34350
" />
<path d="M55302 34084
L55302 34293
L55321 34331
L55359 34350
L55416 34350
L55454 34331
L55473 34312
" />
<path d="M55607 34084
L55759 34084
" />
<path d="M55664 33950
L55664 34293
L55683 34331
L55721 34350
L55759 34350
" />
<path d="M56330 34141
L56388 34160
L56407 34179
L56426 34217
L56426 34274
L56407 34312
L56388 34331
L56349 34350
L56197 34350
L56197 33950
L56330 33950
L56369 33970
L56388 33989
L56407 34027
L56407 34065
L56388 34103
L56369 34122
L56330 34141
L56197 34141
" />
<path d="M56654 34350
L56616 34331
L56597 34312
L56578 34274
L56578 34160
L56597 34122
L56616 34103
L56654 34084
L56711 34084
L56749 34103
L56769 34122
L56788 34160
L56788 34274
L56769 34312
L56749 34331
L56711 34350
L56654 34350
" />
<path d="M57130 34350
L57130 34141
L57111 34103
L57073 34084
L56997 34084
L56959 34103
" />
<path d="M57130 34331
L57092 34350
L56997 34350
L56959 34331
L56940 34293
L56940 34255
L56959 34217
L56997 34198
L57092 34198
L57130 34179
" />
<path d="M57321 34350
L57321 34084
" />
<path d="M57321 34160
L57340 34122
L57359 34103
L57397 34084
L57435 34084
" />
<path d="M57740 34350
L57740 33950
" />
<path d="M57740 34331
L57702 34350
L57626 34350
L57588 34331
L57569 34312
L57549 34274
L57549 34160
L57569 34122
L57588 34103
L57626 34084
L57702 34084
L57740 34103
" />
<path d="M51940 34610
L52169 34610
" />
<path d="M52054 35010
L52054 34610
" />
<path d="M52302 35010
L52302 34610
" />
<path d="M52473 35010
L52473 34801
L52454 34763
L52416 34744
L52359 34744
L52321 34763
L52302 34782
" />
<path d="M52664 35010
L52664 34744
" />
<path d="M52664 34820
L52683 34782
L52702 34763
L52740 34744
L52778 34744
" />
<path d="M52969 35010
L52930 34991
L52911 34972
L52892 34934
L52892 34820
L52911 34782
L52930 34763
L52969 34744
L53026 34744
L53064 34763
L53083 34782
L53102 34820
L53102 34934
L53083 34972
L53064 34991
L53026 35010
L52969 35010
" />
<path d="M53445 34744
L53445 35010
" />
<path d="M53273 34744
L53273 34953
L53292 34991
L53330 35010
L53388 35010
L53426 34991
L53445 34972
" />
<path d="M53807 34744
L53807 35068
L53788 35106
L53769 35125
L53730 35144
L53673 35144
L53635 35125
" />
<path d="M53807 34991
L53769 35010
L53692 35010
L53654 34991
L53635 34972
L53616 34934
L53616 34820
L53635 34782
L53654 34763
L53692 34744
L53769 34744
L53807 34763
" />
<path d="M53997 35010
L53997 34610
" />
<path d="M54169 35010
L54169 34801
L54150 34763
L54111 34744
L54054 34744
L54016 34763
L53997 34782
" />
<path d="M54359 34858
L54664 34858
" />
<path d="M54854 35010
L54854 34610
" />
<path d="M55026 35010
L55026 34801
L55007 34763
L54969 34744
L54911 34744
L54873 34763
L54854 34782
" />
<path d="M55273 35010
L55235 34991
L55216 34972
L55197 34934
L55197 34820
L55216 34782
L55235 34763
L55273 34744
L55330 34744
L55369 34763
L55388 34782
L55407 34820
L55407 34934
L55388 34972
L55369 34991
L55330 35010
L55273 35010
" />
<path d="M55635 35010
L55597 34991
L55578 34953
L55578 34610
" />
<path d="M55940 34991
L55902 35010
L55826 35010
L55788 34991
L55769 34953
L55769 34801
L55788 34763
L55826 34744
L55902 34744
L55940 34763
L55959 34801
L55959 34839
L55769 34877
" />
<path d="M56397 34744
L56492 35010
L56588 34744
" />
<path d="M56949 35010
L56721 35010
" />
<path d="M56835 35010
L56835 34610
L56797 34668
L56759 34706
L56721 34725
" />
<path d="M57121 34972
L57140 34991
L57121 35010
L57102 34991
L57121 34972
L57121 35010
" />
<path d="M57388 34610
L57426 34610
L57464 34630
L57483 34649
L57502 34687
L57521 34763
L57521 34858
L57502 34934
L57483 34972
L57464 34991
L57426 35010
L57388 35010
L57350 34991
L57330 34972
L57311 34934
L57292 34858
L57292 34763
L57311 34687
L57330 34649
L57350 34630
L57388 34610
" />
<path d="M43500 42500
L56250 42500
" />
<path d="M56250 42500 A1750 1750 0.0 0 0 58000 40750 " />
<path d="M58000 37250 A1750 1750 0.0 0 0 56250 35500 " />
<path d="M43500 35500
L56250 35500
" />
<path d="M43500 35500 A1750 1750 0.0 0 0 41750 37250 " />
<path d="M41750 37250
L41750 40750
" />
<path d="M41750 40750 A1750 1750 0.0 0 0 43500 42500 " />
<path d="M58000 40750
L58000 37250
" />
</g>
<g style="fill:#000000; fill-opacity:0.0; 
stroke:#000000; stroke-width:19.685; stroke-opacity:1; 
stroke-linecap:round; stroke-linejoin:round;">
<path d="M41704 37111
L43771 37111
" />
<path d="M41704 41048
L41704 37111
" />
<path d="M43771 41048
L41704 41048
" />
<path d="M43771 37111
L43771 41048
" />
</g>
<g style="fill:#000000; fill-opacity:0.0; 
stroke:#000000; stroke-width:20; stroke-opacity:1; 
stroke-linecap:round; stroke-linejoin:round;">
<path d="M57638 41649
L57638 36236
" />
<path d="M56261 41649
L57638 41649
" />
<path d="M56261 36236
L56261 41649
" />
<path d="M57638 36236
L56261 36236
" />
<path d="M50711 37590
L54726 37590
" />
<path d="M50711 36409
L50711 37590
" />
<path d="M50750 36409
L50711 36409
" />
<path d="M54726 36409
L50750 36409
" />
<path d="M54726 37590
L54726 36409
" />
<path d="M44871 38805
L48886 38805
" />
<path d="M44871 37624
L44871 38805
" />
<path d="M44910 37624
L44871 37624
" />
<path d="M48886 37624
L44910 37624
" />
<path d="M48886 38805
L48886 37624
" />
<path d="M44871 40325
L48886 40325
" />
<path d="M44871 39144
L44871 40325
" />
<path d="M44910 39144
L44871 39144
" />
<path d="M48886 39144
L44910 39144
" />
<path d="M48886 40325
L48886 39144
" />
</g>
<g style="fill:#000000; fill-opacity:0.0; 
stroke:#000000; stroke-width:19.685; stroke-opacity:1; 
stroke-linecap:round; stroke-linejoin:round;">
<path d="M54458 41913
L54458 39551
" />
<path d="M51309 41913
L54458 41913
" />
<path d="M51309 39551
L51309 41913
" />
<path d="M54458 39551
L51309 39551
" />
</g>
<g style="fill:#000000; fill-opacity:0.0; 
stroke:#000000; stroke-width:20; stroke-opacity:1; 
stroke-linecap:round; stroke-linejoin:round;">
<path d="M44874 36062
L44874 36160
" />
<path d="M50090 36062
L44874 36062
" />
<path d="M50090 37439
L50090 36062
" />
<path d="M49992 37439
L50090 37439
" />
<path d="M44874 37439
L49992 37439
" />
<path d="M44874 36160
L44874 37439
" />
<path d="M45268 36062
L45268 37439
" />
<path d="M44874 40767
L44874 40865
" />
<path d="M50090 40767
L44874 40767
" />
<path d="M50090 42144
L50090 40767
" />
<path d="M49992 42144
L50090 42144
" />
<path d="M44874 42144
L49992 42144
" />
<path d="M44874 40865
L44874 42144
" />
<path d="M45268 40767
L45268 42144
" />
</g>
<g style="fill:#000000; fill-opacity:0.0; 
stroke:#000000; stroke-width:100; stroke-opacity:1; 
stroke-linecap:round; stroke-linejoin:round;">
<path d="M42520 38561
L42520 39133
L42482 39247
L42406 39323
L42292 39361
L42216 39361
" />
<path d="M43320 39361
L42863 39361
" />
<path d="M43092 39361
L43092 38561
L43016 38676
L42939 38752
L42863 38790
" />
<path d="M56683 38553
L56683 39125
L56645 39239
L56569 39315
L56454 39353
L56378 39353
" />
<path d="M57026 38630
L57064 38591
L57140 38553
L57330 38553
L57407 38591
L57445 38630
L57483 38706
L57483 38782
L57445 38896
L56988 39353
L57483 39353
" />
</g>
<g style="fill:#000000; fill-opacity:0.0; 
stroke:#000000; stroke-width:59.0551; stroke-opacity:1; 
stroke-linecap:round; stroke-linejoin:round;">
<path d="M52653 37178
L52522 36990
" />
<path d="M52428 37178
L52428 36784
L52578 36784
L52615 36803
L52634 36821
L52653 36859
L52653 36915
L52634 36953
L52615 36971
L52578 36990
L52428 36990
" />
<path d="M53028 37178
L52803 37178
" />
<path d="M52915 37178
L52915 36784
L52878 36840
L52840 36878
L52803 36896
" />
<path d="M46813 38393
L46682 38205
" />
<path d="M46588 38393
L46588 37999
L46738 37999
L46775 38018
L46794 38036
L46813 38074
L46813 38130
L46794 38168
L46775 38186
L46738 38205
L46588 38205
" />
<path d="M46963 38036
L46982 38018
L47019 37999
L47113 37999
L47150 38018
L47169 38036
L47188 38074
L47188 38111
L47169 38168
L46944 38393
L47188 38393
" />
<path d="M46813 39913
L46682 39725
" />
<path d="M46588 39913
L46588 39519
L46738 39519
L46775 39538
L46794 39556
L46813 39594
L46813 39650
L46794 39688
L46775 39706
L46738 39725
L46588 39725
" />
<path d="M46944 39519
L47188 39519
L47057 39669
L47113 39669
L47150 39688
L47169 39706
L47188 39744
L47188 39838
L47169 39875
L47150 39894
L47113 39913
L47000 39913
L46963 39894
L46944 39875
" />
<path d="M52358 40891
L52415 40910
L52508 40910
L52546 40891
L52565 40873
L52583 40835
L52583 40798
L52565 40760
L52546 40741
L52508 40723
L52433 40704
L52396 40685
L52377 40666
L52358 40629
L52358 40591
L52377 40554
L52396 40535
L52433 40516
L52527 40516
L52583 40535
" />
<path d="M52715 40516
L52808 40910
L52883 40629
L52958 40910
L53052 40516
" />
<path d="M53408 40910
L53183 40910
" />
<path d="M53296 40910
L53296 40516
L53258 40573
L53221 40610
L53183 40629
" />
</g>
<g style="fill:#000000; fill-opacity:0.0; 
stroke:#000000; stroke-width:100; stroke-opacity:1; 
stroke-linecap:round; stroke-linejoin:round;">
<path d="M46941 37112
L46941 36312
L47131 36312
L47246 36351
L47322 36427
L47360 36503
L47398 36655
L47398 36770
L47360 36922
L47322 36998
L47246 37074
L47131 37112
L46941 37112
" />
<path d="M48160 37112
L47703 37112
" />
<path d="M47931 37112
L47931 36312
L47855 36427
L47779 36503
L47703 36541
" />
<path d="M46941 41817
L46941 41017
L47131 41017
L47246 41056
L47322 41132
L47360 41208
L47398 41360
L47398 41475
L47360 41627
L47322 41703
L47246 41779
L47131 41817
L46941 41817
" />
<path d="M47703 41094
L47741 41056
L47817 41017
L48008 41017
L48084 41056
L48122 41094
L48160 41170
L48160 41246
L48122 41360
L47665 41817
L48160 41817
" />
</g> 
</svg>
