%TF.GenerationSoftware,KiCad,Pcbnew,4.0.4+e1-6308~48~ubuntu16.04.1-stable*%
%TF.CreationDate,2016-12-31T16:39:50-08:00*%
%TF.ProjectId,usb-breakout,7573622D627265616B6F75742E6B6963,v1.1*%
%TF.FileFunction,Copper,L2,Bot,Signal*%
%FSLAX46Y46*%
G04 Gerber Fmt 4.6, Leading zero omitted, Abs format (unit mm)*
G04 Created by KiCad (PCBNEW 4.0.4+e1-6308~48~ubuntu16.04.1-stable) date Sat Dec 31 16:39:50 2016*
%MOMM*%
%LPD*%
G01*
G04 APERTURE LIST*
%ADD10C,0.350000*%
%ADD11R,2.000000X2.000000*%
%ADD12C,2.000000*%
%ADD13C,1.998980*%
%ADD14R,1.998980X1.998980*%
%ADD15C,1.700000*%
%ADD16R,2.032000X1.727200*%
%ADD17O,2.032000X1.727200*%
%ADD18C,1.200000*%
%ADD19C,0.508000*%
%ADD20C,0.254000*%
%ADD21C,0.350000*%
G04 APERTURE END LIST*
D10*
D11*
X110490000Y-97155000D03*
D12*
X110490000Y-102155000D03*
D13*
X125641100Y-105295700D03*
D14*
X115481100Y-105295700D03*
D13*
X125641100Y-93345000D03*
D14*
X115481100Y-93345000D03*
D15*
X137325100Y-105460300D03*
X131325100Y-105460300D03*
X137325100Y-101460300D03*
X131325100Y-101460300D03*
D13*
X116078000Y-101092000D03*
X125078000Y-101092000D03*
X116095000Y-97536000D03*
X125095000Y-97536000D03*
X138794000Y-93980000D03*
X129794000Y-93980000D03*
D16*
X144653000Y-93789500D03*
D17*
X144653000Y-96329500D03*
X144653000Y-98869500D03*
X144653000Y-101409500D03*
X144653000Y-103949500D03*
D18*
X103620400Y-95712800D03*
X103620400Y-102812800D03*
D19*
X110490000Y-97155000D02*
X110490000Y-95250000D01*
X110490000Y-95250000D02*
X114300000Y-91440000D01*
X114300000Y-91440000D02*
X136254000Y-91440000D01*
X136254000Y-91440000D02*
X138794000Y-93980000D01*
D20*
G36*
X109861382Y-94621382D02*
X109668671Y-94909794D01*
X109601000Y-95250000D01*
X109601000Y-95507560D01*
X109490000Y-95507560D01*
X109254683Y-95551838D01*
X109038559Y-95690910D01*
X108893569Y-95903110D01*
X108842560Y-96155000D01*
X108842560Y-98155000D01*
X108886838Y-98390317D01*
X109025910Y-98606441D01*
X109238110Y-98751431D01*
X109490000Y-98802440D01*
X111490000Y-98802440D01*
X111725317Y-98758162D01*
X111941441Y-98619090D01*
X112086431Y-98406890D01*
X112137440Y-98155000D01*
X112137440Y-97859694D01*
X114460226Y-97859694D01*
X114708538Y-98460655D01*
X115167927Y-98920846D01*
X115768453Y-99170206D01*
X116418694Y-99170774D01*
X117019655Y-98922462D01*
X117479846Y-98463073D01*
X117729206Y-97862547D01*
X117729208Y-97859694D01*
X123460226Y-97859694D01*
X123708538Y-98460655D01*
X124167927Y-98920846D01*
X124768453Y-99170206D01*
X125418694Y-99170774D01*
X126019655Y-98922462D01*
X126479846Y-98463073D01*
X126729206Y-97862547D01*
X126729774Y-97212306D01*
X126481462Y-96611345D01*
X126022073Y-96151154D01*
X125421547Y-95901794D01*
X124771306Y-95901226D01*
X124170345Y-96149538D01*
X123710154Y-96608927D01*
X123460794Y-97209453D01*
X123460226Y-97859694D01*
X117729208Y-97859694D01*
X117729774Y-97212306D01*
X117481462Y-96611345D01*
X117022073Y-96151154D01*
X116421547Y-95901794D01*
X115771306Y-95901226D01*
X115170345Y-96149538D01*
X114710154Y-96608927D01*
X114460794Y-97209453D01*
X114460226Y-97859694D01*
X112137440Y-97859694D01*
X112137440Y-96155000D01*
X112093162Y-95919683D01*
X111954090Y-95703559D01*
X111741890Y-95558569D01*
X111490000Y-95507560D01*
X111489676Y-95507560D01*
X113834170Y-93163066D01*
X113834170Y-94344490D01*
X113878448Y-94579807D01*
X114017520Y-94795931D01*
X114229720Y-94940921D01*
X114481610Y-94991930D01*
X116480590Y-94991930D01*
X116715907Y-94947652D01*
X116932031Y-94808580D01*
X117077021Y-94596380D01*
X117097112Y-94497163D01*
X124668543Y-94497163D01*
X124767142Y-94763965D01*
X125376682Y-94990401D01*
X126026477Y-94966341D01*
X126515058Y-94763965D01*
X126613657Y-94497163D01*
X125641100Y-93524605D01*
X124668543Y-94497163D01*
X117097112Y-94497163D01*
X117128030Y-94344490D01*
X117128030Y-92345510D01*
X117124923Y-92329000D01*
X124445492Y-92329000D01*
X124488936Y-92372444D01*
X124222135Y-92471042D01*
X123995699Y-93080582D01*
X124019759Y-93730377D01*
X124222135Y-94218958D01*
X124488937Y-94317557D01*
X125461495Y-93345000D01*
X125447352Y-93330858D01*
X125626958Y-93151252D01*
X125641100Y-93165395D01*
X125655242Y-93151252D01*
X125834848Y-93330858D01*
X125820705Y-93345000D01*
X126793263Y-94317557D01*
X126830775Y-94303694D01*
X128159226Y-94303694D01*
X128407538Y-94904655D01*
X128866927Y-95364846D01*
X129467453Y-95614206D01*
X130117694Y-95614774D01*
X130718655Y-95366462D01*
X131178846Y-94907073D01*
X131428206Y-94306547D01*
X131428774Y-93656306D01*
X131180462Y-93055345D01*
X130721073Y-92595154D01*
X130120547Y-92345794D01*
X129470306Y-92345226D01*
X128869345Y-92593538D01*
X128409154Y-93052927D01*
X128159794Y-93653453D01*
X128159226Y-94303694D01*
X126830775Y-94303694D01*
X127060065Y-94218958D01*
X127286501Y-93609418D01*
X127262441Y-92959623D01*
X127060065Y-92471042D01*
X126793264Y-92372444D01*
X126836708Y-92329000D01*
X135885764Y-92329000D01*
X137174588Y-93617824D01*
X137159794Y-93653453D01*
X137159226Y-94303694D01*
X137407538Y-94904655D01*
X137866927Y-95364846D01*
X138467453Y-95614206D01*
X139117694Y-95614774D01*
X139718655Y-95366462D01*
X140178846Y-94907073D01*
X140428206Y-94306547D01*
X140428774Y-93656306D01*
X140180462Y-93055345D01*
X139721073Y-92595154D01*
X139120547Y-92345794D01*
X138470306Y-92345226D01*
X138432205Y-92360969D01*
X136952436Y-90881200D01*
X142804951Y-90881200D01*
X144298532Y-91178291D01*
X145505343Y-91984657D01*
X145706767Y-92286108D01*
X145669000Y-92278460D01*
X143637000Y-92278460D01*
X143401683Y-92322738D01*
X143185559Y-92461810D01*
X143040569Y-92674010D01*
X142989560Y-92925900D01*
X142989560Y-94653100D01*
X143033838Y-94888417D01*
X143172910Y-95104541D01*
X143385110Y-95249531D01*
X143426439Y-95257900D01*
X143408585Y-95269830D01*
X143083729Y-95756011D01*
X142969655Y-96329500D01*
X143083729Y-96902989D01*
X143408585Y-97389170D01*
X143723366Y-97599500D01*
X143408585Y-97809830D01*
X143083729Y-98296011D01*
X142969655Y-98869500D01*
X143083729Y-99442989D01*
X143408585Y-99929170D01*
X143723366Y-100139500D01*
X143408585Y-100349830D01*
X143083729Y-100836011D01*
X142969655Y-101409500D01*
X143083729Y-101982989D01*
X143408585Y-102469170D01*
X143718069Y-102675961D01*
X143302268Y-103047464D01*
X143048291Y-103574709D01*
X143045642Y-103590474D01*
X143166783Y-103822500D01*
X144526000Y-103822500D01*
X144526000Y-103802500D01*
X144780000Y-103802500D01*
X144780000Y-103822500D01*
X146139217Y-103822500D01*
X146260358Y-103590474D01*
X146257709Y-103574709D01*
X146003732Y-103047464D01*
X145587931Y-102675961D01*
X145897415Y-102469170D01*
X146222271Y-101982989D01*
X146336345Y-101409500D01*
X146222271Y-100836011D01*
X145897415Y-100349830D01*
X145582634Y-100139500D01*
X145897415Y-99929170D01*
X146222271Y-99442989D01*
X146336345Y-98869500D01*
X146222271Y-98296011D01*
X145897415Y-97809830D01*
X145582634Y-97599500D01*
X145897415Y-97389170D01*
X146222271Y-96902989D01*
X146336345Y-96329500D01*
X146222271Y-95756011D01*
X145897415Y-95269830D01*
X145883087Y-95260257D01*
X145904317Y-95256262D01*
X146120441Y-95117190D01*
X146265431Y-94904990D01*
X146316440Y-94653100D01*
X146316440Y-93215254D01*
X146608800Y-94685049D01*
X146608800Y-103434951D01*
X146311708Y-104928534D01*
X145505343Y-106135343D01*
X144298532Y-106941709D01*
X142804951Y-107238800D01*
X106750049Y-107238800D01*
X105256466Y-106941708D01*
X104049657Y-106135343D01*
X103243291Y-104928532D01*
X103117515Y-104296210D01*
X113834170Y-104296210D01*
X113834170Y-106295190D01*
X113878448Y-106530507D01*
X114017520Y-106746631D01*
X114229720Y-106891621D01*
X114481610Y-106942630D01*
X116480590Y-106942630D01*
X116715907Y-106898352D01*
X116932031Y-106759280D01*
X117077021Y-106547080D01*
X117097112Y-106447863D01*
X124668543Y-106447863D01*
X124767142Y-106714665D01*
X125376682Y-106941101D01*
X126026477Y-106917041D01*
X126515058Y-106714665D01*
X126592815Y-106504258D01*
X130460747Y-106504258D01*
X130541020Y-106755559D01*
X131096379Y-106957018D01*
X131686558Y-106930615D01*
X132109180Y-106755559D01*
X132189453Y-106504258D01*
X136460747Y-106504258D01*
X136541020Y-106755559D01*
X137096379Y-106957018D01*
X137686558Y-106930615D01*
X138109180Y-106755559D01*
X138189453Y-106504258D01*
X137325100Y-105639905D01*
X136460747Y-106504258D01*
X132189453Y-106504258D01*
X131325100Y-105639905D01*
X130460747Y-106504258D01*
X126592815Y-106504258D01*
X126613657Y-106447863D01*
X125641100Y-105475305D01*
X124668543Y-106447863D01*
X117097112Y-106447863D01*
X117128030Y-106295190D01*
X117128030Y-105031282D01*
X123995699Y-105031282D01*
X124019759Y-105681077D01*
X124222135Y-106169658D01*
X124488937Y-106268257D01*
X125461495Y-105295700D01*
X125820705Y-105295700D01*
X126793263Y-106268257D01*
X127060065Y-106169658D01*
X127286501Y-105560118D01*
X127274337Y-105231579D01*
X129828382Y-105231579D01*
X129854785Y-105821758D01*
X130029841Y-106244380D01*
X130281142Y-106324653D01*
X131145495Y-105460300D01*
X131504705Y-105460300D01*
X132369058Y-106324653D01*
X132620359Y-106244380D01*
X132821818Y-105689021D01*
X132801354Y-105231579D01*
X135828382Y-105231579D01*
X135854785Y-105821758D01*
X136029841Y-106244380D01*
X136281142Y-106324653D01*
X137145495Y-105460300D01*
X137504705Y-105460300D01*
X138369058Y-106324653D01*
X138620359Y-106244380D01*
X138821818Y-105689021D01*
X138795415Y-105098842D01*
X138620359Y-104676220D01*
X138369058Y-104595947D01*
X137504705Y-105460300D01*
X137145495Y-105460300D01*
X136281142Y-104595947D01*
X136029841Y-104676220D01*
X135828382Y-105231579D01*
X132801354Y-105231579D01*
X132795415Y-105098842D01*
X132620359Y-104676220D01*
X132369058Y-104595947D01*
X131504705Y-105460300D01*
X131145495Y-105460300D01*
X130281142Y-104595947D01*
X130029841Y-104676220D01*
X129828382Y-105231579D01*
X127274337Y-105231579D01*
X127262441Y-104910323D01*
X127060065Y-104421742D01*
X127045453Y-104416342D01*
X130460747Y-104416342D01*
X131325100Y-105280695D01*
X132189453Y-104416342D01*
X136460747Y-104416342D01*
X137325100Y-105280695D01*
X138189453Y-104416342D01*
X138155014Y-104308526D01*
X143045642Y-104308526D01*
X143048291Y-104324291D01*
X143302268Y-104851536D01*
X143738680Y-105241454D01*
X144291087Y-105434684D01*
X144526000Y-105290424D01*
X144526000Y-104076500D01*
X144780000Y-104076500D01*
X144780000Y-105290424D01*
X145014913Y-105434684D01*
X145567320Y-105241454D01*
X146003732Y-104851536D01*
X146257709Y-104324291D01*
X146260358Y-104308526D01*
X146139217Y-104076500D01*
X144780000Y-104076500D01*
X144526000Y-104076500D01*
X143166783Y-104076500D01*
X143045642Y-104308526D01*
X138155014Y-104308526D01*
X138109180Y-104165041D01*
X137553821Y-103963582D01*
X136963642Y-103989985D01*
X136541020Y-104165041D01*
X136460747Y-104416342D01*
X132189453Y-104416342D01*
X132109180Y-104165041D01*
X131553821Y-103963582D01*
X130963642Y-103989985D01*
X130541020Y-104165041D01*
X130460747Y-104416342D01*
X127045453Y-104416342D01*
X126793263Y-104323143D01*
X125820705Y-105295700D01*
X125461495Y-105295700D01*
X124488937Y-104323143D01*
X124222135Y-104421742D01*
X123995699Y-105031282D01*
X117128030Y-105031282D01*
X117128030Y-104296210D01*
X117099303Y-104143537D01*
X124668543Y-104143537D01*
X125641100Y-105116095D01*
X126613657Y-104143537D01*
X126515058Y-103876735D01*
X125905518Y-103650299D01*
X125255723Y-103674359D01*
X124767142Y-103876735D01*
X124668543Y-104143537D01*
X117099303Y-104143537D01*
X117083752Y-104060893D01*
X116944680Y-103844769D01*
X116732480Y-103699779D01*
X116480590Y-103648770D01*
X114481610Y-103648770D01*
X114246293Y-103693048D01*
X114030169Y-103832120D01*
X113885179Y-104044320D01*
X113834170Y-104296210D01*
X103117515Y-104296210D01*
X103040546Y-103909261D01*
X103373666Y-104047585D01*
X103864979Y-104048014D01*
X104319057Y-103860392D01*
X104666771Y-103513285D01*
X104752207Y-103307532D01*
X109517073Y-103307532D01*
X109615736Y-103574387D01*
X110225461Y-103800908D01*
X110875460Y-103776856D01*
X111364264Y-103574387D01*
X111462927Y-103307532D01*
X110490000Y-102334605D01*
X109517073Y-103307532D01*
X104752207Y-103307532D01*
X104855185Y-103059534D01*
X104855614Y-102568221D01*
X104667992Y-102114143D01*
X104444701Y-101890461D01*
X108844092Y-101890461D01*
X108868144Y-102540460D01*
X109070613Y-103029264D01*
X109337468Y-103127927D01*
X110310395Y-102155000D01*
X110669605Y-102155000D01*
X111642532Y-103127927D01*
X111909387Y-103029264D01*
X112135908Y-102419539D01*
X112111856Y-101769540D01*
X111965289Y-101415694D01*
X114443226Y-101415694D01*
X114691538Y-102016655D01*
X115150927Y-102476846D01*
X115751453Y-102726206D01*
X116401694Y-102726774D01*
X117002655Y-102478462D01*
X117462846Y-102019073D01*
X117712206Y-101418547D01*
X117712208Y-101415694D01*
X123443226Y-101415694D01*
X123691538Y-102016655D01*
X124150927Y-102476846D01*
X124751453Y-102726206D01*
X125401694Y-102726774D01*
X126002655Y-102478462D01*
X126462846Y-102019073D01*
X126572752Y-101754389D01*
X129839843Y-101754389D01*
X130065444Y-102300386D01*
X130482817Y-102718488D01*
X131028419Y-102945042D01*
X131619189Y-102945557D01*
X132165186Y-102719956D01*
X132583288Y-102302583D01*
X132809842Y-101756981D01*
X132809844Y-101754389D01*
X135839843Y-101754389D01*
X136065444Y-102300386D01*
X136482817Y-102718488D01*
X137028419Y-102945042D01*
X137619189Y-102945557D01*
X138165186Y-102719956D01*
X138583288Y-102302583D01*
X138809842Y-101756981D01*
X138810357Y-101166211D01*
X138584756Y-100620214D01*
X138167383Y-100202112D01*
X137621781Y-99975558D01*
X137031011Y-99975043D01*
X136485014Y-100200644D01*
X136066912Y-100618017D01*
X135840358Y-101163619D01*
X135839843Y-101754389D01*
X132809844Y-101754389D01*
X132810357Y-101166211D01*
X132584756Y-100620214D01*
X132167383Y-100202112D01*
X131621781Y-99975558D01*
X131031011Y-99975043D01*
X130485014Y-100200644D01*
X130066912Y-100618017D01*
X129840358Y-101163619D01*
X129839843Y-101754389D01*
X126572752Y-101754389D01*
X126712206Y-101418547D01*
X126712774Y-100768306D01*
X126464462Y-100167345D01*
X126005073Y-99707154D01*
X125404547Y-99457794D01*
X124754306Y-99457226D01*
X124153345Y-99705538D01*
X123693154Y-100164927D01*
X123443794Y-100765453D01*
X123443226Y-101415694D01*
X117712208Y-101415694D01*
X117712774Y-100768306D01*
X117464462Y-100167345D01*
X117005073Y-99707154D01*
X116404547Y-99457794D01*
X115754306Y-99457226D01*
X115153345Y-99705538D01*
X114693154Y-100164927D01*
X114443794Y-100765453D01*
X114443226Y-101415694D01*
X111965289Y-101415694D01*
X111909387Y-101280736D01*
X111642532Y-101182073D01*
X110669605Y-102155000D01*
X110310395Y-102155000D01*
X109337468Y-101182073D01*
X109070613Y-101280736D01*
X108844092Y-101890461D01*
X104444701Y-101890461D01*
X104320885Y-101766429D01*
X103867134Y-101578015D01*
X103375821Y-101577586D01*
X102946200Y-101755103D01*
X102946200Y-101002468D01*
X109517073Y-101002468D01*
X110490000Y-101975395D01*
X111462927Y-101002468D01*
X111364264Y-100735613D01*
X110754539Y-100509092D01*
X110104540Y-100533144D01*
X109615736Y-100735613D01*
X109517073Y-101002468D01*
X102946200Y-101002468D01*
X102946200Y-96770085D01*
X103373666Y-96947585D01*
X103864979Y-96948014D01*
X104319057Y-96760392D01*
X104666771Y-96413285D01*
X104855185Y-95959534D01*
X104855614Y-95468221D01*
X104667992Y-95014143D01*
X104320885Y-94666429D01*
X103867134Y-94478015D01*
X103375821Y-94477586D01*
X102952690Y-94652421D01*
X103243291Y-93191468D01*
X104049657Y-91984657D01*
X105256466Y-91178292D01*
X106750049Y-90881200D01*
X113601564Y-90881200D01*
X109861382Y-94621382D01*
X109861382Y-94621382D01*
G37*
X109861382Y-94621382D02*
X109668671Y-94909794D01*
X109601000Y-95250000D01*
X109601000Y-95507560D01*
X109490000Y-95507560D01*
X109254683Y-95551838D01*
X109038559Y-95690910D01*
X108893569Y-95903110D01*
X108842560Y-96155000D01*
X108842560Y-98155000D01*
X108886838Y-98390317D01*
X109025910Y-98606441D01*
X109238110Y-98751431D01*
X109490000Y-98802440D01*
X111490000Y-98802440D01*
X111725317Y-98758162D01*
X111941441Y-98619090D01*
X112086431Y-98406890D01*
X112137440Y-98155000D01*
X112137440Y-97859694D01*
X114460226Y-97859694D01*
X114708538Y-98460655D01*
X115167927Y-98920846D01*
X115768453Y-99170206D01*
X116418694Y-99170774D01*
X117019655Y-98922462D01*
X117479846Y-98463073D01*
X117729206Y-97862547D01*
X117729208Y-97859694D01*
X123460226Y-97859694D01*
X123708538Y-98460655D01*
X124167927Y-98920846D01*
X124768453Y-99170206D01*
X125418694Y-99170774D01*
X126019655Y-98922462D01*
X126479846Y-98463073D01*
X126729206Y-97862547D01*
X126729774Y-97212306D01*
X126481462Y-96611345D01*
X126022073Y-96151154D01*
X125421547Y-95901794D01*
X124771306Y-95901226D01*
X124170345Y-96149538D01*
X123710154Y-96608927D01*
X123460794Y-97209453D01*
X123460226Y-97859694D01*
X117729208Y-97859694D01*
X117729774Y-97212306D01*
X117481462Y-96611345D01*
X117022073Y-96151154D01*
X116421547Y-95901794D01*
X115771306Y-95901226D01*
X115170345Y-96149538D01*
X114710154Y-96608927D01*
X114460794Y-97209453D01*
X114460226Y-97859694D01*
X112137440Y-97859694D01*
X112137440Y-96155000D01*
X112093162Y-95919683D01*
X111954090Y-95703559D01*
X111741890Y-95558569D01*
X111490000Y-95507560D01*
X111489676Y-95507560D01*
X113834170Y-93163066D01*
X113834170Y-94344490D01*
X113878448Y-94579807D01*
X114017520Y-94795931D01*
X114229720Y-94940921D01*
X114481610Y-94991930D01*
X116480590Y-94991930D01*
X116715907Y-94947652D01*
X116932031Y-94808580D01*
X117077021Y-94596380D01*
X117097112Y-94497163D01*
X124668543Y-94497163D01*
X124767142Y-94763965D01*
X125376682Y-94990401D01*
X126026477Y-94966341D01*
X126515058Y-94763965D01*
X126613657Y-94497163D01*
X125641100Y-93524605D01*
X124668543Y-94497163D01*
X117097112Y-94497163D01*
X117128030Y-94344490D01*
X117128030Y-92345510D01*
X117124923Y-92329000D01*
X124445492Y-92329000D01*
X124488936Y-92372444D01*
X124222135Y-92471042D01*
X123995699Y-93080582D01*
X124019759Y-93730377D01*
X124222135Y-94218958D01*
X124488937Y-94317557D01*
X125461495Y-93345000D01*
X125447352Y-93330858D01*
X125626958Y-93151252D01*
X125641100Y-93165395D01*
X125655242Y-93151252D01*
X125834848Y-93330858D01*
X125820705Y-93345000D01*
X126793263Y-94317557D01*
X126830775Y-94303694D01*
X128159226Y-94303694D01*
X128407538Y-94904655D01*
X128866927Y-95364846D01*
X129467453Y-95614206D01*
X130117694Y-95614774D01*
X130718655Y-95366462D01*
X131178846Y-94907073D01*
X131428206Y-94306547D01*
X131428774Y-93656306D01*
X131180462Y-93055345D01*
X130721073Y-92595154D01*
X130120547Y-92345794D01*
X129470306Y-92345226D01*
X128869345Y-92593538D01*
X128409154Y-93052927D01*
X128159794Y-93653453D01*
X128159226Y-94303694D01*
X126830775Y-94303694D01*
X127060065Y-94218958D01*
X127286501Y-93609418D01*
X127262441Y-92959623D01*
X127060065Y-92471042D01*
X126793264Y-92372444D01*
X126836708Y-92329000D01*
X135885764Y-92329000D01*
X137174588Y-93617824D01*
X137159794Y-93653453D01*
X137159226Y-94303694D01*
X137407538Y-94904655D01*
X137866927Y-95364846D01*
X138467453Y-95614206D01*
X139117694Y-95614774D01*
X139718655Y-95366462D01*
X140178846Y-94907073D01*
X140428206Y-94306547D01*
X140428774Y-93656306D01*
X140180462Y-93055345D01*
X139721073Y-92595154D01*
X139120547Y-92345794D01*
X138470306Y-92345226D01*
X138432205Y-92360969D01*
X136952436Y-90881200D01*
X142804951Y-90881200D01*
X144298532Y-91178291D01*
X145505343Y-91984657D01*
X145706767Y-92286108D01*
X145669000Y-92278460D01*
X143637000Y-92278460D01*
X143401683Y-92322738D01*
X143185559Y-92461810D01*
X143040569Y-92674010D01*
X142989560Y-92925900D01*
X142989560Y-94653100D01*
X143033838Y-94888417D01*
X143172910Y-95104541D01*
X143385110Y-95249531D01*
X143426439Y-95257900D01*
X143408585Y-95269830D01*
X143083729Y-95756011D01*
X142969655Y-96329500D01*
X143083729Y-96902989D01*
X143408585Y-97389170D01*
X143723366Y-97599500D01*
X143408585Y-97809830D01*
X143083729Y-98296011D01*
X142969655Y-98869500D01*
X143083729Y-99442989D01*
X143408585Y-99929170D01*
X143723366Y-100139500D01*
X143408585Y-100349830D01*
X143083729Y-100836011D01*
X142969655Y-101409500D01*
X143083729Y-101982989D01*
X143408585Y-102469170D01*
X143718069Y-102675961D01*
X143302268Y-103047464D01*
X143048291Y-103574709D01*
X143045642Y-103590474D01*
X143166783Y-103822500D01*
X144526000Y-103822500D01*
X144526000Y-103802500D01*
X144780000Y-103802500D01*
X144780000Y-103822500D01*
X146139217Y-103822500D01*
X146260358Y-103590474D01*
X146257709Y-103574709D01*
X146003732Y-103047464D01*
X145587931Y-102675961D01*
X145897415Y-102469170D01*
X146222271Y-101982989D01*
X146336345Y-101409500D01*
X146222271Y-100836011D01*
X145897415Y-100349830D01*
X145582634Y-100139500D01*
X145897415Y-99929170D01*
X146222271Y-99442989D01*
X146336345Y-98869500D01*
X146222271Y-98296011D01*
X145897415Y-97809830D01*
X145582634Y-97599500D01*
X145897415Y-97389170D01*
X146222271Y-96902989D01*
X146336345Y-96329500D01*
X146222271Y-95756011D01*
X145897415Y-95269830D01*
X145883087Y-95260257D01*
X145904317Y-95256262D01*
X146120441Y-95117190D01*
X146265431Y-94904990D01*
X146316440Y-94653100D01*
X146316440Y-93215254D01*
X146608800Y-94685049D01*
X146608800Y-103434951D01*
X146311708Y-104928534D01*
X145505343Y-106135343D01*
X144298532Y-106941709D01*
X142804951Y-107238800D01*
X106750049Y-107238800D01*
X105256466Y-106941708D01*
X104049657Y-106135343D01*
X103243291Y-104928532D01*
X103117515Y-104296210D01*
X113834170Y-104296210D01*
X113834170Y-106295190D01*
X113878448Y-106530507D01*
X114017520Y-106746631D01*
X114229720Y-106891621D01*
X114481610Y-106942630D01*
X116480590Y-106942630D01*
X116715907Y-106898352D01*
X116932031Y-106759280D01*
X117077021Y-106547080D01*
X117097112Y-106447863D01*
X124668543Y-106447863D01*
X124767142Y-106714665D01*
X125376682Y-106941101D01*
X126026477Y-106917041D01*
X126515058Y-106714665D01*
X126592815Y-106504258D01*
X130460747Y-106504258D01*
X130541020Y-106755559D01*
X131096379Y-106957018D01*
X131686558Y-106930615D01*
X132109180Y-106755559D01*
X132189453Y-106504258D01*
X136460747Y-106504258D01*
X136541020Y-106755559D01*
X137096379Y-106957018D01*
X137686558Y-106930615D01*
X138109180Y-106755559D01*
X138189453Y-106504258D01*
X137325100Y-105639905D01*
X136460747Y-106504258D01*
X132189453Y-106504258D01*
X131325100Y-105639905D01*
X130460747Y-106504258D01*
X126592815Y-106504258D01*
X126613657Y-106447863D01*
X125641100Y-105475305D01*
X124668543Y-106447863D01*
X117097112Y-106447863D01*
X117128030Y-106295190D01*
X117128030Y-105031282D01*
X123995699Y-105031282D01*
X124019759Y-105681077D01*
X124222135Y-106169658D01*
X124488937Y-106268257D01*
X125461495Y-105295700D01*
X125820705Y-105295700D01*
X126793263Y-106268257D01*
X127060065Y-106169658D01*
X127286501Y-105560118D01*
X127274337Y-105231579D01*
X129828382Y-105231579D01*
X129854785Y-105821758D01*
X130029841Y-106244380D01*
X130281142Y-106324653D01*
X131145495Y-105460300D01*
X131504705Y-105460300D01*
X132369058Y-106324653D01*
X132620359Y-106244380D01*
X132821818Y-105689021D01*
X132801354Y-105231579D01*
X135828382Y-105231579D01*
X135854785Y-105821758D01*
X136029841Y-106244380D01*
X136281142Y-106324653D01*
X137145495Y-105460300D01*
X137504705Y-105460300D01*
X138369058Y-106324653D01*
X138620359Y-106244380D01*
X138821818Y-105689021D01*
X138795415Y-105098842D01*
X138620359Y-104676220D01*
X138369058Y-104595947D01*
X137504705Y-105460300D01*
X137145495Y-105460300D01*
X136281142Y-104595947D01*
X136029841Y-104676220D01*
X135828382Y-105231579D01*
X132801354Y-105231579D01*
X132795415Y-105098842D01*
X132620359Y-104676220D01*
X132369058Y-104595947D01*
X131504705Y-105460300D01*
X131145495Y-105460300D01*
X130281142Y-104595947D01*
X130029841Y-104676220D01*
X129828382Y-105231579D01*
X127274337Y-105231579D01*
X127262441Y-104910323D01*
X127060065Y-104421742D01*
X127045453Y-104416342D01*
X130460747Y-104416342D01*
X131325100Y-105280695D01*
X132189453Y-104416342D01*
X136460747Y-104416342D01*
X137325100Y-105280695D01*
X138189453Y-104416342D01*
X138155014Y-104308526D01*
X143045642Y-104308526D01*
X143048291Y-104324291D01*
X143302268Y-104851536D01*
X143738680Y-105241454D01*
X144291087Y-105434684D01*
X144526000Y-105290424D01*
X144526000Y-104076500D01*
X144780000Y-104076500D01*
X144780000Y-105290424D01*
X145014913Y-105434684D01*
X145567320Y-105241454D01*
X146003732Y-104851536D01*
X146257709Y-104324291D01*
X146260358Y-104308526D01*
X146139217Y-104076500D01*
X144780000Y-104076500D01*
X144526000Y-104076500D01*
X143166783Y-104076500D01*
X143045642Y-104308526D01*
X138155014Y-104308526D01*
X138109180Y-104165041D01*
X137553821Y-103963582D01*
X136963642Y-103989985D01*
X136541020Y-104165041D01*
X136460747Y-104416342D01*
X132189453Y-104416342D01*
X132109180Y-104165041D01*
X131553821Y-103963582D01*
X130963642Y-103989985D01*
X130541020Y-104165041D01*
X130460747Y-104416342D01*
X127045453Y-104416342D01*
X126793263Y-104323143D01*
X125820705Y-105295700D01*
X125461495Y-105295700D01*
X124488937Y-104323143D01*
X124222135Y-104421742D01*
X123995699Y-105031282D01*
X117128030Y-105031282D01*
X117128030Y-104296210D01*
X117099303Y-104143537D01*
X124668543Y-104143537D01*
X125641100Y-105116095D01*
X126613657Y-104143537D01*
X126515058Y-103876735D01*
X125905518Y-103650299D01*
X125255723Y-103674359D01*
X124767142Y-103876735D01*
X124668543Y-104143537D01*
X117099303Y-104143537D01*
X117083752Y-104060893D01*
X116944680Y-103844769D01*
X116732480Y-103699779D01*
X116480590Y-103648770D01*
X114481610Y-103648770D01*
X114246293Y-103693048D01*
X114030169Y-103832120D01*
X113885179Y-104044320D01*
X113834170Y-104296210D01*
X103117515Y-104296210D01*
X103040546Y-103909261D01*
X103373666Y-104047585D01*
X103864979Y-104048014D01*
X104319057Y-103860392D01*
X104666771Y-103513285D01*
X104752207Y-103307532D01*
X109517073Y-103307532D01*
X109615736Y-103574387D01*
X110225461Y-103800908D01*
X110875460Y-103776856D01*
X111364264Y-103574387D01*
X111462927Y-103307532D01*
X110490000Y-102334605D01*
X109517073Y-103307532D01*
X104752207Y-103307532D01*
X104855185Y-103059534D01*
X104855614Y-102568221D01*
X104667992Y-102114143D01*
X104444701Y-101890461D01*
X108844092Y-101890461D01*
X108868144Y-102540460D01*
X109070613Y-103029264D01*
X109337468Y-103127927D01*
X110310395Y-102155000D01*
X110669605Y-102155000D01*
X111642532Y-103127927D01*
X111909387Y-103029264D01*
X112135908Y-102419539D01*
X112111856Y-101769540D01*
X111965289Y-101415694D01*
X114443226Y-101415694D01*
X114691538Y-102016655D01*
X115150927Y-102476846D01*
X115751453Y-102726206D01*
X116401694Y-102726774D01*
X117002655Y-102478462D01*
X117462846Y-102019073D01*
X117712206Y-101418547D01*
X117712208Y-101415694D01*
X123443226Y-101415694D01*
X123691538Y-102016655D01*
X124150927Y-102476846D01*
X124751453Y-102726206D01*
X125401694Y-102726774D01*
X126002655Y-102478462D01*
X126462846Y-102019073D01*
X126572752Y-101754389D01*
X129839843Y-101754389D01*
X130065444Y-102300386D01*
X130482817Y-102718488D01*
X131028419Y-102945042D01*
X131619189Y-102945557D01*
X132165186Y-102719956D01*
X132583288Y-102302583D01*
X132809842Y-101756981D01*
X132809844Y-101754389D01*
X135839843Y-101754389D01*
X136065444Y-102300386D01*
X136482817Y-102718488D01*
X137028419Y-102945042D01*
X137619189Y-102945557D01*
X138165186Y-102719956D01*
X138583288Y-102302583D01*
X138809842Y-101756981D01*
X138810357Y-101166211D01*
X138584756Y-100620214D01*
X138167383Y-100202112D01*
X137621781Y-99975558D01*
X137031011Y-99975043D01*
X136485014Y-100200644D01*
X136066912Y-100618017D01*
X135840358Y-101163619D01*
X135839843Y-101754389D01*
X132809844Y-101754389D01*
X132810357Y-101166211D01*
X132584756Y-100620214D01*
X132167383Y-100202112D01*
X131621781Y-99975558D01*
X131031011Y-99975043D01*
X130485014Y-100200644D01*
X130066912Y-100618017D01*
X129840358Y-101163619D01*
X129839843Y-101754389D01*
X126572752Y-101754389D01*
X126712206Y-101418547D01*
X126712774Y-100768306D01*
X126464462Y-100167345D01*
X126005073Y-99707154D01*
X125404547Y-99457794D01*
X124754306Y-99457226D01*
X124153345Y-99705538D01*
X123693154Y-100164927D01*
X123443794Y-100765453D01*
X123443226Y-101415694D01*
X117712208Y-101415694D01*
X117712774Y-100768306D01*
X117464462Y-100167345D01*
X117005073Y-99707154D01*
X116404547Y-99457794D01*
X115754306Y-99457226D01*
X115153345Y-99705538D01*
X114693154Y-100164927D01*
X114443794Y-100765453D01*
X114443226Y-101415694D01*
X111965289Y-101415694D01*
X111909387Y-101280736D01*
X111642532Y-101182073D01*
X110669605Y-102155000D01*
X110310395Y-102155000D01*
X109337468Y-101182073D01*
X109070613Y-101280736D01*
X108844092Y-101890461D01*
X104444701Y-101890461D01*
X104320885Y-101766429D01*
X103867134Y-101578015D01*
X103375821Y-101577586D01*
X102946200Y-101755103D01*
X102946200Y-101002468D01*
X109517073Y-101002468D01*
X110490000Y-101975395D01*
X111462927Y-101002468D01*
X111364264Y-100735613D01*
X110754539Y-100509092D01*
X110104540Y-100533144D01*
X109615736Y-100735613D01*
X109517073Y-101002468D01*
X102946200Y-101002468D01*
X102946200Y-96770085D01*
X103373666Y-96947585D01*
X103864979Y-96948014D01*
X104319057Y-96760392D01*
X104666771Y-96413285D01*
X104855185Y-95959534D01*
X104855614Y-95468221D01*
X104667992Y-95014143D01*
X104320885Y-94666429D01*
X103867134Y-94478015D01*
X103375821Y-94477586D01*
X102952690Y-94652421D01*
X103243291Y-93191468D01*
X104049657Y-91984657D01*
X105256466Y-91178292D01*
X106750049Y-90881200D01*
X113601564Y-90881200D01*
X109861382Y-94621382D01*
D21*
X110490000Y-97155000D03*
X110490000Y-102155000D03*
X125641100Y-105295700D03*
X115481100Y-105295700D03*
X125641100Y-93345000D03*
X115481100Y-93345000D03*
X137325100Y-105460300D03*
X131325100Y-105460300D03*
X137325100Y-101460300D03*
X131325100Y-101460300D03*
X116078000Y-101092000D03*
X125078000Y-101092000D03*
X116095000Y-97536000D03*
X125095000Y-97536000D03*
X138794000Y-93980000D03*
X129794000Y-93980000D03*
X144653000Y-93789500D03*
X144653000Y-96329500D03*
X144653000Y-98869500D03*
X144653000Y-101409500D03*
X144653000Y-103949500D03*
X103620400Y-95712800D03*
X103620400Y-102812800D03*
M02*
