%TF.GenerationSoftware,KiCad,Pcbnew,4.0.4+e1-6308~48~ubuntu16.04.1-stable*%
%TF.CreationDate,2016-12-10T16:28:55-08:00*%
%TF.ProjectId,usb-breakout,7573622D627265616B6F75742E6B6963,rev?*%
%TF.FileFunction,Legend,Bot*%
%FSLAX46Y46*%
G04 Gerber Fmt 4.6, Leading zero omitted, Abs format (unit mm)*
G04 Created by KiCad (PCBNEW 4.0.4+e1-6308~48~ubuntu16.04.1-stable) date Sat Dec 10 16:28:55 2016*
%MOMM*%
%LPD*%
G01*
G04 APERTURE LIST*
%ADD10C,0.350000*%
%ADD11C,0.152400*%
%ADD12C,0.254000*%
G04 APERTURE END LIST*
D10*
D11*
X109764286Y-94330763D02*
X110441619Y-94524287D01*
X109957810Y-94717810D01*
X110441619Y-94911334D01*
X109764286Y-95104858D01*
X110441619Y-95491906D02*
X109764286Y-95491906D01*
X109425619Y-95491906D02*
X109474000Y-95443525D01*
X109522381Y-95491906D01*
X109474000Y-95540287D01*
X109425619Y-95491906D01*
X109522381Y-95491906D01*
X110393238Y-96411144D02*
X110441619Y-96314382D01*
X110441619Y-96120859D01*
X110393238Y-96024097D01*
X110344857Y-95975716D01*
X110248095Y-95927335D01*
X109957810Y-95927335D01*
X109861048Y-95975716D01*
X109812667Y-96024097D01*
X109764286Y-96120859D01*
X109764286Y-96314382D01*
X109812667Y-96411144D01*
X110441619Y-96846573D02*
X109425619Y-96846573D01*
X110054571Y-96943335D02*
X110441619Y-97233620D01*
X109764286Y-97233620D02*
X110151333Y-96846573D01*
X110393238Y-98056096D02*
X110441619Y-97959334D01*
X110441619Y-97765811D01*
X110393238Y-97669049D01*
X110296476Y-97620668D01*
X109909429Y-97620668D01*
X109812667Y-97669049D01*
X109764286Y-97765811D01*
X109764286Y-97959334D01*
X109812667Y-98056096D01*
X109909429Y-98104477D01*
X110006190Y-98104477D01*
X110102952Y-97620668D01*
X110441619Y-98539906D02*
X109764286Y-98539906D01*
X109957810Y-98539906D02*
X109861048Y-98588287D01*
X109812667Y-98636668D01*
X109764286Y-98733430D01*
X109764286Y-98830191D01*
X110441619Y-99168858D02*
X109425619Y-99168858D01*
X109812667Y-99168858D02*
X109764286Y-99265620D01*
X109764286Y-99459143D01*
X109812667Y-99555905D01*
X109861048Y-99604286D01*
X109957810Y-99652667D01*
X110248095Y-99652667D01*
X110344857Y-99604286D01*
X110393238Y-99555905D01*
X110441619Y-99459143D01*
X110441619Y-99265620D01*
X110393238Y-99168858D01*
X110441619Y-100233239D02*
X110393238Y-100136477D01*
X110344857Y-100088096D01*
X110248095Y-100039715D01*
X109957810Y-100039715D01*
X109861048Y-100088096D01*
X109812667Y-100136477D01*
X109764286Y-100233239D01*
X109764286Y-100378381D01*
X109812667Y-100475143D01*
X109861048Y-100523524D01*
X109957810Y-100571905D01*
X110248095Y-100571905D01*
X110344857Y-100523524D01*
X110393238Y-100475143D01*
X110441619Y-100378381D01*
X110441619Y-100233239D01*
X110441619Y-100910572D02*
X109764286Y-101442762D01*
X109764286Y-100910572D02*
X110441619Y-101442762D01*
X110344857Y-101829810D02*
X110393238Y-101878191D01*
X110441619Y-101829810D01*
X110393238Y-101781429D01*
X110344857Y-101829810D01*
X110441619Y-101829810D01*
X109764286Y-102313620D02*
X110441619Y-102313620D01*
X109861048Y-102313620D02*
X109812667Y-102362001D01*
X109764286Y-102458763D01*
X109764286Y-102603905D01*
X109812667Y-102700667D01*
X109909429Y-102749048D01*
X110441619Y-102749048D01*
X110393238Y-103619905D02*
X110441619Y-103523143D01*
X110441619Y-103329620D01*
X110393238Y-103232858D01*
X110296476Y-103184477D01*
X109909429Y-103184477D01*
X109812667Y-103232858D01*
X109764286Y-103329620D01*
X109764286Y-103523143D01*
X109812667Y-103619905D01*
X109909429Y-103668286D01*
X110006190Y-103668286D01*
X110102952Y-103184477D01*
X109764286Y-103958572D02*
X109764286Y-104345620D01*
X109425619Y-104103715D02*
X110296476Y-104103715D01*
X110393238Y-104152096D01*
X110441619Y-104248858D01*
X110441619Y-104345620D01*
D12*
X142494000Y-95761024D02*
X142494000Y-96789119D01*
X142433524Y-96910071D01*
X142373048Y-96970548D01*
X142252095Y-97031024D01*
X142010191Y-97031024D01*
X141889238Y-96970548D01*
X141828762Y-96910071D01*
X141768286Y-96789119D01*
X141768286Y-95761024D01*
X141224000Y-96970548D02*
X141042572Y-97031024D01*
X140740191Y-97031024D01*
X140619238Y-96970548D01*
X140558762Y-96910071D01*
X140498286Y-96789119D01*
X140498286Y-96668167D01*
X140558762Y-96547214D01*
X140619238Y-96486738D01*
X140740191Y-96426262D01*
X140982095Y-96365786D01*
X141103048Y-96305310D01*
X141163524Y-96244833D01*
X141224000Y-96123881D01*
X141224000Y-96002929D01*
X141163524Y-95881976D01*
X141103048Y-95821500D01*
X140982095Y-95761024D01*
X140679715Y-95761024D01*
X140498286Y-95821500D01*
X139530667Y-96365786D02*
X139349238Y-96426262D01*
X139288762Y-96486738D01*
X139228286Y-96607690D01*
X139228286Y-96789119D01*
X139288762Y-96910071D01*
X139349238Y-96970548D01*
X139470191Y-97031024D01*
X139954000Y-97031024D01*
X139954000Y-95761024D01*
X139530667Y-95761024D01*
X139409714Y-95821500D01*
X139349238Y-95881976D01*
X139288762Y-96002929D01*
X139288762Y-96123881D01*
X139349238Y-96244833D01*
X139409714Y-96305310D01*
X139530667Y-96365786D01*
X139954000Y-96365786D01*
X137293048Y-96365786D02*
X137111619Y-96426262D01*
X137051143Y-96486738D01*
X136990667Y-96607690D01*
X136990667Y-96789119D01*
X137051143Y-96910071D01*
X137111619Y-96970548D01*
X137232572Y-97031024D01*
X137716381Y-97031024D01*
X137716381Y-95761024D01*
X137293048Y-95761024D01*
X137172095Y-95821500D01*
X137111619Y-95881976D01*
X137051143Y-96002929D01*
X137051143Y-96123881D01*
X137111619Y-96244833D01*
X137172095Y-96305310D01*
X137293048Y-96365786D01*
X137716381Y-96365786D01*
X136446381Y-97031024D02*
X136446381Y-96184357D01*
X136446381Y-96426262D02*
X136385905Y-96305310D01*
X136325429Y-96244833D01*
X136204476Y-96184357D01*
X136083524Y-96184357D01*
X135176382Y-96970548D02*
X135297334Y-97031024D01*
X135539239Y-97031024D01*
X135660191Y-96970548D01*
X135720667Y-96849595D01*
X135720667Y-96365786D01*
X135660191Y-96244833D01*
X135539239Y-96184357D01*
X135297334Y-96184357D01*
X135176382Y-96244833D01*
X135115905Y-96365786D01*
X135115905Y-96486738D01*
X135720667Y-96607690D01*
X134027334Y-97031024D02*
X134027334Y-96365786D01*
X134087811Y-96244833D01*
X134208763Y-96184357D01*
X134450668Y-96184357D01*
X134571620Y-96244833D01*
X134027334Y-96970548D02*
X134148287Y-97031024D01*
X134450668Y-97031024D01*
X134571620Y-96970548D01*
X134632096Y-96849595D01*
X134632096Y-96728643D01*
X134571620Y-96607690D01*
X134450668Y-96547214D01*
X134148287Y-96547214D01*
X134027334Y-96486738D01*
X133422572Y-97031024D02*
X133422572Y-95761024D01*
X133301620Y-96547214D02*
X132938763Y-97031024D01*
X132938763Y-96184357D02*
X133422572Y-96668167D01*
X132213048Y-97031024D02*
X132334001Y-96970548D01*
X132394477Y-96910071D01*
X132454953Y-96789119D01*
X132454953Y-96426262D01*
X132394477Y-96305310D01*
X132334001Y-96244833D01*
X132213048Y-96184357D01*
X132031620Y-96184357D01*
X131910668Y-96244833D01*
X131850191Y-96305310D01*
X131789715Y-96426262D01*
X131789715Y-96789119D01*
X131850191Y-96910071D01*
X131910668Y-96970548D01*
X132031620Y-97031024D01*
X132213048Y-97031024D01*
X130701143Y-96184357D02*
X130701143Y-97031024D01*
X131245429Y-96184357D02*
X131245429Y-96849595D01*
X131184953Y-96970548D01*
X131064000Y-97031024D01*
X130882572Y-97031024D01*
X130761620Y-96970548D01*
X130701143Y-96910071D01*
X130277810Y-96184357D02*
X129794000Y-96184357D01*
X130096381Y-95761024D02*
X130096381Y-96849595D01*
X130035905Y-96970548D01*
X129914952Y-97031024D01*
X129794000Y-97031024D01*
X128524000Y-96184357D02*
X128221619Y-97031024D01*
X127919239Y-96184357D01*
X126770191Y-97031024D02*
X127495905Y-97031024D01*
X127133048Y-97031024D02*
X127133048Y-95761024D01*
X127254000Y-95942452D01*
X127374953Y-96063405D01*
X127495905Y-96123881D01*
X126225905Y-96910071D02*
X126165429Y-96970548D01*
X126225905Y-97031024D01*
X126286381Y-96970548D01*
X126225905Y-96910071D01*
X126225905Y-97031024D01*
X125379238Y-95761024D02*
X125258286Y-95761024D01*
X125137334Y-95821500D01*
X125076857Y-95881976D01*
X125016381Y-96002929D01*
X124955905Y-96244833D01*
X124955905Y-96547214D01*
X125016381Y-96789119D01*
X125076857Y-96910071D01*
X125137334Y-96970548D01*
X125258286Y-97031024D01*
X125379238Y-97031024D01*
X125500191Y-96970548D01*
X125560667Y-96910071D01*
X125621143Y-96789119D01*
X125681619Y-96547214D01*
X125681619Y-96244833D01*
X125621143Y-96002929D01*
X125560667Y-95881976D01*
X125500191Y-95821500D01*
X125379238Y-95761024D01*
X138865431Y-99613357D02*
X139167812Y-99613357D01*
X139167812Y-97799071D01*
X138865431Y-97799071D01*
X138563050Y-97920024D02*
X137837335Y-97920024D01*
X138200192Y-99190024D02*
X138200192Y-97920024D01*
X137414002Y-99190024D02*
X137414002Y-97920024D01*
X136869716Y-99190024D02*
X136869716Y-98524786D01*
X136930193Y-98403833D01*
X137051145Y-98343357D01*
X137232573Y-98343357D01*
X137353526Y-98403833D01*
X137414002Y-98464310D01*
X136264954Y-99190024D02*
X136264954Y-98343357D01*
X136264954Y-98585262D02*
X136204478Y-98464310D01*
X136144002Y-98403833D01*
X136023049Y-98343357D01*
X135902097Y-98343357D01*
X135297335Y-99190024D02*
X135418288Y-99129548D01*
X135478764Y-99069071D01*
X135539240Y-98948119D01*
X135539240Y-98585262D01*
X135478764Y-98464310D01*
X135418288Y-98403833D01*
X135297335Y-98343357D01*
X135115907Y-98343357D01*
X134994955Y-98403833D01*
X134934478Y-98464310D01*
X134874002Y-98585262D01*
X134874002Y-98948119D01*
X134934478Y-99069071D01*
X134994955Y-99129548D01*
X135115907Y-99190024D01*
X135297335Y-99190024D01*
X133785430Y-98343357D02*
X133785430Y-99190024D01*
X134329716Y-98343357D02*
X134329716Y-99008595D01*
X134269240Y-99129548D01*
X134148287Y-99190024D01*
X133966859Y-99190024D01*
X133845907Y-99129548D01*
X133785430Y-99069071D01*
X132636382Y-98343357D02*
X132636382Y-99371452D01*
X132696859Y-99492405D01*
X132757335Y-99552881D01*
X132878287Y-99613357D01*
X133059716Y-99613357D01*
X133180668Y-99552881D01*
X132636382Y-99129548D02*
X132757335Y-99190024D01*
X132999239Y-99190024D01*
X133120192Y-99129548D01*
X133180668Y-99069071D01*
X133241144Y-98948119D01*
X133241144Y-98585262D01*
X133180668Y-98464310D01*
X133120192Y-98403833D01*
X132999239Y-98343357D01*
X132757335Y-98343357D01*
X132636382Y-98403833D01*
X132031620Y-99190024D02*
X132031620Y-97920024D01*
X131487334Y-99190024D02*
X131487334Y-98524786D01*
X131547811Y-98403833D01*
X131668763Y-98343357D01*
X131850191Y-98343357D01*
X131971144Y-98403833D01*
X132031620Y-98464310D01*
X130882572Y-98706214D02*
X129914953Y-98706214D01*
X129310191Y-99190024D02*
X129310191Y-97920024D01*
X128765905Y-99190024D02*
X128765905Y-98524786D01*
X128826382Y-98403833D01*
X128947334Y-98343357D01*
X129128762Y-98343357D01*
X129249715Y-98403833D01*
X129310191Y-98464310D01*
X127979714Y-99190024D02*
X128100667Y-99129548D01*
X128161143Y-99069071D01*
X128221619Y-98948119D01*
X128221619Y-98585262D01*
X128161143Y-98464310D01*
X128100667Y-98403833D01*
X127979714Y-98343357D01*
X127798286Y-98343357D01*
X127677334Y-98403833D01*
X127616857Y-98464310D01*
X127556381Y-98585262D01*
X127556381Y-98948119D01*
X127616857Y-99069071D01*
X127677334Y-99129548D01*
X127798286Y-99190024D01*
X127979714Y-99190024D01*
X126830666Y-99190024D02*
X126951619Y-99129548D01*
X127012095Y-99008595D01*
X127012095Y-97920024D01*
X125863048Y-99129548D02*
X125984000Y-99190024D01*
X126225905Y-99190024D01*
X126346857Y-99129548D01*
X126407333Y-99008595D01*
X126407333Y-98524786D01*
X126346857Y-98403833D01*
X126225905Y-98343357D01*
X125984000Y-98343357D01*
X125863048Y-98403833D01*
X125802571Y-98524786D01*
X125802571Y-98645738D01*
X126407333Y-98766690D01*
X125379238Y-99613357D02*
X125076857Y-99613357D01*
X125076857Y-97799071D01*
X125379238Y-97799071D01*
M02*
