%TF.GenerationSoftware,KiCad,Pcbnew,4.0.4+e1-6308~48~ubuntu14.04.1-stable*%
%TF.CreationDate,2016-11-21T12:40:55-08:00*%
%TF.ProjectId,usb-breakout,7573622D627265616B6F75742E6B6963,rev?*%
%TF.FileFunction,Other,Fab,Top*%
%FSLAX46Y46*%
G04 Gerber Fmt 4.6, Leading zero omitted, Abs format (unit mm)*
G04 Created by KiCad (PCBNEW 4.0.4+e1-6308~48~ubuntu14.04.1-stable) date Mon Nov 21 12:40:55 2016*
%MOMM*%
%LPD*%
G01*
G04 APERTURE LIST*
%ADD10C,0.350000*%
%ADD11C,0.152400*%
%ADD12C,0.050000*%
%ADD13C,0.050800*%
%ADD14C,0.254000*%
%ADD15C,0.150000*%
G04 APERTURE END LIST*
D10*
D11*
X139681857Y-110314619D02*
X139101286Y-110314619D01*
X139391572Y-110314619D02*
X139391572Y-109298619D01*
X139294810Y-109443762D01*
X139198048Y-109540524D01*
X139101286Y-109588905D01*
X140649476Y-110314619D02*
X140068905Y-110314619D01*
X140359191Y-110314619D02*
X140359191Y-109298619D01*
X140262429Y-109443762D01*
X140165667Y-109540524D01*
X140068905Y-109588905D01*
X141810619Y-109250238D02*
X140939762Y-110556524D01*
X142100905Y-109395381D02*
X142149286Y-109347000D01*
X142246048Y-109298619D01*
X142487952Y-109298619D01*
X142584714Y-109347000D01*
X142633095Y-109395381D01*
X142681476Y-109492143D01*
X142681476Y-109588905D01*
X142633095Y-109734048D01*
X142052524Y-110314619D01*
X142681476Y-110314619D01*
X143649095Y-110314619D02*
X143068524Y-110314619D01*
X143358810Y-110314619D02*
X143358810Y-109298619D01*
X143262048Y-109443762D01*
X143165286Y-109540524D01*
X143068524Y-109588905D01*
X144810238Y-109250238D02*
X143939381Y-110556524D01*
X145681095Y-110314619D02*
X145100524Y-110314619D01*
X145390810Y-110314619D02*
X145390810Y-109298619D01*
X145294048Y-109443762D01*
X145197286Y-109540524D01*
X145100524Y-109588905D01*
X146551952Y-109298619D02*
X146358429Y-109298619D01*
X146261667Y-109347000D01*
X146213286Y-109395381D01*
X146116524Y-109540524D01*
X146068143Y-109734048D01*
X146068143Y-110121095D01*
X146116524Y-110217857D01*
X146164905Y-110266238D01*
X146261667Y-110314619D01*
X146455190Y-110314619D01*
X146551952Y-110266238D01*
X146600333Y-110217857D01*
X146648714Y-110121095D01*
X146648714Y-109879190D01*
X146600333Y-109782429D01*
X146551952Y-109734048D01*
X146455190Y-109685667D01*
X146261667Y-109685667D01*
X146164905Y-109734048D01*
X146116524Y-109782429D01*
X146068143Y-109879190D01*
X131469192Y-86235419D02*
X131469192Y-87057895D01*
X131517573Y-87154657D01*
X131565954Y-87203038D01*
X131662716Y-87251419D01*
X131856239Y-87251419D01*
X131953001Y-87203038D01*
X132001382Y-87154657D01*
X132049763Y-87057895D01*
X132049763Y-86235419D01*
X132485192Y-87203038D02*
X132630335Y-87251419D01*
X132872239Y-87251419D01*
X132969001Y-87203038D01*
X133017382Y-87154657D01*
X133065763Y-87057895D01*
X133065763Y-86961133D01*
X133017382Y-86864371D01*
X132969001Y-86815990D01*
X132872239Y-86767610D01*
X132678716Y-86719229D01*
X132581954Y-86670848D01*
X132533573Y-86622467D01*
X132485192Y-86525705D01*
X132485192Y-86428943D01*
X132533573Y-86332181D01*
X132581954Y-86283800D01*
X132678716Y-86235419D01*
X132920620Y-86235419D01*
X133065763Y-86283800D01*
X133839858Y-86719229D02*
X133985001Y-86767610D01*
X134033382Y-86815990D01*
X134081763Y-86912752D01*
X134081763Y-87057895D01*
X134033382Y-87154657D01*
X133985001Y-87203038D01*
X133888239Y-87251419D01*
X133501192Y-87251419D01*
X133501192Y-86235419D01*
X133839858Y-86235419D01*
X133936620Y-86283800D01*
X133985001Y-86332181D01*
X134033382Y-86428943D01*
X134033382Y-86525705D01*
X133985001Y-86622467D01*
X133936620Y-86670848D01*
X133839858Y-86719229D01*
X133501192Y-86719229D01*
X135629953Y-86719229D02*
X135775096Y-86767610D01*
X135823477Y-86815990D01*
X135871858Y-86912752D01*
X135871858Y-87057895D01*
X135823477Y-87154657D01*
X135775096Y-87203038D01*
X135678334Y-87251419D01*
X135291287Y-87251419D01*
X135291287Y-86235419D01*
X135629953Y-86235419D01*
X135726715Y-86283800D01*
X135775096Y-86332181D01*
X135823477Y-86428943D01*
X135823477Y-86525705D01*
X135775096Y-86622467D01*
X135726715Y-86670848D01*
X135629953Y-86719229D01*
X135291287Y-86719229D01*
X136307287Y-87251419D02*
X136307287Y-86574086D01*
X136307287Y-86767610D02*
X136355668Y-86670848D01*
X136404049Y-86622467D01*
X136500811Y-86574086D01*
X136597572Y-86574086D01*
X137323286Y-87203038D02*
X137226524Y-87251419D01*
X137033001Y-87251419D01*
X136936239Y-87203038D01*
X136887858Y-87106276D01*
X136887858Y-86719229D01*
X136936239Y-86622467D01*
X137033001Y-86574086D01*
X137226524Y-86574086D01*
X137323286Y-86622467D01*
X137371667Y-86719229D01*
X137371667Y-86815990D01*
X136887858Y-86912752D01*
X138242524Y-87251419D02*
X138242524Y-86719229D01*
X138194143Y-86622467D01*
X138097381Y-86574086D01*
X137903858Y-86574086D01*
X137807096Y-86622467D01*
X138242524Y-87203038D02*
X138145762Y-87251419D01*
X137903858Y-87251419D01*
X137807096Y-87203038D01*
X137758715Y-87106276D01*
X137758715Y-87009514D01*
X137807096Y-86912752D01*
X137903858Y-86864371D01*
X138145762Y-86864371D01*
X138242524Y-86815990D01*
X138726334Y-87251419D02*
X138726334Y-86235419D01*
X138823096Y-86864371D02*
X139113381Y-87251419D01*
X139113381Y-86574086D02*
X138726334Y-86961133D01*
X139693953Y-87251419D02*
X139597191Y-87203038D01*
X139548810Y-87154657D01*
X139500429Y-87057895D01*
X139500429Y-86767610D01*
X139548810Y-86670848D01*
X139597191Y-86622467D01*
X139693953Y-86574086D01*
X139839095Y-86574086D01*
X139935857Y-86622467D01*
X139984238Y-86670848D01*
X140032619Y-86767610D01*
X140032619Y-87057895D01*
X139984238Y-87154657D01*
X139935857Y-87203038D01*
X139839095Y-87251419D01*
X139693953Y-87251419D01*
X140903476Y-86574086D02*
X140903476Y-87251419D01*
X140468048Y-86574086D02*
X140468048Y-87106276D01*
X140516429Y-87203038D01*
X140613191Y-87251419D01*
X140758333Y-87251419D01*
X140855095Y-87203038D01*
X140903476Y-87154657D01*
X141242143Y-86574086D02*
X141629191Y-86574086D01*
X141387286Y-86235419D02*
X141387286Y-87106276D01*
X141435667Y-87203038D01*
X141532429Y-87251419D01*
X141629191Y-87251419D01*
X143080618Y-86719229D02*
X143225761Y-86767610D01*
X143274142Y-86815990D01*
X143322523Y-86912752D01*
X143322523Y-87057895D01*
X143274142Y-87154657D01*
X143225761Y-87203038D01*
X143128999Y-87251419D01*
X142741952Y-87251419D01*
X142741952Y-86235419D01*
X143080618Y-86235419D01*
X143177380Y-86283800D01*
X143225761Y-86332181D01*
X143274142Y-86428943D01*
X143274142Y-86525705D01*
X143225761Y-86622467D01*
X143177380Y-86670848D01*
X143080618Y-86719229D01*
X142741952Y-86719229D01*
X143903095Y-87251419D02*
X143806333Y-87203038D01*
X143757952Y-87154657D01*
X143709571Y-87057895D01*
X143709571Y-86767610D01*
X143757952Y-86670848D01*
X143806333Y-86622467D01*
X143903095Y-86574086D01*
X144048237Y-86574086D01*
X144144999Y-86622467D01*
X144193380Y-86670848D01*
X144241761Y-86767610D01*
X144241761Y-87057895D01*
X144193380Y-87154657D01*
X144144999Y-87203038D01*
X144048237Y-87251419D01*
X143903095Y-87251419D01*
X145112618Y-87251419D02*
X145112618Y-86719229D01*
X145064237Y-86622467D01*
X144967475Y-86574086D01*
X144773952Y-86574086D01*
X144677190Y-86622467D01*
X145112618Y-87203038D02*
X145015856Y-87251419D01*
X144773952Y-87251419D01*
X144677190Y-87203038D01*
X144628809Y-87106276D01*
X144628809Y-87009514D01*
X144677190Y-86912752D01*
X144773952Y-86864371D01*
X145015856Y-86864371D01*
X145112618Y-86815990D01*
X145596428Y-87251419D02*
X145596428Y-86574086D01*
X145596428Y-86767610D02*
X145644809Y-86670848D01*
X145693190Y-86622467D01*
X145789952Y-86574086D01*
X145886713Y-86574086D01*
X146660808Y-87251419D02*
X146660808Y-86235419D01*
X146660808Y-87203038D02*
X146564046Y-87251419D01*
X146370523Y-87251419D01*
X146273761Y-87203038D01*
X146225380Y-87154657D01*
X146176999Y-87057895D01*
X146176999Y-86767610D01*
X146225380Y-86670848D01*
X146273761Y-86622467D01*
X146370523Y-86574086D01*
X146564046Y-86574086D01*
X146660808Y-86622467D01*
X131928811Y-87911819D02*
X132509382Y-87911819D01*
X132219097Y-88927819D02*
X132219097Y-87911819D01*
X132848049Y-88927819D02*
X132848049Y-87911819D01*
X133283477Y-88927819D02*
X133283477Y-88395629D01*
X133235096Y-88298867D01*
X133138334Y-88250486D01*
X132993192Y-88250486D01*
X132896430Y-88298867D01*
X132848049Y-88347248D01*
X133767287Y-88927819D02*
X133767287Y-88250486D01*
X133767287Y-88444010D02*
X133815668Y-88347248D01*
X133864049Y-88298867D01*
X133960811Y-88250486D01*
X134057572Y-88250486D01*
X134541382Y-88927819D02*
X134444620Y-88879438D01*
X134396239Y-88831057D01*
X134347858Y-88734295D01*
X134347858Y-88444010D01*
X134396239Y-88347248D01*
X134444620Y-88298867D01*
X134541382Y-88250486D01*
X134686524Y-88250486D01*
X134783286Y-88298867D01*
X134831667Y-88347248D01*
X134880048Y-88444010D01*
X134880048Y-88734295D01*
X134831667Y-88831057D01*
X134783286Y-88879438D01*
X134686524Y-88927819D01*
X134541382Y-88927819D01*
X135750905Y-88250486D02*
X135750905Y-88927819D01*
X135315477Y-88250486D02*
X135315477Y-88782676D01*
X135363858Y-88879438D01*
X135460620Y-88927819D01*
X135605762Y-88927819D01*
X135702524Y-88879438D01*
X135750905Y-88831057D01*
X136670143Y-88250486D02*
X136670143Y-89072962D01*
X136621762Y-89169724D01*
X136573381Y-89218105D01*
X136476620Y-89266486D01*
X136331477Y-89266486D01*
X136234715Y-89218105D01*
X136670143Y-88879438D02*
X136573381Y-88927819D01*
X136379858Y-88927819D01*
X136283096Y-88879438D01*
X136234715Y-88831057D01*
X136186334Y-88734295D01*
X136186334Y-88444010D01*
X136234715Y-88347248D01*
X136283096Y-88298867D01*
X136379858Y-88250486D01*
X136573381Y-88250486D01*
X136670143Y-88298867D01*
X137153953Y-88927819D02*
X137153953Y-87911819D01*
X137589381Y-88927819D02*
X137589381Y-88395629D01*
X137541000Y-88298867D01*
X137444238Y-88250486D01*
X137299096Y-88250486D01*
X137202334Y-88298867D01*
X137153953Y-88347248D01*
X138073191Y-88540771D02*
X138847286Y-88540771D01*
X139331096Y-88927819D02*
X139331096Y-87911819D01*
X139766524Y-88927819D02*
X139766524Y-88395629D01*
X139718143Y-88298867D01*
X139621381Y-88250486D01*
X139476239Y-88250486D01*
X139379477Y-88298867D01*
X139331096Y-88347248D01*
X140395477Y-88927819D02*
X140298715Y-88879438D01*
X140250334Y-88831057D01*
X140201953Y-88734295D01*
X140201953Y-88444010D01*
X140250334Y-88347248D01*
X140298715Y-88298867D01*
X140395477Y-88250486D01*
X140540619Y-88250486D01*
X140637381Y-88298867D01*
X140685762Y-88347248D01*
X140734143Y-88444010D01*
X140734143Y-88734295D01*
X140685762Y-88831057D01*
X140637381Y-88879438D01*
X140540619Y-88927819D01*
X140395477Y-88927819D01*
X141314715Y-88927819D02*
X141217953Y-88879438D01*
X141169572Y-88782676D01*
X141169572Y-87911819D01*
X142088809Y-88879438D02*
X141992047Y-88927819D01*
X141798524Y-88927819D01*
X141701762Y-88879438D01*
X141653381Y-88782676D01*
X141653381Y-88395629D01*
X141701762Y-88298867D01*
X141798524Y-88250486D01*
X141992047Y-88250486D01*
X142088809Y-88298867D01*
X142137190Y-88395629D01*
X142137190Y-88492390D01*
X141653381Y-88589152D01*
X143249952Y-88250486D02*
X143491857Y-88927819D01*
X143733761Y-88250486D01*
X144652999Y-88927819D02*
X144072428Y-88927819D01*
X144362714Y-88927819D02*
X144362714Y-87911819D01*
X144265952Y-88056962D01*
X144169190Y-88153724D01*
X144072428Y-88202105D01*
X145088428Y-88831057D02*
X145136809Y-88879438D01*
X145088428Y-88927819D01*
X145040047Y-88879438D01*
X145088428Y-88831057D01*
X145088428Y-88927819D01*
X145765762Y-87911819D02*
X145862523Y-87911819D01*
X145959285Y-87960200D01*
X146007666Y-88008581D01*
X146056047Y-88105343D01*
X146104428Y-88298867D01*
X146104428Y-88540771D01*
X146056047Y-88734295D01*
X146007666Y-88831057D01*
X145959285Y-88879438D01*
X145862523Y-88927819D01*
X145765762Y-88927819D01*
X145669000Y-88879438D01*
X145620619Y-88831057D01*
X145572238Y-88734295D01*
X145523857Y-88540771D01*
X145523857Y-88298867D01*
X145572238Y-88105343D01*
X145620619Y-88008581D01*
X145669000Y-87960200D01*
X145765762Y-87911819D01*
X110490000Y-107950000D02*
X142875000Y-107950000D01*
X142875000Y-107950000D02*
G75*
G03X147320000Y-103505000I0J4445000D01*
G01*
X147320000Y-94615000D02*
G75*
G03X142875000Y-90170000I-4445000J0D01*
G01*
X110490000Y-90170000D02*
X142875000Y-90170000D01*
X110490000Y-90170000D02*
G75*
G03X106045000Y-94615000I0J-4445000D01*
G01*
X106045000Y-94615000D02*
X106045000Y-103505000D01*
X106045000Y-103505000D02*
G75*
G03X110490000Y-107950000I4445000J0D01*
G01*
X147320000Y-103505000D02*
X147320000Y-94615000D01*
D12*
X105930400Y-94262800D02*
X111180400Y-94262800D01*
X105930400Y-104262800D02*
X105930400Y-94262800D01*
X111180400Y-104262800D02*
X105930400Y-104262800D01*
X111180400Y-94262800D02*
X111180400Y-104262800D01*
D13*
X146403000Y-105789500D02*
X146403000Y-92039500D01*
X142903000Y-105789500D02*
X146403000Y-105789500D01*
X142903000Y-92039500D02*
X142903000Y-105789500D01*
X146403000Y-92039500D02*
X142903000Y-92039500D01*
X128806100Y-95480000D02*
X139006100Y-95480000D01*
X128806100Y-92480000D02*
X128806100Y-95480000D01*
X128906100Y-92480000D02*
X128806100Y-92480000D01*
X139006100Y-92480000D02*
X128906100Y-92480000D01*
X139006100Y-95480000D02*
X139006100Y-92480000D01*
X113972500Y-98566100D02*
X124172500Y-98566100D01*
X113972500Y-95566100D02*
X113972500Y-98566100D01*
X114072500Y-95566100D02*
X113972500Y-95566100D01*
X124172500Y-95566100D02*
X114072500Y-95566100D01*
X124172500Y-98566100D02*
X124172500Y-95566100D01*
X113972500Y-102426900D02*
X124172500Y-102426900D01*
X113972500Y-99426900D02*
X113972500Y-102426900D01*
X114072500Y-99426900D02*
X113972500Y-99426900D01*
X124172500Y-99426900D02*
X114072500Y-99426900D01*
X124172500Y-102426900D02*
X124172500Y-99426900D01*
D12*
X138325100Y-106460300D02*
X138325100Y-100460300D01*
X130325100Y-106460300D02*
X138325100Y-106460300D01*
X130325100Y-100460300D02*
X130325100Y-106460300D01*
X138325100Y-100460300D02*
X130325100Y-100460300D01*
D13*
X113981100Y-91597540D02*
X113981100Y-91847540D01*
X127231100Y-91597540D02*
X113981100Y-91597540D01*
X127231100Y-95097540D02*
X127231100Y-91597540D01*
X126981100Y-95097540D02*
X127231100Y-95097540D01*
X113981100Y-95097540D02*
X126981100Y-95097540D01*
X113981100Y-91847540D02*
X113981100Y-95097540D01*
X114981100Y-91597540D02*
X114981100Y-95097540D01*
X113981100Y-103548240D02*
X113981100Y-103798240D01*
X127231100Y-103548240D02*
X113981100Y-103548240D01*
X127231100Y-107048240D02*
X127231100Y-103548240D01*
X126981100Y-107048240D02*
X127231100Y-107048240D01*
X113981100Y-107048240D02*
X126981100Y-107048240D01*
X113981100Y-103798240D02*
X113981100Y-107048240D01*
X114981100Y-103548240D02*
X114981100Y-107048240D01*
D14*
X108003067Y-97947238D02*
X108003067Y-99398667D01*
X107906305Y-99688952D01*
X107712781Y-99882476D01*
X107422496Y-99979238D01*
X107228972Y-99979238D01*
X110035066Y-99979238D02*
X108873924Y-99979238D01*
X109454495Y-99979238D02*
X109454495Y-97947238D01*
X109260971Y-98237524D01*
X109067447Y-98431048D01*
X108873924Y-98527810D01*
X143975667Y-97926738D02*
X143975667Y-99378167D01*
X143878905Y-99668452D01*
X143685381Y-99861976D01*
X143395096Y-99958738D01*
X143201572Y-99958738D01*
X144846524Y-98120262D02*
X144943286Y-98023500D01*
X145136809Y-97926738D01*
X145620619Y-97926738D01*
X145814143Y-98023500D01*
X145910905Y-98120262D01*
X146007666Y-98313786D01*
X146007666Y-98507310D01*
X145910905Y-98797595D01*
X144749762Y-99958738D01*
X146007666Y-99958738D01*
D15*
X133739434Y-94432381D02*
X133406100Y-93956190D01*
X133168005Y-94432381D02*
X133168005Y-93432381D01*
X133548958Y-93432381D01*
X133644196Y-93480000D01*
X133691815Y-93527619D01*
X133739434Y-93622857D01*
X133739434Y-93765714D01*
X133691815Y-93860952D01*
X133644196Y-93908571D01*
X133548958Y-93956190D01*
X133168005Y-93956190D01*
X134691815Y-94432381D02*
X134120386Y-94432381D01*
X134406100Y-94432381D02*
X134406100Y-93432381D01*
X134310862Y-93575238D01*
X134215624Y-93670476D01*
X134120386Y-93718095D01*
X118905834Y-97518481D02*
X118572500Y-97042290D01*
X118334405Y-97518481D02*
X118334405Y-96518481D01*
X118715358Y-96518481D01*
X118810596Y-96566100D01*
X118858215Y-96613719D01*
X118905834Y-96708957D01*
X118905834Y-96851814D01*
X118858215Y-96947052D01*
X118810596Y-96994671D01*
X118715358Y-97042290D01*
X118334405Y-97042290D01*
X119286786Y-96613719D02*
X119334405Y-96566100D01*
X119429643Y-96518481D01*
X119667739Y-96518481D01*
X119762977Y-96566100D01*
X119810596Y-96613719D01*
X119858215Y-96708957D01*
X119858215Y-96804195D01*
X119810596Y-96947052D01*
X119239167Y-97518481D01*
X119858215Y-97518481D01*
X118905834Y-101379281D02*
X118572500Y-100903090D01*
X118334405Y-101379281D02*
X118334405Y-100379281D01*
X118715358Y-100379281D01*
X118810596Y-100426900D01*
X118858215Y-100474519D01*
X118905834Y-100569757D01*
X118905834Y-100712614D01*
X118858215Y-100807852D01*
X118810596Y-100855471D01*
X118715358Y-100903090D01*
X118334405Y-100903090D01*
X119239167Y-100379281D02*
X119858215Y-100379281D01*
X119524881Y-100760233D01*
X119667739Y-100760233D01*
X119762977Y-100807852D01*
X119810596Y-100855471D01*
X119858215Y-100950710D01*
X119858215Y-101188805D01*
X119810596Y-101284043D01*
X119762977Y-101331662D01*
X119667739Y-101379281D01*
X119382024Y-101379281D01*
X119286786Y-101331662D01*
X119239167Y-101284043D01*
X132991767Y-103865062D02*
X133134624Y-103912681D01*
X133372720Y-103912681D01*
X133467958Y-103865062D01*
X133515577Y-103817443D01*
X133563196Y-103722205D01*
X133563196Y-103626967D01*
X133515577Y-103531729D01*
X133467958Y-103484110D01*
X133372720Y-103436490D01*
X133182243Y-103388871D01*
X133087005Y-103341252D01*
X133039386Y-103293633D01*
X132991767Y-103198395D01*
X132991767Y-103103157D01*
X133039386Y-103007919D01*
X133087005Y-102960300D01*
X133182243Y-102912681D01*
X133420339Y-102912681D01*
X133563196Y-102960300D01*
X133896529Y-102912681D02*
X134134624Y-103912681D01*
X134325101Y-103198395D01*
X134515577Y-103912681D01*
X134753672Y-102912681D01*
X135658434Y-103912681D02*
X135087005Y-103912681D01*
X135372719Y-103912681D02*
X135372719Y-102912681D01*
X135277481Y-103055538D01*
X135182243Y-103150776D01*
X135087005Y-103198395D01*
D14*
X119231291Y-94266778D02*
X119231291Y-92234778D01*
X119715100Y-92234778D01*
X120005386Y-92331540D01*
X120198910Y-92525064D01*
X120295671Y-92718588D01*
X120392433Y-93105635D01*
X120392433Y-93395921D01*
X120295671Y-93782969D01*
X120198910Y-93976492D01*
X120005386Y-94170016D01*
X119715100Y-94266778D01*
X119231291Y-94266778D01*
X122327671Y-94266778D02*
X121166529Y-94266778D01*
X121747100Y-94266778D02*
X121747100Y-92234778D01*
X121553576Y-92525064D01*
X121360052Y-92718588D01*
X121166529Y-92815350D01*
X119231291Y-106217478D02*
X119231291Y-104185478D01*
X119715100Y-104185478D01*
X120005386Y-104282240D01*
X120198910Y-104475764D01*
X120295671Y-104669288D01*
X120392433Y-105056335D01*
X120392433Y-105346621D01*
X120295671Y-105733669D01*
X120198910Y-105927192D01*
X120005386Y-106120716D01*
X119715100Y-106217478D01*
X119231291Y-106217478D01*
X121166529Y-104379002D02*
X121263291Y-104282240D01*
X121456814Y-104185478D01*
X121940624Y-104185478D01*
X122134148Y-104282240D01*
X122230910Y-104379002D01*
X122327671Y-104572526D01*
X122327671Y-104766050D01*
X122230910Y-105056335D01*
X121069767Y-106217478D01*
X122327671Y-106217478D01*
M02*
