M48
;DRILL file {KiCad 4.0.4+e1-6308~48~ubuntu16.04.1-stable} date Sat Dec 31 16:39:50 2016
;FORMAT={-:-/ absolute / metric / decimal}
FMAT,2
METRIC,TZ
T1C1.000
T2C1.001
T3C1.016
T4C1.200
T5C1.270
%
G90
G05
M71
T1
X110.49Y-97.155
X110.49Y-102.155
X131.325Y-101.46
X131.325Y-105.46
X137.325Y-101.46
X137.325Y-105.46
T2
X115.481Y-93.345
X115.481Y-105.296
X116.078Y-101.092
X116.095Y-97.536
X125.078Y-101.092
X125.095Y-97.536
X129.794Y-93.98
X138.794Y-93.98
T3
X144.653Y-93.789
X144.653Y-96.329
X144.653Y-98.87
X144.653Y-101.409
X144.653Y-103.95
T4
X103.62Y-95.713
X103.62Y-102.813
T5
X125.641Y-93.345
X125.641Y-105.296
T0
M30
