%TF.GenerationSoftware,KiCad,Pcbnew,4.0.4+e1-6308~48~ubuntu16.04.1-stable*%
%TF.CreationDate,2016-12-31T16:39:50-08:00*%
%TF.ProjectId,usb-breakout,7573622D627265616B6F75742E6B6963,v1.1*%
%TF.FileFunction,Legend,Top*%
%FSLAX46Y46*%
G04 Gerber Fmt 4.6, Leading zero omitted, Abs format (unit mm)*
G04 Created by KiCad (PCBNEW 4.0.4+e1-6308~48~ubuntu16.04.1-stable) date Sat Dec 31 16:39:50 2016*
%MOMM*%
%LPD*%
G01*
G04 APERTURE LIST*
%ADD10C,0.350000*%
%ADD11C,0.152400*%
%ADD12C,0.203200*%
%ADD13C,0.150000*%
G04 APERTURE END LIST*
D10*
D11*
X109885238Y-100281619D02*
X109304667Y-100281619D01*
X109594953Y-100281619D02*
X109594953Y-99265619D01*
X109498191Y-99410762D01*
X109401429Y-99507524D01*
X109304667Y-99555905D01*
X110756095Y-99604286D02*
X110756095Y-100281619D01*
X110320667Y-99604286D02*
X110320667Y-100136476D01*
X110369048Y-100233238D01*
X110465810Y-100281619D01*
X110610952Y-100281619D01*
X110707714Y-100233238D01*
X110756095Y-100184857D01*
X111578571Y-99749429D02*
X111239905Y-99749429D01*
X111239905Y-100281619D02*
X111239905Y-99265619D01*
X111723714Y-99265619D01*
X119785191Y-104853619D02*
X120414143Y-104853619D01*
X120075477Y-105240667D01*
X120220619Y-105240667D01*
X120317381Y-105289048D01*
X120365762Y-105337429D01*
X120414143Y-105434190D01*
X120414143Y-105676095D01*
X120365762Y-105772857D01*
X120317381Y-105821238D01*
X120220619Y-105869619D01*
X119930334Y-105869619D01*
X119833572Y-105821238D01*
X119785191Y-105772857D01*
X120849572Y-105772857D02*
X120897953Y-105821238D01*
X120849572Y-105869619D01*
X120801191Y-105821238D01*
X120849572Y-105772857D01*
X120849572Y-105869619D01*
X121768810Y-104853619D02*
X121575287Y-104853619D01*
X121478525Y-104902000D01*
X121430144Y-104950381D01*
X121333382Y-105095524D01*
X121285001Y-105289048D01*
X121285001Y-105676095D01*
X121333382Y-105772857D01*
X121381763Y-105821238D01*
X121478525Y-105869619D01*
X121672048Y-105869619D01*
X121768810Y-105821238D01*
X121817191Y-105772857D01*
X121865572Y-105676095D01*
X121865572Y-105434190D01*
X121817191Y-105337429D01*
X121768810Y-105289048D01*
X121672048Y-105240667D01*
X121478525Y-105240667D01*
X121381763Y-105289048D01*
X121333382Y-105337429D01*
X121285001Y-105434190D01*
X122155858Y-104853619D02*
X122494525Y-105869619D01*
X122833191Y-104853619D01*
X119785191Y-92788619D02*
X120414143Y-92788619D01*
X120075477Y-93175667D01*
X120220619Y-93175667D01*
X120317381Y-93224048D01*
X120365762Y-93272429D01*
X120414143Y-93369190D01*
X120414143Y-93611095D01*
X120365762Y-93707857D01*
X120317381Y-93756238D01*
X120220619Y-93804619D01*
X119930334Y-93804619D01*
X119833572Y-93756238D01*
X119785191Y-93707857D01*
X120849572Y-93707857D02*
X120897953Y-93756238D01*
X120849572Y-93804619D01*
X120801191Y-93756238D01*
X120849572Y-93707857D01*
X120849572Y-93804619D01*
X121768810Y-92788619D02*
X121575287Y-92788619D01*
X121478525Y-92837000D01*
X121430144Y-92885381D01*
X121333382Y-93030524D01*
X121285001Y-93224048D01*
X121285001Y-93611095D01*
X121333382Y-93707857D01*
X121381763Y-93756238D01*
X121478525Y-93804619D01*
X121672048Y-93804619D01*
X121768810Y-93756238D01*
X121817191Y-93707857D01*
X121865572Y-93611095D01*
X121865572Y-93369190D01*
X121817191Y-93272429D01*
X121768810Y-93224048D01*
X121672048Y-93175667D01*
X121478525Y-93175667D01*
X121381763Y-93224048D01*
X121333382Y-93272429D01*
X121285001Y-93369190D01*
X122155858Y-92788619D02*
X122494525Y-93804619D01*
X122833191Y-92788619D01*
X133041571Y-94439619D02*
X132461000Y-94439619D01*
X132751286Y-94439619D02*
X132751286Y-93423619D01*
X132654524Y-93568762D01*
X132557762Y-93665524D01*
X132461000Y-93713905D01*
X133477000Y-94342857D02*
X133525381Y-94391238D01*
X133477000Y-94439619D01*
X133428619Y-94391238D01*
X133477000Y-94342857D01*
X133477000Y-94439619D01*
X134444619Y-93423619D02*
X133960810Y-93423619D01*
X133912429Y-93907429D01*
X133960810Y-93859048D01*
X134057572Y-93810667D01*
X134299476Y-93810667D01*
X134396238Y-93859048D01*
X134444619Y-93907429D01*
X134493000Y-94004190D01*
X134493000Y-94246095D01*
X134444619Y-94342857D01*
X134396238Y-94391238D01*
X134299476Y-94439619D01*
X134057572Y-94439619D01*
X133960810Y-94391238D01*
X133912429Y-94342857D01*
X134928429Y-94439619D02*
X134928429Y-93423619D01*
X135509000Y-94439619D02*
X135073572Y-93859048D01*
X135509000Y-93423619D02*
X134928429Y-94004190D01*
X119380000Y-100535619D02*
X119186477Y-100535619D01*
X119089715Y-100584000D01*
X119041334Y-100632381D01*
X118944572Y-100777524D01*
X118896191Y-100971048D01*
X118896191Y-101358095D01*
X118944572Y-101454857D01*
X118992953Y-101503238D01*
X119089715Y-101551619D01*
X119283238Y-101551619D01*
X119380000Y-101503238D01*
X119428381Y-101454857D01*
X119476762Y-101358095D01*
X119476762Y-101116190D01*
X119428381Y-101019429D01*
X119380000Y-100971048D01*
X119283238Y-100922667D01*
X119089715Y-100922667D01*
X118992953Y-100971048D01*
X118944572Y-101019429D01*
X118896191Y-101116190D01*
X120347619Y-100535619D02*
X120154096Y-100535619D01*
X120057334Y-100584000D01*
X120008953Y-100632381D01*
X119912191Y-100777524D01*
X119863810Y-100971048D01*
X119863810Y-101358095D01*
X119912191Y-101454857D01*
X119960572Y-101503238D01*
X120057334Y-101551619D01*
X120250857Y-101551619D01*
X120347619Y-101503238D01*
X120396000Y-101454857D01*
X120444381Y-101358095D01*
X120444381Y-101116190D01*
X120396000Y-101019429D01*
X120347619Y-100971048D01*
X120250857Y-100922667D01*
X120057334Y-100922667D01*
X119960572Y-100971048D01*
X119912191Y-101019429D01*
X119863810Y-101116190D01*
X120879810Y-101454857D02*
X120928191Y-101503238D01*
X120879810Y-101551619D01*
X120831429Y-101503238D01*
X120879810Y-101454857D01*
X120879810Y-101551619D01*
X121847429Y-100535619D02*
X121363620Y-100535619D01*
X121315239Y-101019429D01*
X121363620Y-100971048D01*
X121460382Y-100922667D01*
X121702286Y-100922667D01*
X121799048Y-100971048D01*
X121847429Y-101019429D01*
X121895810Y-101116190D01*
X121895810Y-101358095D01*
X121847429Y-101454857D01*
X121799048Y-101503238D01*
X121702286Y-101551619D01*
X121460382Y-101551619D01*
X121363620Y-101503238D01*
X121315239Y-101454857D01*
X119380000Y-96979619D02*
X119186477Y-96979619D01*
X119089715Y-97028000D01*
X119041334Y-97076381D01*
X118944572Y-97221524D01*
X118896191Y-97415048D01*
X118896191Y-97802095D01*
X118944572Y-97898857D01*
X118992953Y-97947238D01*
X119089715Y-97995619D01*
X119283238Y-97995619D01*
X119380000Y-97947238D01*
X119428381Y-97898857D01*
X119476762Y-97802095D01*
X119476762Y-97560190D01*
X119428381Y-97463429D01*
X119380000Y-97415048D01*
X119283238Y-97366667D01*
X119089715Y-97366667D01*
X118992953Y-97415048D01*
X118944572Y-97463429D01*
X118896191Y-97560190D01*
X120347619Y-96979619D02*
X120154096Y-96979619D01*
X120057334Y-97028000D01*
X120008953Y-97076381D01*
X119912191Y-97221524D01*
X119863810Y-97415048D01*
X119863810Y-97802095D01*
X119912191Y-97898857D01*
X119960572Y-97947238D01*
X120057334Y-97995619D01*
X120250857Y-97995619D01*
X120347619Y-97947238D01*
X120396000Y-97898857D01*
X120444381Y-97802095D01*
X120444381Y-97560190D01*
X120396000Y-97463429D01*
X120347619Y-97415048D01*
X120250857Y-97366667D01*
X120057334Y-97366667D01*
X119960572Y-97415048D01*
X119912191Y-97463429D01*
X119863810Y-97560190D01*
X120879810Y-97898857D02*
X120928191Y-97947238D01*
X120879810Y-97995619D01*
X120831429Y-97947238D01*
X120879810Y-97898857D01*
X120879810Y-97995619D01*
X121847429Y-96979619D02*
X121363620Y-96979619D01*
X121315239Y-97463429D01*
X121363620Y-97415048D01*
X121460382Y-97366667D01*
X121702286Y-97366667D01*
X121799048Y-97415048D01*
X121847429Y-97463429D01*
X121895810Y-97560190D01*
X121895810Y-97802095D01*
X121847429Y-97898857D01*
X121799048Y-97947238D01*
X121702286Y-97995619D01*
X121460382Y-97995619D01*
X121363620Y-97947238D01*
X121315239Y-97898857D01*
X140195905Y-103632000D02*
X140099143Y-103583619D01*
X139954000Y-103583619D01*
X139808858Y-103632000D01*
X139712096Y-103728762D01*
X139663715Y-103825524D01*
X139615334Y-104019048D01*
X139615334Y-104164190D01*
X139663715Y-104357714D01*
X139712096Y-104454476D01*
X139808858Y-104551238D01*
X139954000Y-104599619D01*
X140050762Y-104599619D01*
X140195905Y-104551238D01*
X140244286Y-104502857D01*
X140244286Y-104164190D01*
X140050762Y-104164190D01*
X140679715Y-104599619D02*
X140679715Y-103583619D01*
X141260286Y-104599619D01*
X141260286Y-103583619D01*
X141744096Y-104599619D02*
X141744096Y-103583619D01*
X141986001Y-103583619D01*
X142131143Y-103632000D01*
X142227905Y-103728762D01*
X142276286Y-103825524D01*
X142324667Y-104019048D01*
X142324667Y-104164190D01*
X142276286Y-104357714D01*
X142227905Y-104454476D01*
X142131143Y-104551238D01*
X141986001Y-104599619D01*
X141744096Y-104599619D01*
X140582953Y-102059619D02*
X140244287Y-101575810D01*
X140002382Y-102059619D02*
X140002382Y-101043619D01*
X140389429Y-101043619D01*
X140486191Y-101092000D01*
X140534572Y-101140381D01*
X140582953Y-101237143D01*
X140582953Y-101382286D01*
X140534572Y-101479048D01*
X140486191Y-101527429D01*
X140389429Y-101575810D01*
X140002382Y-101575810D01*
X140970001Y-102011238D02*
X141115144Y-102059619D01*
X141357048Y-102059619D01*
X141453810Y-102011238D01*
X141502191Y-101962857D01*
X141550572Y-101866095D01*
X141550572Y-101769333D01*
X141502191Y-101672571D01*
X141453810Y-101624190D01*
X141357048Y-101575810D01*
X141163525Y-101527429D01*
X141066763Y-101479048D01*
X141018382Y-101430667D01*
X140970001Y-101333905D01*
X140970001Y-101237143D01*
X141018382Y-101140381D01*
X141066763Y-101092000D01*
X141163525Y-101043619D01*
X141405429Y-101043619D01*
X141550572Y-101092000D01*
X141840858Y-101043619D02*
X142421429Y-101043619D01*
X142131144Y-102059619D02*
X142131144Y-101043619D01*
X140486191Y-99519619D02*
X140486191Y-98503619D01*
X140728096Y-98503619D01*
X140873238Y-98552000D01*
X140970000Y-98648762D01*
X141018381Y-98745524D01*
X141066762Y-98939048D01*
X141066762Y-99084190D01*
X141018381Y-99277714D01*
X140970000Y-99374476D01*
X140873238Y-99471238D01*
X140728096Y-99519619D01*
X140486191Y-99519619D01*
X141502191Y-99132571D02*
X142276286Y-99132571D01*
X141889238Y-99519619D02*
X141889238Y-98745524D01*
X140486191Y-96979619D02*
X140486191Y-95963619D01*
X140728096Y-95963619D01*
X140873238Y-96012000D01*
X140970000Y-96108762D01*
X141018381Y-96205524D01*
X141066762Y-96399048D01*
X141066762Y-96544190D01*
X141018381Y-96737714D01*
X140970000Y-96834476D01*
X140873238Y-96931238D01*
X140728096Y-96979619D01*
X140486191Y-96979619D01*
X141502191Y-96592571D02*
X142276286Y-96592571D01*
X141284476Y-93169619D02*
X140800667Y-93169619D01*
X140752286Y-93653429D01*
X140800667Y-93605048D01*
X140897429Y-93556667D01*
X141139333Y-93556667D01*
X141236095Y-93605048D01*
X141284476Y-93653429D01*
X141332857Y-93750190D01*
X141332857Y-93992095D01*
X141284476Y-94088857D01*
X141236095Y-94137238D01*
X141139333Y-94185619D01*
X140897429Y-94185619D01*
X140800667Y-94137238D01*
X140752286Y-94088857D01*
X141623143Y-93169619D02*
X141961810Y-94185619D01*
X142300476Y-93169619D01*
D12*
X132636381Y-99773619D02*
X132297715Y-99289810D01*
X132055810Y-99773619D02*
X132055810Y-98757619D01*
X132442857Y-98757619D01*
X132539619Y-98806000D01*
X132588000Y-98854381D01*
X132636381Y-98951143D01*
X132636381Y-99096286D01*
X132588000Y-99193048D01*
X132539619Y-99241429D01*
X132442857Y-99289810D01*
X132055810Y-99289810D01*
X133071810Y-99241429D02*
X133410476Y-99241429D01*
X133555619Y-99773619D02*
X133071810Y-99773619D01*
X133071810Y-98757619D01*
X133555619Y-98757619D01*
X133942667Y-99725238D02*
X134087810Y-99773619D01*
X134329714Y-99773619D01*
X134426476Y-99725238D01*
X134474857Y-99676857D01*
X134523238Y-99580095D01*
X134523238Y-99483333D01*
X134474857Y-99386571D01*
X134426476Y-99338190D01*
X134329714Y-99289810D01*
X134136191Y-99241429D01*
X134039429Y-99193048D01*
X133991048Y-99144667D01*
X133942667Y-99047905D01*
X133942667Y-98951143D01*
X133991048Y-98854381D01*
X134039429Y-98806000D01*
X134136191Y-98757619D01*
X134378095Y-98757619D01*
X134523238Y-98806000D01*
X134958667Y-99241429D02*
X135297333Y-99241429D01*
X135442476Y-99773619D02*
X134958667Y-99773619D01*
X134958667Y-98757619D01*
X135442476Y-98757619D01*
X135732762Y-98757619D02*
X136313333Y-98757619D01*
X136023048Y-99773619D02*
X136023048Y-98757619D01*
D13*
X112740000Y-95905000D02*
X112740000Y-103405000D01*
X112740000Y-103405000D02*
X108240000Y-103405000D01*
X108240000Y-103405000D02*
X108240000Y-95905000D01*
X108240000Y-95905000D02*
X112740000Y-95905000D01*
X123101100Y-105295700D02*
X124117100Y-105295700D01*
X118275100Y-105295700D02*
X117005100Y-105295700D01*
X118529100Y-104025700D02*
X118529100Y-106565700D01*
X118783100Y-104025700D02*
X118783100Y-106565700D01*
X119037100Y-104025700D02*
X119037100Y-106565700D01*
X118275100Y-104025700D02*
X118275100Y-106565700D01*
X119291100Y-104025700D02*
X118021100Y-106565700D01*
X118021100Y-104025700D02*
X119291100Y-106565700D01*
X119291100Y-104025700D02*
X119291100Y-106565700D01*
X118656100Y-104025700D02*
X118656100Y-106565700D01*
X118021100Y-106565700D02*
X118021100Y-104025700D01*
X118021100Y-104025700D02*
X123101100Y-104025700D01*
X123101100Y-104025700D02*
X123101100Y-106565700D01*
X123101100Y-106565700D02*
X118021100Y-106565700D01*
X123101100Y-93345000D02*
X124117100Y-93345000D01*
X118275100Y-93345000D02*
X117005100Y-93345000D01*
X118529100Y-92075000D02*
X118529100Y-94615000D01*
X118783100Y-92075000D02*
X118783100Y-94615000D01*
X119037100Y-92075000D02*
X119037100Y-94615000D01*
X118275100Y-92075000D02*
X118275100Y-94615000D01*
X119291100Y-92075000D02*
X118021100Y-94615000D01*
X118021100Y-92075000D02*
X119291100Y-94615000D01*
X119291100Y-92075000D02*
X119291100Y-94615000D01*
X118656100Y-92075000D02*
X118656100Y-94615000D01*
X118021100Y-94615000D02*
X118021100Y-92075000D01*
X118021100Y-92075000D02*
X123101100Y-92075000D01*
X123101100Y-92075000D02*
X123101100Y-94615000D01*
X123101100Y-94615000D02*
X118021100Y-94615000D01*
X130375100Y-100460300D02*
X130375100Y-100560300D01*
X130275100Y-100410300D02*
X130625100Y-100410300D01*
X130625100Y-100410300D02*
G75*
G03X130275100Y-100760300I700000J-1050000D01*
G01*
X130275100Y-100410300D02*
X130275100Y-100760300D01*
X135739314Y-103460300D02*
G75*
G03X135739314Y-103460300I-1414214J0D01*
G01*
X132325100Y-106460300D02*
X136325100Y-106460300D01*
X132325100Y-100460300D02*
X136325100Y-100460300D01*
X131325100Y-104210300D02*
X131325100Y-102710300D01*
X137325100Y-102710300D02*
X137325100Y-104210300D01*
D10*
X131325100Y-103460300D02*
X131325100Y-103460300D01*
X136325100Y-106460300D02*
X132325100Y-106460300D01*
X136325100Y-100460300D02*
X132325100Y-100460300D01*
X137325100Y-103460300D02*
X137325100Y-103460300D01*
X135739314Y-103460300D02*
G75*
G03X135739314Y-103460300I-1414214J0D01*
G01*
D13*
X117348000Y-99822000D02*
X123698000Y-99822000D01*
X123698000Y-99822000D02*
X123698000Y-102362000D01*
X123698000Y-102362000D02*
X117348000Y-102362000D01*
X117348000Y-102362000D02*
X117348000Y-99822000D01*
X117365000Y-96266000D02*
X123715000Y-96266000D01*
X123715000Y-96266000D02*
X123715000Y-98806000D01*
X123715000Y-98806000D02*
X117365000Y-98806000D01*
X117365000Y-98806000D02*
X117365000Y-96266000D01*
X137524000Y-95250000D02*
X131174000Y-95250000D01*
X131174000Y-95250000D02*
X131174000Y-92710000D01*
X131174000Y-92710000D02*
X137524000Y-92710000D01*
X137524000Y-92710000D02*
X137524000Y-95250000D01*
X143103000Y-93789500D02*
X143103000Y-92239500D01*
X143103000Y-92239500D02*
X146203000Y-92239500D01*
X146203000Y-92239500D02*
X146203000Y-93789500D01*
X145923000Y-95059500D02*
X145923000Y-105219500D01*
X145923000Y-105219500D02*
X143383000Y-105219500D01*
X143383000Y-105219500D02*
X143383000Y-95059500D01*
X145923000Y-95059500D02*
X143383000Y-95059500D01*
X110323334Y-95099143D02*
X110275715Y-95146762D01*
X110132858Y-95194381D01*
X110037620Y-95194381D01*
X109894762Y-95146762D01*
X109799524Y-95051524D01*
X109751905Y-94956286D01*
X109704286Y-94765810D01*
X109704286Y-94622952D01*
X109751905Y-94432476D01*
X109799524Y-94337238D01*
X109894762Y-94242000D01*
X110037620Y-94194381D01*
X110132858Y-94194381D01*
X110275715Y-94242000D01*
X110323334Y-94289619D01*
X111275715Y-95194381D02*
X110704286Y-95194381D01*
X110990000Y-95194381D02*
X110990000Y-94194381D01*
X110894762Y-94337238D01*
X110799524Y-94432476D01*
X110704286Y-94480095D01*
X111656905Y-105748081D02*
X111656905Y-104748081D01*
X111895000Y-104748081D01*
X112037858Y-104795700D01*
X112133096Y-104890938D01*
X112180715Y-104986176D01*
X112228334Y-105176652D01*
X112228334Y-105319510D01*
X112180715Y-105509986D01*
X112133096Y-105605224D01*
X112037858Y-105700462D01*
X111895000Y-105748081D01*
X111656905Y-105748081D01*
X112609286Y-104843319D02*
X112656905Y-104795700D01*
X112752143Y-104748081D01*
X112990239Y-104748081D01*
X113085477Y-104795700D01*
X113133096Y-104843319D01*
X113180715Y-104938557D01*
X113180715Y-105033795D01*
X113133096Y-105176652D01*
X112561667Y-105748081D01*
X113180715Y-105748081D01*
X111656905Y-93797381D02*
X111656905Y-92797381D01*
X111895000Y-92797381D01*
X112037858Y-92845000D01*
X112133096Y-92940238D01*
X112180715Y-93035476D01*
X112228334Y-93225952D01*
X112228334Y-93368810D01*
X112180715Y-93559286D01*
X112133096Y-93654524D01*
X112037858Y-93749762D01*
X111895000Y-93797381D01*
X111656905Y-93797381D01*
X113180715Y-93797381D02*
X112609286Y-93797381D01*
X112895000Y-93797381D02*
X112895000Y-92797381D01*
X112799762Y-92940238D01*
X112704524Y-93035476D01*
X112609286Y-93083095D01*
X127849334Y-101544381D02*
X127516000Y-101068190D01*
X127277905Y-101544381D02*
X127277905Y-100544381D01*
X127658858Y-100544381D01*
X127754096Y-100592000D01*
X127801715Y-100639619D01*
X127849334Y-100734857D01*
X127849334Y-100877714D01*
X127801715Y-100972952D01*
X127754096Y-101020571D01*
X127658858Y-101068190D01*
X127277905Y-101068190D01*
X128182667Y-100544381D02*
X128801715Y-100544381D01*
X128468381Y-100925333D01*
X128611239Y-100925333D01*
X128706477Y-100972952D01*
X128754096Y-101020571D01*
X128801715Y-101115810D01*
X128801715Y-101353905D01*
X128754096Y-101449143D01*
X128706477Y-101496762D01*
X128611239Y-101544381D01*
X128325524Y-101544381D01*
X128230286Y-101496762D01*
X128182667Y-101449143D01*
X127849334Y-97988381D02*
X127516000Y-97512190D01*
X127277905Y-97988381D02*
X127277905Y-96988381D01*
X127658858Y-96988381D01*
X127754096Y-97036000D01*
X127801715Y-97083619D01*
X127849334Y-97178857D01*
X127849334Y-97321714D01*
X127801715Y-97416952D01*
X127754096Y-97464571D01*
X127658858Y-97512190D01*
X127277905Y-97512190D01*
X128230286Y-97083619D02*
X128277905Y-97036000D01*
X128373143Y-96988381D01*
X128611239Y-96988381D01*
X128706477Y-97036000D01*
X128754096Y-97083619D01*
X128801715Y-97178857D01*
X128801715Y-97274095D01*
X128754096Y-97416952D01*
X128182667Y-97988381D01*
X128801715Y-97988381D01*
X134727334Y-96732381D02*
X134394000Y-96256190D01*
X134155905Y-96732381D02*
X134155905Y-95732381D01*
X134536858Y-95732381D01*
X134632096Y-95780000D01*
X134679715Y-95827619D01*
X134727334Y-95922857D01*
X134727334Y-96065714D01*
X134679715Y-96160952D01*
X134632096Y-96208571D01*
X134536858Y-96256190D01*
X134155905Y-96256190D01*
X135679715Y-96732381D02*
X135108286Y-96732381D01*
X135394000Y-96732381D02*
X135394000Y-95732381D01*
X135298762Y-95875238D01*
X135203524Y-95970476D01*
X135108286Y-96018095D01*
X106346667Y-104862381D02*
X106346667Y-105576667D01*
X106299047Y-105719524D01*
X106203809Y-105814762D01*
X106060952Y-105862381D01*
X105965714Y-105862381D01*
X107346667Y-105862381D02*
X106775238Y-105862381D01*
X107060952Y-105862381D02*
X107060952Y-104862381D01*
X106965714Y-105005238D01*
X106870476Y-105100476D01*
X106775238Y-105148095D01*
M02*
