%TF.GenerationSoftware,KiCad,Pcbnew,4.0.4+e1-6308~48~ubuntu16.04.1-stable*%
%TF.CreationDate,2016-12-31T15:13:52-08:00*%
%TF.ProjectId,atmega328,61746D6567613332382E6B696361645F,1.2*%
%TF.FileFunction,Soldermask,Top*%
%FSLAX46Y46*%
G04 Gerber Fmt 4.6, Leading zero omitted, Abs format (unit mm)*
G04 Created by KiCad (PCBNEW 4.0.4+e1-6308~48~ubuntu16.04.1-stable) date Sat Dec 31 15:13:52 2016*
%MOMM*%
%LPD*%
G01*
G04 APERTURE LIST*
%ADD10C,0.350000*%
G04 APERTURE END LIST*
D10*
G36*
X109916926Y-130239705D02*
X109916973Y-130239710D01*
X110092187Y-130293948D01*
X110253529Y-130381185D01*
X110394855Y-130498100D01*
X110510779Y-130640238D01*
X110596888Y-130802185D01*
X110649902Y-130977774D01*
X110667800Y-131160315D01*
X110667800Y-131475717D01*
X110667723Y-131486749D01*
X110667722Y-131486754D01*
X110667708Y-131488807D01*
X110647263Y-131671080D01*
X110591803Y-131845912D01*
X110503442Y-132006641D01*
X110385544Y-132147146D01*
X110242600Y-132262076D01*
X110080055Y-132347052D01*
X109904101Y-132398839D01*
X109904060Y-132398843D01*
X109904056Y-132398844D01*
X109721442Y-132415463D01*
X109539074Y-132396295D01*
X109539027Y-132396290D01*
X109363813Y-132342052D01*
X109202471Y-132254815D01*
X109061145Y-132137900D01*
X108945221Y-131995762D01*
X108859112Y-131833815D01*
X108806098Y-131658226D01*
X108788200Y-131475685D01*
X108788200Y-131160283D01*
X108788277Y-131149251D01*
X108788278Y-131149246D01*
X108788292Y-131147193D01*
X108808737Y-130964920D01*
X108864197Y-130790088D01*
X108952558Y-130629359D01*
X109070456Y-130488854D01*
X109213400Y-130373924D01*
X109375945Y-130288948D01*
X109551899Y-130237161D01*
X109551940Y-130237157D01*
X109551944Y-130237156D01*
X109734558Y-130220537D01*
X109916926Y-130239705D01*
X109916926Y-130239705D01*
G37*
G36*
X112456926Y-130239705D02*
X112456973Y-130239710D01*
X112632187Y-130293948D01*
X112793529Y-130381185D01*
X112934855Y-130498100D01*
X113050779Y-130640238D01*
X113136888Y-130802185D01*
X113189902Y-130977774D01*
X113207800Y-131160315D01*
X113207800Y-131475717D01*
X113207723Y-131486749D01*
X113207722Y-131486754D01*
X113207708Y-131488807D01*
X113187263Y-131671080D01*
X113131803Y-131845912D01*
X113043442Y-132006641D01*
X112925544Y-132147146D01*
X112782600Y-132262076D01*
X112620055Y-132347052D01*
X112444101Y-132398839D01*
X112444060Y-132398843D01*
X112444056Y-132398844D01*
X112261442Y-132415463D01*
X112079074Y-132396295D01*
X112079027Y-132396290D01*
X111903813Y-132342052D01*
X111742471Y-132254815D01*
X111601145Y-132137900D01*
X111485221Y-131995762D01*
X111399112Y-131833815D01*
X111346098Y-131658226D01*
X111328200Y-131475685D01*
X111328200Y-131160283D01*
X111328277Y-131149251D01*
X111328278Y-131149246D01*
X111328292Y-131147193D01*
X111348737Y-130964920D01*
X111404197Y-130790088D01*
X111492558Y-130629359D01*
X111610456Y-130488854D01*
X111753400Y-130373924D01*
X111915945Y-130288948D01*
X112091899Y-130237161D01*
X112091940Y-130237157D01*
X112091944Y-130237156D01*
X112274558Y-130220537D01*
X112456926Y-130239705D01*
X112456926Y-130239705D01*
G37*
G36*
X114996926Y-130239705D02*
X114996973Y-130239710D01*
X115172187Y-130293948D01*
X115333529Y-130381185D01*
X115474855Y-130498100D01*
X115590779Y-130640238D01*
X115676888Y-130802185D01*
X115729902Y-130977774D01*
X115747800Y-131160315D01*
X115747800Y-131475717D01*
X115747723Y-131486749D01*
X115747722Y-131486754D01*
X115747708Y-131488807D01*
X115727263Y-131671080D01*
X115671803Y-131845912D01*
X115583442Y-132006641D01*
X115465544Y-132147146D01*
X115322600Y-132262076D01*
X115160055Y-132347052D01*
X114984101Y-132398839D01*
X114984060Y-132398843D01*
X114984056Y-132398844D01*
X114801442Y-132415463D01*
X114619074Y-132396295D01*
X114619027Y-132396290D01*
X114443813Y-132342052D01*
X114282471Y-132254815D01*
X114141145Y-132137900D01*
X114025221Y-131995762D01*
X113939112Y-131833815D01*
X113886098Y-131658226D01*
X113868200Y-131475685D01*
X113868200Y-131160283D01*
X113868277Y-131149251D01*
X113868278Y-131149246D01*
X113868292Y-131147193D01*
X113888737Y-130964920D01*
X113944197Y-130790088D01*
X114032558Y-130629359D01*
X114150456Y-130488854D01*
X114293400Y-130373924D01*
X114455945Y-130288948D01*
X114631899Y-130237161D01*
X114631940Y-130237157D01*
X114631944Y-130237156D01*
X114814558Y-130220537D01*
X114996926Y-130239705D01*
X114996926Y-130239705D01*
G37*
G36*
X117536926Y-130239705D02*
X117536973Y-130239710D01*
X117712187Y-130293948D01*
X117873529Y-130381185D01*
X118014855Y-130498100D01*
X118130779Y-130640238D01*
X118216888Y-130802185D01*
X118269902Y-130977774D01*
X118287800Y-131160315D01*
X118287800Y-131475717D01*
X118287723Y-131486749D01*
X118287722Y-131486754D01*
X118287708Y-131488807D01*
X118267263Y-131671080D01*
X118211803Y-131845912D01*
X118123442Y-132006641D01*
X118005544Y-132147146D01*
X117862600Y-132262076D01*
X117700055Y-132347052D01*
X117524101Y-132398839D01*
X117524060Y-132398843D01*
X117524056Y-132398844D01*
X117341442Y-132415463D01*
X117159074Y-132396295D01*
X117159027Y-132396290D01*
X116983813Y-132342052D01*
X116822471Y-132254815D01*
X116681145Y-132137900D01*
X116565221Y-131995762D01*
X116479112Y-131833815D01*
X116426098Y-131658226D01*
X116408200Y-131475685D01*
X116408200Y-131160283D01*
X116408277Y-131149251D01*
X116408278Y-131149246D01*
X116408292Y-131147193D01*
X116428737Y-130964920D01*
X116484197Y-130790088D01*
X116572558Y-130629359D01*
X116690456Y-130488854D01*
X116833400Y-130373924D01*
X116995945Y-130288948D01*
X117171899Y-130237161D01*
X117171940Y-130237157D01*
X117171944Y-130237156D01*
X117354558Y-130220537D01*
X117536926Y-130239705D01*
X117536926Y-130239705D01*
G37*
G36*
X120076926Y-130239705D02*
X120076973Y-130239710D01*
X120252187Y-130293948D01*
X120413529Y-130381185D01*
X120554855Y-130498100D01*
X120670779Y-130640238D01*
X120756888Y-130802185D01*
X120809902Y-130977774D01*
X120827800Y-131160315D01*
X120827800Y-131475717D01*
X120827723Y-131486749D01*
X120827722Y-131486754D01*
X120827708Y-131488807D01*
X120807263Y-131671080D01*
X120751803Y-131845912D01*
X120663442Y-132006641D01*
X120545544Y-132147146D01*
X120402600Y-132262076D01*
X120240055Y-132347052D01*
X120064101Y-132398839D01*
X120064060Y-132398843D01*
X120064056Y-132398844D01*
X119881442Y-132415463D01*
X119699074Y-132396295D01*
X119699027Y-132396290D01*
X119523813Y-132342052D01*
X119362471Y-132254815D01*
X119221145Y-132137900D01*
X119105221Y-131995762D01*
X119019112Y-131833815D01*
X118966098Y-131658226D01*
X118948200Y-131475685D01*
X118948200Y-131160283D01*
X118948277Y-131149251D01*
X118948278Y-131149246D01*
X118948292Y-131147193D01*
X118968737Y-130964920D01*
X119024197Y-130790088D01*
X119112558Y-130629359D01*
X119230456Y-130488854D01*
X119373400Y-130373924D01*
X119535945Y-130288948D01*
X119711899Y-130237161D01*
X119711940Y-130237157D01*
X119711944Y-130237156D01*
X119894558Y-130220537D01*
X120076926Y-130239705D01*
X120076926Y-130239705D01*
G37*
G36*
X122616926Y-130239705D02*
X122616973Y-130239710D01*
X122792187Y-130293948D01*
X122953529Y-130381185D01*
X123094855Y-130498100D01*
X123210779Y-130640238D01*
X123296888Y-130802185D01*
X123349902Y-130977774D01*
X123367800Y-131160315D01*
X123367800Y-131475717D01*
X123367723Y-131486749D01*
X123367722Y-131486754D01*
X123367708Y-131488807D01*
X123347263Y-131671080D01*
X123291803Y-131845912D01*
X123203442Y-132006641D01*
X123085544Y-132147146D01*
X122942600Y-132262076D01*
X122780055Y-132347052D01*
X122604101Y-132398839D01*
X122604060Y-132398843D01*
X122604056Y-132398844D01*
X122421442Y-132415463D01*
X122239074Y-132396295D01*
X122239027Y-132396290D01*
X122063813Y-132342052D01*
X121902471Y-132254815D01*
X121761145Y-132137900D01*
X121645221Y-131995762D01*
X121559112Y-131833815D01*
X121506098Y-131658226D01*
X121488200Y-131475685D01*
X121488200Y-131160283D01*
X121488277Y-131149251D01*
X121488278Y-131149246D01*
X121488292Y-131147193D01*
X121508737Y-130964920D01*
X121564197Y-130790088D01*
X121652558Y-130629359D01*
X121770456Y-130488854D01*
X121913400Y-130373924D01*
X122075945Y-130288948D01*
X122251899Y-130237161D01*
X122251940Y-130237157D01*
X122251944Y-130237156D01*
X122434558Y-130220537D01*
X122616926Y-130239705D01*
X122616926Y-130239705D01*
G37*
G36*
X127696926Y-130239705D02*
X127696973Y-130239710D01*
X127872187Y-130293948D01*
X128033529Y-130381185D01*
X128174855Y-130498100D01*
X128290779Y-130640238D01*
X128376888Y-130802185D01*
X128429902Y-130977774D01*
X128447800Y-131160315D01*
X128447800Y-131475717D01*
X128447723Y-131486749D01*
X128447722Y-131486754D01*
X128447708Y-131488807D01*
X128427263Y-131671080D01*
X128371803Y-131845912D01*
X128283442Y-132006641D01*
X128165544Y-132147146D01*
X128022600Y-132262076D01*
X127860055Y-132347052D01*
X127684101Y-132398839D01*
X127684060Y-132398843D01*
X127684056Y-132398844D01*
X127501442Y-132415463D01*
X127319074Y-132396295D01*
X127319027Y-132396290D01*
X127143813Y-132342052D01*
X126982471Y-132254815D01*
X126841145Y-132137900D01*
X126725221Y-131995762D01*
X126639112Y-131833815D01*
X126586098Y-131658226D01*
X126568200Y-131475685D01*
X126568200Y-131160283D01*
X126568277Y-131149251D01*
X126568278Y-131149246D01*
X126568292Y-131147193D01*
X126588737Y-130964920D01*
X126644197Y-130790088D01*
X126732558Y-130629359D01*
X126850456Y-130488854D01*
X126993400Y-130373924D01*
X127155945Y-130288948D01*
X127331899Y-130237161D01*
X127331940Y-130237157D01*
X127331944Y-130237156D01*
X127514558Y-130220537D01*
X127696926Y-130239705D01*
X127696926Y-130239705D01*
G37*
G36*
X125156926Y-130239705D02*
X125156973Y-130239710D01*
X125332187Y-130293948D01*
X125493529Y-130381185D01*
X125634855Y-130498100D01*
X125750779Y-130640238D01*
X125836888Y-130802185D01*
X125889902Y-130977774D01*
X125907800Y-131160315D01*
X125907800Y-131475717D01*
X125907723Y-131486749D01*
X125907722Y-131486754D01*
X125907708Y-131488807D01*
X125887263Y-131671080D01*
X125831803Y-131845912D01*
X125743442Y-132006641D01*
X125625544Y-132147146D01*
X125482600Y-132262076D01*
X125320055Y-132347052D01*
X125144101Y-132398839D01*
X125144060Y-132398843D01*
X125144056Y-132398844D01*
X124961442Y-132415463D01*
X124779074Y-132396295D01*
X124779027Y-132396290D01*
X124603813Y-132342052D01*
X124442471Y-132254815D01*
X124301145Y-132137900D01*
X124185221Y-131995762D01*
X124099112Y-131833815D01*
X124046098Y-131658226D01*
X124028200Y-131475685D01*
X124028200Y-131160283D01*
X124028277Y-131149251D01*
X124028278Y-131149246D01*
X124028292Y-131147193D01*
X124048737Y-130964920D01*
X124104197Y-130790088D01*
X124192558Y-130629359D01*
X124310456Y-130488854D01*
X124453400Y-130373924D01*
X124615945Y-130288948D01*
X124791899Y-130237161D01*
X124791940Y-130237157D01*
X124791944Y-130237156D01*
X124974558Y-130220537D01*
X125156926Y-130239705D01*
X125156926Y-130239705D01*
G37*
G36*
X135316926Y-130239705D02*
X135316973Y-130239710D01*
X135492187Y-130293948D01*
X135653529Y-130381185D01*
X135794855Y-130498100D01*
X135910779Y-130640238D01*
X135996888Y-130802185D01*
X136049902Y-130977774D01*
X136067800Y-131160315D01*
X136067800Y-131475717D01*
X136067723Y-131486749D01*
X136067722Y-131486754D01*
X136067708Y-131488807D01*
X136047263Y-131671080D01*
X135991803Y-131845912D01*
X135903442Y-132006641D01*
X135785544Y-132147146D01*
X135642600Y-132262076D01*
X135480055Y-132347052D01*
X135304101Y-132398839D01*
X135304060Y-132398843D01*
X135304056Y-132398844D01*
X135121442Y-132415463D01*
X134939074Y-132396295D01*
X134939027Y-132396290D01*
X134763813Y-132342052D01*
X134602471Y-132254815D01*
X134461145Y-132137900D01*
X134345221Y-131995762D01*
X134259112Y-131833815D01*
X134206098Y-131658226D01*
X134188200Y-131475685D01*
X134188200Y-131160283D01*
X134188277Y-131149251D01*
X134188278Y-131149246D01*
X134188292Y-131147193D01*
X134208737Y-130964920D01*
X134264197Y-130790088D01*
X134352558Y-130629359D01*
X134470456Y-130488854D01*
X134613400Y-130373924D01*
X134775945Y-130288948D01*
X134951899Y-130237161D01*
X134951940Y-130237157D01*
X134951944Y-130237156D01*
X135134558Y-130220537D01*
X135316926Y-130239705D01*
X135316926Y-130239705D01*
G37*
G36*
X132776926Y-130239705D02*
X132776973Y-130239710D01*
X132952187Y-130293948D01*
X133113529Y-130381185D01*
X133254855Y-130498100D01*
X133370779Y-130640238D01*
X133456888Y-130802185D01*
X133509902Y-130977774D01*
X133527800Y-131160315D01*
X133527800Y-131475717D01*
X133527723Y-131486749D01*
X133527722Y-131486754D01*
X133527708Y-131488807D01*
X133507263Y-131671080D01*
X133451803Y-131845912D01*
X133363442Y-132006641D01*
X133245544Y-132147146D01*
X133102600Y-132262076D01*
X132940055Y-132347052D01*
X132764101Y-132398839D01*
X132764060Y-132398843D01*
X132764056Y-132398844D01*
X132581442Y-132415463D01*
X132399074Y-132396295D01*
X132399027Y-132396290D01*
X132223813Y-132342052D01*
X132062471Y-132254815D01*
X131921145Y-132137900D01*
X131805221Y-131995762D01*
X131719112Y-131833815D01*
X131666098Y-131658226D01*
X131648200Y-131475685D01*
X131648200Y-131160283D01*
X131648277Y-131149251D01*
X131648278Y-131149246D01*
X131648292Y-131147193D01*
X131668737Y-130964920D01*
X131724197Y-130790088D01*
X131812558Y-130629359D01*
X131930456Y-130488854D01*
X132073400Y-130373924D01*
X132235945Y-130288948D01*
X132411899Y-130237161D01*
X132411940Y-130237157D01*
X132411944Y-130237156D01*
X132594558Y-130220537D01*
X132776926Y-130239705D01*
X132776926Y-130239705D01*
G37*
G36*
X130236926Y-130239705D02*
X130236973Y-130239710D01*
X130412187Y-130293948D01*
X130573529Y-130381185D01*
X130714855Y-130498100D01*
X130830779Y-130640238D01*
X130916888Y-130802185D01*
X130969902Y-130977774D01*
X130987800Y-131160315D01*
X130987800Y-131475717D01*
X130987723Y-131486749D01*
X130987722Y-131486754D01*
X130987708Y-131488807D01*
X130967263Y-131671080D01*
X130911803Y-131845912D01*
X130823442Y-132006641D01*
X130705544Y-132147146D01*
X130562600Y-132262076D01*
X130400055Y-132347052D01*
X130224101Y-132398839D01*
X130224060Y-132398843D01*
X130224056Y-132398844D01*
X130041442Y-132415463D01*
X129859074Y-132396295D01*
X129859027Y-132396290D01*
X129683813Y-132342052D01*
X129522471Y-132254815D01*
X129381145Y-132137900D01*
X129265221Y-131995762D01*
X129179112Y-131833815D01*
X129126098Y-131658226D01*
X129108200Y-131475685D01*
X129108200Y-131160283D01*
X129108277Y-131149251D01*
X129108278Y-131149246D01*
X129108292Y-131147193D01*
X129128737Y-130964920D01*
X129184197Y-130790088D01*
X129272558Y-130629359D01*
X129390456Y-130488854D01*
X129533400Y-130373924D01*
X129695945Y-130288948D01*
X129871899Y-130237161D01*
X129871940Y-130237157D01*
X129871944Y-130237156D01*
X130054558Y-130220537D01*
X130236926Y-130239705D01*
X130236926Y-130239705D01*
G37*
G36*
X138607800Y-132410200D02*
X136728200Y-132410200D01*
X136728200Y-130225800D01*
X138607800Y-130225800D01*
X138607800Y-132410200D01*
X138607800Y-132410200D01*
G37*
G36*
X137856926Y-126683705D02*
X137856973Y-126683710D01*
X138032187Y-126737948D01*
X138193529Y-126825185D01*
X138334855Y-126942100D01*
X138450779Y-127084238D01*
X138536888Y-127246185D01*
X138589902Y-127421774D01*
X138607800Y-127604315D01*
X138607800Y-127919717D01*
X138607723Y-127930749D01*
X138607722Y-127930754D01*
X138607708Y-127932807D01*
X138587263Y-128115080D01*
X138531803Y-128289912D01*
X138443442Y-128450641D01*
X138325544Y-128591146D01*
X138182600Y-128706076D01*
X138020055Y-128791052D01*
X137844101Y-128842839D01*
X137844060Y-128842843D01*
X137844056Y-128842844D01*
X137661442Y-128859463D01*
X137479074Y-128840295D01*
X137479027Y-128840290D01*
X137303813Y-128786052D01*
X137142471Y-128698815D01*
X137001145Y-128581900D01*
X136885221Y-128439762D01*
X136799112Y-128277815D01*
X136746098Y-128102226D01*
X136728200Y-127919685D01*
X136728200Y-127604283D01*
X136728277Y-127593251D01*
X136728278Y-127593246D01*
X136728292Y-127591193D01*
X136748737Y-127408920D01*
X136804197Y-127234088D01*
X136892558Y-127073359D01*
X137010456Y-126932854D01*
X137153400Y-126817924D01*
X137315945Y-126732948D01*
X137491899Y-126681161D01*
X137491940Y-126681157D01*
X137491944Y-126681156D01*
X137674558Y-126664537D01*
X137856926Y-126683705D01*
X137856926Y-126683705D01*
G37*
G36*
X112456926Y-126683705D02*
X112456973Y-126683710D01*
X112632187Y-126737948D01*
X112793529Y-126825185D01*
X112934855Y-126942100D01*
X113050779Y-127084238D01*
X113136888Y-127246185D01*
X113189902Y-127421774D01*
X113207800Y-127604315D01*
X113207800Y-127919717D01*
X113207723Y-127930749D01*
X113207722Y-127930754D01*
X113207708Y-127932807D01*
X113187263Y-128115080D01*
X113131803Y-128289912D01*
X113043442Y-128450641D01*
X112925544Y-128591146D01*
X112782600Y-128706076D01*
X112620055Y-128791052D01*
X112444101Y-128842839D01*
X112444060Y-128842843D01*
X112444056Y-128842844D01*
X112261442Y-128859463D01*
X112079074Y-128840295D01*
X112079027Y-128840290D01*
X111903813Y-128786052D01*
X111742471Y-128698815D01*
X111601145Y-128581900D01*
X111485221Y-128439762D01*
X111399112Y-128277815D01*
X111346098Y-128102226D01*
X111328200Y-127919685D01*
X111328200Y-127604283D01*
X111328277Y-127593251D01*
X111328278Y-127593246D01*
X111328292Y-127591193D01*
X111348737Y-127408920D01*
X111404197Y-127234088D01*
X111492558Y-127073359D01*
X111610456Y-126932854D01*
X111753400Y-126817924D01*
X111915945Y-126732948D01*
X112091899Y-126681161D01*
X112091940Y-126681157D01*
X112091944Y-126681156D01*
X112274558Y-126664537D01*
X112456926Y-126683705D01*
X112456926Y-126683705D01*
G37*
G36*
X114996926Y-126683705D02*
X114996973Y-126683710D01*
X115172187Y-126737948D01*
X115333529Y-126825185D01*
X115474855Y-126942100D01*
X115590779Y-127084238D01*
X115676888Y-127246185D01*
X115729902Y-127421774D01*
X115747800Y-127604315D01*
X115747800Y-127919717D01*
X115747723Y-127930749D01*
X115747722Y-127930754D01*
X115747708Y-127932807D01*
X115727263Y-128115080D01*
X115671803Y-128289912D01*
X115583442Y-128450641D01*
X115465544Y-128591146D01*
X115322600Y-128706076D01*
X115160055Y-128791052D01*
X114984101Y-128842839D01*
X114984060Y-128842843D01*
X114984056Y-128842844D01*
X114801442Y-128859463D01*
X114619074Y-128840295D01*
X114619027Y-128840290D01*
X114443813Y-128786052D01*
X114282471Y-128698815D01*
X114141145Y-128581900D01*
X114025221Y-128439762D01*
X113939112Y-128277815D01*
X113886098Y-128102226D01*
X113868200Y-127919685D01*
X113868200Y-127604283D01*
X113868277Y-127593251D01*
X113868278Y-127593246D01*
X113868292Y-127591193D01*
X113888737Y-127408920D01*
X113944197Y-127234088D01*
X114032558Y-127073359D01*
X114150456Y-126932854D01*
X114293400Y-126817924D01*
X114455945Y-126732948D01*
X114631899Y-126681161D01*
X114631940Y-126681157D01*
X114631944Y-126681156D01*
X114814558Y-126664537D01*
X114996926Y-126683705D01*
X114996926Y-126683705D01*
G37*
G36*
X117536926Y-126683705D02*
X117536973Y-126683710D01*
X117712187Y-126737948D01*
X117873529Y-126825185D01*
X118014855Y-126942100D01*
X118130779Y-127084238D01*
X118216888Y-127246185D01*
X118269902Y-127421774D01*
X118287800Y-127604315D01*
X118287800Y-127919717D01*
X118287723Y-127930749D01*
X118287722Y-127930754D01*
X118287708Y-127932807D01*
X118267263Y-128115080D01*
X118211803Y-128289912D01*
X118123442Y-128450641D01*
X118005544Y-128591146D01*
X117862600Y-128706076D01*
X117700055Y-128791052D01*
X117524101Y-128842839D01*
X117524060Y-128842843D01*
X117524056Y-128842844D01*
X117341442Y-128859463D01*
X117159074Y-128840295D01*
X117159027Y-128840290D01*
X116983813Y-128786052D01*
X116822471Y-128698815D01*
X116681145Y-128581900D01*
X116565221Y-128439762D01*
X116479112Y-128277815D01*
X116426098Y-128102226D01*
X116408200Y-127919685D01*
X116408200Y-127604283D01*
X116408277Y-127593251D01*
X116408278Y-127593246D01*
X116408292Y-127591193D01*
X116428737Y-127408920D01*
X116484197Y-127234088D01*
X116572558Y-127073359D01*
X116690456Y-126932854D01*
X116833400Y-126817924D01*
X116995945Y-126732948D01*
X117171899Y-126681161D01*
X117171940Y-126681157D01*
X117171944Y-126681156D01*
X117354558Y-126664537D01*
X117536926Y-126683705D01*
X117536926Y-126683705D01*
G37*
G36*
X120076926Y-126683705D02*
X120076973Y-126683710D01*
X120252187Y-126737948D01*
X120413529Y-126825185D01*
X120554855Y-126942100D01*
X120670779Y-127084238D01*
X120756888Y-127246185D01*
X120809902Y-127421774D01*
X120827800Y-127604315D01*
X120827800Y-127919717D01*
X120827723Y-127930749D01*
X120827722Y-127930754D01*
X120827708Y-127932807D01*
X120807263Y-128115080D01*
X120751803Y-128289912D01*
X120663442Y-128450641D01*
X120545544Y-128591146D01*
X120402600Y-128706076D01*
X120240055Y-128791052D01*
X120064101Y-128842839D01*
X120064060Y-128842843D01*
X120064056Y-128842844D01*
X119881442Y-128859463D01*
X119699074Y-128840295D01*
X119699027Y-128840290D01*
X119523813Y-128786052D01*
X119362471Y-128698815D01*
X119221145Y-128581900D01*
X119105221Y-128439762D01*
X119019112Y-128277815D01*
X118966098Y-128102226D01*
X118948200Y-127919685D01*
X118948200Y-127604283D01*
X118948277Y-127593251D01*
X118948278Y-127593246D01*
X118948292Y-127591193D01*
X118968737Y-127408920D01*
X119024197Y-127234088D01*
X119112558Y-127073359D01*
X119230456Y-126932854D01*
X119373400Y-126817924D01*
X119535945Y-126732948D01*
X119711899Y-126681161D01*
X119711940Y-126681157D01*
X119711944Y-126681156D01*
X119894558Y-126664537D01*
X120076926Y-126683705D01*
X120076926Y-126683705D01*
G37*
G36*
X122616926Y-126683705D02*
X122616973Y-126683710D01*
X122792187Y-126737948D01*
X122953529Y-126825185D01*
X123094855Y-126942100D01*
X123210779Y-127084238D01*
X123296888Y-127246185D01*
X123349902Y-127421774D01*
X123367800Y-127604315D01*
X123367800Y-127919717D01*
X123367723Y-127930749D01*
X123367722Y-127930754D01*
X123367708Y-127932807D01*
X123347263Y-128115080D01*
X123291803Y-128289912D01*
X123203442Y-128450641D01*
X123085544Y-128591146D01*
X122942600Y-128706076D01*
X122780055Y-128791052D01*
X122604101Y-128842839D01*
X122604060Y-128842843D01*
X122604056Y-128842844D01*
X122421442Y-128859463D01*
X122239074Y-128840295D01*
X122239027Y-128840290D01*
X122063813Y-128786052D01*
X121902471Y-128698815D01*
X121761145Y-128581900D01*
X121645221Y-128439762D01*
X121559112Y-128277815D01*
X121506098Y-128102226D01*
X121488200Y-127919685D01*
X121488200Y-127604283D01*
X121488277Y-127593251D01*
X121488278Y-127593246D01*
X121488292Y-127591193D01*
X121508737Y-127408920D01*
X121564197Y-127234088D01*
X121652558Y-127073359D01*
X121770456Y-126932854D01*
X121913400Y-126817924D01*
X122075945Y-126732948D01*
X122251899Y-126681161D01*
X122251940Y-126681157D01*
X122251944Y-126681156D01*
X122434558Y-126664537D01*
X122616926Y-126683705D01*
X122616926Y-126683705D01*
G37*
G36*
X125156926Y-126683705D02*
X125156973Y-126683710D01*
X125332187Y-126737948D01*
X125493529Y-126825185D01*
X125634855Y-126942100D01*
X125750779Y-127084238D01*
X125836888Y-127246185D01*
X125889902Y-127421774D01*
X125907800Y-127604315D01*
X125907800Y-127919717D01*
X125907723Y-127930749D01*
X125907722Y-127930754D01*
X125907708Y-127932807D01*
X125887263Y-128115080D01*
X125831803Y-128289912D01*
X125743442Y-128450641D01*
X125625544Y-128591146D01*
X125482600Y-128706076D01*
X125320055Y-128791052D01*
X125144101Y-128842839D01*
X125144060Y-128842843D01*
X125144056Y-128842844D01*
X124961442Y-128859463D01*
X124779074Y-128840295D01*
X124779027Y-128840290D01*
X124603813Y-128786052D01*
X124442471Y-128698815D01*
X124301145Y-128581900D01*
X124185221Y-128439762D01*
X124099112Y-128277815D01*
X124046098Y-128102226D01*
X124028200Y-127919685D01*
X124028200Y-127604283D01*
X124028277Y-127593251D01*
X124028278Y-127593246D01*
X124028292Y-127591193D01*
X124048737Y-127408920D01*
X124104197Y-127234088D01*
X124192558Y-127073359D01*
X124310456Y-126932854D01*
X124453400Y-126817924D01*
X124615945Y-126732948D01*
X124791899Y-126681161D01*
X124791940Y-126681157D01*
X124791944Y-126681156D01*
X124974558Y-126664537D01*
X125156926Y-126683705D01*
X125156926Y-126683705D01*
G37*
G36*
X127696926Y-126683705D02*
X127696973Y-126683710D01*
X127872187Y-126737948D01*
X128033529Y-126825185D01*
X128174855Y-126942100D01*
X128290779Y-127084238D01*
X128376888Y-127246185D01*
X128429902Y-127421774D01*
X128447800Y-127604315D01*
X128447800Y-127919717D01*
X128447723Y-127930749D01*
X128447722Y-127930754D01*
X128447708Y-127932807D01*
X128427263Y-128115080D01*
X128371803Y-128289912D01*
X128283442Y-128450641D01*
X128165544Y-128591146D01*
X128022600Y-128706076D01*
X127860055Y-128791052D01*
X127684101Y-128842839D01*
X127684060Y-128842843D01*
X127684056Y-128842844D01*
X127501442Y-128859463D01*
X127319074Y-128840295D01*
X127319027Y-128840290D01*
X127143813Y-128786052D01*
X126982471Y-128698815D01*
X126841145Y-128581900D01*
X126725221Y-128439762D01*
X126639112Y-128277815D01*
X126586098Y-128102226D01*
X126568200Y-127919685D01*
X126568200Y-127604283D01*
X126568277Y-127593251D01*
X126568278Y-127593246D01*
X126568292Y-127591193D01*
X126588737Y-127408920D01*
X126644197Y-127234088D01*
X126732558Y-127073359D01*
X126850456Y-126932854D01*
X126993400Y-126817924D01*
X127155945Y-126732948D01*
X127331899Y-126681161D01*
X127331940Y-126681157D01*
X127331944Y-126681156D01*
X127514558Y-126664537D01*
X127696926Y-126683705D01*
X127696926Y-126683705D01*
G37*
G36*
X130236926Y-126683705D02*
X130236973Y-126683710D01*
X130412187Y-126737948D01*
X130573529Y-126825185D01*
X130714855Y-126942100D01*
X130830779Y-127084238D01*
X130916888Y-127246185D01*
X130969902Y-127421774D01*
X130987800Y-127604315D01*
X130987800Y-127919717D01*
X130987723Y-127930749D01*
X130987722Y-127930754D01*
X130987708Y-127932807D01*
X130967263Y-128115080D01*
X130911803Y-128289912D01*
X130823442Y-128450641D01*
X130705544Y-128591146D01*
X130562600Y-128706076D01*
X130400055Y-128791052D01*
X130224101Y-128842839D01*
X130224060Y-128842843D01*
X130224056Y-128842844D01*
X130041442Y-128859463D01*
X129859074Y-128840295D01*
X129859027Y-128840290D01*
X129683813Y-128786052D01*
X129522471Y-128698815D01*
X129381145Y-128581900D01*
X129265221Y-128439762D01*
X129179112Y-128277815D01*
X129126098Y-128102226D01*
X129108200Y-127919685D01*
X129108200Y-127604283D01*
X129108277Y-127593251D01*
X129108278Y-127593246D01*
X129108292Y-127591193D01*
X129128737Y-127408920D01*
X129184197Y-127234088D01*
X129272558Y-127073359D01*
X129390456Y-126932854D01*
X129533400Y-126817924D01*
X129695945Y-126732948D01*
X129871899Y-126681161D01*
X129871940Y-126681157D01*
X129871944Y-126681156D01*
X130054558Y-126664537D01*
X130236926Y-126683705D01*
X130236926Y-126683705D01*
G37*
G36*
X132776926Y-126683705D02*
X132776973Y-126683710D01*
X132952187Y-126737948D01*
X133113529Y-126825185D01*
X133254855Y-126942100D01*
X133370779Y-127084238D01*
X133456888Y-127246185D01*
X133509902Y-127421774D01*
X133527800Y-127604315D01*
X133527800Y-127919717D01*
X133527723Y-127930749D01*
X133527722Y-127930754D01*
X133527708Y-127932807D01*
X133507263Y-128115080D01*
X133451803Y-128289912D01*
X133363442Y-128450641D01*
X133245544Y-128591146D01*
X133102600Y-128706076D01*
X132940055Y-128791052D01*
X132764101Y-128842839D01*
X132764060Y-128842843D01*
X132764056Y-128842844D01*
X132581442Y-128859463D01*
X132399074Y-128840295D01*
X132399027Y-128840290D01*
X132223813Y-128786052D01*
X132062471Y-128698815D01*
X131921145Y-128581900D01*
X131805221Y-128439762D01*
X131719112Y-128277815D01*
X131666098Y-128102226D01*
X131648200Y-127919685D01*
X131648200Y-127604283D01*
X131648277Y-127593251D01*
X131648278Y-127593246D01*
X131648292Y-127591193D01*
X131668737Y-127408920D01*
X131724197Y-127234088D01*
X131812558Y-127073359D01*
X131930456Y-126932854D01*
X132073400Y-126817924D01*
X132235945Y-126732948D01*
X132411899Y-126681161D01*
X132411940Y-126681157D01*
X132411944Y-126681156D01*
X132594558Y-126664537D01*
X132776926Y-126683705D01*
X132776926Y-126683705D01*
G37*
G36*
X135316926Y-126683705D02*
X135316973Y-126683710D01*
X135492187Y-126737948D01*
X135653529Y-126825185D01*
X135794855Y-126942100D01*
X135910779Y-127084238D01*
X135996888Y-127246185D01*
X136049902Y-127421774D01*
X136067800Y-127604315D01*
X136067800Y-127919717D01*
X136067723Y-127930749D01*
X136067722Y-127930754D01*
X136067708Y-127932807D01*
X136047263Y-128115080D01*
X135991803Y-128289912D01*
X135903442Y-128450641D01*
X135785544Y-128591146D01*
X135642600Y-128706076D01*
X135480055Y-128791052D01*
X135304101Y-128842839D01*
X135304060Y-128842843D01*
X135304056Y-128842844D01*
X135121442Y-128859463D01*
X134939074Y-128840295D01*
X134939027Y-128840290D01*
X134763813Y-128786052D01*
X134602471Y-128698815D01*
X134461145Y-128581900D01*
X134345221Y-128439762D01*
X134259112Y-128277815D01*
X134206098Y-128102226D01*
X134188200Y-127919685D01*
X134188200Y-127604283D01*
X134188277Y-127593251D01*
X134188278Y-127593246D01*
X134188292Y-127591193D01*
X134208737Y-127408920D01*
X134264197Y-127234088D01*
X134352558Y-127073359D01*
X134470456Y-126932854D01*
X134613400Y-126817924D01*
X134775945Y-126732948D01*
X134951899Y-126681161D01*
X134951940Y-126681157D01*
X134951944Y-126681156D01*
X135134558Y-126664537D01*
X135316926Y-126683705D01*
X135316926Y-126683705D01*
G37*
G36*
X110667800Y-128854200D02*
X108788200Y-128854200D01*
X108788200Y-126669800D01*
X110667800Y-126669800D01*
X110667800Y-128854200D01*
X110667800Y-128854200D01*
G37*
G36*
X133665926Y-120613842D02*
X133665931Y-120613844D01*
X133665973Y-120613848D01*
X133841187Y-120668086D01*
X134002529Y-120755323D01*
X134143855Y-120872238D01*
X134259779Y-121014376D01*
X134345888Y-121176323D01*
X134398902Y-121351912D01*
X134416800Y-121534453D01*
X134416800Y-121543580D01*
X134416723Y-121554612D01*
X134416722Y-121554617D01*
X134416708Y-121556669D01*
X134396263Y-121738942D01*
X134340803Y-121913774D01*
X134252442Y-122074503D01*
X134134544Y-122215008D01*
X133991600Y-122329938D01*
X133829055Y-122414914D01*
X133653101Y-122466701D01*
X133653065Y-122466704D01*
X133653056Y-122466707D01*
X133470442Y-122483326D01*
X133288074Y-122464158D01*
X133288069Y-122464156D01*
X133288027Y-122464152D01*
X133112813Y-122409914D01*
X132951471Y-122322677D01*
X132810145Y-122205762D01*
X132694221Y-122063624D01*
X132608112Y-121901677D01*
X132555098Y-121726088D01*
X132537200Y-121543547D01*
X132537200Y-121534420D01*
X132537277Y-121523388D01*
X132537278Y-121523383D01*
X132537292Y-121521331D01*
X132557737Y-121339058D01*
X132613197Y-121164226D01*
X132701558Y-121003497D01*
X132819456Y-120862992D01*
X132962400Y-120748062D01*
X133124945Y-120663086D01*
X133300899Y-120611299D01*
X133300935Y-120611296D01*
X133300944Y-120611293D01*
X133483558Y-120594674D01*
X133665926Y-120613842D01*
X133665926Y-120613842D01*
G37*
G36*
X136205926Y-120613842D02*
X136205931Y-120613844D01*
X136205973Y-120613848D01*
X136381187Y-120668086D01*
X136542529Y-120755323D01*
X136683855Y-120872238D01*
X136799779Y-121014376D01*
X136885888Y-121176323D01*
X136938902Y-121351912D01*
X136956800Y-121534453D01*
X136956800Y-121543580D01*
X136956723Y-121554612D01*
X136956722Y-121554617D01*
X136956708Y-121556669D01*
X136936263Y-121738942D01*
X136880803Y-121913774D01*
X136792442Y-122074503D01*
X136674544Y-122215008D01*
X136531600Y-122329938D01*
X136369055Y-122414914D01*
X136193101Y-122466701D01*
X136193065Y-122466704D01*
X136193056Y-122466707D01*
X136010442Y-122483326D01*
X135828074Y-122464158D01*
X135828069Y-122464156D01*
X135828027Y-122464152D01*
X135652813Y-122409914D01*
X135491471Y-122322677D01*
X135350145Y-122205762D01*
X135234221Y-122063624D01*
X135148112Y-121901677D01*
X135095098Y-121726088D01*
X135077200Y-121543547D01*
X135077200Y-121534420D01*
X135077277Y-121523388D01*
X135077278Y-121523383D01*
X135077292Y-121521331D01*
X135097737Y-121339058D01*
X135153197Y-121164226D01*
X135241558Y-121003497D01*
X135359456Y-120862992D01*
X135502400Y-120748062D01*
X135664945Y-120663086D01*
X135840899Y-120611299D01*
X135840935Y-120611296D01*
X135840944Y-120611293D01*
X136023558Y-120594674D01*
X136205926Y-120613842D01*
X136205926Y-120613842D01*
G37*
G36*
X131876800Y-122478800D02*
X129997200Y-122478800D01*
X129997200Y-120599200D01*
X131876800Y-120599200D01*
X131876800Y-122478800D01*
X131876800Y-122478800D01*
G37*
G36*
X122662200Y-120847200D02*
X121709800Y-120847200D01*
X121709800Y-119944800D01*
X122662200Y-119944800D01*
X122662200Y-120847200D01*
X122662200Y-120847200D01*
G37*
G36*
X124162200Y-120847200D02*
X123209800Y-120847200D01*
X123209800Y-119944800D01*
X124162200Y-119944800D01*
X124162200Y-120847200D01*
X124162200Y-120847200D01*
G37*
G36*
X127578200Y-120721200D02*
X126675800Y-120721200D01*
X126675800Y-119768800D01*
X127578200Y-119768800D01*
X127578200Y-120721200D01*
X127578200Y-120721200D01*
G37*
G36*
X131125926Y-118073842D02*
X131125931Y-118073844D01*
X131125973Y-118073848D01*
X131301187Y-118128086D01*
X131462529Y-118215323D01*
X131603855Y-118332238D01*
X131719779Y-118474376D01*
X131805888Y-118636323D01*
X131858902Y-118811912D01*
X131876800Y-118994453D01*
X131876800Y-119003580D01*
X131876723Y-119014612D01*
X131876722Y-119014617D01*
X131876708Y-119016669D01*
X131856263Y-119198942D01*
X131800803Y-119373774D01*
X131712442Y-119534503D01*
X131594544Y-119675008D01*
X131451600Y-119789938D01*
X131289055Y-119874914D01*
X131113101Y-119926701D01*
X131113065Y-119926704D01*
X131113056Y-119926707D01*
X130930442Y-119943326D01*
X130748074Y-119924158D01*
X130748069Y-119924156D01*
X130748027Y-119924152D01*
X130572813Y-119869914D01*
X130411471Y-119782677D01*
X130270145Y-119665762D01*
X130154221Y-119523624D01*
X130068112Y-119361677D01*
X130015098Y-119186088D01*
X129997200Y-119003547D01*
X129997200Y-118994420D01*
X129997277Y-118983388D01*
X129997278Y-118983383D01*
X129997292Y-118981331D01*
X130017737Y-118799058D01*
X130073197Y-118624226D01*
X130161558Y-118463497D01*
X130279456Y-118322992D01*
X130422400Y-118208062D01*
X130584945Y-118123086D01*
X130760899Y-118071299D01*
X130760935Y-118071296D01*
X130760944Y-118071293D01*
X130943558Y-118054674D01*
X131125926Y-118073842D01*
X131125926Y-118073842D01*
G37*
G36*
X133665926Y-118073842D02*
X133665931Y-118073844D01*
X133665973Y-118073848D01*
X133841187Y-118128086D01*
X134002529Y-118215323D01*
X134143855Y-118332238D01*
X134259779Y-118474376D01*
X134345888Y-118636323D01*
X134398902Y-118811912D01*
X134416800Y-118994453D01*
X134416800Y-119003580D01*
X134416723Y-119014612D01*
X134416722Y-119014617D01*
X134416708Y-119016669D01*
X134396263Y-119198942D01*
X134340803Y-119373774D01*
X134252442Y-119534503D01*
X134134544Y-119675008D01*
X133991600Y-119789938D01*
X133829055Y-119874914D01*
X133653101Y-119926701D01*
X133653065Y-119926704D01*
X133653056Y-119926707D01*
X133470442Y-119943326D01*
X133288074Y-119924158D01*
X133288069Y-119924156D01*
X133288027Y-119924152D01*
X133112813Y-119869914D01*
X132951471Y-119782677D01*
X132810145Y-119665762D01*
X132694221Y-119523624D01*
X132608112Y-119361677D01*
X132555098Y-119186088D01*
X132537200Y-119003547D01*
X132537200Y-118994420D01*
X132537277Y-118983388D01*
X132537278Y-118983383D01*
X132537292Y-118981331D01*
X132557737Y-118799058D01*
X132613197Y-118624226D01*
X132701558Y-118463497D01*
X132819456Y-118322992D01*
X132962400Y-118208062D01*
X133124945Y-118123086D01*
X133300899Y-118071299D01*
X133300935Y-118071296D01*
X133300944Y-118071293D01*
X133483558Y-118054674D01*
X133665926Y-118073842D01*
X133665926Y-118073842D01*
G37*
G36*
X136205926Y-118073842D02*
X136205931Y-118073844D01*
X136205973Y-118073848D01*
X136381187Y-118128086D01*
X136542529Y-118215323D01*
X136683855Y-118332238D01*
X136799779Y-118474376D01*
X136885888Y-118636323D01*
X136938902Y-118811912D01*
X136956800Y-118994453D01*
X136956800Y-119003580D01*
X136956723Y-119014612D01*
X136956722Y-119014617D01*
X136956708Y-119016669D01*
X136936263Y-119198942D01*
X136880803Y-119373774D01*
X136792442Y-119534503D01*
X136674544Y-119675008D01*
X136531600Y-119789938D01*
X136369055Y-119874914D01*
X136193101Y-119926701D01*
X136193065Y-119926704D01*
X136193056Y-119926707D01*
X136010442Y-119943326D01*
X135828074Y-119924158D01*
X135828069Y-119924156D01*
X135828027Y-119924152D01*
X135652813Y-119869914D01*
X135491471Y-119782677D01*
X135350145Y-119665762D01*
X135234221Y-119523624D01*
X135148112Y-119361677D01*
X135095098Y-119186088D01*
X135077200Y-119003547D01*
X135077200Y-118994420D01*
X135077277Y-118983388D01*
X135077278Y-118983383D01*
X135077292Y-118981331D01*
X135097737Y-118799058D01*
X135153197Y-118624226D01*
X135241558Y-118463497D01*
X135359456Y-118322992D01*
X135502400Y-118208062D01*
X135664945Y-118123086D01*
X135840899Y-118071299D01*
X135840935Y-118071296D01*
X135840944Y-118071293D01*
X136023558Y-118054674D01*
X136205926Y-118073842D01*
X136205926Y-118073842D01*
G37*
G36*
X127578200Y-119221200D02*
X126675800Y-119221200D01*
X126675800Y-118268800D01*
X127578200Y-118268800D01*
X127578200Y-119221200D01*
X127578200Y-119221200D01*
G37*
G36*
X113080800Y-117932200D02*
X110896400Y-117932200D01*
X110896400Y-116052600D01*
X113080800Y-116052600D01*
X113080800Y-117932200D01*
X113080800Y-117932200D01*
G37*
G36*
X117201200Y-116783200D02*
X116248800Y-116783200D01*
X116248800Y-115880800D01*
X117201200Y-115880800D01*
X117201200Y-116783200D01*
X117201200Y-116783200D01*
G37*
G36*
X118701200Y-116783200D02*
X117748800Y-116783200D01*
X117748800Y-115880800D01*
X118701200Y-115880800D01*
X118701200Y-116783200D01*
X118701200Y-116783200D01*
G37*
G36*
X131599000Y-116319200D02*
X125296600Y-116319200D01*
X125296600Y-114566800D01*
X131599000Y-114566800D01*
X131599000Y-116319200D01*
X131599000Y-116319200D01*
G37*
G36*
X136849200Y-116161200D02*
X135946800Y-116161200D01*
X135946800Y-115208800D01*
X136849200Y-115208800D01*
X136849200Y-116161200D01*
X136849200Y-116161200D01*
G37*
G36*
X112157349Y-113512677D02*
X112157354Y-113512678D01*
X112159407Y-113512692D01*
X112341680Y-113533137D01*
X112516512Y-113588597D01*
X112677241Y-113676958D01*
X112817746Y-113794856D01*
X112932676Y-113937800D01*
X113017652Y-114100345D01*
X113069439Y-114276299D01*
X113069443Y-114276340D01*
X113069444Y-114276344D01*
X113086063Y-114458958D01*
X113074728Y-114566800D01*
X113066890Y-114641373D01*
X113012652Y-114816587D01*
X112925415Y-114977929D01*
X112808500Y-115119255D01*
X112666362Y-115235179D01*
X112504415Y-115321288D01*
X112328826Y-115374302D01*
X112146285Y-115392200D01*
X111830883Y-115392200D01*
X111819851Y-115392123D01*
X111819846Y-115392122D01*
X111817793Y-115392108D01*
X111635520Y-115371663D01*
X111460688Y-115316203D01*
X111299959Y-115227842D01*
X111159454Y-115109944D01*
X111044524Y-114967000D01*
X110959548Y-114804455D01*
X110907761Y-114628501D01*
X110907757Y-114628460D01*
X110907756Y-114628456D01*
X110891137Y-114445842D01*
X110910305Y-114263474D01*
X110910310Y-114263427D01*
X110964548Y-114088213D01*
X111051785Y-113926871D01*
X111168700Y-113785545D01*
X111310838Y-113669621D01*
X111472785Y-113583512D01*
X111648374Y-113530498D01*
X111830915Y-113512600D01*
X112146317Y-113512600D01*
X112157349Y-113512677D01*
X112157349Y-113512677D01*
G37*
G36*
X118681500Y-114998500D02*
X117132100Y-114998500D01*
X117132100Y-112941100D01*
X118681500Y-112941100D01*
X118681500Y-114998500D01*
X118681500Y-114998500D01*
G37*
G36*
X116192300Y-114998500D02*
X114642900Y-114998500D01*
X114642900Y-112941100D01*
X116192300Y-112941100D01*
X116192300Y-114998500D01*
X116192300Y-114998500D01*
G37*
G36*
X136849200Y-114661200D02*
X135946800Y-114661200D01*
X135946800Y-113708800D01*
X136849200Y-113708800D01*
X136849200Y-114661200D01*
X136849200Y-114661200D01*
G37*
G36*
X133574000Y-114344200D02*
X131821600Y-114344200D01*
X131821600Y-108041800D01*
X133574000Y-108041800D01*
X133574000Y-114344200D01*
X133574000Y-114344200D01*
G37*
G36*
X125074000Y-114344200D02*
X123321600Y-114344200D01*
X123321600Y-108041800D01*
X125074000Y-108041800D01*
X125074000Y-114344200D01*
X125074000Y-114344200D01*
G37*
G36*
X112157349Y-110972677D02*
X112157354Y-110972678D01*
X112159407Y-110972692D01*
X112341680Y-110993137D01*
X112516512Y-111048597D01*
X112677241Y-111136958D01*
X112817746Y-111254856D01*
X112932676Y-111397800D01*
X113017652Y-111560345D01*
X113069439Y-111736299D01*
X113069443Y-111736340D01*
X113069444Y-111736344D01*
X113086063Y-111918958D01*
X113068248Y-112088456D01*
X113066890Y-112101373D01*
X113012652Y-112276587D01*
X112925415Y-112437929D01*
X112808500Y-112579255D01*
X112666362Y-112695179D01*
X112504415Y-112781288D01*
X112328826Y-112834302D01*
X112146285Y-112852200D01*
X111830883Y-112852200D01*
X111819851Y-112852123D01*
X111819846Y-112852122D01*
X111817793Y-112852108D01*
X111635520Y-112831663D01*
X111460688Y-112776203D01*
X111299959Y-112687842D01*
X111159454Y-112569944D01*
X111044524Y-112427000D01*
X110959548Y-112264455D01*
X110907761Y-112088501D01*
X110907757Y-112088460D01*
X110907756Y-112088456D01*
X110891137Y-111905842D01*
X110910305Y-111723474D01*
X110910310Y-111723427D01*
X110964548Y-111548213D01*
X111051785Y-111386871D01*
X111168700Y-111245545D01*
X111310838Y-111129621D01*
X111472785Y-111043512D01*
X111648374Y-110990498D01*
X111830915Y-110972600D01*
X112146317Y-110972600D01*
X112157349Y-110972677D01*
X112157349Y-110972677D01*
G37*
G36*
X136849200Y-111970200D02*
X135946800Y-111970200D01*
X135946800Y-111017800D01*
X136849200Y-111017800D01*
X136849200Y-111970200D01*
X136849200Y-111970200D01*
G37*
G36*
X122371200Y-110966200D02*
X121468800Y-110966200D01*
X121468800Y-110013800D01*
X122371200Y-110013800D01*
X122371200Y-110966200D01*
X122371200Y-110966200D01*
G37*
G36*
X120593200Y-110954200D02*
X119690800Y-110954200D01*
X119690800Y-110001800D01*
X120593200Y-110001800D01*
X120593200Y-110954200D01*
X120593200Y-110954200D01*
G37*
G36*
X118681500Y-110528100D02*
X117132100Y-110528100D01*
X117132100Y-108470700D01*
X118681500Y-108470700D01*
X118681500Y-110528100D01*
X118681500Y-110528100D01*
G37*
G36*
X116192300Y-110528100D02*
X114642900Y-110528100D01*
X114642900Y-108470700D01*
X116192300Y-108470700D01*
X116192300Y-110528100D01*
X116192300Y-110528100D01*
G37*
G36*
X136849200Y-110470200D02*
X135946800Y-110470200D01*
X135946800Y-109517800D01*
X136849200Y-109517800D01*
X136849200Y-110470200D01*
X136849200Y-110470200D01*
G37*
G36*
X112157349Y-108432677D02*
X112157354Y-108432678D01*
X112159407Y-108432692D01*
X112341680Y-108453137D01*
X112516512Y-108508597D01*
X112677241Y-108596958D01*
X112817746Y-108714856D01*
X112932676Y-108857800D01*
X113017652Y-109020345D01*
X113069439Y-109196299D01*
X113069443Y-109196340D01*
X113069444Y-109196344D01*
X113086063Y-109378958D01*
X113076893Y-109466200D01*
X113066890Y-109561373D01*
X113012652Y-109736587D01*
X112925415Y-109897929D01*
X112808500Y-110039255D01*
X112666362Y-110155179D01*
X112504415Y-110241288D01*
X112328826Y-110294302D01*
X112146285Y-110312200D01*
X111830883Y-110312200D01*
X111819851Y-110312123D01*
X111819846Y-110312122D01*
X111817793Y-110312108D01*
X111635520Y-110291663D01*
X111460688Y-110236203D01*
X111299959Y-110147842D01*
X111159454Y-110029944D01*
X111044524Y-109887000D01*
X110959548Y-109724455D01*
X110907761Y-109548501D01*
X110907757Y-109548460D01*
X110907756Y-109548456D01*
X110891137Y-109365842D01*
X110910305Y-109183474D01*
X110910310Y-109183427D01*
X110964548Y-109008213D01*
X111051785Y-108846871D01*
X111168700Y-108705545D01*
X111310838Y-108589621D01*
X111472785Y-108503512D01*
X111648374Y-108450498D01*
X111830915Y-108432600D01*
X112146317Y-108432600D01*
X112157349Y-108432677D01*
X112157349Y-108432677D01*
G37*
G36*
X122371200Y-109466200D02*
X121468800Y-109466200D01*
X121468800Y-108513800D01*
X122371200Y-108513800D01*
X122371200Y-109466200D01*
X122371200Y-109466200D01*
G37*
G36*
X120593200Y-109454200D02*
X119690800Y-109454200D01*
X119690800Y-108501800D01*
X120593200Y-108501800D01*
X120593200Y-109454200D01*
X120593200Y-109454200D01*
G37*
G36*
X131599000Y-107819200D02*
X125296600Y-107819200D01*
X125296600Y-106066800D01*
X131599000Y-106066800D01*
X131599000Y-107819200D01*
X131599000Y-107819200D01*
G37*
G36*
X112157349Y-105892677D02*
X112157354Y-105892678D01*
X112159407Y-105892692D01*
X112341680Y-105913137D01*
X112516512Y-105968597D01*
X112677241Y-106056958D01*
X112817746Y-106174856D01*
X112932676Y-106317800D01*
X113017652Y-106480345D01*
X113069439Y-106656299D01*
X113069443Y-106656340D01*
X113069444Y-106656344D01*
X113086063Y-106838958D01*
X113068248Y-107008456D01*
X113066890Y-107021373D01*
X113012652Y-107196587D01*
X112925415Y-107357929D01*
X112808500Y-107499255D01*
X112666362Y-107615179D01*
X112504415Y-107701288D01*
X112328826Y-107754302D01*
X112146285Y-107772200D01*
X111830883Y-107772200D01*
X111819851Y-107772123D01*
X111819846Y-107772122D01*
X111817793Y-107772108D01*
X111635520Y-107751663D01*
X111460688Y-107696203D01*
X111299959Y-107607842D01*
X111159454Y-107489944D01*
X111044524Y-107347000D01*
X110959548Y-107184455D01*
X110907761Y-107008501D01*
X110907757Y-107008460D01*
X110907756Y-107008456D01*
X110891137Y-106825842D01*
X110910305Y-106643474D01*
X110910310Y-106643427D01*
X110964548Y-106468213D01*
X111051785Y-106306871D01*
X111168700Y-106165545D01*
X111310838Y-106049621D01*
X111472785Y-105963512D01*
X111648374Y-105910498D01*
X111830915Y-105892600D01*
X112146317Y-105892600D01*
X112157349Y-105892677D01*
X112157349Y-105892677D01*
G37*
G36*
X118586200Y-107258200D02*
X117633800Y-107258200D01*
X117633800Y-106355800D01*
X118586200Y-106355800D01*
X118586200Y-107258200D01*
X118586200Y-107258200D01*
G37*
G36*
X117086200Y-107258200D02*
X116133800Y-107258200D01*
X116133800Y-106355800D01*
X117086200Y-106355800D01*
X117086200Y-107258200D01*
X117086200Y-107258200D01*
G37*
G36*
X138823700Y-105486200D02*
X136639300Y-105486200D01*
X136639300Y-103301800D01*
X138823700Y-103301800D01*
X138823700Y-105486200D01*
X138823700Y-105486200D01*
G37*
G36*
X112157349Y-103352677D02*
X112157354Y-103352678D01*
X112159407Y-103352692D01*
X112341680Y-103373137D01*
X112516512Y-103428597D01*
X112677241Y-103516958D01*
X112817746Y-103634856D01*
X112932676Y-103777800D01*
X113017652Y-103940345D01*
X113069439Y-104116299D01*
X113069443Y-104116340D01*
X113069444Y-104116344D01*
X113086063Y-104298958D01*
X113070587Y-104446200D01*
X113066890Y-104481373D01*
X113012652Y-104656587D01*
X112925415Y-104817929D01*
X112808500Y-104959255D01*
X112666362Y-105075179D01*
X112504415Y-105161288D01*
X112328826Y-105214302D01*
X112146285Y-105232200D01*
X111830883Y-105232200D01*
X111819851Y-105232123D01*
X111819846Y-105232122D01*
X111817793Y-105232108D01*
X111635520Y-105211663D01*
X111460688Y-105156203D01*
X111299959Y-105067842D01*
X111159454Y-104949944D01*
X111044524Y-104807000D01*
X110959548Y-104644455D01*
X110907761Y-104468501D01*
X110907757Y-104468460D01*
X110907756Y-104468456D01*
X110891137Y-104285842D01*
X110910305Y-104103474D01*
X110910310Y-104103427D01*
X110964548Y-103928213D01*
X111051785Y-103766871D01*
X111168700Y-103625545D01*
X111310838Y-103509621D01*
X111472785Y-103423512D01*
X111648374Y-103370498D01*
X111830915Y-103352600D01*
X112146317Y-103352600D01*
X112157349Y-103352677D01*
X112157349Y-103352677D01*
G37*
G36*
X134051200Y-105193200D02*
X133098800Y-105193200D01*
X133098800Y-103340800D01*
X134051200Y-103340800D01*
X134051200Y-105193200D01*
X134051200Y-105193200D01*
G37*
G36*
X130651200Y-105193200D02*
X129698800Y-105193200D01*
X129698800Y-103340800D01*
X130651200Y-103340800D01*
X130651200Y-105193200D01*
X130651200Y-105193200D01*
G37*
G36*
X121900200Y-104718200D02*
X120947800Y-104718200D01*
X120947800Y-103815800D01*
X121900200Y-103815800D01*
X121900200Y-104718200D01*
X121900200Y-104718200D01*
G37*
G36*
X123400200Y-104718200D02*
X122447800Y-104718200D01*
X122447800Y-103815800D01*
X123400200Y-103815800D01*
X123400200Y-104718200D01*
X123400200Y-104718200D01*
G37*
G36*
X128590200Y-104446200D02*
X127187800Y-104446200D01*
X127187800Y-103293800D01*
X128590200Y-103293800D01*
X128590200Y-104446200D01*
X128590200Y-104446200D01*
G37*
G36*
X117816630Y-103146860D02*
X115863370Y-103146860D01*
X115863370Y-100495100D01*
X117816630Y-100495100D01*
X117816630Y-103146860D01*
X117816630Y-103146860D01*
G37*
G36*
X137742895Y-100761842D02*
X137752034Y-100761906D01*
X137963866Y-100785667D01*
X138167048Y-100850120D01*
X138353842Y-100952811D01*
X138517132Y-101089828D01*
X138650699Y-101255951D01*
X138749455Y-101444855D01*
X138809639Y-101649342D01*
X138809643Y-101649383D01*
X138809644Y-101649387D01*
X138828959Y-101861623D01*
X138806683Y-102073570D01*
X138806681Y-102073575D01*
X138806677Y-102073617D01*
X138743644Y-102277245D01*
X138642260Y-102464750D01*
X138506386Y-102628993D01*
X138341199Y-102763717D01*
X138152990Y-102863789D01*
X137948928Y-102925399D01*
X137736785Y-102946200D01*
X137726179Y-102946200D01*
X137720105Y-102946158D01*
X137710966Y-102946094D01*
X137499134Y-102922333D01*
X137295952Y-102857880D01*
X137109158Y-102755189D01*
X136945868Y-102618172D01*
X136812301Y-102452049D01*
X136713545Y-102263145D01*
X136653361Y-102058658D01*
X136653357Y-102058617D01*
X136653356Y-102058613D01*
X136634041Y-101846377D01*
X136656317Y-101634430D01*
X136656319Y-101634425D01*
X136656323Y-101634383D01*
X136719356Y-101430755D01*
X136820740Y-101243250D01*
X136956614Y-101079007D01*
X137121801Y-100944283D01*
X137310010Y-100844211D01*
X137514072Y-100782601D01*
X137726215Y-100761800D01*
X137736821Y-100761800D01*
X137742895Y-100761842D01*
X137742895Y-100761842D01*
G37*
G36*
X128590200Y-102446200D02*
X127187800Y-102446200D01*
X127187800Y-101293800D01*
X128590200Y-101293800D01*
X128590200Y-102446200D01*
X128590200Y-102446200D01*
G37*
G36*
X129029460Y-100073460D02*
X122176540Y-100073460D01*
X122176540Y-93220540D01*
X129029460Y-93220540D01*
X129029460Y-100073460D01*
X129029460Y-100073460D01*
G37*
G36*
X133852920Y-99849940D02*
X130652520Y-99849940D01*
X130652520Y-98046540D01*
X133852920Y-98046540D01*
X133852920Y-99849940D01*
X133852920Y-99849940D01*
G37*
G36*
X117816630Y-99148900D02*
X115863370Y-99148900D01*
X115863370Y-96497140D01*
X117816630Y-96497140D01*
X117816630Y-99148900D01*
X117816630Y-99148900D01*
G37*
G36*
X109693200Y-98735200D02*
X108540800Y-98735200D01*
X108540800Y-96082800D01*
X109693200Y-96082800D01*
X109693200Y-98735200D01*
X109693200Y-98735200D01*
G37*
G36*
X112693200Y-98735200D02*
X111540800Y-98735200D01*
X111540800Y-96082800D01*
X112693200Y-96082800D01*
X112693200Y-98735200D01*
X112693200Y-98735200D01*
G37*
G36*
X138232200Y-98088200D02*
X135579800Y-98088200D01*
X135579800Y-96935800D01*
X138232200Y-96935800D01*
X138232200Y-98088200D01*
X138232200Y-98088200D01*
G37*
G36*
X133852920Y-95247460D02*
X130652520Y-95247460D01*
X130652520Y-93444060D01*
X133852920Y-93444060D01*
X133852920Y-95247460D01*
X133852920Y-95247460D01*
G37*
G36*
X138232200Y-95088200D02*
X135579800Y-95088200D01*
X135579800Y-93935800D01*
X138232200Y-93935800D01*
X138232200Y-95088200D01*
X138232200Y-95088200D01*
G37*
G36*
X120229630Y-94764860D02*
X118276370Y-94764860D01*
X118276370Y-92113100D01*
X120229630Y-92113100D01*
X120229630Y-94764860D01*
X120229630Y-94764860D01*
G37*
G36*
X113295395Y-91109842D02*
X113304534Y-91109906D01*
X113516366Y-91133667D01*
X113719548Y-91198120D01*
X113906342Y-91300811D01*
X114069632Y-91437828D01*
X114203199Y-91603951D01*
X114301955Y-91792855D01*
X114362139Y-91997342D01*
X114362143Y-91997383D01*
X114362144Y-91997387D01*
X114381459Y-92209623D01*
X114359183Y-92421570D01*
X114359181Y-92421575D01*
X114359177Y-92421617D01*
X114296144Y-92625245D01*
X114194760Y-92812750D01*
X114058886Y-92976993D01*
X113893699Y-93111717D01*
X113705490Y-93211789D01*
X113501428Y-93273399D01*
X113289285Y-93294200D01*
X113278679Y-93294200D01*
X113272605Y-93294158D01*
X113263466Y-93294094D01*
X113051634Y-93270333D01*
X112848452Y-93205880D01*
X112661658Y-93103189D01*
X112498368Y-92966172D01*
X112364801Y-92800049D01*
X112266045Y-92611145D01*
X112205861Y-92406658D01*
X112205857Y-92406617D01*
X112205856Y-92406613D01*
X112186541Y-92194377D01*
X112208817Y-91982430D01*
X112208819Y-91982425D01*
X112208823Y-91982383D01*
X112271856Y-91778755D01*
X112373240Y-91591250D01*
X112509114Y-91427007D01*
X112674301Y-91292283D01*
X112862510Y-91192211D01*
X113066572Y-91130601D01*
X113278715Y-91109800D01*
X113289321Y-91109800D01*
X113295395Y-91109842D01*
X113295395Y-91109842D01*
G37*
G36*
X133912200Y-91619200D02*
X132759800Y-91619200D01*
X132759800Y-88466800D01*
X133912200Y-88466800D01*
X133912200Y-91619200D01*
X133912200Y-91619200D01*
G37*
G36*
X138512200Y-91619200D02*
X137359800Y-91619200D01*
X137359800Y-88466800D01*
X138512200Y-88466800D01*
X138512200Y-91619200D01*
X138512200Y-91619200D01*
G37*
G36*
X128800860Y-90892630D02*
X126149100Y-90892630D01*
X126149100Y-88939370D01*
X128800860Y-88939370D01*
X128800860Y-90892630D01*
X128800860Y-90892630D01*
G37*
G36*
X124802900Y-90892630D02*
X122151140Y-90892630D01*
X122151140Y-88939370D01*
X124802900Y-88939370D01*
X124802900Y-90892630D01*
X124802900Y-90892630D01*
G37*
G36*
X120229630Y-90766900D02*
X118276370Y-90766900D01*
X118276370Y-88115140D01*
X120229630Y-88115140D01*
X120229630Y-90766900D01*
X120229630Y-90766900D01*
G37*
G36*
X114376200Y-90754200D02*
X112191800Y-90754200D01*
X112191800Y-88569800D01*
X114376200Y-88569800D01*
X114376200Y-90754200D01*
X114376200Y-90754200D01*
G37*
M02*
