M48
;DRILL file {KiCad 4.0.3+e1-6302~38~ubuntu14.04.1-stable} date Wed Sep 21 12:37:13 2016
;FORMAT={2:4/ absolute / inch / suppress trailing zeros}
FMAT,2
INCH,LZ
T1C0.013
T2C0.040
%
G90
G05
M72
T1
X04235Y-04735
X0437Y-04735
X04504Y-04557
X04522Y-04403
X04632Y-04368
X04642Y-04806
X04652Y-04248
X0469Y-0411
X0471Y-04195
X047107Y-042346
X047365Y-045435
X047395Y-046545
X047677Y-042232
X04768Y-0494
X04806Y-04224
X048285Y-04395
X0484Y-0403
X048408Y-043328
X04894Y-04814
X04898Y-04572
X049Y-04202
X049485Y-04946
X049633Y-043261
X0497Y-0427
X049783Y-041567
X050155Y-046208
X05024Y-04282
X0506Y-04298
X050745Y-046572
X05085Y-041094
X0509Y-04622
X05116Y-04292
X051327Y-046023
X051562Y-044282
X05162Y-04302
X05236Y-0422
X05285Y-04505
X052916Y-04325
X0533Y-04095
X05345Y-0427
X05416Y-04436
X05418Y-04912
X0545Y-04485
X05475Y-04725
T2
X0432Y-0503
X0432Y-0517
X04409Y-04106
X04409Y-04206
X04409Y-04306
X04409Y-04406
X04409Y-04506
X04409Y-04606
X0442Y-0503
X0442Y-0517
X0446Y-0353
X0446Y-0363
X0452Y-0503
X0452Y-0517
X0462Y-0503
X0462Y-0517
X0472Y-0503
X0472Y-0517
X0482Y-0503
X0482Y-0517
X0492Y-0503
X0492Y-0517
X0502Y-0503
X0502Y-0517
X0512Y-0503
X0512Y-0517
X05155Y-04685
X05155Y-04785
X0522Y-0503
X0522Y-0517
X05255Y-04685
X05255Y-04785
X0532Y-0503
X0532Y-0517
X05355Y-04685
X05355Y-04785
X0542Y-0503
X0542Y-0517
T0
M30
