%TF.GenerationSoftware,KiCad,Pcbnew,4.0.4+e1-6308~48~ubuntu14.04.1-stable*%
%TF.CreationDate,2016-11-22T21:41:38-08:00*%
%TF.ProjectId,atmega328,61746D6567613332382E6B696361645F,v1.1*%
%TF.FileFunction,Copper,L1,Top,Signal*%
%FSLAX46Y46*%
G04 Gerber Fmt 4.6, Leading zero omitted, Abs format (unit mm)*
G04 Created by KiCad (PCBNEW 4.0.4+e1-6308~48~ubuntu14.04.1-stable) date Tue Nov 22 21:41:38 2016*
%MOMM*%
%LPD*%
G01*
G04 APERTURE LIST*
%ADD10C,0.350000*%
%ADD11R,1.600000X0.550000*%
%ADD12R,0.550000X1.600000*%
%ADD13R,1.250000X1.000000*%
%ADD14R,0.800000X0.750000*%
%ADD15R,1.727200X2.032000*%
%ADD16O,1.727200X2.032000*%
%ADD17R,1.727200X1.727200*%
%ADD18O,1.727200X1.727200*%
%ADD19R,2.032000X1.727200*%
%ADD20O,2.032000X1.727200*%
%ADD21R,2.032000X2.032000*%
%ADD22O,2.032000X2.032000*%
%ADD23R,1.000000X3.000000*%
%ADD24R,1.800860X2.499360*%
%ADD25R,2.499360X1.800860*%
%ADD26R,0.750000X0.800000*%
%ADD27R,1.000000X2.500000*%
%ADD28R,2.500000X1.000000*%
%ADD29R,1.397000X1.905000*%
%ADD30R,3.048000X1.651000*%
%ADD31R,6.700520X6.700520*%
%ADD32R,0.800000X1.700000*%
%ADD33C,0.685800*%
%ADD34C,0.254000*%
%ADD35C,0.508000*%
%ADD36C,0.330200*%
%ADD37C,0.330200*%
%ADD38C,0.350000*%
G04 APERTURE END LIST*
D10*
D11*
X124197800Y-108393000D03*
X124197800Y-109193000D03*
X124197800Y-109993000D03*
X124197800Y-110793000D03*
X124197800Y-111593000D03*
X124197800Y-112393000D03*
X124197800Y-113193000D03*
X124197800Y-113993000D03*
D12*
X125647800Y-115443000D03*
X126447800Y-115443000D03*
X127247800Y-115443000D03*
X128047800Y-115443000D03*
X128847800Y-115443000D03*
X129647800Y-115443000D03*
X130447800Y-115443000D03*
X131247800Y-115443000D03*
D11*
X132697800Y-113993000D03*
X132697800Y-113193000D03*
X132697800Y-112393000D03*
X132697800Y-111593000D03*
X132697800Y-110793000D03*
X132697800Y-109993000D03*
X132697800Y-109193000D03*
X132697800Y-108393000D03*
D12*
X131247800Y-106943000D03*
X130447800Y-106943000D03*
X129647800Y-106943000D03*
X128847800Y-106943000D03*
X128047800Y-106943000D03*
X127247800Y-106943000D03*
X126447800Y-106943000D03*
X125647800Y-106943000D03*
D13*
X127889000Y-101870000D03*
X127889000Y-103870000D03*
D14*
X122186000Y-120396000D03*
X123686000Y-120396000D03*
D15*
X109728000Y-127762000D03*
D16*
X112268000Y-127762000D03*
X114808000Y-127762000D03*
X117348000Y-127762000D03*
X119888000Y-127762000D03*
X122428000Y-127762000D03*
X124968000Y-127762000D03*
X127508000Y-127762000D03*
X130048000Y-127762000D03*
X132588000Y-127762000D03*
X135128000Y-127762000D03*
X137668000Y-127762000D03*
D17*
X130937000Y-121539000D03*
D18*
X130937000Y-118999000D03*
X133477000Y-121539000D03*
X133477000Y-118999000D03*
X136017000Y-121539000D03*
X136017000Y-118999000D03*
D19*
X111988600Y-116992400D03*
D20*
X111988600Y-114452400D03*
X111988600Y-111912400D03*
X111988600Y-109372400D03*
X111988600Y-106832400D03*
X111988600Y-104292400D03*
D21*
X113284000Y-89662000D03*
D22*
X113284000Y-92202000D03*
D23*
X137936000Y-90043000D03*
X133336000Y-90043000D03*
D24*
X116840000Y-101820980D03*
X116840000Y-97823020D03*
D25*
X127474980Y-89916000D03*
X123477020Y-89916000D03*
D24*
X119253000Y-89441020D03*
X119253000Y-93438980D03*
D26*
X136398000Y-114185000D03*
X136398000Y-115685000D03*
X120142000Y-110478000D03*
X120142000Y-108978000D03*
X121920000Y-110490000D03*
X121920000Y-108990000D03*
D27*
X112117000Y-97409000D03*
X109117000Y-97409000D03*
D26*
X136398000Y-111494000D03*
X136398000Y-109994000D03*
D14*
X118225000Y-116332000D03*
X116725000Y-116332000D03*
X116610000Y-106807000D03*
X118110000Y-106807000D03*
D28*
X136906000Y-94512000D03*
X136906000Y-97512000D03*
D14*
X122924000Y-104267000D03*
X121424000Y-104267000D03*
D26*
X127127000Y-118745000D03*
X127127000Y-120245000D03*
D29*
X117906800Y-113969800D03*
X117906800Y-109499400D03*
X115417600Y-113969800D03*
X115417600Y-109499400D03*
D30*
X132252720Y-98948240D03*
D31*
X125603000Y-96647000D03*
D30*
X132252720Y-94345760D03*
D32*
X130175000Y-104267000D03*
X133575000Y-104267000D03*
D15*
X137668000Y-131318000D03*
D16*
X135128000Y-131318000D03*
X132588000Y-131318000D03*
X130048000Y-131318000D03*
X127508000Y-131318000D03*
X124968000Y-131318000D03*
X122428000Y-131318000D03*
X119888000Y-131318000D03*
X117348000Y-131318000D03*
X114808000Y-131318000D03*
X112268000Y-131318000D03*
X109728000Y-131318000D03*
D33*
X129159000Y-104378000D03*
X122957000Y-110052000D03*
X119126000Y-104394000D03*
X122936000Y-102362000D03*
X135382000Y-104013000D03*
X110998000Y-120269000D03*
X107569000Y-120269000D03*
X118160800Y-107899200D03*
X114401600Y-115747800D03*
X114858800Y-111836200D03*
X117652800Y-110947200D03*
X119650603Y-107559963D03*
X122643920Y-111633000D03*
X135763000Y-108458000D03*
X119634000Y-106553000D03*
X137617200Y-124764800D03*
X137566400Y-112674400D03*
X134239000Y-114427000D03*
X130371720Y-116898912D03*
X124460000Y-106730800D03*
X121098425Y-107268807D03*
X122072400Y-107289600D03*
X120307101Y-115404899D03*
X124409200Y-116128800D03*
X127393680Y-117367263D03*
X128892320Y-118291779D03*
X129286000Y-117398800D03*
X139065000Y-120015000D03*
X138430000Y-113919000D03*
X134405600Y-109855000D03*
X132994400Y-107188000D03*
X125691920Y-125628400D03*
X131114800Y-109270800D03*
X129946400Y-109016800D03*
X124307600Y-122275600D03*
X121107200Y-125476000D03*
X128524000Y-109169200D03*
X120383280Y-118224320D03*
X127609600Y-108762800D03*
X130966289Y-112475089D03*
X117906800Y-122072400D03*
X126067640Y-109883348D03*
X126447800Y-105581200D03*
X126238000Y-108458000D03*
D34*
X127889000Y-103870000D02*
X127889000Y-104378000D01*
X127889000Y-104378000D02*
X127997000Y-104486000D01*
X127889000Y-104378000D02*
X129159000Y-104378000D01*
X129159000Y-104378000D02*
X130064000Y-104378000D01*
X127997000Y-107002000D02*
X127997000Y-104486000D01*
X122924000Y-104267000D02*
X127778000Y-104267000D01*
X127778000Y-104267000D02*
X127889000Y-104378000D01*
X130064000Y-104378000D02*
X130175000Y-104267000D01*
X121399000Y-104267000D02*
X121424000Y-104267000D01*
X118173189Y-103638000D02*
X120770000Y-103638000D01*
X113792000Y-115341400D02*
X113792000Y-108019189D01*
X112166400Y-116967000D02*
X113792000Y-115341400D01*
X112014000Y-116967000D02*
X112166400Y-116967000D01*
X120770000Y-103638000D02*
X121399000Y-104267000D01*
X113792000Y-108019189D02*
X118173189Y-103638000D01*
D35*
X132252720Y-94345760D02*
X136739760Y-94345760D01*
X136739760Y-94345760D02*
X136906000Y-94512000D01*
X137936000Y-90043000D02*
X137936000Y-93482000D01*
X137936000Y-93482000D02*
X136906000Y-94512000D01*
D36*
X119126000Y-104394000D02*
X119126000Y-106045000D01*
X119126000Y-106045000D02*
X119634000Y-106553000D01*
X135128000Y-104267000D02*
X135382000Y-104013000D01*
X133575000Y-104267000D02*
X135128000Y-104267000D01*
D34*
X137617200Y-124279867D02*
X137617200Y-124764800D01*
X137154001Y-114730375D02*
X137617200Y-115193574D01*
X137617200Y-115193574D02*
X137617200Y-124279867D01*
X137154001Y-113086799D02*
X137154001Y-114730375D01*
X137566400Y-112674400D02*
X137154001Y-113086799D01*
D36*
X107696000Y-130479800D02*
X107696000Y-120396000D01*
X107696000Y-120396000D02*
X107569000Y-120269000D01*
X109728000Y-131318000D02*
X108534200Y-131318000D01*
X108534200Y-131318000D02*
X107696000Y-130479800D01*
D34*
X117906800Y-109499400D02*
X117906800Y-108153200D01*
X117906800Y-108153200D02*
X118160800Y-107899200D01*
X114795300Y-115798600D02*
X114452400Y-115798600D01*
X114452400Y-115798600D02*
X114401600Y-115747800D01*
X115417600Y-113969800D02*
X115417600Y-115176300D01*
X115417600Y-115176300D02*
X114795300Y-115798600D01*
X115417600Y-112395000D02*
X114858800Y-111836200D01*
X115417600Y-113969800D02*
X115417600Y-112395000D01*
X118186200Y-110528100D02*
X118071900Y-110528100D01*
X118071900Y-110528100D02*
X117652800Y-110947200D01*
X121920000Y-117500400D02*
X117918400Y-117500400D01*
X116750000Y-116332000D02*
X116725000Y-116332000D01*
X117918400Y-117500400D02*
X116750000Y-116332000D01*
X122186000Y-117766400D02*
X121920000Y-117500400D01*
X122186000Y-120396000D02*
X122186000Y-117766400D01*
X135565000Y-110852000D02*
X133701000Y-110852000D01*
X133701000Y-110852000D02*
X132647000Y-110852000D01*
X136398000Y-110019000D02*
X135565000Y-110852000D01*
X136398000Y-109994000D02*
X136398000Y-110019000D01*
X119993502Y-107902862D02*
X119650603Y-107559963D01*
X120142000Y-108051360D02*
X119993502Y-107902862D01*
X120142000Y-108978000D02*
X120142000Y-108051360D01*
X119634000Y-107543360D02*
X119650603Y-107559963D01*
X119634000Y-106553000D02*
X119634000Y-107543360D01*
X124147000Y-111652000D02*
X124128000Y-111633000D01*
X124128000Y-111633000D02*
X123128853Y-111633000D01*
X123128853Y-111633000D02*
X122643920Y-111633000D01*
X118186200Y-109321600D02*
X118186200Y-110528100D01*
X124147000Y-110052000D02*
X122957000Y-110052000D01*
X122957000Y-110052000D02*
X121920000Y-109015000D01*
X121920000Y-109015000D02*
X121920000Y-108990000D01*
X120142000Y-108978000D02*
X121908000Y-108978000D01*
X121908000Y-108978000D02*
X121920000Y-108990000D01*
X136398000Y-115685000D02*
X136398000Y-118618000D01*
X136398000Y-118618000D02*
X136017000Y-118999000D01*
X135763000Y-108705000D02*
X135763000Y-108458000D01*
X136398000Y-109994000D02*
X136398000Y-109340000D01*
X136398000Y-109340000D02*
X135763000Y-108705000D01*
X119380000Y-106807000D02*
X119634000Y-106553000D01*
X118110000Y-106807000D02*
X119380000Y-106807000D01*
X118186200Y-106883200D02*
X118110000Y-106807000D01*
X116205000Y-111760000D02*
X115697000Y-111252000D01*
X115697000Y-111252000D02*
X115697000Y-109321600D01*
X121601000Y-111760000D02*
X116205000Y-111760000D01*
X124147000Y-113252000D02*
X123093000Y-113252000D01*
X123093000Y-113252000D02*
X121601000Y-111760000D01*
X115697000Y-109321600D02*
X115697000Y-107695000D01*
X115697000Y-107695000D02*
X116585000Y-106807000D01*
X116585000Y-106807000D02*
X116610000Y-106807000D01*
X124147000Y-114052000D02*
X118446200Y-114052000D01*
X118446200Y-114052000D02*
X118186200Y-113792000D01*
X118186200Y-113792000D02*
X118186200Y-116293200D01*
X118186200Y-116293200D02*
X118225000Y-116332000D01*
X127010000Y-101870000D02*
X127889000Y-101870000D01*
X126879699Y-101739699D02*
X127010000Y-101870000D01*
X122637295Y-101739699D02*
X126879699Y-101739699D01*
X122556014Y-101820980D02*
X122637295Y-101739699D01*
X116840000Y-101820980D02*
X122556014Y-101820980D01*
X137795000Y-111494000D02*
X138527000Y-111494000D01*
X137795000Y-110762000D02*
X137777000Y-110744000D01*
X136398000Y-111494000D02*
X137795000Y-111494000D01*
X137795000Y-111494000D02*
X137795000Y-110762000D01*
X138527000Y-111494000D02*
X139827000Y-112794000D01*
X139827000Y-112794000D02*
X139827000Y-130276600D01*
X139827000Y-130276600D02*
X138785600Y-131318000D01*
X138785600Y-131318000D02*
X137668000Y-131318000D01*
D36*
X111988600Y-109372400D02*
X111836200Y-109372400D01*
X111836200Y-109372400D02*
X109728000Y-111480600D01*
X109728000Y-111480600D02*
X109728000Y-126415800D01*
X109728000Y-126415800D02*
X109728000Y-127762000D01*
D34*
X125476000Y-111025400D02*
X125476000Y-111658400D01*
X125476000Y-111658400D02*
X125476000Y-112177000D01*
X132697800Y-111601200D02*
X125533200Y-111601200D01*
X125533200Y-111601200D02*
X125476000Y-111658400D01*
X124197800Y-110801200D02*
X125251800Y-110801200D01*
X125251800Y-110801200D02*
X125476000Y-111025400D01*
X124147000Y-110852000D02*
X124966099Y-110852000D01*
X136398000Y-113531000D02*
X136398000Y-113284000D01*
X136398000Y-113284000D02*
X136398000Y-111494000D01*
X132647000Y-113252000D02*
X136366000Y-113252000D01*
X136366000Y-113252000D02*
X136398000Y-113284000D01*
X130937000Y-118999000D02*
X135751000Y-114185000D01*
X135751000Y-114185000D02*
X136398000Y-114185000D01*
X137777000Y-104376000D02*
X135271000Y-101870000D01*
X135271000Y-101870000D02*
X127889000Y-101870000D01*
X137777000Y-110744000D02*
X137777000Y-104376000D01*
D35*
X112014000Y-108899149D02*
X112014000Y-109347000D01*
X116840000Y-101820980D02*
X116840000Y-104073149D01*
X116840000Y-104073149D02*
X112014000Y-108899149D01*
D34*
X125476000Y-112177000D02*
X125201000Y-112452000D01*
X125201000Y-112452000D02*
X124147000Y-112452000D01*
X121920000Y-110490000D02*
X120154000Y-110490000D01*
X120154000Y-110490000D02*
X120142000Y-110478000D01*
X124147000Y-110852000D02*
X122282000Y-110852000D01*
X122282000Y-110852000D02*
X121920000Y-110490000D01*
X136398000Y-114160000D02*
X136398000Y-114185000D01*
X136398000Y-114185000D02*
X136398000Y-113531000D01*
X136398000Y-111494000D02*
X135769000Y-111494000D01*
X135769000Y-111494000D02*
X135611000Y-111652000D01*
X135611000Y-111652000D02*
X133701000Y-111652000D01*
X133701000Y-111652000D02*
X132647000Y-111652000D01*
D35*
X112117000Y-97409000D02*
X116425980Y-97409000D01*
X116425980Y-97409000D02*
X116840000Y-97823020D01*
X116840000Y-97823020D02*
X124426980Y-97823020D01*
X124426980Y-97823020D02*
X125603000Y-96647000D01*
X123477020Y-89916000D02*
X119727980Y-89916000D01*
X119727980Y-89916000D02*
X119253000Y-89441020D01*
X113284000Y-89662000D02*
X119032020Y-89662000D01*
X119032020Y-89662000D02*
X119253000Y-89441020D01*
X127474980Y-89916000D02*
X133209000Y-89916000D01*
X133209000Y-89916000D02*
X133336000Y-90043000D01*
D34*
X123686000Y-120396000D02*
X126976000Y-120396000D01*
X126976000Y-120396000D02*
X127127000Y-120245000D01*
X131197000Y-117145008D02*
X131197000Y-115502000D01*
X129616222Y-121335822D02*
X129616222Y-118136778D01*
X130130186Y-117622814D02*
X130719194Y-117622814D01*
X130719194Y-117622814D02*
X131197000Y-117145008D01*
X129819400Y-121539000D02*
X129616222Y-121335822D01*
X130937000Y-121539000D02*
X129819400Y-121539000D01*
X129616222Y-118136778D02*
X130130186Y-117622814D01*
X130937000Y-121539000D02*
X131064000Y-121539000D01*
X133477000Y-121539000D02*
X133477000Y-122760314D01*
X133477000Y-122760314D02*
X133832610Y-123115924D01*
X133832610Y-123115924D02*
X133832610Y-128727190D01*
X133832610Y-128727190D02*
X132613400Y-129946400D01*
X132613400Y-129946400D02*
X132613400Y-131216400D01*
X132647000Y-114052000D02*
X133864000Y-114052000D01*
X133864000Y-114052000D02*
X134239000Y-114427000D01*
X133477000Y-118999000D02*
X134721601Y-120243601D01*
X134721601Y-120243601D02*
X134721601Y-124942601D01*
X134721601Y-124942601D02*
X136372610Y-126593610D01*
X136372610Y-126593610D02*
X136372610Y-129920990D01*
X136372610Y-129920990D02*
X135128000Y-131165600D01*
X135128000Y-131165600D02*
X135128000Y-131318000D01*
X130371720Y-116413979D02*
X130371720Y-116898912D01*
X130371720Y-115527280D02*
X130371720Y-116413979D01*
X130397000Y-115502000D02*
X130371720Y-115527280D01*
X124460000Y-106730800D02*
X125427400Y-106730800D01*
X125427400Y-106730800D02*
X125647800Y-106951200D01*
X121098425Y-106783874D02*
X121098425Y-107268807D01*
X121316600Y-106565699D02*
X121098425Y-106783874D01*
X124197800Y-107872200D02*
X122891299Y-106565699D01*
X122891299Y-106565699D02*
X121316600Y-106565699D01*
X124197800Y-108401200D02*
X124197800Y-107872200D01*
X122885200Y-108102400D02*
X122885200Y-108942600D01*
X122885200Y-108942600D02*
X123143800Y-109201200D01*
X123143800Y-109201200D02*
X124197800Y-109201200D01*
X122072400Y-107289600D02*
X122885200Y-108102400D01*
X125072499Y-115404899D02*
X120307101Y-115404899D01*
X125647800Y-115451200D02*
X125118800Y-115451200D01*
X120307101Y-115404899D02*
X120230899Y-115481101D01*
X125118800Y-115451200D02*
X125072499Y-115404899D01*
X124686267Y-116890800D02*
X126062200Y-116890800D01*
X126062200Y-116890800D02*
X126447800Y-116505200D01*
X126447800Y-116505200D02*
X126447800Y-115451200D01*
X124409200Y-116128800D02*
X124409200Y-116613733D01*
X124409200Y-116613733D02*
X124686267Y-116890800D01*
X126498000Y-117191567D02*
X127197000Y-116492567D01*
X127197000Y-116492567D02*
X127197000Y-115502000D01*
X126498000Y-118091000D02*
X126498000Y-117191567D01*
X124968000Y-127762000D02*
X124968000Y-124510800D01*
X124968000Y-124510800D02*
X125628400Y-123850400D01*
X125628400Y-123850400D02*
X127609600Y-123850400D01*
X127609600Y-123850400D02*
X128219200Y-123240800D01*
X128219200Y-123240800D02*
X128219200Y-119862200D01*
X127127000Y-118720000D02*
X126498000Y-118091000D01*
X128219200Y-119862200D02*
X127127000Y-118770000D01*
X127127000Y-118770000D02*
X127127000Y-118745000D01*
X127127000Y-118745000D02*
X127127000Y-118720000D01*
X127736579Y-117024364D02*
X127393680Y-117367263D01*
X128047800Y-116713143D02*
X127736579Y-117024364D01*
X128047800Y-115451200D02*
X128047800Y-116713143D01*
X128847800Y-116765624D02*
X128549421Y-117064003D01*
X128549421Y-117948880D02*
X128892320Y-118291779D01*
X128549421Y-117064003D02*
X128549421Y-117948880D01*
X128847800Y-115451200D02*
X128847800Y-116765624D01*
X129647800Y-115451200D02*
X129647800Y-117037000D01*
X129647800Y-117037000D02*
X129286000Y-117398800D01*
X139065000Y-120015000D02*
X139065000Y-114554000D01*
X139065000Y-114554000D02*
X138430000Y-113919000D01*
X132697800Y-109201200D02*
X133751800Y-109201200D01*
X133751800Y-109201200D02*
X134405600Y-109855000D01*
X132697800Y-108401200D02*
X132697800Y-107484600D01*
X132697800Y-107484600D02*
X132994400Y-107188000D01*
X126212610Y-126149090D02*
X126034819Y-125971299D01*
X124993400Y-129946400D02*
X126212610Y-128727190D01*
X124993400Y-131216400D02*
X124993400Y-129946400D01*
X126034819Y-125971299D02*
X125691920Y-125628400D01*
X126212610Y-128727190D02*
X126212610Y-126149090D01*
X131247800Y-106951200D02*
X131247800Y-109137800D01*
X131247800Y-109137800D02*
X131114800Y-109270800D01*
X129946400Y-109016800D02*
X130447800Y-108515400D01*
X130447800Y-108515400D02*
X130447800Y-106951200D01*
X123672610Y-122910590D02*
X124307600Y-122275600D01*
X123266200Y-129133600D02*
X123672610Y-128727190D01*
X123672610Y-128727190D02*
X123672610Y-122910590D01*
X122453400Y-131216400D02*
X122453400Y-129946400D01*
X122453400Y-129946400D02*
X123266200Y-129133600D01*
X121107200Y-125476000D02*
X121107200Y-125960933D01*
X121132610Y-125986343D02*
X121132610Y-128727190D01*
X121107200Y-125960933D02*
X121132610Y-125986343D01*
X121132610Y-128727190D02*
X119913400Y-129946400D01*
X119913400Y-129946400D02*
X119913400Y-131216400D01*
X129647800Y-106951200D02*
X129647800Y-108045400D01*
X129647800Y-108045400D02*
X128524000Y-109169200D01*
X118643390Y-129794010D02*
X118643390Y-119964210D01*
X118643390Y-119964210D02*
X120040381Y-118567219D01*
X117373400Y-131064000D02*
X118643390Y-129794010D01*
X117373400Y-131216400D02*
X117373400Y-131064000D01*
X120040381Y-118567219D02*
X120383280Y-118224320D01*
X127609600Y-108762800D02*
X127952499Y-108419901D01*
X127952499Y-108419901D02*
X128433099Y-108419901D01*
X128433099Y-108419901D02*
X128847800Y-108005200D01*
X128847800Y-108005200D02*
X128847800Y-106951200D01*
X132697800Y-112401200D02*
X131040178Y-112401200D01*
X131040178Y-112401200D02*
X130966289Y-112475089D01*
X113563390Y-129794010D02*
X113563390Y-124866400D01*
X117906800Y-122072400D02*
X117563901Y-122415299D01*
X117563901Y-122415299D02*
X116014491Y-122415299D01*
X116014491Y-122415299D02*
X113563390Y-124866400D01*
X112293400Y-131216400D02*
X112293400Y-131064000D01*
X112293400Y-131064000D02*
X113563390Y-129794010D01*
X132697800Y-110001200D02*
X126185492Y-110001200D01*
X126185492Y-110001200D02*
X126067640Y-109883348D01*
X126447800Y-106951200D02*
X126447800Y-105581200D01*
X126795000Y-108458000D02*
X126238000Y-108458000D01*
X127247800Y-106951200D02*
X127247800Y-108005200D01*
X127247800Y-108005200D02*
X126795000Y-108458000D01*
G36*
X117756139Y-87939450D02*
X117705130Y-88191340D01*
X117705130Y-88773000D01*
X114947440Y-88773000D01*
X114947440Y-88646000D01*
X114903162Y-88410683D01*
X114764090Y-88194559D01*
X114551890Y-88049569D01*
X114300000Y-87998560D01*
X112268000Y-87998560D01*
X112032683Y-88042838D01*
X111816559Y-88181910D01*
X111671569Y-88394110D01*
X111620560Y-88646000D01*
X111620560Y-90678000D01*
X111664838Y-90913317D01*
X111803910Y-91129441D01*
X111966948Y-91240840D01*
X111877615Y-91337182D01*
X111678025Y-91819056D01*
X111797164Y-92075000D01*
X113157000Y-92075000D01*
X113157000Y-92055000D01*
X113411000Y-92055000D01*
X113411000Y-92075000D01*
X114770836Y-92075000D01*
X114776426Y-92062991D01*
X117717570Y-92062991D01*
X117717570Y-93153230D01*
X117876320Y-93311980D01*
X119126000Y-93311980D01*
X119126000Y-91713050D01*
X119380000Y-91713050D01*
X119380000Y-93311980D01*
X120629680Y-93311980D01*
X120788430Y-93153230D01*
X120788430Y-92062991D01*
X120691757Y-91829602D01*
X120513129Y-91650973D01*
X120279740Y-91554300D01*
X119538750Y-91554300D01*
X119380000Y-91713050D01*
X119126000Y-91713050D01*
X118967250Y-91554300D01*
X118226260Y-91554300D01*
X117992871Y-91650973D01*
X117814243Y-91829602D01*
X117717570Y-92062991D01*
X114776426Y-92062991D01*
X114889975Y-91819056D01*
X114690385Y-91337182D01*
X114599903Y-91239602D01*
X114751441Y-91142090D01*
X114896431Y-90929890D01*
X114947440Y-90678000D01*
X114947440Y-90551000D01*
X117705130Y-90551000D01*
X117705130Y-90690700D01*
X117749408Y-90926017D01*
X117888480Y-91142141D01*
X118100680Y-91287131D01*
X118352570Y-91338140D01*
X120153430Y-91338140D01*
X120388747Y-91293862D01*
X120604871Y-91154790D01*
X120749861Y-90942590D01*
X120777724Y-90805000D01*
X121579900Y-90805000D01*
X121579900Y-90816430D01*
X121624178Y-91051747D01*
X121763250Y-91267871D01*
X121975450Y-91412861D01*
X122227340Y-91463870D01*
X124726700Y-91463870D01*
X124962017Y-91419592D01*
X125178141Y-91280520D01*
X125323131Y-91068320D01*
X125374140Y-90816430D01*
X125374140Y-89015570D01*
X125577860Y-89015570D01*
X125577860Y-90816430D01*
X125622138Y-91051747D01*
X125761210Y-91267871D01*
X125973410Y-91412861D01*
X126225300Y-91463870D01*
X128724660Y-91463870D01*
X128959977Y-91419592D01*
X129176101Y-91280520D01*
X129321091Y-91068320D01*
X129372100Y-90816430D01*
X129372100Y-90805000D01*
X132188560Y-90805000D01*
X132188560Y-91543000D01*
X132232838Y-91778317D01*
X132371910Y-91994441D01*
X132584110Y-92139431D01*
X132836000Y-92190440D01*
X133836000Y-92190440D01*
X134071317Y-92146162D01*
X134287441Y-92007090D01*
X134432431Y-91794890D01*
X134483440Y-91543000D01*
X134483440Y-88543000D01*
X134439162Y-88307683D01*
X134300090Y-88091559D01*
X134087890Y-87946569D01*
X133836000Y-87895560D01*
X132836000Y-87895560D01*
X132600683Y-87939838D01*
X132384559Y-88078910D01*
X132239569Y-88291110D01*
X132188560Y-88543000D01*
X132188560Y-89027000D01*
X129372100Y-89027000D01*
X129372100Y-89015570D01*
X129327822Y-88780253D01*
X129188750Y-88564129D01*
X128976550Y-88419139D01*
X128724660Y-88368130D01*
X126225300Y-88368130D01*
X125989983Y-88412408D01*
X125773859Y-88551480D01*
X125628869Y-88763680D01*
X125577860Y-89015570D01*
X125374140Y-89015570D01*
X125329862Y-88780253D01*
X125190790Y-88564129D01*
X124978590Y-88419139D01*
X124726700Y-88368130D01*
X122227340Y-88368130D01*
X121992023Y-88412408D01*
X121775899Y-88551480D01*
X121630909Y-88763680D01*
X121579900Y-89015570D01*
X121579900Y-89027000D01*
X120800870Y-89027000D01*
X120800870Y-88191340D01*
X120756592Y-87956023D01*
X120676785Y-87832000D01*
X140387000Y-87832000D01*
X140387000Y-112286889D01*
X140365816Y-112255185D01*
X139065815Y-110955185D01*
X139013157Y-110920000D01*
X138818605Y-110790004D01*
X138552023Y-110736977D01*
X138539000Y-110671508D01*
X138539000Y-104376000D01*
X138480996Y-104084395D01*
X138315815Y-103837185D01*
X135809814Y-101331184D01*
X135562605Y-101166004D01*
X135271000Y-101108000D01*
X129099992Y-101108000D01*
X128978090Y-100918559D01*
X128765890Y-100773569D01*
X128514000Y-100722560D01*
X127264000Y-100722560D01*
X127028683Y-100766838D01*
X126812559Y-100905910D01*
X126763508Y-100977699D01*
X122637295Y-100977699D01*
X122345690Y-101035703D01*
X122310854Y-101058980D01*
X118387870Y-101058980D01*
X118387870Y-100571300D01*
X118343592Y-100335983D01*
X118204520Y-100119859D01*
X117992320Y-99974869D01*
X117740430Y-99923860D01*
X115939570Y-99923860D01*
X115704253Y-99968138D01*
X115488129Y-100107210D01*
X115343139Y-100319410D01*
X115292130Y-100571300D01*
X115292130Y-103070660D01*
X115336408Y-103305977D01*
X115475480Y-103522101D01*
X115687680Y-103667091D01*
X115938109Y-103717804D01*
X113493436Y-106162477D01*
X113233015Y-105772730D01*
X112923531Y-105565939D01*
X113339332Y-105194436D01*
X113593309Y-104667191D01*
X113595958Y-104651426D01*
X113474817Y-104419400D01*
X112115600Y-104419400D01*
X112115600Y-104439400D01*
X111861600Y-104439400D01*
X111861600Y-104419400D01*
X110502383Y-104419400D01*
X110381242Y-104651426D01*
X110383891Y-104667191D01*
X110637868Y-105194436D01*
X111053669Y-105565939D01*
X110744185Y-105772730D01*
X110419329Y-106258911D01*
X110305255Y-106832400D01*
X110419329Y-107405889D01*
X110744185Y-107892070D01*
X111058966Y-108102400D01*
X110744185Y-108312730D01*
X110419329Y-108798911D01*
X110305255Y-109372400D01*
X110371525Y-109705563D01*
X109162244Y-110914844D01*
X108988804Y-111174415D01*
X108927900Y-111480600D01*
X108927900Y-126098560D01*
X108864400Y-126098560D01*
X108629083Y-126142838D01*
X108412959Y-126281910D01*
X108267969Y-126494110D01*
X108216960Y-126746000D01*
X108216960Y-128778000D01*
X108261238Y-129013317D01*
X108400310Y-129229441D01*
X108612510Y-129374431D01*
X108864400Y-129425440D01*
X110591600Y-129425440D01*
X110826917Y-129381162D01*
X111043041Y-129242090D01*
X111188031Y-129029890D01*
X111196400Y-128988561D01*
X111208330Y-129006415D01*
X111694511Y-129331271D01*
X112268000Y-129445345D01*
X112801390Y-129339247D01*
X112801390Y-129478380D01*
X112582548Y-129697222D01*
X112268000Y-129634655D01*
X111694511Y-129748729D01*
X111208330Y-130073585D01*
X111001539Y-130383069D01*
X110630036Y-129967268D01*
X110102791Y-129713291D01*
X110087026Y-129710642D01*
X109855000Y-129831783D01*
X109855000Y-131191000D01*
X109875000Y-131191000D01*
X109875000Y-131445000D01*
X109855000Y-131445000D01*
X109855000Y-132804217D01*
X110087026Y-132925358D01*
X110102791Y-132922709D01*
X110630036Y-132668732D01*
X111001539Y-132252931D01*
X111208330Y-132562415D01*
X111694511Y-132887271D01*
X112268000Y-133001345D01*
X112841489Y-132887271D01*
X113327670Y-132562415D01*
X113538000Y-132247634D01*
X113748330Y-132562415D01*
X114234511Y-132887271D01*
X114808000Y-133001345D01*
X115381489Y-132887271D01*
X115867670Y-132562415D01*
X116078000Y-132247634D01*
X116288330Y-132562415D01*
X116774511Y-132887271D01*
X117348000Y-133001345D01*
X117921489Y-132887271D01*
X118407670Y-132562415D01*
X118618000Y-132247634D01*
X118828330Y-132562415D01*
X119314511Y-132887271D01*
X119888000Y-133001345D01*
X120461489Y-132887271D01*
X120947670Y-132562415D01*
X121158000Y-132247634D01*
X121368330Y-132562415D01*
X121854511Y-132887271D01*
X122428000Y-133001345D01*
X123001489Y-132887271D01*
X123487670Y-132562415D01*
X123698000Y-132247634D01*
X123908330Y-132562415D01*
X124394511Y-132887271D01*
X124968000Y-133001345D01*
X125541489Y-132887271D01*
X126027670Y-132562415D01*
X126238000Y-132247634D01*
X126448330Y-132562415D01*
X126934511Y-132887271D01*
X127508000Y-133001345D01*
X128081489Y-132887271D01*
X128567670Y-132562415D01*
X128778000Y-132247634D01*
X128988330Y-132562415D01*
X129474511Y-132887271D01*
X130048000Y-133001345D01*
X130621489Y-132887271D01*
X131107670Y-132562415D01*
X131318000Y-132247634D01*
X131528330Y-132562415D01*
X132014511Y-132887271D01*
X132588000Y-133001345D01*
X133161489Y-132887271D01*
X133647670Y-132562415D01*
X133858000Y-132247634D01*
X134068330Y-132562415D01*
X134554511Y-132887271D01*
X135128000Y-133001345D01*
X135701489Y-132887271D01*
X136187670Y-132562415D01*
X136197243Y-132548087D01*
X136201238Y-132569317D01*
X136340310Y-132785441D01*
X136552510Y-132930431D01*
X136804400Y-132981440D01*
X138531600Y-132981440D01*
X138766917Y-132937162D01*
X138983041Y-132798090D01*
X139128031Y-132585890D01*
X139179040Y-132334000D01*
X139179040Y-131953952D01*
X139324415Y-131856815D01*
X140365815Y-130815415D01*
X140387000Y-130783709D01*
X140387000Y-134672000D01*
X106247000Y-134672000D01*
X106247000Y-131679913D01*
X108242816Y-131679913D01*
X108436046Y-132232320D01*
X108825964Y-132668732D01*
X109353209Y-132922709D01*
X109368974Y-132925358D01*
X109601000Y-132804217D01*
X109601000Y-131445000D01*
X108387076Y-131445000D01*
X108242816Y-131679913D01*
X106247000Y-131679913D01*
X106247000Y-130956087D01*
X108242816Y-130956087D01*
X108387076Y-131191000D01*
X109601000Y-131191000D01*
X109601000Y-129831783D01*
X109368974Y-129710642D01*
X109353209Y-129713291D01*
X108825964Y-129967268D01*
X108436046Y-130403680D01*
X108242816Y-130956087D01*
X106247000Y-130956087D01*
X106247000Y-103933374D01*
X110381242Y-103933374D01*
X110502383Y-104165400D01*
X111861600Y-104165400D01*
X111861600Y-102951476D01*
X112115600Y-102951476D01*
X112115600Y-104165400D01*
X113474817Y-104165400D01*
X113595958Y-103933374D01*
X113593309Y-103917609D01*
X113339332Y-103390364D01*
X112902920Y-103000446D01*
X112350513Y-102807216D01*
X112115600Y-102951476D01*
X111861600Y-102951476D01*
X111626687Y-102807216D01*
X111074280Y-103000446D01*
X110637868Y-103390364D01*
X110383891Y-103917609D01*
X110381242Y-103933374D01*
X106247000Y-103933374D01*
X106247000Y-97694750D01*
X107982000Y-97694750D01*
X107982000Y-98785310D01*
X108078673Y-99018699D01*
X108257302Y-99197327D01*
X108490691Y-99294000D01*
X108831250Y-99294000D01*
X108990000Y-99135250D01*
X108990000Y-97536000D01*
X109244000Y-97536000D01*
X109244000Y-99135250D01*
X109402750Y-99294000D01*
X109743309Y-99294000D01*
X109976698Y-99197327D01*
X110155327Y-99018699D01*
X110252000Y-98785310D01*
X110252000Y-97694750D01*
X110093250Y-97536000D01*
X109244000Y-97536000D01*
X108990000Y-97536000D01*
X108140750Y-97536000D01*
X107982000Y-97694750D01*
X106247000Y-97694750D01*
X106247000Y-96032690D01*
X107982000Y-96032690D01*
X107982000Y-97123250D01*
X108140750Y-97282000D01*
X108990000Y-97282000D01*
X108990000Y-95682750D01*
X109244000Y-95682750D01*
X109244000Y-97282000D01*
X110093250Y-97282000D01*
X110252000Y-97123250D01*
X110252000Y-96159000D01*
X110969560Y-96159000D01*
X110969560Y-98659000D01*
X111013838Y-98894317D01*
X111152910Y-99110441D01*
X111365110Y-99255431D01*
X111617000Y-99306440D01*
X112617000Y-99306440D01*
X112852317Y-99262162D01*
X113068441Y-99123090D01*
X113213431Y-98910890D01*
X113264440Y-98659000D01*
X113264440Y-98298000D01*
X115292130Y-98298000D01*
X115292130Y-99072700D01*
X115336408Y-99308017D01*
X115475480Y-99524141D01*
X115687680Y-99669131D01*
X115939570Y-99720140D01*
X117740430Y-99720140D01*
X117975747Y-99675862D01*
X118191871Y-99536790D01*
X118336861Y-99324590D01*
X118387870Y-99072700D01*
X118387870Y-98712020D01*
X121605300Y-98712020D01*
X121605300Y-99997260D01*
X121649578Y-100232577D01*
X121788650Y-100448701D01*
X122000850Y-100593691D01*
X122252740Y-100644700D01*
X128953260Y-100644700D01*
X129188577Y-100600422D01*
X129404701Y-100461350D01*
X129549691Y-100249150D01*
X129600700Y-99997260D01*
X129600700Y-99233990D01*
X130093720Y-99233990D01*
X130093720Y-99900049D01*
X130190393Y-100133438D01*
X130369021Y-100312067D01*
X130602410Y-100408740D01*
X131966970Y-100408740D01*
X132125720Y-100249990D01*
X132125720Y-99075240D01*
X132379720Y-99075240D01*
X132379720Y-100249990D01*
X132538470Y-100408740D01*
X133903030Y-100408740D01*
X134136419Y-100312067D01*
X134315047Y-100133438D01*
X134411720Y-99900049D01*
X134411720Y-99233990D01*
X134252970Y-99075240D01*
X132379720Y-99075240D01*
X132125720Y-99075240D01*
X130252470Y-99075240D01*
X130093720Y-99233990D01*
X129600700Y-99233990D01*
X129600700Y-97996431D01*
X130093720Y-97996431D01*
X130093720Y-98662490D01*
X130252470Y-98821240D01*
X132125720Y-98821240D01*
X132125720Y-97646490D01*
X132379720Y-97646490D01*
X132379720Y-98821240D01*
X134252970Y-98821240D01*
X134411720Y-98662490D01*
X134411720Y-97996431D01*
X134329424Y-97797750D01*
X135021000Y-97797750D01*
X135021000Y-98138309D01*
X135117673Y-98371698D01*
X135296301Y-98550327D01*
X135529690Y-98647000D01*
X136620250Y-98647000D01*
X136779000Y-98488250D01*
X136779000Y-97639000D01*
X137033000Y-97639000D01*
X137033000Y-98488250D01*
X137191750Y-98647000D01*
X138282310Y-98647000D01*
X138515699Y-98550327D01*
X138694327Y-98371698D01*
X138791000Y-98138309D01*
X138791000Y-97797750D01*
X138632250Y-97639000D01*
X137033000Y-97639000D01*
X136779000Y-97639000D01*
X135179750Y-97639000D01*
X135021000Y-97797750D01*
X134329424Y-97797750D01*
X134315047Y-97763042D01*
X134136419Y-97584413D01*
X133903030Y-97487740D01*
X132538470Y-97487740D01*
X132379720Y-97646490D01*
X132125720Y-97646490D01*
X131966970Y-97487740D01*
X130602410Y-97487740D01*
X130369021Y-97584413D01*
X130190393Y-97763042D01*
X130093720Y-97996431D01*
X129600700Y-97996431D01*
X129600700Y-96885691D01*
X135021000Y-96885691D01*
X135021000Y-97226250D01*
X135179750Y-97385000D01*
X136779000Y-97385000D01*
X136779000Y-96535750D01*
X137033000Y-96535750D01*
X137033000Y-97385000D01*
X138632250Y-97385000D01*
X138791000Y-97226250D01*
X138791000Y-96885691D01*
X138694327Y-96652302D01*
X138515699Y-96473673D01*
X138282310Y-96377000D01*
X137191750Y-96377000D01*
X137033000Y-96535750D01*
X136779000Y-96535750D01*
X136620250Y-96377000D01*
X135529690Y-96377000D01*
X135296301Y-96473673D01*
X135117673Y-96652302D01*
X135021000Y-96885691D01*
X129600700Y-96885691D01*
X129600700Y-93520260D01*
X130081280Y-93520260D01*
X130081280Y-95171260D01*
X130125558Y-95406577D01*
X130264630Y-95622701D01*
X130476830Y-95767691D01*
X130728720Y-95818700D01*
X133776720Y-95818700D01*
X134012037Y-95774422D01*
X134228161Y-95635350D01*
X134373151Y-95423150D01*
X134411301Y-95234760D01*
X135050475Y-95234760D01*
X135052838Y-95247317D01*
X135191910Y-95463441D01*
X135404110Y-95608431D01*
X135656000Y-95659440D01*
X138156000Y-95659440D01*
X138391317Y-95615162D01*
X138607441Y-95476090D01*
X138752431Y-95263890D01*
X138803440Y-95012000D01*
X138803440Y-94012000D01*
X138762673Y-93795341D01*
X138825000Y-93482000D01*
X138825000Y-92047270D01*
X138887441Y-92007090D01*
X139032431Y-91794890D01*
X139083440Y-91543000D01*
X139083440Y-88543000D01*
X139039162Y-88307683D01*
X138900090Y-88091559D01*
X138687890Y-87946569D01*
X138436000Y-87895560D01*
X137436000Y-87895560D01*
X137200683Y-87939838D01*
X136984559Y-88078910D01*
X136839569Y-88291110D01*
X136788560Y-88543000D01*
X136788560Y-91543000D01*
X136832838Y-91778317D01*
X136971910Y-91994441D01*
X137047000Y-92045748D01*
X137047000Y-93113764D01*
X136796204Y-93364560D01*
X135656000Y-93364560D01*
X135420683Y-93408838D01*
X135346210Y-93456760D01*
X134412212Y-93456760D01*
X134379882Y-93284943D01*
X134240810Y-93068819D01*
X134028610Y-92923829D01*
X133776720Y-92872820D01*
X130728720Y-92872820D01*
X130493403Y-92917098D01*
X130277279Y-93056170D01*
X130132289Y-93268370D01*
X130081280Y-93520260D01*
X129600700Y-93520260D01*
X129600700Y-93296740D01*
X129556422Y-93061423D01*
X129417350Y-92845299D01*
X129205150Y-92700309D01*
X128953260Y-92649300D01*
X122252740Y-92649300D01*
X122017423Y-92693578D01*
X121801299Y-92832650D01*
X121656309Y-93044850D01*
X121605300Y-93296740D01*
X121605300Y-96934020D01*
X118387870Y-96934020D01*
X118387870Y-96573340D01*
X118343592Y-96338023D01*
X118204520Y-96121899D01*
X117992320Y-95976909D01*
X117740430Y-95925900D01*
X115939570Y-95925900D01*
X115704253Y-95970178D01*
X115488129Y-96109250D01*
X115343139Y-96321450D01*
X115302932Y-96520000D01*
X113264440Y-96520000D01*
X113264440Y-96159000D01*
X113220162Y-95923683D01*
X113081090Y-95707559D01*
X112868890Y-95562569D01*
X112617000Y-95511560D01*
X111617000Y-95511560D01*
X111381683Y-95555838D01*
X111165559Y-95694910D01*
X111020569Y-95907110D01*
X110969560Y-96159000D01*
X110252000Y-96159000D01*
X110252000Y-96032690D01*
X110155327Y-95799301D01*
X109976698Y-95620673D01*
X109743309Y-95524000D01*
X109402750Y-95524000D01*
X109244000Y-95682750D01*
X108990000Y-95682750D01*
X108831250Y-95524000D01*
X108490691Y-95524000D01*
X108257302Y-95620673D01*
X108078673Y-95799301D01*
X107982000Y-96032690D01*
X106247000Y-96032690D01*
X106247000Y-92584944D01*
X111678025Y-92584944D01*
X111877615Y-93066818D01*
X112315621Y-93539188D01*
X112901054Y-93807983D01*
X113157000Y-93689367D01*
X113157000Y-92329000D01*
X113411000Y-92329000D01*
X113411000Y-93689367D01*
X113666946Y-93807983D01*
X113848270Y-93724730D01*
X117717570Y-93724730D01*
X117717570Y-94814969D01*
X117814243Y-95048358D01*
X117992871Y-95226987D01*
X118226260Y-95323660D01*
X118967250Y-95323660D01*
X119126000Y-95164910D01*
X119126000Y-93565980D01*
X119380000Y-93565980D01*
X119380000Y-95164910D01*
X119538750Y-95323660D01*
X120279740Y-95323660D01*
X120513129Y-95226987D01*
X120691757Y-95048358D01*
X120788430Y-94814969D01*
X120788430Y-93724730D01*
X120629680Y-93565980D01*
X119380000Y-93565980D01*
X119126000Y-93565980D01*
X117876320Y-93565980D01*
X117717570Y-93724730D01*
X113848270Y-93724730D01*
X114252379Y-93539188D01*
X114690385Y-93066818D01*
X114889975Y-92584944D01*
X114770836Y-92329000D01*
X113411000Y-92329000D01*
X113157000Y-92329000D01*
X111797164Y-92329000D01*
X111678025Y-92584944D01*
X106247000Y-92584944D01*
X106247000Y-87832000D01*
X117829556Y-87832000D01*
X117756139Y-87939450D01*
X117756139Y-87939450D01*
G37*
X117756139Y-87939450D02*
X117705130Y-88191340D01*
X117705130Y-88773000D01*
X114947440Y-88773000D01*
X114947440Y-88646000D01*
X114903162Y-88410683D01*
X114764090Y-88194559D01*
X114551890Y-88049569D01*
X114300000Y-87998560D01*
X112268000Y-87998560D01*
X112032683Y-88042838D01*
X111816559Y-88181910D01*
X111671569Y-88394110D01*
X111620560Y-88646000D01*
X111620560Y-90678000D01*
X111664838Y-90913317D01*
X111803910Y-91129441D01*
X111966948Y-91240840D01*
X111877615Y-91337182D01*
X111678025Y-91819056D01*
X111797164Y-92075000D01*
X113157000Y-92075000D01*
X113157000Y-92055000D01*
X113411000Y-92055000D01*
X113411000Y-92075000D01*
X114770836Y-92075000D01*
X114776426Y-92062991D01*
X117717570Y-92062991D01*
X117717570Y-93153230D01*
X117876320Y-93311980D01*
X119126000Y-93311980D01*
X119126000Y-91713050D01*
X119380000Y-91713050D01*
X119380000Y-93311980D01*
X120629680Y-93311980D01*
X120788430Y-93153230D01*
X120788430Y-92062991D01*
X120691757Y-91829602D01*
X120513129Y-91650973D01*
X120279740Y-91554300D01*
X119538750Y-91554300D01*
X119380000Y-91713050D01*
X119126000Y-91713050D01*
X118967250Y-91554300D01*
X118226260Y-91554300D01*
X117992871Y-91650973D01*
X117814243Y-91829602D01*
X117717570Y-92062991D01*
X114776426Y-92062991D01*
X114889975Y-91819056D01*
X114690385Y-91337182D01*
X114599903Y-91239602D01*
X114751441Y-91142090D01*
X114896431Y-90929890D01*
X114947440Y-90678000D01*
X114947440Y-90551000D01*
X117705130Y-90551000D01*
X117705130Y-90690700D01*
X117749408Y-90926017D01*
X117888480Y-91142141D01*
X118100680Y-91287131D01*
X118352570Y-91338140D01*
X120153430Y-91338140D01*
X120388747Y-91293862D01*
X120604871Y-91154790D01*
X120749861Y-90942590D01*
X120777724Y-90805000D01*
X121579900Y-90805000D01*
X121579900Y-90816430D01*
X121624178Y-91051747D01*
X121763250Y-91267871D01*
X121975450Y-91412861D01*
X122227340Y-91463870D01*
X124726700Y-91463870D01*
X124962017Y-91419592D01*
X125178141Y-91280520D01*
X125323131Y-91068320D01*
X125374140Y-90816430D01*
X125374140Y-89015570D01*
X125577860Y-89015570D01*
X125577860Y-90816430D01*
X125622138Y-91051747D01*
X125761210Y-91267871D01*
X125973410Y-91412861D01*
X126225300Y-91463870D01*
X128724660Y-91463870D01*
X128959977Y-91419592D01*
X129176101Y-91280520D01*
X129321091Y-91068320D01*
X129372100Y-90816430D01*
X129372100Y-90805000D01*
X132188560Y-90805000D01*
X132188560Y-91543000D01*
X132232838Y-91778317D01*
X132371910Y-91994441D01*
X132584110Y-92139431D01*
X132836000Y-92190440D01*
X133836000Y-92190440D01*
X134071317Y-92146162D01*
X134287441Y-92007090D01*
X134432431Y-91794890D01*
X134483440Y-91543000D01*
X134483440Y-88543000D01*
X134439162Y-88307683D01*
X134300090Y-88091559D01*
X134087890Y-87946569D01*
X133836000Y-87895560D01*
X132836000Y-87895560D01*
X132600683Y-87939838D01*
X132384559Y-88078910D01*
X132239569Y-88291110D01*
X132188560Y-88543000D01*
X132188560Y-89027000D01*
X129372100Y-89027000D01*
X129372100Y-89015570D01*
X129327822Y-88780253D01*
X129188750Y-88564129D01*
X128976550Y-88419139D01*
X128724660Y-88368130D01*
X126225300Y-88368130D01*
X125989983Y-88412408D01*
X125773859Y-88551480D01*
X125628869Y-88763680D01*
X125577860Y-89015570D01*
X125374140Y-89015570D01*
X125329862Y-88780253D01*
X125190790Y-88564129D01*
X124978590Y-88419139D01*
X124726700Y-88368130D01*
X122227340Y-88368130D01*
X121992023Y-88412408D01*
X121775899Y-88551480D01*
X121630909Y-88763680D01*
X121579900Y-89015570D01*
X121579900Y-89027000D01*
X120800870Y-89027000D01*
X120800870Y-88191340D01*
X120756592Y-87956023D01*
X120676785Y-87832000D01*
X140387000Y-87832000D01*
X140387000Y-112286889D01*
X140365816Y-112255185D01*
X139065815Y-110955185D01*
X139013157Y-110920000D01*
X138818605Y-110790004D01*
X138552023Y-110736977D01*
X138539000Y-110671508D01*
X138539000Y-104376000D01*
X138480996Y-104084395D01*
X138315815Y-103837185D01*
X135809814Y-101331184D01*
X135562605Y-101166004D01*
X135271000Y-101108000D01*
X129099992Y-101108000D01*
X128978090Y-100918559D01*
X128765890Y-100773569D01*
X128514000Y-100722560D01*
X127264000Y-100722560D01*
X127028683Y-100766838D01*
X126812559Y-100905910D01*
X126763508Y-100977699D01*
X122637295Y-100977699D01*
X122345690Y-101035703D01*
X122310854Y-101058980D01*
X118387870Y-101058980D01*
X118387870Y-100571300D01*
X118343592Y-100335983D01*
X118204520Y-100119859D01*
X117992320Y-99974869D01*
X117740430Y-99923860D01*
X115939570Y-99923860D01*
X115704253Y-99968138D01*
X115488129Y-100107210D01*
X115343139Y-100319410D01*
X115292130Y-100571300D01*
X115292130Y-103070660D01*
X115336408Y-103305977D01*
X115475480Y-103522101D01*
X115687680Y-103667091D01*
X115938109Y-103717804D01*
X113493436Y-106162477D01*
X113233015Y-105772730D01*
X112923531Y-105565939D01*
X113339332Y-105194436D01*
X113593309Y-104667191D01*
X113595958Y-104651426D01*
X113474817Y-104419400D01*
X112115600Y-104419400D01*
X112115600Y-104439400D01*
X111861600Y-104439400D01*
X111861600Y-104419400D01*
X110502383Y-104419400D01*
X110381242Y-104651426D01*
X110383891Y-104667191D01*
X110637868Y-105194436D01*
X111053669Y-105565939D01*
X110744185Y-105772730D01*
X110419329Y-106258911D01*
X110305255Y-106832400D01*
X110419329Y-107405889D01*
X110744185Y-107892070D01*
X111058966Y-108102400D01*
X110744185Y-108312730D01*
X110419329Y-108798911D01*
X110305255Y-109372400D01*
X110371525Y-109705563D01*
X109162244Y-110914844D01*
X108988804Y-111174415D01*
X108927900Y-111480600D01*
X108927900Y-126098560D01*
X108864400Y-126098560D01*
X108629083Y-126142838D01*
X108412959Y-126281910D01*
X108267969Y-126494110D01*
X108216960Y-126746000D01*
X108216960Y-128778000D01*
X108261238Y-129013317D01*
X108400310Y-129229441D01*
X108612510Y-129374431D01*
X108864400Y-129425440D01*
X110591600Y-129425440D01*
X110826917Y-129381162D01*
X111043041Y-129242090D01*
X111188031Y-129029890D01*
X111196400Y-128988561D01*
X111208330Y-129006415D01*
X111694511Y-129331271D01*
X112268000Y-129445345D01*
X112801390Y-129339247D01*
X112801390Y-129478380D01*
X112582548Y-129697222D01*
X112268000Y-129634655D01*
X111694511Y-129748729D01*
X111208330Y-130073585D01*
X111001539Y-130383069D01*
X110630036Y-129967268D01*
X110102791Y-129713291D01*
X110087026Y-129710642D01*
X109855000Y-129831783D01*
X109855000Y-131191000D01*
X109875000Y-131191000D01*
X109875000Y-131445000D01*
X109855000Y-131445000D01*
X109855000Y-132804217D01*
X110087026Y-132925358D01*
X110102791Y-132922709D01*
X110630036Y-132668732D01*
X111001539Y-132252931D01*
X111208330Y-132562415D01*
X111694511Y-132887271D01*
X112268000Y-133001345D01*
X112841489Y-132887271D01*
X113327670Y-132562415D01*
X113538000Y-132247634D01*
X113748330Y-132562415D01*
X114234511Y-132887271D01*
X114808000Y-133001345D01*
X115381489Y-132887271D01*
X115867670Y-132562415D01*
X116078000Y-132247634D01*
X116288330Y-132562415D01*
X116774511Y-132887271D01*
X117348000Y-133001345D01*
X117921489Y-132887271D01*
X118407670Y-132562415D01*
X118618000Y-132247634D01*
X118828330Y-132562415D01*
X119314511Y-132887271D01*
X119888000Y-133001345D01*
X120461489Y-132887271D01*
X120947670Y-132562415D01*
X121158000Y-132247634D01*
X121368330Y-132562415D01*
X121854511Y-132887271D01*
X122428000Y-133001345D01*
X123001489Y-132887271D01*
X123487670Y-132562415D01*
X123698000Y-132247634D01*
X123908330Y-132562415D01*
X124394511Y-132887271D01*
X124968000Y-133001345D01*
X125541489Y-132887271D01*
X126027670Y-132562415D01*
X126238000Y-132247634D01*
X126448330Y-132562415D01*
X126934511Y-132887271D01*
X127508000Y-133001345D01*
X128081489Y-132887271D01*
X128567670Y-132562415D01*
X128778000Y-132247634D01*
X128988330Y-132562415D01*
X129474511Y-132887271D01*
X130048000Y-133001345D01*
X130621489Y-132887271D01*
X131107670Y-132562415D01*
X131318000Y-132247634D01*
X131528330Y-132562415D01*
X132014511Y-132887271D01*
X132588000Y-133001345D01*
X133161489Y-132887271D01*
X133647670Y-132562415D01*
X133858000Y-132247634D01*
X134068330Y-132562415D01*
X134554511Y-132887271D01*
X135128000Y-133001345D01*
X135701489Y-132887271D01*
X136187670Y-132562415D01*
X136197243Y-132548087D01*
X136201238Y-132569317D01*
X136340310Y-132785441D01*
X136552510Y-132930431D01*
X136804400Y-132981440D01*
X138531600Y-132981440D01*
X138766917Y-132937162D01*
X138983041Y-132798090D01*
X139128031Y-132585890D01*
X139179040Y-132334000D01*
X139179040Y-131953952D01*
X139324415Y-131856815D01*
X140365815Y-130815415D01*
X140387000Y-130783709D01*
X140387000Y-134672000D01*
X106247000Y-134672000D01*
X106247000Y-131679913D01*
X108242816Y-131679913D01*
X108436046Y-132232320D01*
X108825964Y-132668732D01*
X109353209Y-132922709D01*
X109368974Y-132925358D01*
X109601000Y-132804217D01*
X109601000Y-131445000D01*
X108387076Y-131445000D01*
X108242816Y-131679913D01*
X106247000Y-131679913D01*
X106247000Y-130956087D01*
X108242816Y-130956087D01*
X108387076Y-131191000D01*
X109601000Y-131191000D01*
X109601000Y-129831783D01*
X109368974Y-129710642D01*
X109353209Y-129713291D01*
X108825964Y-129967268D01*
X108436046Y-130403680D01*
X108242816Y-130956087D01*
X106247000Y-130956087D01*
X106247000Y-103933374D01*
X110381242Y-103933374D01*
X110502383Y-104165400D01*
X111861600Y-104165400D01*
X111861600Y-102951476D01*
X112115600Y-102951476D01*
X112115600Y-104165400D01*
X113474817Y-104165400D01*
X113595958Y-103933374D01*
X113593309Y-103917609D01*
X113339332Y-103390364D01*
X112902920Y-103000446D01*
X112350513Y-102807216D01*
X112115600Y-102951476D01*
X111861600Y-102951476D01*
X111626687Y-102807216D01*
X111074280Y-103000446D01*
X110637868Y-103390364D01*
X110383891Y-103917609D01*
X110381242Y-103933374D01*
X106247000Y-103933374D01*
X106247000Y-97694750D01*
X107982000Y-97694750D01*
X107982000Y-98785310D01*
X108078673Y-99018699D01*
X108257302Y-99197327D01*
X108490691Y-99294000D01*
X108831250Y-99294000D01*
X108990000Y-99135250D01*
X108990000Y-97536000D01*
X109244000Y-97536000D01*
X109244000Y-99135250D01*
X109402750Y-99294000D01*
X109743309Y-99294000D01*
X109976698Y-99197327D01*
X110155327Y-99018699D01*
X110252000Y-98785310D01*
X110252000Y-97694750D01*
X110093250Y-97536000D01*
X109244000Y-97536000D01*
X108990000Y-97536000D01*
X108140750Y-97536000D01*
X107982000Y-97694750D01*
X106247000Y-97694750D01*
X106247000Y-96032690D01*
X107982000Y-96032690D01*
X107982000Y-97123250D01*
X108140750Y-97282000D01*
X108990000Y-97282000D01*
X108990000Y-95682750D01*
X109244000Y-95682750D01*
X109244000Y-97282000D01*
X110093250Y-97282000D01*
X110252000Y-97123250D01*
X110252000Y-96159000D01*
X110969560Y-96159000D01*
X110969560Y-98659000D01*
X111013838Y-98894317D01*
X111152910Y-99110441D01*
X111365110Y-99255431D01*
X111617000Y-99306440D01*
X112617000Y-99306440D01*
X112852317Y-99262162D01*
X113068441Y-99123090D01*
X113213431Y-98910890D01*
X113264440Y-98659000D01*
X113264440Y-98298000D01*
X115292130Y-98298000D01*
X115292130Y-99072700D01*
X115336408Y-99308017D01*
X115475480Y-99524141D01*
X115687680Y-99669131D01*
X115939570Y-99720140D01*
X117740430Y-99720140D01*
X117975747Y-99675862D01*
X118191871Y-99536790D01*
X118336861Y-99324590D01*
X118387870Y-99072700D01*
X118387870Y-98712020D01*
X121605300Y-98712020D01*
X121605300Y-99997260D01*
X121649578Y-100232577D01*
X121788650Y-100448701D01*
X122000850Y-100593691D01*
X122252740Y-100644700D01*
X128953260Y-100644700D01*
X129188577Y-100600422D01*
X129404701Y-100461350D01*
X129549691Y-100249150D01*
X129600700Y-99997260D01*
X129600700Y-99233990D01*
X130093720Y-99233990D01*
X130093720Y-99900049D01*
X130190393Y-100133438D01*
X130369021Y-100312067D01*
X130602410Y-100408740D01*
X131966970Y-100408740D01*
X132125720Y-100249990D01*
X132125720Y-99075240D01*
X132379720Y-99075240D01*
X132379720Y-100249990D01*
X132538470Y-100408740D01*
X133903030Y-100408740D01*
X134136419Y-100312067D01*
X134315047Y-100133438D01*
X134411720Y-99900049D01*
X134411720Y-99233990D01*
X134252970Y-99075240D01*
X132379720Y-99075240D01*
X132125720Y-99075240D01*
X130252470Y-99075240D01*
X130093720Y-99233990D01*
X129600700Y-99233990D01*
X129600700Y-97996431D01*
X130093720Y-97996431D01*
X130093720Y-98662490D01*
X130252470Y-98821240D01*
X132125720Y-98821240D01*
X132125720Y-97646490D01*
X132379720Y-97646490D01*
X132379720Y-98821240D01*
X134252970Y-98821240D01*
X134411720Y-98662490D01*
X134411720Y-97996431D01*
X134329424Y-97797750D01*
X135021000Y-97797750D01*
X135021000Y-98138309D01*
X135117673Y-98371698D01*
X135296301Y-98550327D01*
X135529690Y-98647000D01*
X136620250Y-98647000D01*
X136779000Y-98488250D01*
X136779000Y-97639000D01*
X137033000Y-97639000D01*
X137033000Y-98488250D01*
X137191750Y-98647000D01*
X138282310Y-98647000D01*
X138515699Y-98550327D01*
X138694327Y-98371698D01*
X138791000Y-98138309D01*
X138791000Y-97797750D01*
X138632250Y-97639000D01*
X137033000Y-97639000D01*
X136779000Y-97639000D01*
X135179750Y-97639000D01*
X135021000Y-97797750D01*
X134329424Y-97797750D01*
X134315047Y-97763042D01*
X134136419Y-97584413D01*
X133903030Y-97487740D01*
X132538470Y-97487740D01*
X132379720Y-97646490D01*
X132125720Y-97646490D01*
X131966970Y-97487740D01*
X130602410Y-97487740D01*
X130369021Y-97584413D01*
X130190393Y-97763042D01*
X130093720Y-97996431D01*
X129600700Y-97996431D01*
X129600700Y-96885691D01*
X135021000Y-96885691D01*
X135021000Y-97226250D01*
X135179750Y-97385000D01*
X136779000Y-97385000D01*
X136779000Y-96535750D01*
X137033000Y-96535750D01*
X137033000Y-97385000D01*
X138632250Y-97385000D01*
X138791000Y-97226250D01*
X138791000Y-96885691D01*
X138694327Y-96652302D01*
X138515699Y-96473673D01*
X138282310Y-96377000D01*
X137191750Y-96377000D01*
X137033000Y-96535750D01*
X136779000Y-96535750D01*
X136620250Y-96377000D01*
X135529690Y-96377000D01*
X135296301Y-96473673D01*
X135117673Y-96652302D01*
X135021000Y-96885691D01*
X129600700Y-96885691D01*
X129600700Y-93520260D01*
X130081280Y-93520260D01*
X130081280Y-95171260D01*
X130125558Y-95406577D01*
X130264630Y-95622701D01*
X130476830Y-95767691D01*
X130728720Y-95818700D01*
X133776720Y-95818700D01*
X134012037Y-95774422D01*
X134228161Y-95635350D01*
X134373151Y-95423150D01*
X134411301Y-95234760D01*
X135050475Y-95234760D01*
X135052838Y-95247317D01*
X135191910Y-95463441D01*
X135404110Y-95608431D01*
X135656000Y-95659440D01*
X138156000Y-95659440D01*
X138391317Y-95615162D01*
X138607441Y-95476090D01*
X138752431Y-95263890D01*
X138803440Y-95012000D01*
X138803440Y-94012000D01*
X138762673Y-93795341D01*
X138825000Y-93482000D01*
X138825000Y-92047270D01*
X138887441Y-92007090D01*
X139032431Y-91794890D01*
X139083440Y-91543000D01*
X139083440Y-88543000D01*
X139039162Y-88307683D01*
X138900090Y-88091559D01*
X138687890Y-87946569D01*
X138436000Y-87895560D01*
X137436000Y-87895560D01*
X137200683Y-87939838D01*
X136984559Y-88078910D01*
X136839569Y-88291110D01*
X136788560Y-88543000D01*
X136788560Y-91543000D01*
X136832838Y-91778317D01*
X136971910Y-91994441D01*
X137047000Y-92045748D01*
X137047000Y-93113764D01*
X136796204Y-93364560D01*
X135656000Y-93364560D01*
X135420683Y-93408838D01*
X135346210Y-93456760D01*
X134412212Y-93456760D01*
X134379882Y-93284943D01*
X134240810Y-93068819D01*
X134028610Y-92923829D01*
X133776720Y-92872820D01*
X130728720Y-92872820D01*
X130493403Y-92917098D01*
X130277279Y-93056170D01*
X130132289Y-93268370D01*
X130081280Y-93520260D01*
X129600700Y-93520260D01*
X129600700Y-93296740D01*
X129556422Y-93061423D01*
X129417350Y-92845299D01*
X129205150Y-92700309D01*
X128953260Y-92649300D01*
X122252740Y-92649300D01*
X122017423Y-92693578D01*
X121801299Y-92832650D01*
X121656309Y-93044850D01*
X121605300Y-93296740D01*
X121605300Y-96934020D01*
X118387870Y-96934020D01*
X118387870Y-96573340D01*
X118343592Y-96338023D01*
X118204520Y-96121899D01*
X117992320Y-95976909D01*
X117740430Y-95925900D01*
X115939570Y-95925900D01*
X115704253Y-95970178D01*
X115488129Y-96109250D01*
X115343139Y-96321450D01*
X115302932Y-96520000D01*
X113264440Y-96520000D01*
X113264440Y-96159000D01*
X113220162Y-95923683D01*
X113081090Y-95707559D01*
X112868890Y-95562569D01*
X112617000Y-95511560D01*
X111617000Y-95511560D01*
X111381683Y-95555838D01*
X111165559Y-95694910D01*
X111020569Y-95907110D01*
X110969560Y-96159000D01*
X110252000Y-96159000D01*
X110252000Y-96032690D01*
X110155327Y-95799301D01*
X109976698Y-95620673D01*
X109743309Y-95524000D01*
X109402750Y-95524000D01*
X109244000Y-95682750D01*
X108990000Y-95682750D01*
X108831250Y-95524000D01*
X108490691Y-95524000D01*
X108257302Y-95620673D01*
X108078673Y-95799301D01*
X107982000Y-96032690D01*
X106247000Y-96032690D01*
X106247000Y-92584944D01*
X111678025Y-92584944D01*
X111877615Y-93066818D01*
X112315621Y-93539188D01*
X112901054Y-93807983D01*
X113157000Y-93689367D01*
X113157000Y-92329000D01*
X113411000Y-92329000D01*
X113411000Y-93689367D01*
X113666946Y-93807983D01*
X113848270Y-93724730D01*
X117717570Y-93724730D01*
X117717570Y-94814969D01*
X117814243Y-95048358D01*
X117992871Y-95226987D01*
X118226260Y-95323660D01*
X118967250Y-95323660D01*
X119126000Y-95164910D01*
X119126000Y-93565980D01*
X119380000Y-93565980D01*
X119380000Y-95164910D01*
X119538750Y-95323660D01*
X120279740Y-95323660D01*
X120513129Y-95226987D01*
X120691757Y-95048358D01*
X120788430Y-94814969D01*
X120788430Y-93724730D01*
X120629680Y-93565980D01*
X119380000Y-93565980D01*
X119126000Y-93565980D01*
X117876320Y-93565980D01*
X117717570Y-93724730D01*
X113848270Y-93724730D01*
X114252379Y-93539188D01*
X114690385Y-93066818D01*
X114889975Y-92584944D01*
X114770836Y-92329000D01*
X113411000Y-92329000D01*
X113157000Y-92329000D01*
X111797164Y-92329000D01*
X111678025Y-92584944D01*
X106247000Y-92584944D01*
X106247000Y-87832000D01*
X117829556Y-87832000D01*
X117756139Y-87939450D01*
G36*
X139065000Y-113109631D02*
X139065000Y-113170941D01*
X138984659Y-113090460D01*
X138625370Y-112941270D01*
X138236337Y-112940931D01*
X137876788Y-113089493D01*
X137601460Y-113364341D01*
X137452270Y-113723630D01*
X137451931Y-114112663D01*
X137600493Y-114472212D01*
X137875341Y-114747540D01*
X138234630Y-114896730D01*
X138303000Y-114896790D01*
X138303000Y-119393917D01*
X138236460Y-119460341D01*
X138087270Y-119819630D01*
X138086931Y-120208663D01*
X138235493Y-120568212D01*
X138510341Y-120843540D01*
X138869630Y-120992730D01*
X139065000Y-120992900D01*
X139065000Y-127147986D01*
X138959954Y-126847680D01*
X138570036Y-126411268D01*
X138042791Y-126157291D01*
X138027026Y-126154642D01*
X137795000Y-126275783D01*
X137795000Y-127635000D01*
X137815000Y-127635000D01*
X137815000Y-127889000D01*
X137795000Y-127889000D01*
X137795000Y-129248217D01*
X138027026Y-129369358D01*
X138042791Y-129366709D01*
X138570036Y-129112732D01*
X138959954Y-128676320D01*
X139065000Y-128376014D01*
X139065000Y-129958270D01*
X138995690Y-129850559D01*
X138783490Y-129705569D01*
X138531600Y-129654560D01*
X137134610Y-129654560D01*
X137134610Y-129290311D01*
X137293209Y-129366709D01*
X137308974Y-129369358D01*
X137541000Y-129248217D01*
X137541000Y-127889000D01*
X137521000Y-127889000D01*
X137521000Y-127635000D01*
X137541000Y-127635000D01*
X137541000Y-126275783D01*
X137308974Y-126154642D01*
X137293209Y-126157291D01*
X137056197Y-126271461D01*
X137043553Y-126252538D01*
X136911425Y-126054794D01*
X135483601Y-124626971D01*
X135483601Y-122960859D01*
X136017000Y-123066959D01*
X136590489Y-122952885D01*
X137076670Y-122628029D01*
X137401526Y-122141848D01*
X137515600Y-121568359D01*
X137515600Y-121509641D01*
X137401526Y-120936152D01*
X137076670Y-120449971D01*
X136805839Y-120269008D01*
X137223821Y-119887490D01*
X137471968Y-119358027D01*
X137351469Y-119126000D01*
X136144000Y-119126000D01*
X136144000Y-119146000D01*
X135890000Y-119146000D01*
X135890000Y-119126000D01*
X135870000Y-119126000D01*
X135870000Y-118872000D01*
X135890000Y-118872000D01*
X135890000Y-117665183D01*
X136144000Y-117665183D01*
X136144000Y-118872000D01*
X137351469Y-118872000D01*
X137471968Y-118639973D01*
X137223821Y-118110510D01*
X136791947Y-117716312D01*
X136376026Y-117544042D01*
X136144000Y-117665183D01*
X135890000Y-117665183D01*
X135657974Y-117544042D01*
X135242053Y-117716312D01*
X134810179Y-118110510D01*
X134752664Y-118233228D01*
X134536670Y-117909971D01*
X134050489Y-117585115D01*
X133531707Y-117481923D01*
X135042880Y-115970750D01*
X135388000Y-115970750D01*
X135388000Y-116211309D01*
X135484673Y-116444698D01*
X135663301Y-116623327D01*
X135896690Y-116720000D01*
X136112250Y-116720000D01*
X136271000Y-116561250D01*
X136271000Y-115812000D01*
X136525000Y-115812000D01*
X136525000Y-116561250D01*
X136683750Y-116720000D01*
X136899310Y-116720000D01*
X137132699Y-116623327D01*
X137311327Y-116444698D01*
X137408000Y-116211309D01*
X137408000Y-115970750D01*
X137249250Y-115812000D01*
X136525000Y-115812000D01*
X136271000Y-115812000D01*
X135546750Y-115812000D01*
X135388000Y-115970750D01*
X135042880Y-115970750D01*
X135501190Y-115512440D01*
X135546750Y-115558000D01*
X136271000Y-115558000D01*
X136271000Y-115538000D01*
X136525000Y-115538000D01*
X136525000Y-115558000D01*
X137249250Y-115558000D01*
X137408000Y-115399250D01*
X137408000Y-115158691D01*
X137311327Y-114925302D01*
X137309957Y-114923932D01*
X137369431Y-114836890D01*
X137420440Y-114585000D01*
X137420440Y-113785000D01*
X137376162Y-113549683D01*
X137237090Y-113333559D01*
X137160000Y-113280886D01*
X137160000Y-112399557D01*
X137224441Y-112358090D01*
X137294196Y-112256000D01*
X138211370Y-112256000D01*
X139065000Y-113109631D01*
X139065000Y-113109631D01*
G37*
X139065000Y-113109631D02*
X139065000Y-113170941D01*
X138984659Y-113090460D01*
X138625370Y-112941270D01*
X138236337Y-112940931D01*
X137876788Y-113089493D01*
X137601460Y-113364341D01*
X137452270Y-113723630D01*
X137451931Y-114112663D01*
X137600493Y-114472212D01*
X137875341Y-114747540D01*
X138234630Y-114896730D01*
X138303000Y-114896790D01*
X138303000Y-119393917D01*
X138236460Y-119460341D01*
X138087270Y-119819630D01*
X138086931Y-120208663D01*
X138235493Y-120568212D01*
X138510341Y-120843540D01*
X138869630Y-120992730D01*
X139065000Y-120992900D01*
X139065000Y-127147986D01*
X138959954Y-126847680D01*
X138570036Y-126411268D01*
X138042791Y-126157291D01*
X138027026Y-126154642D01*
X137795000Y-126275783D01*
X137795000Y-127635000D01*
X137815000Y-127635000D01*
X137815000Y-127889000D01*
X137795000Y-127889000D01*
X137795000Y-129248217D01*
X138027026Y-129369358D01*
X138042791Y-129366709D01*
X138570036Y-129112732D01*
X138959954Y-128676320D01*
X139065000Y-128376014D01*
X139065000Y-129958270D01*
X138995690Y-129850559D01*
X138783490Y-129705569D01*
X138531600Y-129654560D01*
X137134610Y-129654560D01*
X137134610Y-129290311D01*
X137293209Y-129366709D01*
X137308974Y-129369358D01*
X137541000Y-129248217D01*
X137541000Y-127889000D01*
X137521000Y-127889000D01*
X137521000Y-127635000D01*
X137541000Y-127635000D01*
X137541000Y-126275783D01*
X137308974Y-126154642D01*
X137293209Y-126157291D01*
X137056197Y-126271461D01*
X137043553Y-126252538D01*
X136911425Y-126054794D01*
X135483601Y-124626971D01*
X135483601Y-122960859D01*
X136017000Y-123066959D01*
X136590489Y-122952885D01*
X137076670Y-122628029D01*
X137401526Y-122141848D01*
X137515600Y-121568359D01*
X137515600Y-121509641D01*
X137401526Y-120936152D01*
X137076670Y-120449971D01*
X136805839Y-120269008D01*
X137223821Y-119887490D01*
X137471968Y-119358027D01*
X137351469Y-119126000D01*
X136144000Y-119126000D01*
X136144000Y-119146000D01*
X135890000Y-119146000D01*
X135890000Y-119126000D01*
X135870000Y-119126000D01*
X135870000Y-118872000D01*
X135890000Y-118872000D01*
X135890000Y-117665183D01*
X136144000Y-117665183D01*
X136144000Y-118872000D01*
X137351469Y-118872000D01*
X137471968Y-118639973D01*
X137223821Y-118110510D01*
X136791947Y-117716312D01*
X136376026Y-117544042D01*
X136144000Y-117665183D01*
X135890000Y-117665183D01*
X135657974Y-117544042D01*
X135242053Y-117716312D01*
X134810179Y-118110510D01*
X134752664Y-118233228D01*
X134536670Y-117909971D01*
X134050489Y-117585115D01*
X133531707Y-117481923D01*
X135042880Y-115970750D01*
X135388000Y-115970750D01*
X135388000Y-116211309D01*
X135484673Y-116444698D01*
X135663301Y-116623327D01*
X135896690Y-116720000D01*
X136112250Y-116720000D01*
X136271000Y-116561250D01*
X136271000Y-115812000D01*
X136525000Y-115812000D01*
X136525000Y-116561250D01*
X136683750Y-116720000D01*
X136899310Y-116720000D01*
X137132699Y-116623327D01*
X137311327Y-116444698D01*
X137408000Y-116211309D01*
X137408000Y-115970750D01*
X137249250Y-115812000D01*
X136525000Y-115812000D01*
X136271000Y-115812000D01*
X135546750Y-115812000D01*
X135388000Y-115970750D01*
X135042880Y-115970750D01*
X135501190Y-115512440D01*
X135546750Y-115558000D01*
X136271000Y-115558000D01*
X136271000Y-115538000D01*
X136525000Y-115538000D01*
X136525000Y-115558000D01*
X137249250Y-115558000D01*
X137408000Y-115399250D01*
X137408000Y-115158691D01*
X137311327Y-114925302D01*
X137309957Y-114923932D01*
X137369431Y-114836890D01*
X137420440Y-114585000D01*
X137420440Y-113785000D01*
X137376162Y-113549683D01*
X137237090Y-113333559D01*
X137160000Y-113280886D01*
X137160000Y-112399557D01*
X137224441Y-112358090D01*
X137294196Y-112256000D01*
X138211370Y-112256000D01*
X139065000Y-113109631D01*
G36*
X114719100Y-111099340D02*
X114935000Y-111099340D01*
X114935000Y-111252000D01*
X114993004Y-111543605D01*
X115095636Y-111697204D01*
X115158185Y-111790815D01*
X115666184Y-112298815D01*
X115791128Y-112382300D01*
X115703350Y-112382300D01*
X115544600Y-112541050D01*
X115544600Y-113842800D01*
X115564600Y-113842800D01*
X115564600Y-114096800D01*
X115544600Y-114096800D01*
X115544600Y-115398550D01*
X115703350Y-115557300D01*
X115826674Y-115557300D01*
X115786673Y-115597301D01*
X115690000Y-115830690D01*
X115690000Y-116046250D01*
X115848750Y-116205000D01*
X116598000Y-116205000D01*
X116598000Y-116185000D01*
X116852000Y-116185000D01*
X116852000Y-116205000D01*
X116872000Y-116205000D01*
X116872000Y-116459000D01*
X116852000Y-116459000D01*
X116852000Y-117183250D01*
X117010750Y-117342000D01*
X117251309Y-117342000D01*
X117484698Y-117245327D01*
X117486068Y-117243957D01*
X117573110Y-117303431D01*
X117825000Y-117354440D01*
X118625000Y-117354440D01*
X118860317Y-117310162D01*
X119076441Y-117171090D01*
X119221431Y-116958890D01*
X119272440Y-116707000D01*
X119272440Y-115957000D01*
X119228162Y-115721683D01*
X119089090Y-115505559D01*
X118983581Y-115433467D01*
X119056741Y-115386390D01*
X119201731Y-115174190D01*
X119252740Y-114922300D01*
X119252740Y-114814000D01*
X119514864Y-114814000D01*
X119478561Y-114850240D01*
X119329371Y-115209529D01*
X119329032Y-115598562D01*
X119477594Y-115958111D01*
X119752442Y-116233439D01*
X120111731Y-116382629D01*
X120500764Y-116382968D01*
X120860313Y-116234406D01*
X120927938Y-116166899D01*
X123431267Y-116166899D01*
X123431131Y-116322463D01*
X123579693Y-116682012D01*
X123680960Y-116783456D01*
X123705204Y-116905338D01*
X123819009Y-117075659D01*
X123870385Y-117152548D01*
X124147452Y-117429615D01*
X124394662Y-117594796D01*
X124686267Y-117652800D01*
X125736000Y-117652800D01*
X125736000Y-118091000D01*
X125794004Y-118382605D01*
X125874744Y-118503440D01*
X125959185Y-118629815D01*
X126104560Y-118775190D01*
X126104560Y-119145000D01*
X126148838Y-119380317D01*
X126222620Y-119494978D01*
X126155569Y-119593110D01*
X126147289Y-119634000D01*
X124591557Y-119634000D01*
X124550090Y-119569559D01*
X124337890Y-119424569D01*
X124086000Y-119373560D01*
X123286000Y-119373560D01*
X123050683Y-119417838D01*
X122947354Y-119484329D01*
X122945698Y-119482673D01*
X122712309Y-119386000D01*
X122471750Y-119386000D01*
X122313000Y-119544750D01*
X122313000Y-120269000D01*
X122333000Y-120269000D01*
X122333000Y-120523000D01*
X122313000Y-120523000D01*
X122313000Y-121247250D01*
X122471750Y-121406000D01*
X122712309Y-121406000D01*
X122945698Y-121309327D01*
X122947068Y-121307957D01*
X123034110Y-121367431D01*
X123286000Y-121418440D01*
X123821314Y-121418440D01*
X123754388Y-121446093D01*
X123479060Y-121720941D01*
X123329870Y-122080230D01*
X123329787Y-122175783D01*
X123133795Y-122371775D01*
X122968614Y-122618985D01*
X122910610Y-122910590D01*
X122910610Y-126174652D01*
X122428000Y-126078655D01*
X121894610Y-126184753D01*
X121894610Y-126071717D01*
X121935740Y-126030659D01*
X122084930Y-125671370D01*
X122085269Y-125282337D01*
X121936707Y-124922788D01*
X121661859Y-124647460D01*
X121302570Y-124498270D01*
X120913537Y-124497931D01*
X120553988Y-124646493D01*
X120278660Y-124921341D01*
X120129470Y-125280630D01*
X120129131Y-125669663D01*
X120277693Y-126029212D01*
X120370610Y-126122291D01*
X120370610Y-126174652D01*
X119888000Y-126078655D01*
X119405390Y-126174652D01*
X119405390Y-120681750D01*
X121151000Y-120681750D01*
X121151000Y-120897310D01*
X121247673Y-121130699D01*
X121426302Y-121309327D01*
X121659691Y-121406000D01*
X121900250Y-121406000D01*
X122059000Y-121247250D01*
X122059000Y-120523000D01*
X121309750Y-120523000D01*
X121151000Y-120681750D01*
X119405390Y-120681750D01*
X119405390Y-120279840D01*
X119790540Y-119894690D01*
X121151000Y-119894690D01*
X121151000Y-120110250D01*
X121309750Y-120269000D01*
X122059000Y-120269000D01*
X122059000Y-119544750D01*
X121900250Y-119386000D01*
X121659691Y-119386000D01*
X121426302Y-119482673D01*
X121247673Y-119661301D01*
X121151000Y-119894690D01*
X119790540Y-119894690D01*
X120482924Y-119202307D01*
X120576943Y-119202389D01*
X120936492Y-119053827D01*
X121211820Y-118778979D01*
X121361010Y-118419690D01*
X121361349Y-118030657D01*
X121212787Y-117671108D01*
X120937939Y-117395780D01*
X120578650Y-117246590D01*
X120189617Y-117246251D01*
X119830068Y-117394813D01*
X119554740Y-117669661D01*
X119405550Y-118028950D01*
X119405467Y-118124502D01*
X118104575Y-119425395D01*
X117939394Y-119672605D01*
X117881390Y-119964210D01*
X117881390Y-121094478D01*
X117713137Y-121094331D01*
X117353588Y-121242893D01*
X117078260Y-121517741D01*
X117021971Y-121653299D01*
X116014491Y-121653299D01*
X115722886Y-121711303D01*
X115475675Y-121876484D01*
X113024575Y-124327585D01*
X112859394Y-124574795D01*
X112801390Y-124866400D01*
X112801390Y-126184753D01*
X112268000Y-126078655D01*
X111694511Y-126192729D01*
X111208330Y-126517585D01*
X111198757Y-126531913D01*
X111194762Y-126510683D01*
X111055690Y-126294559D01*
X110843490Y-126149569D01*
X110591600Y-126098560D01*
X110528100Y-126098560D01*
X110528100Y-118320826D01*
X110720710Y-118452431D01*
X110972600Y-118503440D01*
X113004600Y-118503440D01*
X113239917Y-118459162D01*
X113456041Y-118320090D01*
X113601031Y-118107890D01*
X113652040Y-117856000D01*
X113652040Y-116617750D01*
X115690000Y-116617750D01*
X115690000Y-116833310D01*
X115786673Y-117066699D01*
X115965302Y-117245327D01*
X116198691Y-117342000D01*
X116439250Y-117342000D01*
X116598000Y-117183250D01*
X116598000Y-116459000D01*
X115848750Y-116459000D01*
X115690000Y-116617750D01*
X113652040Y-116617750D01*
X113652040Y-116558991D01*
X114330816Y-115880215D01*
X114495997Y-115633004D01*
X114517277Y-115526021D01*
X114592790Y-115557300D01*
X115131850Y-115557300D01*
X115290600Y-115398550D01*
X115290600Y-114096800D01*
X115270600Y-114096800D01*
X115270600Y-113842800D01*
X115290600Y-113842800D01*
X115290600Y-112541050D01*
X115131850Y-112382300D01*
X114592790Y-112382300D01*
X114554000Y-112398367D01*
X114554000Y-111065906D01*
X114719100Y-111099340D01*
X114719100Y-111099340D01*
G37*
X114719100Y-111099340D02*
X114935000Y-111099340D01*
X114935000Y-111252000D01*
X114993004Y-111543605D01*
X115095636Y-111697204D01*
X115158185Y-111790815D01*
X115666184Y-112298815D01*
X115791128Y-112382300D01*
X115703350Y-112382300D01*
X115544600Y-112541050D01*
X115544600Y-113842800D01*
X115564600Y-113842800D01*
X115564600Y-114096800D01*
X115544600Y-114096800D01*
X115544600Y-115398550D01*
X115703350Y-115557300D01*
X115826674Y-115557300D01*
X115786673Y-115597301D01*
X115690000Y-115830690D01*
X115690000Y-116046250D01*
X115848750Y-116205000D01*
X116598000Y-116205000D01*
X116598000Y-116185000D01*
X116852000Y-116185000D01*
X116852000Y-116205000D01*
X116872000Y-116205000D01*
X116872000Y-116459000D01*
X116852000Y-116459000D01*
X116852000Y-117183250D01*
X117010750Y-117342000D01*
X117251309Y-117342000D01*
X117484698Y-117245327D01*
X117486068Y-117243957D01*
X117573110Y-117303431D01*
X117825000Y-117354440D01*
X118625000Y-117354440D01*
X118860317Y-117310162D01*
X119076441Y-117171090D01*
X119221431Y-116958890D01*
X119272440Y-116707000D01*
X119272440Y-115957000D01*
X119228162Y-115721683D01*
X119089090Y-115505559D01*
X118983581Y-115433467D01*
X119056741Y-115386390D01*
X119201731Y-115174190D01*
X119252740Y-114922300D01*
X119252740Y-114814000D01*
X119514864Y-114814000D01*
X119478561Y-114850240D01*
X119329371Y-115209529D01*
X119329032Y-115598562D01*
X119477594Y-115958111D01*
X119752442Y-116233439D01*
X120111731Y-116382629D01*
X120500764Y-116382968D01*
X120860313Y-116234406D01*
X120927938Y-116166899D01*
X123431267Y-116166899D01*
X123431131Y-116322463D01*
X123579693Y-116682012D01*
X123680960Y-116783456D01*
X123705204Y-116905338D01*
X123819009Y-117075659D01*
X123870385Y-117152548D01*
X124147452Y-117429615D01*
X124394662Y-117594796D01*
X124686267Y-117652800D01*
X125736000Y-117652800D01*
X125736000Y-118091000D01*
X125794004Y-118382605D01*
X125874744Y-118503440D01*
X125959185Y-118629815D01*
X126104560Y-118775190D01*
X126104560Y-119145000D01*
X126148838Y-119380317D01*
X126222620Y-119494978D01*
X126155569Y-119593110D01*
X126147289Y-119634000D01*
X124591557Y-119634000D01*
X124550090Y-119569559D01*
X124337890Y-119424569D01*
X124086000Y-119373560D01*
X123286000Y-119373560D01*
X123050683Y-119417838D01*
X122947354Y-119484329D01*
X122945698Y-119482673D01*
X122712309Y-119386000D01*
X122471750Y-119386000D01*
X122313000Y-119544750D01*
X122313000Y-120269000D01*
X122333000Y-120269000D01*
X122333000Y-120523000D01*
X122313000Y-120523000D01*
X122313000Y-121247250D01*
X122471750Y-121406000D01*
X122712309Y-121406000D01*
X122945698Y-121309327D01*
X122947068Y-121307957D01*
X123034110Y-121367431D01*
X123286000Y-121418440D01*
X123821314Y-121418440D01*
X123754388Y-121446093D01*
X123479060Y-121720941D01*
X123329870Y-122080230D01*
X123329787Y-122175783D01*
X123133795Y-122371775D01*
X122968614Y-122618985D01*
X122910610Y-122910590D01*
X122910610Y-126174652D01*
X122428000Y-126078655D01*
X121894610Y-126184753D01*
X121894610Y-126071717D01*
X121935740Y-126030659D01*
X122084930Y-125671370D01*
X122085269Y-125282337D01*
X121936707Y-124922788D01*
X121661859Y-124647460D01*
X121302570Y-124498270D01*
X120913537Y-124497931D01*
X120553988Y-124646493D01*
X120278660Y-124921341D01*
X120129470Y-125280630D01*
X120129131Y-125669663D01*
X120277693Y-126029212D01*
X120370610Y-126122291D01*
X120370610Y-126174652D01*
X119888000Y-126078655D01*
X119405390Y-126174652D01*
X119405390Y-120681750D01*
X121151000Y-120681750D01*
X121151000Y-120897310D01*
X121247673Y-121130699D01*
X121426302Y-121309327D01*
X121659691Y-121406000D01*
X121900250Y-121406000D01*
X122059000Y-121247250D01*
X122059000Y-120523000D01*
X121309750Y-120523000D01*
X121151000Y-120681750D01*
X119405390Y-120681750D01*
X119405390Y-120279840D01*
X119790540Y-119894690D01*
X121151000Y-119894690D01*
X121151000Y-120110250D01*
X121309750Y-120269000D01*
X122059000Y-120269000D01*
X122059000Y-119544750D01*
X121900250Y-119386000D01*
X121659691Y-119386000D01*
X121426302Y-119482673D01*
X121247673Y-119661301D01*
X121151000Y-119894690D01*
X119790540Y-119894690D01*
X120482924Y-119202307D01*
X120576943Y-119202389D01*
X120936492Y-119053827D01*
X121211820Y-118778979D01*
X121361010Y-118419690D01*
X121361349Y-118030657D01*
X121212787Y-117671108D01*
X120937939Y-117395780D01*
X120578650Y-117246590D01*
X120189617Y-117246251D01*
X119830068Y-117394813D01*
X119554740Y-117669661D01*
X119405550Y-118028950D01*
X119405467Y-118124502D01*
X118104575Y-119425395D01*
X117939394Y-119672605D01*
X117881390Y-119964210D01*
X117881390Y-121094478D01*
X117713137Y-121094331D01*
X117353588Y-121242893D01*
X117078260Y-121517741D01*
X117021971Y-121653299D01*
X116014491Y-121653299D01*
X115722886Y-121711303D01*
X115475675Y-121876484D01*
X113024575Y-124327585D01*
X112859394Y-124574795D01*
X112801390Y-124866400D01*
X112801390Y-126184753D01*
X112268000Y-126078655D01*
X111694511Y-126192729D01*
X111208330Y-126517585D01*
X111198757Y-126531913D01*
X111194762Y-126510683D01*
X111055690Y-126294559D01*
X110843490Y-126149569D01*
X110591600Y-126098560D01*
X110528100Y-126098560D01*
X110528100Y-118320826D01*
X110720710Y-118452431D01*
X110972600Y-118503440D01*
X113004600Y-118503440D01*
X113239917Y-118459162D01*
X113456041Y-118320090D01*
X113601031Y-118107890D01*
X113652040Y-117856000D01*
X113652040Y-116617750D01*
X115690000Y-116617750D01*
X115690000Y-116833310D01*
X115786673Y-117066699D01*
X115965302Y-117245327D01*
X116198691Y-117342000D01*
X116439250Y-117342000D01*
X116598000Y-117183250D01*
X116598000Y-116459000D01*
X115848750Y-116459000D01*
X115690000Y-116617750D01*
X113652040Y-116617750D01*
X113652040Y-116558991D01*
X114330816Y-115880215D01*
X114495997Y-115633004D01*
X114517277Y-115526021D01*
X114592790Y-115557300D01*
X115131850Y-115557300D01*
X115290600Y-115398550D01*
X115290600Y-114096800D01*
X115270600Y-114096800D01*
X115270600Y-113842800D01*
X115290600Y-113842800D01*
X115290600Y-112541050D01*
X115131850Y-112382300D01*
X114592790Y-112382300D01*
X114554000Y-112398367D01*
X114554000Y-111065906D01*
X114719100Y-111099340D01*
G36*
X122762800Y-111720002D02*
X122901200Y-111720002D01*
X122857305Y-111784245D01*
X122780090Y-111861460D01*
X122532630Y-111614000D01*
X122762800Y-111614000D01*
X122762800Y-111720002D01*
X122762800Y-111720002D01*
G37*
X122762800Y-111720002D02*
X122901200Y-111720002D01*
X122857305Y-111784245D01*
X122780090Y-111861460D01*
X122532630Y-111614000D01*
X122762800Y-111614000D01*
X122762800Y-111720002D01*
G36*
X137015000Y-104691630D02*
X137015000Y-109006920D01*
X136899310Y-108959000D01*
X136683750Y-108959000D01*
X136525000Y-109117750D01*
X136525000Y-109867000D01*
X136545000Y-109867000D01*
X136545000Y-110121000D01*
X136525000Y-110121000D01*
X136525000Y-110141000D01*
X136271000Y-110141000D01*
X136271000Y-110121000D01*
X135546750Y-110121000D01*
X135388000Y-110279750D01*
X135388000Y-110520309D01*
X135484673Y-110753698D01*
X135486043Y-110755068D01*
X135449382Y-110808721D01*
X135412944Y-110833069D01*
X135327740Y-110890000D01*
X134132800Y-110890000D01*
X134132800Y-110800578D01*
X134210230Y-110832730D01*
X134599263Y-110833069D01*
X134958812Y-110684507D01*
X135234140Y-110409659D01*
X135383330Y-110050370D01*
X135383669Y-109661337D01*
X135303657Y-109467691D01*
X135388000Y-109467691D01*
X135388000Y-109708250D01*
X135546750Y-109867000D01*
X136271000Y-109867000D01*
X136271000Y-109117750D01*
X136112250Y-108959000D01*
X135896690Y-108959000D01*
X135663301Y-109055673D01*
X135484673Y-109234302D01*
X135388000Y-109467691D01*
X135303657Y-109467691D01*
X135235107Y-109301788D01*
X134960259Y-109026460D01*
X134600970Y-108877270D01*
X134505417Y-108877187D01*
X134290615Y-108662385D01*
X134242724Y-108630385D01*
X134145240Y-108565248D01*
X134145240Y-108118000D01*
X134100962Y-107882683D01*
X133961890Y-107666559D01*
X133878265Y-107609421D01*
X133972130Y-107383370D01*
X133972469Y-106994337D01*
X133823907Y-106634788D01*
X133549059Y-106359460D01*
X133189770Y-106210270D01*
X132800737Y-106209931D01*
X132441188Y-106358493D01*
X132170240Y-106628969D01*
X132170240Y-106143000D01*
X132125962Y-105907683D01*
X131986890Y-105691559D01*
X131774690Y-105546569D01*
X131522800Y-105495560D01*
X131084881Y-105495560D01*
X131171431Y-105368890D01*
X131222440Y-105117000D01*
X131222440Y-104552750D01*
X132540000Y-104552750D01*
X132540000Y-105243310D01*
X132636673Y-105476699D01*
X132815302Y-105655327D01*
X133048691Y-105752000D01*
X133289250Y-105752000D01*
X133448000Y-105593250D01*
X133448000Y-104394000D01*
X133702000Y-104394000D01*
X133702000Y-105593250D01*
X133860750Y-105752000D01*
X134101309Y-105752000D01*
X134334698Y-105655327D01*
X134513327Y-105476699D01*
X134610000Y-105243310D01*
X134610000Y-104552750D01*
X134451250Y-104394000D01*
X133702000Y-104394000D01*
X133448000Y-104394000D01*
X132698750Y-104394000D01*
X132540000Y-104552750D01*
X131222440Y-104552750D01*
X131222440Y-103417000D01*
X131198674Y-103290690D01*
X132540000Y-103290690D01*
X132540000Y-103981250D01*
X132698750Y-104140000D01*
X133448000Y-104140000D01*
X133448000Y-102940750D01*
X133702000Y-102940750D01*
X133702000Y-104140000D01*
X134451250Y-104140000D01*
X134610000Y-103981250D01*
X134610000Y-103290690D01*
X134513327Y-103057301D01*
X134334698Y-102878673D01*
X134101309Y-102782000D01*
X133860750Y-102782000D01*
X133702000Y-102940750D01*
X133448000Y-102940750D01*
X133289250Y-102782000D01*
X133048691Y-102782000D01*
X132815302Y-102878673D01*
X132636673Y-103057301D01*
X132540000Y-103290690D01*
X131198674Y-103290690D01*
X131178162Y-103181683D01*
X131039090Y-102965559D01*
X130826890Y-102820569D01*
X130575000Y-102769560D01*
X129775000Y-102769560D01*
X129539683Y-102813838D01*
X129323559Y-102952910D01*
X129178569Y-103165110D01*
X129149706Y-103307640D01*
X129117162Y-103134683D01*
X128978090Y-102918559D01*
X128908289Y-102870866D01*
X128965441Y-102834090D01*
X129103523Y-102632000D01*
X134955370Y-102632000D01*
X137015000Y-104691630D01*
X137015000Y-104691630D01*
G37*
X137015000Y-104691630D02*
X137015000Y-109006920D01*
X136899310Y-108959000D01*
X136683750Y-108959000D01*
X136525000Y-109117750D01*
X136525000Y-109867000D01*
X136545000Y-109867000D01*
X136545000Y-110121000D01*
X136525000Y-110121000D01*
X136525000Y-110141000D01*
X136271000Y-110141000D01*
X136271000Y-110121000D01*
X135546750Y-110121000D01*
X135388000Y-110279750D01*
X135388000Y-110520309D01*
X135484673Y-110753698D01*
X135486043Y-110755068D01*
X135449382Y-110808721D01*
X135412944Y-110833069D01*
X135327740Y-110890000D01*
X134132800Y-110890000D01*
X134132800Y-110800578D01*
X134210230Y-110832730D01*
X134599263Y-110833069D01*
X134958812Y-110684507D01*
X135234140Y-110409659D01*
X135383330Y-110050370D01*
X135383669Y-109661337D01*
X135303657Y-109467691D01*
X135388000Y-109467691D01*
X135388000Y-109708250D01*
X135546750Y-109867000D01*
X136271000Y-109867000D01*
X136271000Y-109117750D01*
X136112250Y-108959000D01*
X135896690Y-108959000D01*
X135663301Y-109055673D01*
X135484673Y-109234302D01*
X135388000Y-109467691D01*
X135303657Y-109467691D01*
X135235107Y-109301788D01*
X134960259Y-109026460D01*
X134600970Y-108877270D01*
X134505417Y-108877187D01*
X134290615Y-108662385D01*
X134242724Y-108630385D01*
X134145240Y-108565248D01*
X134145240Y-108118000D01*
X134100962Y-107882683D01*
X133961890Y-107666559D01*
X133878265Y-107609421D01*
X133972130Y-107383370D01*
X133972469Y-106994337D01*
X133823907Y-106634788D01*
X133549059Y-106359460D01*
X133189770Y-106210270D01*
X132800737Y-106209931D01*
X132441188Y-106358493D01*
X132170240Y-106628969D01*
X132170240Y-106143000D01*
X132125962Y-105907683D01*
X131986890Y-105691559D01*
X131774690Y-105546569D01*
X131522800Y-105495560D01*
X131084881Y-105495560D01*
X131171431Y-105368890D01*
X131222440Y-105117000D01*
X131222440Y-104552750D01*
X132540000Y-104552750D01*
X132540000Y-105243310D01*
X132636673Y-105476699D01*
X132815302Y-105655327D01*
X133048691Y-105752000D01*
X133289250Y-105752000D01*
X133448000Y-105593250D01*
X133448000Y-104394000D01*
X133702000Y-104394000D01*
X133702000Y-105593250D01*
X133860750Y-105752000D01*
X134101309Y-105752000D01*
X134334698Y-105655327D01*
X134513327Y-105476699D01*
X134610000Y-105243310D01*
X134610000Y-104552750D01*
X134451250Y-104394000D01*
X133702000Y-104394000D01*
X133448000Y-104394000D01*
X132698750Y-104394000D01*
X132540000Y-104552750D01*
X131222440Y-104552750D01*
X131222440Y-103417000D01*
X131198674Y-103290690D01*
X132540000Y-103290690D01*
X132540000Y-103981250D01*
X132698750Y-104140000D01*
X133448000Y-104140000D01*
X133448000Y-102940750D01*
X133702000Y-102940750D01*
X133702000Y-104140000D01*
X134451250Y-104140000D01*
X134610000Y-103981250D01*
X134610000Y-103290690D01*
X134513327Y-103057301D01*
X134334698Y-102878673D01*
X134101309Y-102782000D01*
X133860750Y-102782000D01*
X133702000Y-102940750D01*
X133448000Y-102940750D01*
X133289250Y-102782000D01*
X133048691Y-102782000D01*
X132815302Y-102878673D01*
X132636673Y-103057301D01*
X132540000Y-103290690D01*
X131198674Y-103290690D01*
X131178162Y-103181683D01*
X131039090Y-102965559D01*
X130826890Y-102820569D01*
X130575000Y-102769560D01*
X129775000Y-102769560D01*
X129539683Y-102813838D01*
X129323559Y-102952910D01*
X129178569Y-103165110D01*
X129149706Y-103307640D01*
X129117162Y-103134683D01*
X128978090Y-102918559D01*
X128908289Y-102870866D01*
X128965441Y-102834090D01*
X129103523Y-102632000D01*
X134955370Y-102632000D01*
X137015000Y-104691630D01*
G36*
X120376560Y-104642000D02*
X120420838Y-104877317D01*
X120559910Y-105093441D01*
X120772110Y-105238431D01*
X121024000Y-105289440D01*
X121824000Y-105289440D01*
X122059317Y-105245162D01*
X122173978Y-105171380D01*
X122272110Y-105238431D01*
X122524000Y-105289440D01*
X123324000Y-105289440D01*
X123559317Y-105245162D01*
X123775441Y-105106090D01*
X123828114Y-105029000D01*
X125618239Y-105029000D01*
X125470070Y-105385830D01*
X125469974Y-105495560D01*
X125372800Y-105495560D01*
X125137483Y-105539838D01*
X124921359Y-105678910D01*
X124823100Y-105822717D01*
X124655370Y-105753070D01*
X124266337Y-105752731D01*
X123906788Y-105901293D01*
X123631460Y-106176141D01*
X123616177Y-106212947D01*
X123430114Y-106026884D01*
X123341853Y-105967910D01*
X123182904Y-105861703D01*
X122891299Y-105803699D01*
X121316600Y-105803699D01*
X121024995Y-105861703D01*
X120777785Y-106026884D01*
X120559610Y-106245059D01*
X120394429Y-106492269D01*
X120370217Y-106613991D01*
X120269885Y-106714148D01*
X120120695Y-107073437D01*
X120120356Y-107462470D01*
X120268918Y-107822019D01*
X120408702Y-107962048D01*
X120269000Y-108101750D01*
X120269000Y-108851000D01*
X120993250Y-108851000D01*
X121025000Y-108819250D01*
X121068750Y-108863000D01*
X121793000Y-108863000D01*
X121793000Y-108843000D01*
X122047000Y-108843000D01*
X122047000Y-108863000D01*
X122067000Y-108863000D01*
X122067000Y-109117000D01*
X122047000Y-109117000D01*
X122047000Y-109137000D01*
X121793000Y-109137000D01*
X121793000Y-109117000D01*
X121068750Y-109117000D01*
X121037000Y-109148750D01*
X120993250Y-109105000D01*
X120269000Y-109105000D01*
X120269000Y-109125000D01*
X120015000Y-109125000D01*
X120015000Y-109105000D01*
X119995000Y-109105000D01*
X119995000Y-108851000D01*
X120015000Y-108851000D01*
X120015000Y-108101750D01*
X119856250Y-107943000D01*
X119640690Y-107943000D01*
X119407301Y-108039673D01*
X119228673Y-108218302D01*
X119192591Y-108305411D01*
X119143627Y-108187202D01*
X118964999Y-108008573D01*
X118731610Y-107911900D01*
X118192550Y-107911900D01*
X118033800Y-108070650D01*
X118033800Y-109372400D01*
X118053800Y-109372400D01*
X118053800Y-109626400D01*
X118033800Y-109626400D01*
X118033800Y-109646400D01*
X117779800Y-109646400D01*
X117779800Y-109626400D01*
X117759800Y-109626400D01*
X117759800Y-109372400D01*
X117779800Y-109372400D01*
X117779800Y-108070650D01*
X117621050Y-107911900D01*
X117081990Y-107911900D01*
X116848601Y-108008573D01*
X116669973Y-108187202D01*
X116657932Y-108216273D01*
X116580190Y-108095459D01*
X116459000Y-108012653D01*
X116459000Y-108010630D01*
X116640190Y-107829440D01*
X117010000Y-107829440D01*
X117245317Y-107785162D01*
X117348646Y-107718671D01*
X117350302Y-107720327D01*
X117583691Y-107817000D01*
X117824250Y-107817000D01*
X117983000Y-107658250D01*
X117983000Y-106934000D01*
X118237000Y-106934000D01*
X118237000Y-107658250D01*
X118395750Y-107817000D01*
X118636309Y-107817000D01*
X118869698Y-107720327D01*
X119048327Y-107541699D01*
X119145000Y-107308310D01*
X119145000Y-107092750D01*
X118986250Y-106934000D01*
X118237000Y-106934000D01*
X117983000Y-106934000D01*
X117963000Y-106934000D01*
X117963000Y-106680000D01*
X117983000Y-106680000D01*
X117983000Y-105955750D01*
X118237000Y-105955750D01*
X118237000Y-106680000D01*
X118986250Y-106680000D01*
X119145000Y-106521250D01*
X119145000Y-106305690D01*
X119048327Y-106072301D01*
X118869698Y-105893673D01*
X118636309Y-105797000D01*
X118395750Y-105797000D01*
X118237000Y-105955750D01*
X117983000Y-105955750D01*
X117824250Y-105797000D01*
X117583691Y-105797000D01*
X117350302Y-105893673D01*
X117348932Y-105895043D01*
X117261890Y-105835569D01*
X117088386Y-105800433D01*
X118488819Y-104400000D01*
X120376560Y-104400000D01*
X120376560Y-104642000D01*
X120376560Y-104642000D01*
G37*
X120376560Y-104642000D02*
X120420838Y-104877317D01*
X120559910Y-105093441D01*
X120772110Y-105238431D01*
X121024000Y-105289440D01*
X121824000Y-105289440D01*
X122059317Y-105245162D01*
X122173978Y-105171380D01*
X122272110Y-105238431D01*
X122524000Y-105289440D01*
X123324000Y-105289440D01*
X123559317Y-105245162D01*
X123775441Y-105106090D01*
X123828114Y-105029000D01*
X125618239Y-105029000D01*
X125470070Y-105385830D01*
X125469974Y-105495560D01*
X125372800Y-105495560D01*
X125137483Y-105539838D01*
X124921359Y-105678910D01*
X124823100Y-105822717D01*
X124655370Y-105753070D01*
X124266337Y-105752731D01*
X123906788Y-105901293D01*
X123631460Y-106176141D01*
X123616177Y-106212947D01*
X123430114Y-106026884D01*
X123341853Y-105967910D01*
X123182904Y-105861703D01*
X122891299Y-105803699D01*
X121316600Y-105803699D01*
X121024995Y-105861703D01*
X120777785Y-106026884D01*
X120559610Y-106245059D01*
X120394429Y-106492269D01*
X120370217Y-106613991D01*
X120269885Y-106714148D01*
X120120695Y-107073437D01*
X120120356Y-107462470D01*
X120268918Y-107822019D01*
X120408702Y-107962048D01*
X120269000Y-108101750D01*
X120269000Y-108851000D01*
X120993250Y-108851000D01*
X121025000Y-108819250D01*
X121068750Y-108863000D01*
X121793000Y-108863000D01*
X121793000Y-108843000D01*
X122047000Y-108843000D01*
X122047000Y-108863000D01*
X122067000Y-108863000D01*
X122067000Y-109117000D01*
X122047000Y-109117000D01*
X122047000Y-109137000D01*
X121793000Y-109137000D01*
X121793000Y-109117000D01*
X121068750Y-109117000D01*
X121037000Y-109148750D01*
X120993250Y-109105000D01*
X120269000Y-109105000D01*
X120269000Y-109125000D01*
X120015000Y-109125000D01*
X120015000Y-109105000D01*
X119995000Y-109105000D01*
X119995000Y-108851000D01*
X120015000Y-108851000D01*
X120015000Y-108101750D01*
X119856250Y-107943000D01*
X119640690Y-107943000D01*
X119407301Y-108039673D01*
X119228673Y-108218302D01*
X119192591Y-108305411D01*
X119143627Y-108187202D01*
X118964999Y-108008573D01*
X118731610Y-107911900D01*
X118192550Y-107911900D01*
X118033800Y-108070650D01*
X118033800Y-109372400D01*
X118053800Y-109372400D01*
X118053800Y-109626400D01*
X118033800Y-109626400D01*
X118033800Y-109646400D01*
X117779800Y-109646400D01*
X117779800Y-109626400D01*
X117759800Y-109626400D01*
X117759800Y-109372400D01*
X117779800Y-109372400D01*
X117779800Y-108070650D01*
X117621050Y-107911900D01*
X117081990Y-107911900D01*
X116848601Y-108008573D01*
X116669973Y-108187202D01*
X116657932Y-108216273D01*
X116580190Y-108095459D01*
X116459000Y-108012653D01*
X116459000Y-108010630D01*
X116640190Y-107829440D01*
X117010000Y-107829440D01*
X117245317Y-107785162D01*
X117348646Y-107718671D01*
X117350302Y-107720327D01*
X117583691Y-107817000D01*
X117824250Y-107817000D01*
X117983000Y-107658250D01*
X117983000Y-106934000D01*
X118237000Y-106934000D01*
X118237000Y-107658250D01*
X118395750Y-107817000D01*
X118636309Y-107817000D01*
X118869698Y-107720327D01*
X119048327Y-107541699D01*
X119145000Y-107308310D01*
X119145000Y-107092750D01*
X118986250Y-106934000D01*
X118237000Y-106934000D01*
X117983000Y-106934000D01*
X117963000Y-106934000D01*
X117963000Y-106680000D01*
X117983000Y-106680000D01*
X117983000Y-105955750D01*
X118237000Y-105955750D01*
X118237000Y-106680000D01*
X118986250Y-106680000D01*
X119145000Y-106521250D01*
X119145000Y-106305690D01*
X119048327Y-106072301D01*
X118869698Y-105893673D01*
X118636309Y-105797000D01*
X118395750Y-105797000D01*
X118237000Y-105955750D01*
X117983000Y-105955750D01*
X117824250Y-105797000D01*
X117583691Y-105797000D01*
X117350302Y-105893673D01*
X117348932Y-105895043D01*
X117261890Y-105835569D01*
X117088386Y-105800433D01*
X118488819Y-104400000D01*
X120376560Y-104400000D01*
X120376560Y-104642000D01*
D37*
X129159000Y-104378000D03*
X122957000Y-110052000D03*
X119126000Y-104394000D03*
X122936000Y-102362000D03*
X135382000Y-104013000D03*
X110998000Y-120269000D03*
X107569000Y-120269000D03*
X118160800Y-107899200D03*
X114401600Y-115747800D03*
X114858800Y-111836200D03*
X117652800Y-110947200D03*
X119650603Y-107559963D03*
X122643920Y-111633000D03*
X135763000Y-108458000D03*
X119634000Y-106553000D03*
X137617200Y-124764800D03*
X137566400Y-112674400D03*
X134239000Y-114427000D03*
X130371720Y-116898912D03*
X124460000Y-106730800D03*
X121098425Y-107268807D03*
X122072400Y-107289600D03*
X120307101Y-115404899D03*
X124409200Y-116128800D03*
X127393680Y-117367263D03*
X128892320Y-118291779D03*
X129286000Y-117398800D03*
X139065000Y-120015000D03*
X138430000Y-113919000D03*
X134405600Y-109855000D03*
X132994400Y-107188000D03*
X125691920Y-125628400D03*
X131114800Y-109270800D03*
X129946400Y-109016800D03*
X124307600Y-122275600D03*
X121107200Y-125476000D03*
X128524000Y-109169200D03*
X120383280Y-118224320D03*
X127609600Y-108762800D03*
X130966289Y-112475089D03*
X117906800Y-122072400D03*
X126067640Y-109883348D03*
X126447800Y-105581200D03*
X126238000Y-108458000D03*
D38*
X109728000Y-127762000D03*
X112268000Y-127762000D03*
X114808000Y-127762000D03*
X117348000Y-127762000D03*
X119888000Y-127762000D03*
X122428000Y-127762000D03*
X124968000Y-127762000D03*
X127508000Y-127762000D03*
X130048000Y-127762000D03*
X132588000Y-127762000D03*
X135128000Y-127762000D03*
X137668000Y-127762000D03*
X130937000Y-121539000D03*
X130937000Y-118999000D03*
X133477000Y-121539000D03*
X133477000Y-118999000D03*
X136017000Y-121539000D03*
X136017000Y-118999000D03*
X111988600Y-116992400D03*
X111988600Y-114452400D03*
X111988600Y-111912400D03*
X111988600Y-109372400D03*
X111988600Y-106832400D03*
X111988600Y-104292400D03*
X113284000Y-89662000D03*
X113284000Y-92202000D03*
X137668000Y-131318000D03*
X135128000Y-131318000D03*
X132588000Y-131318000D03*
X130048000Y-131318000D03*
X127508000Y-131318000D03*
X124968000Y-131318000D03*
X122428000Y-131318000D03*
X119888000Y-131318000D03*
X117348000Y-131318000D03*
X114808000Y-131318000D03*
X112268000Y-131318000D03*
X109728000Y-131318000D03*
M02*
