%TF.GenerationSoftware,KiCad,Pcbnew,4.0.4+e1-6308~48~ubuntu16.04.1-stable*%
%TF.CreationDate,2016-12-31T15:20:46-08:00*%
%TF.ProjectId,atmega328,61746D6567613332382E6B696361645F,1.2*%
%TF.FileFunction,Legend,Bot*%
%FSLAX46Y46*%
G04 Gerber Fmt 4.6, Leading zero omitted, Abs format (unit mm)*
G04 Created by KiCad (PCBNEW 4.0.4+e1-6308~48~ubuntu16.04.1-stable) date Sat Dec 31 15:20:46 2016*
%MOMM*%
%LPD*%
G01*
G04 APERTURE LIST*
%ADD10C,0.350000*%
%ADD11C,0.254000*%
%ADD12C,0.300000*%
G04 APERTURE END LIST*
D10*
D11*
X106979357Y-88703454D02*
X107826024Y-88945358D01*
X107221262Y-89187263D01*
X107826024Y-89429168D01*
X106979357Y-89671073D01*
X107826024Y-90154882D02*
X106979357Y-90154882D01*
X106556024Y-90154882D02*
X106616500Y-90094406D01*
X106676976Y-90154882D01*
X106616500Y-90215358D01*
X106556024Y-90154882D01*
X106676976Y-90154882D01*
X107765548Y-91303930D02*
X107826024Y-91182977D01*
X107826024Y-90941073D01*
X107765548Y-90820120D01*
X107705071Y-90759644D01*
X107584119Y-90699168D01*
X107221262Y-90699168D01*
X107100310Y-90759644D01*
X107039833Y-90820120D01*
X106979357Y-90941073D01*
X106979357Y-91182977D01*
X107039833Y-91303930D01*
X107826024Y-91848215D02*
X106556024Y-91848215D01*
X107342214Y-91969167D02*
X107826024Y-92332024D01*
X106979357Y-92332024D02*
X107463167Y-91848215D01*
X107765548Y-93360119D02*
X107826024Y-93239167D01*
X107826024Y-92997262D01*
X107765548Y-92876310D01*
X107644595Y-92815834D01*
X107160786Y-92815834D01*
X107039833Y-92876310D01*
X106979357Y-92997262D01*
X106979357Y-93239167D01*
X107039833Y-93360119D01*
X107160786Y-93420596D01*
X107281738Y-93420596D01*
X107402690Y-92815834D01*
X107826024Y-93964881D02*
X106979357Y-93964881D01*
X107221262Y-93964881D02*
X107100310Y-94025357D01*
X107039833Y-94085833D01*
X106979357Y-94206786D01*
X106979357Y-94327738D01*
X107826024Y-94751071D02*
X106556024Y-94751071D01*
X107039833Y-94751071D02*
X106979357Y-94872023D01*
X106979357Y-95113928D01*
X107039833Y-95234880D01*
X107100310Y-95295357D01*
X107221262Y-95355833D01*
X107584119Y-95355833D01*
X107705071Y-95295357D01*
X107765548Y-95234880D01*
X107826024Y-95113928D01*
X107826024Y-94872023D01*
X107765548Y-94751071D01*
X107826024Y-96081548D02*
X107765548Y-95960595D01*
X107705071Y-95900119D01*
X107584119Y-95839643D01*
X107221262Y-95839643D01*
X107100310Y-95900119D01*
X107039833Y-95960595D01*
X106979357Y-96081548D01*
X106979357Y-96262976D01*
X107039833Y-96383928D01*
X107100310Y-96444405D01*
X107221262Y-96504881D01*
X107584119Y-96504881D01*
X107705071Y-96444405D01*
X107765548Y-96383928D01*
X107826024Y-96262976D01*
X107826024Y-96081548D01*
X107826024Y-96928215D02*
X106979357Y-97593453D01*
X106979357Y-96928215D02*
X107826024Y-97593453D01*
X107705071Y-98077262D02*
X107765548Y-98137738D01*
X107826024Y-98077262D01*
X107765548Y-98016786D01*
X107705071Y-98077262D01*
X107826024Y-98077262D01*
X106979357Y-98682024D02*
X107826024Y-98682024D01*
X107100310Y-98682024D02*
X107039833Y-98742500D01*
X106979357Y-98863453D01*
X106979357Y-99044881D01*
X107039833Y-99165833D01*
X107160786Y-99226310D01*
X107826024Y-99226310D01*
X107765548Y-100314881D02*
X107826024Y-100193929D01*
X107826024Y-99952024D01*
X107765548Y-99831072D01*
X107644595Y-99770596D01*
X107160786Y-99770596D01*
X107039833Y-99831072D01*
X106979357Y-99952024D01*
X106979357Y-100193929D01*
X107039833Y-100314881D01*
X107160786Y-100375358D01*
X107281738Y-100375358D01*
X107402690Y-99770596D01*
X106979357Y-100738214D02*
X106979357Y-101222024D01*
X106556024Y-100919643D02*
X107644595Y-100919643D01*
X107765548Y-100980119D01*
X107826024Y-101101072D01*
X107826024Y-101222024D01*
D12*
X138068086Y-90460800D02*
X137353800Y-90460800D01*
X138210943Y-90889371D02*
X137710943Y-89389371D01*
X137210943Y-90889371D01*
X136925229Y-89889371D02*
X136353800Y-89889371D01*
X136710943Y-89389371D02*
X136710943Y-90675086D01*
X136639515Y-90817943D01*
X136496657Y-90889371D01*
X136353800Y-90889371D01*
X135853800Y-90889371D02*
X135853800Y-89889371D01*
X135853800Y-90032229D02*
X135782372Y-89960800D01*
X135639514Y-89889371D01*
X135425229Y-89889371D01*
X135282372Y-89960800D01*
X135210943Y-90103657D01*
X135210943Y-90889371D01*
X135210943Y-90103657D02*
X135139514Y-89960800D01*
X134996657Y-89889371D01*
X134782372Y-89889371D01*
X134639514Y-89960800D01*
X134568086Y-90103657D01*
X134568086Y-90889371D01*
X133282372Y-90817943D02*
X133425229Y-90889371D01*
X133710943Y-90889371D01*
X133853800Y-90817943D01*
X133925229Y-90675086D01*
X133925229Y-90103657D01*
X133853800Y-89960800D01*
X133710943Y-89889371D01*
X133425229Y-89889371D01*
X133282372Y-89960800D01*
X133210943Y-90103657D01*
X133210943Y-90246514D01*
X133925229Y-90389371D01*
X131925229Y-89889371D02*
X131925229Y-91103657D01*
X131996658Y-91246514D01*
X132068086Y-91317943D01*
X132210943Y-91389371D01*
X132425229Y-91389371D01*
X132568086Y-91317943D01*
X131925229Y-90817943D02*
X132068086Y-90889371D01*
X132353800Y-90889371D01*
X132496658Y-90817943D01*
X132568086Y-90746514D01*
X132639515Y-90603657D01*
X132639515Y-90175086D01*
X132568086Y-90032229D01*
X132496658Y-89960800D01*
X132353800Y-89889371D01*
X132068086Y-89889371D01*
X131925229Y-89960800D01*
X130568086Y-90889371D02*
X130568086Y-90103657D01*
X130639515Y-89960800D01*
X130782372Y-89889371D01*
X131068086Y-89889371D01*
X131210943Y-89960800D01*
X130568086Y-90817943D02*
X130710943Y-90889371D01*
X131068086Y-90889371D01*
X131210943Y-90817943D01*
X131282372Y-90675086D01*
X131282372Y-90532229D01*
X131210943Y-90389371D01*
X131068086Y-90317943D01*
X130710943Y-90317943D01*
X130568086Y-90246514D01*
X129996657Y-89389371D02*
X129068086Y-89389371D01*
X129568086Y-89960800D01*
X129353800Y-89960800D01*
X129210943Y-90032229D01*
X129139514Y-90103657D01*
X129068086Y-90246514D01*
X129068086Y-90603657D01*
X129139514Y-90746514D01*
X129210943Y-90817943D01*
X129353800Y-90889371D01*
X129782372Y-90889371D01*
X129925229Y-90817943D01*
X129996657Y-90746514D01*
X128496658Y-89532229D02*
X128425229Y-89460800D01*
X128282372Y-89389371D01*
X127925229Y-89389371D01*
X127782372Y-89460800D01*
X127710943Y-89532229D01*
X127639515Y-89675086D01*
X127639515Y-89817943D01*
X127710943Y-90032229D01*
X128568086Y-90889371D01*
X127639515Y-90889371D01*
X126782372Y-90032229D02*
X126925230Y-89960800D01*
X126996658Y-89889371D01*
X127068087Y-89746514D01*
X127068087Y-89675086D01*
X126996658Y-89532229D01*
X126925230Y-89460800D01*
X126782372Y-89389371D01*
X126496658Y-89389371D01*
X126353801Y-89460800D01*
X126282372Y-89532229D01*
X126210944Y-89675086D01*
X126210944Y-89746514D01*
X126282372Y-89889371D01*
X126353801Y-89960800D01*
X126496658Y-90032229D01*
X126782372Y-90032229D01*
X126925230Y-90103657D01*
X126996658Y-90175086D01*
X127068087Y-90317943D01*
X127068087Y-90603657D01*
X126996658Y-90746514D01*
X126925230Y-90817943D01*
X126782372Y-90889371D01*
X126496658Y-90889371D01*
X126353801Y-90817943D01*
X126282372Y-90746514D01*
X126210944Y-90603657D01*
X126210944Y-90317943D01*
X126282372Y-90175086D01*
X126353801Y-90103657D01*
X126496658Y-90032229D01*
X137496657Y-92653657D02*
X137282371Y-92725086D01*
X137210943Y-92796514D01*
X137139514Y-92939371D01*
X137139514Y-93153657D01*
X137210943Y-93296514D01*
X137282371Y-93367943D01*
X137425229Y-93439371D01*
X137996657Y-93439371D01*
X137996657Y-91939371D01*
X137496657Y-91939371D01*
X137353800Y-92010800D01*
X137282371Y-92082229D01*
X137210943Y-92225086D01*
X137210943Y-92367943D01*
X137282371Y-92510800D01*
X137353800Y-92582229D01*
X137496657Y-92653657D01*
X137996657Y-92653657D01*
X136496657Y-93439371D02*
X136496657Y-92439371D01*
X136496657Y-92725086D02*
X136425229Y-92582229D01*
X136353800Y-92510800D01*
X136210943Y-92439371D01*
X136068086Y-92439371D01*
X134996658Y-93367943D02*
X135139515Y-93439371D01*
X135425229Y-93439371D01*
X135568086Y-93367943D01*
X135639515Y-93225086D01*
X135639515Y-92653657D01*
X135568086Y-92510800D01*
X135425229Y-92439371D01*
X135139515Y-92439371D01*
X134996658Y-92510800D01*
X134925229Y-92653657D01*
X134925229Y-92796514D01*
X135639515Y-92939371D01*
X133639515Y-93439371D02*
X133639515Y-92653657D01*
X133710944Y-92510800D01*
X133853801Y-92439371D01*
X134139515Y-92439371D01*
X134282372Y-92510800D01*
X133639515Y-93367943D02*
X133782372Y-93439371D01*
X134139515Y-93439371D01*
X134282372Y-93367943D01*
X134353801Y-93225086D01*
X134353801Y-93082229D01*
X134282372Y-92939371D01*
X134139515Y-92867943D01*
X133782372Y-92867943D01*
X133639515Y-92796514D01*
X132925229Y-93439371D02*
X132925229Y-91939371D01*
X132782372Y-92867943D02*
X132353801Y-93439371D01*
X132353801Y-92439371D02*
X132925229Y-93010800D01*
X131496657Y-93439371D02*
X131639515Y-93367943D01*
X131710943Y-93296514D01*
X131782372Y-93153657D01*
X131782372Y-92725086D01*
X131710943Y-92582229D01*
X131639515Y-92510800D01*
X131496657Y-92439371D01*
X131282372Y-92439371D01*
X131139515Y-92510800D01*
X131068086Y-92582229D01*
X130996657Y-92725086D01*
X130996657Y-93153657D01*
X131068086Y-93296514D01*
X131139515Y-93367943D01*
X131282372Y-93439371D01*
X131496657Y-93439371D01*
X129710943Y-92439371D02*
X129710943Y-93439371D01*
X130353800Y-92439371D02*
X130353800Y-93225086D01*
X130282372Y-93367943D01*
X130139514Y-93439371D01*
X129925229Y-93439371D01*
X129782372Y-93367943D01*
X129710943Y-93296514D01*
X129210943Y-92439371D02*
X128639514Y-92439371D01*
X128996657Y-91939371D02*
X128996657Y-93225086D01*
X128925229Y-93367943D01*
X128782371Y-93439371D01*
X128639514Y-93439371D01*
X138139514Y-94989371D02*
X137782371Y-95989371D01*
X137425229Y-94989371D01*
X136068086Y-95989371D02*
X136925229Y-95989371D01*
X136496657Y-95989371D02*
X136496657Y-94489371D01*
X136639514Y-94703657D01*
X136782372Y-94846514D01*
X136925229Y-94917943D01*
X135425229Y-95846514D02*
X135353801Y-95917943D01*
X135425229Y-95989371D01*
X135496658Y-95917943D01*
X135425229Y-95846514D01*
X135425229Y-95989371D01*
X134782372Y-94632229D02*
X134710943Y-94560800D01*
X134568086Y-94489371D01*
X134210943Y-94489371D01*
X134068086Y-94560800D01*
X133996657Y-94632229D01*
X133925229Y-94775086D01*
X133925229Y-94917943D01*
X133996657Y-95132229D01*
X134853800Y-95989371D01*
X133925229Y-95989371D01*
M02*
