%TF.GenerationSoftware,KiCad,Pcbnew,4.0.4+e1-6308~48~ubuntu14.04.1-stable*%
%TF.CreationDate,2016-11-22T21:41:38-08:00*%
%TF.ProjectId,atmega328,61746D6567613332382E6B696361645F,v1.1*%
%TF.FileFunction,Paste,Top*%
%FSLAX46Y46*%
G04 Gerber Fmt 4.6, Leading zero omitted, Abs format (unit mm)*
G04 Created by KiCad (PCBNEW 4.0.4+e1-6308~48~ubuntu14.04.1-stable) date Tue Nov 22 21:41:38 2016*
%MOMM*%
%LPD*%
G01*
G04 APERTURE LIST*
%ADD10C,0.350000*%
%ADD11R,1.447600X0.397600*%
%ADD12R,0.397600X1.447600*%
%ADD13R,1.097600X0.847600*%
%ADD14R,0.647600X0.597600*%
%ADD15R,0.847600X2.847600*%
%ADD16R,1.648460X2.346960*%
%ADD17R,2.346960X1.648460*%
%ADD18R,0.597600X0.647600*%
%ADD19R,0.847600X2.347600*%
%ADD20R,2.347600X0.847600*%
%ADD21R,1.244600X1.752600*%
%ADD22R,2.895600X1.498600*%
%ADD23R,6.548120X6.548120*%
%ADD24R,0.647600X1.547600*%
G04 APERTURE END LIST*
D10*
D11*
X124197800Y-108393000D03*
X124197800Y-109193000D03*
X124197800Y-109993000D03*
X124197800Y-110793000D03*
X124197800Y-111593000D03*
X124197800Y-112393000D03*
X124197800Y-113193000D03*
X124197800Y-113993000D03*
D12*
X125647800Y-115443000D03*
X126447800Y-115443000D03*
X127247800Y-115443000D03*
X128047800Y-115443000D03*
X128847800Y-115443000D03*
X129647800Y-115443000D03*
X130447800Y-115443000D03*
X131247800Y-115443000D03*
D11*
X132697800Y-113993000D03*
X132697800Y-113193000D03*
X132697800Y-112393000D03*
X132697800Y-111593000D03*
X132697800Y-110793000D03*
X132697800Y-109993000D03*
X132697800Y-109193000D03*
X132697800Y-108393000D03*
D12*
X131247800Y-106943000D03*
X130447800Y-106943000D03*
X129647800Y-106943000D03*
X128847800Y-106943000D03*
X128047800Y-106943000D03*
X127247800Y-106943000D03*
X126447800Y-106943000D03*
X125647800Y-106943000D03*
D13*
X127889000Y-101870000D03*
X127889000Y-103870000D03*
D14*
X122186000Y-120396000D03*
X123686000Y-120396000D03*
D15*
X137936000Y-90043000D03*
X133336000Y-90043000D03*
D16*
X116840000Y-101820980D03*
X116840000Y-97823020D03*
D17*
X127474980Y-89916000D03*
X123477020Y-89916000D03*
D16*
X119253000Y-89441020D03*
X119253000Y-93438980D03*
D18*
X136398000Y-114185000D03*
X136398000Y-115685000D03*
X120142000Y-110478000D03*
X120142000Y-108978000D03*
X121920000Y-110490000D03*
X121920000Y-108990000D03*
D19*
X112117000Y-97409000D03*
X109117000Y-97409000D03*
D18*
X136398000Y-111494000D03*
X136398000Y-109994000D03*
D14*
X118225000Y-116332000D03*
X116725000Y-116332000D03*
X116610000Y-106807000D03*
X118110000Y-106807000D03*
D20*
X136906000Y-94512000D03*
X136906000Y-97512000D03*
D14*
X122924000Y-104267000D03*
X121424000Y-104267000D03*
D18*
X127127000Y-118745000D03*
X127127000Y-120245000D03*
D21*
X117906800Y-113969800D03*
X117906800Y-109499400D03*
X115417600Y-113969800D03*
X115417600Y-109499400D03*
D22*
X132252720Y-98948240D03*
D23*
X125603000Y-96647000D03*
D22*
X132252720Y-94345760D03*
D24*
X130175000Y-104267000D03*
X133575000Y-104267000D03*
M02*
