G04 #@! TF.FileFunction,Paste,Top*
%FSLAX46Y46*%
G04 Gerber Fmt 4.6, Leading zero omitted, Abs format (unit mm)*
G04 Created by KiCad (PCBNEW 4.0.3+e1-6302~38~ubuntu14.04.1-stable) date Wed Sep 21 12:32:53 2016*
%MOMM*%
%LPD*%
G01*
G04 APERTURE LIST*
%ADD10C,0.100000*%
%ADD11R,1.600000X0.550000*%
%ADD12R,0.550000X1.600000*%
%ADD13R,1.250000X1.000000*%
%ADD14R,0.800000X0.750000*%
%ADD15R,1.000000X3.000000*%
%ADD16R,1.800860X2.499360*%
%ADD17R,2.499360X1.800860*%
%ADD18R,0.750000X0.800000*%
%ADD19R,1.000000X2.500000*%
%ADD20R,2.500000X1.000000*%
%ADD21R,1.397000X1.905000*%
%ADD22R,3.048000X1.651000*%
%ADD23R,6.700520X6.700520*%
%ADD24R,0.800000X1.700000*%
G04 APERTURE END LIST*
D10*
D11*
X124197800Y-108393000D03*
X124197800Y-109193000D03*
X124197800Y-109993000D03*
X124197800Y-110793000D03*
X124197800Y-111593000D03*
X124197800Y-112393000D03*
X124197800Y-113193000D03*
X124197800Y-113993000D03*
D12*
X125647800Y-115443000D03*
X126447800Y-115443000D03*
X127247800Y-115443000D03*
X128047800Y-115443000D03*
X128847800Y-115443000D03*
X129647800Y-115443000D03*
X130447800Y-115443000D03*
X131247800Y-115443000D03*
D11*
X132697800Y-113993000D03*
X132697800Y-113193000D03*
X132697800Y-112393000D03*
X132697800Y-111593000D03*
X132697800Y-110793000D03*
X132697800Y-109993000D03*
X132697800Y-109193000D03*
X132697800Y-108393000D03*
D12*
X131247800Y-106943000D03*
X130447800Y-106943000D03*
X129647800Y-106943000D03*
X128847800Y-106943000D03*
X128047800Y-106943000D03*
X127247800Y-106943000D03*
X126447800Y-106943000D03*
X125647800Y-106943000D03*
D13*
X127889000Y-101870000D03*
X127889000Y-103870000D03*
D14*
X122186000Y-120396000D03*
X123686000Y-120396000D03*
D15*
X137936000Y-90043000D03*
X133336000Y-90043000D03*
D16*
X116840000Y-101820980D03*
X116840000Y-97823020D03*
D17*
X127474980Y-89916000D03*
X123477020Y-89916000D03*
D16*
X119253000Y-89441020D03*
X119253000Y-93438980D03*
D18*
X136398000Y-114185000D03*
X136398000Y-115685000D03*
X120142000Y-110478000D03*
X120142000Y-108978000D03*
X121920000Y-110490000D03*
X121920000Y-108990000D03*
D19*
X112117000Y-97409000D03*
X109117000Y-97409000D03*
D18*
X136398000Y-111494000D03*
X136398000Y-109994000D03*
D14*
X118225000Y-116332000D03*
X116725000Y-116332000D03*
X116610000Y-106807000D03*
X118110000Y-106807000D03*
D20*
X136906000Y-94512000D03*
X136906000Y-97512000D03*
D14*
X122924000Y-104267000D03*
X121424000Y-104267000D03*
D18*
X127127000Y-118745000D03*
X127127000Y-120245000D03*
D21*
X117906800Y-113969800D03*
X117906800Y-109499400D03*
X115417600Y-113969800D03*
X115417600Y-109499400D03*
D22*
X132252720Y-98948240D03*
D23*
X125603000Y-96647000D03*
D22*
X132252720Y-94345760D03*
D24*
X130175000Y-104267000D03*
X133575000Y-104267000D03*
M02*
