G04 #@! TF.FileFunction,Legend,Top*
%FSLAX46Y46*%
G04 Gerber Fmt 4.6, Leading zero omitted, Abs format (unit mm)*
G04 Created by KiCad (PCBNEW 4.0.1-3.201512221402+6198~38~ubuntu14.04.1-stable) date Fri 22 Jul 2016 08:32:17 PM PDT*
%MOMM*%
G01*
G04 APERTURE LIST*
%ADD10C,0.100000*%
%ADD11C,0.177800*%
%ADD12C,0.203200*%
%ADD13C,0.508000*%
%ADD14C,0.150000*%
%ADD15C,0.152400*%
%ADD16C,0.381000*%
G04 APERTURE END LIST*
D10*
D11*
X134222067Y-125681619D02*
X134222067Y-124665619D01*
X134463972Y-124665619D01*
X134609114Y-124714000D01*
X134705876Y-124810762D01*
X134754257Y-124907524D01*
X134802638Y-125101048D01*
X134802638Y-125246190D01*
X134754257Y-125439714D01*
X134705876Y-125536476D01*
X134609114Y-125633238D01*
X134463972Y-125681619D01*
X134222067Y-125681619D01*
X135770257Y-125681619D02*
X135189686Y-125681619D01*
X135479972Y-125681619D02*
X135479972Y-124665619D01*
X135383210Y-124810762D01*
X135286448Y-124907524D01*
X135189686Y-124955905D01*
X136737876Y-125681619D02*
X136157305Y-125681619D01*
X136447591Y-125681619D02*
X136447591Y-124665619D01*
X136350829Y-124810762D01*
X136254067Y-124907524D01*
X136157305Y-124955905D01*
X131224867Y-125681619D02*
X131224867Y-124665619D01*
X131466772Y-124665619D01*
X131611914Y-124714000D01*
X131708676Y-124810762D01*
X131757057Y-124907524D01*
X131805438Y-125101048D01*
X131805438Y-125246190D01*
X131757057Y-125439714D01*
X131708676Y-125536476D01*
X131611914Y-125633238D01*
X131466772Y-125681619D01*
X131224867Y-125681619D01*
X132773057Y-125681619D02*
X132192486Y-125681619D01*
X132482772Y-125681619D02*
X132482772Y-124665619D01*
X132386010Y-124810762D01*
X132289248Y-124907524D01*
X132192486Y-124955905D01*
X133402010Y-124665619D02*
X133498771Y-124665619D01*
X133595533Y-124714000D01*
X133643914Y-124762381D01*
X133692295Y-124859143D01*
X133740676Y-125052667D01*
X133740676Y-125294571D01*
X133692295Y-125488095D01*
X133643914Y-125584857D01*
X133595533Y-125633238D01*
X133498771Y-125681619D01*
X133402010Y-125681619D01*
X133305248Y-125633238D01*
X133256867Y-125584857D01*
X133208486Y-125488095D01*
X133160105Y-125294571D01*
X133160105Y-125052667D01*
X133208486Y-124859143D01*
X133256867Y-124762381D01*
X133305248Y-124714000D01*
X133402010Y-124665619D01*
X129195286Y-125681619D02*
X129195286Y-124665619D01*
X129437191Y-124665619D01*
X129582333Y-124714000D01*
X129679095Y-124810762D01*
X129727476Y-124907524D01*
X129775857Y-125101048D01*
X129775857Y-125246190D01*
X129727476Y-125439714D01*
X129679095Y-125536476D01*
X129582333Y-125633238D01*
X129437191Y-125681619D01*
X129195286Y-125681619D01*
X130259667Y-125681619D02*
X130453191Y-125681619D01*
X130549952Y-125633238D01*
X130598333Y-125584857D01*
X130695095Y-125439714D01*
X130743476Y-125246190D01*
X130743476Y-124859143D01*
X130695095Y-124762381D01*
X130646714Y-124714000D01*
X130549952Y-124665619D01*
X130356429Y-124665619D01*
X130259667Y-124714000D01*
X130211286Y-124762381D01*
X130162905Y-124859143D01*
X130162905Y-125101048D01*
X130211286Y-125197810D01*
X130259667Y-125246190D01*
X130356429Y-125294571D01*
X130549952Y-125294571D01*
X130646714Y-125246190D01*
X130695095Y-125197810D01*
X130743476Y-125101048D01*
X126655286Y-125681619D02*
X126655286Y-124665619D01*
X126897191Y-124665619D01*
X127042333Y-124714000D01*
X127139095Y-124810762D01*
X127187476Y-124907524D01*
X127235857Y-125101048D01*
X127235857Y-125246190D01*
X127187476Y-125439714D01*
X127139095Y-125536476D01*
X127042333Y-125633238D01*
X126897191Y-125681619D01*
X126655286Y-125681619D01*
X127816429Y-125101048D02*
X127719667Y-125052667D01*
X127671286Y-125004286D01*
X127622905Y-124907524D01*
X127622905Y-124859143D01*
X127671286Y-124762381D01*
X127719667Y-124714000D01*
X127816429Y-124665619D01*
X128009952Y-124665619D01*
X128106714Y-124714000D01*
X128155095Y-124762381D01*
X128203476Y-124859143D01*
X128203476Y-124907524D01*
X128155095Y-125004286D01*
X128106714Y-125052667D01*
X128009952Y-125101048D01*
X127816429Y-125101048D01*
X127719667Y-125149429D01*
X127671286Y-125197810D01*
X127622905Y-125294571D01*
X127622905Y-125488095D01*
X127671286Y-125584857D01*
X127719667Y-125633238D01*
X127816429Y-125681619D01*
X128009952Y-125681619D01*
X128106714Y-125633238D01*
X128155095Y-125584857D01*
X128203476Y-125488095D01*
X128203476Y-125294571D01*
X128155095Y-125197810D01*
X128106714Y-125149429D01*
X128009952Y-125101048D01*
X124115286Y-125681619D02*
X124115286Y-124665619D01*
X124357191Y-124665619D01*
X124502333Y-124714000D01*
X124599095Y-124810762D01*
X124647476Y-124907524D01*
X124695857Y-125101048D01*
X124695857Y-125246190D01*
X124647476Y-125439714D01*
X124599095Y-125536476D01*
X124502333Y-125633238D01*
X124357191Y-125681619D01*
X124115286Y-125681619D01*
X125034524Y-124665619D02*
X125711857Y-124665619D01*
X125276429Y-125681619D01*
X121575286Y-125681619D02*
X121575286Y-124665619D01*
X121817191Y-124665619D01*
X121962333Y-124714000D01*
X122059095Y-124810762D01*
X122107476Y-124907524D01*
X122155857Y-125101048D01*
X122155857Y-125246190D01*
X122107476Y-125439714D01*
X122059095Y-125536476D01*
X121962333Y-125633238D01*
X121817191Y-125681619D01*
X121575286Y-125681619D01*
X123026714Y-124665619D02*
X122833191Y-124665619D01*
X122736429Y-124714000D01*
X122688048Y-124762381D01*
X122591286Y-124907524D01*
X122542905Y-125101048D01*
X122542905Y-125488095D01*
X122591286Y-125584857D01*
X122639667Y-125633238D01*
X122736429Y-125681619D01*
X122929952Y-125681619D01*
X123026714Y-125633238D01*
X123075095Y-125584857D01*
X123123476Y-125488095D01*
X123123476Y-125246190D01*
X123075095Y-125149429D01*
X123026714Y-125101048D01*
X122929952Y-125052667D01*
X122736429Y-125052667D01*
X122639667Y-125101048D01*
X122591286Y-125149429D01*
X122542905Y-125246190D01*
X119035286Y-125681619D02*
X119035286Y-124665619D01*
X119277191Y-124665619D01*
X119422333Y-124714000D01*
X119519095Y-124810762D01*
X119567476Y-124907524D01*
X119615857Y-125101048D01*
X119615857Y-125246190D01*
X119567476Y-125439714D01*
X119519095Y-125536476D01*
X119422333Y-125633238D01*
X119277191Y-125681619D01*
X119035286Y-125681619D01*
X120535095Y-124665619D02*
X120051286Y-124665619D01*
X120002905Y-125149429D01*
X120051286Y-125101048D01*
X120148048Y-125052667D01*
X120389952Y-125052667D01*
X120486714Y-125101048D01*
X120535095Y-125149429D01*
X120583476Y-125246190D01*
X120583476Y-125488095D01*
X120535095Y-125584857D01*
X120486714Y-125633238D01*
X120389952Y-125681619D01*
X120148048Y-125681619D01*
X120051286Y-125633238D01*
X120002905Y-125584857D01*
X116495286Y-125681619D02*
X116495286Y-124665619D01*
X116737191Y-124665619D01*
X116882333Y-124714000D01*
X116979095Y-124810762D01*
X117027476Y-124907524D01*
X117075857Y-125101048D01*
X117075857Y-125246190D01*
X117027476Y-125439714D01*
X116979095Y-125536476D01*
X116882333Y-125633238D01*
X116737191Y-125681619D01*
X116495286Y-125681619D01*
X117946714Y-125004286D02*
X117946714Y-125681619D01*
X117704810Y-124617238D02*
X117462905Y-125342952D01*
X118091857Y-125342952D01*
X113955286Y-125681619D02*
X113955286Y-124665619D01*
X114197191Y-124665619D01*
X114342333Y-124714000D01*
X114439095Y-124810762D01*
X114487476Y-124907524D01*
X114535857Y-125101048D01*
X114535857Y-125246190D01*
X114487476Y-125439714D01*
X114439095Y-125536476D01*
X114342333Y-125633238D01*
X114197191Y-125681619D01*
X113955286Y-125681619D01*
X114874524Y-124665619D02*
X115503476Y-124665619D01*
X115164810Y-125052667D01*
X115309952Y-125052667D01*
X115406714Y-125101048D01*
X115455095Y-125149429D01*
X115503476Y-125246190D01*
X115503476Y-125488095D01*
X115455095Y-125584857D01*
X115406714Y-125633238D01*
X115309952Y-125681619D01*
X115019667Y-125681619D01*
X114922905Y-125633238D01*
X114874524Y-125584857D01*
X111415286Y-125681619D02*
X111415286Y-124665619D01*
X111657191Y-124665619D01*
X111802333Y-124714000D01*
X111899095Y-124810762D01*
X111947476Y-124907524D01*
X111995857Y-125101048D01*
X111995857Y-125246190D01*
X111947476Y-125439714D01*
X111899095Y-125536476D01*
X111802333Y-125633238D01*
X111657191Y-125681619D01*
X111415286Y-125681619D01*
X112382905Y-124762381D02*
X112431286Y-124714000D01*
X112528048Y-124665619D01*
X112769952Y-124665619D01*
X112866714Y-124714000D01*
X112915095Y-124762381D01*
X112963476Y-124859143D01*
X112963476Y-124955905D01*
X112915095Y-125101048D01*
X112334524Y-125681619D01*
X112963476Y-125681619D01*
X134476067Y-134165219D02*
X134476067Y-133149219D01*
X134717972Y-133149219D01*
X134863114Y-133197600D01*
X134959876Y-133294362D01*
X135008257Y-133391124D01*
X135056638Y-133584648D01*
X135056638Y-133729790D01*
X135008257Y-133923314D01*
X134959876Y-134020076D01*
X134863114Y-134116838D01*
X134717972Y-134165219D01*
X134476067Y-134165219D01*
X136024257Y-134165219D02*
X135443686Y-134165219D01*
X135733972Y-134165219D02*
X135733972Y-133149219D01*
X135637210Y-133294362D01*
X135540448Y-133391124D01*
X135443686Y-133439505D01*
X136411305Y-133245981D02*
X136459686Y-133197600D01*
X136556448Y-133149219D01*
X136798352Y-133149219D01*
X136895114Y-133197600D01*
X136943495Y-133245981D01*
X136991876Y-133342743D01*
X136991876Y-133439505D01*
X136943495Y-133584648D01*
X136362924Y-134165219D01*
X136991876Y-134165219D01*
X131224867Y-134190619D02*
X131224867Y-133174619D01*
X131466772Y-133174619D01*
X131611914Y-133223000D01*
X131708676Y-133319762D01*
X131757057Y-133416524D01*
X131805438Y-133610048D01*
X131805438Y-133755190D01*
X131757057Y-133948714D01*
X131708676Y-134045476D01*
X131611914Y-134142238D01*
X131466772Y-134190619D01*
X131224867Y-134190619D01*
X132773057Y-134190619D02*
X132192486Y-134190619D01*
X132482772Y-134190619D02*
X132482772Y-133174619D01*
X132386010Y-133319762D01*
X132289248Y-133416524D01*
X132192486Y-133464905D01*
X133111724Y-133174619D02*
X133740676Y-133174619D01*
X133402010Y-133561667D01*
X133547152Y-133561667D01*
X133643914Y-133610048D01*
X133692295Y-133658429D01*
X133740676Y-133755190D01*
X133740676Y-133997095D01*
X133692295Y-134093857D01*
X133643914Y-134142238D01*
X133547152Y-134190619D01*
X133256867Y-134190619D01*
X133160105Y-134142238D01*
X133111724Y-134093857D01*
X129241248Y-133900333D02*
X129725057Y-133900333D01*
X129144486Y-134190619D02*
X129483153Y-133174619D01*
X129821819Y-134190619D01*
X130354010Y-133174619D02*
X130450771Y-133174619D01*
X130547533Y-133223000D01*
X130595914Y-133271381D01*
X130644295Y-133368143D01*
X130692676Y-133561667D01*
X130692676Y-133803571D01*
X130644295Y-133997095D01*
X130595914Y-134093857D01*
X130547533Y-134142238D01*
X130450771Y-134190619D01*
X130354010Y-134190619D01*
X130257248Y-134142238D01*
X130208867Y-134093857D01*
X130160486Y-133997095D01*
X130112105Y-133803571D01*
X130112105Y-133561667D01*
X130160486Y-133368143D01*
X130208867Y-133271381D01*
X130257248Y-133223000D01*
X130354010Y-133174619D01*
X126701248Y-133900333D02*
X127185057Y-133900333D01*
X126604486Y-134190619D02*
X126943153Y-133174619D01*
X127281819Y-134190619D01*
X128152676Y-134190619D02*
X127572105Y-134190619D01*
X127862391Y-134190619D02*
X127862391Y-133174619D01*
X127765629Y-133319762D01*
X127668867Y-133416524D01*
X127572105Y-133464905D01*
X124161248Y-133900333D02*
X124645057Y-133900333D01*
X124064486Y-134190619D02*
X124403153Y-133174619D01*
X124741819Y-134190619D01*
X125032105Y-133271381D02*
X125080486Y-133223000D01*
X125177248Y-133174619D01*
X125419152Y-133174619D01*
X125515914Y-133223000D01*
X125564295Y-133271381D01*
X125612676Y-133368143D01*
X125612676Y-133464905D01*
X125564295Y-133610048D01*
X124983724Y-134190619D01*
X125612676Y-134190619D01*
X121621248Y-133900333D02*
X122105057Y-133900333D01*
X121524486Y-134190619D02*
X121863153Y-133174619D01*
X122201819Y-134190619D01*
X122443724Y-133174619D02*
X123072676Y-133174619D01*
X122734010Y-133561667D01*
X122879152Y-133561667D01*
X122975914Y-133610048D01*
X123024295Y-133658429D01*
X123072676Y-133755190D01*
X123072676Y-133997095D01*
X123024295Y-134093857D01*
X122975914Y-134142238D01*
X122879152Y-134190619D01*
X122588867Y-134190619D01*
X122492105Y-134142238D01*
X122443724Y-134093857D01*
X119081248Y-133900333D02*
X119565057Y-133900333D01*
X118984486Y-134190619D02*
X119323153Y-133174619D01*
X119661819Y-134190619D01*
X120435914Y-133513286D02*
X120435914Y-134190619D01*
X120194010Y-133126238D02*
X119952105Y-133851952D01*
X120581057Y-133851952D01*
X116541248Y-133900333D02*
X117025057Y-133900333D01*
X116444486Y-134190619D02*
X116783153Y-133174619D01*
X117121819Y-134190619D01*
X117944295Y-133174619D02*
X117460486Y-133174619D01*
X117412105Y-133658429D01*
X117460486Y-133610048D01*
X117557248Y-133561667D01*
X117799152Y-133561667D01*
X117895914Y-133610048D01*
X117944295Y-133658429D01*
X117992676Y-133755190D01*
X117992676Y-133997095D01*
X117944295Y-134093857D01*
X117895914Y-134142238D01*
X117799152Y-134190619D01*
X117557248Y-134190619D01*
X117460486Y-134142238D01*
X117412105Y-134093857D01*
X114001248Y-133900333D02*
X114485057Y-133900333D01*
X113904486Y-134190619D02*
X114243153Y-133174619D01*
X114581819Y-134190619D01*
X115355914Y-133174619D02*
X115162391Y-133174619D01*
X115065629Y-133223000D01*
X115017248Y-133271381D01*
X114920486Y-133416524D01*
X114872105Y-133610048D01*
X114872105Y-133997095D01*
X114920486Y-134093857D01*
X114968867Y-134142238D01*
X115065629Y-134190619D01*
X115259152Y-134190619D01*
X115355914Y-134142238D01*
X115404295Y-134093857D01*
X115452676Y-133997095D01*
X115452676Y-133755190D01*
X115404295Y-133658429D01*
X115355914Y-133610048D01*
X115259152Y-133561667D01*
X115065629Y-133561667D01*
X114968867Y-133610048D01*
X114920486Y-133658429D01*
X114872105Y-133755190D01*
X111461248Y-133900333D02*
X111945057Y-133900333D01*
X111364486Y-134190619D02*
X111703153Y-133174619D01*
X112041819Y-134190619D01*
X112283724Y-133174619D02*
X112961057Y-133174619D01*
X112525629Y-134190619D01*
D12*
X111050009Y-119561429D02*
X110711343Y-119561429D01*
X110711343Y-120093619D02*
X110711343Y-119077619D01*
X111195152Y-119077619D01*
X111437057Y-119077619D02*
X112017628Y-119077619D01*
X111727343Y-120093619D02*
X111727343Y-119077619D01*
X112356295Y-120093619D02*
X112356295Y-119077619D01*
X112598200Y-119077619D01*
X112743342Y-119126000D01*
X112840104Y-119222762D01*
X112888485Y-119319524D01*
X112936866Y-119513048D01*
X112936866Y-119658190D01*
X112888485Y-119851714D01*
X112840104Y-119948476D01*
X112743342Y-120045238D01*
X112598200Y-120093619D01*
X112356295Y-120093619D01*
X113372295Y-120093619D02*
X113372295Y-119077619D01*
X107889524Y-107139619D02*
X107889524Y-106123619D01*
X108470095Y-107139619D01*
X108470095Y-106123619D01*
X109534476Y-107042857D02*
X109486095Y-107091238D01*
X109340952Y-107139619D01*
X109244190Y-107139619D01*
X109099048Y-107091238D01*
X109002286Y-106994476D01*
X108953905Y-106897714D01*
X108905524Y-106704190D01*
X108905524Y-106559048D01*
X108953905Y-106365524D01*
X109002286Y-106268762D01*
X109099048Y-106172000D01*
X109244190Y-106123619D01*
X109340952Y-106123619D01*
X109486095Y-106172000D01*
X109534476Y-106220381D01*
D13*
X114837981Y-117983000D02*
G75*
G03X114837981Y-117983000I-283981J0D01*
G01*
X123804181Y-107086400D02*
G75*
G03X123804181Y-107086400I-283981J0D01*
G01*
X128680981Y-122301000D02*
G75*
G03X128680981Y-122301000I-283981J0D01*
G01*
D12*
X107024714Y-91694000D02*
X106927952Y-91645619D01*
X106782809Y-91645619D01*
X106637667Y-91694000D01*
X106540905Y-91790762D01*
X106492524Y-91887524D01*
X106444143Y-92081048D01*
X106444143Y-92226190D01*
X106492524Y-92419714D01*
X106540905Y-92516476D01*
X106637667Y-92613238D01*
X106782809Y-92661619D01*
X106879571Y-92661619D01*
X107024714Y-92613238D01*
X107073095Y-92564857D01*
X107073095Y-92226190D01*
X106879571Y-92226190D01*
X107508524Y-92661619D02*
X107508524Y-91645619D01*
X108089095Y-92661619D01*
X108089095Y-91645619D01*
X108572905Y-92661619D02*
X108572905Y-91645619D01*
X108814810Y-91645619D01*
X108959952Y-91694000D01*
X109056714Y-91790762D01*
X109105095Y-91887524D01*
X109153476Y-92081048D01*
X109153476Y-92226190D01*
X109105095Y-92419714D01*
X109056714Y-92516476D01*
X108959952Y-92613238D01*
X108814810Y-92661619D01*
X108572905Y-92661619D01*
X107024714Y-88978619D02*
X107363381Y-89994619D01*
X107702047Y-88978619D01*
X108040714Y-89994619D02*
X108040714Y-88978619D01*
X108524524Y-89994619D02*
X108524524Y-88978619D01*
X109105095Y-89994619D01*
X109105095Y-88978619D01*
X107792762Y-117299619D02*
X107454096Y-116815810D01*
X107212191Y-117299619D02*
X107212191Y-116283619D01*
X107599238Y-116283619D01*
X107696000Y-116332000D01*
X107744381Y-116380381D01*
X107792762Y-116477143D01*
X107792762Y-116622286D01*
X107744381Y-116719048D01*
X107696000Y-116767429D01*
X107599238Y-116815810D01*
X107212191Y-116815810D01*
X108179810Y-117251238D02*
X108324953Y-117299619D01*
X108566857Y-117299619D01*
X108663619Y-117251238D01*
X108712000Y-117202857D01*
X108760381Y-117106095D01*
X108760381Y-117009333D01*
X108712000Y-116912571D01*
X108663619Y-116864190D01*
X108566857Y-116815810D01*
X108373334Y-116767429D01*
X108276572Y-116719048D01*
X108228191Y-116670667D01*
X108179810Y-116573905D01*
X108179810Y-116477143D01*
X108228191Y-116380381D01*
X108276572Y-116332000D01*
X108373334Y-116283619D01*
X108615238Y-116283619D01*
X108760381Y-116332000D01*
X109050667Y-116283619D02*
X109631238Y-116283619D01*
X109340953Y-117299619D02*
X109340953Y-116283619D01*
X108083048Y-113743619D02*
X108663619Y-113743619D01*
X108373334Y-114759619D02*
X108373334Y-113743619D01*
X108905524Y-113743619D02*
X109582857Y-114759619D01*
X109582857Y-113743619D02*
X108905524Y-114759619D01*
X108566857Y-112219619D02*
X108228191Y-111735810D01*
X107986286Y-112219619D02*
X107986286Y-111203619D01*
X108373333Y-111203619D01*
X108470095Y-111252000D01*
X108518476Y-111300381D01*
X108566857Y-111397143D01*
X108566857Y-111542286D01*
X108518476Y-111639048D01*
X108470095Y-111687429D01*
X108373333Y-111735810D01*
X107986286Y-111735810D01*
X108905524Y-111203619D02*
X109582857Y-112219619D01*
X109582857Y-111203619D02*
X108905524Y-112219619D01*
X108615238Y-108536619D02*
X108131429Y-108536619D01*
X108083048Y-109020429D01*
X108131429Y-108972048D01*
X108228191Y-108923667D01*
X108470095Y-108923667D01*
X108566857Y-108972048D01*
X108615238Y-109020429D01*
X108663619Y-109117190D01*
X108663619Y-109359095D01*
X108615238Y-109455857D01*
X108566857Y-109504238D01*
X108470095Y-109552619D01*
X108228191Y-109552619D01*
X108131429Y-109504238D01*
X108083048Y-109455857D01*
X108953905Y-108536619D02*
X109292572Y-109552619D01*
X109631238Y-108536619D01*
X107405714Y-103632000D02*
X107308952Y-103583619D01*
X107163809Y-103583619D01*
X107018667Y-103632000D01*
X106921905Y-103728762D01*
X106873524Y-103825524D01*
X106825143Y-104019048D01*
X106825143Y-104164190D01*
X106873524Y-104357714D01*
X106921905Y-104454476D01*
X107018667Y-104551238D01*
X107163809Y-104599619D01*
X107260571Y-104599619D01*
X107405714Y-104551238D01*
X107454095Y-104502857D01*
X107454095Y-104164190D01*
X107260571Y-104164190D01*
X107889524Y-104599619D02*
X107889524Y-103583619D01*
X108470095Y-104599619D01*
X108470095Y-103583619D01*
X108953905Y-104599619D02*
X108953905Y-103583619D01*
X109195810Y-103583619D01*
X109340952Y-103632000D01*
X109437714Y-103728762D01*
X109486095Y-103825524D01*
X109534476Y-104019048D01*
X109534476Y-104164190D01*
X109486095Y-104357714D01*
X109437714Y-104454476D01*
X109340952Y-104551238D01*
X109195810Y-104599619D01*
X108953905Y-104599619D01*
D14*
X132207000Y-122809000D02*
X137287000Y-122809000D01*
X129387000Y-123089000D02*
X129387000Y-121539000D01*
X129667000Y-120269000D02*
X132207000Y-120269000D01*
X132207000Y-120269000D02*
X132207000Y-122809000D01*
X137287000Y-122809000D02*
X137287000Y-117729000D01*
X137287000Y-117729000D02*
X132207000Y-117729000D01*
X129387000Y-123089000D02*
X130937000Y-123089000D01*
X129667000Y-117729000D02*
X129667000Y-120269000D01*
X132207000Y-117729000D02*
X129667000Y-117729000D01*
X110718600Y-115722400D02*
X110718600Y-103022400D01*
X110718600Y-103022400D02*
X113258600Y-103022400D01*
X113258600Y-103022400D02*
X113258600Y-115722400D01*
X110438600Y-118542400D02*
X110438600Y-116992400D01*
X110718600Y-115722400D02*
X113258600Y-115722400D01*
X113538600Y-116992400D02*
X113538600Y-118542400D01*
X113538600Y-118542400D02*
X110438600Y-118542400D01*
D15*
X113665000Y-105511600D02*
X117170200Y-105511600D01*
X113665000Y-105511600D02*
X113665000Y-111506000D01*
X117170200Y-105511600D02*
X117170200Y-111506000D01*
X113665000Y-111506000D02*
X117170200Y-111506000D01*
D16*
X133951980Y-95298260D02*
X129052320Y-95298260D01*
X133951980Y-95298260D02*
X133951980Y-93395800D01*
X133951980Y-93395800D02*
X129052320Y-93395800D01*
X133903720Y-99898200D02*
X129052320Y-99898200D01*
X133903720Y-99898200D02*
X133903720Y-97995740D01*
X133903720Y-97995740D02*
X129052320Y-97995740D01*
X122153680Y-100096320D02*
X122153680Y-93197680D01*
X122153680Y-93197680D02*
X129052320Y-93197680D01*
X129052320Y-93197680D02*
X129052320Y-100096320D01*
X129052320Y-100096320D02*
X122153680Y-100096320D01*
D14*
X127727000Y-119145000D02*
X127727000Y-119845000D01*
X126527000Y-119845000D02*
X126527000Y-119145000D01*
X128739000Y-103370000D02*
X128739000Y-102370000D01*
X127039000Y-102370000D02*
X127039000Y-103370000D01*
X122586000Y-119796000D02*
X123286000Y-119796000D01*
X123286000Y-120996000D02*
X122586000Y-120996000D01*
X133883400Y-132486400D02*
X111023400Y-132486400D01*
X111023400Y-132486400D02*
X111023400Y-129946400D01*
X111023400Y-129946400D02*
X133883400Y-129946400D01*
X136703400Y-132766400D02*
X135153400Y-132766400D01*
X133883400Y-132486400D02*
X133883400Y-129946400D01*
X135153400Y-129666400D02*
X136703400Y-129666400D01*
X136703400Y-129666400D02*
X136703400Y-132766400D01*
X113538000Y-126492000D02*
X136398000Y-126492000D01*
X136398000Y-126492000D02*
X136398000Y-129032000D01*
X136398000Y-129032000D02*
X113538000Y-129032000D01*
X110718000Y-126212000D02*
X112268000Y-126212000D01*
X113538000Y-126492000D02*
X113538000Y-129032000D01*
X112268000Y-129312000D02*
X110718000Y-129312000D01*
X110718000Y-129312000D02*
X110718000Y-126212000D01*
X114554000Y-90932000D02*
X114554000Y-93472000D01*
X114834000Y-88112000D02*
X114834000Y-89662000D01*
X114554000Y-90932000D02*
X112014000Y-90932000D01*
X111734000Y-89662000D02*
X111734000Y-88112000D01*
X111734000Y-88112000D02*
X114834000Y-88112000D01*
X112014000Y-90932000D02*
X112014000Y-93472000D01*
X112014000Y-93472000D02*
X114554000Y-93472000D01*
X134112000Y-91768000D02*
X137160000Y-91768000D01*
X137160000Y-88318000D02*
X134112000Y-88318000D01*
X118590060Y-101621140D02*
X118239540Y-101621140D01*
X115089940Y-101621140D02*
X115440460Y-101621140D01*
X118590060Y-97571560D02*
X118239540Y-97571560D01*
X118590060Y-102072440D02*
X118239540Y-102072440D01*
X115089940Y-102072440D02*
X115440460Y-102072440D01*
X115089940Y-97571560D02*
X115440460Y-97571560D01*
X118590060Y-102072440D02*
X118590060Y-97571560D01*
X115089940Y-102072440D02*
X115089940Y-97571560D01*
X127275140Y-88165940D02*
X127275140Y-88516460D01*
X127275140Y-91666060D02*
X127275140Y-91315540D01*
X123225560Y-88165940D02*
X123225560Y-88516460D01*
X127726440Y-88165940D02*
X127726440Y-88516460D01*
X127726440Y-91666060D02*
X127726440Y-91315540D01*
X123225560Y-91666060D02*
X123225560Y-91315540D01*
X127726440Y-88165940D02*
X123225560Y-88165940D01*
X127726440Y-91666060D02*
X123225560Y-91666060D01*
X117502940Y-89640860D02*
X117853460Y-89640860D01*
X121003060Y-89640860D02*
X120652540Y-89640860D01*
X117502940Y-93690440D02*
X117853460Y-93690440D01*
X117502940Y-89189560D02*
X117853460Y-89189560D01*
X121003060Y-89189560D02*
X120652540Y-89189560D01*
X121003060Y-93690440D02*
X120652540Y-93690440D01*
X117502940Y-89189560D02*
X117502940Y-93690440D01*
X121003060Y-89189560D02*
X121003060Y-93690440D01*
X136998000Y-114585000D02*
X136998000Y-115285000D01*
X135798000Y-115285000D02*
X135798000Y-114585000D01*
X119542000Y-110078000D02*
X119542000Y-109378000D01*
X120742000Y-109378000D02*
X120742000Y-110078000D01*
X121320000Y-110090000D02*
X121320000Y-109390000D01*
X122520000Y-109390000D02*
X122520000Y-110090000D01*
X109617000Y-98884000D02*
X111617000Y-98884000D01*
X111617000Y-95934000D02*
X109617000Y-95934000D01*
X135798000Y-111094000D02*
X135798000Y-110394000D01*
X136998000Y-110394000D02*
X136998000Y-111094000D01*
X117825000Y-116932000D02*
X117125000Y-116932000D01*
X117125000Y-115732000D02*
X117825000Y-115732000D01*
X117010000Y-106207000D02*
X117710000Y-106207000D01*
X117710000Y-107407000D02*
X117010000Y-107407000D01*
X138381000Y-97012000D02*
X138381000Y-95012000D01*
X135431000Y-95012000D02*
X135431000Y-97012000D01*
X122524000Y-104867000D02*
X121824000Y-104867000D01*
X121824000Y-103667000D02*
X122524000Y-103667000D01*
X133468320Y-103017000D02*
X130468320Y-103017000D01*
X133468320Y-105517000D02*
X130468320Y-105517000D01*
D10*
X133575000Y-102267000D02*
X133575000Y-102267000D01*
X126652980Y-100953820D02*
X126652980Y-100953820D01*
D14*
X124822800Y-107576200D02*
X124822800Y-107901200D01*
X132072800Y-107576200D02*
X132072800Y-107901200D01*
X132072800Y-114826200D02*
X132072800Y-114501200D01*
X124822800Y-114826200D02*
X124822800Y-114501200D01*
X124822800Y-107576200D02*
X125147800Y-107576200D01*
X124822800Y-114826200D02*
X125147800Y-114826200D01*
X132072800Y-114826200D02*
X131747800Y-114826200D01*
X132072800Y-107576200D02*
X131747800Y-107576200D01*
X124822800Y-107901200D02*
X123397800Y-107901200D01*
X127849381Y-122126333D02*
X128563667Y-122126333D01*
X128706524Y-122173953D01*
X128801762Y-122269191D01*
X128849381Y-122412048D01*
X128849381Y-122507286D01*
X127849381Y-121745381D02*
X127849381Y-121126333D01*
X128230333Y-121459667D01*
X128230333Y-121316809D01*
X128277952Y-121221571D01*
X128325571Y-121173952D01*
X128420810Y-121126333D01*
X128658905Y-121126333D01*
X128754143Y-121173952D01*
X128801762Y-121221571D01*
X128849381Y-121316809D01*
X128849381Y-121602524D01*
X128801762Y-121697762D01*
X128754143Y-121745381D01*
X111515267Y-119184781D02*
X111515267Y-119899067D01*
X111467647Y-120041924D01*
X111372409Y-120137162D01*
X111229552Y-120184781D01*
X111134314Y-120184781D01*
X111943838Y-119280019D02*
X111991457Y-119232400D01*
X112086695Y-119184781D01*
X112324791Y-119184781D01*
X112420029Y-119232400D01*
X112467648Y-119280019D01*
X112515267Y-119375257D01*
X112515267Y-119470495D01*
X112467648Y-119613352D01*
X111896219Y-120184781D01*
X112515267Y-120184781D01*
X117244881Y-113661724D02*
X118244881Y-112995057D01*
X117244881Y-112995057D02*
X118244881Y-113661724D01*
X118244881Y-112090295D02*
X118244881Y-112661724D01*
X118244881Y-112376010D02*
X117244881Y-112376010D01*
X117387738Y-112471248D01*
X117482976Y-112566486D01*
X117530595Y-112661724D01*
X130982815Y-96099381D02*
X130982815Y-96908905D01*
X131030434Y-97004143D01*
X131078053Y-97051762D01*
X131173291Y-97099381D01*
X131363768Y-97099381D01*
X131459006Y-97051762D01*
X131506625Y-97004143D01*
X131554244Y-96908905D01*
X131554244Y-96099381D01*
X132554244Y-97099381D02*
X131982815Y-97099381D01*
X132268529Y-97099381D02*
X132268529Y-96099381D01*
X132173291Y-96242238D01*
X132078053Y-96337476D01*
X131982815Y-96385095D01*
X129089381Y-119731666D02*
X128613190Y-120065000D01*
X129089381Y-120303095D02*
X128089381Y-120303095D01*
X128089381Y-119922142D01*
X128137000Y-119826904D01*
X128184619Y-119779285D01*
X128279857Y-119731666D01*
X128422714Y-119731666D01*
X128517952Y-119779285D01*
X128565571Y-119826904D01*
X128613190Y-119922142D01*
X128613190Y-120303095D01*
X128184619Y-119350714D02*
X128137000Y-119303095D01*
X128089381Y-119207857D01*
X128089381Y-118969761D01*
X128137000Y-118874523D01*
X128184619Y-118826904D01*
X128279857Y-118779285D01*
X128375095Y-118779285D01*
X128517952Y-118826904D01*
X129089381Y-119398333D01*
X129089381Y-118779285D01*
X128341381Y-106084666D02*
X127865190Y-106418000D01*
X128341381Y-106656095D02*
X127341381Y-106656095D01*
X127341381Y-106275142D01*
X127389000Y-106179904D01*
X127436619Y-106132285D01*
X127531857Y-106084666D01*
X127674714Y-106084666D01*
X127769952Y-106132285D01*
X127817571Y-106179904D01*
X127865190Y-106275142D01*
X127865190Y-106656095D01*
X128341381Y-105132285D02*
X128341381Y-105703714D01*
X128341381Y-105418000D02*
X127341381Y-105418000D01*
X127484238Y-105513238D01*
X127579476Y-105608476D01*
X127627095Y-105703714D01*
X121886953Y-119338381D02*
X121410762Y-119338381D01*
X121410762Y-118338381D01*
X122220286Y-118814571D02*
X122553620Y-118814571D01*
X122696477Y-119338381D02*
X122220286Y-119338381D01*
X122220286Y-118338381D01*
X122696477Y-118338381D01*
X123125048Y-119338381D02*
X123125048Y-118338381D01*
X123363143Y-118338381D01*
X123506001Y-118386000D01*
X123601239Y-118481238D01*
X123648858Y-118576476D01*
X123696477Y-118766952D01*
X123696477Y-118909810D01*
X123648858Y-119100286D01*
X123601239Y-119195524D01*
X123506001Y-119290762D01*
X123363143Y-119338381D01*
X123125048Y-119338381D01*
X124648858Y-119338381D02*
X124077429Y-119338381D01*
X124363143Y-119338381D02*
X124363143Y-118338381D01*
X124267905Y-118481238D01*
X124172667Y-118576476D01*
X124077429Y-118624095D01*
X139705781Y-131549733D02*
X140420067Y-131549733D01*
X140562924Y-131597353D01*
X140658162Y-131692591D01*
X140705781Y-131835448D01*
X140705781Y-131930686D01*
X139705781Y-130597352D02*
X139705781Y-131073543D01*
X140181971Y-131121162D01*
X140134352Y-131073543D01*
X140086733Y-130978305D01*
X140086733Y-130740209D01*
X140134352Y-130644971D01*
X140181971Y-130597352D01*
X140277210Y-130549733D01*
X140515305Y-130549733D01*
X140610543Y-130597352D01*
X140658162Y-130644971D01*
X140705781Y-130740209D01*
X140705781Y-130978305D01*
X140658162Y-131073543D01*
X140610543Y-131121162D01*
X106620381Y-128095333D02*
X107334667Y-128095333D01*
X107477524Y-128142953D01*
X107572762Y-128238191D01*
X107620381Y-128381048D01*
X107620381Y-128476286D01*
X106953714Y-127190571D02*
X107620381Y-127190571D01*
X106572762Y-127428667D02*
X107287048Y-127666762D01*
X107287048Y-127047714D01*
X114728667Y-86574381D02*
X114728667Y-87288667D01*
X114681047Y-87431524D01*
X114585809Y-87526762D01*
X114442952Y-87574381D01*
X114347714Y-87574381D01*
X115728667Y-87574381D02*
X115157238Y-87574381D01*
X115442952Y-87574381D02*
X115442952Y-86574381D01*
X115347714Y-86717238D01*
X115252476Y-86812476D01*
X115157238Y-86860095D01*
X139374571Y-90376333D02*
X139374571Y-90709667D01*
X139898381Y-90709667D02*
X138898381Y-90709667D01*
X138898381Y-90233476D01*
X139898381Y-89328714D02*
X139898381Y-89900143D01*
X139898381Y-89614429D02*
X138898381Y-89614429D01*
X139041238Y-89709667D01*
X139136476Y-89804905D01*
X139184095Y-89900143D01*
X116101905Y-104592381D02*
X116101905Y-103592381D01*
X116340000Y-103592381D01*
X116482858Y-103640000D01*
X116578096Y-103735238D01*
X116625715Y-103830476D01*
X116673334Y-104020952D01*
X116673334Y-104163810D01*
X116625715Y-104354286D01*
X116578096Y-104449524D01*
X116482858Y-104544762D01*
X116340000Y-104592381D01*
X116101905Y-104592381D01*
X117006667Y-103592381D02*
X117625715Y-103592381D01*
X117292381Y-103973333D01*
X117435239Y-103973333D01*
X117530477Y-104020952D01*
X117578096Y-104068571D01*
X117625715Y-104163810D01*
X117625715Y-104401905D01*
X117578096Y-104497143D01*
X117530477Y-104544762D01*
X117435239Y-104592381D01*
X117149524Y-104592381D01*
X117054286Y-104544762D01*
X117006667Y-104497143D01*
X130246381Y-90654095D02*
X129246381Y-90654095D01*
X129246381Y-90416000D01*
X129294000Y-90273142D01*
X129389238Y-90177904D01*
X129484476Y-90130285D01*
X129674952Y-90082666D01*
X129817810Y-90082666D01*
X130008286Y-90130285D01*
X130103524Y-90177904D01*
X130198762Y-90273142D01*
X130246381Y-90416000D01*
X130246381Y-90654095D01*
X129341619Y-89701714D02*
X129294000Y-89654095D01*
X129246381Y-89558857D01*
X129246381Y-89320761D01*
X129294000Y-89225523D01*
X129341619Y-89177904D01*
X129436857Y-89130285D01*
X129532095Y-89130285D01*
X129674952Y-89177904D01*
X130246381Y-89749333D01*
X130246381Y-89130285D01*
X118514905Y-87574381D02*
X118514905Y-86574381D01*
X118753000Y-86574381D01*
X118895858Y-86622000D01*
X118991096Y-86717238D01*
X119038715Y-86812476D01*
X119086334Y-87002952D01*
X119086334Y-87145810D01*
X119038715Y-87336286D01*
X118991096Y-87431524D01*
X118895858Y-87526762D01*
X118753000Y-87574381D01*
X118514905Y-87574381D01*
X120038715Y-87574381D02*
X119467286Y-87574381D01*
X119753000Y-87574381D02*
X119753000Y-86574381D01*
X119657762Y-86717238D01*
X119562524Y-86812476D01*
X119467286Y-86860095D01*
X138265143Y-115171666D02*
X138312762Y-115219285D01*
X138360381Y-115362142D01*
X138360381Y-115457380D01*
X138312762Y-115600238D01*
X138217524Y-115695476D01*
X138122286Y-115743095D01*
X137931810Y-115790714D01*
X137788952Y-115790714D01*
X137598476Y-115743095D01*
X137503238Y-115695476D01*
X137408000Y-115600238D01*
X137360381Y-115457380D01*
X137360381Y-115362142D01*
X137408000Y-115219285D01*
X137455619Y-115171666D01*
X138360381Y-114695476D02*
X138360381Y-114505000D01*
X138312762Y-114409761D01*
X138265143Y-114362142D01*
X138122286Y-114266904D01*
X137931810Y-114219285D01*
X137550857Y-114219285D01*
X137455619Y-114266904D01*
X137408000Y-114314523D01*
X137360381Y-114409761D01*
X137360381Y-114600238D01*
X137408000Y-114695476D01*
X137455619Y-114743095D01*
X137550857Y-114790714D01*
X137788952Y-114790714D01*
X137884190Y-114743095D01*
X137931810Y-114695476D01*
X137979429Y-114600238D01*
X137979429Y-114409761D01*
X137931810Y-114314523D01*
X137884190Y-114266904D01*
X137788952Y-114219285D01*
X118989143Y-109824666D02*
X119036762Y-109872285D01*
X119084381Y-110015142D01*
X119084381Y-110110380D01*
X119036762Y-110253238D01*
X118941524Y-110348476D01*
X118846286Y-110396095D01*
X118655810Y-110443714D01*
X118512952Y-110443714D01*
X118322476Y-110396095D01*
X118227238Y-110348476D01*
X118132000Y-110253238D01*
X118084381Y-110110380D01*
X118084381Y-110015142D01*
X118132000Y-109872285D01*
X118179619Y-109824666D01*
X118512952Y-109253238D02*
X118465333Y-109348476D01*
X118417714Y-109396095D01*
X118322476Y-109443714D01*
X118274857Y-109443714D01*
X118179619Y-109396095D01*
X118132000Y-109348476D01*
X118084381Y-109253238D01*
X118084381Y-109062761D01*
X118132000Y-108967523D01*
X118179619Y-108919904D01*
X118274857Y-108872285D01*
X118322476Y-108872285D01*
X118417714Y-108919904D01*
X118465333Y-108967523D01*
X118512952Y-109062761D01*
X118512952Y-109253238D01*
X118560571Y-109348476D01*
X118608190Y-109396095D01*
X118703429Y-109443714D01*
X118893905Y-109443714D01*
X118989143Y-109396095D01*
X119036762Y-109348476D01*
X119084381Y-109253238D01*
X119084381Y-109062761D01*
X119036762Y-108967523D01*
X118989143Y-108919904D01*
X118893905Y-108872285D01*
X118703429Y-108872285D01*
X118608190Y-108919904D01*
X118560571Y-108967523D01*
X118512952Y-109062761D01*
X120767143Y-109836666D02*
X120814762Y-109884285D01*
X120862381Y-110027142D01*
X120862381Y-110122380D01*
X120814762Y-110265238D01*
X120719524Y-110360476D01*
X120624286Y-110408095D01*
X120433810Y-110455714D01*
X120290952Y-110455714D01*
X120100476Y-110408095D01*
X120005238Y-110360476D01*
X119910000Y-110265238D01*
X119862381Y-110122380D01*
X119862381Y-110027142D01*
X119910000Y-109884285D01*
X119957619Y-109836666D01*
X119862381Y-109503333D02*
X119862381Y-108836666D01*
X120862381Y-109265238D01*
X110450334Y-94972143D02*
X110402715Y-95019762D01*
X110259858Y-95067381D01*
X110164620Y-95067381D01*
X110021762Y-95019762D01*
X109926524Y-94924524D01*
X109878905Y-94829286D01*
X109831286Y-94638810D01*
X109831286Y-94495952D01*
X109878905Y-94305476D01*
X109926524Y-94210238D01*
X110021762Y-94115000D01*
X110164620Y-94067381D01*
X110259858Y-94067381D01*
X110402715Y-94115000D01*
X110450334Y-94162619D01*
X111307477Y-94067381D02*
X111117000Y-94067381D01*
X111021762Y-94115000D01*
X110974143Y-94162619D01*
X110878905Y-94305476D01*
X110831286Y-94495952D01*
X110831286Y-94876905D01*
X110878905Y-94972143D01*
X110926524Y-95019762D01*
X111021762Y-95067381D01*
X111212239Y-95067381D01*
X111307477Y-95019762D01*
X111355096Y-94972143D01*
X111402715Y-94876905D01*
X111402715Y-94638810D01*
X111355096Y-94543571D01*
X111307477Y-94495952D01*
X111212239Y-94448333D01*
X111021762Y-94448333D01*
X110926524Y-94495952D01*
X110878905Y-94543571D01*
X110831286Y-94638810D01*
X135245143Y-110840666D02*
X135292762Y-110888285D01*
X135340381Y-111031142D01*
X135340381Y-111126380D01*
X135292762Y-111269238D01*
X135197524Y-111364476D01*
X135102286Y-111412095D01*
X134911810Y-111459714D01*
X134768952Y-111459714D01*
X134578476Y-111412095D01*
X134483238Y-111364476D01*
X134388000Y-111269238D01*
X134340381Y-111126380D01*
X134340381Y-111031142D01*
X134388000Y-110888285D01*
X134435619Y-110840666D01*
X134340381Y-109935904D02*
X134340381Y-110412095D01*
X134816571Y-110459714D01*
X134768952Y-110412095D01*
X134721333Y-110316857D01*
X134721333Y-110078761D01*
X134768952Y-109983523D01*
X134816571Y-109935904D01*
X134911810Y-109888285D01*
X135149905Y-109888285D01*
X135245143Y-109935904D01*
X135292762Y-109983523D01*
X135340381Y-110078761D01*
X135340381Y-110316857D01*
X135292762Y-110412095D01*
X135245143Y-110459714D01*
X117238334Y-118199143D02*
X117190715Y-118246762D01*
X117047858Y-118294381D01*
X116952620Y-118294381D01*
X116809762Y-118246762D01*
X116714524Y-118151524D01*
X116666905Y-118056286D01*
X116619286Y-117865810D01*
X116619286Y-117722952D01*
X116666905Y-117532476D01*
X116714524Y-117437238D01*
X116809762Y-117342000D01*
X116952620Y-117294381D01*
X117047858Y-117294381D01*
X117190715Y-117342000D01*
X117238334Y-117389619D01*
X118095477Y-117627714D02*
X118095477Y-118294381D01*
X117857381Y-117246762D02*
X117619286Y-117961048D01*
X118238334Y-117961048D01*
X117263334Y-105654143D02*
X117215715Y-105701762D01*
X117072858Y-105749381D01*
X116977620Y-105749381D01*
X116834762Y-105701762D01*
X116739524Y-105606524D01*
X116691905Y-105511286D01*
X116644286Y-105320810D01*
X116644286Y-105177952D01*
X116691905Y-104987476D01*
X116739524Y-104892238D01*
X116834762Y-104797000D01*
X116977620Y-104749381D01*
X117072858Y-104749381D01*
X117215715Y-104797000D01*
X117263334Y-104844619D01*
X117596667Y-104749381D02*
X118215715Y-104749381D01*
X117882381Y-105130333D01*
X118025239Y-105130333D01*
X118120477Y-105177952D01*
X118168096Y-105225571D01*
X118215715Y-105320810D01*
X118215715Y-105558905D01*
X118168096Y-105654143D01*
X118120477Y-105701762D01*
X118025239Y-105749381D01*
X117739524Y-105749381D01*
X117644286Y-105701762D01*
X117596667Y-105654143D01*
X134469143Y-96178666D02*
X134516762Y-96226285D01*
X134564381Y-96369142D01*
X134564381Y-96464380D01*
X134516762Y-96607238D01*
X134421524Y-96702476D01*
X134326286Y-96750095D01*
X134135810Y-96797714D01*
X133992952Y-96797714D01*
X133802476Y-96750095D01*
X133707238Y-96702476D01*
X133612000Y-96607238D01*
X133564381Y-96464380D01*
X133564381Y-96369142D01*
X133612000Y-96226285D01*
X133659619Y-96178666D01*
X133659619Y-95797714D02*
X133612000Y-95750095D01*
X133564381Y-95654857D01*
X133564381Y-95416761D01*
X133612000Y-95321523D01*
X133659619Y-95273904D01*
X133754857Y-95226285D01*
X133850095Y-95226285D01*
X133992952Y-95273904D01*
X134564381Y-95845333D01*
X134564381Y-95226285D01*
X121937334Y-106134143D02*
X121889715Y-106181762D01*
X121746858Y-106229381D01*
X121651620Y-106229381D01*
X121508762Y-106181762D01*
X121413524Y-106086524D01*
X121365905Y-105991286D01*
X121318286Y-105800810D01*
X121318286Y-105657952D01*
X121365905Y-105467476D01*
X121413524Y-105372238D01*
X121508762Y-105277000D01*
X121651620Y-105229381D01*
X121746858Y-105229381D01*
X121889715Y-105277000D01*
X121937334Y-105324619D01*
X122889715Y-106229381D02*
X122318286Y-106229381D01*
X122604000Y-106229381D02*
X122604000Y-105229381D01*
X122508762Y-105372238D01*
X122413524Y-105467476D01*
X122318286Y-105515095D01*
X132813095Y-106957762D02*
X132955952Y-107005381D01*
X133194048Y-107005381D01*
X133289286Y-106957762D01*
X133336905Y-106910143D01*
X133384524Y-106814905D01*
X133384524Y-106719667D01*
X133336905Y-106624429D01*
X133289286Y-106576810D01*
X133194048Y-106529190D01*
X133003571Y-106481571D01*
X132908333Y-106433952D01*
X132860714Y-106386333D01*
X132813095Y-106291095D01*
X132813095Y-106195857D01*
X132860714Y-106100619D01*
X132908333Y-106053000D01*
X133003571Y-106005381D01*
X133241667Y-106005381D01*
X133384524Y-106053000D01*
X134336905Y-107005381D02*
X133765476Y-107005381D01*
X134051190Y-107005381D02*
X134051190Y-106005381D01*
X133955952Y-106148238D01*
X133860714Y-106243476D01*
X133765476Y-106291095D01*
X127685895Y-104603581D02*
X127685895Y-105413105D01*
X127733514Y-105508343D01*
X127781133Y-105555962D01*
X127876371Y-105603581D01*
X128066848Y-105603581D01*
X128162086Y-105555962D01*
X128209705Y-105508343D01*
X128257324Y-105413105D01*
X128257324Y-104603581D01*
X128685895Y-104698819D02*
X128733514Y-104651200D01*
X128828752Y-104603581D01*
X129066848Y-104603581D01*
X129162086Y-104651200D01*
X129209705Y-104698819D01*
X129257324Y-104794057D01*
X129257324Y-104889295D01*
X129209705Y-105032152D01*
X128638276Y-105603581D01*
X129257324Y-105603581D01*
M02*
