G04 #@! TF.FileFunction,Copper,L2,Bot,Signal*
%FSLAX46Y46*%
G04 Gerber Fmt 4.6, Leading zero omitted, Abs format (unit mm)*
G04 Created by KiCad (PCBNEW 4.0.1-3.201512221402+6198~38~ubuntu14.04.1-stable) date Fri 22 Jul 2016 08:32:17 PM PDT*
%MOMM*%
G01*
G04 APERTURE LIST*
%ADD10C,0.100000*%
%ADD11R,1.727200X1.727200*%
%ADD12O,1.727200X1.727200*%
%ADD13R,2.032000X1.727200*%
%ADD14O,2.032000X1.727200*%
%ADD15R,1.727200X2.032000*%
%ADD16O,1.727200X2.032000*%
%ADD17R,2.032000X2.032000*%
%ADD18O,2.032000X2.032000*%
%ADD19C,0.685800*%
%ADD20C,0.254000*%
G04 APERTURE END LIST*
D10*
D11*
X130937000Y-121539000D03*
D12*
X130937000Y-118999000D03*
X133477000Y-121539000D03*
X133477000Y-118999000D03*
X136017000Y-121539000D03*
X136017000Y-118999000D03*
D13*
X111988600Y-116992400D03*
D14*
X111988600Y-114452400D03*
X111988600Y-111912400D03*
X111988600Y-109372400D03*
X111988600Y-106832400D03*
X111988600Y-104292400D03*
D15*
X135153400Y-131216400D03*
D16*
X132613400Y-131216400D03*
X130073400Y-131216400D03*
X127533400Y-131216400D03*
X124993400Y-131216400D03*
X122453400Y-131216400D03*
X119913400Y-131216400D03*
X117373400Y-131216400D03*
X114833400Y-131216400D03*
X112293400Y-131216400D03*
D15*
X112268000Y-127762000D03*
D16*
X114808000Y-127762000D03*
X117348000Y-127762000D03*
X119888000Y-127762000D03*
X122428000Y-127762000D03*
X124968000Y-127762000D03*
X127508000Y-127762000D03*
X130048000Y-127762000D03*
X132588000Y-127762000D03*
X135128000Y-127762000D03*
D17*
X113284000Y-89662000D03*
D18*
X113284000Y-92202000D03*
D19*
X114808000Y-112141000D03*
X129159000Y-104378000D03*
X119650603Y-107559963D03*
X122643920Y-111633000D03*
X135763000Y-108458000D03*
X119634000Y-106553000D03*
X117348000Y-110871000D03*
X126777526Y-105223882D03*
X120142000Y-105537000D03*
X134239000Y-114427000D03*
X130371720Y-116898912D03*
X124460000Y-106730800D03*
X121098425Y-107268807D03*
X122072400Y-107289600D03*
X120307101Y-115404899D03*
X124409200Y-116128800D03*
X127393680Y-117367263D03*
X128892320Y-118291779D03*
X129286000Y-117398800D03*
X137617200Y-124764800D03*
X137566400Y-112674400D03*
X135077200Y-109931200D03*
X132994400Y-107188000D03*
X125691920Y-125628400D03*
X131114800Y-109270800D03*
X129946400Y-109016800D03*
X124307600Y-122275600D03*
X121107200Y-125476000D03*
X128524000Y-109169200D03*
X120383280Y-118224320D03*
X127609600Y-108762800D03*
X130966289Y-112475089D03*
X117906800Y-122072400D03*
X126067640Y-109883348D03*
D20*
X129643933Y-104378000D02*
X129159000Y-104378000D01*
X133461000Y-104378000D02*
X129643933Y-104378000D01*
X137795000Y-111831624D02*
X137795000Y-108712000D01*
X138341102Y-112377726D02*
X137795000Y-111831624D01*
X137795000Y-108712000D02*
X133461000Y-104378000D01*
X136017000Y-121539000D02*
X138341102Y-119214898D01*
X138341102Y-119214898D02*
X138341102Y-112377726D01*
X126686882Y-105223882D02*
X126777526Y-105223882D01*
X109982000Y-108585000D02*
X110515390Y-108051610D01*
X109982000Y-112547400D02*
X109982000Y-108585000D01*
X116466544Y-104267000D02*
X125730000Y-104267000D01*
X111861600Y-114427000D02*
X109982000Y-112547400D01*
X112014000Y-114427000D02*
X111861600Y-114427000D01*
X110515390Y-108051610D02*
X112681934Y-108051610D01*
X125730000Y-104267000D02*
X126686882Y-105223882D01*
X112681934Y-108051610D02*
X116466544Y-104267000D01*
X113792000Y-107659980D02*
X113792000Y-110261400D01*
X116257879Y-105194101D02*
X113792000Y-107659980D01*
X113792000Y-110261400D02*
X112166400Y-111887000D01*
X112166400Y-111887000D02*
X112014000Y-111887000D01*
X119799101Y-105194101D02*
X116257879Y-105194101D01*
X120142000Y-105537000D02*
X119799101Y-105194101D01*
X111861600Y-111887000D02*
X112014000Y-111887000D01*
X135128000Y-127101600D02*
X134569200Y-126542800D01*
X134569200Y-126542800D02*
X134569200Y-126288800D01*
X135128000Y-127762000D02*
X135128000Y-127101600D01*
X134569200Y-126288800D02*
X130937000Y-122656600D01*
X130937000Y-122656600D02*
X130937000Y-121539000D01*
X135128000Y-127762000D02*
X135128000Y-127609600D01*
X135128000Y-127609600D02*
X135178800Y-127558800D01*
X134721601Y-114909601D02*
X134239000Y-114427000D01*
X133477000Y-121539000D02*
X134721601Y-120294399D01*
X134721601Y-120294399D02*
X134721601Y-114909601D01*
X133477000Y-118999000D02*
X131376912Y-116898912D01*
X130856653Y-116898912D02*
X130371720Y-116898912D01*
X131376912Y-116898912D02*
X130856653Y-116898912D01*
X112268000Y-127762000D02*
X112268000Y-119155092D01*
X120907955Y-106387901D02*
X124117101Y-106387901D01*
X112268000Y-119155092D02*
X120374523Y-111048569D01*
X120374523Y-111048569D02*
X120374523Y-106921333D01*
X120374523Y-106921333D02*
X120907955Y-106387901D01*
X124117101Y-106387901D02*
X124460000Y-106730800D01*
X121098425Y-111043103D02*
X121098425Y-107753740D01*
X114808000Y-127762000D02*
X114808000Y-117333528D01*
X114808000Y-117333528D02*
X121098425Y-111043103D01*
X121098425Y-107753740D02*
X121098425Y-107268807D01*
X122072400Y-107774533D02*
X122072400Y-107289600D01*
X122072400Y-110787564D02*
X122072400Y-107774533D01*
X117166013Y-122402989D02*
X117166013Y-115693951D01*
X117348000Y-122584976D02*
X117166013Y-122402989D01*
X117348000Y-127762000D02*
X117348000Y-122584976D01*
X117166013Y-115693951D02*
X122072400Y-110787564D01*
X119888000Y-127762000D02*
X119888000Y-118800414D01*
X119888000Y-118800414D02*
X119545101Y-118457515D01*
X119545101Y-118457515D02*
X119545101Y-116166899D01*
X119545101Y-116166899D02*
X119888000Y-115824000D01*
X119888000Y-115824000D02*
X120307101Y-115404899D01*
X122428000Y-117500400D02*
X123799600Y-116128800D01*
X123799600Y-116128800D02*
X124409200Y-116128800D01*
X122428000Y-127762000D02*
X122428000Y-117500400D01*
X127508000Y-127762000D02*
X127508000Y-117481583D01*
X127508000Y-117481583D02*
X127393680Y-117367263D01*
X128892320Y-125285520D02*
X128892320Y-118776712D01*
X130048000Y-126441200D02*
X128892320Y-125285520D01*
X130048000Y-127762000D02*
X130048000Y-126441200D01*
X128892320Y-118776712D02*
X128892320Y-118291779D01*
X129286000Y-117398800D02*
X129628899Y-117741699D01*
X129628899Y-117741699D02*
X129628899Y-124650499D01*
X129628899Y-124650499D02*
X132588000Y-127609600D01*
X132588000Y-127609600D02*
X132588000Y-127762000D01*
X136804400Y-129438400D02*
X131699000Y-129438400D01*
X131699000Y-129438400D02*
X130073400Y-131064000D01*
X130073400Y-131064000D02*
X130073400Y-131216400D01*
X137617200Y-128625600D02*
X136804400Y-129438400D01*
X137617200Y-124764800D02*
X137617200Y-128625600D01*
X136398000Y-111736933D02*
X136628933Y-111736933D01*
X136628933Y-111736933D02*
X137566400Y-112674400D01*
X135077200Y-109931200D02*
X135077200Y-110416133D01*
X135077200Y-110416133D02*
X136398000Y-111736933D01*
X128168400Y-116738400D02*
X128168400Y-126509856D01*
X128168400Y-126509856D02*
X128752610Y-127094066D01*
X128752610Y-127094066D02*
X128752610Y-128727190D01*
X128752610Y-128727190D02*
X127533400Y-129946400D01*
X127533400Y-129946400D02*
X127533400Y-131216400D01*
X132651501Y-112255299D02*
X128168400Y-116738400D01*
X132994400Y-107188000D02*
X132651501Y-107530899D01*
X132651501Y-107530899D02*
X132651501Y-112255299D01*
X131114800Y-111302800D02*
X125222000Y-117195600D01*
X125349021Y-125285501D02*
X125691920Y-125628400D01*
X125222000Y-125158480D02*
X125349021Y-125285501D01*
X131114800Y-109270800D02*
X131114800Y-111302800D01*
X125222000Y-117195600D02*
X125222000Y-125158480D01*
X129946400Y-111651164D02*
X129946400Y-109501733D01*
X124307600Y-122275600D02*
X124307600Y-117289964D01*
X129946400Y-109501733D02*
X129946400Y-109016800D01*
X124307600Y-117289964D02*
X129946400Y-111651164D01*
X121107200Y-116586000D02*
X121107200Y-125476000D01*
X128524000Y-109169200D02*
X121107200Y-116586000D01*
X120383280Y-116591484D02*
X120383280Y-117739387D01*
X127609600Y-109365164D02*
X120383280Y-116591484D01*
X127609600Y-108762800D02*
X127609600Y-109365164D01*
X120383280Y-117739387D02*
X120383280Y-118224320D01*
X126263390Y-117177988D02*
X130623390Y-112817988D01*
X126415822Y-125975874D02*
X126415822Y-125280926D01*
X126263390Y-125128494D02*
X126263390Y-117177988D01*
X126263390Y-126128306D02*
X126415822Y-125975874D01*
X126263390Y-128701810D02*
X126263390Y-126128306D01*
X125526800Y-129438400D02*
X126263390Y-128701810D01*
X114833400Y-131064000D02*
X116459000Y-129438400D01*
X126415822Y-125280926D02*
X126263390Y-125128494D01*
X116459000Y-129438400D02*
X125526800Y-129438400D01*
X114833400Y-131216400D02*
X114833400Y-131064000D01*
X130623390Y-112817988D02*
X130966289Y-112475089D01*
X117889914Y-120531514D02*
X117906800Y-120548400D01*
X117906800Y-120548400D02*
X117906800Y-122072400D01*
X117889914Y-118224320D02*
X117889914Y-120531514D01*
X121564400Y-112623600D02*
X117889914Y-116298086D01*
X126067640Y-109883348D02*
X123327388Y-112623600D01*
X123327388Y-112623600D02*
X121564400Y-112623600D01*
X117889914Y-117739387D02*
X117889914Y-118224320D01*
X117889914Y-116298086D02*
X117889914Y-117739387D01*
G36*
X140387000Y-134672000D02*
X106247000Y-134672000D01*
X106247000Y-108585000D01*
X109220000Y-108585000D01*
X109220000Y-112547400D01*
X109278004Y-112839005D01*
X109394869Y-113013905D01*
X109443185Y-113086215D01*
X110388893Y-114031923D01*
X110305255Y-114452400D01*
X110419329Y-115025889D01*
X110744185Y-115512070D01*
X110758513Y-115521643D01*
X110737283Y-115525638D01*
X110521159Y-115664710D01*
X110376169Y-115876910D01*
X110325160Y-116128800D01*
X110325160Y-117856000D01*
X110369438Y-118091317D01*
X110508510Y-118307441D01*
X110720710Y-118452431D01*
X110972600Y-118503440D01*
X111842022Y-118503440D01*
X111729185Y-118616277D01*
X111564004Y-118863487D01*
X111506000Y-119155092D01*
X111506000Y-126098560D01*
X111404400Y-126098560D01*
X111169083Y-126142838D01*
X110952959Y-126281910D01*
X110807969Y-126494110D01*
X110756960Y-126746000D01*
X110756960Y-128778000D01*
X110801238Y-129013317D01*
X110940310Y-129229441D01*
X111152510Y-129374431D01*
X111404400Y-129425440D01*
X113131600Y-129425440D01*
X113366917Y-129381162D01*
X113583041Y-129242090D01*
X113728031Y-129029890D01*
X113736400Y-128988561D01*
X113748330Y-129006415D01*
X114234511Y-129331271D01*
X114808000Y-129445345D01*
X115381489Y-129331271D01*
X115703980Y-129115789D01*
X115211505Y-129608265D01*
X114833400Y-129533055D01*
X114259911Y-129647129D01*
X113773730Y-129971985D01*
X113563400Y-130286766D01*
X113353070Y-129971985D01*
X112866889Y-129647129D01*
X112293400Y-129533055D01*
X111719911Y-129647129D01*
X111233730Y-129971985D01*
X110908874Y-130458166D01*
X110794800Y-131031655D01*
X110794800Y-131401145D01*
X110908874Y-131974634D01*
X111233730Y-132460815D01*
X111719911Y-132785671D01*
X112293400Y-132899745D01*
X112866889Y-132785671D01*
X113353070Y-132460815D01*
X113563400Y-132146034D01*
X113773730Y-132460815D01*
X114259911Y-132785671D01*
X114833400Y-132899745D01*
X115406889Y-132785671D01*
X115893070Y-132460815D01*
X116103400Y-132146034D01*
X116313730Y-132460815D01*
X116799911Y-132785671D01*
X117373400Y-132899745D01*
X117946889Y-132785671D01*
X118433070Y-132460815D01*
X118643400Y-132146034D01*
X118853730Y-132460815D01*
X119339911Y-132785671D01*
X119913400Y-132899745D01*
X120486889Y-132785671D01*
X120973070Y-132460815D01*
X121183400Y-132146034D01*
X121393730Y-132460815D01*
X121879911Y-132785671D01*
X122453400Y-132899745D01*
X123026889Y-132785671D01*
X123513070Y-132460815D01*
X123723400Y-132146034D01*
X123933730Y-132460815D01*
X124419911Y-132785671D01*
X124993400Y-132899745D01*
X125566889Y-132785671D01*
X126053070Y-132460815D01*
X126263400Y-132146034D01*
X126473730Y-132460815D01*
X126959911Y-132785671D01*
X127533400Y-132899745D01*
X128106889Y-132785671D01*
X128593070Y-132460815D01*
X128803400Y-132146034D01*
X129013730Y-132460815D01*
X129499911Y-132785671D01*
X130073400Y-132899745D01*
X130646889Y-132785671D01*
X131133070Y-132460815D01*
X131343400Y-132146034D01*
X131553730Y-132460815D01*
X132039911Y-132785671D01*
X132613400Y-132899745D01*
X133186889Y-132785671D01*
X133673070Y-132460815D01*
X133682643Y-132446487D01*
X133686638Y-132467717D01*
X133825710Y-132683841D01*
X134037910Y-132828831D01*
X134289800Y-132879840D01*
X136017000Y-132879840D01*
X136252317Y-132835562D01*
X136468441Y-132696490D01*
X136613431Y-132484290D01*
X136664440Y-132232400D01*
X136664440Y-130200400D01*
X136804400Y-130200400D01*
X137096005Y-130142396D01*
X137343215Y-129977215D01*
X138156016Y-129164415D01*
X138270274Y-128993415D01*
X138321196Y-128917205D01*
X138379200Y-128625600D01*
X138379200Y-125385883D01*
X138445740Y-125319459D01*
X138594930Y-124960170D01*
X138595269Y-124571137D01*
X138446707Y-124211588D01*
X138171859Y-123936260D01*
X137812570Y-123787070D01*
X137423537Y-123786731D01*
X137063988Y-123935293D01*
X136788660Y-124210141D01*
X136639470Y-124569430D01*
X136639131Y-124958463D01*
X136787693Y-125318012D01*
X136855200Y-125385637D01*
X136855200Y-128309969D01*
X136488770Y-128676400D01*
X136408179Y-128676400D01*
X136512526Y-128520234D01*
X136626600Y-127946745D01*
X136626600Y-127577255D01*
X136512526Y-127003766D01*
X136187670Y-126517585D01*
X135701489Y-126192729D01*
X135296049Y-126112082D01*
X135273197Y-125997196D01*
X135108016Y-125749985D01*
X132235417Y-122877387D01*
X132252041Y-122866690D01*
X132397031Y-122654490D01*
X132405864Y-122610869D01*
X132417330Y-122628029D01*
X132903511Y-122952885D01*
X133477000Y-123066959D01*
X134050489Y-122952885D01*
X134536670Y-122628029D01*
X134747000Y-122313248D01*
X134957330Y-122628029D01*
X135443511Y-122952885D01*
X136017000Y-123066959D01*
X136590489Y-122952885D01*
X137076670Y-122628029D01*
X137401526Y-122141848D01*
X137515600Y-121568359D01*
X137515600Y-121509641D01*
X137450628Y-121183003D01*
X138879918Y-119753713D01*
X139045099Y-119506502D01*
X139103102Y-119214898D01*
X139103102Y-112377726D01*
X139045098Y-112086121D01*
X138879917Y-111838911D01*
X138557000Y-111515994D01*
X138557000Y-108712000D01*
X138535351Y-108603164D01*
X138498997Y-108420396D01*
X138333816Y-108173185D01*
X133999815Y-103839185D01*
X133833692Y-103728185D01*
X133752605Y-103674004D01*
X133461000Y-103616000D01*
X129780083Y-103616000D01*
X129713659Y-103549460D01*
X129354370Y-103400270D01*
X128965337Y-103399931D01*
X128605788Y-103548493D01*
X128330460Y-103823341D01*
X128181270Y-104182630D01*
X128180931Y-104571663D01*
X128329493Y-104931212D01*
X128604341Y-105206540D01*
X128963630Y-105355730D01*
X129352663Y-105356069D01*
X129712212Y-105207507D01*
X129779837Y-105140000D01*
X133145370Y-105140000D01*
X137033000Y-109027631D01*
X137033000Y-111108082D01*
X136920538Y-111032937D01*
X136734662Y-110995964D01*
X135999282Y-110260585D01*
X136054930Y-110126570D01*
X136055269Y-109737537D01*
X135906707Y-109377988D01*
X135631859Y-109102660D01*
X135272570Y-108953470D01*
X134883537Y-108953131D01*
X134523988Y-109101693D01*
X134248660Y-109376541D01*
X134099470Y-109735830D01*
X134099131Y-110124863D01*
X134247693Y-110484412D01*
X134348960Y-110585856D01*
X134373204Y-110707738D01*
X134482293Y-110871000D01*
X134538385Y-110954948D01*
X135859184Y-112275748D01*
X136011805Y-112377726D01*
X136106395Y-112440929D01*
X136292272Y-112477902D01*
X136588413Y-112774043D01*
X136588331Y-112868063D01*
X136736893Y-113227612D01*
X137011741Y-113502940D01*
X137371030Y-113652130D01*
X137579102Y-113652311D01*
X137579102Y-118899267D01*
X137515600Y-118962769D01*
X137515600Y-118871998D01*
X137351470Y-118871998D01*
X137471968Y-118639973D01*
X137223821Y-118110510D01*
X136791947Y-117716312D01*
X136376026Y-117544042D01*
X136144000Y-117665183D01*
X136144000Y-118872000D01*
X136164000Y-118872000D01*
X136164000Y-119126000D01*
X136144000Y-119126000D01*
X136144000Y-119146000D01*
X135890000Y-119146000D01*
X135890000Y-119126000D01*
X135870000Y-119126000D01*
X135870000Y-118872000D01*
X135890000Y-118872000D01*
X135890000Y-117665183D01*
X135657974Y-117544042D01*
X135483601Y-117616265D01*
X135483601Y-114909601D01*
X135425597Y-114617996D01*
X135260416Y-114370786D01*
X135216987Y-114327357D01*
X135217069Y-114233337D01*
X135068507Y-113873788D01*
X134793659Y-113598460D01*
X134434370Y-113449270D01*
X134045337Y-113448931D01*
X133685788Y-113597493D01*
X133410460Y-113872341D01*
X133261270Y-114231630D01*
X133260931Y-114620663D01*
X133409493Y-114980212D01*
X133684341Y-115255540D01*
X133959601Y-115369838D01*
X133959601Y-117567036D01*
X133477000Y-117471041D01*
X133101385Y-117545755D01*
X131915727Y-116360097D01*
X131892015Y-116344253D01*
X131668517Y-116194916D01*
X131376912Y-116136912D01*
X130992803Y-116136912D01*
X130926379Y-116070372D01*
X130567090Y-115921182D01*
X130178057Y-115920843D01*
X129982986Y-116001444D01*
X133190316Y-112794115D01*
X133355497Y-112546904D01*
X133413501Y-112255299D01*
X133413501Y-108072920D01*
X133547612Y-108017507D01*
X133822940Y-107742659D01*
X133972130Y-107383370D01*
X133972469Y-106994337D01*
X133823907Y-106634788D01*
X133549059Y-106359460D01*
X133189770Y-106210270D01*
X132800737Y-106209931D01*
X132441188Y-106358493D01*
X132165860Y-106633341D01*
X132016670Y-106992630D01*
X132016545Y-107135969D01*
X131947505Y-107239294D01*
X131889501Y-107530899D01*
X131889501Y-108662686D01*
X131669459Y-108442260D01*
X131310170Y-108293070D01*
X130921137Y-108292731D01*
X130697565Y-108385109D01*
X130501059Y-108188260D01*
X130141770Y-108039070D01*
X129752737Y-108038731D01*
X129393188Y-108187293D01*
X129158966Y-108421107D01*
X129078659Y-108340660D01*
X128719370Y-108191470D01*
X128420761Y-108191210D01*
X128164259Y-107934260D01*
X127804970Y-107785070D01*
X127415937Y-107784731D01*
X127056388Y-107933293D01*
X126781060Y-108208141D01*
X126631870Y-108567430D01*
X126631531Y-108956463D01*
X126707384Y-109140041D01*
X126622299Y-109054808D01*
X126263010Y-108905618D01*
X125873977Y-108905279D01*
X125514428Y-109053841D01*
X125239100Y-109328689D01*
X125089910Y-109687978D01*
X125089827Y-109783530D01*
X123011758Y-111861600D01*
X122075994Y-111861600D01*
X122611215Y-111326379D01*
X122633646Y-111292809D01*
X122776396Y-111079169D01*
X122834400Y-110787564D01*
X122834400Y-107910683D01*
X122900940Y-107844259D01*
X123050130Y-107484970D01*
X123050422Y-107149901D01*
X123575080Y-107149901D01*
X123630493Y-107284012D01*
X123905341Y-107559340D01*
X124264630Y-107708530D01*
X124653663Y-107708869D01*
X125013212Y-107560307D01*
X125288540Y-107285459D01*
X125437730Y-106926170D01*
X125438069Y-106537137D01*
X125289507Y-106177588D01*
X125014659Y-105902260D01*
X124655370Y-105753070D01*
X124512031Y-105752945D01*
X124408706Y-105683905D01*
X124117101Y-105625901D01*
X121119823Y-105625901D01*
X121120069Y-105343337D01*
X120990188Y-105029000D01*
X125414370Y-105029000D01*
X125799460Y-105414091D01*
X125799457Y-105417545D01*
X125948019Y-105777094D01*
X126222867Y-106052422D01*
X126582156Y-106201612D01*
X126971189Y-106201951D01*
X127330738Y-106053389D01*
X127606066Y-105778541D01*
X127755256Y-105419252D01*
X127755595Y-105030219D01*
X127607033Y-104670670D01*
X127332185Y-104395342D01*
X126972896Y-104246152D01*
X126786620Y-104245990D01*
X126268814Y-103728184D01*
X126021605Y-103563004D01*
X125730000Y-103505000D01*
X116466544Y-103505000D01*
X116174939Y-103563004D01*
X116095625Y-103616000D01*
X115927729Y-103728184D01*
X113493436Y-106162477D01*
X113233015Y-105772730D01*
X112923531Y-105565939D01*
X113339332Y-105194436D01*
X113593309Y-104667191D01*
X113595958Y-104651426D01*
X113474817Y-104419400D01*
X112115600Y-104419400D01*
X112115600Y-104439400D01*
X111861600Y-104439400D01*
X111861600Y-104419400D01*
X110502383Y-104419400D01*
X110381242Y-104651426D01*
X110383891Y-104667191D01*
X110637868Y-105194436D01*
X111053669Y-105565939D01*
X110744185Y-105772730D01*
X110419329Y-106258911D01*
X110305255Y-106832400D01*
X110400736Y-107312416D01*
X110223785Y-107347614D01*
X109976574Y-107512795D01*
X109443185Y-108046185D01*
X109278004Y-108293395D01*
X109220000Y-108585000D01*
X106247000Y-108585000D01*
X106247000Y-103933374D01*
X110381242Y-103933374D01*
X110502383Y-104165400D01*
X111861600Y-104165400D01*
X111861600Y-102951476D01*
X112115600Y-102951476D01*
X112115600Y-104165400D01*
X113474817Y-104165400D01*
X113595958Y-103933374D01*
X113593309Y-103917609D01*
X113339332Y-103390364D01*
X112902920Y-103000446D01*
X112350513Y-102807216D01*
X112115600Y-102951476D01*
X111861600Y-102951476D01*
X111626687Y-102807216D01*
X111074280Y-103000446D01*
X110637868Y-103390364D01*
X110383891Y-103917609D01*
X110381242Y-103933374D01*
X106247000Y-103933374D01*
X106247000Y-92584944D01*
X111678025Y-92584944D01*
X111877615Y-93066818D01*
X112315621Y-93539188D01*
X112901054Y-93807983D01*
X113157000Y-93689367D01*
X113157000Y-92329000D01*
X113411000Y-92329000D01*
X113411000Y-93689367D01*
X113666946Y-93807983D01*
X114252379Y-93539188D01*
X114690385Y-93066818D01*
X114889975Y-92584944D01*
X114770836Y-92329000D01*
X113411000Y-92329000D01*
X113157000Y-92329000D01*
X111797164Y-92329000D01*
X111678025Y-92584944D01*
X106247000Y-92584944D01*
X106247000Y-88646000D01*
X111620560Y-88646000D01*
X111620560Y-90678000D01*
X111664838Y-90913317D01*
X111803910Y-91129441D01*
X111966948Y-91240840D01*
X111877615Y-91337182D01*
X111678025Y-91819056D01*
X111797164Y-92075000D01*
X113157000Y-92075000D01*
X113157000Y-92055000D01*
X113411000Y-92055000D01*
X113411000Y-92075000D01*
X114770836Y-92075000D01*
X114889975Y-91819056D01*
X114690385Y-91337182D01*
X114599903Y-91239602D01*
X114751441Y-91142090D01*
X114896431Y-90929890D01*
X114947440Y-90678000D01*
X114947440Y-88646000D01*
X114903162Y-88410683D01*
X114764090Y-88194559D01*
X114551890Y-88049569D01*
X114300000Y-87998560D01*
X112268000Y-87998560D01*
X112032683Y-88042838D01*
X111816559Y-88181910D01*
X111671569Y-88394110D01*
X111620560Y-88646000D01*
X106247000Y-88646000D01*
X106247000Y-87832000D01*
X140387000Y-87832000D01*
X140387000Y-134672000D01*
X140387000Y-134672000D01*
G37*
X140387000Y-134672000D02*
X106247000Y-134672000D01*
X106247000Y-108585000D01*
X109220000Y-108585000D01*
X109220000Y-112547400D01*
X109278004Y-112839005D01*
X109394869Y-113013905D01*
X109443185Y-113086215D01*
X110388893Y-114031923D01*
X110305255Y-114452400D01*
X110419329Y-115025889D01*
X110744185Y-115512070D01*
X110758513Y-115521643D01*
X110737283Y-115525638D01*
X110521159Y-115664710D01*
X110376169Y-115876910D01*
X110325160Y-116128800D01*
X110325160Y-117856000D01*
X110369438Y-118091317D01*
X110508510Y-118307441D01*
X110720710Y-118452431D01*
X110972600Y-118503440D01*
X111842022Y-118503440D01*
X111729185Y-118616277D01*
X111564004Y-118863487D01*
X111506000Y-119155092D01*
X111506000Y-126098560D01*
X111404400Y-126098560D01*
X111169083Y-126142838D01*
X110952959Y-126281910D01*
X110807969Y-126494110D01*
X110756960Y-126746000D01*
X110756960Y-128778000D01*
X110801238Y-129013317D01*
X110940310Y-129229441D01*
X111152510Y-129374431D01*
X111404400Y-129425440D01*
X113131600Y-129425440D01*
X113366917Y-129381162D01*
X113583041Y-129242090D01*
X113728031Y-129029890D01*
X113736400Y-128988561D01*
X113748330Y-129006415D01*
X114234511Y-129331271D01*
X114808000Y-129445345D01*
X115381489Y-129331271D01*
X115703980Y-129115789D01*
X115211505Y-129608265D01*
X114833400Y-129533055D01*
X114259911Y-129647129D01*
X113773730Y-129971985D01*
X113563400Y-130286766D01*
X113353070Y-129971985D01*
X112866889Y-129647129D01*
X112293400Y-129533055D01*
X111719911Y-129647129D01*
X111233730Y-129971985D01*
X110908874Y-130458166D01*
X110794800Y-131031655D01*
X110794800Y-131401145D01*
X110908874Y-131974634D01*
X111233730Y-132460815D01*
X111719911Y-132785671D01*
X112293400Y-132899745D01*
X112866889Y-132785671D01*
X113353070Y-132460815D01*
X113563400Y-132146034D01*
X113773730Y-132460815D01*
X114259911Y-132785671D01*
X114833400Y-132899745D01*
X115406889Y-132785671D01*
X115893070Y-132460815D01*
X116103400Y-132146034D01*
X116313730Y-132460815D01*
X116799911Y-132785671D01*
X117373400Y-132899745D01*
X117946889Y-132785671D01*
X118433070Y-132460815D01*
X118643400Y-132146034D01*
X118853730Y-132460815D01*
X119339911Y-132785671D01*
X119913400Y-132899745D01*
X120486889Y-132785671D01*
X120973070Y-132460815D01*
X121183400Y-132146034D01*
X121393730Y-132460815D01*
X121879911Y-132785671D01*
X122453400Y-132899745D01*
X123026889Y-132785671D01*
X123513070Y-132460815D01*
X123723400Y-132146034D01*
X123933730Y-132460815D01*
X124419911Y-132785671D01*
X124993400Y-132899745D01*
X125566889Y-132785671D01*
X126053070Y-132460815D01*
X126263400Y-132146034D01*
X126473730Y-132460815D01*
X126959911Y-132785671D01*
X127533400Y-132899745D01*
X128106889Y-132785671D01*
X128593070Y-132460815D01*
X128803400Y-132146034D01*
X129013730Y-132460815D01*
X129499911Y-132785671D01*
X130073400Y-132899745D01*
X130646889Y-132785671D01*
X131133070Y-132460815D01*
X131343400Y-132146034D01*
X131553730Y-132460815D01*
X132039911Y-132785671D01*
X132613400Y-132899745D01*
X133186889Y-132785671D01*
X133673070Y-132460815D01*
X133682643Y-132446487D01*
X133686638Y-132467717D01*
X133825710Y-132683841D01*
X134037910Y-132828831D01*
X134289800Y-132879840D01*
X136017000Y-132879840D01*
X136252317Y-132835562D01*
X136468441Y-132696490D01*
X136613431Y-132484290D01*
X136664440Y-132232400D01*
X136664440Y-130200400D01*
X136804400Y-130200400D01*
X137096005Y-130142396D01*
X137343215Y-129977215D01*
X138156016Y-129164415D01*
X138270274Y-128993415D01*
X138321196Y-128917205D01*
X138379200Y-128625600D01*
X138379200Y-125385883D01*
X138445740Y-125319459D01*
X138594930Y-124960170D01*
X138595269Y-124571137D01*
X138446707Y-124211588D01*
X138171859Y-123936260D01*
X137812570Y-123787070D01*
X137423537Y-123786731D01*
X137063988Y-123935293D01*
X136788660Y-124210141D01*
X136639470Y-124569430D01*
X136639131Y-124958463D01*
X136787693Y-125318012D01*
X136855200Y-125385637D01*
X136855200Y-128309969D01*
X136488770Y-128676400D01*
X136408179Y-128676400D01*
X136512526Y-128520234D01*
X136626600Y-127946745D01*
X136626600Y-127577255D01*
X136512526Y-127003766D01*
X136187670Y-126517585D01*
X135701489Y-126192729D01*
X135296049Y-126112082D01*
X135273197Y-125997196D01*
X135108016Y-125749985D01*
X132235417Y-122877387D01*
X132252041Y-122866690D01*
X132397031Y-122654490D01*
X132405864Y-122610869D01*
X132417330Y-122628029D01*
X132903511Y-122952885D01*
X133477000Y-123066959D01*
X134050489Y-122952885D01*
X134536670Y-122628029D01*
X134747000Y-122313248D01*
X134957330Y-122628029D01*
X135443511Y-122952885D01*
X136017000Y-123066959D01*
X136590489Y-122952885D01*
X137076670Y-122628029D01*
X137401526Y-122141848D01*
X137515600Y-121568359D01*
X137515600Y-121509641D01*
X137450628Y-121183003D01*
X138879918Y-119753713D01*
X139045099Y-119506502D01*
X139103102Y-119214898D01*
X139103102Y-112377726D01*
X139045098Y-112086121D01*
X138879917Y-111838911D01*
X138557000Y-111515994D01*
X138557000Y-108712000D01*
X138535351Y-108603164D01*
X138498997Y-108420396D01*
X138333816Y-108173185D01*
X133999815Y-103839185D01*
X133833692Y-103728185D01*
X133752605Y-103674004D01*
X133461000Y-103616000D01*
X129780083Y-103616000D01*
X129713659Y-103549460D01*
X129354370Y-103400270D01*
X128965337Y-103399931D01*
X128605788Y-103548493D01*
X128330460Y-103823341D01*
X128181270Y-104182630D01*
X128180931Y-104571663D01*
X128329493Y-104931212D01*
X128604341Y-105206540D01*
X128963630Y-105355730D01*
X129352663Y-105356069D01*
X129712212Y-105207507D01*
X129779837Y-105140000D01*
X133145370Y-105140000D01*
X137033000Y-109027631D01*
X137033000Y-111108082D01*
X136920538Y-111032937D01*
X136734662Y-110995964D01*
X135999282Y-110260585D01*
X136054930Y-110126570D01*
X136055269Y-109737537D01*
X135906707Y-109377988D01*
X135631859Y-109102660D01*
X135272570Y-108953470D01*
X134883537Y-108953131D01*
X134523988Y-109101693D01*
X134248660Y-109376541D01*
X134099470Y-109735830D01*
X134099131Y-110124863D01*
X134247693Y-110484412D01*
X134348960Y-110585856D01*
X134373204Y-110707738D01*
X134482293Y-110871000D01*
X134538385Y-110954948D01*
X135859184Y-112275748D01*
X136011805Y-112377726D01*
X136106395Y-112440929D01*
X136292272Y-112477902D01*
X136588413Y-112774043D01*
X136588331Y-112868063D01*
X136736893Y-113227612D01*
X137011741Y-113502940D01*
X137371030Y-113652130D01*
X137579102Y-113652311D01*
X137579102Y-118899267D01*
X137515600Y-118962769D01*
X137515600Y-118871998D01*
X137351470Y-118871998D01*
X137471968Y-118639973D01*
X137223821Y-118110510D01*
X136791947Y-117716312D01*
X136376026Y-117544042D01*
X136144000Y-117665183D01*
X136144000Y-118872000D01*
X136164000Y-118872000D01*
X136164000Y-119126000D01*
X136144000Y-119126000D01*
X136144000Y-119146000D01*
X135890000Y-119146000D01*
X135890000Y-119126000D01*
X135870000Y-119126000D01*
X135870000Y-118872000D01*
X135890000Y-118872000D01*
X135890000Y-117665183D01*
X135657974Y-117544042D01*
X135483601Y-117616265D01*
X135483601Y-114909601D01*
X135425597Y-114617996D01*
X135260416Y-114370786D01*
X135216987Y-114327357D01*
X135217069Y-114233337D01*
X135068507Y-113873788D01*
X134793659Y-113598460D01*
X134434370Y-113449270D01*
X134045337Y-113448931D01*
X133685788Y-113597493D01*
X133410460Y-113872341D01*
X133261270Y-114231630D01*
X133260931Y-114620663D01*
X133409493Y-114980212D01*
X133684341Y-115255540D01*
X133959601Y-115369838D01*
X133959601Y-117567036D01*
X133477000Y-117471041D01*
X133101385Y-117545755D01*
X131915727Y-116360097D01*
X131892015Y-116344253D01*
X131668517Y-116194916D01*
X131376912Y-116136912D01*
X130992803Y-116136912D01*
X130926379Y-116070372D01*
X130567090Y-115921182D01*
X130178057Y-115920843D01*
X129982986Y-116001444D01*
X133190316Y-112794115D01*
X133355497Y-112546904D01*
X133413501Y-112255299D01*
X133413501Y-108072920D01*
X133547612Y-108017507D01*
X133822940Y-107742659D01*
X133972130Y-107383370D01*
X133972469Y-106994337D01*
X133823907Y-106634788D01*
X133549059Y-106359460D01*
X133189770Y-106210270D01*
X132800737Y-106209931D01*
X132441188Y-106358493D01*
X132165860Y-106633341D01*
X132016670Y-106992630D01*
X132016545Y-107135969D01*
X131947505Y-107239294D01*
X131889501Y-107530899D01*
X131889501Y-108662686D01*
X131669459Y-108442260D01*
X131310170Y-108293070D01*
X130921137Y-108292731D01*
X130697565Y-108385109D01*
X130501059Y-108188260D01*
X130141770Y-108039070D01*
X129752737Y-108038731D01*
X129393188Y-108187293D01*
X129158966Y-108421107D01*
X129078659Y-108340660D01*
X128719370Y-108191470D01*
X128420761Y-108191210D01*
X128164259Y-107934260D01*
X127804970Y-107785070D01*
X127415937Y-107784731D01*
X127056388Y-107933293D01*
X126781060Y-108208141D01*
X126631870Y-108567430D01*
X126631531Y-108956463D01*
X126707384Y-109140041D01*
X126622299Y-109054808D01*
X126263010Y-108905618D01*
X125873977Y-108905279D01*
X125514428Y-109053841D01*
X125239100Y-109328689D01*
X125089910Y-109687978D01*
X125089827Y-109783530D01*
X123011758Y-111861600D01*
X122075994Y-111861600D01*
X122611215Y-111326379D01*
X122633646Y-111292809D01*
X122776396Y-111079169D01*
X122834400Y-110787564D01*
X122834400Y-107910683D01*
X122900940Y-107844259D01*
X123050130Y-107484970D01*
X123050422Y-107149901D01*
X123575080Y-107149901D01*
X123630493Y-107284012D01*
X123905341Y-107559340D01*
X124264630Y-107708530D01*
X124653663Y-107708869D01*
X125013212Y-107560307D01*
X125288540Y-107285459D01*
X125437730Y-106926170D01*
X125438069Y-106537137D01*
X125289507Y-106177588D01*
X125014659Y-105902260D01*
X124655370Y-105753070D01*
X124512031Y-105752945D01*
X124408706Y-105683905D01*
X124117101Y-105625901D01*
X121119823Y-105625901D01*
X121120069Y-105343337D01*
X120990188Y-105029000D01*
X125414370Y-105029000D01*
X125799460Y-105414091D01*
X125799457Y-105417545D01*
X125948019Y-105777094D01*
X126222867Y-106052422D01*
X126582156Y-106201612D01*
X126971189Y-106201951D01*
X127330738Y-106053389D01*
X127606066Y-105778541D01*
X127755256Y-105419252D01*
X127755595Y-105030219D01*
X127607033Y-104670670D01*
X127332185Y-104395342D01*
X126972896Y-104246152D01*
X126786620Y-104245990D01*
X126268814Y-103728184D01*
X126021605Y-103563004D01*
X125730000Y-103505000D01*
X116466544Y-103505000D01*
X116174939Y-103563004D01*
X116095625Y-103616000D01*
X115927729Y-103728184D01*
X113493436Y-106162477D01*
X113233015Y-105772730D01*
X112923531Y-105565939D01*
X113339332Y-105194436D01*
X113593309Y-104667191D01*
X113595958Y-104651426D01*
X113474817Y-104419400D01*
X112115600Y-104419400D01*
X112115600Y-104439400D01*
X111861600Y-104439400D01*
X111861600Y-104419400D01*
X110502383Y-104419400D01*
X110381242Y-104651426D01*
X110383891Y-104667191D01*
X110637868Y-105194436D01*
X111053669Y-105565939D01*
X110744185Y-105772730D01*
X110419329Y-106258911D01*
X110305255Y-106832400D01*
X110400736Y-107312416D01*
X110223785Y-107347614D01*
X109976574Y-107512795D01*
X109443185Y-108046185D01*
X109278004Y-108293395D01*
X109220000Y-108585000D01*
X106247000Y-108585000D01*
X106247000Y-103933374D01*
X110381242Y-103933374D01*
X110502383Y-104165400D01*
X111861600Y-104165400D01*
X111861600Y-102951476D01*
X112115600Y-102951476D01*
X112115600Y-104165400D01*
X113474817Y-104165400D01*
X113595958Y-103933374D01*
X113593309Y-103917609D01*
X113339332Y-103390364D01*
X112902920Y-103000446D01*
X112350513Y-102807216D01*
X112115600Y-102951476D01*
X111861600Y-102951476D01*
X111626687Y-102807216D01*
X111074280Y-103000446D01*
X110637868Y-103390364D01*
X110383891Y-103917609D01*
X110381242Y-103933374D01*
X106247000Y-103933374D01*
X106247000Y-92584944D01*
X111678025Y-92584944D01*
X111877615Y-93066818D01*
X112315621Y-93539188D01*
X112901054Y-93807983D01*
X113157000Y-93689367D01*
X113157000Y-92329000D01*
X113411000Y-92329000D01*
X113411000Y-93689367D01*
X113666946Y-93807983D01*
X114252379Y-93539188D01*
X114690385Y-93066818D01*
X114889975Y-92584944D01*
X114770836Y-92329000D01*
X113411000Y-92329000D01*
X113157000Y-92329000D01*
X111797164Y-92329000D01*
X111678025Y-92584944D01*
X106247000Y-92584944D01*
X106247000Y-88646000D01*
X111620560Y-88646000D01*
X111620560Y-90678000D01*
X111664838Y-90913317D01*
X111803910Y-91129441D01*
X111966948Y-91240840D01*
X111877615Y-91337182D01*
X111678025Y-91819056D01*
X111797164Y-92075000D01*
X113157000Y-92075000D01*
X113157000Y-92055000D01*
X113411000Y-92055000D01*
X113411000Y-92075000D01*
X114770836Y-92075000D01*
X114889975Y-91819056D01*
X114690385Y-91337182D01*
X114599903Y-91239602D01*
X114751441Y-91142090D01*
X114896431Y-90929890D01*
X114947440Y-90678000D01*
X114947440Y-88646000D01*
X114903162Y-88410683D01*
X114764090Y-88194559D01*
X114551890Y-88049569D01*
X114300000Y-87998560D01*
X112268000Y-87998560D01*
X112032683Y-88042838D01*
X111816559Y-88181910D01*
X111671569Y-88394110D01*
X111620560Y-88646000D01*
X106247000Y-88646000D01*
X106247000Y-87832000D01*
X140387000Y-87832000D01*
X140387000Y-134672000D01*
G36*
X119312493Y-106090212D02*
X119587341Y-106365540D01*
X119790645Y-106449959D01*
X119670527Y-106629728D01*
X119612523Y-106921333D01*
X119612523Y-110732938D01*
X113652040Y-116693422D01*
X113652040Y-116128800D01*
X113607762Y-115893483D01*
X113468690Y-115677359D01*
X113256490Y-115532369D01*
X113215161Y-115524000D01*
X113233015Y-115512070D01*
X113557871Y-115025889D01*
X113671945Y-114452400D01*
X113557871Y-113878911D01*
X113233015Y-113392730D01*
X112918234Y-113182400D01*
X113233015Y-112972070D01*
X113557871Y-112485889D01*
X113671945Y-111912400D01*
X113596735Y-111534295D01*
X114330816Y-110800215D01*
X114495997Y-110553004D01*
X114554000Y-110261400D01*
X114554000Y-107975610D01*
X116573510Y-105956101D01*
X119257080Y-105956101D01*
X119312493Y-106090212D01*
X119312493Y-106090212D01*
G37*
X119312493Y-106090212D02*
X119587341Y-106365540D01*
X119790645Y-106449959D01*
X119670527Y-106629728D01*
X119612523Y-106921333D01*
X119612523Y-110732938D01*
X113652040Y-116693422D01*
X113652040Y-116128800D01*
X113607762Y-115893483D01*
X113468690Y-115677359D01*
X113256490Y-115532369D01*
X113215161Y-115524000D01*
X113233015Y-115512070D01*
X113557871Y-115025889D01*
X113671945Y-114452400D01*
X113557871Y-113878911D01*
X113233015Y-113392730D01*
X112918234Y-113182400D01*
X113233015Y-112972070D01*
X113557871Y-112485889D01*
X113671945Y-111912400D01*
X113596735Y-111534295D01*
X114330816Y-110800215D01*
X114495997Y-110553004D01*
X114554000Y-110261400D01*
X114554000Y-107975610D01*
X116573510Y-105956101D01*
X119257080Y-105956101D01*
X119312493Y-106090212D01*
M02*
