G04 #@! TF.FileFunction,Legend,Top*
%FSLAX46Y46*%
G04 Gerber Fmt 4.6, Leading zero omitted, Abs format (unit mm)*
G04 Created by KiCad (PCBNEW 4.0.1-3.201512221402+6198~38~ubuntu14.04.1-stable) date Sat 13 Aug 2016 03:05:42 PM PDT*
%MOMM*%
G01*
G04 APERTURE LIST*
%ADD10C,0.100000*%
%ADD11C,0.203200*%
%ADD12C,0.177800*%
%ADD13C,0.508000*%
%ADD14C,0.152400*%
%ADD15C,0.150000*%
%ADD16C,0.381000*%
G04 APERTURE END LIST*
D10*
D11*
X130333206Y-102389819D02*
X129994540Y-101906010D01*
X129752635Y-102389819D02*
X129752635Y-101373819D01*
X130139682Y-101373819D01*
X130236444Y-101422200D01*
X130284825Y-101470581D01*
X130333206Y-101567343D01*
X130333206Y-101712486D01*
X130284825Y-101809248D01*
X130236444Y-101857629D01*
X130139682Y-101906010D01*
X129752635Y-101906010D01*
X130768635Y-101857629D02*
X131107301Y-101857629D01*
X131252444Y-102389819D02*
X130768635Y-102389819D01*
X130768635Y-101373819D01*
X131252444Y-101373819D01*
X131639492Y-102341438D02*
X131784635Y-102389819D01*
X132026539Y-102389819D01*
X132123301Y-102341438D01*
X132171682Y-102293057D01*
X132220063Y-102196295D01*
X132220063Y-102099533D01*
X132171682Y-102002771D01*
X132123301Y-101954390D01*
X132026539Y-101906010D01*
X131833016Y-101857629D01*
X131736254Y-101809248D01*
X131687873Y-101760867D01*
X131639492Y-101664105D01*
X131639492Y-101567343D01*
X131687873Y-101470581D01*
X131736254Y-101422200D01*
X131833016Y-101373819D01*
X132074920Y-101373819D01*
X132220063Y-101422200D01*
X132655492Y-101857629D02*
X132994158Y-101857629D01*
X133139301Y-102389819D02*
X132655492Y-102389819D01*
X132655492Y-101373819D01*
X133139301Y-101373819D01*
X133429587Y-101373819D02*
X134010158Y-101373819D01*
X133719873Y-102389819D02*
X133719873Y-101373819D01*
D12*
X134222067Y-125681619D02*
X134222067Y-124665619D01*
X134463972Y-124665619D01*
X134609114Y-124714000D01*
X134705876Y-124810762D01*
X134754257Y-124907524D01*
X134802638Y-125101048D01*
X134802638Y-125246190D01*
X134754257Y-125439714D01*
X134705876Y-125536476D01*
X134609114Y-125633238D01*
X134463972Y-125681619D01*
X134222067Y-125681619D01*
X135770257Y-125681619D02*
X135189686Y-125681619D01*
X135479972Y-125681619D02*
X135479972Y-124665619D01*
X135383210Y-124810762D01*
X135286448Y-124907524D01*
X135189686Y-124955905D01*
X136737876Y-125681619D02*
X136157305Y-125681619D01*
X136447591Y-125681619D02*
X136447591Y-124665619D01*
X136350829Y-124810762D01*
X136254067Y-124907524D01*
X136157305Y-124955905D01*
X131224867Y-125681619D02*
X131224867Y-124665619D01*
X131466772Y-124665619D01*
X131611914Y-124714000D01*
X131708676Y-124810762D01*
X131757057Y-124907524D01*
X131805438Y-125101048D01*
X131805438Y-125246190D01*
X131757057Y-125439714D01*
X131708676Y-125536476D01*
X131611914Y-125633238D01*
X131466772Y-125681619D01*
X131224867Y-125681619D01*
X132773057Y-125681619D02*
X132192486Y-125681619D01*
X132482772Y-125681619D02*
X132482772Y-124665619D01*
X132386010Y-124810762D01*
X132289248Y-124907524D01*
X132192486Y-124955905D01*
X133402010Y-124665619D02*
X133498771Y-124665619D01*
X133595533Y-124714000D01*
X133643914Y-124762381D01*
X133692295Y-124859143D01*
X133740676Y-125052667D01*
X133740676Y-125294571D01*
X133692295Y-125488095D01*
X133643914Y-125584857D01*
X133595533Y-125633238D01*
X133498771Y-125681619D01*
X133402010Y-125681619D01*
X133305248Y-125633238D01*
X133256867Y-125584857D01*
X133208486Y-125488095D01*
X133160105Y-125294571D01*
X133160105Y-125052667D01*
X133208486Y-124859143D01*
X133256867Y-124762381D01*
X133305248Y-124714000D01*
X133402010Y-124665619D01*
X129195286Y-125681619D02*
X129195286Y-124665619D01*
X129437191Y-124665619D01*
X129582333Y-124714000D01*
X129679095Y-124810762D01*
X129727476Y-124907524D01*
X129775857Y-125101048D01*
X129775857Y-125246190D01*
X129727476Y-125439714D01*
X129679095Y-125536476D01*
X129582333Y-125633238D01*
X129437191Y-125681619D01*
X129195286Y-125681619D01*
X130259667Y-125681619D02*
X130453191Y-125681619D01*
X130549952Y-125633238D01*
X130598333Y-125584857D01*
X130695095Y-125439714D01*
X130743476Y-125246190D01*
X130743476Y-124859143D01*
X130695095Y-124762381D01*
X130646714Y-124714000D01*
X130549952Y-124665619D01*
X130356429Y-124665619D01*
X130259667Y-124714000D01*
X130211286Y-124762381D01*
X130162905Y-124859143D01*
X130162905Y-125101048D01*
X130211286Y-125197810D01*
X130259667Y-125246190D01*
X130356429Y-125294571D01*
X130549952Y-125294571D01*
X130646714Y-125246190D01*
X130695095Y-125197810D01*
X130743476Y-125101048D01*
X126655286Y-125681619D02*
X126655286Y-124665619D01*
X126897191Y-124665619D01*
X127042333Y-124714000D01*
X127139095Y-124810762D01*
X127187476Y-124907524D01*
X127235857Y-125101048D01*
X127235857Y-125246190D01*
X127187476Y-125439714D01*
X127139095Y-125536476D01*
X127042333Y-125633238D01*
X126897191Y-125681619D01*
X126655286Y-125681619D01*
X127816429Y-125101048D02*
X127719667Y-125052667D01*
X127671286Y-125004286D01*
X127622905Y-124907524D01*
X127622905Y-124859143D01*
X127671286Y-124762381D01*
X127719667Y-124714000D01*
X127816429Y-124665619D01*
X128009952Y-124665619D01*
X128106714Y-124714000D01*
X128155095Y-124762381D01*
X128203476Y-124859143D01*
X128203476Y-124907524D01*
X128155095Y-125004286D01*
X128106714Y-125052667D01*
X128009952Y-125101048D01*
X127816429Y-125101048D01*
X127719667Y-125149429D01*
X127671286Y-125197810D01*
X127622905Y-125294571D01*
X127622905Y-125488095D01*
X127671286Y-125584857D01*
X127719667Y-125633238D01*
X127816429Y-125681619D01*
X128009952Y-125681619D01*
X128106714Y-125633238D01*
X128155095Y-125584857D01*
X128203476Y-125488095D01*
X128203476Y-125294571D01*
X128155095Y-125197810D01*
X128106714Y-125149429D01*
X128009952Y-125101048D01*
X124115286Y-125681619D02*
X124115286Y-124665619D01*
X124357191Y-124665619D01*
X124502333Y-124714000D01*
X124599095Y-124810762D01*
X124647476Y-124907524D01*
X124695857Y-125101048D01*
X124695857Y-125246190D01*
X124647476Y-125439714D01*
X124599095Y-125536476D01*
X124502333Y-125633238D01*
X124357191Y-125681619D01*
X124115286Y-125681619D01*
X125034524Y-124665619D02*
X125711857Y-124665619D01*
X125276429Y-125681619D01*
X121575286Y-125681619D02*
X121575286Y-124665619D01*
X121817191Y-124665619D01*
X121962333Y-124714000D01*
X122059095Y-124810762D01*
X122107476Y-124907524D01*
X122155857Y-125101048D01*
X122155857Y-125246190D01*
X122107476Y-125439714D01*
X122059095Y-125536476D01*
X121962333Y-125633238D01*
X121817191Y-125681619D01*
X121575286Y-125681619D01*
X123026714Y-124665619D02*
X122833191Y-124665619D01*
X122736429Y-124714000D01*
X122688048Y-124762381D01*
X122591286Y-124907524D01*
X122542905Y-125101048D01*
X122542905Y-125488095D01*
X122591286Y-125584857D01*
X122639667Y-125633238D01*
X122736429Y-125681619D01*
X122929952Y-125681619D01*
X123026714Y-125633238D01*
X123075095Y-125584857D01*
X123123476Y-125488095D01*
X123123476Y-125246190D01*
X123075095Y-125149429D01*
X123026714Y-125101048D01*
X122929952Y-125052667D01*
X122736429Y-125052667D01*
X122639667Y-125101048D01*
X122591286Y-125149429D01*
X122542905Y-125246190D01*
X119035286Y-125681619D02*
X119035286Y-124665619D01*
X119277191Y-124665619D01*
X119422333Y-124714000D01*
X119519095Y-124810762D01*
X119567476Y-124907524D01*
X119615857Y-125101048D01*
X119615857Y-125246190D01*
X119567476Y-125439714D01*
X119519095Y-125536476D01*
X119422333Y-125633238D01*
X119277191Y-125681619D01*
X119035286Y-125681619D01*
X120535095Y-124665619D02*
X120051286Y-124665619D01*
X120002905Y-125149429D01*
X120051286Y-125101048D01*
X120148048Y-125052667D01*
X120389952Y-125052667D01*
X120486714Y-125101048D01*
X120535095Y-125149429D01*
X120583476Y-125246190D01*
X120583476Y-125488095D01*
X120535095Y-125584857D01*
X120486714Y-125633238D01*
X120389952Y-125681619D01*
X120148048Y-125681619D01*
X120051286Y-125633238D01*
X120002905Y-125584857D01*
X116495286Y-125681619D02*
X116495286Y-124665619D01*
X116737191Y-124665619D01*
X116882333Y-124714000D01*
X116979095Y-124810762D01*
X117027476Y-124907524D01*
X117075857Y-125101048D01*
X117075857Y-125246190D01*
X117027476Y-125439714D01*
X116979095Y-125536476D01*
X116882333Y-125633238D01*
X116737191Y-125681619D01*
X116495286Y-125681619D01*
X117946714Y-125004286D02*
X117946714Y-125681619D01*
X117704810Y-124617238D02*
X117462905Y-125342952D01*
X118091857Y-125342952D01*
X113955286Y-125681619D02*
X113955286Y-124665619D01*
X114197191Y-124665619D01*
X114342333Y-124714000D01*
X114439095Y-124810762D01*
X114487476Y-124907524D01*
X114535857Y-125101048D01*
X114535857Y-125246190D01*
X114487476Y-125439714D01*
X114439095Y-125536476D01*
X114342333Y-125633238D01*
X114197191Y-125681619D01*
X113955286Y-125681619D01*
X114874524Y-124665619D02*
X115503476Y-124665619D01*
X115164810Y-125052667D01*
X115309952Y-125052667D01*
X115406714Y-125101048D01*
X115455095Y-125149429D01*
X115503476Y-125246190D01*
X115503476Y-125488095D01*
X115455095Y-125584857D01*
X115406714Y-125633238D01*
X115309952Y-125681619D01*
X115019667Y-125681619D01*
X114922905Y-125633238D01*
X114874524Y-125584857D01*
X111415286Y-125681619D02*
X111415286Y-124665619D01*
X111657191Y-124665619D01*
X111802333Y-124714000D01*
X111899095Y-124810762D01*
X111947476Y-124907524D01*
X111995857Y-125101048D01*
X111995857Y-125246190D01*
X111947476Y-125439714D01*
X111899095Y-125536476D01*
X111802333Y-125633238D01*
X111657191Y-125681619D01*
X111415286Y-125681619D01*
X112382905Y-124762381D02*
X112431286Y-124714000D01*
X112528048Y-124665619D01*
X112769952Y-124665619D01*
X112866714Y-124714000D01*
X112915095Y-124762381D01*
X112963476Y-124859143D01*
X112963476Y-124955905D01*
X112915095Y-125101048D01*
X112334524Y-125681619D01*
X112963476Y-125681619D01*
X134476067Y-134165219D02*
X134476067Y-133149219D01*
X134717972Y-133149219D01*
X134863114Y-133197600D01*
X134959876Y-133294362D01*
X135008257Y-133391124D01*
X135056638Y-133584648D01*
X135056638Y-133729790D01*
X135008257Y-133923314D01*
X134959876Y-134020076D01*
X134863114Y-134116838D01*
X134717972Y-134165219D01*
X134476067Y-134165219D01*
X136024257Y-134165219D02*
X135443686Y-134165219D01*
X135733972Y-134165219D02*
X135733972Y-133149219D01*
X135637210Y-133294362D01*
X135540448Y-133391124D01*
X135443686Y-133439505D01*
X136411305Y-133245981D02*
X136459686Y-133197600D01*
X136556448Y-133149219D01*
X136798352Y-133149219D01*
X136895114Y-133197600D01*
X136943495Y-133245981D01*
X136991876Y-133342743D01*
X136991876Y-133439505D01*
X136943495Y-133584648D01*
X136362924Y-134165219D01*
X136991876Y-134165219D01*
X131224867Y-134190619D02*
X131224867Y-133174619D01*
X131466772Y-133174619D01*
X131611914Y-133223000D01*
X131708676Y-133319762D01*
X131757057Y-133416524D01*
X131805438Y-133610048D01*
X131805438Y-133755190D01*
X131757057Y-133948714D01*
X131708676Y-134045476D01*
X131611914Y-134142238D01*
X131466772Y-134190619D01*
X131224867Y-134190619D01*
X132773057Y-134190619D02*
X132192486Y-134190619D01*
X132482772Y-134190619D02*
X132482772Y-133174619D01*
X132386010Y-133319762D01*
X132289248Y-133416524D01*
X132192486Y-133464905D01*
X133111724Y-133174619D02*
X133740676Y-133174619D01*
X133402010Y-133561667D01*
X133547152Y-133561667D01*
X133643914Y-133610048D01*
X133692295Y-133658429D01*
X133740676Y-133755190D01*
X133740676Y-133997095D01*
X133692295Y-134093857D01*
X133643914Y-134142238D01*
X133547152Y-134190619D01*
X133256867Y-134190619D01*
X133160105Y-134142238D01*
X133111724Y-134093857D01*
X129241248Y-133900333D02*
X129725057Y-133900333D01*
X129144486Y-134190619D02*
X129483153Y-133174619D01*
X129821819Y-134190619D01*
X130354010Y-133174619D02*
X130450771Y-133174619D01*
X130547533Y-133223000D01*
X130595914Y-133271381D01*
X130644295Y-133368143D01*
X130692676Y-133561667D01*
X130692676Y-133803571D01*
X130644295Y-133997095D01*
X130595914Y-134093857D01*
X130547533Y-134142238D01*
X130450771Y-134190619D01*
X130354010Y-134190619D01*
X130257248Y-134142238D01*
X130208867Y-134093857D01*
X130160486Y-133997095D01*
X130112105Y-133803571D01*
X130112105Y-133561667D01*
X130160486Y-133368143D01*
X130208867Y-133271381D01*
X130257248Y-133223000D01*
X130354010Y-133174619D01*
X126701248Y-133900333D02*
X127185057Y-133900333D01*
X126604486Y-134190619D02*
X126943153Y-133174619D01*
X127281819Y-134190619D01*
X128152676Y-134190619D02*
X127572105Y-134190619D01*
X127862391Y-134190619D02*
X127862391Y-133174619D01*
X127765629Y-133319762D01*
X127668867Y-133416524D01*
X127572105Y-133464905D01*
X124161248Y-133900333D02*
X124645057Y-133900333D01*
X124064486Y-134190619D02*
X124403153Y-133174619D01*
X124741819Y-134190619D01*
X125032105Y-133271381D02*
X125080486Y-133223000D01*
X125177248Y-133174619D01*
X125419152Y-133174619D01*
X125515914Y-133223000D01*
X125564295Y-133271381D01*
X125612676Y-133368143D01*
X125612676Y-133464905D01*
X125564295Y-133610048D01*
X124983724Y-134190619D01*
X125612676Y-134190619D01*
X121621248Y-133900333D02*
X122105057Y-133900333D01*
X121524486Y-134190619D02*
X121863153Y-133174619D01*
X122201819Y-134190619D01*
X122443724Y-133174619D02*
X123072676Y-133174619D01*
X122734010Y-133561667D01*
X122879152Y-133561667D01*
X122975914Y-133610048D01*
X123024295Y-133658429D01*
X123072676Y-133755190D01*
X123072676Y-133997095D01*
X123024295Y-134093857D01*
X122975914Y-134142238D01*
X122879152Y-134190619D01*
X122588867Y-134190619D01*
X122492105Y-134142238D01*
X122443724Y-134093857D01*
X119081248Y-133900333D02*
X119565057Y-133900333D01*
X118984486Y-134190619D02*
X119323153Y-133174619D01*
X119661819Y-134190619D01*
X120435914Y-133513286D02*
X120435914Y-134190619D01*
X120194010Y-133126238D02*
X119952105Y-133851952D01*
X120581057Y-133851952D01*
X116541248Y-133900333D02*
X117025057Y-133900333D01*
X116444486Y-134190619D02*
X116783153Y-133174619D01*
X117121819Y-134190619D01*
X117944295Y-133174619D02*
X117460486Y-133174619D01*
X117412105Y-133658429D01*
X117460486Y-133610048D01*
X117557248Y-133561667D01*
X117799152Y-133561667D01*
X117895914Y-133610048D01*
X117944295Y-133658429D01*
X117992676Y-133755190D01*
X117992676Y-133997095D01*
X117944295Y-134093857D01*
X117895914Y-134142238D01*
X117799152Y-134190619D01*
X117557248Y-134190619D01*
X117460486Y-134142238D01*
X117412105Y-134093857D01*
X114001248Y-133900333D02*
X114485057Y-133900333D01*
X113904486Y-134190619D02*
X114243153Y-133174619D01*
X114581819Y-134190619D01*
X115355914Y-133174619D02*
X115162391Y-133174619D01*
X115065629Y-133223000D01*
X115017248Y-133271381D01*
X114920486Y-133416524D01*
X114872105Y-133610048D01*
X114872105Y-133997095D01*
X114920486Y-134093857D01*
X114968867Y-134142238D01*
X115065629Y-134190619D01*
X115259152Y-134190619D01*
X115355914Y-134142238D01*
X115404295Y-134093857D01*
X115452676Y-133997095D01*
X115452676Y-133755190D01*
X115404295Y-133658429D01*
X115355914Y-133610048D01*
X115259152Y-133561667D01*
X115065629Y-133561667D01*
X114968867Y-133610048D01*
X114920486Y-133658429D01*
X114872105Y-133755190D01*
X111461248Y-133900333D02*
X111945057Y-133900333D01*
X111364486Y-134190619D02*
X111703153Y-133174619D01*
X112041819Y-134190619D01*
X112283724Y-133174619D02*
X112961057Y-133174619D01*
X112525629Y-134190619D01*
D11*
X111050009Y-119561429D02*
X110711343Y-119561429D01*
X110711343Y-120093619D02*
X110711343Y-119077619D01*
X111195152Y-119077619D01*
X111437057Y-119077619D02*
X112017628Y-119077619D01*
X111727343Y-120093619D02*
X111727343Y-119077619D01*
X112356295Y-120093619D02*
X112356295Y-119077619D01*
X112598200Y-119077619D01*
X112743342Y-119126000D01*
X112840104Y-119222762D01*
X112888485Y-119319524D01*
X112936866Y-119513048D01*
X112936866Y-119658190D01*
X112888485Y-119851714D01*
X112840104Y-119948476D01*
X112743342Y-120045238D01*
X112598200Y-120093619D01*
X112356295Y-120093619D01*
X113372295Y-120093619D02*
X113372295Y-119077619D01*
X107889524Y-107139619D02*
X107889524Y-106123619D01*
X108470095Y-107139619D01*
X108470095Y-106123619D01*
X109534476Y-107042857D02*
X109486095Y-107091238D01*
X109340952Y-107139619D01*
X109244190Y-107139619D01*
X109099048Y-107091238D01*
X109002286Y-106994476D01*
X108953905Y-106897714D01*
X108905524Y-106704190D01*
X108905524Y-106559048D01*
X108953905Y-106365524D01*
X109002286Y-106268762D01*
X109099048Y-106172000D01*
X109244190Y-106123619D01*
X109340952Y-106123619D01*
X109486095Y-106172000D01*
X109534476Y-106220381D01*
D13*
X114837981Y-117983000D02*
G75*
G03X114837981Y-117983000I-283981J0D01*
G01*
X123804181Y-107086400D02*
G75*
G03X123804181Y-107086400I-283981J0D01*
G01*
X128680981Y-122301000D02*
G75*
G03X128680981Y-122301000I-283981J0D01*
G01*
D11*
X107024714Y-91694000D02*
X106927952Y-91645619D01*
X106782809Y-91645619D01*
X106637667Y-91694000D01*
X106540905Y-91790762D01*
X106492524Y-91887524D01*
X106444143Y-92081048D01*
X106444143Y-92226190D01*
X106492524Y-92419714D01*
X106540905Y-92516476D01*
X106637667Y-92613238D01*
X106782809Y-92661619D01*
X106879571Y-92661619D01*
X107024714Y-92613238D01*
X107073095Y-92564857D01*
X107073095Y-92226190D01*
X106879571Y-92226190D01*
X107508524Y-92661619D02*
X107508524Y-91645619D01*
X108089095Y-92661619D01*
X108089095Y-91645619D01*
X108572905Y-92661619D02*
X108572905Y-91645619D01*
X108814810Y-91645619D01*
X108959952Y-91694000D01*
X109056714Y-91790762D01*
X109105095Y-91887524D01*
X109153476Y-92081048D01*
X109153476Y-92226190D01*
X109105095Y-92419714D01*
X109056714Y-92516476D01*
X108959952Y-92613238D01*
X108814810Y-92661619D01*
X108572905Y-92661619D01*
X107024714Y-88978619D02*
X107363381Y-89994619D01*
X107702047Y-88978619D01*
X108040714Y-89994619D02*
X108040714Y-88978619D01*
X108524524Y-89994619D02*
X108524524Y-88978619D01*
X109105095Y-89994619D01*
X109105095Y-88978619D01*
X107792762Y-117299619D02*
X107454096Y-116815810D01*
X107212191Y-117299619D02*
X107212191Y-116283619D01*
X107599238Y-116283619D01*
X107696000Y-116332000D01*
X107744381Y-116380381D01*
X107792762Y-116477143D01*
X107792762Y-116622286D01*
X107744381Y-116719048D01*
X107696000Y-116767429D01*
X107599238Y-116815810D01*
X107212191Y-116815810D01*
X108179810Y-117251238D02*
X108324953Y-117299619D01*
X108566857Y-117299619D01*
X108663619Y-117251238D01*
X108712000Y-117202857D01*
X108760381Y-117106095D01*
X108760381Y-117009333D01*
X108712000Y-116912571D01*
X108663619Y-116864190D01*
X108566857Y-116815810D01*
X108373334Y-116767429D01*
X108276572Y-116719048D01*
X108228191Y-116670667D01*
X108179810Y-116573905D01*
X108179810Y-116477143D01*
X108228191Y-116380381D01*
X108276572Y-116332000D01*
X108373334Y-116283619D01*
X108615238Y-116283619D01*
X108760381Y-116332000D01*
X109050667Y-116283619D02*
X109631238Y-116283619D01*
X109340953Y-117299619D02*
X109340953Y-116283619D01*
X108083048Y-113743619D02*
X108663619Y-113743619D01*
X108373334Y-114759619D02*
X108373334Y-113743619D01*
X108905524Y-113743619D02*
X109582857Y-114759619D01*
X109582857Y-113743619D02*
X108905524Y-114759619D01*
X108566857Y-112219619D02*
X108228191Y-111735810D01*
X107986286Y-112219619D02*
X107986286Y-111203619D01*
X108373333Y-111203619D01*
X108470095Y-111252000D01*
X108518476Y-111300381D01*
X108566857Y-111397143D01*
X108566857Y-111542286D01*
X108518476Y-111639048D01*
X108470095Y-111687429D01*
X108373333Y-111735810D01*
X107986286Y-111735810D01*
X108905524Y-111203619D02*
X109582857Y-112219619D01*
X109582857Y-111203619D02*
X108905524Y-112219619D01*
X108615238Y-108536619D02*
X108131429Y-108536619D01*
X108083048Y-109020429D01*
X108131429Y-108972048D01*
X108228191Y-108923667D01*
X108470095Y-108923667D01*
X108566857Y-108972048D01*
X108615238Y-109020429D01*
X108663619Y-109117190D01*
X108663619Y-109359095D01*
X108615238Y-109455857D01*
X108566857Y-109504238D01*
X108470095Y-109552619D01*
X108228191Y-109552619D01*
X108131429Y-109504238D01*
X108083048Y-109455857D01*
X108953905Y-108536619D02*
X109292572Y-109552619D01*
X109631238Y-108536619D01*
X107405714Y-103632000D02*
X107308952Y-103583619D01*
X107163809Y-103583619D01*
X107018667Y-103632000D01*
X106921905Y-103728762D01*
X106873524Y-103825524D01*
X106825143Y-104019048D01*
X106825143Y-104164190D01*
X106873524Y-104357714D01*
X106921905Y-104454476D01*
X107018667Y-104551238D01*
X107163809Y-104599619D01*
X107260571Y-104599619D01*
X107405714Y-104551238D01*
X107454095Y-104502857D01*
X107454095Y-104164190D01*
X107260571Y-104164190D01*
X107889524Y-104599619D02*
X107889524Y-103583619D01*
X108470095Y-104599619D01*
X108470095Y-103583619D01*
X108953905Y-104599619D02*
X108953905Y-103583619D01*
X109195810Y-103583619D01*
X109340952Y-103632000D01*
X109437714Y-103728762D01*
X109486095Y-103825524D01*
X109534476Y-104019048D01*
X109534476Y-104164190D01*
X109486095Y-104357714D01*
X109437714Y-104454476D01*
X109340952Y-104551238D01*
X109195810Y-104599619D01*
X108953905Y-104599619D01*
D14*
X114909600Y-108737400D02*
X118414800Y-108737400D01*
X114909600Y-108737400D02*
X114909600Y-114731800D01*
X118414800Y-108737400D02*
X118414800Y-114731800D01*
X114909600Y-114731800D02*
X118414800Y-114731800D01*
D15*
X132207000Y-122809000D02*
X137287000Y-122809000D01*
X129387000Y-123089000D02*
X129387000Y-121539000D01*
X129667000Y-120269000D02*
X132207000Y-120269000D01*
X132207000Y-120269000D02*
X132207000Y-122809000D01*
X137287000Y-122809000D02*
X137287000Y-117729000D01*
X137287000Y-117729000D02*
X132207000Y-117729000D01*
X129387000Y-123089000D02*
X130937000Y-123089000D01*
X129667000Y-117729000D02*
X129667000Y-120269000D01*
X132207000Y-117729000D02*
X129667000Y-117729000D01*
X110718600Y-115722400D02*
X110718600Y-103022400D01*
X110718600Y-103022400D02*
X113258600Y-103022400D01*
X113258600Y-103022400D02*
X113258600Y-115722400D01*
X110438600Y-118542400D02*
X110438600Y-116992400D01*
X110718600Y-115722400D02*
X113258600Y-115722400D01*
X113538600Y-116992400D02*
X113538600Y-118542400D01*
X113538600Y-118542400D02*
X110438600Y-118542400D01*
D16*
X133951980Y-95298260D02*
X129052320Y-95298260D01*
X133951980Y-95298260D02*
X133951980Y-93395800D01*
X133951980Y-93395800D02*
X129052320Y-93395800D01*
X133903720Y-99898200D02*
X129052320Y-99898200D01*
X133903720Y-99898200D02*
X133903720Y-97995740D01*
X133903720Y-97995740D02*
X129052320Y-97995740D01*
X122153680Y-100096320D02*
X122153680Y-93197680D01*
X122153680Y-93197680D02*
X129052320Y-93197680D01*
X129052320Y-93197680D02*
X129052320Y-100096320D01*
X129052320Y-100096320D02*
X122153680Y-100096320D01*
D15*
X127727000Y-119145000D02*
X127727000Y-119845000D01*
X126527000Y-119845000D02*
X126527000Y-119145000D01*
X128739000Y-103370000D02*
X128739000Y-102370000D01*
X127039000Y-102370000D02*
X127039000Y-103370000D01*
X122586000Y-119796000D02*
X123286000Y-119796000D01*
X123286000Y-120996000D02*
X122586000Y-120996000D01*
X133883400Y-132486400D02*
X111023400Y-132486400D01*
X111023400Y-132486400D02*
X111023400Y-129946400D01*
X111023400Y-129946400D02*
X133883400Y-129946400D01*
X136703400Y-132766400D02*
X135153400Y-132766400D01*
X133883400Y-132486400D02*
X133883400Y-129946400D01*
X135153400Y-129666400D02*
X136703400Y-129666400D01*
X136703400Y-129666400D02*
X136703400Y-132766400D01*
X113538000Y-126492000D02*
X136398000Y-126492000D01*
X136398000Y-126492000D02*
X136398000Y-129032000D01*
X136398000Y-129032000D02*
X113538000Y-129032000D01*
X110718000Y-126212000D02*
X112268000Y-126212000D01*
X113538000Y-126492000D02*
X113538000Y-129032000D01*
X112268000Y-129312000D02*
X110718000Y-129312000D01*
X110718000Y-129312000D02*
X110718000Y-126212000D01*
X114554000Y-90932000D02*
X114554000Y-93472000D01*
X114834000Y-88112000D02*
X114834000Y-89662000D01*
X114554000Y-90932000D02*
X112014000Y-90932000D01*
X111734000Y-89662000D02*
X111734000Y-88112000D01*
X111734000Y-88112000D02*
X114834000Y-88112000D01*
X112014000Y-90932000D02*
X112014000Y-93472000D01*
X112014000Y-93472000D02*
X114554000Y-93472000D01*
X134112000Y-91768000D02*
X137160000Y-91768000D01*
X137160000Y-88318000D02*
X134112000Y-88318000D01*
X118590060Y-101621140D02*
X118239540Y-101621140D01*
X115089940Y-101621140D02*
X115440460Y-101621140D01*
X118590060Y-97571560D02*
X118239540Y-97571560D01*
X118590060Y-102072440D02*
X118239540Y-102072440D01*
X115089940Y-102072440D02*
X115440460Y-102072440D01*
X115089940Y-97571560D02*
X115440460Y-97571560D01*
X118590060Y-102072440D02*
X118590060Y-97571560D01*
X115089940Y-102072440D02*
X115089940Y-97571560D01*
X127275140Y-88165940D02*
X127275140Y-88516460D01*
X127275140Y-91666060D02*
X127275140Y-91315540D01*
X123225560Y-88165940D02*
X123225560Y-88516460D01*
X127726440Y-88165940D02*
X127726440Y-88516460D01*
X127726440Y-91666060D02*
X127726440Y-91315540D01*
X123225560Y-91666060D02*
X123225560Y-91315540D01*
X127726440Y-88165940D02*
X123225560Y-88165940D01*
X127726440Y-91666060D02*
X123225560Y-91666060D01*
X117502940Y-89640860D02*
X117853460Y-89640860D01*
X121003060Y-89640860D02*
X120652540Y-89640860D01*
X117502940Y-93690440D02*
X117853460Y-93690440D01*
X117502940Y-89189560D02*
X117853460Y-89189560D01*
X121003060Y-89189560D02*
X120652540Y-89189560D01*
X121003060Y-93690440D02*
X120652540Y-93690440D01*
X117502940Y-89189560D02*
X117502940Y-93690440D01*
X121003060Y-89189560D02*
X121003060Y-93690440D01*
X136998000Y-114585000D02*
X136998000Y-115285000D01*
X135798000Y-115285000D02*
X135798000Y-114585000D01*
X119542000Y-110078000D02*
X119542000Y-109378000D01*
X120742000Y-109378000D02*
X120742000Y-110078000D01*
X121320000Y-110090000D02*
X121320000Y-109390000D01*
X122520000Y-109390000D02*
X122520000Y-110090000D01*
X109617000Y-98884000D02*
X111617000Y-98884000D01*
X111617000Y-95934000D02*
X109617000Y-95934000D01*
X135798000Y-111094000D02*
X135798000Y-110394000D01*
X136998000Y-110394000D02*
X136998000Y-111094000D01*
X117825000Y-116932000D02*
X117125000Y-116932000D01*
X117125000Y-115732000D02*
X117825000Y-115732000D01*
X117010000Y-106207000D02*
X117710000Y-106207000D01*
X117710000Y-107407000D02*
X117010000Y-107407000D01*
X138381000Y-97012000D02*
X138381000Y-95012000D01*
X135431000Y-95012000D02*
X135431000Y-97012000D01*
X122524000Y-104867000D02*
X121824000Y-104867000D01*
X121824000Y-103667000D02*
X122524000Y-103667000D01*
X133468320Y-103017000D02*
X130468320Y-103017000D01*
X133468320Y-105517000D02*
X130468320Y-105517000D01*
D10*
X133575000Y-102267000D02*
X133575000Y-102267000D01*
X126652980Y-100953820D02*
X126652980Y-100953820D01*
D15*
X124822800Y-107576200D02*
X124822800Y-107901200D01*
X132072800Y-107576200D02*
X132072800Y-107901200D01*
X132072800Y-114826200D02*
X132072800Y-114501200D01*
X124822800Y-114826200D02*
X124822800Y-114501200D01*
X124822800Y-107576200D02*
X125147800Y-107576200D01*
X124822800Y-114826200D02*
X125147800Y-114826200D01*
X132072800Y-114826200D02*
X131747800Y-114826200D01*
X132072800Y-107576200D02*
X131747800Y-107576200D01*
X124822800Y-107901200D02*
X123397800Y-107901200D01*
X119266436Y-113795561D02*
X119933103Y-114795561D01*
X119933103Y-113795561D02*
X119266436Y-114795561D01*
X120837865Y-114795561D02*
X120266436Y-114795561D01*
X120552150Y-114795561D02*
X120552150Y-113795561D01*
X120456912Y-113938418D01*
X120361674Y-114033656D01*
X120266436Y-114081275D01*
X130982815Y-96099381D02*
X130982815Y-96908905D01*
X131030434Y-97004143D01*
X131078053Y-97051762D01*
X131173291Y-97099381D01*
X131363768Y-97099381D01*
X131459006Y-97051762D01*
X131506625Y-97004143D01*
X131554244Y-96908905D01*
X131554244Y-96099381D01*
X132554244Y-97099381D02*
X131982815Y-97099381D01*
X132268529Y-97099381D02*
X132268529Y-96099381D01*
X132173291Y-96242238D01*
X132078053Y-96337476D01*
X131982815Y-96385095D01*
X127505721Y-122427026D02*
X127029530Y-122760360D01*
X127505721Y-122998455D02*
X126505721Y-122998455D01*
X126505721Y-122617502D01*
X126553340Y-122522264D01*
X126600959Y-122474645D01*
X126696197Y-122427026D01*
X126839054Y-122427026D01*
X126934292Y-122474645D01*
X126981911Y-122522264D01*
X127029530Y-122617502D01*
X127029530Y-122998455D01*
X126600959Y-122046074D02*
X126553340Y-121998455D01*
X126505721Y-121903217D01*
X126505721Y-121665121D01*
X126553340Y-121569883D01*
X126600959Y-121522264D01*
X126696197Y-121474645D01*
X126791435Y-121474645D01*
X126934292Y-121522264D01*
X127505721Y-122093693D01*
X127505721Y-121474645D01*
X126294141Y-102935066D02*
X125817950Y-103268400D01*
X126294141Y-103506495D02*
X125294141Y-103506495D01*
X125294141Y-103125542D01*
X125341760Y-103030304D01*
X125389379Y-102982685D01*
X125484617Y-102935066D01*
X125627474Y-102935066D01*
X125722712Y-102982685D01*
X125770331Y-103030304D01*
X125817950Y-103125542D01*
X125817950Y-103506495D01*
X126294141Y-101982685D02*
X126294141Y-102554114D01*
X126294141Y-102268400D02*
X125294141Y-102268400D01*
X125436998Y-102363638D01*
X125532236Y-102458876D01*
X125579855Y-102554114D01*
X121886953Y-119338381D02*
X121410762Y-119338381D01*
X121410762Y-118338381D01*
X122220286Y-118814571D02*
X122553620Y-118814571D01*
X122696477Y-119338381D02*
X122220286Y-119338381D01*
X122220286Y-118338381D01*
X122696477Y-118338381D01*
X123125048Y-119338381D02*
X123125048Y-118338381D01*
X123363143Y-118338381D01*
X123506001Y-118386000D01*
X123601239Y-118481238D01*
X123648858Y-118576476D01*
X123696477Y-118766952D01*
X123696477Y-118909810D01*
X123648858Y-119100286D01*
X123601239Y-119195524D01*
X123506001Y-119290762D01*
X123363143Y-119338381D01*
X123125048Y-119338381D01*
X124648858Y-119338381D02*
X124077429Y-119338381D01*
X124363143Y-119338381D02*
X124363143Y-118338381D01*
X124267905Y-118481238D01*
X124172667Y-118576476D01*
X124077429Y-118624095D01*
X131459931Y-89370493D02*
X131459931Y-89703827D01*
X131983741Y-89703827D02*
X130983741Y-89703827D01*
X130983741Y-89227636D01*
X131983741Y-88322874D02*
X131983741Y-88894303D01*
X131983741Y-88608589D02*
X130983741Y-88608589D01*
X131126598Y-88703827D01*
X131221836Y-88799065D01*
X131269455Y-88894303D01*
X114625381Y-101753895D02*
X113625381Y-101753895D01*
X113625381Y-101515800D01*
X113673000Y-101372942D01*
X113768238Y-101277704D01*
X113863476Y-101230085D01*
X114053952Y-101182466D01*
X114196810Y-101182466D01*
X114387286Y-101230085D01*
X114482524Y-101277704D01*
X114577762Y-101372942D01*
X114625381Y-101515800D01*
X114625381Y-101753895D01*
X113625381Y-100849133D02*
X113625381Y-100230085D01*
X114006333Y-100563419D01*
X114006333Y-100420561D01*
X114053952Y-100325323D01*
X114101571Y-100277704D01*
X114196810Y-100230085D01*
X114434905Y-100230085D01*
X114530143Y-100277704D01*
X114577762Y-100325323D01*
X114625381Y-100420561D01*
X114625381Y-100706276D01*
X114577762Y-100801514D01*
X114530143Y-100849133D01*
X130541021Y-91370375D02*
X129541021Y-91370375D01*
X129541021Y-91132280D01*
X129588640Y-90989422D01*
X129683878Y-90894184D01*
X129779116Y-90846565D01*
X129969592Y-90798946D01*
X130112450Y-90798946D01*
X130302926Y-90846565D01*
X130398164Y-90894184D01*
X130493402Y-90989422D01*
X130541021Y-91132280D01*
X130541021Y-91370375D01*
X129636259Y-90417994D02*
X129588640Y-90370375D01*
X129541021Y-90275137D01*
X129541021Y-90037041D01*
X129588640Y-89941803D01*
X129636259Y-89894184D01*
X129731497Y-89846565D01*
X129826735Y-89846565D01*
X129969592Y-89894184D01*
X130541021Y-90465613D01*
X130541021Y-89846565D01*
X119632505Y-96540581D02*
X119632505Y-95540581D01*
X119870600Y-95540581D01*
X120013458Y-95588200D01*
X120108696Y-95683438D01*
X120156315Y-95778676D01*
X120203934Y-95969152D01*
X120203934Y-96112010D01*
X120156315Y-96302486D01*
X120108696Y-96397724D01*
X120013458Y-96492962D01*
X119870600Y-96540581D01*
X119632505Y-96540581D01*
X121156315Y-96540581D02*
X120584886Y-96540581D01*
X120870600Y-96540581D02*
X120870600Y-95540581D01*
X120775362Y-95683438D01*
X120680124Y-95778676D01*
X120584886Y-95826295D01*
X138265143Y-115171666D02*
X138312762Y-115219285D01*
X138360381Y-115362142D01*
X138360381Y-115457380D01*
X138312762Y-115600238D01*
X138217524Y-115695476D01*
X138122286Y-115743095D01*
X137931810Y-115790714D01*
X137788952Y-115790714D01*
X137598476Y-115743095D01*
X137503238Y-115695476D01*
X137408000Y-115600238D01*
X137360381Y-115457380D01*
X137360381Y-115362142D01*
X137408000Y-115219285D01*
X137455619Y-115171666D01*
X138360381Y-114695476D02*
X138360381Y-114505000D01*
X138312762Y-114409761D01*
X138265143Y-114362142D01*
X138122286Y-114266904D01*
X137931810Y-114219285D01*
X137550857Y-114219285D01*
X137455619Y-114266904D01*
X137408000Y-114314523D01*
X137360381Y-114409761D01*
X137360381Y-114600238D01*
X137408000Y-114695476D01*
X137455619Y-114743095D01*
X137550857Y-114790714D01*
X137788952Y-114790714D01*
X137884190Y-114743095D01*
X137931810Y-114695476D01*
X137979429Y-114600238D01*
X137979429Y-114409761D01*
X137931810Y-114314523D01*
X137884190Y-114266904D01*
X137788952Y-114219285D01*
X120621063Y-112622626D02*
X120668682Y-112670245D01*
X120716301Y-112813102D01*
X120716301Y-112908340D01*
X120668682Y-113051198D01*
X120573444Y-113146436D01*
X120478206Y-113194055D01*
X120287730Y-113241674D01*
X120144872Y-113241674D01*
X119954396Y-113194055D01*
X119859158Y-113146436D01*
X119763920Y-113051198D01*
X119716301Y-112908340D01*
X119716301Y-112813102D01*
X119763920Y-112670245D01*
X119811539Y-112622626D01*
X120144872Y-112051198D02*
X120097253Y-112146436D01*
X120049634Y-112194055D01*
X119954396Y-112241674D01*
X119906777Y-112241674D01*
X119811539Y-112194055D01*
X119763920Y-112146436D01*
X119716301Y-112051198D01*
X119716301Y-111860721D01*
X119763920Y-111765483D01*
X119811539Y-111717864D01*
X119906777Y-111670245D01*
X119954396Y-111670245D01*
X120049634Y-111717864D01*
X120097253Y-111765483D01*
X120144872Y-111860721D01*
X120144872Y-112051198D01*
X120192491Y-112146436D01*
X120240110Y-112194055D01*
X120335349Y-112241674D01*
X120525825Y-112241674D01*
X120621063Y-112194055D01*
X120668682Y-112146436D01*
X120716301Y-112051198D01*
X120716301Y-111860721D01*
X120668682Y-111765483D01*
X120621063Y-111717864D01*
X120525825Y-111670245D01*
X120335349Y-111670245D01*
X120240110Y-111717864D01*
X120192491Y-111765483D01*
X120144872Y-111860721D01*
X122404143Y-112663266D02*
X122451762Y-112710885D01*
X122499381Y-112853742D01*
X122499381Y-112948980D01*
X122451762Y-113091838D01*
X122356524Y-113187076D01*
X122261286Y-113234695D01*
X122070810Y-113282314D01*
X121927952Y-113282314D01*
X121737476Y-113234695D01*
X121642238Y-113187076D01*
X121547000Y-113091838D01*
X121499381Y-112948980D01*
X121499381Y-112853742D01*
X121547000Y-112710885D01*
X121594619Y-112663266D01*
X121499381Y-112329933D02*
X121499381Y-111663266D01*
X122499381Y-112091838D01*
X107392743Y-97626466D02*
X107440362Y-97674085D01*
X107487981Y-97816942D01*
X107487981Y-97912180D01*
X107440362Y-98055038D01*
X107345124Y-98150276D01*
X107249886Y-98197895D01*
X107059410Y-98245514D01*
X106916552Y-98245514D01*
X106726076Y-98197895D01*
X106630838Y-98150276D01*
X106535600Y-98055038D01*
X106487981Y-97912180D01*
X106487981Y-97816942D01*
X106535600Y-97674085D01*
X106583219Y-97626466D01*
X106487981Y-96769323D02*
X106487981Y-96959800D01*
X106535600Y-97055038D01*
X106583219Y-97102657D01*
X106726076Y-97197895D01*
X106916552Y-97245514D01*
X107297505Y-97245514D01*
X107392743Y-97197895D01*
X107440362Y-97150276D01*
X107487981Y-97055038D01*
X107487981Y-96864561D01*
X107440362Y-96769323D01*
X107392743Y-96721704D01*
X107297505Y-96674085D01*
X107059410Y-96674085D01*
X106964171Y-96721704D01*
X106916552Y-96769323D01*
X106868933Y-96864561D01*
X106868933Y-97055038D01*
X106916552Y-97150276D01*
X106964171Y-97197895D01*
X107059410Y-97245514D01*
X138495043Y-110821766D02*
X138542662Y-110869385D01*
X138590281Y-111012242D01*
X138590281Y-111107480D01*
X138542662Y-111250338D01*
X138447424Y-111345576D01*
X138352186Y-111393195D01*
X138161710Y-111440814D01*
X138018852Y-111440814D01*
X137828376Y-111393195D01*
X137733138Y-111345576D01*
X137637900Y-111250338D01*
X137590281Y-111107480D01*
X137590281Y-111012242D01*
X137637900Y-110869385D01*
X137685519Y-110821766D01*
X137590281Y-109917004D02*
X137590281Y-110393195D01*
X138066471Y-110440814D01*
X138018852Y-110393195D01*
X137971233Y-110297957D01*
X137971233Y-110059861D01*
X138018852Y-109964623D01*
X138066471Y-109917004D01*
X138161710Y-109869385D01*
X138399805Y-109869385D01*
X138495043Y-109917004D01*
X138542662Y-109964623D01*
X138590281Y-110059861D01*
X138590281Y-110297957D01*
X138542662Y-110393195D01*
X138495043Y-110440814D01*
X117404854Y-118416343D02*
X117357235Y-118463962D01*
X117214378Y-118511581D01*
X117119140Y-118511581D01*
X116976282Y-118463962D01*
X116881044Y-118368724D01*
X116833425Y-118273486D01*
X116785806Y-118083010D01*
X116785806Y-117940152D01*
X116833425Y-117749676D01*
X116881044Y-117654438D01*
X116976282Y-117559200D01*
X117119140Y-117511581D01*
X117214378Y-117511581D01*
X117357235Y-117559200D01*
X117404854Y-117606819D01*
X118261997Y-117844914D02*
X118261997Y-118511581D01*
X118023901Y-117463962D02*
X117785806Y-118178248D01*
X118404854Y-118178248D01*
X117176254Y-105533463D02*
X117128635Y-105581082D01*
X116985778Y-105628701D01*
X116890540Y-105628701D01*
X116747682Y-105581082D01*
X116652444Y-105485844D01*
X116604825Y-105390606D01*
X116557206Y-105200130D01*
X116557206Y-105057272D01*
X116604825Y-104866796D01*
X116652444Y-104771558D01*
X116747682Y-104676320D01*
X116890540Y-104628701D01*
X116985778Y-104628701D01*
X117128635Y-104676320D01*
X117176254Y-104723939D01*
X117509587Y-104628701D02*
X118128635Y-104628701D01*
X117795301Y-105009653D01*
X117938159Y-105009653D01*
X118033397Y-105057272D01*
X118081016Y-105104891D01*
X118128635Y-105200130D01*
X118128635Y-105438225D01*
X118081016Y-105533463D01*
X118033397Y-105581082D01*
X117938159Y-105628701D01*
X117652444Y-105628701D01*
X117557206Y-105581082D01*
X117509587Y-105533463D01*
X136673294Y-93189063D02*
X136625675Y-93236682D01*
X136482818Y-93284301D01*
X136387580Y-93284301D01*
X136244722Y-93236682D01*
X136149484Y-93141444D01*
X136101865Y-93046206D01*
X136054246Y-92855730D01*
X136054246Y-92712872D01*
X136101865Y-92522396D01*
X136149484Y-92427158D01*
X136244722Y-92331920D01*
X136387580Y-92284301D01*
X136482818Y-92284301D01*
X136625675Y-92331920D01*
X136673294Y-92379539D01*
X137054246Y-92379539D02*
X137101865Y-92331920D01*
X137197103Y-92284301D01*
X137435199Y-92284301D01*
X137530437Y-92331920D01*
X137578056Y-92379539D01*
X137625675Y-92474777D01*
X137625675Y-92570015D01*
X137578056Y-92712872D01*
X137006627Y-93284301D01*
X137625675Y-93284301D01*
X121920974Y-103120463D02*
X121873355Y-103168082D01*
X121730498Y-103215701D01*
X121635260Y-103215701D01*
X121492402Y-103168082D01*
X121397164Y-103072844D01*
X121349545Y-102977606D01*
X121301926Y-102787130D01*
X121301926Y-102644272D01*
X121349545Y-102453796D01*
X121397164Y-102358558D01*
X121492402Y-102263320D01*
X121635260Y-102215701D01*
X121730498Y-102215701D01*
X121873355Y-102263320D01*
X121920974Y-102310939D01*
X122873355Y-103215701D02*
X122301926Y-103215701D01*
X122587640Y-103215701D02*
X122587640Y-102215701D01*
X122492402Y-102358558D01*
X122397164Y-102453796D01*
X122301926Y-102501415D01*
X127685895Y-104603581D02*
X127685895Y-105413105D01*
X127733514Y-105508343D01*
X127781133Y-105555962D01*
X127876371Y-105603581D01*
X128066848Y-105603581D01*
X128162086Y-105555962D01*
X128209705Y-105508343D01*
X128257324Y-105413105D01*
X128257324Y-104603581D01*
X128685895Y-104698819D02*
X128733514Y-104651200D01*
X128828752Y-104603581D01*
X129066848Y-104603581D01*
X129162086Y-104651200D01*
X129209705Y-104698819D01*
X129257324Y-104794057D01*
X129257324Y-104889295D01*
X129209705Y-105032152D01*
X128638276Y-105603581D01*
X129257324Y-105603581D01*
M02*
