G04 #@! TF.FileFunction,Soldermask,Top*
%FSLAX46Y46*%
G04 Gerber Fmt 4.6, Leading zero omitted, Abs format (unit mm)*
G04 Created by KiCad (PCBNEW 4.0.1-3.201512221402+6198~38~ubuntu14.04.1-stable) date Sat 13 Aug 2016 03:05:42 PM PDT*
%MOMM*%
G01*
G04 APERTURE LIST*
%ADD10C,0.100000*%
%ADD11R,1.797000X2.305000*%
%ADD12R,2.127200X2.127200*%
%ADD13O,2.127200X2.127200*%
%ADD14R,2.432000X2.127200*%
%ADD15O,2.432000X2.127200*%
%ADD16R,3.448000X2.051000*%
%ADD17R,7.100520X7.100520*%
%ADD18R,1.150000X1.200000*%
%ADD19R,1.650000X1.400000*%
%ADD20R,1.200000X1.150000*%
%ADD21R,2.127200X2.432000*%
%ADD22O,2.127200X2.432000*%
%ADD23R,2.432000X2.432000*%
%ADD24O,2.432000X2.432000*%
%ADD25R,1.400000X3.400000*%
%ADD26R,2.200860X2.899360*%
%ADD27R,2.899360X2.200860*%
%ADD28R,1.400000X2.900000*%
%ADD29R,2.900000X1.400000*%
%ADD30R,1.200000X2.100000*%
%ADD31R,2.000000X0.950000*%
%ADD32R,0.950000X2.000000*%
G04 APERTURE END LIST*
D10*
D11*
X117906800Y-113969800D03*
X117906800Y-109499400D03*
X115417600Y-113969800D03*
X115417600Y-109499400D03*
D12*
X130937000Y-121539000D03*
D13*
X130937000Y-118999000D03*
X133477000Y-121539000D03*
X133477000Y-118999000D03*
X136017000Y-121539000D03*
X136017000Y-118999000D03*
D14*
X111988600Y-116992400D03*
D15*
X111988600Y-114452400D03*
X111988600Y-111912400D03*
X111988600Y-109372400D03*
X111988600Y-106832400D03*
X111988600Y-104292400D03*
D16*
X132252720Y-98948240D03*
D17*
X125603000Y-96647000D03*
D16*
X132252720Y-94345760D03*
D18*
X127127000Y-118745000D03*
X127127000Y-120245000D03*
D19*
X127889000Y-101870000D03*
X127889000Y-103870000D03*
D20*
X122186000Y-120396000D03*
X123686000Y-120396000D03*
D21*
X135153400Y-131216400D03*
D22*
X132613400Y-131216400D03*
X130073400Y-131216400D03*
X127533400Y-131216400D03*
X124993400Y-131216400D03*
X122453400Y-131216400D03*
X119913400Y-131216400D03*
X117373400Y-131216400D03*
X114833400Y-131216400D03*
X112293400Y-131216400D03*
D21*
X112268000Y-127762000D03*
D22*
X114808000Y-127762000D03*
X117348000Y-127762000D03*
X119888000Y-127762000D03*
X122428000Y-127762000D03*
X124968000Y-127762000D03*
X127508000Y-127762000D03*
X130048000Y-127762000D03*
X132588000Y-127762000D03*
X135128000Y-127762000D03*
D23*
X113284000Y-89662000D03*
D24*
X113284000Y-92202000D03*
D25*
X137936000Y-90043000D03*
X133336000Y-90043000D03*
D26*
X116840000Y-101820980D03*
X116840000Y-97823020D03*
D27*
X127474980Y-89916000D03*
X123477020Y-89916000D03*
D26*
X119253000Y-89441020D03*
X119253000Y-93438980D03*
D18*
X136398000Y-114185000D03*
X136398000Y-115685000D03*
X120142000Y-110478000D03*
X120142000Y-108978000D03*
X121920000Y-110490000D03*
X121920000Y-108990000D03*
D28*
X112117000Y-97409000D03*
X109117000Y-97409000D03*
D18*
X136398000Y-111494000D03*
X136398000Y-109994000D03*
D20*
X118225000Y-116332000D03*
X116725000Y-116332000D03*
X116610000Y-106807000D03*
X118110000Y-106807000D03*
D29*
X136906000Y-94512000D03*
X136906000Y-97512000D03*
D20*
X122924000Y-104267000D03*
X121424000Y-104267000D03*
D30*
X130175000Y-104267000D03*
X133575000Y-104267000D03*
D31*
X124197800Y-108401200D03*
X124197800Y-109201200D03*
X124197800Y-110001200D03*
X124197800Y-110801200D03*
X124197800Y-111601200D03*
X124197800Y-112401200D03*
X124197800Y-113201200D03*
X124197800Y-114001200D03*
D32*
X125647800Y-115451200D03*
X126447800Y-115451200D03*
X127247800Y-115451200D03*
X128047800Y-115451200D03*
X128847800Y-115451200D03*
X129647800Y-115451200D03*
X130447800Y-115451200D03*
X131247800Y-115451200D03*
D31*
X132697800Y-114001200D03*
X132697800Y-113201200D03*
X132697800Y-112401200D03*
X132697800Y-111601200D03*
X132697800Y-110801200D03*
X132697800Y-110001200D03*
X132697800Y-109201200D03*
X132697800Y-108401200D03*
D32*
X131247800Y-106951200D03*
X130447800Y-106951200D03*
X129647800Y-106951200D03*
X128847800Y-106951200D03*
X128047800Y-106951200D03*
X127247800Y-106951200D03*
X126447800Y-106951200D03*
X125647800Y-106951200D03*
M02*
