M48
;DRILL file {KiCad 4.0.4+e1-6308~48~ubuntu14.04.1-stable} date Tue Nov 22 21:41:38 2016
;FORMAT={-:-/ absolute / metric / decimal}
FMAT,2
METRIC,TZ
T1C0.330
T2C1.016
%
G90
G05
M71
T1
X107.569Y-120.269
X110.998Y-120.269
X114.402Y-115.748
X114.859Y-111.836
X117.653Y-110.947
X117.907Y-122.072
X118.161Y-107.899
X119.126Y-104.394
X119.634Y-106.553
X119.651Y-107.56
X120.307Y-115.405
X120.383Y-118.224
X121.098Y-107.269
X121.107Y-125.476
X122.072Y-107.29
X122.644Y-111.633
X122.936Y-102.362
X122.957Y-110.052
X124.308Y-122.276
X124.409Y-116.129
X124.46Y-106.731
X125.692Y-125.628
X126.068Y-109.883
X126.238Y-108.458
X126.448Y-105.581
X127.394Y-117.367
X127.61Y-108.763
X128.524Y-109.169
X128.892Y-118.292
X129.159Y-104.378
X129.286Y-117.399
X129.946Y-109.017
X130.372Y-116.899
X130.966Y-112.475
X131.115Y-109.271
X132.994Y-107.188
X134.239Y-114.427
X134.406Y-109.855
X135.382Y-104.013
X135.763Y-108.458
X137.566Y-112.674
X137.617Y-124.765
X138.43Y-113.919
X139.065Y-120.015
T2
X109.728Y-127.762
X109.728Y-131.318
X111.989Y-104.292
X111.989Y-106.832
X111.989Y-109.372
X111.989Y-111.912
X111.989Y-114.452
X111.989Y-116.992
X112.268Y-127.762
X112.268Y-131.318
X113.284Y-89.662
X113.284Y-92.202
X114.808Y-127.762
X114.808Y-131.318
X117.348Y-127.762
X117.348Y-131.318
X119.888Y-127.762
X119.888Y-131.318
X122.428Y-127.762
X122.428Y-131.318
X124.968Y-127.762
X124.968Y-131.318
X127.508Y-127.762
X127.508Y-131.318
X130.048Y-127.762
X130.048Y-131.318
X130.937Y-118.999
X130.937Y-121.539
X132.588Y-127.762
X132.588Y-131.318
X133.477Y-118.999
X133.477Y-121.539
X135.128Y-127.762
X135.128Y-131.318
X136.017Y-118.999
X136.017Y-121.539
X137.668Y-127.762
X137.668Y-131.318
T0
M30
