%TF.GenerationSoftware,KiCad,Pcbnew,4.0.4+e1-6308~48~ubuntu16.04.1-stable*%
%TF.CreationDate,2016-12-31T15:13:52-08:00*%
%TF.ProjectId,atmega328,61746D6567613332382E6B696361645F,1.2*%
%TF.FileFunction,Copper,L2,Bot,Signal*%
%FSLAX46Y46*%
G04 Gerber Fmt 4.6, Leading zero omitted, Abs format (unit mm)*
G04 Created by KiCad (PCBNEW 4.0.4+e1-6308~48~ubuntu16.04.1-stable) date Sat Dec 31 15:13:52 2016*
%MOMM*%
%LPD*%
G01*
G04 APERTURE LIST*
%ADD10C,0.350000*%
%ADD11R,2.032000X1.727200*%
%ADD12O,2.032000X1.727200*%
%ADD13R,1.727200X2.032000*%
%ADD14O,1.727200X2.032000*%
%ADD15R,1.727200X1.727200*%
%ADD16O,1.727200X1.727200*%
%ADD17R,2.032000X2.032000*%
%ADD18O,2.032000X2.032000*%
%ADD19C,0.685800*%
%ADD20C,0.254000*%
%ADD21C,0.330200*%
%ADD22C,0.330200*%
%ADD23C,0.350000*%
G04 APERTURE END LIST*
D10*
D11*
X111988600Y-116992400D03*
D12*
X111988600Y-114452400D03*
X111988600Y-111912400D03*
X111988600Y-109372400D03*
X111988600Y-106832400D03*
X111988600Y-104292400D03*
D13*
X109728000Y-127762000D03*
D14*
X112268000Y-127762000D03*
X114808000Y-127762000D03*
X117348000Y-127762000D03*
X119888000Y-127762000D03*
X122428000Y-127762000D03*
X124968000Y-127762000D03*
X127508000Y-127762000D03*
X130048000Y-127762000D03*
X132588000Y-127762000D03*
X135128000Y-127762000D03*
X137668000Y-127762000D03*
D15*
X130937000Y-121539000D03*
D16*
X130937000Y-118999000D03*
X133477000Y-121539000D03*
X133477000Y-118999000D03*
X136017000Y-121539000D03*
X136017000Y-118999000D03*
D17*
X113284000Y-89662000D03*
D18*
X113284000Y-92202000D03*
D13*
X137668000Y-131318000D03*
D14*
X135128000Y-131318000D03*
X132588000Y-131318000D03*
X130048000Y-131318000D03*
X127508000Y-131318000D03*
X124968000Y-131318000D03*
X122428000Y-131318000D03*
X119888000Y-131318000D03*
X117348000Y-131318000D03*
X114808000Y-131318000D03*
X112268000Y-131318000D03*
X109728000Y-131318000D03*
D17*
X137731500Y-104394000D03*
D18*
X137731500Y-101854000D03*
D19*
X129159000Y-104378000D03*
X114886157Y-113700840D03*
X119650603Y-107559963D03*
X139192000Y-129603500D03*
X133667500Y-117094000D03*
X135763000Y-117157500D03*
X122957000Y-110052000D03*
X119126000Y-104394000D03*
X122936000Y-102362000D03*
X134937500Y-104330500D03*
X110998000Y-120269000D03*
X107569000Y-120269000D03*
X118160800Y-107899200D03*
X114401600Y-115747800D03*
X122643920Y-111633000D03*
X135763000Y-108458000D03*
X119634000Y-106553000D03*
X125539500Y-111252000D03*
X126174500Y-101600000D03*
X134239000Y-114427000D03*
X130371720Y-116898912D03*
X124460000Y-106730800D03*
X121098425Y-107268807D03*
X122072400Y-107289600D03*
X120307101Y-115404899D03*
X124409200Y-116128800D03*
X127393680Y-117367263D03*
X128892320Y-118291779D03*
X129286000Y-117398800D03*
X139065000Y-120015000D03*
X138430000Y-113919000D03*
X134405600Y-109855000D03*
X132994400Y-107188000D03*
X125691920Y-125628400D03*
X131114800Y-109270800D03*
X129946400Y-109016800D03*
X124307600Y-122275600D03*
X121107200Y-125476000D03*
X128524000Y-109169200D03*
X120383280Y-118224320D03*
X127609600Y-108762800D03*
X130966289Y-112475089D03*
X125933190Y-109883348D03*
X117906800Y-122072400D03*
X126447800Y-105581200D03*
X126238000Y-108458000D03*
D20*
X136398000Y-111736933D02*
X136628933Y-111736933D01*
X136628933Y-111736933D02*
X137566400Y-112674400D01*
X129643933Y-104378000D02*
X129159000Y-104378000D01*
X133461000Y-104378000D02*
X129643933Y-104378000D01*
X139153902Y-110070902D02*
X133461000Y-104378000D01*
X139153902Y-118402098D02*
X139153902Y-110070902D01*
X136017000Y-121539000D02*
X139153902Y-118402098D01*
D21*
X119507000Y-104013000D02*
X119126000Y-104394000D01*
X120800067Y-104013000D02*
X119507000Y-104013000D01*
X122936000Y-102362000D02*
X122451067Y-102362000D01*
X122451067Y-102362000D02*
X120800067Y-104013000D01*
X107569000Y-120269000D02*
X110998000Y-120269000D01*
D20*
X126555500Y-110236000D02*
X125539500Y-111252000D01*
X126555500Y-109220000D02*
X126555500Y-110236000D01*
X126873000Y-108902500D02*
X126555500Y-109220000D01*
X126873000Y-108267500D02*
X126873000Y-108902500D01*
X127635000Y-107505500D02*
X126873000Y-108267500D01*
X127635000Y-103545433D02*
X127635000Y-107505500D01*
X126174500Y-101600000D02*
X126174500Y-102084933D01*
X126174500Y-102084933D02*
X127635000Y-103545433D01*
X130937000Y-122656600D02*
X130937000Y-121539000D01*
X135128000Y-127101600D02*
X134569200Y-126542800D01*
X134569200Y-126542800D02*
X134569200Y-126288800D01*
X135128000Y-127762000D02*
X135128000Y-127101600D01*
X134569200Y-126288800D02*
X130937000Y-122656600D01*
X135128000Y-127762000D02*
X135128000Y-127609600D01*
X135128000Y-127609600D02*
X135178800Y-127558800D01*
X134721601Y-114909601D02*
X134239000Y-114427000D01*
X133477000Y-121539000D02*
X134721601Y-120294399D01*
X134721601Y-120294399D02*
X134721601Y-114909601D01*
X133477000Y-118999000D02*
X131376912Y-116898912D01*
X130856653Y-116898912D02*
X130371720Y-116898912D01*
X131376912Y-116898912D02*
X130856653Y-116898912D01*
X112268000Y-127762000D02*
X112268000Y-119155092D01*
X120907955Y-106387901D02*
X124117101Y-106387901D01*
X112268000Y-119155092D02*
X120374523Y-111048569D01*
X120374523Y-111048569D02*
X120374523Y-106921333D01*
X120374523Y-106921333D02*
X120907955Y-106387901D01*
X124117101Y-106387901D02*
X124460000Y-106730800D01*
X121098425Y-111043103D02*
X121098425Y-107753740D01*
X114808000Y-127762000D02*
X114808000Y-117333528D01*
X114808000Y-117333528D02*
X121098425Y-111043103D01*
X121098425Y-107753740D02*
X121098425Y-107268807D01*
X122072400Y-110787564D02*
X122072400Y-107774533D01*
X117166013Y-122402989D02*
X117166013Y-115693951D01*
X117348000Y-122584976D02*
X117166013Y-122402989D01*
X117348000Y-127762000D02*
X117348000Y-122584976D01*
X117166013Y-115693951D02*
X122072400Y-110787564D01*
X122072400Y-107774533D02*
X122072400Y-107289600D01*
X119888000Y-127762000D02*
X119888000Y-118800414D01*
X119888000Y-118800414D02*
X119545101Y-118457515D01*
X119545101Y-118457515D02*
X119545101Y-116166899D01*
X119545101Y-116166899D02*
X119888000Y-115824000D01*
X119888000Y-115824000D02*
X120307101Y-115404899D01*
X122428000Y-117500400D02*
X123799600Y-116128800D01*
X123799600Y-116128800D02*
X124409200Y-116128800D01*
X122428000Y-127762000D02*
X122428000Y-117500400D01*
X127508000Y-127762000D02*
X127508000Y-117481583D01*
X127508000Y-117481583D02*
X127393680Y-117367263D01*
X128892320Y-125285520D02*
X128892320Y-118776712D01*
X130048000Y-126441200D02*
X128892320Y-125285520D01*
X130048000Y-127762000D02*
X130048000Y-126441200D01*
X128892320Y-118776712D02*
X128892320Y-118291779D01*
X129286000Y-117398800D02*
X129628899Y-117741699D01*
X129628899Y-117741699D02*
X129628899Y-124650499D01*
X129628899Y-124650499D02*
X132588000Y-127609600D01*
X132588000Y-127609600D02*
X132588000Y-127762000D01*
X139065000Y-128277544D02*
X139065000Y-120015000D01*
X136804400Y-129438400D02*
X137904144Y-129438400D01*
X137904144Y-129438400D02*
X139065000Y-128277544D01*
X137414000Y-113919000D02*
X138430000Y-113919000D01*
X134748499Y-111253499D02*
X137414000Y-113919000D01*
X134405600Y-109855000D02*
X134748499Y-110197899D01*
X134748499Y-110197899D02*
X134748499Y-111253499D01*
X136804400Y-129438400D02*
X131699000Y-129438400D01*
X131699000Y-129438400D02*
X130073400Y-131064000D01*
X130073400Y-131064000D02*
X130073400Y-131216400D01*
X128168400Y-116738400D02*
X128168400Y-126509856D01*
X128168400Y-126509856D02*
X128752610Y-127094066D01*
X128752610Y-127094066D02*
X128752610Y-128727190D01*
X128752610Y-128727190D02*
X127533400Y-129946400D01*
X127533400Y-129946400D02*
X127533400Y-131216400D01*
X132651501Y-112255299D02*
X128168400Y-116738400D01*
X132994400Y-107188000D02*
X132651501Y-107530899D01*
X132651501Y-107530899D02*
X132651501Y-112255299D01*
X125222000Y-125158480D02*
X125349021Y-125285501D01*
X125349021Y-125285501D02*
X125691920Y-125628400D01*
X125222000Y-117195600D02*
X125222000Y-125158480D01*
X131114800Y-109270800D02*
X131114800Y-111302800D01*
X131114800Y-111302800D02*
X125222000Y-117195600D01*
X129946400Y-111651164D02*
X129946400Y-109501733D01*
X124307600Y-122275600D02*
X124307600Y-117289964D01*
X129946400Y-109501733D02*
X129946400Y-109016800D01*
X124307600Y-117289964D02*
X129946400Y-111651164D01*
X121107200Y-117180059D02*
X121107200Y-124991067D01*
X128524000Y-109763259D02*
X121107200Y-117180059D01*
X121107200Y-124991067D02*
X121107200Y-125476000D01*
X128524000Y-109169200D02*
X128524000Y-109763259D01*
X127609600Y-110102908D02*
X125838206Y-111874302D01*
X125100462Y-111874302D02*
X120383280Y-116591484D01*
X120383280Y-117739387D02*
X120383280Y-118224320D01*
X125838206Y-111874302D02*
X125100462Y-111874302D01*
X120383280Y-116591484D02*
X120383280Y-117739387D01*
X127609600Y-108762800D02*
X127609600Y-110102908D01*
X126263390Y-117177988D02*
X130623390Y-112817988D01*
X126415822Y-125975874D02*
X126415822Y-125280926D01*
X126263390Y-125128494D02*
X126263390Y-117177988D01*
X126263390Y-126128306D02*
X126415822Y-125975874D01*
X126263390Y-128701810D02*
X126263390Y-126128306D01*
X125526800Y-129438400D02*
X126263390Y-128701810D01*
X114833400Y-131064000D02*
X116459000Y-129438400D01*
X126415822Y-125280926D02*
X126263390Y-125128494D01*
X116459000Y-129438400D02*
X125526800Y-129438400D01*
X114833400Y-131216400D02*
X114833400Y-131064000D01*
X130623390Y-112817988D02*
X130966289Y-112475089D01*
X125590291Y-110226247D02*
X125933190Y-109883348D01*
X123192938Y-112623600D02*
X125590291Y-110226247D01*
X117906800Y-122072400D02*
X117906800Y-120548400D01*
X121564400Y-112623600D02*
X123192938Y-112623600D01*
X117889914Y-116298086D02*
X121564400Y-112623600D01*
X117889914Y-120531514D02*
X117889914Y-116298086D01*
X117906800Y-120548400D02*
X117889914Y-120531514D01*
X119983497Y-104457511D02*
X120984189Y-104457511D01*
X119424706Y-105016302D02*
X119983497Y-104457511D01*
X121174700Y-104267000D02*
X125984000Y-104267000D01*
X126447800Y-105096267D02*
X126447800Y-105581200D01*
X111094510Y-105537010D02*
X115196534Y-105537010D01*
X109982000Y-112547400D02*
X109982000Y-106649520D01*
X115717242Y-105016302D02*
X119424706Y-105016302D01*
X120984189Y-104457511D02*
X121174700Y-104267000D01*
X125984000Y-104267000D02*
X126447800Y-104730800D01*
X111861600Y-114427000D02*
X109982000Y-112547400D01*
X112014000Y-114427000D02*
X111861600Y-114427000D01*
X109982000Y-106649520D02*
X111094510Y-105537010D01*
X115196534Y-105537010D02*
X115717242Y-105016302D01*
X126447800Y-104730800D02*
X126447800Y-105096267D01*
X113919000Y-110134400D02*
X112141000Y-111912400D01*
X119593046Y-105422713D02*
X116700287Y-105422713D01*
X126238000Y-108458000D02*
X126238000Y-106807000D01*
X112141000Y-111912400D02*
X111988600Y-111912400D01*
X113919000Y-108204000D02*
X113919000Y-110134400D01*
X116700287Y-105422713D02*
X113919000Y-108204000D01*
X126238000Y-106807000D02*
X124714000Y-105283000D01*
X119732759Y-105283000D02*
X119593046Y-105422713D01*
X124714000Y-105283000D02*
X119732759Y-105283000D01*
X112166400Y-111887000D02*
X112014000Y-111887000D01*
X111861600Y-111887000D02*
X112014000Y-111887000D01*
G36*
X140387000Y-134672000D02*
X106247000Y-134672000D01*
X106247000Y-131679913D01*
X108242816Y-131679913D01*
X108436046Y-132232320D01*
X108825964Y-132668732D01*
X109353209Y-132922709D01*
X109368974Y-132925358D01*
X109601000Y-132804217D01*
X109601000Y-131445000D01*
X108387076Y-131445000D01*
X108242816Y-131679913D01*
X106247000Y-131679913D01*
X106247000Y-130956087D01*
X108242816Y-130956087D01*
X108387076Y-131191000D01*
X109601000Y-131191000D01*
X109601000Y-129831783D01*
X109368974Y-129710642D01*
X109353209Y-129713291D01*
X108825964Y-129967268D01*
X108436046Y-130403680D01*
X108242816Y-130956087D01*
X106247000Y-130956087D01*
X106247000Y-126746000D01*
X108216960Y-126746000D01*
X108216960Y-128778000D01*
X108261238Y-129013317D01*
X108400310Y-129229441D01*
X108612510Y-129374431D01*
X108864400Y-129425440D01*
X110591600Y-129425440D01*
X110826917Y-129381162D01*
X111043041Y-129242090D01*
X111188031Y-129029890D01*
X111196400Y-128988561D01*
X111208330Y-129006415D01*
X111694511Y-129331271D01*
X112268000Y-129445345D01*
X112841489Y-129331271D01*
X113327670Y-129006415D01*
X113538000Y-128691634D01*
X113748330Y-129006415D01*
X114234511Y-129331271D01*
X114808000Y-129445345D01*
X115381489Y-129331271D01*
X115703980Y-129115789D01*
X115122547Y-129697222D01*
X114808000Y-129634655D01*
X114234511Y-129748729D01*
X113748330Y-130073585D01*
X113538000Y-130388366D01*
X113327670Y-130073585D01*
X112841489Y-129748729D01*
X112268000Y-129634655D01*
X111694511Y-129748729D01*
X111208330Y-130073585D01*
X111001539Y-130383069D01*
X110630036Y-129967268D01*
X110102791Y-129713291D01*
X110087026Y-129710642D01*
X109855000Y-129831783D01*
X109855000Y-131191000D01*
X109875000Y-131191000D01*
X109875000Y-131445000D01*
X109855000Y-131445000D01*
X109855000Y-132804217D01*
X110087026Y-132925358D01*
X110102791Y-132922709D01*
X110630036Y-132668732D01*
X111001539Y-132252931D01*
X111208330Y-132562415D01*
X111694511Y-132887271D01*
X112268000Y-133001345D01*
X112841489Y-132887271D01*
X113327670Y-132562415D01*
X113538000Y-132247634D01*
X113748330Y-132562415D01*
X114234511Y-132887271D01*
X114808000Y-133001345D01*
X115381489Y-132887271D01*
X115867670Y-132562415D01*
X116078000Y-132247634D01*
X116288330Y-132562415D01*
X116774511Y-132887271D01*
X117348000Y-133001345D01*
X117921489Y-132887271D01*
X118407670Y-132562415D01*
X118618000Y-132247634D01*
X118828330Y-132562415D01*
X119314511Y-132887271D01*
X119888000Y-133001345D01*
X120461489Y-132887271D01*
X120947670Y-132562415D01*
X121158000Y-132247634D01*
X121368330Y-132562415D01*
X121854511Y-132887271D01*
X122428000Y-133001345D01*
X123001489Y-132887271D01*
X123487670Y-132562415D01*
X123698000Y-132247634D01*
X123908330Y-132562415D01*
X124394511Y-132887271D01*
X124968000Y-133001345D01*
X125541489Y-132887271D01*
X126027670Y-132562415D01*
X126238000Y-132247634D01*
X126448330Y-132562415D01*
X126934511Y-132887271D01*
X127508000Y-133001345D01*
X128081489Y-132887271D01*
X128567670Y-132562415D01*
X128778000Y-132247634D01*
X128988330Y-132562415D01*
X129474511Y-132887271D01*
X130048000Y-133001345D01*
X130621489Y-132887271D01*
X131107670Y-132562415D01*
X131318000Y-132247634D01*
X131528330Y-132562415D01*
X132014511Y-132887271D01*
X132588000Y-133001345D01*
X133161489Y-132887271D01*
X133647670Y-132562415D01*
X133858000Y-132247634D01*
X134068330Y-132562415D01*
X134554511Y-132887271D01*
X135128000Y-133001345D01*
X135701489Y-132887271D01*
X136187670Y-132562415D01*
X136197243Y-132548087D01*
X136201238Y-132569317D01*
X136340310Y-132785441D01*
X136552510Y-132930431D01*
X136804400Y-132981440D01*
X138531600Y-132981440D01*
X138766917Y-132937162D01*
X138983041Y-132798090D01*
X139128031Y-132585890D01*
X139179040Y-132334000D01*
X139179040Y-130302000D01*
X139134762Y-130066683D01*
X138995690Y-129850559D01*
X138783490Y-129705569D01*
X138726206Y-129693969D01*
X139603815Y-128816360D01*
X139768996Y-128569149D01*
X139795563Y-128435586D01*
X139827000Y-128277544D01*
X139827000Y-120636083D01*
X139893540Y-120569659D01*
X140042730Y-120210370D01*
X140043069Y-119821337D01*
X139894507Y-119461788D01*
X139619659Y-119186460D01*
X139497780Y-119135851D01*
X139692717Y-118940914D01*
X139857898Y-118693703D01*
X139915902Y-118402098D01*
X139915902Y-110070902D01*
X139857898Y-109779297D01*
X139831995Y-109740530D01*
X139692717Y-109532086D01*
X133999815Y-103839185D01*
X133784792Y-103695511D01*
X133752605Y-103674004D01*
X133461000Y-103616000D01*
X129780083Y-103616000D01*
X129713659Y-103549460D01*
X129354370Y-103400270D01*
X128965337Y-103399931D01*
X128605788Y-103548493D01*
X128397000Y-103756917D01*
X128397000Y-103545433D01*
X128338996Y-103253828D01*
X128173815Y-103006618D01*
X127096582Y-101929385D01*
X127127884Y-101854000D01*
X136048155Y-101854000D01*
X136173830Y-102485810D01*
X136400999Y-102825792D01*
X136264059Y-102913910D01*
X136119069Y-103126110D01*
X136068060Y-103378000D01*
X136068060Y-105410000D01*
X136112338Y-105645317D01*
X136251410Y-105861441D01*
X136463610Y-106006431D01*
X136715500Y-106057440D01*
X138747500Y-106057440D01*
X138982817Y-106013162D01*
X139198941Y-105874090D01*
X139343931Y-105661890D01*
X139394940Y-105410000D01*
X139394940Y-103378000D01*
X139350662Y-103142683D01*
X139211590Y-102926559D01*
X139062663Y-102824802D01*
X139289170Y-102485810D01*
X139414845Y-101854000D01*
X139289170Y-101222190D01*
X138931278Y-100686567D01*
X138395655Y-100328675D01*
X137763845Y-100203000D01*
X137699155Y-100203000D01*
X137067345Y-100328675D01*
X136531722Y-100686567D01*
X136173830Y-101222190D01*
X136048155Y-101854000D01*
X127127884Y-101854000D01*
X127152230Y-101795370D01*
X127152569Y-101406337D01*
X127004007Y-101046788D01*
X126729159Y-100771460D01*
X126369870Y-100622270D01*
X125980837Y-100621931D01*
X125621288Y-100770493D01*
X125345960Y-101045341D01*
X125196770Y-101404630D01*
X125196431Y-101793663D01*
X125344993Y-102153212D01*
X125446260Y-102254656D01*
X125470504Y-102376538D01*
X125604937Y-102577730D01*
X125635685Y-102623748D01*
X126873000Y-103861063D01*
X126873000Y-104078369D01*
X126522815Y-103728185D01*
X126473915Y-103695511D01*
X126275605Y-103563004D01*
X125984000Y-103505000D01*
X121174700Y-103505000D01*
X120883095Y-103563004D01*
X120684784Y-103695511D01*
X119983497Y-103695511D01*
X119691892Y-103753515D01*
X119592874Y-103819677D01*
X119444682Y-103918695D01*
X119109076Y-104254302D01*
X115717242Y-104254302D01*
X115425637Y-104312306D01*
X115178426Y-104477487D01*
X114880904Y-104775010D01*
X113541372Y-104775010D01*
X113593309Y-104667191D01*
X113595958Y-104651426D01*
X113474817Y-104419400D01*
X112115600Y-104419400D01*
X112115600Y-104439400D01*
X111861600Y-104439400D01*
X111861600Y-104419400D01*
X110502383Y-104419400D01*
X110381242Y-104651426D01*
X110383891Y-104667191D01*
X110547355Y-105006534D01*
X109443185Y-106110705D01*
X109278004Y-106357915D01*
X109220000Y-106649520D01*
X109220000Y-112547400D01*
X109278004Y-112839005D01*
X109394869Y-113013905D01*
X109443185Y-113086215D01*
X110388893Y-114031923D01*
X110305255Y-114452400D01*
X110419329Y-115025889D01*
X110744185Y-115512070D01*
X110758513Y-115521643D01*
X110737283Y-115525638D01*
X110521159Y-115664710D01*
X110376169Y-115876910D01*
X110325160Y-116128800D01*
X110325160Y-117856000D01*
X110369438Y-118091317D01*
X110508510Y-118307441D01*
X110720710Y-118452431D01*
X110972600Y-118503440D01*
X111842022Y-118503440D01*
X111729185Y-118616277D01*
X111564004Y-118863487D01*
X111506000Y-119155092D01*
X111506000Y-126318688D01*
X111208330Y-126517585D01*
X111198757Y-126531913D01*
X111194762Y-126510683D01*
X111055690Y-126294559D01*
X110843490Y-126149569D01*
X110591600Y-126098560D01*
X108864400Y-126098560D01*
X108629083Y-126142838D01*
X108412959Y-126281910D01*
X108267969Y-126494110D01*
X108216960Y-126746000D01*
X106247000Y-126746000D01*
X106247000Y-103933374D01*
X110381242Y-103933374D01*
X110502383Y-104165400D01*
X111861600Y-104165400D01*
X111861600Y-102951476D01*
X112115600Y-102951476D01*
X112115600Y-104165400D01*
X113474817Y-104165400D01*
X113595958Y-103933374D01*
X113593309Y-103917609D01*
X113339332Y-103390364D01*
X112902920Y-103000446D01*
X112350513Y-102807216D01*
X112115600Y-102951476D01*
X111861600Y-102951476D01*
X111626687Y-102807216D01*
X111074280Y-103000446D01*
X110637868Y-103390364D01*
X110383891Y-103917609D01*
X110381242Y-103933374D01*
X106247000Y-103933374D01*
X106247000Y-92584944D01*
X111678025Y-92584944D01*
X111877615Y-93066818D01*
X112315621Y-93539188D01*
X112901054Y-93807983D01*
X113157000Y-93689367D01*
X113157000Y-92329000D01*
X113411000Y-92329000D01*
X113411000Y-93689367D01*
X113666946Y-93807983D01*
X114252379Y-93539188D01*
X114690385Y-93066818D01*
X114889975Y-92584944D01*
X114770836Y-92329000D01*
X113411000Y-92329000D01*
X113157000Y-92329000D01*
X111797164Y-92329000D01*
X111678025Y-92584944D01*
X106247000Y-92584944D01*
X106247000Y-88646000D01*
X111620560Y-88646000D01*
X111620560Y-90678000D01*
X111664838Y-90913317D01*
X111803910Y-91129441D01*
X111966948Y-91240840D01*
X111877615Y-91337182D01*
X111678025Y-91819056D01*
X111797164Y-92075000D01*
X113157000Y-92075000D01*
X113157000Y-92055000D01*
X113411000Y-92055000D01*
X113411000Y-92075000D01*
X114770836Y-92075000D01*
X114889975Y-91819056D01*
X114690385Y-91337182D01*
X114599903Y-91239602D01*
X114751441Y-91142090D01*
X114896431Y-90929890D01*
X114947440Y-90678000D01*
X114947440Y-88646000D01*
X114903162Y-88410683D01*
X114764090Y-88194559D01*
X114551890Y-88049569D01*
X114300000Y-87998560D01*
X112268000Y-87998560D01*
X112032683Y-88042838D01*
X111816559Y-88181910D01*
X111671569Y-88394110D01*
X111620560Y-88646000D01*
X106247000Y-88646000D01*
X106247000Y-87832000D01*
X140387000Y-87832000D01*
X140387000Y-134672000D01*
X140387000Y-134672000D01*
G37*
X140387000Y-134672000D02*
X106247000Y-134672000D01*
X106247000Y-131679913D01*
X108242816Y-131679913D01*
X108436046Y-132232320D01*
X108825964Y-132668732D01*
X109353209Y-132922709D01*
X109368974Y-132925358D01*
X109601000Y-132804217D01*
X109601000Y-131445000D01*
X108387076Y-131445000D01*
X108242816Y-131679913D01*
X106247000Y-131679913D01*
X106247000Y-130956087D01*
X108242816Y-130956087D01*
X108387076Y-131191000D01*
X109601000Y-131191000D01*
X109601000Y-129831783D01*
X109368974Y-129710642D01*
X109353209Y-129713291D01*
X108825964Y-129967268D01*
X108436046Y-130403680D01*
X108242816Y-130956087D01*
X106247000Y-130956087D01*
X106247000Y-126746000D01*
X108216960Y-126746000D01*
X108216960Y-128778000D01*
X108261238Y-129013317D01*
X108400310Y-129229441D01*
X108612510Y-129374431D01*
X108864400Y-129425440D01*
X110591600Y-129425440D01*
X110826917Y-129381162D01*
X111043041Y-129242090D01*
X111188031Y-129029890D01*
X111196400Y-128988561D01*
X111208330Y-129006415D01*
X111694511Y-129331271D01*
X112268000Y-129445345D01*
X112841489Y-129331271D01*
X113327670Y-129006415D01*
X113538000Y-128691634D01*
X113748330Y-129006415D01*
X114234511Y-129331271D01*
X114808000Y-129445345D01*
X115381489Y-129331271D01*
X115703980Y-129115789D01*
X115122547Y-129697222D01*
X114808000Y-129634655D01*
X114234511Y-129748729D01*
X113748330Y-130073585D01*
X113538000Y-130388366D01*
X113327670Y-130073585D01*
X112841489Y-129748729D01*
X112268000Y-129634655D01*
X111694511Y-129748729D01*
X111208330Y-130073585D01*
X111001539Y-130383069D01*
X110630036Y-129967268D01*
X110102791Y-129713291D01*
X110087026Y-129710642D01*
X109855000Y-129831783D01*
X109855000Y-131191000D01*
X109875000Y-131191000D01*
X109875000Y-131445000D01*
X109855000Y-131445000D01*
X109855000Y-132804217D01*
X110087026Y-132925358D01*
X110102791Y-132922709D01*
X110630036Y-132668732D01*
X111001539Y-132252931D01*
X111208330Y-132562415D01*
X111694511Y-132887271D01*
X112268000Y-133001345D01*
X112841489Y-132887271D01*
X113327670Y-132562415D01*
X113538000Y-132247634D01*
X113748330Y-132562415D01*
X114234511Y-132887271D01*
X114808000Y-133001345D01*
X115381489Y-132887271D01*
X115867670Y-132562415D01*
X116078000Y-132247634D01*
X116288330Y-132562415D01*
X116774511Y-132887271D01*
X117348000Y-133001345D01*
X117921489Y-132887271D01*
X118407670Y-132562415D01*
X118618000Y-132247634D01*
X118828330Y-132562415D01*
X119314511Y-132887271D01*
X119888000Y-133001345D01*
X120461489Y-132887271D01*
X120947670Y-132562415D01*
X121158000Y-132247634D01*
X121368330Y-132562415D01*
X121854511Y-132887271D01*
X122428000Y-133001345D01*
X123001489Y-132887271D01*
X123487670Y-132562415D01*
X123698000Y-132247634D01*
X123908330Y-132562415D01*
X124394511Y-132887271D01*
X124968000Y-133001345D01*
X125541489Y-132887271D01*
X126027670Y-132562415D01*
X126238000Y-132247634D01*
X126448330Y-132562415D01*
X126934511Y-132887271D01*
X127508000Y-133001345D01*
X128081489Y-132887271D01*
X128567670Y-132562415D01*
X128778000Y-132247634D01*
X128988330Y-132562415D01*
X129474511Y-132887271D01*
X130048000Y-133001345D01*
X130621489Y-132887271D01*
X131107670Y-132562415D01*
X131318000Y-132247634D01*
X131528330Y-132562415D01*
X132014511Y-132887271D01*
X132588000Y-133001345D01*
X133161489Y-132887271D01*
X133647670Y-132562415D01*
X133858000Y-132247634D01*
X134068330Y-132562415D01*
X134554511Y-132887271D01*
X135128000Y-133001345D01*
X135701489Y-132887271D01*
X136187670Y-132562415D01*
X136197243Y-132548087D01*
X136201238Y-132569317D01*
X136340310Y-132785441D01*
X136552510Y-132930431D01*
X136804400Y-132981440D01*
X138531600Y-132981440D01*
X138766917Y-132937162D01*
X138983041Y-132798090D01*
X139128031Y-132585890D01*
X139179040Y-132334000D01*
X139179040Y-130302000D01*
X139134762Y-130066683D01*
X138995690Y-129850559D01*
X138783490Y-129705569D01*
X138726206Y-129693969D01*
X139603815Y-128816360D01*
X139768996Y-128569149D01*
X139795563Y-128435586D01*
X139827000Y-128277544D01*
X139827000Y-120636083D01*
X139893540Y-120569659D01*
X140042730Y-120210370D01*
X140043069Y-119821337D01*
X139894507Y-119461788D01*
X139619659Y-119186460D01*
X139497780Y-119135851D01*
X139692717Y-118940914D01*
X139857898Y-118693703D01*
X139915902Y-118402098D01*
X139915902Y-110070902D01*
X139857898Y-109779297D01*
X139831995Y-109740530D01*
X139692717Y-109532086D01*
X133999815Y-103839185D01*
X133784792Y-103695511D01*
X133752605Y-103674004D01*
X133461000Y-103616000D01*
X129780083Y-103616000D01*
X129713659Y-103549460D01*
X129354370Y-103400270D01*
X128965337Y-103399931D01*
X128605788Y-103548493D01*
X128397000Y-103756917D01*
X128397000Y-103545433D01*
X128338996Y-103253828D01*
X128173815Y-103006618D01*
X127096582Y-101929385D01*
X127127884Y-101854000D01*
X136048155Y-101854000D01*
X136173830Y-102485810D01*
X136400999Y-102825792D01*
X136264059Y-102913910D01*
X136119069Y-103126110D01*
X136068060Y-103378000D01*
X136068060Y-105410000D01*
X136112338Y-105645317D01*
X136251410Y-105861441D01*
X136463610Y-106006431D01*
X136715500Y-106057440D01*
X138747500Y-106057440D01*
X138982817Y-106013162D01*
X139198941Y-105874090D01*
X139343931Y-105661890D01*
X139394940Y-105410000D01*
X139394940Y-103378000D01*
X139350662Y-103142683D01*
X139211590Y-102926559D01*
X139062663Y-102824802D01*
X139289170Y-102485810D01*
X139414845Y-101854000D01*
X139289170Y-101222190D01*
X138931278Y-100686567D01*
X138395655Y-100328675D01*
X137763845Y-100203000D01*
X137699155Y-100203000D01*
X137067345Y-100328675D01*
X136531722Y-100686567D01*
X136173830Y-101222190D01*
X136048155Y-101854000D01*
X127127884Y-101854000D01*
X127152230Y-101795370D01*
X127152569Y-101406337D01*
X127004007Y-101046788D01*
X126729159Y-100771460D01*
X126369870Y-100622270D01*
X125980837Y-100621931D01*
X125621288Y-100770493D01*
X125345960Y-101045341D01*
X125196770Y-101404630D01*
X125196431Y-101793663D01*
X125344993Y-102153212D01*
X125446260Y-102254656D01*
X125470504Y-102376538D01*
X125604937Y-102577730D01*
X125635685Y-102623748D01*
X126873000Y-103861063D01*
X126873000Y-104078369D01*
X126522815Y-103728185D01*
X126473915Y-103695511D01*
X126275605Y-103563004D01*
X125984000Y-103505000D01*
X121174700Y-103505000D01*
X120883095Y-103563004D01*
X120684784Y-103695511D01*
X119983497Y-103695511D01*
X119691892Y-103753515D01*
X119592874Y-103819677D01*
X119444682Y-103918695D01*
X119109076Y-104254302D01*
X115717242Y-104254302D01*
X115425637Y-104312306D01*
X115178426Y-104477487D01*
X114880904Y-104775010D01*
X113541372Y-104775010D01*
X113593309Y-104667191D01*
X113595958Y-104651426D01*
X113474817Y-104419400D01*
X112115600Y-104419400D01*
X112115600Y-104439400D01*
X111861600Y-104439400D01*
X111861600Y-104419400D01*
X110502383Y-104419400D01*
X110381242Y-104651426D01*
X110383891Y-104667191D01*
X110547355Y-105006534D01*
X109443185Y-106110705D01*
X109278004Y-106357915D01*
X109220000Y-106649520D01*
X109220000Y-112547400D01*
X109278004Y-112839005D01*
X109394869Y-113013905D01*
X109443185Y-113086215D01*
X110388893Y-114031923D01*
X110305255Y-114452400D01*
X110419329Y-115025889D01*
X110744185Y-115512070D01*
X110758513Y-115521643D01*
X110737283Y-115525638D01*
X110521159Y-115664710D01*
X110376169Y-115876910D01*
X110325160Y-116128800D01*
X110325160Y-117856000D01*
X110369438Y-118091317D01*
X110508510Y-118307441D01*
X110720710Y-118452431D01*
X110972600Y-118503440D01*
X111842022Y-118503440D01*
X111729185Y-118616277D01*
X111564004Y-118863487D01*
X111506000Y-119155092D01*
X111506000Y-126318688D01*
X111208330Y-126517585D01*
X111198757Y-126531913D01*
X111194762Y-126510683D01*
X111055690Y-126294559D01*
X110843490Y-126149569D01*
X110591600Y-126098560D01*
X108864400Y-126098560D01*
X108629083Y-126142838D01*
X108412959Y-126281910D01*
X108267969Y-126494110D01*
X108216960Y-126746000D01*
X106247000Y-126746000D01*
X106247000Y-103933374D01*
X110381242Y-103933374D01*
X110502383Y-104165400D01*
X111861600Y-104165400D01*
X111861600Y-102951476D01*
X112115600Y-102951476D01*
X112115600Y-104165400D01*
X113474817Y-104165400D01*
X113595958Y-103933374D01*
X113593309Y-103917609D01*
X113339332Y-103390364D01*
X112902920Y-103000446D01*
X112350513Y-102807216D01*
X112115600Y-102951476D01*
X111861600Y-102951476D01*
X111626687Y-102807216D01*
X111074280Y-103000446D01*
X110637868Y-103390364D01*
X110383891Y-103917609D01*
X110381242Y-103933374D01*
X106247000Y-103933374D01*
X106247000Y-92584944D01*
X111678025Y-92584944D01*
X111877615Y-93066818D01*
X112315621Y-93539188D01*
X112901054Y-93807983D01*
X113157000Y-93689367D01*
X113157000Y-92329000D01*
X113411000Y-92329000D01*
X113411000Y-93689367D01*
X113666946Y-93807983D01*
X114252379Y-93539188D01*
X114690385Y-93066818D01*
X114889975Y-92584944D01*
X114770836Y-92329000D01*
X113411000Y-92329000D01*
X113157000Y-92329000D01*
X111797164Y-92329000D01*
X111678025Y-92584944D01*
X106247000Y-92584944D01*
X106247000Y-88646000D01*
X111620560Y-88646000D01*
X111620560Y-90678000D01*
X111664838Y-90913317D01*
X111803910Y-91129441D01*
X111966948Y-91240840D01*
X111877615Y-91337182D01*
X111678025Y-91819056D01*
X111797164Y-92075000D01*
X113157000Y-92075000D01*
X113157000Y-92055000D01*
X113411000Y-92055000D01*
X113411000Y-92075000D01*
X114770836Y-92075000D01*
X114889975Y-91819056D01*
X114690385Y-91337182D01*
X114599903Y-91239602D01*
X114751441Y-91142090D01*
X114896431Y-90929890D01*
X114947440Y-90678000D01*
X114947440Y-88646000D01*
X114903162Y-88410683D01*
X114764090Y-88194559D01*
X114551890Y-88049569D01*
X114300000Y-87998560D01*
X112268000Y-87998560D01*
X112032683Y-88042838D01*
X111816559Y-88181910D01*
X111671569Y-88394110D01*
X111620560Y-88646000D01*
X106247000Y-88646000D01*
X106247000Y-87832000D01*
X140387000Y-87832000D01*
X140387000Y-134672000D01*
G36*
X138235493Y-120568212D02*
X138303000Y-120635837D01*
X138303000Y-126282635D01*
X138042791Y-126157291D01*
X138027026Y-126154642D01*
X137795000Y-126275783D01*
X137795000Y-127635000D01*
X137815000Y-127635000D01*
X137815000Y-127889000D01*
X137795000Y-127889000D01*
X137795000Y-127909000D01*
X137541000Y-127909000D01*
X137541000Y-127889000D01*
X137521000Y-127889000D01*
X137521000Y-127635000D01*
X137541000Y-127635000D01*
X137541000Y-126275783D01*
X137308974Y-126154642D01*
X137293209Y-126157291D01*
X136765964Y-126411268D01*
X136394461Y-126827069D01*
X136187670Y-126517585D01*
X135701489Y-126192729D01*
X135296049Y-126112082D01*
X135273197Y-125997196D01*
X135108016Y-125749985D01*
X132235417Y-122877387D01*
X132252041Y-122866690D01*
X132397031Y-122654490D01*
X132405864Y-122610869D01*
X132417330Y-122628029D01*
X132903511Y-122952885D01*
X133477000Y-123066959D01*
X134050489Y-122952885D01*
X134536670Y-122628029D01*
X134747000Y-122313248D01*
X134957330Y-122628029D01*
X135443511Y-122952885D01*
X136017000Y-123066959D01*
X136590489Y-122952885D01*
X137076670Y-122628029D01*
X137401526Y-122141848D01*
X137515600Y-121568359D01*
X137515600Y-121509641D01*
X137450628Y-121183003D01*
X138185766Y-120447864D01*
X138235493Y-120568212D01*
X138235493Y-120568212D01*
G37*
X138235493Y-120568212D02*
X138303000Y-120635837D01*
X138303000Y-126282635D01*
X138042791Y-126157291D01*
X138027026Y-126154642D01*
X137795000Y-126275783D01*
X137795000Y-127635000D01*
X137815000Y-127635000D01*
X137815000Y-127889000D01*
X137795000Y-127889000D01*
X137795000Y-127909000D01*
X137541000Y-127909000D01*
X137541000Y-127889000D01*
X137521000Y-127889000D01*
X137521000Y-127635000D01*
X137541000Y-127635000D01*
X137541000Y-126275783D01*
X137308974Y-126154642D01*
X137293209Y-126157291D01*
X136765964Y-126411268D01*
X136394461Y-126827069D01*
X136187670Y-126517585D01*
X135701489Y-126192729D01*
X135296049Y-126112082D01*
X135273197Y-125997196D01*
X135108016Y-125749985D01*
X132235417Y-122877387D01*
X132252041Y-122866690D01*
X132397031Y-122654490D01*
X132405864Y-122610869D01*
X132417330Y-122628029D01*
X132903511Y-122952885D01*
X133477000Y-123066959D01*
X134050489Y-122952885D01*
X134536670Y-122628029D01*
X134747000Y-122313248D01*
X134957330Y-122628029D01*
X135443511Y-122952885D01*
X136017000Y-123066959D01*
X136590489Y-122952885D01*
X137076670Y-122628029D01*
X137401526Y-122141848D01*
X137515600Y-121568359D01*
X137515600Y-121509641D01*
X137450628Y-121183003D01*
X138185766Y-120447864D01*
X138235493Y-120568212D01*
G36*
X128604341Y-105206540D02*
X128963630Y-105355730D01*
X129352663Y-105356069D01*
X129712212Y-105207507D01*
X129779837Y-105140000D01*
X133145370Y-105140000D01*
X138391902Y-110386533D01*
X138391902Y-112941067D01*
X138275378Y-112940965D01*
X138328400Y-112674400D01*
X138270397Y-112382796D01*
X138105216Y-112135585D01*
X137167748Y-111198118D01*
X137145128Y-111183004D01*
X136920538Y-111032937D01*
X136628933Y-110974933D01*
X136398000Y-110974933D01*
X136106395Y-111032937D01*
X135859185Y-111198118D01*
X135823762Y-111251132D01*
X135510499Y-110937869D01*
X135510499Y-110197899D01*
X135452495Y-109906294D01*
X135397516Y-109824012D01*
X135383545Y-109803104D01*
X135383669Y-109661337D01*
X135235107Y-109301788D01*
X134960259Y-109026460D01*
X134600970Y-108877270D01*
X134211937Y-108876931D01*
X133852388Y-109025493D01*
X133577060Y-109300341D01*
X133427870Y-109659630D01*
X133427531Y-110048663D01*
X133576093Y-110408212D01*
X133850941Y-110683540D01*
X133986499Y-110739829D01*
X133986499Y-111253499D01*
X134044503Y-111545104D01*
X134195505Y-111771093D01*
X134209684Y-111792314D01*
X136875185Y-114457816D01*
X137023377Y-114556834D01*
X137122395Y-114622996D01*
X137414000Y-114681000D01*
X137808917Y-114681000D01*
X137875341Y-114747540D01*
X138234630Y-114896730D01*
X138391902Y-114896867D01*
X138391902Y-118086467D01*
X137515600Y-118962770D01*
X137515600Y-118871998D01*
X137351470Y-118871998D01*
X137471968Y-118639973D01*
X137223821Y-118110510D01*
X136791947Y-117716312D01*
X136376026Y-117544042D01*
X136144000Y-117665183D01*
X136144000Y-118872000D01*
X136164000Y-118872000D01*
X136164000Y-119126000D01*
X136144000Y-119126000D01*
X136144000Y-119146000D01*
X135890000Y-119146000D01*
X135890000Y-119126000D01*
X135870000Y-119126000D01*
X135870000Y-118872000D01*
X135890000Y-118872000D01*
X135890000Y-117665183D01*
X135657974Y-117544042D01*
X135483601Y-117616265D01*
X135483601Y-114909601D01*
X135425597Y-114617996D01*
X135260416Y-114370786D01*
X135216987Y-114327357D01*
X135217069Y-114233337D01*
X135068507Y-113873788D01*
X134793659Y-113598460D01*
X134434370Y-113449270D01*
X134045337Y-113448931D01*
X133685788Y-113597493D01*
X133410460Y-113872341D01*
X133261270Y-114231630D01*
X133260931Y-114620663D01*
X133409493Y-114980212D01*
X133684341Y-115255540D01*
X133959601Y-115369838D01*
X133959601Y-117567036D01*
X133477000Y-117471041D01*
X133101385Y-117545755D01*
X131915727Y-116360097D01*
X131892015Y-116344253D01*
X131668517Y-116194916D01*
X131376912Y-116136912D01*
X130992803Y-116136912D01*
X130926379Y-116070372D01*
X130567090Y-115921182D01*
X130178057Y-115920843D01*
X129982986Y-116001444D01*
X133190316Y-112794115D01*
X133355497Y-112546904D01*
X133365039Y-112498933D01*
X133413501Y-112255299D01*
X133413501Y-108072920D01*
X133547612Y-108017507D01*
X133822940Y-107742659D01*
X133972130Y-107383370D01*
X133972469Y-106994337D01*
X133823907Y-106634788D01*
X133549059Y-106359460D01*
X133189770Y-106210270D01*
X132800737Y-106209931D01*
X132441188Y-106358493D01*
X132165860Y-106633341D01*
X132016670Y-106992630D01*
X132016545Y-107135969D01*
X131947505Y-107239294D01*
X131889501Y-107530899D01*
X131889501Y-108662686D01*
X131669459Y-108442260D01*
X131310170Y-108293070D01*
X130921137Y-108292731D01*
X130697565Y-108385109D01*
X130501059Y-108188260D01*
X130141770Y-108039070D01*
X129752737Y-108038731D01*
X129393188Y-108187293D01*
X129158966Y-108421107D01*
X129078659Y-108340660D01*
X128719370Y-108191470D01*
X128420761Y-108191210D01*
X128214035Y-107984123D01*
X128287750Y-107873800D01*
X128338996Y-107797105D01*
X128397000Y-107505500D01*
X128397000Y-104998837D01*
X128604341Y-105206540D01*
X128604341Y-105206540D01*
G37*
X128604341Y-105206540D02*
X128963630Y-105355730D01*
X129352663Y-105356069D01*
X129712212Y-105207507D01*
X129779837Y-105140000D01*
X133145370Y-105140000D01*
X138391902Y-110386533D01*
X138391902Y-112941067D01*
X138275378Y-112940965D01*
X138328400Y-112674400D01*
X138270397Y-112382796D01*
X138105216Y-112135585D01*
X137167748Y-111198118D01*
X137145128Y-111183004D01*
X136920538Y-111032937D01*
X136628933Y-110974933D01*
X136398000Y-110974933D01*
X136106395Y-111032937D01*
X135859185Y-111198118D01*
X135823762Y-111251132D01*
X135510499Y-110937869D01*
X135510499Y-110197899D01*
X135452495Y-109906294D01*
X135397516Y-109824012D01*
X135383545Y-109803104D01*
X135383669Y-109661337D01*
X135235107Y-109301788D01*
X134960259Y-109026460D01*
X134600970Y-108877270D01*
X134211937Y-108876931D01*
X133852388Y-109025493D01*
X133577060Y-109300341D01*
X133427870Y-109659630D01*
X133427531Y-110048663D01*
X133576093Y-110408212D01*
X133850941Y-110683540D01*
X133986499Y-110739829D01*
X133986499Y-111253499D01*
X134044503Y-111545104D01*
X134195505Y-111771093D01*
X134209684Y-111792314D01*
X136875185Y-114457816D01*
X137023377Y-114556834D01*
X137122395Y-114622996D01*
X137414000Y-114681000D01*
X137808917Y-114681000D01*
X137875341Y-114747540D01*
X138234630Y-114896730D01*
X138391902Y-114896867D01*
X138391902Y-118086467D01*
X137515600Y-118962770D01*
X137515600Y-118871998D01*
X137351470Y-118871998D01*
X137471968Y-118639973D01*
X137223821Y-118110510D01*
X136791947Y-117716312D01*
X136376026Y-117544042D01*
X136144000Y-117665183D01*
X136144000Y-118872000D01*
X136164000Y-118872000D01*
X136164000Y-119126000D01*
X136144000Y-119126000D01*
X136144000Y-119146000D01*
X135890000Y-119146000D01*
X135890000Y-119126000D01*
X135870000Y-119126000D01*
X135870000Y-118872000D01*
X135890000Y-118872000D01*
X135890000Y-117665183D01*
X135657974Y-117544042D01*
X135483601Y-117616265D01*
X135483601Y-114909601D01*
X135425597Y-114617996D01*
X135260416Y-114370786D01*
X135216987Y-114327357D01*
X135217069Y-114233337D01*
X135068507Y-113873788D01*
X134793659Y-113598460D01*
X134434370Y-113449270D01*
X134045337Y-113448931D01*
X133685788Y-113597493D01*
X133410460Y-113872341D01*
X133261270Y-114231630D01*
X133260931Y-114620663D01*
X133409493Y-114980212D01*
X133684341Y-115255540D01*
X133959601Y-115369838D01*
X133959601Y-117567036D01*
X133477000Y-117471041D01*
X133101385Y-117545755D01*
X131915727Y-116360097D01*
X131892015Y-116344253D01*
X131668517Y-116194916D01*
X131376912Y-116136912D01*
X130992803Y-116136912D01*
X130926379Y-116070372D01*
X130567090Y-115921182D01*
X130178057Y-115920843D01*
X129982986Y-116001444D01*
X133190316Y-112794115D01*
X133355497Y-112546904D01*
X133365039Y-112498933D01*
X133413501Y-112255299D01*
X133413501Y-108072920D01*
X133547612Y-108017507D01*
X133822940Y-107742659D01*
X133972130Y-107383370D01*
X133972469Y-106994337D01*
X133823907Y-106634788D01*
X133549059Y-106359460D01*
X133189770Y-106210270D01*
X132800737Y-106209931D01*
X132441188Y-106358493D01*
X132165860Y-106633341D01*
X132016670Y-106992630D01*
X132016545Y-107135969D01*
X131947505Y-107239294D01*
X131889501Y-107530899D01*
X131889501Y-108662686D01*
X131669459Y-108442260D01*
X131310170Y-108293070D01*
X130921137Y-108292731D01*
X130697565Y-108385109D01*
X130501059Y-108188260D01*
X130141770Y-108039070D01*
X129752737Y-108038731D01*
X129393188Y-108187293D01*
X129158966Y-108421107D01*
X129078659Y-108340660D01*
X128719370Y-108191470D01*
X128420761Y-108191210D01*
X128214035Y-107984123D01*
X128287750Y-107873800D01*
X128338996Y-107797105D01*
X128397000Y-107505500D01*
X128397000Y-104998837D01*
X128604341Y-105206540D01*
G36*
X119835708Y-106382518D02*
X119670527Y-106629728D01*
X119612523Y-106921333D01*
X119612523Y-110732938D01*
X113652040Y-116693422D01*
X113652040Y-116128800D01*
X113607762Y-115893483D01*
X113468690Y-115677359D01*
X113256490Y-115532369D01*
X113215161Y-115524000D01*
X113233015Y-115512070D01*
X113557871Y-115025889D01*
X113671945Y-114452400D01*
X113557871Y-113878911D01*
X113233015Y-113392730D01*
X112918234Y-113182400D01*
X113233015Y-112972070D01*
X113557871Y-112485889D01*
X113671945Y-111912400D01*
X113596735Y-111534295D01*
X114457816Y-110673215D01*
X114580568Y-110489503D01*
X114622996Y-110426005D01*
X114681000Y-110134400D01*
X114681000Y-108519630D01*
X117015918Y-106184713D01*
X119593046Y-106184713D01*
X119884651Y-106126709D01*
X120006937Y-106045000D01*
X120173225Y-106045000D01*
X119835708Y-106382518D01*
X119835708Y-106382518D01*
G37*
X119835708Y-106382518D02*
X119670527Y-106629728D01*
X119612523Y-106921333D01*
X119612523Y-110732938D01*
X113652040Y-116693422D01*
X113652040Y-116128800D01*
X113607762Y-115893483D01*
X113468690Y-115677359D01*
X113256490Y-115532369D01*
X113215161Y-115524000D01*
X113233015Y-115512070D01*
X113557871Y-115025889D01*
X113671945Y-114452400D01*
X113557871Y-113878911D01*
X113233015Y-113392730D01*
X112918234Y-113182400D01*
X113233015Y-112972070D01*
X113557871Y-112485889D01*
X113671945Y-111912400D01*
X113596735Y-111534295D01*
X114457816Y-110673215D01*
X114580568Y-110489503D01*
X114622996Y-110426005D01*
X114681000Y-110134400D01*
X114681000Y-108519630D01*
X117015918Y-106184713D01*
X119593046Y-106184713D01*
X119884651Y-106126709D01*
X120006937Y-106045000D01*
X120173225Y-106045000D01*
X119835708Y-106382518D01*
G36*
X125476000Y-107122631D02*
X125476000Y-107836917D01*
X125409460Y-107903341D01*
X125260270Y-108262630D01*
X125259931Y-108651663D01*
X125408493Y-109011212D01*
X125430294Y-109033051D01*
X125379978Y-109053841D01*
X125104650Y-109328689D01*
X124955460Y-109687978D01*
X124955377Y-109783531D01*
X122877308Y-111861600D01*
X122075994Y-111861600D01*
X122611215Y-111326379D01*
X122659912Y-111253499D01*
X122776396Y-111079169D01*
X122834400Y-110787564D01*
X122834400Y-107910683D01*
X122900940Y-107844259D01*
X123050130Y-107484970D01*
X123050422Y-107149901D01*
X123575080Y-107149901D01*
X123630493Y-107284012D01*
X123905341Y-107559340D01*
X124264630Y-107708530D01*
X124653663Y-107708869D01*
X125013212Y-107560307D01*
X125288540Y-107285459D01*
X125391316Y-107037947D01*
X125476000Y-107122631D01*
X125476000Y-107122631D01*
G37*
X125476000Y-107122631D02*
X125476000Y-107836917D01*
X125409460Y-107903341D01*
X125260270Y-108262630D01*
X125259931Y-108651663D01*
X125408493Y-109011212D01*
X125430294Y-109033051D01*
X125379978Y-109053841D01*
X125104650Y-109328689D01*
X124955460Y-109687978D01*
X124955377Y-109783531D01*
X122877308Y-111861600D01*
X122075994Y-111861600D01*
X122611215Y-111326379D01*
X122659912Y-111253499D01*
X122776396Y-111079169D01*
X122834400Y-110787564D01*
X122834400Y-107910683D01*
X122900940Y-107844259D01*
X123050130Y-107484970D01*
X123050422Y-107149901D01*
X123575080Y-107149901D01*
X123630493Y-107284012D01*
X123905341Y-107559340D01*
X124264630Y-107708530D01*
X124653663Y-107708869D01*
X125013212Y-107560307D01*
X125288540Y-107285459D01*
X125391316Y-107037947D01*
X125476000Y-107122631D01*
D22*
X129159000Y-104378000D03*
X114886157Y-113700840D03*
X119650603Y-107559963D03*
X139192000Y-129603500D03*
X133667500Y-117094000D03*
X135763000Y-117157500D03*
X122957000Y-110052000D03*
X119126000Y-104394000D03*
X122936000Y-102362000D03*
X134937500Y-104330500D03*
X110998000Y-120269000D03*
X107569000Y-120269000D03*
X118160800Y-107899200D03*
X114401600Y-115747800D03*
X122643920Y-111633000D03*
X135763000Y-108458000D03*
X119634000Y-106553000D03*
X125539500Y-111252000D03*
X126174500Y-101600000D03*
X134239000Y-114427000D03*
X130371720Y-116898912D03*
X124460000Y-106730800D03*
X121098425Y-107268807D03*
X122072400Y-107289600D03*
X120307101Y-115404899D03*
X124409200Y-116128800D03*
X127393680Y-117367263D03*
X128892320Y-118291779D03*
X129286000Y-117398800D03*
X139065000Y-120015000D03*
X138430000Y-113919000D03*
X134405600Y-109855000D03*
X132994400Y-107188000D03*
X125691920Y-125628400D03*
X131114800Y-109270800D03*
X129946400Y-109016800D03*
X124307600Y-122275600D03*
X121107200Y-125476000D03*
X128524000Y-109169200D03*
X120383280Y-118224320D03*
X127609600Y-108762800D03*
X130966289Y-112475089D03*
X125933190Y-109883348D03*
X117906800Y-122072400D03*
X126447800Y-105581200D03*
X126238000Y-108458000D03*
D23*
X111988600Y-116992400D03*
X111988600Y-114452400D03*
X111988600Y-111912400D03*
X111988600Y-109372400D03*
X111988600Y-106832400D03*
X111988600Y-104292400D03*
X109728000Y-127762000D03*
X112268000Y-127762000D03*
X114808000Y-127762000D03*
X117348000Y-127762000D03*
X119888000Y-127762000D03*
X122428000Y-127762000D03*
X124968000Y-127762000D03*
X127508000Y-127762000D03*
X130048000Y-127762000D03*
X132588000Y-127762000D03*
X135128000Y-127762000D03*
X137668000Y-127762000D03*
X130937000Y-121539000D03*
X130937000Y-118999000D03*
X133477000Y-121539000D03*
X133477000Y-118999000D03*
X136017000Y-121539000D03*
X136017000Y-118999000D03*
X113284000Y-89662000D03*
X113284000Y-92202000D03*
X137668000Y-131318000D03*
X135128000Y-131318000D03*
X132588000Y-131318000D03*
X130048000Y-131318000D03*
X127508000Y-131318000D03*
X124968000Y-131318000D03*
X122428000Y-131318000D03*
X119888000Y-131318000D03*
X117348000Y-131318000D03*
X114808000Y-131318000D03*
X112268000Y-131318000D03*
X109728000Y-131318000D03*
X137731500Y-104394000D03*
X137731500Y-101854000D03*
M02*
