G04 #@! TF.FileFunction,Other,User*
%FSLAX46Y46*%
G04 Gerber Fmt 4.6, Leading zero omitted, Abs format (unit mm)*
G04 Created by KiCad (PCBNEW 4.0.1-3.201512221402+6198~38~ubuntu14.04.1-stable) date Fri 22 Jul 2016 08:32:17 PM PDT*
%MOMM*%
G01*
G04 APERTURE LIST*
%ADD10C,0.100000*%
%ADD11C,0.050000*%
G04 APERTURE END LIST*
D10*
D11*
X129187000Y-123289000D02*
X137787000Y-123289000D01*
X129187000Y-117239000D02*
X137787000Y-117239000D01*
X129187000Y-123289000D02*
X129187000Y-117239000D01*
X137787000Y-123289000D02*
X137787000Y-117239000D01*
X113738600Y-118742400D02*
X113738600Y-102542400D01*
X110238600Y-118742400D02*
X110238600Y-102542400D01*
X113738600Y-118742400D02*
X110238600Y-118742400D01*
X113738600Y-102542400D02*
X110238600Y-102542400D01*
X113157000Y-112115600D02*
X113157000Y-111861600D01*
X117729000Y-112115600D02*
X113157000Y-112115600D01*
X117729000Y-111861600D02*
X117729000Y-112115600D01*
X113157000Y-105003600D02*
X113157000Y-111861600D01*
X117729000Y-105003600D02*
X113157000Y-105003600D01*
X117729000Y-111861600D02*
X117729000Y-105003600D01*
X121584720Y-100711000D02*
X121584720Y-92583000D01*
X134284720Y-100711000D02*
X121584720Y-100711000D01*
X134284720Y-92583000D02*
X134284720Y-100711000D01*
X121584720Y-92583000D02*
X134284720Y-92583000D01*
X126377000Y-118045000D02*
X126377000Y-120945000D01*
X127877000Y-118045000D02*
X126377000Y-118045000D01*
X127877000Y-120945000D02*
X126377000Y-120945000D01*
X127877000Y-118045000D02*
X127877000Y-120945000D01*
X128889000Y-101070000D02*
X128889000Y-104670000D01*
X126889000Y-101070000D02*
X126889000Y-104670000D01*
X128889000Y-101070000D02*
X126889000Y-101070000D01*
X128889000Y-104670000D02*
X126889000Y-104670000D01*
X121486000Y-121146000D02*
X124386000Y-121146000D01*
X121486000Y-119646000D02*
X121486000Y-121146000D01*
X124386000Y-119646000D02*
X124386000Y-121146000D01*
X121486000Y-119646000D02*
X124386000Y-119646000D01*
X136903400Y-129466400D02*
X110503400Y-129466400D01*
X136903400Y-132966400D02*
X110503400Y-132966400D01*
X136903400Y-129466400D02*
X136903400Y-132966400D01*
X110503400Y-129466400D02*
X110503400Y-132966400D01*
X110518000Y-129512000D02*
X136918000Y-129512000D01*
X110518000Y-126012000D02*
X136918000Y-126012000D01*
X110518000Y-129512000D02*
X110518000Y-126012000D01*
X136918000Y-129512000D02*
X136918000Y-126012000D01*
X109984000Y-87912000D02*
X109984000Y-93962000D01*
X116584000Y-87912000D02*
X116584000Y-93962000D01*
X109984000Y-87912000D02*
X116584000Y-87919560D01*
X109984000Y-93962000D02*
X116584000Y-93962000D01*
X138736000Y-91893000D02*
X138736000Y-88193000D01*
X132536000Y-91893000D02*
X132536000Y-88193000D01*
X138736000Y-88193000D02*
X132536000Y-88193000D01*
X138736000Y-91893000D02*
X132536000Y-91893000D01*
X114840000Y-103322000D02*
X114840000Y-96322000D01*
X114840000Y-96322000D02*
X118840000Y-96322000D01*
X118840000Y-96322000D02*
X118840000Y-103322000D01*
X118840000Y-103322000D02*
X114840000Y-103322000D01*
X128976000Y-91916000D02*
X121976000Y-91916000D01*
X121976000Y-91916000D02*
X121976000Y-87916000D01*
X121976000Y-87916000D02*
X128976000Y-87916000D01*
X128976000Y-87916000D02*
X128976000Y-91916000D01*
X121253000Y-87940000D02*
X121253000Y-94940000D01*
X121253000Y-94940000D02*
X117253000Y-94940000D01*
X117253000Y-94940000D02*
X117253000Y-87940000D01*
X117253000Y-87940000D02*
X121253000Y-87940000D01*
X135648000Y-113485000D02*
X135648000Y-116385000D01*
X137148000Y-113485000D02*
X135648000Y-113485000D01*
X137148000Y-116385000D02*
X135648000Y-116385000D01*
X137148000Y-113485000D02*
X137148000Y-116385000D01*
X120892000Y-111178000D02*
X120892000Y-108278000D01*
X119392000Y-111178000D02*
X120892000Y-111178000D01*
X119392000Y-108278000D02*
X120892000Y-108278000D01*
X119392000Y-111178000D02*
X119392000Y-108278000D01*
X122670000Y-111190000D02*
X122670000Y-108290000D01*
X121170000Y-111190000D02*
X122670000Y-111190000D01*
X121170000Y-108290000D02*
X122670000Y-108290000D01*
X121170000Y-111190000D02*
X121170000Y-108290000D01*
X112917000Y-99009000D02*
X108317000Y-99009000D01*
X112917000Y-95809000D02*
X108317000Y-95809000D01*
X112917000Y-99009000D02*
X112917000Y-95809000D01*
X108317000Y-99009000D02*
X108317000Y-95809000D01*
X137148000Y-112194000D02*
X137148000Y-109294000D01*
X135648000Y-112194000D02*
X137148000Y-112194000D01*
X135648000Y-109294000D02*
X137148000Y-109294000D01*
X135648000Y-112194000D02*
X135648000Y-109294000D01*
X118925000Y-115582000D02*
X116025000Y-115582000D01*
X118925000Y-117082000D02*
X118925000Y-115582000D01*
X116025000Y-117082000D02*
X116025000Y-115582000D01*
X118925000Y-117082000D02*
X116025000Y-117082000D01*
X115910000Y-107557000D02*
X118810000Y-107557000D01*
X115910000Y-106057000D02*
X115910000Y-107557000D01*
X118810000Y-106057000D02*
X118810000Y-107557000D01*
X115910000Y-106057000D02*
X118810000Y-106057000D01*
X138506000Y-93712000D02*
X138506000Y-98312000D01*
X135306000Y-93712000D02*
X135306000Y-98312000D01*
X138506000Y-93712000D02*
X135306000Y-93712000D01*
X138506000Y-98312000D02*
X135306000Y-98312000D01*
X123624000Y-103517000D02*
X120724000Y-103517000D01*
X123624000Y-105017000D02*
X123624000Y-103517000D01*
X120724000Y-105017000D02*
X120724000Y-103517000D01*
X123624000Y-105017000D02*
X120724000Y-105017000D01*
X129257000Y-102743000D02*
X129257000Y-105791000D01*
X134337000Y-102743000D02*
X129257000Y-102743000D01*
X134337000Y-105791000D02*
X134337000Y-102743000D01*
X129257000Y-105791000D02*
X134337000Y-105791000D01*
X123147800Y-105901200D02*
X123147800Y-116501200D01*
X133747800Y-105901200D02*
X133747800Y-116501200D01*
X123147800Y-105901200D02*
X133747800Y-105901200D01*
X123147800Y-116501200D02*
X133747800Y-116501200D01*
M02*
