M48
;DRILL file {KiCad 4.0.1-3.201512221402+6198~38~ubuntu14.04.1-stable} date Sat 13 Aug 2016 03:05:44 PM PDT
;FORMAT={-:-/ absolute / inch / decimal}
FMAT,2
INCH,TZ
T1C0.013
T2C0.040
%
G90
G05
M72
T1
X4.504Y-4.557
X4.522Y-4.403
X4.632Y-4.368
X4.642Y-4.806
X4.652Y-4.248
X4.71Y-4.195
X4.7107Y-4.2346
X4.73Y-4.155
X4.7365Y-4.5435
X4.7395Y-4.6545
X4.7677Y-4.2232
X4.768Y-4.94
X4.806Y-4.224
X4.8285Y-4.395
X4.894Y-4.814
X4.898Y-4.572
X4.9Y-4.202
X4.9485Y-4.946
X4.9633Y-4.3261
X4.9912Y-4.1427
X5.0155Y-4.6208
X5.024Y-4.282
X5.06Y-4.298
X5.0745Y-4.6572
X5.085Y-4.1094
X5.09Y-4.622
X5.116Y-4.292
X5.1327Y-4.6023
X5.1562Y-4.4282
X5.162Y-4.302
X5.236Y-4.22
X5.285Y-4.505
X5.318Y-4.328
X5.345Y-4.27
X5.416Y-4.436
X5.418Y-4.912
T2
X4.409Y-4.106
X4.409Y-4.206
X4.409Y-4.306
X4.409Y-4.406
X4.409Y-4.506
X4.409Y-4.606
X4.42Y-5.03
X4.421Y-5.166
X4.46Y-3.53
X4.46Y-3.63
X4.52Y-5.03
X4.521Y-5.166
X4.62Y-5.03
X4.621Y-5.166
X4.72Y-5.03
X4.721Y-5.166
X4.82Y-5.03
X4.821Y-5.166
X4.92Y-5.03
X4.921Y-5.166
X5.02Y-5.03
X5.021Y-5.166
X5.12Y-5.03
X5.121Y-5.166
X5.155Y-4.685
X5.155Y-4.785
X5.22Y-5.03
X5.221Y-5.166
X5.255Y-4.685
X5.255Y-4.785
X5.32Y-5.03
X5.321Y-5.166
X5.355Y-4.685
X5.355Y-4.785
T0
M30
