G04 #@! TF.FileFunction,Other,Fab,Top*
%FSLAX46Y46*%
G04 Gerber Fmt 4.6, Leading zero omitted, Abs format (unit mm)*
G04 Created by KiCad (PCBNEW 4.0.1-3.201512221402+6198~38~ubuntu14.04.1-stable) date Sat 13 Aug 2016 03:05:42 PM PDT*
%MOMM*%
G01*
G04 APERTURE LIST*
%ADD10C,0.100000*%
%ADD11C,0.050000*%
%ADD12C,0.200000*%
%ADD13C,0.300000*%
%ADD14C,0.150000*%
%ADD15C,0.177800*%
G04 APERTURE END LIST*
D10*
D11*
X118973600Y-108229400D02*
X118973600Y-115341400D01*
X114401600Y-108229400D02*
X118973600Y-108229400D01*
X114401600Y-115341400D02*
X114401600Y-108229400D01*
X118973600Y-115341400D02*
X114401600Y-115341400D01*
D12*
X115671600Y-109499400D02*
G75*
G03X115671600Y-109499400I-254000J0D01*
G01*
D11*
X137795000Y-117221000D02*
X129159000Y-117221000D01*
X137795000Y-123317000D02*
X137795000Y-117221000D01*
X129159000Y-123317000D02*
X137795000Y-123317000D01*
X129159000Y-117221000D02*
X129159000Y-123317000D01*
D12*
X131191000Y-121539000D02*
G75*
G03X131191000Y-121539000I-254000J0D01*
G01*
D13*
X112347810Y-116992400D02*
G75*
G03X112347810Y-116992400I-359210J0D01*
G01*
D11*
X113738600Y-118742400D02*
X113738600Y-102542400D01*
X113748600Y-118732400D02*
X110248600Y-118732400D01*
X110258600Y-118752400D02*
X110258600Y-102552400D01*
X113758600Y-102562400D02*
X110258600Y-102562400D01*
X121584720Y-100711000D02*
X121584720Y-92583000D01*
X134284720Y-100711000D02*
X121584720Y-100711000D01*
X134284720Y-100457000D02*
X134284720Y-100711000D01*
X134284720Y-92583000D02*
X134284720Y-100457000D01*
X121584720Y-92583000D02*
X134284720Y-92583000D01*
X127877000Y-118045000D02*
X127877000Y-120945000D01*
X127877000Y-118045000D02*
X126377000Y-118045000D01*
X127877000Y-120945000D02*
X126377000Y-120945000D01*
X126377000Y-118045000D02*
X126377000Y-120945000D01*
X126873000Y-104648000D02*
X128905000Y-104648000D01*
X126873000Y-101092000D02*
X126873000Y-104648000D01*
X128905000Y-101092000D02*
X126873000Y-101092000D01*
X128905000Y-104648000D02*
X128905000Y-101092000D01*
X121486000Y-119646000D02*
X124386000Y-119646000D01*
X121486000Y-119646000D02*
X121486000Y-121146000D01*
X124386000Y-119646000D02*
X124386000Y-121146000D01*
X121486000Y-121146000D02*
X124386000Y-121146000D01*
X109984000Y-87912000D02*
X116584000Y-87919560D01*
X109984000Y-87912000D02*
X109984000Y-93962000D01*
X116584000Y-87912000D02*
X116584000Y-93962000D01*
X109984000Y-93962000D02*
X116584000Y-93962000D01*
X138736000Y-91893000D02*
X132536000Y-91893000D01*
X138736000Y-88193000D02*
X132536000Y-88193000D01*
X132536000Y-91893000D02*
X132536000Y-88193000D01*
X138736000Y-91893000D02*
X138736000Y-88193000D01*
D10*
X115316000Y-102870000D02*
X118364000Y-102870000D01*
D11*
X118840000Y-103322000D02*
X114840000Y-103322000D01*
X118840000Y-96322000D02*
X118840000Y-103322000D01*
X114840000Y-96322000D02*
X118840000Y-96322000D01*
X114840000Y-103322000D02*
X114840000Y-96322000D01*
D10*
X128524000Y-91440000D02*
X128524000Y-88392000D01*
D11*
X128976000Y-87916000D02*
X128976000Y-91916000D01*
X121976000Y-87916000D02*
X128976000Y-87916000D01*
X121976000Y-91916000D02*
X121976000Y-87916000D01*
X128976000Y-91916000D02*
X121976000Y-91916000D01*
D10*
X120777000Y-88392000D02*
X117729000Y-88392000D01*
D11*
X117253000Y-87940000D02*
X121253000Y-87940000D01*
X117253000Y-94940000D02*
X117253000Y-87940000D01*
X121253000Y-94940000D02*
X117253000Y-94940000D01*
X121253000Y-87940000D02*
X121253000Y-94940000D01*
X137148000Y-113485000D02*
X137148000Y-116385000D01*
X137148000Y-113485000D02*
X135648000Y-113485000D01*
X137148000Y-116385000D02*
X135648000Y-116385000D01*
X135648000Y-113485000D02*
X135648000Y-116385000D01*
X119392000Y-111178000D02*
X119392000Y-108278000D01*
X119392000Y-111178000D02*
X120892000Y-111178000D01*
X119392000Y-108278000D02*
X120892000Y-108278000D01*
X120892000Y-111178000D02*
X120892000Y-108278000D01*
X121170000Y-111190000D02*
X121170000Y-108290000D01*
X121170000Y-111190000D02*
X122670000Y-111190000D01*
X121170000Y-108290000D02*
X122670000Y-108290000D01*
X122670000Y-111190000D02*
X122670000Y-108290000D01*
X112917000Y-99009000D02*
X112917000Y-95809000D01*
X112917000Y-99009000D02*
X108317000Y-99009000D01*
X108317000Y-99009000D02*
X108317000Y-95809000D01*
X112917000Y-95809000D02*
X108317000Y-95809000D01*
X135648000Y-112194000D02*
X135648000Y-109294000D01*
X135648000Y-112194000D02*
X137148000Y-112194000D01*
X135648000Y-109294000D02*
X137148000Y-109294000D01*
X137148000Y-112194000D02*
X137148000Y-109294000D01*
X118925000Y-117082000D02*
X116025000Y-117082000D01*
X118925000Y-117082000D02*
X118925000Y-115582000D01*
X116025000Y-117082000D02*
X116025000Y-115582000D01*
X118925000Y-115582000D02*
X116025000Y-115582000D01*
X115910000Y-106057000D02*
X118810000Y-106057000D01*
X115910000Y-106057000D02*
X115910000Y-107557000D01*
X118810000Y-106057000D02*
X118810000Y-107557000D01*
X115910000Y-107557000D02*
X118810000Y-107557000D01*
X138506000Y-93712000D02*
X135306000Y-93712000D01*
X138506000Y-93712000D02*
X138506000Y-98312000D01*
X138506000Y-98312000D02*
X135306000Y-98312000D01*
X135306000Y-93712000D02*
X135306000Y-98312000D01*
X123624000Y-105017000D02*
X120724000Y-105017000D01*
X123624000Y-105017000D02*
X123624000Y-103517000D01*
X120724000Y-105017000D02*
X120724000Y-103517000D01*
X123624000Y-103517000D02*
X120724000Y-103517000D01*
X134337000Y-105791000D02*
X129257000Y-105791000D01*
X134337000Y-102743000D02*
X134337000Y-105791000D01*
X129257000Y-102743000D02*
X134337000Y-102743000D01*
X129257000Y-105791000D02*
X129257000Y-102743000D01*
D14*
X115885981Y-112594924D02*
X116885981Y-111928257D01*
X115885981Y-111928257D02*
X116885981Y-112594924D01*
X116885981Y-111023495D02*
X116885981Y-111594924D01*
X116885981Y-111309210D02*
X115885981Y-111309210D01*
X116028838Y-111404448D01*
X116124076Y-111499686D01*
X116171695Y-111594924D01*
X132929381Y-120602333D02*
X133643667Y-120602333D01*
X133786524Y-120649953D01*
X133881762Y-120745191D01*
X133929381Y-120888048D01*
X133929381Y-120983286D01*
X132929381Y-120221381D02*
X132929381Y-119602333D01*
X133310333Y-119935667D01*
X133310333Y-119792809D01*
X133357952Y-119697571D01*
X133405571Y-119649952D01*
X133500810Y-119602333D01*
X133738905Y-119602333D01*
X133834143Y-119649952D01*
X133881762Y-119697571D01*
X133929381Y-119792809D01*
X133929381Y-120078524D01*
X133881762Y-120173762D01*
X133834143Y-120221381D01*
X111270981Y-108935733D02*
X111985267Y-108935733D01*
X112128124Y-108983353D01*
X112223362Y-109078591D01*
X112270981Y-109221448D01*
X112270981Y-109316686D01*
X111366219Y-108507162D02*
X111318600Y-108459543D01*
X111270981Y-108364305D01*
X111270981Y-108126209D01*
X111318600Y-108030971D01*
X111366219Y-107983352D01*
X111461457Y-107935733D01*
X111556695Y-107935733D01*
X111699552Y-107983352D01*
X112270981Y-108554781D01*
X112270981Y-107935733D01*
D15*
X124838339Y-97370295D02*
X125660815Y-97370295D01*
X125757577Y-97321914D01*
X125805958Y-97273533D01*
X125854339Y-97176771D01*
X125854339Y-96983248D01*
X125805958Y-96886486D01*
X125757577Y-96838105D01*
X125660815Y-96789724D01*
X124838339Y-96789724D01*
X125854339Y-95773724D02*
X125854339Y-96354295D01*
X125854339Y-96064009D02*
X124838339Y-96064009D01*
X124983482Y-96160771D01*
X125080244Y-96257533D01*
X125128625Y-96354295D01*
D14*
X127448905Y-119718333D02*
X127067952Y-119985000D01*
X127448905Y-120175476D02*
X126648905Y-120175476D01*
X126648905Y-119870714D01*
X126687000Y-119794523D01*
X126725095Y-119756428D01*
X126801286Y-119718333D01*
X126915571Y-119718333D01*
X126991762Y-119756428D01*
X127029857Y-119794523D01*
X127067952Y-119870714D01*
X127067952Y-120175476D01*
X126725095Y-119413571D02*
X126687000Y-119375476D01*
X126648905Y-119299285D01*
X126648905Y-119108809D01*
X126687000Y-119032619D01*
X126725095Y-118994523D01*
X126801286Y-118956428D01*
X126877476Y-118956428D01*
X126991762Y-118994523D01*
X127448905Y-119451666D01*
X127448905Y-118956428D01*
X128341381Y-103036666D02*
X127865190Y-103370000D01*
X128341381Y-103608095D02*
X127341381Y-103608095D01*
X127341381Y-103227142D01*
X127389000Y-103131904D01*
X127436619Y-103084285D01*
X127531857Y-103036666D01*
X127674714Y-103036666D01*
X127769952Y-103084285D01*
X127817571Y-103131904D01*
X127865190Y-103227142D01*
X127865190Y-103608095D01*
X128341381Y-102084285D02*
X128341381Y-102655714D01*
X128341381Y-102370000D02*
X127341381Y-102370000D01*
X127484238Y-102465238D01*
X127579476Y-102560476D01*
X127627095Y-102655714D01*
X122130762Y-120797905D02*
X121749809Y-120797905D01*
X121749809Y-119997905D01*
X122397428Y-120378857D02*
X122664095Y-120378857D01*
X122778381Y-120797905D02*
X122397428Y-120797905D01*
X122397428Y-119997905D01*
X122778381Y-119997905D01*
X123121238Y-120797905D02*
X123121238Y-119997905D01*
X123311714Y-119997905D01*
X123426000Y-120036000D01*
X123502191Y-120112190D01*
X123540286Y-120188381D01*
X123578381Y-120340762D01*
X123578381Y-120455048D01*
X123540286Y-120607429D01*
X123502191Y-120683619D01*
X123426000Y-120759810D01*
X123311714Y-120797905D01*
X123121238Y-120797905D01*
X124340286Y-120797905D02*
X123883143Y-120797905D01*
X124111714Y-120797905D02*
X124111714Y-119997905D01*
X124035524Y-120112190D01*
X123959333Y-120188381D01*
X123883143Y-120226476D01*
X138705781Y-134121162D02*
X137705781Y-134121162D01*
X137705781Y-133883067D01*
X137753400Y-133740209D01*
X137848638Y-133644971D01*
X137943876Y-133597352D01*
X138134352Y-133549733D01*
X138277210Y-133549733D01*
X138467686Y-133597352D01*
X138562924Y-133644971D01*
X138658162Y-133740209D01*
X138705781Y-133883067D01*
X138705781Y-134121162D01*
X138705781Y-133121162D02*
X137705781Y-133121162D01*
X137753400Y-132121162D02*
X137705781Y-132216400D01*
X137705781Y-132359257D01*
X137753400Y-132502115D01*
X137848638Y-132597353D01*
X137943876Y-132644972D01*
X138134352Y-132692591D01*
X138277210Y-132692591D01*
X138467686Y-132644972D01*
X138562924Y-132597353D01*
X138658162Y-132502115D01*
X138705781Y-132359257D01*
X138705781Y-132264019D01*
X138658162Y-132121162D01*
X138610543Y-132073543D01*
X138277210Y-132073543D01*
X138277210Y-132264019D01*
X137705781Y-131454496D02*
X137705781Y-131264019D01*
X137753400Y-131168781D01*
X137848638Y-131073543D01*
X138039114Y-131025924D01*
X138372448Y-131025924D01*
X138562924Y-131073543D01*
X138658162Y-131168781D01*
X138705781Y-131264019D01*
X138705781Y-131454496D01*
X138658162Y-131549734D01*
X138562924Y-131644972D01*
X138372448Y-131692591D01*
X138039114Y-131692591D01*
X137848638Y-131644972D01*
X137753400Y-131549734D01*
X137705781Y-131454496D01*
X137705781Y-130597353D02*
X138515305Y-130597353D01*
X138610543Y-130549734D01*
X138658162Y-130502115D01*
X138705781Y-130406877D01*
X138705781Y-130216400D01*
X138658162Y-130121162D01*
X138610543Y-130073543D01*
X138515305Y-130025924D01*
X137705781Y-130025924D01*
X137705781Y-129692591D02*
X137705781Y-129121162D01*
X138705781Y-129406877D02*
X137705781Y-129406877D01*
X137801019Y-128835448D02*
X137753400Y-128787829D01*
X137705781Y-128692591D01*
X137705781Y-128454495D01*
X137753400Y-128359257D01*
X137801019Y-128311638D01*
X137896257Y-128264019D01*
X137991495Y-128264019D01*
X138134352Y-128311638D01*
X138705781Y-128883067D01*
X138705781Y-128264019D01*
X109620381Y-130666762D02*
X108620381Y-130666762D01*
X108620381Y-130428667D01*
X108668000Y-130285809D01*
X108763238Y-130190571D01*
X108858476Y-130142952D01*
X109048952Y-130095333D01*
X109191810Y-130095333D01*
X109382286Y-130142952D01*
X109477524Y-130190571D01*
X109572762Y-130285809D01*
X109620381Y-130428667D01*
X109620381Y-130666762D01*
X109620381Y-129666762D02*
X108620381Y-129666762D01*
X108668000Y-128666762D02*
X108620381Y-128762000D01*
X108620381Y-128904857D01*
X108668000Y-129047715D01*
X108763238Y-129142953D01*
X108858476Y-129190572D01*
X109048952Y-129238191D01*
X109191810Y-129238191D01*
X109382286Y-129190572D01*
X109477524Y-129142953D01*
X109572762Y-129047715D01*
X109620381Y-128904857D01*
X109620381Y-128809619D01*
X109572762Y-128666762D01*
X109525143Y-128619143D01*
X109191810Y-128619143D01*
X109191810Y-128809619D01*
X108620381Y-128000096D02*
X108620381Y-127809619D01*
X108668000Y-127714381D01*
X108763238Y-127619143D01*
X108953714Y-127571524D01*
X109287048Y-127571524D01*
X109477524Y-127619143D01*
X109572762Y-127714381D01*
X109620381Y-127809619D01*
X109620381Y-128000096D01*
X109572762Y-128095334D01*
X109477524Y-128190572D01*
X109287048Y-128238191D01*
X108953714Y-128238191D01*
X108763238Y-128190572D01*
X108668000Y-128095334D01*
X108620381Y-128000096D01*
X108620381Y-127142953D02*
X109429905Y-127142953D01*
X109525143Y-127095334D01*
X109572762Y-127047715D01*
X109620381Y-126952477D01*
X109620381Y-126762000D01*
X109572762Y-126666762D01*
X109525143Y-126619143D01*
X109429905Y-126571524D01*
X108620381Y-126571524D01*
X108620381Y-126238191D02*
X108620381Y-125666762D01*
X109620381Y-125952477D02*
X108620381Y-125952477D01*
X109620381Y-124809619D02*
X109620381Y-125381048D01*
X109620381Y-125095334D02*
X108620381Y-125095334D01*
X108763238Y-125190572D01*
X108858476Y-125285810D01*
X108906095Y-125381048D01*
X112950667Y-90384381D02*
X112950667Y-91098667D01*
X112903047Y-91241524D01*
X112807809Y-91336762D01*
X112664952Y-91384381D01*
X112569714Y-91384381D01*
X113950667Y-91384381D02*
X113379238Y-91384381D01*
X113664952Y-91384381D02*
X113664952Y-90384381D01*
X113569714Y-90527238D01*
X113474476Y-90622476D01*
X113379238Y-90670095D01*
X135302667Y-89971571D02*
X134969333Y-89971571D01*
X134969333Y-90495381D02*
X134969333Y-89495381D01*
X135445524Y-89495381D01*
X136350286Y-90495381D02*
X135778857Y-90495381D01*
X136064571Y-90495381D02*
X136064571Y-89495381D01*
X135969333Y-89638238D01*
X135874095Y-89733476D01*
X135778857Y-89781095D01*
X117292381Y-100560095D02*
X116292381Y-100560095D01*
X116292381Y-100322000D01*
X116340000Y-100179142D01*
X116435238Y-100083904D01*
X116530476Y-100036285D01*
X116720952Y-99988666D01*
X116863810Y-99988666D01*
X117054286Y-100036285D01*
X117149524Y-100083904D01*
X117244762Y-100179142D01*
X117292381Y-100322000D01*
X117292381Y-100560095D01*
X116292381Y-99655333D02*
X116292381Y-99036285D01*
X116673333Y-99369619D01*
X116673333Y-99226761D01*
X116720952Y-99131523D01*
X116768571Y-99083904D01*
X116863810Y-99036285D01*
X117101905Y-99036285D01*
X117197143Y-99083904D01*
X117244762Y-99131523D01*
X117292381Y-99226761D01*
X117292381Y-99512476D01*
X117244762Y-99607714D01*
X117197143Y-99655333D01*
X124737905Y-90368381D02*
X124737905Y-89368381D01*
X124976000Y-89368381D01*
X125118858Y-89416000D01*
X125214096Y-89511238D01*
X125261715Y-89606476D01*
X125309334Y-89796952D01*
X125309334Y-89939810D01*
X125261715Y-90130286D01*
X125214096Y-90225524D01*
X125118858Y-90320762D01*
X124976000Y-90368381D01*
X124737905Y-90368381D01*
X125690286Y-89463619D02*
X125737905Y-89416000D01*
X125833143Y-89368381D01*
X126071239Y-89368381D01*
X126166477Y-89416000D01*
X126214096Y-89463619D01*
X126261715Y-89558857D01*
X126261715Y-89654095D01*
X126214096Y-89796952D01*
X125642667Y-90368381D01*
X126261715Y-90368381D01*
X119705381Y-92178095D02*
X118705381Y-92178095D01*
X118705381Y-91940000D01*
X118753000Y-91797142D01*
X118848238Y-91701904D01*
X118943476Y-91654285D01*
X119133952Y-91606666D01*
X119276810Y-91606666D01*
X119467286Y-91654285D01*
X119562524Y-91701904D01*
X119657762Y-91797142D01*
X119705381Y-91940000D01*
X119705381Y-92178095D01*
X119705381Y-90654285D02*
X119705381Y-91225714D01*
X119705381Y-90940000D02*
X118705381Y-90940000D01*
X118848238Y-91035238D01*
X118943476Y-91130476D01*
X118991095Y-91225714D01*
X136643714Y-115158333D02*
X136681810Y-115196428D01*
X136719905Y-115310714D01*
X136719905Y-115386904D01*
X136681810Y-115501190D01*
X136605619Y-115577381D01*
X136529429Y-115615476D01*
X136377048Y-115653571D01*
X136262762Y-115653571D01*
X136110381Y-115615476D01*
X136034190Y-115577381D01*
X135958000Y-115501190D01*
X135919905Y-115386904D01*
X135919905Y-115310714D01*
X135958000Y-115196428D01*
X135996095Y-115158333D01*
X136719905Y-114777381D02*
X136719905Y-114625000D01*
X136681810Y-114548809D01*
X136643714Y-114510714D01*
X136529429Y-114434523D01*
X136377048Y-114396428D01*
X136072286Y-114396428D01*
X135996095Y-114434523D01*
X135958000Y-114472619D01*
X135919905Y-114548809D01*
X135919905Y-114701190D01*
X135958000Y-114777381D01*
X135996095Y-114815476D01*
X136072286Y-114853571D01*
X136262762Y-114853571D01*
X136338952Y-114815476D01*
X136377048Y-114777381D01*
X136415143Y-114701190D01*
X136415143Y-114548809D01*
X136377048Y-114472619D01*
X136338952Y-114434523D01*
X136262762Y-114396428D01*
X120467714Y-109771333D02*
X120505810Y-109809428D01*
X120543905Y-109923714D01*
X120543905Y-109999904D01*
X120505810Y-110114190D01*
X120429619Y-110190381D01*
X120353429Y-110228476D01*
X120201048Y-110266571D01*
X120086762Y-110266571D01*
X119934381Y-110228476D01*
X119858190Y-110190381D01*
X119782000Y-110114190D01*
X119743905Y-109999904D01*
X119743905Y-109923714D01*
X119782000Y-109809428D01*
X119820095Y-109771333D01*
X120086762Y-109314190D02*
X120048667Y-109390381D01*
X120010571Y-109428476D01*
X119934381Y-109466571D01*
X119896286Y-109466571D01*
X119820095Y-109428476D01*
X119782000Y-109390381D01*
X119743905Y-109314190D01*
X119743905Y-109161809D01*
X119782000Y-109085619D01*
X119820095Y-109047523D01*
X119896286Y-109009428D01*
X119934381Y-109009428D01*
X120010571Y-109047523D01*
X120048667Y-109085619D01*
X120086762Y-109161809D01*
X120086762Y-109314190D01*
X120124857Y-109390381D01*
X120162952Y-109428476D01*
X120239143Y-109466571D01*
X120391524Y-109466571D01*
X120467714Y-109428476D01*
X120505810Y-109390381D01*
X120543905Y-109314190D01*
X120543905Y-109161809D01*
X120505810Y-109085619D01*
X120467714Y-109047523D01*
X120391524Y-109009428D01*
X120239143Y-109009428D01*
X120162952Y-109047523D01*
X120124857Y-109085619D01*
X120086762Y-109161809D01*
X122245714Y-109783333D02*
X122283810Y-109821428D01*
X122321905Y-109935714D01*
X122321905Y-110011904D01*
X122283810Y-110126190D01*
X122207619Y-110202381D01*
X122131429Y-110240476D01*
X121979048Y-110278571D01*
X121864762Y-110278571D01*
X121712381Y-110240476D01*
X121636190Y-110202381D01*
X121560000Y-110126190D01*
X121521905Y-110011904D01*
X121521905Y-109935714D01*
X121560000Y-109821428D01*
X121598095Y-109783333D01*
X121521905Y-109516666D02*
X121521905Y-108983333D01*
X122321905Y-109326190D01*
X110450334Y-97766143D02*
X110402715Y-97813762D01*
X110259858Y-97861381D01*
X110164620Y-97861381D01*
X110021762Y-97813762D01*
X109926524Y-97718524D01*
X109878905Y-97623286D01*
X109831286Y-97432810D01*
X109831286Y-97289952D01*
X109878905Y-97099476D01*
X109926524Y-97004238D01*
X110021762Y-96909000D01*
X110164620Y-96861381D01*
X110259858Y-96861381D01*
X110402715Y-96909000D01*
X110450334Y-96956619D01*
X111307477Y-96861381D02*
X111117000Y-96861381D01*
X111021762Y-96909000D01*
X110974143Y-96956619D01*
X110878905Y-97099476D01*
X110831286Y-97289952D01*
X110831286Y-97670905D01*
X110878905Y-97766143D01*
X110926524Y-97813762D01*
X111021762Y-97861381D01*
X111212239Y-97861381D01*
X111307477Y-97813762D01*
X111355096Y-97766143D01*
X111402715Y-97670905D01*
X111402715Y-97432810D01*
X111355096Y-97337571D01*
X111307477Y-97289952D01*
X111212239Y-97242333D01*
X111021762Y-97242333D01*
X110926524Y-97289952D01*
X110878905Y-97337571D01*
X110831286Y-97432810D01*
X136723714Y-110787333D02*
X136761810Y-110825428D01*
X136799905Y-110939714D01*
X136799905Y-111015904D01*
X136761810Y-111130190D01*
X136685619Y-111206381D01*
X136609429Y-111244476D01*
X136457048Y-111282571D01*
X136342762Y-111282571D01*
X136190381Y-111244476D01*
X136114190Y-111206381D01*
X136038000Y-111130190D01*
X135999905Y-111015904D01*
X135999905Y-110939714D01*
X136038000Y-110825428D01*
X136076095Y-110787333D01*
X135999905Y-110063523D02*
X135999905Y-110444476D01*
X136380857Y-110482571D01*
X136342762Y-110444476D01*
X136304667Y-110368285D01*
X136304667Y-110177809D01*
X136342762Y-110101619D01*
X136380857Y-110063523D01*
X136457048Y-110025428D01*
X136647524Y-110025428D01*
X136723714Y-110063523D01*
X136761810Y-110101619D01*
X136799905Y-110177809D01*
X136799905Y-110368285D01*
X136761810Y-110444476D01*
X136723714Y-110482571D01*
X117251667Y-116577714D02*
X117213572Y-116615810D01*
X117099286Y-116653905D01*
X117023096Y-116653905D01*
X116908810Y-116615810D01*
X116832619Y-116539619D01*
X116794524Y-116463429D01*
X116756429Y-116311048D01*
X116756429Y-116196762D01*
X116794524Y-116044381D01*
X116832619Y-115968190D01*
X116908810Y-115892000D01*
X117023096Y-115853905D01*
X117099286Y-115853905D01*
X117213572Y-115892000D01*
X117251667Y-115930095D01*
X117937381Y-116120571D02*
X117937381Y-116653905D01*
X117746905Y-115815810D02*
X117556429Y-116387238D01*
X118051667Y-116387238D01*
X117316667Y-107132714D02*
X117278572Y-107170810D01*
X117164286Y-107208905D01*
X117088096Y-107208905D01*
X116973810Y-107170810D01*
X116897619Y-107094619D01*
X116859524Y-107018429D01*
X116821429Y-106866048D01*
X116821429Y-106751762D01*
X116859524Y-106599381D01*
X116897619Y-106523190D01*
X116973810Y-106447000D01*
X117088096Y-106408905D01*
X117164286Y-106408905D01*
X117278572Y-106447000D01*
X117316667Y-106485095D01*
X117583334Y-106408905D02*
X118078572Y-106408905D01*
X117811905Y-106713667D01*
X117926191Y-106713667D01*
X118002381Y-106751762D01*
X118040477Y-106789857D01*
X118078572Y-106866048D01*
X118078572Y-107056524D01*
X118040477Y-107132714D01*
X118002381Y-107170810D01*
X117926191Y-107208905D01*
X117697619Y-107208905D01*
X117621429Y-107170810D01*
X117583334Y-107132714D01*
X137263143Y-96178666D02*
X137310762Y-96226285D01*
X137358381Y-96369142D01*
X137358381Y-96464380D01*
X137310762Y-96607238D01*
X137215524Y-96702476D01*
X137120286Y-96750095D01*
X136929810Y-96797714D01*
X136786952Y-96797714D01*
X136596476Y-96750095D01*
X136501238Y-96702476D01*
X136406000Y-96607238D01*
X136358381Y-96464380D01*
X136358381Y-96369142D01*
X136406000Y-96226285D01*
X136453619Y-96178666D01*
X136453619Y-95797714D02*
X136406000Y-95750095D01*
X136358381Y-95654857D01*
X136358381Y-95416761D01*
X136406000Y-95321523D01*
X136453619Y-95273904D01*
X136548857Y-95226285D01*
X136644095Y-95226285D01*
X136786952Y-95273904D01*
X137358381Y-95845333D01*
X137358381Y-95226285D01*
X121950667Y-104512714D02*
X121912572Y-104550810D01*
X121798286Y-104588905D01*
X121722096Y-104588905D01*
X121607810Y-104550810D01*
X121531619Y-104474619D01*
X121493524Y-104398429D01*
X121455429Y-104246048D01*
X121455429Y-104131762D01*
X121493524Y-103979381D01*
X121531619Y-103903190D01*
X121607810Y-103827000D01*
X121722096Y-103788905D01*
X121798286Y-103788905D01*
X121912572Y-103827000D01*
X121950667Y-103865095D01*
X122712572Y-104588905D02*
X122255429Y-104588905D01*
X122484000Y-104588905D02*
X122484000Y-103788905D01*
X122407810Y-103903190D01*
X122331619Y-103979381D01*
X122255429Y-104017476D01*
X131035095Y-104671762D02*
X131177952Y-104719381D01*
X131416048Y-104719381D01*
X131511286Y-104671762D01*
X131558905Y-104624143D01*
X131606524Y-104528905D01*
X131606524Y-104433667D01*
X131558905Y-104338429D01*
X131511286Y-104290810D01*
X131416048Y-104243190D01*
X131225571Y-104195571D01*
X131130333Y-104147952D01*
X131082714Y-104100333D01*
X131035095Y-104005095D01*
X131035095Y-103909857D01*
X131082714Y-103814619D01*
X131130333Y-103767000D01*
X131225571Y-103719381D01*
X131463667Y-103719381D01*
X131606524Y-103767000D01*
X132558905Y-104719381D02*
X131987476Y-104719381D01*
X132273190Y-104719381D02*
X132273190Y-103719381D01*
X132177952Y-103862238D01*
X132082714Y-103957476D01*
X131987476Y-104005095D01*
X124447800Y-117417867D02*
X124923991Y-117417867D01*
X124352562Y-117703581D02*
X124685895Y-116703581D01*
X125019229Y-117703581D01*
X125209705Y-116703581D02*
X125781134Y-116703581D01*
X125495419Y-117703581D02*
X125495419Y-116703581D01*
X126114467Y-117703581D02*
X126114467Y-116703581D01*
X126447801Y-117417867D01*
X126781134Y-116703581D01*
X126781134Y-117703581D01*
X127257324Y-117179771D02*
X127590658Y-117179771D01*
X127733515Y-117703581D02*
X127257324Y-117703581D01*
X127257324Y-116703581D01*
X127733515Y-116703581D01*
X128685896Y-116751200D02*
X128590658Y-116703581D01*
X128447801Y-116703581D01*
X128304943Y-116751200D01*
X128209705Y-116846438D01*
X128162086Y-116941676D01*
X128114467Y-117132152D01*
X128114467Y-117275010D01*
X128162086Y-117465486D01*
X128209705Y-117560724D01*
X128304943Y-117655962D01*
X128447801Y-117703581D01*
X128543039Y-117703581D01*
X128685896Y-117655962D01*
X128733515Y-117608343D01*
X128733515Y-117275010D01*
X128543039Y-117275010D01*
X129114467Y-117417867D02*
X129590658Y-117417867D01*
X129019229Y-117703581D02*
X129352562Y-116703581D01*
X129685896Y-117703581D01*
X129923991Y-116703581D02*
X130543039Y-116703581D01*
X130209705Y-117084533D01*
X130352563Y-117084533D01*
X130447801Y-117132152D01*
X130495420Y-117179771D01*
X130543039Y-117275010D01*
X130543039Y-117513105D01*
X130495420Y-117608343D01*
X130447801Y-117655962D01*
X130352563Y-117703581D01*
X130066848Y-117703581D01*
X129971610Y-117655962D01*
X129923991Y-117608343D01*
X130923991Y-116798819D02*
X130971610Y-116751200D01*
X131066848Y-116703581D01*
X131304944Y-116703581D01*
X131400182Y-116751200D01*
X131447801Y-116798819D01*
X131495420Y-116894057D01*
X131495420Y-116989295D01*
X131447801Y-117132152D01*
X130876372Y-117703581D01*
X131495420Y-117703581D01*
X132066848Y-117132152D02*
X131971610Y-117084533D01*
X131923991Y-117036914D01*
X131876372Y-116941676D01*
X131876372Y-116894057D01*
X131923991Y-116798819D01*
X131971610Y-116751200D01*
X132066848Y-116703581D01*
X132257325Y-116703581D01*
X132352563Y-116751200D01*
X132400182Y-116798819D01*
X132447801Y-116894057D01*
X132447801Y-116941676D01*
X132400182Y-117036914D01*
X132352563Y-117084533D01*
X132257325Y-117132152D01*
X132066848Y-117132152D01*
X131971610Y-117179771D01*
X131923991Y-117227390D01*
X131876372Y-117322629D01*
X131876372Y-117513105D01*
X131923991Y-117608343D01*
X131971610Y-117655962D01*
X132066848Y-117703581D01*
X132257325Y-117703581D01*
X132352563Y-117655962D01*
X132400182Y-117608343D01*
X132447801Y-117513105D01*
X132447801Y-117322629D01*
X132400182Y-117227390D01*
X132352563Y-117179771D01*
X132257325Y-117132152D01*
M02*
